<svg xmlns="http://www.w3.org/2000/svg" viewBox="0 0 30 30.5"><defs><style>.cls-1{fill:#f4a196;}.cls-2{fill:none;stroke:#000;stroke-linecap:round;stroke-linejoin:round;stroke-width:2px;}</style></defs><g id="Layer_2" data-name="Layer 2"><g id="Layer_1-2" data-name="Layer 1"><path id="Path_413" data-name="Path 413" class="cls-1" d="M17.1,14a1.7,1.7,0,0,1-3,1.2c-1.2-1.7,0-3.4.2-5.2a5.93,5.93,0,0,0-1.5-4.4.62.62,0,0,0-.7-.1c-.1.1-.2.2-.2.3A6.33,6.33,0,0,1,10.4,9c-.9,1.1-2,2-2.9,3a30.71,30.71,0,0,0-2.9,3.4,11,11,0,0,0-2,8.8A8.05,8.05,0,0,0,6,28.9a.53.53,0,0,0,.7-.2.45.45,0,0,0,0-.5,4.89,4.89,0,0,1-.8-2.3,5.58,5.58,0,0,1,1.5-3.7.48.48,0,0,1,.7,0,.37.37,0,0,1,.1.3,1.33,1.33,0,0,0,.3.8,1.81,1.81,0,0,0,1.7.7c1.5-.4,1.5-2.1.7-3.1s-1.7-2.2-1.3-3.6a6.89,6.89,0,0,1,.3-.8.48.48,0,0,1,.6-.2c.1.1.2.2.2.3a3.91,3.91,0,0,0,1.4,1.7A28.19,28.19,0,0,1,16,21.2a5.69,5.69,0,0,1,2,4.7,4.53,4.53,0,0,1-.8,2.2.62.62,0,0,0,.1.7.45.45,0,0,0,.5,0,8.38,8.38,0,0,0,4.1-6.7A8.61,8.61,0,0,0,17.1,14"/><path id="_Path_2-2" data-name=" Path 2-2" class="cls-2" d="M17.32,29.5c4.1-.9,8.7-4.6,8.7-9.3s-4.2-7.4-6.2-8.7a1.86,1.86,0,0,1-1.7,1.9h-.2A2,2,0,0,1,16,11.5c0-2.4.6-2,.6-4.3s-.3-3.5-3.1-6.2c1,5-3.3,7.1-6.8,10.5s-4.2,6.5-4.2,8.7c0,2.7.8,7.8,7.4,9.3-2.6-2.4-3.1-3.6-3.1-5a7.46,7.46,0,0,1,3.1-5c-1.2,3.1.8,3.7,1.9,3.7s1.9-.9,1.9-2.5-2.5-2.5-2.5-4.3a4.77,4.77,0,0,1,1.2-3.1s-.4,1.2,1.2,2.5S21,19.9,21,23.2,19.82,27.7,17.32,29.5Z"/><circle id="Ellipse_150" data-name="Ellipse 150" class="cls-1" cx="2.5" cy="5.3" r="2.5"/><circle id="Ellipse_151" data-name="Ellipse 151" class="cls-1" cx="8.2" cy="5.3" r="0.9"/><circle id="Ellipse_152" data-name="Ellipse 152" class="cls-1" cx="28" cy="28.3" r="2"/><circle id="Ellipse_153" data-name="Ellipse 153" class="cls-1" cx="21.8" cy="6.4" r="1.1"/></g></g></svg>