<svg xmlns="http://www.w3.org/2000/svg" viewBox="0 0 131.1 209.89"><defs><style>.cls-1{isolation:isolate;}.cls-2{fill:#05d5fa;mix-blend-mode:multiply;opacity:0.25;}</style></defs><g class="cls-1"><g id="Layer_1" data-name="Layer 1"><path class="cls-2" d="M435.81-82.8c4.35,8.53,4.6,19.29,6.12,28.85,1.41,8.9,7.62,25.12,14.35,31.6,11.63,11.21,37,10.53,45.15-6.4,9.31-19.42.76-43.82-2-64.86-4.27-32.48,20.81-39.47,25.13-71,1.65-12.09-2-29.33-14.27-35.24-15.62-7.51-33.56,2.45-48.37-8.81-5.54-4.21-28.85-31.47-38-3.65-3.29,10-5.42,20.18-7.85,30.36-2.35,9.79-5.15,19.32-10.12,28.11-6.64,11.74-16.55,24.66-9.86,38.17C404.67-98.33,427.72-98.66,435.81-82.8Z" transform="translate(-393.83 224.72)"/></g></g></svg>