<svg xmlns="http://www.w3.org/2000/svg" viewBox="0 0 31.6 31.92"><defs><style>.cls-1{fill:#898989;opacity:0.4;isolation:isolate;}.cls-2{fill:none;stroke:#000;stroke-width:1.5px;}.cls-3{fill:#1a171b;}</style></defs><g id="Layer_2" data-name="Layer 2"><g id="Layer_1-2" data-name="Layer 1"><circle id="Ellipse_218" data-name="Ellipse 218" class="cls-1" cx="17.01" cy="19.97" r="11"/><path id="Subtraction_1" data-name="Subtraction 1" class="cls-2" d="M14.11,1.07a5.85,5.85,0,0,0-1.3.2l-1.3.3a7.84,7.84,0,0,0-1.4.5c-.4.2-.9.4-1.1.5s-.7.4-1,.6a9.38,9.38,0,0,0-1.2.9c-.5.4-.9.8-1.4,1.2s-.9,1-1.2,1.3a7.63,7.63,0,0,0-.8,1.1,6,6,0,0,0-.6,1.1,13.92,13.92,0,0,1-.6,1.3,11.22,11.22,0,0,0-.5,1.3,5,5,0,0,0-.3,1.3,9.92,9.92,0,0,1-.3,1.5,11.48,11.48,0,0,0-.1,1.9,13.4,13.4,0,0,0,.1,2c.1.5.2,1.3.3,1.8a10.38,10.38,0,0,0,.4,1.3,10.41,10.41,0,0,0,.5,1.2c.2.4.5.9.7,1.3s.6.9.8,1.3.7.8.9,1.2.7.7,1,1.1.7.6.9.8a7.05,7.05,0,0,0,.9.7l1.5.9a12.2,12.2,0,0,0,1.7.7c.4.1,1.1.3,1.4.4s1.1.2,1.5.3a9.15,9.15,0,0,0,1.7.1,9.7,9.7,0,0,0,1.7-.1c.5-.1,1.2-.2,1.5-.3l1.3-.4c.3-.1,1-.4,1.3-.5a6.72,6.72,0,0,0,1.2-.6,7,7,0,0,0,.9-.6c.2-.2.6-.4.8-.6s.6-.5.9-.8a5.24,5.24,0,0,0,1-1.1,5.38,5.38,0,0,0,.9-1.2c.2-.4.6-.9.8-1.3s.5-.9.7-1.3a10.41,10.41,0,0,0,.5-1.2c.1-.3.3-.9.4-1.3a8.42,8.42,0,0,0,.3-1.8,14.08,14.08,0,0,0,.1-2,12.75,12.75,0,0,0-.1-1.9c-.1-.4-.2-1.1-.3-1.5s-.3-1-.4-1.4-.4-1-.5-1.3a3.88,3.88,0,0,0-.6-1.1c-.2-.2-.4-.8-.6-1a8.65,8.65,0,0,1-.7-1c-.2-.3-.7-.8-1-1.2a6,6,0,0,0-1.2-1.1,7.05,7.05,0,0,1-.9-.7,7,7,0,0,0-.9-.6c-.3-.2-.8-.4-1.1-.6a6.12,6.12,0,0,0-1.2-.5c-.3-.1-.9-.3-1.3-.4s-.9-.2-1.2-.3-.9-.1-1.3-.2a6.6,6.6,0,0,0-1.4-.1C15.11,1,14.51,1.07,14.11,1.07Z"/><circle id="Ellipse_126-18" data-name="Ellipse 126-18" cx="1.4" cy="1.4" r="1.4"/><circle id="Ellipse_127-24" data-name="Ellipse 127-24" cx="28.3" cy="29.6" r="1.4"/><circle id="Ellipse_128-24" data-name="Ellipse 128-24" cx="31" cy="31" r="0.6"/><path id="Path_1" data-name="Path 1" class="cls-3" d="M21.1,6.6c-.3.1-.5.2-.8.3a4.05,4.05,0,0,0-.9.5,2.7,2.7,0,0,0-.8.7,5,5,0,0,0-.7.8,8.65,8.65,0,0,0-.7,1c-.2.3-.4.8-.6,1.1a4.33,4.33,0,0,0-.5,1.2,2.49,2.49,0,0,1-.3.7,4.43,4.43,0,0,1-.6-.5,3.51,3.51,0,0,0-1-.8c-.2-.2-.5-.3-.7-.5s-.5-.2-.7-.3-.6-.1-.9-.2a3.75,3.75,0,0,0-1,.1L10,11a3.16,3.16,0,0,0-1.4,1.4c-.1.2-.2.5-.3.7a2.2,2.2,0,0,0-.1.8,1.88,1.88,0,0,0,.2.8c.1.3.2.5.3.8a10.63,10.63,0,0,0,.9,1.1,7,7,0,0,1,.8,1,1.27,1.27,0,0,1,.1.6,1.42,1.42,0,0,1-.2.6c-.1.2-.2.3-.3.5s-.3.2-.4.3a1.48,1.48,0,0,1-.7.1,1.7,1.7,0,0,1-.7-.1,2.19,2.19,0,0,1-.5-.3L7.4,19c0-.1,0-.2.2-.6a1.85,1.85,0,0,0,.2-.7.75.75,0,0,0-.1-.5c-.1-.1-.1-.3-.2-.4s-.2-.2-.3-.2a.6.6,0,0,0-.4-.1.9.9,0,0,0-.5.1c-.1.1-.2.1-.3.2s-.1.2-.2.3a.75.75,0,0,0-.1.5v.6a2.85,2.85,0,0,0,.8,1.4,2.18,2.18,0,0,0,.8.5,6.89,6.89,0,0,1,.8.3c.3.1.7.1,1.1.2a4.1,4.1,0,0,0,1.1-.1c.3-.1.5-.2.8-.3s.5-.3.7-.4.4-.3.6-.5.3-.4.4-.6A1.85,1.85,0,0,0,13,18v-.8a1.45,1.45,0,0,0-.2-.7,2.18,2.18,0,0,0-.5-.8,13.5,13.5,0,0,1-.9-1.1c-.2-.3-.4-.5-.6-.8a.6.6,0,0,1-.1-.4v-.5c.1-.2.1-.4.3-.5a1,1,0,0,1,.5-.4,1.06,1.06,0,0,1,.8-.1,1.88,1.88,0,0,1,.8.2,1.61,1.61,0,0,1,.7.4,10.63,10.63,0,0,1,1.1.9c.6.6.8.7.7.8a4.55,4.55,0,0,1-.3,1.1c-.1.5-.4,1.6-.5,2.3s-.3,1.7-.4,2.3-.3,1.5-.4,2.1a6,6,0,0,1-.5,1.6c-.1.4-.3.7-.4,1.1a5.58,5.58,0,0,1-.5.8l-.6.6c-.2.1-.4.3-.6.4s-.4.1-.6.2-.3,0-.4-.1-.1-.1-.1-.2v-.2l.3-.3c.2-.1.3-.2.3-.4V25a.76.76,0,0,0-.2-.5c-.1-.2-.3-.3-.4-.4a.66.66,0,0,0-.6-.1,1.27,1.27,0,0,0-.6.1c-.2.1-.3.2-.5.3s-.2.3-.3.4a1.09,1.09,0,0,0-.1.5,1.27,1.27,0,0,0,.1.6l.3.6a1,1,0,0,0,.5.4,1.42,1.42,0,0,0,.6.2,2.2,2.2,0,0,0,.8.1,2,2,0,0,0,.8-.1,6.89,6.89,0,0,0,.8-.3,4.67,4.67,0,0,0,1-.5,7,7,0,0,0,1-.8c.3-.3.5-.6.8-.9a7.05,7.05,0,0,0,.7-.9,12.75,12.75,0,0,0,.7-1.2,8.43,8.43,0,0,0,.6-1.4c.1-.4.3-.9.4-1.3s.2-.9.3-1.3.3-1.3.4-2l.2-1.4a16.2,16.2,0,0,0,2.2-.1l.9-.3a2.18,2.18,0,0,0,.8-.5c.2-.2.3-.4.5-.6a1.27,1.27,0,0,0,.1-.6,1.27,1.27,0,0,0-.1-.6c-.1-.1-.2-.3-.3-.4a.85.85,0,0,0-.8,0c-.1.1-.3.2-.4.3s-.1.2-.2.4a1.23,1.23,0,0,0,.2.7c.2.4.2.5.1.6a1.38,1.38,0,0,1-.4.3l-.6.3a3.75,3.75,0,0,1-1.1.1h-.8a1.48,1.48,0,0,1,.1-.7c.1-.4.2-1.1.3-1.7s.3-1.3.4-1.7a6.12,6.12,0,0,1,.5-1.2l.6-.9a3,3,0,0,1,.7-.5,1.7,1.7,0,0,1,.7-.1.9.9,0,0,1,.5.1c.1,0,.1.1.2.1v.2c0,.2-.1.3-.2.5a1.42,1.42,0,0,0-.2.6.9.9,0,0,0,.1.5c.1.1.1.2.2.3s.2.1.3.2.3.1.4.1a.9.9,0,0,0,.5-.1c.1-.1.3-.2.4-.3a2.19,2.19,0,0,0,.3-.5,1.27,1.27,0,0,0,.1-.6,1.42,1.42,0,0,0-.2-.6c-.1-.1-.2-.3-.3-.4a2.19,2.19,0,0,0-.5-.3,1.45,1.45,0,0,0-.7-.2,2.77,2.77,0,0,0-.9-.1C21.6,6.6,21.3,6.6,21.1,6.6Z"/></g></g></svg>