<svg xmlns:xlink="http://www.w3.org/1999/xlink" xmlns="http://www.w3.org/2000/svg" viewBox="0 0 92 72.8" width="92"  height="72.8" ><defs><style>.cls-1{isolation:isolate;}.cls-2{fill:#304c79;}.cls-3,.cls-5{fill:#fff;}.cls-3{mix-blend-mode:soft-light;}.cls-4{fill:#333956;}.cls-6{fill:#d9e9ff;}.cls-7{fill:#ffad2b;}.cls-8{fill:#2d61ba;}.cls-9{fill:#61aafc;}.cls-10{fill:#fdfdfd;}.cls-11{fill:#a8cfff;}</style></defs><g class="cls-1"><g id="Layer_1" data-name="Layer 1"><path class="cls-2" d="M10.07,17.39H81.4a5.2,5.2,0,0,1,5.2,5.2V68.26a0,0,0,0,1,0,0H4.87a0,0,0,0,1,0,0V22.59A5.2,5.2,0,0,1,10.07,17.39Z"/><path class="cls-3" d="M1243.35,414.29h-25.92a.54.54,0,0,1-.55-.54h0a.55.55,0,0,1,.55-.55h25.92a.55.55,0,0,1,.55.55h0A.55.55,0,0,1,1243.35,414.29Z" transform="translate(-1184.66 -347.6)"/><rect class="cls-4" x="6.26" y="18.45" width="78.94" height="45.77" rx="4.84"/><rect class="cls-5" x="7.04" y="19.19" width="77.38" height="44.37" rx="4.24"/><rect class="cls-6" x="18.16" y="47.62" width="16.4" height="10.89" rx="5.45"/><path class="cls-7" d="M37,19.19H80.13a4.29,4.29,0,0,1,4.29,4.29V59.21a4.36,4.36,0,0,1-4.36,4.36H37a0,0,0,0,1,0,0V19.19A0,0,0,0,1,37,19.19Z"/><path class="cls-3" d="M1246.59,406.68h-21.72a.49.49,0,0,1-.49-.5h0a.5.5,0,0,1,.49-.5h21.72a.5.5,0,0,1,.5.5h0A.5.5,0,0,1,1246.59,406.68Z" transform="translate(-1184.66 -347.6)"/><path class="cls-3" d="M1246.59,409.29h-21.72a.49.49,0,0,1-.49-.49h0a.49.49,0,0,1,.49-.5h21.72a.5.5,0,0,1,.5.5h0A.49.49,0,0,1,1246.59,409.29Z" transform="translate(-1184.66 -347.6)"/><rect class="cls-3" x="58.08" y="23.47" width="18.72" height="7.67" rx="3.84"/><rect class="cls-7" x="9.21" y="21.73" width="8.54" height="7.84" rx="3.92"/><rect class="cls-6" x="9.21" y="32.34" width="8.07" height="0.55" rx="0.27"/><rect class="cls-6" x="9.21" y="30.92" width="11.97" height="0.55" rx="0.27"/><path class="cls-4" d="M0,68.26H92a0,0,0,0,1,0,0v0a4.54,4.54,0,0,1-4.54,4.54H4.54A4.54,4.54,0,0,1,0,68.26v0a0,0,0,0,1,0,0Z"/><rect class="cls-8" x="24.6" width="40.7" height="56.02" rx="2.49"/><path class="cls-9" d="M1209.25,401.14a2.49,2.49,0,0,0,2.49,2.48h35.72a2.48,2.48,0,0,0,2.49-2.48Z" transform="translate(-1184.66 -347.6)"/><path class="cls-5" d="M1228.11,402.38a.45.45,0,1,1-.44-.44A.44.44,0,0,1,1228.11,402.38Z" transform="translate(-1184.66 -347.6)"/><path class="cls-5" d="M1230.05,402.38a.45.45,0,0,1-.89,0,.45.45,0,0,1,.89,0Z" transform="translate(-1184.66 -347.6)"/><path class="cls-5" d="M1232,402.38a.45.45,0,1,1-.44-.44A.44.44,0,0,1,1232,402.38Z" transform="translate(-1184.66 -347.6)"/><path class="cls-5" d="M1217.59,363.79a3.18,3.18,0,0,1-3.46-3.5V356h1.77v4.22a2.25,2.25,0,0,0,.45,1.57,1.62,1.62,0,0,0,1.25.48,1.64,1.64,0,0,0,1.26-.48,2.25,2.25,0,0,0,.45-1.57V356h1.74v4.28a3.18,3.18,0,0,1-3.46,3.5Z" transform="translate(-1184.66 -347.6)"/><path class="cls-5" d="M1222.8,363.66V356h1.77v7.65Z" transform="translate(-1184.66 -347.6)"/><path class="cls-5" d="M1225.11,364.75l3.61-10.29h1.51l-3.6,10.29Z" transform="translate(-1184.66 -347.6)"/><path class="cls-5" d="M1234.05,363.79a3.18,3.18,0,0,1-3.46-3.5V356h1.77v4.22a2.25,2.25,0,0,0,.45,1.57,1.88,1.88,0,0,0,2.51,0,2.25,2.25,0,0,0,.45-1.57V356h1.74v4.28a3.17,3.17,0,0,1-3.46,3.5Z" transform="translate(-1184.66 -347.6)"/><path class="cls-5" d="M1238.28,363.66l3.28-4.53v1.28l-3.14-4.4h2l2.17,3.07h-.84l2.14-3.08h1.92l-3.12,4.33v-1.27l3.31,4.59h-2l-2.25-3.25h.81l-2.22,3.25Z" transform="translate(-1184.66 -347.6)"/><path class="cls-7" d="M1249.05,350a1.4,1.4,0,0,1-1.38,1.4,1.39,1.39,0,1,1,1.38-1.4Z" transform="translate(-1184.66 -347.6)"/><polygon class="cls-10" points="63.86 1.85 63.52 1.51 63.01 2.02 62.5 1.51 62.16 1.85 62.66 2.36 62.16 2.87 62.5 3.21 63.01 2.7 63.52 3.21 63.86 2.87 63.35 2.36 63.86 1.85"/><rect class="cls-9" x="29.24" y="32.23" width="31.96" height="13.07" rx="6.53"/><circle class="cls-7" cx="32.5" cy="34.9" r="1.55"/><path class="cls-5" d="M1243.74,382.91h-23.45a.41.41,0,0,1-.41-.41h0a.4.4,0,0,1,.41-.4h23.45a.4.4,0,0,1,.4.4h0A.4.4,0,0,1,1243.74,382.91Z" transform="translate(-1184.66 -347.6)"/><circle class="cls-7" cx="32.5" cy="38.76" r="1.55"/><path class="cls-5" d="M1243.74,386.76h-23.45a.4.4,0,0,1-.41-.4h0a.41.41,0,0,1,.41-.41h23.45a.4.4,0,0,1,.4.41h0A.4.4,0,0,1,1243.74,386.76Z" transform="translate(-1184.66 -347.6)"/><circle class="cls-7" cx="1217.16" cy="390.21" r="1.55" transform="translate(-548.11 1181.31) rotate(-80.76)"/><path class="cls-5" d="M1243.74,390.62h-23.45a.41.41,0,0,1-.41-.41h0a.4.4,0,0,1,.41-.4h23.45a.4.4,0,0,1,.4.4h0A.4.4,0,0,1,1243.74,390.62Z" transform="translate(-1184.66 -347.6)"/><rect class="cls-9" x="29.24" y="23.9" width="31.96" height="4.96" rx="2.48"/><path class="cls-5" d="M1230,373.47h-14.71a.44.44,0,0,1-.44-.43h0a.44.44,0,0,1,.44-.44H1230a.44.44,0,0,1,.43.44h0A.43.43,0,0,1,1230,373.47Z" transform="translate(-1184.66 -347.6)"/><rect class="cls-5" x="30.17" y="26.94" width="30.1" height="0.81" rx="0.41"/><path class="cls-7" d="M1232.58,398.69h-5.95a1.74,1.74,0,0,1-1.74-1.74h0a1.74,1.74,0,0,1,1.74-1.74h5.95a1.73,1.73,0,0,1,1.73,1.74h0A1.73,1.73,0,0,1,1232.58,398.69Z" transform="translate(-1184.66 -347.6)"/><rect class="cls-11" x="29.3" y="19.68" width="31.96" height="0.59" rx="0.29"/></g></g></svg>