<svg xmlns="http://www.w3.org/2000/svg" viewBox="0 0 29.78 25.6"><defs><style>.cls-1{fill:#a0e4d5;}</style></defs><g id="Layer_2" data-name="Layer 2"><g id="Layer_1-2" data-name="Layer 1"><circle id="Ellipse_211" data-name="Ellipse 211" class="cls-1" cx="9.7" cy="16.2" r="8.8"/><path id="Path_467" data-name="Path 467" d="M11.3,20.06H2a.9.9,0,0,1-.9-.9,1.42,1.42,0,0,1,.2-.6L9.5,8.06H.8a.86.86,0,0,1-.8-.8H0a.79.79,0,0,1,.8-.8h10a.9.9,0,0,1,.9.9,1.42,1.42,0,0,1-.2.6L3.3,18.46h8a.79.79,0,0,1,.8.8h0a.86.86,0,0,1-.8.8Z"/><path id="Path_468" data-name="Path 468" d="M28.28,8.68H14.38a1.56,1.56,0,0,1,1.5-1.6h13.9A1.56,1.56,0,0,1,28.28,8.68Z"/><path id="Path_469" data-name="Path 469" d="M22.08,14.08h-7.7a1.56,1.56,0,0,1,1.5-1.6h7.7A1.56,1.56,0,0,1,22.08,14.08Z"/><path id="Path_470" data-name="Path 470" d="M18,19.48h-3.5a1.56,1.56,0,0,1,1.5-1.6h3.5a1.44,1.44,0,0,1-1.5,1.6Z"/><circle id="Ellipse_212" data-name="Ellipse 212" class="cls-1" cx="6.7" cy="1.7" r="1.7"/><circle id="Ellipse_213" data-name="Ellipse 213" class="cls-1" cx="10.7" cy="2.9" r="1"/><circle id="Ellipse_214" data-name="Ellipse 214" class="cls-1" cx="12.6" cy="1" r="0.5"/><circle id="Ellipse_215" data-name="Ellipse 215" class="cls-1" cx="24.9" cy="17.5" r="1.7"/><circle id="Ellipse_216" data-name="Ellipse 216" class="cls-1" cx="22.6" cy="22.1" r="0.8"/><circle id="Ellipse_217" data-name="Ellipse 217" class="cls-1" cx="24.9" cy="25" r="0.6"/></g></g></svg>