<?xml version="1.0" encoding="utf-8"?>
<!-- Generator: Adobe Illustrator 26.0.3, SVG Export Plug-In . SVG Version: 6.00 Build 0)  -->
<svg version="1.1" id="Слой_1" xmlns="http://www.w3.org/2000/svg" xmlns:xlink="http://www.w3.org/1999/xlink" x="0px" y="0px"
	 viewBox="0 0 557 312.56" style="enable-background:new 0 0 557 312.56;" xml:space="preserve">
<style type="text/css">
	.st0{fill:#E7F3FE;}
	.st1{fill:#9EC8FF;}
	.st2{fill:#FFFFFF;}
	.st3{opacity:0.8;}
	.st4{fill:#F37168;}
	.st5{fill:#CCE2FF;}
	.st6{fill:#99BBEB;}
	.st7{fill:#9BD6E8;}
	.st8{fill:#3A384D;}
	.st9{fill:#F09959;}
	.st10{fill:#E38540;}
	.st11{fill:#7A4E34;}
	.st12{fill:#D54A41;}
	.st13{opacity:0.2;fill:#99BBEB;}
	.st14{fill:#2E2D3D;}
	.st15{fill:#D5E1E8;}
	.st16{fill:#BDCCD4;}
	.st17{fill:#2E5B9A;}
	.st18{fill:#6791C9;}
	.st19{fill:#75A1DE;}
	.st20{fill:#F2E5DE;}
	.st21{fill:#303C60;}
	.st22{fill:#74B570;}
	.st23{fill:#9CD499;}
</style>
<g>
	<path class="st0" d="M80.77,28.97c76.08-28.24,153.41-3.27,205.85,51.11c52.44,54.39,162.5-37.54,220.88,16.76
		c39.84,37.06,21.59,132.33-33.03,173.59c-74.24,56.09-300.02,27.63-348.86,18.08c-56.27-11-97.4-44.36-114.12-84.86
		C-28.79,106.09,47.15,41.46,80.77,28.97z"/>
	<g>
		<g>
			<path class="st1" d="M340.82,68.21c0.26-2.3,0.39-4.64,0.39-7.01c0-1.25-0.04-2.49-0.11-3.73l-11.59-3.75
				c-0.71-4.89-2.11-9.55-4.1-13.88l7.68-9.45c-1.78-3.13-3.81-6.09-6.09-8.85l-11.59,3.78c-3.38-3.45-7.24-6.43-11.47-8.82
				l0.66-12.18c-3.23-1.47-6.62-2.68-10.12-3.59l-7.16,9.87c-2.79-0.47-5.65-0.72-8.58-0.72c-1.99,0-3.96,0.12-5.89,0.34L266.24,0
				c-3.55,0.72-6.99,1.75-10.29,3.04l0.02,12.19c-4.36,2.17-8.37,4.94-11.92,8.2l-11.37-4.39c-2.42,2.64-4.61,5.49-6.55,8.51
				l7.17,9.85c-2.22,4.23-3.87,8.82-4.84,13.65l-11.77,3.13c-0.26,2.3-0.39,4.64-0.39,7.01c0,1.25,0.04,2.49,0.11,3.73L228,68.68
				c0.71,4.89,2.11,9.55,4.1,13.88l-7.68,9.45c1.78,3.13,3.81,6.09,6.09,8.85l11.59-3.78c3.38,3.45,7.24,6.43,11.47,8.82
				l-0.66,12.18c3.23,1.47,6.62,2.68,10.12,3.59l7.16-9.87c2.79,0.47,5.65,0.72,8.58,0.72c1.99,0,3.96-0.12,5.89-0.34l6.63,10.24
				c3.55-0.72,6.99-1.75,10.29-3.04l-0.02-12.19c4.36-2.17,8.37-4.94,11.92-8.2l11.37,4.39c2.42-2.64,4.61-5.49,6.55-8.51
				l-7.17-9.85c2.22-4.23,3.87-8.82,4.84-13.65L340.82,68.21z M278.76,85.7c-13.53,0-24.5-10.97-24.5-24.5
				c0-13.53,10.97-24.5,24.5-24.5c13.53,0,24.5,10.97,24.5,24.5C303.26,74.73,292.29,85.7,278.76,85.7z"/>
			<g>
				<path class="st2" d="M312.17,89.14c-0.21,0-0.41-0.07-0.58-0.21c-0.39-0.32-0.44-0.9-0.12-1.29c6.16-7.4,9.55-16.79,9.55-26.44
					c0-4.62-0.76-9.15-2.25-13.48c-0.16-0.48,0.09-1,0.57-1.16c0.48-0.16,1,0.09,1.16,0.57c1.56,4.52,2.35,9.25,2.35,14.08
					c0,10.07-3.54,19.88-9.97,27.61C312.69,89.03,312.43,89.14,312.17,89.14z"/>
			</g>
			<g>
				<path class="st2" d="M308.62,31.32c-0.23,0-0.45-0.08-0.63-0.25c-4.14-3.9-8.93-6.85-14.24-8.78c-0.48-0.17-0.72-0.7-0.55-1.17
					c0.17-0.48,0.7-0.72,1.17-0.55c5.55,2.01,10.55,5.1,14.87,9.16c0.37,0.35,0.39,0.93,0.04,1.29
					C309.11,31.22,308.87,31.32,308.62,31.32z"/>
			</g>
			<g>
				<path class="st2" d="M269.26,21.11c-0.41,0-0.78-0.28-0.89-0.69c-0.12-0.49,0.17-0.99,0.66-1.11c3.45-0.87,7.02-1.31,10.61-1.31
					c0.51,0,0.92,0.41,0.92,0.92c0,0.51-0.41,0.92-0.92,0.92c-3.44,0-6.86,0.42-10.16,1.26C269.41,21.1,269.33,21.11,269.26,21.11z"
					/>
			</g>
		</g>
		<g>
			<path class="st1" d="M143.93,223.32c0.18-1.59,0.27-3.21,0.27-4.86c0-0.87-0.03-1.73-0.08-2.58l-8.03-2.6
				c-0.49-3.38-1.46-6.61-2.84-9.62l5.32-6.55c-1.23-2.17-2.64-4.22-4.22-6.13l-8.03,2.62c-2.34-2.39-5.01-4.45-7.95-6.11l0.46-8.43
				c-2.24-1.02-4.58-1.85-7.01-2.48l-4.96,6.84c-1.93-0.33-3.92-0.5-5.94-0.5c-1.38,0-2.74,0.08-4.08,0.23l-4.59-7.09
				c-2.46,0.5-4.84,1.21-7.13,2.11l0.01,8.45c-3.02,1.5-5.8,3.42-8.26,5.68l-7.87-3.04c-1.67,1.83-3.19,3.8-4.53,5.9l4.97,6.82
				c-1.54,2.93-2.68,6.11-3.35,9.45l-8.15,2.17c-0.18,1.59-0.27,3.21-0.27,4.86c0,0.87,0.03,1.73,0.08,2.58l8.03,2.6
				c0.49,3.38,1.46,6.61,2.84,9.62l-5.32,6.55c1.23,2.17,2.64,4.22,4.22,6.13l8.03-2.62c2.34,2.39,5.01,4.45,7.95,6.11l-0.46,8.43
				c2.24,1.02,4.58,1.85,7.01,2.48l4.96-6.84c1.93,0.33,3.92,0.5,5.94,0.5c1.38,0,2.74-0.08,4.08-0.23l4.59,7.09
				c2.46-0.5,4.84-1.21,7.13-2.11l-0.01-8.45c3.02-1.5,5.8-3.42,8.26-5.68l7.87,3.04c1.67-1.83,3.19-3.8,4.53-5.9l-4.97-6.82
				c1.54-2.93,2.68-6.11,3.35-9.45L143.93,223.32z M100.95,235.43c-9.37,0-16.97-7.6-16.97-16.97c0-9.37,7.6-16.97,16.97-16.97
				c9.37,0,16.97,7.6,16.97,16.97C117.92,227.83,110.32,235.43,100.95,235.43z"/>
			<g>
				<path class="st2" d="M124.09,238.1c-0.21,0-0.41-0.07-0.58-0.21c-0.39-0.32-0.44-0.9-0.12-1.29c4.22-5.08,6.55-11.52,6.55-18.13
					c0-3.17-0.52-6.28-1.54-9.25c-0.16-0.48,0.09-1,0.57-1.16c0.48-0.16,1,0.09,1.16,0.57c1.09,3.16,1.64,6.47,1.64,9.84
					c0,7.04-2.48,13.9-6.97,19.3C124.61,237.98,124.35,238.1,124.09,238.1z"/>
			</g>
			<g>
				<path class="st2" d="M121.63,198.05c-0.23,0-0.45-0.08-0.63-0.25c-2.84-2.67-6.12-4.7-9.77-6.02c-0.48-0.17-0.72-0.7-0.55-1.17
					c0.17-0.48,0.7-0.72,1.17-0.55c3.88,1.41,7.38,3.56,10.4,6.41c0.37,0.35,0.39,0.93,0.04,1.29
					C122.12,197.95,121.88,198.05,121.63,198.05z"/>
			</g>
			<g>
				<path class="st2" d="M94.37,190.98c-0.41,0-0.78-0.28-0.89-0.69c-0.12-0.49,0.17-0.99,0.66-1.11c2.41-0.61,4.91-0.92,7.42-0.92
					c0.51,0,0.92,0.41,0.92,0.92s-0.41,0.92-0.92,0.92c-2.36,0-4.7,0.29-6.97,0.86C94.52,190.97,94.44,190.98,94.37,190.98z"/>
			</g>
		</g>
		<path class="st1" d="M378.22,114.87c0-0.47-0.01-0.94-0.04-1.41l6.01-4.83c-0.47-2.41-1.21-4.72-2.18-6.91l-7.76-0.59
			c-1.76-2.79-4.05-5.21-6.72-7.13l-0.03-7.74c-2.16-1.13-4.47-2.03-6.88-2.66l-5.31,5.71c-0.92-0.1-1.84-0.15-2.79-0.15
			c-2.34,0-4.6,0.31-6.76,0.9l-6.08-4.82c-2.3,1-4.45,2.25-6.44,3.73l1.15,7.67c-2.27,2.26-4.12,4.94-5.42,7.91l-7.57,1.75
			c-0.64,2.34-1.02,4.78-1.12,7.3l6.67,3.86c0.34,3.38,1.33,6.56,2.85,9.42l-3.34,6.99c1.43,1.96,3.08,3.75,4.91,5.34l7.15-2.8
			c2.81,1.83,6,3.12,9.43,3.74l3.37,6.94c0.4,0.01,0.8,0.02,1.21,0.02c2.02,0,4-0.19,5.91-0.54l2.27-7.35
			c3.31-1.11,6.32-2.88,8.87-5.15l7.51,1.69c1.54-1.81,2.89-3.79,4-5.91l-4.36-6.4C377.7,120.77,378.22,117.88,378.22,114.87z
			 M352.24,126.19c-5.98,0-10.82-4.85-10.82-10.82c0-5.98,4.85-10.82,10.82-10.82c5.98,0,10.82,4.85,10.82,10.82
			C363.07,121.34,358.22,126.19,352.24,126.19z"/>
	</g>
	<g>
		<g class="st3">
			<path class="st1" d="M478.28,52.51h-9.3c-3.59,0-6.51-2.92-6.51-6.51v-9.3c0-3.59,2.92-6.51,6.51-6.51h9.3
				c3.59,0,6.51,2.92,6.51,6.51V46C484.79,49.59,481.87,52.51,478.28,52.51z M468.97,32.74c-2.18,0-3.95,1.77-3.95,3.95V46
				c0,2.18,1.77,3.95,3.95,3.95h9.3c2.18,0,3.95-1.77,3.95-3.95v-9.3c0-2.18-1.77-3.95-3.95-3.95H468.97z"/>
		</g>
		<g class="st3">
			<path class="st1" d="M434.5,52.51h-9.3c-3.59,0-6.51-2.92-6.51-6.51v-9.3c0-3.59,2.92-6.51,6.51-6.51h9.3
				c3.59,0,6.51,2.92,6.51,6.51V46C441.02,49.59,438.1,52.51,434.5,52.51z M425.2,32.74c-2.18,0-3.95,1.77-3.95,3.95V46
				c0,2.18,1.77,3.95,3.95,3.95h9.3c2.18,0,3.95-1.77,3.95-3.95v-9.3c0-2.18-1.77-3.95-3.95-3.95H425.2z"/>
		</g>
		<g>
			<path class="st4" d="M430.43,47.09c-0.02,0-0.04,0-0.05,0c-0.32-0.02-0.62-0.17-0.82-0.43l-6.69-8.72
				c-0.37-0.48-0.28-1.17,0.2-1.54c0.48-0.37,1.17-0.28,1.54,0.2l5.9,7.69l15.39-16.49c0.41-0.44,1.11-0.47,1.55-0.05
				c0.44,0.41,0.47,1.11,0.05,1.55l-16.28,17.44C431.03,46.97,430.74,47.09,430.43,47.09z"/>
		</g>
	</g>
	<path class="st5" d="M509.03,292.75c-38.08-1.86-167.64,1.29-207.04,2.52c-39.4,1.23-85.14-1.62-108.89-5.82
		c-23.76-4.19-161.08,0.36-154.85,11.63c6.23,11.28,61.19,5.04,123.5,9.58c62.32,4.53,202.47-0.57,234.09,0
		c31.61,0.57,60.6-1.13,101.35-3.4S531.1,293.83,509.03,292.75z"/>
	<g>
		<rect x="40.15" y="56.96" class="st6" width="79.61" height="130.48"/>
		<rect x="44.32" y="59.61" class="st2" width="72.82" height="122.85"/>
		<g>
			<g>
				<path class="st7" d="M66.11,108.88c2.74-5.9,7.38-7.79,15-7.79c9.07,0,13.78,3.29,15.12,8.07
					C79.98,109.39,66.11,108.88,66.11,108.88z"/>
				<path class="st8" d="M77.94,72.41c-3.84,1.08-3.67,3.24-4.95,5.24c-1.28,2-4.06,3.34-4.39,4.67c-0.33,1.34,0.86,4.12-0.56,5.67
					c-1.41,1.56-1.89,2.34-1.34,3.89c0.56,1.56,1.78,4.01,1.89,4.34c0.11,0.33,1.67,2.67,3.56,3c1.89,0.33,5.45,0.89,7.23,1.67
					c1.78,0.78,7.5-1,10.68-0.89c3.18,0.11,5.34-2.23,5.12-3.79c-0.22-1.56,2.34-4.67,2.34-7.34c-0.01-2.87-3.34-5.01-4.23-6.9
					c-0.89-1.89,0.11-5.23-3.23-7.21c-2.11-1.25-3.56-1.14-5.23-1.69C83.17,72.54,80.38,71.73,77.94,72.41z"/>
				<path class="st9" d="M82.61,105.8c-0.87,1.28-1.51,1.34-2.45,0c-0.75-1.06-2.23-3.47-2.23-4.7V88.89c0-1.22,1-2.23,2.23-2.23
					h2.45c1.22,0,2.23,1,2.23,2.23v12.21C84.83,102.33,83.39,104.65,82.61,105.8z"/>
				<path class="st10" d="M82.61,86.66h-2.45c-1.22,0-2.23,1-2.23,2.23v10.9c2.75,0.87,5.26-0.86,6.9-2.82v-8.07
					C84.83,87.67,83.83,86.66,82.61,86.66z"/>
				<ellipse class="st9" cx="81.38" cy="86.79" rx="7.4" ry="10.08"/>
				<path class="st8" d="M84.83,78.77c-4.67,7.9-11.57,7.12-11.57,7.12s0.17-10.46,5.65-11.01c5.48-0.56,8.71,1.64,9.82,5.27
					c1.11,3.63,0,6.02,0,6.02s-1.78-1.39-2.67-3.62C85.17,80.32,84.83,78.77,84.83,78.77z"/>
				
					<ellipse transform="matrix(0.9033 -0.429 0.429 0.9033 -30.4673 39.77)" class="st9" cx="72.99" cy="87.47" rx="1.95" ry="2.92"/>
				<path class="st9" d="M87.69,86.63c-0.69,1.46-0.47,3.01,0.51,3.47c0.97,0.46,2.32-0.35,3.01-1.8c0.69-1.46,0.47-3.01-0.51-3.47
					C89.73,84.37,88.38,85.18,87.69,86.63z"/>
				<path class="st2" d="M84.17,92.26c0,0-1.25,1.61-2.78,1.61c-1.54,0-2.78-1.61-2.78-1.61H84.17z"/>
			</g>
			<path class="st6" d="M90.19,124.87H71.51c-1.19,0-2.17-0.98-2.17-2.17c0-1.19,0.98-2.17,2.17-2.17h18.68
				c1.19,0,2.17,0.98,2.17,2.17C92.36,123.89,91.39,124.87,90.19,124.87z"/>
			<path class="st6" d="M93.61,131.55H68.09c-1.19,0-2.17-0.98-2.17-2.17c0-1.19,0.98-2.17,2.17-2.17h25.53
				c1.19,0,2.17,0.98,2.17,2.17C95.79,130.57,94.81,131.55,93.61,131.55z"/>
			<path class="st6" d="M111.9,155.55H49.8c-0.69,0-1.26-0.57-1.26-1.26c0-0.69,0.57-1.26,1.26-1.26h62.09
				c0.69,0,1.26,0.57,1.26,1.26C113.16,154.98,112.59,155.55,111.9,155.55z"/>
			<path class="st6" d="M111.9,161.41H49.8c-0.69,0-1.26-0.57-1.26-1.26c0-0.69,0.57-1.26,1.26-1.26h62.09
				c0.69,0,1.26,0.57,1.26,1.26C113.16,160.84,112.59,161.41,111.9,161.41z"/>
			<path class="st6" d="M111.9,167.27H49.8c-0.69,0-1.26-0.57-1.26-1.26c0-0.69,0.57-1.26,1.26-1.26h62.09
				c0.69,0,1.26,0.57,1.26,1.26C113.16,166.7,112.59,167.27,111.9,167.27z"/>
			<g>
				<path class="st6" d="M103.21,110.33H58.49c-1.24,0-2.25-1.01-2.25-2.25V66.86c0-1.24,1.01-2.25,2.25-2.25h44.72
					c1.24,0,2.25,1.01,2.25,2.25v41.22C105.46,109.32,104.45,110.33,103.21,110.33z M58.49,66.44c-0.23,0-0.42,0.19-0.42,0.42v41.22
					c0,0.23,0.19,0.42,0.42,0.42h44.72c0.23,0,0.42-0.19,0.42-0.42V66.86c0-0.23-0.19-0.42-0.42-0.42H58.49z"/>
			</g>
			<g>
				<polygon class="st6" points="64.94,137.21 66.24,139.84 69.13,140.26 67.04,142.3 67.53,145.18 64.94,143.82 62.35,145.18 
					62.85,142.3 60.75,140.26 63.65,139.84 				"/>
				<polygon class="st6" points="75.55,137.21 76.84,139.84 79.74,140.26 77.64,142.3 78.14,145.18 75.55,143.82 72.96,145.18 
					73.45,142.3 71.36,140.26 74.25,139.84 				"/>
				<polygon class="st6" points="86.15,137.21 87.45,139.84 90.34,140.26 88.25,142.3 88.74,145.18 86.15,143.82 83.56,145.18 
					84.06,142.3 81.96,140.26 84.86,139.84 				"/>
				<polygon class="st6" points="96.76,137.21 98.05,139.84 100.95,140.26 98.85,142.3 99.35,145.18 96.76,143.82 94.17,145.18 
					94.66,142.3 92.57,140.26 95.46,139.84 				"/>
			</g>
		</g>
	</g>
	<g>
		<rect x="217.63" y="56.96" class="st6" width="79.61" height="130.48"/>
		<rect x="221.8" y="59.61" class="st2" width="72.82" height="122.85"/>
		<g>
			<g>
				<path class="st11" d="M247.04,86.12c0,5.84,3.52,15.27,11.82,14.97c8.3-0.3,10.14-9.29,10.46-11.83
					C269.65,86.73,247.04,86.12,247.04,86.12z"/>
				<path class="st12" d="M243.59,108.88c2.74-5.9,7.38-7.79,15-7.79c9.07,0,13.78,3.29,15.12,8.07
					C257.46,109.39,243.59,108.88,243.59,108.88z"/>
				<path class="st9" d="M260.09,105.8c-0.87,1.28-1.51,1.34-2.45,0c-0.75-1.06-2.23-3.47-2.23-4.7V88.89c0-1.22,1-2.23,2.23-2.23
					h2.45c1.22,0,2.23,1,2.23,2.23v12.21C262.31,102.33,260.87,104.65,260.09,105.8z"/>
				<path class="st10" d="M260.09,86.66h-2.45c-1.22,0-2.23,1-2.23,2.23v10.9c2.75,0.87,5.26-0.86,6.9-2.82v-8.07
					C262.31,87.67,261.31,86.66,260.09,86.66z"/>
				<ellipse class="st9" cx="258.87" cy="86.79" rx="7.4" ry="10.08"/>
				<path class="st11" d="M262.93,79.13c-0.88,3.1-2.81,3.06-5.49,4.08c-2.69,1.02-3.97,2.04-4.85,4.03
					c-1.12,2.53,0.51,9.9,0.51,9.9s-6.8-5.09-6.02-13.1c0.79-8.01,5.51-11.11,9.95-11.11c4.44,0,6.13,2.71,6.13,2.71
					s2.37,0.01,4.6,2.66c3.01,3.56,2.08,12.22,0,15.32c-2.08,3.1-3.47,4.07-3.42,3.93c0.05-0.14,1.94-7.26,0.93-11.66
					C264.25,81.49,262.93,79.13,262.93,79.13z"/>
				<path class="st2" d="M261.65,92.26c0,0-1.25,1.61-2.78,1.61c-1.54,0-2.78-1.61-2.78-1.61H261.65z"/>
			</g>
			<path class="st6" d="M267.67,124.87h-18.68c-1.19,0-2.17-0.98-2.17-2.17c0-1.19,0.98-2.17,2.17-2.17h18.68
				c1.19,0,2.17,0.98,2.17,2.17C269.84,123.89,268.87,124.87,267.67,124.87z"/>
			<path class="st6" d="M271.09,131.55h-25.53c-1.19,0-2.17-0.98-2.17-2.17c0-1.19,0.98-2.17,2.17-2.17h25.53
				c1.19,0,2.17,0.98,2.17,2.17C273.27,130.57,272.29,131.55,271.09,131.55z"/>
			<path class="st6" d="M289.38,155.55h-62.09c-0.69,0-1.26-0.57-1.26-1.26c0-0.69,0.57-1.26,1.26-1.26h62.09
				c0.69,0,1.26,0.57,1.26,1.26C290.64,154.98,290.07,155.55,289.38,155.55z"/>
			<path class="st6" d="M289.38,161.41h-62.09c-0.69,0-1.26-0.57-1.26-1.26c0-0.69,0.57-1.26,1.26-1.26h62.09
				c0.69,0,1.26,0.57,1.26,1.26C290.64,160.84,290.07,161.41,289.38,161.41z"/>
			<path class="st6" d="M289.38,167.27h-62.09c-0.69,0-1.26-0.57-1.26-1.26c0-0.69,0.57-1.26,1.26-1.26h62.09
				c0.69,0,1.26,0.57,1.26,1.26C290.64,166.7,290.07,167.27,289.38,167.27z"/>
			<g>
				<path class="st6" d="M280.69,110.33h-44.72c-1.24,0-2.25-1.01-2.25-2.25V66.86c0-1.24,1.01-2.25,2.25-2.25h44.72
					c1.24,0,2.25,1.01,2.25,2.25v41.22C282.94,109.32,281.93,110.33,280.69,110.33z M235.97,66.44c-0.23,0-0.42,0.19-0.42,0.42
					v41.22c0,0.23,0.19,0.42,0.42,0.42h44.72c0.23,0,0.42-0.19,0.42-0.42V66.86c0-0.23-0.19-0.42-0.42-0.42H235.97z"/>
			</g>
			<g>
				<polygon class="st6" points="242.42,137.21 243.72,139.84 246.61,140.26 244.52,142.3 245.01,145.18 242.42,143.82 
					239.83,145.18 240.33,142.3 238.23,140.26 241.13,139.84 				"/>
				<polygon class="st6" points="253.03,137.21 254.32,139.84 257.22,140.26 255.12,142.3 255.62,145.18 253.03,143.82 
					250.44,145.18 250.93,142.3 248.84,140.26 251.73,139.84 				"/>
				<polygon class="st6" points="263.63,137.21 264.93,139.84 267.82,140.26 265.73,142.3 266.22,145.18 263.63,143.82 
					261.04,145.18 261.54,142.3 259.44,140.26 262.34,139.84 				"/>
				<polygon class="st6" points="274.24,137.21 275.53,139.84 278.43,140.26 276.33,142.3 276.83,145.18 274.24,143.82 
					271.65,145.18 272.14,142.3 270.05,140.26 272.94,139.84 				"/>
			</g>
		</g>
	</g>
	<polygon class="st13" points="226.58,186.13 100.95,186.13 109.83,57.44 231.11,57.44 	"/>
	<g>
		<rect x="114.14" y="33.09" class="st6" width="108.73" height="178.22"/>
		<rect x="119.84" y="36.72" class="st2" width="99.47" height="167.8"/>
		<g>
			<g>
				<path class="st14" d="M160.3,71.96c-0.07-0.21-1.81-10.2-2.02-14.09c-0.21-3.89,6.25-4.44,6.25-4.44s5.28-2.85,9.09-1.39
					c3.82,1.46,6.42,3.91,8.15,6.96c1.74,3.05-1.53,12.57-1.53,12.57L160.3,71.96z"/>
				<path class="st15" d="M148.33,104.08c-0.02-0.16,0.45-4.1,0.46-4.26c0.88-8.28,11.09-10.61,21.28-10.61
					c11.97,0,20.09,2.19,21.39,10.8c0.04,0.25,0.73,4.2,0.69,4.46C169.97,104.77,148.33,104.08,148.33,104.08z"/>
				<path class="st9" d="M172.13,95.64c-1.19,1.75-2.06,1.82-3.34,0c-1.02-1.45-4.44-4.76-4.44-6.43l1.4-16.67
					c0-1.67,1.37-3.04,3.04-3.04h3.34c1.67,0,3.04,1.37,3.04,3.04l0.65,16.67C175.82,90.88,173.19,94.07,172.13,95.64z"/>
				<path class="st10" d="M172.13,69.5h-3.34c-1.67,0-3.04,1.37-3.04,3.04l-1.22,14.79c3.75,1.2,8.82-1.23,11.06-3.91l-0.43-10.88
					C175.17,70.87,173.8,69.5,172.13,69.5z"/>
				<path class="st16" d="M158.99,90.42l5.36,9.91c0,0,2.87-2.36,3.15-1.9c0.28,0.46-0.51,6.3-0.51,6.3s6.39,0.09,6.66-0.19
					c0.28-0.28-1.3-6.34-0.65-6.34c0.65,0,2.6,1.76,2.6,1.76l5.98-9.54l-1.32-0.32l-9.8,5.28l-10.49-5.16L158.99,90.42z"/>
				<polygon class="st12" points="165.12,94.99 169.1,97.66 167.86,104.75 173.23,104.45 171.89,98 175.19,94.99 173.64,93.53 
					166.67,93.53 				"/>
				<path class="st15" d="M164.62,85.57l-4.92,4.68c0,0,5.02,8.92,5.29,8.92c0.28,0,4.26-4.92,4.26-4.92l2.55-0.04l4.02,4.22
					l4.68-8.27l-4.77-5.05c0,0-4.07,7.87-4.81,8.05c-0.74,0.19-0.75,0.28-1.34-0.19C168.97,92.51,164.62,85.57,164.62,85.57z"/>
				<ellipse class="st9" cx="170.46" cy="69.67" rx="10.11" ry="13.77"/>
				<path class="st9" d="M161.39,69.46c0.95,1.99,0.64,4.11-0.69,4.74c-1.33,0.63-3.17-0.47-4.11-2.46
					c-0.95-1.99-0.64-4.11,0.69-4.74C158.6,66.36,160.44,67.47,161.39,69.46z"/>
				<path class="st9" d="M179.07,69.46c-0.95,1.99-0.64,4.11,0.69,4.74c1.33,0.63,3.17-0.47,4.11-2.46
					c0.95-1.99,0.64-4.11-0.69-4.74C181.86,66.36,180.02,67.47,179.07,69.46z"/>
				<path class="st2" d="M174.94,75.32c0,0-2.01,3.25-4.48,3.25c-2.48,0-4.48-3.25-4.48-3.25H174.94z"/>
				<path class="st14" d="M164.53,60.3c4.16-2.92,6.04-2.43,9.16,2.36c3.12,4.79,6.87,4.87,6.87,4.87l0.49-4.97
					c0,0-4.65-9-10.9-7.82c-6.25,1.18-9.8,6.8-9.8,6.8s-0.3,10.54,0.57,10.9c0.87,0.36,0.97-3.4,1.6-4.16
					c0.62-0.76-0.62-4.37,0.21-6.04C163.56,60.58,164.53,60.3,164.53,60.3z"/>
				<path class="st14" d="M177.93,65.72c1.45,1.59,0.9,7.91,1.67,7.84s1.04-6.04,0.83-6.66C180.22,66.27,177.93,65.72,177.93,65.72z
					"/>
			</g>
			<path class="st6" d="M192.94,125.85h-46.42c-1.63,0-2.97-1.34-2.97-2.97c0-1.63,1.34-2.97,2.97-2.97h46.42
				c1.63,0,2.97,1.34,2.97,2.97C195.9,124.51,194.57,125.85,192.94,125.85z"/>
			<path class="st6" d="M187.16,134.97H152.3c-1.63,0-2.97-1.34-2.97-2.97c0-1.63,1.34-2.97,2.97-2.97h34.86
				c1.63,0,2.97,1.34,2.97,2.97C190.13,133.63,188.79,134.97,187.16,134.97z"/>
			<path class="st6" d="M212.13,167.75h-84.81c-0.95,0-1.72-0.77-1.72-1.72s0.77-1.72,1.72-1.72h84.81c0.95,0,1.72,0.77,1.72,1.72
				S213.08,167.75,212.13,167.75z"/>
			<path class="st6" d="M212.13,175.76h-84.81c-0.95,0-1.72-0.77-1.72-1.72c0-0.95,0.77-1.72,1.72-1.72h84.81
				c0.95,0,1.72,0.77,1.72,1.72C213.85,174.98,213.08,175.76,212.13,175.76z"/>
			<path class="st6" d="M212.13,183.76h-84.81c-0.95,0-1.72-0.77-1.72-1.72s0.77-1.72,1.72-1.72h84.81c0.95,0,1.72,0.77,1.72,1.72
				S213.08,183.76,212.13,183.76z"/>
			<g>
				<path class="st6" d="M200.27,105.65h-61.08c-1.51,0-2.74-1.23-2.74-2.74v-56.3c0-1.51,1.23-2.74,2.74-2.74h61.08
					c1.51,0,2.74,1.23,2.74,2.74v56.3C203.01,104.42,201.78,105.65,200.27,105.65z M139.19,45.71c-0.5,0-0.91,0.41-0.91,0.91v56.3
					c0,0.5,0.41,0.91,0.91,0.91h61.08c0.5,0,0.91-0.41,0.91-0.91v-56.3c0-0.5-0.41-0.91-0.91-0.91H139.19z"/>
			</g>
			<g>
				<polygon class="st6" points="140.64,142.71 142.41,146.29 146.37,146.86 143.51,149.65 144.18,153.59 140.64,151.73 
					137.11,153.59 137.78,149.65 134.92,146.86 138.88,146.29 				"/>
				<polygon class="st6" points="155.13,142.71 156.9,146.29 160.85,146.86 157.99,149.65 158.67,153.59 155.13,151.73 
					151.59,153.59 152.27,149.65 149.41,146.86 153.36,146.29 				"/>
				<polygon class="st6" points="169.61,142.71 171.38,146.29 175.34,146.86 172.48,149.65 173.15,153.59 169.61,151.73 
					166.08,153.59 166.75,149.65 163.89,146.86 167.85,146.29 				"/>
				<polygon class="st6" points="184.1,142.71 185.87,146.29 189.82,146.86 186.96,149.65 187.64,153.59 184.1,151.73 
					180.56,153.59 181.24,149.65 178.38,146.86 182.33,146.29 				"/>
				<polygon class="st6" points="198.81,142.71 200.58,146.29 204.54,146.86 201.68,149.65 202.35,153.59 198.81,151.73 
					195.28,153.59 195.95,149.65 193.09,146.86 197.05,146.29 				"/>
			</g>
		</g>
	</g>
	<path class="st17" d="M396.37,205.58H259.12c-1.47,0-2.66-1.19-2.66-2.66l0,0c0-1.47,1.19-2.66,2.66-2.66h137.25
		c1.47,0,2.66,1.19,2.66,2.66v0C399.03,204.39,397.84,205.58,396.37,205.58z"/>
	<g>
		<path class="st9" d="M433.44,129.07c1.89,6.67-2.73,13.53-7.81,14.98c-5.09,1.44-8.72-3.09-10.61-9.75
			c-1.89-6.67,0.7-13.24,5.79-14.68C425.89,118.17,431.55,122.4,433.44,129.07z"/>
		<path class="st9" d="M404.92,258.22c0,0,13.04,20.25,14.8,21.13c1.76,0.88,6.16,1.1,4.51,4.4c-1.65,3.3-2.31,16.29-3.85,16.95
			c-1.54,0.66-14.75,2.2-12.76,0c1.98-2.2,3.2-1.1,4.2-5.06c1-3.96,2.4-11.44,0.53-12.98s-13.31-15.41-13.31-15.41L404.92,258.22z"
			/>
		<path class="st9" d="M339.31,266.92c0,0-15.85,26.12-18.78,28.46c-2.93,2.35-12.62,5.87-4.7,6.46c7.92,0.59,11.74-2.64,16.73-4.11
			c4.99-1.47,11.15-2.35,8.8-6.16c-2.35-3.81-1.37-12.14,3.69-17.43C350.11,268.86,339.31,266.92,339.31,266.92z"/>
		<path class="st18" d="M420.17,206.36c0,0-39.23-1.03-54.78,11.74c-9.1,13.79-31.1,54.49-32.81,58.97c1.17,1.17,7.78,3.29,10.71,3
			c8.66-10.32,20.1-19.25,24.65-27.34c5.61-9.98,7.34-14.97,16.43-15.85c9.1-0.88,29.64-3.81,35.8-3.81S420.17,206.36,420.17,206.36
			z"/>
		<polygon class="st17" points="454.38,301.91 452.33,301.91 437.58,240.39 442.1,240.39 		"/>
		<polygon class="st17" points="392.79,301.91 394.84,301.91 411.76,238.21 407.24,238.21 		"/>
		<path class="st19" d="M442.52,203.67l-22.81,3.94c0,0-30.31,0.28-44.16,2.86c-12.6,2.35-14.46,16.67,0,36.39
			c8.21,11.2,15.16,20.14,29.36,30.21c3.61-2.65,5-3.66,5.99-10.04c-1.03-1.41-3.69-10.23-4.51-11.96
			c-7.86-16.42-18.34-22.39-18.49-24.01c1.76-2.86,46.64,14.91,55.56,4.46C451.99,225.53,442.52,203.67,442.52,203.67z"/>
		<path class="st4" d="M443.47,152.04c-6.01-0.84-12.12,0.3-17.85,4.44c-5,5.1-10.66,13.5-10.31,27.36
			c0.44,17.61-2.72,18.74,0.58,23.58c13.77,5.69,37.32,30.11,31.77,3.93c-4.02-18.96,8.81-33.1-1.54-54.13
			C445.28,155.5,444.23,153.84,443.47,152.04z"/>
		<path class="st12" d="M415.31,190.47c-0.27,9.18-1.56,11.88-0.57,14.76c5.61,0.57,15.88,2.82,18.45,6.41
			c2.93,4.11,5.87,4.7,4.5,1.66c-1.37-3.03-4.99-7.34,0.59-22.11c5.58-14.77,8.22-24.75,2.74-35.02L415.31,190.47z"/>
		<path class="st9" d="M443.47,152.04c-3.7-8.76-4.61-18.59-4.61-18.59l-9.68,2.86c0,0,5.5,12.32,0.22,16.73
			c-1.12,0.94-2.43,2.07-3.78,3.45C431.35,152.33,437.46,151.19,443.47,152.04z"/>
		<path class="st10" d="M439.15,135.77c-0.57-0.51-1.29-1.15-2.05-1.81l-7.9,2.33c-0.01,0.01-0.01,0.03-0.02,0.04
			c0.19,0.44,2.2,5.13,2.47,9.65c2.35-1.43,4.93-3.76,7.88-7.82C439.38,137.26,439.25,136.45,439.15,135.77z"/>
		<path class="st9" d="M436.66,154.79c-9.97,3.49-8.87,14-18.05,29.49c-4.75,8.02-9.16,7.9-9.16,7.9s-11.14,0.09-24.62-1.56
			c-8.44-1.03-8.97,1.48-3.11,3.58c11.84,4.23,24.12,8.79,34.02,7.69c9.9-1.1,26.84-26.37,27.72-32.95
			C444.68,159.84,441.68,153.03,436.66,154.79z"/>
		<g>
			<path class="st17" d="M431.53,242.95c-0.62,0-1.25-0.01-1.91-0.02c-8.13-0.2-13.66-1.33-18.11-2.23
				c-5.19-1.06-8.05-1.64-11.38-0.05c-1.28,0.61-2.81,0.07-3.42-1.21c-0.61-1.28-0.07-2.81,1.21-3.42c4.88-2.33,8.96-1.5,14.61-0.35
				c4.25,0.86,9.54,1.94,17.21,2.13c8.59,0.21,13.83-1.06,16.49-4c2.37-2.62,3.06-7.03,2.18-13.87c-0.3-2.34-0.6-4.29-0.87-6.01
				c-0.75-4.85-1.24-8.05-0.63-13c0.57-4.6,2.09-10.72,5.62-22.59c0.4-1.36,1.83-2.13,3.19-1.73c1.36,0.4,2.13,1.83,1.73,3.19
				c-6.57,22.12-6.24,24.28-4.83,33.35c0.27,1.75,0.58,3.73,0.89,6.14c1.08,8.44-0.01,14.14-3.46,17.96
				C446.49,241.16,440.74,242.95,431.53,242.95z"/>
		</g>
		<path class="st12" d="M340.39,288.93c-10.51,5.14-16.17,8.09-19.54,7.81c-0.8-0.07-1.46-0.15-2.01-0.23
			c-3.75,2.22-9.74,4.84-3,5.33c7.92,0.59,11.74-2.64,16.73-4.11c4.99-1.47,11.15-2.35,8.8-6.16
			C340.91,290.84,340.59,289.94,340.39,288.93z"/>
		<path class="st12" d="M420.86,279.78c-0.26,8.32-1.4,16.57-6.49,18.13c-1.35,0.41-2.58,0.47-3.67,0.33c-0.8,0.99-1.78,1-3.09,2.46
			c-1.98,2.2,11.22,0.66,12.76,0c1.54-0.66,2.2-13.64,3.85-16.95C425.58,281.04,422.86,280.41,420.86,279.78z"/>
		<g>
			<path class="st19" d="M380.36,201h-33.4c-1,0-1.9-0.58-2.32-1.48l-13.5-29.05c-0.6-1.28-0.04-2.81,1.24-3.41
				c1.28-0.6,2.81-0.04,3.41,1.24l12.81,27.57h31.77c1.42,0,2.56,1.15,2.56,2.56C382.93,199.85,381.78,201,380.36,201z"/>
		</g>
		<path class="st9" d="M387.35,190.91c-6.75-0.1-13.44-4.12-16.77-3.53c-3.33,0.59-14.18,8.12-12.81,8.41
			c1.37,0.29,9.98-4.17,10.27-4.24c0.29-0.07,2.15,3.09,6.75,4.25c4.6,1.16,0.03-3.45,14.28,0.86
			C398.34,199.46,387.35,190.91,387.35,190.91z"/>
		<path class="st20" d="M442.48,144.05l0.99,7.99c0,0-8.73,0.52-13.08,2.97c-4.35,2.45-10.76,9.51-10.76,9.51l5.24-9.02l0.75-5.77
			L442.48,144.05z"/>
		<path class="st20" d="M438.76,153.83c-6.49-1.22-9.49,4.6-13.69,14.09c-4.21,9.49-11.39,21.01-12.81,22.5
			c-1.43,1.49-24.06,0-24.06,0s-0.68,6.55,0,7.34c0.68,0.78,4.6,0.68,4.6,0.68s1.56,1.25,3.03,2.24c1.47,0.99,13.89,2.85,19.66,2.55
			c5.77-0.29,11.05-0.78,11.84-1.66c0.78-0.88,16.53-25.14,17.51-33.84C445.8,159.01,442.07,154.45,438.76,153.83z"/>
		<path class="st21" d="M419.63,113.92c-12.27,0.59-10.34,19.04-10.34,19.04s3.19,0.98,9.86-0.12c-0.51-1.98-0.29-7.04-0.29-7.04
			s0.78,4.11,1.76,6.6c1.41,0.65,3.01,0.07,5.72-0.58c1.39,5.86,5.33,8.34,8.03,9.19c2.98,0.94,6.13,2.05,9.66,0.29
			s1.58-19.76-0.28-23.38c-2.81-5.43-7.47-10.3-15.54-7.73C424.15,111.49,419.63,113.92,419.63,113.92z"/>
		<path class="st21" d="M440.97,135.84l5.02,7.33c0,0-5.56,13.89,10.61,20.18c12.66,4.93,11.17,13.61,5.45,22.35
			c-5.72,8.73,3.42,16.36,3.42,16.36s1.39-9.67,13.7-11.5c16.78-2.49,21.53-25.01,9-36.27c-10.37-9.32-13.52-1.6-20.54-9.96
			c-7.02-8.36-20.27-2.71-20.27-2.71l-4.86-7.08L440.97,135.84z"/>
		<g>
			<path class="st21" d="M493.93,176.97c-0.07,0-0.15-0.02-0.21-0.05c-0.22-0.12-0.3-0.39-0.18-0.61
				c4.22-7.71,0.78-17.05-0.95-19.58c-0.18-0.27-0.36-0.54-0.54-0.83c-1.7-2.66-3.82-5.96-15.11-7.99
				c-2.72-0.49-4.92-2.11-7.25-3.82c-4.82-3.54-10.28-7.54-22.14-2.08c-0.22,0.1-0.49,0.01-0.59-0.22c-0.1-0.22-0.01-0.49,0.22-0.59
				c12.34-5.68,18.02-1.51,23.04,2.18c2.25,1.65,4.37,3.21,6.88,3.66c11.68,2.1,13.91,5.59,15.71,8.39
				c0.18,0.28,0.35,0.55,0.53,0.81c1.81,2.65,5.42,12.44,1,20.51C494.24,176.88,494.09,176.97,493.93,176.97z"/>
		</g>
		<g>
			<path class="st21" d="M438.29,143.35c-0.8,0-1.67-0.07-2.61-0.21c-4.29-0.64-10.05-3.08-10.5-16.78
				c-0.01-0.25,0.18-0.45,0.43-0.46c0.25,0,0.45,0.18,0.46,0.43c0.19,5.65,1.31,9.82,3.33,12.42c1.54,1.97,3.58,3.09,6.41,3.51
				c3.97,0.59,6.61-0.14,7.83-2.18c0.13-0.21,0.4-0.28,0.61-0.15c0.21,0.13,0.28,0.4,0.15,0.61
				C443.29,142.4,441.23,143.35,438.29,143.35z"/>
		</g>
	</g>
	<polygon class="st17" points="271.42,301.91 274.72,301.91 287.54,203.89 280.29,203.89 	"/>
	<polygon class="st17" points="383.28,301.91 379.98,301.91 367.16,203.89 374.41,203.89 	"/>
	<g>
		<path class="st22" d="M512.55,219.17c5.7,5.21,3.22,10.41-0.99,20.09c-4.22,9.67-4.96,45.38-4.96,45.38l3.47-0.5
			c0,0-0.5-36.7,4.22-46.62c4.71-9.92,6.7-14.88,10.91-11.65S512.55,219.17,512.55,219.17z"/>
		<path class="st23" d="M509.42,212.43c0.69-3.09,4.81-6.43,10.31-9.26c-0.82,4.55-3.44,11.99-0.73,13.52
			c3.66,2.06,0.36-8.33,1.77-14.04c5.16-2.52,11.38-4.58,17.1-5.61c-0.01,0.02-0.01,0.04-0.02,0.06c-3.22,8.18-7.44,11.41-5.7,12.65
			c1.31,0.93,5.56-8.52,11.18-13.36c4.22-0.22,7.78,0.35,9.89,2.02c3.26,2.58,5.45,4.87,2.17,12.73c-1.87,1.34-4.3,2.3-7.12,2.58
			c-7.44,0.74-10.91,0.99-5.7,3.47c2.55,1.21,6.82-0.07,10.29-0.85c-1.12,2.07-2.51,4.42-4.19,7.09c-1.06,1.69-2.24,3.16-3.49,4.44
			c-2.4,0.46-4.49,0.46-5.59-0.01c-3.47-1.49-12.4-6.2-14.63-4.22c-2.18,1.94,16.53,3.17,15.24,8.11
			c-9.07,5.23-19.45,2.74-21.29-2.06C516.43,223.23,507.33,221.71,509.42,212.43z"/>
		<path class="st22" d="M528.17,247.68c-9.92-7.44-20.09-0.5-25.29,7.44c-5.21,7.94-1.49,25.79-1.49,25.79s1.98,0,1.98-0.74
			c0-0.74-5.46-21.08,7.44-30.25c8.07-5.74,13.89-2.98,14.63-0.25s-3.22,7.69-3.22,7.69L528.17,247.68z"/>
		<path class="st23" d="M505.36,232.39c9.92,0,13.14,15.37,10.41,24.3c-2.73,8.93-6.45,25.54-6.45,25.54l-2.48-2.48
			c0,0,9.42-23.31,7.19-33.72c-2.23-10.41-7.69-12.15-8.68-12.15C504.37,233.88,505.36,232.39,505.36,232.39z"/>
		<path class="st22" d="M513.68,256.76c0.7-0.92,1.56-1.69,2.61-2.19c-0.14,0.74-0.31,1.45-0.52,2.12
			c-1.24,4.07-2.69,9.73-3.9,14.69c-0.11-0.64-0.28-1.61-0.54-3.12c-0.06-0.36-0.11-0.74-0.14-1.15
			C512.16,263.8,513.08,260.2,513.68,256.76z"/>
		<path class="st23" d="M516.39,256.84c18.85-7.93,8.92-18.82,25.53-11.63c1.17,0.51,2.6,1.78,4.02,3.55
			c-1.48,0.42-3.27,0.72-5.26,0.42c-4.96-0.74-3.22,3.22,4.96,4.22c1.54,0.19,2.79,0.44,3.83,0.81c3.9,7.49,5.66,17.34-2.59,20.76
			c-1.63,0.67-3.63,1.06-5.87,1.2c-2.55-2.02,0.62-13.73-3.3-12.12c-3.77,1.55,1.18,10.04,0.5,12.17
			c-3.72-0.07-7.84-0.67-11.77-1.65c-1.56-0.87-2.75-2.04-3.11-3.58c-1.24-5.21,6.94-8.43,7.19-12.89c0.23-4.1-3,9.03-11.55,10.96
			C511.23,265.45,507.58,260.55,516.39,256.84z"/>
		<path class="st23" d="M502.96,242.81c1.98-4.22-3.22-5.21-2.98-1.98c0.22,2.86,0.24,9.8-2.69,11.69
			c-5.05-0.55-11.93-2.58-17.12-5.69c-0.07-0.42,0-0.85,0.22-1.29c2.23-4.46,16.61-8.18,12.15-9.67c-3.55-1.18-9.78,5.81-14.8,9.33
			c-3.01-2.29-5.03-5.01-5.03-8.06c0-4.12,5.01-8.78,11.48-11.01c2.91,0.29,5.62,1.89,9.85,4.28c6.24,3.54,4.8-2.18-1.1-5.58
			c5.1,0.26,10.18,2.44,13.93,7.64c0,0-0.35,2.22,2,5.66c6.42,9.38-0.99,14.86-9.85,14.51
			C499.51,250.17,501.59,245.72,502.96,242.81z"/>
		<path class="st22" d="M527.57,247.26c4.85,3.75,10.24,8.13,16.85,11.1c6.61,2.98,5.29,12.67,5.29,12.67s0.99-8.38-4.52-11.24
			c-5.51-2.87-9.15-6.28-13.34-6.94c-4.19-0.66-6.5-1.32-6.5-1.32s1.32-2.65,0.55-3.64C525.14,246.91,527.57,247.26,527.57,247.26z"
			/>
		<path class="st22" d="M551.48,203.26c-17.74,4.74-30.75,16.09-33.17,18.85c-2.42,2.76-2.42,3.53-2.42,3.53l1.87,3.53l0.88-0.44
			c0,0-1.43-2.98,2.31-6.83c6.46-6.65,14.33-11.9,19.73-14.22C546.08,205.36,551.48,203.26,551.48,203.26z"/>
		<path class="st19" d="M505.89,301.48L505.89,301.48c6.69,0,12.12-5.43,12.12-12.12v-12.19h-24.24v12.19
			C493.77,296.05,499.19,301.48,505.89,301.48z"/>
		<rect x="493.77" y="279.96" class="st2" width="24.24" height="1.71"/>
		<rect x="493.77" y="283.07" class="st2" width="24.24" height="1"/>
	</g>
	<g>
		<path class="st1" d="M62.77,280.27h1.02c2.54,0,4.59-2.06,4.59-4.59l0,0c0-2.54-2.06-4.59-4.59-4.59h-1.02
			c-2.54,0-4.59,2.06-4.59,4.59l0,0C58.17,278.22,60.23,280.27,62.77,280.27z"/>
		<path class="st1" d="M44.21,280.27h1.02c2.54,0,4.59-2.06,4.59-4.59l0,0c0-2.54-2.06-4.59-4.59-4.59h-1.02
			c-2.54,0-4.59,2.06-4.59,4.59l0,0C39.62,278.22,41.67,280.27,44.21,280.27z"/>
		<path class="st1" d="M25.66,280.27h1.02c2.54,0,4.59-2.06,4.59-4.59l0,0c0-2.54-2.06-4.59-4.59-4.59h-1.02
			c-2.54,0-4.59,2.06-4.59,4.59v0C21.06,278.22,23.12,280.27,25.66,280.27z"/>
	</g>
	<g>
		<path class="st1" d="M551.33,106.73v-1.02c0-2.54-2.06-4.59-4.59-4.59l0,0c-2.54,0-4.59,2.06-4.59,4.59v1.02
			c0,2.54,2.06,4.59,4.59,4.59h0C549.28,111.32,551.33,109.27,551.33,106.73z"/>
		<path class="st1" d="M551.33,125.29v-1.02c0-2.54-2.06-4.59-4.59-4.59l0,0c-2.54,0-4.59,2.06-4.59,4.59v1.02
			c0,2.54,2.06,4.59,4.59,4.59h0C549.28,129.88,551.33,127.82,551.33,125.29z"/>
		<path class="st1" d="M551.33,143.84v-1.02c0-2.54-2.06-4.59-4.59-4.59l0,0c-2.54,0-4.59,2.06-4.59,4.59v1.02
			c0,2.54,2.06,4.59,4.59,4.59h0C549.28,148.43,551.33,146.38,551.33,143.84z"/>
	</g>
</g>
</svg>
