<svg id="Layer_1" data-name="Layer 1" xmlns="http://www.w3.org/2000/svg" xmlns:xlink="http://www.w3.org/1999/xlink" viewBox="0 0 744.38 397.79"><defs><style>.cls-1{fill:#bfe2d8;}.cls-2{fill:none;stroke:#97c1b4;stroke-miterlimit:10;stroke-width:3px;}.cls-3{fill:#417c6c;}.cls-4{fill:#84a9ff;}.cls-5{fill:#8cb4f4;}.cls-6{fill:#6b93f4;}.cls-7{fill:#233862;}.cls-8{fill:#fa997b;}.cls-9{fill:#0f2549;}.cls-10{fill:#6d6e70;}.cls-11{fill:#808184;}.cls-12{fill:#404041;}.cls-13{fill:#ef5d23;}.cls-14{fill:#fff;}.cls-15{fill:#ebf3ff;}.cls-16{fill:#231f20;}.cls-17{fill:#5492ed;}.cls-18{fill:#f48d71;}.cls-19{fill:#ed7d2b;}.cls-20{fill:#1b3051;}.cls-21{fill:#2b478b;}.cls-22{fill:#a9453e;}.cls-23{fill:#f99746;}.cls-24{fill:url(#linear-gradient);}.cls-25{fill:url(#linear-gradient-2);}.cls-26{fill:url(#linear-gradient-3);}.cls-27{fill:url(#linear-gradient-4);}.cls-28{fill:url(#linear-gradient-5);}.cls-29{fill:url(#linear-gradient-6);}.cls-30{fill:#97c1b4;}.cls-31{fill:url(#linear-gradient-7);}</style><linearGradient id="linear-gradient" x1="-569.77" y1="729.89" x2="-568.77" y2="729.89" gradientTransform="matrix(34.07, 0, 0, -35.37, 19462.36, 26161.17)" gradientUnits="userSpaceOnUse"><stop offset="0" stop-color="#2c9c48"/><stop offset="1" stop-color="#34b34d"/></linearGradient><linearGradient id="linear-gradient-2" x1="-565.57" y1="733.53" x2="-564.57" y2="733.53" gradientTransform="matrix(27.39, 0, 0, -56.93, 15540, 42088.59)" xlink:href="#linear-gradient"/><linearGradient id="linear-gradient-3" x1="-574.13" y1="728.74" x2="-573.13" y2="728.74" gradientTransform="matrix(45.6, 0, 0, -31.59, 26258.31, 23367.62)" xlink:href="#linear-gradient"/><linearGradient id="linear-gradient-4" x1="-530.96" y1="735.44" x2="-529.96" y2="735.44" gradientTransform="matrix(10.48, 0, 0, -83.82, 5639.51, 61970)" xlink:href="#linear-gradient"/><linearGradient id="linear-gradient-5" x1="-561.84" y1="733.96" x2="-560.84" y2="733.96" gradientTransform="matrix(23.33, 0, 0, -61.33, 13191.46, 45344.08)" xlink:href="#linear-gradient"/><linearGradient id="linear-gradient-6" x1="-570.14" y1="727.05" x2="-569.14" y2="727.05" gradientTransform="matrix(34.81, 0, 0, -27.3, 19910.78, 20218.74)" gradientUnits="userSpaceOnUse"><stop offset="0" stop-color="#f69144"/><stop offset="1" stop-color="#ffce45"/></linearGradient><linearGradient id="linear-gradient-7" x1="-575.72" y1="733.23" x2="-574.72" y2="733.23" gradientTransform="matrix(52.03, 0, 0, -54.19, 30561.16, 40092.57)" xlink:href="#linear-gradient"/></defs><g id="Component_1_1" data-name="Component 1 1"><path id="Path_1" data-name="Path 1" class="cls-1" d="M93.75,389.61s-80.93-97.5-41.38-197.86c25.78-65.43,122.5-101.27,177.08-65.43,23.24,15.27,97.82.52,137.64-62.7C444.48-59.21,714.54,15.39,665.38,204c-23.8,91.27,72.41,94.59,23.39,185.82Z" transform="translate(0 -0.01)"/><path id="Path_2" data-name="Path 2" class="cls-2" d="M80.75,387.61S-.18,290.11,39.37,189.75c25.78-65.43,122.5-101.27,177.08-65.43,23.24,15.27,97.82.52,137.64-62.7C431.48-61.21,701.54,13.39,652.38,202c-23.8,91.27,72.41,94.59,23.39,185.82" transform="translate(0 -0.01)"/><path id="Path_3" data-name="Path 3" class="cls-3" d="M744.38,397.8H0V384.19H744.38V397.8Z" transform="translate(0 -0.01)"/><g id="Group_4" data-name="Group 4"><g id="Group_1" data-name="Group 1"><path id="Path_4" data-name="Path 4" class="cls-4" d="M235.26,384.19l-8.41-83.82-7.46.66,11.92,83.16Z" transform="translate(0 -0.01)"/></g><g id="Group_2" data-name="Group 2"><path id="Path_5" data-name="Path 5" class="cls-4" d="M152.56,384.35,164.48,301l-7.46-.66-8.41,84Z" transform="translate(0 -0.01)"/></g><g id="Group_3" data-name="Group 3"><path id="Path_6" data-name="Path 6" class="cls-5" d="M295.58,384.35l-8.41-84-7.46.66,11.91,83.32Z" transform="translate(0 -0.01)"/></g><path id="Path_7" data-name="Path 7" class="cls-4" d="M153.32,288,138.15,213c-2-10.15,6.45-19.43,17.37-19.18l29.27.67a23.13,23.13,0,0,1,21.68,16.69L228.67,288Z" transform="translate(0 -0.01)"/><path id="Path_8" data-name="Path 8" class="cls-6" d="M162.5,288,147.33,213c-2-10.15,6.46-19.43,17.37-19.18l29.27.67a23.12,23.12,0,0,1,21.68,16.69L237.85,288Z" transform="translate(0 -0.01)"/><path id="Rectangle_1" data-name="Rectangle 1" class="cls-4" d="M273.34,301.62H157.55a4.23,4.23,0,0,1-4.23-4.23h0V288h120a4.23,4.23,0,0,1,4.23,4.23v5.21A4.23,4.23,0,0,1,273.34,301.62Z" transform="translate(0 -0.01)"/><rect id="Rectangle_2" data-name="Rectangle 2" class="cls-6" x="208.48" y="287.94" width="80.63" height="13.67" rx="3.41"/></g><g id="Group_7" data-name="Group 7"><g id="Group_6" data-name="Group 6"><path id="Path_9" data-name="Path 9" class="cls-7" d="M254.19,272.26c-6.26,10.9-14.14,15.11-14.14,15.11L208.22,287S259,264,254.19,272.26Z" transform="translate(0 -0.01)"/><g id="Group_5" data-name="Group 5"><path id="Path_10" data-name="Path 10" class="cls-8" d="M296.51,380.94c.21,3.45,5.07,3.54,10.6,3s4,.81,11.77,1,10.42-2.32,10.81-3.42-3.37-1.85-7.34-2.87l-1.5-.39c-4.47-1.2-7.41-4.59-11.21-7.57-3.61-2.83-8.18-12.95-8.18-12.95l-10.55-.6s4.33,9.08,6,13c.95,2.3.5,5.1.05,7.26A13.08,13.08,0,0,0,296.51,380.94Z" transform="translate(0 -0.01)"/><path id="Path_11" data-name="Path 11" class="cls-9" d="M306.73,384.23c5.53-.58,4.43.49,12.16.69s10.42-2.32,10.81-3.42-3.37-1.85-7.34-2.87l-.05.07a21.61,21.61,0,0,1-11.37,1.9c-5.18-.58-10.45-2.81-14-3.25a13.6,13.6,0,0,0-.41,3.59C296.72,384.39,301.2,384.8,306.73,384.23Z" transform="translate(0 -0.01)"/><path id="Path_12" data-name="Path 12" class="cls-10" d="M279,261.1c-5.55-3.9-42.26-10.85-61-12.86l-20.7-18s-17.63,26.1-17.77,46.07c-.06,9.32,4.23,10.24,4.23,10.24s66.37.5,69.28.8c4.77.49,11,12.35,12.62,23.16s29.92,60.1,29.92,60.1,5.58.15,8.25,0a16.62,16.62,0,0,0,5.65-1.59S291.51,269.89,279,261.1Z" transform="translate(0 -0.01)"/><path id="Path_13" data-name="Path 13" class="cls-8" d="M278.54,381.62c.06,3.45,4.91,3.77,10.46,3.45s4,1,11.71,1.54,10.52-1.84,11-2.92-3.28-2-7.2-3.2L303,380c-4.42-1.4-7.2-4.92-10.86-8.07-3.48-3-7.58-13.3-7.58-13.3L274,357.57s3.92,9.26,5.37,13.24c.85,2.34.27,5.12-.28,7.25A13.38,13.38,0,0,0,278.54,381.62Z" transform="translate(0 -0.01)"/><path id="Path_14" data-name="Path 14" class="cls-7" d="M289,385.07c5.55-.32,4,1,11.71,1.54s10.52-1.84,11-2.92-3.28-2-7.2-3.2l-.05.07A21.62,21.62,0,0,1,293,381.94c-5.15-.82-10.31-3.29-13.86-3.88a13.38,13.38,0,0,0-.58,3.56C278.6,385.07,283.45,385.39,289,385.07Z" transform="translate(0 -0.01)"/><path id="Path_15" data-name="Path 15" class="cls-11" d="M261.67,261.1c-4.82-3.39-19.32-6-35.32-8a10.77,10.77,0,0,1-9.14-8.08h0L180,230.27s-17.63,26.1-17.77,46.07c-.06,9.32,4.23,10.24,4.23,10.24s66.37.5,69.28.8c4.77.49,11.05,12.35,12.62,23.16s30.5,60.4,30.5,60.4a41.47,41.47,0,0,0,7.6,1.19,25.47,25.47,0,0,0,6.43-1S274.19,269.89,261.67,261.1Z" transform="translate(0 -0.01)"/><path id="Path_16" data-name="Path 16" class="cls-12" d="M211.56,122.78a26.23,26.23,0,0,0-13.87-4.19c-12.24-.3-24.24,19.95-24.78,26.62a20.12,20.12,0,0,1-3.1,10c-1.56,2.33-4,0-8.41,3.39-3.88,3-2.38,6.14-5.12,8.45-3.31,2.78-6.33.28-10.59,6.55-2.64,3.9-.91,7.83-1,10.78-.09,4.75-6.85,6.25-2.72,11.56,2.29,3-1,4.77,3.52,9.07,4,3.82,5,0,7.82,2,5.84,4.25,16.62,0,16.62,0,.15.1,17-13.38,31.23-21.22C222.52,182.81,224,130.63,211.56,122.78Z" transform="translate(0 -0.01)"/><path id="Path_17" data-name="Path 17" class="cls-8" d="M208.7,175.54c.07,0-6.72,3.12-11.63,1.5-4.61-1.52-8.67-8.47-8.61-8.48,2-.29,4-3.37,4.59-15.07l15.81,5.1s-.59,4.72-.83,9.18C207.82,171.52,207.86,175.09,208.7,175.54Z" transform="translate(0 -0.01)"/><path id="Path_18" data-name="Path 18" class="cls-13" d="M208.86,158.59a44.64,44.64,0,0,1-.5,4.76c-8.8-1.73-13.56-5.95-15.31-9.68Z" transform="translate(0 -0.01)"/><path id="Path_19" data-name="Path 19" class="cls-8" d="M211.48,160.45c-5.6.72-18.62-1.8-20-10.76-1.94-12.29-6.5-19.78,6-22.34s15.64,1.76,17.25,5.72S216.65,159.8,211.48,160.45Z" transform="translate(0 -0.01)"/><path id="Path_20" data-name="Path 20" class="cls-12" d="M212.27,134.31s-12.16-2.06-17.15,10c-3.32,8-11.92,1.64-11.92,1.64A33.42,33.42,0,0,0,187.78,133a6.06,6.06,0,0,1,3.75-4.86C197.26,125.88,207.09,119.12,212.27,134.31Z" transform="translate(0 -0.01)"/><path id="Path_21" data-name="Path 21" class="cls-12" d="M204.19,128.2s4.84,3.94,7.6,5.79c3.75,2.53,4.3,8.45,4.13,11.41,0,0,2.59-14.2-2.8-19.08C207.4,121.14,204.19,128.2,204.19,128.2Z" transform="translate(0 -0.01)"/><path id="Path_22" data-name="Path 22" class="cls-14" d="M224.47,205.6c-.6,40.06-.17,31.68-4.55,35.49-1.06.91-4,1.46-7.93,1.71-12.29.82-33.88-1.2-34.7-3.47-2.83-7.86-.83-10.3-3.2-22.33-.25-1.27-.55-2.66-.91-4.17-2-8.25-3.89-11.07,3.1-24.33,6.34-12,13.8-21.79,14.39-21.44,16.73,9.94,17.3,1.61,17.3,1.61S224.76,186.05,224.47,205.6Z" transform="translate(0 -0.01)"/><path id="Path_23" data-name="Path 23" class="cls-14" d="M208,168.67s17.12,2.9,19.14,10.31S241,230,241,230s-8.75,1.57-12.79-2.47S214.18,190,214.18,190Z" transform="translate(0 -0.01)"/><path id="Path_24" data-name="Path 24" class="cls-15" d="M212,242.8c-12.28.82-33.88-1.2-34.7-3.47-2.83-7.86-.83-10.3-3.2-22.33L180,200.32s-1,18.58,4.5,23.47,22.44,9.43,25.1,13.51A14.91,14.91,0,0,1,212,242.8Z" transform="translate(0 -0.01)"/><path id="Path_25" data-name="Path 25" class="cls-8" d="M197.92,235s12.11-2.7,14.07-1.62,6.73,5,7.33,6.35-4.35-1-6-1.46c-1-.28-3.79.67-5.15,1.12-5.72,1.91-9.22.93-9.22.93Z" transform="translate(0 -0.01)"/><path id="Path_26" data-name="Path 26" class="cls-14" d="M190.68,167.06s-17.15,1-22.79,8.86C160,187,144.23,234.11,153.25,240.4c10.15,7.08,46.21,1.85,46.21,1.85s1.2-5.61-.47-8.32-28.8-7.09-30.05-8.34,15.65-24.42,15.65-28.17S190.68,167.06,190.68,167.06Z" transform="translate(0 -0.01)"/><path id="Path_27" data-name="Path 27" class="cls-8" d="M212.58,236.74s2.54,3.28,3.37,3.67a2.5,2.5,0,0,0,1.37.29l-1.71-3.08Z" transform="translate(0 -0.01)"/><path id="Path_28" data-name="Path 28" class="cls-8" d="M212,233.36l7.38,3.59a1.32,1.32,0,0,1-1.22.47,17.63,17.63,0,0,1-3.2-.88Z" transform="translate(0 -0.01)"/></g></g></g><g id="Group_8" data-name="Group 8"><path id="Path_29" data-name="Path 29" class="cls-16" d="M239.18,241.86H204.9a2.73,2.73,0,0,1,2.73-2.73h31.55Z" transform="translate(0 -0.01)"/><path id="Path_30" data-name="Path 30" class="cls-16" d="M239.08,204.52h53l-12.71,37.35H226Z" transform="translate(0 -0.01)"/><path id="Path_31" data-name="Path 31" class="cls-12" d="M292.88,204.52l-12.72,37.35H226.81l13.06-37.35Z" transform="translate(0 -0.01)"/><path id="Path_32" data-name="Path 32" class="cls-14" d="M264.3,222.85a3.44,3.44,0,0,1-3.18,2.58,2,2,0,0,1-2-2.58,3.44,3.44,0,0,1,3.18-2.58,2,2,0,0,1,2,2.58Z" transform="translate(0 -0.01)"/></g><g id="Group_12" data-name="Group 12"><rect id="Rectangle_3" data-name="Rectangle 3" class="cls-17" x="191.28" y="241.86" width="235.84" height="8.4" rx="1.77"/><g id="Group_9" data-name="Group 9"><path id="Path_33" data-name="Path 33" class="cls-17" d="M432.71,384.19l-20.39-138-7.58.22,23.84,137.83Z" transform="translate(0 -0.01)"/></g><g id="Group_10" data-name="Group 10"><path id="Path_34" data-name="Path 34" class="cls-17" d="M187.79,384.19l23.77-137.83-7.57-.22L183.65,384.19Z" transform="translate(0 -0.01)"/></g><g id="Group_11" data-name="Group 11"><path id="Path_35" data-name="Path 35" class="cls-17" d="M235.7,384.19l23.79-137.83-7.58-.22L231.56,384.19Z" transform="translate(0 -0.01)"/></g></g><g id="Group_13" data-name="Group 13"><path id="Path_36" data-name="Path 36" class="cls-7" d="M360.23,384.93h34c1.64-2,1-9.36.79-11.77-.06-.48-.09-.77-.09-.77s-11.62-9.29-13.21-2.17c-.05.22-.11.44-.18.65-2,6.66-11,9.68-16.23,10.52C361.94,381.94,360.69,383.7,360.23,384.93Z" transform="translate(0 -0.01)"/><path id="Path_37" data-name="Path 37" class="cls-7" d="M467.41,255.06c-1.48,0-70.37,12.94-81.76,27-5.69,7-6.54,88.42-6.54,88.42s7.05,8.73,22.25,3.66c0,0,11.15-55.67,10.33-72.56-.23-4.67,47.07-.67,55.72-2.92s29.8-21.06,25.15-30.24S467.41,255.06,467.41,255.06Z" transform="translate(0 -0.01)"/><path id="Path_38" data-name="Path 38" class="cls-18" d="M386,235.13s-13.9.19-17.18,1.6-9.95,4.64-8.17,5.14,10.3-.2,12.13.08a31.61,31.61,0,0,0,5.24-.08h6.38Z" transform="translate(0 -0.01)"/><path id="Path_39" data-name="Path 39" class="cls-19" d="M460.55,162.26s-10.58,3.27-21,32-14.38,30.25-18.17,31.37-37,7.75-37,7.75v8.52h51.24s19.21-18.28,25-30.58S460.55,162.26,460.55,162.26Z" transform="translate(0 -0.01)"/><path id="Path_40" data-name="Path 40" class="cls-20" d="M345.19,384.93h34c1.64-2,1-9.36.79-11.77-.05-.48-.09-.77-.09-.77s-11.61-9.29-13.21-2.17c-.05.22-.11.44-.17.65-2,6.66-11,9.68-16.24,10.52C346.91,381.94,345.66,383.7,345.19,384.93Z" transform="translate(0 -0.01)"/><path id="Path_41" data-name="Path 41" class="cls-21" d="M447.11,255.06c-1.48,0-70.36,12.94-81.76,27-5.69,7-6.54,88.42-6.54,88.42s7.05,8.73,22.25,3.66c0,0,11.16-55.67,10.33-72.56-.23-4.67,47.07-.67,55.72-2.92s29.8-21.06,25.15-30.24S447.11,255.06,447.11,255.06Z" transform="translate(0 -0.01)"/><path id="Path_42" data-name="Path 42" class="cls-8" d="M451.42,171.35a66.55,66.55,0,0,0,14.64-3.19c5.62-1.82,10.14-4.48,7.23-9.61-2.69-4.73-7-15.29-6.75-24l-10.44,8.42-7.1,5.71a87.34,87.34,0,0,0,.8,9.28c.15,1.08.31,2.24.5,3.48a2.52,2.52,0,0,1-1.16,2.54l-.16.1a4,4,0,0,0,2.44,7.31Z" transform="translate(0 -0.01)"/><path id="Path_43" data-name="Path 43" class="cls-13" d="M449,147.25s-.36,1.23.27,5.74c6.32-1,12.23-6.07,12.23-6.07-3.22-.89-4.39-4.37-6.79-4Z" transform="translate(0 -0.01)"/><path id="Path_44" data-name="Path 44" class="cls-8" d="M443.15,148.28s24.33,4,26.62-11.15,7-24.9-8.48-28.12S442,111.13,440,116,436.88,146.84,443.15,148.28Z" transform="translate(0 -0.01)"/><path id="Path_45" data-name="Path 45" class="cls-22" d="M438.41,110.31c-1.05,3.66-.27,7.09,4.42,8.56,7,2.18,5.43,10.73,8.56,10.61s5-5.55,8.34-1.25c2.46,3.21-3.13,7.31-2.82,9.11.51,3.07,5.33,9.37,9.68,9s12.47-21,10.85-27.35-8.13-13.12-14.29-14.05-14.7,1.73-16.67,1.73S439,108.34,438.41,110.31Z" transform="translate(0 -0.01)"/><path id="Path_46" data-name="Path 46" class="cls-23" d="M492.88,183.34c-3.52-14.16-13.24-29-19.81-29-11.2,0-27.3,3-33.8,19-4.79,11.81-11.17,79.74-4,84.57,16.5,11.05,54.74,33.59,61.54,10.6C503.07,247.46,499,207.91,492.88,183.34Z" transform="translate(0 -0.01)"/><path id="Path_47" data-name="Path 47" class="cls-8" d="M392.32,235.13s-13.9.19-17.18,1.6-9.95,4.64-8.16,5.14,10.29-.2,12.13.08a31.51,31.51,0,0,0,5.23-.08h6.38Z" transform="translate(0 -0.01)"/><path id="Path_48" data-name="Path 48" class="cls-23" d="M469.48,169.71a13.25,13.25,0,0,0-18.75.18,13,13,0,0,0-2.29,3.14,125,125,0,0,0-7.34,17.82c-9.77,28.93-13.69,30.56-17.45,31.78s-37.25,10.91-37.25,10.91a9.93,9.93,0,0,0-1.09,4.1,6.15,6.15,0,0,0,1.28,4.41c-1.53-.22,14.49.22,21.89.78,9.77.75,23.38-.59,28.77-1.19a6.87,6.87,0,0,0,4-1.92c5.81-5.68,25-25.48,36.76-50C481.15,183.25,475.38,175.48,469.48,169.71Z" transform="translate(0 -0.01)"/><path id="Path_49" data-name="Path 49" class="cls-14" d="M474.2,154.48l-2.54-5.71s-22.7,1.85-26.51,14.77C445.15,163.54,462.75,154.76,474.2,154.48Z" transform="translate(0 -0.01)"/></g><g id="Group_17" data-name="Group 17"><g id="Group_14" data-name="Group 14"><path id="Path_50" data-name="Path 50" class="cls-6" d="M531.37,384.19l-8.31-83.82-7.46.66,11.85,83.16Z" transform="translate(0 -0.01)"/></g><g id="Group_15" data-name="Group 15"><path id="Path_51" data-name="Path 51" class="cls-6" d="M487.37,384.19l-8.32-83.82-7.46.66,11.86,83.16Z" transform="translate(0 -0.01)"/></g><g id="Group_16" data-name="Group 16"><path id="Path_52" data-name="Path 52" class="cls-6" d="M404.49,384.19,416.39,301l-7.46-.66-8.36,83.82Z" transform="translate(0 -0.01)"/></g><path id="Path_53" data-name="Path 53" class="cls-4" d="M526.89,288.27,535,217c1.06-10.28-2.38-20.34-17.21-21.12l-26.08-1.59c-15.47-.63-22.45,12.23-24.4,22.14l-15.49,78.39Z" transform="translate(0 -0.01)"/><path id="Rectangle_4" data-name="Rectangle 4" class="cls-6" d="M406.73,288h120v9.44a4.23,4.23,0,0,1-4.23,4.23H406.73a4.24,4.24,0,0,1-4.23-4.23v-5.21A4.23,4.23,0,0,1,406.73,288Z" transform="translate(0 -0.01)"/><path id="Rectangle_5" data-name="Rectangle 5" class="cls-4" d="M455.1,288h71.65v10.38a3.28,3.28,0,0,1-3.28,3.29H455.1a3.29,3.29,0,0,1-3.29-3.29v-7.1A3.3,3.3,0,0,1,455.1,288Z" transform="translate(0 -0.01)"/></g><path id="Path_54" data-name="Path 54" class="cls-8" d="M194.49,145.8c.83,1.81-.12,3.07-1.64,3.74-2.38,1.07-3.41-.22-4.23-2s-.28-3.85,1.23-4.54S193.66,144,194.49,145.8Z" transform="translate(0 -0.01)"/><ellipse id="Ellipse_1" data-name="Ellipse 1" class="cls-13" cx="191.21" cy="146.33" rx="0.74" ry="1.46" transform="translate(-41.79 85.61) rotate(-22.82)"/><ellipse id="Ellipse_2" data-name="Ellipse 2" class="cls-13" cx="456.78" cy="130.42" rx="1.46" ry="0.74" transform="translate(82.67 423.15) rotate(-53.98)"/><g id="Group_24" data-name="Group 24"><g id="Group_18" data-name="Group 18"><path id="Path_55" data-name="Path 55" class="cls-24" d="M81.4,361.39l1.18-.83c-.37-2.17-2.27-5.42-8.79-9.26-12.06-7.12-23.94-19-23.41-25.28,0,0-5.69,16,2.78,22.64C61.11,354.87,77,351.6,81.4,361.39Z" transform="translate(0 -0.01)"/></g><g id="Group_19" data-name="Group 19"><path id="Path_56" data-name="Path 56" class="cls-25" d="M76.29,353.21a31.69,31.69,0,0,1,2.31,6.32l.64-.34c-.16-5.52-1.35-15.76-7.29-25.25-8.69-13.86-19.43-31.33-19.43-31.33s-4.55,21,10.1,33.62C69.93,342.52,74,348.49,76.29,353.21Z" transform="translate(0 -0.01)"/></g><g id="Group_20" data-name="Group 20"><path id="Path_57" data-name="Path 57" class="cls-26" d="M84.5,357.48a28.33,28.33,0,0,1-5.16,2.95l.4.5a45.26,45.26,0,0,0,20.85-10.08c10.76-9.6,24.35-21.51,24.35-21.51s-18.91-.85-27.71,13.75C92.84,350.37,88.26,354.8,84.5,357.48Z" transform="translate(0 -0.01)"/></g><g id="Group_21" data-name="Group 21"><path id="Path_58" data-name="Path 58" class="cls-27" d="M81.35,362.28c.31,3.09.57,5.21.67,6.67h.6c.28-5.21.74-14.22.59-20.24-.23-8.87,2.49-12.49,4.19-27.42s-2.27-36.15-2.27-36.15S74.7,304,78,325.18,80,348.7,81.35,362.28Z" transform="translate(0 -0.01)"/></g><g id="Group_22" data-name="Group 22"><path id="Path_59" data-name="Path 59" class="cls-28" d="M105.17,301.26c-.5,3.41-10.28,23.33-16.31,36.65a40,40,0,0,0-2.68,24l1.21,0c-.82-4.54-1.1-3.84-.21-11,1-7.82,12-13.47,18.67-28.65S105.67,297.84,105.17,301.26Z" transform="translate(0 -0.01)"/></g><g id="Group_23" data-name="Group 23"><path id="Path_60" data-name="Path 60" class="cls-29" d="M64.89,360.42l3.46,20.47a4,4,0,0,0,3.91,3.3h20a4,4,0,0,0,3.91-3.3l3.46-20.47a3,3,0,0,0-2.49-3.49,2.74,2.74,0,0,0-.5,0H67.88a3,3,0,0,0-3,3A4,4,0,0,0,64.89,360.42Z" transform="translate(0 -0.01)"/></g></g><g id="Group_32" data-name="Group 32"><path id="Rectangle_6" data-name="Rectangle 6" class="cls-30" d="M528.63,41.56h47.06a3.93,3.93,0,0,1,3.93,3.93h0V90.91a3.93,3.93,0,0,1-3.93,3.93H528.63a3.93,3.93,0,0,1-3.93-3.93V45.49A3.93,3.93,0,0,1,528.63,41.56Z" transform="translate(0 -0.01)"/><rect id="Rectangle_7" data-name="Rectangle 7" class="cls-1" x="527.08" y="43.86" width="50.16" height="48.67" rx="3.59"/><g id="Group_31" data-name="Group 31"><g id="Group_27" data-name="Group 27"><g id="Group_25" data-name="Group 25"><circle id="Ellipse_3" data-name="Ellipse 3" class="cls-30" cx="552.16" cy="48.72" r="1.14"/><path id="Path_61" data-name="Path 61" class="cls-30" d="M560.2,50.34a1.14,1.14,0,0,1,1.55-.44,1.12,1.12,0,0,1,.44,1.54,1.15,1.15,0,0,1-1.55.45h0A1.15,1.15,0,0,1,560.2,50.34Z" transform="translate(0 -0.01)"/><path id="Path_62" data-name="Path 62" class="cls-30" d="M568.07,56.59a1.14,1.14,0,1,1-.34,1.57h0A1.13,1.13,0,0,1,568.07,56.59Z" transform="translate(0 -0.01)"/><path id="Path_63" data-name="Path 63" class="cls-30" d="M572,66.26a1.14,1.14,0,1,1-1.14,1.14A1.14,1.14,0,0,1,572,66.26Z" transform="translate(0 -0.01)"/><path id="Path_64" data-name="Path 64" class="cls-30" d="M570,77.48a1.13,1.13,0,0,1,0,1.61,1.12,1.12,0,0,1-1.6,0,1.14,1.14,0,0,1,0-1.61h0A1.13,1.13,0,0,1,570,77.48Z" transform="translate(0 -0.01)"/><path id="Path_65" data-name="Path 65" class="cls-30" d="M562.83,84.65a1.13,1.13,0,1,1-1.61,0,1.13,1.13,0,0,1,1.61,0Z" transform="translate(0 -0.01)"/><path id="Path_66" data-name="Path 66" class="cls-30" d="M551,88.34a1.14,1.14,0,1,1,1.14,1.13h0A1.13,1.13,0,0,1,551,88.34Z" transform="translate(0 -0.01)"/></g><g id="Group_26" data-name="Group 26"><path id="Path_67" data-name="Path 67" class="cls-30" d="M544.08,50.34a1.14,1.14,0,0,0-2,1.1,1.15,1.15,0,0,0,1.55.45h0a1.14,1.14,0,0,0,.44-1.55Z" transform="translate(0 -0.01)"/><path id="Path_68" data-name="Path 68" class="cls-30" d="M536.22,56.59a1.14,1.14,0,1,0,.34,1.57h0a1.13,1.13,0,0,0-.34-1.57Z" transform="translate(0 -0.01)"/><path id="Path_69" data-name="Path 69" class="cls-30" d="M532.32,66.26a1.14,1.14,0,1,0,1.14,1.14,1.14,1.14,0,0,0-1.14-1.14Z" transform="translate(0 -0.01)"/><path id="Path_70" data-name="Path 70" class="cls-30" d="M534.31,77.48a1.15,1.15,0,0,0,0,1.61,1.13,1.13,0,0,0,1.61,0,1.15,1.15,0,0,0,0-1.61h0A1.15,1.15,0,0,0,534.31,77.48Z" transform="translate(0 -0.01)"/><circle id="Ellipse_4" data-name="Ellipse 4" class="cls-30" cx="542.26" cy="85.44" r="1.14"/></g></g><g id="Group_30" data-name="Group 30"><path id="Path_71" data-name="Path 71" class="cls-30" d="M551.85,67.4A1.14,1.14,0,1,1,553,68.53a1.14,1.14,0,0,1-1.14-1.13Z" transform="translate(0 -0.01)"/><g id="Group_28" data-name="Group 28"><rect id="Rectangle_8" data-name="Rectangle 8" class="cls-30" x="552.84" y="53.17" width="0.31" height="14.21"/></g><g id="Group_29" data-name="Group 29"><rect id="Rectangle_9" data-name="Rectangle 9" class="cls-30" x="551.83" y="63.95" width="9.58" height="0.93" transform="translate(79.01 357.43) rotate(-38.13)"/></g></g></g></g><path id="Path_72" data-name="Path 72" class="cls-31" d="M609.1,384.21h48.83c2.61-2.22-1.82-7.25-6.44-7.6a28.78,28.78,0,0,0-7.45.89c-.67-8.93-4.51-49-19-47.43-16.26,1.8,0,17.66,4.6,27.06a226.62,226.62,0,0,1,8.64,21.63c-1.32.29-2.69.57-4.09.83-2.15-6.62-10.17-28.88-20.37-27.58-12,1.52-7.16,10.44,1.33,15.74,6.22,3.9,13.87,9.43,17.5,12.11a51.78,51.78,0,0,1-9.55.76C614.77,380.42,610.68,382.89,609.1,384.21Z" transform="translate(0 -0.01)"/></g></svg>