<svg id="Layer_1" data-name="Layer 1" xmlns="http://www.w3.org/2000/svg" viewBox="0 0 601.76 572.93"><defs><style>.cls-1{fill:#e1e3f4;}</style></defs><path class="cls-1" d="M3109.81,3310.16a108.71,108.71,0,0,1,10.17-8l385.22,494.51h-29.41l-374.33-480.35C3104.36,3314.15,3106.91,3312.34,3109.81,3310.16Zm444-38.13v27.6l-34.49-43.93A330.73,330.73,0,0,1,3553.85,3272Zm0,55.92v37.76l-102.75-131.8a355.66,355.66,0,0,1,37.4,10.17Zm0,66.08v37.76l-161.2-207c10.89,1.09,21.78,2.18,32.31,4Zm0,66.08v37.76l-213.49-273.76c9.81-.36,19.61-.36,29.41-.36Zm0,66.08v40.3l-262.5-336.94c9.44-1.45,18.88-2.9,28.32-3.63Zm0,68.62v38.12l-306.43-393.21c8.35-2.18,16.33-4.36,24.69-6.17Zm0,66.44v37.4l-346.74-445.13c7.63-2.91,14.89-5.45,22.52-8.35Zm0,65.72v37.76l-384.49-493.42c6.89-3.63,14.16-7.26,21.42-10.53Zm0,66.08v3.63h-26.5l-393.21-504.31c6.53-4.36,13.07-8.35,20-12.35Zm-100.21,3.63h-29.41l-352.91-452.76c5.45-5.44,11.26-10.89,17.07-16Zm-51.55,0h-29.41l-328.95-422.26c5.08-6.17,10.17-12,15.61-17.79Zm-51.56,0h-31.22L3018,3410c4.72-7.26,9.81-14.52,14.89-21.42Zm-53.37,0h-29.41l-271.58-348.92c3.63-7.26,8-14.88,12-22.15Zm-51.2,0h-29.41l-238.9-306.44c3.27-8.35,6.54-16.7,10.17-24.69Zm-51.55,0H3165l-201.87-258.87c2.54-9.44,5.08-18.52,8-28Zm-51.56,0h-29.41l-159.39-204.41a307.25,307.25,0,0,1,4.72-31.95Zm-51.56,0h-29.41L2953,3656.53c-.72-12.71-1.09-25.41-.72-38.12Zm-51.55,0h-29.41L2966.4,3740a399.47,399.47,0,0,1-10.53-51.2Zm-51.56,0h-1.81a40.27,40.27,0,0,0-2.55-5.81Z" transform="translate(-2952.09 -3223.75)"/></svg>