<?xml version="1.0" encoding="utf-8"?>
<!-- Generator: Adobe Illustrator 16.0.0, SVG Export Plug-In . SVG Version: 6.00 Build 0)  -->
<!DOCTYPE svg PUBLIC "-//W3C//DTD SVG 1.1//EN" "http://www.w3.org/Graphics/SVG/1.1/DTD/svg11.dtd">
<svg version="1.1" id="Layer_1" xmlns="http://www.w3.org/2000/svg" xmlns:xlink="http://www.w3.org/1999/xlink" x="0px" y="0px"
	 width="200px" height="200px" viewBox="0 0 200 200" enable-background="new 0 0 200 200" xml:space="preserve">
<g>
	<circle fill="#F96232" cx="162.872" cy="156.855" r="37.128"/>
	<g>
		<polygon fill="#FFFFFF" points="149.466,169.747 136.575,156.855 149.468,143.965 154.104,148.6 145.851,156.855 154.105,165.11 
					"/>
		<polygon fill="#FFFFFF" points="176.275,169.747 171.639,165.11 179.893,156.855 171.639,148.6 176.275,143.965 189.165,156.855 
					"/>
		
			<rect x="159.592" y="139.151" transform="matrix(0.962 0.273 -0.273 0.962 49.0146 -38.5093)" fill="#FFFFFF" width="6.56" height="35.409"/>
	</g>
	<g>
		<g>
			<g>
				<rect x="79.95" y="72.901" fill="#242D3C" width="17.682" height="6.557"/>
				<rect x="97.632" y="95.39" fill="#242D3C" width="19.015" height="6.557"/>
				<rect x="97.632" y="106.629" fill="#242D3C" width="19.015" height="6.558"/>
				<rect x="97.632" y="140.357" fill="#242D3C" width="19.015" height="6.558"/>
				<rect x="97.632" y="151.599" fill="#242D3C" width="19.015" height="6.558"/>
				<rect x="79.95" y="84.14" fill="#242D3C" width="36.696" height="6.557"/>
				<rect x="79.95" y="117.875" fill="#242D3C" width="17.682" height="6.557"/>
				<rect x="79.95" y="129.114" fill="#242D3C" width="36.696" height="6.557"/>
				<rect x="124.084" y="95.39" fill="#242D3C" width="19.02" height="6.557"/>
				<rect x="124.084" y="106.629" fill="#242D3C" width="36.702" height="6.558"/>
				<rect x="124.084" y="84.14" fill="#242D3C" width="19.02" height="6.557"/>
			</g>
			<path fill="#242D3C" d="M179.392,63.282H61.345v-26.23h118.046V63.282z M67.902,56.723h104.932V43.609H67.902V56.723z"/>
			<g>
				<rect x="74.459" y="46.889" fill="#242D3C" width="6.559" height="6.557"/>
				<rect x="87.574" y="46.889" fill="#242D3C" width="6.56" height="6.557"/>
				<rect x="100.688" y="46.889" fill="#242D3C" width="6.56" height="6.557"/>
			</g>
			<polygon fill="#242D3C" points="116.646,174.332 61.345,174.332 61.345,56.723 179.392,56.723 179.392,113.002 172.834,113.002 
				172.834,63.282 67.902,63.282 67.902,167.775 116.646,167.775 			"/>
		</g>
	</g>
	<g>
		<path fill="#242D3C" d="M32.533,190.781c-6.585,0-11.941-5.358-11.941-11.943s5.356-11.942,11.941-11.942
			c6.585,0,11.942,5.357,11.942,11.942S39.118,190.781,32.533,190.781z M32.533,173.453c-2.97,0-5.385,2.415-5.385,5.385
			c0,2.969,2.415,5.385,5.385,5.385c2.969,0,5.385-2.416,5.385-5.385C37.918,175.868,35.502,173.453,32.533,173.453z"/>
		<rect x="47.795" y="166.896" fill="#242D3C" width="6.557" height="23.886"/>
	</g>
	<g>
		<path fill="#242D3C" d="M154.303,29.899c-6.587,0-11.941-5.355-11.941-11.942c0-6.584,5.354-11.94,11.941-11.94
			c6.584,0,11.94,5.356,11.94,11.94C166.243,24.544,160.887,29.899,154.303,29.899z M154.303,12.574
			c-2.969,0-5.385,2.416-5.385,5.383c0,2.969,2.416,5.385,5.385,5.385c2.968,0,5.384-2.416,5.384-5.385
			C159.687,14.99,157.271,12.574,154.303,12.574z"/>
		<rect x="132.484" y="6.017" fill="#242D3C" width="6.557" height="23.882"/>
		<rect x="122.608" y="6.017" fill="#242D3C" width="6.558" height="23.882"/>
	</g>
	<g>
		<g>
			<path fill="#242D3C" d="M42.881,132.316h-3.279v-6.558h3.279c0.777,0,1.507-0.304,2.056-0.853
				c0.551-0.551,0.854-1.281,0.854-2.058V98.097c0-0.778-0.303-1.51-0.854-2.059c-0.548-0.549-1.279-0.852-2.056-0.852h-3.279
				v-6.557h3.279c2.527,0,4.904,0.984,6.692,2.771c1.791,1.79,2.775,4.167,2.775,6.697v24.751c0,2.528-0.984,4.904-2.775,6.692
				C47.789,131.329,45.412,132.316,42.881,132.316z"/>
			<path fill="#242D3C" d="M12.745,132.316H9.466c-2.528,0-4.906-0.985-6.695-2.775C0.983,127.75,0,125.374,0,122.849V98.097
				c0-2.527,0.983-4.905,2.769-6.694c1.794-1.79,4.17-2.773,6.697-2.773h3.279v6.557H9.466c-0.778,0-1.51,0.302-2.061,0.853
				c-0.546,0.548-0.848,1.28-0.848,2.058v24.751c0,0.776,0.302,1.507,0.853,2.059c0.549,0.548,1.279,0.852,2.056,0.852h3.279
				V132.316z"/>
		</g>
		<g>
			<rect x="10.473" y="107.193" fill="#242D3C" width="6.559" height="6.558"/>
			<rect x="22.276" y="107.193" fill="#242D3C" width="6.559" height="6.558"/>
			<rect x="34.078" y="107.193" fill="#242D3C" width="6.559" height="6.558"/>
		</g>
	</g>
</g>
</svg>
