<?xml version="1.0" encoding="utf-8"?>
<!-- Generator: Adobe Illustrator 26.0.3, SVG Export Plug-In . SVG Version: 6.00 Build 0)  -->
<svg version="1.1" id="Layer_1" xmlns="http://www.w3.org/2000/svg" xmlns:xlink="http://www.w3.org/1999/xlink" x="0px" y="0px"
	 viewBox="0 0 583 356" style="enable-background:new 0 0 583 356;" xml:space="preserve">
<style type="text/css">
	.st0{fill:#FFE8F4;}
	.st1{opacity:0.5;}
	.st2{fill:#F8BBD0;}
	.st3{fill:#FFFFFF;}
	.st4{fill:#9EA5F0;}
	.st5{fill:#E0A6C5;}
	.st6{fill:#9E4070;}
	.st7{fill:#FFC4E4;}
	.st8{fill:#9E4770;}
	.st9{fill:#E6E6E6;}
	.st10{fill:#A85E80;}
	.st11{fill:#E6A8C9;}
	.st12{fill:#703351;}
	.st13{fill:none;}
	.st14{fill:#B8678C;}
	.st15{fill:#FFE2D7;}
	.st16{fill:#3C3966;}
	.st17{fill:#EDC2CC;}
	.st18{fill:#F7DEE4;}
	.st19{fill:#E3839B;}
	.st20{fill:#F2AABA;}
	.st21{fill:#604A49;}
	.st22{fill:#AB7F80;}
	.st23{fill:#4D5175;}
	.st24{fill:#323963;}
	.st25{fill:#440C01;}
	.st26{fill:#CCCCCC;}
	.st27{opacity:0.4;fill:#FFFFFF;}
	.st28{fill:#FF4747;}
	.st29{fill:#4F0E01;}
	.st30{fill:#FACEBE;}
	.st31{fill:#D13989;}
	.st32{fill:#303769;}
	.st33{fill:#BAC0DE;}
	.st34{fill:#A1AADE;}
	.st35{fill:#FF69B9;}
	.st36{fill:#D63C8D;}
	.st37{opacity:0.3;fill:#FFFFFF;}
	.st38{fill:#80345C;}
	.st39{fill:#E071AF;}
	.st40{fill:#F08DC3;}
	.st41{fill:#6C70A3;}
	.st42{fill:#454A99;}
	.st43{fill:#FF879E;}
	.st44{fill:#F05975;}
	.st45{fill:#F0CDC0;}
	.st46{fill:#662648;}
	.st47{fill:#661A43;}
	.st48{fill:#A8768E;}
	.st49{fill:#D4D9FF;}
	.st50{fill:#8F4365;}
	.st51{fill:#7882E6;}
	.st52{fill:#8C96FF;}
	.st53{fill:#F2F2F2;}
	.st54{fill:#C78FAA;}
	.st55{fill:#C4CAFF;}
	.st56{fill:#CFD2FF;}
	.st57{fill:#FAFBFF;}
	.st58{fill:#B3C7FF;}
	.st59{fill:#6F88DE;}
	.st60{fill:#5D7ADE;}
</style>
<g>
	
		<ellipse transform="matrix(0.7071 -0.7071 0.7071 0.7071 -77.8336 191.2355)" class="st0" cx="191.92" cy="189.57" rx="140.81" ry="140.81"/>
	
		<ellipse transform="matrix(0.7071 -0.7071 0.7071 0.7071 -35.8781 353.993)" class="st0" cx="409.37" cy="220.31" rx="113.75" ry="113.75"/>
	<circle class="st0" cx="338.33" cy="87.53" r="87.53"/>
	<g class="st1">
		<path class="st2" d="M303.4,34.92l-13.32,13.54c-1.55,1.58-1.53,4.11,0.05,5.66l7.56,7.44c1.58,1.55,4.11,1.53,5.66-0.05
			l13.32-13.54c1.55-1.58,1.53-4.11-0.05-5.66l-7.56-7.44C307.48,33.32,304.95,33.34,303.4,34.92z"/>
		<path class="st2" d="M350.82,24l-18.99-0.25c-2.21-0.03-4.03,1.74-4.06,3.95l-0.14,10.61c-0.03,2.21,1.74,4.03,3.95,4.06
			l18.99,0.25c2.21,0.03,4.03-1.74,4.06-3.95l0.14-10.61C354.8,25.84,353.03,24.02,350.82,24z"/>
		<path class="st2" d="M349.6,129.31l-18.99-0.25c-2.21-0.03-4.03,1.74-4.06,3.95l-0.14,10.61c-0.03,2.21,1.74,4.03,3.95,4.06
			l18.99,0.25c2.21,0.03,4.03-1.74,4.06-3.95l0.14-10.61C353.58,131.15,351.81,129.33,349.6,129.31z"/>
		<path class="st2" d="M377.28,109.84l-13.32,13.54c-1.55,1.58-1.53,4.11,0.05,5.66l7.56,7.44c1.58,1.55,4.11,1.53,5.66-0.05
			l13.32-13.54c1.55-1.58,1.53-4.11-0.05-5.66l-7.56-7.44C381.37,108.24,378.83,108.26,377.28,109.84z"/>
		<path class="st2" d="M391.12,48.79L377.7,35.35c-1.56-1.57-4.1-1.57-5.66-0.01l-7.51,7.49c-1.57,1.56-1.57,4.1-0.01,5.66
			l13.41,13.44c1.56,1.57,4.1,1.57,5.66,0.01l7.51-7.5C392.67,52.89,392.68,50.36,391.12,48.79z"/>
		<path class="st2" d="M315.66,122.31l-13.41-13.44c-1.56-1.57-4.1-1.57-5.66-0.01l-7.51,7.49c-1.57,1.56-1.57,4.1-0.01,5.66
			l13.41,13.44c1.56,1.57,4.1,1.57,5.66,0.01l7.51-7.49C317.22,126.41,317.22,123.87,315.66,122.31z"/>
		<path class="st2" d="M296.94,94.75l-0.01-18.99c0-2.21-1.79-4-4.01-4l-10.61,0.01c-2.21,0-4,1.79-4,4.01l0.01,18.99
			c0,2.21,1.79,4,4.01,4l10.61-0.01C295.14,98.75,296.94,96.96,296.94,94.75z"/>
		<path class="st2" d="M402.41,95.22l-0.01-18.99c0-2.21-1.79-4-4.01-4l-10.61,0.01c-2.21,0-4,1.79-4,4.01l0.01,18.99
			c0,2.21,1.79,4,4.01,4l10.61-0.01C400.62,99.23,402.41,97.43,402.41,95.22z"/>
		<path class="st2" d="M390.34,64.97c-11.35-27.55-42.89-40.69-70.44-29.33c-27.55,11.35-40.68,42.89-29.33,70.44
			c11.35,27.55,42.89,40.69,70.44,29.33S401.69,92.53,390.34,64.97z M349.05,106.95c-11.68,4.81-25.05-0.75-29.86-12.43
			c-4.81-11.68,0.76-25.05,12.43-29.86c11.68-4.81,25.05,0.76,29.86,12.44C366.29,88.77,360.72,102.14,349.05,106.95z"/>
		<g>
			<path class="st3" d="M345.76,115.72c-13.86,2.44-28.07-4.98-33.65-18.51c-6.44-15.63,1.04-33.58,16.66-40.01
				c7.57-3.12,15.9-3.1,23.46,0.04c7.56,3.15,13.44,9.05,16.56,16.62c3.12,7.57,3.1,15.9-0.04,23.46
				c-3.15,7.56-9.05,13.44-16.62,16.56C350.03,114.73,347.9,115.34,345.76,115.72z M312.39,97.09c6.38,15.47,24.15,22.87,39.62,16.5
				c7.5-3.09,13.34-8.91,16.46-16.39c3.12-7.48,3.13-15.73,0.04-23.23c-6.38-15.47-24.15-22.88-39.62-16.5
				C313.42,63.84,306.01,81.62,312.39,97.09z"/>
		</g>
	</g>
	<g class="st1">
		<path class="st2" d="M448.75,160.66l-8.3,5.92c-0.97,0.69-1.19,2.03-0.5,3l3.31,4.64c0.69,0.97,2.03,1.19,3,0.5l8.3-5.92
			c0.97-0.69,1.19-2.03,0.5-3l-3.31-4.64C451.06,160.19,449.72,159.97,448.75,160.66z"/>
		<path class="st2" d="M474.83,159.29l-10.01-1.9c-1.17-0.22-2.29,0.54-2.51,1.71l-1.06,5.59c-0.22,1.17,0.54,2.29,1.71,2.51
			l10.01,1.9c1.17,0.22,2.29-0.54,2.51-1.71l1.06-5.59C476.76,160.64,475.99,159.51,474.83,159.29z"/>
		<path class="st2" d="M464.39,214.83l-10.01-1.9c-1.17-0.22-2.29,0.54-2.51,1.71l-1.06,5.59c-0.22,1.17,0.54,2.29,1.71,2.51
			l10.01,1.9c1.17,0.22,2.29-0.54,2.51-1.71l1.06-5.59C466.32,216.18,465.56,215.05,464.39,214.83z"/>
		<path class="st2" d="M480.83,207.12l-8.3,5.92c-0.97,0.69-1.19,2.03-0.5,3l3.31,4.64c0.69,0.97,2.03,1.19,3,0.5l8.3-5.92
			c0.97-0.69,1.19-2.03,0.5-3l-3.31-4.64C483.14,206.65,481.79,206.43,480.83,207.12z"/>
		<path class="st2" d="M493.82,176.14l-5.84-8.35c-0.68-0.97-2.02-1.21-2.99-0.53l-4.67,3.26c-0.97,0.68-1.21,2.02-0.53,2.99
			l5.84,8.35c0.68,0.97,2.02,1.21,2.99,0.53l4.67-3.26C494.26,178.45,494.5,177.11,493.82,176.14z"/>
		<path class="st2" d="M447.11,207.98l-5.84-8.35c-0.68-0.97-2.02-1.21-2.99-0.53l-4.67,3.26c-0.97,0.68-1.21,2.02-0.53,2.99
			l5.84,8.35c0.68,0.97,2.02,1.21,2.99,0.53l4.67-3.26C447.55,210.29,447.79,208.95,447.11,207.98z"/>
		<path class="st2" d="M439.77,191.67l1.76-10.04c0.21-1.17-0.58-2.28-1.74-2.49l-5.61-0.98c-1.17-0.21-2.28,0.58-2.49,1.74
			l-1.76,10.04c-0.21,1.17,0.58,2.28,1.74,2.49l5.61,0.98C438.45,193.62,439.57,192.84,439.77,191.67z"/>
		<path class="st2" d="M495.47,201.73l1.76-10.04c0.21-1.17-0.58-2.28-1.74-2.49l-5.61-0.98c-1.17-0.21-2.28,0.58-2.49,1.75
			L485.63,200c-0.21,1.17,0.58,2.28,1.74,2.49l5.61,0.98C494.15,203.68,495.26,202.9,495.47,201.73z"/>
		<path class="st2" d="M491.9,184.62c-3.44-15.61-18.88-25.49-34.5-22.05c-15.62,3.44-25.49,18.88-22.05,34.5
			c3.44,15.62,18.88,25.49,34.5,22.05C485.47,215.68,495.34,200.24,491.9,184.62z M466.18,202.96c-6.62,1.46-13.17-2.73-14.62-9.35
			c-1.46-6.62,2.73-13.17,9.35-14.62c6.62-1.45,13.17,2.73,14.62,9.35C476.98,194.96,472.79,201.51,466.18,202.96z"/>
		<g>
			<path class="st3" d="M463.62,207.29c-7.55,0-14.37-5.24-16.06-12.91c-1.95-8.86,3.67-17.65,12.53-19.6
				c4.29-0.94,8.69-0.16,12.39,2.2c3.7,2.37,6.26,6.03,7.2,10.32c0.94,4.29,0.16,8.69-2.2,12.39c-2.37,3.7-6.03,6.26-10.32,7.2
				C465.97,207.17,464.79,207.29,463.62,207.29z M447.72,194.35c1.93,8.77,10.63,14.33,19.4,12.4c4.25-0.93,7.88-3.47,10.22-7.13
				c2.34-3.66,3.12-8.02,2.18-12.27c-1.93-8.77-10.63-14.33-19.4-12.4C451.36,176.87,445.79,185.58,447.72,194.35z"/>
		</g>
	</g>
	<g class="st1">
		<path class="st2" d="M114.74,151.51l-5.6,3.99c-0.65,0.46-0.8,1.37-0.34,2.02l2.23,3.13c0.46,0.65,1.37,0.8,2.02,0.34l5.6-3.99
			c0.65-0.46,0.8-1.37,0.34-2.02l-2.23-3.13C116.29,151.19,115.39,151.04,114.74,151.51z"/>
		<path class="st2" d="M132.33,150.59l-6.75-1.28c-0.79-0.15-1.55,0.37-1.69,1.15l-0.72,3.77c-0.15,0.79,0.37,1.55,1.15,1.69
			l6.75,1.28c0.79,0.15,1.55-0.37,1.69-1.15l0.72-3.77C133.63,151.5,133.12,150.74,132.33,150.59z"/>
		<path class="st2" d="M125.29,188.06l-6.75-1.28c-0.79-0.15-1.55,0.37-1.69,1.15l-0.72,3.77c-0.15,0.79,0.37,1.54,1.15,1.69
			l6.75,1.28c0.79,0.15,1.55-0.37,1.69-1.15l0.72-3.77C126.59,188.96,126.08,188.2,125.29,188.06z"/>
		<path class="st2" d="M136.38,182.85l-5.6,3.99c-0.65,0.46-0.8,1.37-0.34,2.02l2.23,3.13c0.46,0.65,1.37,0.8,2.02,0.34l5.6-3.99
			c0.65-0.46,0.8-1.37,0.34-2.02l-2.23-3.13C137.94,182.54,137.03,182.39,136.38,182.85z"/>
		<path class="st2" d="M145.14,161.95l-3.94-5.63c-0.46-0.66-1.36-0.82-2.02-0.36l-3.15,2.2c-0.66,0.46-0.82,1.36-0.36,2.02
			l3.94,5.63c0.46,0.66,1.36,0.82,2.02,0.36l3.15-2.2C145.44,163.51,145.6,162.61,145.14,161.95z"/>
		<path class="st2" d="M113.63,183.43l-3.94-5.63c-0.46-0.66-1.36-0.82-2.02-0.36l-3.15,2.2c-0.66,0.46-0.82,1.36-0.36,2.02
			l3.94,5.63c0.46,0.66,1.36,0.82,2.02,0.36l3.15-2.2C113.93,184.99,114.09,184.09,113.63,183.43z"/>
		<path class="st2" d="M108.68,172.43l1.19-6.77c0.14-0.79-0.39-1.54-1.18-1.68l-3.78-0.66c-0.79-0.14-1.54,0.39-1.68,1.18
			l-1.19,6.77c-0.14,0.79,0.39,1.54,1.18,1.68l3.78,0.66C107.79,173.75,108.54,173.22,108.68,172.43z"/>
		<path class="st2" d="M146.26,179.22l1.19-6.77c0.14-0.79-0.39-1.54-1.18-1.68l-3.78-0.66c-0.79-0.14-1.54,0.39-1.68,1.18
			l-1.19,6.77c-0.14,0.79,0.39,1.54,1.18,1.68l3.78,0.66C145.37,180.53,146.12,180.01,146.26,179.22z"/>
		<path class="st2" d="M143.85,167.67c-2.32-10.53-12.74-17.2-23.27-14.88c-10.54,2.32-17.2,12.74-14.88,23.27
			c2.32,10.54,12.74,17.2,23.27,14.88C139.51,188.63,146.17,178.21,143.85,167.67z M126.49,180.05c-4.47,0.98-8.88-1.84-9.87-6.31
			c-0.98-4.46,1.84-8.88,6.31-9.87c4.47-0.98,8.88,1.84,9.87,6.31C133.78,174.65,130.96,179.07,126.49,180.05z"/>
		<g>
			<path class="st3" d="M124.77,182.97c-5.09,0-9.69-3.54-10.83-8.71c-1.31-5.97,2.48-11.91,8.45-13.22
				c2.89-0.64,5.86-0.11,8.36,1.49c2.5,1.6,4.22,4.07,4.86,6.96c0.64,2.89,0.11,5.86-1.49,8.36c-1.6,2.5-4.07,4.22-6.96,4.86
				C126.36,182.89,125.56,182.97,124.77,182.97z M114.04,174.24c1.3,5.92,7.17,9.67,13.09,8.37c2.87-0.63,5.31-2.34,6.9-4.81
				c1.58-2.47,2.1-5.41,1.47-8.28c-1.3-5.92-7.17-9.67-13.09-8.37C116.49,162.45,112.74,168.32,114.04,174.24z"/>
		</g>
	</g>
	<g>
		<g>
			
				<rect x="197.41" y="87.58" transform="matrix(0.798 -0.6026 0.6026 0.798 -9.9707 157.1454)" class="st4" width="64.07" height="11.73"/>
			<path class="st4" d="M259.16,78.36l10.76-8.13c0.45-0.34,1.12-0.09,1.22,0.47c0.98,5.49-1.07,11.31-5.82,14.9
				c-5.09,3.85-11.82,4.01-17,0.94c-1.69-0.99-3.21-2.32-4.46-3.98s-2.12-3.49-2.61-5.38c-1.53-5.83,0.47-12.25,5.56-16.09
				c4.74-3.58,10.91-3.97,15.92-1.52c0.51,0.25,0.57,0.96,0.12,1.3L252.09,69c-0.34,0.25-0.4,0.74-0.15,1.07l6.15,8.14
				C258.34,78.55,258.82,78.62,259.16,78.36z"/>
			<path class="st4" d="M213.67,105.37c1.25,1.66,2.12,3.48,2.61,5.38c1.53,5.82-0.47,12.25-5.56,16.09
				c-4.75,3.58-10.91,3.97-15.92,1.52c-0.51-0.25-0.57-0.96-0.12-1.3l12.13-9.16c0.34-0.25,0.4-0.74,0.15-1.07l-6.15-8.14
				c-0.25-0.34-0.74-0.4-1.07-0.15l-12.13,9.16c-0.45,0.34-1.12,0.09-1.22-0.47c-0.98-5.49,1.08-11.32,5.82-14.9
				c5.09-3.84,11.81-4.01,17-0.94C210.89,102.37,212.41,103.71,213.67,105.37z"/>
		</g>
	</g>
	<path class="st5" d="M410.94,285.25H146.37c-5.14,0-9.31-4.17-9.31-9.31V98.99c0-5.14,4.17-9.31,9.31-9.31h264.57
		c5.14,0,9.31,4.17,9.31,9.31v176.95C420.26,281.08,416.09,285.25,410.94,285.25z"/>
	<rect x="161.35" y="110.79" class="st3" width="238.75" height="148.58"/>
	<rect x="161.35" y="110.53" class="st6" width="238.75" height="24.76"/>
	<path class="st7" d="M371.52,258h-88.26c-2.45,0-4.44-1.99-4.44-4.44v-23.5c0-2.45,1.99-4.44,4.44-4.44h88.26
		c2.45,0,4.44,1.99,4.44,4.44v23.5C375.97,256.01,373.98,258,371.52,258z"/>
	<polygon class="st8" points="309.72,322.23 239.66,322.23 258.27,280.97 275.27,281.12 291.11,281.26 	"/>
	<path class="st9" d="M272.11,322.23h-32.45l18.61-41.26l17,0.15c7.58,1.82,14.45,3.66,14.45,3.66c-18.1,2.75-24.55-0.43-30.38,4.55
		c-5.83,4.98-12.91,20-12.38,23.91c0.6,4.38,19.05,9.52,26.46,8.57C275.13,321.59,274.37,321.81,272.11,322.23z"/>
	<path class="st10" d="M408.81,285.73h-260.4c-6.35,0-11.5-5.15-11.5-11.5v-25.01h283.41v25.01
		C420.31,280.58,415.16,285.73,408.81,285.73z"/>
	<path class="st11" d="M367.23,123.34c0-1.93-1.56-3.49-3.49-3.49s-3.49,1.56-3.49,3.49c0,1.93,1.56,3.49,3.49,3.49
		S367.23,125.26,367.23,123.34z"/>
	<path class="st12" d="M387.55,123.34c0-1.93-1.56-3.49-3.49-3.49c-1.93,0-3.49,1.56-3.49,3.49c0,1.93,1.56,3.49,3.49,3.49
		C385.98,126.83,387.55,125.26,387.55,123.34z"/>
	<path class="st12" d="M377.39,123.49c0-1.93-1.56-3.49-3.49-3.49c-1.93,0-3.49,1.56-3.49,3.49c0,1.93,1.56,3.49,3.49,3.49
		C375.83,126.99,377.39,125.42,377.39,123.49z"/>
	<path class="st7" d="M225.9,191.33h-42.97c-2.45,0-4.44-1.99-4.44-4.44V154.5c0-2.45,1.99-4.44,4.44-4.44h42.97
		c2.45,0,4.44,1.99,4.44,4.44v32.38C230.35,189.34,228.36,191.33,225.9,191.33z"/>
	<rect x="240.92" y="149.85" class="st13" width="131.86" height="41.27"/>
	<path class="st0" d="M371.73,157.89H243.25c-2.22,0-4.02-1.8-4.02-4.02l0,0c0-2.22,1.8-4.02,4.02-4.02h128.48
		c2.22,0,4.02,1.8,4.02,4.02l0,0C375.76,156.09,373.96,157.89,371.73,157.89z"/>
	<path class="st0" d="M371.73,181.26H243.25c-2.22,0-4.02-1.8-4.02-4.02v0c0-2.22,1.8-4.02,4.02-4.02h128.48
		c2.22,0,4.02,1.8,4.02,4.02v0C375.76,179.45,373.96,181.26,371.73,181.26z"/>
	<path class="st0" d="M371.73,169.57H243.25c-2.22,0-4.02-1.8-4.02-4.02l0,0c0-2.22,1.8-4.02,4.02-4.02h128.48
		c2.22,0,4.02,1.8,4.02,4.02l0,0C375.76,167.77,373.96,169.57,371.73,169.57z"/>
	<path class="st0" d="M371.73,192.94H243.25c-2.22,0-4.02-1.8-4.02-4.02l0,0c0-2.22,1.8-4.02,4.02-4.02h128.48
		c2.22,0,4.02,1.8,4.02,4.02l0,0C375.76,191.14,373.96,192.94,371.73,192.94z"/>
	<path class="st0" d="M371.73,204.62H182.51c-2.22,0-4.02-1.8-4.02-4.02l0,0c0-2.22,1.8-4.02,4.02-4.02h189.23
		c2.22,0,4.02,1.8,4.02,4.02l0,0C375.76,202.82,373.96,204.62,371.73,204.62z"/>
	<path class="st0" d="M371.73,216.31H182.51c-2.22,0-4.02-1.8-4.02-4.02l0,0c0-2.22,1.8-4.02,4.02-4.02h189.23
		c2.22,0,4.02,1.8,4.02,4.02l0,0C375.76,214.51,373.96,216.31,371.73,216.31z"/>
	<path class="st0" d="M266.83,240.65h-57.31c-1.27,0-2.3-1.03-2.3-2.3l0,0c0-1.27,1.03-2.3,2.3-2.3h57.31c1.27,0,2.3,1.03,2.3,2.3
		l0,0C269.13,239.62,268.1,240.65,266.83,240.65z"/>
	<path class="st0" d="M266.83,247.31h-57.31c-1.27,0-2.3-1.03-2.3-2.3l0,0c0-1.27,1.03-2.3,2.3-2.3h57.31c1.27,0,2.3,1.03,2.3,2.3
		l0,0C269.13,246.28,268.1,247.31,266.83,247.31z"/>
	<path class="st14" d="M340.62,322.35v8.03c0,1.87-1.52,3.4-3.39,3.4H212.15c-0.04,0-0.09,0-0.13-0.01
		c-1.81-0.07-3.26-1.56-3.26-3.39v-8.03c0-1.88,1.52-3.4,3.39-3.4h125.08C339.1,318.95,340.62,320.47,340.62,322.35z"/>
	<path class="st9" d="M212.02,333.77c-1.81-0.07-3.26-1.56-3.26-3.39v-8.03c0-1.88,1.52-3.4,3.39-3.4h2.13
		C210.79,322.2,207.73,329.29,212.02,333.77z"/>
	<path class="st15" d="M376.47,306.43c-0.8,3.6-1.19,6.4-0.86,9.07c0.51,4.18,1.63,6.12,1.12,11.72
		c-0.51,5.61-3.67,18.15-3.67,19.27c0,1.12-2.62,1.16-2.73,0.55c-0.1-0.61-0.12-26.75,0.08-31.74c0.1-2.3-0.3-5.68-0.68-8.81
		c-0.24-2.08-0.46-4.05-0.5-5.51c-0.04-1.12,0.03-1.94,0.26-2.3c1.01-1.52,8.66,0.82,8.66,0.82c-0.28,1.11-0.54,2.15-0.78,3.12
		C377.04,303.99,376.73,305.25,376.47,306.43z"/>
	<path class="st15" d="M367.05,300.96c0.01,0.14-0.01,0.36-0.1,0.66c-0.22,0.93-0.79,2.63-1.34,4.85c-0.3,1.21-0.61,2.58-0.85,4.05
		c-0.85,5.04,0.22,6.95,0.3,9.17c0.32,9.42-3.93,25.34-4.24,26.34c-0.32,0.98-2.19,0.96-2.87,0.42c-0.6-0.46-0.18-28.22,1-41.66
		c0.03-0.29,0.04-0.57,0.08-0.85c0.18-1.95,0.37-3.56,0.6-4.65C359.64,299.28,366.98,300.2,367.05,300.96z"/>
	<path class="st16" d="M374,350.87c-0.36,0.07-1.01,0.14-1.75,0.18c-1.34,0.08-2.9,0.06-3.03-0.33c-0.12-0.4,0.03-1.81,0.29-2.95
		c0.19-0.8,0.46-1.47,0.71-1.52c1.25-0.24,2.56-0.03,2.98,0.12C373.63,346.52,375.03,350.68,374,350.87z"/>
	<path class="st16" d="M360.76,350.92c-0.01,0.01-0.04,0.03-0.06,0.04c-0.72,0.33-7.33-0.19-10.89-1.5
		c-1.68-0.61-2.65-1.39-3.14-2.04c-0.58-0.73-0.57-1.32-0.33-1.36c0.11-0.01,0.6-0.01,1.26,0.01c1.51,0.06,4.02,0.21,5.54,0.29
		c0.53,0.04,0.94,0.06,1.15,0.07c0.89,0.03,6.54-0.42,6.54-0.42C361.05,347.74,361.41,350.46,360.76,350.92z"/>
	<path class="st17" d="M373.93,243.48c6.12,2.6,7.26,19.49,7.11,20.18c-0.15,0.69-7.57-3.67-7.57-4.74S373.93,243.48,373.93,243.48z
		"/>
	<path class="st18" d="M350.99,263.47c-1.79-0.65-5.76-10.67-6-13.99c0,0,0.83,0.62,1.87,1.43c1.11,0.85,2.42,1.9,3.26,2.66
		c0.79,0.72,1.37,1.5,1.8,2.3C354.03,259.73,352.49,264,350.99,263.47z"/>
	<path class="st19" d="M375.48,246.25c2.02,4.27,1.62,11.66,2.42,12.93c0.81,1.27,3.03,3.18,3.13,4.48c0.1,1.3-6.19,3.03-7.46-0.32
		C372.31,259.99,375.48,246.25,375.48,246.25z"/>
	<path class="st20" d="M351.92,255.87c-0.48-0.33-1.51-1.45-2.19-2.11c-0.91-0.86-4.07-2.38-4.6-3.7l1.73,0.85
		c1.11,0.85,2.42,1.9,3.26,2.66C350.91,254.29,351.49,255.06,351.92,255.87z"/>
	<path class="st21" d="M394.1,276c-0.89,1.4-2.4,2.16-3.93,2.16c-0.33,0-0.66-0.03-1-0.11c-0.53-0.11-1.04-0.32-1.52-0.62
		l-1.12-0.72l-5.98-3.82l-30.81-19.66c-0.01,0-0.04-0.01-0.04-0.03l-1.14-0.72l-3.55-2.27c-0.08-0.04-0.17-0.1-0.24-0.18
		c-0.03,0-0.04-0.01-0.07-0.03l-0.14-0.17l-0.91-0.96c-0.43-0.62-0.69-1.34-0.76-2.09c-0.07-0.62-0.01-1.26,0.18-1.87
		c0.11-0.4,0.29-0.79,0.53-1.16c0.44-0.71,1.05-1.25,1.75-1.61c0.68-0.36,1.43-0.54,2.19-0.54c0.26,0,0.53,0.03,0.79,0.07l0.03,0.01
		l1.14,0.37h0.01l0.19,0.07l0.01,0.01c0.01,0,0.03,0.01,0.06,0.03c0.1,0.04,0.19,0.11,0.29,0.17l4.65,2.96c0,0,0.01,0,0.01,0.01
		l30.39,19.4l7.56,4.82c0.12,0.08,0.25,0.17,0.36,0.26c0.08,0.07,0.15,0.14,0.24,0.21c0.01,0,0.01,0.01,0.02,0.02
		c0.25,0.22,0.48,0.46,0.66,0.73c0.1,0.12,0.18,0.26,0.26,0.42c0.07,0.11,0.14,0.25,0.19,0.37c0.06,0.11,0.11,0.24,0.14,0.35
		c0.06,0.12,0.1,0.24,0.12,0.36c0.01,0.06,0.03,0.11,0.04,0.17c0.04,0.17,0.07,0.33,0.08,0.5C394.94,273.94,394.71,275.04,394.1,276
		z"/>
	<path class="st22" d="M394.1,276c-0.89,1.4-2.4,2.16-3.93,2.16c-0.33,0-0.66-0.03-1-0.11c-0.53-0.11-1.04-0.32-1.52-0.62
		l-1.12-0.72l-5.98-3.82c0.04-0.48,0.11-0.97,0.21-1.44c0.58-2.76,2.17-5.14,4.36-6.73l7.56,4.82c0.12,0.08,0.25,0.17,0.36,0.26
		c0.08,0.07,0.15,0.14,0.24,0.21c0.25,0.22,0.48,0.47,0.68,0.75c0.1,0.12,0.18,0.26,0.26,0.42c0.07,0.11,0.14,0.25,0.19,0.37
		c0.06,0.11,0.11,0.24,0.14,0.35c0.06,0.12,0.1,0.24,0.12,0.36c0.01,0.06,0.03,0.11,0.04,0.17c0.04,0.17,0.07,0.33,0.08,0.5
		C394.94,273.94,394.71,275.04,394.1,276z"/>
	<path class="st22" d="M349.61,242.39l-3.12,4.92l-1.58,2.48c-0.08,0.12-0.25,0.15-0.35,0.04l-0.91-0.96l-0.97-1.03l-10.65-11.17
		c-0.18-0.17,0.01-0.44,0.24-0.36l6.46,2.15l7.74,2.56l1.86,0.64l1.16,0.39h0.01C349.62,242.11,349.69,242.28,349.61,242.39z"/>
	<path class="st21" d="M356.14,251.77c-0.36,0.55-0.8,1.01-1.32,1.36c-0.78,0.53-1.69,0.8-2.63,0.8c-0.85,0-1.69-0.22-2.47-0.71
		c-0.01,0-0.04-0.01-0.04-0.03l-1.14-0.72l-3.55-2.27c-0.08-0.04-0.17-0.1-0.24-0.18c-0.03,0-0.04-0.01-0.07-0.03l-0.14-0.17
		l-0.91-0.96l-0.97-1.03c0.04-0.36,0.12-0.71,0.21-1.07c0.14-0.55,0.32-1.09,0.54-1.61c0.47-1.12,1.12-2.15,1.91-3.03
		c0.35-0.4,0.71-0.78,1.12-1.11l1.86,0.64l1.16,0.39h0.01l0.19,0.07l0.01,0.01c0.01,0,0.03,0.01,0.06,0.03
		c0.1,0.04,0.19,0.11,0.29,0.17l4.65,2.96c0,0,0.01,0,0.01,0.01c0.22,0.14,0.4,0.29,0.6,0.46
		C357,247.26,357.41,249.81,356.14,251.77z"/>
	<path class="st9" d="M359.04,303.94c1.18-0.36,4.79-1.41,7.91-2.31c-0.22,0.93-0.79,2.63-1.34,4.85c-2.96-0.17-5.74-0.71-6.65-1.69
		c-0.21-0.22-0.32-0.46-0.32-0.73C358.64,304.05,358.78,304.01,359.04,303.94z"/>
	<path class="st9" d="M377.38,302.62c-1.16-1.44-3.85-2.77-6.01-2.22c-0.51,0.14-1.26,0.33-2.13,0.58c0.04,1.47,0.26,3.44,0.5,5.51
		c0.76-0.06,1.48-0.11,2.12-0.21c3.46-0.48,4.25-0.3,4.61,0.14L377.38,302.62z"/>
	<path class="st9" d="M389.17,278.05c-0.53-0.11-1.04-0.32-1.52-0.62l-1.12-0.72l-5.98-3.82l-30.81-19.66
		c-0.01,0-0.04-0.01-0.04-0.03l-1.14-0.72l-3.55-2.27c-0.08-0.04-0.17-0.1-0.24-0.18c-0.03,0-0.04-0.01-0.07-0.03l-0.14-0.17
		l-0.91-0.96l-0.97-1.03l-10.65-11.17c-0.18-0.17,0.01-0.44,0.24-0.36l6.46,2.15c-1.08,0.54-1.8,1.54-1.57,2.13
		c0.07,0.18,2.34,1.81,5.92,4.31c0.11,0.08,0.24,0.17,0.36,0.26c0.94,0.65,1.97,1.37,3.06,2.13c2.49,1.73,5.33,3.71,8.34,5.82
		c8.69,6.03,18.79,13.08,25.92,18.31C384.75,274.39,387.83,276.74,389.17,278.05z"/>
	<path class="st23" d="M377.6,302.87c-1.23,3.34-17.97,3.59-19.12,1.52s5.82-32.49,6.43-37.68c0,0,1.86-0.37,3.95-0.75
		c1.12-0.21,2.31-0.4,3.32-0.54h0.04c1.32-0.18,2.33-0.25,2.47-0.08c0.03,0.03,0.08,0.11,0.12,0.22c0.87,1.63,4.68,11.12,5.76,17.21
		l0.04,0.29C381.66,289.53,379.18,298.58,377.6,302.87z"/>
	<path class="st24" d="M380.62,283.06c-1.3-4.53-4.06-10.88-6.07-12.73c-2.49-2.3-7.45-2.28-7.92-3.99
		c-0.06-0.18-0.08-0.39-0.07-0.61c0,0,3.78-0.38,5.62-0.31h0.04c0.76,0.03,1.57,0.07,2.33,0.11c0.1,0,0.18,0.01,0.26,0.03
		c0.87,1.63,4.68,11.12,5.76,17.21L380.62,283.06z"/>
	<path class="st18" d="M375.93,265.16c-0.15,1.19-0.29,1.94-0.36,2.04c-0.08,0.12-0.8,0.19-1.81,0.21
		c-2.94,0.07-8.42-0.26-8.84-0.69c-0.3-0.32-2.33-6.65-3.78-12.69c-1.26-5.24-2.09-10.24-1.01-10.88c2.34-1.39,8.51-2.62,13.81,0.33
		c1.16,0.64,1.87,2.41,2.26,4.72C377.11,253.44,376.43,261.44,375.93,265.16z"/>
	<path class="st18" d="M351,263.47c5.16,2.71,11.39-16.28,11.39-16.78c0-0.5,0.66-5.25-2.27-3.54c-2.93,1.71-8.51,14.36-8.63,15.85
		C351.38,260.48,351,263.47,351,263.47z"/>
	<path class="st25" d="M375.46,247.37c0,0-0.48,0.42-1.37,0.79c-0.18,0.08-0.39,0.17-0.61,0.24c-1.27,0.4-2.76,0.15-2.76,0.15
		s-1.37-0.97-2.34-2.36c-0.08-0.12-0.17-0.25-0.25-0.39c-0.94-1.44-2.09-3.73-2.09-3.73s0.07,1,0.48,2.51
		c0.07,0.29,0.17,0.62,0.28,0.96c0.67,2.04,1.52,3.26,1.52,3.26s0,0.04-1.32,0.1c-2.05,0.11-2.51-0.25-2.51-0.25
		s-4.09-8.3-5.11-15.42c0-0.01,0-0.01,0-0.03c-0.44-3.09-0.32-5.96,0.98-7.81c0.91-1.32,2.41-2.13,4.7-2.18
		c3.16-0.04,5.14,1.12,6.98,6.53c1.47,4.35,1.69,8.77,1.94,11.68c0.06,0.71,0.12,1.33,0.19,1.83
		C374.6,245.85,375.46,247.37,375.46,247.37z"/>
	<path class="st20" d="M373.75,267.41c-2.94,0.07-8.42-0.26-8.84-0.69c-0.3-0.32-2.33-6.65-3.78-12.69
		c2.11,3.42,5.22,11.66,7.19,12.15c0.54,0.12,1.22,0.25,1.94,0.39C371.49,266.8,372.82,267.06,373.75,267.41z"/>
	<path class="st26" d="M360.76,350.92c-0.01,0.01-0.04,0.03-0.06,0.04c-0.72,0.33-7.33-0.19-10.89-1.5
		c-1.68-0.61-2.65-1.39-3.14-2.04c1.22,0.53,2.9,1.32,4.7,1.65C354.5,349.66,358.2,350.15,360.76,350.92z"/>
	<path class="st26" d="M372.26,351.05c-1.34,0.08-2.9,0.06-3.03-0.33c-0.12-0.4,0.03-1.81,0.29-2.95
		C369.54,348.85,369.94,350.26,372.26,351.05z"/>
	<path class="st27" d="M353.14,346.37c-1.99,0.91-4.41,1.03-5.54-0.29C349.11,346.14,351.61,346.29,353.14,346.37z"/>
	<path d="M366.8,245.54c0.67,2.04,1.52,3.26,1.52,3.26s0,0.04-1.32,0.1c-2.05,0.11-2.51-0.25-2.51-0.25s-4.09-8.3-5.11-15.42
		c1.14,3.57,3.38,8.17,7.13,11.36C366.59,244.88,366.69,245.21,366.8,245.54z"/>
	<path d="M374.09,248.16c-0.18,0.08-0.39,0.17-0.61,0.24c-1.27,0.4-2.76,0.15-2.76,0.15s-1.37-0.97-2.34-2.36
		c-0.08-0.12-0.17-0.25-0.25-0.39C369.85,246.96,371.81,247.8,374.09,248.16z"/>
	<path class="st28" d="M373.99,241.42c-1.26-3.21-2.26-9.85-4.57-13.44c-2.36-3.63-6.71-3.52-9.05-2.59
		c0.91-1.32,2.41-2.13,4.7-2.18c3.16-0.04,5.14,1.12,6.98,6.53C373.52,234.09,373.74,238.51,373.99,241.42z"/>
	<g>
		<g>
			<g>
				<rect x="156.57" y="215.94" class="st23" width="33.83" height="1.33"/>
			</g>
			<g>
				<rect x="131.83" y="332.92" class="st23" width="33.83" height="1.33"/>
			</g>
			<g>
				<rect x="136.33" y="309.52" class="st23" width="33.83" height="1.33"/>
			</g>
			<g>
				<rect x="140.83" y="286.13" class="st23" width="33.83" height="1.33"/>
			</g>
			<g>
				<rect x="146.58" y="262.73" class="st23" width="33.83" height="1.33"/>
			</g>
			<g>
				<rect x="151.33" y="239.34" class="st23" width="33.83" height="1.33"/>
			</g>
			<g>
				<path class="st23" d="M162.1,350.4L162.1,350.4c0.88,0.18,1.74-0.38,1.92-1.26l30.2-144.34c0.18-0.88-0.38-1.74-1.26-1.92l0,0
					c-0.88-0.18-1.74,0.38-1.92,1.26l-30.2,144.34C160.66,349.35,161.22,350.22,162.1,350.4z"/>
			</g>
			<g>
				<path class="st23" d="M129.1,350.4L129.1,350.4c0.88,0.18,1.74-0.38,1.92-1.26l30.2-144.34c0.18-0.88-0.38-1.74-1.26-1.92l0,0
					c-0.88-0.18-1.74,0.38-1.92,1.26l-30.2,144.34C127.66,349.35,128.23,350.22,129.1,350.4z"/>
			</g>
		</g>
	</g>
	<path class="st25" d="M156.77,168.36c0,0.01,0,0.03,0,0.03c-0.21,0.38-0.44,0.58-0.71,0.58c-3.01-0.07-10.64-6.57-10.64-6.57
		s0.56-0.22,1.31-0.85c0.59-0.51,1.31-1.26,1.92-2.38c1.39-2.49,1.21-5.17,1.21-5.17s-2.13,3.15-4,4.51
		c-1.87,1.36-4.63,1.47-4.63,1.47s1.37-0.43,3.45-2.32h0.01c0.65-0.59,1.35-1.31,2.12-2.2c3.23-3.78,1.14-10.86,4.3-14.2
		c0.91-0.96,2.08-1.53,3.24-1.61c1.72-0.12,3.44,0.77,4.36,2.93C158.71,142.57,159.01,164.44,156.77,168.36z"/>
	<path d="M158.26,142.45c0,0-1.21,21.72-1.48,25.91c0,0.01,0,0.03,0,0.03c-0.21,0.38-0.44,0.58-0.71,0.58
		c-3.01-0.07-10.64-6.57-10.64-6.57s0.56-0.22,1.31-0.85c1.14,0.01,2.71-0.15,4.63-1.43c3.24-2.14,1.5-4.26,1.15-10.47
		C152.17,143.43,156.03,142.35,158.26,142.45z"/>
	<path class="st29" d="M153.46,146.98c-0.62,2.43-0.45,6.66,4.32,7.52c4.77,0.86,1.55-5.22,0.82-5.71
		C157.86,148.29,153.46,146.98,153.46,146.98z"/>
	<path class="st15" d="M160.61,161.12c-0.48,0.54-4.11-0.15-4.49-0.69c-0.36-0.48,0.7-4.18,1.33-6.24c0.07-0.21,0.12-0.4,0.18-0.56
		c0,0,0-0.03,0-0.07c0-0.19,0.05-0.66,0.69-0.62c0.01,0,0.04,0,0.05,0.01c0.15,0.01,0.32,0.1,0.51,0.23
		c0.77,0.54,1.68,1.87,1.64,2.89c0,0.17,0,0.36,0.01,0.56c0.04,0.62,0.14,1.42,0.21,2.17C160.81,159.87,160.85,160.84,160.61,161.12
		z"/>
	<path class="st9" d="M160.53,156.64c0.04,0.62,0.14,1.42,0.21,2.17c-0.25-0.62-0.67-1.48-1.2-1.97c-0.7-0.66-1.18-1.72-1.26-2.17
		c-0.05-0.33-0.49-0.29-0.82-0.48c0.07-0.21,0.12-0.4,0.18-0.56c0,0,0-0.03,0-0.07c0.22-0.11,0.51-0.23,0.81-0.3
		c0.14-0.04,0.29-0.07,0.44-0.07c0.29-0.03,0.6,0.01,0.89,0.14c1.22,0.54,0.95,1.07,1.98,2.67c0.26,0.41,0.34,0.87,0.32,1.31
		C161.54,157.12,161.01,156.9,160.53,156.64z"/>
	<path class="st15" d="M164.61,157.62c-0.49,0.18-1.5,0.03-2.54-0.33c-0.52-0.18-1.06-0.4-1.54-0.66c-0.84-0.45-1.5-0.99-1.64-1.51
		c-0.11-0.4-0.27-1.07-0.45-1.87c-0.01-0.1-0.04-0.19-0.07-0.3c-0.43-1.92-0.88-4.36-0.73-4.95c0.22-0.88,6.24-2.49,6.24-2.49
		c0.18,0.32,0.33,0.63,0.48,0.96c0.18,0.41,0.34,0.84,0.48,1.28C166.28,152.17,165.61,157.25,164.61,157.62z"/>
	<path class="st15" d="M158.26,150.69c-1.25-0.73-2.2,0-2.31,0.99c-0.07,0.64,0.66,2.28,2.5,2.17
		C160.28,153.73,158.26,150.69,158.26,150.69z"/>
	<path class="st9" d="M164.84,147.76c-0.27-0.05-0.69-0.22-1.18-0.32c-0.82-0.18-2.54,0.4-4.48,1.5c0,0,1.13-2.09,2.31-2.57
		c1.07-0.43,1.95-0.21,2.87,0.11C164.54,146.89,164.7,147.32,164.84,147.76z"/>
	<path class="st29" d="M164.57,146.88c-0.14,0.16-0.98-0.56-3.23,0.6c-0.19,0.1-0.4,0.21-0.62,0.34c-2.08,1.26-2.85,2.68-2.85,2.68
		l-4.41-3.53c1.1-4.01,3.97-4.98,6.32-4.55c0.84,0.15,1.62,0.48,2.23,0.92C164.28,144.99,164.72,146.68,164.57,146.88z"/>
	<path class="st30" d="M161.31,225.9c-5.21,5.65-14.54,16.22-15.49,21.14c-0.95,4.92,0.37,8-0.59,7.93
		c-0.95-0.07-4.92-6.83-4.48-7.63c0.44-0.81,3.01-2.28,3.96-5.14c0.95-2.86,4.4-15.05,11.67-21.29s7.41-5.87,7.41-5.87L161.31,225.9
		z"/>
	<path class="st15" d="M167.55,222.82c-0.95,3.67-6.75,26.94-6.17,30.39c0.59,3.45,4.41,3.82,4.48,4.26
		c0.08,0.44-8.66,0.88-8.88,0.37c-0.22-0.52,1.69-3.67,1.47-6.76c-0.22-3.08-0.81-11.38-0.15-18.94c0.66-7.56,4.04-14.53,4.04-14.9
		c0-0.19-1.46-2.57-2.86-5.02c-0.16-0.26-0.32-0.54-0.47-0.8c-1.2-2.1-2.24-4.1-2.19-4.6c0.15-1.18,9.55,2.93,9.55,2.93
		c0.19,0.6,0.37,1.18,0.54,1.73c0.37,1.32,0.66,2.49,0.85,3.53C168.37,218.17,168.21,220.33,167.55,222.82z"/>
	<path class="st31" d="M150.48,259.45c-0.05,0.27-2.06,1.03-4.21,0.88c-0.7-0.04-1.43-0.18-2.1-0.48c-2.65-1.15-6.03-7.88-6.45-8.74
		c0-0.01-0.01-0.03-0.01-0.03c-0.37-0.77,1.54-3.34,3.16-4c0,0,4.25,5.58,4.58,5.98c0.33,0.41,0.19,0.6,0.41,1.73
		c0.04,0.21,0.14,0.41,0.29,0.63c0.76,1.25,2.87,2.72,3.83,3.52C150.3,259.19,150.49,259.36,150.48,259.45z"/>
	<path class="st31" d="M174.05,259.63c-0.17,0.25-0.93,0.69-1.98,1.18c-0.01,0-0.01,0-0.03,0c-1.53,0.71-3.64,1.5-5.33,1.8
		c-2.46,0.44-7.7,0.07-9.57-0.27c-0.33-0.06-0.55-0.11-0.65-0.16c-0.66-0.37-0.11-2.76,0.52-4.74c0,0,6.01,0.51,8.26-0.29
		c0.14-0.04,1.09,0.12,2.32,0.4c1.73,0.38,4.01,0.98,5.35,1.44C173.69,259.25,174.15,259.49,174.05,259.63z"/>
	<path class="st30" d="M161.75,163.08c2.84,1.71,8.17,7.54,9.54,7.83c1.37,0.29,4.65-0.29,6.22,0.29c1.57,0.59-4.85,4.21-7.34,3.82
		c-2.5-0.39-6.36-4.85-7.15-6.66C162.24,166.56,161.75,163.08,161.75,163.08z"/>
	<path class="st32" d="M198.41,165.47c-0.01,0.01-0.03,0.01-0.04,0.03c-1.17,0.85-2.65,1.83-4.41,2.91c-1.62,1-3.49,2.1-5.57,3.24
		v0.01h-0.01c-1.55,0.87-3.22,1.79-4.98,2.74c-0.63,0.34-1.29,0.67-1.95,1.03c-4.56,2.38-9.72,4.92-15.19,7.48
		c-10.5,4.91-20.18,8.91-27.23,11.37c-6.65,2.32-10.95,3.27-11.41,2.31c-0.93-1.99,14.87-11.34,35.27-20.88
		c1.75-0.81,3.46-1.59,5.14-2.35c4.26-1.92,8.3-3.67,12.03-5.18c0.78-0.32,1.55-0.63,2.31-0.92c0.76-0.3,1.5-0.58,2.21-0.85v-0.01
		c2.76-1.07,5.28-1.98,7.48-2.71c2.16-0.7,4.01-1.24,5.51-1.58c0.04-0.01,0.08-0.03,0.12-0.03c2.24-0.52,3.6-0.54,3.85-0.03
		C201.8,162.63,200.66,163.82,198.41,165.47z"/>
	<path class="st33" d="M193.95,168.41v0.05c0,1.31-0.34,2.53-0.98,3.56l-4.48-0.32c-0.04,0-0.07-0.03-0.11-0.04h-0.01
		c-1.55,0.87-3.22,1.79-4.98,2.74c-1.91-1.17-3.22-3.22-3.33-5.58c-0.01-0.11-0.01-0.23-0.01-0.36v-0.29
		c0.78-0.32,1.55-0.63,2.31-0.92c0.76-0.3,1.5-0.58,2.21-0.85v-0.01c-0.01-0.04-0.01-0.05,0-0.08c0.15-1.62,1.31-3.27,3.15-4.76
		c1.7,0.16,3.22,0.96,4.33,2.13C193.22,164.91,193.95,166.57,193.95,168.41z"/>
	<path class="st9" d="M184.64,166.61c-0.83,1.03,0.6,6.61,2.83,6.33c2.23-0.29,4.81-0.86,3.32-2.12
		C189.3,169.56,184.64,166.61,184.64,166.61z"/>
	<path class="st32" d="M210.53,156.44c0,0.03-0.01,0.06-0.03,0.1c-0.03,0.05-0.1,0.15-0.19,0.25c-0.43,0.45-1.46,1.21-2.74,2.27
		c-0.48,0.4-1,0.82-1.55,1.32c-0.27,0.23-0.55,0.49-0.82,0.76c-0.27,0.25-0.56,0.52-0.84,0.8c-1.2,1.2-2.38,2.57-3.37,4.11
		c-0.16,0.25-0.33,0.51-0.48,0.77c-0.49,0.87-1.13,1.64-1.83,2.31c-1.14,1.09-2.5,1.91-3.92,2.43c-0.59,0.22-1.2,0.38-1.79,0.48
		c-1.57,0.27-3.13,0.19-4.48-0.32c-0.04,0-0.07-0.03-0.11-0.04h-0.01c-1.62-0.63-2.96-1.87-3.63-3.79c-0.04-0.12-0.08-0.25-0.1-0.37
		c-0.1-0.37-0.12-0.74-0.07-1.1v-0.01c-0.01-0.04-0.01-0.05,0-0.08c0.15-1.62,1.31-3.27,3.15-4.76c0.99-0.84,2.19-1.61,3.52-2.3
		c0.21-0.11,0.41-0.22,0.62-0.32c0.23-0.12,0.48-0.23,0.74-0.36c5.28-2.41,12.21-3.66,17.8-2.27c0.04,0.01,0.08,0.03,0.1,0.05
		C210.51,156.39,210.53,156.42,210.53,156.44z"/>
	<path class="st34" d="M210.53,156.44c0,0.03-0.01,0.06-0.03,0.1c-0.03,0.05-0.1,0.15-0.19,0.25c-0.43,0.45-1.46,1.21-2.74,2.27
		c-0.49,0.4-1.02,0.84-1.55,1.32c-0.27,0.23-0.55,0.49-0.82,0.76c-0.27,0.25-0.56,0.52-0.84,0.8c-1.2,1.2-2.38,2.57-3.37,4.11
		c-0.16,0.25-0.33,0.51-0.48,0.77c-0.49,0.87-1.13,1.64-1.83,2.31c0.34-1.03,0.16-2.3,0.03-3.04c-0.05-0.25-0.18-0.43-0.34-0.58
		c-0.45-0.43-1.24-0.6-1.58-1.59c-0.16-0.52,0.32-1.17,0.91-1.83c0.56-0.62,1.21-1.24,1.48-1.77c0.16-0.32,0.21-0.6,0.03-0.85
		c-0.84-1.07-0.84-0.23-4.03,0.16c-1.37,0.16-2.57-0.11-3.31-0.67c0.23-0.12,0.48-0.23,0.74-0.36c2.74-1.25,5.9-2.19,9.11-2.58
		c2.98-0.41,5.99-0.36,8.69,0.32c0.03,0.01,0.04,0.01,0.06,0.03c0.01,0,0.03,0.01,0.04,0.03
		C210.51,156.39,210.53,156.42,210.53,156.44z"/>
	<path class="st34" d="M209.76,176.19c-0.33,0.15-0.71,0.16-1.13,0.06c-2.58-0.7,0.26-5.64-0.16-8.6c0,0,0,0-0.01-0.01
		c0-0.05,0-0.1-0.01-0.15c-0.54-2.83-0.87-4.33-0.38-3.67C212.33,169.71,211.96,175.34,209.76,176.19z"/>
	<path class="st9" d="M167.77,215.01c-0.23-0.32-0.52-0.7-0.87-1.17c-1-1.32-5.21-0.95-7.42-1.62c-0.16-0.26-0.32-0.54-0.47-0.8
		c1.65-0.25,5.86-0.76,7.9,0.06C167.29,212.8,167.58,213.97,167.77,215.01z"/>
	<path class="st26" d="M181.44,175.44c-4.56,2.38-9.72,4.92-15.19,7.48c-10.5,4.91-20.18,8.91-27.23,11.37
		c6.54-5.22,18.72-13.13,25.73-15.3C170.52,177.21,177.12,175.64,181.44,175.44z"/>
	<path class="st35" d="M170.41,212.1c-0.44,0.29-13.8,1.47-16.15-2.28c-2.35-3.74-2.27-8.95-1.54-15.78
		c0.01-0.17,0.04-0.33,0.05-0.48c0-0.01,0.01-0.01,0.01-0.03c0.78-6.56,2.8-11.16,2.72-13.73c-0.05-2.12-0.87-5.13-1.15-8.98
		c-0.07-0.95-0.11-1.95-0.1-3c0.08-5.28,1.31-9.25,1.75-9.03c3.53,1.77,4.48,0.59,6.09,2.65c1.62,2.05,3.33,4.7,4.29,7.26
		c0.48,1.29-0.07,2.6-0.69,4.27c-0.4,1.03-0.81,2.21-1.04,3.6c0,0.01,0,0.01,0,0.01c-0.15,0.84-0.22,1.75-0.18,2.76
		c0.22,5.43,2.86,12.55,4.55,21.88C170.71,210.56,170.85,211.81,170.41,212.1z"/>
	<path class="st36" d="M165.69,172.98c-0.4,1.03-0.81,2.21-1.04,3.6c-0.71-2.72-2.02-2.8-5.07-5.42c-3.48-2.96-4.08-4.81-3.7-6.79
		C155.88,164.37,163.18,169.58,165.69,172.98z"/>
	<path class="st26" d="M209.13,157.8c-2.12,1.69-6.16,4.78-8.62,9c-0.49,0.87-1.13,1.64-1.83,2.31c-1.14,1.09-2.5,1.91-3.92,2.43
		c-0.59,0.22-1.2,0.38-1.79,0.48c-1.57,0.27-3.13,0.19-4.48-0.32c-0.04,0-0.08-0.03-0.12-0.04c-1.62-0.63-2.96-1.87-3.63-3.79
		c-0.04-0.12-0.08-0.25-0.1-0.37c3.12,2.82,11.22,0.8,13.94-2.53C201.06,161.95,206.63,158.39,209.13,157.8z"/>
	<path class="st15" d="M192.96,172.08c0.04,0.45-19.27,6.12-21.43,5.77c-2.14-0.34-11.2-7.01-13.79-9.51
		c-2.31-2.24-2.39-4.43-1.42-5.29c2.63-2.32,15.01,10.79,15.5,10.89c0.41,0.1,2.13-1.09,5.53-1.29c0.56-0.04,1.18-0.06,1.86-0.03
		c4.66,0.21,6.17,0.05,6.61-0.04c0.44-0.1,1.92-1.29,4.54-1c0.22,0.03,0.41,0.04,0.59,0.07
		C192.88,171.85,192.95,171.89,192.96,172.08z"/>
	<path class="st9" d="M190.96,171.64c-1.87,0.1-3.49,0.78-4.49,1.29c-1.14,0.6-5.69,0.55-9.1-0.29c0.56-0.04,1.18-0.06,1.86-0.03
		c4.66,0.21,6.17,0.05,6.61-0.04c0.44-0.1,1.92-1.29,4.54-1C190.58,171.6,190.78,171.62,190.96,171.64z"/>
	<path class="st36" d="M156.92,181.05c-0.29,2.01-2.63,7.64-4.14,12.48c0.78-6.56,2.8-11.16,2.72-13.73
		c-0.05-2.12-0.87-5.13-1.15-8.98C155.8,175.53,157.28,178.38,156.92,181.05z"/>
	<path class="st26" d="M172.04,260.81c-1.53,0.71-3.64,1.5-5.33,1.8c-2.46,0.44-7.7,0.07-9.57-0.27c2.54-1.18,7.44-1.14,9.33-0.96
		C168.26,261.54,171.18,260.89,172.04,260.81z"/>
	<path class="st26" d="M146.27,260.33c-0.7-0.04-1.43-0.18-2.1-0.48c-2.65-1.15-6.03-7.88-6.45-8.74c1.06,1.21,5.18,5.25,6.34,6.83
		C144.83,259.01,145.63,259.82,146.27,260.33z"/>
	<path class="st27" d="M149.98,258.94c-0.23,0.05-0.6,0.05-1.11,0c-1.7-0.21-2.67-2.23-2.72-3.52
		C146.9,256.67,149.02,258.14,149.98,258.94z"/>
	<path class="st27" d="M172.95,258.98c-0.03,0.12-0.18,0.25-0.51,0.36c-1.44,0.45-3.34-0.74-4.84-1.8
		C169.34,257.92,171.62,258.51,172.95,258.98z"/>
	<path class="st37" d="M182.37,167.26c-0.62,0.45-1.42,0.99-2.3,1.57c-4.08,2.64-10.18,5.97-11.33,5.43
		c-0.33-0.15-0.56-0.47-0.71-0.89c4.26-1.92,8.3-3.67,12.03-5.18C180.84,167.86,181.61,167.55,182.37,167.26z"/>
	<path class="st37" d="M210.46,156.35c-1.5,0.36-6.32,0.37-8.74-0.34c2.98-0.41,5.99-0.36,8.69,0.32
		C210.43,156.33,210.45,156.33,210.46,156.35z"/>
	<path class="st26" d="M209.76,176.19c-0.33,0.15-0.71,0.16-1.13,0.06c-2.58-0.7,0.26-5.64-0.16-8.6
		C209.36,170.44,206.47,175.44,209.76,176.19z"/>
	<path class="st28" d="M150.08,147.08c0.3,4.44-2.82,10.86-5.39,10.57c0.65-0.59,1.35-1.31,2.12-2.2c3.23-3.78,1.14-10.86,4.3-14.2
		c0.91-0.96,2.08-1.53,3.24-1.61C151.98,140.6,149.79,142.97,150.08,147.08z"/>
	<path class="st28" d="M164.57,146.88c-0.14,0.16-0.98-0.56-3.23,0.6c0.14-0.34,0.88-1.04,1.59-1.9c0.7-0.82-1.44-2.3-3.15-3.16
		c0.84,0.15,1.62,0.48,2.23,0.92C164.28,144.99,164.72,146.68,164.57,146.88z"/>
	<path class="st38" d="M312.14,182.65v40.3c0,0.59-0.48,1.07-1.07,1.07h-60.86c-0.59,0-1.07-0.48-1.07-1.07v-40.3
		c0-0.59,0.48-1.07,1.07-1.07h60.86C311.67,181.58,312.14,182.06,312.14,182.65z"/>
	<path class="st39" d="M288.87,223.97v0.05H249.9c-0.42,0-0.75-0.34-0.75-0.75v-5.84c0-0.18,0.07-0.36,0.18-0.5l9.13-10.49
		l5.98-6.87c0.29-0.34,0.82-0.35,1.12-0.03l4.04,4.23l2.86,3.01l0.49,0.5l0.56,0.58l2,2.11l0.48,0.5l0.86,0.9L288.87,223.97z"/>
	<path class="st40" d="M312.14,212.57v10.65c0,0.44-0.36,0.8-0.8,0.8h-45.13c-0.67,0-1.04-0.76-0.63-1.29l7.11-9.14l0.16-0.2
		l2.66-3.42l0.16-0.21l4.15-5.32l11.62-14.93c0.31-0.4,0.92-0.41,1.25-0.03l5.93,6.95l13.32,15.61
		C312.07,212.2,312.14,212.38,312.14,212.57z"/>
	<circle class="st3" cx="274.48" cy="190.7" r="3.36"/>
	<path class="st40" d="M289.72,224.02c-0.05,0.02-0.11,0.03-0.17,0.03l-0.68,0.02v-0.04h-26.92c-0.59,0-0.93-0.68-0.57-1.15
		l10.25-13.8l1.33-1.79l3.43-4.61c0.24-0.33,0.7-0.39,1.02-0.14l2.42,1.91l0.64,0.5c0.08,0.06,0.15,0.14,0.19,0.23l0.47,0.88
		l9.04,16.94C290.4,223.41,290.16,223.91,289.72,224.02z"/>
	<path class="st0" d="M297.5,200.99c0.07,1.52-4.27-4.19-5.28-4.77c-1.01-0.57-4.62,9.76-5.85,10.62c-1.22,0.87-2.39-2.74-3.97-1.8
		c-0.38,0.23-0.82,0.57-1.27,1.01c-1.42,1.32-3.03,3.4-3.79,4.78c-0.17,0.32-0.34,0.49-0.49,0.55c-0.32,0.14-0.58-0.29-0.86-0.9
		c-0.1-0.22-0.2-0.46-0.31-0.71c-0.21-0.49-0.44-1.01-0.73-1.4c-0.37-0.5-0.85-0.67-1.44-0.5c-0.53,0.15-1.15,0.56-1.88,1.21
		l1.33-1.79l3.43-4.61c0.24-0.33,0.7-0.39,1.02-0.14l2.42,1.91l11.62-14.93c0.31-0.4,0.92-0.41,1.25-0.03l5.93,6.95
		c-0.57-0.11-1.33-0.32-2.07-0.36C295.04,196,297.43,199.47,297.5,200.99z"/>
	<path class="st0" d="M269.61,203.77c-1.1-0.28-2.51-0.82-2.97-0.82c-0.79,0-0.94,4.12-2.24,4.77c-1.3,0.65,0.36-3.97-0.58-4.77
		c-0.66-0.56-3.33,2-5.35,3.49l5.98-6.87c0.29-0.34,0.82-0.35,1.12-0.03L269.61,203.77z"/>
	<path class="st15" d="M262.01,233.93c-1.52,4.31-4.31,8.06-4.25,8.3c0.05,0.23,4.13-0.97,8.69-1.31c0,0-0.86,4.88-1.15,5.1
		c-0.02,0.02-0.08,0.03-0.19,0.05c-0.48,0.08-1.79,0.18-3.34,0.24c-3.07,0.11-7.06,0.11-7.41-0.34c-0.57-0.74-1.52-1.66,0.68-7.22
		c2.16-5.44,7.22-11.58,9.25-15.21c2.05-3.63,6.25-7.27,6.59-5.23c0.34,2.05-3.07,5-3.18,5.34c-0.11,0.34,1.82,0.23,1.82,0.52
		c0,0.27-3.52,1.07-4.33,1.76C264.4,226.61,263.54,229.62,262.01,233.93z"/>
	<path class="st15" d="M309.18,245.97c-0.36,0.47-4.63,0.45-7.73,0.32c-1.4-0.06-2.57-0.15-3.02-0.23
		c-0.11-0.02-0.18-0.03-0.19-0.05c-0.29-0.23-1.13-5.1-1.13-5.1c4.54,0.34,8.62,1.53,8.69,1.31c0-0.31-2.74-4.02-4.26-8.3
		c-1.53-4.31-2.39-7.31-3.18-7.99c-0.79-0.69-4.31-1.49-4.31-1.76c0-0.29,1.92-0.18,1.81-0.52c-0.11-0.34-3.52-3.29-3.18-5.34
		c0.34-2.03,4.55,1.6,6.59,5.23c2.05,3.63,7.1,9.77,9.25,15.21C310.7,244.31,309.76,245.23,309.18,245.97z"/>
	<path class="st15" d="M278.33,335.33c-0.02,0.34-0.03,0.87-0.08,1.47c0,0.06-0.02,0.13-0.02,0.21c-0.13,1.65-0.36,3.7-0.57,3.99
		c-0.29,0.42-2.99,0.47-3.13-0.52c-0.06-0.39-0.06-1.4-0.05-2.53c0-0.63,0.02-1.28,0.05-1.87c0.05-1,0.11-1.82,0.18-1.97
		C274.91,333.72,278.33,335.33,278.33,335.33z"/>
	<path class="st15" d="M298.78,341.68c0,0-3.02,0.13-3.26-0.13c-0.23-0.24-0.06-3.47-0.02-4.5c0.02-0.06,0.02-0.13,0.02-0.18
		c0-0.11,0.06-0.21,0.18-0.29c0.02-0.02,0.05-0.02,0.06-0.03c0.08-0.06,0.18-0.11,0.29-0.15c0.03-0.02,0.06-0.03,0.1-0.05
		c0.89-0.27,2.42-0.23,2.63,0.23c0.08,0.21,0.13,0.76,0.15,1.44C298.98,339.37,298.9,341.19,298.78,341.68z"/>
	<path class="st16" d="M277.91,345.61c-0.58,0.44-3.52,0.45-5.13,0.27c-0.02,0.02-0.02,0-0.02,0c-0.63-0.08-1.05-0.19-1.07-0.32
		c-0.08-0.47,2-5.33,2.68-5.44c0.68-0.13,3.7-0.18,3.75,0c0.08,0.34,0.21,1.24,0.24,2.24C278.44,343.74,278.38,345.28,277.91,345.61
		z"/>
	<path class="st16" d="M299.28,345.84c-0.1,0.06-0.58,0.13-1.23,0.18c-1.5,0.13-3.86,0.16-4-0.13c-0.27-0.52,0.05-2.73,0.5-4.31
		c0.23-0.87,0.5-1.55,0.73-1.65c0.29-0.13,3.54-0.15,3.78,0C300.08,340.58,299.7,345.5,299.28,345.84z"/>
	<path class="st9" d="M278.51,336.86c-0.05,0.06-0.13,0.11-0.27,0.15c-0.73,0.26-3.4,0.09-3.75,0.94c0-0.63,0.02-1.28,0.05-1.87
		c1.03,0.08,3,0.55,3.71,0.73C278.41,336.83,278.51,336.86,278.51,336.86z"/>
	<path class="st9" d="M298.93,338.01c-0.11-0.96-2.6-0.71-3.42-0.97c-0.15-0.05-0.26-0.1-0.34-0.15c0,0,0.19-0.15,0.53-0.32
		c0.02-0.02,0.05-0.02,0.06-0.03c0.08-0.05,0.18-0.1,0.29-0.15c0.03-0.02,0.06-0.03,0.1-0.05c0.89-0.27,2.42-0.23,2.63,0.23
		C298.86,336.78,298.91,337.33,298.93,338.01z"/>
	<path class="st41" d="M298.9,336.57c0,0-0.02,0.02-0.03,0.02c-0.6,0.36-3.54,0.53-3.84,0.36c-0.31-0.16-3.58-27.66-3.58-27.66
		c-0.42-5.1-5.73-26.64-5.86-27.32c0-0.02,0-0.02,0-0.02c-0.1-0.52-2.83,10.38-3.33,14.3c-0.52,3.91,0.08,7.39,0.16,12.25
		c0.1,4.86-3.83,28.01-3.91,28.35c-0.08,0.34-3.84,0-4.34,0c-0.52,0,0.08-18.55,0.34-24.27c0.23-5.05-0.89-22.01,0.76-34.39
		c0.21-1.6,0.47-3.12,0.77-4.52c0,0,2.57-0.06,5.73,0.06c4.49,0.19,10.2,0.82,11.54,2.66c2.31,3.15,3.33,13.19,3.33,20
		c0,6.81,2.29,9.36,3.07,14.56C300.46,316.18,299.45,336.19,298.9,336.57z"/>
	<path class="st9" d="M301.45,246.29c-1.4-0.06-2.57-0.15-3.02-0.23c0.63-1.95,1.82-4.7,1.82-4.7
		C300.83,242.42,299.79,245.88,301.45,246.29z"/>
	<path class="st9" d="M262.1,246.29c1.87-0.76,1.82-4.47,2.57-4.92c0,0,0.26,3,0.37,4.71L262.1,246.29z"/>
	<path class="st42" d="M289.05,276.89c-4.03,1.18-12.27-2.05-13.79,1.32c0.21-1.6,0.47-3.12,0.77-4.52c0,0,2.57-0.06,5.73,0.06
		C285.06,275.14,289.05,276.89,289.05,276.89z"/>
	<path class="st43" d="M290.23,249.89c-1.19,3.55-2.23,9.86-1.82,11.79c0.57,2.68,6.02,14.03,5.34,15.56
		c-0.21,0.48-2.07,0.45-4.5,0.15c-5.18-0.61-13.04-2.42-13.38-2.81c-0.5-0.58,1.71-11.08,2.32-14.48c0.13-0.68,0.08-1.53-0.08-2.5
		c-0.47-2.83-1.92-6.52-2.95-8.7c-0.39-0.81-0.71-1.42-0.9-1.7c-0.02-0.02-0.03-0.05-0.03-0.05c-0.66-0.89-6.7-0.61-9.28-0.69
		c-0.71-0.02-1.15-0.05-1.16-0.15c-0.05-0.45,0.58-5.12,0.97-5.39c0.4-0.29,9.14-1.65,17.37-1.71c8.23-0.05,17.63,1.45,18.11,1.87
		c0.45,0.4-0.11,4.67-0.29,5.17c-0.18,0.52-6.7,0.79-8.28,1.19c-0.44,0.11-0.94,1.07-1.4,2.42
		C290.24,249.88,290.23,249.88,290.23,249.89z"/>
	<path class="st25" d="M286.61,234.57c0.06,0.24,0.66,2.11,1.74,3.55c1.13,1.53,2.84,2.39,2.84,2.39s-0.24,0.82-1.18,1.86
		c-0.84,0.9-2.28,1.99-4.57,2.79c-4.88,1.71-6.91,0.63-6.91,0.63s-1.03-0.52-2.34-5.8c-0.89-3.63-1.82-11.4,0.36-15.74
		c0.6-1.23,1.45-2.16,2.63-2.68c0.02,0,0.02,0,0.02,0c0.69-0.32,1.52-0.47,2.45-0.42c4.76,0.23,6.59,11.41,8.69,13.51
		c1,1,1.99,1.55,2.73,1.82h0.02c0.81,0.32,1.34,0.34,1.34,0.34s-2.5,1.13-4.6,0.23C287.85,236.2,286.74,234.75,286.61,234.57z"/>
	<path class="st44" d="M293.75,277.24c-0.21,0.48-2.07,0.45-4.5,0.15c1.63-1.63,1.21-6.34-1.1-10.38
		c-2.53-4.47-1.39-10.19,2.08-17.11c-1.19,3.55-2.23,9.86-1.82,11.79C288.97,264.36,294.42,275.71,293.75,277.24z"/>
	<path class="st26" d="M277.91,345.61c-0.58,0.44-3.52,0.45-5.13,0.27c1.61-0.52,4.63-1.97,5.59-3.52
		C278.44,343.74,278.38,345.28,277.91,345.61z"/>
	<path class="st26" d="M298.06,346.02c-1.5,0.13-3.86,0.16-4-0.13c-0.27-0.52,0.05-2.73,0.5-4.31
		C295.15,343.55,296.59,345.37,298.06,346.02z"/>
	<path class="st42" d="M298.88,336.35c0.03,0.08,0.03,0.16-0.02,0.24c-0.6,0.36-3.54,0.53-3.84,0.36
		c-0.31-0.16-3.58-27.66-3.58-27.66c-0.42-5.1-5.73-26.64-5.86-27.32c0-0.02,0-0.02,0-0.02c0.19-0.77,0.57-1.08,0.86-1.08
		c0.36,0,7.94,23.26,8.81,28.11c0.87,4.84-0.68,24.41,0.74,25.56C297.4,335.69,298.41,335.2,298.88,336.35z"/>
	<path d="M290.02,242.37c-0.84,0.9-2.28,1.99-4.57,2.79c-4.88,1.71-6.91,0.63-6.91,0.63s-1.03-0.52-2.34-5.8
		c-0.89-3.63-1.82-11.4,0.36-15.74C276.95,241.6,280.78,247.19,290.02,242.37z"/>
	<path class="st28" d="M293.07,236.49c-1.65,0.1-3.68-0.94-5.59-5.12c-4-8.77-5.63-9.62-8.28-9.8c0.69-0.32,1.52-0.47,2.45-0.42
		c4.76,0.23,6.59,11.41,8.69,13.51C291.34,235.67,292.33,236.22,293.07,236.49z"/>
	<path class="st44" d="M278.12,257.64c0-0.02-0.02-0.03-0.02-0.05c-0.47-2.83-1.92-6.52-2.95-8.7c-0.39-0.81-0.71-1.42-0.9-1.7
		c-0.02-0.02-0.03-0.05-0.03-0.05c-0.66-0.89-6.7-0.61-9.28-0.69c2.23-0.84,7.52-2,9.33-1.08C275.52,246,278.39,256.4,278.12,257.64
		z"/>
	<path class="st25" d="M452.28,229.94c1.06,1.52,3.17,3.09,3.17,3.09c0.06-0.05,0.12-0.09,0.19-0.14c3.51-2.55,4.12-4.44,3.37-7.15
		c-0.03-0.09-0.05-0.17-0.08-0.25c-0.85-2.46-3.48-1.79-3.48-1.79s-2.16,2.39-3,4.32C452.11,228.8,451.97,229.5,452.28,229.94z"/>
	<path d="M454.02,231.17c0.03,0.37,0.65,1.12,1.62,1.72c3.51-2.55,4.12-4.44,3.37-7.15c-0.03-0.09-0.05-0.17-0.08-0.25
		c0.06,2.77-2.63,4.21-4.69,4.52C454.24,230.02,453.97,230.39,454.02,231.17z"/>
	<path class="st15" d="M452.42,234.94c0.09,0.16,0.19,0.42,0.3,0.71c0.14,0.51,0.3,1.17,0.44,1.79c0.22,0.93,0.42,1.82,0.62,2.07
		c0.39,0.51,4.46-2.04,4.52-2.66c0.03-0.51-1.83-3.25-2.92-4.69c-0.12-0.16-0.23-0.3-0.33-0.42c-0.11-0.12-0.19-0.23-0.26-0.31
		c0,0-0.05,0.05-0.16,0.14c-0.17,0.17-0.5,0.5-0.84,0.87C453.01,233.29,452.11,234.43,452.42,234.94z"/>
	<path class="st9" d="M450.52,235.67c-0.09,0.61,0.22,1.15,0.65,1.59c0.59-0.37,1.12-0.95,1.54-1.6c0.14,0.51,0.3,1.17,0.44,1.79
		c0.06-0.53,0.17-1.2,0.51-1.69c0.58-0.87,0.62-2.04,0.65-2.46c0.02-0.36,0.81-0.54,1.06-1.13c0.05-0.06,0.06-0.14,0.08-0.22
		c0,0-0.16-0.09-0.4-0.2c-0.12-0.05-0.26-0.11-0.42-0.17c-0.25-0.06-0.54-0.12-0.84-0.14c-0.33-0.02-0.67,0.05-0.98,0.22
		C451.67,232.28,450.79,234.06,450.52,235.67z"/>
	<path class="st15" d="M448.46,237.65c0.96,0.34,1.91,0.16,2.72-0.39c0.59-0.37,1.12-0.95,1.54-1.6c0.62-0.96,1.03-2.13,1.07-3.22
		c0.02-0.11,0.02-0.2,0.02-0.3c0-0.23,0-0.47-0.02-0.71c-0.09-2.87-0.71-6.34-1.26-6.57c-0.23-0.09-1.37-0.33-2.61-0.54
		c-0.02,0-0.05-0.02-0.06-0.02c-0.51-0.08-1.03-0.17-1.52-0.26c-0.02,0-0.02,0-0.03,0c-1.26-0.2-2.3-0.37-2.3-0.37
		c-0.08,0.22-0.16,0.45-0.22,0.7c-0.17,0.59-0.28,1.23-0.36,1.9C444.88,230.81,446.14,236.81,448.46,237.65z"/>
	<path class="st15" d="M453.5,229.72c0.93-1.31,2.03-1.14,2.41-0.47c0.38,0.68-0.42,3.52-2.37,3.35
		C451.6,232.43,453.5,229.72,453.5,229.72z"/>
	<path class="st9" d="M445.43,226.26c0.89,0.12,1.8-0.24,2.45-0.26c0.92-0.03,2.4,0.55,4.32,1.59c0,0-0.81-2.35-2.07-3.15
		c-0.08-0.05-0.14-0.09-0.22-0.12c-0.02,0-0.05-0.02-0.06-0.02c-0.45-0.2-0.99-0.26-1.52-0.26c-0.02,0-0.02,0-0.03,0
		c-0.98,0.02-1.96,0.26-2.52,0.33C445.61,224.95,445.5,225.59,445.43,226.26z"/>
	<path class="st25" d="M445.78,225.35c1.15,0.17,3.19-0.2,4.8,0.93c0.68,0.48,1.34,1.15,1.86,1.74c0.71,0.81,1.2,1.49,1.2,1.49
		l1.8-5.81c1.09-2.91-0.19-4.99-2.28-5.52c-0.26-0.06-0.53-0.11-0.81-0.12c-2.55-0.12-3.85,1.74-3.85,1.74s-3.14-3.93-5.17-0.54
		c-0.22,0.37-0.37,0.75-0.48,1.09v0.02C442.02,223.19,444.77,225.2,445.78,225.35z"/>
	<path class="st45" d="M451.06,257.42c-3.84,0.28-13.27,1.69-14.86,0.11c-0.97-0.97,6.15-2,7.4-2.07c1.36-0.08,7.88-0.87,8.08-0.87
		C451.88,254.59,451.06,257.42,451.06,257.42z"/>
	<path class="st46" d="M443.97,345.76c0.06,0.17,0.56,0.67,2.35,1.17c0.54,0.16,1.2,0.3,2,0.45c0.73,0.12,1.6,0.23,2.6,0.34
		c5.35,0.56,11.27-1.35,12.67-1.72c0.09-0.03,0.17-0.05,0.22-0.06c0.85-0.17-0.08-7.12-0.59-7.88c0,0-3.14,0.93-3.64,1.52
		c-0.51,0.59-3.9,2.38-5.52,3.06c-1.12,0.47-5.59,1.68-8.19,2.46C444.74,345.43,443.97,345.68,443.97,345.76z"/>
	<path class="st46" d="M425.75,353.05c0.06,0.51,0.7,1.03,1.63,1.48c2,0.99,5.39,1.69,7.18,1.41c2.39-0.4,9.51-2.83,11.31-4.13
		c0.17-0.14,0.31-0.25,0.37-0.36c0.5-0.78,0.42-2.72,0.06-4.52c-0.11-0.65-0.26-1.29-0.45-1.83c-0.09-0.28-0.19-0.53-0.28-0.76
		c0,0-1.18,0.17-2.8,0.17c-1.62,0-3.14,1.69-6.7,4.23C432.53,351.28,425.58,351.45,425.75,353.05z"/>
	<path class="st38" d="M456.15,341.81c0.2,0.34,1.6,0.73,3.47-0.2c1.15-0.59,2.49-1.69,3.84-3.64c3.51-5.08,3.08-32.65,3.08-36.61
		c0-3.95,6.22-23.5,3.96-29.93c0,0-0.45-0.06-1.13-0.14c-1.45-0.17-3.92-0.39-5.35-0.12c-0.06,0-0.12,0.02-0.19,0.03
		c-0.3,0.06-0.68,0.65-1.12,1.62c-2.16,4.97-5.49,20.12-5.47,28.84c0,1.01,0.05,1.94,0.16,2.77c0.2,1.65,0.28,3.89,0.28,6.45
		C457.64,322.64,455.87,341.35,456.15,341.81z"/>
	<path class="st47" d="M452.95,328.49c2.07-6.4,3.84-13.26,4.72-17.62c-0.03,11.76-1.8,30.47-1.52,30.94c0.2,0.34,1.6,0.73,3.47-0.2
		c-0.39-0.36-0.93-0.76-1.48-1.23c-1.62-1.37,2-26.42,1.68-31.08c-0.31-4.62,8.07-22.98,8.73-30.71c0-0.09,0.02-0.17,0.02-0.25
		c0,0-6.71,13.94-11.33,23.31c-1.66,3.4-3.06,6.22-3.76,7.52C451.89,312.19,452.5,320.79,452.95,328.49z"/>
	<path class="st38" d="M437.5,347c0,0.79,3.17,0.79,8.08-2.67c2.21-1.57,4.97-8.41,7.37-15.84c2.07-6.4,3.84-13.26,4.72-17.62
		c0.37-1.85,0.61-3.25,0.62-3.98c0.08-3.34,7.66-17.42,10.26-28.3c0.65-2.7,0.98-5.21,0.81-7.3c-0.06-0.85-0.2-1.65-0.45-2.35
		c0,0-10.51-2.07-13.12,0.03c-0.02,0.02-0.02,0.02-0.02,0.02c-0.19,0.16-0.33,0.31-0.42,0.51c-0.57,1.18-1.45,6.36-2.3,12.4
		c-1.31,9.12-2.61,20.25-3.01,22.63C449.36,308.48,437.5,346.21,437.5,347z"/>
	<path class="st47" d="M453.06,281.9c0.73-1.86,1.99-6.29,3.76-7.6c1.17-0.87,3.48-1.37,5.89-1.49c2.3-0.12,4.68,0.09,6.2,0.64
		c-0.47-0.25-2.52-1.27-4.88-2.28h-0.02c-2.66-1.15-5.69-2.27-7.3-2.24c-0.36,0-0.65,0.03-0.92,0.05c-0.02,0.02-0.02,0.02-0.02,0.02
		c-0.19,0.16-0.33,0.31-0.42,0.51C454.78,270.68,453.91,275.86,453.06,281.9z"/>
	<path class="st48" d="M448.75,250.42c0,0.02,0,0.02,0,0.02c0.2,1.85,0.71,3.84,1.57,5.94c0.05,0.12,0.09,0.25,0.14,0.37
		c0.37,0.92,0.7,1.91,0.99,2.94c0.34,1.17,0.64,2.36,0.92,3.54c0,0.02,0,0.02,0,0.02c1.04,4.52,1.63,8.78,1.97,9.23
		c0.51,0.68,4.44-1.27,10.38-0.25c3.39,0.57,4.79,1.71,5.49,2.58c0.56,0.65,0.71,1.17,1.04,1.17c0.76,0-0.93-9.26-2.97-14.86
		c-1.83-5.03,0.02-8.69-2.6-16.1c-0.28-0.82-0.64-1.69-1.04-2.63c-4.07-9.15-7.97-5.64-10.51-4.06
		C450.27,240.74,448.16,244.97,448.75,250.42z"/>
	<path class="st49" d="M392.55,235.86l13.75,26.67l2.82,5.45c0.19,0.35,0.62,0.52,1,0.37l22.9-9.08l8.2-3.24l5.87-2.33
		c0.43-0.18,0.62-0.68,0.42-1.1l-3.42-6.63l-1.21-2.33l-11.96-23.16c-0.19-0.37-0.62-0.52-1-0.37l-36.97,14.66
		C392.52,234.92,392.33,235.44,392.55,235.86z"/>
	<path class="st50" d="M448.91,262.09c0.7-0.59,1.59-1.43,2.55-2.41c0.34,1.17,0.64,2.36,0.92,3.54c0.16-1.01,0.34-2.18,0.61-3.22
		c0.53-2.13,6.01-5.73,7.91-8.89c1.9-3.15,1.46-8.55-0.78-10.44c0,0-0.73,1.2-1.85,3c-1.01,1.68-2.35,3.89-3.7,6.12
		c-0.33,0.54-0.65,1.09-0.98,1.63c-1.17,1.94-2.27,3.82-3.12,5.31c-0.54,0.96-0.99,1.76-1.27,2.3
		C448.66,260.07,448.64,261.13,448.91,262.09z"/>
	<path class="st15" d="M415.32,266.29c0.54,0.19,7.24,0.48,9.85-0.76c2.61-1.23,20.45-1.29,22.67-2.64
		c0.26-0.16,0.62-0.44,1.06-0.79c0.7-0.59,1.59-1.43,2.55-2.41c1.43-1.43,3.05-3.19,4.49-4.97c0.81-0.98,1.57-1.97,2.22-2.92
		c1.07-1.55,1.85-2.98,2.08-4.06c0.42-1.85-0.59-3.25-1.99-4.06c-1.79-1.04-4.21-1.1-5.05,0.08c-1.68,2.38-3.19,4.66-4.46,6.67
		c0,0.02,0,0.02,0,0.02c-2.66,4.16-4.26,7.09-4.26,7.09s-1.48-0.56-6.11,0.56c-4.63,1.1-18.51,6.09-19.92,6.84
		C417.07,265.65,414.8,266.1,415.32,266.29z"/>
	<path class="st9" d="M441.78,255.55c0.46,0.27,0.75,0.31,0.26,0.6c-0.49,0.29-5.69,2.14-6.29,1.65
		C435.14,257.31,441.78,255.55,441.78,255.55z"/>
	<path class="st51" d="M429.98,249.35c0,0,1.27,5.78,3.05,9.91l8.19-3.25l0.16-0.06l0.81-0.33l4.91-1.94
		c0.44-0.17,0.62-0.68,0.42-1.1l-3.42-6.62c-1.77-0.84-4.13-1.97-6.32-3.01c-3.23-1.52-6.12-2.87-6.32-2.84
		c-0.33,0.05-0.79,3.48-1.12,6.14c-0.06,0.5-0.12,0.96-0.16,1.38C430.06,248.63,429.98,249.35,429.98,249.35z"/>
	<path class="st9" d="M441.37,255.95l0.81-0.33c-0.23-0.61-0.79-1.31-0.79-1.31C441.09,254.72,441.6,255.69,441.37,255.95z"/>
	<path class="st45" d="M444.24,255.4c-2.22-0.38-2.81-1.39-2.91-1.12s0.37,1.74,1.7,1.79S444.24,255.4,444.24,255.4z"/>
	<path class="st9" d="M415.82,265.19c1.68,0.6,11.12-1.99,8.63-2.67C421.96,261.84,415.82,265.19,415.82,265.19z"/>
	<path class="st52" d="M406.3,262.53l2.83,5.45c0.19,0.34,0.62,0.51,0.99,0.36l10.94-4.34l0.98-0.39l10.99-4.35l8.19-3.25
		c-1.63-1.46-6.7-5.25-10.92-8.3c-0.03-0.03-0.09-0.06-0.12-0.09c-3.2-2.3-5.87-4.13-6.11-4.13c-0.5,0.08-0.85,2.55-0.85,2.55
		s-9.57-5.35-10.16-4.93c-0.3,0.2-1.97,5.53-3.61,10.94C408.13,256.33,406.86,260.65,406.3,262.53z"/>
	<path class="st9" d="M421.07,263.86c-0.02,0.05-0.02,0.09-0.02,0.14l0.98-0.39c-0.42-0.64-1.38-1.45-1.38-1.45
		C420.53,262.79,421.26,263.44,421.07,263.86z"/>
	<path class="st15" d="M425.04,262.86c-2.08,0.16-4.26-0.97-4.39-0.69c-0.13,0.28,1.1,1.63,2.24,1.66
		C424.03,263.86,425.04,262.86,425.04,262.86z"/>
	<path class="st53" d="M450.31,248.18c0,0.81,3.93,3.81,5.21,4.69c0.64,0.44,0.61,1.21,0.44,1.83c0.81-0.98,1.57-1.97,2.22-2.92
		C456.24,250.14,450.31,248.18,450.31,248.18z"/>
	<path class="st54" d="M459.02,239.68c-4.88-2.66-9.08,7.84-8.91,8.52c0.17,0.68,6.76,4.7,7.33,4.7S464.69,242.77,459.02,239.68z"/>
	<path class="st3" d="M422.1,233.63c0.84,1.78,2.8,2.61,4.38,1.87c1.58-0.75,2.18-2.79,1.34-4.57c-0.84-1.78-2.8-2.61-4.38-1.87
		C421.86,229.81,421.26,231.85,422.1,233.63z"/>
	<path class="st3" d="M409.43,252.06c1.19-0.7,3.5-2.78,3.5-2.78s3.39,5.06,3.73,5.08c0.68,0.05,2.03-5.25,2.03-5.25
		s7.29,3.81,7.58,3.73c1.04-0.3-1.59-5.42-1.59-5.42s3.59,0.45,5.61,0.3c-0.04-0.03-0.09-0.07-0.14-0.09
		c-3.2-2.3-5.87-4.13-6.1-4.13c-0.5,0.08-0.85,2.55-0.85,2.55s-9.57-5.34-10.17-4.92C412.75,241.32,411.07,246.65,409.43,252.06z"/>
	<path class="st3" d="M430.32,246.24c0.5-0.26,1.69-1.76,1.69-1.76s1.22,1.5,1.3,1.48c0.72-0.19,0.12-3.39,0.12-3.39
		s2.44,0.3,4.32,0.38c-3.23-1.53-6.13-2.87-6.33-2.85C431.12,240.14,430.65,243.58,430.32,246.24z"/>
	<path class="st50" d="M465.5,258.75c0.98,2.33,5.22,14,4.71,16.05c0.56,0.65,0.71,1.17,1.04,1.17c0.76,0-0.93-9.26-2.97-14.86
		c-1.83-5.03,0.02-8.69-2.6-16.1C465.99,250.2,464.54,256.42,465.5,258.75z"/>
	<path class="st26" d="M448.32,347.38c0.73,0.12,1.6,0.23,2.6,0.34c5.35,0.56,11.27-1.35,12.67-1.72c-2.5-0.39-7.3,0.65-9.7,0.73
		C451.92,346.77,449.42,346.99,448.32,347.38z"/>
	<path class="st26" d="M427.38,354.52c2,0.99,5.39,1.69,7.18,1.41c2.39-0.4,9.51-2.83,11.31-4.13c-3.08,0.26-10.74,3.12-12.23,2.81
		C432.28,354.34,428.63,354.32,427.38,354.52z"/>
	<path class="st27" d="M452.82,343.01c-1.94,0.49-3.18,2.27-4.77,2.39c-1.59,0.13-2.65-0.4-1.72-0.88
		C447.26,344.06,452.82,343.01,452.82,343.01z"/>
	<path class="st27" d="M433.84,349.78c-1.37,0.86-3.14,2.67-4.83,2.63c-1.68-0.04-3.02-0.51-1.99-1.1
		C428.05,350.73,433.84,349.78,433.84,349.78z"/>
	<path class="st28" d="M442.85,220.35c1.27-1.21,3.51,0.45,5.31,0.34c1.69-0.08,3.51-2.02,5-2.5c-0.26-0.06-0.53-0.11-0.81-0.12
		c-2.55-0.12-3.85,1.74-3.85,1.74s-3.14-3.93-5.17-0.54C443.11,219.63,442.96,220.01,442.85,220.35z"/>
	<path class="st55" d="M431.07,147.23c4.45,1.62,108.91,2.02,110.94-0.4s10.53-15.79,2.43-21.05c-8.1-5.26-13.36,1.62-13.36,1.62
		s9.72-22.27-8.1-32.39c-17.81-10.12-24.29,15.79-24.29,15.79s-11.34-15.79-25.51-8.91c-14.17,6.88-13.77,21.46-13.77,21.46
		s-1.62-6.07-7.29-5.26c-5.67,0.81-7.69,4.05-8.91,8.1c-1.21,4.05,6.07,10.12,6.07,10.12s-6.88-2.02-14.58-1.21
		C427.02,135.89,431.07,147.23,431.07,147.23z"/>
	<path class="st56" d="M121.06,233.45c-3.28,1.19-80.13,1.49-81.62-0.3c-1.49-1.79-7.75-11.62-1.79-15.49
		c5.96-3.87,9.83,1.19,9.83,1.19s-7.15-16.38,5.96-23.83c13.11-7.45,17.87,11.62,17.87,11.62s8.34-11.62,18.77-6.55
		c10.43,5.06,10.13,15.79,10.13,15.79s1.19-4.47,5.36-3.87c4.17,0.6,5.66,2.98,6.55,5.96c0.89,2.98-4.47,7.45-4.47,7.45
		s5.06-1.49,10.72-0.89C124.04,225.11,121.06,233.45,121.06,233.45z"/>
	<polygon class="st57" points="211.3,69.39 162.32,55.32 167.12,62.44 	"/>
	<polygon class="st58" points="211.3,69.39 167.12,62.44 166.46,80.18 	"/>
	<polygon class="st59" points="166.46,80.18 211.3,69.39 172.03,69.31 	"/>
	<polygon class="st57" points="179,82.88 211.3,69.39 172.03,69.31 	"/>
	<g>
		<path class="st60" d="M93.98,139.33c0.09,0,0.18-0.03,0.26-0.08c0.19-0.14,0.23-0.41,0.09-0.6c-1.03-1.39-1.96-2.85-2.76-4.33
			c-0.12-0.21-0.38-0.28-0.58-0.17c-0.21,0.11-0.29,0.38-0.17,0.59c0.82,1.51,1.77,3,2.82,4.43
			C93.72,139.27,93.85,139.33,93.98,139.33z"/>
	</g>
	<g>
		<path class="st60" d="M88.68,129.26c0.05,0,0.09-0.01,0.14-0.02c0.23-0.08,0.35-0.32,0.27-0.55c-0.56-1.64-1-3.31-1.32-4.96
			c-0.05-0.23-0.28-0.39-0.51-0.34c-0.23,0.04-0.39,0.27-0.34,0.5c0.32,1.69,0.77,3.4,1.35,5.08
			C88.33,129.14,88.5,129.26,88.68,129.26z"/>
	</g>
	<g>
		<path class="st60" d="M86.76,117.46c0.24,0,0.43-0.19,0.43-0.42c0.04-2.27,0.31-4.53,0.83-6.72c0.05-0.23-0.09-0.46-0.32-0.52
			c-0.23-0.05-0.46,0.09-0.52,0.32c-0.53,2.25-0.81,4.57-0.85,6.9C86.33,117.26,86.52,117.45,86.76,117.46L86.76,117.46z"/>
	</g>
	<g>
		<path class="st60" d="M89.73,104.58c0.16,0,0.32-0.09,0.39-0.25c0.8-1.68,1.76-3.3,2.86-4.84c0.14-0.19,0.09-0.46-0.1-0.6
			c-0.19-0.14-0.46-0.1-0.6,0.1c-1.13,1.57-2.12,3.25-2.93,4.97c-0.1,0.21-0.01,0.47,0.2,0.57
			C89.61,104.56,89.67,104.58,89.73,104.58z"/>
	</g>
	<g>
		<path class="st60" d="M97.1,94.61c0.11,0,0.21-0.04,0.29-0.12c1.26-1.18,2.64-2.3,4.1-3.33c0.2-0.14,0.24-0.41,0.1-0.6
			c-0.14-0.19-0.41-0.24-0.6-0.1c-1.49,1.05-2.9,2.2-4.19,3.4c-0.17,0.16-0.18,0.44-0.02,0.61C96.87,94.56,96.98,94.61,97.1,94.61z"
			/>
	</g>
	<g>
		<path class="st60" d="M106.66,87.89c0.07,0,0.14-0.02,0.21-0.05c1.79-0.97,3.69-1.89,5.64-2.71c0.22-0.09,0.32-0.35,0.23-0.56
			c-0.09-0.22-0.34-0.33-0.57-0.23c-1.97,0.84-3.89,1.76-5.71,2.75c-0.21,0.11-0.29,0.38-0.17,0.58
			C106.36,87.81,106.51,87.89,106.66,87.89z"/>
	</g>
	<g>
		<path class="st60" d="M118.55,82.84c0.04,0,0.09-0.01,0.13-0.02c2.55-0.84,5.26-1.59,8.04-2.24c0.23-0.05,0.38-0.29,0.32-0.52
			c-0.06-0.23-0.28-0.38-0.52-0.32c-2.8,0.66-5.53,1.42-8.11,2.26c-0.23,0.07-0.35,0.32-0.27,0.54
			C118.2,82.72,118.37,82.84,118.55,82.84z"/>
	</g>
	<g>
		<path class="st60" d="M132.68,79.37c0.02,0,0.05,0,0.07-0.01c2.98-0.5,5.95-0.84,8.83-1.02c0.24-0.02,0.42-0.22,0.4-0.46
			c-0.02-0.24-0.23-0.41-0.46-0.4c-2.91,0.18-5.91,0.53-8.92,1.03c-0.24,0.04-0.39,0.26-0.35,0.5
			C132.29,79.22,132.47,79.37,132.68,79.37z"/>
	</g>
	<g>
		<path class="st60" d="M157.06,78.54c0.22,0,0.41-0.17,0.43-0.39c0.02-0.24-0.15-0.45-0.39-0.47c-3.27-0.28-6.61-0.42-9.85-0.4
			c-0.24,0-0.43,0.2-0.43,0.43c0,0.24,0.19,0.43,0.43,0.43h0c3.24-0.01,6.53,0.12,9.77,0.39C157.04,78.54,157.05,78.54,157.06,78.54
			z"/>
	</g>
	<g>
		
			<rect x="474.05" y="241.25" transform="matrix(0.3583 -0.9336 0.9336 0.3583 85.6613 612.3253)" class="st4" width="28.43" height="5.21"/>
		<path class="st4" d="M495.91,231.19l2.14-5.59c0.09-0.24,0.4-0.3,0.57-0.11c1.66,1.84,2.25,4.51,1.31,6.98
			c-1.01,2.64-3.51,4.28-6.18,4.35c-0.87,0.02-1.75-0.12-2.61-0.45s-1.62-0.82-2.25-1.41c-1.95-1.83-2.7-4.72-1.69-7.36
			c0.95-2.46,3.18-4.06,5.64-4.31c0.25-0.03,0.44,0.23,0.35,0.46l-2.14,5.59c-0.07,0.18,0.02,0.37,0.2,0.44l4.23,1.62
			C495.65,231.45,495.84,231.37,495.91,231.19z"/>
		<path class="st4" d="M485.12,252.04c0.86,0.33,1.61,0.82,2.25,1.41c1.94,1.83,2.7,4.72,1.69,7.36c-0.95,2.46-3.18,4.06-5.64,4.31
			c-0.25,0.03-0.44-0.23-0.35-0.46l2.42-6.3c0.07-0.18-0.02-0.37-0.2-0.44l-4.23-1.62c-0.18-0.07-0.37,0.02-0.44,0.2l-2.42,6.3
			c-0.09,0.24-0.4,0.3-0.57,0.11c-1.66-1.84-2.25-4.52-1.31-6.98c1.01-2.64,3.51-4.28,6.18-4.35
			C483.37,251.57,484.26,251.71,485.12,252.04z"/>
	</g>
	<g>
		
			<rect x="118.64" y="251.1" transform="matrix(0.918 -0.3965 0.3965 0.918 -94.0666 69.3311)" class="st4" width="4.06" height="22.19"/>
		<path class="st4" d="M118.03,250.96l-1.85-4.29c-0.08-0.18,0.06-0.38,0.26-0.37c1.93,0.12,3.72,1.29,4.54,3.18
			c0.88,2.03,0.38,4.31-1.08,5.8c-0.47,0.49-1.04,0.89-1.71,1.17c-0.66,0.29-1.35,0.43-2.03,0.44c-2.09,0.04-4.08-1.16-4.96-3.19
			c-0.82-1.89-0.44-4,0.79-5.48c0.13-0.15,0.37-0.11,0.45,0.07l1.85,4.29c0.06,0.13,0.21,0.2,0.35,0.14l3.24-1.4
			C118.03,251.25,118.09,251.1,118.03,250.96z"/>
		<path class="st4" d="M123.39,268.49c0.66-0.29,1.35-0.43,2.02-0.44c2.09-0.04,4.08,1.16,4.96,3.19c0.82,1.89,0.44,4-0.79,5.48
			c-0.13,0.15-0.37,0.11-0.45-0.07l-2.09-4.83c-0.06-0.13-0.21-0.2-0.35-0.14l-3.24,1.4c-0.13,0.06-0.2,0.21-0.14,0.35l2.09,4.83
			c0.08,0.18-0.06,0.38-0.26,0.37c-1.93-0.12-3.72-1.29-4.54-3.18c-0.88-2.03-0.38-4.3,1.08-5.8
			C122.15,269.18,122.73,268.77,123.39,268.49z"/>
	</g>
</g>
</svg>
