<?xml version="1.0" encoding="utf-8"?>
<!-- Generator: Adobe Illustrator 26.0.3, SVG Export Plug-In . SVG Version: 6.00 Build 0)  -->
<svg version="1.1" id="Layer_1" xmlns="http://www.w3.org/2000/svg" xmlns:xlink="http://www.w3.org/1999/xlink" x="0px" y="0px"
	 viewBox="0 0 583 356" style="enable-background:new 0 0 583 356;" xml:space="preserve">
<style type="text/css">
	.st0{fill:#FFE8F4;}
	.st1{opacity:0.5;}
	.st2{fill:#F8BBD0;}
	.st3{fill:#FFFFFF;}
	.st4{fill:#9EA5F0;}
	.st5{fill:#E0A6C5;}
	.st6{fill:#9E4070;}
	.st7{fill:#FFC4E4;}
	.st8{fill:#9E4770;}
	.st9{fill:#E6E6E6;}
	.st10{fill:#A85E80;}
	.st11{fill:#E6A8C9;}
	.st12{fill:#703351;}
	.st13{fill:none;}
	.st14{fill:#B8678C;}
	.st15{fill:#FFE2D7;}
	.st16{fill:#3C3966;}
	.st17{fill:#EDC2CC;}
	.st18{fill:#F7DEE4;}
	.st19{fill:#E3839B;}
	.st20{fill:#F2AABA;}
	.st21{fill:#604A49;}
	.st22{fill:#AB7F80;}
	.st23{fill:#4D5175;}
	.st24{fill:#323963;}
	.st25{fill:#440C01;}
	.st26{fill:#CCCCCC;}
	.st27{opacity:0.4;fill:#FFFFFF;}
	.st28{fill:#FF4747;}
	.st29{fill:#4F0E01;}
	.st30{fill:#FACEBE;}
	.st31{fill:#D13989;}
	.st32{fill:#303769;}
	.st33{fill:#BAC0DE;}
	.st34{fill:#A1AADE;}
	.st35{fill:#FF69B9;}
	.st36{fill:#D63C8D;}
	.st37{opacity:0.3;fill:#FFFFFF;}
	.st38{fill:#80345C;}
	.st39{fill:#E071AF;}
	.st40{fill:#F08DC3;}
	.st41{fill:#6C70A3;}
	.st42{fill:#454A99;}
	.st43{fill:#FF879E;}
	.st44{fill:#F05975;}
	.st45{fill:#F0CDC0;}
	.st46{fill:#662648;}
	.st47{fill:#661A43;}
	.st48{fill:#A8768E;}
	.st49{fill:#D4D9FF;}
	.st50{fill:#8F4365;}
	.st51{fill:#7882E6;}
	.st52{fill:#8C96FF;}
	.st53{fill:#F2F2F2;}
	.st54{fill:#C78FAA;}
	.st55{fill:#C4CAFF;}
	.st56{fill:#CFD2FF;}
	.st57{fill:#FAFBFF;}
	.st58{fill:#B3C7FF;}
	.st59{fill:#6F88DE;}
	.st60{fill:#5D7ADE;}
	.st61{fill:#C4C4FF;}
	.st62{fill:#FFCF17;}
	.st63{fill:#FFD430;}
	.st64{fill:#FFE06E;}
	.st65{fill:#F8A99C;}
	.st66{fill:#3F3F8C;}
	.st67{fill:#4747AB;}
	.st68{fill:#859BE6;}
	.st69{fill:#EBEFFF;}
	.st70{fill:#A3BBFF;}
	.st71{fill:url(#SVGID_1_);}
	.st72{fill:url(#SVGID_00000114045796361013032020000003113600515492886955_);}
	.st73{fill:url(#SVGID_00000153683328708559539110000003450304573324086192_);}
	.st74{fill:#8BA3F0;}
	.st75{fill:#C7D6FF;}
	.st76{fill:#E6EEFF;}
	.st77{fill:#EBF1FF;}
	.st78{fill:#FFCAB0;}
	.st79{fill:#8268E6;}
	.st80{fill:#907AE0;}
	.st81{fill:#A58CFF;}
	.st82{fill:#F9ACFF;}
	.st83{fill:#204069;}
	.st84{fill:#D9D9D9;}
	.st85{fill:#8F959C;}
	.st86{fill:#A65B63;}
	.st87{fill:#DE818B;}
	.st88{fill:#DE5969;}
	.st89{fill:#F3A6B0;}
	.st90{fill:#ED7282;}
	.st91{fill:#A4AAB1;}
	.st92{fill:#7389A6;}
	.st93{fill:#B7BDC4;}
	.st94{fill:#FEE8F2;}
	.st95{fill:#E388B1;}
	.st96{fill:#EDA2C4;}
	.st97{fill:#272A42;}
	.st98{fill:#474B57;}
	.st99{fill:#222F4D;}
	.st100{fill:#F19489;}
	.st101{fill:#ED6C5C;}
	.st102{fill:#AB3D35;}
	.st103{fill:#B54740;}
	.st104{fill:#DE4B43;}
	.st105{fill:#CF3934;}
	.st106{fill:#F76862;}
	.st107{fill:#ED4642;}
	.st108{fill:#CEB2AE;}
	.st109{fill:#FFEFB3;}
	.st110{fill:#C99189;}
	.st111{fill:#F5C60A;}
	.st112{fill:#FAD74A;}
	.st113{fill:#E3C3BF;}
	.st114{fill:#562707;}
	.st115{fill:#DBA179;}
	.st116{fill:#F4B387;}
	.st117{fill:#E0A47C;}
	.st118{fill:#6B3007;}
	.st119{fill:#071B4D;}
	.st120{fill:#9893EB;}
	.st121{fill:#A49FFF;}
	.st122{fill:#173B9E;}
	.st123{fill:#B7B3FF;}
	.st124{fill:#F0F4FF;}
	.st125{fill:#9EB7FF;}
	.st126{fill:#6666BF;}
</style>
<g>
	<path class="st61" d="M61.74,49.47C3.7,102.32,19.8,147.08,26.67,160.8c6.86,13.73,13.73,44.99-4.58,68.63
		c-18.3,23.64-5.34,55.66,35.84,71.68c41.18,16.01,16.78,34.31,72.44,36.6c55.66,2.29,48.8-19.83,96.84-10.68
		c48.04,9.15,192.92,46.51,250.11,19.06c57.19-27.45,109.04-99.13,86.17-150.98c-22.88-51.85-44.99-58.72-23.64-114.38
		c21.35-55.66-12.2-89.98-63.29-78.54C425.47,13.63,342.35,81.5,253.9,73.87C165.45,66.25,112.83,2.96,61.74,49.47z"/>
	<g>
		<path class="st2" d="M378.29,58.71l-28.66,14.47c-2.78,1.4-3.9,4.8-2.49,7.58l8.4,16.64c1.4,2.78,4.8,3.9,7.58,2.49l28.66-14.47
			c2.78-1.4,3.9-4.8,2.49-7.58l-8.4-16.64C384.47,58.42,381.08,57.31,378.29,58.71z"/>
		<path class="st2" d="M456.16,67.12l-30.28-10.69c-2.94-1.04-6.16,0.5-7.2,3.44l-6.21,17.58c-1.04,2.94,0.5,6.16,3.44,7.2
			l30.28,10.69c2.94,1.04,6.16-0.5,7.2-3.44l6.21-17.58C460.64,71.38,459.1,68.16,456.16,67.12z"/>
		<path class="st2" d="M400.07,226.83l-30.28-10.69c-2.94-1.04-6.16,0.5-7.2,3.44l-6.21,17.58c-1.04,2.94,0.5,6.16,3.44,7.2
			l30.28,10.69c2.94,1.04,6.16-0.5,7.2-3.44l6.21-17.58C404.55,231.09,403.01,227.87,400.07,226.83z"/>
		<path class="st2" d="M452.2,210.83l-28.66,14.47c-2.78,1.4-3.9,4.8-2.49,7.58l8.4,16.64c1.4,2.78,4.8,3.9,7.58,2.49l28.66-14.47
			c2.78-1.4,3.9-4.8,2.49-7.58l-8.4-16.64C458.37,210.54,454.98,209.43,452.2,210.83z"/>
		<path class="st2" d="M504.34,126.07l-14.2-28.8c-1.38-2.79-4.76-3.94-7.56-2.57l-16.72,8.24c-2.79,1.38-3.94,4.76-2.57,7.56
			l14.2,28.8c1.38,2.79,4.76,3.94,7.56,2.57l16.72-8.24C504.57,132.25,505.72,128.87,504.34,126.07z"/>
		<path class="st2" d="M351.6,199.14l-14.2-28.8c-1.38-2.79-4.76-3.94-7.56-2.57l-16.72,8.24c-2.79,1.38-3.94,4.76-2.56,7.56
			l14.2,28.8c1.38,2.79,4.76,3.94,7.56,2.57l16.72-8.24C351.83,205.32,352.98,201.94,351.6,199.14z"/>
		<path class="st2" d="M336.68,147.58l10.27-30.42c1-2.95-0.59-6.15-3.54-7.15l-17.66-5.97c-2.95-1-6.15,0.59-7.15,3.54L308.33,138
			c-1,2.95,0.59,6.15,3.54,7.15l17.66,5.97C332.48,152.11,335.68,150.53,336.68,147.58z"/>
		<path class="st2" d="M507.7,170.99l-8.98,26.62l-2.12,6.23c-0.68,2.01-2.71,3.23-4.74,2.9c-0.27-0.01-0.51-0.07-0.78-0.16
			l-10.76-3.65l-9.34-3.15c-2.28-0.77-3.49-3.24-2.72-5.52l3.15-9.34l2.35-6.92l5.59-16.61c0.77-2.28,3.24-3.49,5.52-2.72l9.53,3.21
			l10.57,3.59C507.26,166.24,508.49,168.71,507.7,170.99z"/>
		<path class="st2" d="M494.47,149.59c-3.09-47.77-44.33-84.04-92.13-80.95c-47.8,3.09-84.04,44.36-80.95,92.16
			c3.09,47.8,44.33,84.04,92.13,80.95c28.19-1.84,52.34-16.92,66.8-38.81c1.16-1.73,2.23-3.51,3.26-5.35
			c1.34-2.37,2.57-4.8,3.66-7.32c3.92-8.8,6.4-18.38,7.16-28.38C494.71,157.86,494.74,153.74,494.47,149.59z M409.99,192.23
			c-20.26,1.32-37.75-14.05-39.07-34.31c-1.29-20.24,14.07-37.72,34.31-39.04c20.26-1.32,37.75,14.05,39.07,34.31
			C445.62,173.45,430.25,190.94,409.99,192.23z"/>
		<g>
			<path class="st3" d="M392.43,201.96c-18.46-6.15-32.32-22.99-33.65-43.58c-0.85-13.13,3.46-25.8,12.15-35.69
				c8.68-9.88,20.7-15.8,33.83-16.65c13.13-0.85,25.81,3.47,35.69,12.15s15.8,20.7,16.65,33.83c0.85,13.13-3.47,25.81-12.15,35.69
				c-8.68,9.89-20.7,15.8-33.83,16.65C404.59,204.78,398.28,203.91,392.43,201.96z M423.29,108.9c-5.79-1.93-12.04-2.79-18.51-2.38
				c-26.84,1.74-47.26,24.99-45.53,51.83c1.74,26.84,24.99,47.26,51.83,45.52c13-0.84,24.9-6.69,33.5-16.48
				c8.6-9.79,12.87-22.34,12.03-35.34C455.29,131.67,441.57,114.99,423.29,108.9z"/>
		</g>
	</g>
	<path class="st62" d="M509.76,200.62v97.43c0,0.76-0.29,1.44-0.76,1.96c-0.53,0.63-1.33,1.01-2.21,1.01H378.92
		c-0.99,0-1.86-0.49-2.4-1.23c-0.36-0.49-0.58-1.09-0.58-1.75v-97.43c0-1.64,1.34-2.96,2.98-2.96h127.87
		C508.42,197.66,509.76,198.98,509.76,200.62z"/>
	<path class="st9" d="M438.04,254.98c-0.94,2.5-26.15,29.17-29.07,34.07c-2.2,3.71-19.41,10.2-28.08,11.98h-1.96
		c-0.99,0-1.86-0.49-2.4-1.23c5.5-7.53,47.79-43.89,55.79-50.47c0,0,1.14,0.54,2.41,1.34C436.52,251.83,438.59,253.51,438.04,254.98
		z"/>
	<path class="st9" d="M509,300.02c-0.53,0.63-1.33,1.01-2.21,1.01h-18.51c-9.83-10.38-44.69-56.68-44.69-56.68
		c15.08,9.28,53.64,43.14,55.93,45.23C501.52,291.4,507.76,297.19,509,300.02z"/>
	<path class="st63" d="M506.67,301.03H379.03c-1.06,0-1.55-1.33-0.74-2.01l56.43-48.34l7.39-6.33c0.43-0.36,1.05-0.36,1.48,0
		l63.82,54.67C508.22,299.7,507.73,301.03,506.67,301.03z"/>
	<path class="st64" d="M377.48,199.15l63.74,61.94c0.86,0.83,2.22,0.83,3.07,0l63.92-61.94c0.56-0.54,0.18-1.49-0.6-1.49H378.09
		C377.31,197.66,376.92,198.61,377.48,199.15z"/>
	<g>
		<path class="st65" d="M122.23,76.04l-12.36,6.66c-1.2,0.65-1.65,2.14-1,3.34l3.87,7.18c0.65,1.2,2.14,1.65,3.34,1l12.36-6.66
			c1.2-0.65,1.65-2.14,1-3.34l-3.87-7.18C124.93,75.84,123.43,75.39,122.23,76.04z"/>
		<path class="st65" d="M156.37,78.8l-13.36-4.31c-1.3-0.42-2.69,0.29-3.11,1.59l-2.5,7.76c-0.42,1.3,0.29,2.69,1.59,3.11
			l13.36,4.31c1.3,0.42,2.69-0.29,3.11-1.59l2.5-7.76C158.38,80.61,157.66,79.22,156.37,78.8z"/>
		<path class="st65" d="M133.74,149.27l-13.36-4.31c-1.3-0.42-2.69,0.29-3.11,1.59l-2.5,7.76c-0.42,1.3,0.29,2.69,1.59,3.11
			l13.36,4.31c1.3,0.42,2.69-0.29,3.11-1.59l2.5-7.76C135.75,151.08,135.03,149.69,133.74,149.27z"/>
		<path class="st65" d="M156.33,141.66l-12.36,6.66c-1.2,0.65-1.65,2.14-1,3.34l3.87,7.18c0.65,1.2,2.14,1.65,3.34,1l12.36-6.66
			c1.2-0.65,1.65-2.14,1-3.34l-3.87-7.18C159.03,141.46,157.53,141.01,156.33,141.66z"/>
		<path class="st65" d="M178.12,104l-6.55-12.42c-0.64-1.21-2.13-1.67-3.33-1.03l-7.21,3.8c-1.21,0.64-1.67,2.13-1.03,3.33
			l6.55,12.42c0.64,1.21,2.13,1.67,3.33,1.03l7.21-3.8C178.3,106.69,178.76,105.2,178.12,104z"/>
		<path class="st65" d="M112.22,137.74l-6.55-12.42c-0.64-1.21-2.13-1.67-3.33-1.03l-7.21,3.8c-1.21,0.64-1.67,2.13-1.03,3.33
			l6.55,12.42c0.64,1.21,2.13,1.67,3.33,1.03l7.21-3.8C112.4,140.44,112.86,138.95,112.22,137.74z"/>
		<path class="st65" d="M105.09,115.38l4.13-13.42c0.4-1.3-0.33-2.68-1.63-3.08l-7.79-2.4c-1.3-0.4-2.68,0.33-3.08,1.63l-4.13,13.42
			c-0.4,1.3,0.33,2.68,1.63,3.08l7.79,2.4C103.31,117.41,104.69,116.68,105.09,115.38z"/>
		<path class="st65" d="M180.12,123.59l-3.61,11.74l-0.85,2.75c-0.27,0.89-1.15,1.44-2.04,1.33c-0.12,0-0.22-0.02-0.34-0.06
			l-4.75-1.47l-4.12-1.27c-1.01-0.31-1.56-1.37-1.25-2.38l1.27-4.12l0.95-3.05l2.25-7.33c0.31-1.01,1.37-1.56,2.38-1.25l4.2,1.29
			l4.66,1.44C179.88,121.52,180.44,122.58,180.12,123.59z"/>
		<path class="st65" d="M174.09,114.39c-1.92-20.85-20.37-36.21-41.23-34.29c-20.86,1.92-36.21,20.38-34.29,41.24
			c1.92,20.86,20.37,36.21,41.23,34.29c12.3-1.14,22.68-8.01,28.74-17.76c0.49-0.77,0.94-1.56,1.36-2.38
			c0.56-1.05,1.07-2.13,1.52-3.24c1.61-3.89,2.58-8.11,2.79-12.49C174.29,118,174.25,116.2,174.09,114.39z M137.66,134.03
			c-8.84,0.82-16.67-5.69-17.48-14.54c-0.8-8.83,5.71-16.65,14.54-17.47c8.84-0.82,16.67,5.69,17.48,14.54
			C153.02,125.4,146.51,133.23,137.66,134.03z"/>
		<g>
			<path class="st3" d="M136.31,139.41c-11,0-20.41-8.41-21.43-19.57c-1.09-11.83,7.65-22.33,19.48-23.42
				c11.83-1.08,22.34,7.65,23.42,19.48c0.53,5.73-1.21,11.32-4.89,15.74c-3.68,4.42-8.86,7.15-14.59,7.68
				C137.63,139.38,136.97,139.41,136.31,139.41z M136.34,96.54c-0.65,0-1.31,0.03-1.97,0.09c-11.71,1.08-20.36,11.48-19.29,23.19
				c1.02,11.05,10.34,19.38,21.22,19.38c0.65,0,1.31-0.03,1.97-0.09c5.67-0.52,10.8-3.22,14.45-7.6c3.64-4.38,5.36-9.92,4.84-15.59
				C156.55,104.87,147.23,96.54,136.34,96.54z"/>
		</g>
	</g>
	<g>
		<path class="st65" d="M300.71,44.05l-7.62,4.11c-0.74,0.4-1.02,1.32-0.62,2.06l2.39,4.43c0.4,0.74,1.32,1.02,2.06,0.62l7.62-4.11
			c0.74-0.4,1.02-1.32,0.62-2.06l-2.39-4.43C302.37,43.93,301.45,43.65,300.71,44.05z"/>
		<path class="st65" d="M321.77,45.75l-8.24-2.66c-0.8-0.26-1.66,0.18-1.92,0.98l-1.55,4.78c-0.26,0.8,0.18,1.66,0.98,1.92
			l8.24,2.66c0.8,0.26,1.66-0.18,1.92-0.98l1.55-4.78C323.01,46.87,322.57,46.01,321.77,45.75z"/>
		<path class="st65" d="M307.81,89.22l-8.24-2.66c-0.8-0.26-1.66,0.18-1.92,0.98l-1.55,4.78c-0.26,0.8,0.18,1.66,0.98,1.92
			l8.24,2.66c0.8,0.26,1.66-0.18,1.92-0.98l1.55-4.78C309.05,90.34,308.61,89.48,307.81,89.22z"/>
		<path class="st65" d="M321.75,84.53l-7.62,4.11c-0.74,0.4-1.02,1.32-0.62,2.06l2.39,4.43c0.4,0.74,1.32,1.02,2.06,0.62l7.62-4.11
			c0.74-0.4,1.02-1.32,0.62-2.06l-2.39-4.43C323.41,84.41,322.49,84.13,321.75,84.53z"/>
		<path class="st65" d="M335.19,61.3l-4.04-7.66c-0.39-0.74-1.31-1.03-2.06-0.64l-4.45,2.35c-0.74,0.39-1.03,1.31-0.64,2.06
			l4.04,7.66c0.39,0.74,1.31,1.03,2.06,0.64l4.45-2.35C335.29,62.96,335.58,62.04,335.19,61.3z"/>
		<path class="st65" d="M294.54,82.11l-4.04-7.66c-0.39-0.74-1.31-1.03-2.06-0.64l-4.45,2.35c-0.74,0.39-1.03,1.31-0.64,2.06
			l4.04,7.66c0.39,0.74,1.31,1.03,2.06,0.64l4.45-2.35C294.64,83.78,294.93,82.86,294.54,82.11z"/>
		<path class="st65" d="M290.14,68.32l2.55-8.28c0.25-0.8-0.2-1.65-1.01-1.9l-4.81-1.48c-0.8-0.25-1.66,0.2-1.9,1.01l-2.55,8.28
			c-0.25,0.8,0.2,1.65,1.01,1.9l4.81,1.48C289.04,69.57,289.89,69.12,290.14,68.32z"/>
		<path class="st65" d="M336.42,73.38l-2.23,7.24l-0.53,1.69c-0.17,0.55-0.71,0.89-1.26,0.82c-0.07,0-0.14-0.01-0.21-0.04
			l-2.93-0.91l-2.54-0.78c-0.62-0.19-0.96-0.85-0.77-1.47l0.78-2.54l0.58-1.88l1.39-4.52c0.19-0.62,0.85-0.96,1.47-0.77l2.59,0.8
			l2.88,0.89C336.27,72.1,336.62,72.76,336.42,73.38z"/>
		<path class="st65" d="M332.7,67.71c-1.18-12.86-12.57-22.34-25.43-21.15C294.4,47.74,284.93,59.13,286.11,72
			c1.18,12.87,12.57,22.34,25.43,21.15c7.59-0.7,13.99-4.94,17.73-10.95c0.3-0.47,0.58-0.96,0.84-1.47c0.34-0.65,0.66-1.31,0.93-2
			c0.99-2.4,1.59-5,1.72-7.7C332.82,69.94,332.8,68.83,332.7,67.71z M310.23,79.82c-5.45,0.5-10.28-3.51-10.78-8.97
			c-0.5-5.45,3.52-10.27,8.97-10.78c5.45-0.5,10.28,3.51,10.78,8.97C319.7,74.5,315.68,79.33,310.23,79.82z"/>
		<g>
			<path class="st3" d="M309.4,83.14c-6.78,0-12.59-5.19-13.22-12.07c-0.67-7.3,4.72-13.78,12.01-14.45
				c7.3-0.67,13.78,4.72,14.45,12.01c0.33,3.53-0.75,6.98-3.01,9.71c-2.27,2.73-5.47,4.41-9,4.74
				C310.21,83.12,309.8,83.14,309.4,83.14z M309.41,56.7c-0.4,0-0.81,0.02-1.21,0.06c-7.22,0.66-12.56,7.08-11.9,14.31
				c0.63,6.82,6.38,11.95,13.09,11.95c0.4,0,0.81-0.02,1.21-0.06c3.5-0.32,6.66-1.99,8.91-4.69c2.25-2.7,3.31-6.12,2.99-9.62
				C321.88,61.83,316.13,56.7,309.41,56.7z"/>
		</g>
	</g>
	<path class="st2" d="M47.46,167.81l-16.65,16.77c-1.62,1.63-1.61,4.26,0.02,5.87l9.74,9.67c1.63,1.62,4.26,1.61,5.87-0.02
		l16.65-16.77c1.62-1.63,1.61-4.26-0.02-5.87l-9.74-9.67C51.71,166.17,49.08,166.18,47.46,167.81z"/>
	<path class="st2" d="M103.8,155.57l-23.63-0.42c-2.29-0.04-4.19,1.78-4.23,4.08l-0.25,13.72c-0.04,2.29,1.78,4.19,4.08,4.23
		l23.63,0.42c2.29,0.04,4.19-1.78,4.23-4.08l0.25-13.72C107.92,157.51,106.09,155.62,103.8,155.57z"/>
	<path class="st2" d="M101.77,280.16l-23.63-0.42c-2.29-0.04-4.19,1.78-4.23,4.08l-0.25,13.72c-0.04,2.29,1.78,4.19,4.08,4.23
		l23.63,0.42c2.29,0.04,4.19-1.78,4.23-4.08l0.25-13.72C105.89,282.09,104.07,280.2,101.77,280.16z"/>
	<path class="st2" d="M134.46,256.86l-16.65,16.77c-1.62,1.63-1.61,4.26,0.02,5.87l9.74,9.67c1.63,1.62,4.26,1.61,5.87-0.02
		l16.65-16.77c1.62-1.63,1.61-4.26-0.02-5.87l-9.74-9.67C138.7,255.22,136.07,255.23,134.46,256.86z"/>
	<path class="st2" d="M151.16,185.54l-16.62-16.81c-1.61-1.63-4.24-1.65-5.87-0.03l-9.76,9.65c-1.63,1.61-1.65,4.24-0.03,5.87
		l16.62,16.81c1.61,1.63,4.24,1.65,5.87,0.03l9.76-9.65C152.76,189.8,152.77,187.17,151.16,185.54z"/>
	<path class="st2" d="M61.48,272.09l-16.62-16.81c-1.61-1.63-4.24-1.65-5.87-0.03l-9.76,9.65c-1.63,1.61-1.65,4.24-0.03,5.87
		l16.62,16.81c1.61,1.63,4.24,1.65,5.87,0.03l9.76-9.65C63.08,276.36,63.1,273.73,61.48,272.09z"/>
	<path class="st2" d="M39.07,239.55l0.1-23.64c0.01-2.29-1.84-4.16-4.14-4.17l-13.72-0.06c-2.29-0.01-4.16,1.84-4.17,4.14
		l-0.1,23.64c-0.01,2.29,1.84,4.16,4.14,4.17l13.72,0.06C37.19,243.7,39.06,241.85,39.07,239.55z"/>
	<path class="st2" d="M163.95,216.13l-0.08,20.68l-0.03,4.84c0,1.56-1.14,2.89-2.63,3.13c-0.19,0.06-0.37,0.07-0.58,0.07l-8.36-0.05
		l-7.25-0.03c-1.77,0-3.19-1.45-3.18-3.22l0.03-7.25l0.03-5.38l0.04-12.9c0-1.77,1.45-3.19,3.22-3.18l7.4,0.03l8.22,0.05
		C162.54,212.91,163.98,214.35,163.95,216.13z"/>
	<path class="st2" d="M149.73,204.26c-13.27-32.64-50.51-48.38-83.17-35.1c-32.66,13.28-48.37,50.53-35.1,83.19
		c13.28,32.66,50.51,48.38,83.17,35.1c19.26-7.84,32.62-23.99,37.63-42.64c0.41-1.48,0.74-2.97,1.03-4.5
		c0.38-1.97,0.68-3.95,0.86-5.97c0.69-7.06,0.2-14.32-1.6-21.48C151.82,209.98,150.89,207.09,149.73,204.26z M100.65,253.69
		c-13.85,5.64-29.63-1.03-35.27-14.88c-5.61-13.83,1.05-29.62,14.88-35.25c13.85-5.64,29.63,1.03,35.27,14.88
		C121.17,232.29,114.5,248.07,100.65,253.69z"/>
	<g>
		<path class="st3" d="M90.65,264.57c-14.32,0-27.92-8.54-33.64-22.61c-3.65-8.97-3.58-18.83,0.18-27.75
			c3.77-8.92,10.78-15.85,19.75-19.5c8.97-3.65,18.83-3.58,27.75,0.18c8.92,3.77,15.85,10.78,19.5,19.75
			c3.65,8.97,3.58,18.83-0.18,27.75c-3.77,8.92-10.78,15.85-19.75,19.5C99.8,263.71,95.19,264.57,90.65,264.57z M90.56,192.4
			c-4.5,0-9.06,0.85-13.48,2.64c-18.34,7.46-27.2,28.44-19.74,46.78c7.46,18.34,28.44,27.19,46.78,19.74
			c8.88-3.61,15.83-10.47,19.56-19.3c3.73-8.84,3.79-18.6,0.18-27.48C118.2,200.86,104.74,192.4,90.56,192.4z"/>
	</g>
	<path class="st66" d="M402.54,300.87H144.58c-9.21,0-16.67-7.46-16.67-16.67V135.54c0-9.21,7.46-16.67,16.67-16.67h257.96
		c9.21,0,16.67,7.46,16.67,16.67V284.2C419.21,293.4,411.74,300.87,402.54,300.87z"/>
	<rect x="142.15" y="132.71" class="st3" width="262.8" height="154.31"/>
	<path class="st67" d="M461.21,314.1H85.9c-8.21,0-14.87-6.66-14.87-14.87v0c0-2.44,1.98-4.42,4.42-4.42h396.21
		c2.44,0,4.42,1.98,4.42,4.42v0C476.08,307.44,469.43,314.1,461.21,314.1z"/>
	<rect x="141.76" y="132.71" class="st3" width="263.23" height="154.27"/>
	<rect x="141.76" y="132.71" class="st68" width="263.26" height="16.28"/>
	<circle class="st69" cx="151.9" cy="140.85" r="2.97"/>
	<path class="st3" d="M237.07,137.87h-31.03c-1.65,0-2.99,1.34-2.99,2.99l0,0c0,1.65,1.34,2.99,2.99,2.99h31.03
		c1.65,0,2.99-1.34,2.99-2.99l0,0C240.05,139.21,238.72,137.87,237.07,137.87z"/>
	<path class="st3" d="M288.75,137.87h-31.03c-1.65,0-2.99,1.34-2.99,2.99l0,0c0,1.65,1.34,2.99,2.99,2.99h31.03
		c1.65,0,2.99-1.34,2.99-2.99l0,0C291.74,139.21,290.4,137.87,288.75,137.87z"/>
	<path class="st3" d="M340.43,137.87H309.4c-1.65,0-2.99,1.34-2.99,2.99l0,0c0,1.65,1.34,2.99,2.99,2.99h31.03
		c1.65,0,2.99-1.34,2.99-2.99l0,0C343.42,139.21,342.08,137.87,340.43,137.87z"/>
	<path class="st3" d="M392.12,137.87h-31.03c-1.65,0-2.99,1.34-2.99,2.99l0,0c0,1.65,1.34,2.99,2.99,2.99h31.03
		c1.65,0,2.99-1.34,2.99-2.99l0,0C395.1,139.21,393.76,137.87,392.12,137.87z"/>
	<path class="st70" d="M302.99,169.27h-60.34c-2.19,0-3.96-1.77-3.96-3.96l0,0c0-2.19,1.77-3.96,3.96-3.96h60.34
		c2.19,0,3.96,1.77,3.96,3.96l0,0C306.94,167.5,305.17,169.27,302.99,169.27z"/>
	<linearGradient id="SVGID_1_" gradientUnits="userSpaceOnUse" x1="289.4947" y1="206.6634" x2="256.1439" y2="264.4286">
		<stop  offset="0" style="stop-color:#80A2FF"/>
		<stop  offset="1" style="stop-color:#C7D6FF"/>
	</linearGradient>
	<path class="st71" d="M302.3,256.32h-58.95c-2.57,0-4.65-2.08-4.65-4.65v-32.25c0-2.57,2.08-4.65,4.65-4.65h58.95
		c2.57,0,4.65,2.08,4.65,4.65v32.25C306.94,254.24,304.86,256.32,302.3,256.32z"/>
	
		<linearGradient id="SVGID_00000026127181110713232000000001094145629282055603_" gradientUnits="userSpaceOnUse" x1="209.3747" y1="206.6634" x2="176.0239" y2="264.4286">
		<stop  offset="0" style="stop-color:#80A2FF"/>
		<stop  offset="1" style="stop-color:#C7D6FF"/>
	</linearGradient>
	<path style="fill:url(#SVGID_00000026127181110713232000000001094145629282055603_);" d="M222.18,256.32h-58.95
		c-2.57,0-4.65-2.08-4.65-4.65v-32.25c0-2.57,2.08-4.65,4.65-4.65h58.95c2.57,0,4.65,2.08,4.65,4.65v32.25
		C226.82,254.24,224.74,256.32,222.18,256.32z"/>
	
		<linearGradient id="SVGID_00000009581806070718956140000015373928298378710689_" gradientUnits="userSpaceOnUse" x1="369.1202" y1="206.6634" x2="335.7694" y2="264.4286">
		<stop  offset="0" style="stop-color:#80A2FF"/>
		<stop  offset="1" style="stop-color:#C7D6FF"/>
	</linearGradient>
	<path style="fill:url(#SVGID_00000009581806070718956140000015373928298378710689_);" d="M381.92,256.32h-58.95
		c-2.57,0-4.65-2.08-4.65-4.65v-32.25c0-2.57,2.08-4.65,4.65-4.65h58.95c2.57,0,4.65,2.08,4.65,4.65v32.25
		C386.57,254.24,384.49,256.32,381.92,256.32z"/>
	<path class="st74" d="M284.44,201.42H261.2c-2.19,0-3.96-1.77-3.96-3.96l0,0c0-2.19,1.77-3.96,3.96-3.96h23.24
		c2.19,0,3.96,1.77,3.96,3.96l0,0C288.4,199.65,286.63,201.42,284.44,201.42z"/>
	<path class="st75" d="M298.78,266.21h-51.93c-1.09,0-1.98-0.89-1.98-1.98l0,0c0-1.09,0.89-1.98,1.98-1.98h51.93
		c1.09,0,1.98,0.89,1.98,1.98l0,0C300.76,265.32,299.88,266.21,298.78,266.21z"/>
	<path class="st76" d="M299.03,274H247.1c-1.09,0-1.98-0.89-1.98-1.98l0,0c0-1.09,0.89-1.98,1.98-1.98h51.93
		c1.09,0,1.98,0.89,1.98,1.98l0,0C301.01,273.11,300.12,274,299.03,274z"/>
	<path class="st77" d="M283.21,281.79h-36.1c-1.09,0-1.98-0.89-1.98-1.98l0,0c0-1.09,0.89-1.98,1.98-1.98h36.1
		c1.09,0,1.98,0.89,1.98,1.98l0,0C285.18,280.9,284.3,281.79,283.21,281.79z"/>
	<path class="st77" d="M202.9,281.79h-36.1c-1.09,0-1.98-0.89-1.98-1.98l0,0c0-1.09,0.89-1.98,1.98-1.98h36.1
		c1.09,0,1.98,0.89,1.98,1.98l0,0C204.88,280.9,203.99,281.79,202.9,281.79z"/>
	<path class="st75" d="M218.66,266.21h-51.93c-1.09,0-1.98-0.89-1.98-1.98l0,0c0-1.09,0.89-1.98,1.98-1.98h51.93
		c1.09,0,1.98,0.89,1.98,1.98l0,0C220.64,265.32,219.76,266.21,218.66,266.21z"/>
	<path class="st76" d="M218.63,274H166.7c-1.09,0-1.98-0.89-1.98-1.98l0,0c0-1.09,0.89-1.98,1.98-1.98h51.93
		c1.09,0,1.98,0.89,1.98,1.98l0,0C220.61,273.11,219.73,274,218.63,274z"/>
	<path class="st75" d="M378.66,266.21h-51.93c-1.09,0-1.98-0.89-1.98-1.98l0,0c0-1.09,0.89-1.98,1.98-1.98h51.93
		c1.09,0,1.98,0.89,1.98,1.98l0,0C380.64,265.32,379.75,266.21,378.66,266.21z"/>
	<path class="st76" d="M378.9,273.94h-51.93c-1.09,0-1.98-0.89-1.98-1.98l0,0c0-1.09,0.89-1.98,1.98-1.98h51.93
		c1.09,0,1.98,0.89,1.98,1.98l0,0C380.88,273.05,380,273.94,378.9,273.94z"/>
	<path class="st77" d="M378.9,281.66h-26.95c-1.09,0-1.98-0.89-1.98-1.98l0,0c0-1.09,0.89-1.98,1.98-1.98h26.95
		c1.09,0,1.98,0.89,1.98,1.98l0,0C380.88,280.78,380,281.66,378.9,281.66z"/>
	<path class="st75" d="M333.4,178.51H212.23c-1.37,0-2.47-1.11-2.47-2.47l0,0c0-1.37,1.11-2.47,2.47-2.47H333.4
		c1.37,0,2.47,1.11,2.47,2.47l0,0C335.88,177.4,334.77,178.51,333.4,178.51z"/>
	<path class="st76" d="M302.74,189.22h-90.51c-1.37,0-2.47-1.11-2.47-2.47l0,0c0-1.37,1.11-2.47,2.47-2.47h90.51
		c1.37,0,2.47,1.11,2.47,2.47l0,0C305.21,188.11,304.11,189.22,302.74,189.22z"/>
	<path class="st25" d="M155.13,279.71c0.16,3.49-0.43,6.5-0.43,6.5l-0.72-0.86l-2.24-2.68c0,0,0.16-1.77,0.16-2.26
		c0-0.48-0.16-1.77-0.16-1.77s-0.7,2.74-0.91,2.74c-0.22,0-3.71-2.42-4.41-2.74c-0.7-0.32-4.13,0.1-5.21-1.61
		c-1.08-1.72-9.4-14.24-9.4-14.24s-0.48-4.2-0.89-7.55c-0.25-2.04-0.48-3.77-0.56-4.05c-0.22-0.75-2.14-9.89-0.86-12.14
		c1.04-1.84,3.29-2.92,5.55-2.95c0.3-0.01,0.6,0.01,0.9,0.05c3.13,0.36,8.28,2.26,11.82,13.86c3.15,10.31,4.77,14.68,5.81,16.69
		c0.14,0.26,0.25,0.47,0.37,0.66c0.99,1.61,3.64,3.78,3.81,3.91c-0.17-0.05-2.95-0.92-4.56-3c-1.66-2.15-2.58-3.49-2.58-3.49
		s0.19,3.09,1.19,5.05C153.1,272.36,154.97,276.23,155.13,279.71z"/>
	<path class="st78" d="M141.39,254.16c0.08,0.36-4.47,1.29-4.47,1.29s-0.06-0.84-0.19-1.86c-0.16-1.34-0.42-3-0.73-3.45
		c0,0,0.02-0.11,0.06-0.28c0.18-0.73,0.77-2.57,1.91-1.82c0.13,0.08,0.26,0.2,0.4,0.35c0.12,0.12,0.23,0.26,0.35,0.42
		C139.97,250.48,141.32,253.86,141.39,254.16z"/>
	<path class="st9" d="M138.36,248.39c-0.53,0.29-1.51,0.85-2.31,1.47c-0.05,0.17-0.06,0.28-0.06,0.28c0.32,0.46,0.57,2.11,0.73,3.45
		c0.71-1.17,1.78-3.36,1.99-4.78L138.36,248.39z"/>
	<path class="st78" d="M128.66,245.29c0,3.81,1.73,8.33,3.95,8.88c2.78,0.68,6.96-5.81,6.47-7.53c-0.48-1.72-4.14-6.45-5.64-6.66
		s-3.71,2.04-4.03,2.9C129.09,243.73,128.66,245.29,128.66,245.29z"/>
	<path class="st78" d="M134.05,274.18c0,0-2.62-3.46-5.96-5.24c-3.34-1.77-4.07-2.7-4.43-3.54c-0.36-0.85-1.73-3.59-2.26-4.11
		c-0.52-0.52-4.03-4.31-4.19-4.31s1.65,6.77,3.1,8.78c1.45,2.01,11.8,13.13,13.45,12.41C135.42,277.45,134.05,274.18,134.05,274.18z
		"/>
	<path class="st78" d="M122.43,262.35c0-0.87-0.22-1.81-0.6-1.91c-0.38-0.1-0.97-0.14-1.09-0.02
		C120.62,260.53,122.43,262.35,122.43,262.35z"/>
	<path class="st26" d="M151.75,282.67c0,0,0.16-1.77,0.16-2.26c0-0.48-0.16-1.77-0.16-1.77s-0.7,2.74-0.91,2.74
		c-0.22,0-3.71-2.42-4.41-2.74c-0.7-0.32-4.13,0.1-5.21-1.61c-1.08-1.72-9.4-14.24-9.4-14.24s-0.48-4.2-0.89-7.55
		c2.88,5.54,7.99,13.87,12.86,16.79c5.02,3,9.4,5.31,10.18,13.32L151.75,282.67z"/>
	<path class="st78" d="M157.34,298.73c-3.27-0.59-5.16,1.4-6.77,0.54c-1.61-0.86-2.79-1.13-3.33-4.35
		c-0.53-3.22-1.23-13.54-0.91-17.72c0.2-2.63-0.42-6.29-0.87-9.04c-0.03-0.17-0.06-0.35-0.09-0.52c-0.22-1.4-0.38-2.49-0.33-3.01
		c0.1-1,0.97-3.11,1.59-4.51c0-0.01,0.01-0.01,0.01-0.01c0.13-0.3,0.24-0.55,0.34-0.77c0.16-0.35,0.26-0.57,0.26-0.57
		c0.05,0.08,0.1,0.16,0.14,0.24c0.06,0.11,0.14,0.23,0.2,0.35c0.06,0.11,0.12,0.21,0.17,0.33c0.01,0.01,0.01,0.01,0.01,0.01
		c0.06,0.11,0.12,0.22,0.17,0.34c1.63,3.16,3.38,8.13,2.96,14.04c-0.48,6.77-2.37,21.22-1.5,22.08c0.86,0.86,3.33-1.02,4.61-0.86
		c1.29,0.16,6.77,3.06,7.31,3.22C161.85,298.67,160.61,299.32,157.34,298.73z"/>
	<path class="st78" d="M138.52,304.8c-0.26-0.32-2.3-1.35-4.05-2.06c-0.95-0.38-1.82-0.66-2.27-0.68c0,0-3.85-2.86-6.21-4.91
		c-1.1-0.96-1.88-1.75-1.77-1.98c0.32-0.72,0.64-0.28,2.95,0.37c2.29,0.64,7.17,4.34,8.1,4.55c0.93,0.2,3.06-0.08,3.71,0.2
		C139.61,300.57,138.93,305.28,138.52,304.8z"/>
	<path class="st79" d="M144.98,309.7c-0.21,1.37-0.55,2.44-0.88,3.13c-0.35,0.72-0.69,1.02-0.87,0.8c-0.35-0.44-2.53-5.36-3.3-6.37
		c-0.77-1-2.82-2.54-2.63-2.77c0.17-0.22,1.58-1.6,1.39-2.69c-0.19-1.09-1.5-2.3-1.42-2.54c0.08-0.23,6.15,0.93,6.74,2.31
		c0.01,0.02,0.02,0.04,0.03,0.06C144.63,303.05,145.41,306.94,144.98,309.7z"/>
	<path class="st80" d="M130.91,282.99c-10.63-0.11-27.45,3.12-28.52,6.39c-1.07,3.28,34.7,6.45,35.23,5.96
		C138.16,294.86,130.91,282.99,130.91,282.99z"/>
	<path class="st9" d="M134.47,302.74c-0.95-0.38-1.82-0.66-2.27-0.68c0,0-3.85-2.86-6.21-4.91c0.23-1.04,0.48-1.8,0.48-1.8
		C127.95,295.73,133.21,298.95,134.47,302.74z"/>
	<path class="st81" d="M102.18,291.58c0.16,2.79,1.29,5.75,7.95,7.3c6.66,1.56,23.9,4.24,23.9,3.65s-5.8-6.73-7.73-7.52
		c-6.88-2.81-10.16-4.2-14.88-4.35C104.11,290.44,102.18,291.58,102.18,291.58z"/>
	<path class="st78" d="M105.96,289.9v0.02c-0.11,0.54-3.76,3.33-4.3,4.45c-0.53,1.13-0.64,1.96-1.29,2.69
		c-0.64,0.72-5.1-1.5-3.97-1.96c0.72-0.3,1.82-1.28,2.77-2.24c0.11-0.11,0.21-0.22,0.32-0.33c0.28-0.3,0.55-0.59,0.77-0.84
		c0.07-0.08,0.15-0.17,0.23-0.26c0,0,1.37-1.06,2.6-1.77c0.45-0.26,0.88-0.48,1.22-0.57c0.84-0.24,1.36-0.01,1.57,0.33
		C105.96,289.56,105.99,289.73,105.96,289.9z"/>
	<path class="st79" d="M102.26,295.4c0.14,0.2-2.04,4.61-3.03,5.03c-0.05,0.03-0.09,0.04-0.14,0.04c-0.9,0.03-6.47-0.32-9.01-2.31
		c-0.57-0.45-1.05-0.9-1.44-1.34c-1.34-1.5-1.67-2.82-1.5-3.2c0.23-0.48,3.45,0.75,5.68,0.93c2.23,0.19,4.12-1.02,4.15-0.88
		c0.08,0.38-0.25,1.82,1.22,2.26C99.66,296.37,102.11,295.18,102.26,295.4z"/>
	<path class="st25" d="M139.99,246.23c-3.95,4.06-8.06-4.14-8.06-4.14s-0.97,5.1-3.3,4.27c-2.34-0.83,0.34-7.59,1.72-8.24
		c1.73-0.82,5.53,0.54,6.15,1.45C137.12,240.48,139.99,246.23,139.99,246.23z"/>
	<path class="st9" d="M146.71,265.63c-0.59,0.81-1.02,1.48-1.34,2c-0.22-1.4-0.38-2.49-0.33-3.01c0.1-1,0.97-3.11,1.59-4.51
		c0-0.01,0.01-0.01,0.01-0.01c0.13-0.3,0.24-0.55,0.34-0.77c0.17-0.14,0.32-0.24,0.41-0.32c0.01-0.01,0.01-0.01,0.02-0.01
		c0.08-0.05,0.12-0.08,0.12-0.08c0.08,0.24,0.17,0.49,0.24,0.76c0,0.01,0,0.01,0,0.01c0.01,0.01,0.01,0.01,0.01,0.01
		C148.21,261.29,148.36,263.35,146.71,265.63z"/>
	<path class="st82" d="M143.27,279.71c1.66,5.96,1.3,11.45,0.17,13.77c-0.18,0.37-0.61,0.23-1.19-0.27
		c-3.07-2.61-10.53-15.14-9.62-15.32c1.07-0.21,0.53-7.9,0.48-8.33c-0.06-0.43-2.26-3-2.2-5.26c0.05-2.26,4.58-9.18,6.12-9.89
		c0.32-0.15,3.62-1.54,6.25-0.86c2.62,0.68,3.42,2.58,4.44,5.59c1.02,3-2.04,6.77-3.49,8.38c-0.35,0.39-0.68,0.95-0.97,1.66
		C142.38,271.44,142,275.19,143.27,279.71z"/>
	<path class="st9" d="M106.46,289.37c-0.14,0.17-0.3,0.35-0.5,0.54c-1.54,1.46-4.38,2.65-6.48,2.63c0.28-0.3,0.55-0.59,0.77-0.84
		c0.07-0.08,0.15-0.17,0.23-0.26c0,0,1.37-1.06,2.6-1.77c0.88-0.08,2.08-0.19,2.78-0.24C106.23,289.39,106.46,289.37,106.46,289.37z
		"/>
	<path class="st9" d="M143.44,293.48c-0.18,0.37-0.61,0.23-1.19-0.27c-1.19-2.82-2.37-6.74-2.11-6.94c0.43-0.32,2.26,1.5,2.8,0
		c0.53-1.48-2.67-13.7,0.32-17.08c-0.89,2.25-1.27,6,0,10.53C144.93,285.67,144.57,291.17,143.44,293.48z"/>
	<path class="st81" d="M137.4,297.19c-4.07-0.35-9.04-3.13-13.57-11.08c-0.53-0.94-1.03-1.87-1.48-2.77
		c-3.39-6.72-4.53-12.01-4.67-12.67c0.06,0.46,0.37,3.17-0.57,6.25c-0.41,1.34-1.09,2.87-2.16,4.52c-1.12,1.73-2.67,3.61-4.77,5.58
		c-4.24,3.96-11.22,5.58-10.74,4.83c0.48-0.75,3.81-5.38,8.43-14.99c4.62-9.62,6.61-13.81,9.94-13.32
		c3.33,0.48,23.47,18.2,25.72,28.36C144.05,294.2,142.51,297.62,137.4,297.19z"/>
	<path class="st83" d="M123.79,264.36L123.79,264.36c-0.15,0.12-0.37,0.11-0.49-0.04l-7.75-9.2c-0.12-0.15-0.11-0.37,0.04-0.49l0,0
		c0.15-0.12,0.37-0.11,0.49,0.04l7.75,9.2C123.96,264.01,123.94,264.23,123.79,264.36z"/>
	<path class="st84" d="M153.59,266.71c-1.97-1.97-5.14-6.57-7.64-15.13c-3.27-11.2-7.17-13.85-10.89-15.46
		c0.3-0.01,0.6,0.01,0.9,0.05c3.13,0.36,8.28,2.26,11.82,13.86C150.93,260.32,152.55,264.69,153.59,266.71z"/>
	<path class="st9" d="M144.98,309.7c-0.21,1.37-0.55,2.44-0.88,3.13c-0.53-1.15-0.9-3.27-0.9-5.68c0-2.31,0.33-4.34,0.83-5.52
		C144.63,303.05,145.41,306.94,144.98,309.7z"/>
	<path class="st9" d="M99.23,300.43c-0.05,0.03-0.09,0.04-0.14,0.04c-0.9,0.03-6.47-0.32-9.01-2.31c-0.57-0.45-1.05-0.9-1.44-1.34
		c1.35,0.12,2.98,0.45,4.71,0.97C95.86,298.55,98,299.53,99.23,300.43z"/>
	<path class="st9" d="M117.67,270.67c0.06,0.46,0.37,3.17-0.57,6.25c-0.41,1.34-1.09,2.87-2.16,4.52
		c1.34-3.62,2.23-11.48,2.39-12.52c0.18-1.16,4.64,11.11,5,14.42C118.95,276.62,117.81,271.33,117.67,270.67z"/>
	<g>
		<path class="st25" d="M393.18,199.17c0.29,0.49,0.51,0.81,0.51,0.81c4.44,0.41,9.37-2.74,8.41-6.39c-0.4-1.54-1.16-2.24-1.91-2.55
			c-0.33-0.16-0.68-0.21-0.97-0.22c-0.6-0.03-1.05,0.13-1.05,0.13s-3.91,1.5-5.5,3.07c-0.3,0.29-0.52,0.57-0.62,0.86
			C391.61,196.13,392.54,198.07,393.18,199.17z"/>
		<path d="M393.18,199.17c0.29,0.49,0.51,0.81,0.51,0.81c4.44,0.41,9.37-2.74,8.41-6.39c-0.4-1.54-1.16-2.24-1.91-2.55
			c0.38,0.89,1.41,3.23-0.53,4.77c-2.58,2.05-4.42,1.43-5,0.66C394.66,196.48,393.94,197.47,393.18,199.17z"/>
		<path class="st15" d="M389.62,207.84c0.24,0.41,5.54-0.54,5.73-1.22c0.14-0.52-0.52-5.52-1.26-7.81c-0.21-0.65-0.41-1.1-0.62-1.15
			c-0.08-0.02-0.18-0.02-0.29,0.02c-1.07,0.37-3.23,3.45-3.23,3.45c0.08,0.29,0.11,0.65,0.13,1.08c0.02,0.67-0.05,1.5-0.14,2.29
			C389.76,206.09,389.49,207.62,389.62,207.84z"/>
		<path class="st9" d="M390.08,202.21c0.02,0.67-0.05,1.5-0.14,2.29c0.4-0.75,0.99-1.5,1.7-2.16c1.22-1.11,1.45-2.91,1.59-3.23
			c0.11-0.24,0.49-0.08,0.86-0.3c0.13-0.06,0.25-0.19,0.37-0.4c0,0,0.41-0.92-0.25-1.43c-0.29-0.22-0.57-0.14-0.94,0.16
			c-0.49,0.37-1.16,1.1-2.24,1.92c-1.89,1.46-1.83,1.27-2.69,3.72c-0.02,0.03-0.02,0.05-0.02,0.08
			C388.87,202.81,389.49,202.58,390.08,202.21z"/>
		<path class="st15" d="M386.88,202.5c0.4,0.32,0.89,0.43,1.43,0.37c0.56-0.05,1.18-0.29,1.77-0.65c1.4-0.86,2.7-2.5,3.09-4.41
			c0.02-0.05,0.02-0.08,0.02-0.13c0.03-0.17,0.06-0.37,0.08-0.54c0.4-3.28-0.8-6.59-1.15-6.76c-0.37-0.17-5.47-1.94-5.47-1.94
			c-0.02,0.03-0.03,0.08-0.03,0.11c-0.25,0.68-0.46,1.38-0.64,2.05C384.51,196.2,385.32,201.25,386.88,202.5z"/>
		<path class="st15" d="M393.13,194.92c0.85-1.01,2.22-0.49,2.16,0.61c-0.06,1.1-0.67,2.71-1.77,2.8s-2.1-0.64-1.74-1.31
			C392.15,196.35,393.13,194.92,393.13,194.92z"/>
		<path class="st9" d="M385.97,190.6c0.73-0.61,4.53,1.53,6.24,2.72c0,0-3.98-4.23-5.6-4.77
			C386.36,189.23,386.15,189.93,385.97,190.6z"/>
		<path class="st25" d="M386.39,189.61c2.02,1.07,3.63,1.73,4.98,3.05c0.56,0.56,1,1,1.3,1.35c0.43,0.48,0.62,0.73,0.62,0.73
			s2.02-2.21,2.7-2.72c0.67-0.52,3.2-1.1,3.2-1.1s0.02-0.03,0.03-0.11c0.27-0.73,1.65-5.14-1.73-6.6c-0.02-0.02-0.05-0.02-0.06-0.03
			c-3.69-1.51-5.76,0.65-5.76,0.65s-2.59-4.82-5.79-3.29c-0.64,0.3-1.07,0.75-1.35,1.29C383.37,185.05,384.78,188.75,386.39,189.61z
			"/>
		<path class="st15" d="M359.55,221.19c0,0.41,3.29,2.15,6.35,2.15c2.86,0,5.12-1.54,6.41-1.22c0.45,0.11,0.97,0.27,1.46,0.43
			c0.72,0.21,1.38,0.41,1.69,0.41c0.1,0,0.16-0.02,0.17-0.06c0.08-0.14-0.3-0.91-0.68-1.59c-0.02-0.05-0.03-0.1-0.06-0.13
			c-0.06-0.11-0.13-0.22-0.18-0.33c0-0.03-0.02-0.05-0.03-0.06c-0.18-0.27-0.3-0.49-0.37-0.6c-0.03-0.05-0.05-0.08-0.05-0.08
			C372.36,219.18,359.55,220.77,359.55,221.19z"/>
		<path class="st9" d="M373.77,222.54c0.72,0.21,1.38,0.41,1.69,0.41v-0.06c0-0.45-0.25-1.05-0.51-1.59
			c-0.02-0.05-0.03-0.1-0.06-0.13c-0.06-0.13-0.11-0.24-0.18-0.33c0-0.03-0.02-0.05-0.03-0.06c-0.19-0.37-0.35-0.62-0.35-0.62
			s-0.02,0-0.02,0.02C373.9,220.45,374.3,222.13,373.77,222.54z"/>
		<path class="st85" d="M383.77,222.61c-2.92-1.52-9.2-2.96-9.5-2.51c-0.3,0.44,0.06,2.21,0.37,2.76c0.3,0.55,8.16,5,8.65,5.06
			C383.77,227.97,383.77,222.61,383.77,222.61z"/>
		<g>
			<g>
				<path class="st83" d="M357.82,224.92h18.34c0.24,0,0.43-0.19,0.43-0.43l0,0c0-0.24-0.19-0.43-0.43-0.43h-18.34
					c-0.24,0-0.43,0.19-0.43,0.43l0,0C357.39,224.73,357.58,224.92,357.82,224.92z"/>
				<path class="st83" d="M346.73,209.89l10.75,14.86c0.14,0.19,0.4,0.23,0.6,0.1l0,0c0.19-0.14,0.23-0.4,0.1-0.6l-10.75-14.86
					c-0.14-0.19-0.4-0.23-0.6-0.1l0,0C346.63,209.43,346.59,209.7,346.73,209.89z"/>
			</g>
		</g>
		<path class="st15" d="M353.09,222.6c0.32,1.19,0.99,3.32,3.69,4.53c0,0,0,0,0.02,0c0.81,0.37,1.81,0.64,3.05,0.78
			c0,0,0.59-1.19,0.73-2.02c0.05-0.18,0.06-0.33,0.05-0.46c-0.03-0.22-0.21-0.41-0.48-0.57c-0.06-0.03-0.13-0.06-0.19-0.1
			c-0.02,0-0.02,0-0.02,0c-0.57-0.3-1.4-0.48-2.07-0.51c-0.02,0.02-0.02,0.02-0.03,0c-0.02,0.02-0.02,0.02-0.03,0h-0.02
			c-0.76-0.03-2.99-3.23-4.37-5.15c-0.02-0.02-0.02-0.03-0.02-0.03c-0.59-0.81-1.03-1.4-1.15-1.4
			C351.9,217.67,352.68,221.06,353.09,222.6z"/>
		<path class="st15" d="M392.91,313.21c-0.06,0.67,5.06,1.16,4.88-0.06c-0.11-0.68,0.37-4.53,0.76-8.3c0,0,0,0,0-0.02
			c0.25-2.32,0.46-4.6,0.48-6.08c0-0.37-0.02-0.7-0.03-0.95c0,0-0.38,0.41-0.94,1.02c-0.32,0.35-0.68,0.76-1.08,1.19
			c-1.18,1.34-2.5,2.93-2.78,3.64c-0.38,0.91-0.81,4.66-1.07,7.21c-0.02,0.06-0.03,0.1-0.02,0.11v0.02
			C393.01,312.13,392.93,313,392.91,313.21z"/>
		<path class="st15" d="M369.14,304.06c0.02,0.02,0.02,0.02,0.02,0.02c0.22,1.34,0.4,2.34,0.41,2.61c0.06,0.92,5.12,0.37,4.58-1.27
			c-0.29-0.84-0.46-4.8-0.62-9.02c-0.08-1.94-0.14-3.93-0.24-5.69c-0.08-1.88-0.18-3.5-0.3-4.55c0,0-4.88,8.29-5.12,9.02
			C367.7,295.7,368.6,300.82,369.14,304.06z"/>
		<path class="st86" d="M377.88,316.2c0,0.21,0.89,0.73,2.12,1.34c2.2,1.07,5.49,2.37,6.84,2.55c1.81,0.24,9.02-0.73,11.34-1.7
			c0.35-0.14,0.6-0.3,0.68-0.45c0.64-1.1-0.54-4.68-1-5.44c-0.14-0.22-4.31,0.32-4.76,0.17c-0.4-0.11-4.2,1.24-7.06,1.91
			c-0.52,0.13-1.02,0.22-1.45,0.29c-2.51,0.37-5.95,0.67-6.6,1.16C377.91,316.09,377.88,316.14,377.88,316.2z"/>
		<path class="st86" d="M356.26,312.3c0,0.16,0.59,0.37,1.48,0.59c0.02,0,0.02,0,0.02,0c2.35,0.59,6.78,1.24,8.19,0.97
			c1.65-0.3,7.62-3.2,9.62-4.53c0.4-0.27,0.64-0.48,0.67-0.59c0.22-0.73-1.4-3.87-2.24-4.2c-0.22-0.1-4.02,1.29-4.71,1.61
			c-0.6,0.29-4.5,3.29-6.17,4.18c-0.21,0.11-0.37,0.19-0.49,0.24c-1.03,0.32-5.03,0.97-6.09,1.5
			C356.36,312.14,356.26,312.22,356.26,312.3z"/>
		<path class="st9" d="M393.1,310.98h0.02c1.62-0.35,4.82-7.3,5.15-7.3c0.22,0,0.24,0.7,0.29,1.15c0.25-2.32,0.46-4.6,0.48-6.08
			c-0.21-0.13-0.51-0.11-0.97,0.06c-0.03,0-0.06,0.02-0.1,0.03c-0.3,0.13-0.64,0.54-0.99,1.16c-1.62,2.83-3.56,9.81-3.85,10.85
			c-0.02,0.06-0.03,0.1-0.02,0.11C393.1,310.98,393.1,310.98,393.1,310.98z"/>
		<path class="st9" d="M369.14,304.06c0,0.02,0,0.02,0,0.02h0.02c0.84,0.14,3.23-5.01,3.72-6.92c0.22-0.84,0.45-0.92,0.65-0.76
			c-0.08-1.94-0.14-3.93-0.24-5.69C371.9,291.29,369.22,303.68,369.14,304.06z"/>
		<path class="st87" d="M385.24,249.66c0,0.91,0.45,3.28,1.08,6.3c1.07,5.07,2.67,12.01,3.66,16.97c1.35,6.71,2.18,29.3,2.61,36.3
			c0,0.02,0,0.02,0,0.02c0.08,1.24,0.14,1.99,0.21,2.07c0.37,0.49,1.21-0.73,5.23-8.76c4.02-8.05,1.7-20.47,0.97-24.13
			c-0.73-3.66-0.37-25.72-1.34-31.81c0,0-7.06-7.56-9.75-7.06C385.24,240.04,385.24,247.23,385.24,249.66z"/>
		<path class="st88" d="M386.32,255.96c1.07,5.07,2.67,12.01,3.66,16.97c1.35,6.71,2.18,29.3,2.61,36.3
			c1.22-4.39,0.49-16.5,1.07-24.67c0.67-9.34-1.91-12.79-3.31-19.88c-1.4-7.08,0.27-8.81,2.7-13.57
			C392.72,251.28,388.61,253.57,386.32,255.96z"/>
		<path class="st89" d="M369.06,304.43c0.54,0.1,2.27-4.14,3.93-9.89c1.64-5.76,1.46-13.62,1.18-18.83
			c-0.27-5.2-1.64-9.32-1.64-9.32s27.09-12.46,25.01-25.5c0,0-12.12-3.74-13.22-2.91c-0.13,0.1-0.41,0.4-0.86,0.89
			c-1.16,1.32-3.36,3.96-5.84,7.19c-5.17,6.7-11.63,15.91-12.95,20.98C362.48,275.43,368.51,304.35,369.06,304.43z"/>
		<path class="st90" d="M377.62,246.05c6.63-5.34,13.38,0.1,18.15,2.39c0,0-8.54-8.41-12.31-9.58
			C382.3,240.18,380.1,242.82,377.62,246.05z"/>
		<path class="st91" d="M382.68,236.78c-0.73,2.1-2.2,4.2-1.1,4.47c1.1,0.29,7.49,1.83,11.52,5.12c2.13,1.75,3.25,3.42,3.94,4.71
			c0.62,1.16,0.94,2.04,1.35,2.42c0.91,0.83-0.46-8.86-0.83-18.37c-0.33-8.54,1.5-10.51,2.13-17.15c0.06-0.73,0.13-1.53,0.16-2.4
			c0.37-8.69-3.34-9.91-4.17-9.96c-6.63-0.38-11.47,3.37-13.93,9.23c-1.3,3.1-0.76,8.49-0.08,13.19c0.45,2.96,0.94,5.63,1.07,7.29
			C382.79,235.98,382.78,236.49,382.68,236.78z"/>
		<path class="st92" d="M381.68,228.03c0.45,2.96,0.94,5.63,1.07,7.29c1.51-2.72,3.66-2.74,8.8-8.29
			c6.81-7.37,6.16-13.33,4.28-15.51C395.82,211.52,386.83,222.25,381.68,228.03z"/>
		<path class="st9" d="M356.8,227.14c0.81,0.37,1.81,0.64,3.05,0.78c0,0,0.59-1.19,0.73-2.02c-0.17-0.46-0.35-0.84-0.43-1.03
			c-0.05-0.1-0.06-0.14-0.06-0.14c-0.05,0.02-0.1,0.02-0.13,0.05c-0.02,0-0.02,0-0.02,0c-0.72,0.3-0.68,2.15-1.17,2.55
			C358.54,227.52,357.72,227.33,356.8,227.14z"/>
		<path class="st93" d="M394.59,210c-7.76-5.37-12.52,15.78-12.52,15.78s-1.65-0.88-7.04-0.79c-5.39,0.09-14.99-0.64-15.17-0.27
			c-0.18,0.37-1.28,2.28,0,3.2c1.28,0.91,19.47,5.58,23.31,4.39C387,231.11,401.99,215.11,394.59,210z"/>
		<path class="st9" d="M353.43,219.1c0.25,0.67,0.63,1.55,1.06,2.63c0.73,1.83,1.94,2.57,3.31,2.52
			C357.04,224.22,354.81,221.03,353.43,219.1z"/>
		<path class="st9" d="M352.63,217.8c0.05,0.06,0.19,0.24,0.4,0.49C352.89,218.05,352.76,217.88,352.63,217.8z"/>
		<path class="st92" d="M395.39,232.27c0.84,6.67,2.85,17.6,1.66,18.8c0.62,1.16,0.94,2.04,1.35,2.42
			c0.91,0.83-0.46-8.86-0.83-18.37c-0.33-8.54,1.5-10.51,2.13-17.15C398.43,223.03,394.65,226.37,395.39,232.27z"/>
		<path class="st26" d="M379.99,317.54c2.2,1.07,5.49,2.37,6.84,2.55c1.81,0.24,9.02-0.73,11.34-1.7
			c-4.06-0.35-10.13,0.48-11.61,0.05C385.4,318.09,381.68,317.52,379.99,317.54z"/>
		<path class="st26" d="M357.75,312.89c2.35,0.59,6.78,1.24,8.19,0.97c1.65-0.3,7.62-3.2,9.62-4.53c-4.29-0.19-8.24,3.4-10.18,3.4
			C363.74,312.73,359.41,312.57,357.75,312.89z"/>
		<path class="st27" d="M377.99,316.02c0.45,0.1,1.07,0.19,1.86,0.29c3.37,0.4,4.58-0.72,6.19-1.73c-0.52,0.13-1.02,0.22-1.45,0.29
			C382.08,315.23,378.64,315.53,377.99,316.02z"/>
		<path class="st27" d="M356.53,312.06c0.32,0.05,0.76,0.08,1.34,0.08c2.94,0,4.12-0.73,5.25-1.81c-0.21,0.11-0.37,0.19-0.49,0.24
			C361.59,310.89,357.6,311.54,356.53,312.06z"/>
		<path class="st28" d="M384.53,182.83c2.04-0.41,4.77,3.66,6.95,3.07c2.32-0.62,2.29-1.75,5.2-1.69c0.25,0,0.51,0,0.75-0.03
			c-3.69-1.51-5.76,0.65-5.76,0.65s-2.59-4.82-5.79-3.29C385.24,181.85,384.81,182.29,384.53,182.83z"/>
	</g>
	<g>
		<g>
			<path class="st94" d="M329.07,150.91v35.51c0,0.52-0.42,0.94-0.94,0.94H274.5c-0.52,0-0.94-0.42-0.94-0.94v-35.51
				c0-0.52,0.42-0.94,0.94-0.94h53.63C328.65,149.97,329.07,150.39,329.07,150.91z"/>
			<path class="st95" d="M308.56,187.32v0.05h-34.34c-0.37,0-0.66-0.3-0.66-0.66v-5.14c0-0.16,0.06-0.32,0.16-0.44l8.05-9.25
				l5.27-6.05c0.26-0.3,0.72-0.31,0.99-0.02l3.56,3.73l2.52,2.65l0.43,0.44l0.49,0.51l1.77,1.86l0.42,0.44l0.76,0.79L308.56,187.32z
				"/>
			<path class="st96" d="M329.07,177.28v9.39c0,0.39-0.31,0.7-0.7,0.7H288.6c-0.59,0-0.92-0.67-0.56-1.14l6.27-8.06l0.14-0.18
				l2.35-3.01l0.15-0.18l3.65-4.68l10.24-13.15c0.28-0.35,0.81-0.36,1.1-0.02l5.23,6.12l11.74,13.76
				C329.01,176.95,329.07,177.11,329.07,177.28z"/>
			<circle class="st3" cx="295.88" cy="158.01" r="2.96"/>
			<path class="st96" d="M309.31,187.37c-0.05,0.02-0.1,0.02-0.15,0.02l-0.6,0.02v-0.04h-24.98l9.79-13.18l1.17-1.57l3.02-4.06
				c0.21-0.29,0.62-0.34,0.9-0.12l2.13,1.68l0.57,0.44c0.07,0.05,0.13,0.12,0.17,0.2l0.41,0.77l7.96,14.93
				C309.91,186.83,309.7,187.27,309.31,187.37z"/>
			<path class="st3" d="M316.17,167.08c0.06,1.34-3.76-3.69-4.65-4.2c-0.89-0.5-4.07,8.6-5.16,9.36c-1.08,0.76-2.1-2.42-3.5-1.59
				c-0.34,0.2-0.72,0.5-1.12,0.89c-1.25,1.16-2.67,3-3.34,4.21c-0.15,0.28-0.3,0.43-0.43,0.48c-0.28,0.12-0.51-0.25-0.76-0.79
				c-0.09-0.19-0.18-0.41-0.28-0.63c-0.18-0.44-0.39-0.89-0.64-1.23c-0.33-0.44-0.75-0.59-1.27-0.44c-0.47,0.13-1.02,0.49-1.66,1.06
				l1.17-1.57l3.02-4.06c0.21-0.29,0.62-0.34,0.9-0.12l2.13,1.68l10.24-13.15c0.28-0.35,0.81-0.36,1.1-0.02l5.23,6.12
				c-0.5-0.1-1.17-0.28-1.83-0.31C314,162.68,316.1,165.74,316.17,167.08z"/>
			<path class="st3" d="M291.59,169.52c-0.97-0.24-2.21-0.73-2.62-0.73c-0.7,0-0.69,3.23-1.83,3.8c-1.15,0.57-0.77-1.88-1.6-2.58
				c-0.58-0.49-1.98,0.54-3.77,1.85l5.27-6.05c0.26-0.3,0.72-0.31,0.99-0.02L291.59,169.52z"/>
		</g>
		<path class="st15" d="M284.21,196.21c-1.34,3.8-3.8,7.09-3.74,7.31c0.04,0.2,3.64-0.85,7.65-1.15c0,0-0.75,4.29-1.01,4.49
			c-0.01,0.01-0.07,0.03-0.17,0.04c-0.43,0.07-1.58,0.16-2.94,0.21c-2.7,0.1-6.21,0.1-6.53-0.3c-0.5-0.65-1.34-1.46,0.6-6.35
			c1.91-4.79,6.35-10.19,8.15-13.39c1.81-3.2,5.5-6.4,5.8-4.61c0.3,1.81-2.7,4.41-2.8,4.71c-0.1,0.3,1.61,0.2,1.61,0.46
			c0,0.24-3.1,0.94-3.81,1.55C286.32,189.76,285.56,192.41,284.21,196.21z"/>
		<path class="st15" d="M325.75,206.81c-0.31,0.41-4.08,0.4-6.81,0.28c-1.24-0.06-2.26-0.13-2.66-0.2c-0.1-0.01-0.16-0.03-0.17-0.04
			c-0.26-0.2-1-4.49-1-4.49c3.99,0.3,7.59,1.35,7.65,1.15c0-0.27-2.42-3.54-3.75-7.31c-1.35-3.8-2.1-6.44-2.8-7.04
			c-0.7-0.61-3.8-1.31-3.8-1.55c0-0.26,1.69-0.16,1.59-0.46c-0.1-0.3-3.1-2.9-2.8-4.71c0.3-1.79,4.01,1.41,5.8,4.61
			c1.81,3.2,6.26,8.6,8.15,13.39C327.09,205.35,326.26,206.16,325.75,206.81z"/>
		<path class="st15" d="M298.58,285.5c-0.01,0.3-0.03,0.77-0.07,1.29c0,0.06-0.01,0.11-0.01,0.18c-0.11,1.45-0.31,3.26-0.5,3.51
			c-0.26,0.37-2.63,0.41-2.76-0.45c-0.06-0.34-0.06-1.24-0.04-2.23c0-0.55,0.01-1.12,0.04-1.65c0.04-0.88,0.1-1.61,0.16-1.73
			C295.57,284.08,298.58,285.5,298.58,285.5z"/>
		<path class="st15" d="M316.6,291.09c0,0-2.66,0.11-2.87-0.11c-0.2-0.21-0.06-3.06-0.01-3.97c0.01-0.06,0.01-0.11,0.01-0.16
			c0-0.1,0.06-0.18,0.16-0.26c0.01-0.01,0.04-0.01,0.06-0.03c0.07-0.06,0.16-0.1,0.26-0.13c0.03-0.01,0.06-0.03,0.09-0.04
			c0.78-0.24,2.13-0.2,2.32,0.2c0.07,0.18,0.11,0.67,0.13,1.27C316.77,289.06,316.7,290.66,316.6,291.09z"/>
		<path class="st97" d="M298.21,294.56c-0.51,0.38-3.1,0.4-4.52,0.24c-0.01,0.01-0.01,0-0.01,0c-0.55-0.07-0.92-0.17-0.94-0.28
			c-0.07-0.41,1.76-4.69,2.36-4.79c0.6-0.11,3.26-0.16,3.3,0c0.07,0.3,0.18,1.09,0.21,1.98
			C298.68,292.91,298.63,294.26,298.21,294.56z"/>
		<path class="st97" d="M317.04,294.76c-0.09,0.06-0.51,0.11-1.08,0.16c-1.32,0.11-3.4,0.14-3.53-0.11c-0.24-0.45,0.04-2.4,0.44-3.8
			c0.2-0.77,0.44-1.36,0.64-1.45c0.26-0.11,3.11-0.13,3.33,0C317.73,290.12,317.41,294.46,317.04,294.76z"/>
		<path class="st9" d="M298.74,286.85c-0.04,0.06-0.11,0.1-0.24,0.13c-0.64,0.23-3,0.08-3.3,0.82c0-0.55,0.01-1.12,0.04-1.65
			c0.91,0.07,2.64,0.48,3.27,0.64C298.66,286.82,298.74,286.85,298.74,286.85z"/>
		<path class="st9" d="M316.73,287.86c-0.1-0.85-2.29-0.63-3.01-0.85c-0.13-0.04-0.23-0.09-0.3-0.13c0,0,0.17-0.13,0.47-0.28
			c0.01-0.01,0.04-0.01,0.06-0.03c0.07-0.04,0.16-0.09,0.26-0.13c0.03-0.01,0.06-0.03,0.09-0.04c0.78-0.24,2.13-0.2,2.32,0.2
			C316.67,286.78,316.71,287.26,316.73,287.86z"/>
		<path class="st98" d="M316.7,286.6c0,0-0.01,0.01-0.03,0.01c-0.53,0.31-3.11,0.47-3.38,0.31c-0.27-0.14-3.16-24.35-3.16-24.35
			c-0.37-4.49-5.05-23.46-5.16-24.05c0-0.01,0-0.01,0-0.01c-0.09-0.45-2.49,9.14-2.93,12.6c-0.45,3.44,0.07,6.51,0.14,10.79
			c0.09,4.28-3.37,24.67-3.44,24.96c-0.07,0.3-3.38,0-3.82,0c-0.46,0,0.07-16.34,0.3-21.37c0.2-4.45-0.78-19.38,0.67-30.28
			c0.18-1.41,0.41-2.74,0.68-3.98c0,0,2.26-0.06,5.05,0.06c3.95,0.17,8.99,0.73,10.17,2.35c2.03,2.77,2.93,11.62,2.93,17.61
			c0,6,2.02,8.25,2.7,12.82C318.08,268.64,317.18,286.25,316.7,286.6z"/>
		<path class="st9" d="M318.94,207.1c-1.24-0.06-2.26-0.13-2.66-0.2c0.55-1.72,1.61-4.14,1.61-4.14
			C318.4,203.68,317.48,206.73,318.94,207.1z"/>
		<path class="st9" d="M284.3,207.1c1.65-0.67,1.61-3.94,2.26-4.34c0,0,0.23,2.64,0.33,4.15L284.3,207.1z"/>
		<path class="st99" d="M308.02,234.04c-3.55,1.04-10.8-1.81-12.14,1.17c0.18-1.41,0.41-2.74,0.68-3.98c0,0,2.26-0.06,5.05,0.06
			C304.51,232.5,308.02,234.04,308.02,234.04z"/>
		<path class="st100" d="M309.06,210.27c-1.05,3.13-1.96,8.69-1.61,10.38c0.5,2.36,5.3,12.35,4.71,13.71
			c-0.18,0.43-1.82,0.4-3.97,0.13c-4.56-0.54-11.49-2.13-11.79-2.47c-0.44-0.51,1.51-9.75,2.05-12.75c0.11-0.6,0.07-1.35-0.07-2.2
			c-0.41-2.49-1.69-5.74-2.6-7.66c-0.34-0.71-0.63-1.25-0.8-1.49c-0.01-0.01-0.03-0.04-0.03-0.04c-0.58-0.78-5.9-0.54-8.17-0.61
			c-0.63-0.01-1.01-0.04-1.02-0.13c-0.04-0.4,0.51-4.51,0.85-4.75c0.36-0.26,8.05-1.45,15.3-1.51c7.25-0.04,15.52,1.28,15.95,1.65
			c0.4,0.36-0.1,4.11-0.26,4.55c-0.16,0.45-5.9,0.7-7.29,1.05c-0.38,0.1-0.82,0.94-1.24,2.13
			C309.08,210.25,309.06,210.25,309.06,210.27z"/>
		<path class="st25" d="M305.88,196.77c0.06,0.21,0.58,1.86,1.54,3.13c1,1.35,2.5,2.1,2.5,2.1s-0.21,0.73-1.04,1.63
			c-0.74,0.8-2,1.75-4.02,2.46c-4.29,1.51-6.08,0.55-6.08,0.55s-0.91-0.45-2.06-5.1c-0.78-3.2-1.61-10.04,0.31-13.86
			c0.53-1.08,1.28-1.9,2.32-2.36c0.01,0,0.01,0,0.01,0c0.61-0.28,1.34-0.41,2.16-0.37c4.19,0.2,5.8,10.05,7.65,11.9
			c0.88,0.88,1.75,1.36,2.4,1.61h0.01c0.71,0.28,1.18,0.3,1.18,0.3s-2.2,1-4.05,0.2C306.97,198.21,305.99,196.93,305.88,196.77z"/>
		<path class="st101" d="M312.16,234.35c-0.18,0.43-1.82,0.4-3.97,0.13c1.44-1.44,1.07-5.59-0.97-9.14
			c-2.23-3.94-1.22-8.97,1.83-15.07c-1.05,3.13-1.96,8.69-1.61,10.38C307.95,223,312.76,233,312.16,234.35z"/>
		<path class="st26" d="M298.21,294.56c-0.51,0.38-3.1,0.4-4.52,0.24c1.42-0.45,4.08-1.73,4.92-3.1
			C298.68,292.91,298.63,294.26,298.21,294.56z"/>
		<path class="st26" d="M315.96,294.91c-1.32,0.11-3.4,0.14-3.53-0.11c-0.24-0.45,0.04-2.4,0.44-3.8
			C313.4,292.74,314.66,294.34,315.96,294.91z"/>
		<path class="st99" d="M316.68,286.4c0.03,0.07,0.03,0.14-0.01,0.21c-0.53,0.31-3.11,0.47-3.38,0.31
			c-0.27-0.14-3.16-24.35-3.16-24.35c-0.37-4.49-5.05-23.46-5.16-24.05c0-0.01,0-0.01,0-0.01c0.17-0.68,0.5-0.95,0.75-0.95
			c0.31,0,6.99,20.49,7.76,24.75c0.77,4.27-0.6,21.5,0.65,22.51C315.37,285.81,316.27,285.39,316.68,286.4z"/>
		<path d="M308.88,203.64c-0.74,0.8-2,1.75-4.02,2.46c-4.29,1.51-6.08,0.55-6.08,0.55s-0.91-0.45-2.06-5.1
			c-0.78-3.2-1.61-10.04,0.31-13.86C297.37,202.97,300.75,207.88,308.88,203.64z"/>
		<path class="st28" d="M311.56,198.47c-1.45,0.09-3.24-0.82-4.92-4.51c-3.53-7.72-4.96-8.47-7.29-8.63
			c0.61-0.28,1.34-0.41,2.16-0.37c4.19,0.2,5.8,10.05,7.65,11.9C310.04,197.74,310.91,198.22,311.56,198.47z"/>
		<path class="st101" d="M298.4,217.09c0-0.01-0.01-0.03-0.01-0.04c-0.41-2.49-1.69-5.74-2.6-7.66c-0.34-0.71-0.63-1.25-0.8-1.49
			c-0.01-0.01-0.03-0.04-0.03-0.04c-0.58-0.78-5.9-0.54-8.17-0.61c1.96-0.74,6.63-1.76,8.22-0.95
			C296.11,206.84,298.64,215.99,298.4,217.09z"/>
	</g>
	<path class="st25" d="M203.67,200.17c-1.07,1.54-3.21,3.13-3.21,3.13c-0.06-0.05-0.13-0.09-0.19-0.14
		c-3.56-2.58-4.17-4.5-3.42-7.24c0.03-0.09,0.05-0.17,0.08-0.25c0.87-2.49,3.53-1.81,3.53-1.81s2.19,2.42,3.04,4.38
		C203.84,199.02,203.98,199.73,203.67,200.17z"/>
	<path d="M201.9,201.42c-0.03,0.38-0.66,1.13-1.64,1.75c-3.56-2.58-4.17-4.5-3.42-7.24c0.03-0.09,0.05-0.17,0.08-0.25
		c-0.06,2.8,2.66,4.27,4.75,4.58C201.68,200.25,201.95,200.63,201.9,201.42z"/>
	<path class="st15" d="M203.52,205.24c-0.09,0.16-0.19,0.42-0.3,0.72c-0.14,0.52-0.3,1.18-0.44,1.81c-0.22,0.94-0.42,1.84-0.63,2.09
		c-0.39,0.52-4.52-2.06-4.58-2.69c-0.03-0.52,1.86-3.29,2.96-4.75c0.13-0.16,0.24-0.3,0.33-0.43c0.11-0.13,0.19-0.24,0.27-0.31
		c0,0,0.05,0.05,0.16,0.14c0.17,0.17,0.5,0.5,0.85,0.88C202.93,203.57,203.84,204.72,203.52,205.24z"/>
	<path class="st9" d="M205.44,205.98c0.09,0.61-0.22,1.16-0.66,1.61c-0.6-0.38-1.13-0.96-1.56-1.62c-0.14,0.52-0.3,1.18-0.44,1.81
		c-0.06-0.54-0.17-1.21-0.52-1.72c-0.58-0.88-0.63-2.06-0.66-2.49c-0.02-0.36-0.82-0.55-1.07-1.15c-0.05-0.06-0.06-0.14-0.08-0.22
		c0,0,0.16-0.09,0.41-0.2c0.13-0.05,0.27-0.11,0.42-0.17c0.25-0.06,0.55-0.13,0.85-0.14c0.33-0.02,0.68,0.05,0.99,0.22
		C204.28,202.55,205.18,204.34,205.44,205.98z"/>
	<path class="st15" d="M207.54,207.98c-0.98,0.35-1.94,0.16-2.75-0.39c-0.6-0.38-1.13-0.96-1.56-1.62
		c-0.63-0.98-1.04-2.16-1.09-3.26c-0.02-0.11-0.02-0.2-0.02-0.3c0-0.24,0-0.47,0.02-0.72c0.09-2.91,0.72-6.42,1.27-6.66
		c0.24-0.09,1.39-0.33,2.64-0.55c0.02,0,0.05-0.02,0.06-0.02c0.52-0.08,1.04-0.17,1.54-0.27c0.02,0,0.02,0,0.03,0
		c1.27-0.2,2.33-0.38,2.33-0.38c0.08,0.22,0.16,0.46,0.22,0.71c0.17,0.6,0.28,1.24,0.36,1.92
		C211.16,201.05,209.88,207.13,207.54,207.98z"/>
	<path class="st15" d="M202.43,199.96c-0.94-1.33-2.06-1.16-2.45-0.47c-0.39,0.69,0.43,3.56,2.4,3.39
		C204.36,202.7,202.43,199.96,202.43,199.96z"/>
	<path class="st9" d="M210.61,196.44c-0.9,0.13-1.82-0.24-2.48-0.26c-0.93-0.03-2.43,0.56-4.38,1.61c0,0,0.82-2.38,2.09-3.2
		c0.08-0.05,0.14-0.09,0.22-0.13c0.02,0,0.05-0.02,0.06-0.02c0.46-0.2,1.01-0.27,1.54-0.27c0.02,0,0.02,0,0.03,0
		c0.99,0.02,1.98,0.27,2.55,0.33C210.42,195.12,210.53,195.77,210.61,196.44z"/>
	<path class="st25" d="M210.24,195.53c-1.16,0.17-3.23-0.2-4.86,0.94c-0.69,0.49-1.35,1.16-1.89,1.76
		c-0.72,0.82-1.21,1.51-1.21,1.51l-1.83-5.89c-1.1-2.94,0.19-5.05,2.31-5.59c0.27-0.06,0.54-0.11,0.82-0.13
		c2.58-0.13,3.9,1.76,3.9,1.76s3.18-3.98,5.24-0.55c0.22,0.38,0.38,0.76,0.49,1.1v0.02C214.05,193.34,211.27,195.37,210.24,195.53z"
		/>
	<path class="st45" d="M204.9,228c3.89,0.29,13.45,1.72,15.05,0.11c0.98-0.98-6.22-2.02-7.49-2.09c-1.38-0.08-7.98-0.88-8.19-0.88
		S204.9,228,204.9,228z"/>
	<path class="st102" d="M212.09,317.48c-0.06,0.17-0.57,0.68-2.38,1.18c-0.55,0.16-1.21,0.3-2.03,0.46
		c-0.74,0.13-1.62,0.24-2.63,0.35c-5.41,0.57-11.41-1.37-12.83-1.75c-0.09-0.03-0.17-0.05-0.22-0.06c-0.87-0.17,0.08-7.21,0.6-7.98
		c0,0,3.18,0.94,3.68,1.54c0.52,0.6,3.95,2.41,5.59,3.1c1.13,0.47,5.67,1.7,8.29,2.49C211.3,317.15,212.09,317.4,212.09,317.48z"/>
	<path class="st103" d="M230.53,324.86c-0.06,0.52-0.71,1.04-1.65,1.5c-2.03,1.01-5.46,1.72-7.27,1.43
		c-2.42-0.41-9.63-2.86-11.46-4.19c-0.17-0.14-0.31-0.25-0.38-0.36c-0.5-0.79-0.42-2.75-0.06-4.58c0.11-0.66,0.27-1.31,0.46-1.86
		c0.09-0.28,0.19-0.54,0.28-0.77c0,0,1.2,0.17,2.83,0.17c1.64,0,3.18,1.72,6.78,4.28C223.67,323.07,230.71,323.24,230.53,324.86z"/>
	<path class="st104" d="M199.75,313.48c-0.2,0.35-1.62,0.74-3.51-0.2c-1.16-0.6-2.52-1.72-3.89-3.68
		c-3.56-5.15-3.12-33.07-3.12-37.08c0-4-6.3-23.8-4.01-30.31c0,0,0.46-0.06,1.15-0.14c1.46-0.17,3.97-0.39,5.41-0.13
		c0.06,0,0.13,0.02,0.19,0.03c0.3,0.06,0.69,0.66,1.13,1.64c2.19,5.04,5.56,20.38,5.54,29.21c0,1.02-0.05,1.97-0.16,2.8
		c-0.2,1.67-0.28,3.93-0.28,6.53C198.24,294.06,200.03,313.01,199.75,313.48z"/>
	<path class="st105" d="M202.99,299.99c-2.09-6.48-3.89-13.43-4.78-17.85c0.03,11.91,1.83,30.87,1.54,31.34
		c-0.2,0.35-1.62,0.74-3.51-0.2c0.39-0.36,0.94-0.77,1.5-1.24c1.64-1.39-2.03-26.76-1.7-31.48c0.31-4.67-8.17-23.28-8.85-31.1
		c0-0.09-0.02-0.17-0.02-0.25c0,0,6.8,14.12,11.47,23.61c1.68,3.45,3.1,6.3,3.81,7.62C204.06,283.48,203.45,292.19,202.99,299.99z"
		/>
	<path class="st106" d="M218.63,318.74c0,0.8-3.21,0.8-8.18-2.71c-2.24-1.59-5.04-8.52-7.46-16.04c-2.09-6.48-3.89-13.43-4.78-17.85
		c-0.38-1.87-0.61-3.29-0.63-4.03c-0.08-3.38-7.76-17.64-10.39-28.66c-0.66-2.74-0.99-5.27-0.82-7.4c0.06-0.87,0.2-1.67,0.46-2.38
		c0,0,10.64-2.09,13.28,0.03c0.02,0.02,0.02,0.02,0.02,0.02c0.19,0.16,0.33,0.31,0.42,0.52c0.58,1.2,1.46,6.44,2.33,12.56
		c1.32,9.24,2.64,20.51,3.05,22.92C206.62,279.72,218.63,317.94,218.63,318.74z"/>
	<path class="st107" d="M202.88,252.81c-0.74-1.89-2.01-6.37-3.81-7.7c-1.18-0.88-3.53-1.39-5.97-1.51
		c-2.33-0.13-4.74,0.09-6.28,0.65c0.47-0.25,2.55-1.29,4.94-2.31h0.02c2.69-1.16,5.76-2.3,7.4-2.27c0.36,0,0.66,0.03,0.93,0.05
		c0.02,0.02,0.02,0.02,0.02,0.02c0.19,0.16,0.33,0.31,0.42,0.52C201.13,241.44,202.01,246.68,202.88,252.81z"/>
	<path class="st108" d="M207.24,220.92c0,0.02,0,0.02,0,0.02c-0.2,1.87-0.72,3.89-1.59,6.01c-0.05,0.13-0.09,0.25-0.14,0.38
		c-0.38,0.93-0.71,1.94-1.01,2.97c-0.35,1.18-0.65,2.39-0.93,3.59c0,0.02,0,0.02,0,0.02c-1.05,4.58-1.65,8.89-2,9.35
		c-0.52,0.69-4.5-1.29-10.51-0.25c-3.43,0.58-4.85,1.73-5.56,2.61c-0.57,0.66-0.72,1.18-1.05,1.18c-0.77,0,0.94-9.38,3.01-15.05
		c1.86-5.1-0.02-8.8,2.63-16.31c0.28-0.83,0.65-1.72,1.05-2.66c4.12-9.27,8.07-5.71,10.64-4.11
		C205.7,211.11,207.84,215.39,207.24,220.92z"/>
	<path class="st109" d="M264.16,206.17l-13.92,27.01l-2.86,5.52c-0.19,0.36-0.63,0.52-1.02,0.37l-23.19-9.2l-8.31-3.28l-5.95-2.36
		c-0.44-0.18-0.63-0.69-0.43-1.11l3.46-6.71l1.22-2.36l12.11-23.45c0.19-0.37,0.63-0.52,1.02-0.37l37.44,14.84
		C264.19,205.22,264.38,205.74,264.16,206.17z"/>
	<path class="st110" d="M207.08,232.74c-0.71-0.6-1.61-1.45-2.58-2.44c-0.35,1.18-0.65,2.39-0.93,3.59
		c-0.16-1.02-0.35-2.2-0.61-3.26c-0.54-2.16-6.09-5.81-8.01-9c-1.92-3.2-1.48-8.66,0.79-10.58c0,0,0.74,1.21,1.87,3.04
		c1.02,1.7,2.38,3.93,3.75,6.2c0.33,0.55,0.66,1.1,0.99,1.65c1.18,1.97,2.3,3.87,3.16,5.38c0.55,0.98,1.01,1.78,1.29,2.33
		C207.33,230.69,207.35,231.76,207.08,232.74z"/>
	<path class="st15" d="M241.09,236.99c-0.55,0.19-7.33,0.49-9.98-0.77c-2.64-1.24-20.71-1.31-22.96-2.68
		c-0.27-0.16-0.63-0.44-1.07-0.8c-0.71-0.6-1.61-1.45-2.58-2.44c-1.45-1.45-3.09-3.23-4.55-5.04c-0.82-0.99-1.59-2-2.25-2.96
		c-1.09-1.57-1.87-3.02-2.11-4.11c-0.42-1.87,0.6-3.29,2.01-4.11c1.81-1.05,4.27-1.12,5.12,0.08c1.7,2.41,3.23,4.72,4.52,6.75
		c0,0.02,0,0.02,0,0.02c2.69,4.22,4.31,7.18,4.31,7.18s1.5-0.57,6.19,0.57c4.69,1.12,18.75,6.17,20.18,6.93
		C239.33,236.34,241.63,236.8,241.09,236.99z"/>
	<path class="st9" d="M214.3,226.12c-0.46,0.28-0.76,0.31-0.26,0.61c0.5,0.3,5.76,2.17,6.37,1.67
		C221.02,227.89,214.3,226.12,214.3,226.12z"/>
	<path class="st111" d="M226.25,219.83c0,0-1.29,5.86-3.08,10.04l-8.29-3.29l-0.16-0.06l-0.82-0.33l-4.97-1.97
		c-0.44-0.17-0.63-0.69-0.43-1.12l3.46-6.71c1.79-0.85,4.19-2,6.41-3.05c3.27-1.54,6.2-2.91,6.41-2.88c0.33,0.05,0.8,3.53,1.13,6.22
		c0.06,0.5,0.13,0.98,0.16,1.4C226.17,219.11,226.25,219.83,226.25,219.83z"/>
	<path class="st9" d="M214.71,226.52l-0.82-0.33c0.24-0.61,0.8-1.32,0.8-1.32C215,225.28,214.48,226.25,214.71,226.52z"/>
	<path class="st45" d="M211.81,225.96c2.25-0.39,2.85-1.41,2.94-1.13c0.09,0.28-0.37,1.77-1.72,1.81
		C211.68,226.69,211.81,225.96,211.81,225.96z"/>
	<path class="st9" d="M240.6,235.87c-1.7,0.61-11.26-2.02-8.74-2.7C234.38,232.48,240.6,235.87,240.6,235.87z"/>
	<path class="st112" d="M250.24,233.18l-2.86,5.52c-0.19,0.35-0.63,0.52-1.01,0.36l-11.08-4.39l-0.99-0.39l-11.13-4.41l-8.29-3.29
		c1.65-1.48,6.78-5.32,11.07-8.4c0.03-0.03,0.09-0.06,0.13-0.09c3.24-2.33,5.95-4.19,6.19-4.19c0.5,0.08,0.87,2.58,0.87,2.58
		s9.7-5.41,10.29-4.99c0.3,0.2,2,5.6,3.65,11.08C248.38,226.9,249.67,231.27,250.24,233.18z"/>
	<path class="st9" d="M235.27,234.53c0.02,0.05,0.02,0.09,0.02,0.14l-0.99-0.39c0.42-0.65,1.4-1.46,1.4-1.46
		C235.82,233.45,235.08,234.11,235.27,234.53z"/>
	<path class="st15" d="M231.25,233.52c2.11,0.16,4.31-0.98,4.45-0.7c0.14,0.29-1.11,1.65-2.27,1.68
		C232.28,234.54,231.25,233.52,231.25,233.52z"/>
	<path class="st53" d="M205.66,218.65c0,0.82-3.98,3.86-5.27,4.75c-0.65,0.44-0.61,1.23-0.44,1.86c-0.82-0.99-1.59-2-2.25-2.96
		C199.65,220.63,205.66,218.65,205.66,218.65z"/>
	<path class="st113" d="M196.83,210.04c4.94-2.7,9.2,7.94,9.03,8.62c-0.17,0.69-6.85,4.76-7.42,4.76
		C197.86,223.43,191.1,213.17,196.83,210.04z"/>
	<path class="st3" d="M234.23,203.91c-0.85,1.8-2.84,2.65-4.44,1.89c-1.6-0.76-2.21-2.83-1.36-4.63c0.85-1.8,2.84-2.65,4.44-1.89
		C234.47,200.04,235.08,202.11,234.23,203.91z"/>
	<path class="st3" d="M247.07,222.58c-1.21-0.71-3.54-2.81-3.54-2.81s-3.44,5.13-3.78,5.15c-0.69,0.05-2.06-5.31-2.06-5.31
		s-7.38,3.86-7.68,3.78c-1.05-0.3,1.61-5.49,1.61-5.49s-3.64,0.45-5.68,0.3c0.04-0.03,0.1-0.07,0.14-0.1
		c3.24-2.33,5.95-4.19,6.18-4.19c0.51,0.08,0.87,2.58,0.87,2.58s9.69-5.41,10.3-4.98C243.7,211.7,245.4,217.1,247.07,222.58z"/>
	<path class="st3" d="M225.91,216.69c-0.51-0.26-1.72-1.78-1.72-1.78s-1.24,1.52-1.32,1.5c-0.73-0.19-0.12-3.43-0.12-3.43
		s-2.47,0.3-4.38,0.38c3.27-1.55,6.21-2.91,6.41-2.88C225.1,210.51,225.58,213.99,225.91,216.69z"/>
	<path class="st110" d="M190.27,229.35c-0.99,2.36-5.29,14.18-4.77,16.26c-0.57,0.66-0.72,1.18-1.05,1.18
		c-0.77,0,0.94-9.38,3.01-15.05c1.86-5.1-0.02-8.8,2.63-16.31C189.78,220.7,191.25,226.99,190.27,229.35z"/>
	<path class="st26" d="M207.68,319.12c-0.74,0.13-1.62,0.24-2.63,0.35c-5.41,0.57-11.41-1.37-12.83-1.75
		c2.53-0.39,7.4,0.66,9.82,0.74C204.03,318.5,206.56,318.72,207.68,319.12z"/>
	<path class="st26" d="M228.88,326.36c-2.03,1.01-5.46,1.72-7.27,1.43c-2.42-0.41-9.63-2.86-11.46-4.19
		c3.12,0.27,10.88,3.16,12.39,2.85C223.92,326.17,227.62,326.15,228.88,326.36z"/>
	<path class="st27" d="M203.12,314.7c1.96,0.5,3.22,2.3,4.83,2.43c1.61,0.13,2.68-0.41,1.74-0.89
		C208.75,315.76,203.12,314.7,203.12,314.7z"/>
	<path class="st27" d="M222.34,321.55c1.39,0.87,3.18,2.7,4.89,2.67c1.7-0.04,3.06-0.52,2.02-1.11
		C228.21,322.52,222.34,321.55,222.34,321.55z"/>
	<path class="st28" d="M213.22,190.46c-1.29-1.23-3.56,0.46-5.38,0.35c-1.72-0.08-3.56-2.05-5.07-2.53
		c0.27-0.06,0.54-0.11,0.82-0.13c2.58-0.13,3.9,1.76,3.9,1.76s3.18-3.98,5.24-0.55C212.95,189.74,213.11,190.12,213.22,190.46z"/>
	<path class="st114" d="M447.58,149.52c-0.98-0.59-3.77-4.02-3.63-5.74c0.14-1.71,5.18-4.05,5.66-3.86
		c0.48,0.19,1.96,5.72,1.63,6.39C450.92,146.99,447.58,149.52,447.58,149.52z"/>
	<path class="st115" d="M450.84,149.15c-0.09,0.47-0.22,1.01-0.37,1.67c-0.2,0.87-0.31,1.61-0.37,2.25
		c-0.14,1.4-0.04,2.22-0.09,2.47c-0.06,0.36-5.49-0.52-5.68-1.53c-0.19-1.02,2.5-4.47,3.2-5.47c0,0,0.24-0.29,0.61-0.63
		c0.39-0.37,0.94-0.78,1.49-0.91c0.17-0.04,0.33-0.06,0.49-0.04C451.05,147.05,451.13,147.63,450.84,149.15z"/>
	<path class="st9" d="M450.84,149.15c-0.09,0.47-0.22,1.01-0.37,1.67c-0.2,0.87-0.31,1.61-0.37,2.25c-2.08-1.36-1.96-3.3-1.81-4.06
		c0.12-0.64,0.01-0.64-0.14-1.1c0.39-0.37,0.94-0.78,1.49-0.91C449.92,147.4,450.28,148.13,450.84,149.15z"/>
	<path class="st116" d="M456.27,143.15c-0.28,9.98-2.75,9.67-3.2,9.59c-0.86-0.14-3.86-1.1-4.37-2.56
		c-0.51-1.46,3.33-7.16,3.38-7.24C452.13,142.87,456.27,143.15,456.27,143.15z"/>
	<path class="st116" d="M451.09,146.1c-0.83-1.91-2.16-1.65-2.6-0.93c-0.67,1.11-0.19,2.93,1.62,3.04
		C451.93,148.33,451.09,146.1,451.09,146.1z"/>
	<path class="st117" d="M467.76,181.39c-0.07-0.1-0.34-0.5-0.67-0.89c-0.33-0.39-0.72-0.77-1-0.84c-0.27-0.06-0.7,0.1-1.14,0.26
		c-0.47,0.18-0.95,0.36-1.3,0.31c-0.47-0.07-2.14-0.46-3.19-0.82c-0.1-0.03-0.18-0.07-0.27-0.1c-0.31-0.12-0.53-0.23-0.59-0.33
		c-0.01-0.01-0.01-0.02-0.01-0.04c-0.03-0.06-0.01-0.14,0.05-0.23c0-0.01,0-0.01,0.01-0.01c0.01-0.01,0.01-0.01,0.01-0.02
		c0.13,0.02,0.26,0.05,0.41,0.07c-0.04-0.13-0.09-0.24-0.17-0.33c0.45-0.41,1.24-0.84,1.24-0.84c0.23,0.11,0.41,0.21,0.58,0.28
		c0.39,0.18,0.68,0.21,1.4-0.02c1.01-0.34,3.32-1.19,3.76-0.98c0.39,0.18,2.57,3.61,3.35,4.52c0.12,0.14,0.21,0.21,0.26,0.22
		C470.83,181.64,467.9,181.6,467.76,181.39z"/>
	<path class="st114" d="M450.55,144.74l0.06,0.54c0,0,1.72-1.03,3.63-1.37c1.58-0.29,1.94-0.02,2.03-0.1
		c0.1-0.08,0.75-2.24,0.75-3.89s-0.21-2.98-0.28-3.09c-0.08-0.11-7.13,3.09-7.13,3.09L450.55,144.74z"/>
	<path class="st118" d="M443.95,143.78c0.42-4.14,6.52-6.36,8.2-6.94c0.9-0.31,4.43-1.13,4.62,0.11c0.19,1.23-4.64,1.61-8.37,3.6
		C446.01,141.83,443.95,143.78,443.95,143.78z"/>
	<path class="st119" d="M480.27,195.95c-3.83,2.54-13.34,3.76-16.82,1.59c-0.24-0.15-0.45-0.31-0.63-0.49
		c-0.03-0.03-0.06-0.06-0.08-0.09c-0.92-1.03,0.12-1.85,1.78-2.48c2.79-1.06,7.36-1.58,7.36-1.58c2.12-0.47,4.05-0.64,5.63-0.59
		C481.46,192.45,483.19,194.01,480.27,195.95z"/>
	<path class="st9" d="M459.91,178.44l-0.24,0.26c0.13,0.02,0.26,0.05,0.41,0.07C460.04,178.64,459.99,178.53,459.91,178.44
		c0.45-0.41,1.24-0.84,1.24-0.84c0.23,0.11,0.41,0.21,0.58,0.28c-0.07,0.36-0.25,0.82-0.46,1.14c-0.13,0.21-0.28,0.36-0.41,0.39
		c-0.1,0.02-0.24,0.02-0.39,0.01c-0.09-0.01-0.18-0.02-0.26-0.05c-0.25-0.06-0.49-0.18-0.62-0.36c-0.07-0.1-0.12-0.21-0.12-0.34
		c0.06,0.01,0.12,0.02,0.18,0.03L459.91,178.44z"/>
	<path class="st120" d="M452.25,171.01c1.56,1.66,9.39,6.6,9.34,6.83c-0.05,0.23-0.95,1.54-1.71,1.59
		c-0.77,0.05-8.77,0.82-9.26-0.69S452.25,171.01,452.25,171.01z"/>
	<path class="st121" d="M452.23,187.92c-0.21,0.97-5.2,5.88-8.13,6.85c-0.63,0.21-1.17,0.23-1.54,0c-1.53-0.97-3.4-6.35-4.8-13.73
		c-0.52-2.73-0.98-5.73-1.34-8.88c-1.33-11.67,4.3-17.76,6.55-18.73c1.84-0.8,4.94-0.5,7.32,1.79c1.33,1.28,2.35,3.73,2.61,6.14
		C453.15,163.77,452.48,186.74,452.23,187.92z"/>
	<path class="st9" d="M444.1,194.77c-0.63,0.21-1.17,0.23-1.54,0c-1.53-0.97-3.4-6.35-4.8-13.73c1.96,3.81,3.72,9.68,4.73,9.54
		c1.15-0.15,5.1-2.46,6.26-2.19C449.76,188.63,446.39,193.36,444.1,194.77z"/>
	<path class="st9" d="M477.51,192.32c0.02,3.69-10.42,5.24-14.06,5.23c-0.46,0-0.8-0.02-1.01-0.08c0,0,0.11-0.18,0.31-0.5
		c0.35-0.55,0.98-1.49,1.78-2.48c2.79-1.06,7.36-1.58,7.36-1.58C474,192.44,475.93,192.26,477.51,192.32z"/>
	<path class="st122" d="M452.24,187.24c-9.8,2.63-11.59,7.6-8.67,10.59c2.92,2.99,11.78,2.65,18.07,0.5
		c6.29-2.15,18.92-7.48,20.57-10.55c1.65-3.07,0-4.72-2.99-4.91C476.23,182.67,454.81,186.55,452.24,187.24z"/>
	<path class="st116" d="M471.87,181.98c0.04,0.25-3.09,1.79-6.03,1.5c-2.93-0.29-4.33-1.4-4.87-1.55c-0.16-0.04-0.58-0.01-1.11,0.07
		c-0.24,0.04-0.5,0.07-0.77,0.12c-1.12,0.18-2.31,0.39-2.39,0.28c-0.14-0.21,2.47-3.76,2.47-3.76c0.09,0.01,0.18,0.02,0.28,0.04
		c0.06,0.01,0.12,0.02,0.18,0.03c0.01,0,0.01,0,0.01,0c0.13,0.02,0.26,0.05,0.41,0.07h0.01c0.34,0.07,0.74,0.15,1.18,0.25
		c1.07,0.24,2.37,0.56,3.69,0.9c0.72,0.19,1.44,0.38,2.14,0.57c1.19,0.33,2.3,0.64,3.14,0.9
		C471.22,181.7,471.86,181.92,471.87,181.98z"/>
	<path class="st9" d="M459.87,182c-0.16,0.02-0.33,0.05-0.5,0.07c-0.09,0.01-0.18,0.03-0.27,0.04c0.05-0.88,0.31-2.26,0.49-3.1
		c0.01-0.02,0.01-0.04,0.01-0.06c0.02-0.08,0.04-0.16,0.05-0.23c0-0.01,0-0.01,0.01-0.01v-0.02l0.02-0.02l0.01,0.01l-0.02,0.02
		c0.01,0,0.02,0,0.03,0.01c0.12,0.02,0.25,0.04,0.38,0.07h0.01c0.06,0.16,0.09,0.34,0.12,0.55c0,0.02,0.01,0.03,0.01,0.05
		C460.28,180.18,460.12,181.24,459.87,182z"/>
	<path class="st123" d="M459.37,182.07c-0.01,0.03-0.02,0.05-0.03,0.07c-0.19,0.31-12.36,2.76-15.39,0.92
		c-3.03-1.84-3.73-10.51-3.19-17.35c0.54-6.83,2.71-10.7,6.56-9.29c2.3,0.85,3.19,4.8,2.38,8.71c-0.8,3.92-2.73,12.24-2.19,12.32
		c0.54,0.07,11.29,0.69,12.01,1.07c0.06,0.03,0.11,0.08,0.15,0.14c0,0,0.01,0,0,0.01l0.01,0.01c0.01,0.01,0.01,0.02,0.01,0.02
		C460.1,179.41,459.58,181.59,459.37,182.07z"/>
	<path class="st83" d="M480.54,181.81l-15.83,1.91c-0.21,0.03-0.37,0.22-0.34,0.44l0,0c0.03,0.21,0.22,0.37,0.44,0.34l15.83-1.91
		c0.21-0.03,0.37-0.22,0.34-0.44l0,0C480.95,181.94,480.76,181.78,480.54,181.81z"/>
	<path class="st83" d="M487.93,168.02L480.26,182c-0.1,0.19-0.03,0.43,0.15,0.53l0,0c0.19,0.1,0.43,0.03,0.53-0.15l7.67-13.98
		c0.1-0.19,0.03-0.43-0.15-0.53l0,0C488.27,167.76,488.03,167.83,487.93,168.02z"/>
	<g>
		<polygon class="st124" points="384.98,90.18 423.82,79.02 420.01,84.67 		"/>
		<polygon class="st125" points="384.98,90.18 420.01,84.67 420.53,98.73 		"/>
		<polygon class="st60" points="420.53,98.73 384.98,90.18 416.11,90.12 		"/>
		<polygon class="st124" points="410.59,100.87 384.98,90.18 416.11,90.12 		"/>
		<g>
			<path class="st60" d="M478,145.63c-0.07,0-0.14-0.02-0.2-0.07c-0.15-0.11-0.18-0.33-0.07-0.48c0.81-1.1,1.55-2.26,2.19-3.43
				c0.09-0.17,0.3-0.22,0.46-0.14c0.17,0.09,0.23,0.3,0.14,0.46c-0.65,1.2-1.41,2.38-2.24,3.51
				C478.2,145.58,478.1,145.63,478,145.63z"/>
		</g>
		<g>
			<path class="st60" d="M482.2,137.64c-0.04,0-0.07-0.01-0.11-0.02c-0.18-0.06-0.27-0.25-0.21-0.43c0.44-1.3,0.8-2.62,1.04-3.93
				c0.04-0.19,0.22-0.31,0.4-0.27c0.19,0.04,0.31,0.21,0.27,0.4c-0.25,1.34-0.61,2.7-1.07,4.03
				C482.47,137.55,482.34,137.64,482.2,137.64z"/>
		</g>
		<g>
			<path class="st60" d="M483.72,128.28c-0.19,0-0.34-0.15-0.34-0.34c-0.03-1.8-0.25-3.59-0.66-5.32c-0.04-0.18,0.07-0.37,0.26-0.41
				c0.18-0.04,0.37,0.07,0.41,0.25c0.42,1.78,0.64,3.62,0.67,5.47C484.06,128.12,483.91,128.28,483.72,128.28L483.72,128.28z"/>
		</g>
		<g>
			<path class="st60" d="M481.36,118.07c-0.13,0-0.25-0.07-0.31-0.2c-0.63-1.33-1.39-2.62-2.26-3.84c-0.11-0.15-0.07-0.37,0.08-0.48
				c0.15-0.11,0.36-0.08,0.48,0.08c0.89,1.25,1.68,2.57,2.33,3.94c0.08,0.17,0.01,0.37-0.16,0.46
				C481.46,118.06,481.41,118.07,481.36,118.07z"/>
		</g>
		<g>
			<path class="st60" d="M475.52,110.17c-0.08,0-0.17-0.03-0.23-0.09c-1-0.94-2.09-1.82-3.25-2.64c-0.15-0.11-0.19-0.32-0.08-0.48
				c0.11-0.15,0.32-0.19,0.48-0.08c1.18,0.83,2.3,1.74,3.33,2.7c0.14,0.13,0.15,0.35,0.02,0.48
				C475.71,110.13,475.62,110.17,475.52,110.17z"/>
		</g>
		<g>
			<path class="st60" d="M467.94,104.84c-0.05,0-0.11-0.01-0.16-0.04c-1.42-0.77-2.93-1.49-4.47-2.15
				c-0.17-0.07-0.26-0.27-0.18-0.45c0.07-0.17,0.27-0.26,0.45-0.18c1.56,0.66,3.09,1.4,4.53,2.18c0.17,0.09,0.23,0.3,0.14,0.46
				C468.18,104.78,468.06,104.84,467.94,104.84z"/>
		</g>
		<g>
			<path class="st60" d="M458.52,100.84c-0.03,0-0.07-0.01-0.11-0.02c-2.03-0.66-4.17-1.26-6.37-1.78c-0.18-0.04-0.3-0.23-0.25-0.41
				c0.04-0.18,0.22-0.3,0.41-0.25c2.22,0.52,4.39,1.13,6.43,1.79c0.18,0.06,0.28,0.25,0.22,0.43
				C458.8,100.75,458.66,100.84,458.52,100.84z"/>
		</g>
		<g>
			<path class="st60" d="M447.31,98.09c-0.02,0-0.04,0-0.06,0c-2.36-0.39-4.72-0.67-7-0.81c-0.19-0.01-0.33-0.17-0.32-0.36
				c0.01-0.19,0.18-0.33,0.36-0.32c2.31,0.14,4.69,0.42,7.07,0.82c0.19,0.03,0.31,0.21,0.28,0.39
				C447.62,97.97,447.48,98.09,447.31,98.09z"/>
		</g>
		<g>
			<path class="st60" d="M427.98,97.43c-0.18,0-0.33-0.13-0.34-0.31c-0.02-0.19,0.12-0.35,0.31-0.37c2.6-0.22,5.24-0.33,7.81-0.32
				c0.19,0,0.34,0.15,0.34,0.34c0,0.19-0.15,0.34-0.34,0.34h0c-2.57-0.01-5.18,0.09-7.75,0.31C428,97.43,427.99,97.43,427.98,97.43z
				"/>
		</g>
	</g>
	<g>
		<g>
			<g>
				<path class="st126" d="M243.97,91.91c-1.33-2.92-4.77-4.21-7.7-2.88c-2.92,1.33-4.21,4.77-2.88,7.7
					c1.33,2.92,4.77,4.21,7.7,2.88C244.01,98.27,245.3,94.83,243.97,91.91z"/>
			</g>
			<g>
				<path class="st126" d="M224.74,93.95c-0.15,0-0.3-0.02-0.46-0.06c-0.88-0.25-1.39-1.17-1.14-2.05
					c1.37-4.82,4.78-8.78,9.35-10.85c4.64-2.11,9.93-2.04,14.51,0.19c0.82,0.4,1.17,1.39,0.77,2.22c-0.4,0.82-1.39,1.17-2.22,0.77
					c-3.69-1.79-7.95-1.85-11.69-0.15c-3.68,1.67-6.42,4.86-7.53,8.74C226.13,93.47,225.46,93.95,224.74,93.95z"/>
			</g>
			<g>
				<path class="st126" d="M215.65,87.34c-0.24,0-0.48-0.05-0.7-0.16c-0.83-0.39-1.19-1.38-0.8-2.21
					c2.85-6.06,7.79-10.93,13.9-13.71c6.19-2.81,13.17-3.32,19.67-1.41c0.88,0.26,1.38,1.18,1.13,2.06
					c-0.26,0.88-1.18,1.38-2.06,1.13c-5.73-1.68-11.9-1.24-17.36,1.25c-5.4,2.46-9.76,6.75-12.27,12.1
					C216.87,86.98,216.27,87.34,215.65,87.34z"/>
			</g>
			<g>
				<path class="st126" d="M206.68,80.79c-0.27,0-0.55-0.07-0.8-0.21c-0.8-0.44-1.09-1.45-0.65-2.26c1.46-2.65,3.26-5.16,5.33-7.45
					c3.65-4.03,8.02-7.22,13.01-9.48c4.99-2.27,10.27-3.47,15.69-3.57c3.13-0.06,6.26,0.25,9.32,0.93c0.89,0.2,1.46,1.09,1.26,1.98
					c-0.2,0.89-1.09,1.46-1.98,1.26c-2.8-0.62-5.68-0.91-8.53-0.85c-4.97,0.09-9.8,1.19-14.38,3.27c-4.57,2.08-8.58,5-11.92,8.69
					c-1.9,2.1-3.54,4.4-4.89,6.83C207.83,80.48,207.26,80.79,206.68,80.79z"/>
			</g>
		</g>
	</g>
</g>
</svg>
