<?xml version="1.0" encoding="utf-8"?>
<!-- Generator: Adobe Illustrator 26.0.3, SVG Export Plug-In . SVG Version: 6.00 Build 0)  -->
<svg version="1.1" id="Layer_1" xmlns="http://www.w3.org/2000/svg" xmlns:xlink="http://www.w3.org/1999/xlink" x="0px" y="0px"
	 viewBox="0 0 583 356" style="enable-background:new 0 0 583 356;" xml:space="preserve">
<style type="text/css">
	.st0{fill:#FFE8F4;}
	.st1{opacity:0.5;}
	.st2{fill:#F8BBD0;}
	.st3{fill:#FFFFFF;}
	.st4{fill:#9EA5F0;}
	.st5{fill:#E0A6C5;}
	.st6{fill:#9E4070;}
	.st7{fill:#FFC4E4;}
	.st8{fill:#9E4770;}
	.st9{fill:#E6E6E6;}
	.st10{fill:#A85E80;}
	.st11{fill:#E6A8C9;}
	.st12{fill:#703351;}
	.st13{fill:none;}
	.st14{fill:#B8678C;}
	.st15{fill:#FFE2D7;}
	.st16{fill:#3C3966;}
	.st17{fill:#EDC2CC;}
	.st18{fill:#F7DEE4;}
	.st19{fill:#E3839B;}
	.st20{fill:#F2AABA;}
	.st21{fill:#604A49;}
	.st22{fill:#AB7F80;}
	.st23{fill:#4D5175;}
	.st24{fill:#323963;}
	.st25{fill:#440C01;}
	.st26{fill:#CCCCCC;}
	.st27{opacity:0.4;fill:#FFFFFF;}
	.st28{fill:#FF4747;}
	.st29{fill:#4F0E01;}
	.st30{fill:#FACEBE;}
	.st31{fill:#D13989;}
	.st32{fill:#303769;}
	.st33{fill:#BAC0DE;}
	.st34{fill:#A1AADE;}
	.st35{fill:#FF69B9;}
	.st36{fill:#D63C8D;}
	.st37{opacity:0.3;fill:#FFFFFF;}
	.st38{fill:#80345C;}
	.st39{fill:#E071AF;}
	.st40{fill:#F08DC3;}
	.st41{fill:#6C70A3;}
	.st42{fill:#454A99;}
	.st43{fill:#FF879E;}
	.st44{fill:#F05975;}
	.st45{fill:#F0CDC0;}
	.st46{fill:#662648;}
	.st47{fill:#661A43;}
	.st48{fill:#A8768E;}
	.st49{fill:#D4D9FF;}
	.st50{fill:#8F4365;}
	.st51{fill:#7882E6;}
	.st52{fill:#8C96FF;}
	.st53{fill:#F2F2F2;}
	.st54{fill:#C78FAA;}
	.st55{fill:#C4CAFF;}
	.st56{fill:#CFD2FF;}
	.st57{fill:#FAFBFF;}
	.st58{fill:#B3C7FF;}
	.st59{fill:#6F88DE;}
	.st60{fill:#5D7ADE;}
	.st61{fill:#C4C4FF;}
	.st62{fill:#FFCF17;}
	.st63{fill:#FFD430;}
	.st64{fill:#FFE06E;}
	.st65{fill:#F8A99C;}
	.st66{fill:#3F3F8C;}
	.st67{fill:#4747AB;}
	.st68{fill:#859BE6;}
	.st69{fill:#EBEFFF;}
	.st70{fill:#A3BBFF;}
	.st71{fill:url(#SVGID_1_);}
	.st72{fill:url(#SVGID_00000036951969470841676820000010681577122079533224_);}
	.st73{fill:url(#SVGID_00000106832497513496739020000013211047406461357960_);}
	.st74{fill:#8BA3F0;}
	.st75{fill:#C7D6FF;}
	.st76{fill:#E6EEFF;}
	.st77{fill:#EBF1FF;}
	.st78{fill:#FFCAB0;}
	.st79{fill:#8268E6;}
	.st80{fill:#907AE0;}
	.st81{fill:#A58CFF;}
	.st82{fill:#F9ACFF;}
	.st83{fill:#204069;}
	.st84{fill:#D9D9D9;}
	.st85{fill:#8F959C;}
	.st86{fill:#A65B63;}
	.st87{fill:#DE818B;}
	.st88{fill:#DE5969;}
	.st89{fill:#F3A6B0;}
	.st90{fill:#ED7282;}
	.st91{fill:#A4AAB1;}
	.st92{fill:#7389A6;}
	.st93{fill:#B7BDC4;}
	.st94{fill:#FEE8F2;}
	.st95{fill:#E388B1;}
	.st96{fill:#EDA2C4;}
	.st97{fill:#272A42;}
	.st98{fill:#474B57;}
	.st99{fill:#222F4D;}
	.st100{fill:#F19489;}
	.st101{fill:#ED6C5C;}
	.st102{fill:#AB3D35;}
	.st103{fill:#B54740;}
	.st104{fill:#DE4B43;}
	.st105{fill:#CF3934;}
	.st106{fill:#F76862;}
	.st107{fill:#ED4642;}
	.st108{fill:#CEB2AE;}
	.st109{fill:#FFEFB3;}
	.st110{fill:#C99189;}
	.st111{fill:#F5C60A;}
	.st112{fill:#FAD74A;}
	.st113{fill:#E3C3BF;}
	.st114{fill:#562707;}
	.st115{fill:#DBA179;}
	.st116{fill:#F4B387;}
	.st117{fill:#E0A47C;}
	.st118{fill:#6B3007;}
	.st119{fill:#071B4D;}
	.st120{fill:#9893EB;}
	.st121{fill:#A49FFF;}
	.st122{fill:#173B9E;}
	.st123{fill:#B7B3FF;}
	.st124{fill:#F0F4FF;}
	.st125{fill:#9EB7FF;}
	.st126{fill:#6666BF;}
	.st127{fill:#FFE1BA;}
	.st128{fill:#FAAAAA;}
	.st129{fill:#FFA724;}
	.st130{fill:#FFF3EB;}
	.st131{fill:#FFBD5C;}
	.st132{fill:#ED5E32;}
	.st133{fill:#FFB140;}
	.st134{fill:#FFB74F;}
	.st135{fill:#FFCF8C;}
	.st136{fill:#460000;}
	.st137{fill:#5C3231;}
	.st138{fill:#D84416;}
	.st139{fill:#BF3104;}
	.st140{fill:#E85C31;}
	.st141{fill:#FA6E6E;}
	.st142{fill:#ED4840;}
	.st143{fill:#FA8787;}
	.st144{fill:#F54E4E;}
	.st145{fill:#785354;}
	.st146{fill:#916C6D;}
	.st147{fill:#540000;}
	.st148{fill:#823C3D;}
	.st149{fill:#ED7885;}
	.st150{fill:#FFB5BE;}
	.st151{fill:#F0770A;}
	.st152{fill:#FFD699;}
	.st153{fill:#281A00;}
	.st154{fill:#3B1400;}
	.st155{fill:#962904;}
	.st156{fill:#A16769;}
	.st157{fill:#A67B7C;}
	.st158{fill:#B58788;}
	.st159{fill:#8A0C01;}
	.st160{fill:#F5D1C4;}
	.st161{fill:#424242;}
	.st162{fill:#826061;}
	.st163{fill:#D43C0D;}
	.st164{fill:#F4CAAB;}
	.st165{fill:none;stroke:#FFFFFF;stroke-width:0.1801;stroke-miterlimit:10;}
	.st166{fill:#FFDBC6;}
	.st167{fill:#8F5252;}
	.st168{fill:#C27B7A;}
	.st169{fill:#C25453;}
	.st170{fill:#D69A99;}
	.st171{fill:#D1706F;}
	.st172{fill:#E34F21;}
	.st173{fill:none;stroke:#FFFFFF;stroke-width:0.1178;stroke-miterlimit:10;}
	.st174{fill:#C93000;}
	.st175{fill:#FAB650;}
	.st176{fill:#FFC46B;}
	.st177{fill:#FFCE85;}
	.st178{fill:#FFB442;}
	.st179{fill:#FFE1D6;}
	.st180{fill:#F8ABC6;}
	.st181{fill:none;stroke:#FFFFFF;stroke-width:0.3586;stroke-miterlimit:10;}
	.st182{fill:#FFCFDB;}
	.st183{fill:none;stroke:#FFFFFF;stroke-width:0.1956;stroke-miterlimit:10;}
	.st184{fill:#015DA6;}
	.st185{fill:#FAFAFF;}
	.st186{fill:#A5BFF5;}
	.st187{fill:#B3C8F5;}
	.st188{fill:#E0EAFF;}
	.st189{fill:#F9CFC2;}
	.st190{fill:#573D38;}
	.st191{fill:#6B4F4B;}
	.st192{fill:#013F73;}
	.st193{fill:#DBB19F;}
	.st194{fill:#EBBDA9;}
	.st195{fill:#31322B;}
	.st196{fill:#8F6764;}
	.st197{fill:#7A3F39;}
	.st198{fill:#BA201F;}
	.st199{fill:#A60F0E;}
	.st200{fill:#CF2D2C;}
	.st201{fill:#0A497D;}
	.st202{fill:#81B6DE;}
	.st203{fill:#BF1615;}
	.st204{fill:#5291C4;}
	.st205{fill:#0F538C;}
	.st206{fill:#D2E9F4;}
	.st207{opacity:0.9;fill:#FFFFFF;}
	.st208{fill:#2067A6;}
	.st209{fill:#DE4140;}
	.st210{fill:#C79664;}
	.st211{fill:#FFEACE;}
	.st212{fill:#6E0A40;}
	.st213{fill:#FFCCBC;}
	.st214{fill:#EAEAEA;}
	.st215{fill:#590734;}
	.st216{fill:#FFBAD1;}
	.st217{fill:#FFF5F9;}
	.st218{fill:#FFC9DA;}
	.st219{fill:#FFD9E3;}
	.st220{fill:#FFFAFC;}
	.st221{fill:#FAACA5;}
	.st222{fill:#FE9D93;}
	.st223{fill:#AD6C64;}
	.st224{fill:#D18279;}
	.st225{fill:#FEA79D;}
	.st226{fill:#FFBCB2;}
	.st227{fill:#FE9589;}
	.st228{fill:#FAA7C1;}
	.st229{fill:#FEAFA8;}
</style>
<g>
	<path class="st179" d="M204.59,17.09c-45.42,41.93-37.15,93.61-91.02,116.36C59.7,156.2,41.95,183.9,47.44,229.38
		c4.77,39.55,22.91,46.04,60.61,53.38c37.71,7.34,8.21,68.37,50.54,72.77c42.32,4.4,136.56-22.71,186.58-44
		s73.22,29.68,113.45,15.36c30.2-10.75,19.09-53.87,30.69-83.87c24.57-63.6,70.39-106.76,33.16-146.01
		c-32.89-34.67-71.45-1.11-113.77-7.71C366.37,82.68,272.16-45.29,204.59,17.09z"/>
	<path class="st2" d="M343.67,151.07l-8.72,6.22c-1.45,1.03-1.79,3.05-0.75,4.5l3.13,4.38c1.03,1.45,3.05,1.79,4.5,0.75l8.72-6.22
		c1.45-1.03,1.79-3.05,0.75-4.5l-3.13-4.38C347.14,150.38,345.12,150.04,343.67,151.07z"/>
	<path class="st180" d="M374.46,148.94l-10.52-2c-1.75-0.33-3.44,0.82-3.77,2.57l-1,5.29c-0.33,1.75,0.82,3.44,2.57,3.77l10.52,2
		c1.75,0.33,3.44-0.82,3.77-2.57l1-5.29C377.36,150.96,376.21,149.27,374.46,148.94z"/>
	<path class="st180" d="M362.09,214.74l-10.52-2c-1.75-0.33-3.44,0.82-3.77,2.57l-1,5.29c-0.33,1.75,0.82,3.44,2.57,3.77l10.52,2
		c1.75,0.33,3.44-0.82,3.77-2.57l1-5.29C364.99,216.77,363.84,215.08,362.09,214.74z"/>
	<path class="st2" d="M381.68,206.13l-8.72,6.22c-1.45,1.03-1.79,3.05-0.75,4.5l3.13,4.38c1.03,1.45,3.05,1.79,4.5,0.75l8.72-6.22
		c1.45-1.03,1.79-3.05,0.75-4.5l-3.13-4.38C385.15,205.43,383.13,205.09,381.68,206.13z"/>
	<path class="st180" d="M397.24,168.47l-6.14-8.78c-1.02-1.46-3.03-1.82-4.49-0.8l-4.41,3.08c-1.46,1.02-1.82,3.03-0.8,4.49
		l6.14,8.78c1.02,1.46,3.03,1.82,4.49,0.8l4.41-3.08C397.9,171.94,398.26,169.93,397.24,168.47z"/>
	<path class="st2" d="M341.89,206.19l-6.14-8.78c-1.02-1.46-3.03-1.82-4.49-0.8l-4.41,3.08c-1.46,1.02-1.82,3.03-0.8,4.49l6.14,8.78
		c1.02,1.46,3.03,1.82,4.49,0.8l4.41-3.08C342.55,209.66,342.91,207.65,341.89,206.19z"/>
	<path class="st2" d="M333.71,186.76l1.85-10.55c0.31-1.76-0.87-3.43-2.62-3.74l-5.3-0.93c-1.76-0.31-3.43,0.87-3.74,2.62
		l-1.85,10.55c-0.31,1.76,0.87,3.43,2.62,3.74l5.3,0.93C331.73,189.69,333.4,188.51,333.71,186.76z"/>
	<path class="st180" d="M399.7,198.68l1.85-10.55c0.31-1.76-0.87-3.43-2.62-3.74l-5.3-0.93c-1.76-0.31-3.43,0.87-3.74,2.62
		l-1.85,10.55c-0.31,1.76,0.87,3.43,2.62,3.74l5.3,0.93C397.72,201.6,399.4,200.43,399.7,198.68z"/>
	<path class="st180" d="M395.36,179.08c-4.07-18.5-22.37-30.2-40.88-26.13c-18.5,4.07-30.2,22.38-26.13,40.88
		c4.07,18.5,22.37,30.2,40.88,26.13C387.73,215.88,399.43,197.58,395.36,179.08z M364.88,200.81c-7.84,1.73-15.6-3.23-17.33-11.07
		c-1.73-7.84,3.23-15.6,11.07-17.33c7.84-1.72,15.6,3.23,17.33,11.08C377.68,191.33,372.72,199.09,364.88,200.81z"/>
	
		<ellipse transform="matrix(0.9976 -0.0687 0.0687 0.9976 -11.9525 25.2958)" class="st181" cx="361.85" cy="186.45" rx="19.39" ry="19.39"/>
	<path class="st182" d="M381.56,204.02l-4.76,3.39c-0.79,0.56-0.98,1.66-0.41,2.45l1.7,2.39c0.56,0.79,1.66,0.98,2.45,0.41
		l4.76-3.39c0.79-0.56,0.98-1.66,0.41-2.45l-1.7-2.39C383.45,203.64,382.35,203.45,381.56,204.02z"/>
	<path class="st182" d="M398.35,202.85l-5.74-1.09c-0.96-0.18-1.88,0.45-2.06,1.4l-0.55,2.88c-0.18,0.96,0.45,1.88,1.4,2.06
		l5.74,1.09c0.96,0.18,1.88-0.45,2.06-1.4l0.55-2.88C399.93,203.95,399.31,203.03,398.35,202.85z"/>
	<path class="st182" d="M391.61,238.74l-5.74-1.09c-0.96-0.18-1.88,0.45-2.06,1.4l-0.55,2.88c-0.18,0.96,0.45,1.88,1.4,2.06
		l5.74,1.09c0.96,0.18,1.88-0.45,2.06-1.4l0.55-2.88C393.19,239.84,392.56,238.92,391.61,238.74z"/>
	<path class="st182" d="M402.29,234.04l-4.76,3.39c-0.79,0.56-0.98,1.66-0.41,2.45l1.7,2.39c0.56,0.79,1.66,0.98,2.45,0.41
		l4.76-3.39c0.79-0.56,0.98-1.66,0.41-2.45l-1.7-2.39C404.18,233.66,403.08,233.48,402.29,234.04z"/>
	<path class="st182" d="M410.77,213.5l-3.35-4.79c-0.56-0.8-1.65-0.99-2.45-0.43l-2.41,1.68c-0.8,0.56-0.99,1.65-0.43,2.45
		l3.35,4.79c0.56,0.8,1.65,0.99,2.45,0.43l2.41-1.68C411.14,215.4,411.33,214.3,410.77,213.5z"/>
	<path class="st182" d="M380.59,234.07l-3.35-4.79c-0.56-0.8-1.65-0.99-2.45-0.43l-2.41,1.68c-0.8,0.56-0.99,1.65-0.43,2.45
		l3.35,4.79c0.56,0.8,1.65,0.99,2.45,0.43l2.41-1.68C380.95,235.97,381.15,234.87,380.59,234.07z"/>
	<path class="st182" d="M376.13,223.48l1.01-5.75c0.17-0.96-0.47-1.87-1.43-2.04l-2.89-0.51c-0.96-0.17-1.87,0.47-2.04,1.43
		l-1.01,5.75c-0.17,0.96,0.47,1.87,1.43,2.04l2.89,0.51C375.05,225.07,375.96,224.43,376.13,223.48z"/>
	<path class="st182" d="M412.12,229.98l1.01-5.75c0.17-0.96-0.47-1.87-1.43-2.04l-2.89-0.51c-0.96-0.17-1.87,0.47-2.04,1.43
		l-1.01,5.75c-0.17,0.96,0.47,1.87,1.43,2.04l2.89,0.51C411.04,231.57,411.95,230.93,412.12,229.98z"/>
	<path class="st182" d="M409.75,219.29c-2.22-10.09-12.2-16.47-22.29-14.25c-10.09,2.22-16.47,12.2-14.25,22.29
		c2.22,10.09,12.2,16.47,22.29,14.25C405.59,239.36,411.97,229.38,409.75,219.29z M393.13,231.14c-4.28,0.94-8.51-1.76-9.45-6.04
		c-0.94-4.28,1.76-8.51,6.04-9.45c4.28-0.94,8.51,1.76,9.45,6.04C400.11,225.97,397.4,230.2,393.13,231.14z"/>
	
		<ellipse transform="matrix(0.4639 -0.8859 0.8859 0.4639 12.0381 466.5118)" class="st183" cx="391.48" cy="223.31" rx="10.57" ry="10.57"/>
	<path class="st184" d="M351.89,99.52v198.97c0,8.14-6.66,14.81-14.81,14.81h-103.9c-1.66,0-3.21-0.53-4.48-1.43
		c-2-1.41-3.31-3.74-3.31-6.37V99.52c0-8.14,6.66-14.81,14.81-14.81h96.9C345.23,84.72,351.89,91.38,351.89,99.52z"/>
	<path class="st185" d="M233.18,306.8c-0.26,0-0.51-0.08-0.73-0.23c-0.15-0.1-0.57-0.45-0.57-1.07V99.52c0-4.58,3.73-8.31,8.31-8.31
		h96.9c4.58,0,8.31,3.73,8.31,8.31v198.97c0,4.58-3.73,8.31-8.31,8.31H233.18z"/>
	<path class="st186" d="M282.6,139.77h-40.36c-1.43,0-2.59-1.16-2.59-2.59v-22.81c0-1.43,1.16-2.59,2.59-2.59h40.36
		c1.43,0,2.59,1.16,2.59,2.59v22.81C285.19,138.61,284.03,139.77,282.6,139.77z"/>
	<path class="st186" d="M335.03,139.77h-40.36c-1.43,0-2.59-1.16-2.59-2.59v-22.81c0-1.43,1.16-2.59,2.59-2.59h40.36
		c1.43,0,2.59,1.16,2.59,2.59v22.81C337.62,138.61,336.46,139.77,335.03,139.77z"/>
	<path class="st187" d="M327.75,251.92h-78.23c-2.62,0-4.74-2.12-4.74-4.74v-41.49c0-2.62,2.12-4.74,4.74-4.74h78.23
		c2.62,0,4.74,2.12,4.74,4.74v41.49C332.5,249.8,330.37,251.92,327.75,251.92z"/>
	<path class="st70" d="M309.6,160.6h-42.22c-1.53,0-2.77-1.24-2.77-2.77l0,0c0-1.53,1.24-2.77,2.77-2.77h42.22
		c1.53,0,2.77,1.24,2.77,2.77l0,0C312.37,159.36,311.13,160.6,309.6,160.6z"/>
	<path class="st74" d="M296.62,183.1h-16.26c-1.53,0-2.77-1.24-2.77-2.77l0,0c0-1.53,1.24-2.77,2.77-2.77h16.26
		c1.53,0,2.77,1.24,2.77,2.77l0,0C299.39,181.86,298.15,183.1,296.62,183.1z"/>
	<path class="st75" d="M330.88,167.06H246.1c-0.96,0-1.73-0.77-1.73-1.73l0,0c0-0.96,0.77-1.73,1.73-1.73h84.78
		c0.96,0,1.73,0.77,1.73,1.73l0,0C332.61,166.29,331.84,167.06,330.88,167.06z"/>
	<path class="st188" d="M319.78,174.56h-62.35c-0.96,0-1.73-0.77-1.73-1.73l0,0c0-0.96,0.77-1.73,1.73-1.73h62.35
		c0.96,0,1.73,0.77,1.73,1.73l0,0C321.51,173.79,320.73,174.56,319.78,174.56z"/>
	<path class="st188" d="M322.89,268.78h-68.58c-0.96,0-1.73-0.77-1.73-1.73l0,0c0-0.96,0.77-1.73,1.73-1.73h68.58
		c0.96,0,1.73,0.77,1.73,1.73l0,0C324.62,268,323.85,268.78,322.89,268.78z"/>
	<path class="st188" d="M322.89,275.18h-68.58c-0.96,0-1.73-0.77-1.73-1.73l0,0c0-0.96,0.77-1.73,1.73-1.73h68.58
		c0.96,0,1.73,0.77,1.73,1.73l0,0C324.62,274.4,323.85,275.18,322.89,275.18z"/>
	<path class="st188" d="M322.89,281.58h-68.58c-0.96,0-1.73-0.77-1.73-1.73l0,0c0-0.96,0.77-1.73,1.73-1.73h68.58
		c0.96,0,1.73,0.77,1.73,1.73l0,0C324.62,280.81,323.85,281.58,322.89,281.58z"/>
	<path class="st188" d="M322.89,287.98h-68.58c-0.96,0-1.73-0.77-1.73-1.73l0,0c0-0.96,0.77-1.73,1.73-1.73h68.58
		c0.96,0,1.73,0.77,1.73,1.73l0,0C324.62,287.21,323.85,287.98,322.89,287.98z"/>
	<path class="st25" d="M340.85,30.73c3.07,0.97,2.25,4.81,1,6.45c-1.25,1.64-1.94,1.38-2.42,2.54c-0.48,1.17-3.95-1.26-3.52-2.3
		C336.33,36.37,340.85,30.73,340.85,30.73z"/>
	<path class="st189" d="M336.69,42.45c0.08,0.97,0.19,2.01,0.24,2.04c0.1,0.05,3.69-0.31,3.83-0.61c0.13-0.26-0.59-2.79-1.49-4.69
		c-0.16-0.33-0.32-0.64-0.49-0.92c-0.12-0.2-2.18,2.24-2.21,2.5C336.57,40.88,336.62,41.64,336.69,42.45z"/>
	<path class="st9" d="M336.69,42.45c0.91-0.49,2.07-1.99,2.59-3.26c-0.16-0.33-0.32-0.64-0.49-0.92c-0.12-0.2-2.18,2.24-2.21,2.5
		C336.57,40.88,336.62,41.64,336.69,42.45z"/>
	<path class="st189" d="M331.22,32.67c0.28,6.69,0.75,9.54,4.24,9.37s4.04-5.97,4.04-7.32C339.5,33.37,331.17,31.52,331.22,32.67z"
		/>
	<path class="st25" d="M339.5,35.1c-1.52-2.17-4.12-1.35-6.02-0.92c-1.9,0.42-4.34-0.05-4.49-1.5c-0.15-1.45-0.02-2.09,2.32-2.99
		c2.35-0.9,2.6-2.6,4.84-2.7c2.25-0.1,5.27,1.1,4.69,3.74C340.28,33.37,339.5,35.1,339.5,35.1z"/>
	<path class="st189" d="M313.72,62.14c0.85-0.47,2.18-0.85,3.26-1.02c0.41-0.07,0.79-0.1,1.08-0.1c0.12,0,0.22-0.03,0.31-0.08
		c0.69-0.42,0.42-2.28,0.14-2.31c-0.15-0.02-0.3-0.03-0.45-0.04c-0.31-0.02-0.62-0.03-0.94-0.03c-3,0.02-6.45,0.97-8.45,2.76
		C306.36,63.39,312.55,62.79,313.72,62.14z"/>
	<path class="st189" d="M283.61,85.06c-0.02,0.2,1.2,1.55,1.47,1.57c0.18,0.02,1.68-0.4,2.86-0.89c0.14-0.06,0.28-0.12,0.4-0.17
		c0.44-0.21,0.79-0.42,0.94-0.62c0.55-0.72-1.97-2.77-2.12-2.67c-0.17,0.12-0.36,0.24-0.55,0.38c-0.27,0.19-0.56,0.4-0.84,0.61
		C284.68,84.08,283.63,84.92,283.61,85.06z"/>
	<path class="st190" d="M276.49,82.6c0.32,0.96,1.28,2.12,2.68,2.95c2.8,1.65,4.35,1.65,5.12,1.57c0,0,0.01,0,0.02,0
		c0.76-0.08,1.11-0.5,1.11-0.5c-0.4-1.97-5.39-5.82-7.74-5.77C276.5,80.89,276.17,81.65,276.49,82.6z"/>
	<path class="st9" d="M285.76,83.28c0.25,0.77,1.36,2,2.18,2.47c0.14-0.06,0.28-0.12,0.4-0.17c0.06-0.5,0.16-1.43,0.06-1.82
		c-0.09-0.35-1.05-0.91-1.8-1.08C286.33,82.86,286.05,83.07,285.76,83.28z"/>
	<path class="st191" d="M288.31,85.58c0.97,0.45,18.59-11.93,21.84-11.93c3.24,0,5.74,3.14,15.32,8.63
		c8.3,4.75,11.71,3.92,15.93-0.52c0.59-0.62,1.19-1.31,1.83-2.07c0.07-0.08,0.14-0.17,0.21-0.25c0.06-0.06,0-0.23-0.14-0.47
		c-1.07-1.85-7.31-8.24-9.35-8.77c-0.48-0.12-1.69-0.41-3.35-0.79c-6.31-1.42-19.1-4.11-22.45-3.95
		c-4.24,0.2-21.63,17.21-21.97,17.45C285.85,83.16,287.33,85.13,288.31,85.58z"/>
	<path class="st192" d="M305.4,65.75l13.9-0.97c0.23-0.02,0.4-0.21,0.38-0.44l0,0c-0.02-0.23-0.21-0.4-0.44-0.38l-13.9,0.97
		L305.4,65.75z"/>
	<path class="st192" d="M297.12,54.55l8.29,11.2l0.66-0.49l-8.29-11.2c-0.14-0.18-0.39-0.22-0.58-0.09l0,0
		C297.02,54.11,296.98,54.37,297.12,54.55z"/>
	<path class="st9" d="M330.61,69.42c0.05,0.38,0.32,1.03,1.13,2.21c0.86,1.27,2,1.83,3.19,2.43c1.19,0.6,2.13,1.93,2.88,3.53
		c0.62,1.31,1.71,3.32,3.6,4.17c0.59-0.62,1.19-1.31,1.83-2.07c0.03-0.23,0.05-0.48,0.08-0.72c-1.07-1.85-7.31-8.24-9.35-8.77
		C333.48,70.08,332.27,69.79,330.61,69.42z"/>
	<path class="st193" d="M332.19,69.78c0.67,1.63,4.12,2.72,5.17,4.72c1.05,2,3.49,6.76,4.59,6.67c1.1-0.08,7.09-8.66,5.89-21.35
		c-1.2-12.66-5.62-17.55-5.89-17.55c-1.83,0.12-4.84,0.17-6.84,2.02c-0.6,0.56-0.97,2.15-1.16,4.23c-0.09,0.99-0.14,2.1-0.16,3.26
		c-0.08,4.44,0.33,9.63,0.83,12.17C335.51,68.56,331.51,68.15,332.19,69.78z"/>
	<path class="st9" d="M316.98,61.12c0.41-0.07,0.79-0.1,1.08-0.1c0.12,0,0.22-0.03,0.31-0.08c0.17-0.31,0.27-0.71,0.26-1.11
		c-0.02-0.49-0.29-0.92-0.57-1.24c-0.31-0.02-0.62-0.03-0.94-0.03C316.76,59.36,316.64,60.52,316.98,61.12z"/>
	<path class="st9" d="M341.75,44.68c2.13,1,0.81,7.48-1.81,10.44c-2.63,2.96-6.36,4.99-6.82,5.46c-0.47,0.47-1.93-1.17-0.9-2.88
		C333.24,55.98,341.75,44.68,341.75,44.68z"/>
	<path class="st9" d="M333.79,51.78c2.26-1.81,7.18-6.87,7.18-6.87c-1.07-0.75-3.09-0.79-5.89,2.27c-0.43,0.48-0.81,0.92-1.13,1.34
		C333.86,49.52,333.81,50.63,333.79,51.78z"/>
	<path class="st194" d="M342.5,45.64c1.37,9.69-12.08,17.15-13.23,17.11c-1.15-0.04-11.68-1.29-11.88-1.69
		c-0.2-0.39-0.45-1.52,0-2.5c0.45-0.99,8.64-0.54,9.84-0.59s7.67-10.63,9.79-12.38C339.05,43.89,342.18,43.35,342.5,45.64z"/>
	<path class="st9" d="M276.49,82.6c0.32,0.96,1.28,2.12,2.68,2.95c2.8,1.65,4.35,1.65,5.12,1.57c0,0,0.01,0,0.02,0
		c0.11-0.63-1.33-2.01-3.36-3.19C278.89,82.74,276.97,82.18,276.49,82.6z"/>
	<path class="st25" d="M352.79,224.18c0.08,0.69,0.14,1.16,0.14,1.16c2.23-1.04,5.27-3.08,5.51-4.51c0.16-0.89,0.14-2.95-0.13-4.75
		c-0.17-1.13-0.46-2.18-0.87-2.75c-0.94-1.29-3.75,3.06-4.71,4.78c-0.14,0.27-0.25,0.48-0.29,0.59
		C352.25,219.28,352.59,222.43,352.79,224.18z"/>
	<path d="M352.79,224.18c0.08,0.69,0.14,1.16,0.14,1.16c2.23-1.04,5.27-3.08,5.51-4.51c0.16-0.89,0.14-2.95-0.13-4.75
		c-0.14,0.94-0.5,2.27-1.53,2.97c-1.63,1.12-3.51,2.4-3.58,4.18C353.21,223.24,353,223.63,352.79,224.18z"/>
	<path class="st15" d="M348.34,229.26c0.25,0.47,7.01,0.65,5.83-0.5c-0.87-0.83-0.93-3.49-0.85-5.2c0.04-0.6,0.09-1.08,0.13-1.32
		c0,0-0.05,0.03-0.13,0.08c-0.72,0.43-4.21,2.52-4.3,2.74c-0.03,0.07-0.09,0.29-0.17,0.63c-0.09,0.38-0.21,0.9-0.3,1.42
		C348.35,228.06,348.22,229.03,348.34,229.26z"/>
	<path class="st9" d="M348.84,225.69c-0.09,0.38-0.21,0.9-0.3,1.42c1.26-1.17,3.49-1.36,3.91-1.72c0.36-0.34,0.55-1.1,0.86-1.83
		c0.04-0.6,0.09-1.08,0.13-1.32c0,0-0.05,0.03-0.13,0.08c0.07-0.14,0.13-0.3,0.2-0.44c-0.42-0.14-1.84-0.34-3.21,0.43
		c-0.65,0.38-1.39,1.93-1.92,3.35C348.53,225.68,348.69,225.69,348.84,225.69z"/>
	<path class="st15" d="M347.75,225.55c0.18,0.07,0.4,0.1,0.64,0.12c0.14,0.01,0.3,0.03,0.46,0.03c1.42-0.03,3.12-0.65,3.42-1.2
		c0.17-0.31,0.61-1.15,1.06-2.16c0.07-0.14,0.13-0.3,0.2-0.44c0.5-1.17,0.96-2.46,1.08-3.43c0.17-1.36-3.69-2.15-6.1-2.53h-0.01
		c-1.06-0.16-1.84-0.23-1.84-0.23c-0.07,0.3-0.13,0.65-0.17,1.04v0.01C346.11,219.77,346.5,225.14,347.75,225.55z"/>
	<path class="st15" d="M353.98,220.09c0.45-0.41,1.77-1.3,1.98,0.39c0.2,1.69-2.36,2.32-2.81,1.79
		C352.7,221.74,353.98,220.09,353.98,220.09z"/>
	<path class="st15" d="M332.82,249.52c0.47-0.39,4.52-3.65,6.69-5.53c0.55-0.47,0.98-0.86,1.2-1.08c0.08-0.08,0.12-0.13,0.14-0.17
		c0.31-0.56-3.81-4.94-3.81-4.94c-0.95,0.83-7.39,7.43-7.98,8.58C328.48,247.53,332.21,250.03,332.82,249.52z"/>
	<path class="st15" d="M346.45,311.89c0.07,1.33,1.07,5.94,1.15,6.24c0.08,0.3,3.99,0.09,4.04-0.1c0.03-0.12,0-2.11-0.09-3.73
		c-0.05-1.03-0.13-1.92-0.21-2.09c-0.09-0.18-1.06-0.27-2.1-0.31C347.91,311.85,346.45,311.89,346.45,311.89z"/>
	<path class="st15" d="M372.17,311.05c0.01,0.07,0.29,0.53,0.7,1.16c1.16,1.75,3.35,4.85,3.68,4.94c0.43,0.14,2.02-4.58,1.34-4.98
		c-0.38-0.22-1.08-1.15-1.66-2.14c0,0,0-0.01-0.01,0c-0.43-0.8-0.78-1.63-0.83-2.23c0,0-0.51,0.47-1.12,1.04
		C373.34,309.74,372.17,310.87,372.17,311.05z"/>
	<path class="st195" d="M374.97,327.57c0.35,0.07,1.32-0.73,2.36-1.98v-0.01c1.21-1.46,2.5-3.53,3.01-5.63
		c0.96-3.91,2.7-5.7,2.46-6.62c0-0.01,0-0.01-0.01-0.03c-0.3-0.91-4.78-1.51-4.99-1.36c0,0,0.05,0.8-0.43,1.81
		c-0.48,1.02-1.2,1.3-1.81,1.92c-0.57,0.59-0.16,2.7-0.07,4.93c0.01,0.14,0.03,0.3,0.03,0.44c0.03,1.33-0.38,3.17-0.63,4.56
		C374.71,326.7,374.63,327.5,374.97,327.57z"/>
	<path class="st195" d="M336.43,322.33c0.1,0.34,1.26,0.86,2.88,1.21c1.84,0.4,4.26,0.6,6.35,0.12c3.92-0.91,6.31-0.18,7.03-0.8
		c0.04-0.04,0.08-0.08,0.1-0.14c0.44-0.96-0.93-4.85-1.15-4.95c0,0-0.69,0.42-1.81,0.44c-1.12,0.03-1.69-0.48-2.53-0.76
		c-0.83-0.26-2.7,1.26-4.8,2.4c-0.23,0.13-0.51,0.25-0.78,0.37c-0.98,0.4-2.16,0.73-3.17,1.03
		C337.29,321.62,336.33,321.96,336.43,322.33z"/>
	<path class="st9" d="M372.87,312.21c1.8-0.08,1.67-1.73,3.35-2.18c-0.43-0.8-0.78-1.63-0.83-2.23c0,0-0.51,0.47-1.12,1.04
		C373.56,310.18,372.87,312.21,372.87,312.21z"/>
	<path class="st9" d="M346.62,312.81c-0.27,1.58,4.02,0.38,4.89,1.43c0.01,0.03,0.03,0.04,0.04,0.05c-0.05-1.03-0.13-1.92-0.21-2.09
		c-0.09-0.18-1.06-0.27-2.1-0.31C347.87,312.29,346.62,312.81,346.62,312.81z"/>
	<path class="st196" d="M341.56,285.98c0,2.49,4.68,26.28,5.01,27.05c0.22,0.5,2.05,0.29,3.42,0.03c0.7-0.13,1.29-0.29,1.47-0.35
		c0.53-0.22-0.12-4.13,0.43-12.28c0.55-8.15-1.63-12.61-1.41-15.64c0.21-3.04,2.16-12.16,2.16-12.16s0.04,0.1,0.13,0.31
		c0.66,1.63,3.81,9.36,4.88,12.18c1.19,3.15,14.43,27.42,14.98,27.42c0.53,0,2.71-2.76,3.09-3.91c0.38-1.13-6.56-21.33-9.16-26.44
		c-0.65-1.28-1.16-2.79-1.59-4.46c-0.81-3.18-1.33-6.96-1.97-10.9c-0.38-2.28-0.8-4.61-1.33-6.91c0,0-14.67-1.75-15.97-0.44
		c-0.25,0.25-0.55,1.24-0.86,2.71c-0.04,0.18-0.08,0.37-0.13,0.56C343.32,269.43,341.56,284,341.56,285.98z"/>
	<path class="st197" d="M350.15,312.86c-0.07,0.07-0.13,0.13-0.17,0.2c0.7-0.13,1.29-0.29,1.47-0.35c0.53-0.22-0.12-4.13,0.43-12.28
		c0.55-8.15-1.63-12.61-1.41-15.64c0.21-3.04,2.16-12.16,2.16-12.16s0.04,0.1,0.13,0.31c-0.01-0.07-0.01-0.1-0.01-0.1
		c-0.07-0.59-0.72-2.06-1.2-1.79c-0.48,0.27-4.56,12.59-4.46,15.37C347.21,289.19,352.21,310.91,350.15,312.86z"/>
	<path class="st9" d="M337.11,239.89c-0.05,1.54,2.12,2.99,2.4,4.11c0.55-0.47,0.98-0.86,1.2-1.08
		C339.97,241.27,337.11,239.89,337.11,239.89z"/>
	<path class="st198" d="M335.59,239c0.12,0.37,2.48,2.69,3.82,3.83c0.46,0.38,0.8,0.64,0.9,0.64c0.16,0,1.21-0.64,2.45-1.62
		c2.07-1.64,4.65-4.22,4.41-6.36c-0.42-3.43-1.26-6.56-1.26-6.56C341.35,229.71,335.43,238.51,335.59,239z"/>
	<path class="st199" d="M339.41,242.83c0.46,0.38,0.8,0.64,0.9,0.64c0.16,0,1.21-0.64,2.45-1.62c1.16-4.68,1.36-11.88,1.36-11.88
		C340.56,234.02,342.55,242.54,339.41,242.83z"/>
	<path class="st200" d="M345.21,260.67c0.73,0.81,16.3,1.55,16.86,0.73c0.3-0.42-0.01-2.35-0.42-4.55
		c-0.22-1.25-0.48-2.61-0.68-3.81c-0.12-0.7-0.21-1.37-0.26-1.93c-0.01-0.08-0.03-0.16-0.03-0.22c-0.13-1.63,0.51-6.35,0.78-10.91
		c0.27-4.37,0.21-8.59-1.19-9.79c-2.85-2.44-13.36-2.52-16.22-0.56c0,0-0.73,0.9-1.88,6.27
		C341.05,241.27,344.46,259.86,345.21,260.67z"/>
	
		<rect x="327.98" y="248.77" transform="matrix(0.8642 0.5032 -0.5032 0.8642 172.8851 -136.3856)" class="st201" width="22.19" height="6.56"/>
	<path class="st202" d="M345.37,260.54l-3.72-2.17c-0.74-0.43-0.98-1.37-0.56-2.11l2.64-4.53c0.43-0.74,1.37-0.98,2.11-0.56
		l3.72,2.17c0.74,0.43,0.98,1.37,0.56,2.11l-2.64,4.53C347.05,260.72,346.11,260.97,345.37,260.54z"/>
	<path class="st202" d="M373.26,279.54L373.26,279.54c-1.77-1.03-2.36-3.29-1.34-5.06l2.71-4.66c1.03-1.77,3.29-2.36,5.06-1.33l0,0
		c1.77,1.03,2.36,3.29,1.33,5.06l-2.71,4.66C377.29,279.97,375.03,280.57,373.26,279.54z"/>
	<path class="st197" d="M344.33,262.13c0.08,0.18,0.21,0.39,0.36,0.61c2.14,2.92,10.69,8.92,15.38,11.24
		c2.54,1.25,3.96,2.65,4.88,3.74c-0.81-3.18-1.33-6.96-1.97-10.9c-6.01-2.93-15.85-4.33-18.16-4.64
		C344.5,262.15,344.33,262.13,344.33,262.13z"/>
	<path class="st203" d="M357.79,256.47c1-0.05,2.65,0.12,3.86,0.38c-0.22-1.25-0.48-2.61-0.68-3.81c-2.2-0.56-5.2-0.63-5.67,0.09
		C354.7,254.07,357.79,256.47,357.79,256.47z"/>
	<path class="st204" d="M342.21,261.45l30.87,17.98c0.44,0.26,1.03,0.1,1.29-0.34l5.48-9.43c0.26-0.44,0.12-1.02-0.34-1.28
		l-20.22-11.77l-7.76-4.52l-2.89-1.68c-0.44-0.26-1.02-0.1-1.29,0.34l-1.96,3.35l-1.16,2.01l-2.36,4.05
		C341.61,260.62,341.77,261.19,342.21,261.45z"/>
	<circle class="st205" cx="303.66" cy="231.79" r="34.83"/>
	<circle class="st206" cx="303.66" cy="231.79" r="30.01"/>
	<path class="st207" d="M282.95,247.34c6.72,9.15,23.8,14.31,28.31,10.71c2.49-1.99-4.6-2.91-9.72-3.98
		c-5.13-1.07-12.77-4.05-14.91-5.43C284.48,247.26,281.92,245.95,282.95,247.34z"/>
	<path class="st207" d="M283.98,221.26c-5.26,5.66-7.94,11.02-6.41,11.39C282.95,233.94,285.43,219.7,283.98,221.26z"/>
	<path class="st207" d="M287.23,212.34c-4.21,3.15-11.45,8.08-9.06,12.37C278.97,226.14,288.33,211.52,287.23,212.34z"/>
	<path class="st208" d="M340.88,256.18c0.57,0.5,1.85,0.26,3.35-0.08c1.56-0.35,3.38-0.83,4.93-0.73c2.62,0.17,7.35,0.6,10.13,1.24
		l-7.76-4.52c-0.33,0.03-0.61,0.07-0.87,0.1c-1.13,0.2-3.27,1.04-5.27,1.9C343.03,255.13,340.88,256.18,340.88,256.18z"/>
	<path class="st203" d="M359.17,246.61c0.82,1.34,1.19,3.48,1.54,4.5c-0.01-0.08-0.03-0.16-0.03-0.22
		c-0.13-1.63,0.51-6.35,0.78-10.91c-2.49-3.95-6.07-8.93-6.07-8.93C353.43,235.09,358.07,244.78,359.17,246.61z"/>
	<path class="st15" d="M335.34,254.15c0,0.43,1.15,2.23,2.99,2.33c1.85,0.12,4.48,0.22,6.54-1.08c2.07-1.3,5.16-0.7,9.35-0.44
		c4.18,0.27,13.26-0.59,14.12-1.56c0.7-0.78,0.5-4.2-1.51-9.44c-0.4-1.07-0.89-2.2-1.46-3.43c-0.1-0.23-0.22-0.47-0.34-0.72
		c0,0-7-0.27-7,0.76c0,0.29,0.46,1.07,1.11,2.05c0.05,0.08,0.1,0.14,0.14,0.22c1.75,2.54,4.67,6.21,4.67,6.21s-2.06-0.48-6.24,0.22
		c-4.18,0.7-11.35,2.71-16.19,2.83C340.2,252.12,335.34,253.72,335.34,254.15z"/>
	<path class="st15" d="M345.08,251.92c-0.58-0.46-3.32-0.39-3.67-0.62c-0.35-0.22-1.12-1.04-1.43-0.96
		c-0.31,0.08,0.2,1.95,1.45,2.07C342.67,252.54,345.08,251.92,345.08,251.92z"/>
	<path class="st9" d="M346.47,216.74v0.01c0.2,0.34,0.43,0.65,0.72,0.87c0.91,0.73,3.61,0.27,5.37,0.25c0,0-2.23-1.11-4.07-1.94
		h-0.01c-1.06-0.16-1.84-0.23-1.84-0.23C346.58,215.99,346.51,216.34,346.47,216.74z"/>
	<path class="st25" d="M346.04,215.41c1.07,2.31,4.2,2.05,5.94,2.44c0.29,0.07,0.53,0.16,0.76,0.27c1.12,0.55,1.42,1.58,1.54,1.75
		c0,0,3.53-5.87,3.17-6.53c-0.12-0.22-0.44-0.43-0.93-0.61c-0.99-0.4-2.61-0.72-4.28-0.86c-2.46-0.22-5.42-2.54-6.05-2.48
		c-0.04,0-0.09,0.03-0.13,0.07C345.49,209.93,345.04,213.27,346.04,215.41z"/>
	<path class="st9" d="M359,242.66c0.07,0.05,0.16,0.1,0.27,0.17c1,0.47,3.37,0.44,5.28,0.07c1.02-0.2,1.8,0.62,2.27,1.05
		c-0.4-1.07-0.89-2.2-1.46-3.43c-1.85,0.27-5.5,1.79-6.23,2.09C359.04,242.65,359,242.66,359,242.66z"/>
	<path class="st209" d="M360.07,230.07c2.04,0.94,6.94,11.52,6.21,11.8c-0.73,0.29-6.82,1.22-7.22,0.98
		c-0.41-0.24-4.2-7.48-4.07-10.54C355.1,229.26,358.4,229.3,360.07,230.07z"/>
	<path class="st26" d="M339.31,323.54c1.84,0.4,4.26,0.6,6.35,0.12c3.92-0.91,6.31-0.18,7.03-0.8c0.04-0.04,0.08-0.08,0.1-0.14
		c-2.16,0.4-3.7-1.23-6.9-0.66C343.63,322.46,340.81,322.92,339.31,323.54z"/>
	<path class="st26" d="M377.33,325.57c1.21-1.46,2.5-3.53,3.01-5.63c0.96-3.91,2.7-5.7,2.46-6.62c0-0.01,0-0.01-0.01-0.03
		c-1.32,1.33-3.35,3.3-4.15,6.44C377.98,322.39,377.59,324.3,377.33,325.57z"/>
	<path class="st27" d="M338.06,322.02c1.59,0.21,3.32-0.9,3.66-1.8c-0.98,0.4-2.16,0.73-3.17,1.03
		C337.8,321.61,337.4,321.94,338.06,322.02z"/>
	<path class="st27" d="M374.89,325.6c0.13,0.2,0.31,0.27,0.56,0.22c1.5-0.34,0.86-3.68,0.04-5.23c0.01,0.14,0.03,0.3,0.03,0.44
		C375.54,322.37,375.14,324.21,374.89,325.6z"/>
	<path class="st28" d="M346.07,209.45c0.07,0.93,0.83,2.62,2.85,3.26c1.99,0.63,5.57,0.12,7.6,0.01c-0.99-0.4-2.61-0.72-4.28-0.86
		c-2.46-0.22-5.42-2.54-6.05-2.48C346.16,209.38,346.11,209.41,346.07,209.45z"/>
	<path class="st25" d="M200.52,231.51c-2.11,2.58-4.54,2.16-6.11,1.77c-1.58-0.39-5.08-2.58-2.58-5.08
		C194.33,225.7,200.52,231.51,200.52,231.51z"/>
	<path class="st210" d="M205.28,238.43c-0.19,0.31-4.3,0.73-5.07,0.39c-0.64-0.29-0.26-3.02,0.19-5.34
		c0.09-0.45,0.18-0.88,0.26-1.27c0-0.01,0-0.02,0-0.03c0.04-0.19,2.12-0.25,2.91-0.1h0c0.14,0.02,0.24,0.06,0.27,0.1
		c0.1,0.1,0.37,1,0.64,2.09C204.94,236.01,205.4,238.24,205.28,238.43z"/>
	<path class="st9" d="M204.5,234.26c-1.1-0.01-3.02-0.28-4.1-0.78c0.09-0.45,0.18-0.88,0.26-1.27c0.79-0.09,2.02-0.13,2.92-0.13h0
		c0.14,0.02,0.24,0.06,0.27,0.1C203.96,232.27,204.23,233.17,204.5,234.26z"/>
	<path class="st210" d="M200.29,221.36c5.92,1.79,8.31,7.19,6.69,10.46c-1.61,3.27-9.42,0.08-9.54-0.19
		c-0.12-0.27-1.61-4.96-1.31-6.31C196.44,223.97,199.76,221.2,200.29,221.36z"/>
	<path class="st210" d="M198.09,230.78c0,0.76-0.7,1.38-1.56,1.38c-0.86,0-1.56-0.62-1.56-1.38s0.7-1.38,1.56-1.38
		C197.4,229.39,198.09,230.01,198.09,230.78z"/>
	<path class="st25" d="M196.76,229.39c0.83,1.04,1.6,1.18,1.6,1.18s-1.38-1.47-0.58-3c0.81-1.53,4.54-3.25,4.8-4.18
		c0.26-0.93,1.08-3.08,0.31-5.08s-4.08-4.61-6.58-1.85c-2.5,2.77-1.35,3.96-1.35,3.96s-4.15-0.58-4.73,3.19
		c-0.58,3.77,1.58,4.58,1.58,4.58"/>
	<path class="st210" d="M188.05,323.07c0.02,0.08-0.15,0.49-0.41,1.03c-0.17,0.35-0.37,0.75-0.57,1.16c-0.52,1.01-1.07,1.99-1.18,2
		c-0.21,0.03-1.66-0.14-1.93-0.46c-0.23-0.26-0.28-0.56-0.13-2.84c0.01-0.18,0.03-0.37,0.04-0.58c0.02-0.33,0.05-0.7,0.08-1.1
		C184,321.76,187.99,322.81,188.05,323.07z"/>
	<path class="st210" d="M209.26,324.25c-0.08,0.42-0.18,0.92-0.27,1.39c-0.15,0.76-0.29,1.46-0.33,1.62
		c-0.08,0.38-2.47,0.98-2.74,0.72l-0.08-2.37l-0.04-1.21l-0.01-0.23c0.02-0.31,3.58-1.13,3.61-0.87
		C209.41,323.39,209.35,323.76,209.26,324.25z"/>
	<path class="st9" d="M187.64,324.1c-0.17,0.35-0.37,0.75-0.57,1.16c-1.04-0.06-2.37-0.69-3.23-1.29c0.01-0.18,0.03-0.37,0.04-0.58
		c0.76,0.09,1.91,0.24,2.79,0.41C187.03,323.86,187.37,323.98,187.64,324.1z"/>
	<path class="st9" d="M209.26,324.25c-0.08,0.42-0.18,0.92-0.27,1.39c-0.88,0.22-2.13,0.23-3.15-0.03l-0.04-1.21
		c0.61-0.35,1.34-0.7,1.8-0.72C208.03,323.66,208.74,323.92,209.26,324.25z"/>
	<path class="st212" d="M217.01,292.22c-0.08,9.77-7.92,32.92-7.92,32.92s-2.86,0.26-3.3,0.03c-0.45-0.23,0.45-44.17,0.45-44.17
		s-18.72,43.46-18.85,43.7c-0.12,0.24-3.22-0.72-3.53-1.1c-0.3-0.37,3.92-31.62,13.18-52.53c0.24-0.54,0.48-1.08,0.73-1.61
		c0.13-0.28,0.26-0.56,0.4-0.84c0.28-0.58,8.79-1.46,13.35-1.2c1.14,0.06,2.03,0.2,2.49,0.43c0.54,0.27,1,1.22,1.38,2.65
		C216.63,275.12,217.07,284.75,217.01,292.22z"/>
	<path class="st9" d="M215.39,270.49c-0.99,0.22-2.78,0.24-4.53-0.06c-2.61-0.46-4.96,0.52-6.12,0.88c-0.96,0.3-4.99,1.08-7.71-0.25
		c0.24-0.54,0.48-1.08,0.73-1.61c3.53-0.63,10.28-1.79,13.75-2.04c1.14,0.06,2.03,0.2,2.49,0.43
		C214.56,268.11,215.01,269.07,215.39,270.49z"/>
	<path class="st213" d="M214.8,268.82c-0.86,0.35-4.83,0.45-7.08,0.63c-2.24,0.17-7.9,1.78-10.17,0.48c-0.7-0.4-1.43-3.38-2.11-7.35
		c-0.09-0.51-0.18-1.05-0.26-1.6c-1.42-8.96-2.54-21.42-2.39-21.65c0.23-0.34,4.78-3.52,18.57-3.51c0.79,0,3.14,11.2,4.14,20.56
		c0.07,0.6,0.13,1.2,0.18,1.78C216.18,263.73,216.11,268.29,214.8,268.82z"/>
	<path class="st9" d="M215.68,258.16c-0.85,0.03-1.82,0.01-2.69-0.02c-2.04-0.08-5.55-1.47-5.55-1.47s-1.15,1.68-2.13,2.45
		c-0.91,0.72-6.26,3.27-9.86,3.46c-0.09-0.51-0.18-1.05-0.26-1.6c3.56-2.09,10.72-6.21,12.63-6.72c1.62-0.44,5.27,0.95,7.7,2.12
		C215.57,256.98,215.63,257.58,215.68,258.16z"/>
	<path class="st213" d="M211.36,235.82c12.66,2.94,12.98,18.57,8.36,20.65c-4.61,2.08-13.73-0.87-13.96-1.56
		c-0.23-0.69,3.17-5.02,5.42-5.31C213.44,249.31,211.36,235.82,211.36,235.82z"/>
	<path class="st9" d="M214.1,243.56c1.5,2.76,3.03,6.47,2.15,7.31c-0.89,0.84-4.56,0.01-5.33-0.51c-0.77-0.51,2.57-1.16,3.62-1.32
		C215.57,248.89,214.1,243.56,214.1,243.56z"/>
	<path class="st210" d="M217.6,251.15c0.15,0.64-2.47,1.23-3.9,1.08c-0.78-0.08-1.69,0.02-2.41,0.19c-0.6,0.13-1.08,0.31-1.25,0.46
		c-0.39,0.33-0.27-2.6,0-2.64c0.16-0.02,0.32-0.05,0.48-0.07C215.31,249.52,217.46,250.54,217.6,251.15z"/>
	<path class="st9" d="M211.3,252.42c-0.6,0.13-1.08,0.31-1.25,0.46c-0.39,0.33-0.27-2.6,0-2.64c0.16-0.02,0.32-0.05,0.48-0.07
		C211.03,250.78,211.33,251.76,211.3,252.42z"/>
	<path class="st9" d="M207.46,255.76l0.38,0.13c1.95-0.78,3.38-3.29,3.46-3.46c0,0-0.5,0.11-0.5,0.13
		C210.8,252.78,207.46,255.76,207.46,255.76z"/>
	<path class="st214" d="M203.49,251.28c2.27-0.69,6.58-1.28,6.78-1.08c0.2,0.2-0.17,1.19-2.24,1.68
		C205.95,252.37,203.49,251.28,203.49,251.28z"/>
	<path class="st213" d="M192.81,239.33c-6.75,3.75-5.11,21.63-1.83,22.84s11.8-2.83,12.87-3.4c1.08-0.58,6.74-5.84,6.97-6.21
		c0.22-0.37-0.25-2.4-0.54-2.36c-0.29,0.04-7.07,0.9-10.76,2.92c-3.7,2.01-4.62,4.73-2.02-4.21
		C200.07,239.97,192.81,239.33,192.81,239.33z"/>
	<path class="st9" d="M194.71,247.97c-0.98,4.23-0.45,4.71,0,5.24c0.45,0.52,6.55-1.89,6.35-2.34c-0.2-0.45-4.76,1.08-5.87,1.08
		C193.94,251.95,194.71,247.97,194.71,247.97z"/>
	<path class="st210" d="M203.95,251.46c-4.66-1.99-9.31,1.38-9.23,1.75c0.07,0.35,0.91,2.49,3.44,0.77
		C200.48,252.38,203.95,251.46,203.95,251.46z"/>
	<path class="st215" d="M185.67,327.67c-0.49,0.29-1.46,0.6-3.32,0.8c-3.68,0.41-5.48-0.43-5.95-1.56
		c-0.15-0.37-0.16-0.77-0.05-1.17c0.46-1.61,7.28-1.42,9.62,1C185.97,326.74,186.45,327.2,185.67,327.67z"/>
	<path class="st215" d="M215.75,328.02c-0.02,2.03-6.51,1.8-8.34,1.43c-0.57-0.12-0.93-0.29-1.16-0.48
		c-0.56-0.45-0.32-0.99-0.32-0.99c2.96-1.8,8.7-2.97,9.73-0.43C215.72,327.72,215.76,327.88,215.75,328.02z"/>
	<path class="st25" d="M199.67,232.54c5.43,1.56,6.45,0.47,7.17-0.49c0.7-0.93,0.74-2.66,0.45-3.96c-0.29-1.3-0.83-2.07-0.83-2.07
		s0.59,1.85-0.33,3.16c-0.84,1.2-2.74,2.52-4.24,2.85C200.45,232.33,199.67,232.54,199.67,232.54z"/>
	<path class="st9" d="M194.76,253.38c0.48,0.53,1.79,1.4,3.25,0.26c1.46-1.14,3.71-1.71,4.05-1.81c0.34-0.1,1.88-0.37,1.88-0.37
		s-1.72,0.52-2.75,0.96c-1.03,0.44-1.62,0.71-2.06,0.96c-0.44,0.25-1.3,0.82-1.67,0.99c-0.15,0.07-0.69,0.27-0.9,0.27
		c-0.21,0-0.64,0.02-1.02-0.24c-0.39-0.26-0.58-0.59-0.62-0.68C194.88,253.63,194.76,253.38,194.76,253.38z"/>
	<path class="st9" d="M185.67,327.67c-0.49,0.29-1.46,0.6-3.32,0.8c-3.68,0.41-5.48-0.43-5.95-1.56c0.95-0.4,2.74-0.57,4.78-0.38
		C183.11,326.71,184.76,327.15,185.67,327.67z"/>
	<path class="st9" d="M215.75,328.02c-0.02,2.03-6.51,1.8-8.34,1.43c-0.57-0.12-0.93-0.29-1.16-0.48c0.92-0.53,2.59-1,4.52-1.23
		C212.91,327.49,214.8,327.63,215.75,328.02z"/>
	<path class="st216" d="M201,149.46l5.05,27.23c0.04,0.21-0.01,0.42-0.11,0.59c-0.11,0.2-0.32,0.35-0.57,0.4l-35.74,6.63
		c-0.28,0.05-0.55-0.04-0.73-0.22c-0.13-0.12-0.22-0.27-0.25-0.46l-5.05-27.23c-0.08-0.46,0.22-0.9,0.68-0.98l35.74-6.63
		C200.47,148.7,200.91,149,201,149.46z"/>
	<path class="st9" d="M183.77,168.37c-0.13,0.75-5.8,9.51-6.36,11.03c-0.42,1.15-4.9,3.86-7.23,4.8l-0.55,0.1
		c-0.28,0.05-0.55-0.04-0.73-0.22c1.15-2.39,11.08-14.74,12.98-17c0,0,0.35,0.09,0.74,0.25
		C183.18,167.57,183.84,167.93,183.77,168.37z"/>
	<path class="st9" d="M205.93,177.28c-0.11,0.2-0.32,0.35-0.57,0.4l-5.17,0.96c-3.28-2.39-15.43-13.53-15.43-13.53
		c4.7,1.81,17.23,9.28,17.98,9.74C203.4,175.26,205.44,176.56,205.93,177.28z"/>
	<path class="st182" d="M205.34,177.69l-35.67,6.62c-0.3,0.06-0.5-0.29-0.31-0.52l13.27-16.44l1.74-2.15
		c0.1-0.12,0.27-0.16,0.41-0.08l20.67,11.97C205.7,177.23,205.63,177.63,205.34,177.69z"/>
	<path class="st217" d="M163.95,155.91l21.03,14.01c0.28,0.19,0.66,0.12,0.86-0.16l14.65-20.63c0.13-0.18-0.03-0.43-0.25-0.39
		l-36.2,6.71C163.82,155.5,163.76,155.78,163.95,155.91z"/>
	<path class="st218" d="M173.69,168l10.24,25.73c0.08,0.2,0.08,0.41,0,0.6c-0.07,0.22-0.24,0.41-0.48,0.5l-33.77,13.44
		c-0.26,0.1-0.54,0.07-0.76-0.07c-0.15-0.09-0.27-0.23-0.34-0.4l-10.24-25.73c-0.17-0.43,0.04-0.92,0.47-1.1l33.77-13.44
		C173.02,167.36,173.51,167.57,173.69,168z"/>
	<path class="st9" d="M160.46,189.89c0.02,0.76-3.84,10.45-4.1,12.06c-0.19,1.21-4.05,4.73-6.16,6.12l-0.52,0.21
		c-0.26,0.1-0.54,0.07-0.76-0.07c0.66-2.57,8.01-16.62,9.43-19.19c0,0,0.36,0.02,0.78,0.1
		C159.73,189.22,160.45,189.45,160.46,189.89z"/>
	<path class="st9" d="M183.93,194.33c-0.07,0.22-0.24,0.41-0.48,0.5l-4.89,1.95c-3.69-1.71-17.76-10.27-17.76-10.27
		c4.96,0.86,18.7,5.75,19.53,6.06C181.05,192.84,183.31,193.71,183.93,194.33z"/>
	<path class="st219" d="M183.43,194.84l-33.71,13.42c-0.28,0.11-0.55-0.19-0.41-0.45l9.82-18.7l1.29-2.45
		c0.07-0.14,0.24-0.21,0.39-0.16l22.6,7.73C183.7,194.33,183.71,194.73,183.43,194.84z"/>
	<path class="st220" d="M138.6,181.52l23.35,9.66c0.31,0.13,0.67-0.01,0.81-0.32l10.37-23.08c0.09-0.2-0.11-0.41-0.32-0.33
		l-34.21,13.62C138.39,181.14,138.39,181.43,138.6,181.52z"/>
	<circle class="st221" cx="265.27" cy="344.56" r="3.98"/>
	<g>
		<g>
			<path class="st221" d="M255.63,346c-0.04,0-0.08,0-0.12-0.01c-0.62-0.06-1.08-0.62-1.01-1.25c0.35-3.41,2.18-6.48,5-8.42
				c2.87-1.98,6.45-2.56,9.8-1.6c0.6,0.17,0.95,0.8,0.78,1.4c-0.17,0.6-0.8,0.95-1.4,0.78c-2.7-0.77-5.58-0.3-7.89,1.29
				c-2.28,1.56-3.75,4.04-4.03,6.78C256.7,345.56,256.21,346,255.63,346z"/>
		</g>
	</g>
	<g>
		<g>
			<path class="st221" d="M248.73,342.62c-0.1,0-0.2-0.01-0.3-0.04c-0.61-0.16-0.96-0.79-0.8-1.39c1.2-4.42,3.94-8.29,7.73-10.89
				c3.83-2.63,8.47-3.8,13.08-3.29c0.62,0.07,1.07,0.63,1,1.25c-0.07,0.62-0.64,1.07-1.25,1c-4.06-0.45-8.16,0.59-11.55,2.91
				c-3.34,2.3-5.77,5.71-6.83,9.62C249.68,342.29,249.23,342.62,248.73,342.62z"/>
		</g>
	</g>
	<g>
		<g>
			<path class="st221" d="M241.9,339.28c-0.12,0-0.25-0.02-0.37-0.06c-0.59-0.2-0.91-0.85-0.71-1.44c0.67-1.96,1.58-3.86,2.7-5.65
				c1.98-3.15,4.55-5.82,7.64-7.94c3.09-2.12,6.5-3.56,10.14-4.27c2.1-0.41,4.25-0.58,6.39-0.48c0.63,0.03,1.11,0.56,1.08,1.18
				c-0.03,0.63-0.55,1.12-1.18,1.09c-1.96-0.08-3.93,0.06-5.85,0.44c-3.34,0.65-6.46,1.97-9.3,3.92c-2.83,1.95-5.19,4.39-7,7.28
				c-1.03,1.64-1.86,3.38-2.48,5.18C242.82,338.99,242.37,339.28,241.9,339.28z"/>
		</g>
	</g>
	
		<ellipse transform="matrix(0.408 -0.913 0.913 0.408 127.3416 416.1486)" class="st222" cx="384.58" cy="109.88" rx="17.18" ry="17.18"/>
	<path class="st223" d="M368.98,135.88c-0.95,0.56-1.95,1.23-3.5,0.25c-1.54-0.98-2.58-1.84-2.72-2.25
		c-0.14-0.41,1.04-2.48,1.23-2.57C364.18,131.22,368.98,135.88,368.98,135.88z"/>
	<path class="st223" d="M360.93,128.91c-0.42,1.02-0.94,2.11,0.25,3.5c1.19,1.38,2.19,2.29,2.61,2.37c0.43,0.08,2.31-1.39,2.37-1.58
		C366.23,133,360.93,128.91,360.93,128.91z"/>
	<path class="st224" d="M375.09,131.18c-1.31,1.62-4.13,6.25-7,4.63c-2.87-1.63-4.63-3.44-4.66-3.89c-0.03-0.46,3.78-5.52,4.55-5.7
		C368.76,126.04,375.09,131.18,375.09,131.18z"/>
	<path class="st224" d="M364.64,122.13c-1.42,1.53-5.6,4.99-3.58,7.59c2.02,2.6,4.06,4.09,4.52,4.05c0.46-0.03,4.92-4.53,4.99-5.32
		C370.63,127.66,364.64,122.13,364.64,122.13z"/>
	<path class="st222" d="M390.42,125.21c0.35-1.08-3.8-7.74-8.25-11.47c-4.03,5.16-9.53,8.72-13.41,13.96
		c2.66,2.2,5.95,4.35,6.5,4.16c0.94-0.32,2.19-2.09,4.97-3.11C383.02,127.73,389.96,126.62,390.42,125.21z"/>
	<path class="st222" d="M368.38,106.14c1.02-0.5,8.2,2.66,12.54,6.52c-4.53,4.73-7.27,10.68-11.89,15.27
		c-2.56-2.32-5.15-5.27-5.05-5.84c0.18-0.98,1.76-2.47,2.36-5.36C366.95,113.83,367.06,106.79,368.38,106.14z"/>
	<g>
		<path class="st84" d="M364.67,132.59c-3.38-2.92-4.3-5.13-4.06-6.14c0.06-0.26,0.21-0.43,0.4-0.48c0.37-0.09,0.56,0.22,0.91,0.78
			c0.47,0.76,1.34,2.17,3.47,4.25c3.67,3.58,5.94,4.27,6.46,4.05c-0.1-0.25-0.97-0.94-1.81-1.61c-1.05-0.83-2.35-1.87-3.71-3.17
			c-3.15-3.01-4.48-5.65-4.23-6.4c0.06-0.18,0.18-0.23,0.25-0.24c0.26-0.05,0.47,0.21,1.08,0.98c0.71,0.89,1.9,2.39,3.89,4.25
			c3.36,3.13,5.43,3.66,5.86,3.55c-0.22-0.31-1.32-1.09-2.22-1.72c-0.88-0.62-1.79-1.26-2.48-1.84c-0.03-0.03-0.06-0.05-0.1-0.08
			c-1.72-1.49-4.74-4.99-4.84-5.78c-0.02-0.12,0.07-0.23,0.19-0.24c0.12-0.01,0.23,0.07,0.24,0.19c0.07,0.58,2.98,4.07,4.79,5.58
			c0.68,0.57,1.58,1.21,2.45,1.82c2.09,1.47,2.59,1.88,2.4,2.26c-0.04,0.08-0.14,0.19-0.37,0.23c-0.67,0.12-2.84-0.5-6.22-3.66
			c-2.01-1.88-3.22-3.39-3.94-4.29c-0.23-0.29-0.45-0.56-0.59-0.71c0.06,0.71,1.16,2.97,4.13,5.8c1.35,1.29,2.64,2.32,3.69,3.15
			c1.43,1.14,2.01,1.62,1.98,2.01c-0.01,0.13-0.08,0.23-0.21,0.3c-0.88,0.49-3.57-0.77-6.99-4.11c-2.17-2.12-3.06-3.56-3.53-4.33
			c-0.17-0.27-0.35-0.58-0.43-0.59c-0.02,0-0.07,0.04-0.09,0.17c-0.16,0.73,0.49,2.77,3.98,5.76c3.47,2.99,4.75,3.17,4.76,3.17
			c0.12,0.01,0.2,0.12,0.19,0.24c-0.01,0.12-0.11,0.2-0.23,0.19c-0.05,0-1.38-0.16-5-3.28
			C364.71,132.62,364.69,132.61,364.67,132.59z"/>
	</g>
	<g>
		<path class="st84" d="M368.89,128.09L368.89,128.09c-0.09-0.08-0.1-0.22-0.02-0.31l0.2-0.23c1.86-2.1,5.26-5.95,6.44-9.48
			c-1.78-0.47-2.57-1.5-3.04-2.84c-0.26-0.75-0.04-1.63,0.56-2.26c0.5-0.52,1.14-0.73,1.72-0.55c0.54,0.17,1.24,0.74,1.53,2.5
			c0.15,0.89,0.05,1.84-0.23,2.82c1.06,0.21,2.46,0.24,4.34,0.05c0.36-0.04,0.71-0.08,1.04-0.13c2.46-2.77,4.07-4.02,5.19-4.03
			c0.38,0,0.7,0.14,0.96,0.42c0.27,0.3,0.34,0.68,0.19,1.08c-0.4,1.06-2.47,2.36-6.11,2.94c-0.13,0.15-0.27,0.31-0.41,0.47
			c-3.23,3.73-9.88,11.03-9.95,11.11c-0.08,0.09-0.2,0.1-0.3,0.01c-0.09-0.08-0.09-0.22-0.01-0.3c0.07-0.07,6.71-7.37,9.94-11.1
			c0.03-0.03,0.06-0.06,0.08-0.1c-0.18,0.02-0.37,0.05-0.56,0.07c-1.94,0.2-3.4,0.17-4.51-0.06c-1.2,3.64-4.64,7.54-6.53,9.67
			l-0.2,0.23C369.11,128.16,368.97,128.17,368.89,128.09z M375,113.07c-0.12-0.1-0.25-0.18-0.39-0.22
			c-0.41-0.13-0.89,0.03-1.28,0.44c-0.49,0.51-0.67,1.22-0.47,1.81c0.42,1.21,1.14,2.13,2.76,2.57c0.26-0.93,0.36-1.82,0.22-2.65
			C375.7,114.08,375.4,113.41,375,113.07z M387.17,114.27c-0.15-0.13-0.34-0.2-0.55-0.2c-0.91,0.01-2.39,1.15-4.51,3.48
			c3.02-0.57,4.89-1.65,5.25-2.57c0.09-0.25,0.06-0.45-0.1-0.63C387.23,114.32,387.2,114.29,387.17,114.27z"/>
	</g>
	<path class="st225" d="M198.17,86.08l8.32-4.38c0.79-0.42,1.72,0.26,1.57,1.14l-1.59,9.27c-0.06,0.35,0.06,0.71,0.31,0.96
		l6.73,6.56c0.64,0.63,0.29,1.72-0.6,1.85l-9.31,1.35c-0.35,0.05-0.66,0.27-0.81,0.59l-4.16,8.43c-0.4,0.8-1.54,0.8-1.94,0
		l-4.16-8.43c-0.16-0.32-0.46-0.54-0.81-0.59l-9.31-1.35c-0.89-0.13-1.24-1.22-0.6-1.85l6.73-6.56c0.25-0.25,0.37-0.61,0.31-0.96
		l-1.59-9.27c-0.15-0.88,0.78-1.56,1.57-1.14l8.32,4.38C197.47,86.24,197.85,86.24,198.17,86.08z"/>
	<path class="st226" d="M185.55,120.45l5.84-1.61c0.56-0.15,1.05,0.4,0.83,0.93l-2.27,5.62c-0.09,0.21-0.06,0.45,0.06,0.65
		l3.34,5.06c0.32,0.48-0.05,1.12-0.63,1.08l-6.05-0.42c-0.23-0.02-0.45,0.08-0.59,0.26l-3.78,4.74c-0.36,0.45-1.08,0.29-1.22-0.27
		l-1.47-5.88c-0.06-0.22-0.22-0.4-0.43-0.48l-5.68-2.13c-0.54-0.2-0.61-0.94-0.12-1.24l5.14-3.21c0.19-0.12,0.32-0.33,0.33-0.56
		l0.27-6.06c0.03-0.58,0.7-0.87,1.15-0.5l4.64,3.9C185.09,120.46,185.33,120.51,185.55,120.45z"/>
	<path class="st227" d="M169.13,100.25l4.46,1.29c0.43,0.12,0.52,0.68,0.17,0.94l-3.74,2.76c-0.14,0.1-0.22,0.27-0.22,0.45
		l0.15,4.64c0.01,0.44-0.48,0.71-0.84,0.45l-3.77-2.7c-0.14-0.1-0.33-0.13-0.49-0.07l-4.37,1.58c-0.42,0.15-0.82-0.24-0.69-0.66
		l1.4-4.42c0.05-0.17,0.02-0.35-0.09-0.49l-2.85-3.66c-0.27-0.35-0.02-0.86,0.42-0.86l4.64-0.03c0.18,0,0.34-0.09,0.44-0.23
		l2.6-3.84c0.25-0.37,0.81-0.29,0.95,0.13l1.47,4.4C168.83,100.07,168.97,100.2,169.13,100.25z"/>
	<polygon class="st3" points="261.8,52.19 214.69,38.66 219.31,45.5 	"/>
	<polygon class="st182" points="261.8,52.19 219.31,45.5 218.68,62.56 	"/>
	<g>
		<path class="st228" d="M148.99,119.43c0.09,0,0.17-0.03,0.25-0.08c0.18-0.14,0.22-0.4,0.09-0.58c-0.99-1.34-1.88-2.74-2.65-4.16
			c-0.11-0.2-0.37-0.27-0.56-0.17c-0.2,0.11-0.28,0.36-0.17,0.56c0.79,1.45,1.71,2.89,2.72,4.26
			C148.74,119.37,148.86,119.43,148.99,119.43z"/>
	</g>
	<g>
		<path class="st228" d="M143.89,109.75c0.04,0,0.09-0.01,0.13-0.02c0.22-0.07,0.33-0.31,0.26-0.53c-0.54-1.57-0.97-3.18-1.27-4.77
			c-0.04-0.23-0.27-0.37-0.49-0.33c-0.23,0.04-0.37,0.26-0.33,0.48c0.31,1.63,0.74,3.27,1.3,4.88
			C143.56,109.64,143.72,109.75,143.89,109.75z"/>
	</g>
	<g>
		<path class="st228" d="M142.05,98.4c0.23,0,0.41-0.18,0.41-0.41c0.04-2.18,0.3-4.35,0.79-6.46c0.05-0.22-0.09-0.45-0.31-0.5
			c-0.22-0.05-0.45,0.09-0.5,0.31c-0.51,2.16-0.78,4.4-0.82,6.63C141.63,98.21,141.81,98.4,142.05,98.4L142.05,98.4z"/>
	</g>
	<g>
		<path class="st228" d="M144.91,86.02c0.16,0,0.3-0.09,0.37-0.24c0.77-1.61,1.69-3.18,2.75-4.65c0.13-0.19,0.09-0.44-0.1-0.58
			c-0.18-0.13-0.44-0.09-0.58,0.1c-1.08,1.51-2.04,3.12-2.82,4.78c-0.1,0.21-0.01,0.45,0.2,0.55
			C144.79,86,144.85,86.02,144.91,86.02z"/>
	</g>
	<g>
		<path class="st228" d="M151.99,76.43c0.1,0,0.2-0.04,0.28-0.11c1.21-1.14,2.54-2.21,3.94-3.2c0.19-0.13,0.23-0.39,0.1-0.58
			c-0.13-0.19-0.39-0.23-0.58-0.1c-1.43,1.01-2.79,2.11-4.03,3.27c-0.17,0.16-0.18,0.42-0.02,0.59
			C151.76,76.38,151.88,76.43,151.99,76.43z"/>
	</g>
	<g>
		<path class="st228" d="M161.18,69.97c0.07,0,0.13-0.02,0.2-0.05c1.72-0.94,3.55-1.81,5.42-2.61c0.21-0.09,0.31-0.33,0.22-0.54
			c-0.09-0.21-0.33-0.31-0.54-0.22c-1.9,0.8-3.74,1.69-5.49,2.64c-0.2,0.11-0.28,0.36-0.17,0.56
			C160.89,69.89,161.04,69.97,161.18,69.97z"/>
	</g>
	<g>
		<path class="st228" d="M172.61,65.11c0.04,0,0.09-0.01,0.13-0.02c2.46-0.8,5.06-1.53,7.73-2.16c0.22-0.05,0.36-0.28,0.31-0.5
			c-0.05-0.22-0.27-0.37-0.5-0.31c-2.69,0.63-5.32,1.37-7.8,2.18c-0.22,0.07-0.34,0.31-0.26,0.52
			C172.27,65,172.44,65.11,172.61,65.11z"/>
	</g>
	<g>
		<path class="st228" d="M186.2,61.78c0.02,0,0.05,0,0.07-0.01c2.86-0.48,5.72-0.81,8.49-0.98c0.23-0.01,0.4-0.21,0.39-0.44
			c-0.01-0.23-0.22-0.4-0.44-0.39c-2.8,0.18-5.69,0.51-8.58,0.99c-0.23,0.04-0.38,0.25-0.34,0.48
			C185.82,61.63,186,61.78,186.2,61.78z"/>
	</g>
	<g>
		<path class="st228" d="M209.64,60.99c0.21,0,0.4-0.16,0.41-0.38c0.02-0.23-0.15-0.43-0.38-0.45c-3.15-0.27-6.36-0.4-9.47-0.38
			c-0.23,0-0.41,0.19-0.41,0.42c0,0.23,0.19,0.41,0.41,0.41h0c3.11-0.01,6.28,0.11,9.4,0.38C209.62,60.99,209.63,60.99,209.64,60.99
			z"/>
	</g>
	<g>
		<g>
			<path class="st223" d="M399.24,89.39c-0.07-0.05-0.09-0.14-0.05-0.22l1.53-3.3c0.04-0.08,0.36,0.03,0.44,0.08
				c0.08,0.04,0.26,0.18,0.22,0.26l-1.9,3.12c-0.04,0.08-0.15,0.11-0.23,0.06C399.25,89.4,399.24,89.4,399.24,89.39z"/>
		</g>
	</g>
	<g>
		<g>
			<path class="st223" d="M407.22,101.19c-0.02-0.02-0.03-0.05-0.04-0.08c-0.02-0.09,0.04-0.18,0.13-0.2l3.42-0.99
				c0.09-0.02,0.28,0.28,0.3,0.36c0.02,0.09,0.03,0.32-0.06,0.34l-3.6,0.61C407.31,101.25,407.25,101.23,407.22,101.19z"/>
		</g>
	</g>
	<g>
		<g>
			<path class="st223" d="M386.16,86.89c0.03,0.01,0.06,0.01,0.09,0.01c0.09-0.02,0.15-0.1,0.14-0.19l-0.47-3.6
				c-0.02-0.09-0.24-0.11-0.33-0.09c-0.09,0.02-0.33,0.13-0.32,0.22l0.79,3.53C386.07,86.82,386.11,86.87,386.16,86.89z"/>
		</g>
	</g>
	<g>
		
			<ellipse transform="matrix(0.999 -0.0444 0.0444 0.999 -4.1482 17.1647)" class="st229" cx="384.57" cy="102.02" rx="11.72" ry="7.14"/>
		<path class="st207" d="M385.01,94.86c-3.86-0.34-7.5,0.77-8.75,2.25c-1.25,1.48,1.37,1.6,3.3,0.71c1.99-0.92,2.79-1.36,5.29-1.91
			S388.07,95.13,385.01,94.86z"/>
	</g>
	<polygon class="st228" points="224.04,52.11 218.68,62.56 261.8,52.19 	"/>
	<polygon class="st3" points="230.74,65.16 261.8,52.19 224.04,52.11 	"/>
</g>
</svg>
