<?xml version="1.0" encoding="utf-8"?>
<!-- Generator: Adobe Illustrator 26.0.3, SVG Export Plug-In . SVG Version: 6.00 Build 0)  -->
<svg version="1.1" id="Layer_1" xmlns="http://www.w3.org/2000/svg" xmlns:xlink="http://www.w3.org/1999/xlink" x="0px" y="0px"
	 viewBox="0 0 583 356" style="enable-background:new 0 0 583 356;" xml:space="preserve">
<style type="text/css">
	.st0{fill:#FFE8F4;}
	.st1{opacity:0.5;}
	.st2{fill:#F8BBD0;}
	.st3{fill:#FFFFFF;}
	.st4{fill:#9EA5F0;}
	.st5{fill:#E0A6C5;}
	.st6{fill:#9E4070;}
	.st7{fill:#FFC4E4;}
	.st8{fill:#9E4770;}
	.st9{fill:#E6E6E6;}
	.st10{fill:#A85E80;}
	.st11{fill:#E6A8C9;}
	.st12{fill:#703351;}
	.st13{fill:none;}
	.st14{fill:#B8678C;}
	.st15{fill:#FFE2D7;}
	.st16{fill:#3C3966;}
	.st17{fill:#EDC2CC;}
	.st18{fill:#F7DEE4;}
	.st19{fill:#E3839B;}
	.st20{fill:#F2AABA;}
	.st21{fill:#604A49;}
	.st22{fill:#AB7F80;}
	.st23{fill:#4D5175;}
	.st24{fill:#323963;}
	.st25{fill:#440C01;}
	.st26{fill:#CCCCCC;}
	.st27{opacity:0.4;fill:#FFFFFF;}
	.st28{fill:#FF4747;}
	.st29{fill:#4F0E01;}
	.st30{fill:#FACEBE;}
	.st31{fill:#D13989;}
	.st32{fill:#303769;}
	.st33{fill:#BAC0DE;}
	.st34{fill:#A1AADE;}
	.st35{fill:#FF69B9;}
	.st36{fill:#D63C8D;}
	.st37{opacity:0.3;fill:#FFFFFF;}
	.st38{fill:#80345C;}
	.st39{fill:#E071AF;}
	.st40{fill:#F08DC3;}
	.st41{fill:#6C70A3;}
	.st42{fill:#454A99;}
	.st43{fill:#FF879E;}
	.st44{fill:#F05975;}
	.st45{fill:#F0CDC0;}
	.st46{fill:#662648;}
	.st47{fill:#661A43;}
	.st48{fill:#A8768E;}
	.st49{fill:#D4D9FF;}
	.st50{fill:#8F4365;}
	.st51{fill:#7882E6;}
	.st52{fill:#8C96FF;}
	.st53{fill:#F2F2F2;}
	.st54{fill:#C78FAA;}
	.st55{fill:#C4CAFF;}
	.st56{fill:#CFD2FF;}
	.st57{fill:#FAFBFF;}
	.st58{fill:#B3C7FF;}
	.st59{fill:#6F88DE;}
	.st60{fill:#5D7ADE;}
	.st61{fill:#C4C4FF;}
	.st62{fill:#FFCF17;}
	.st63{fill:#FFD430;}
	.st64{fill:#FFE06E;}
	.st65{fill:#F8A99C;}
	.st66{fill:#3F3F8C;}
	.st67{fill:#4747AB;}
	.st68{fill:#859BE6;}
	.st69{fill:#EBEFFF;}
	.st70{fill:#A3BBFF;}
	.st71{fill:url(#SVGID_1_);}
	.st72{fill:url(#SVGID_00000017501212036206473800000009577862281790427568_);}
	.st73{fill:url(#SVGID_00000181808529480957816400000012207336880852600237_);}
	.st74{fill:#8BA3F0;}
	.st75{fill:#C7D6FF;}
	.st76{fill:#E6EEFF;}
	.st77{fill:#EBF1FF;}
	.st78{fill:#FFCAB0;}
	.st79{fill:#8268E6;}
	.st80{fill:#907AE0;}
	.st81{fill:#A58CFF;}
	.st82{fill:#F9ACFF;}
	.st83{fill:#204069;}
	.st84{fill:#D9D9D9;}
	.st85{fill:#8F959C;}
	.st86{fill:#A65B63;}
	.st87{fill:#DE818B;}
	.st88{fill:#DE5969;}
	.st89{fill:#F3A6B0;}
	.st90{fill:#ED7282;}
	.st91{fill:#A4AAB1;}
	.st92{fill:#7389A6;}
	.st93{fill:#B7BDC4;}
	.st94{fill:#FEE8F2;}
	.st95{fill:#E388B1;}
	.st96{fill:#EDA2C4;}
	.st97{fill:#272A42;}
	.st98{fill:#474B57;}
	.st99{fill:#222F4D;}
	.st100{fill:#F19489;}
	.st101{fill:#ED6C5C;}
	.st102{fill:#AB3D35;}
	.st103{fill:#B54740;}
	.st104{fill:#DE4B43;}
	.st105{fill:#CF3934;}
	.st106{fill:#F76862;}
	.st107{fill:#ED4642;}
	.st108{fill:#CEB2AE;}
	.st109{fill:#FFEFB3;}
	.st110{fill:#C99189;}
	.st111{fill:#F5C60A;}
	.st112{fill:#FAD74A;}
	.st113{fill:#E3C3BF;}
	.st114{fill:#562707;}
	.st115{fill:#DBA179;}
	.st116{fill:#F4B387;}
	.st117{fill:#E0A47C;}
	.st118{fill:#6B3007;}
	.st119{fill:#071B4D;}
	.st120{fill:#9893EB;}
	.st121{fill:#A49FFF;}
	.st122{fill:#173B9E;}
	.st123{fill:#B7B3FF;}
	.st124{fill:#F0F4FF;}
	.st125{fill:#9EB7FF;}
	.st126{fill:#6666BF;}
	.st127{fill:#FFE1BA;}
	.st128{fill:#FAAAAA;}
	.st129{fill:#FFA724;}
	.st130{fill:#FFF3EB;}
	.st131{fill:#FFBD5C;}
	.st132{fill:#ED5E32;}
	.st133{fill:#FFB140;}
	.st134{fill:#FFB74F;}
	.st135{fill:#FFCF8C;}
	.st136{fill:#460000;}
	.st137{fill:#5C3231;}
	.st138{fill:#D84416;}
	.st139{fill:#BF3104;}
	.st140{fill:#E85C31;}
	.st141{fill:#FA6E6E;}
	.st142{fill:#ED4840;}
	.st143{fill:#FA8787;}
	.st144{fill:#F54E4E;}
	.st145{fill:#785354;}
	.st146{fill:#916C6D;}
	.st147{fill:#540000;}
	.st148{fill:#823C3D;}
	.st149{fill:#ED7885;}
	.st150{fill:#FFB5BE;}
	.st151{fill:#F0770A;}
	.st152{fill:#FFD699;}
	.st153{fill:#281A00;}
	.st154{fill:#3B1400;}
	.st155{fill:#962904;}
	.st156{fill:#A16769;}
	.st157{fill:#A67B7C;}
	.st158{fill:#B58788;}
	.st159{fill:#8A0C01;}
	.st160{fill:#F5D1C4;}
	.st161{fill:#424242;}
	.st162{fill:#826061;}
	.st163{fill:#D43C0D;}
	.st164{fill:#F4CAAB;}
	.st165{fill:none;stroke:#FFFFFF;stroke-width:0.1801;stroke-miterlimit:10;}
	.st166{fill:#FFDBC6;}
	.st167{fill:#8F5252;}
	.st168{fill:#C27B7A;}
	.st169{fill:#C25453;}
	.st170{fill:#D69A99;}
	.st171{fill:#D1706F;}
	.st172{fill:#E34F21;}
	.st173{fill:none;stroke:#FFFFFF;stroke-width:0.1178;stroke-miterlimit:10;}
	.st174{fill:#C93000;}
	.st175{fill:#FAB650;}
	.st176{fill:#FFC46B;}
	.st177{fill:#FFCE85;}
	.st178{fill:#FFB442;}
</style>
<g>
	<path class="st127" d="M18.27,311.54c23.54,9.06,520.61,9.22,531.31-4.37c10.7-13.58,55.64-88.3,12.84-117.73
		c-42.8-29.43-97.35-18.75-97.35-18.75s78.09-96.72-16.06-153.32C354.86-39.23,310.53,60.6,310.53,60.6s-49.82-43.23-124.72-4.74
		c-74.89,38.49-20.64,116.45-20.64,116.45s-31.25-30.43-61.21-25.9c-29.96,4.53-50.2,17.83-56.61,40.47s30.6,46.95,30.6,46.95
		s-15.96-2.91-56.61,1.62C-19.32,239.97,18.27,311.54,18.27,311.54z"/>
	<g>
		<g>
			<g>
				<path class="st128" d="M441.51,273.46c-0.25,0-0.5-0.12-0.65-0.35c-0.13-0.2-13.11-20.17-1.46-46.65
					c4.12-9.37,8.62-18.36,12.98-27.05c7.88-15.72,14.68-29.3,16.27-39.34c1.24-7.82,0.38-15.63-0.39-22.51
					c-0.75-6.8-1.4-12.67,0.34-16.43c0.18-0.39,0.65-0.56,1.03-0.38c0.39,0.18,0.56,0.64,0.38,1.03c-1.56,3.37-0.94,9.04-0.21,15.61
					c0.77,6.99,1.65,14.9,0.38,22.93c-1.63,10.28-8.49,23.96-16.42,39.79c-4.35,8.68-8.84,17.65-12.94,26.98
					c-11.29,25.67,1.21,44.97,1.34,45.17c0.24,0.36,0.14,0.84-0.22,1.08C441.81,273.41,441.66,273.46,441.51,273.46z"/>
			</g>
			<g>
				<path class="st128" d="M468.17,131.26c0,0-12.29-6.08-8.72-18.19s10.6-10.66,11.55-9.83c2.91,2.55,0.93,7.46,0.93,7.46
					s4.84-7.43,8.06-3.19c3.22,4.24,1.63,8.63-2.91,12.76C472.53,124.39,468.17,131.26,468.17,131.26z"/>
			</g>
			<g>
				<path class="st128" d="M469.84,153.83c-3.05-4.47-5.47-13.75-11.84-14.16c-6.36-0.42-4.09,4.96-4.09,4.96s-8.21,1.09-8.37,6.67
					c-0.16,5.58,11.6,1.76,14.52,1.52C462.98,152.58,469.84,153.83,469.84,153.83z"/>
			</g>
			<g>
				<path class="st128" d="M469.73,155.26c0,0,12.41-19.49,17.53-16.64c5.13,2.85,1.06,6.27,1.06,6.27s6.5-2.04,6.17,2.76
					c-0.33,4.8-4.58,4.7-11.18,3.1C476.71,149.14,469.73,155.26,469.73,155.26z"/>
			</g>
			<g>
				<path class="st128" d="M463.78,178.02c-2.12-4.79-5.17-8.11-12.95-9.04c-7.78-0.93-11.71,1.33-11.93,3.76
					c-0.22,2.43,3.88,3.4,3.88,3.4s-6.3,1.29-6.2,6.23c0.1,4.94,11.93-3.04,16.64-4.61C457.93,176.18,463.78,178.02,463.78,178.02z"
					/>
			</g>
			<g>
				<path class="st128" d="M463.78,178.02c0,0,6.2-7.1,16.71-10.95c10.51-3.85,8.05,3.91,8.05,3.91s7.03,1.17,5.28,7.18
					c-1.75,6.02-10.78-0.14-16.11-1.37C472.39,175.57,463.78,178.02,463.78,178.02z"/>
			</g>
			<g>
				<path class="st128" d="M452.82,199.39c0,0,1.31-6.02-9.3-6.83c-10.61-0.81-15.92,3.31-17.36,6.5c-1.44,3.18,4.15,4.79,4.15,4.79
					s-7.34,1.96-6.34,7.25c1,5.29,8.88-0.34,15.28-5.59C445.65,200.24,452.82,199.39,452.82,199.39z"/>
			</g>
			<g>
				<path class="st128" d="M453.49,199.56c0,0,7.41-7.42,15.68-7.39c8.27,0.04,17.7,3.25,18.64,9.29c0.94,6.04-7.31,3.46-7.31,3.46
					s5.77,7.44-0.69,10.55c-6.47,3.11-2.19-9.39-10.85-13.65C460.3,197.57,453.49,199.56,453.49,199.56z"/>
			</g>
			<g>
				<path class="st128" d="M436.44,237.16c-4.44-5.51-8.09,0.17-12.7-2.65c-4.6-2.82-7.07-7.15-10.91-4.86
					c-3.84,2.29-0.25,5.41-0.25,5.41s-13.29,4.23-7.92,9.42s14.91-1.28,20.89-4.37C431.53,237.03,436.44,237.16,436.44,237.16z"/>
			</g>
			<g>
				<path class="st128" d="M436.88,237.45c0,0,1.47-3.13,10.55-2.05c9.08,1.07,14.39-12.24,18.85-11.59
					c4.45,0.65,2.51,6.85,2.51,6.85s11.16-0.12,5.34,8.89c-5.82,9.01-25.33-1.72-28.95-2.29
					C441.56,236.68,436.88,237.45,436.88,237.45z"/>
			</g>
		</g>
	</g>
	<g>
		<g>
			<g>
				<path class="st128" d="M118.24,242.11c-0.27,0-0.53-0.14-0.68-0.39c-0.21-0.37-0.08-0.85,0.29-1.06
					c0.2-0.11,20.06-11.69,21.58-39.7c0.55-10.18,0.59-20.21,0.63-29.92c0.07-17.71,0.13-33.01,3.31-42.92
					c2.49-7.74,6.84-14.4,10.69-20.29c3.61-5.53,6.74-10.31,6.86-14.02c0.01-0.43,0.41-0.78,0.8-0.75c0.43,0.01,0.76,0.37,0.75,0.8
					c-0.14,4.14-3.37,9.09-7.11,14.82c-3.79,5.8-8.09,12.38-10.51,19.91c-3.11,9.68-3.17,24.87-3.24,42.45
					c-0.04,9.72-0.08,19.78-0.63,29.99c-1.57,28.89-22.16,40.85-22.37,40.96C118.5,242.08,118.37,242.11,118.24,242.11z"/>
			</g>
			<g>
				<path class="st128" d="M158.3,103.11c0,0,13.71,0.12,16-12.29c2.29-12.42-4.65-14.3-5.87-13.99c-3.75,0.96-4.2,6.23-4.2,6.23
					s-0.96-8.81-5.75-6.48c-4.79,2.33-5.35,6.96-3.16,12.7C157.51,95.02,158.3,103.11,158.3,103.11z"/>
			</g>
			<g>
				<path class="st128" d="M146.62,122.51c4.74-2.61,11.09-9.8,16.95-7.29c5.86,2.5,1.41,6.27,1.41,6.27s6.83,4.68,4.45,9.73
					c-2.38,5.05-11.14-3.67-13.64-5.2C153.31,124.48,146.62,122.51,146.62,122.51z"/>
			</g>
			<g>
				<path class="st128" d="M146.08,123.83c0,0-2.27-22.99-8.13-22.77c-5.86,0.23-3.78,5.12-3.78,5.12s-4.88-4.76-6.75-0.32
					c-1.87,4.43,1.97,6.26,8.58,7.81C142.61,115.22,146.08,123.83,146.08,123.83z"/>
			</g>
			<g>
				<path class="st128" d="M141.11,146.82c4.06-3.32,8.27-4.9,15.64-2.22c7.36,2.68,9.84,6.47,8.95,8.74c-0.9,2.27-5,1.28-5,1.28
					s5.04,3.99,2.72,8.36c-2.32,4.37-9.27-8.1-12.76-11.63C147.16,147.83,141.11,146.82,141.11,146.82z"/>
			</g>
			<g>
				<path class="st128" d="M141.11,146.82c0,0-2.32-9.13-9.97-17.31c-7.64-8.18-8.95-0.14-8.95-0.14s-6.8-2.13-7.96,4.03
					c-1.16,6.16,9.69,4.74,14.99,6.05C134.54,140.75,141.11,146.82,141.11,146.82z"/>
			</g>
			<g>
				<path class="st128" d="M141.24,170.84c0,0,1.54-5.96,11.38-1.89c9.83,4.07,12.71,10.14,12.56,13.63
					c-0.16,3.49-5.86,2.4-5.86,2.4s5.66,5.06,2.39,9.33c-3.28,4.27-7.76-4.31-11.11-11.89
					C147.25,174.84,141.24,170.84,141.24,170.84z"/>
			</g>
			<g>
				<path class="st128" d="M140.57,170.69c0,0-3.26-9.97-10.65-13.67c-7.39-3.7-17.26-5.1-20.83-0.13
					c-3.57,4.96,4.96,6.39,4.96,6.39s-8.51,4.03-4.15,9.73c4.37,5.7,6.2-7.39,15.84-7.28C135.38,165.84,140.57,170.69,140.57,170.69
					z"/>
			</g>
			<g>
				<path class="st128" d="M138.8,211.94c6.45-2.91,7.15,3.8,12.53,3.37c5.38-0.44,9.54-3.19,11.93,0.59
					c2.39,3.78-2.22,4.94-2.22,4.94s9.95,9.77,2.82,11.98c-7.13,2.21-12.73-7.88-16.67-13.33
					C143.24,214.04,138.8,211.94,138.8,211.94z"/>
			</g>
			<g>
				<path class="st128" d="M138.28,212c0,0,0.1-3.45-8.48-6.59c-8.59-3.14-7.32-17.42-11.59-18.85c-4.27-1.43-5.33,4.98-5.33,4.98
					s-9.9-5.14-8.78,5.52c1.12,10.66,23.38,9.9,26.86,11.02C134.45,209.2,138.28,212,138.28,212z"/>
			</g>
		</g>
	</g>
	<path class="st9" d="M443.1,157.09c15.87,32,11.97,139.17,4.16,145.67C439.46,309.27,443.1,157.09,443.1,157.09z"/>
	<path class="st9" d="M148.9,126.66c-14.83,13.27-5.72,39.02-20.81,41.88c-15.09,2.86-33.04-0.52-35.38,11.45
		c-2.34,11.97,0.26,148.79,10.14,153.73c9.88,4.94,50.72-158.94,50.72-174.54C153.58,143.57,148.9,126.66,148.9,126.66z"/>
	<path class="st129" d="M427.27,313.99H163.42c-11.76,0-21.29-9.53-21.29-21.29V143.83c0-11.76,9.53-21.29,21.29-21.29h263.85
		c11.76,0,21.29,9.53,21.29,21.29V292.7C448.56,304.46,439.03,313.99,427.27,313.99z"/>
	<rect x="157.12" y="137.1" class="st130" width="276.45" height="162.32"/>
	<path class="st131" d="M492.75,327.91H97.94c-8.64,0-15.64-7-15.64-15.64v0c0-2.57,2.08-4.65,4.65-4.65h416.79
		c2.57,0,4.65,2.08,4.65,4.65v0C508.39,320.9,501.38,327.91,492.75,327.91z"/>
	<rect x="156.87" y="137.12" class="st3" width="276.9" height="162.28"/>
	<rect x="156.87" y="137.12" class="st132" width="276.94" height="17.13"/>
	<path class="st69" d="M170.66,145.69c0,1.72-1.4,3.12-3.12,3.12c-1.72,0-3.12-1.4-3.12-3.12c0-1.72,1.4-3.12,3.12-3.12
		C169.26,142.57,170.66,143.96,170.66,145.69z"/>
	<path class="st3" d="M257.13,142.55h-32.64c-1.73,0-3.14,1.41-3.14,3.14v0c0,1.73,1.41,3.14,3.14,3.14h32.64
		c1.73,0,3.14-1.41,3.14-3.14v0C260.28,143.95,258.87,142.55,257.13,142.55z"/>
	<path class="st3" d="M311.5,142.55h-32.64c-1.73,0-3.14,1.41-3.14,3.14v0c0,1.73,1.41,3.14,3.14,3.14h32.64
		c1.73,0,3.14-1.41,3.14-3.14v0C314.64,143.95,313.24,142.55,311.5,142.55z"/>
	<path class="st3" d="M365.87,142.55h-32.64c-1.73,0-3.14,1.41-3.14,3.14v0c0,1.73,1.41,3.14,3.14,3.14h32.64
		c1.73,0,3.14-1.41,3.14-3.14v0C369.01,143.95,367.6,142.55,365.87,142.55z"/>
	<path class="st3" d="M420.23,142.55h-32.64c-1.73,0-3.14,1.41-3.14,3.14v0c0,1.73,1.41,3.14,3.14,3.14h32.64
		c1.73,0,3.14-1.41,3.14-3.14v0C423.37,143.95,421.97,142.55,420.23,142.55z"/>
	<path class="st133" d="M326.48,175.58h-63.47c-2.3,0-4.16-1.86-4.16-4.16l0,0c0-2.3,1.86-4.16,4.16-4.16h63.47
		c2.3,0,4.16,1.86,4.16,4.16l0,0C330.64,173.72,328.78,175.58,326.48,175.58z"/>
	<path class="st127" d="M324.7,267.15h-59.92c-3.28,0-5.94-2.66-5.94-5.94v-31.83c0-3.28,2.66-5.94,5.94-5.94h59.92
		c3.28,0,5.94,2.66,5.94,5.94v31.83C330.64,264.49,327.98,267.15,324.7,267.15z"/>
	<path class="st127" d="M240.42,267.15H180.5c-3.28,0-5.94-2.66-5.94-5.94v-31.83c0-3.28,2.66-5.94,5.94-5.94h59.92
		c3.28,0,5.94,2.66,5.94,5.94v31.83C246.36,264.49,243.7,267.15,240.42,267.15z"/>
	<path class="st127" d="M408.46,267.15h-59.92c-3.28,0-5.94-2.66-5.94-5.94v-31.83c0-3.28,2.66-5.94,5.94-5.94h59.92
		c3.28,0,5.94,2.66,5.94,5.94v31.83C414.4,264.49,411.74,267.15,408.46,267.15z"/>
	<path class="st134" d="M306.97,209.4h-24.45c-2.3,0-4.16-1.86-4.16-4.16l0,0c0-2.3,1.86-4.16,4.16-4.16h24.45
		c2.3,0,4.16,1.86,4.16,4.16l0,0C311.13,207.54,309.27,209.4,306.97,209.4z"/>
	<path class="st75" d="M322.06,277.55h-54.63c-1.15,0-2.08-0.93-2.08-2.08l0,0c0-1.15,0.93-2.08,2.08-2.08h54.63
		c1.15,0,2.08,0.93,2.08,2.08l0,0C324.14,276.62,323.2,277.55,322.06,277.55z"/>
	<path class="st76" d="M322.32,285.75h-54.63c-1.15,0-2.08-0.93-2.08-2.08l0,0c0-1.15,0.93-2.08,2.08-2.08h54.63
		c1.15,0,2.08,0.93,2.08,2.08l0,0C324.4,284.81,323.46,285.75,322.32,285.75z"/>
	<path class="st77" d="M305.67,293.94h-37.98c-1.15,0-2.08-0.93-2.08-2.08l0,0c0-1.15,0.93-2.08,2.08-2.08h37.98
		c1.15,0,2.08,0.93,2.08,2.08l0,0C307.75,293.01,306.82,293.94,305.67,293.94z"/>
	<path class="st127" d="M221.19,293.94h-37.98c-1.15,0-2.08-0.93-2.08-2.08l0,0c0-1.15,0.93-2.08,2.08-2.08h37.98
		c1.15,0,2.08,0.93,2.08,2.08l0,0C223.27,293.01,222.34,293.94,221.19,293.94z"/>
	<path class="st135" d="M237.77,277.55h-54.63c-1.15,0-2.08-0.93-2.08-2.08l0,0c0-1.15,0.93-2.08,2.08-2.08h54.63
		c1.15,0,2.08,0.93,2.08,2.08l0,0C239.86,276.62,238.92,277.55,237.77,277.55z"/>
	<path class="st127" d="M237.74,285.75h-54.63c-1.15,0-2.08-0.93-2.08-2.08l0,0c0-1.15,0.93-2.08,2.08-2.08h54.63
		c1.15,0,2.08,0.93,2.08,2.08l0,0C239.82,284.81,238.89,285.75,237.74,285.75z"/>
	<path class="st75" d="M406.08,277.55h-54.63c-1.15,0-2.08-0.93-2.08-2.08l0,0c0-1.15,0.93-2.08,2.08-2.08h54.63
		c1.15,0,2.08,0.93,2.08,2.08l0,0C408.16,276.62,407.23,277.55,406.08,277.55z"/>
	<path class="st76" d="M406.34,285.68h-54.63c-1.15,0-2.08-0.93-2.08-2.08l0,0c0-1.15,0.93-2.08,2.08-2.08h54.63
		c1.15,0,2.08,0.93,2.08,2.08l0,0C408.42,284.75,407.49,285.68,406.34,285.68z"/>
	<path class="st77" d="M406.34,293.81h-28.35c-1.15,0-2.08-0.93-2.08-2.08l0,0c0-1.15,0.93-2.08,2.08-2.08h28.35
		c1.15,0,2.08,0.93,2.08,2.08l0,0C408.42,292.88,407.49,293.81,406.34,293.81z"/>
	<path class="st135" d="M358.47,185.29H231.01c-1.44,0-2.6-1.16-2.6-2.6l0,0c0-1.44,1.16-2.6,2.6-2.6h127.46
		c1.44,0,2.6,1.16,2.6,2.6l0,0C361.07,184.13,359.91,185.29,358.47,185.29z"/>
	<path class="st127" d="M326.22,196.57h-95.21c-1.44,0-2.6-1.16-2.6-2.6l0,0c0-1.44,1.16-2.6,2.6-2.6h95.21c1.44,0,2.6,1.16,2.6,2.6
		l0,0C328.82,195.4,327.65,196.57,326.22,196.57z"/>
	<path class="st25" d="M454,229.84c-0.23,2.47-3.22,5.94-5.91,7.98c-0.04,0.04-0.08,0.06-0.11,0.09c0,0-1.75-3.57-2.64-6.41
		c-0.27-0.82-0.45-1.57-0.5-2.15c-0.08-0.76,0.06-1.26,0.56-1.27c0,0,0.01,0,0.03,0c1.85,0,5.65-1.25,7.51-0.37
		c0.42,0.18,0.75,0.48,0.93,0.93C454.01,229,454.05,229.4,454,229.84z"/>
	<path d="M454,229.84c-0.23,2.47-3.22,5.94-5.91,7.98c-0.03,0.01-0.04,0.01-0.04,0.01c-0.93-1.64-2.21-5.15,1.2-5.83
		C451.98,231.47,453.46,230.55,454,229.84z"/>
	<path class="st15" d="M451.55,241.26c0.05,0.37-4.55,2.36-4.65,2.14c-0.03-0.05-0.13-0.27-0.28-0.6c-0.6-1.25-1.89-4.04-1.81-4.26
		c0.06-0.18,1.29-0.92,2.05-1.36c0.01-0.01,0.03-0.01,0.04-0.03c0.36-0.22,0.61-0.36,0.61-0.36c0.04,0.04,0.09,0.06,0.14,0.11
		c0.09,0.06,0.19,0.15,0.31,0.27C449.24,238.34,451.5,240.91,451.55,241.26z"/>
	<path class="st9" d="M446.41,242.38c0.05-0.52-0.17-1.45-0.17-2.04c0-0.69,1.43-1.85,1.71-3.16c0.04-0.13,0.05-0.25,0.05-0.4
		c0,0-0.14,0.04-0.36,0.13c-0.19,0.05-0.46,0.14-0.75,0.24c-0.01,0.01-0.03,0.01-0.04,0.03c-0.76,0.45-1.99,1.19-2.05,1.36
		c-0.01,0.03,0,0.06,0.01,0.11L446.41,242.38z"/>
	<path class="st15" d="M448.68,232.25c0,0.24-0.64,4.7-0.71,5.02c-0.08,0.32-5.34,5.02-6.86,3.66c-1.33-1.2-2.29-5.24-0.54-9.29
		c0.23-0.55,0.52-1.08,0.85-1.62c0,0,2.05,0.56,3.98,1.12C447.09,231.63,448.68,232.14,448.68,232.25z"/>
	<path class="st15" d="M447.85,234.76c0.6-0.84,1.79-0.6,1.87,0.16c0.08,0.76-1.31,2.71-2.15,2.07
		C446.73,236.35,447.85,234.76,447.85,234.76z"/>
	<path class="st9" d="M447.46,231.93c-1.44-0.41-5.51,0.14-6.88-0.29c0.23-0.55,0.52-1.08,0.85-1.62c0,0,2.05,0.56,3.98,1.12
		C446.53,231.57,447.46,231.93,447.46,231.93z"/>
	<path class="st25" d="M448.41,234.3c0,0,0.19-1.1-1.25-2.13c-0.5-0.37-1.13-0.56-1.84-0.68c-1.27-0.22-2.77-0.18-3.98-0.52
		c-1.87-0.51-2.87-3.94-2.43-4.5c0.17-0.2,0.6-0.05,1.25,0.23c1.16,0.48,3.02,1.36,5.23,1.36c0,0,0.01,0,0.03,0
		c0,0,1.48,0.57,2.77,1.17c0.73,0.34,1.39,0.7,1.7,0.97C450.72,230.93,448.41,234.3,448.41,234.3z"/>
	<path class="st136" d="M469.4,307.45c-0.5,0.17-8.18,0.32-12.9,0.32c-2.04,0-3.52-0.04-3.63-0.11c-0.11-0.08,0.04-0.34,0.45-0.7
		c0.74-0.64,2.31-1.54,4.6-1.98c0.41-0.08,0.84-0.14,1.29-0.19c4.38-0.43,4.42-3.86,5.9-3.79c1.47,0.08,2.82,1.07,2.82,1.07
		c0.61,0.94,1.06,1.81,1.35,2.57C469.89,306.22,469.88,307.29,469.4,307.45z"/>
	<path class="st136" d="M498.98,300.31c0,0-0.05,0.1-0.17,0.29c-0.75,1.38-3.96,7.14-4.88,7.19c-0.66,0.04-4,0.24-6.5,0.19
		c-1.45-0.01-2.64-0.11-2.84-0.4c-0.09-0.11,0-0.28,0.22-0.5c0.92-0.89,4.17-2.5,5.89-3.35c0.57-0.29,0.97-0.5,1.06-0.56
		c0.42-0.32-0.22-4.78,0.91-5.26c1.12-0.47,2.77-0.15,2.77-0.15C496.85,298.29,498.98,299.56,498.98,300.31z"/>
	<path class="st21" d="M496.8,298.13c0,0.13-0.34,0.22-0.91,0.25c-1.43,0.1-4.19-0.09-5.63-0.5c-1.99-0.55-14.81-9.47-17.92-12.58
		c-3.11-3.11-8.6-12.91-8.6-12.91s-0.01,0.01-0.03,0.03c-0.64,0.6-10.82,10.12-11.2,10.9c-0.4,0.79,2.87,2.55,5.58,4.93
		c2.69,2.37,11.38,14.07,11.38,14.49c-0.08,0.33-4.22-0.47-6.21-1.35c-1.99-0.87-16.34-11.79-16.98-15.93
		c-0.29-1.89,1.16-4.96,3.3-8.32c2.54-4,6.05-8.43,8.73-11.75c0,0,0.45-1.24,1.56-2.23c1.34-1.21,3.66-2.05,7.37,0.08
		c6.78,3.91,6.86,7.1,8.92,12.91c2.08,5.81,4.54,6.93,6.37,8.45C484.37,286.1,496.8,297.65,496.8,298.13z"/>
	<path class="st137" d="M462.02,263.56c-1.24,1.82-8.41,9.69-12.43,13.58c2.54-4,6.05-8.43,8.73-11.75c0,0,0.45-1.24,1.56-2.23
		C461.06,263.35,462.02,263.56,462.02,263.56z"/>
	<path class="st138" d="M469.82,264.78c-0.25,0.41-2.43-0.42-4.74-0.66c-1.01-0.11-2.05-0.11-2.96,0.14
		c-2.97,0.84-4.36,2.43-4.73,1.64c-0.36-0.76-5.97-4.98-10.63-9.96c-0.22-0.22-0.42-0.45-0.62-0.66c-1.76-1.94-2.55-3.91-2.51-5.84
		c0.06-3.3,2.55-6.49,6.7-9.09c1.29-0.8,3.31,1.34,5.29,4.17c2.19,3.16,4.31,7.18,5.23,8.95C462.6,256.81,470.2,264.2,469.82,264.78
		z"/>
	<path class="st15" d="M446.62,250.97c-0.11,0.27-1.4,0.94-3.01,1.67c-0.4,0.17-0.79,0.34-1.2,0.51c-0.37,0.15-0.75,0.31-1.12,0.45
		v0.01c-1.62,0.62-3.2,1.16-4.08,1.3c-2.27,0.37-17.25-4.82-17.96-5.7c-0.73-0.87-0.68-10.43-0.68-10.71c0-0.28,0.43-0.43,1.95,2.42
		c1.5,2.88,0.83,4.95,0.87,6.18c0.04,1.24,1.12,0.83,6.11,1.63c4.97,0.8,8.72,1.48,9.43,1.48c0.55,0,0.97-0.41,2.91-1.61
		c0.01-0.01,0.04-0.03,0.06-0.04c0.01-0.01,0.03-0.01,0.04-0.03c0.54-0.33,1.2-0.73,2.01-1.2
		C441.95,247.35,446.89,250.33,446.62,250.97z"/>
	<path class="st9" d="M443.7,252.77c-0.73,0.28-1.21,0.42-1.27,0.4c0,0,0,0-0.01-0.01c-0.37,0.15-0.75,0.31-1.12,0.45
		c0.18-0.89-0.62-2.93-1.08-4.19c-0.01-0.03-0.03-0.04-0.03-0.05c-0.13-0.33-0.22-0.6-0.28-0.78c0-0.03,0-0.05-0.01-0.06
		c0,0,0-0.01,0.01,0c0.01,0.01,0.01,0.03,0.04,0.04c0.36,0.37,2.75,2.86,3.67,4.09C443.65,252.69,443.69,252.73,443.7,252.77z"/>
	<path class="st139" d="M447.76,252.49c-1.48,0.93-1.44,2.26-1.01,3.45c-0.22-0.22-0.42-0.45-0.62-0.66
		c-1.76-1.94-2.55-3.91-2.51-5.84c3.17-2.28,8.21-3.85,8.21-3.85C452.71,248.22,451.08,250.41,447.76,252.49z"/>
	<path class="st140" d="M451.23,248.74c-1.13,1.38-5.38,3.24-7.53,4.03c-0.73,0.28-1.21,0.42-1.27,0.4c0,0,0,0-0.01-0.01
		c-0.2-0.17-1.54-2.47-2.21-3.75c-0.01-0.03-0.03-0.04-0.03-0.05c-0.19-0.37-0.32-0.64-0.34-0.74c0-0.03,0-0.03,0-0.04
		c0-0.01,0.03-0.03,0.05-0.06c0,0,0-0.01,0.01,0c0.62-0.74,6.97-7.32,11.13-4.47C451.79,244.56,452.75,246.9,451.23,248.74z"/>
	<path class="st139" d="M469.82,264.78c-0.25,0.41-2.43-0.42-4.74-0.66c0.75-0.34,3.02-0.07,2.73-0.99
		c-0.43-1.33-4.05-3.16-6.33-5.82c-2.04-2.37-3.91-6.32-5.85-12.78c2.19,3.16,4.31,7.18,5.23,8.95
		C462.6,256.81,470.2,264.2,469.82,264.78z"/>
	<path class="st137" d="M495.9,298.39c-1.43,0.1-4.19-0.09-5.63-0.5c-1.99-0.55-14.81-9.47-17.92-12.58
		c-3.11-3.11-8.6-12.91-8.6-12.91s-0.01,0.01-0.03,0.03c0.83-1.14,1.16-1.77,1.42-1.74c0.32,0.05,6.82,11.36,9.79,13.74
		C477.81,286.75,494.3,295.81,495.9,298.39z"/>
	<path class="st26" d="M498.82,300.61c-0.75,1.38-3.96,7.14-4.88,7.19c-0.66,0.04-4,0.24-6.5,0.19c1.11-0.47,2.94-1.05,4.49-1.15
		C493.88,306.71,495.86,302.61,498.82,300.61z"/>
	<path class="st26" d="M469.4,307.45c-0.5,0.17-8.18,0.32-12.9,0.32c1.19-0.7,10.82-2,12.77-3.12
		C469.89,306.22,469.88,307.29,469.4,307.45z"/>
	<path class="st28" d="M452.93,227.7c-1.26,0.33-2.98,1.13-4.74,1.54c-0.87,0.22-1.75,0.33-2.59,0.24
		c-0.25-0.03-0.51-0.08-0.76-0.14c-1.86-0.43-3.66-1.76-4.67-2.64c1.16,0.48,3.02,1.36,5.23,1.36c0,0,0.01,0,0.03,0
		C447.27,228.06,451.07,226.82,452.93,227.7z"/>
	<path class="st27" d="M457.91,304.98c-1.19,0.47-2.82,2.26-3.53,2.14c-0.27-0.05-0.68-0.09-1.07-0.17
		C454.05,306.32,455.62,305.41,457.91,304.98z"/>
	<path class="st27" d="M490.7,303.74c-0.69,1.41-3.2,3.57-5.89,3.35C485.72,306.2,488.97,304.6,490.7,303.74z"/>
	<g>
		<g>
			<path class="st141" d="M419.38,227.86v74.07c0,3.19-2.59,5.77-5.77,5.77h-64.73L419.38,227.86z"/>
			<g>
				<path class="st141" d="M419.38,227.86l-45.71,51.76c0,0,0,0,0,0.01l-4.18,4.72l-20.61,23.35c0,0-3.44-26.7-0.33-30.96
					c0.91-1.24,1.86-1.98,2.87-2.31c2.45-0.8,5.16,0.84,7.94,3.62c3.93,3.93,13.6,2.29,13.92-8.35c0.04-1.33-0.04-2.54-0.23-3.66
					c-1.3-7.89-7.69-10.72-11.56-8.13c-4.42,2.94-10.81,7.37-12.28,1.47c-1.48-5.89-3.7-30.62-0.22-31.52
					c1.86-0.48,10.54,0.84,18.18,1.22c6.59,0.32,12.4-0.06,12.33-2.94c-0.13-4.79-6.08-8.81-7.69-12.57c-0.47-1.13-0.56-2.23,0-3.31
					c2.45-4.75,10.64-9.66,20.31-4.09c9.66,5.56-0.5,12.11,1.31,17.68C395.22,229.41,418.64,225.8,419.38,227.86z"/>
			</g>
		</g>
	</g>
	<path class="st142" d="M419.38,253.96v47.97c0,3.19-2.59,5.77-5.77,5.77h-37.7c16.05-0.7,30.71-3.86,33.84-9.46
		C413.29,291.9,413.82,257.2,419.38,253.96z"/>
	<path class="st142" d="M382.18,229.73c-4.1,3.73-11,1.35-15.02-0.65c6.59,0.32,12.4-0.06,12.33-2.94
		c-0.13-4.79-6.08-8.81-7.69-12.57C376.24,217.57,387.23,225.14,382.18,229.73z"/>
	<path class="st142" d="M373.67,279.62c0,0,0,0,0,0.01c-0.47,1.19-1.08,2.23-1.84,3c-0.75,0.76-1.54,1.33-2.35,1.72
		c-3.72,1.86-7.78,0.11-9.93-2.04c-2.45-2.45-4.84-7.78-8.15-7.88c2.45-0.8,5.16,0.84,7.94,3.62c3.93,3.93,13.6,2.29,13.92-8.35
		c0.04-1.33-0.04-2.54-0.23-3.66C375.16,268.57,375.42,275.15,373.67,279.62z"/>
	<path class="st25" d="M220.45,284.41c-0.55,0.81-0.9,1.32-0.9,1.32s8.76,3.01,11.24,2.14c2.49-0.88,8.09-21.81,8.38-22.63
		c0.01-0.04,0.02-0.11,0.05-0.18c0.02-0.14,0.04-0.34,0.05-0.57c0,0,0,0,0-0.01c0.02-0.36,0.02-0.84,0.02-1.37
		c0.01-1.3-0.04-2.96-0.07-4.31c-0.04-1.09-0.07-1.99-0.08-2.37c-0.01-0.13-0.01-0.2-0.01-0.2v-0.18c0-0.12-0.01-0.22-0.02-0.33
		c-0.07-0.5-0.3-0.91-0.63-1.2c-0.01-0.01-0.01,0-0.01,0c-0.99-0.92-2.85-0.85-3.67,0.34c-1.39,2.02-4.83,8.96-8.72,15.05
		c-0.82,1.27-1.74,2.61-2.68,3.93c-3.38,4.76-7.05,9.23-7.33,9.58c0.29-0.15,3.26-1.82,5.62-4.51c2.36-2.68,5.26-6.33,5.54-6.68
		c-0.13,0.32-1.73,4.18-3.54,7.17c-0.89,1.47-1.86,2.96-2.63,4.11C220.84,283.84,220.64,284.14,220.45,284.41z"/>
	<path d="M219.55,285.73c0,0,8.76,3.01,11.24,2.14c2.49-0.88,8.09-21.81,8.38-22.63c0.01-0.04,0.02-0.11,0.05-0.18
		c0.21-1.45-0.09-8.83-0.09-8.83c-1.51-0.32-4.63,2.02-3.73,6.59c0.91,4.58-2.49,5.04-6.22,13.36c-2.34,5.22-5.8,6.78-8.12,7.34
		c-0.22,0.33-0.42,0.63-0.61,0.9C219.91,285.21,219.55,285.73,219.55,285.73z"/>
	<path class="st25" d="M238.25,266.11c0,0,0.42-0.65,1.02-1.62c0,0,0,0,0-0.01c0.39-0.62,0.83-1.37,1.29-2.15
		c1.03-1.78,2.07-3.74,2.31-4.76c0.09-0.34,0.09-0.57-0.02-0.67c-0.56-0.43-2.14-1.15-3.72-0.85c-0.4,0.07-0.78,0.2-1.16,0.42
		c-0.5,0.28-0.98,0.71-1.38,1.33C234.66,260.77,236.12,263.94,238.25,266.11z"/>
	<path class="st15" d="M235.87,268.79c0.14,0.49,3.01,2.04,3.2,1.85c0.06-0.06,0.16-0.4,0.32-0.86c0.25-0.78,0.58-1.94,0.95-2.65
		c0.15-0.29,0.29-0.51,0.44-0.62c0.74-0.49-0.48-1.75-0.82-1.89c-0.35-0.15-1.23,0.43-1.23,0.43
		C237.13,266.54,235.71,268.29,235.87,268.79z"/>
	<path class="st9" d="M239.38,269.77c0.25-0.78,0.58-1.94,0.95-2.65c-0.13-0.64-1.47-1.89-1.47-1.89c-0.65,1.15,0.46,2.02,0.51,3.25
		C239.4,269.1,239.35,269.51,239.38,269.77z"/>
	<path class="st15" d="M238.73,265.77c0.2,0.58,3.21,4.95,4.92,3.98c1.58-0.9,2.57-4.62,1.83-8c-0.06-0.29-0.13-0.57-0.22-0.85
		c0,0-1.37-0.13-2.77-0.19c-1.44-0.06-2.92-0.04-3.07,0.28C239.13,261.62,238.54,265.19,238.73,265.77z"/>
	<path class="st15" d="M239.22,263.77c-0.78-0.93-1.68-0.9-1.83-0.19c-0.15,0.71,1,2.26,1.53,1.56
		C239.46,264.43,239.22,263.77,239.22,263.77z"/>
	<path class="st143" d="M265.18,244.49c-0.03,0.06-0.08,0.19-0.13,0.37v56.52c0,3.48,2.82,6.3,6.3,6.3h47.23
		c1.32,0,2.34-1.13,2.2-2.44c-0.63-5.69-1.94-19.55,0.02-22.24c2.48-3.39,5.49-2.09,8.62,1.04c3.13,3.14,10.83,1.83,11.09-6.65
		c0.27-8.49-5.88-11.75-9.39-9.41c-0.46,0.3-0.92,0.62-1.41,0.93h-0.01c-3.34,2.19-7.35,4.34-8.37,0.25
		c-0.53-2.1-1.17-7.15-1.47-12.2v-0.01c-0.27-4.55-0.27-9.06,0.33-11.37c0.25-0.95-0.39-1.89-1.36-2.06
		c-5.3-0.92-16.18-1.82-19.05,0.05c-3.39,2.22-0.65,5.35,2.22,10.18c2.04,3.42-0.98,10.14-6.12,11.11h-0.01
		c-2.11,0.37-4.56-0.2-7.17-2.36c-8.26-6.82-0.62-12.55-0.9-15.56c-0.02-0.28-0.11-0.54-0.28-0.76
		C285.42,243.45,266.36,242.79,265.18,244.49z"/>
	<path class="st144" d="M265.05,261.97v39.41c0,3.48,2.82,6.3,6.3,6.3h35.12c-14.49-2.75-32.62-4.36-35.67-9.04
		C267.8,294,266.83,269.28,265.05,261.97z"/>
	<path class="st144" d="M282.68,255.98c1.29,9.86,9.3,10.59,13.18,8.88c-2.11,0.37-4.56-0.2-7.17-2.36
		c-8.26-6.82-0.62-12.55-0.9-15.56C285.31,246.41,281.55,247.34,282.68,255.98z"/>
	<path class="st144" d="M319.85,256.96c-1.24,3.83-3.08,15.08,0.02,17.13c3.42,2.24,8-0.98,9.82-5.18
		c-3.34,2.19-7.35,4.34-8.37,0.25C320.8,267.06,320.16,262.01,319.85,256.96z"/>
	<path class="st15" d="M261.44,276.15c0.2-0.04,0.42-0.07,0.67-0.12c0.18-0.04,0.34-0.07,0.51-0.12c4.14-1.07,9.3-5.09,7.49-5.62
		c-1.9-0.55-5.34,1.9-4.79,0.95c0.55-0.95,0.19-1.93,0.04-1.89c-0.14,0.04-2.41,3.68-4.45,5.04
		C260.91,274.38,258.25,276.59,261.44,276.15z"/>
	<path class="st15" d="M221.95,307.2c0.07,0.2,2.65,0.43,6.47,0.28l0.01-0.01c0.97-0.04,2.01-0.09,3.12-0.19
		c0,0,0.15-0.19,0.36-0.47c0.64-0.81,1.83-2.35,1.68-2.35c-0.12,0-0.53,0.12-1.16,0.07c-0.13-0.01-0.26-0.02-0.4-0.05
		c-0.46-0.08-0.99-0.25-1.59-0.57C228.74,302.97,221.62,306.4,221.95,307.2z"/>
	<path class="st9" d="M239.99,262.5c1.85-0.44,2.77-1.12,5.49-0.75c-0.06-0.29-0.13-0.57-0.22-0.85c0,0-1.37-0.13-2.77-0.19
		C241.36,261.51,239.99,262.5,239.99,262.5z"/>
	<path class="st25" d="M238.48,262.81c0.07,0.13,0.41,0.63,0.41,0.63s0.07-0.11,0.4-0.34c0.25-0.19,0.64-0.44,1.26-0.78
		c0.28-0.16,0.61-0.34,0.98-0.53c0.12-0.06,0.23-0.12,0.35-0.16c0-0.01,0.01-0.01,0.02-0.01c2.1-0.93,3.24-0.22,3.49-0.34
		c0.27-0.12-0.56-3.01-2.56-4.38c0,0-0.22,0.11-0.56,0.27c-0.78,0.39-2.2,1.1-3.06,1.62c-0.12,0.07-0.22,0.14-0.32,0.2
		C237.81,259.73,238.44,262.73,238.48,262.81z"/>
	<path class="st145" d="M236.98,290.5c14.26-4.19,24.39-4.63,27.36-1.8c2.97,2.82-9.44,13.53-10.37,13.92
		c-0.92,0.39-3.36-1.17-3.16-2c0.19-0.83,1.41-3.12,2.97-4.92c1.56-1.8,3.75-3.31,3.75-3.31s-8.62,5.65-13.78,5.01
		C238.59,296.78,236.98,290.5,236.98,290.5z"/>
	<path class="st9" d="M228.43,307.47c0.97-0.04,2.01-0.09,3.12-0.19c0,0,0.15-0.19,0.36-0.47c0.28-0.77,0.47-1.89,0.53-2.28
		c0.01-0.09,0.02-0.14,0.02-0.14c-0.15,0.01-0.29,0.05-0.42,0.09c-1.16,0.44-1.32,2.09-2.17,2.5
		C229.3,307.27,228.76,307.36,228.43,307.47z"/>
	<path class="st146" d="M229.12,298.59c0.77,0.93,1.95,1.88,3.67,2.66c1.74,0.79,5.34,1.48,8.95,2.02c-4.17,0.21-8.49,0.88-9.38,1.1
		c-1.17,0.29-1.81,2.77-1.66,2.97c0.14,0.19,28.09,3.89,29.21,0.49c1.12-3.41-10.08-13.59-22.94-17.34c0,0-0.39,0.13-1,0.35
		c-2.27,0.79-7.62,2.8-8,3.98C227.68,295.74,227.92,297.17,229.12,298.59z"/>
	<path class="st147" d="M215.41,307.48c0.22,0.05,0.49,0.09,0.81,0.12c1.18,0.12,2.93,0.11,4.34,0.05c0.29-0.01,0.56-0.04,0.81-0.05
		c0.9-0.07,1.51-0.14,1.51-0.19c0-0.19,1.54-2.11,3.53-2.77c2-0.67,4.07-0.72,4.07-0.72c-0.69-0.92-1.31-1.39-1.82-1.64
		c-0.58-0.26-1.03-0.21-1.25-0.18c-0.29,0.05-6.22,1.97-9.82,3.46c-1.5,0.63-2.58,1.18-2.71,1.48
		C214.78,307.24,215,307.38,215.41,307.48z"/>
	<path class="st148" d="M229.12,298.59c-0.81-3.08,3.54-5.06,8.02-7.89c0,0-0.48,0.05-1.17,0.14c-2.27,0.79-7.62,2.8-8,3.98
		C227.68,295.74,227.92,297.17,229.12,298.59z"/>
	<path class="st89" d="M228.08,294.83c0.85-1.16,10.01-4.34,10.12-4.67c0.09-0.34-1.52-2.49-0.89-5.3c0.26-1.12,1.02-2.29,1.83-3.47
		c0.76-1.11,1.57-2.22,2.07-3.33c0.33-0.71,0.53-1.43,0.49-2.11c-0.15-2.92-2.66-6.46-5.7-7.98c-0.39-0.2-2.78,1.51-3.65,4.87
		c-0.28,1.1-0.36,2.61-0.4,4.29c-0.08,3.58-0.01,7.93-1.46,10.75c-0.68,1.32-1.25,2.62-1.69,3.73
		C227.87,293.98,227.55,295.55,228.08,294.83z"/>
	<path class="st9" d="M261.44,276.15c0.2-0.04,0.42-0.07,0.67-0.12c0.18-0.04,0.34-0.07,0.51-0.12c-0.55-0.39-0.64-1.65-1.15-1.69
		C261.48,274.22,261.41,275.52,261.44,276.15z"/>
	<path class="st149" d="M238.68,279.06c0.4,0.74,0.47,1.62,0.47,2.33c0.76-1.11,1.57-2.22,2.07-3.33c-1.55-1.74-7.03-5.71-7.03-5.71
		C232.16,275.84,237.83,277.53,238.68,279.06z"/>
	<path class="st150" d="M234.25,272.08c2.05-2.46,14.75,5.48,15.3,5.59s11.5-3.72,11.83-3.58c0.33,0.15,0.73,1.61,0.73,1.94
		c0,0.33-9.75,5.55-11.72,5.7C248.42,281.87,230.46,276.65,234.25,272.08z"/>
	<path class="st26" d="M217.57,305.67c3.06,0.11,8.8-1.79,11.07-3.28c-0.58-0.26-1.03-0.21-1.25-0.18
		C227.09,302.25,221.17,304.18,217.57,305.67z"/>
	<path class="st149" d="M228.81,291.59c1.09-1.45,2.26-2.3,3.29-4.03c1.36-2.26,1.45-6.23-0.14-10.45
		c-0.08,3.58-0.01,7.93-1.46,10.75C229.83,289.19,229.25,290.48,228.81,291.59z"/>
	<path class="st148" d="M251.78,303.01c-2.34-1.06-10.2,0.27-10.2,0.27s5.6-1.48,8.42-1.46
		C252.83,301.84,251.78,303.01,251.78,303.01z"/>
	<path class="st27" d="M216.21,307.6c1.18,0.12,2.93,0.11,4.34,0.05c0.29-0.01,0.56-0.04,0.81-0.05c0.02-0.11,0.04-0.22,0.02-0.34
		C221.32,306.11,216.53,307.13,216.21,307.6z"/>
	<path class="st28" d="M243.93,259.02c0.69,1.8-1.17,1.82-2.02,2.61c2.1-0.93,3.24-0.22,3.49-0.34c0.27-0.12-0.56-3.01-2.56-4.38
		c-0.56-0.43-2.14-1.15-3.72-0.85c-0.4,0.07-0.78,0.2-1.16,0.42c0.37-0.05,0.77-0.06,1.17-0.05c1.09,0.02,2.22,0.23,3.14,0.75
		c0.21,0.12,0.4,0.25,0.58,0.4C243.33,257.94,243.69,258.42,243.93,259.02z"/>
	<path class="st28" d="M223.4,273.83c1.73-1.54,4.97-5.27,8.12-11.79c3.94-8.14,5.32-8.18,6.94-7.52c-0.99-0.92-2.85-0.85-3.67,0.34
		c-1.39,2.02-4.83,8.96-8.72,15.05C225.26,271.18,224.33,272.51,223.4,273.83z"/>
	<path class="st151" d="M193.8,184.41v148.78c0,6.09-4.98,11.07-11.07,11.07h-77.7c-1.24,0-2.4-0.39-3.35-1.07
		c-1.5-1.05-2.48-2.8-2.48-4.76V184.41c0-6.09,4.98-11.07,11.07-11.07h72.46C188.82,173.34,193.8,178.32,193.8,184.41z"/>
	<path class="st3" d="M105.03,339.4c-0.2,0-0.38-0.06-0.54-0.17c-0.11-0.08-0.43-0.34-0.43-0.8V184.41c0-3.43,2.79-6.21,6.21-6.21
		h72.46c3.43,0,6.21,2.79,6.21,6.21v148.78c0,3.42-2.79,6.21-6.21,6.21H105.03z"/>
	<path class="st152" d="M142.3,210.78h-30.8c-0.9,0-1.63-0.73-1.63-1.63v-17.68c0-0.9,0.73-1.63,1.63-1.63h30.8
		c0.9,0,1.63,0.73,1.63,1.63v17.68C143.92,210.05,143.19,210.78,142.3,210.78z"/>
	<path class="st152" d="M181.5,210.78h-30.8c-0.9,0-1.63-0.73-1.63-1.63v-17.68c0-0.9,0.73-1.63,1.63-1.63h30.8
		c0.9,0,1.63,0.73,1.63,1.63v17.68C183.13,210.05,182.4,210.78,181.5,210.78z"/>
	<path class="st152" d="M176.32,298.37h-59.64c-1.64,0-2.98-1.33-2.98-2.98v-32.16c0-1.64,1.33-2.98,2.98-2.98h59.64
		c1.64,0,2.98,1.33,2.98,2.98v32.16C179.3,297.04,177.96,298.37,176.32,298.37z"/>
	<path class="st133" d="M162.17,230.09H130.6c-1.14,0-2.07-0.93-2.07-2.07l0,0c0-1.14,0.93-2.07,2.07-2.07h31.57
		c1.14,0,2.07,0.93,2.07,2.07l0,0C164.24,229.16,163.32,230.09,162.17,230.09z"/>
	<path class="st134" d="M152.47,246.91h-12.16c-1.14,0-2.07-0.93-2.07-2.07l0,0c0-1.14,0.93-2.07,2.07-2.07h12.16
		c1.14,0,2.07,0.93,2.07,2.07l0,0C154.54,245.98,153.61,246.91,152.47,246.91z"/>
	<path class="st135" d="M178.09,234.92h-63.4c-0.71,0-1.29-0.58-1.29-1.29l0,0c0-0.71,0.58-1.29,1.29-1.29h63.4
		c0.71,0,1.29,0.58,1.29,1.29l0,0C179.38,234.34,178.8,234.92,178.09,234.92z"/>
	<path class="st127" d="M169.79,240.52h-46.62c-0.71,0-1.29-0.58-1.29-1.29l0,0c0-0.71,0.58-1.29,1.29-1.29h46.62
		c0.71,0,1.29,0.58,1.29,1.29l0,0C171.08,239.94,170.5,240.52,169.79,240.52z"/>
	<path class="st127" d="M172.12,310.97h-51.28c-0.71,0-1.29-0.58-1.29-1.29l0,0c0-0.71,0.58-1.29,1.29-1.29h51.28
		c0.71,0,1.29,0.58,1.29,1.29l0,0C173.41,310.4,172.83,310.97,172.12,310.97z"/>
	<path class="st127" d="M172.12,315.76h-51.28c-0.71,0-1.29-0.58-1.29-1.29v0c0-0.71,0.58-1.29,1.29-1.29h51.28
		c0.71,0,1.29,0.58,1.29,1.29v0C173.41,315.18,172.83,315.76,172.12,315.76z"/>
	<path class="st127" d="M172.12,320.55h-51.28c-0.71,0-1.29-0.58-1.29-1.29l0,0c0-0.71,0.58-1.29,1.29-1.29h51.28
		c0.71,0,1.29,0.58,1.29,1.29l0,0C173.41,319.97,172.83,320.55,172.12,320.55z"/>
	<path class="st127" d="M172.12,325.34h-51.28c-0.71,0-1.29-0.58-1.29-1.29l0,0c0-0.71,0.58-1.29,1.29-1.29h51.28
		c0.71,0,1.29,0.58,1.29,1.29l0,0C173.41,324.76,172.83,325.34,172.12,325.34z"/>
	<path class="st153" d="M188.77,135.87c0.13-0.69-0.13-2.16-0.94-3.3c-0.8-1.14-1.63-4.04-0.2-6.4c1.43-2.36,2.68-1.61,2.68-1.61
		s-0.42-2.14,0.82-2.99c1.25-0.85,3.81-1.72,4.9,0.78c1.09,2.5-4.97,11.66-5.4,12.2C190.22,135.09,188.77,135.87,188.77,135.87z"/>
	<path class="st15" d="M191.82,136.78c-0.11,0.11-0.42,0.69-0.78,1.4c-0.63,1.25-1.39,2.9-1.45,3.01c-0.09,0.18-4.19-2.79-4.21-2.99
		c-0.02-0.17,2.84-2.32,4.15-3.28c0.27-0.2,0.47-0.35,0.57-0.42C190.1,134.51,192.13,136.47,191.82,136.78z"/>
	<path class="st9" d="M191.82,136.78c-0.11,0.11-0.42,0.69-0.78,1.4c-0.49-0.7-1.24-2.15-1.51-3.26c0.27-0.2,0.47-0.35,0.57-0.42
		C190.1,134.51,192.13,136.47,191.82,136.78z"/>
	<path class="st15" d="M198.8,130.02c-0.43,2.51-2.47,7.37-5.08,7.64c-2.62,0.27-3.78-1.99-3.89-3.15
		c-0.12-1.16-0.15-5.44,0.86-6.51C191.69,126.93,198.95,129.16,198.8,130.02z"/>
	<path class="st15" d="M190.75,130.11c0,0.81-0.51,1.46-1.15,1.46c-0.63,0-1.15-0.65-1.15-1.46c0-0.81,0.51-1.46,1.15-1.46
		C190.24,128.65,190.75,129.3,190.75,130.11z"/>
	<path class="st153" d="M190.22,128.88c1.23-1.78,6.15,1.5,7.71,2.06c1.56,0.56,4.55,0.82,4.77-0.91c0.22-1.74-2.36-1.54-2.36-1.54
		s1.74-0.09,1.61-1.94c-0.13-1.85-2.16-1.65-2.16-1.65s0.47-1.47-0.71-2.25c-1.18-0.78-2.85-0.25-3.05-0.09
		c-0.2,0.16-5.53,3.72-5.93,4.35C189.68,127.53,190.22,128.88,190.22,128.88z"/>
	<path class="st15" d="M211.08,145.55c0.09,0.18-1.38,1.52-3.86,2.05c-2.47,0.54-3.3,0-3.77,0.13c-0.23,0.07-0.68,0.5-1.11,0.95
		c-0.45,0.47-0.86,0.94-0.97,0.99c-0.2,0.11-2.45-1.87-1.78-2.34c0.3-0.21,0.55-0.39,0.78-0.56c1.54-1.09,1.94-1.25,5.53-1.25
		C210.04,145.52,211,145.37,211.08,145.55z"/>
	<path class="st154" d="M206.63,152.99L206.63,152.99c-0.13-0.12-0.13-0.32-0.02-0.44l10.92-11.7c0.12-0.13,0.32-0.13,0.44-0.02l0,0
		c0.13,0.12,0.13,0.32,0.02,0.44l-10.92,11.7C206.95,153.1,206.76,153.11,206.63,152.99z"/>
	<path class="st15" d="M212.35,149.69c-1.14,1.34-0.87,1.23-2.41,1.61c-0.96,0.24-3.68,1.25-5.66,1.98
		c-0.87,0.32-1.6,0.59-1.97,0.71c-0.14,0.05-0.23,0.07-0.26,0.07c-0.07,0-0.03-0.26,0.06-0.63c0.25-1.01,0.87-2.87,0.87-2.87
		c0.31-0.01,0.63-0.05,0.96-0.12c1.11-0.22,2.28-0.7,3.03-1.04c0.98-0.45,3.25-1.29,4.12-1.38c0.87-0.09,1.41-1.29,1.63-1.03
		C212.96,147.26,213.49,148.35,212.35,149.69z"/>
	<path class="st155" d="M195.5,195.09c-0.15,0.07-0.76,0.01-1.52-0.17c-0.75-0.17-1.63-0.46-2.37-0.85
		c-1.49-0.77-5.11-4.7-5.89-5.71c-0.09-0.12-0.15-0.23-0.17-0.33c-0.13-0.57,0.74-0.85,1.58-1.51c0.17-0.14,0.35-0.29,0.51-0.46
		c0.07-0.07,0.13-0.15,0.19-0.23c0,0,1.64-2.38,2.17,0.06c0.02,0.09,0.05,0.2,0.08,0.3c0.14,0.44,0.39,0.97,0.71,1.55
		C192.4,190.71,195.74,194.98,195.5,195.09z"/>
	<path class="st155" d="M212.42,198.73c-0.61,0.91-1.47,2.02-1.97,2.4c-0.86,0.65-6.41,2.8-7.38,2.82h-0.02
		c-0.76,0-0.95-1.87-1.15-3.48c-0.04-0.31-0.07-0.61-0.12-0.89c-0.01-0.03-0.01-0.06-0.01-0.09c0,0,0.03-0.03,0.1-0.08
		c0.25-0.18,1.01-0.6,2.7-0.36c0.2,0.03,0.43,0.03,0.7,0.02c2.57-0.1,7.79-1.84,7.87-1.63
		C213.16,197.54,212.86,198.08,212.42,198.73z"/>
	<path class="st9" d="M205.26,199.07c-0.33,0.34-2.01,1.06-3.36,1.4c-0.04-0.31-0.07-0.61-0.12-0.89c0.02-0.06,0.05-0.11,0.08-0.17
		c0.25-0.18,1.01-0.6,2.7-0.36C204.76,199.08,205,199.08,205.26,199.07z"/>
	<path class="st139" d="M170.71,173.24c7.13,2.73,16.71,1.61,17.12,1.96c0.42,0.36,12.84,24.97,13.38,24.97
		c0.54,0,3.75-1.31,3.98-1.49c0.24-0.18-7.31-23.84-8.26-25.03c-0.95-1.19-3.69-5.71-14.51-6.24c-10.82-0.54-14.63,1.19-14.09,2.5
		C168.86,171.22,170.71,173.24,170.71,173.24z"/>
	<path class="st9" d="M190.79,187.76c-0.89,0.17-2.54-0.48-3.67-1.23c0.17-0.14,0.35-0.29,0.51-0.46c0.6-0.09,1.36-0.16,1.82-0.06
		c0.18,0.04,0.4,0.11,0.63,0.2C190.23,186.65,190.48,187.18,190.79,187.76z"/>
	<path class="st138" d="M196.81,175.32c-1.96,2.91-6,11.89-6.24,11.95c-0.24,0.06-3.63-1.01-3.8-1.37
		c-0.18-0.36,0.42-1.84,1.84-8.98c1.43-7.13,5.41-10.4,5.41-10.64c0-0.24-4.94,1.07-8.15,3.09c-3.21,2.02-11.95,6.3-15.87,5.47
		c-3.08-0.65-4.95-2.85-5.04-5.81c-0.02-0.81,0.09-1.67,0.34-2.58c0,0,0.05,1.83,9.11-3.03c0.61-0.32,1.25-0.68,1.94-1.07
		c11-6.18,23.3-2.56,24.73,0.71C202.51,166.35,198.77,172.41,196.81,175.32z"/>
	<path class="st9" d="M202.35,148.68c-0.45,0.47-0.86,0.94-0.97,0.99c-0.2,0.11-2.45-1.87-1.78-2.34c0.3-0.21,0.55-0.39,0.78-0.56
		C201.15,147.3,201.95,148.13,202.35,148.68z"/>
	<path class="st156" d="M202,149.03c0.04,0.15-0.34,0.71-0.93,1.43c-0.64,0.79-1.51,1.77-2.34,2.61c0,0,0,0,0,0
		c-0.92,0.94-1.78,1.7-2.16,1.82c-1.03,0.31-5.93,1.25-6.55,0.67c-0.15-0.14-0.4-0.65-0.67-1.36c-0.46-1.18-1.01-2.93-1.32-4.45
		c-0.28-1.39-0.37-2.6-0.01-3.03c0.98-1.16,1.83-4.37,1.83-4.37c0.25,0.47,0.48,1.08,0.68,1.76c0.06,0.2,0.12,0.4,0.17,0.6
		c0.87,3.19,1.33,7.5,1.51,7.71c0.22,0.27,7.71-5.8,7.89-5.48C200.27,147.26,201.86,148.54,202,149.03z"/>
	<path class="st9" d="M174.41,163.43c-0.14,0.3-0.45,0.62-0.91,0.89c-1.87,1.13-5.26,4.49-6.21,4.82c-0.6,0.21-1.52,0.26-2.33-0.1
		c-0.02-0.81,0.09-1.67,0.34-2.58C165.3,166.47,165.35,168.29,174.41,163.43z"/>
	<path class="st9" d="M201.07,150.46c-0.64,0.79-1.51,1.77-2.34,2.61c0,0,0,0,0,0c-2.63,1.34-6.02,2.62-7.04,2.28
		c-1-0.33-1.76-0.61-2.35-1.16c-0.58-0.53-0.99-1.31-1.31-2.61c-0.13-0.54-0.12-1.17-0.01-1.83c0.39-2.38,2.01-5.16,2.5-5.63
		c0.06,0.2,0.12,0.4,0.17,0.6c-0.41,2.07-0.95,3.38-0.95,3.56c0,0.2,1.18,4.57,1.85,4.57C192.22,152.86,198.14,150.59,201.07,150.46
		z"/>
	<path class="st157" d="M186.8,153.06c-0.13,0.1-0.32,0.27-0.57,0.48c-0.36,0.32-0.83,0.75-1.37,1.25
		c-2.49,2.32-6.36,6.06-6.99,6.65c-0.85,0.8-7.54,4.77-8.2,5.22c-0.67,0.45-3.88,1.52-4.68,0.89c-0.8-0.62,2.14-9.1,4.86-16.14
		c2.72-7.05,10.08-13.73,13.11-14.14c3.03-0.4,4.47,1.03,6.73,2.85C192.69,142.54,188.01,152.12,186.8,153.06z"/>
	<path class="st9" d="M204.29,153.28c-0.87,0.32-1.6,0.59-1.97,0.71c-0.01-0.01-0.01-0.03-0.01-0.04c-0.06-0.17-0.12-0.35-0.18-0.52
		c0.25-1.01,0.87-2.87,0.87-2.87c0.31-0.01,0.63-0.05,0.96-0.12C204.2,151.17,204.38,152.47,204.29,153.28z"/>
	<path class="st9" d="M186.24,153.54c-0.36,0.32-0.83,0.75-1.37,1.25c-0.91-1.05-3.78-5.9-4.53-7.59c-0.83-1.87-1.55-5.26-0.42-6.57
		c0,0,1.1,1.81,3.06,5.41C184.88,149.52,186.05,151.86,186.24,153.54z"/>
	<path class="st9" d="M182.52,139.15c1.9-0.27,3.61,0.98,4.37,1.92c0.76,0.94,2.43,5.35,2.41,7.45
		C189.28,150.61,182.52,139.15,182.52,139.15z"/>
	<path class="st158" d="M179.49,142.76c0.3,5.43,8.96,15.7,11.15,16.28c2.18,0.58,13.02-5.26,13.11-5.57
		c0.09-0.31,0.19-2.91-0.12-3.05c-0.31-0.13-8.44,1.62-10.36,2.33c-1.92,0.71-1.83,0.89-2.81-1.34c-0.98-2.23-2.1-8.52-4.37-10.92
		C183.82,138.08,179.27,138.79,179.49,142.76z"/>
	<path class="st9" d="M212.42,198.73c-0.61,0.91-1.47,2.02-1.97,2.4c-0.86,0.65-6.41,2.8-7.38,2.82c-0.08-0.03-0.13-0.08-0.16-0.14
		c-0.28-0.58,1.71-2.14,4.46-3.49C209.55,199.25,211.56,198.64,212.42,198.73z"/>
	<path class="st9" d="M194.05,194.86c-0.02,0.02-0.04,0.05-0.07,0.06c-0.75-0.17-1.63-0.46-2.37-0.85c-1.49-0.77-5.11-4.7-5.89-5.71
		c-0.09-0.12-0.15-0.23-0.17-0.33c0.8-0.03,2.75,0.98,4.8,2.54C192.78,192.43,194.44,194.35,194.05,194.86z"/>
	<path class="st25" d="M87.53,262.2c-2.4,0.8-3.8,0.63-5.14-0.9s-1.28-4.43-0.05-5.82s4.58-1.31,4.99,0.44
		C87.74,257.67,87.53,262.2,87.53,262.2z"/>
	<path class="st15" d="M90.53,269.3c-0.13,0.42-3.81-0.94-4.04-1.29c-0.2-0.32,0.21-3.21,0.67-5.14c0.05-0.22,0.11-0.43,0.16-0.62
		c0-0.01,0.01-0.02,0.01-0.03c0,0,0.03,0.01,0.07,0.03c0.4,0.18,2.4,1.12,2.51,1.55c0.06,0.22,0,0.67-0.05,1.18
		c-0.06,0.6-0.12,1.28,0.02,1.73C90.15,267.54,90.66,268.88,90.53,269.3z"/>
	<path class="st9" d="M87.17,262.88c0.6,0.83,1.56,1.79,2.7,2.12c0.05-0.51,0.11-0.96,0.05-1.18c-0.11-0.44-2.11-1.37-2.51-1.55
		c-0.03,0-0.05,0-0.08,0L87.17,262.88z"/>
	<path class="st15" d="M91.2,254.93c2.17,3.26,2.47,5.43,1.89,7.12c-0.58,1.7-0.78,3.3-3.68,2.13c-2.91-1.16-4.31-5.91-4.41-6.35
		C84.9,257.4,90.23,253.47,91.2,254.93z"/>
	<path class="st15" d="M86.79,259.94c0.42,0.72,0.3,1.56-0.25,1.88c-0.56,0.32-1.34,0-1.76-0.71c-0.42-0.72-0.3-1.56,0.25-1.88
		C85.58,258.9,86.37,259.22,86.79,259.94z"/>
	<path class="st25" d="M85.41,259.1c1.21-2.88,3.38-2.17,5.47-2.19c2.08-0.02,2.52-0.34,2.29-1.03c-0.23-0.69-0.84-2.58-2.52-3.3
		c-1.68-0.71-3.57-1.21-5.49,0.06c-1.92,1.28-3.34,2.99-3.54,4.38c-0.19,1.39,3.13,1.46,3.36,1.65
		C85.21,258.86,85.41,259.1,85.41,259.1z"/>
	<path class="st25" d="M83.68,254.27c-0.07-1.36-1.09-1.58-2.69-1.31c-1.6,0.27-2.47,2.81-1.89,3.8c0.58,0.99,0.94,1.96,2.52,1.41
		C83.2,257.62,83.68,254.27,83.68,254.27z"/>
	<path class="st159" d="M85.41,259.1c0.91-1.17,1.12-1.57,3.48-1.45c2.36,0.13,4.47,0.26,5.09-0.73c0.61-0.99,0.52-2.42,0.34-2.71
		c-0.18-0.29-1.32,1.49-2.28,1.73c-0.95,0.24-2.39-0.45-4.22-0.05C85.99,256.3,85.41,259.1,85.41,259.1z"/>
	<path class="st160" d="M92.12,306.91c-0.01,0.06-0.01,0.13-0.02,0.2c-0.07,0.64-0.25,1.54-0.5,2.63
		c-1.32,5.74-4.63,16.51-5.17,19.07c-0.65,3.1-1.71,15.07-1.55,17.9c0.16,2.88,0.79,4.56,0.79,4.56c-0.19,0.15-2.08-1.89-2.67-4.17
		c-0.58-2.28-2.76-10.03-2.04-15.85c0.66-5.29,1.8-13.84,1.76-17.43c0-0.35-0.02-0.66-0.05-0.91c-0.1-0.9,0.05-2.22,0.42-3.56v0
		c0.31-1.13,0.76-2.28,1.33-3.2c0.06-0.09,0.12-0.19,0.18-0.28c0.8-1.2,1.81-1.92,2.92-1.56C90.5,305.3,92.12,306.91,92.12,306.91z"
		/>
	<path class="st15" d="M87.64,306.9c-8.01,11.76-10.79,14.15-13.83,15.64s-15.38,3.1-18.03,3.81c-2.65,0.71-5.04,4.46-5.04,4.46
		c-0.26-0.32,1.55-5.36,5.94-7.75s11.36-4.4,13.44-5.1c1.81-0.61,2.91-0.71,3.81-2.71c0.9-2,3.17-10.14,4.07-10.79
		C78.92,303.8,87.64,306.9,87.64,306.9z"/>
	<path class="st161" d="M89.5,355.7c-0.06,0.07-0.54,0.15-1.18,0.21c-1.18,0.12-2.89,0.16-3.31-0.12c-0.65-0.42-1.16-2.07-2.07-2.58
		c-0.42-0.24-0.78-0.6-0.98-1c-0.23-0.46-0.28-0.96-0.02-1.39c0.48-0.81,0.97-1.42,1.07-1.87c0.1-0.45,0.06-1.42,0.29-1.1
		c0.22,0.32,2.23,3.04,2.37,3.43c0.29,0.78,0.82,1.94,1.44,2.39C87.72,354.11,89.66,355.5,89.5,355.7z"/>
	<path class="st161" d="M52.82,326.62c-0.16,0.36-1.5,3.46-1.76,3.78c-0.53,0.65-1.26,1.69-1.34,2.45
		c-0.08,0.76-0.31,3.13-0.56,3.09c-0.12-0.02-0.7-0.76-1.24-1.59c-0.57-0.87-1.12-1.85-1.1-2.24c0.04-0.77,1.2-2.05,1.19-3.09
		c-0.01-0.89,0.45-1.78,1.17-2.01c0.12-0.04,0.25-0.06,0.39-0.06c0.94,0.01,1.72,0.12,2.16-0.02
		C52.16,326.78,52.98,326.26,52.82,326.62z"/>
	<path class="st9" d="M76.86,306.81c1.37,0.91,3.72,1.89,6.24,2.55v0c0.81,0.22,1.65,0.4,2.47,0.54c2.31,0.39,4.52,0.43,6.03-0.16
		c0.25-1.09,0.43-2,0.5-2.63c-1.64-0.4-4.37-0.41-5.6-0.71c-0.19-0.05-0.42-0.09-0.69-0.12c-0.39-0.05-0.86-0.09-1.38-0.12
		c-2.34-0.14-5.64-0.07-7.31-0.02L76.86,306.81z"/>
	<path class="st162" d="M90.07,267.11c1.89,0.24,7.09,4.2,8.59,7.01c1.5,2.81-4.31,2.71-4.99,2.57
		C92.99,276.54,90.07,267.11,90.07,267.11z"/>
	<path class="st146" d="M86.54,266.83c1.21,0.84,2.52,2,3.3,1.66c0.78-0.34-0.02-1.34,0.23-1.39c0.24-0.05,4.47,6.28,4.43,8.46
		c-0.05,2.18-2.18,5.75-2.31,8.46c-0.13,2.71,2,10.6,1.74,14.47c-0.26,3.88-0.58,9.63-2.07,10.14c-1.49,0.52-6.98,0.71-10.6-0.58
		c-3.62-1.29-4.59-1.62-4.78-2.33c-0.19-0.71,0.58-5.62,3.36-10.34c2.78-4.72,5.82-9.37,5.17-11.5c-0.65-2.13-4.01-6.46-4.14-7.43
		c-0.13-0.97-0.34-7.2,0.19-7.98C81.6,267.72,86.06,266.49,86.54,266.83z"/>
	<path class="st163" d="M107.23,258.6l-5.72,4.08c-0.73,0.52-0.9,1.53-0.38,2.26l2.23,3.13c0.52,0.73,1.53,0.9,2.26,0.38l5.72-4.08
		c0.73-0.52,0.9-1.53,0.38-2.26l-2.23-3.13C108.97,258.25,107.96,258.08,107.23,258.6z"/>
	<path class="st163" d="M125.7,257.55l-6.9-1.31c-0.88-0.17-1.73,0.41-1.89,1.29l-0.72,3.77c-0.17,0.88,0.41,1.73,1.29,1.89
		l6.9,1.31c0.88,0.17,1.73-0.41,1.89-1.29l0.72-3.77C127.15,258.57,126.58,257.72,125.7,257.55z"/>
	<path class="st163" d="M118.3,296.93l-6.9-1.31c-0.88-0.17-1.73,0.41-1.89,1.29l-0.72,3.77c-0.17,0.88,0.41,1.73,1.29,1.89
		l6.9,1.31c0.88,0.17,1.73-0.41,1.89-1.29l0.72-3.77C119.75,297.94,119.18,297.09,118.3,296.93z"/>
	<path class="st163" d="M129.97,291.53l-5.72,4.08c-0.73,0.52-0.9,1.53-0.38,2.26l2.23,3.13c0.52,0.73,1.53,0.9,2.26,0.38l5.72-4.08
		c0.73-0.52,0.9-1.53,0.38-2.26l-2.23-3.13C131.71,291.18,130.7,291.01,129.97,291.53z"/>
	<path class="st163" d="M139.2,269.44l-4.03-5.76c-0.51-0.73-1.52-0.91-2.26-0.4l-3.15,2.2c-0.73,0.51-0.91,1.52-0.4,2.26l4.03,5.76
		c0.51,0.73,1.52,0.91,2.26,0.4l3.15-2.2C139.53,271.18,139.71,270.17,139.2,269.44z"/>
	<path class="st163" d="M106.08,292l-4.03-5.76c-0.51-0.73-1.52-0.91-2.26-0.4l-3.15,2.2c-0.73,0.51-0.91,1.52-0.4,2.26l4.03,5.76
		c0.51,0.73,1.52,0.91,2.26,0.4l3.15-2.2C106.42,293.75,106.6,292.74,106.08,292z"/>
	<path class="st163" d="M100.96,280.43l1.21-6.92c0.15-0.88-0.43-1.72-1.32-1.88l-3.78-0.66c-0.88-0.15-1.72,0.43-1.88,1.32
		l-1.21,6.92c-0.15,0.88,0.43,1.72,1.32,1.88l3.78,0.66C99.96,281.9,100.8,281.31,100.96,280.43z"/>
	<path class="st163" d="M140.44,287.56l1.21-6.92c0.15-0.88-0.43-1.72-1.32-1.88l-3.78-0.66c-0.88-0.15-1.72,0.43-1.88,1.32
		l-1.21,6.92c-0.15,0.88,0.43,1.72,1.32,1.88l3.78,0.66C139.45,289.03,140.29,288.44,140.44,287.56z"/>
	<path class="st164" d="M110.99,285.85c1.16,0.26,1.55,0.32,1.87,0.74c0.32,0.42,0.9,0.42,1.03,0.84c0.13,0.42,0.39,1.36-0.52,1.13
		C112.47,288.33,110.99,285.85,110.99,285.85z"/>
	<path class="st163" d="M137.89,275.53c-2.44-11.07-13.39-18.07-24.46-15.63c-11.07,2.44-18.07,13.39-15.63,24.46
		c2.44,11.07,13.39,18.07,24.46,15.63C133.33,297.55,140.33,286.6,137.89,275.53z M119.66,288.53c-4.69,1.03-9.33-1.93-10.37-6.63
		c-1.03-4.69,1.93-9.33,6.63-10.37c4.69-1.03,9.33,1.93,10.37,6.63C127.32,282.86,124.35,287.5,119.66,288.53z"/>
	
		<ellipse transform="matrix(0.5349 -0.8449 0.8449 0.5349 -181.7131 229.7708)" class="st165" cx="117.85" cy="279.94" rx="11.6" ry="11.6"/>
	<path class="st15" d="M77.32,276.96c-0.68,2.52-1.1,8.3,0.32,9.3c1.42,1,9.92,0.42,13.18-0.84c3.26-1.26,8.59-3.94,8.92-4.39
		c0.32-0.45,3.3-5.36,3.23-5.72c-0.06-0.36-2.16,0.26-3.36,2.04c-1.2,1.78-1.52,2.49-2.84,2.91c-1.32,0.42-4.23,1.42-7.59,1.16
		s-5.25-0.24-6.96,0.4c-0.96,0.36-1.95,1.15-1.95,1.15s0.06-1.36,0.71-2.58c0.65-1.23,1.97-4.2,1.97-4.78
		C82.94,275.02,77.32,276.96,77.32,276.96z"/>
	<path class="st9" d="M77.14,277.71c1.42-0.37,4.09-0.96,5.09-0.45c0.05,0.03,0.09,0.05,0.14,0.07l-0.65,1.49l0,0
		c-1.18,0.06-3.27,0-4.7-0.49L77.14,277.71z"/>
	<path class="st146" d="M81.75,268.14c-1.22,0.16-2.91,1.97-3.91,5.65c-1,3.68-1,4.2-0.74,4.17c0.26-0.03,4.56,0.26,5.01,0
		c0.45-0.26,2.62-4.36,2.04-7.3C83.56,267.72,82.49,268.04,81.75,268.14z"/>
	<path class="st164" d="M111.4,285.94c0.44,0.71,0.27,1.22,0.76,1.61c0.48,0.39,0.96,0.56,1.31,0.55c0.35-0.02,0.57-0.1,0.53-0.23
		C113.97,287.74,111.4,285.94,111.4,285.94z"/>
	<path class="st9" d="M48.95,330.38c-0.25,1.66-0.64,3.11-1.04,3.96c-0.57-0.87-1.12-1.85-1.1-2.24c0.04-0.77,1.2-2.05,1.19-3.09
		c-0.01-0.89,0.45-1.78,1.17-2.01C49.21,327.91,49.14,329.09,48.95,330.38z"/>
	<path class="st9" d="M88.32,355.91c-1.18,0.12-2.89,0.16-3.31-0.12c-0.65-0.42-1.16-2.07-2.07-2.58c-0.42-0.24-0.78-0.6-0.98-1
		c0.9,0.28,2.14,0.85,3.45,1.62C86.62,354.54,87.64,355.28,88.32,355.91z"/>
	<path class="st25" d="M192.69,258.01c1.13,1.29,3.99,2.47,3.99,2.47c0.1-0.26,0.2-0.51,0.29-0.75c0.12-0.33,0.21-0.65,0.29-0.98
		c0.01-0.03,0.01-0.05,0.03-0.08c1.09-4.54-0.96-7.95-1.77-8.39c-0.03-0.03-0.05-0.04-0.08-0.05c0,0-0.01,0.03-0.05,0.09
		c-0.34,0.61-2.37,4.28-2.99,6.05c-0.01,0.01-0.01,0.03-0.01,0.03c-0.01,0.04-0.03,0.07-0.04,0.1c-0.04,0.13-0.08,0.26-0.1,0.36
		C192.14,257.23,192.34,257.63,192.69,258.01z"/>
	<path d="M192.31,256.37c0,0,0.01,0.04,0.03,0.13c0.07,0.25,0.2,0.85,0.35,1.51c1.13,1.29,3.99,2.47,3.99,2.47
		c0.1-0.26,0.2-0.51,0.29-0.75c0.12-0.33,0.21-0.65,0.29-0.98c0.01-0.03,0.01-0.05,0.03-0.08c1.09-4.54-0.96-7.95-1.77-8.39
		l0.01,0.01c0.01,0.01,0.01,0.03,0.03,0.04c0.42,0.91,1.12,2.6,0.88,4.04c-0.2,1.25-0.87,3.32-1.92,3.49
		c-0.62,0.1-1.61-1.47-2.12-1.5H192.31z"/>
	<path class="st15" d="M193.73,261.21c0.01,0.03,0.03,0.07,0.04,0.12c0.25,0.57,0.57,2.04,0.87,3.24c0.01,0.07,0.03,0.13,0.05,0.2
		c0,0,0,0,0,0.01c0.17,0.74,0.34,1.34,0.43,1.5c0.26,0.42,4.8-1.22,4.88-1.68c0.08-0.44-3.06-4.14-4.21-5.57
		c-0.01-0.03-0.04-0.05-0.05-0.08c-0.01-0.01-0.03-0.01-0.04-0.03c-0.08-0.04-0.35-0.17-0.62-0.23c0,0-0.01-0.01-0.03-0.01
		c-0.26-0.07-0.53-0.08-0.69,0.05c-0.03,0.03-0.07,0.05-0.09,0.09c-0.01,0.01-0.03,0.03-0.03,0.03
		C193.86,259.3,193.39,260.53,193.73,261.21z"/>
	<path class="st9" d="M193.73,261.21c0.01,0.03,0.03,0.07,0.04,0.12c0.25,0.57,0.57,2.04,0.87,3.24c0.01,0.07,0.03,0.13,0.05,0.2
		c0.05-0.79,0.14-1.78,0.33-2.13c0.4-0.79,0.16-2.24,0.34-2.51c0.18-0.29,0.52-0.38,0.43-1.09c0-0.01,0-0.01,0-0.03
		c0,0-0.01-0.03-0.05-0.05c-0.01-0.01-0.03-0.01-0.04-0.03c-0.1-0.09-0.31-0.22-0.62-0.23c0,0-0.01-0.01-0.03-0.01
		c-0.18-0.01-0.38,0-0.62,0.08c-0.05,0.01-0.12,0.04-0.16,0.07c-0.01,0.01-0.03,0.03-0.03,0.03
		C193.86,259.3,193.39,260.53,193.73,261.21z"/>
	<path class="st15" d="M186.32,254.79c0.01,0.35,0.05,0.7,0.09,1.08c0.43,3.78,2.13,8.67,4.58,9.23c2.69,0.61,3.91-2.48,3.81-5.18
		c-0.1-2.69-3.86-6.26-4.53-6.15c-0.35,0.05-1.5,0.35-2.47,0.61C186.99,254.59,186.32,254.79,186.32,254.79z"/>
	<path class="st15" d="M193.88,257.63c0.36-1.47,1.33-1.48,1.88-0.84c0.48,0.56,0.56,2.74-1.02,2.9
		C193.17,259.84,193.88,257.63,193.88,257.63z"/>
	<path class="st9" d="M186.32,254.79c0.01,0.35,0.05,0.7,0.09,1.08c1.38,0.86,4.79,0.3,5.87,0.31c0,0-2.67-1.25-4.47-1.79
		C186.99,254.59,186.32,254.79,186.32,254.79z"/>
	<path class="st25" d="M186.24,255.09c3.15,1.27,4.55,0.7,6.07,1.29c0.03,0.01,0.04,0.01,0.06,0.03c1.33,0.52,1.56,1.05,1.56,1.05
		l0.23-1.14l1.24-5.94l0.03-0.13c-0.04-0.01-0.07-0.03-0.1-0.03c-0.53-0.2-1.16-0.31-1.82-0.38c-3.29-0.35-7.6,0.59-8.52,0.35
		c-1.04-0.26-2.47-1.14-3.13-1.13c-0.07,0-0.1,0-0.14,0.01C181.13,249.25,183.08,253.82,186.24,255.09z"/>
	<path class="st166" d="M198.03,346.57c0.01,0.08,0.01,0.17,0.03,0.25c0.13,1.29,0.25,2.35,0.26,2.6c0.04,0.75,5.33,2.24,4.3-1.04
		c-0.46-1.46-0.62-3.07-0.65-4.7c0-0.01,0-0.01,0-0.03c-0.04-1.61,0.05-3.24,0.12-4.77c0.01-0.39,0.03-0.79,0.04-1.17
		c0,0-4.3,3.24-4.46,3.77C197.58,341.81,197.83,344.41,198.03,346.57z"/>
	<path class="st166" d="M176.37,348.91c-0.1-0.61,0.3-2.55,1.11-4.67c0.46-1.18,1.03-2.43,1.72-3.54c0.34-0.55,0.7-1.05,1.09-1.51
		c0,0-4.53,0.2-5.53,0.77c-0.65,0.38-1.43,3.16-2.25,5.2c-0.03,0.08-0.05,0.16-0.09,0.22c-0.39,0.99-0.79,1.78-1.2,1.96
		C170.72,347.58,176.55,350.06,176.37,348.91z"/>
	<path class="st167" d="M187.57,353.64c0.17,0.22,1.37,0.66,3.06,0.94c1.72,0.26,3.97,0.36,6.2-0.1c4.46-0.91,6.41-0.18,6.91-0.61
		c0.3-0.26,0.33-1.77-0.03-3.3c-0.22-0.98-0.6-1.96-1.16-2.64c-0.2-0.22-4.23,0.77-4.64,0.92c-0.43,0.14-1.3,0.91-2.76,1.86
		c-0.16,0.1-0.38,0.22-0.65,0.33c-1.2,0.53-3.33,1.16-4.92,1.68C188.35,353.12,187.44,353.46,187.57,353.64z"/>
	<path class="st167" d="M160.08,349.78c-0.03,0.34,0.96,0.92,2.33,1.5c2.16,0.9,5.27,1.77,6.92,1.55c2.69-0.35,6.66,0.31,7.43,0.05
		c0.47-0.16,0.42-1.79,0.18-3.11c-0.14-0.82-0.35-1.52-0.55-1.66c0,0-4.21-0.77-5.18-0.75c-0.96,0.01-1.43,0.49-3.15,1.11
		c-0.19,0.08-0.46,0.13-0.75,0.18c-1.74,0.31-4.93,0.36-6.42,0.7h-0.01C160.4,349.44,160.1,349.59,160.08,349.78z"/>
	<path class="st9" d="M172.3,345.35c0.04,0.01,0.08,0.04,0.12,0.04c1.33,0.47,4.47-1.99,4.99-2.08c0.34-0.05,0.07,0.7,0.07,0.94
		c0.46-1.18,1.03-2.43,1.72-3.54c0.03-0.18,0.03-0.31-0.03-0.38c-0.31-0.44-5.55,3.91-6.66,4.84
		C172.37,345.28,172.3,345.35,172.3,345.35z"/>
	<path class="st168" d="M171.91,345.57c0.22,0.3,5.18-1.53,8.77-6.49c0.14-0.21,0.3-0.42,0.44-0.61c3.37-4.73,6.1-9.36,7.71-18.22
		c1.31-7.24,3.85-8.52,5.48-10.91c0.44-0.65,0.82-1.39,1.08-2.35c1.22-4.49-0.53-9.52-1.52-10.05c-0.99-0.53-5.88,2.35-5.88,2.35
		c-2.43,7.17-5.71,17.31-6.78,22.27C180.14,326.5,171.67,345.26,171.91,345.57z"/>
	<path class="st169" d="M181.11,338.47c3.37-4.73,6.1-9.36,7.71-18.22c1.31-7.24,3.85-8.52,5.48-10.91
		c-0.52-3.41-1.57-8.15-1.57-8.15c-2.07,9.92-5.09,16.27-6.29,21.23C185.15,327.67,182.92,334.66,181.11,338.47z"/>
	<path class="st9" d="M197.89,346.87c0.05-0.01,0.12-0.03,0.17-0.05c1.57-0.46,3.34-3.88,3.62-3.88c0.16,0,0.23,0.38,0.3,0.72
		c-0.04-1.61,0.05-3.24,0.12-4.77c-0.52,0.42-3.38,6.28-4.06,7.69C197.94,346.76,197.89,346.87,197.89,346.87z"/>
	<path class="st170" d="M192.56,316.06c0.92,5.33,4.8,30.88,5.19,31.18c0.38,0.31,3.97-4.72,4.42-7.23
		c0.46-2.52,0.75-10.52-0.53-17.39c-1.3-6.85-3.43-6.71-2.21-12.89c0.16-0.78,0.34-1.56,0.53-2.33c1.09-4.29,2.6-8.31,2.05-12.29
		c-0.12-0.9-0.34-1.79-0.69-2.68c-2.21-5.57-8.99,4.34-8.99,4.34c-0.01,0.74-0.03,1.46-0.05,2.12c0,0.26-0.01,0.51-0.01,0.75
		C192.03,308.55,191.73,311.21,192.56,316.06z"/>
	<path class="st171" d="M191.05,299.54c0.4,0.07,0.81,0.1,1.22,0.1c3.08,0.08,6.31-1.12,7.08,0.2c0.78,1.34,0.03,6.31,0.61,7.56
		c1.09-4.29,2.6-8.31,2.05-12.29c-2.6,0.31-7.45,2.64-9.73,3.78C191.52,299.29,191.05,299.54,191.05,299.54z"/>
	<path class="st89" d="M185.85,301.49c0.2,0.26,12.62-3.12,16.71-4.83c0.75-0.33,1.22-0.57,1.29-0.74c0.38-1.07-1.68-3.36-0.77-7.54
		c0.53-2.48,2.08-7.44,2.64-12.38c0.38-3.39,0.3-6.78-0.88-9.35c-2.67-5.79-9.83-0.99-10.37-0.6c-3.23,2.29-2.9,6.63-4.66,18.36
		c-0.04,0.25-0.08,0.49-0.1,0.73c-0.57,3.65-1.21,6.63-1.79,9C186.71,299.03,185.71,301.3,185.85,301.49z"/>
	<path class="st172" d="M182.92,259.94l4.05,2.18c0.52,0.28,0.71,0.92,0.43,1.44l-1.19,2.21c-0.28,0.52-0.92,0.71-1.44,0.43
		l-4.05-2.18c-0.52-0.28-0.71-0.92-0.43-1.44l1.19-2.21C181.76,259.86,182.41,259.67,182.92,259.94z"/>
	<path class="st172" d="M170.85,260.77l4.37-1.41c0.56-0.18,1.15,0.13,1.33,0.68l0.77,2.39c0.18,0.56-0.13,1.16-0.68,1.34
		l-4.37,1.41c-0.56,0.18-1.16-0.13-1.33-0.68l-0.77-2.39C169.99,261.55,170.29,260.95,170.85,260.77z"/>
	<path class="st2" d="M178.86,285.72l4.37-1.41c0.56-0.18,1.16,0.13,1.33,0.68l0.77,2.39c0.18,0.56-0.13,1.15-0.68,1.33l-4.37,1.41
		c-0.56,0.18-1.16-0.13-1.34-0.68l-0.77-2.39C178,286.5,178.3,285.9,178.86,285.72z"/>
	<path class="st172" d="M170.85,283.17l4.05,2.18c0.52,0.28,0.71,0.92,0.43,1.44l-1.19,2.21c-0.28,0.52-0.92,0.71-1.44,0.43
		l-4.05-2.18c-0.52-0.28-0.71-0.92-0.43-1.44l1.19-2.21C169.69,283.09,170.33,282.9,170.85,283.17z"/>
	<path class="st172" d="M163.06,269.59l2.14-4.07c0.27-0.52,0.91-0.72,1.43-0.44l2.22,1.17c0.52,0.27,0.72,0.91,0.44,1.43
		l-2.14,4.07c-0.27,0.52-0.91,0.72-1.43,0.44l-2.22-1.17C162.98,270.75,162.78,270.1,163.06,269.59z"/>
	<path class="st172" d="M186.39,281.53l2.14-4.07c0.27-0.52,0.91-0.72,1.43-0.44l2.22,1.17c0.52,0.27,0.72,0.91,0.44,1.43
		l-2.14,4.07c-0.27,0.52-0.91,0.72-1.43,0.44l-2.22-1.17C186.31,282.69,186.11,282.05,186.39,281.53z"/>
	<path class="st172" d="M188.77,273.6l-1.35-4.39c-0.17-0.56,0.14-1.15,0.7-1.33l2.4-0.74c0.56-0.17,1.15,0.14,1.33,0.7l1.35,4.39
		c0.17,0.56-0.14,1.15-0.7,1.33l-2.4,0.74C189.53,274.48,188.94,274.16,188.77,273.6z"/>
	<path class="st172" d="M162.26,276.69l1.28,4.16l0.3,0.97c0.1,0.31,0.41,0.51,0.72,0.47c0.04,0,0.08-0.01,0.12-0.02l1.68-0.52
		l1.46-0.45c0.36-0.11,0.55-0.49,0.44-0.84l-0.45-1.46l-0.34-1.08l-0.8-2.59c-0.11-0.36-0.49-0.55-0.84-0.44l-1.49,0.46l-1.65,0.51
		C162.35,275.96,162.15,276.33,162.26,276.69z"/>
	<path class="st172" d="M164.36,275.34c0.08,1.55,0.42,3.04,0.99,4.42c0.16,0.39,0.34,0.78,0.54,1.15c0.15,0.29,0.31,0.57,0.48,0.84
		c2.15,3.45,5.82,5.88,10.17,6.29c7.38,0.68,13.92-4.76,14.6-12.14s-4.76-13.92-12.14-14.6s-13.92,4.76-14.6,12.14
		C164.34,274.07,164.33,274.71,164.36,275.34z M172.15,274.2c0.29-3.13,3.06-5.44,6.19-5.15c3.13,0.29,5.43,3.06,5.15,6.19
		c-0.29,3.13-3.06,5.44-6.19,5.15C174.16,280.1,171.86,277.33,172.15,274.2z"/>
	<path class="st173" d="M185.32,275.36c0.38-4.17-2.69-7.87-6.86-8.25c-4.17-0.38-7.87,2.69-8.25,6.86
		c-0.38,4.17,2.69,7.87,6.86,8.25C181.24,282.6,184.94,279.53,185.32,275.36z"/>
	<path class="st174" d="M192.11,281.46c-3.52,0-11.65,5.8-14.36,5.31c-2.71-0.49-6.99-2.11-8.07-1.3c-1.08,0.81,5.36,4.44,9.7,3.68
		C183.71,288.4,192.11,281.46,192.11,281.46z"/>
	<path class="st15" d="M175.38,290.64c1.33,0.39,2.65,0.29,3.73,0.04c1-0.22,1.78-0.56,2.17-0.75c0.18-0.09,0.27-0.14,0.27-0.14
		l-0.81-2.71c-1.05,0.39-1.73,0.77-2.28,0.95c-0.01,0-0.01,0-0.01,0v0.01c-0.52,0.17-0.94,0.17-1.48-0.12
		c-1.14-0.61-7.57-3.65-8.23-2.64C168.1,286.3,172.28,289.73,175.38,290.64z"/>
	<path class="st149" d="M187.92,294.14c0.38-0.92,0.96-2.25,2.17-3.85c2.48-3.29,4.93-2.08,8.95-6.18
		c4.02-4.11,5.57-13.83,3.65-16.83c0,0-8.47,15.18-12.98,17.86C189.14,288.8,188.5,291.78,187.92,294.14z"/>
	<path class="st9" d="M179.11,290.68c1-0.22,1.78-0.56,2.17-0.75c0-0.1-0.07-0.2-0.2-0.31c-0.49-0.43-2.42-1.48-2.61-1.59
		c-0.01,0-0.01,0-0.01,0v0.01c-0.22,0.44,1.3,1.69,1.25,2.02C179.67,290.27,179.33,290.51,179.11,290.68z"/>
	<path class="st150" d="M201.66,266.12c-7-2.1-7.38,13.27-8.39,15.1c0,0-1.38,0.08-3,0.76c-3.24,1.37-11.27,5.65-11.82,6.05
		c-0.33,0.24,1.65,2.08,2.11,2.24c0.46,0.15,13.93-3.56,16.37-5.44S206.3,267.51,201.66,266.12z"/>
	<path class="st26" d="M190.62,354.58c1.72,0.26,3.97,0.36,6.2-0.1c4.46-0.91,6.41-0.18,6.91-0.61c0.3-0.26,0.33-1.77-0.03-3.3
		c-0.6,1.77-2.31,2.54-4.14,2.68C198.07,353.37,193.04,354.09,190.62,354.58z"/>
	<path class="st26" d="M162.41,351.28c2.16,0.9,5.27,1.77,6.92,1.55c2.69-0.35,6.66,0.31,7.43,0.05c0.47-0.16,0.42-1.79,0.18-3.11
		c-0.85,1.56-4.81,2.32-6.8,2.29C168.34,352.03,164.25,351.25,162.41,351.28z"/>
	<path class="st28" d="M181.86,249.05c0.1,0.83,1.21,2.6,3.03,3.75c2.09,1.3,5.75-2.07,8.62-2.97c-3.29-0.35-7.6,0.59-8.52,0.35
		C183.95,249.92,182.52,249.04,181.86,249.05z"/>
	<path class="st27" d="M189.58,352.71c0.98,0.51,3.77,0.22,5.14-0.57c1.38-0.81,1.44-1.34-0.22-1.11
		C193.3,351.56,191.17,352.19,189.58,352.71z"/>
	<path class="st27" d="M160.89,349.34c0.18,0.2,0.57,0.39,1.27,0.49c1.26,0.2,3.62-0.14,5.15-1.2
		C165.57,348.95,162.39,349,160.89,349.34z"/>
	<path class="st149" d="M201.39,290.37c0.4,1.69,2.13,4.29,1.17,6.29c0.75-0.33,1.22-0.57,1.29-0.74c0.38-1.07-1.68-3.36-0.77-7.54
		c0.53-2.48,2.08-7.44,2.64-12.38C203.34,284.93,200.95,288.5,201.39,290.37z"/>
	<g>
		<g>
			<g>
				<path class="st175" d="M322.14,88.8c-0.34,0-0.67-0.14-0.9-0.42c-0.41-0.5-0.34-1.24,0.16-1.65c2.98-2.47,4.69-6.1,4.69-9.97
					c0-3.81-1.66-7.4-4.56-9.87c-0.49-0.42-0.55-1.16-0.13-1.65c0.42-0.49,1.16-0.55,1.65-0.13c3.42,2.91,5.39,7.16,5.39,11.65
					c0,4.57-2.02,8.86-5.54,11.78C322.67,88.71,322.4,88.8,322.14,88.8z"/>
			</g>
		</g>
		<g>
			<g>
				<path class="st175" d="M331.14,93.87c-0.27,0-0.54-0.09-0.77-0.28c-0.49-0.42-0.55-1.16-0.12-1.65
					c3.63-4.21,5.63-9.61,5.63-15.19c0-5.52-1.96-10.87-5.53-15.07c-0.42-0.49-0.36-1.23,0.13-1.65c0.5-0.42,1.23-0.36,1.65,0.13
					c3.92,4.62,6.09,10.51,6.09,16.59c0,6.15-2.2,12.09-6.2,16.72C331.8,93.73,331.47,93.87,331.14,93.87z"/>
			</g>
		</g>
		<g>
			<g>
				<path class="st175" d="M340.01,98.88c-0.25,0-0.49-0.08-0.7-0.24c-0.52-0.39-0.62-1.12-0.23-1.64c1.6-2.12,2.94-4.43,3.99-6.87
					c1.83-4.23,2.76-8.73,2.76-13.38c0-4.65-0.93-9.16-2.76-13.39c-1.04-2.41-2.35-4.68-3.89-6.74c-0.39-0.52-0.28-1.25,0.24-1.64
					c0.52-0.39,1.25-0.28,1.64,0.24c1.64,2.21,3.04,4.64,4.16,7.21c1.96,4.53,2.95,9.35,2.95,14.32c0,4.98-0.99,9.79-2.95,14.31
					c-1.12,2.61-2.56,5.09-4.27,7.36C340.71,98.71,340.36,98.88,340.01,98.88z"/>
			</g>
		</g>
		<path class="st175" d="M283.24,86.6h-8.82c-1.84,0-3.33-1.49-3.33-3.33V70.39c0-1.84,1.49-3.33,3.33-3.33h8.82
			c1.84,0,3.33,1.49,3.33,3.33v12.88C286.57,85.11,285.08,86.6,283.24,86.6z"/>
		<path class="st176" d="M310.61,109.14L284.88,86.6V67.06l25.72-22.84c1.15-1.02,2.95-0.2,2.95,1.33v62.26
			C313.56,109.33,311.76,110.15,310.61,109.14z"/>
	</g>
	<g>
		<path class="st177" d="M217.25,94.29c6.27-7.7,7.31-7.06,10.39-8.84c3.4-1.97,5.09-3.95,5.81-3.65c1.23,0.51,0.85,3.48-1.5,5.75
			c-2.47,2.38-3.76,2.84-3.67,3.35c0.09,0.51,12.2,3.27,13.53,3.63c1.33,0.36,2.39,2.1,1.76,3.62c-0.64,1.53-5.15,8.61-7.25,9.02
			c-2.1,0.41-21.2-5.32-21.43-5.75C214.66,100.98,217.25,94.29,217.25,94.29z"/>
		<path class="st178" d="M217.36,104.34l-4.89,1.45c-0.47,0.14-0.94-0.23-0.91-0.72l0.85-14.9c0.03-0.46,0.48-0.78,0.92-0.64
			l4.75,1.46c0.31,0.1,0.52,0.4,0.5,0.72l-0.72,12C217.85,103.99,217.64,104.25,217.36,104.34z"/>
	</g>
	<g>
		<g>
			<g>
				<path class="st177" d="M404.08,81.65l6.57,14.82c0.37,0.82-0.01,1.79-0.83,2.15l-24.53,10.88c-0.27,0.12-0.58,0-0.69-0.27
					l-7.47-16.84c-0.12-0.27,0-0.58,0.27-0.69l24.53-10.88C402.75,80.45,403.71,80.82,404.08,81.65z"/>
				<path class="st177" d="M371.59,104.35c-0.17,0.39,0.03,0.84,0.43,0.98l12.98,4.3l-7.88-17.78L371.59,104.35z M378.26,101.98
					c0.33,0.74,0,1.61-0.75,1.94c-0.74,0.33-1.61-0.01-1.94-0.75c-0.33-0.75,0.01-1.61,0.75-1.94
					C377.07,100.9,377.93,101.23,378.26,101.98z"/>
			</g>
		</g>
		<g>
			<path class="st3" d="M384.89,93.87c0.28-0.06,0.54-0.09,0.79-0.09c0.24,0,0.45,0.04,0.63,0.11c0.18,0.07,0.3,0.18,0.36,0.32
				c0.06,0.13,0.07,0.26,0.02,0.4c-0.04,0.13-0.14,0.23-0.28,0.29c-0.12,0.05-0.24,0.07-0.36,0.06c-0.12-0.02-0.25-0.04-0.4-0.06
				c-0.15-0.02-0.32-0.02-0.52-0.01c-0.19,0.02-0.43,0.09-0.7,0.21c-0.4,0.18-0.69,0.44-0.85,0.78c-0.16,0.34-0.16,0.7,0,1.06
				c0.14,0.31,0.35,0.52,0.64,0.61s0.61,0.13,0.98,0.12c0.37-0.01,0.75-0.03,1.17-0.08c0.41-0.05,0.81-0.05,1.2,0
				c0.39,0.04,0.75,0.17,1.09,0.37c0.34,0.2,0.61,0.55,0.83,1.03c0.16,0.35,0.24,0.73,0.26,1.12c0.01,0.39-0.05,0.76-0.19,1.13
				c-0.14,0.36-0.36,0.7-0.67,1.01s-0.69,0.57-1.17,0.79c-0.29,0.13-0.59,0.23-0.9,0.3c-0.32,0.08-0.61,0.12-0.89,0.13
				c-0.28,0.01-0.51-0.02-0.71-0.08c-0.2-0.06-0.33-0.17-0.4-0.33c-0.07-0.15-0.09-0.29-0.06-0.44c0.02-0.14,0.12-0.25,0.27-0.32
				c0.09-0.04,0.21-0.05,0.35-0.03c0.15,0.02,0.32,0.04,0.52,0.05c0.2,0.02,0.42,0.01,0.65-0.01c0.24-0.02,0.49-0.09,0.77-0.22
				c0.28-0.12,0.51-0.28,0.69-0.47c0.18-0.19,0.31-0.4,0.4-0.63c0.08-0.23,0.12-0.47,0.11-0.71c-0.01-0.25-0.07-0.49-0.18-0.73
				c-0.15-0.34-0.37-0.56-0.66-0.66c-0.29-0.1-0.62-0.15-0.98-0.14c-0.37,0.01-0.75,0.03-1.17,0.08c-0.41,0.05-0.81,0.05-1.19,0.02
				c-0.39-0.04-0.74-0.15-1.07-0.34c-0.33-0.19-0.6-0.51-0.8-0.98c-0.11-0.25-0.16-0.53-0.16-0.85c0-0.32,0.07-0.63,0.19-0.94
				c0.13-0.31,0.32-0.61,0.58-0.89c0.26-0.28,0.59-0.51,0.99-0.69C384.33,94.02,384.61,93.93,384.89,93.87z"/>
			<path class="st3" d="M392.88,99.52l2.61-1.16c0.16-0.07,0.3-0.08,0.44-0.05c0.13,0.04,0.24,0.14,0.32,0.32
				c0.08,0.17,0.08,0.32,0.02,0.45c-0.06,0.13-0.17,0.22-0.33,0.29l-3.12,1.38c-0.21,0.09-0.38,0.1-0.52,0.02
				c-0.14-0.08-0.25-0.19-0.32-0.36l-3.37-7.59c-0.07-0.16-0.09-0.32-0.05-0.48c0.04-0.15,0.16-0.28,0.37-0.37l3.12-1.38
				c0.16-0.07,0.3-0.08,0.44-0.05c0.14,0.04,0.24,0.14,0.32,0.32c0.08,0.17,0.08,0.32,0.02,0.45c-0.06,0.13-0.17,0.22-0.33,0.29
				l-2.61,1.16l1.27,2.87l2.38-1.05c0.16-0.07,0.3-0.08,0.44-0.05c0.14,0.04,0.24,0.14,0.32,0.32c0.08,0.17,0.08,0.32,0.02,0.45
				c-0.06,0.13-0.17,0.22-0.33,0.29l-2.38,1.05L392.88,99.52z"/>
			<path class="st3" d="M395.55,92.34c-0.07-0.6-0.03-1.18,0.11-1.73s0.4-1.06,0.77-1.52c0.37-0.46,0.87-0.83,1.49-1.1
				c0.62-0.28,1.23-0.4,1.82-0.36c0.59,0.03,1.14,0.18,1.64,0.45c0.51,0.26,0.96,0.62,1.36,1.08c0.4,0.46,0.72,0.96,0.97,1.52
				c0.25,0.56,0.41,1.14,0.48,1.74c0.07,0.6,0.03,1.18-0.11,1.73c-0.14,0.55-0.4,1.06-0.77,1.52c-0.37,0.46-0.87,0.83-1.49,1.1
				c-0.62,0.28-1.23,0.4-1.82,0.37c-0.59-0.03-1.14-0.18-1.64-0.45s-0.96-0.62-1.36-1.08c-0.4-0.46-0.72-0.96-0.97-1.52
				C395.78,93.53,395.62,92.95,395.55,92.34z M397.87,94.74c0.28,0.37,0.59,0.67,0.95,0.9c0.36,0.24,0.76,0.38,1.19,0.43
				c0.43,0.05,0.89-0.03,1.39-0.25c0.49-0.22,0.86-0.51,1.11-0.86c0.25-0.36,0.41-0.75,0.48-1.17c0.07-0.42,0.06-0.86-0.03-1.31
				c-0.09-0.45-0.22-0.88-0.4-1.29c-0.18-0.41-0.41-0.8-0.69-1.17c-0.28-0.37-0.59-0.67-0.95-0.91c-0.36-0.23-0.76-0.38-1.19-0.43
				c-0.43-0.05-0.89,0.03-1.39,0.25c-0.49,0.22-0.86,0.51-1.11,0.86c-0.25,0.36-0.41,0.75-0.48,1.17c-0.07,0.42-0.06,0.86,0.03,1.31
				c0.09,0.45,0.22,0.88,0.4,1.29C397.36,93.98,397.59,94.37,397.87,94.74z"/>
		</g>
	</g>
</g>
</svg>
