<?xml version="1.0" encoding="utf-8"?>
<!-- Generator: Adobe Illustrator 26.0.3, SVG Export Plug-In . SVG Version: 6.00 Build 0)  -->
<svg version="1.1" xmlns="http://www.w3.org/2000/svg" xmlns:xlink="http://www.w3.org/1999/xlink" x="0px" y="0px"
	 viewBox="0 0 688.8 411.5" style="enable-background:new 0 0 688.8 411.5;" xml:space="preserve">
<style type="text/css">
	.st0{fill:#EBEBEB;}
	.st1{fill:#F5F5F5;}
	.st2{display:none;}
	.st3{display:inline;fill:#F5F5F5;}
	.st4{fill:#E0E0E0;}
	.st5{fill:#263238;}
	.st6{fill:#AE7461;}
	.st7{fill:#FFBE9D;}
	.st8{fill:#EB996E;}
	.st9{fill:#6F4439;}
	.st10{fill:#455A64;}
	.st11{opacity:0.3;}
	.st12{fill:#FF725E;}
	.st13{fill:#FFFFFF;}
	.st14{opacity:0.2;}
</style>
<g id="Background_Complete">
	<path class="st0" d="M217.2,29.6c-2.1,0.5-4.1,1.5-5.7,2.8c-0.6,0.4-1.2,0.8-1.9,1.1l-7.4-30.3c-0.5-2.2-2.8-3.6-5-3l-31.5,7.7
		l0.9,3.6c0.2,0.8,0.6,1.6,1.1,2.3c1,1.4,1.8,3,2.2,4.8c1.9,7.6-2.9,15.2-10.7,16.8c-6.8,1.4-13.7-2.7-15.9-9.3
		c-0.7-2.3-0.8-4.7-0.4-6.9c0.2-1,0.2-2,0-3l-0.6-2.5l-32,7.7c-2.7,0.7-4.4,3.4-3.7,6.2l6.9,28.1l-2.2,0.5c-0.2,0.1-0.5,0.1-0.8,0.2
		c-3.2-1.3-6.8-1.7-10.4-0.8c-9,2.2-14.5,11.3-12.3,20.3c2.2,9,11.3,14.5,20.3,12.3c2.9-0.7,5.5-2.2,7.6-4.1
		c0.4-0.2,0.8-0.4,1.3-0.5l2.8-0.7l7.7,31.4c0.7,2.7,3.4,4.4,6.2,3.7l87.3-21.4c2.2-0.5,3.6-2.8,3-5l-7.8-31.9
		c0.6,0,1.1,0.1,1.7,0.2c3,0.6,6.2,0.4,9.4-0.9c6.2-2.7,10-9.4,9.1-16.1C235,33.4,226.1,27.5,217.2,29.6z"/>
	<path class="st0" d="M605.9,197.3c1.3,0.6,2.6,0.9,3.9,0.9c0.5,0,0.9,0.1,1.3,0.2l-8.3,17.8c-0.6,1.3,0,2.9,1.3,3.5l18.6,8.6l1-2.1
		c0.2-0.5,0.4-1,0.4-1.5c0.1-1.1,0.3-2.2,0.8-3.2c2.1-4.5,7.4-6.3,11.9-4.1c3.9,2,5.7,6.7,4.1,10.8c-0.6,1.4-1.4,2.6-2.5,3.5
		c-0.5,0.4-0.9,0.9-1.2,1.5l-0.7,1.5l18.8,8.8c1.6,0.7,3.5,0,4.3-1.6l7.7-16.5l1.3,0.6c0.1,0.1,0.3,0.1,0.4,0.2
		c1,1.9,2.7,3.5,4.8,4.5c5.3,2.5,11.6,0.2,14.1-5.1c2.5-5.3,0.2-11.6-5.1-14.1c-1.7-0.8-3.6-1.1-5.4-0.9c-0.3-0.1-0.6-0.2-0.8-0.3
		l-1.6-0.8l8.6-18.5c0.7-1.6,0-3.5-1.6-4.3l-51.4-23.9c-1.3-0.6-2.9,0-3.5,1.3l-8.7,18.8c-0.3-0.2-0.5-0.5-0.8-0.8
		c-1.2-1.5-2.9-2.7-5-3.2c-4.1-1.1-8.6,0.7-10.8,4.4C598.7,188.4,600.7,194.8,605.9,197.3z"/>
	<path class="st1" d="M637.3,397.1c0.8-0.7,1.4-1.6,1.9-2.5c0.2-0.3,0.3-0.6,0.6-0.9l10.2,11.6c0.7,0.9,2,0.9,2.9,0.2l12.1-10.6
		l-1.2-1.4c-0.3-0.3-0.6-0.6-1-0.8c-0.8-0.4-1.5-0.9-2-1.6c-2.5-2.9-2.2-7.4,0.9-9.8c2.7-2.2,6.6-2,9.1,0.5c0.9,0.9,1.4,1.9,1.7,2.9
		c0.1,0.5,0.4,0.9,0.7,1.3l0.8,1l12.3-10.7c1-0.9,1.2-2.5,0.2-3.6L677,362l0.8-0.7c0.1-0.1,0.2-0.2,0.3-0.2c1.7-0.2,3.4-0.8,4.7-2
		c3.5-3,3.8-8.3,0.8-11.7s-8.3-3.8-11.7-0.8c-1.1,1-1.9,2.2-2.4,3.5c-0.1,0.2-0.3,0.3-0.5,0.5l-1.1,0.9l-10.5-12
		c-0.9-1-2.5-1.2-3.6-0.2l-33.4,29.2c-0.9,0.7-0.9,2-0.2,2.9l10.7,12.2c-0.3,0.1-0.5,0.2-0.8,0.3c-1.5,0.4-2.8,1.2-3.9,2.5
		c-2.1,2.6-2.2,6.4-0.3,9.1C628.7,399.4,634,400,637.3,397.1z"/>
	<path class="st1" d="M518.2,51.3c-1.7-0.5-3.4-0.5-5-0.3c-0.6,0.1-1.1,0.1-1.7,0l6.6-23.7c0.5-1.7-0.5-3.6-2.3-4l-24.7-6.8
		l-0.8,2.8c-0.2,0.6-0.2,1.3-0.2,2c0.2,1.3,0.1,2.7-0.3,4.1c-1.6,5.9-7.9,9.3-13.8,7.4c-5.2-1.7-8.4-7.1-7.3-12.5
		c0.4-1.9,1.2-3.5,2.4-4.9c0.5-0.6,0.9-1.3,1.1-2.1l0.5-2l-25-7c-2.1-0.6-4.4,0.7-5,2.8l-6.1,22l-1.7-0.5c-0.2-0.1-0.4-0.1-0.6-0.2
		c-1.7-2.1-4-3.8-6.8-4.5c-7.1-2-14.4,2.2-16.3,9.2c-2,7.1,2.2,14.4,9.2,16.3c2.3,0.6,4.6,0.6,6.8,0.1c0.4,0,0.7,0.1,1.1,0.2
		l2.2,0.6l-6.8,24.5c-0.6,2.1,0.7,4.4,2.8,5l68.3,18.9c1.7,0.5,3.6-0.5,4-2.3l6.9-25c0.4,0.2,0.8,0.5,1.1,0.8c1.8,1.6,4.1,2.7,6.8,3
		c5.3,0.5,10.5-2.6,12.5-7.6C529,60.7,525.1,53.2,518.2,51.3z"/>
	<path class="st1" d="M7.4,306.6c1.5,0.6,3.1,0.8,4.6,0.7c0.5,0,1.1,0,1.6,0.1l-8.1,21.7c-0.6,1.6,0.2,3.4,1.8,4l22.5,8.4l1-2.6
		c0.2-0.6,0.3-1.2,0.3-1.8c0-1.3,0.2-2.6,0.6-3.8c2-5.4,8.1-8.1,13.5-5.9c4.7,2,7.3,7.4,5.8,12.3c-0.5,1.7-1.4,3.2-2.6,4.4
		c-0.5,0.5-1,1.1-1.2,1.8l-0.7,1.8l22.8,8.6c2,0.7,4.1-0.3,4.9-2.2l7.5-20.1l1.6,0.6c0.2,0.1,0.4,0.1,0.5,0.2c1.4,2.1,3.5,3.8,6,4.8
		c6.4,2.4,13.6-0.9,16-7.3c2.4-6.4-0.9-13.6-7.3-16c-2.1-0.8-4.3-1-6.4-0.6c-0.3,0-0.7-0.1-1-0.2l-2-0.7l8.3-22.4
		c0.7-2-0.3-4.1-2.2-4.9l-62.4-23.2c-1.6-0.6-3.4,0.2-4,1.8l-8.5,22.8c-0.3-0.2-0.7-0.5-1-0.8c-1.6-1.6-3.6-2.8-6.1-3.3
		c-4.9-0.9-10,1.6-12.3,6.1C-1.9,296.9,1.1,304.3,7.4,306.6z"/>
</g>
<g id="Background_Simple" class="st2">
	<path class="st3" d="M525,20.6l-1.7,1.5c-14.2,12.7-20.6,32.1-16,50.5c0.6,2.4,1.4,4.7,2.3,6.9c6.8,16.2,22.3,28.5,39.7,31.5
		c10.3,1.8,21.5,0.7,30.4,6.1c11.6,7,14.7,21.9,16.7,35.2c2.1,13.3,5.2,28.2,16.8,35.2c7.3,4.3,16.5,4.4,24.7,2.4
		c21.9-5.3,38.8-24.4,45-45.9c6.2-21.4,2.7-44.7-5.6-65.4c-11.7-28.9-33.7-54.4-62.6-66.8C586-0.5,550.2,1.7,525,20.6z"/>
	<circle class="st3" cx="126.5" cy="79.8" r="64.7"/>
</g>
<g id="Puzzle">
	<g>
		<g>
			<path class="st4" d="M333.4,258.2c5.6-0.4,10.4,1.1,15,3.3c2.1,1,4.5,1.7,6.8,1.7l6.1-0.1l0.1-67.7c0-6.4-5.2-11.6-11.6-11.6
				l-64.4,0.2v-1.4c0-2.7,0.7-5.4,1.9-7.8c3.1-6.4,4.4-13.9,3.1-21.7c-2.7-15.6-15.7-27.8-31.6-29.5c-21.8-2.4-40.3,14.5-40.3,35.7
				c0,5.2,1.1,10,3.1,14.5c1,2.3,1.6,4.7,1.6,7.3l0.4,3h-3.9H146c-6.4,0-11.6,5.2-11.6,11.6v66.2h-5.5c-2.6,0-5.1-0.7-7.4-1.8
				c-6.1-3-13.5-4.2-21-2.9c-14.8,2.5-26.3,14.9-27.9,29.9c-2.2,20.6,13.8,38.1,33.8,38.1c4.9,0,9.5-1,13.7-2.9
				c2.2-1,4.5-1.5,6.9-1.5h7.1l0.1,81c0,5.2,4.2,9.4,9.5,9.4h207.6c5.2,0,9.3-6.6,9.3-11.8v-73.6h-8.4c-1.9,0-3.9,0.4-5.7,1.1
				c-3.6,1.5-7.6,2.3-11.7,2.3c-17.8,0-32.1-14.7-31.4-32.5C304,280.7,317.6,259.3,333.4,258.2z"/>
			<g>
				<path class="st5" d="M333.4,258.2c0,0-0.2,0-0.5,0.1c-0.4,0-0.9,0.1-1.6,0.2c-1.4,0.3-3.5,0.8-6.1,2.2
					c-5.1,2.6-11.7,8.5-16.7,18.3c-2.4,4.9-4.6,10.8-4.9,17.6c-0.1,3.4,0.3,6.9,1.4,10.4c1.1,3.5,2.9,7,5.3,10.1
					c2.5,3.1,5.6,5.8,9.4,7.9c3.7,2.1,8,3.4,12.5,3.8c4.5,0.4,9.2-0.2,13.7-1.9c2.2-1,4.7-1.5,7.2-1.4c2.5,0,5,0,7.5,0l0.2,0v0.2
					c0,11.6,0,24,0,37.1c0,6.5,0,13.2,0,20.1c0,3.4,0,6.9,0,10.4c0,1.8,0,3.5,0,5.3c0,0.9,0,1.8-0.2,2.7c-0.2,0.9-0.4,1.8-0.7,2.6
					c-0.7,1.7-1.6,3.3-2.9,4.6c-1.3,1.3-2.9,2.4-4.8,2.7c-1,0.1-1.9,0.1-2.8,0.1c-0.9,0-1.8,0-2.8,0c-1.9,0-3.7,0-5.6,0
					c-7.5,0-15.1,0-22.9,0c-15.6,0-31.7,0-48.4,0c-33.4,0-68.8,0-105.9,0c-4.6,0-9.3,0-14,0c-2.4,0-4.7,0-7.1,0
					c-2.4-0.2-4.7-1.4-6.3-3.2c-1.6-1.8-2.5-4.3-2.4-6.7c0-2.4,0-4.8,0-7.2c0-4.8,0-9.6,0-14.4c0-19.3-0.1-39-0.1-59.1l0.3,0.3
					c-1.5,0-2.9,0-4.4,0c-1.5,0-3-0.1-4.4,0.1c-1.5,0.2-2.9,0.5-4.3,1.1c-1.4,0.6-2.8,1.2-4.2,1.6c-5.8,1.9-12.2,2.1-18.2,0.7
					c-6-1.5-11.7-4.5-16.1-9c-2.3-2.2-4.1-4.8-5.7-7.5c-0.7-1.4-1.5-2.8-2-4.3c-0.3-0.7-0.6-1.5-0.8-2.2l-0.6-2.3
					c-1.8-7.5-1.1-15.7,2.1-22.7c3.2-7,8.8-12.8,15.6-16.3c3.4-1.8,7.1-2.9,10.8-3.4c3.8-0.5,7.6-0.4,11.3,0.3
					c1.9,0.3,3.7,0.8,5.4,1.5c0.9,0.3,1.8,0.7,2.6,1.1c0.9,0.4,1.7,0.8,2.5,1.1c3.5,1.4,7.2,0.9,10.9,1l-0.3,0.3
					c0-14.3,0-28.5,0-42.4c0-7,0-13.9,0-20.8c0-1.7-0.1-3.4,0.2-5.2c0.3-1.7,1-3.4,2.1-4.8c2-2.8,5.4-4.7,8.8-4.9
					c27.1,0,53.3,0,78.4,0l-0.2,0.3c-0.1-1-0.3-2-0.4-3l0,0l0,0c0-1.9-0.3-3.7-0.9-5.5c-0.3-0.9-0.7-1.7-1-2.6
					c-0.4-0.9-0.7-1.8-1-2.6c-1.2-3.6-1.7-7.3-1.7-11l0.1-2.8c0-0.5,0-0.9,0.1-1.4l0.2-1.4c0.2-0.9,0.3-1.8,0.5-2.7l0.7-2.6
					c0.1-0.4,0.3-0.9,0.4-1.3l0.5-1.3c0.3-0.8,0.7-1.7,1.1-2.5l1.3-2.4l1.5-2.3c2.1-2.9,4.5-5.6,7.3-7.8l1-0.8l1.1-0.7
					c0.7-0.5,1.5-1,2.2-1.4c1.6-0.8,3.1-1.7,4.8-2.2c3.2-1.4,6.7-2,10.1-2.4c1.7-0.1,3.4-0.3,5.1-0.1c0.9,0.1,1.7,0.1,2.6,0.2
					c0.8,0.1,1.7,0.3,2.5,0.4c6.6,1.3,12.8,4.4,17.7,8.8c4.8,4.4,8.4,10,10.3,16.1c1.9,6,2.1,12.5,0.7,18.4c-0.7,3-1.7,5.8-3,8.5
					c-0.6,1.3-1,2.7-1.3,4.2c-0.3,1.4-0.3,2.9-0.3,4.3l-0.2-0.2c17.5-0.1,33.8-0.1,49-0.2c3.8,0,7.5,0,11.1,0c0.9,0,1.8,0,2.7,0
					c0.9,0,1.8,0,2.7,0.1c1.8,0.2,3.5,0.8,5,1.7c3,1.8,5,5,5.5,8.4c0.2,1.7,0.1,3.3,0.1,4.9c0,1.6,0,3.2,0,4.8
					c-0.1,25.3-0.1,45.4-0.1,59.6l0,0.1l-0.1,0c-2.5,0-4.7,0.1-6.9,0.1c-2.1-0.2-4-0.8-5.7-1.5c-3.3-1.5-6.1-2.5-8.4-3
					c-2.3-0.5-4.1-0.6-5.2-0.6c-0.6,0-1,0-1.3,0C333.6,258.2,333.4,258.2,333.4,258.2s0.6-0.1,1.7-0.1c1.2,0,2.9,0.1,5.2,0.5
					c2.3,0.5,5.2,1.4,8.4,3c1.6,0.7,3.5,1.3,5.7,1.5c2.1,0,4.4-0.1,6.9-0.1l-0.1,0.1c0-14.2,0-34.3,0-59.6c0-1.6,0-3.2,0-4.8
					c0-1.6,0.1-3.3-0.1-4.9c-0.4-3.3-2.4-6.4-5.4-8.1c-1.5-0.9-3.1-1.5-4.9-1.6c-0.9-0.1-1.8-0.1-2.7,0c-0.9,0-1.8,0-2.7,0
					c-3.6,0-7.4,0-11.1,0c-15.2,0.1-31.5,0.1-49,0.2l-0.2,0l0-0.2c0-1.4,0-2.9,0.3-4.4c0.3-1.5,0.7-2.9,1.3-4.3
					c1.3-2.7,2.4-5.5,3-8.4c1.3-5.9,1.1-12.2-0.7-18.2c-1.8-6-5.4-11.5-10.1-15.9c-4.8-4.4-10.9-7.4-17.5-8.7
					c-0.8-0.1-1.7-0.3-2.5-0.4c-0.8-0.1-1.7-0.1-2.5-0.2c-1.7-0.2-3.4,0-5.1,0.1c-3.4,0.4-6.8,1-10,2.4c-1.6,0.6-3.1,1.4-4.7,2.2
					c-0.7,0.4-1.5,0.9-2.2,1.4l-1.1,0.7l-1,0.8c-2.8,2.1-5.2,4.8-7.2,7.7l-1.5,2.2l-1.2,2.4c-0.4,0.8-0.8,1.6-1.1,2.5l-0.5,1.3
					c-0.2,0.4-0.3,0.8-0.4,1.3l-0.7,2.6c-0.2,0.9-0.3,1.8-0.5,2.7l-0.2,1.3c-0.1,0.4-0.1,0.9-0.1,1.4l-0.1,2.7
					c0,3.7,0.6,7.3,1.7,10.9c0.3,0.9,0.6,1.8,1,2.6c0.4,0.8,0.8,1.7,1.1,2.6c0.6,1.8,1,3.7,1,5.6l0,0c0.1,1,0.3,2,0.4,3l0,0.3
					l-0.3,0c-25.1,0-51.3,0-78.4,0.1c-3.3,0.2-6.5,2-8.4,4.7c-1,1.3-1.7,2.9-2,4.6c-0.3,1.6-0.2,3.4-0.2,5.1c0,6.9,0,13.8,0,20.8
					c0,13.9,0,28.1,0,42.4v0.3l-0.3,0c-1.8,0-3.7,0-5.5,0c-1.9,0-3.8-0.4-5.5-1c-0.9-0.3-1.8-0.7-2.6-1.1c-0.8-0.4-1.7-0.7-2.6-1
					c-1.7-0.6-3.5-1.1-5.4-1.5c-3.6-0.7-7.4-0.8-11.1-0.3c-3.7,0.5-7.3,1.6-10.6,3.4c-6.7,3.4-12.2,9.2-15.4,16.1
					c-3.2,6.9-3.9,14.9-2.1,22.3l0.6,2.3c0.2,0.7,0.5,1.5,0.8,2.2c0.5,1.5,1.3,2.8,2,4.2c1.6,2.7,3.4,5.2,5.7,7.4
					c4.3,4.4,10,7.4,15.9,8.9c5.9,1.4,12.2,1.2,17.9-0.7c1.4-0.4,2.8-1,4.2-1.6c1.4-0.6,2.9-0.9,4.4-1.1c1.5-0.2,3-0.1,4.5-0.1
					c1.5,0,3,0,4.4,0h0.3l0,0.3c0,20,0.1,39.7,0.1,59.1c0,4.8,0,9.6,0,14.4c0,2.4,0,4.8,0,7.2c-0.1,2.3,0.8,4.7,2.3,6.4
					c1.5,1.7,3.7,2.9,6,3.1c2.3,0.1,4.7,0,7,0c4.7,0,9.4,0,14,0c37.1,0,72.6,0,105.9,0c16.7,0,32.8,0,48.4,0c7.8,0,15.4,0,22.9,0
					c1.9,0,3.7,0,5.6,0c0.9,0,1.9,0,2.8,0c0.9,0,1.9,0,2.7-0.1c1.8-0.3,3.4-1.3,4.6-2.6c1.2-1.3,2.2-2.8,2.8-4.5
					c0.3-0.8,0.6-1.7,0.7-2.5c0.1-0.9,0.2-1.7,0.2-2.6c0-1.8,0-3.5,0-5.3c0-3.5,0-7,0-10.4c0-6.9,0-13.6,0-20.1
					c0-13.1,0-25.4,0-37.1l0.2,0.2c-2.5,0-5.1,0-7.5,0c-2.5-0.1-4.9,0.4-7.1,1.3c-4.5,1.7-9.3,2.3-13.9,1.9
					c-4.6-0.4-8.9-1.7-12.6-3.8c-3.8-2.1-6.9-4.8-9.4-8c-2.5-3.1-4.3-6.6-5.4-10.1c-1.1-3.5-1.5-7.1-1.4-10.5
					c0.3-6.8,2.5-12.7,5-17.6c5-9.9,11.7-15.8,16.8-18.3c2.6-1.3,4.7-1.9,6.1-2.1c0.7-0.2,1.3-0.2,1.6-0.2
					C333.2,258.2,333.4,258.2,333.4,258.2z"/>
			</g>
		</g>
		<g>
			<path class="st1" d="M605.4,261c-5,0-9.8,1.1-14.1,3c-1.5,0.7-3.1,1.1-4.7,1.4v-71.2c0-5.2-4.2-9.5-9.5-9.5H503v8.4
				c0,1.9,0.4,3.9,1.1,5.7c1.5,3.6,2.3,7.6,2.3,11.7c0,17.8-14.8,32.1-32.7,31.4c-15.8-0.6-29-13.4-30.1-29.2
				c-0.4-5.6,0.7-10.8,2.9-15.5c1-2.1,1.5-4.3,1.5-6.6v-5.9l-75-0.2c-6.4,0-11.6,5.2-11.6,11.6l-0.1,66h-5.1c-0.6,0-1.2,0-1.8-0.1
				c-6.3-4.6-14.1-7.4-22.6-7.4c-21.2,0-38.3,17.2-38.3,38.3c0,21.2,17.2,38.3,38.3,38.3c6.9,0,13.4-1.8,19-5.1
				c1-0.2,2.1-0.3,3.1-0.3h6.6v73.7c0,6.4,5.2,11.6,11.6,11.6H577c5.2,0,9.5-4.2,9.5-9.5v-75c1.3,0.3,2.5,0.8,3.7,1.3
				c6.3,3.1,13.6,4.3,21.2,3c15.3-2.6,27.2-15.4,28.8-30.8C642.6,279,626.1,261,605.4,261z"/>
			<g>
				<path class="st5" d="M605.4,261c0,0,0.8,0,2.2,0.1c0.7,0,1.7,0,2.7,0.3c0.5,0.1,1.1,0.2,1.8,0.3c0.6,0.1,1.3,0.3,2,0.5
					c0.7,0.2,1.4,0.4,2.2,0.6c0.8,0.3,1.6,0.6,2.4,0.9c0.4,0.2,0.9,0.3,1.3,0.5c0.4,0.2,0.8,0.4,1.3,0.7c0.9,0.5,1.8,0.9,2.7,1.5
					c3.6,2.2,7.4,5.6,10.6,10.2c3.1,4.6,5.6,10.6,6,17.5c0,0.9,0.1,1.7,0.1,2.6c0,0.9-0.1,1.8-0.1,2.7c0,0.4,0,0.9-0.1,1.3
					c-0.1,0.4-0.1,0.9-0.2,1.3c-0.1,0.5-0.1,0.9-0.2,1.4c-0.1,0.4-0.2,0.9-0.3,1.4c-0.9,3.6-2.3,7.3-4.5,10.7
					c-2.2,3.4-4.9,6.6-8.4,9.2c-3.4,2.6-7.5,4.7-11.9,6c-1.1,0.3-2.3,0.5-3.4,0.8c-1.2,0.2-2.3,0.3-3.5,0.4
					c-2.4,0.2-4.8,0.1-7.2-0.2c-2.4-0.3-4.8-0.9-7.2-1.8c-2.4-0.8-4.6-2.2-7.1-2.8l0.2-0.2c0,11.5,0,23.8,0,36.6
					c0,6.4,0,13.1,0,19.8c0,3.4,0,6.8,0,10.3c0,1.7,0,3.5,0,5.2c0,0.9,0,1.8,0,2.6c0,0.4,0,0.9,0,1.3c-0.1,0.4-0.1,0.9-0.2,1.3
					c-0.8,3.5-3.8,6.5-7.4,7.2c-0.9,0.2-1.8,0.2-2.7,0.2c-0.9,0-1.8,0-2.7,0c-1.8,0-3.7,0-5.5,0c-7.4,0-14.9,0-22.6,0
					c-15.3,0-31.2,0-47.6,0c-32.8,0-67.6,0-104,0c-4.6,0-9.1,0-13.7,0c-2.3,0-4.6,0-6.9,0c-1.1,0-2.3,0-3.5-0.2
					c-1.2-0.3-2.3-0.7-3.3-1.2c-2.1-1.2-3.8-2.9-4.9-5.1c-0.6-1.1-0.9-2.2-1.1-3.4c-0.2-1.2-0.2-2.4-0.2-3.6c0-4.7,0-9.4,0-14.2
					c0-19,0-38.3,0-57.9l0.3,0.3c-1.5,0-3.1,0-4.7,0c-0.8,0-1.6,0-2.5,0c-0.8,0-1.6,0.1-2.4,0.3l0.1,0c-4.7,2.7-10.1,4.4-15.6,4.9
					c-5.5,0.5-11.2-0.2-16.6-2.1c-5.3-1.9-10.3-5-14.4-9.1c-4-4.1-7.2-9.1-9.1-14.6c-1.3-3.9-2.1-8.1-2.1-12.2
					c0-4.1,0.6-8.3,1.9-12.2c1.2-3.9,3.2-7.6,5.6-10.9c1.2-1.7,2.6-3.2,4-4.7l2.3-2.1c0.8-0.7,1.6-1.2,2.4-1.9
					c3.3-2.4,7-4.2,10.8-5.5c3.9-1.2,7.9-1.7,11.9-1.8c8.1,0,16,2.7,22.4,7.4l-0.1,0c2.3,0.1,4.6,0,6.9,0.1l-0.3,0.3
					c0-14.1,0-28,0-41.7c0-6.9,0-13.7,0-20.4l0-2.5c0-0.8,0-1.7,0.1-2.6c0.2-1.7,0.7-3.4,1.6-4.8c1.7-2.9,4.8-5.1,8.2-5.6
					c1.7-0.3,3.4-0.1,5-0.2c1.7,0,3.3,0,5,0c3.3,0,6.6,0,9.9,0c6.5,0,13,0,19.4,0.1c12.8,0,25.4,0.1,37.8,0.1l0.2,0v0.2
					c0,1.8,0,3.5,0,5.3c0,1.8-0.2,3.6-0.7,5.2c-0.3,0.8-0.6,1.7-1,2.4c-0.4,0.8-0.7,1.6-1,2.4c-0.6,1.6-1,3.3-1.3,5
					c-1.2,6.7-0.1,13.8,3,19.7c1.5,2.9,3.5,5.7,5.9,8c2.4,2.3,5,4.2,7.9,5.7c5.8,3,12.4,3.9,18.6,3c6.2-0.9,12-3.7,16.5-7.9
					c2.2-2.1,4.2-4.4,5.7-7c1.5-2.6,2.7-5.3,3.4-8.2c1.5-5.7,1.3-11.7-0.4-17.1c-0.4-1.4-1-2.6-1.4-4c-0.4-1.4-0.6-2.8-0.6-4.2
					c0-2.8,0-5.6,0-8.3v-0.2l0.2,0c19.5,0,37.6,0,54.2,0c4.2,0,8.2,0,12.2,0c2,0,3.9,0,5.9,0c1,0,1.9,0,2.9,0.1
					c1,0.1,1.9,0.4,2.8,0.8c1.8,0.8,3.2,2.1,4.2,3.6c1,1.6,1.5,3.4,1.5,5.2c0,3.6,0,7.1,0,10.4c0,27-0.1,47.6-0.1,60.7l-0.1-0.1
					c3.3-0.4,5.8-2.1,8.2-2.7c2.3-0.8,4.3-1.1,5.9-1.3c1.6-0.2,2.8-0.3,3.6-0.3C605,260.9,605.4,261,605.4,261s-0.4,0-1.2,0
					c-0.8,0-2,0.1-3.6,0.3c-1.6,0.2-3.6,0.6-5.9,1.4c-2.4,0.7-4.9,2.3-8.2,2.7l-0.1,0l0-0.1c0-13.1,0-33.7-0.1-60.7
					c0-3.4,0-6.9,0-10.4c0-1.8-0.5-3.6-1.5-5.1c-1-1.5-2.4-2.8-4.1-3.5c-0.9-0.4-1.8-0.6-2.7-0.7c-0.9-0.1-1.9-0.1-2.9-0.1
					c-1.9,0-3.9,0-5.9,0c-4,0-8,0-12.2,0c-16.6,0-34.7,0-54.2,0l0.2-0.2c0,2.7,0,5.5,0,8.3c0,1.4,0.2,2.8,0.6,4.1
					c0.4,1.3,1,2.6,1.4,4c1.7,5.5,1.9,11.5,0.4,17.3c-0.7,2.9-1.9,5.7-3.5,8.3c-1.5,2.6-3.5,5-5.8,7.1c-4.5,4.2-10.4,7.1-16.7,8
					c-6.3,0.9-13,0-18.8-3c-2.9-1.5-5.6-3.4-8-5.8c-2.4-2.3-4.4-5.1-5.9-8.1c-3.1-6-4.3-13.1-3.1-19.9c0.3-1.7,0.8-3.4,1.3-5
					c0.3-0.8,0.6-1.6,1-2.4c0.4-0.8,0.7-1.6,1-2.4c0.5-1.6,0.8-3.4,0.7-5.1c0-1.8,0-3.5,0-5.3l0.2,0.2c-12.3,0-24.9-0.1-37.8-0.1
					c-6.4,0-12.9,0-19.4-0.1c-3.3,0-6.6,0-9.9,0c-1.6,0-3.3,0-5,0c-1.7,0-3.3-0.1-4.9,0.2c-3.2,0.5-6.2,2.6-7.8,5.4
					c-0.8,1.4-1.4,3-1.6,4.6c-0.1,0.8-0.1,1.7-0.1,2.5l0,2.5c0,6.8,0,13.6,0,20.4c0,13.7,0,27.6,0,41.7l0,0.3l-0.3,0
					c-2.3,0-4.6,0.1-6.9-0.1l-0.1,0l-0.1,0c-6.3-4.6-14.2-7.3-22.1-7.3c-4,0-7.9,0.6-11.8,1.8c-3.8,1.2-7.4,3.1-10.7,5.4
					c-0.8,0.6-1.6,1.2-2.4,1.8l-2.2,2c-1.4,1.5-2.8,2.9-3.9,4.6c-2.4,3.3-4.3,6.9-5.5,10.8c-1.2,3.9-1.8,7.9-1.8,12
					c0,4.1,0.8,8.2,2.1,12c1.9,5.4,5,10.4,8.9,14.4c4,4,8.9,7.1,14.2,9c5.3,1.9,10.9,2.6,16.4,2.1c5.5-0.5,10.7-2.2,15.4-4.9l0,0
					l0,0c0.8-0.2,1.7-0.3,2.5-0.3c0.9,0,1.7,0,2.5,0c1.6,0,3.2,0,4.7,0l0.3,0v0.3c0,19.6,0,39,0,57.9c0,4.7,0,9.5,0,14.2
					c0,1.2,0,2.3,0.2,3.5c0.2,1.1,0.5,2.2,1.1,3.2c1,2,2.7,3.7,4.7,4.9c1,0.5,2.1,0.9,3.2,1.2c1.1,0.2,2.2,0.2,3.4,0.2
					c2.3,0,4.6,0,6.9,0c4.6,0,9.2,0,13.7,0c36.4,0,71.2,0,104,0c16.4,0,32.3,0,47.6,0c7.7,0,15.2,0,22.6,0c1.8,0,3.7,0,5.5,0
					c0.9,0,1.8,0,2.7,0c0.9,0,1.8,0,2.7-0.2c3.5-0.7,6.4-3.5,7.1-6.9c0.2-0.8,0.3-1.7,0.3-2.6c0-0.9,0-1.8,0-2.6c0-1.8,0-3.5,0-5.2
					c0-3.5,0-6.9,0-10.3c0-6.8,0-13.4,0-19.8c0-12.9,0-25.1,0-36.6l0-0.2l0.2,0c2.6,0.6,4.7,2,7.1,2.8c2.3,0.8,4.7,1.4,7.1,1.8
					c2.4,0.3,4.8,0.4,7.2,0.2c1.2-0.1,2.3-0.2,3.5-0.4c1.1-0.3,2.3-0.4,3.4-0.8c4.4-1.2,8.4-3.3,11.8-5.9c3.4-2.6,6.2-5.8,8.3-9.2
					c2.1-3.4,3.6-7,4.5-10.6c0.1-0.5,0.2-0.9,0.3-1.3c0.1-0.5,0.1-0.9,0.2-1.4c0.1-0.4,0.1-0.9,0.2-1.3c0.1-0.4,0.1-0.9,0.1-1.3
					c0-0.9,0.1-1.8,0.1-2.6c0-0.9-0.1-1.7-0.1-2.6c-0.3-6.8-2.8-12.8-5.9-17.4c-3.1-4.6-6.9-8-10.5-10.2c-0.9-0.6-1.8-1-2.7-1.5
					c-0.4-0.2-0.9-0.5-1.3-0.7c-0.4-0.2-0.9-0.3-1.3-0.5c-0.8-0.3-1.6-0.7-2.4-0.9c-0.8-0.2-1.5-0.4-2.2-0.6c-0.7-0.2-1.4-0.4-2-0.5
					c-0.6-0.1-1.2-0.2-1.8-0.3c-1.1-0.2-2-0.2-2.7-0.3C606.1,261,605.4,261,605.4,261z"/>
			</g>
		</g>
	</g>
</g>
<g id="Characters">
	<g>
		<path class="st6" d="M355.7,274.1c0,0,3.4-1.7,6.3-1.1c3,0.7,13.8,7.7,13.8,7.7l8.7-1.6l5.1,24.5l-33.9,14.1V274.1z"/>
		<path class="st7" d="M330.6,282.6c0,0,7.8-1,10.6-2.4c2.8-1.4,9.5-7.4,10.9-7.2c1.4,0.1,6.5,1.1,6.5,1.1l-2.1,6.2
			c0,0,10.2,6.2,13.2,8.4c3,2.3,12.5,12.4,13,14.9c0.4,2.5-0.3,5.4-1.5,6.4c-1.2,1-5.5-1-5.5-1s0.6,2.3-1,4.4
			c-1.6,2.2-5.4,1.4-5.4,1.4s-0.3,3.6-2.1,4.2c-1.7,0.6-5.6-1.3-5.6-1.3s-1.2,3-2.6,3.4c-1.4,0.3-5.4-2.1-5.4-2.1
			s-17.3-12.4-21.2-14.3c-3.9-1.8-5.1-1.9-5.1-1.9L330.6,282.6z"/>
		<g>
			<path class="st8" d="M361.6,317.8c-0.1,0-0.1-0.3-0.3-0.8c-0.2-0.5-0.5-1.1-0.9-1.7c-0.8-1.3-1.5-2.4-1.3-2.5
				c0.1-0.1,1,0.8,1.8,2.2c0.4,0.7,0.7,1.4,0.8,1.9C361.8,317.5,361.7,317.8,361.6,317.8z"/>
		</g>
		<g>
			<path class="st8" d="M368.8,315.7c-0.1,0.1-1-1.5-2.2-3.3c-1.2-1.8-2.5-3-2.4-3.1c0.1-0.1,1.6,1,2.8,2.8
				C368.3,314,368.9,315.6,368.8,315.7z"/>
		</g>
		<g>
			<path class="st8" d="M375.8,309.4c-0.2,0-0.6-1.8-1.8-3.9c-1.2-2-2.6-3.4-2.5-3.5c0.1-0.1,1.7,1.1,2.9,3.2
				C375.6,307.4,375.9,309.4,375.8,309.4z"/>
		</g>
		<g>
			<path class="st8" d="M370.7,295.9c0.1,0,0.5,1.3,0.6,2.9c0.1,1.6-0.2,3-0.3,2.9c-0.1,0-0.1-1.3-0.2-2.9
				C370.7,297.3,370.5,296,370.7,295.9z"/>
		</g>
		<path class="st6" d="M345.5,286.2c0,0,2.7-8.7,3.7-9.7c1-1.1,10-3.5,10-3.5l2.8,7.2l-2,2.1l-4.3-0.3
			C355.7,282.1,353,289.2,345.5,286.2z"/>
		<path class="st6" d="M328.9,303.3c0,0-1.2,1,0,3.2c1.2,2.3,4.6,0.6,5.7,0c0,0-1.6,3.8,0.4,5c2.1,1.2,4.5,0.9,4.5,0.9
			s-0.1,2.3,2.8,3.8c2.9,1.5,3.7,0,3.7,0s0.3,3.8,3.7,4.1c3.4,0.3,4.5-0.8,4.5-0.8l-1.5-2.2c0,0,1.9-4,0.4-5.7c-1.5-1.7-4-1.5-4-1.5
			s0.7-3.5-1.3-4.5c-3.6-1.8-5.1,1.6-5.1,1.6s-0.2-3.9-3-3.8c-2.8,0.1-4.3,1.8-4.3,1.8L328.9,303.3z"/>
		<g>
			<path class="st9" d="M342.8,307.1c0.1,0.1-0.4,1.4-1.3,2.9c-0.9,1.5-1.8,2.6-1.9,2.5c-0.1-0.1,0.6-1.3,1.4-2.8
				C341.9,308.2,342.7,307,342.8,307.1z"/>
		</g>
		<g>
			<path class="st9" d="M349.2,310.5c0.1,0.1-0.4,1.5-1.5,3c-1,1.5-2.2,2.6-2.3,2.5c-0.1-0.1,0.8-1.3,1.8-2.8
				C348.4,311.7,349.1,310.4,349.2,310.5z"/>
		</g>
	</g>
	<g>
		<g>
			<g>
				<path class="st5" d="M282.2,351.3h-16.4l-4.2,59.7h16.5c2.8-9.1,9.8-56.4,9.8-56.4L282.2,351.3z"/>
			</g>
			<path class="st5" d="M189.3,351.3c0,0-10.5,24.6-9.5,34.6c1.1,10,6.9,25.1,6.9,25.1h81.3c0,0,2.3-8.3,4-20.6
				c1.8-12.3,6.5-39,6.5-39H189.3z"/>
		</g>
		<g>
			<g>
				<g>
					<path class="st5" d="M296.7,113.7c-2.7-3.5-6.1-6.8-6.8-11.2c-0.6-4,1.1-8.4-0.7-12c-2.2-4.5-8.6-5.4-11.3-9.5
						c-1.3-2-1.7-4.6-3-6.6c-2.2-3.5-6.9-4.6-11-4.3c-4.1,0.2-8.1,1.5-12.3,1.6c-5.7,0.1-11.4-2-16.9-0.6c-6.1,1.5-10,6.6-14.1,11.5
						l-5.4,5.7c-1.1,1-2.3,1.8-3.5,2.6c-2.2,1.3-4.7,2.1-6.6,3.8c-4.1,3.6-4.1,10.8,0,14.4c-4.4,1.2-7.7,5.6-7.7,10.1
						c0,2.5,0.9,4.9,1.6,7.3c0.6,2.4,1,5.1-0.2,7.4c-1.1,2.3-4.1,3.7-6.3,2.3c0.6,3.3,2.8,6.2,5.8,7.8c-1.2,1.2-2.9,1.8-4.6,1.8
						c4.1,11,16.2,17.2,27.9,17.8c11.7,0.6,23.1-3.3,34.1-7.1l31.8-6.7c2.8-0.5,4.1-3.8,4.2-6.6c0.1-2.8-0.5-5.8,0.7-8.4
						c1.6-3.6,5.9-5.3,7.5-8.8C301.7,121.8,299.4,117.1,296.7,113.7z"/>
				</g>
			</g>
			<g>
				<g>
					<g>
						<g>
							<g>
								<g>
									<g>
										<g>
											<g>
												<g>
													<path class="st5" d="M221,138.8c-1.9-7.2-3.8-14.5-4.5-21.9c-0.7-7.4,0-15.1,2.9-22c0.4-1,4.2-8,5.3-7.8
														c0.8,0.1-1.6,6.6-1.2,7.4c3.5,6.9,4.2,14.9,3.2,22.6C225.6,124.7,223.6,131.5,221,138.8"/>
												</g>
											</g>
										</g>
									</g>
								</g>
							</g>
							<g>
								<path class="st7" d="M221.7,110.3c0.4-18.7,11.6-34.1,30.3-33.3l1.7,0.2c17.4,1.8,30.4,16.7,30,34.1
									c-0.4,16.2-1,34.2-2.1,42.8c-2.1,17.8-20.3,18.7-20.3,18.7c0,0-0.5,29.5-0.5,29.5l-42.5-29.5L221.7,110.3z"/>
							</g>
							<g>
								<g>
									<g>
										<g>
											<g>
												<g>
													<g>
														<g>
															<path class="st8" d="M261.3,172.9c0,0-11.3-0.5-22.5-9.3c0,0,4.2,15.1,22.2,15.4L261.3,172.9z"/>
														</g>
													</g>
												</g>
											</g>
										</g>
									</g>
								</g>
							</g>
							<g>
								<g>
									<g>
										<g>
											<g>
												<g>
													<g>
														<g>
															<g>
																<g>
																	<g>
																		<g>
																			<g>
																				<g>
																					<path class="st5" d="M277.5,125.2c-0.1,1.4-1.3,2.4-2.7,2.3c-1.4-0.1-2.5-1.2-2.4-2.6c0.1-1.4,1.3-2.4,2.7-2.3
																						C276.5,122.7,277.5,123.8,277.5,125.2z"/>
																				</g>
																			</g>
																		</g>
																	</g>
																</g>
															</g>
														</g>
													</g>
												</g>
											</g>
										</g>
									</g>
								</g>
							</g>
							<g>
								<g>
									<g>
										<g>
											<g>
												<g>
													<g>
														<g>
															<g>
																<g>
																	<g>
																		<g>
																			<g>
																				<g>
																					<g>
																						<path class="st5" d="M279,118.4c-0.4,0.3-2.1-1.3-4.9-1.6c-2.7-0.3-4.9,0.9-5.2,0.5c-0.1-0.2,0.3-0.7,1.2-1.3
																							c0.9-0.5,2.5-1,4.2-0.8c1.7,0.2,3.1,1,3.8,1.7C279,117.6,279.2,118.2,279,118.4z"/>
																					</g>
																				</g>
																			</g>
																		</g>
																	</g>
																</g>
															</g>
														</g>
													</g>
												</g>
											</g>
										</g>
									</g>
								</g>
							</g>
							<g>
								<g>
									<g>
										<g>
											<g>
												<g>
													<g>
														<g>
															<g>
																<g>
																	<g>
																		<g>
																			<g>
																				<g>
																					<path class="st5" d="M252.6,125.2c-0.1,1.4-1.3,2.4-2.7,2.3c-1.4-0.1-2.5-1.2-2.4-2.6c0.1-1.4,1.3-2.4,2.7-2.3
																						C251.6,122.7,252.7,123.8,252.6,125.2z"/>
																				</g>
																			</g>
																		</g>
																	</g>
																</g>
															</g>
														</g>
													</g>
												</g>
											</g>
										</g>
									</g>
								</g>
							</g>
							<g>
								<g>
									<g>
										<g>
											<g>
												<g>
													<g>
														<g>
															<g>
																<g>
																	<g>
																		<g>
																			<g>
																				<g>
																					<g>
																						<path class="st5" d="M252,116.6c-0.4,0.3-2.1-1.3-4.9-1.6c-2.7-0.3-4.9,0.9-5.2,0.5c-0.1-0.2,0.3-0.7,1.2-1.3
																							c0.9-0.5,2.5-1,4.2-0.8c1.7,0.2,3.1,1,3.8,1.7C252,115.9,252.2,116.5,252,116.6z"/>
																					</g>
																				</g>
																			</g>
																		</g>
																	</g>
																</g>
															</g>
														</g>
													</g>
												</g>
											</g>
										</g>
									</g>
								</g>
							</g>
							<g>
								<g>
									<g>
										<g>
											<g>
												<g>
													<g>
														<g>
															<g>
																<g>
																	<g>
																		<g>
																			<g>
																				<g>
																					<path class="st5" d="M259.7,138.8c0-0.2,1.7-0.3,4.5-0.3c0.7,0,1.4-0.1,1.6-0.5c0.2-0.5,0-1.3-0.2-2.1
																						c-0.5-1.8-1-3.6-1.5-5.6c-2.1-7.9-3.5-14.4-3.2-14.5c0.3-0.1,2.3,6.3,4.3,14.2c0.5,1.9,1,3.8,1.4,5.6
																						c0.2,0.8,0.5,1.8,0.1,2.8c-0.2,0.5-0.8,0.8-1.3,0.9c-0.5,0.1-0.9,0.1-1.2,0
																						C261.4,139.1,259.6,138.9,259.7,138.8z"/>
																				</g>
																			</g>
																		</g>
																	</g>
																</g>
															</g>
														</g>
													</g>
												</g>
											</g>
										</g>
									</g>
								</g>
							</g>
							<g>
								<g>
									<g>
										<g>
											<g>
												<g>
													<g>
														<g>
															<g>
																<g>
																	<g>
																		<g>
																			<g>
																				<g>
																					<path class="st5" d="M251.4,139.8c0.4,0,0.1,3,2.5,5.4c2.3,2.4,5.5,2.4,5.5,2.8c0,0.2-0.8,0.5-2.1,0.4
																						c-1.3-0.1-3.2-0.7-4.6-2.2c-1.4-1.5-1.9-3.3-1.9-4.5C250.8,140.5,251.2,139.8,251.4,139.8z"/>
																				</g>
																			</g>
																		</g>
																	</g>
																</g>
															</g>
														</g>
													</g>
												</g>
											</g>
										</g>
									</g>
								</g>
							</g>
							<g>
								<g>
									<g>
										<g>
											<g>
												<g>
													<g>
														<g>
															<g>
																<g>
																	<path class="st5" d="M253,105.5c-0.3,0.7-3.1,0.1-6.3,0.1c-3.3,0-6,0.7-6.3-0.1c-0.2-0.3,0.4-1,1.5-1.6
																		c1.1-0.6,2.9-1.1,4.8-1.1c2,0,3.7,0.5,4.8,1.1C252.7,104.5,253.2,105.1,253,105.5z"/>
																</g>
															</g>
														</g>
													</g>
												</g>
											</g>
										</g>
									</g>
								</g>
							</g>
							<g>
								<g>
									<g>
										<g>
											<g>
												<g>
													<g>
														<g>
															<g>
																<g>
																	<path class="st5" d="M278.9,109.1c-0.5,0.6-2.4-0.3-4.6-0.5c-2.3-0.3-4.2,0-4.6-0.7c-0.2-0.3,0.2-0.9,1.1-1.4
																		c0.9-0.5,2.3-0.8,3.9-0.6c1.6,0.2,2.9,0.9,3.6,1.6C278.9,108.2,279.1,108.8,278.9,109.1z"/>
																</g>
															</g>
														</g>
													</g>
												</g>
											</g>
										</g>
									</g>
								</g>
							</g>
							<g>
								<g>
									<g>
										<g>
											<g>
												<g>
													<path class="st7" d="M221.8,123.7c-0.3-0.2-11.9-4.9-12.8,7.3c-0.9,12.3,11.6,10.6,11.6,10.3
														C220.6,141,221.8,123.7,221.8,123.7z"/>
												</g>
											</g>
										</g>
									</g>
								</g>
							</g>
							<g>
								<g>
									<g>
										<g>
											<g>
												<g>
													<g>
														<path class="st8" d="M217.2,136.4c-0.1,0-0.2,0.1-0.6,0.3c-0.4,0.1-1,0.2-1.6-0.1c-1.3-0.6-2.2-2.7-2.1-4.9
															c0.1-1.1,0.4-2.2,0.8-3c0.4-0.9,1.1-1.5,1.7-1.5c0.7-0.1,1.1,0.3,1.2,0.7c0.1,0.4,0,0.6,0.1,0.6c0,0,0.3-0.2,0.2-0.7
															c0-0.2-0.2-0.5-0.4-0.8c-0.3-0.3-0.7-0.4-1.2-0.4c-1,0-1.9,0.8-2.4,1.7c-0.6,0.9-0.9,2.1-1,3.4
															c-0.1,2.5,1,4.9,2.7,5.5c0.8,0.3,1.6,0.1,2-0.2C217.2,136.7,217.2,136.4,217.2,136.4z"/>
													</g>
												</g>
											</g>
										</g>
									</g>
								</g>
							</g>
							<g>
								<g>
									<g>
										<g>
											<g>
												<g>
													<path class="st5" d="M277,90.5c2.1-1-3.5-7.8-8.2-10.3c-7.2-3.8-18.3-6.6-25.2-5.1c-8.3,1.8-15.4,5.4-20,12.6
														c-4.6,7.2-6.7,15.8-7,24.3c-0.1,2.6,0,5.3,1.2,7.6c1.5,2.8,4.7,4.7,4.3,8.5c-0.1,1.4,0.2,2.8,1,3.8
														c2.1,2.5,5,0.5,6.4-1.7c3-4.6,3.7-10.3,4.3-15.8c0.4-3.9,0.8-7.9,0-11.7c-0.5-2.1-1.3-4.1-1.7-6.2s-0.1-4.5,1.3-6.1
														c0.2-0.3,0.6-0.6,1.1-0.9c3.7-2.8,8.6-3.4,12.8-1.6c6.8,2.9,18.3,7.3,21.5,5.2c4.7-3.1,5.9-5.2,5.9-5.2L277,90.5z"/>
												</g>
											</g>
										</g>
									</g>
								</g>
							</g>
						</g>
					</g>
					<g>
						<g>
							<g>
								<g>
									<g>
										<g>
											<path class="st5" d="M244.3,73.5c6.9-1.8,14.6-1.2,20.7,2.5c3.2,2,6.1,4.9,6.9,8.6c0.8,3.7-1.1,8.1-4.6,9.3L267,94
												c-5.3,1.4-8.7,0.5-13.8-1.6c-4.3-1.8-8-4.8-12.3-6.5c-4.6-1.9-9.7-2.4-14.6-1.4C231.3,79.4,237.4,75.3,244.3,73.5z"/>
										</g>
									</g>
								</g>
							</g>
						</g>
					</g>
				</g>
			</g>
			<g>
				<path class="st10" d="M247.4,71.3c0,0,0.4,0,1.2,0.1c0.8,0.1,1.9,0.4,3.3,0.9c1.4,0.5,2.9,1.3,4.5,2.3c1.6,1.1,3.2,2.5,4.5,4.3
					c1.3,1.8,2,3.9,2.5,5.7c0.5,1.9,0.7,3.6,0.8,5c0.1,1.4,0.1,2.6,0.1,3.4c0,0.8-0.1,1.2-0.1,1.2c0,0-0.1-0.4-0.1-1.2
					c0-0.8-0.1-2-0.3-3.4c-0.1-1.4-0.4-3.1-0.9-4.9c-0.5-1.8-1.2-3.8-2.4-5.5c-1.2-1.8-2.8-3.1-4.3-4.2c-1.5-1.1-3.1-1.8-4.4-2.4
					C249.2,71.6,247.4,71.4,247.4,71.3z"/>
			</g>
			<g>
				<path class="st10" d="M258.7,70.7c0,0,0.4,0.1,1.1,0.3c0.3,0.1,0.8,0.2,1.2,0.5c0.5,0.2,1,0.5,1.5,0.8c2.2,1.3,4.9,3.8,6.4,7.5
					c0.4,0.9,0.6,1.8,0.9,2.7c0.2,0.9,0.4,1.8,0.4,2.6c0.1,0.8,0,1.6,0,2.4c-0.1,0.7-0.1,1.4-0.3,2.1c-0.1,0.6-0.3,1.2-0.5,1.7
					c-0.2,0.5-0.3,0.9-0.5,1.2c-0.3,0.6-0.5,1-0.6,0.9c-0.1,0,0.7-1.4,1.2-3.9c0.1-0.6,0.1-1.3,0.2-2c0-0.7,0-1.5-0.1-2.3
					c0-0.8-0.2-1.7-0.4-2.5c-0.3-0.9-0.5-1.8-0.9-2.6c-1.4-3.5-4-6-6.1-7.4c-0.5-0.3-1-0.6-1.5-0.8c-0.4-0.3-0.8-0.4-1.2-0.5
					C259.1,70.9,258.7,70.7,258.7,70.7z"/>
			</g>
		</g>
		<g>
			<path class="st10" d="M266.7,199.4c0,1.7,8.4,38.7,11.7,47.8c3.2,9.1,13.5,100.3,12.1,106.8c-1.3,6.5-4.8,6.2-4.8,6.2
				s-82.6-5.2-91.5-4.4c-8.9,0.8-12.6,0.5-14.8-9.6c-2.2-10.1,0.1-62.8-1.8-75.6c-1.9-12.7-1.9-18.9-2.6-37.8
				c-0.6-16.4,3.1-29.6,10.9-39.1s25.1-19.1,25.1-19.1l6.1-8.9l43.3,22.9l1-5.2l2.6,8.1L266.7,199.4z"/>
			<g class="st11">
				<path d="M285.4,312.3c-0.7-1.8-3.1-2.3-5-2.5c-18.4-2-37.5-6.6-50.9-19.3c-5.2-5-9.4-11-13.4-17c-8.7-13.2-16.9-26.7-25.1-40.2
					l-6.4,2.4c3.9,19.1,7.7,32.9,14.1,48.5c6.4,15.7,11.3,30.8,27.4,35.9c10.4,3.3,30.2,0.8,41.1-0.1c4.5-0.4,9.1-0.8,13.5-2.1
					c1.3-0.4,2.7-0.9,3.7-1.9S285.9,313.6,285.4,312.3z"/>
			</g>
			<g>
				<path class="st10" d="M182.3,230.6c0.5,0.8,37.2,79.3,53.6,82.6s67.4,4,77.4,2.1s19.7-3.6,19.7-3.6s7.2-17.1,0.6-31.7l-13.7,0.4
					c0,0-38.1-2.1-43.5-3.5s-10-6.5-14.9-6.2l-29-67.4c0,0-18.8-17.5-32.3-12.1C186.9,196.5,178.4,223.6,182.3,230.6z"/>
				<g>
					<path class="st5" d="M321,314.4c0,0,0.1-0.5,0.3-1.3c0.2-0.8,0.5-2.1,0.8-3.6c0.3-1.5,0.5-3.3,0.7-5.4c0.2-2,0.2-4.3,0.1-6.6
						c-0.2-4.7-1-8.9-1.9-11.9c-0.4-1.5-0.8-2.7-1.1-3.5c-0.3-0.8-0.4-1.3-0.4-1.3c0,0,0.2,0.4,0.6,1.2c0.3,0.8,0.8,2,1.2,3.5
						c0.9,3,1.8,7.2,2,11.9c0.1,2.4,0,4.6-0.2,6.7c-0.2,2-0.5,3.9-0.8,5.4c-0.3,1.5-0.7,2.7-0.9,3.6
						C321.2,314,321.1,314.4,321,314.4z"/>
				</g>
				<g>
					<path class="st5" d="M232.7,203.2c0,0,0.2,0.4,0.5,1.2c0.4,0.8,0.9,2,1.5,3.5c1.4,3.1,3.3,7.7,5.9,13.5
						c5.1,11.7,12.3,28.6,21.2,49.1l-0.2-0.1c2.3-0.1,4.4,0.9,6.4,2c2,1.1,3.9,2.4,6.1,3.4c2.1,1.1,4.5,1.3,6.9,1.6
						c2.4,0.3,4.9,0.5,7.4,0.7c10,0.8,20.6,1.5,31.6,2.1l0,0c4.3-0.1,9-0.3,13.7-0.4l0.2,0l0.1,0.2c2.1,4.8,3,10.3,2.7,15.7
						c-0.2,5.5-1.4,10.9-3.4,16.2l0,0.1l-0.1,0c-2.8,0.5-5.7,1.1-8.7,1.6c-3.2,0.6-6.4,1.2-9.5,1.8c-3.2,0.6-6.4,0.9-9.5,1
						c-6.3,0.3-12.6,0.3-18.7,0.3c-6.1,0-12.2-0.2-18.1-0.4c-5.9-0.2-11.7-0.5-17.3-0.9c-2.8-0.2-5.6-0.5-8.3-0.8
						c-2.7-0.4-5.4-0.6-8.1-1.3c-1.3-0.5-2.4-1.2-3.5-2c-1.1-0.8-2-1.7-3-2.6c-1.9-1.8-3.5-3.8-5.1-5.7
						c-6.2-7.9-11.1-15.9-15.4-23.2c-8.6-14.7-14.8-27-19.1-35.6c-2.1-4.3-3.7-7.6-4.8-9.9c-1.1-2.3-1.6-3.5-1.6-3.5
						s0.2,0.3,0.4,0.9c0.3,0.6,0.7,1.4,1.3,2.6c1.1,2.3,2.8,5.6,4.9,9.8c4.3,8.5,10.6,20.8,19.2,35.5c4.4,7.3,9.3,15.3,15.5,23.1
						c1.6,1.9,3.2,3.9,5.1,5.7c0.9,0.9,1.9,1.8,2.9,2.6c1,0.8,2.2,1.5,3.4,1.9c2.5,0.7,5.3,1,8,1.3c2.7,0.3,5.5,0.6,8.3,0.8
						c5.6,0.4,11.4,0.7,17.3,0.9c5.9,0.2,11.9,0.4,18,0.4c6.1,0,12.4,0,18.7-0.3c3.2-0.1,6.3-0.4,9.5-1c3.2-0.6,6.3-1.2,9.5-1.8
						c3-0.6,6-1.1,8.7-1.6l-0.2,0.2c2-5.2,3.1-10.6,3.3-16c0.3-5.4-0.6-10.7-2.7-15.5l0.2,0.1c-4.7,0.1-9.4,0.3-13.7,0.4l0,0l0,0
						c-11-0.6-21.6-1.3-31.6-2.1c-2.5-0.2-5-0.4-7.4-0.7c-1.2-0.1-2.4-0.3-3.6-0.5c-1.2-0.2-2.3-0.7-3.4-1.1c-2.2-1-4.1-2.3-6.1-3.4
						c-2-1.1-4.1-2-6.2-1.9l-0.1,0l-0.1-0.1c-8.8-20.6-16-37.5-21-49.2c-2.5-5.9-4.4-10.4-5.8-13.5c-0.7-1.5-1.1-2.7-1.5-3.5
						C232.8,203.6,232.7,203.2,232.7,203.2z"/>
				</g>
				<g>
					<path class="st5" d="M228.8,197.9c0,0-0.5-0.5-1.4-1.3c-0.9-0.9-2.3-2-4.2-3.2c-1.9-1.2-4.3-2.3-7.1-3.1
						c-2.8-0.8-6.1-1.1-9.4-0.8c-3.4,0.4-6.5,1.4-9.1,2.7c-2.6,1.3-4.8,2.9-6.4,4.4c-1.6,1.5-2.8,2.9-3.5,3.9
						c-0.7,1-1.1,1.6-1.1,1.6c0,0,0.1-0.2,0.2-0.5c0.2-0.3,0.4-0.7,0.7-1.2c0.7-1.1,1.8-2.5,3.4-4.1c1.6-1.6,3.8-3.2,6.4-4.6
						c2.7-1.4,5.8-2.4,9.3-2.8c3.4-0.3,6.8,0.1,9.6,0.9c2.9,0.8,5.3,2,7.2,3.2c1.9,1.2,3.3,2.4,4.1,3.3c0.5,0.4,0.8,0.8,1,1.1
						C228.7,197.8,228.8,197.9,228.8,197.9z"/>
				</g>
				<g>
					<path class="st5" d="M261.5,270.7c0.1,0.1-0.7,2.6-1.9,5.7c-1.2,3.1-2.2,5.6-2.3,5.5c-0.1-0.1,0.7-2.6,1.9-5.7
						C260.3,273.1,261.4,270.6,261.5,270.7z"/>
				</g>
			</g>
			<g>
				<path class="st5" d="M328.1,283.6c0,0,0.1-0.1,0.4,0c0.2,0.1,0.5,0.3,0.7,0.7c0.2,0.4,0.3,1,0,1.6c-0.3,0.5-1,0.9-1.7,0.8
					c-0.8-0.1-1.2-0.8-1.3-1.4c-0.1-0.6,0.2-1.2,0.5-1.5c0.4-0.3,0.8-0.3,1-0.3c0.2,0,0.4,0.1,0.4,0.1c0,0.1-0.6,0-1.1,0.5
					c-0.2,0.3-0.4,0.7-0.3,1.1c0.1,0.4,0.4,0.9,0.9,1c0.5,0.1,1-0.2,1.3-0.6c0.3-0.3,0.2-0.8,0.1-1.1
					C328.6,283.8,328.1,283.7,328.1,283.6z"/>
			</g>
			<g>
				<path class="st5" d="M261.4,191.3c0,0-0.4-0.2-1-0.5c-0.7-0.4-1.6-0.9-2.7-1.6l0.2-0.1c-0.5,2.7-1.1,6.8-2,11.6l-0.1,0.3
					l-0.3-0.2c-4-2.5-8.9-5.4-14-8.5c-3.8-2.3-7.4-4.6-10.7-6.6c-3.3-2-6.4-3.7-8.9-5.1c-2.5-1.4-4.6-2.5-6.1-3.4
					c-0.7-0.4-1.2-0.7-1.6-0.9c-0.4-0.2-0.6-0.3-0.6-0.4c0,0,0.2,0.1,0.6,0.3c0.4,0.2,1,0.5,1.7,0.8c1.5,0.7,3.6,1.8,6.2,3.2
					c2.6,1.4,5.6,3.1,9,5.1c3.3,2,6.9,4.3,10.8,6.6c5.1,3.1,10,6,14,8.6l-0.3,0.1c1-4.8,1.5-8.8,2.2-11.5l0-0.2l0.2,0.1
					c1.1,0.7,2,1.3,2.7,1.7C261.1,191.1,261.4,191.3,261.4,191.3z"/>
			</g>
			<g class="st11">
				<path d="M219.7,179.1c7.5,5.6,15.1,11.2,22.6,16.9c5,3.7,10.1,7.5,16,9.4c-0.1-5.2-0.2-10.5-0.3-15.7l-2.3,11L219.7,179.1z"/>
			</g>
		</g>
	</g>
	<g>
		<g>
			<g>
				<g>
					<g>
						<g>
							<path class="st5" d="M452.7,100.4c-3.9,0.5-8-2.3-9-6.2c-0.9-3.9,1.5-8.2,5.2-9.5c-2.5-2.5-3.2-6.6-1.6-9.7
								c1.6-3.2,5.2-5.1,8.7-4.6c0.1-3.5,2.1-6.8,5.1-8.5c3-1.7,6.9-1.7,10,0c3.8-3.4,9.9-3.6,14-0.5c3.4-0.7,7.1,1,8.7,4
								c1.6,3,1.1,7.1-1.3,9.5"/>
						</g>
					</g>
					<g>
						<g>
							<g>
								<g>
									<g>
										<path class="st6" d="M451.5,101.6c1.1-17.9,15.7-32,33.6-32.3l1.8,0c19.2,0.7,29.3,17.5,28.1,36.7l1.1,68.5l0,0
											l-46.7,16.8l-0.4-24.7c0,0-18.5-2.5-19.1-20.9C449.6,136.6,450.5,118.2,451.5,101.6z"/>
									</g>
								</g>
							</g>
							<g>
								<g>
									<g>
										<g>
											<g>
												<path class="st9" d="M468.9,166.4c0,0,11.8,0.5,24-7.6c0,0-5.4,13.4-23.9,12.1L468.9,166.4z"/>
											</g>
										</g>
									</g>
								</g>
							</g>
							<g>
								<g>
									<g>
										<g>
											<g>
												<g>
													<g>
														<g>
															<path class="st5" d="M456.7,118.3c0,1.4,1.1,2.6,2.6,2.6c1.5,0,2.6-1,2.7-2.4c0-1.4-1.1-2.6-2.6-2.6
																C457.9,115.8,456.7,116.9,456.7,118.3z"/>
														</g>
													</g>
												</g>
											</g>
										</g>
									</g>
								</g>
							</g>
							<g>
								<g>
									<g>
										<g>
											<g>
												<g>
													<g>
														<g>
															<g>
																<path class="st5" d="M455.7,110.5c0.3,0.3,2.3-1.2,5.1-1.2c2.8-0.1,4.9,1.3,5.2,1c0.1-0.2-0.2-0.8-1.1-1.4
																	c-0.9-0.6-2.4-1.2-4.2-1.2c-1.8,0-3.2,0.7-4.1,1.4C455.8,109.7,455.5,110.4,455.7,110.5z"/>
															</g>
														</g>
													</g>
												</g>
											</g>
										</g>
									</g>
								</g>
							</g>
							<g>
								<g>
									<g>
										<g>
											<g>
												<g>
													<g>
														<g>
															<path class="st5" d="M482.5,118.3c0,1.4,1.1,2.6,2.6,2.6c1.5,0,2.6-1,2.7-2.4c0-1.4-1.1-2.6-2.6-2.6
																C483.7,115.8,482.5,116.9,482.5,118.3z"/>
														</g>
													</g>
												</g>
											</g>
										</g>
									</g>
								</g>
							</g>
							<g>
								<g>
									<g>
										<g>
											<g>
												<g>
													<g>
														<g>
															<g>
																<path class="st5" d="M483.5,110.5c0.3,0.3,2.3-1.2,5.1-1.2c2.8-0.1,4.9,1.3,5.2,1c0.1-0.2-0.2-0.8-1.1-1.4
																	c-0.9-0.6-2.4-1.2-4.2-1.2c-1.8,0-3.2,0.7-4.1,1.4C483.7,109.7,483.4,110.3,483.5,110.5z"/>
															</g>
														</g>
													</g>
												</g>
											</g>
										</g>
									</g>
								</g>
							</g>
							<g>
								<g>
									<g>
										<g>
											<g>
												<g>
													<g>
														<g>
															<path class="st5" d="M473.7,131.7c0-0.2-1.8-0.4-4.6-0.7c-0.7-0.1-1.4-0.2-1.5-0.7c-0.2-0.5,0.1-1.3,0.4-2.2
																c0.6-1.8,1.3-3.6,2-5.6c2.8-7.9,4.8-14.4,4.5-14.5c-0.3-0.1-2.9,6.2-5.7,14.1c-0.7,2-1.3,3.8-1.9,5.6
																c-0.3,0.8-0.7,1.8-0.3,2.9c0.2,0.5,0.7,0.9,1.2,1c0.5,0.1,0.9,0.1,1.2,0.1C471.9,131.9,473.7,131.9,473.7,131.7z"/>
														</g>
													</g>
												</g>
											</g>
										</g>
									</g>
								</g>
							</g>
							<g>
								<g>
									<g>
										<g>
											<path class="st5" d="M482.5,100.8c0.4,0.7,2.8-0.1,5.8-0.3c3-0.2,5.5,0.3,5.8-0.5c0.1-0.4-0.4-1-1.5-1.5
												c-1.1-0.6-2.7-1-4.5-0.9c-1.8,0.1-3.3,0.7-4.3,1.4C482.7,99.8,482.3,100.5,482.5,100.8z"/>
										</g>
									</g>
								</g>
							</g>
							<g>
								<g>
									<g>
										<g>
											<path class="st5" d="M455.1,100.5c0.6,0.6,2.9-0.1,5.8-0.2c2.8-0.2,5.2,0.3,5.7-0.4c0.2-0.3-0.2-1-1.2-1.6
												c-1-0.6-2.8-1-4.7-1c-1.9,0.1-3.6,0.7-4.6,1.4C455.1,99.5,454.8,100.2,455.1,100.5z"/>
										</g>
									</g>
								</g>
							</g>
							<g>
								<g>
									<g>
										<path class="st5" d="M453.1,93.1c0,0,4.6-11.7,10.2-14.5c6.7-3.4,9.7,3.9,16.1,2c6.4-1.9,12.8-5.2,19.4-0.4
											c7.3,5.3,4,9.2,4.6,17.4c2.5,33.2,8.7,42.4,10.1,26.8c0.2-1.7,4.9-3.2,5.4-10.4c0.7-9.4,0.9-20.8-1.4-27.4
											c-1.9-5.6-5.2-9.4-11-13.6c-9.2-6.6-21.7-6.5-30.1-5.4C468.1,68.5,452,78.6,453.1,93.1z"/>
									</g>
								</g>
							</g>
							<g>
								<g>
									<g>
										<path class="st6" d="M512.4,123.9c0.1-2.9,2.5-5.2,5.3-4.9c3.4,0.3,7.3,2.1,7.2,9.3c-0.1,12.6-12.8,9.9-12.8,9.5
											C512.1,137.5,512.3,129.2,512.4,123.9z"/>
									</g>
								</g>
							</g>
							<g>
								<g>
									<g>
										<path class="st9" d="M514.9,133c0.1,0,0.2,0.2,0.6,0.3c0.4,0.2,1,0.3,1.6,0.1c1.3-0.5,2.5-2.6,2.6-4.9
											c0-1.1-0.2-2.2-0.6-3.2c-0.4-0.9-1-1.6-1.6-1.7c-0.7-0.2-1.1,0.2-1.3,0.6c-0.2,0.4-0.1,0.6-0.2,0.6c0,0-0.3-0.2-0.2-0.7
											c0.1-0.2,0.2-0.5,0.5-0.8c0.3-0.2,0.8-0.4,1.2-0.3c1,0.1,1.8,1,2.3,2c0.5,1,0.8,2.2,0.7,3.5c-0.1,2.5-1.4,4.9-3.3,5.4
											c-0.9,0.2-1.6-0.1-2-0.4C515,133.3,514.9,133,514.9,133z"/>
									</g>
								</g>
							</g>
						</g>
						<g>
							<g>
								<path class="st5" d="M511.7,99.5c-1.6,1.2-3.3,2.3-5.3,2.6c-2,0.2-4.3-0.9-4.6-2.8c-0.2-0.9,0-1.9-0.6-2.6
									c-0.7-0.8-2-0.5-3-0.4c-3.7,0.5-7.5-2.1-8.5-5.6c-0.9,1.4-3.1,1.4-4.5,0.5c-1.4-0.9-2.4-2.4-3.5-3.6
									c-1.1-1.2-2.7-2.3-4.4-2.1c-0.9,0.2-1.8,0.7-2.7,0.7c-1.7-0.1-2.5-2-2.8-3.7c-0.3-1.6-0.5-3.6-1.9-4.4c-1.3-0.8-3-0.3-4.5,0
									c-1.5,0.3-3.5-0.1-3.9-1.5c-0.2-0.8,0.1-1.6,0.5-2.3c1.9-3.1,6.2-4.6,9.6-3.3c1.1-4.2,5-7.5,9.3-8.1c4.3-0.5,8.9,1.7,11,5.5
									c2.6-2.5,6.5-3.6,10-2.8c3.5,0.7,6.6,3.3,8.1,6.6c3.1-0.9,6.6,0.2,8.6,2.7c2,2.5,2.3,6.1,0.9,9c2.3,1.2,4.3,3.5,4.4,6.1
									c0.1,2.6-2.4,5.3-4.9,4.6c1.1,2,0.3,4.8-1.7,6c-1.9,1.2-4.8,0.6-6.1-1.3"/>
							</g>
						</g>
						<g>
							<g>
								<g>
									<path class="st10" d="M470.6,74.6c0,0,0,0.1,0,0.2c0,0.2,0,0.4,0.1,0.7c0.1,0.6,0.4,1.4,1,2.4c0.6,1,1.5,2.1,2.9,2.9
										c1.3,0.9,3.2,1.5,5.2,1.4l-0.2-0.3c-0.4,1.1-0.2,2.4,0.3,3.5c0.5,1.1,1.4,2.1,2.2,3.1c0.4,0.5,0.8,1,1.4,1.4
										c0.6,0.4,1.3,0.6,2,0.7c1.4,0.2,3-0.3,4-1.5l-0.5-0.1c0.4,2.5,1.8,5,4.1,6.5c1.2,0.8,2.7,1.3,4.2,1.3c1.5,0,2.8-0.5,4.1-1
										l-0.3-0.1c0.7,1.6,1.8,2.9,3.1,3.8c1.3,1,2.9,1.5,4.4,1.1c3-0.7,4.9-3.2,5.2-5.5l-0.3,0.1c1.5,0.8,3.1,0.8,4.3,0.5
										c1.3-0.3,2.3-0.8,3-1.4c0.7-0.6,1.1-1.2,1.4-1.6c0.2-0.4,0.3-0.7,0.3-0.7c-0.1-0.1-0.4,1-1.8,2.1c-0.7,0.5-1.7,1.1-2.9,1.3
										c-1.2,0.2-2.7,0.2-4.1-0.6l-0.2-0.1l0,0.3c-0.4,2.2-2.2,4.5-5,5.1c-1.4,0.3-2.8-0.1-4-1.1c-1.2-0.9-2.2-2.2-2.9-3.6
										l-0.1-0.2l-0.2,0.1c-1.2,0.5-2.5,0.9-3.9,0.9c-1.4,0.1-2.7-0.4-3.9-1.2c-2.2-1.4-3.6-3.7-3.9-6.1l-0.1-0.6l-0.4,0.5
										c-0.9,1-2.3,1.5-3.6,1.4c-0.6-0.1-1.3-0.3-1.8-0.6c-0.5-0.3-0.9-0.9-1.4-1.3c-0.9-0.9-1.7-1.9-2.2-2.9
										c-0.5-1-0.7-2.2-0.3-3.1l0.1-0.3l-0.3,0c-1.9,0.2-3.7-0.4-5-1.2c-1.3-0.8-2.2-1.9-2.8-2.8
										C470.7,75.9,470.7,74.6,470.6,74.6z"/>
								</g>
							</g>
						</g>
					</g>
				</g>
			</g>
			<g>
				<g>
					<g>
						<g>
							<g>
								<g>
									<g>
										<g>
											<g>
												<g>
													<g>
														<g>
															<g>
																<g>
																	<path class="st5" d="M483.5,132.7c-0.5,0.1,0.1,3-2.1,5.6c-2.2,2.6-5.4,2.8-5.3,3.2c0,0.2,0.8,0.5,2.2,0.3
																		c1.3-0.2,3.2-0.9,4.5-2.5c1.3-1.6,1.7-3.4,1.6-4.7C484.1,133.3,483.7,132.6,483.5,132.7z"/>
																</g>
															</g>
														</g>
													</g>
												</g>
											</g>
										</g>
									</g>
								</g>
							</g>
						</g>
					</g>
				</g>
			</g>
		</g>
		<g>
			<g>
				<path class="st12" d="M380.3,276.3c1.6-0.6,54.4-7,54.4-7l21.4-18.2l-2,52.6l-67.5,6.5L380.3,276.3z"/>
				<path class="st11" d="M446.7,259.2c-0.6,0.3-5.9,5-5.9,5l1.6,40.5L446.7,259.2z"/>
			</g>
			<g>
				<path class="st5" d="M536.8,354.4h-89.3c0,0,4.7,25.2,6.5,36.8c1.8,11.6,4.3,19.8,4.3,19.8h80.8c0,0,6-14.6,7.1-24
					C547.3,377.6,536.8,354.4,536.8,354.4z"/>
				<path class="st5" d="M440.9,357.4c0,0-2.5,28.7,0,53.6h30.9v-22.9L440.9,357.4z"/>
				<path class="st0" d="M458.1,216.7l9.6-21.1l1.2-13c0,0,18.4-11.6,27.2-16c8.8-4.4,20.5-8.3,20.5-8.3v12.3L458.1,216.7z"/>
				<path class="st12" d="M538.5,324.3c0,0,5.2-70.2,5.6-75.4c0,0,3.1-37.5-3.6-51.8c-6.7-14.3-21.6-26.8-21.6-26.8l-1.4-7.5
					L488.4,181l-13.5,11.7c0,0-7.6,8.1-12.7,15.8c-3.8,5.3-8.1,12.1-10,20.6c-0.7,3.1-8.7,40.5-8.9,66.6c0,0-1.2,22.7-2.5,35.6
					c-1.6,15.9-4.1,52.3-3.6,73.8l94.4-2.9c23.3-3.6,19.2-5.9,19.2-5.9L538.5,324.3z"/>
				<g>
					<path class="st5" d="M516.6,170.6c0,0-0.2,0.1-0.7,0.3c-0.5,0.2-1.1,0.5-1.9,0.8c-0.8,0.4-1.8,0.9-3,1.5
						c-1.1,0.7-2.5,1.4-3.9,2.4c-5.7,3.8-13.1,10.2-20.7,19.2l-0.1,0.1l-0.1,0c-2.9,0.5-5.9,1.1-9.1,1.7l0.2-0.2
						c-0.1,4.2-0.3,8.6-0.4,13.2l0,0.1l-0.1,0.1c-4.5,4.3-9.1,9.2-13.3,14.6c-1.7,2.2-3.3,4.5-4.6,6.9l-0.5,0.9l-0.4,0.9
						c-0.3,0.6-0.5,1.2-0.7,1.9c-0.4,1.3-0.8,2.5-1.1,3.8c-1.4,5.1-2.5,10.1-3.6,14.8c-2.1,9.5-3.9,18.1-5.4,25.3
						c-3,14.4-4.6,23.4-4.6,23.4s0-0.6,0.2-1.6c0.2-1.1,0.4-2.6,0.8-4.7c0.7-4.1,1.8-9.9,3.3-17.1c1.4-7.2,3.2-15.8,5.3-25.3
						c1.1-4.7,2.2-9.7,3.6-14.8c0.3-1.3,0.7-2.6,1.1-3.9c0.2-0.6,0.4-1.3,0.7-1.9l0.4-1l0.5-0.9c1.3-2.4,2.9-4.7,4.6-7
						c4.2-5.5,8.8-10.3,13.4-14.6l-0.1,0.2c0.2-4.6,0.3-9,0.5-13.2l0-0.2l0.2,0c3.1-0.6,6.2-1.1,9.1-1.6l-0.1,0.1
						c7.7-8.9,15.2-15.3,20.9-19.1c1.4-1,2.8-1.7,3.9-2.4c1.2-0.6,2.2-1.1,3-1.5c0.8-0.3,1.5-0.6,2-0.7
						C516.4,170.6,516.6,170.6,516.6,170.6z"/>
				</g>
				<g>
					<path class="st12" d="M484.9,226l1.1,93.7L471.8,411h37.6c0,0,17.1-69.3,21.1-83.8c3.9-14.1,9.7-85.3,10.2-88.8
						c0.2-1.4,4.3-25.9-7.7-37.5"/>
					<g>
						<path class="st5" d="M532.9,200.8c0,0,0.3,0.3,0.8,0.8c0.5,0.5,1.2,1.4,2.1,2.5c1.6,2.3,3.6,6.2,4.7,11.5
							c1.1,5.3,1.5,12.1,0.7,19.8c-0.6,3.8-0.8,7.9-1.3,12.3c-0.4,4.4-0.8,9-1.3,13.8c-0.9,9.7-1.9,20.3-3.1,31.7
							c-0.6,5.7-1.3,11.6-2.1,17.7c-0.8,6-1.6,12.3-3.3,18.6c-6.3,25-13.2,52.6-20.5,81.5l0,0.2h-0.2c-1.3,0-2.7,0-4.1,0
							c-11.4,0-22.6,0-33.6,0h-0.3l0-0.3c5.3-33.7,10.2-64.7,14.3-91.2l0,0c-0.3-28.4-0.6-51.8-0.7-68.1c-0.1-8.2-0.1-14.5-0.2-18.9
							c0-2.2,0-3.8,0-5c0-1.1,0-1.7,0-1.7s0,0.6,0.1,1.7c0,1.1,0.1,2.8,0.1,5c0.1,4.4,0.2,10.7,0.3,18.9c0.2,16.3,0.5,39.8,0.9,68.1
							l0,0l0,0c-4.1,26.5-9,57.6-14.2,91.3l-0.3-0.3c10.9,0,22.1,0,33.6,0c1.4,0,2.8,0,4.1,0l-0.3,0.2c7.3-29,14.2-56.5,20.5-81.5
							c1.7-6.2,2.5-12.5,3.3-18.5c0.8-6.1,1.5-11.9,2.1-17.6c1.2-11.4,2.3-22,3.2-31.7c0.5-4.8,0.9-9.5,1.3-13.8
							c0.4-4.4,0.7-8.5,1.3-12.3c0.8-7.7,0.5-14.4-0.6-19.7c-1.1-5.3-3-9.2-4.6-11.5c-0.8-1.2-1.5-2-2-2.5
							C533.2,201.1,532.9,200.8,532.9,200.8z"/>
					</g>
				</g>
				<g>
					<path class="st5" d="M504.8,329c0,0.1-1.1-0.2-2.9-0.8c-1.8-0.6-4.2-1.5-6.8-2.7c-2.6-1.2-4.9-2.3-6.5-3.2
						c-1.6-0.9-2.6-1.5-2.6-1.6c0-0.1,1.1,0.4,2.7,1.3c1.7,0.8,4,1.9,6.6,3.1c2.6,1.2,5,2.1,6.7,2.8
						C503.8,328.5,504.8,328.9,504.8,329z"/>
				</g>
				<g>
					<path class="st5" d="M440.4,335.2c0,0,0-0.1,0-0.2c0-0.2,0-0.4,0-0.7c0-0.7,0.1-1.6,0.1-2.8c0.2-2.4,0.4-5.9,0.6-10.1
						c0.6-8.6,1.4-20.4,2.6-33.4c1.2-13,2.5-24.8,3.6-33.3c0.5-4.3,1-7.7,1.4-10.1c0.2-1.2,0.3-2.1,0.4-2.7c0-0.3,0.1-0.5,0.1-0.7
						c0-0.2,0-0.2,0.1-0.2c0,0,0,0.1,0,0.2c0,0.2,0,0.4-0.1,0.7c-0.1,0.7-0.2,1.6-0.3,2.7c-0.3,2.4-0.7,5.9-1.2,10.1
						c-1,8.5-2.3,20.3-3.4,33.3c-1.2,13-2,24.8-2.7,33.4c-0.3,4.2-0.6,7.7-0.8,10.1c-0.1,1.2-0.2,2.1-0.2,2.7c0,0.3-0.1,0.5-0.1,0.7
						C440.5,335.1,440.4,335.2,440.4,335.2z"/>
				</g>
				<g>
					<path class="st5" d="M516.6,189c-0.2,0.1-1.1-3.6-3.5-7.5c-2.4-3.9-5.3-6.3-5.2-6.4c0,0,0.8,0.5,1.9,1.5c1.1,1,2.5,2.6,3.7,4.6
						c1.2,2,2.1,3.9,2.5,5.4C516.5,188,516.7,189,516.6,189z"/>
				</g>
				<g>
					<path class="st5" d="M450.2,305.4c0,0,0.1,0.2,0.1,0.7c0,0.4-0.2,1.1-0.8,1.7c-0.6,0.6-1.6,1-2.7,0.6c-0.5-0.2-1-0.5-1.4-1
						c-0.4-0.5-0.6-1.1-0.6-1.8c0-0.8,0.3-1.6,0.7-2.2c0.2-0.3,0.5-0.5,0.9-0.7c0.4-0.1,0.6-0.2,0.9-0.3l0,0l0,0
						c0.7,0,1.3,0.2,1.8,0.5c0.5,0.3,0.7,0.8,0.8,1.2C450.3,304.9,450.3,305.4,450.2,305.4c-0.1,0-0.1-0.4-0.4-1.1
						c-0.1-0.3-0.4-0.7-0.8-1c-0.4-0.3-1-0.4-1.6-0.4l0.1,0c-0.3,0.1-0.6,0.2-0.9,0.3c-0.3,0.1-0.5,0.3-0.7,0.6
						c-0.4,0.5-0.6,1.2-0.6,1.9c-0.1,1.1,0.7,2,1.6,2.3c0.9,0.3,1.8,0.1,2.3-0.4c0.5-0.5,0.8-1.1,0.9-1.5
						C450.2,305.6,450.2,305.4,450.2,305.4z"/>
				</g>
				<g>
					<path class="st5" d="M448.8,338.5c0,0,0.1,0.2,0.1,0.7c0,0.4-0.2,1.1-0.8,1.7c-0.6,0.6-1.6,1-2.7,0.6c-0.5-0.2-1-0.5-1.4-1
						c-0.4-0.5-0.6-1.1-0.6-1.8c0-0.8,0.3-1.6,0.7-2.2c0.2-0.3,0.5-0.5,0.9-0.7c0.4-0.1,0.6-0.2,0.9-0.3l0,0l0,0
						c0.7,0,1.3,0.2,1.8,0.5c0.5,0.3,0.7,0.8,0.8,1.2C448.9,338.1,448.9,338.5,448.8,338.5c-0.1,0-0.1-0.4-0.4-1.1
						c-0.1-0.3-0.4-0.7-0.8-1c-0.4-0.3-1-0.4-1.6-0.4l0.1,0c-0.3,0.1-0.6,0.2-0.9,0.3c-0.3,0.1-0.5,0.3-0.7,0.6
						c-0.4,0.5-0.6,1.2-0.6,1.9c-0.1,1.1,0.7,2,1.6,2.3c0.9,0.3,1.8,0.1,2.3-0.4c0.5-0.5,0.8-1.1,0.9-1.5
						C448.8,338.8,448.8,338.5,448.8,338.5z"/>
				</g>
			</g>
			<g>
				<path class="st5" d="M528.7,195.3c-0.1,0.1-1.3-0.7-3.5-1.5c-1.1-0.4-2.4-0.8-4-1.1c-1.5-0.3-3.2-0.5-5-0.4
					c-1.8,0-3.5,0.3-5,0.6c-1.5,0.4-2.8,0.8-3.9,1.2c-2.2,0.9-3.4,1.7-3.4,1.6c0,0,0.3-0.2,0.8-0.6c0.3-0.2,0.6-0.4,1-0.6
					c0.4-0.2,0.9-0.5,1.4-0.7c1.1-0.5,2.4-1,4-1.4c1.5-0.4,3.3-0.6,5.1-0.6c1.8,0,3.6,0.2,5.1,0.5c1.5,0.3,2.9,0.8,4,1.3
					c0.6,0.2,1,0.5,1.5,0.7c0.4,0.2,0.8,0.4,1.1,0.6C528.4,195,528.7,195.2,528.7,195.3z"/>
			</g>
			<g class="st11">
				<path d="M446.3,282.9c4.1-5.9,5.6-11.5,7.7-18.4c3.2-10.2,4.1-21.7,9.2-31.1c3-5.5,6.5-11.2,11.7-14.8c5.1-3.5,5.8-7.9,5.7-19.8
					c3.6,0,7.5-2.8,7.9-3.2c2.5-2.7,4.3-6.9,4.4-8.3c-2.5,2.8-6.8,7.4-6.8,7.4s-9.2,1.7-9.1,1.6c-0.2,4.6-0.2,8.6-0.5,13.2
					c0,0-17.6,18.7-19,22.5C456.4,235.7,446.3,282.9,446.3,282.9z"/>
			</g>
			<g class="st11">
				<path d="M511.8,399.7c22.3-42.3,29.3-97.9,28-150.9c0,0-6.4,64.4-8.6,75.4C529,335.2,511.8,399.7,511.8,399.7z"/>
			</g>
			<g>
				<path class="st5" d="M515.2,163.7c0,0-0.2,0.1-0.5,0.4c-0.4,0.3-0.9,0.6-1.5,1c-1.4,0.9-3.2,2.1-5.5,3.6
					c-4.7,3.1-11.2,7.2-18.3,11.8c-2.8,1.8-5.4,3.5-7.9,5l0,0c-0.9,0.7-1.7,1.3-2.5,2c-0.8,0.6-1.6,1.2-2.3,1.9
					c-1.4,1.3-2.6,2.6-3.7,3.8l-0.2,0.2l-0.1-0.3c-1.2-2.8-2.2-5-2.9-6.7c-0.3-0.8-0.6-1.4-0.8-1.8c-0.2-0.4-0.2-0.6-0.2-0.7
					s0.1,0.2,0.3,0.6c0.2,0.5,0.5,1.1,0.9,1.8c0.7,1.6,1.8,3.9,3,6.6l-0.3-0.1c1.1-1.2,2.3-2.5,3.7-3.9c0.7-0.7,1.5-1.4,2.3-2
					c0.8-0.6,1.6-1.3,2.5-2l0,0l0,0c2.5-1.6,5.1-3.3,7.9-5.1c7.2-4.6,13.7-8.7,18.4-11.7c2.3-1.4,4.2-2.6,5.6-3.5
					c0.6-0.4,1.1-0.7,1.5-0.9C515,163.8,515.2,163.7,515.2,163.7z"/>
			</g>
		</g>
	</g>
</g>
<g id="Light_Bulb">
	<g>
		<g>
			<g>
				<path class="st5" d="M45,120.3c-0.1,0.1-4.4-7.3-9.5-16.5c-5.1-9.2-9.2-16.6-9.1-16.7c0.1-0.1,4.4,7.3,9.5,16.5
					C41,112.7,45.1,120.2,45,120.3z"/>
			</g>
			<g>
				<path class="st5" d="M59.3,88.5c0.1,0-0.1,5.7-0.4,12.6c-0.4,7-0.8,12.6-0.9,12.6c-0.1,0,0.1-5.7,0.4-12.6
					C58.8,94.1,59.2,88.5,59.3,88.5z"/>
			</g>
			<g>
				<path class="st5" d="M34.7,128.1c0,0.1-4.8-1.4-10.7-3.4c-5.9-2-10.6-3.7-10.5-3.8c0-0.1,4.8,1.4,10.7,3.4
					C30,126.3,34.7,128,34.7,128.1z"/>
			</g>
		</g>
		<g>
			<g>
				<g>
					<g>
						<g>
							<path class="st12" d="M106.5,142.3c-8.8-20.2-32.4-29.4-52.5-20.5c-20.2,8.8-29.4,32.4-20.5,52.5
								c6.4,14.6,20.5,23.4,35.4,23.9c1.9,4.3,4,9.2,4,9.2l32-14c0,0-2.1-5.3-4-9.9C110.1,172.2,112.7,156.4,106.5,142.3z"/>
						</g>
					</g>
				</g>
			</g>
		</g>
		<g>
			<path class="st13" d="M100.2,195.4c0,0-0.1-0.1-0.3-0.4c-0.2-0.3-0.4-0.7-0.7-1.3c-0.6-1.1-1.6-2.8-2.7-4.9
				c-2.3-4.3-5.6-10.6-9.2-18.5c-0.9-2-1.8-4.1-2.7-6.3c-0.5-1.1-0.9-2.2-1.4-3.4c-0.5-1.1-1-2.3-1.1-3.6c-0.1-0.7,0-1.3,0.3-2
				c0.3-0.6,0.7-1.2,1.4-1.5c0.7-0.3,1.4-0.1,2,0.2c0.6,0.3,1.1,0.9,1.4,1.5c0.7,1.3,0.5,2.8-0.1,4.1c-0.6,1.3-1.7,2.4-2.9,3.1
				c-1.3,0.7-2.8,1.1-4.3,0.9c-1.5-0.1-3-0.7-4.2-1.7c-1.2-0.9-2.2-2.2-2.9-3.6c-0.3-0.7-0.6-1.5-0.7-2.3c-0.1-0.8,0-1.7,0.5-2.3
				c0.3-0.3,0.6-0.6,1-0.7c0.4-0.1,0.8-0.2,1.2-0.1c0.8,0.1,1.6,0.6,2.1,1.1c0.6,0.6,1,1.3,1.4,2c0.4,0.7,0.7,1.5,1,2.2
				c0.6,1.5,1.1,3.1,1.2,4.8c0.1,1.6,0,3.4-0.8,4.9c-0.4,0.8-0.9,1.5-1.5,2c-0.6,0.6-1.4,1-2.2,1.3c-0.8,0.2-1.7,0.2-2.5,0.1
				c-0.8-0.2-1.6-0.5-2.3-1c-1.4-0.9-2.5-2.1-3.5-3.3c-0.5-0.6-1-1.3-1.4-1.9c-0.5-0.6-0.9-1.3-1.2-2c-0.3-0.7-0.5-1.5-0.4-2.4
				c0.1-0.4,0.2-0.8,0.5-1.1c0.3-0.3,0.6-0.6,1-0.6c0.4-0.1,0.8,0,1.2,0.2c0.4,0.2,0.7,0.4,1,0.6c0.6,0.5,1.1,1.1,1.5,1.7
				c1.7,2.5,2.7,5.5,2.5,8.4c-0.1,1.5-0.6,2.9-1.4,4c-0.8,1.2-2,2.1-3.3,2.5c-1.3,0.4-2.8,0.2-4-0.3c-1.2-0.6-2.3-1.5-2.9-2.6
				c-0.3-0.6-0.5-1.2-0.6-1.8c-0.1-0.6,0-1.3,0.3-1.9c0.2-0.3,0.5-0.5,0.8-0.6c0.3-0.1,0.7-0.1,1,0c0.6,0.2,1.1,0.6,1.5,1.1
				c0.8,0.9,1.2,2,1.8,3c0.5,1,1,2,1.5,3c3.9,7.8,6.9,14.2,8.9,18.6c1,2.2,1.8,4,2.3,5.1c0.2,0.6,0.4,1,0.6,1.3
				c0.1,0.3,0.2,0.5,0.2,0.5s-0.1-0.2-0.2-0.5c-0.1-0.3-0.3-0.8-0.6-1.3c-0.5-1.2-1.3-2.9-2.3-5.1c-2-4.4-5.1-10.8-9-18.6
				c-0.5-1-1-2-1.5-3c-0.5-1-1-2.1-1.8-3c-0.4-0.4-0.8-0.9-1.4-1c-0.5-0.2-1.2,0-1.5,0.5c-0.3,0.5-0.4,1.1-0.3,1.7
				c0.1,0.6,0.3,1.2,0.6,1.7c0.6,1.1,1.6,2,2.8,2.5c1.2,0.5,2.6,0.7,3.8,0.3c1.3-0.4,2.4-1.3,3.2-2.4c0.8-1.1,1.3-2.5,1.4-3.9
				c0.2-2.9-0.8-5.8-2.4-8.2c-0.4-0.6-0.9-1.2-1.5-1.7c-0.6-0.5-1.3-0.9-2-0.7c-0.7,0.1-1.2,0.8-1.3,1.5c-0.1,0.7,0,1.5,0.4,2.2
				c0.3,0.7,0.8,1.3,1.2,2c0.4,0.6,0.9,1.3,1.4,1.9c1,1.2,2.1,2.4,3.4,3.3c0.7,0.4,1.4,0.8,2.2,0.9c0.8,0.2,1.6,0.1,2.4-0.1
				c1.5-0.5,2.8-1.7,3.5-3.2c0.7-1.5,0.9-3.1,0.8-4.7c-0.1-1.6-0.6-3.2-1.2-4.7c-0.6-1.5-1.3-3-2.4-4.1c-0.5-0.6-1.2-1-2-1.1
				c-0.7-0.1-1.5,0.1-2,0.7c-0.4,0.6-0.5,1.4-0.5,2.1c0.1,0.8,0.3,1.5,0.6,2.2c0.6,1.4,1.6,2.6,2.8,3.5c1.2,0.9,2.6,1.5,4,1.6
				c1.4,0.1,2.9-0.2,4.1-0.9c1.2-0.7,2.3-1.7,2.8-3c0.6-1.2,0.7-2.7,0.1-3.9c-0.3-0.6-0.8-1.1-1.3-1.4c-0.6-0.3-1.2-0.4-1.8-0.2
				c-0.6,0.2-1,0.7-1.3,1.3c-0.2,0.6-0.3,1.2-0.3,1.8c0.1,1.3,0.6,2.4,1.1,3.6c0.5,1.1,0.9,2.3,1.4,3.4c0.9,2.2,1.8,4.3,2.7,6.3
				c3.6,8,6.8,14.2,9.1,18.5c1.1,2.1,2.1,3.8,2.7,4.9c0.3,0.6,0.5,1,0.7,1.3C100.1,195.3,100.2,195.4,100.2,195.4z"/>
		</g>
		<g>
			<path class="st5" d="M72.1,195.3c0,0-0.2,0-0.5,0c-0.3,0-0.8,0.1-1.4,0.1c-1.2,0-3,0-5.2-0.3c-2.2-0.3-4.7-0.8-7.5-1.8
				c-2.7-0.9-5.6-2.3-8.4-4.2c-2.8-1.9-5.2-4-7.1-6.2c-1.9-2.2-3.4-4.3-4.5-6.2c-1.1-1.9-1.8-3.5-2.2-4.7c-0.2-0.6-0.4-1-0.5-1.3
				c-0.1-0.3-0.2-0.5-0.1-0.5s0.1,0.2,0.2,0.4c0.1,0.3,0.3,0.7,0.5,1.3c0.5,1.1,1.2,2.7,2.3,4.6c1.1,1.9,2.6,4,4.5,6.2
				c1.9,2.1,4.3,4.3,7,6.1c2.8,1.8,5.6,3.2,8.3,4.2c2.7,1,5.3,1.5,7.4,1.8c2.2,0.3,3.9,0.4,5.1,0.4c0.6,0,1.1,0,1.4,0
				C71.9,195.3,72.1,195.3,72.1,195.3z"/>
		</g>
		<g>
			<path class="st5" d="M33.2,162.6c0.1,0,0.3,0.9,0.5,2c0.2,1.1,0.3,2,0.2,2.1c-0.1,0-0.3-0.9-0.5-2
				C33.2,163.6,33.1,162.7,33.2,162.6z"/>
		</g>
		<g>
			<path class="st5" d="M106.2,152.5c0,0,0-0.1-0.1-0.4c-0.1-0.3-0.2-0.7-0.3-1.2c-0.1-0.3-0.1-0.5-0.2-0.9c-0.1-0.3-0.2-0.6-0.3-1
				c-0.2-0.7-0.4-1.5-0.8-2.4c-0.2-0.4-0.3-0.9-0.5-1.4c-0.2-0.5-0.4-1-0.6-1.5c-0.4-1-1-2.1-1.6-3.1c-1.2-2.1-2.8-4.4-4.7-6.6
				c-1.9-2.1-4-3.9-6-5.4c-1-0.7-2-1.4-2.9-1.9c-0.5-0.3-0.9-0.6-1.4-0.8c-0.5-0.2-0.9-0.5-1.3-0.7c-0.8-0.5-1.6-0.7-2.3-1
				c-0.3-0.1-0.7-0.3-1-0.4c-0.3-0.1-0.6-0.2-0.8-0.3c-0.5-0.2-0.9-0.3-1.1-0.4C80.1,123,80,123,80,123c0,0,0.1,0,0.4,0.1
				c0.3,0.1,0.7,0.2,1.2,0.3c0.3,0.1,0.5,0.2,0.8,0.3c0.3,0.1,0.6,0.2,1,0.4c0.7,0.3,1.5,0.6,2.3,1c0.4,0.2,0.9,0.4,1.3,0.7
				c0.5,0.2,0.9,0.5,1.4,0.8c1,0.5,1.9,1.2,3,1.9c2,1.5,4.1,3.3,6,5.5c1.9,2.2,3.5,4.5,4.7,6.6c0.6,1.1,1.2,2.1,1.6,3.2
				c0.2,0.5,0.5,1,0.6,1.5c0.2,0.5,0.3,1,0.5,1.4c0.3,0.9,0.5,1.7,0.7,2.4c0.1,0.4,0.2,0.7,0.3,1c0.1,0.3,0.1,0.6,0.2,0.9
				c0.1,0.5,0.2,0.9,0.2,1.2C106.2,152.4,106.2,152.5,106.2,152.5z"/>
		</g>
		<g class="st14">
			<path class="st13" d="M57.1,132.7c-1.3-1.3-3.5-1.6-5.8-1.4c-3.3,0.4-6.2,2.2-8.2,4.8c-6,7.6-8.3,14.5-7.1,24.5
				c0.4,3.4,2.1,8.6,4.9,10.8c1.4,1.2,3.2,1.8,5,1.5c4.6-0.6,6.2-6.1,5.8-10.4c-0.4-4.1-1.7-8.3-0.4-12.2c1.1-3.2,3.8-5.6,5.6-8.4
				C58.7,139.2,59.5,135,57.1,132.7z"/>
		</g>
		<g class="st14">
			<path class="st13" d="M71.1,124.8c-2.4-1.7-6.2-1.2-7.8,0.5c-1.3,1.5-1.9,3.6-1.4,5.5c0.5,2.3,2.5,4.2,4.9,4.5
				c2.3,0.3,4.8-1,5.8-3.2C73.5,130,73,126.2,71.1,124.8z"/>
		</g>
		<g>
			<g id="_x32_gGvdE.tif_1_">
				<path class="st5" d="M90,222c0,0,1.7,0.3,2.9,0.9c0.6,0.3,1.4,0.4,2.1,0.1l6.4-2.8c0.7-0.3,1.2-1,1.4-1.7
					c0.2-0.9,0.6-2.1,1.4-2.7L90,222z"/>
			</g>
			<path class="st4" d="M75.2,207.1c0.1,0.1,6,9.5,8.2,13.1c0.9,1.5,2.5,2.5,4.3,2.5c0.6,0,1.3-0.1,2-0.4c2.8-1.2,14.1-6.2,14.1-6.2
				s3.7-1.6,3.2-4.9c-0.5-3.5-4.1-16.3-4.1-16.3L75.2,207.1z"/>
			<g>
				<path class="st4" d="M107.3,209.5l-24.5,10.9c-0.4,0.2-0.8,0-1-0.4l0-0.1c-0.2-0.4,0-0.8,0.4-1l24.5-10.9c0.4-0.2,0.8,0,1,0.4
					l0,0.1C107.9,208.9,107.7,209.4,107.3,209.5z"/>
				<g>
					<path class="st5" d="M107.3,209.5c0,0,0.2-0.1,0.4-0.4c0.1-0.2,0.1-0.4-0.1-0.7c-0.1-0.2-0.4-0.4-0.8-0.4
						c-1.3,0.6-3.3,1.5-5.7,2.6c-4.9,2.2-11.5,5.1-18.9,8.4c-0.2,0.1-0.3,0.3-0.4,0.5c0,0.1,0,0.2,0,0.3c0,0.1,0.1,0.2,0.2,0.3
						c0.1,0.2,0.4,0.2,0.6,0.2c0.2,0,0.4-0.2,0.7-0.3c0.9-0.4,1.8-0.8,2.7-1.2c1.7-0.8,3.4-1.5,5-2.2c3.2-1.4,6.1-2.7,8.5-3.7
						c2.4-1.1,4.4-1.9,5.8-2.5c0.7-0.3,1.2-0.5,1.6-0.7c0.2-0.1,0.3-0.1,0.4-0.2C107.3,209.5,107.3,209.5,107.3,209.5
						c0,0,0,0-0.1,0.1c-0.1,0-0.2,0.1-0.4,0.2c-0.4,0.2-0.9,0.4-1.5,0.7c-1.4,0.6-3.3,1.5-5.7,2.6c-2.4,1.1-5.3,2.4-8.5,3.8
						c-1.6,0.7-3.3,1.5-5,2.2c-0.9,0.4-1.8,0.8-2.7,1.2l-0.3,0.2c-0.1,0-0.2,0.1-0.4,0.1c-0.3,0-0.6-0.1-0.8-0.3
						c-0.1-0.1-0.2-0.2-0.2-0.4c0-0.1-0.1-0.3,0-0.4c0-0.3,0.2-0.6,0.5-0.7c7.4-3.3,14.1-6.2,18.9-8.4c2.4-1.1,4.4-1.9,5.8-2.5
						c0.4-0.1,0.7,0.2,0.9,0.4c0.1,0.3,0.1,0.5,0.1,0.7C107.6,209.5,107.3,209.5,107.3,209.5z"/>
				</g>
			</g>
			<g>
				<path class="st4" d="M106.4,206.1l-25.5,11.3c-0.4,0.2-0.8,0-1-0.4l0-0.1c-0.2-0.4,0-0.8,0.4-1l25.5-11.3c0.4-0.2,0.8,0,1,0.4
					l0,0.1C107,205.5,106.8,206,106.4,206.1z"/>
				<g>
					<path class="st5" d="M106.4,206.1c0,0,0.2-0.1,0.4-0.4c0.1-0.2,0.1-0.4-0.1-0.7c-0.1-0.2-0.5-0.4-0.8-0.3
						c-1.4,0.6-3.4,1.5-5.9,2.7c-5,2.2-12,5.3-19.6,8.7c-0.2,0.1-0.3,0.3-0.4,0.5c0,0.1,0,0.2,0,0.3c0,0.1,0.1,0.2,0.2,0.3
						c0.2,0.2,0.4,0.2,0.6,0.2c0.2-0.1,0.5-0.2,0.7-0.3c0.9-0.4,1.9-0.8,2.8-1.2c1.8-0.8,3.6-1.6,5.2-2.3c3.3-1.5,6.3-2.8,8.9-3.9
						c2.5-1.1,4.5-2,6-2.6c0.7-0.3,1.2-0.5,1.6-0.7c0.2-0.1,0.3-0.1,0.4-0.2C106.4,206.1,106.4,206.1,106.4,206.1c0,0,0,0-0.1,0.1
						c-0.1,0.1-0.2,0.1-0.4,0.2c-0.4,0.2-0.9,0.4-1.6,0.7c-1.4,0.6-3.4,1.6-5.9,2.7c-2.5,1.1-5.5,2.5-8.8,3.9
						c-1.7,0.7-3.4,1.5-5.2,2.3c-0.9,0.4-1.8,0.8-2.8,1.2c-0.2,0.1-0.4,0.2-0.7,0.3c-0.3,0.1-0.6,0-0.8-0.2
						c-0.1-0.1-0.2-0.3-0.2-0.4c-0.1-0.1-0.1-0.3-0.1-0.4c0-0.3,0.2-0.6,0.5-0.7c7.7-3.4,14.6-6.5,19.7-8.7c2.5-1.1,4.6-2,6-2.6
						c0.4-0.1,0.8,0.1,0.9,0.4c0.2,0.3,0.2,0.6,0.1,0.7C106.7,206.1,106.4,206.1,106.4,206.1z"/>
				</g>
			</g>
			<g>
				<path class="st4" d="M105.4,202.8l-26.2,11.6c-0.4,0.2-0.8,0-1-0.4l0-0.1c-0.2-0.4,0-0.8,0.4-1l26.2-11.6c0.4-0.2,0.8,0,1,0.4
					l0,0.1C105.9,202.2,105.8,202.6,105.4,202.8z"/>
				<g>
					<path class="st5" d="M105.4,202.8c0,0,0.2-0.1,0.4-0.5c0.1-0.2,0-0.5-0.1-0.7c-0.1-0.2-0.5-0.4-0.9-0.3
						c-1.5,0.7-3.5,1.6-6.1,2.7c-5.2,2.3-12.3,5.5-20.1,9c-0.2,0.1-0.4,0.3-0.4,0.5c0,0.1,0,0.2,0.1,0.3c0.1,0.1,0.1,0.2,0.2,0.3
						c0.2,0.2,0.4,0.2,0.6,0.1c0.2-0.1,0.5-0.2,0.7-0.3c1-0.4,1.9-0.8,2.8-1.3c1.9-0.8,3.6-1.6,5.3-2.4c3.4-1.5,6.5-2.8,9.1-4
						c2.6-1.1,4.7-2,6.1-2.7c0.7-0.3,1.3-0.5,1.7-0.7c0.2-0.1,0.3-0.1,0.4-0.2C105.3,202.8,105.4,202.8,105.4,202.8s0,0-0.1,0.1
						c-0.1,0.1-0.2,0.1-0.4,0.2c-0.4,0.2-0.9,0.4-1.6,0.8c-1.5,0.7-3.5,1.6-6.1,2.7c-2.6,1.2-5.6,2.5-9,4c-1.7,0.8-3.5,1.6-5.3,2.4
						c-0.9,0.4-1.9,0.8-2.8,1.3c-0.2,0.1-0.5,0.2-0.7,0.3c-0.3,0.1-0.6,0-0.9-0.2c-0.1-0.1-0.2-0.3-0.3-0.4
						c-0.1-0.1-0.1-0.3-0.1-0.5c0-0.3,0.2-0.6,0.5-0.7c7.9-3.5,15-6.6,20.1-8.9c2.6-1.1,4.7-2,6.1-2.7c0.4-0.2,0.8,0,1,0.3
						c0.2,0.3,0.2,0.6,0.1,0.8C105.6,202.8,105.4,202.8,105.4,202.8z"/>
				</g>
			</g>
			<g>
				<path class="st4" d="M104.5,199.4l-27.3,12.1c-0.4,0.2-0.8,0-1-0.4l0-0.1c-0.2-0.4,0-0.8,0.4-1l27.3-12.1c0.4-0.2,0.8,0,1,0.4
					l0,0.1C105.1,198.8,104.9,199.2,104.5,199.4z"/>
				<g>
					<path class="st5" d="M104.5,199.4c0,0,0.3-0.1,0.4-0.5c0.1-0.2,0-0.5-0.2-0.7c-0.2-0.2-0.6-0.4-0.9-0.2
						c-1.5,0.7-3.7,1.6-6.3,2.8c-5.4,2.4-12.7,5.7-20.9,9.3c-0.2,0.1-0.4,0.3-0.4,0.5c0,0.2,0.1,0.5,0.3,0.6
						c0.2,0.1,0.4,0.2,0.6,0.1c0.2-0.1,0.5-0.2,0.7-0.3c1-0.4,2-0.9,2.9-1.3c1.9-0.8,3.8-1.7,5.5-2.5c3.5-1.6,6.7-3,9.4-4.1
						c2.7-1.2,4.8-2.1,6.3-2.8c0.7-0.3,1.3-0.6,1.7-0.7c0.2-0.1,0.3-0.1,0.5-0.2C104.5,199.4,104.5,199.4,104.5,199.4
						c0,0,0,0-0.1,0.1c-0.1,0.1-0.3,0.1-0.4,0.2c-0.4,0.2-1,0.4-1.7,0.8c-1.5,0.7-3.7,1.6-6.3,2.8c-2.7,1.2-5.8,2.6-9.4,4.2
						c-1.8,0.8-3.6,1.6-5.5,2.5c-1,0.4-1.9,0.9-2.9,1.3c-0.2,0.1-0.5,0.2-0.7,0.3c-0.3,0.1-0.7,0.1-0.9-0.1
						c-0.1-0.1-0.2-0.2-0.3-0.4c-0.1-0.1-0.1-0.3-0.1-0.5c0-0.3,0.2-0.6,0.5-0.8c8.2-3.6,15.5-6.9,20.9-9.2c2.7-1.2,4.8-2.1,6.3-2.8
						c0.4-0.2,0.8,0,1,0.2c0.2,0.3,0.2,0.6,0.1,0.8c-0.1,0.2-0.2,0.3-0.3,0.4C104.6,199.4,104.5,199.4,104.5,199.4z"/>
				</g>
			</g>
			<path class="st12" d="M67.8,200c0.1,0.3,3.4,6.2,5.1,9.2c0.6,1.1,1.7,1.9,3,2.1l1.8,0.3l27.2-12l1-1.5c0.7-1.1,0.9-2.4,0.5-3.6
				l-3.4-9.9L67.8,200z"/>
			<g class="st11">
				<path d="M83.7,219.9c2.9-0.6,5.5-1.7,8.4-2.9c2.3-1,4.6-2,7.1-3.1c1.8-0.9,3.5-1.7,5.3-2.6c0.9-0.4,1.8-1.1,1.9-1.4L83.7,219.9z
					"/>
			</g>
			<g class="st11">
				<path d="M81.3,217.2c3.1-0.6,5.9-1.8,9-3.2c2.5-1.1,5-2.1,7.7-3.4c2-0.9,3.8-1.8,5.7-2.8c1-0.5,2-1.2,2.1-1.5L81.3,217.2z"/>
			</g>
			<g class="st11">
				<path d="M79.9,214c3.1-0.6,5.9-1.8,9-3.2c2.5-1.1,5-2.1,7.7-3.4c2-0.9,3.8-1.8,5.7-2.8c1-0.5,2-1.2,2.1-1.5L79.9,214z"/>
			</g>
			<g class="st11">
				<path d="M78.6,210.9c3.1-0.6,5.9-1.8,9-3.2c2.5-1.1,5-2.1,7.7-3.4c2-0.9,3.8-1.8,5.7-2.8c1-0.5,2-1.2,2.1-1.5L78.6,210.9z"/>
			</g>
			<path class="st11" d="M67.8,200c0.1,0.3,3.4,6.2,5.1,9.2c0.6,1.1,1.7,1.9,3,2.1l1.8,0.3l27.2-12l1-1.5c0.7-1.1,0.9-2.4,0.5-3.6
				l-3.4-9.9L67.8,200z"/>
			<g>
				<path class="st5" d="M106.3,196.1c0,0.1-7.2,3.3-16.2,7.3c-9,3.9-16.3,7.1-16.3,7c0-0.1,7.2-3.3,16.2-7.3
					C99,199.2,106.3,196,106.3,196.1z"/>
			</g>
			<g>
				<path class="st5" d="M102.8,184.5c0,0.1-7.8,3.6-17.6,8c-9.7,4.3-17.7,7.8-17.7,7.7c0-0.1,7.8-3.6,17.6-8
					C94.8,187.8,102.7,184.4,102.8,184.5z"/>
			</g>
		</g>
	</g>
</g>
<g id="Speech_Bubble_1_">
	<g>
		<g>
			<g>
				<g>
					<g>
						<g>
							<g>
								<g>
									<path class="st13" d="M422.9,117.6l-12.5-1.5c-5,5.1-11.5,8.9-19,10.8c-21.5,5.3-43.2-7.9-48.5-29.4
										c-5.3-21.5,7.9-43.2,29.4-48.5c21.5-5.3,43.2,7.9,48.5,29.4c2.2,9,1.2,18-2.3,25.8l0,0L422.9,117.6z"/>
								</g>
							</g>
							<g>
								<g>
									<g>
										<path class="st5" d="M422.9,117.6c0,0-0.1-0.3-0.3-0.9c-0.2-0.6-0.5-1.4-0.9-2.6c-0.8-2.3-1.9-5.6-3.3-9.9l0.2,0l0,0
											c0,0.1-0.1,0.1-0.2,0c0,0-0.1-0.1,0-0.1c2.1-4.8,3.9-11.5,3.2-19.5c-0.2-2-0.5-4-1-6.1c-0.6-2-1.2-4.2-2.1-6.3
											c-1.8-4.2-4.4-8.3-7.9-12c-3.5-3.6-7.9-6.8-13-9c-5-2.2-10.8-3.4-16.6-3.3c-11.7,0.1-24.1,6.2-31.6,16.8
											c-3.8,5.4-6.3,11.6-7,17.9c-0.8,6.3-0.1,12.6,1.8,18.2c1.9,5.7,5.2,10.7,9.1,14.7c3.9,4,8.5,7,13.2,9
											c4.7,2,9.6,2.9,14.2,3.1c0.6,0,1.1,0,1.7,0c0.6,0,1.1,0,1.7-0.1c1.1-0.1,2.2-0.2,3.3-0.3c2.1-0.4,4.2-0.7,6.1-1.3
											c7.7-2.3,13.2-6.5,16.9-10.1c0,0,0.1,0,0.1,0c4,0.5,7.1,0.9,9.2,1.2c1,0.1,1.8,0.2,2.4,0.3
											C422.7,117.5,422.9,117.6,422.9,117.6s-0.3,0-0.8-0.1c-0.6-0.1-1.3-0.1-2.4-0.3c-2.1-0.2-5.3-0.6-9.3-1l0.1,0
											c-3.6,3.7-9.2,7.9-16.9,10.3c-1.9,0.6-4,0.9-6.1,1.4c-1.1,0.1-2.2,0.2-3.3,0.3c-0.6,0.1-1.1,0.1-1.7,0.1
											c-0.6,0-1.1,0-1.7,0c-4.6-0.1-9.6-1.1-14.4-3.1c-4.8-2-9.4-5-13.4-9.1c-3.9-4-7.3-9.1-9.2-14.9c-2-5.7-2.7-12.1-1.9-18.5
											c0.7-6.4,3.3-12.6,7.1-18.1c0.4-0.7,1-1.3,1.5-1.9l1.6-1.9l1.7-1.7c0.6-0.6,1.1-1.1,1.8-1.6c0.6-0.5,1.2-1,1.9-1.5
											c0.6-0.5,1.3-0.9,2-1.4c0.7-0.4,1.3-0.9,2-1.3c0.7-0.4,1.4-0.7,2.1-1.1c5.6-2.9,11.7-4.4,17.6-4.5
											c6-0.1,11.7,1.1,16.8,3.3c5.1,2.2,9.6,5.4,13.1,9.1c3.5,3.7,6.2,7.9,8,12.1c1,2.1,1.5,4.3,2.1,6.3c0.5,2.1,0.8,4.2,1,6.2
											c0.7,8-1.2,14.8-3.4,19.6l-0.2-0.1l0,0c0-0.1,0.1-0.1,0.2,0c0,0,0,0,0,0.1c1.4,4.4,2.5,7.7,3.2,10c0.4,1.1,0.6,2,0.8,2.5
											C422.9,117.3,422.9,117.6,422.9,117.6z"/>
									</g>
								</g>
							</g>
						</g>
					</g>
				</g>
			</g>
		</g>
		<g>
			<g>
				<g>
					<g>
						<polygon class="st5" points="363.4,88.9 368.2,83.6 378.4,91.8 393.5,74.4 398.5,79.2 378.2,101.5 						"/>
					</g>
				</g>
			</g>
		</g>
		<g>
			<path class="st1" d="M312.9,121c1.8-0.2,4.5-0.6,7.9-1c0,0,0.1,0,0.1,0c3.1,3.1,7.9,6.7,14.4,8.7c1.6,0.5,3.4,0.8,5.2,1.1
				c0.9,0.1,1.9,0.2,2.8,0.2c0.5,0.1,1,0.1,1.4,0c0.5,0,1,0,1.5,0c3.9-0.1,8.1-0.9,12.2-2.6c1-0.4,2.1-0.9,3.1-1.5
				c-0.3-0.1-0.6-0.2-0.9-0.4c-4.7-1.9-9.3-4.9-13.1-8.9c-3.9-4-7.1-8.9-9-14.6c-1.9-5.6-2.6-11.9-1.8-18.1c0.7-6.3,3.2-12.4,7-17.7
				c0.4-0.7,0.9-1.3,1.5-1.9l1.5-1.8l0.7-0.7c-0.4,0-0.7,0-1.1,0c-5-0.1-9.9,0.9-14.3,2.8c-4.3,1.9-8.1,4.6-11.1,7.7
				c-3,3.1-5.3,6.7-6.8,10.3c-0.8,1.8-1.3,3.6-1.8,5.4c-0.4,1.8-0.7,3.5-0.9,5.2c-0.6,6.8,1,12.6,2.8,16.7c0,0,0,0.1,0,0.1
				c-1.2,3.7-2.2,6.5-2.8,8.4c-0.3,1-0.6,1.7-0.7,2.2c-0.2,0.5-0.3,0.8-0.3,0.8s0.2,0,0.7-0.1C311.3,121.2,312,121.2,312.9,121z"/>
			<g>
				<path class="st5" d="M312.9,121c0,0-0.2,0-0.7,0.1c-0.5,0.1-1.2,0.2-2.1,0.3l-0.1,0l0-0.1c0.8-2.3,2.1-6.2,3.8-11.4l0-0.1
					c0,0,0,0.1,0,0l-0.1-0.2l-0.1-0.3c-0.1-0.2-0.2-0.4-0.3-0.7c-0.2-0.5-0.4-0.9-0.5-1.4c-0.3-1-0.6-2-0.9-3
					c-0.5-2.1-0.9-4.4-1-6.9c-0.1-2.5,0.1-5.1,0.6-7.8c0.2-1.4,0.7-2.7,1.1-4.1c0.4-1.4,1-2.7,1.6-4.1c2.5-5.4,6.7-10.6,12.5-14.3
					c5.7-3.7,13-5.9,20.5-5.5l0.6,0l-0.4,0.4c-0.2,0.2-0.4,0.4-0.7,0.7l0,0c-4.6,5.2-8.1,11.7-9.5,18.9c-1.9,9.9,0.1,20,4.9,27.9
					c4.8,7.9,12,13.5,19.5,16.3l0.5,0.2l-0.5,0.2c-1.8,0.9-3.6,1.8-5.4,2.4c-1.8,0.6-3.6,1-5.4,1.3c-3.6,0.6-7.1,0.5-10.2,0.1l0,0
					l0,0c-1.2-0.2-2.3-0.4-3.4-0.7c-1.1-0.2-2.2-0.6-3.2-0.9c-2-0.7-3.8-1.5-5.5-2.5c-3.3-1.8-5.8-3.9-7.6-5.8c0-0.1-0.2,0-0.4,0
					c-0.2,0-0.3,0-0.5,0.1c-0.3,0-0.6,0.1-0.9,0.1c-0.6,0.1-1.1,0.1-1.6,0.2c-1,0.1-1.8,0.2-2.5,0.3c-0.7,0.1-1.2,0.1-1.6,0.2
					C313.1,121,312.9,121,312.9,121s0.2,0,0.5-0.1c0.4-0.1,0.9-0.1,1.6-0.2c0.7-0.1,1.5-0.2,2.5-0.3c0.5-0.1,1-0.1,1.6-0.2
					c0.3,0,0.6-0.1,0.9-0.1c0.2,0,0.3,0,0.5-0.1l0.2,0c0.1,0,0.1,0,0.2,0c0,0,0.1,0,0.1,0.1l0,0c1.9,1.8,4.4,3.9,7.6,5.7
					c3.3,1.8,7.3,3.3,12,4l0,0c1.6,0.1,3.2,0.3,4.9,0.3c1.7,0,3.4-0.2,5.2-0.5c1.8-0.3,3.6-0.7,5.4-1.3c1.8-0.6,3.5-1.5,5.3-2.3
					l0,0.4c-7.5-2.8-14.9-8.5-19.7-16.5c-4.9-7.9-6.9-18.2-5-28.2c1.4-7.3,5-13.9,9.6-19.1l0,0l0,0c0.2-0.2,0.5-0.5,0.7-0.7l0.2,0.4
					c-7.4-0.4-14.6,1.7-20.2,5.3c-5.7,3.6-9.9,8.8-12.4,14.1c-0.6,1.3-1.2,2.7-1.6,4c-0.4,1.4-0.8,2.7-1.1,4
					c-0.5,2.7-0.7,5.3-0.6,7.7c0.1,2.4,0.4,4.7,1,6.8c0.3,1.1,0.5,2.1,0.9,3c0.2,0.5,0.3,0.9,0.5,1.4c0.1,0.2,0.2,0.4,0.3,0.7
					l0.1,0.3l0.1,0.2c0,0,0.1,0.2-0.1,0.3l0-0.1c-1.8,5.2-3.1,9.1-3.9,11.3l-0.1-0.1c0.9-0.1,1.6-0.2,2.1-0.2
					C312.7,121.1,312.9,121,312.9,121z"/>
			</g>
		</g>
	</g>
</g>
<g id="Chart_x0A_">
	<g>
		<path class="st10" d="M649,127.1h-12.4c-2.5,0-4.4-2-4.4-4.4v-68c0-2.5,2-4.4,4.4-4.4H649c2.5,0,4.4,2,4.4,4.4v68
			C653.4,125.1,651.4,127.1,649,127.1z"/>
		<g>
			<g>
				<path class="st10" d="M581.9,130.3h-12.1c-2.5,0-4.6-2.1-4.6-4.6V100c0-2.5,2.1-4.6,4.6-4.6h12.1c2.5,0,4.6,2.1,4.6,4.6v25.7
					C586.5,128.3,584.5,130.3,581.9,130.3z"/>
			</g>
			<g>
				<path class="st10" d="M614.6,130.3h-11.5c-2.7,0-4.9-2.2-4.9-4.9V81.4c0-2.7,2.2-4.9,4.9-4.9h11.5c2.7,0,4.9,2.2,4.9,4.9v44.1
					C619.5,128.1,617.3,130.3,614.6,130.3z"/>
			</g>
			<g>
				<g>
					<path class="st5" d="M645.5,24.8c0,0-0.2,0.2-0.5,0.7c-0.4,0.5-0.9,1.1-1.6,1.9c-1.5,1.7-3.5,4-6,6.9
						c-5.2,5.9-12.5,14.1-20.9,23.6l-0.2,0.3l-0.3-0.2c-4.1-2.7-8.5-5.6-13.1-8.6l0.6-0.1c-0.2,0.2-0.3,0.4-0.5,0.6
						c-10.8,12.7-20.6,24.1-27.7,32.5l-0.2,0.2l-0.2-0.2c-4.3-3.2-7.9-5.9-10.4-7.7c-1.2-0.9-2.1-1.6-2.8-2.1
						c-0.6-0.5-1-0.8-0.9-0.8c0,0,0.4,0.2,1,0.7c0.7,0.5,1.7,1.2,2.9,2c2.6,1.8,6.2,4.4,10.6,7.5l-0.4,0
						c7.1-8.4,16.8-19.9,27.5-32.6c0.2-0.2,0.3-0.4,0.5-0.6l0.2-0.3l0.3,0.2c4.6,3,9,5.9,13.1,8.6l-0.5,0.1
						c8.5-9.4,15.9-17.5,21.2-23.4c2.6-2.8,4.7-5.1,6.2-6.7c0.7-0.7,1.2-1.3,1.7-1.8C645.3,24.9,645.5,24.7,645.5,24.8z"/>
				</g>
			</g>
			<g>
				<g>
					<path class="st5" d="M646.2,41c-0.1,0-0.2-1.9-0.3-4.9c-0.1-3-0.1-7.2-0.1-11.9l0.5,0.4c-0.1,0-0.3,0-0.4,0.1
						c-4.7,0.8-9,1.4-12.1,1.9c-3.1,0.4-5,0.6-5,0.5c0-0.1,1.9-0.5,4.9-1.1s7.3-1.3,12-2.1c0.1,0,0.3,0,0.4-0.1l0.5-0.1l0,0.5
						c0,4.7-0.1,8.9-0.1,11.9C646.4,39.1,646.3,41,646.2,41z"/>
				</g>
			</g>
		</g>
	</g>
</g>
</svg>
