<svg xmlns="http://www.w3.org/2000/svg" viewBox="0 0 32.7 31.6"><defs><style>.cls-1{fill:#f4a196;}.cls-2{fill:#f44e42;}.cls-3{fill:#ef3a6a;}</style></defs><g id="Layer_2" data-name="Layer 2"><g id="Layer_1-2" data-name="Layer 1"><path id="Path_278" data-name="Path 278" class="cls-1" d="M21.94,18.7V4.5H6.64a1,1,0,0,0-.9,1.2V26.8a2.72,2.72,0,0,1,.9,0h.9c4.7,0,14.4.1,14.4.1Z"/><path id="Path_279" data-name="Path 279" d="M25.44,14.2V2.2H6.84a1.11,1.11,0,0,0-1.1,1.1V22.1c.3,0,.7-.1,1.1-.1h1.1V5.6a1.1,1.1,0,1,1,2.2,0V22h15.2V19.8a1.1,1.1,0,1,1,2.2,0v3.3a1.11,1.11,0,0,1-1.1,1.1H6.84a1.1,1.1,0,0,0,0,2.2h19.7a1.1,1.1,0,0,1,0,2.2H6.84a3.37,3.37,0,0,1-3.4-3.4V3.2A3.33,3.33,0,0,1,6.84,0h19.7a1.11,1.11,0,0,1,1.1,1.1h0V14.2a1.1,1.1,0,0,1-2.2,0Zm-7.8-3.9a1.11,1.11,0,0,0-1.1,1.1v6.1a1.1,1.1,0,0,0,2.2,0h0V11.4a1.11,1.11,0,0,0-1.1-1.1Zm0-3.8a1.1,1.1,0,1,0,1.1,1.1A1.11,1.11,0,0,0,17.64,6.5Z"/><circle id="Ellipse_14" data-name="Ellipse 14" class="cls-2" cx="3.9" cy="30.5" r="1.1"/><circle id="Ellipse_15" data-name="Ellipse 15" class="cls-2" cx="1.6" cy="28" r="1.6"/><circle id="Ellipse_8" data-name="Ellipse 8" class="cls-3" cx="9.5" cy="23" r="0.2"/><circle id="Ellipse_16" data-name="Ellipse 16" class="cls-2" cx="28.7" cy="16.7" r="1.1"/><circle id="Ellipse_17" data-name="Ellipse 17" class="cls-2" cx="31.1" cy="14" r="1.6"/></g></g></svg>