<?xml version="1.0" encoding="utf-8"?>
<!-- Generator: Adobe Illustrator 26.0.3, SVG Export Plug-In . SVG Version: 6.00 Build 0)  -->
<svg version="1.1" id="Layer_1" xmlns="http://www.w3.org/2000/svg" xmlns:xlink="http://www.w3.org/1999/xlink" x="0px" y="0px"
	 viewBox="0 0 526 349" style="enable-background:new 0 0 526 349;" xml:space="preserve">
<style type="text/css">
	.st0{fill:#C5D6FF;}
	.st1{fill:#FFFFFF;}
	.st2{fill:#E3EAFF;}
	.st3{fill:#201D40;}
	.st4{fill:#F37A50;}
	.st5{fill:#DE623C;}
	.st6{fill:#2C2858;}
	.st7{fill:#E62552;}
	.st8{fill:#C4204A;}
	.st9{fill:#95A6DB;}
	.st10{fill:#768FDB;}
	.st11{fill:#8A284C;}
	.st12{fill:#494C7F;}
	.st13{fill:#0E6A41;}
	.st14{fill:#FF4F78;}
	.st15{fill:#3F964F;}
	.st16{fill:#FFE91D;}
</style>
<g>
	<g>
		<path class="st0" d="M90,345.81c-33.49-36.46-79.25-74.11-61.31-130.98c11.8-37.41,40.75-47.83,64.8-70.9
			c11.87-11.38,4.41-27.95,4.18-44.4c-0.5-42.11,46.5-74.79,89.71-74.11c46.8,0.74,67.06,47.79,106.32,50.32
			c15.42,0.24,29.22-8.81,42.86-16c40.42-21.3,104.55-7.72,107.79,43.78c0.84,27.81-30.82,72.56,0.9,87.19
			c25.28,11.66,50.81,15.95,55.37,57.65c5.96,54.58-25.56,84.53-66.63,98.58L90,345.81z"/>
		<g>
			<path class="st1" d="M111.9,138.26h46.6c5.77,0,10.44,4.68,10.44,10.44v21.72c0,5.77-4.68,10.44-10.44,10.44h-0.35l3.74,12.53
				c0.16,0.55-0.47,0.99-0.93,0.64l-17.27-13.17h-31.8c-5.77,0-10.44-4.68-10.44-10.44V148.7
				C101.45,142.93,106.13,138.26,111.9,138.26z"/>
			<path class="st2" d="M158.47,156.5h-44.74c-2.86,0-5.17-2.31-5.17-5.17l0,0c0-2.85,2.31-5.17,5.17-5.17h44.74
				c2.86,0,5.17,2.31,5.17,5.17l0,0C163.64,154.18,161.33,156.5,158.47,156.5z"/>
			<path class="st2" d="M158.47,172.29h-44.74c-2.86,0-5.17-2.31-5.17-5.17l0,0c0-2.86,2.31-5.17,5.17-5.17h44.74
				c2.86,0,5.17,2.31,5.17,5.17l0,0C163.64,169.97,161.33,172.29,158.47,172.29z"/>
		</g>
		<g>
			<path class="st1" d="M397.07,79.62h-50.82c-6.29,0-11.39,5.1-11.39,11.39v23.69c0,6.29,5.1,11.39,11.39,11.39h0.38l-4.08,13.66
				c-0.18,0.6,0.51,1.08,1.01,0.7l18.83-14.36h34.68c6.29,0,11.39-5.1,11.39-11.39V91.01C408.46,84.72,403.36,79.62,397.07,79.62z"
				/>
			<path class="st2" d="M396.06,99.65h-50.02c-2.86,0-5.17-2.31-5.17-5.17v0c0-2.85,2.31-5.17,5.17-5.17h50.02
				c2.85,0,5.17,2.31,5.17,5.17v0C401.23,97.33,398.92,99.65,396.06,99.65z"/>
			<path class="st2" d="M371.66,115.28H347.7c-2.85,0-5.17-2.31-5.17-5.17v0c0-2.86,2.31-5.17,5.17-5.17h23.96
				c2.85,0,5.17,2.31,5.17,5.17v0C376.83,112.96,374.52,115.28,371.66,115.28z"/>
		</g>
		<g>
			<path class="st1" d="M57.94,255.15c1.93-1.46,4.24-2.18,6.93-2.18c5.82,0,8.9,3.17,8.9,7.62c0,2.57-1.24,5.18-3.77,7.79
				c-3.21,3.38-5.52,5.05-6.98,5.05c-1.41,0-2.44-1.11-2.44-2.44c0-1.2,1.11-2.4,3.04-4.15c0.13-0.13,0.26-0.26,0.34-0.3
				c2.18-2.01,2.87-3.12,2.87-4.49c0-1.71-1.16-2.65-2.83-2.65c-0.77,0-1.67,0.17-2.74,0.51c-1.07,0.34-1.84,0.51-2.31,0.51
				c-1.2,0-2.57-1.03-2.57-2.74C56.4,256.77,56.91,255.92,57.94,255.15z M63.81,283.7c-2.61,0-4.37-1.97-4.37-4.37
				c0-2.05,1.76-4.02,4.37-4.02c2.27,0,4.02,1.97,4.02,4.02C67.83,281.69,66.16,283.7,63.81,283.7z"/>
		</g>
		<g>
			<path class="st1" d="M407.66,159.09c1.27-0.96,2.79-1.44,4.56-1.44c3.83,0,5.86,2.08,5.86,5.01c0,1.69-0.82,3.41-2.48,5.12
				c-2.11,2.22-3.63,3.32-4.59,3.32c-0.93,0-1.6-0.73-1.6-1.6c0-0.79,0.73-1.58,2-2.73c0.08-0.08,0.17-0.17,0.23-0.2
				c1.44-1.32,1.89-2.05,1.89-2.96c0-1.13-0.76-1.75-1.86-1.75c-0.51,0-1.1,0.11-1.8,0.34c-0.7,0.23-1.21,0.34-1.52,0.34
				c-0.79,0-1.69-0.68-1.69-1.8C406.64,160.16,406.98,159.6,407.66,159.09z M411.51,177.87c-1.72,0-2.87-1.3-2.87-2.87
				c0-1.35,1.15-2.65,2.87-2.65c1.49,0,2.65,1.29,2.65,2.65C414.16,176.54,413.06,177.87,411.51,177.87z"/>
		</g>
		<g>
			<g>
				<path class="st1" d="M491.86,263.13h-53.45c-0.94,0-1.71-0.77-1.71-1.71v-46.01c0-0.94,0.77-1.71,1.71-1.71
					c0.94,0,1.71,0.77,1.71,1.71v44.3h51.74c0.94,0,1.71,0.77,1.71,1.71C493.57,262.36,492.81,263.13,491.86,263.13z"/>
			</g>
			<g>
				<g>
					<path class="st1" d="M442.46,251.88c-0.43,0-0.86-0.16-1.19-0.48c-0.68-0.66-0.7-1.74-0.04-2.42l17.27-17.87
						c0.57-0.59,1.47-0.69,2.16-0.25l8.17,5.3l8.61-10.01c0.62-0.72,1.7-0.8,2.41-0.18c0.72,0.62,0.8,1.7,0.18,2.41l-9.59,11.14
						c-0.56,0.65-1.51,0.79-2.23,0.32l-8.24-5.35l-16.29,16.86C443.35,251.71,442.91,251.88,442.46,251.88z"/>
				</g>
				<g>
					<g>
						<polygon class="st1" points="480.08,233.49 477.64,228.56 472.39,226.88 484.07,221.08 						"/>
					</g>
				</g>
			</g>
		</g>
		<g>
			<path class="st1" d="M132.79,96.29c-5.71,0-10.35-4.64-10.35-10.35c0-5.71,4.64-10.35,10.35-10.35c5.71,0,10.35,4.64,10.35,10.35
				C143.14,91.65,138.49,96.29,132.79,96.29z M132.79,78.44c-4.14,0-7.5,3.37-7.5,7.5c0,4.14,3.37,7.5,7.5,7.5
				c4.14,0,7.5-3.37,7.5-7.5C140.29,81.8,136.92,78.44,132.79,78.44z"/>
		</g>
		<g>
			<path class="st2" d="M448.65,178.7c-4.18,0-7.58-3.4-7.58-7.58c0-4.18,3.4-7.58,7.58-7.58c4.18,0,7.58,3.4,7.58,7.58
				C456.23,175.29,452.83,178.7,448.65,178.7z M448.65,165.62c-3.03,0-5.49,2.47-5.49,5.49c0,3.03,2.47,5.49,5.49,5.49
				s5.49-2.46,5.49-5.49C454.15,168.08,451.68,165.62,448.65,165.62z"/>
		</g>
		<g>
			<path class="st1" d="M50.53,220.27c-3.75,0-6.81-3.05-6.81-6.81s3.05-6.81,6.81-6.81c3.75,0,6.81,3.05,6.81,6.81
				S54.28,220.27,50.53,220.27z M50.53,208.52c-2.72,0-4.93,2.21-4.93,4.93c0,2.72,2.21,4.93,4.93,4.93c2.72,0,4.93-2.21,4.93-4.93
				C55.46,210.74,53.25,208.52,50.53,208.52z"/>
		</g>
		
			<ellipse transform="matrix(0.1602 -0.9871 0.9871 0.1602 280.6295 462.0223)" class="st1" cx="411.84" cy="66.09" rx="3.7" ry="3.7"/>
		<path class="st2" d="M90.83,134.68c0,4.02-3.26,7.28-7.28,7.28c-4.02,0-7.28-3.26-7.28-7.28c0-4.02,3.26-7.28,7.28-7.28
			C87.57,127.4,90.83,130.66,90.83,134.68z"/>
		<path class="st2" d="M437.68,51.73c0,3.02-2.45,5.48-5.48,5.48c-3.02,0-5.48-2.45-5.48-5.48c0-3.02,2.45-5.48,5.48-5.48
			C435.22,46.25,437.68,48.7,437.68,51.73z"/>
		<path class="st2" d="M464.47,183.22c0,2.58-2.09,4.67-4.67,4.67c-2.58,0-4.67-2.09-4.67-4.67s2.09-4.67,4.67-4.67
			C462.38,178.54,464.47,180.64,464.47,183.22z"/>
		<path class="st1" d="M424.01,80.04c0,3.22-2.61,5.83-5.83,5.83c-3.22,0-5.83-2.61-5.83-5.83c0-3.22,2.61-5.83,5.83-5.83
			C421.4,74.22,424.01,76.83,424.01,80.04z"/>
		<path class="st1" d="M156,69.46c0,3.26-2.65,5.91-5.91,5.91c-3.26,0-5.91-2.65-5.91-5.91c0-3.26,2.65-5.91,5.91-5.91
			C153.35,63.55,156,66.2,156,69.46z"/>
	</g>
	<path class="st3" d="M435.54,349H85.65c-1.14,0-2.07-0.93-2.07-2.07l0,0c0-1.14,0.93-2.07,2.07-2.07h349.88
		c1.14,0,2.07,0.93,2.07,2.07l0,0C437.6,348.07,436.68,349,435.54,349z"/>
	<g>
		<g>
			<polygon id="v-2_2_" class="st4" points="201.39,168 201.4,168 206.77,168.02 207.98,180.71 201.71,184.02 195.03,180.75 
				196.11,168.02 			"/>
			<g>
				<path class="st4" d="M186.64,162.41c3.31,8.26,11.24,12.85,17.73,10.25c6.49-2.6,9.07-11.4,5.76-19.66
					c-3.31-8.26-11.24-12.85-17.73-10.25C185.91,145.35,183.33,154.15,186.64,162.41z"/>
				<path d="M207.31,155.72c0.38,0.55,1.14,0.69,1.69,0.3c0.55-0.38,0.69-1.14,0.3-1.69c-0.38-0.55-1.14-0.69-1.69-0.3
					C207.06,154.41,206.92,155.17,207.31,155.72z"/>
				<path d="M198.2,159.43c0.41,0.6,1.23,0.74,1.83,0.33c0.6-0.41,0.74-1.23,0.33-1.83c-0.41-0.6-1.23-0.74-1.83-0.33
					C197.94,158.01,197.79,158.83,198.2,159.43z"/>
				<path class="st5" d="M205.46,157.66c1.64,1.3,3.7,2.86,3.7,2.86s0.02,1.98-2.29,2.84c0.84-0.76,1.57-1.77,0.7-2.94
					C206.69,159.25,205.46,157.66,205.46,157.66z"/>
				<g>
					<path class="st3" d="M195.81,158.64c-0.05,0-0.09-0.01-0.14-0.02c-0.33-0.08-0.53-0.4-0.45-0.73c0.21-0.89,1.1-2.57,2.95-2.58
						c0.34,0,0.61,0.27,0.61,0.6c0,0.33-0.27,0.61-0.6,0.61c-1.37,0.01-1.77,1.63-1.78,1.65
						C196.33,158.45,196.08,158.64,195.81,158.64z"/>
				</g>
				<g>
					<path class="st3" d="M206.03,153.15c-0.09,0-0.17-0.02-0.26-0.07c-0.24-0.14-0.32-0.45-0.18-0.69
						c0.02-0.04,0.55-0.93,1.56-1.11c0.69-0.13,1.39,0.1,2.11,0.67c0.22,0.17,0.25,0.49,0.08,0.71c-0.17,0.22-0.49,0.25-0.71,0.08
						c-0.47-0.38-0.91-0.53-1.29-0.46c-0.55,0.1-0.87,0.62-0.87,0.63C206.38,153.06,206.21,153.15,206.03,153.15z"/>
				</g>
				<path class="st3" d="M182.12,156.24c-2.8-7.96,4.01-12.54,4.01-12.54s-1.83-0.16-2.05-2.73c1.37,0.43,2.9,0.4,4.25-0.09
					c9.08-3.29,15.33-3.24,15.33,0.64c0,1.38,5.99,0.44,5.49,9.74c0.04-0.66-2.11-4.48-4.13-4.86c-2.03-0.38-0.2,2.32-4.43,2.9
					c-4.27,0.59-7.41-0.45-10.01,1.96c-2.04,2.1-2.55,12.78-2.24,13.43C187.64,163.21,183.35,159.74,182.12,156.24z"/>
				<path class="st3" d="M211.38,157.66c0,0,0.39,4.85-0.31,6.35c-0.73-1.94-2.29,0.12-3.76,0.31c-3.54,0.47-9.94-0.71-10.57,4.6
					c-4.33,1.37-8.39-7.9-8.39-7.9c-0.25,10.36,7.33,16.24,18.24,14.52C213.77,174.39,214.44,164.39,211.38,157.66z"/>
				<g>
					<path class="st5" d="M203.91,167.59c-0.7-0.17-1.43-0.45-2.19-0.86c-0.2-0.11-0.27-0.35-0.17-0.55
						c0.11-0.2,0.35-0.27,0.55-0.17c1.68,0.9,3.18,1.15,4.47,0.76c1.59-0.49,2.32-1.83,2.33-1.84c0.1-0.2,0.35-0.27,0.55-0.17
						c0.2,0.1,0.27,0.35,0.17,0.54c-0.03,0.07-0.88,1.64-2.79,2.23C205.92,167.82,204.95,167.83,203.91,167.59z"/>
				</g>
				<g>
					<path class="st4" d="M188.25,161.08c1.82,1.02,2.62,3.07,1.78,4.56c-0.84,1.49-3,1.87-4.82,0.85
						c-1.82-1.02-2.62-3.07-1.78-4.56C184.27,160.44,186.42,160.06,188.25,161.08z"/>
					<g>
						<path class="st5" d="M187.97,165.55c0.06-0.04,0.1-0.09,0.14-0.16c0.5-0.93,0.42-1.87-0.22-2.53
							c-0.65-0.67-1.71-0.87-2.51-0.46c-0.23,0.11-0.32,0.39-0.2,0.61c0.11,0.23,0.39,0.32,0.61,0.2c0.44-0.22,1.07-0.1,1.44,0.28
							c0.36,0.37,0.38,0.88,0.07,1.46c-0.12,0.22-0.04,0.5,0.19,0.62C187.65,165.67,187.83,165.65,187.97,165.55z"/>
					</g>
				</g>
			</g>
		</g>
		<path d="M207.6,337.4c1.14-3.1,3.59-3.45,3.59-3.45c4.75,6.55,16.41,2.53,16.02,11.39c-17.73-0.11-25.1,0-25.1,0
			c0.02-2.04,0.37-6.87,0.78-8.76l0.92,0.17L207.6,337.4z"/>
		<path d="M181.07,337.57c1.14-3.1,3.59-3.45,3.59-3.45c4.75,6.55,16.41,2.53,16.02,11.39c-17.73-0.11-25.1,0-25.1,0
			c0.02-2.04,0.37-6.87,0.78-8.76l0.92,0.17L181.07,337.57z"/>
		<path class="st3" d="M219.4,233.93c0,0,2.88,41.99,1.71,51.33c-1.17,9.34-5.31,21.3-4.84,52.18c-5.78,1.45-14.16,0-14.16,0
			s-1.24-34.92,4.87-50.51c-2.48-15.15-10.46-49.85-10.46-49.85L219.4,233.93z"/>
		<path class="st6" d="M208.46,235.08c0,0-5.81,47.14-8.66,56.09c-2.85,8.94-8.4,16.5-13.55,46.92c-5.94,0.3-11.47,0-11.47,0
			s0.8-38.59,10.05-47.36c0.31-15.36-1.5-55.34-1.5-55.34L208.46,235.08z"/>
		<g id="v_62_">
			<path id="h-5_2_" class="st7" d="M181.66,181.57c0,0,10.1-3.53,13.46-1.91c10.46,5.04,12.86,0,12.86,0
				c3.34,0.29,13.44,1.91,13.44,1.91c0,11.27,0.75,22.58,0.55,31.11c-0.14,7.43,1.27,27.64,1.27,27.64s-11.13,2.92-21.66,2.99
				c-10.53-0.07-21.25-2.88-21.25-2.88s0.56-20.47,1.03-28.08C181.2,203.83,181.66,192.81,181.66,181.57z"/>
		</g>
		<g id="c_4752_">
			<path id="c_4760_" class="st8" d="M239.37,198.32c-4.17-9.94-16.54-16.27-17.95-16.75l-2.87,12.77
				c5.94,3.51,10.25,7.31,10.25,7.31c-0.73,3.55-0.61,7.04-2.67,11.54c0,0,1.79-2.47,3.99-1.01c2.14,1.42,6.08-1.48,6.08-1.48
				S242.55,205.92,239.37,198.32z"/>
		</g>
		<g id="c_4746_">
			<g id="c_4751_">
				<g id="c_4754_">
					<path id="c_4759_" class="st9" d="M237.05,223.45c0.07,0.02,0.14,0.04,0.22,0.04h0.24c0.43-0.05,0.82-0.34,0.96-0.79
						l11.11-35.82c0.02-0.07,0.04-0.14,0.04-0.22c0.01-0.05,0-0.09,0-0.14c0-0.03,0-0.06,0-0.09c0-0.03-0.01-0.05-0.01-0.07
						c-0.07-0.41-0.35-0.76-0.77-0.89c-0.07-0.02-0.14-0.04-0.21-0.05c-0.08-0.01-0.16-0.01-0.24,0H220.4L209.2,223.5h27.87
						L237.05,223.45z"/>
					<path id="c_4757_" class="st10" d="M220.66,185.48c-0.6-0.18-1.23,0.15-1.41,0.74l-11.04,35.73l-0.03,0.08
						c-0.18,0.59,0.15,1.22,0.74,1.41l0,0c0.6,0.18,1.23-0.15,1.41-0.74l11.07-35.82C221.59,186.29,221.25,185.66,220.66,185.48z"/>
				</g>
			</g>
			<path id="c_4748_" class="st4" d="M241.79,208.2c0.1-0.07,0.22-0.11,0.33-0.15c-0.01-0.02-0.03-0.03-0.04-0.05
				c-0.7-1.05-0.65-2.3,0.1-2.8c0.12-0.08,0.26-0.14,0.4-0.17c-0.2-0.78-0.02-1.52,0.52-1.88c0.21-0.14,0.46-0.2,0.72-0.2
				c-0.25-0.76-0.05-1.57,0.55-1.96c0.75-0.5,1.85-0.18,2.44,0.72c0.59,0.9,0.46,2.03-0.29,2.53c-0.19,0.13-0.4,0.2-0.62,0.22
				c0.5,0.98,0.4,2.05-0.28,2.5c-0.12,0.08-0.26,0.14-0.4,0.17c0.2,0.78,0.02,1.52-0.52,1.88c-0.2,0.13-0.43,0.2-0.67,0.2
				c0.25,0.67,0.09,1.39-0.44,1.74c-0.64,0.42-1.56,0.15-2.06-0.61C241.05,209.58,241.15,208.62,241.79,208.2z"/>
			<path class="st4" d="M207.4,205.94l2.55-1.48c0,0,0.71-3.62,4.8-3.7c-0.47,1.52-1.14,3.7-1.14,3.7s2.02,1.56,6.8-1.11
				c4.67-1.05,2.68,2.36,4.23,2.6c2.29,0.36-1.67,4.85-6.33,5.54c-6.04,0.89-6.75-0.35-6.75-0.35l-3.42,1.19L207.4,205.94z"/>
			<path id="c_4747_" class="st11" d="M183.81,209.8c8.52-0.6,23.06-4.8,23.06-4.8c2.33,3.57,1.68,8.31,1.68,8.31
				c-13.23,11.6-33.15,15.35-39.26,12.56c-5.58-2.55-1.64-36.51,12.37-44.29l0,0C186.46,189.7,183.81,209.8,183.81,209.8z"/>
		</g>
		<g>
			<path d="M321.16,334.25c-4.75,6.33-16.41,2.45-16.02,11.01c17.73-0.11,25.1,0,25.1,0c-0.02-1.97-0.37-6.64-0.78-8.47
				L321.16,334.25z"/>
			<path d="M347.69,334.42c-4.75,6.33-16.41,2.45-16.02,11.01c17.73-0.11,25.1,0,25.1,0c-0.02-1.97-0.37-6.64-0.78-8.47
				L347.69,334.42z"/>
			<path class="st3" d="M312.95,237.55c0,0-2.88,40.6-1.71,49.62c1.17,9.03,5.31,20.6,4.84,50.45c5.78,1.4,14.16,0,14.16,0
				s1.24-33.76-4.87-48.83c2.48-14.65,10.46-48.19,10.46-48.19L312.95,237.55z"/>
			<path class="st6" d="M323.89,238.66c0,0,5.81,45.58,8.66,54.22c2.85,8.64,8.4,15.95,13.55,45.36c5.94,0.29,13.02-1.18,13.02-1.18
				s-2.35-36.13-11.6-44.61c-0.31-14.85,1.5-53.5,1.5-53.5L323.89,238.66z"/>
			<g>
				<g>
					<g>
						<path class="st4" d="M347.57,164.1c-3.15,7.87-10.72,12.25-16.9,9.78c-6.18-2.47-8.64-10.86-5.49-18.74
							c3.15-7.87,10.72-12.25,16.9-9.78C348.26,147.84,350.72,156.23,347.57,164.1z"/>
						<path d="M327.86,157.72c-0.37,0.53-1.09,0.65-1.61,0.29c-0.53-0.37-0.65-1.09-0.29-1.61c0.37-0.53,1.09-0.65,1.61-0.29
							C328.1,156.47,328.23,157.2,327.86,157.72z"/>
						<path d="M336.54,161.26c-0.4,0.57-1.18,0.71-1.75,0.31c-0.57-0.4-0.71-1.18-0.31-1.75c0.4-0.57,1.18-0.71,1.75-0.31
							C336.8,159.91,336.94,160.69,336.54,161.26z"/>
						<path class="st5" d="M329.62,159.57c-1.57,1.23-3.52,2.72-3.52,2.72s-0.02,1.89,2.19,2.71c-0.8-0.72-1.5-1.69-0.67-2.8
							C328.45,161.09,329.62,159.57,329.62,159.57z"/>
						<g>
							<path d="M338.82,160.51c-0.26,0-0.5-0.18-0.56-0.44c-0.02-0.06-0.4-1.57-1.69-1.57c-0.32,0-0.58-0.26-0.58-0.58
								c0-0.32,0.26-0.58,0.58-0.58c1.76,0.01,2.61,1.61,2.81,2.46c0.07,0.31-0.12,0.62-0.43,0.7
								C338.91,160.5,338.87,160.51,338.82,160.51z"/>
						</g>
						<g>
							<path d="M329.08,155.27c-0.16,0-0.32-0.08-0.41-0.24c-0.01-0.01-0.32-0.51-0.84-0.6c-0.36-0.06-0.78,0.08-1.22,0.44
								c-0.21,0.17-0.51,0.13-0.68-0.08c-0.17-0.21-0.13-0.51,0.08-0.68c0.68-0.54,1.35-0.76,2.01-0.64
								c0.96,0.18,1.46,1.02,1.48,1.06c0.13,0.23,0.06,0.52-0.17,0.66C329.24,155.25,329.16,155.27,329.08,155.27z"/>
						</g>
						<path d="M345.37,164.92c-2.28-7.33,0.6-11.22,0.6-11.22c-1.96-0.39-2.72,0.28-2.72,0.28c-1.07-2.19-0.24-3.76-0.24-3.76
							c-4.04-1.58-6.06,1.04-9.71,1.92c-5,1.21-11.17-0.78-11.75-6.88c-0.08-0.88,0.89-1.45,1.62-0.96c0.68,0.46,1.59,0.83,2.72,0.8
							c0,0-1.05-1.18-1.1-2.81c-0.03-0.9,1.03-1.39,1.72-0.81c1.04,0.86,2.97,1.68,6.4,1.04c2.29-0.43,7.52-4.09,10.78-3.38
							c2.67,0.58,4.78,2.85,5.69,6.1c0,0,6.55,0.68,7.21,7.89c0.65,7.09-7.56,12.52-7.56,12.52L345.37,164.92z"/>
						<path class="st4" d="M344.48,163.7c-1.74,0.98-2.49,2.93-1.68,4.35c0.8,1.42,2.86,1.77,4.6,0.79
							c1.74-0.98,2.49-2.93,1.68-4.35C348.27,163.07,346.21,162.72,344.48,163.7z"/>
						<g>
							<path class="st5" d="M344.76,167.96c-0.05-0.04-0.1-0.09-0.13-0.15c-0.48-0.88-0.41-1.79,0.2-2.41
								c0.62-0.64,1.63-0.83,2.39-0.45c0.22,0.11,0.3,0.37,0.19,0.59c-0.11,0.22-0.37,0.3-0.59,0.19c-0.42-0.21-1.02-0.09-1.37,0.27
								c-0.34,0.35-0.36,0.84-0.06,1.39c0.12,0.21,0.04,0.48-0.17,0.59C345.07,168.07,344.89,168.05,344.76,167.96z"/>
						</g>
						<path class="st1" d="M326.46,167.52c-0.17-0.28,0.07-0.62,0.39-0.56c0.81,0.17,2.15,0.42,3.44,0.54
							c1.29,0.12,2.66,0.1,3.48,0.08c0.33-0.01,0.5,0.37,0.29,0.62c-0.67,0.75-2,1.85-3.98,1.68
							C328.1,169.7,326.98,168.37,326.46,167.52z"/>
					</g>
				</g>
			</g>
			<path class="st3" d="M318.13,177.84c0,0,0.3-0.8-25.22-0.6l-6.84,8.09c7.08,5.68,30.8,6.69,30.8,6.69L318.13,177.84z"/>
			<polygon class="st9" points="327.41,177.18 335.46,176.43 343.24,178.6 334.47,187.63 			"/>
			<path class="st4" d="M330.2,181.32c3.28,2.69,3.95,4.55,10.92,0.95l1.04-10.71l-11.34-0.89L330.2,181.32z"/>
			<path class="st9" d="M345.31,182.91L345.31,182.91l-2.39-0.94l0.32-3.37l-6.62,5.31l-1.87,0.3l-1.79-0.62l-5.57-6.41l-0.29,3.37
				l-2.1,0.42l0,0l-7.59,1.23l-0.9,42.13l-2.99,14.33c10.07,3.35,21.33,4.19,32.41,2.66l-0.37-14.39l7.87-41.17L345.31,182.91z"/>
			<polygon class="st6" points="333.3,188.47 328.55,220.63 331.18,224.29 334.61,221.65 335.78,188.73 			"/>
			<polygon class="st6" points="333.02,184.67 334.76,184.21 336.53,184.98 335.78,188.8 333.29,188.57 			"/>
			<g>
				<path class="st6" d="M327.3,177.45l-1.19,38.86l-5.14,25.02c0,0-8.13-0.82-13.13-5.57l6.4-18.84l2.19-39.36L327.3,177.45z"/>
				<polygon class="st12" points="327.3,177.45 326.11,215.78 320.19,186.4 				"/>
			</g>
			<g>
				<path class="st6" d="M343.85,179.93l-10.56,62.99c0,0,14.01,1.72,19.78-2.07l-3.13-20.71l3.82-35.15L343.85,179.93z"/>
				<polygon class="st12" points="343.85,179.93 337.68,216.85 348.73,189 				"/>
			</g>
			<path class="st4" d="M274.06,142.89c0.56,1.97,0.73,4.09,3.22,5.14c0,0-0.37,6.52-0.09,11.87c0,0,6.03-6.8,6.03-6.81
				c-0.35-2.16-0.63-6.24-0.29-8.55c0.09-0.6,0.2-1.2,0.3-1.8c0.26-1.46,0.69-2.96-0.2-4.72c-3.44-6.82-2.28-9.06-2.76-9.4
				c-0.77-0.34-2.58,1.03-1.56,4.38c0.99,3.24,0.75,4.83,0.75,4.83s-2.6-0.49-3.53,0.42C275.51,138.67,273.41,140.59,274.06,142.89z
				"/>
			<path class="st3" d="M275.46,152.08c3.52-1.17,5.37-1.7,8.1-1.7c6.46,19.26,11.07,26.52,9.15,32.05
				c-1.6,4.61-6.67,4.24-9.15,0.79C280.29,178.66,277.4,161.35,275.46,152.08z"/>
			<polygon class="st3" points="353.76,184.99 374.13,216.85 398.31,230.51 390.86,237.93 366.59,227.3 349.94,203.8 			"/>
			<path class="st1" d="M334.76,184.21c0,0-3,3.02-5.75,3.8l-3.26-8.61l1.66-2.22L334.76,184.21z"/>
			<path class="st1" d="M334.76,184.21c0,0,1.71,2.93,4.98,4.76l4.74-7.87l-1.24-2.5L334.76,184.21z"/>
		</g>
		<g id="с_1_">
			<path id="с_9_" class="st9" d="M356.92,274.91H179.12c-4.18,0-7.57-2.28-7.57-5.09l0,0c0-2.81,3.39-5.09,7.57-5.09h177.81
				c4.18,0,7.57,2.28,7.57,5.09l0,0C364.49,272.63,361.1,274.91,356.92,274.91z"/>
			<g>
				<path class="st9" d="M245.76,346.66L245.76,346.66c-1.91,0-3.05-2.11-2.01-3.71L290.69,271l4.02,2.62l-46.95,71.95
					C247.32,346.25,246.57,346.66,245.76,346.66z"/>
			</g>
			<g>
				<path class="st9" d="M290.28,346.66L290.28,346.66c1.91,0,3.05-2.11,2.01-3.71L245.34,271l-4.02,2.62l46.95,71.95
					C288.72,346.25,289.47,346.66,290.28,346.66z"/>
			</g>
		</g>
		<g id="с">
			<path id="с_8_" class="st10" d="M364,345.52L364,345.52c-1.27,0-2.3-1.03-2.3-2.3V302.5h4.6v40.72
				C366.3,344.49,365.27,345.52,364,345.52z"/>
			<path id="с_7_" class="st10" d="M380.13,345.52L380.13,345.52c-1.27,0-2.3-1.03-2.3-2.3V302.5h4.6v40.72
				C382.43,344.49,381.4,345.52,380.13,345.52z"/>
			<path id="с_6_" class="st10" d="M401.29,345.52L401.29,345.52c-1.27,0-2.3-1.03-2.3-2.3V302.5h4.6v40.72
				C403.59,344.49,402.56,345.52,401.29,345.52z"/>
			<path id="с_5_" class="st10" d="M417.42,345.52L417.42,345.52c-1.27,0-2.3-1.03-2.3-2.3V302.5h4.6v40.72
				C419.72,344.49,418.69,345.52,417.42,345.52z"/>
			<path id="с_4_" class="st9" d="M391.99,242.06v48.46c0,0.55-0.45,1-1,1h-30.05c-3.03,0-5.49,2.46-5.49,5.49l0,0
				c0,3.03,2.46,5.49,5.49,5.49h31.05h5.49c3.03,0,5.49-2.46,5.49-5.49v-5.49v-49.46c0-3.03-2.46-5.49-5.49-5.49l0,0
				C394.45,236.57,391.99,239.03,391.99,242.06z"/>
			<rect id="с_3_" x="397.48" y="236.57" class="st9" width="23.76" height="55.84"/>
			<path id="с_2_" class="st10" d="M415.75,242.06v48.46c0,0.55-0.45,1-1,1H384.7c-3.03,0-5.49,2.46-5.49,5.49l0,0
				c0,3.03,2.46,5.49,5.49,5.49h31.05h5.49c3.03,0,5.49-2.46,5.49-5.49v-5.49v-49.46c0-3.03-2.46-5.49-5.49-5.49h0
				C418.2,236.57,415.75,239.03,415.75,242.06z"/>
		</g>
		<g id="с_12_">
			<path id="с_19_" class="st10" d="M169.79,345.52L169.79,345.52c1.27,0,2.3-1.03,2.3-2.3V302.5h-4.6v40.72
				C167.49,344.49,168.52,345.52,169.79,345.52z"/>
			<path id="с_18_" class="st10" d="M153.66,345.52L153.66,345.52c1.27,0,2.3-1.03,2.3-2.3V302.5h-4.6v40.72
				C151.36,344.49,152.39,345.52,153.66,345.52z"/>
			<path id="с_17_" class="st10" d="M132.5,345.52L132.5,345.52c1.27,0,2.3-1.03,2.3-2.3V302.5h-4.6v40.72
				C130.2,344.49,131.23,345.52,132.5,345.52z"/>
			<path id="с_16_" class="st10" d="M116.37,345.52L116.37,345.52c1.27,0,2.3-1.03,2.3-2.3V302.5h-4.6v40.72
				C114.07,344.49,115.1,345.52,116.37,345.52z"/>
			<path id="с_15_" class="st9" d="M141.8,242.06v48.46c0,0.55,0.45,1,1,1h30.05c3.03,0,5.49,2.46,5.49,5.49l0,0
				c0,3.03-2.46,5.49-5.49,5.49H141.8h-5.49c-3.03,0-5.49-2.46-5.49-5.49v-5.49v-49.46c0-3.03,2.46-5.49,5.49-5.49h0
				C139.34,236.57,141.8,239.03,141.8,242.06z"/>
			
				<rect id="с_14_" x="112.55" y="236.57" transform="matrix(-1 -1.224647e-16 1.224647e-16 -1 248.8631 528.9791)" class="st9" width="23.76" height="55.84"/>
			<path id="с_13_" class="st10" d="M118.04,242.06v48.46c0,0.55,0.45,1,1,1h30.05c3.03,0,5.49,2.46,5.49,5.49l0,0
				c0,3.03-2.46,5.49-5.49,5.49h-31.05h-5.49c-3.03,0-5.49-2.46-5.49-5.49v-5.49v-49.46c0-3.03,2.46-5.49,5.49-5.49l0,0
				C115.58,236.57,118.04,239.03,118.04,242.06z"/>
		</g>
		<g>
			<path class="st6" d="M379.76,223.54c-5.07-1.83-12.9-5.83-7.7-13.13c5.2-7.31,5.07-4.12,3.2-12.99
				c-1.87-8.88,4.44-15.86,10.45-14.09c6.02,1.77,7.55,6.64,14.93,5.4c7.37-1.23,13.5,5.66,10.73,11.65
				c-2.78,5.98-3.96,8.86-1.37,12.17c2.6,3.31,14.29,6.88,9.41,14.81c-4.88,7.93-7.11,7.44-5.42,11.51
				c1.69,4.07-2.21,8.69-8.99,8.06c-6.78-0.63-12.92-3.2-15.41-10.77C387.12,228.59,379.76,223.54,379.76,223.54z"/>
			<path class="st4" d="M361.83,338.83l-4.01,1.2l-3.02-3.08c0.14-0.21,0.01-2.28-0.46-4.48l7.48-1.24
				C362.13,333.5,361.83,336.52,361.83,338.83z"/>
			<path class="st7" d="M357.85,339.3c-0.95-2.5-2.99-2.78-2.99-2.78c-3.96,5.28-13.68,2.04-13.35,9.18c14.78-0.09,20.92,0,20.92,0
				c-0.02-1.64-0.31-5.53-0.65-7.06l-0.77,0.14L357.85,339.3z"/>
			<path class="st4" d="M335.19,339.57l-4.17,0.29l-2.4-2.55c0.19-0.18,0.64-3.34,0.67-5.59l7.03,0.31
				C336.11,334.32,335.69,337.33,335.19,339.57z"/>
			<path class="st7" d="M331.47,339.3c-0.95-2.5-2.99-2.78-2.99-2.78c-3.96,5.28-13.68,2.04-13.35,9.18c14.78-0.09,20.92,0,20.92,0
				c-0.02-1.64-0.31-5.53-0.65-7.06l-0.77,0.14L331.47,339.3z"/>
			<path class="st13" d="M377.37,269.83c-11.39,1.53-43.46,13.42-45.25,15.57c-3.69,4.44-1.75,28.61-3.5,48.56l9.32,0.55
				c4.47-16.24,4.11-23.25,6.13-41.88c0,0,36.65,2.74,49.89-6.19C407.61,277.21,386.57,267.64,377.37,269.83z"/>
			<path class="st5" d="M362.53,246.15c2.69,0.46,3.73,2.62,4.38,6.59c-10.25,6.04-25.48,6.47-25.48,6.47l-4.85-2.4
				C336.57,256.81,348.78,252.41,362.53,246.15z"/>
			<path class="st5" d="M390.56,234.78c-4.49,6.52-21.67,20.54-24.52,20.98l-3.45-9.65c0,0,16.78-18.16,19.83-21.37
				C387.71,219.18,397.9,224.15,390.56,234.78z"/>
			<path class="st14" d="M371.66,233.74c3.6-3.88,8.28-12.63,14.38-12c6.1,0.62,6.54,7.09,4.7,10.58
				c-1.84,3.48-8.18,12.07-8.18,12.07L371.66,233.74z"/>
			<path class="st4" d="M372.76,250.14c2.58,0.89,4.06,9.03,3.33,9.65c-11.08,4.39-34.13-0.36-34.13-0.36l-1.22-4.17
				C340.74,255.26,358.2,254.19,372.76,250.14z"/>
			<path class="st7" d="M409.22,276.67c-2.53-13.07-3.63-17.7-4.68-23.86c-2.6-15.2,5.05-25.89-8.06-33.18l-9.56,1.54
				c-7.73,8.13-12.48,15.51-12.89,20.6c-0.56,6.57,5.96,10.14,5.96,10.14l-2.62,17.9c0,0-0.62,1.46,10.16,3.5
				C398.3,275.36,409.22,276.67,409.22,276.67z"/>
			<path class="st4" d="M401.36,236.64c-4.49,6.59-23.66,23.35-26.54,23.5l-2.06-10c0,0,17.42-20.41,20.47-23.66
				C398.51,220.85,408.71,225.89,401.36,236.64z"/>
			<path class="st14" d="M383.04,236.69c3.35-4.87,10.1-13.86,16.2-13.24c6.1,0.62,6.54,7.09,4.7,10.58
				c-1.84,3.48-8.18,12.07-8.18,12.07L383.04,236.69z"/>
			<path class="st4" d="M340.74,255.26c-3.52-0.87-11.19-3.44-14.27,4.63c0.77,1.48,3.61-2.18,4.83-2.51
				c1.93-0.54,3.59,0.48,5.06,1.88c2.1,2.01,5.61,0.18,5.61,0.18L340.74,255.26z"/>
			<g>
				<path class="st14" d="M338,264.64h-33.11v-4.45h37.55l0,0C342.44,262.65,340.45,264.64,338,264.64z"/>
				<path class="st14" d="M287.87,236.71l17.02,27.93l3.94-2.07l-19.09-31.86l0,0C287.56,231.85,286.72,234.54,287.87,236.71z"/>
			</g>
			<path class="st4" d="M400.85,207.18c-1.61,6.72-7.2,11.15-12.48,9.88c-5.28-1.26-8.26-7.74-6.65-14.46
				c1.61-6.72,7.2-11.15,12.48-9.88C399.48,193.98,402.46,200.46,400.85,207.18z"/>
			<path class="st4" d="M398.29,210.73l-8.78,5.44c0,0-0.78,3.88-1.17,5.14c-0.8,2.6,2.27,3.73,4.87,2.11
				c2.6-1.62,3.26-3.78,3.26-3.78L398.29,210.73z"/>
			<path class="st6" d="M381.12,200.04c2.49,0.21,7.9-0.22,9.87-2.55c1.4,4.74,7.38,9.26,12.32,11.38
				c0.2-4.87,0.16-13.82-8.56-17.54C387.89,188.4,381.12,200.04,381.12,200.04z"/>
			<path d="M384.2,204.37c-0.23,0.47-0.8,0.66-1.27,0.42c-0.47-0.23-0.66-0.8-0.42-1.27c0.23-0.47,0.8-0.66,1.27-0.42
				C384.24,203.34,384.43,203.9,384.2,204.37z"/>
			<path d="M391.62,206.2c-0.25,0.51-0.87,0.71-1.37,0.46c-0.51-0.25-0.71-0.87-0.46-1.37c0.25-0.51,0.87-0.71,1.37-0.46
				C391.66,205.08,391.87,205.7,391.62,206.2z"/>
			<g>
				<path class="st6" d="M392.75,205.35c-0.07-0.03-0.13-0.09-0.16-0.17c-0.51-1.11-1.9-1.32-1.91-1.32
					c-0.19-0.03-0.33-0.21-0.3-0.4c0.03-0.19,0.21-0.33,0.4-0.3c0.07,0.01,1.78,0.27,2.46,1.73c0.08,0.18,0.01,0.39-0.17,0.47
					C392.95,205.41,392.84,205.4,392.75,205.35z"/>
			</g>
			<g>
				<path class="st6" d="M382.14,203c-0.03-0.02-0.07-0.04-0.09-0.07c-0.14-0.14-0.14-0.36,0-0.5c1.08-1.07,2.42-0.63,2.48-0.61
					c0.19,0.06,0.28,0.27,0.22,0.45c-0.06,0.18-0.27,0.28-0.45,0.22c-0.04-0.01-0.98-0.31-1.75,0.44
					C382.44,203.05,382.27,203.07,382.14,203z"/>
			</g>
			<path class="st5" d="M384.81,206.43c-0.52,0.53-0.97,1.08-1.47,1.39c-0.17,0.11-0.22,0.33-0.12,0.5c0.4,0.71,1.57,1.29,2.28,1.6
				c0.1,0.04,0.19-0.09,0.1-0.17c-0.72-0.63-1.03-1.1-1.16-1.36c-0.06-0.13-0.06-0.28,0-0.4c0.15-0.29,0.44-0.89,0.64-1.38
				C385.15,206.43,384.94,206.29,384.81,206.43z"/>
			<path class="st4" d="M398.31,207.23c-1.28,1-1.66,2.66-0.84,3.71s2.52,1.09,3.8,0.09c1.28-1,1.66-2.66,0.84-3.71
				C401.29,206.27,399.59,206.23,398.31,207.23z"/>
			<g>
				<path class="st5" d="M399.04,210.63c-0.05-0.02-0.09-0.06-0.13-0.1c-0.49-0.66-0.54-1.39-0.12-1.97
					c0.42-0.59,1.21-0.86,1.88-0.64c0.19,0.06,0.29,0.26,0.23,0.45c-0.06,0.19-0.26,0.29-0.45,0.23c-0.36-0.12-0.84,0.05-1.08,0.38
					c-0.23,0.32-0.19,0.72,0.11,1.13c0.12,0.16,0.09,0.38-0.07,0.5C399.3,210.68,399.15,210.69,399.04,210.63z"/>
			</g>
			<path class="st15" d="M390.11,271.9c-11.39,1.53-43.51,11.94-45.3,14.09c-3.69,4.44,4.53,23.47,7.16,47.95h10.99
				c-0.11-17.45,1.28-33.5-4.09-39.19c0,0,30.79-2.05,46.14-2.05C412.83,292.71,417.16,266.27,390.11,271.9z"/>
			<path class="st1" d="M384.33,212.08c-0.15-0.21,0.01-0.49,0.27-0.46c0.64,0.08,1.71,0.18,2.73,0.18c1.02,0,2.08-0.1,2.73-0.18
				c0.25-0.03,0.42,0.26,0.27,0.46c-0.47,0.63-1.43,1.59-2.99,1.58C385.76,213.67,384.79,212.71,384.33,212.08z"/>
		</g>
		<g>
			<g>
				<path class="st4" d="M165.68,253.1c-2.17,1.45-1.57,9.33-0.75,9.73c11.31,1.38,30.4-7.99,30.4-7.99l0.75-4.19
					C196.08,250.66,180.13,253.33,165.68,253.1z"/>
				<path class="st4" d="M140.84,239.43c4.04,6.46,21.73,23.18,24.48,23.42l2.34-9.48c0,0-15.88-20.13-18.68-23.35
					C144.14,224.46,134.22,228.89,140.84,239.43z"/>
			</g>
			<path class="st6" d="M150.5,204.89c0.49-6.62-1.43-12.46-6.7-15.44c-5.35-3.02-12.05-0.06-12.05-0.06l0,0
				c0,0-5.67-2.02-10.81,3.64c-5.14,5.66-1.25,10.64-3.35,14.77c-1.25,2.45-7.58,2.95-5.94,10.91c0.47,2.3,3.23,3.84,5.57,4
				c4.11,0.27,7.94-1.32,9.61,0.27c5.49,5.24,17.66,3.34,19.36-1.45c0.53-1.49,11.47,1.39,10.38-8.73
				C156.02,207.69,150.07,210.81,150.5,204.89z"/>
			<g>
				<g>
					<g>
						<polygon class="st4" points="140.47,226.29 131.78,224.68 128.52,229.02 135.45,243.22 145.64,234.57 						"/>
					</g>
				</g>
			</g>
			<g>
				<g>
					<g>
						<path class="st15" d="M151.74,260.52c-0.15-2.7,4.22-13.8,1.92-19.38c-1.67-4.49-4.47-12.03-7.9-13.29
							c-1.62-0.59-3.28-1.01-5.29-1.56c0,0,1.14,5.66-1.23,5.85c-4.56,0.37-7.46-7.46-7.46-7.46c-2.46-0.23-13.72,3.47-13.72,4.39
							c0.03,7.25,5.91,17.82,7.84,25.66c0.76,8.46-2.19,18.59-2.21,19.55c0,0,18.13,5.1,28.87-0.82
							C152.79,272.64,151.94,264.26,151.74,260.52z"/>
					</g>
				</g>
			</g>
			<path class="st15" d="M126.42,265.59c0,0-4,10.1-4.98,16.45c-0.98,6.36,4.53,10.43,4.53,10.43h45.8c0,0,4.9-7.95,3.49-13.44
				c-1.41-5.49-4.66-6.36-4.66-6.36L126.42,265.59z"/>
			<path class="st5" d="M172.39,272.38c-5.85-0.82-22.82,5.77-30.05,20.09h20.24L172.39,272.38z"/>
			<g>
				<path class="st5" d="M165.98,277.65c0.76-0.83,1.44-1.85,2.05-2.91c1.71-3.01,5.82-3.51,8.14-0.95
					c8.44,9.31,26.43,30.52,30.44,33.16c1.13,0.75,7.75,4.55,14.03,3.8c0,0,3.1,1.18,1.04,3.65c-1.06,1.27-17.04,2.58-17.04,2.58
					l-1.25-4.69c-9.3-6.88-20.88-6.39-30.69-18.97C167.29,286.38,165.98,277.65,165.98,277.65z"/>
				<path class="st7" d="M207.87,319.68l6.43,4.17l0.88-1.05l-5.21-4.86c2.96-2.34,9.82-0.39,9.82-0.39
					c2.25-1.45,6.63-6.16,7.08-8.68c-1.44-1.79-6.23,1.9-6.23,1.9c0.18,0.8-1.34,3.57-2.54,4.04c-5.23,1.13-10.45-0.36-14.71-2.52
					C203.39,312.28,199.84,317.67,207.87,319.68z"/>
			</g>
			<g>
				<path class="st4" d="M165.88,278.92c-1.17,0.32-2.04,1.3-2.21,2.5c-0.46,3.25-2.82,9.83,0.38,16.71
					c7.85,16.91,12.49,28.05,13.32,32.42c-2.05,3.84,6.13,14.34,6.25,15.02l5.89-1.84c0,0-3.38-5.03-4.59-6.99
					c-2.9-4.69-3.37-10.44-3.84-14.89c-2.01-19.03,1.45-31.04-12.32-42.21C167.93,278.97,166.9,278.64,165.88,278.92z"/>
				<path class="st7" d="M174.43,338.59l0.58,7.64l1.37,0.06l0.7-7.1c3.65,0.94,6.26,7.58,6.26,7.58c2.52,0.91,8.92,1.54,11.2,0.36
					c0.55-2.23-5.29-3.81-5.29-3.81c-0.53,0.62-3.65,1.1-4.75,0.43c-4.07-3.48-6.29-8.53-7.15-13.22
					C177.36,330.54,171.15,330.98,174.43,338.59z"/>
			</g>
			<g>
				<g>
					<g>
						<path class="st4" d="M138.28,219.19l-7.06-1.06l0.56,6.55c0,0,1.35,2.97,2.92,3.17l5.77-1.56L138.28,219.19z"/>
					</g>
				</g>
			</g>
			<g>
				<path class="st4" d="M124.69,209.72c1.82,7.61,8.14,12.62,14.12,11.19c5.98-1.43,9.34-8.76,7.52-16.37
					c-1.82-7.61-8.14-12.62-14.12-11.19C126.24,194.78,122.87,202.11,124.69,209.72z"/>
				<path d="M143.53,206.53c0.26,0.53,0.9,0.74,1.43,0.48c0.53-0.26,0.74-0.9,0.48-1.43c-0.26-0.53-0.9-0.74-1.43-0.48
					C143.48,205.36,143.27,206,143.53,206.53z"/>
				<path d="M135.14,208.6c0.28,0.57,0.98,0.8,1.55,0.52c0.57-0.28,0.8-0.98,0.52-1.55c-0.28-0.57-0.98-0.8-1.55-0.52
					C135.08,207.34,134.85,208.03,135.14,208.6z"/>
				<g>
					<path class="st6" d="M133.86,207.65c0.08-0.04,0.15-0.1,0.19-0.19c0.58-1.25,2.15-1.49,2.16-1.5c0.22-0.03,0.37-0.24,0.34-0.46
						c-0.03-0.22-0.23-0.37-0.45-0.34c-0.08,0.01-2.01,0.3-2.78,1.95c-0.09,0.2-0.01,0.44,0.2,0.53
						C133.62,207.7,133.75,207.7,133.86,207.65z"/>
				</g>
				<g>
					<path class="st6" d="M145.86,204.98c0.04-0.02,0.07-0.05,0.11-0.08c0.16-0.16,0.15-0.41,0-0.57c-1.23-1.21-2.74-0.71-2.8-0.69
						c-0.21,0.07-0.32,0.3-0.25,0.51c0.07,0.21,0.3,0.32,0.51,0.25c0.05-0.02,1.11-0.35,1.98,0.5
						C145.52,205.03,145.71,205.06,145.86,204.98z"/>
				</g>
				<path class="st5" d="M142.84,208.86c0.59,0.6,1.1,1.22,1.66,1.58c0.19,0.12,0.25,0.37,0.14,0.56c-0.45,0.8-1.77,1.46-2.58,1.81
					c-0.12,0.05-0.22-0.1-0.12-0.19c0.82-0.72,1.17-1.24,1.32-1.53c0.07-0.14,0.07-0.31,0-0.46c-0.17-0.33-0.5-1.01-0.73-1.57
					C142.45,208.87,142.7,208.71,142.84,208.86z"/>
				<path class="st4" d="M127.57,209.76c1.45,1.13,1.88,3.01,0.96,4.2c-0.92,1.19-2.85,1.24-4.3,0.11c-1.45-1.13-1.88-3.01-0.96-4.2
					C124.19,208.68,126.11,208.63,127.57,209.76z"/>
				<g>
					<path class="st5" d="M126.74,213.62c0.05-0.03,0.1-0.07,0.14-0.12c0.56-0.74,0.61-1.58,0.14-2.23
						c-0.48-0.67-1.37-0.98-2.12-0.73c-0.21,0.07-0.33,0.3-0.26,0.51c0.07,0.21,0.3,0.33,0.51,0.26c0.41-0.14,0.95,0.06,1.22,0.43
						c0.26,0.36,0.22,0.82-0.13,1.28c-0.13,0.18-0.1,0.43,0.08,0.56C126.44,213.67,126.61,213.68,126.74,213.62z"/>
				</g>
				<path class="st1" d="M136.24,214.92c-0.17-0.23,0.01-0.54,0.29-0.51c0.71,0.09,1.89,0.2,3.02,0.2c1.13,0,2.31-0.12,3.02-0.2
					c0.28-0.03,0.46,0.28,0.29,0.51c-0.52,0.7-1.59,1.76-3.31,1.76C137.82,216.68,136.75,215.62,136.24,214.92z"/>
			</g>
			<path class="st6" d="M124.54,209.04c7.13-0.96,17.11-8.22,17.93-11.95c-1.38-4.48-8.73-6.73-12.88-4.66
				C125.44,194.51,121.52,203.41,124.54,209.04z"/>
			<path class="st1" d="M191.27,262.98L191.27,262.98c-0.95-0.31-1.47-1.33-1.16-2.28l11.01-33.73c0.31-0.95,1.33-1.47,2.28-1.16v0
				c0.95,0.31,1.47,1.33,1.16,2.28l-11.01,33.73C193.24,262.77,192.22,263.29,191.27,262.98z"/>
			<path class="st4" d="M197.12,250.89l2.24-6.87c0,0,1.94,3.95,0,7.71c-1.94,3.75-3.79,3.92-3.79,3.92L197.12,250.89z"/>
			<path class="st4" d="M193.91,249.05c-0.57-1.33-1.9-4.67-0.57-4.66c1.34,0.02,1.55,1.64,1.55,1.64L193.91,249.05z"/>
			<g>
				<g>
					<g>
						<g>
							<path class="st4" d="M83.62,228.97c3.03-3.05,1.04-6.19,1.04-6.19c1.66-0.36,10.43,12.92,14.21,21.36
								c6.59-6.64,18.21-15.62,21.35-16.14c0,0,4.24-1.14,5.76,3.98c1.36,4.57-3.94,7.81-3.94,7.81s-22.68,16.01-26.03,14.59
								C90.79,252.17,86.07,233.12,83.62,228.97z"/>
						</g>
					</g>
				</g>
				<g>
					<g>
						<g>
							<g>
								<path class="st4" d="M78.89,228.59c1.85,0.11,4.14-0.8,4.85,0.86l3.65-1.78l0.22-2.2c-3.14-5.03-10.79-6.45-11.54-6.52
									c-1.97-0.17-2.88-0.38-3.03-0.11c-0.15,0.26-0.64,2.01,2.22,2.36c3.58,0.43,1.2,3.29-6.06,0.57
									c-1.82-0.68-5.24,0.2-4.01,1.53C66.55,224.76,70.47,228.08,78.89,228.59z"/>
							</g>
						</g>
					</g>
				</g>
			</g>
		</g>
	</g>
	<g>
		<path class="st15" d="M276.72,126.21c0,1.67-0.29,3.28-0.82,4.81c-2.68,7.7-11.63,13.35-22.26,13.35
			c-10.63,0-19.58-5.65-22.26-13.35c-0.54-1.53-0.82-3.15-0.82-4.81H276.72z"/>
		<path class="st13" d="M276.72,126.21c0,1.67-0.29,3.28-0.82,4.81h-44.52c-0.54-1.53-0.82-3.15-0.82-4.81H276.72z"/>
		<path class="st16" d="M301.98,48.34c0-26.67-21.6-48.3-48.27-48.34c-26.3-0.04-47.93,21.16-48.4,47.45
			c-0.21,11.5,3.61,22.1,10.13,30.5c8.25,10.62,12.83,23.64,12.83,37.09v0.24h50.76v-0.24c0-13.47,4.61-26.48,12.86-37.13
			C298.21,69.73,301.98,59.48,301.98,48.34z"/>
		<g>
			<path class="st1" d="M260.95,109.81c-0.13,0-0.27-0.02-0.41-0.07c-0.64-0.22-0.99-0.93-0.76-1.57c0.06-0.16,5.76-16.59,9.9-33.31
				c7.34-29.64,3.56-34.46,1.6-35.16c-5.78-2.05-10.38,0.98-13.22,3.88c-0.83,0.85-1.64,1.81-2.39,2.86
				c1.23,2.13,2.35,4.49,3.28,6.98c2.56,6.84,3.24,13.23,1.82,17.09c-1.1,2.98-3.42,4.49-6.56,4.25c-2.96-0.22-5.12-1.93-6.25-4.95
				c-1.3-3.46-1.13-8.54,0.46-13.95c1.01-3.41,2.51-6.7,4.34-9.53c-1.7-2.7-3.68-5.02-5.82-6.58c-3.18-2.32-6.17-2.42-8.88-0.3
				c-5.6,4.38-5.81,17.54-0.62,38.06c4,15.82,9.88,30.45,9.94,30.6c0.26,0.63-0.05,1.35-0.68,1.61c-0.63,0.26-1.35-0.05-1.61-0.68
				c-0.06-0.15-5.99-14.91-10.03-30.89c-5.53-21.87-5.03-35.54,1.49-40.64c3.58-2.8,7.79-2.71,11.86,0.25
				c2.04,1.48,4.05,3.71,5.87,6.43c0.65-0.84,1.33-1.62,2.03-2.34c4.73-4.82,10.34-6.41,15.81-4.48c3.4,1.2,4.8,5.79,4.27,14
				c-0.39,6.06-1.84,14.17-4.3,24.09c-4.17,16.83-9.9,33.35-9.96,33.51C261.94,109.49,261.47,109.81,260.95,109.81z M254.17,48.75
				c-1.4,2.37-2.56,5.04-3.38,7.81c-1.42,4.83-1.62,9.46-0.52,12.38c0.79,2.11,2.14,3.21,4.13,3.36c2.05,0.15,3.33-0.69,4.05-2.64
				C260.09,65.2,258.1,56.11,254.17,48.75z"/>
		</g>
		<path class="st15" d="M274.55,127.79h-41.81c-5.14,0-9.3-4.16-9.3-9.3v0c0-5.14,4.16-9.3,9.3-9.3h41.81c5.14,0,9.3,4.16,9.3,9.3v0
			C283.85,123.63,279.68,127.79,274.55,127.79z"/>
		<path class="st16" d="M335.76,50.33h-15.8c-2.25,0-4.07-1.82-4.07-4.07l0,0c0-2.25,1.82-4.07,4.07-4.07h15.8
			c2.25,0,4.07,1.82,4.07,4.07l0,0C339.83,48.5,338.01,50.33,335.76,50.33z"/>
		<path class="st16" d="M187.33,50.33h-15.8c-2.25,0-4.07-1.82-4.07-4.07l0,0c0-2.25,1.82-4.07,4.07-4.07h15.8
			c2.25,0,4.07,1.82,4.07,4.07l0,0C191.4,48.5,189.58,50.33,187.33,50.33z"/>
		<path class="st16" d="M197.37,16.89l-12.58-9.57c-1.79-1.36-2.14-3.92-0.77-5.71l0,0c1.36-1.79,3.92-2.14,5.71-0.77l12.58,9.57
			c1.79,1.36,2.14,3.92,0.77,5.71l0,0C201.72,17.9,199.16,18.25,197.37,16.89z"/>
		<path class="st16" d="M309.11,16.89l12.58-9.57c1.79-1.36,2.14-3.92,0.77-5.71l0,0c-1.36-1.79-3.92-2.14-5.71-0.77l-12.58,9.57
			c-1.79,1.36-2.14,3.92-0.77,5.71l0,0C304.76,17.9,307.32,18.25,309.11,16.89z"/>
		<path class="st16" d="M197.37,80.67l-12.58,9.57c-1.79,1.36-2.14,3.92-0.77,5.71l0,0c1.36,1.79,3.92,2.14,5.71,0.77l12.58-9.57
			c1.79-1.36,2.14-3.92,0.77-5.71l0,0C201.72,79.65,199.16,79.31,197.37,80.67z"/>
		<path class="st16" d="M309.11,80.67l12.58,9.57c1.79,1.36,2.14,3.92,0.77,5.71l0,0c-1.36,1.79-3.92,2.14-5.71,0.77l-12.58-9.57
			c-1.79-1.36-2.14-3.92-0.77-5.71l0,0C304.76,79.65,307.32,79.31,309.11,80.67z"/>
	</g>
	<g>
		<path id="Vector_25_1_" class="st15" d="M264.12,247.6c0,0-3.63-6.86-5.09-14.13c-1.26-6.22-1.2-13.64-1.05-17.6
			c0.04-0.9,1.22-1.21,1.69-0.44c2.29,3.74,6.42,11.26,7.35,18.05c0.67,4.69,1.09,9.4,1.28,14.13L264.12,247.6z"/>
		<path id="Vector_26_1_" class="st15" d="M267.93,247.6c0,0,2.42-8.38,5.09-13.98c1.94-4.07,6.35-8.93,8.61-11.29
			c0.43-0.45,1.17-0.06,1.06,0.55c-0.58,3.1-1.92,9.21-4.12,13.39c-3.05,5.8-8.14,11.34-8.14,11.34H267.93z"/>
		<path id="Vector_27_1_" class="st13" d="M255.46,240.16c-0.35-0.68,0.3-1.43,1.03-1.19c1.83,0.62,3.53,1.6,4.99,2.89
			c2.71,2.46,3.22,5.27,3.22,5.27l-0.93,0.31C263.76,247.44,258.71,246.52,255.46,240.16z"/>
		<path id="Vector_28_1_" class="st13" d="M274.43,220.56c-0.06-0.87-1.18-1.18-1.68-0.48c-1.89,2.63-5.07,7.82-6.11,14.18
			c-1.3,7.94,0.21,13.34,0.21,13.34h1.07c0,0,3.94-7.48,5.48-12.54C274.86,230.28,274.67,223.94,274.43,220.56z"/>
		<path id="Vector_29_1_" class="st13" d="M270.43,247.6c0,0,2.27-7.56,10.03-10.44c0.45-0.17,0.89,0.29,0.7,0.73
			c-1.02,2.5-3.94,8.46-8.87,9.7L270.43,247.6z"/>
		<path id="Vector_23_1_" class="st10" d="M277.3,246.32h-17.97l2.31,18.41h13.36L277.3,246.32z"/>
	</g>
	<g>
		<g>
			<path class="st7" d="M257.98,260.71v2.64h0.72c0.35,0,0.63,0.28,0.63,0.63v0.11c0,0.35-0.28,0.63-0.63,0.63h-30.66
				c-0.4,0-0.74-0.33-0.74-0.74v-3.81c0-0.41,0.33-0.74,0.74-0.74h30.66c0.35,0,0.63,0.28,0.63,0.63l0,0c0,0.35-0.28,0.63-0.63,0.63
				H257.98z"/>
			<path class="st1" d="M258.07,263.36h-26.03c-0.73,0-1.32-0.59-1.32-1.32l0,0c0-0.73,0.59-1.32,1.32-1.32h26.03V263.36z"/>
		</g>
		<g>
			<path class="st15" d="M224.59,255.01v2.92h-0.72c-0.35,0-0.63,0.31-0.63,0.7v0.12c0,0.39,0.28,0.7,0.63,0.7h30.66
				c0.4,0,0.74-0.36,0.74-0.81v-4.21c0-0.45-0.33-0.81-0.74-0.81h-30.66c-0.35,0-0.63,0.31-0.63,0.7l0,0c0,0.39,0.28,0.7,0.63,0.7
				H224.59z"/>
			<path class="st1" d="M224.5,257.93h25.89c0.81,0,1.46-0.65,1.46-1.46l0,0c0-0.81-0.65-1.46-1.46-1.46H224.5V257.93z"/>
		</g>
		<path class="st7" d="M253.56,250.9h-25.46c-1.31,0-2.37-1.06-2.37-2.37l0,0c0-1.31,1.06-2.37,2.37-2.37h25.46
			c1.31,0,2.37,1.06,2.37,2.37l0,0C255.93,249.84,254.87,250.9,253.56,250.9z"/>
		<path class="st10" d="M256.55,253.61h-27.49c-0.75,0-1.35-0.61-1.35-1.35v0c0-0.75,0.61-1.35,1.35-1.35h27.49
			c0.75,0,1.35,0.61,1.35,1.35l0,0C257.91,253,257.3,253.61,256.55,253.61z"/>
	</g>
</g>
</svg>
