<svg xmlns="http://www.w3.org/2000/svg" viewBox="0 0 29.8 35.55"><defs><style>.cls-1{fill:#77b65d;}</style></defs><g id="Layer_2" data-name="Layer 2"><g id="Layer_1-2" data-name="Layer 1"><path id="Path_398" data-name="Path 398" class="cls-1" d="M20.2,28H8.4a3,3,0,0,1-3.1-2.8V14.68a3,3,0,0,1,3.1-2.8H20.2a3,3,0,0,1,3.1,2.8v10.5A2.87,2.87,0,0,1,20.2,28Z"/><path id="Path_3978" data-name="Path 3978" d="M21.54,5.16a10,10,0,0,0-17,7.1v15.5a1.11,1.11,0,0,0,1.1,1.1h2.2a1.1,1.1,0,0,0,0-2.2H6.74V12.26a7.8,7.8,0,0,1,15.6,0h0v14.4h-1.1a1.1,1.1,0,0,0,0,2.2h2.2a1.11,1.11,0,0,0,1.1-1.1V12.26A10,10,0,0,0,21.54,5.16Z"/><path id="Path_3979" data-name="Path 3979" d="M16.7,26.65H12.3a1.1,1.1,0,1,0,0,2.2h4.4a1.11,1.11,0,0,0,1.1-1.1A1,1,0,0,0,16.7,26.65Z"/><path id="Path_3980" data-name="Path 3980" d="M12.26,26.65a1.11,1.11,0,0,0-1.1,1.1h0v4.4a1.1,1.1,0,1,1-2.2,0v-4.4a1.1,1.1,0,0,0-2.2,0v4.4a3.35,3.35,0,1,0,6.7.1v-4.5A1.13,1.13,0,0,0,12.26,26.65Z"/><path id="Path_3981" data-name="Path 3981" d="M21.13,26.65a1.11,1.11,0,0,0-1.1,1.1h0v4.4a1.1,1.1,0,0,1-2.2,0h0v-4.4a1.1,1.1,0,1,0-2.2,0v4.4a3.35,3.35,0,1,0,6.7.1v-4.5A1.13,1.13,0,0,0,21.13,26.65Z"/><path id="Path_3982" data-name="Path 3982" d="M1.21,11.13a1.11,1.11,0,0,0-1.1,1.1v11.1a1.11,1.11,0,0,0,1.1,1.1,1.11,1.11,0,0,0,1.1-1.1V12.23A1.11,1.11,0,0,0,1.21,11.13Z"/><path id="Path_3983" data-name="Path 3983" d="M27.82,11.13a1.11,1.11,0,0,0-1.1,1.1h0v11.1a1.1,1.1,0,0,0,2.2,0V12.23A1.11,1.11,0,0,0,27.82,11.13Z"/><path id="Path_3984" data-name="Path 3984" d="M23.44,11.13H5.64a1.1,1.1,0,0,0,0,2.2h17.7a1.11,1.11,0,0,0,1.1-1.1A1,1,0,0,0,23.44,11.13Z"/><path id="Path_3985" data-name="Path 3985" d="M9.54,5l-3-4.5A1.1,1.1,0,0,0,5,.14a1.13,1.13,0,0,0-.4,1.5.1.1,0,0,0,.1.1l2.9,4.5A1.12,1.12,0,1,0,9.54,5Z"/><path id="Path_3986" data-name="Path 3986" d="M23.94.24a1,1,0,0,0-1.5.3l-2.7,4.7a1,1,0,0,0,.3,1.5,1.42,1.42,0,0,0,.6.2,1.23,1.23,0,0,0,1-.5l2.7-4.7A1.1,1.1,0,0,0,23.94.24Z"/><path id="Path_3987" data-name="Path 3987" d="M16.76,6.69h0a1.11,1.11,0,0,0-1.1,1.1h0a1.11,1.11,0,1,0,1.1-1.1Z"/><path id="Path_3988" data-name="Path 3988" d="M12.33,6.69h0a1.11,1.11,0,0,0-1.1,1.1h0a1.1,1.1,0,1,0,1.1-1.1Z"/><circle id="Ellipse_552" data-name="Ellipse 552" class="cls-1" cx="27.4" cy="31.03" r="2.4"/><circle id="Ellipse_553" data-name="Ellipse 553" class="cls-1" cx="1.4" cy="6.03" r="1.4"/></g></g></svg>