<?xml version="1.0" encoding="utf-8"?>
<!-- Generator: Adobe Illustrator 25.2.1, SVG Export Plug-In . SVG Version: 6.00 Build 0)  -->
<svg version="1.1" id="angular-service" xmlns="http://www.w3.org/2000/svg" xmlns:xlink="http://www.w3.org/1999/xlink" x="0px"
	 y="0px" viewBox="0 0 384.9 406.1" style="enable-background:new 0 0 384.9 406.1;" xml:space="preserve">
<style type="text/css">
	.st0{fill:#FFFFFF;stroke:#404040;}
	.st1{fill:#404040;}
</style>
<path id="Path_1098" class="st0" d="M208.2,405.6c-1.7,0-3.3-0.4-4.7-1.2L62.1,325.9c-2.8-1.6-4.7-4.3-5.1-7.5L31.7,97.3
	c-0.6-4.5,2.1-8.8,6.3-10.3l166.6-59.6c2.2-0.8,4.5-0.8,6.7,0L378,87c4.3,1.4,7,5.8,6.3,10.3L359,318.4c-0.4,3.2-2.3,5.9-5.1,7.5
	l-141.3,78.6C211.2,405.2,209.7,405.6,208.2,405.6z M81.5,314l121.2,67.1c3.6,2,7.9,2,11.4,0L335.3,314c3.3-1.9,5.5-5.3,5.9-9.1
	l22.5-193.1c0.8-5.5-2.8-10.7-7.9-12.6L212.9,47.9c-2.6-0.8-5.3-0.8-7.9,0L61.7,99.2c-5.1,2-8.3,7.1-7.9,12.6l21.7,193.1
	C75.5,308.5,77.9,312,81.5,314L81.5,314z"/>
<path id="Path_3402" class="st1" d="M198.2,395.6c-1.7,0-3.3-0.4-4.7-1.2L52.1,315.9c-2.8-1.6-4.7-4.3-5.1-7.5L21.7,87.3
	c-0.6-4.5,2.1-8.8,6.3-10.3l166.6-59.6c2.2-0.8,4.5-0.8,6.7,0L368,77c4.3,1.4,7,5.8,6.3,10.3L349,308.4c-0.4,3.2-2.3,5.9-5.1,7.5
	l-141.3,78.6C201.2,395.2,199.7,395.6,198.2,395.6z M71.5,304l121.2,67.1c3.6,2,7.9,2,11.4,0L325.3,304c3.3-1.9,5.5-5.3,5.9-9.1
	l22.5-193.1c0.8-5.5-2.8-10.7-7.9-12.6L202.9,37.9c-2.6-0.8-5.3-0.8-7.9,0L51.7,89.2c-5.1,2-8.3,7.1-7.9,12.6l21.7,193.1
	C65.5,298.5,67.9,302,71.5,304L71.5,304z"/>
<circle id="Ellipse_95" class="st1" cx="353" cy="376.7" r="26.1"/>
<circle id="Ellipse_96" class="st1" cx="26.1" cy="26.1" r="26.1"/>
<circle id="Ellipse_97" class="st1" cx="86.5" cy="26.1" r="10.7"/>
<g id="Group_1245" transform="translate(108.279 85.528)">
	<path id="Path_1099" class="st1" d="M179.9,196.4L99.4,7.3c-3.9-9.9-17.8-9.5-21.7,0l-77,189.1c-2,5.1,0.5,10.9,5.5,13
		c1.1,0.4,2.3,0.7,3.6,0.8c4,0,7.7-2.5,9.1-6.3l30-73.4h81.7l31.6,73.8c1.9,4.9,7.5,7.3,12.4,5.4c0.2-0.1,0.4-0.2,0.6-0.3
		c4.9-2.2,7-8,4.8-12.9C180,196.5,180,196.4,179.9,196.4z M56.8,110.7l32-78.6l33.6,78.6H56.8z"/>
</g>
</svg>
