<svg id="Layer_1" data-name="Layer 1" xmlns="http://www.w3.org/2000/svg" viewBox="0 0 30.5 32.5"><defs><style>.cls-1{fill:#ffb4bc;}.cls-2{stroke:#000;stroke-width:0.5px;}.cls-3{fill:#f97f8c;}</style></defs><g id="angular"><g id="Group_269" data-name="Group 269"><path id="Path_405" data-name="Path 405" class="cls-1" d="M125.27,623.44l-1.6,13.7a.75.75,0,0,1-.5.7l-8.7,4.9a.75.75,0,0,1-.9,0l-8.7-4.8a1.16,1.16,0,0,1-.5-.7l-1.6-13.8a1,1,0,0,1,.6-1l10.3-3.7h.7l10.3,3.7A1,1,0,0,1,125.27,623.44Z" transform="translate(-99.73 -613.03)"/></g><g id="Group_270" data-name="Group 270"><path id="Path_406" data-name="Path 406" class="cls-2" d="M115.67,644.88a.6.6,0,0,1-.4-.1l-11.3-6.3c-.3-.1-.4-.4-.5-.6l-2-17.8a1.05,1.05,0,0,1,.5-.9l13.4-4.8h.6l13.4,4.8a.75.75,0,0,1,.5.8l-2,17.8a.68.68,0,0,1-.4.6l-11.4,6.3A.4.4,0,0,1,115.67,644.88Zm-10.2-7.3,9.8,5.4a.75.75,0,0,0,.9,0l9.8-5.4a1.16,1.16,0,0,0,.5-.7l1.8-15.6a1,1,0,0,0-.6-1l-11.6-4.2a.64.64,0,0,0-.6,0l-11.6,4.1a1,1,0,0,0-.6,1.1l1.8,15.6A.87.87,0,0,0,105.47,637.58Z" transform="translate(-99.73 -613.03)"/></g><circle id="Ellipse_139" data-name="Ellipse 139" class="cls-3" cx="28.4" cy="30.4" r="2.1"/><circle id="Ellipse_140" data-name="Ellipse 140" class="cls-3" cx="2.1" cy="2.1" r="2.1"/><circle id="Ellipse_141" data-name="Ellipse 141" class="cls-3" cx="7" cy="2.1" r="0.9"/><g id="Group_271" data-name="Group 271"><path id="Path_407" data-name="Path 407" class="cls-2" d="M123,635.72l-6.5-15.2a.88.88,0,0,0-1.2-.5.82.82,0,0,0-.5.5l-6.2,15.2a.7.7,0,0,0,.4,1c.1,0,.2.1.3.1a.75.75,0,0,0,.7-.5l2.4-5.9H119l2.5,6a.73.73,0,0,0,1,.4h.1a.84.84,0,0,0,.4-1.1Zm-9.9-6.9,2.6-6.3,2.7,6.3Z" transform="translate(-99.73 -613.03)"/></g></g></svg>