<?xml version="1.0" encoding="utf-8"?>
<!-- Generator: Adobe Illustrator 26.0.0, SVG Export Plug-In . SVG Version: 6.00 Build 0)  -->
<svg version="1.1" id="Layer_1" xmlns="http://www.w3.org/2000/svg" xmlns:xlink="http://www.w3.org/1999/xlink" x="0px" y="0px"
	 viewBox="0 0 2500 1591" style="enable-background:new 0 0 2500 1591;" xml:space="preserve">
<style type="text/css">
	.st0{fill:#404040;}
</style>
<path class="st0" d="M87.4,129.5c0,27.5-16.8,47.9-45.5,47.9C18,177.4,0,157.1,0,129.5c0-26.3,19.1-47.9,44.3-47.9
	C70.6,81.7,87.4,103.2,87.4,129.5z M21.1,1568V467.7h45.1V1568H21.1z M1566.4,784c0,554.8-308,806.9-645.1,806.9
	c-344.4,0-623.2-272.8-623.2-784c0-524.9,288.6-806.9,647.5-806.9C1297.2,0,1566.4,277.4,1566.4,784z M343.8,795.5
	c0,420.6,203.9,747.4,579.6,747.4c378.4,0,595.4-336.8,595.4-752.2C1518.9,405.5,1345,54,948.2,54S343.8,385,343.8,795.5
	L343.8,795.5z M1731.9,1448.8c75.7,50.4,206.3,99.1,318.6,99.1c213.2,0,402.8-149.1,402.8-368.7c0-203.7-126.3-310-340.7-401.3
	c-191.9-81.7-364.5-170.4-364.5-388.2c0-226.9,178.8-387.4,421.8-387.4c130.7,0,229.2,36.7,275.1,68.8l-18.2,39.6
	c-39-27.5-144.3-62.5-258.9-62.5c-256.8,0-368.7,194-368.7,336.9c0,197.3,152.9,263.3,350.1,357.3
	c229.2,112.3,350.7,211.3,350.7,426.8c0,231.5-165,419.5-458.5,419.5c-121.5,0-261.3-41.2-330.1-94L1731.9,1448.8L1731.9,1448.8z"/>
</svg>
