<svg xmlns="http://www.w3.org/2000/svg" viewBox="0 0 31.77 27.4"><defs><style>.cls-1{fill:#9fbcef;}.cls-2{fill:none;stroke:#000;stroke-linecap:round;stroke-linejoin:round;stroke-width:2px;}</style></defs><g id="Layer_2" data-name="Layer 2"><g id="Layer_1-2" data-name="Layer 1"><path id="Path_414" data-name="Path 414" class="cls-1" d="M14.1,10.1c2.3-.1,3.3,1,4,2.9s1.1,3.8,1.6,5.7l.3.6c.6-2,1.1-3.7,1.7-5.5.4-1.3.8-2.6,2-3.3a5.68,5.68,0,0,1,2.2-.7c1.6-.1,3.1.1,4.7.1v.3c-.6.9-1.2,1.9-1.7,2.8A32.19,32.19,0,0,1,24,20.3a3.65,3.65,0,0,1-2.6,1.3H15.6A2.58,2.58,0,0,1,13,19.9c-.5-1.2-.9-2.4-1.3-3.6s-.7-2.5-1-3.9a8.69,8.69,0,0,0-2.5,3.5A20.5,20.5,0,0,1,6.6,20a3.5,3.5,0,0,1-3.2,1.8H0c.6-1.7,1.1-3.2,1.7-4.7a17,17,0,0,1,3.9-5.7A4.71,4.71,0,0,1,8.9,10Z"/><path id="_Path_3" data-name=" Path 3" class="cls-2" d="M1.07,19.19h2.6c2,0,3,0,5.2-6.5l2.6-2.6c2.1,7.8,3,9,4.5,9h5.8c1.6,0,3.2-1.1,9-11.6h-5.2c-2.9,0-4,5-5.2,9-2-7.3-2.4-9-5.2-9H9.47C6.87,7.59,4,9.49,1.07,19.19Z"/><circle id="Ellipse_154" data-name="Ellipse 154" class="cls-1" cx="4.5" cy="2.2" r="2.2"/><circle id="Ellipse_155" data-name="Ellipse 155" class="cls-1" cx="9.7" cy="4.3" r="1.2"/><circle id="Ellipse_156" data-name="Ellipse 156" class="cls-1" cx="11.7" cy="23.9" r="2.6"/><circle id="Ellipse_157" data-name="Ellipse 157" class="cls-1" cx="19" cy="25.5" r="1.2"/><circle id="Ellipse_158" data-name="Ellipse 158" class="cls-1" cx="23.2" cy="26.5" r="0.9"/></g></g></svg>