<svg xmlns="http://www.w3.org/2000/svg" viewBox="0 0 31.6 31.6"><defs><style>.cls-1{fill:#a0e4d5;}</style></defs><g id="Layer_2" data-name="Layer 2"><g id="Layer_1-2" data-name="Layer 1"><path id="Path_311" data-name="Path 311" class="cls-1" d="M24.5,24.3a1.61,1.61,0,0,1-.6,1.3,2.11,2.11,0,0,1-1.3.5H6.1a1.9,1.9,0,0,1-1.9-1.9V11.7H24.6v8A23.75,23.75,0,0,1,24.5,24.3Z"/><path id="Path_312" data-name="Path 312" d="M26.3,3.3H5.3A3.23,3.23,0,0,0,2,6.4V24a4.18,4.18,0,0,0,4.3,4.2H25.2A4.25,4.25,0,0,0,29.5,24a1.1,1.1,0,1,0-2.2,0,2.11,2.11,0,0,1-2.1,2.1H6.3A2.05,2.05,0,0,1,4.2,24V9.7H27.4v9.1a1.1,1.1,0,1,0,2.2,0V6.4A3.36,3.36,0,0,0,26.3,3.3ZM21.9,5.4a1,1,0,0,1,1,1.1c-.1.6-.5,1.1-1.1,1a1,1,0,0,1-1-1.1A1.18,1.18,0,0,1,21.9,5.4Zm5.4,1a1.1,1.1,0,1,1-1.1-1.1h0a1.27,1.27,0,0,1,1.1,1.1ZM4.2,6.4A1.11,1.11,0,0,1,5.3,5.3H18.9a3.32,3.32,0,0,0,0,2.2H4.2ZM9.3,18a6.45,6.45,0,1,0,6.5-6.4h-.1A6.51,6.51,0,0,0,9.3,18Zm5.6,1h1.7a6.81,6.81,0,0,1-.8,3.1A6.58,6.58,0,0,1,14.9,19Zm0-2.1a6.81,6.81,0,0,1,.8-3.1,6.5,6.5,0,0,1,.8,3.1Zm-1.8-2.3a18.46,18.46,0,0,0-.4,2.3H11.5A5.33,5.33,0,0,1,13.1,14.6ZM11.6,19h1.2a9.26,9.26,0,0,0,.4,2.3A3.51,3.51,0,0,1,11.6,19Zm6.8,2.3a18.46,18.46,0,0,0,.4-2.3H20a4.37,4.37,0,0,1-1.6,2.3Zm1.5-4.4H18.7a9.26,9.26,0,0,0-.4-2.3,4.06,4.06,0,0,1,1.6,2.3Z"/><circle id="Ellipse_126" data-name="Ellipse 126" class="cls-1" cx="1.4" cy="1.4" r="1.4"/><circle id="Ellipse_127" data-name="Ellipse 127" class="cls-1" cx="28.3" cy="29.6" r="1.4"/><circle id="Ellipse_128" data-name="Ellipse 128" class="cls-1" cx="31" cy="31" r="0.6"/></g></g></svg>