<svg id="Layer_1" data-name="Layer 1" xmlns="http://www.w3.org/2000/svg" viewBox="0 0 926.93 427.7"><path class="cls-1" d="M4166.87,1257.33h-23.23a7.28,7.28,0,0,1,4-1.09c5.45,0,11.62.36,17.07.73A4.61,4.61,0,0,1,4166.87,1257.33Zm155-7.26a8.17,8.17,0,0,0-11.26,2.18,8.31,8.31,0,0,0-1.45,5.08h22.87C4328.81,1254.79,4325.54,1252.61,4321.91,1250.07Zm-303.53-6.9c4-2.18,5.81-6.9,3.63-10.89a7.94,7.94,0,0,0-10.9-3.63,154.74,154.74,0,0,0-15.24,8,8.1,8.1,0,0,0-2.91,10.9,8,8,0,0,0,10.89,3.26A140.81,140.81,0,0,1,4018.38,1243.17Zm61.36-22.15a8.06,8.06,0,0,0-4-15.61,162.05,162.05,0,0,0-16.7,4.36c-4,1.09-6.54,5.81-5.45,10.16a8.35,8.35,0,0,0,10.17,5.45C4069.21,1223.93,4074.29,1222.47,4079.74,1221Zm64.26-8a8.17,8.17,0,1,0-.36-16.33c-5.45.36-11.26.36-17.07.72a8.68,8.68,0,0,0-7.62,8.72,8.12,8.12,0,0,0,8.71,7.62C4133.11,1213.4,4138.55,1213.4,4144,1213Zm64.63,6.54a8.79,8.79,0,0,0,9.8-6.54,8.21,8.21,0,0,0-6.53-9.44,135,135,0,0,0-16.71-3.26,8.26,8.26,0,0,0-9.44,6.9,8.48,8.48,0,0,0,6.9,9.44C4198.1,1217.39,4203.54,1218.48,4208.63,1219.57Zm61.72,20.33a8.24,8.24,0,0,0,10.89-4.35,8,8,0,0,0-4-10.53c-5.45-2.55-10.53-4.72-16-6.9a8.33,8.33,0,0,0-10.53,4.72c-1.45,4.35.37,9.07,4.72,10.53C4260.55,1235.55,4265.63,1237.36,4270.35,1239.9ZM4432.64,1257a8.48,8.48,0,0,0-11.61-.73l-1.09,1.09h12.7Zm-524.28-22.15c3.63-2.91,3.63-8,.73-11.62a8,8,0,0,0-11.26-.73c-4.35,4-8.71,7.63-12.7,11.62a8.11,8.11,0,0,0,0,11.62,7.67,7.67,0,0,0,11.25,0Zm52.65-38.49a8.06,8.06,0,0,0-8.35-13.79c-5.08,2.9-9.8,5.81-14.52,9.07a8.11,8.11,0,0,0,9.07,13.44C3951.93,1202.14,3956.29,1199.24,3961,1196.33Zm58.46-28.32c4.35-1.45,6.17-6.17,4.72-10.53a8.37,8.37,0,0,0-10.53-4.72c-5.45,2.18-10.53,4.36-16,6.54a8,8,0,0,0-4,10.53,7.85,7.85,0,0,0,10.53,4.36C4009.3,1172,4014.38,1169.83,4019.47,1168Zm62.44-17.42a7.71,7.71,0,0,0,6.54-9.44,8,8,0,0,0-9.44-6.54l-16.34,3.27a8,8,0,0,0-6.17,9.8,7.7,7.7,0,0,0,9.44,6.17C4071.38,1152.76,4076.83,1151.67,4081.91,1150.59Zm65-5.81c4.36,0,8-4,8-8.35a8.06,8.06,0,0,0-8-8c-5.8,0-11.61,0-17.06.36a8.45,8.45,0,0,0-8,8.71,8.68,8.68,0,0,0,8.72,7.63C4136,1144.78,4141.46,1144.78,4146.9,1144.78Zm64.63,5.44a8.12,8.12,0,0,0,2.91-16c-5.45-1.09-11.26-1.82-16.7-2.54a7.73,7.73,0,0,0-9.08,6.89,7.91,7.91,0,0,0,6.9,9.08C4201,1148.41,4206.45,1149.13,4211.53,1150.22Zm62.81,17.07a8.36,8.36,0,0,0,10.53-4.72,8.22,8.22,0,0,0-5.08-10.53,117.41,117.41,0,0,0-16-5.45,8,8,0,1,0-4.72,15.25Zm41,9.07a8.23,8.23,0,0,0,3.27,10.9c5.08,2.54,9.8,5.44,14.52,8a7.58,7.58,0,0,0,10.89-2.9c2.55-3.63,1.09-8.71-2.9-10.89-4.72-2.91-9.8-5.81-14.89-8.35A8,8,0,0,0,4315.37,1176.36Zm70.44,57a8,8,0,0,0,11.25-.73,8.47,8.47,0,0,0-.72-11.62l-13.07-10.89a8.28,8.28,0,0,0-10.17,13.07C4377.46,1226.47,4381.45,1229.74,4385.81,1233.37ZM4522,1255.51a8.15,8.15,0,0,0-11.25-2.17,11.22,11.22,0,0,0-3.27,4h15.61Zm-630.66-98.75a8.18,8.18,0,0,0,1.45-11.62,7.71,7.71,0,0,0-11.25-1.45c-4.72,3.26-9.08,6.53-13.44,10.16a8.14,8.14,0,1,0,10.17,12.71Zm55.19-34.49a8.23,8.23,0,0,0,3.26-10.9c-2.17-4-6.89-5.81-10.89-3.63-5.08,2.54-10.16,5.45-14.88,8.35a8,8,0,1,0,8,13.8C3936.68,1127.35,3941.4,1124.81,3946.49,1122.27Zm59.54-25.78a8.23,8.23,0,0,0,5.08-10.53,8,8,0,0,0-10.52-4.72c-5.09,1.81-10.53,3.63-16,5.81a8.05,8.05,0,1,0,6.17,14.88Zm62.81-16.7a8.12,8.12,0,0,0-2.9-16c-5.45,1.09-10.89,2.18-16.34,3.63a7.47,7.47,0,0,0-6.17,9.44,7.7,7.7,0,0,0,9.44,6.17C4058.31,1082,4063.76,1080.88,4068.84,1079.79Zm64.63-6.9a8.14,8.14,0,0,0,8-8.35,7.85,7.85,0,0,0-8.35-7.63c-5.81,0-11.26.37-17.07.73a7.89,7.89,0,0,0-7.26,8.71,8.42,8.42,0,0,0,8.72,7.63C4122.58,1073.61,4128,1073.25,4133.47,1072.89Zm65,2.9a8.22,8.22,0,0,0,9.08-7.26,8.12,8.12,0,0,0-6.9-9.08c-5.81-.72-11.26-1.09-17.06-1.45a8.1,8.1,0,0,0-8.72,7.26,8,8,0,0,0,7.63,8.72C4187.93,1074.7,4193.38,1075.07,4198.46,1075.79Zm42.12-1.45a8.23,8.23,0,0,0,6.17,9.8c5.08,1.09,10.53,2.54,15.61,4a8.4,8.4,0,0,0,10.17-5.81,8.56,8.56,0,0,0-5.81-10.17c-5.45-1.45-10.89-2.54-16.34-4A8.23,8.23,0,0,0,4240.58,1074.34Zm83.14,35.58c4,1.82,9.08-.36,10.89-4.36s-.36-8.71-4.35-10.53a119.55,119.55,0,0,0-15.61-6.53c-4-1.82-8.72.36-10.53,4.36-1.46,4.35.36,9.07,4.72,10.53C4313.92,1105.56,4318.64,1107.74,4323.72,1109.92Zm57.37,30.5a7.94,7.94,0,0,0,11.25-2.54c2.54-3.63,1.09-8.72-2.54-11.26-4.72-2.9-9.44-5.81-14.52-8.71a8.19,8.19,0,0,0-10.89,2.9,7.92,7.92,0,0,0,2.9,11.26C4372,1135,4376.37,1137.51,4381.09,1140.42Zm51.92,39.21a8.14,8.14,0,0,0,11.62-1.09,8,8,0,0,0-.73-11.25c-4.36-4-8.71-7.26-13.07-10.9-3.27-2.9-8.35-2.17-11.26,1.09a8.14,8.14,0,0,0,1.09,11.62C4425,1172.37,4429,1176,4433,1179.63Zm45.75,46.11a8.48,8.48,0,0,0,11.61.73c3.27-2.91,4-8,1.09-11.26-3.63-4.35-7.62-8.71-11.25-12.7-3.27-3.27-8.35-3.64-11.62-.37a7.69,7.69,0,0,0-.36,11.26C4471.86,1217.39,4475.49,1221.75,4478.76,1225.74Zm-618.68-119.09c4.35-3.26,8.71-6.17,13.43-9.44,3.63-2.18,4.72-7.26,2.18-11.25a8.54,8.54,0,0,0-11.62-2.18c-4.36,3.27-8.71,6.17-13.07,9.44V1107C3853.9,1108.83,3857.17,1108.47,3860.08,1106.65Zm69.71-41.75a8.37,8.37,0,0,0,3.63-10.89c-2.18-4-6.9-5.81-10.9-3.63a151.55,151.55,0,0,0-15.25,7.62,7.9,7.9,0,0,0-3.26,10.89,8.31,8.31,0,0,0,11.25,3.27C3920,1069.62,3924.7,1067.08,3929.79,1064.9Zm59.9-25.05a8,8,0,0,0,5.09-10.17,7.85,7.85,0,0,0-10.17-5.08c-5.45,1.81-10.53,3.63-16,5.44a8.34,8.34,0,0,0-4.72,10.53,7.79,7.79,0,0,0,10.53,4.72Zm62.81-16.7a8,8,0,0,0,6.54-9.44,8.2,8.2,0,0,0-9.44-6.54c-5.81,1.09-11.25,2.18-16.7,3.63a8,8,0,0,0-5.81,9.8c.73,4.36,5.08,6.9,9.44,6.18h.36C4042,1025.32,4047.42,1024.24,4052.5,1023.15Zm64.63-8.35a7.85,7.85,0,0,0,7.63-8.36,7.94,7.94,0,0,0-8.72-7.62l-16.7,1.09a8.45,8.45,0,0,0-7.26,9.08,8.1,8.1,0,0,0,8.71,7.26C4106.24,1015.88,4111.69,1015.16,4117.13,1014.8Zm49-.37c5.08,0,10.53.37,16,.73a8,8,0,0,0,8.72-7.63,8.39,8.39,0,0,0-7.63-8.71c-5.44-.36-11.25-.73-16.7-.73a8.13,8.13,0,0,0-8.35,8c-.36,4.36,3.27,8,8,8.35Zm80.6,9.44a7.94,7.94,0,0,0,9.44-6.53c1.09-4.36-1.82-8.35-6.17-9.44-5.81-1.09-11.26-2.18-16.7-2.91a8.21,8.21,0,0,0-9.44,6.54,8.47,8.47,0,0,0,6.89,9.44C4236.22,1021.69,4241.3,1022.78,4246.75,1023.87Zm62.81,17.07a8,8,0,0,0,5.09-15.25c-5.09-1.82-10.53-3.63-16-5.09a8.14,8.14,0,0,0-10.17,5.09c-1.09,4.35,1.09,9.07,5.45,10.16C4299,1037.67,4304.48,1039.48,4309.56,1040.94Zm59.91,25.41c4,2.18,8.71.37,10.89-3.63,1.82-4,.37-9.08-3.63-10.89-5.08-2.54-10.16-5.08-15.25-7.26a8.39,8.39,0,0,0-10.89,4,8.51,8.51,0,0,0,4,10.89C4359.67,1061.63,4364.39,1063.81,4369.47,1066.35Zm55.91,33a8.11,8.11,0,1,0,9.08-13.43c-4.72-3.27-9.08-6.17-13.8-9.08-4-2.54-9.07-1.45-11.25,2.18-2.54,4-1.45,9.08,2.54,11.26C4416.31,1093.22,4421,1096.49,4425.38,1099.39Zm51.2,39.94a8.1,8.1,0,0,0,11.62-.36,8.44,8.44,0,0,0-.73-11.62c-4.36-3.63-8.35-7.26-12.71-10.89-3.27-2.91-8.71-2.55-11.25,1.09a8,8,0,0,0,.72,11.25C4468.59,1132.43,4472.58,1136.06,4476.58,1139.33Zm45.74,46.47a7.74,7.74,0,0,0,11.26,1.09,8.17,8.17,0,0,0,1.09-11.62c-3.63-4.35-7.63-8.35-11.26-12.34-2.9-3.63-8.35-3.63-11.61-.73a8.46,8.46,0,0,0-.37,11.62Zm38.85,52.29a8.17,8.17,0,0,0,11.26,2.18A8,8,0,0,0,4575,1229c-3.27-4.72-6.17-9.44-9.44-13.8a8.17,8.17,0,0,0-11.26-2.18,8.54,8.54,0,0,0-2.17,11.62C4555.36,1229,4558.27,1233.37,4561.17,1238.09Zm-681.49-237.82h0A8.31,8.31,0,0,0,3883,989c-1.82-4-6.9-5.45-10.89-3.27-4.72,2.54-9.81,5.45-14.53,8a8.32,8.32,0,0,0-3.26,11.25,8.64,8.64,0,0,0,11.25,2.91ZM3938.86,973a8.16,8.16,0,1,0-5.81-15.25c-5.44,2.18-10.53,4.36-15.61,6.54a8,8,0,0,0-4.36,10.53,8.43,8.43,0,0,0,10.9,4.35C3928.7,977,3933.78,974.86,3938.86,973Zm46.11-16c5.45-1.46,10.53-2.91,16-4.36a7.79,7.79,0,0,0,5.44-9.8,8,8,0,0,0-9.8-5.81c-5.44,1.45-10.89,2.9-16,4.35-4.36,1.46-6.9,5.81-5.45,10.17a7.68,7.68,0,0,0,9.8,5.45Zm79.52-17.43a7.91,7.91,0,0,0,6.89-9.08,8.11,8.11,0,0,0-9.07-6.9c-5.81.73-11.26,1.82-16.7,2.54a8.22,8.22,0,0,0-6.54,9.45c.73,4.35,5.08,7.62,9.44,6.53C4054,941.45,4059,940.73,4064.49,939.64Zm48.65-4.72c5.44-.36,10.89-.73,16.34-.73a8.16,8.16,0,0,0,7.62-8.71,7.84,7.84,0,0,0-8.35-7.63c-5.45,0-11.25.37-16.7.73a8.16,8.16,0,0,0-7.63,8.71,8.68,8.68,0,0,0,8.72,7.63Zm81.33.73a8.19,8.19,0,0,0,1.09-16.34c-5.45-.37-10.9-.73-16.7-1.09a7.84,7.84,0,0,0-8.36,7.62,8.18,8.18,0,0,0,7.63,8.72Zm48.29,5.8c5.44,1.09,10.89,1.82,16,2.91h0c4.72,1.09,8.72-1.82,9.8-6.54a8.4,8.4,0,0,0-6.53-9.44c-5.45-1.09-10.89-1.81-16.34-2.9a8.12,8.12,0,1,0-2.9,16Zm79.15,19.25a8.33,8.33,0,0,0,10.16-5.45,8.14,8.14,0,0,0-5.08-10.17c-5.45-1.81-10.89-3.26-16.34-4.72a7.54,7.54,0,0,0-9.8,5.45c-1.45,4.36,1.09,8.71,5.44,10.17C4311.38,957.43,4316.82,958.88,4321.91,960.7Zm60.63,23.23a8.12,8.12,0,0,0,10.89-4.35,8,8,0,0,0-4-10.53c-5.08-2.54-10.53-4.72-15.61-6.9a8.32,8.32,0,0,0-10.53,4.72c-1.82,4,.36,8.71,4.35,10.53C4372.74,979.58,4377.82,981.76,4382.54,983.93Zm43.93,21.79c4.72,2.54,9.44,5.44,13.8,8a8.06,8.06,0,1,0,8.35-13.8c-4.72-2.91-9.44-5.81-14.52-8.35a8.11,8.11,0,0,0-10.9,2.9,8.34,8.34,0,0,0,3.27,11.26Zm67.9,44.29a8,8,0,1,0,9.8-12.7c-4.36-3.63-9.08-6.9-13.43-10.17a8.09,8.09,0,0,0-11.26,1.82c-2.54,4-1.81,9.07,1.82,11.61C4485.65,1043.48,4490,1046.75,4494.37,1050Zm49.74,42.48a8,8,0,0,0,11.25-.36c3.27-3.27,2.91-8.35-.36-11.62-4-4-8-7.62-12-11.25a8.09,8.09,0,0,0-11.62.36c-2.9,3.63-2.9,8.71.73,11.62C4536.12,1084.87,4540.12,1088.5,4544.11,1092.49Zm44.29,47.2a8.14,8.14,0,0,0,11.62,1.09,8.44,8.44,0,0,0,.73-11.62c-3.63-4-7.26-8.35-10.89-12.34a8,8,0,0,0-12,10.53C4581.51,1131.71,4584.77,1135.7,4588.4,1139.69Zm38.85,52.29a8.16,8.16,0,0,0,11.26,2.17c3.63-2.17,4.72-7.26,2.18-11.25-2.91-4.36-6.18-9.08-9.44-13.8a8.06,8.06,0,0,0-13.07,9.44C4621.08,1182.9,4624.35,1187.62,4627.25,1192Zm32.68,56.27c2.18,4,6.9,5.81,10.89,3.63a8.35,8.35,0,0,0,3.63-10.89c-2.54-5.08-5.08-10.16-8-14.88a7.91,7.91,0,0,0-10.9-3.27,8,8,0,0,0-3.26,10.89C4654.85,1238.45,4657.39,1243.53,4659.93,1248.25Zm118,8.72a8,8,0,0,0-15.25.36h15.25ZM3856.44,913.5c4-2.18,5.81-6.9,3.64-10.89a8,8,0,0,0-9.08-4.36V916.4C3852.81,915.31,3854.63,914.59,3856.44,913.5Zm59.91-25.78a8.35,8.35,0,0,0,4.72-10.53,8.67,8.67,0,0,0-10.53-4.72c-5.44,1.82-10.53,4-15.61,6.17a8.06,8.06,0,0,0,6.17,14.89C3906.19,891.71,3911.27,889.53,3916.35,887.72Zm62.09-19.61h-.37a8.56,8.56,0,0,0,5.81-10.16,8,8,0,0,0-9.8-5.81c-5.45,1.45-10.89,2.9-16,4.72A8.38,8.38,0,0,0,3952.3,867a8.66,8.66,0,0,0,10.16,5.45C3967.91,871,3973,869.57,3978.44,868.11ZM4026,857.22c5.08-1.09,10.53-1.81,16-2.54v-.36a7.85,7.85,0,0,0,6.53-9.08,8,8,0,0,0-9.44-6.9c-5.44,1.09-10.89,1.82-16.34,2.91a8.2,8.2,0,0,0-6.53,9.44,8.58,8.58,0,0,0,9.8,6.53Zm64.26-8.71,16.34-1.09h0a8.4,8.4,0,0,0,7.63-8.72,8.14,8.14,0,0,0-8.72-7.62c-5.44.36-10.89.73-16.7,1.09a8.23,8.23,0,0,0-7.26,9.08,8.1,8.1,0,0,0,8.71,7.26Zm65-2.54c5.44.36,10.89.36,16.33.36h0a7.64,7.64,0,0,0,8.35-7.63,8.15,8.15,0,0,0-7.62-8.71c-5.81,0-11.26,0-16.7-.36a8.22,8.22,0,0,0-8.35,8.35,8.07,8.07,0,0,0,8,8Zm57.72-5.09a8.23,8.23,0,0,0,7.27,9.08h0c5.44.73,10.89,1.09,16.33,1.81h0c4.36.73,8.35-2.54,9.08-6.89s-2.54-8.35-6.9-9.08c-5.44-.73-11.25-1.45-16.7-2.18A8.69,8.69,0,0,0,4213,840.88Zm87.51,22.88a8.19,8.19,0,0,0,3.63-16c-5.45-1.09-10.9-2.54-16.34-3.63a8.2,8.2,0,0,0-9.44,6.54,7.71,7.71,0,0,0,6.17,9.44C4290,861.21,4295.4,862.3,4300.49,863.76Zm62.44,18.15a8.27,8.27,0,1,0,5.45-15.61c-5.45-1.82-10.53-3.63-16-5.09-4.36-1.45-8.72,1.09-10.17,5.45-1.45,4,1.09,8.71,5.45,10.17C4352.77,878.28,4357.85,880.09,4362.93,881.91Zm60.64,24a8,8,0,0,0,10.53-4,8.39,8.39,0,0,0-4-10.89l-15.25-6.54a8.06,8.06,0,0,0-6.17,14.89C4413.4,901.52,4418.48,903.69,4423.57,905.87ZM4481.3,936h0a8.13,8.13,0,0,0,8-14.16c-4.72-2.91-9.44-5.45-14.52-8a8.1,8.1,0,0,0-10.89,2.91,8.31,8.31,0,0,0,3.27,11.25C4471.86,930.56,4476.58,933.1,4481.3,936Zm54.46,35.58h0a8.08,8.08,0,0,0,11.25-1.82,8.57,8.57,0,0,0-1.81-11.61c-4.36-2.91-9.08-6.18-13.8-9.44a8.11,8.11,0,0,0-9.08,13.43C4526.68,965.42,4531.4,968.32,4535.76,971.59Zm38.48,30.13c4,3.27,8,6.9,12,10.53h.36a8,8,0,0,0,11.25-.72,8.46,8.46,0,0,0-.72-11.62c-4-3.63-8.35-7.26-12.71-10.89-3.27-2.91-8.35-2.18-11.26,1.09a8.13,8.13,0,0,0,1.09,11.61Zm47.57,44.3c3.63,4,7.26,7.62,11.25,11.62h0a7.69,7.69,0,0,0,11.26.36,8,8,0,0,0,.72-11.25c-4-4-7.62-8-11.61-12a8.47,8.47,0,0,0-11.62-.36,8.11,8.11,0,0,0,0,11.62Zm53,61.72h0c2.9,3.27,8,4,11.25,1.45a8.58,8.58,0,0,0,1.82-11.61c-3.63-4.36-6.9-8.72-10.53-13.07-2.54-3.63-7.63-4-11.26-1.09-3.63,2.54-4,8-1.45,11.25C4668.28,1099,4671.55,1103.39,4674.82,1107.74Zm36.67,53.37a8.22,8.22,0,1,0,14.16-8.35c-2.91-4.72-6.18-9.44-9.08-14.16a8.62,8.62,0,0,0-11.26-2.54c-4,2.54-4.72,7.63-2.54,11.62C4705.68,1152,4708.58,1156.76,4711.49,1161.11Zm31.58,57a8.09,8.09,0,0,0,10.9,4,8.37,8.37,0,0,0,3.63-10.89c-2.54-5.08-5.09-10.17-7.63-14.89a8,8,0,1,0-14.16,7.26C4738,1208.68,4740.53,1213.4,4743.07,1218.12Z" transform="translate(-3851 -829.63)"/></svg>