<?xml version="1.0" encoding="utf-8"?>
<!-- Generator: Adobe Illustrator 25.2.1, SVG Export Plug-In . SVG Version: 6.00 Build 0)  -->
<svg version="1.1" id="Layer_1" xmlns="http://www.w3.org/2000/svg" xmlns:xlink="http://www.w3.org/1999/xlink" x="0px" y="0px"
	 viewBox="0 0 338.13 582.99" style="enable-background:new 0 0 338.13 582.99;" xml:space="preserve">
<style type="text/css">
	.st0{opacity:0.5;fill:#FFEEC0;}
	.st1{fill:none;stroke:#FFFFFF;stroke-width:7.1712;stroke-linecap:round;stroke-linejoin:round;stroke-miterlimit:10;}
	.st2{fill:#FFFFFF;}
	.st3{fill:#FFFFFF;stroke:#FFFFFF;stroke-width:7.1712;stroke-linecap:round;stroke-linejoin:round;stroke-miterlimit:10;}
	.st4{fill:#FFFFFF;stroke:#FFFFFF;stroke-width:5.5993;stroke-linecap:round;stroke-linejoin:round;stroke-miterlimit:10;}
	.st5{fill:none;stroke:#FFFFFF;stroke-width:5.5993;stroke-linecap:round;stroke-linejoin:round;stroke-miterlimit:10;}
	.st6{fill:none;stroke:#FFEEC0;stroke-width:7.1712;stroke-linecap:round;stroke-linejoin:round;stroke-miterlimit:10;}
</style>
<g>
	<path class="st0" d="M313.22,438.75c0.01-0.12,0.03-0.24,0.02-0.37c-7.99-14.4-22.75-38.72-42.21-45.89
		c32.68-19.84,70.15-88.81,62.5-173.23C321,79.74,175.06,35.56,167.89,32.65c-7.16-2.91-37.61-29.07-41.19-29.07
		c-3.58,0-11.94,2.91-13.73,10.46c-1.79,7.56,8.36,31.39,8.36,31.39s-38.8,21.51-41.87,27.9c-3.07,6.39-0.66,14.68-2,18.17
		C76.12,95,14.79,128.57,7.18,144.7c-4.03,7.41-3.19,15.26-3.58,26.6c-0.54,15.79,24.92,43.6,41.04,43.6
		c16.12,0,28.35-19.47,37.61-19.47c9.25,0,27.16,9.88,48.65,9.88s43.57-16.3,48.65-12.21c13.43,14.82-33.13,56.68-57.3,74.99
		c-12.58,9.53-62.21,23.25-62.21,66.27c-0.39,31.21,36.24,54.66,42.27,58.3c-18.79,8.1-35.21,29.85-43.65,46.83
		c-0.06,0.04-0.1,0.09-0.1,0.13l0.35,97.3c0.04,11.27,23.42,42.85,129.54,42.48c104.46-0.36,125.21-32.09,125.17-43.36l-0.35-97.3
		H313.22z"/>
	<path class="st1" d="M214.73,113.45c0,0,6.98-13.52,8.95-25c2.39-13.88,0-28.49,0-28.49"/>
	<path class="st1" d="M235.62,128.27c0,0,8.01-12.5,10.74-23.83c3.44-14.24,3.19-28.09,3.19-28.09"/>
	<path class="st1" d="M275.31,100.52c0,0,4.18,3.92,1.34,13.52c-1.17,3.97-27.34,32.7-27.1,40.98"/>
	<path class="st1" d="M291.8,117.72c0,0,4.41,7.65,1.12,16.95c-3.17,8.99-29.56,32.7-29.32,40.98"/>
	<path class="st1" d="M310.44,148.49c0,0,2.2,8.51-3.46,16.65c-5.48,7.87-37.31,24.04-39.3,32.1"/>
	<path class="st1" d="M322.77,177.69c0,0,2.98,12.5-5.97,19.54c-7.59,5.97-45.82,24.21-48.23,32.15"/>
	<path class="st1" d="M329.63,207.33c0,0,2.09,10.46-8.95,22.05c-6.64,6.97-49.45,23.47-51.86,31.42"/>
	<path class="st1" d="M333.63,240.96c0,0,0.38,10.65-12.39,20.41c-7.68,5.87-52.61,15.64-56.28,23.12"/>
	<path class="st1" d="M328.47,278.4c0,0-2.12,10.03-11.28,14.61c-8.68,4.35-49.94,16.89-53.6,24.37"/>
	<path class="st1" d="M6.42,163.52c0,0,26.25,5.45,29.83,17.22c3.58,11.77-3.95,28.34-3.95,28.34"/>
	<path class="st2" d="M153.94,87.31c-0.48-0.79-1.4-1.21-2.31-1.03c-2.86,0.56-6.82,0.31-11,0.04c-6.19-0.39-12.59-0.8-17.23,1.27
		c-7.72,3.45-15.35,16.34-15.67,16.89c-0.37,0.63-0.4,1.41-0.08,2.07c0.32,0.66,0.95,1.12,1.68,1.23c0.5,0.07,8.34,1.18,15.85,1.18
		c4.03,0,7.98-0.32,10.63-1.29c5.11-1.87,9.72-7.04,13.28-11.63c0,0,0.01-0.01,0.01-0.01c0.01-0.01,0.02-0.02,0.03-0.04
		c0.93-1.2,1.79-2.36,2.57-3.41c0.81-1.09,1.51-2.03,2.08-2.75C154.35,89.12,154.42,88.11,153.94,87.31z M134.28,103.53
		c-4.15,1.52-13.25,1.06-19.53,0.45c-0.53-0.48-0.54-1.07-0.45-1.5c2.88-4.06,7.13-9.17,10.89-10.85c3.65-1.63,9.5-1.26,15.15-0.9
		c1.17,0.07,2.32,0.15,3.44,0.2c0.79,0.06,1.78,0.35,2.05,0.59c0.42,0.8-0.19,1.73-0.25,1.82
		C142.37,97.49,138.33,102.05,134.28,103.53z"/>
	<path class="st1" d="M23.57,201.96c0,0,2.26-4.42,5.78-5.21c3.99-0.9,6.93,0.62,6.93,0.62"/>
	<path class="st3" d="M164.42,395.7c-21.09,1.48-48.57-0.52-62.19-3.21"/>
	<path class="st3" d="M212.92,396.2c23.43,0.65,39.25-1.63,57.92-3.71"/>
	<path class="st4" d="M264.25,455.48c13.99-2.42,37.19-7.49,50.05-16.15"/>
	<path class="st5" d="M129.15,455.32c-18.39-0.96-58.12-8.99-68.72-15.83"/>
	<path class="st6" d="M313.22,438.75c0.01-0.12,0.03-0.24,0.02-0.37c-7.99-14.4-22.75-38.72-42.21-45.89
		c32.68-19.84,70.15-88.81,62.5-173.23C321,79.74,175.06,35.56,167.89,32.65c-7.16-2.91-37.61-29.07-41.19-29.07
		c-3.58,0-11.94,2.91-13.73,10.46c-1.79,7.56,8.36,31.39,8.36,31.39s-38.8,21.51-41.87,27.9c-3.07,6.39-0.66,14.68-2,18.17
		C76.12,95,14.79,128.57,7.18,144.7c-4.03,7.41-3.19,15.26-3.58,26.6c-0.54,15.79,24.92,43.6,41.04,43.6
		c16.12,0,28.35-19.47,37.61-19.47c9.25,0,27.16,9.88,48.65,9.88s43.57-16.3,48.65-12.21c13.43,14.82-33.13,56.68-57.3,74.99
		c-12.58,9.53-62.21,23.25-62.21,66.27c-0.39,31.21,36.24,54.66,42.27,58.3c-18.79,8.1-35.21,29.85-43.65,46.83
		c-0.06,0.04-0.1,0.09-0.1,0.13l0.35,97.3c0.04,11.27,23.42,42.85,129.54,42.48c104.46-0.36,125.21-32.09,125.17-43.36l-0.35-97.3
		H313.22z"/>
</g>
</svg>
