<?xml version="1.0" encoding="utf-8"?>
<!-- Generator: Adobe Illustrator 26.0.0, SVG Export Plug-In . SVG Version: 6.00 Build 0)  -->
<svg version="1.1" id="Component_8_1" xmlns="http://www.w3.org/2000/svg" xmlns:xlink="http://www.w3.org/1999/xlink" x="0px"
	 y="0px" viewBox="0 0 332.4 367.4" style="enable-background:new 0 0 332.4 367.4;" xml:space="preserve">
<style type="text/css">
	.st0{fill:#404040;}
	.st1{fill:#FFFFFF;stroke:#404040;}
</style>
<circle id="Ellipse_11" class="st0" cx="17.9" cy="42.3" r="17.9"/>
<circle id="Ellipse_12" class="st0" cx="46.3" cy="67.7" r="7.5"/>
<circle id="Ellipse_12-2" class="st0" cx="264.6" cy="357.4" r="7.5"/>
<path id="Rectangle_817" class="st0" d="M40.7,245.6h218.8c14.4,0,26.1,11.7,26.1,26.1c0,0,0,0,0,0v36.3l0,0H14.5l0,0v-36.3
	C14.5,257.3,26.2,245.6,40.7,245.6C40.7,245.6,40.7,245.6,40.7,245.6z"/>
<path id="Path_4503" class="st1" d="M262.1,89c-0.6-1.6-1.2-3.1-1.8-4.6c-1.2-2.8-0.5-5.9,1.6-8.1l10.4-10.4c2.9-2.9,2.9-7.6,0-10.4
	c0,0,0,0,0,0l-34.8-34.8c-2.9-2.9-7.6-2.9-10.4,0c0,0,0,0,0,0l-10.4,10.4c-2.1,2.1-5.3,2.7-8.1,1.6l-0.1,0c-2.8-1.1-4.5-3.8-4.5-6.8
	V10.4c0-4.1-3.3-7.4-7.4-7.4l0,0h-49.2c-4.1,0-7.4,3.3-7.4,7.4c0,0,0,0,0,0v15.4c0,3-1.8,5.7-4.5,6.8l-0.1,0
	c-2.8,1.2-5.9,0.5-8.1-1.6l-10.4-10.4c-2.9-2.9-7.6-2.9-10.4,0c0,0,0,0,0,0L71.7,55.4c-2.9,2.9-2.9,7.6,0,10.4l10.4,10.4
	c2.1,2.1,2.7,5.3,1.6,8.1l0,0.1c-1.1,2.8-3.8,4.5-6.8,4.5H19.5c-4.1,0-7.4,3.3-7.4,7.4c0,0,0,0,0,0v220.5c0,4.1,3.3,7.4,7.4,7.4
	c0,0,0,0,0,0h113.1c4.1,0,7.4,3.3,7.4,7.4v6.5c0,4.1-3.3,7.4-7.4,7.4c0,0,0,0,0,0h-27.9c-4.1,0-7.4,3.3-7.4,7.4v6.5
	c0,4.1,3.3,7.4,7.4,7.4h134.5c4.1,0,7.4-3.3,7.4-7.4v-6.5c0-4.1-3.3-7.4-7.4-7.4c0,0,0,0,0,0h-27.9c-4.1,0-7.4-3.3-7.4-7.4v-6.5
	c0-4.1,3.3-7.4,7.4-7.4c0,0,0,0,0,0h113.1c4.1,0,7.4-3.3,7.4-7.4V96.4c0-4.1-3.3-7.4-7.4-7.4H262.1z M83.4,110.3h8.8
	c3.4,0,6.3-2.3,7.1-5.5l0.6-2.4c2-7.5,5.1-14.6,9.2-21.1c1.8-2.9,1.3-6.6-1.1-9l-6.3-6.3c-2.9-2.9-2.9-7.6,0-10.4l4.6-4.6
	c2.9-2.9,7.6-2.9,10.4,0c0,0,0,0,0,0l6.3,6.3c2.4,2.4,6.1,2.9,9,1.1c6.5-4.1,13.7-7.2,21.1-9.2l2.5-0.6c3.3-0.8,5.5-3.8,5.5-7.1
	v-9.5c0-4.1,3.3-7.4,7.4-7.4c0,0,0,0,0,0h6.5c4.1,0,7.4,3.3,7.4,7.4v9.5c0,3.4,2.3,6.3,5.5,7.1l2.4,0.6c7.5,2,14.6,5.1,21.1,9.2
	c2.9,1.8,6.6,1.3,9-1.1l6.3-6.3c2.9-2.9,7.6-2.9,10.4,0l4.6,4.6c2.9,2.9,2.9,7.6,0,10.4l-6.3,6.3c-2.4,2.4-2.9,6.1-1.1,9
	c4.1,6.5,7.2,13.7,9.2,21.1l0.6,2.4c0.8,3.3,3.8,5.5,7.1,5.5h8.8c4.1,0,7.4,3.3,7.4,7.4v6.5c0,4.1-3.3,7.4-7.4,7.4h-8.8
	c-3.4,0-6.3,2.3-7.1,5.5l-0.6,2.4c-2,7.5-5.1,14.6-9.2,21.1c-1.8,2.9-1.3,6.6,1.1,9l6.3,6.3c2.9,2.9,2.9,7.6,0,10.4l-4.6,4.6
	c-2.9,2.9-7.6,2.9-10.4,0c0,0,0,0,0,0l-6.3-6.3c-2.4-2.4-6.1-2.9-9-1.1c-6.5,4.1-13.7,7.2-21.1,9.2l-2.5,0.6
	c-3.3,0.8-5.5,3.8-5.5,7.1v9.5c0,4.1-3.3,7.4-7.4,7.4c0,0,0,0,0,0h-6.5c-4.1,0-7.4-3.3-7.4-7.4c0,0,0,0,0,0v-9.5
	c0-3.4-2.3-6.3-5.5-7.1l-2.5-0.6c-7.5-2-14.6-5.1-21.1-9.2c-2.9-1.8-6.6-1.3-9,1.1l-6.3,6.3c-2.9,2.9-7.6,2.9-10.4,0c0,0,0,0,0,0
	l-4.6-4.6c-2.9-2.9-2.9-7.6,0-10.4c0,0,0,0,0,0l6.3-6.3c2.4-2.4,2.9-6.1,1.1-9c-4.1-6.5-7.2-13.7-9.2-21.1l-0.6-2.4
	c-0.8-3.3-3.8-5.5-7.1-5.5h-8.8c-4.1,0-7.4-3.3-7.4-7.4v-6.5C76,113.6,79.3,110.3,83.4,110.3C83.4,110.3,83.4,110.3,83.4,110.3
	L83.4,110.3z M175.3,345.5h-6.5c-4.1,0-7.4-3.3-7.4-7.4v-6.5c0-4.1,3.3-7.4,7.4-7.4c0,0,0,0,0,0h6.5c4.1,0,7.4,3.3,7.4,7.4v6.5
	C182.6,342.2,179.3,345.5,175.3,345.5C175.3,345.5,175.3,345.5,175.3,345.5L175.3,345.5z M33.4,295.5V289c0-4.1,3.3-7.4,7.4-7.4
	c0,0,0,0,0,0h262.4c4.1,0,7.4,3.3,7.4,7.4v6.5c0,4.1-3.3,7.4-7.4,7.4H40.8C36.7,302.9,33.4,299.6,33.4,295.5z M310.6,117.7v135.2
	c0,4.1-3.3,7.4-7.4,7.4c0,0,0,0,0,0H40.8c-4.1,0-7.4-3.3-7.4-7.4V117.7c0-4.1,3.3-7.4,7.4-7.4c0,0,0,0,0,0h6.5
	c4.1,0,7.4,3.3,7.4,7.4v27.9c0,4.1,3.3,7.4,7.4,7.4c0,0,0,0,0,0h14.7c3,0,5.7,1.8,6.8,4.5l0,0.1c1.2,2.8,0.5,5.9-1.6,8.1l-10.4,10.4
	c-2.9,2.9-2.9,7.6,0,10.4l34.8,34.8c2.9,2.9,7.6,2.9,10.4,0c0,0,0,0,0,0l10.4-10.4c2.1-2.1,5.3-2.7,8.1-1.6l0.1,0
	c2.8,1.1,4.5,3.8,4.5,6.8v15.4c0,4.1,3.3,7.4,7.4,7.4c0,0,0,0,0,0h49.2c4.1,0,7.4-3.3,7.4-7.4c0,0,0,0,0,0v-15.4
	c0-3,1.8-5.7,4.5-6.8l0.1,0c2.8-1.2,5.9-0.5,8.1,1.6l10.4,10.4c2.9,2.9,7.6,2.9,10.4,0c0,0,0,0,0,0l34.8-34.8
	c2.9-2.9,2.9-7.6,0-10.4c0,0,0,0,0,0l-10.4-10.4c-2.1-2.1-2.7-5.3-1.6-8.1l0-0.1c1.1-2.8,3.8-4.5,6.8-4.5h14.7
	c4.1,0,7.4-3.3,7.4-7.4v-27.9c0-4.1,3.3-7.4,7.4-7.4c0,0,0,0,0,0h6.5C307.3,110.3,310.6,113.6,310.6,117.7z"/>
<path id="Path_4504" class="st0" d="M252.1,86c-0.6-1.6-1.2-3.1-1.8-4.6c-1.2-2.8-0.5-5.9,1.6-8.1l10.4-10.4c2.9-2.9,2.9-7.6,0-10.4
	c0,0,0,0,0,0l-34.8-34.8c-2.9-2.9-7.6-2.9-10.4,0c0,0,0,0,0,0l-10.4,10.4c-2.1,2.1-5.3,2.7-8.1,1.6l-0.1,0c-2.8-1.1-4.5-3.8-4.5-6.8
	V7.4c0-4.1-3.3-7.4-7.4-7.4h-49.2c-4.1,0-7.4,3.3-7.4,7.4c0,0,0,0,0,0v15.4c0,3-1.8,5.7-4.5,6.8l-0.1,0c-2.8,1.2-5.9,0.5-8.1-1.6
	l-10.4-10.4c-2.9-2.9-7.6-2.9-10.4,0c0,0,0,0,0,0L61.7,52.4c-2.9,2.9-2.9,7.6,0,10.4l10.4,10.4c2.1,2.1,2.7,5.3,1.6,8.1l0,0.1
	c-1.1,2.8-3.8,4.5-6.8,4.5H9.5c-4.1,0-7.4,3.3-7.4,7.4c0,0,0,0,0,0v220.5c0,4.1,3.3,7.4,7.4,7.4c0,0,0,0,0,0h113.1
	c4.1,0,7.4,3.3,7.4,7.4v6.5c0,4.1-3.3,7.4-7.4,7.4c0,0,0,0,0,0H94.7c-4.1,0-7.4,3.3-7.4,7.4v6.5c0,4.1,3.3,7.4,7.4,7.4h134.5
	c4.1,0,7.4-3.3,7.4-7.4v-6.5c0-4.1-3.3-7.4-7.4-7.4c0,0,0,0,0,0h-27.9c-4.1,0-7.4-3.3-7.4-7.4v-6.5c0-4.1,3.3-7.4,7.4-7.4
	c0,0,0,0,0,0h113.1c4.1,0,7.4-3.3,7.4-7.4V93.4c0-4.1-3.3-7.4-7.4-7.4H252.1z M73.4,107.3h8.8c3.4,0,6.3-2.3,7.1-5.5l0.6-2.4
	c2-7.5,5.1-14.6,9.2-21.1c1.8-2.9,1.3-6.6-1.1-9l-6.3-6.3c-2.9-2.9-2.9-7.6,0-10.4l4.6-4.6c2.9-2.9,7.6-2.9,10.4,0c0,0,0,0,0,0
	l6.3,6.3c2.4,2.4,6.1,2.9,9,1.1c6.5-4.1,13.7-7.2,21.1-9.2l2.5-0.6c3.3-0.8,5.5-3.8,5.5-7.1v-9.5c0-4.1,3.3-7.4,7.4-7.4c0,0,0,0,0,0
	h6.5c4.1,0,7.4,3.3,7.4,7.4v9.5c0,3.4,2.3,6.3,5.5,7.1l2.4,0.6c7.5,2,14.6,5.1,21.1,9.2c2.9,1.8,6.6,1.3,9-1.1l6.3-6.3
	c2.9-2.9,7.6-2.9,10.4,0l4.6,4.6c2.9,2.9,2.9,7.6,0,10.4l-6.3,6.3c-2.4,2.4-2.9,6.1-1.1,9c4.1,6.5,7.2,13.7,9.2,21.1l0.6,2.4
	c0.8,3.3,3.8,5.5,7.1,5.5h8.8c4.1,0,7.4,3.3,7.4,7.4v6.5c0,4.1-3.3,7.4-7.4,7.4h-8.8c-3.4,0-6.3,2.3-7.1,5.5l-0.6,2.4
	c-2,7.5-5.1,14.6-9.2,21.1c-1.8,2.9-1.3,6.6,1.1,9l6.3,6.3c2.9,2.9,2.9,7.6,0,10.4l-4.6,4.6c-2.9,2.9-7.6,2.9-10.4,0c0,0,0,0,0,0
	l-6.3-6.3c-2.4-2.4-6.1-2.9-9-1.1c-6.5,4.1-13.7,7.2-21.1,9.2l-2.5,0.6c-3.3,0.8-5.5,3.8-5.5,7.1v9.5c0,4.1-3.3,7.4-7.4,7.4
	c0,0,0,0,0,0h-6.5c-4.1,0-7.4-3.3-7.4-7.4c0,0,0,0,0,0v-9.5c0-3.4-2.3-6.3-5.5-7.1l-2.5-0.6c-7.5-2-14.6-5.1-21.1-9.2
	c-2.9-1.8-6.6-1.3-9,1.1l-6.3,6.3c-2.9,2.9-7.6,2.9-10.4,0c0,0,0,0,0,0l-4.6-4.6c-2.9-2.9-2.9-7.6,0-10.4c0,0,0,0,0,0l6.3-6.3
	c2.4-2.4,2.9-6.1,1.1-9c-4.1-6.5-7.2-13.7-9.2-21.1l-0.6-2.4c-0.8-3.3-3.8-5.5-7.1-5.5h-8.8c-4.1,0-7.4-3.3-7.4-7.4v-6.5
	C66,110.6,69.3,107.3,73.4,107.3C73.4,107.3,73.4,107.3,73.4,107.3L73.4,107.3z M165.3,342.5h-6.5c-4.1,0-7.4-3.3-7.4-7.4v-6.5
	c0-4.1,3.3-7.4,7.4-7.4c0,0,0,0,0,0h6.5c4.1,0,7.4,3.3,7.4,7.4v6.5C172.6,339.2,169.3,342.5,165.3,342.5
	C165.3,342.5,165.3,342.5,165.3,342.5L165.3,342.5z M23.4,292.5V286c0-4.1,3.3-7.4,7.4-7.4c0,0,0,0,0,0h262.4c4.1,0,7.4,3.3,7.4,7.4
	v6.5c0,4.1-3.3,7.4-7.4,7.4H30.8C26.7,299.9,23.4,296.6,23.4,292.5z M300.6,114.7v135.2c0,4.1-3.3,7.4-7.4,7.4c0,0,0,0,0,0H30.8
	c-4.1,0-7.4-3.3-7.4-7.4V114.7c0-4.1,3.3-7.4,7.4-7.4c0,0,0,0,0,0h6.5c4.1,0,7.4,3.3,7.4,7.4v27.9c0,4.1,3.3,7.4,7.4,7.4
	c0,0,0,0,0,0h14.7c3,0,5.7,1.8,6.8,4.5l0,0.1c1.2,2.8,0.5,5.9-1.6,8.1l-10.4,10.4c-2.9,2.9-2.9,7.6,0,10.4l34.8,34.8
	c2.9,2.9,7.6,2.9,10.4,0c0,0,0,0,0,0l10.4-10.4c2.1-2.1,5.3-2.7,8.1-1.6l0.1,0c2.8,1.1,4.5,3.8,4.5,6.8v15.4c0,4.1,3.3,7.4,7.4,7.4
	c0,0,0,0,0,0h49.2c4.1,0,7.4-3.3,7.4-7.4v-15.4c0-3,1.8-5.7,4.5-6.8l0.1,0c2.8-1.2,5.9-0.5,8.1,1.6l10.4,10.4
	c2.9,2.9,7.6,2.9,10.4,0c0,0,0,0,0,0l34.8-34.8c2.9-2.9,2.9-7.6,0-10.4c0,0,0,0,0,0l-10.4-10.4c-2.1-2.1-2.7-5.3-1.6-8.1l0-0.1
	c1.1-2.8,3.8-4.5,6.8-4.5h14.7c4.1,0,7.4-3.3,7.4-7.4v-27.9c0-4.1,3.3-7.4,7.4-7.4c0,0,0,0,0,0h6.5
	C297.3,107.3,300.6,110.6,300.6,114.7z"/>
</svg>
