<svg xmlns="http://www.w3.org/2000/svg" viewBox="0 0 30 30.5"><defs><style>.cls-1{fill:none;stroke:#404040;stroke-linecap:round;stroke-linejoin:round;stroke-width:2px;}.cls-2{fill:#404040;}</style></defs><g id="Layer_2" data-name="Layer 2"><g id="Layer_1-2" data-name="Layer 1"><g id="Codeigniter-2"><g id="_Group_2" data-name=" Group 2"><path id="_Path_2-2" data-name=" Path 2-2" class="cls-1" d="M17.32,29.5c4.1-.9,8.7-4.6,8.7-9.3s-4.2-7.4-6.2-8.7a1.86,1.86,0,0,1-1.7,1.9h-.2A2,2,0,0,1,16,11.5c0-2.4.6-2,.6-4.3s-.3-3.5-3.1-6.2c1,5-3.3,7.1-6.8,10.5s-4.2,6.5-4.2,8.7c0,2.7.8,7.8,7.4,9.3-2.6-2.4-3.1-3.6-3.1-5a7.46,7.46,0,0,1,3.1-5c-1.2,3.1.8,3.7,1.9,3.7s1.9-.9,1.9-2.5-2.5-2.5-2.5-4.3a4.77,4.77,0,0,1,1.2-3.1s-.4,1.2,1.2,2.5S21,19.9,21,23.2,19.82,27.7,17.32,29.5Z"/></g></g><circle id="Ellipse_150" data-name="Ellipse 150" class="cls-2" cx="2.5" cy="5.3" r="2.5"/><circle id="Ellipse_151" data-name="Ellipse 151" class="cls-2" cx="8.2" cy="5.3" r="0.9"/><circle id="Ellipse_152" data-name="Ellipse 152" class="cls-2" cx="28" cy="28.3" r="2"/><circle id="Ellipse_153" data-name="Ellipse 153" class="cls-2" cx="21.8" cy="6.4" r="1.1"/></g></g></svg>