<?xml version="1.0" encoding="utf-8"?>
<!-- Generator: Adobe Illustrator 26.0.0, SVG Export Plug-In . SVG Version: 6.00 Build 0)  -->
<svg version="1.1" id="Layer_1" xmlns="http://www.w3.org/2000/svg" xmlns:xlink="http://www.w3.org/1999/xlink" x="0px" y="0px"
	 viewBox="0 0 31.6 31.6" style="enable-background:new 0 0 31.6 31.6;" xml:space="preserve">
<style type="text/css">
	.st0{fill:#404040;}
	.st1{fill:#404040;stroke:#404040;stroke-width:0.5;}
</style>
<g id="Layer_2_00000047762394375238131930000012913620193794750108_">
	<g id="Layer_1-2">
		<path id="Path_312-4" class="st0" d="M26.3,3.3h-21C3.5,3.3,2.1,4.6,2,6.4V24c0,2.3,1.8,4.2,4.2,4.2c0,0,0.1,0,0.1,0h18.9
			c2.3,0,4.3-1.9,4.3-4.2c0,0,0,0,0,0c0-0.6-0.5-1.1-1.1-1.1s-1.1,0.5-1.1,1.1c0,1.2-0.9,2.1-2.1,2.1H6.3c-1.1,0-2.1-0.9-2.1-2
			c0,0,0-0.1,0-0.1V9.7h23.2v9.1c0,0.6,0.5,1.1,1.1,1.1s1.1-0.5,1.1-1.1V6.4C29.5,4.7,28,3.3,26.3,3.3z M21.9,5.4c0.6,0,1,0.4,1,1
			c0,0,0,0.1,0,0.1c-0.1,0.6-0.5,1.1-1.1,1c-0.6,0-1-0.4-1-1c0,0,0-0.1,0-0.1C20.9,5.8,21.3,5.4,21.9,5.4z M27.3,6.4
			c0,0.6-0.5,1.1-1.1,1.1c-0.6,0-1.1-0.5-1.1-1.1s0.5-1.1,1.1-1.1l0,0C26.8,5.4,27.2,5.8,27.3,6.4z M4.2,6.4c0-0.6,0.5-1.1,1.1-1.1
			h13.6c-0.3,0.7-0.3,1.5,0,2.2H4.2V6.4z"/>
		<circle id="Ellipse_126-4" class="st0" cx="1.4" cy="1.4" r="1.4"/>
		<circle id="Ellipse_127-4" class="st0" cx="28.3" cy="29.6" r="1.4"/>
		<circle id="Ellipse_128-4" class="st0" cx="31" cy="31" r="0.6"/>
		<g id="coding">
			<g id="Group_157">
				<g id="Group_156">
					<path id="Path_315" class="st1" d="M20.4,19.2l-2.7-2.9c-0.2-0.1-0.4-0.1-0.6,0c-0.1,0.2-0.1,0.4,0,0.6l0,0l2.4,2.5L17.1,22
						c-0.1,0.2-0.1,0.4,0,0.6c0.2,0.2,0.5,0.2,0.6,0l0,0l2.7-2.8C20.6,19.6,20.6,19.3,20.4,19.2z"/>
				</g>
			</g>
			<g id="Group_159">
				<g id="Group_158">
					<path id="Path_316" class="st1" d="M12.4,22L10,19.5l2.4-2.5c0.2-0.2,0.2-0.5,0-0.6c-0.1-0.2-0.4-0.2-0.6-0.1l-2.7,2.9
						c-0.1,0.2-0.1,0.4,0,0.6l2.7,2.8c0.1,0.2,0.4,0.2,0.5,0.1c0,0,0,0,0.1-0.1C12.6,22.5,12.6,22.2,12.4,22z"/>
				</g>
			</g>
			<g id="Group_161">
				<g id="Group_160">
					<path id="Path_317" class="st1" d="M15.5,14.9c-0.3,0-0.5,0.1-0.5,0.4l0,0l-1.3,8.3c0,0.2,0.1,0.5,0.4,0.5h0.1
						c0.2,0,0.4-0.2,0.4-0.4l1.3-8.3C15.9,15.1,15.7,14.9,15.5,14.9z"/>
				</g>
			</g>
		</g>
	</g>
</g>
</svg>
