<?xml version="1.0" encoding="utf-8"?>
<!-- Generator: Adobe Illustrator 25.2.1, SVG Export Plug-In . SVG Version: 6.00 Build 0)  -->
<svg version="1.1" id="Layer_1" xmlns="http://www.w3.org/2000/svg" xmlns:xlink="http://www.w3.org/1999/xlink" x="0px" y="0px"
	 viewBox="0 0 246.09 638.48" style="enable-background:new 0 0 246.09 638.48;" xml:space="preserve">
<style type="text/css">
	.st0{opacity:0.5;fill:#C1C6FF;}
	.st1{fill:none;stroke:#FFFFFF;stroke-width:5.5993;stroke-linecap:round;stroke-linejoin:round;stroke-miterlimit:10;}
	.st2{fill:#FFFFFF;stroke:#FFFFFF;stroke-width:5.5993;stroke-linecap:round;stroke-linejoin:round;stroke-miterlimit:10;}
	.st3{fill:none;stroke:#C1C6FF;stroke-width:7.1712;stroke-linecap:round;stroke-linejoin:round;stroke-miterlimit:10;}
</style>
<g>
	<path class="st0" d="M242.5,490.54c-17.68-21.63-69.92-56.67-69.92-128.45c0-68.64,43.82-125.01,43.82-126.07
		c0,0,0.08-22.57,0-25.32c-8.69-3.78-42.77-18.36-42.77-18.36c-5.16-1.29-7.21-7.48-3.83-11.59c8.84-10.74,21.83-25.25,21.83-43.52
		c0-47.52-28.56-110.9-52.88-128.04c-3.75-2.64-7.76-5.6-15.52-5.6c-0.06,0-0.13,0.01-0.19,0.01c-0.06,0-0.13-0.01-0.19-0.01
		c-7.76,0-11.77,2.97-15.52,5.6C83.02,26.33,54.46,89.71,54.46,137.23c0,18.67,13.25,33.42,22.41,44.22
		c3.41,4.03,1.48,10.23-3.61,11.61c0,0-33.77,14.27-40.22,17.64c-0.19,0.1,0.02,0.42,0.05,0.63l-0.05,24.69v2.56
		C49.7,262.17,73.5,292.96,73.5,362.09c0,69-53.04,105.01-69.82,128.69c-0.06,0.04-0.1,0.09-0.1,0.14v99.91
		c0,11.57,21.82,44.08,121.36,44.08c97.99,0,117.56-32.51,117.56-44.08l-0.02-99.91C242.49,490.79,242.5,490.66,242.5,490.54z"/>
	<path class="st1" d="M78.85,222.07c0,0-31.49-2.09-45.25-11.92"/>
	<path class="st1" d="M83.04,250.36c-18.12-1.72-38.84-5.15-49.45-11.99"/>
	<path class="st1" d="M192.99,221.25c7.77-1.95,15.45-4.87,21.06-9.21"/>
	<path class="st1" d="M176.27,224.21c3.05-0.35,6.38-0.82,9.81-1.46"/>
	<path class="st1" d="M169.49,248.23c0,0,32.99-1.85,46.22-12.38"/>
	<path class="st1" d="M177.48,508.28c0,0,3.32,0.1,7.62-0.15"/>
	<path class="st1" d="M72.62,507.45c-18.39-0.96-58.12-8.99-68.72-15.83"/>
	<path class="st1" d="M198.98,506.49c0,0,24.58-2.86,43.83-15.82"/>
	<path class="st2" d="M78.85,190.59c0,0,17.94,4.36,32.83,3.58"/>
	<path class="st1" d="M168.84,189.99c0,0-12.83,4.27-22.23,4.62"/>
	<path class="st1" d="M65.57,135.07c0,0,0.47,18.35,17.47,35.37"/>
	<path class="st1" d="M134.53,17.42c0,0,9.27,7.49,16.08,20.4"/>
	<path class="st3" d="M242.5,490.54c-17.68-21.63-69.92-56.67-69.92-128.45c0-68.64,43.82-125.01,43.82-126.07
		c0,0,0.08-22.57,0-25.32c-8.69-3.78-42.77-18.36-42.77-18.36c-5.16-1.29-7.21-7.48-3.83-11.59c8.84-10.74,21.83-25.25,21.83-43.52
		c0-47.52-28.56-110.9-52.88-128.04c-3.75-2.64-7.76-5.6-15.52-5.6c-0.06,0-0.13,0.01-0.19,0.01c-0.06,0-0.13-0.01-0.19-0.01
		c-7.76,0-11.77,2.97-15.52,5.6C83.02,26.33,54.46,89.71,54.46,137.23c0,18.67,13.25,33.42,22.41,44.22
		c3.41,4.03,1.48,10.23-3.61,11.61c0,0-33.77,14.27-40.22,17.64c-0.19,0.1,0.02,0.42,0.05,0.63l-0.05,24.69v2.56
		C49.7,262.17,73.5,292.96,73.5,362.09c0,69-53.04,105.01-69.82,128.69c-0.06,0.04-0.1,0.09-0.1,0.14v99.91
		c0,11.57,21.82,44.08,121.36,44.08c97.99,0,117.56-32.51,117.56-44.08l-0.02-99.91C242.49,490.79,242.5,490.66,242.5,490.54z"/>
</g>
</svg>
