<svg id="Layer_1" data-name="Layer 1" xmlns="http://www.w3.org/2000/svg" viewBox="0 0 142.27 128.95"><defs><style>.cls-1{fill:#fff;}.cls-2{fill:#404040;}.cls-3{fill:#5fbf82;}.cls-4{opacity:0.13;}.cls-5{fill:#010101;}.cls-6{fill:#203e1c;}.cls-7{fill:#41935d;}.cls-8{fill:#1f3f1d;}.cls-9{fill:#fdfefc;}.cls-10{fill:#fdfefd;}.cls-11{fill:#f8f294;}.cls-12{fill:#92ca69;}.cls-13{fill:#fdfeff;}.cls-14{fill:#fcf495;}.cls-15{fill:#f9f397;}.cls-16{fill:#badb96;}.cls-17{fill:#bbdb96;}.cls-18{fill:#f9f294;}.cls-19{fill:#fcfdfb;}.cls-20{fill:#fafbfa;}.cls-21{fill:#fafbfb;}.cls-22{fill:#fcd86b;}.cls-23{fill:#fad96b;}.cls-24{fill:#f2f099;}.cls-25{fill:#fbd96d;}.cls-26{fill:#f7da6e;}.cls-27{fill:#f8faf7;}.cls-28{fill:#f9d96c;}.cls-29{fill:#f8fbf7;}.cls-30{fill:#e8f3e3;}.cls-31{fill:#e3eee2;}.cls-32{fill:#dcedd3;}.cls-33{fill:#d6ebce;}.cls-34{fill:#f69991;}.cls-35{fill:#fcfdfc;}.cls-36{fill:#bbdb97;}.cls-37{fill:#213e1c;}</style></defs><rect class="cls-1" x="0.9" y="5.04" width="140.47" height="97.26"/><path class="cls-2" d="M680.11,288H539.62a.89.89,0,0,1-.89-.89V189.92a.89.89,0,0,1,.89-.9H680.11a.89.89,0,0,1,.89.9v97.25A.89.89,0,0,1,680.11,288Zm-139.55-1.78h138.7V190.83H540.51Z" transform="translate(-538.73 -184.86)"/><rect class="cls-3" x="0.9" y="0.89" width="140.47" height="12.84"/><path class="cls-2" d="M680.11,199.48H539.62a.89.89,0,0,1-.89-.89V185.75a.89.89,0,0,1,.89-.89H680.11a.89.89,0,0,1,.89.89v12.84a.89.89,0,0,1-.89.89Zm-139.55-1.79h138.7V186.64H540.51Z" transform="translate(-538.73 -184.86)"/><g class="cls-4"><rect class="cls-5" x="0.89" y="13.89" width="140.47" height="4.17"/></g><path class="cls-6" d="M604.08,312.47a3,3,0,0,1-2.73,1.34c-8,0-16,0-24,0-2,0-2.89-.85-2.9-2.84,0-.82,0-1.65,0-2.47,0-.55-.09-.72-.66-.74-1.89-.09-2.68-1-2.7-2.86,0-.85,0-1.72,0-2.57,0-.48-.08-.56-.53-.64a2.41,2.41,0,0,1-2.34-2.77c0-.79,0-1.58,0-2.37a2.3,2.3,0,0,1,2.45-2.5c.83,0,.92-.3.84-1s0-1.14,0-1.71c0-.94.17-1.75-1-2.39-1.51-.79-1.37-5.49,0-6.56a2.94,2.94,0,0,1,1.91-.55c2.83,0,5.65,0,8.48,0a1.37,1.37,0,0,0,1.56-1,55.91,55.91,0,0,1,15.09-21.71c.41-.35.85-.65,1.25-1s1.36-.63,1.46-1.31a6.7,6.7,0,0,0-.14-3.08,17.67,17.67,0,0,0-1.89-3.6,49.55,49.55,0,0,1-3.9-6.64,10.1,10.1,0,0,1-.59-1.94,3.32,3.32,0,0,1,1.8-3.77,3.65,3.65,0,0,1,4.28.52c.69.67,1.3,1.43,2,2.12a2,2,0,0,0,3.19,0c1.08-1.06,1.86-2.46,3.42-3,.39-.13.22-.56.22-.86s-.34-.29-.56-.3c-7.48-.28-12.62-6-13.36-14.19-.12-1.27.16-1.57,1.44-1.44,5.91.62,10.67,3,13.32,8.83A14.63,14.63,0,0,1,612.5,225,16.77,16.77,0,0,1,623,220.63c.78-.07,1.27.21,1.22,1.06-.34,5.4-3,11.58-9.31,13.82a14.69,14.69,0,0,1-4,.77c-.25,0-.63-.14-.64.33s-.14.75.34.9c1.35.44,2.06,1.61,2.95,2.57,1.4,1.5,2.49,1.52,3.86,0,.5-.56,1-1.13,1.52-1.66a3.69,3.69,0,0,1,4.34-.71,3.35,3.35,0,0,1,1.87,3.84,15.31,15.31,0,0,1-2.46,5.42c-1.18,1.92-2.49,3.75-3.53,5.76a8,8,0,0,0-.62,3.87.79.79,0,0,0,.43.69,49.65,49.65,0,0,1,13.52,15.46,4.9,4.9,0,0,0,.33.41c.5-1.67.89-3.3,1.51-4.85a13.91,13.91,0,0,1,2.89-4.85,4,4,0,0,1,6.16,0,15.15,15.15,0,0,1,3.39,6.25,44.35,44.35,0,0,1,1.88,8.68,4.37,4.37,0,0,1-4.1,4.92c-.93.06-1.86,0-2.79,0-.46,0-.72.06-.72.63,0,3.78,0,7.56,0,11.34.31.08.34-.15.42-.28,3.35-5.26,8.42-7.37,14.37-7.88.76-.07,1.2.26,1.16,1-.37,6.1-3.24,13.05-10.39,15.68a12.58,12.58,0,0,1-4.61.87c-.86,0-1,.31-1,1.05.05,1.54,0,3.08,0,4.62,0,.6-.13,1.14-.8,1.16s-.83-.53-.82-1.13c0-1.61,0-3.22,0-4.83,0-.65-.16-.93-.83-.84a1.91,1.91,0,0,1-.86,0c-1.78-.63-2.92.19-4.22,1.4-4.12,3.85-9.26,5.68-14.69,6.79a49.77,49.77,0,0,1-11.1.87c-.76,0-1.38-.13-1.36-1.08.05-.78.64-.87,1.22-.9,1.14-.05,2.28,0,3.42,0a37.41,37.41,0,0,0,17.11-4.12,25,25,0,0,0,4.28-3c.45-.38.69-.8-.06-1.12-2.32-1-3.93-2.8-5.55-4.62a18.86,18.86,0,0,1-3.51-10.19c-.06-1.45.44-2,1.9-1.81a18.44,18.44,0,0,1,5.62,1.28,17.2,17.2,0,0,1,7.21,5,15.93,15.93,0,0,0,1.15,1.41c0-3.24,0-6.38,0-9.52,0-1.48,0-1.48-1.43-1.48h-1.61a4.5,4.5,0,0,1-4.45-4.45,3.48,3.48,0,0,1,0-1.07c.5-1.74-.13-3.19-1-4.64a50,50,0,0,0-12.38-14.23,3.45,3.45,0,0,0-2.18-.73H604.66a19,19,0,0,0-3.11.11,26.3,26.3,0,0,0-6.26,5.3,58.94,58.94,0,0,0-8.69,12.3c-.81,1.51-1.45,3.1-2.17,4.65-.24.53-.1.7.46.69,1.46,0,2.93,0,4.39,0,2.33,0,4.65,0,7,0s3.39,1.07,3.42,3.42c0,.36,0,.72,0,1.08a2.37,2.37,0,0,0,1,2.3c1.31,1,1.41,5.52.28,6.7a2.41,2.41,0,0,1-1.68.85c-.64,0-.87.39-.86,1s0,1,0,1.5a1.4,1.4,0,0,0,1.1,1.67,2.44,2.44,0,0,1,1.68,2.39,19.83,19.83,0,0,1,0,2c-.06.86.23,1.38,1.15,1.42a3.07,3.07,0,0,1,2.28,3.24c0,.71,0,1.43,0,2.14A1.43,1.43,0,0,1,604.08,312.47Z" transform="translate(-538.73 -184.86)"/><path class="cls-7" d="M627,298.84A17.87,17.87,0,0,0,632,303l1.61.82a19.52,19.52,0,0,1-6.11,4.5c-6.14,3-12.7,4-19.47,3.79-.61,0-1.24-.11-1.59.58l-2.32-.24a12.75,12.75,0,0,0,.13-4.31,2.54,2.54,0,0,0-1.89-2.08c.27-.58.82-.53,1.3-.52a52.55,52.55,0,0,0,8.86-.66,26,26,0,0,0,12.34-4.79C625.5,299.6,625.91,298.6,627,298.84Z" transform="translate(-538.73 -184.86)"/><path class="cls-8" d="M591.88,254.66a14.71,14.71,0,0,1-.77,4.42c-.27.88-.74,1.15-1.68.91a13.27,13.27,0,0,1-9.85-11.56,18.89,18.89,0,0,1,.4-6.49c.18-.72.54-1.09,1.3-.79,5.39,2.15,9.36,5.57,10.41,11.6C591.8,253.38,591.82,254,591.88,254.66Z" transform="translate(-538.73 -184.86)"/><path class="cls-8" d="M645.1,240.78c0,6.74-3.73,11.94-9.76,13.66-1.59.46-1.81.34-2.25-1.26-1.7-6.15.81-12.13,6.53-15.56a17.79,17.79,0,0,1,3.46-1.67c1-.34,1.38-.14,1.59.9.15.73.26,1.48.35,2.22C645.08,239.64,645.08,240.21,645.1,240.78Z" transform="translate(-538.73 -184.86)"/><path class="cls-3" d="M627,298.84c-1.37.54-2.25,1.76-3.48,2.53a26,26,0,0,1-6.92,3,49.4,49.4,0,0,1-13.38,1.51,2,2,0,0,0-.92.23c-1.4,0-1.4,0-1.39-1.39,0-.72,0-1.43,0-2.14a2.3,2.3,0,0,0-2.16-2.47c-.55-.07-.72-.22-.69-.77,0-1,0-2.07,0-3.11,0-.49.17-.59.61-.63,2.06-.18,2.65-.85,2.66-2.92,0-.64,0-1.29,0-1.93a2.38,2.38,0,0,0-1.56-2.63c-.45-.17-.44-.46-.43-.83q0-1.39,0-2.79a2.43,2.43,0,0,0-2.7-2.63c-2.53,0-5.06,0-7.6,0-.21-.41,0-.76.16-1.12A59.28,59.28,0,0,1,599,263.53a36.83,36.83,0,0,1,5-4.84,2.21,2.21,0,0,1,.88-.37c3,0,6,0,9,0a1.63,1.63,0,0,1,1.16.41,53.29,53.29,0,0,1,8.72,9.41c3,4.19,5.76,8.48,7.15,13.46a14,14,0,0,1,0,6.86,28.83,28.83,0,0,0-5.73-1.23c-1.51-.12-1.73.08-1.64,1.54A21.07,21.07,0,0,0,627,298.84Z" transform="translate(-538.73 -184.86)"/><path class="cls-3" d="M600.68,241.76c2.05,1.58,3.91,1.44,5.66-.43.54-.57,1-1.17,1.6-1.72a2,2,0,0,1,3,0c.5.5,1,1,1.45,1.56,2,2.18,4.14,2.2,6.14.08a6.52,6.52,0,0,1,.55-.5c.78.09.48.61.39,1a17.52,17.52,0,0,1-2.63,5.45,37,37,0,0,0-3.14,5.32,1.15,1.15,0,0,1-1.3.79c-2-.08-4,.09-6-.09a20.09,20.09,0,0,1-4.65,0c.72-.6,1.57-.27,2.36-.31,1.29-.06,1.33-.06.8-1.26-1.11-2.56-2.64-4.9-3.74-7.46A3.37,3.37,0,0,1,600.68,241.76Z" transform="translate(-538.73 -184.86)"/><path class="cls-7" d="M630.92,288.44a25.33,25.33,0,0,1,0-2.89,14.82,14.82,0,0,0-2-8.29,73.93,73.93,0,0,0-4-7,59.12,59.12,0,0,0-5.84-7.43c-1.4-1.54-3-2.87-4.58-4.29-.24-.23-.53-.16-.81-.16h-9l-.05-.1.09-.07c4,0,8.08,0,12.12,0a2.21,2.21,0,0,1,1.43.6c5.83,4.35,10.12,10,13.65,16.26a3.38,3.38,0,0,1,.1,2.5c-.76,3.62,1.9,6.15,4.86,5.75a7.64,7.64,0,0,1,1.07,0c1.56,0,1.56,0,1.46,1.56-.4.13-.37-.23-.42-.42-.14-.53-.51-.62-1-.64-.91,0-1.1.16-.91,1.05a27.8,27.8,0,0,1,.94,7c0,.45.09.94-.34,1.28A20.05,20.05,0,0,0,630.92,288.44Z" transform="translate(-538.73 -184.86)"/><path class="cls-9" d="M604.71,258.43c-6,4.75-10.12,11-13.34,17.84-.85,1.81-1.6,3.65-2.3,5.52h-5.13c-.17-.16-.05-.33,0-.48A55,55,0,0,1,599.1,260c.71-.6,1.49-1.1,2.24-1.64a19.83,19.83,0,0,1,3.36.07Z" transform="translate(-538.73 -184.86)"/><path class="cls-10" d="M635.66,281.63a2.76,2.76,0,0,1-2-3.37A36.21,36.21,0,0,1,636.73,267a8.49,8.49,0,0,1,1.58-2.27c1.36-1.35,2.77-1.34,4.06.08a15.1,15.1,0,0,1,1,1.37c.17.32,0,.54-.22.75-1.94,1-2.89,2.77-3.75,4.61a22,22,0,0,0-1.81,5.87,6.93,6.93,0,0,0-.42,2c-.09.49-.16,1-.26,1.46C636.77,281.51,636.42,281.89,635.66,281.63Z" transform="translate(-538.73 -184.86)"/><path class="cls-11" d="M576.83,292.62a.92.92,0,0,0,.9-1.08,6,6,0,0,0,0-.85c-.18-1.08.35-1.31,1.27-1.1,2.68.13,5.36,0,8,.05q2.9,0,5.79,0c.58,0,1,.11,1,.76a16.13,16.13,0,0,1,0,2.78c-.06.57-.38.76-1,.76-5.32,0-10.65,0-16,0A.82.82,0,0,1,576.83,292.62Z" transform="translate(-538.73 -184.86)"/><path class="cls-12" d="M643.14,266.77a.83.83,0,0,0,.24-.6,26.28,26.28,0,0,1,3,8.42c.26,1.14.45,2.31.62,3.47.34,2.34-.85,3.69-3.22,3.71l-7.4,0c-.25,0-.51,0-.69-.18.67.1.91-.26,1-.87s.19-1,.28-1.53a1.36,1.36,0,0,1,1.54-1.15,8.23,8.23,0,0,0,.86,0c3-.18,4.18-1.68,3.8-4.64-.19-1.53-.52-3-.82-4.52C642.13,268,642.08,267.18,643.14,266.77Z" transform="translate(-538.73 -184.86)"/><path class="cls-13" d="M600.68,241.76c.6,2.72,2.1,5,3.38,7.46.57,1.07,1.06,2.17,1.57,3.27.28.6.06.76-.52.76-1.1,0-2.21,0-3.31.05-1.48-3.17-3.6-6-5.31-9a10.3,10.3,0,0,1-1.12-2.65,1.89,1.89,0,0,1,.84-2.4,2,2,0,0,1,2.61.43C599.46,240.36,600.06,241.07,600.68,241.76Z" transform="translate(-538.73 -184.86)"/><path class="cls-14" d="M593.13,306c-4.93.1-9.87.09-14.81,0-.5-1.39-1.18-2.75-.65-4.29,5.15-.11,10.31-.1,15.46,0A5.93,5.93,0,0,1,593.13,306Z" transform="translate(-538.73 -184.86)"/><path class="cls-15" d="M596.56,312.09q-7.2,0-14.4.06c-.64,0-1.28,0-1.92,0a7.27,7.27,0,0,1-.61-1.33c.83-.55.56-1.41.53-2.15s.23-1,.9-.87h.22c1.86,0,1.87,0,1.93,1.86,0,.59.12,1.14.82,1.14s.79-.57.81-1.15c0-1.84.06-1.79,1.94-1.87.9,0,1.24.22,1.11,1.12a4.79,4.79,0,0,0,0,1.07.8.8,0,1,0,1.6,0c0-.17,0-.35,0-.53,0-1.64,0-1.65,1.71-1.64l10.71.05c-.15.58-.65.48-1,.5-.89.05-1.78,0-2.67,0-1.21,0-1.25.09-1.31,1.27C596.85,310.44,597.12,311.32,596.56,312.09Z" transform="translate(-538.73 -184.86)"/><path class="cls-16" d="M654.08,289.07c1.24-.36,1.28-.35,1.09.8-.76,4.59-2.54,8.59-6.62,11.22a9.06,9.06,0,0,1-3.71,1.53c-.75-.57-.15-1.28-.2-1.93l3.23-3.25c.45-.44.76-.92.21-1.45s-1-.06-1.36.32-.52.47-.78.71c-.27-.39,0-.67.19-1a14,14,0,0,1,7.48-6.65C653.78,289.32,654.06,289.37,654.08,289.07Z" transform="translate(-538.73 -184.86)"/><path class="cls-7" d="M606.45,253.28c1.78,0,3.58-.11,5.36,0a1.6,1.6,0,0,0,1.85-1.22,21.45,21.45,0,0,1,2.5-4.3,22.66,22.66,0,0,0,3.16-6.29c.09-.34.1-.54-.23-.68a13.66,13.66,0,0,1,1.13-1.27,1.89,1.89,0,0,1,2.36-.3,1.82,1.82,0,0,1,1,2.17,13.09,13.09,0,0,1-1.85,4.06c-1.47,2.48-3.26,4.77-4.37,7.47a.62.62,0,0,1-.62.47C613.28,253.32,609.86,253.54,606.45,253.28Z" transform="translate(-538.73 -184.86)"/><path class="cls-17" d="M630.91,295.8l.85.79c.39.37.8.64,1.28.15s.28-.89-.12-1.29l-3.31-3.29c-.14-.15-.27-.32-.41-.48-.13-.64-.53-1.29,0-1.93,5.39,1.16,10,6.41,10.18,11.81,0,.52.63,1.82-.94,1.52a4.31,4.31,0,0,0-1.39-.47,14.82,14.82,0,0,1-6-5.86C630.88,296.46,630.6,296.18,630.91,295.8Z" transform="translate(-538.73 -184.86)"/><path class="cls-18" d="M591.64,287.83,579,287.9c-.56,0-1.13,0-1.7-.06a4.45,4.45,0,0,1,.44-4.28c.66-.19.92.05.85.74a7.17,7.17,0,0,0,0,1.39.79.79,0,0,0,.81.82c.52,0,.74-.36.82-.82a3.13,3.13,0,0,0,0-.53c0-1.65,0-1.65,1.72-1.65l4.38.05a37,37,0,0,0,4.59.06c.74,0,1.09.27,1.07,1C591.9,285.67,592.24,286.8,591.64,287.83Z" transform="translate(-538.73 -184.86)"/><path class="cls-11" d="M589.73,300l-18.9.06a.63.63,0,0,1-.58-.19c.38-.43.9-.35,1.39-.36,1.35,0,2.7,0,4.06,0,1.1,0,1.18-.12,1.21-1.25.05-2.16.05-2.16-2.12-2.16-1,0-2.07,0-3.1,0-.45,0-.94.06-1.28-.37a44.08,44.08,0,0,1,6-.12c1.86,0,3.72,0,5.58,0,.68,0,.89.21.83.86,0,.49,0,1,0,1.5s.28.91.84.89a.76.76,0,0,0,.76-.87v-.32c.06-2.16.33-2.37,2.53-2.05.43.06.53.25.52.62s0,1,0,1.5.13,1.13.86,1.1.76-.51.78-1.07a7.61,7.61,0,0,1,.09-2c1.32-.12,1.45,0,1.49,1.21,0,.71,0,1.42,0,2.13S590.36,300,589.73,300Z" transform="translate(-538.73 -184.86)"/><path class="cls-17" d="M621.25,222.54c1.31-.4,1.33-.39,1.09.92-.68,3.82-2.26,7.1-5.6,9.32a9.12,9.12,0,0,1-3,1.34,5.71,5.71,0,0,1,.44-3.44,11.74,11.74,0,0,1,7.23-7.93C621.5,222.72,621.28,222.64,621.25,222.54Z" transform="translate(-538.73 -184.86)"/><path class="cls-17" d="M600.2,223.24a11.46,11.46,0,0,1,8.34,9.83c0,.48.44,1.19-.38,1.5a13.91,13.91,0,0,1-2.33-1,8.5,8.5,0,0,1-3.55-3.45,16.12,16.12,0,0,1-2.23-5.73C600,224,599.87,223.57,600.2,223.24Z" transform="translate(-538.73 -184.86)"/><path class="cls-9" d="M621.25,222.54l.78.11a14.62,14.62,0,0,0-4.07,2.49c-2.72,2.36-3.8,5.52-4.22,9a10.51,10.51,0,0,1-2.73.49c-.56,0-.75-.11-.74-.69a10.79,10.79,0,0,1,3.68-8A13.59,13.59,0,0,1,621.25,222.54Z" transform="translate(-538.73 -184.86)"/><path class="cls-19" d="M600.2,223.24a14.9,14.9,0,0,0,2.88,7.43,7.92,7.92,0,0,0,2.92,2.65c.23.14.59.28.44.61-.23.49-.69.35-1.1.24a10.83,10.83,0,0,1-6.92-5.27,16.65,16.65,0,0,1-2-5.82c-.09-.51,0-.84.61-.69A13.46,13.46,0,0,1,600.2,223.24Z" transform="translate(-538.73 -184.86)"/><path class="cls-20" d="M654.08,289.07c.55.21.1.3-.05.39a21.85,21.85,0,0,0-4.13,2.39,13.92,13.92,0,0,0-4,5.17l-4.8,4.65C641.47,295.09,646.73,290.08,654.08,289.07Z" transform="translate(-538.73 -184.86)"/><path class="cls-21" d="M630.91,295.8a14.43,14.43,0,0,0,4,5.14,7.53,7.53,0,0,0,2.2,1.48c.2.52,0,.57-.46.45a11.92,11.92,0,0,1-6.68-3.3,16.15,16.15,0,0,1-4.56-9.07Z" transform="translate(-538.73 -184.86)"/><path class="cls-22" d="M576.85,293.82c5.22,0,10.45,0,15.67,0,.77,0,1.13-.17,1.06-1a12.86,12.86,0,0,1,0-2.15c.07-.78-.27-1-1-.95-4.15,0-8.3,0-12.45,0-.38,0-.79.12-1.14-.15l14.47,0c1.72,0,3.43,0,5.15,0,.83,0,1.17.37,1.16,1.16s0,1.29,0,1.93c.08,1-.38,1.39-1.38,1.38-4.18,0-8.36,0-12.55,0-3,0-6,0-9-.05l-.08-.07Z" transform="translate(-538.73 -184.86)"/><path class="cls-21" d="M570.41,295.71c2,0,3.92.07,5.87,0,.78,0,1,.26,1,1-.09,1,.42,2.24-.17,2.9s-1.88.19-2.87.22c-1.31,0-2.63,0-4,0C569.63,298.92,569.73,296.35,570.41,295.71Z" transform="translate(-538.73 -184.86)"/><path class="cls-23" d="M591.64,287.83c0-1.1,0-2.2,0-3.3,0-.61-.23-.82-.82-.8-1.17,0-2.35,0-3.52,0-.34,0-.72.12-1-.17,3.5,0,7,0,10.48-.05a.92.92,0,0,1,1,1c.35,3.32.26,3.43-3.06,3.42C593.7,287.89,592.67,287.85,591.64,287.83Z" transform="translate(-538.73 -184.86)"/><path class="cls-24" d="M609.34,256.65c-2.22,0-4.43,0-6.65,0-.73,0-.79-.3-.79-.9s.13-.81.77-.8q6.75,0,13.5,0c.72,0,.8.3.8.9s-.14.81-.78.8c-2.28,0-4.57,0-6.85,0Z" transform="translate(-538.73 -184.86)"/><path class="cls-25" d="M596.56,312.09c0-1.1,0-2.21,0-3.31,0-.61.22-.81.81-.8,1.18,0,2.35,0,3.53,0,.34,0,.72.11,1-.18.13,0,.3,0,.38.11a7.49,7.49,0,0,1,.14,3.93.88.88,0,0,1-.76.3Z" transform="translate(-538.73 -184.86)"/><path class="cls-26" d="M589.73,300a.86.86,0,0,0,.62-1,12.39,12.39,0,0,1,0-2c.09-.91-.16-1.43-1.18-1.3a7.9,7.9,0,0,1,2.52-.11c.4,0,.43.28.42.58,0,.47,0,.93,0,1.39s0,1.23.85,1.21.81-.57.79-1.16c0-.17,0-.35,0-.53,0-1.5.5-1.87,2-1.48a.82.82,0,0,1,.69.71,3.31,3.31,0,0,1,.06.53c0,3.56.32,3.21-3,3.18Z" transform="translate(-538.73 -184.86)"/><path class="cls-9" d="M577.67,301.76a12.61,12.61,0,0,0,.73,3.79c.05.15,0,.33-.08.5l-4.6.05c-.71,0-1-.36-1-1.08.06-3.83-.51-3.28,3.14-3.33C576.46,301.68,577.07,301.73,577.67,301.76Z" transform="translate(-538.73 -184.86)"/><path class="cls-27" d="M637.74,293.13a25,25,0,0,0-1-8.64c-.21-.82-.06-1.13.79-1h.21c1.53,0,1.53,0,1.74,1.42v10.76Z" transform="translate(-538.73 -184.86)"/><path class="cls-28" d="M593.13,306v-4.29c.51-.15.84-.05.81.58s0,1,0,1.5a.76.76,0,0,0,.76.86c.5,0,.77-.3.82-.8,0,0,0-.07,0-.11.08-.66-.32-1.65.18-1.92.82-.44,1.89-.15,2.85-.13.58,0,.76.46.77,1,0,.79,0,1.57,0,2.36a.92.92,0,0,1-1.06,1Z" transform="translate(-538.73 -184.86)"/><path class="cls-29" d="M577.69,283.56a13.74,13.74,0,0,0-.44,4.28l-5.23.06c-.58,0-.83-.34-.84-.89,0-.86,0-1.71,0-2.57.06-1.39,1.15-.8,1.86-.93s.82.39.8,1a9.26,9.26,0,0,0,0,1.29.76.76,0,0,0,.77.74.79.79,0,0,0,.86-.76c0-.11,0-.22,0-.32C575.59,283.41,575.59,283.41,577.69,283.56Z" transform="translate(-538.73 -184.86)"/><path class="cls-20" d="M576.83,292.62c0,.4,0,.8,0,1.2l-.05,0a13.65,13.65,0,0,1-3.13,0c-.48-.14-.51-.53-.51-.94,0-.64,0-1.28,0-1.93,0-.48-.14-1.08.45-1.31a3.83,3.83,0,0,1,2.32,0c.4.11.14.77.18,1.18C576.18,291.49,575.87,292.3,576.83,292.62Z" transform="translate(-538.73 -184.86)"/><path class="cls-29" d="M579.63,310.77c.65.24.65.77.61,1.33-1.1,0-2.2,0-3.3,0a.84.84,0,0,1-.92-.94c0-.86,0-1.72,0-2.57.11-1.23,1.1-.8,1.82-.89s.63.5.69,1C578.63,309.53,578.07,310.72,579.63,310.77Z" transform="translate(-538.73 -184.86)"/><path class="cls-30" d="M629.2,289.75c-.18.64.39,1.29,0,1.93L627,289.53c-.09-.1-.17-.22-.32-.42A6.83,6.83,0,0,1,629.2,289.75Z" transform="translate(-538.73 -184.86)"/><path class="cls-31" d="M644.64,300.69c.59.59-.25,1.33.2,1.93a5.77,5.77,0,0,1-2.55.42Z" transform="translate(-538.73 -184.86)"/><path class="cls-32" d="M605.34,234.17c.42-.13,1.46.22.66-.85a13.32,13.32,0,0,1,2.16,1.25A6.13,6.13,0,0,1,605.34,234.17Z" transform="translate(-538.73 -184.86)"/><path class="cls-33" d="M636.67,302.87c.23-.07.47-.13.46-.45a1.34,1.34,0,0,1,1.31.66A3.67,3.67,0,0,1,636.67,302.87Z" transform="translate(-538.73 -184.86)"/><path class="cls-34" d="M604.7,258.4l-3.36-.07a16.19,16.19,0,0,1,3.41-.07A.78.78,0,0,1,604.7,258.4Z" transform="translate(-538.73 -184.86)"/><path class="cls-11" d="M573.67,293.86h3.13a.69.69,0,0,1,0,.1A9.39,9.39,0,0,1,573.67,293.86Z" transform="translate(-538.73 -184.86)"/><path class="cls-35" d="M589.74,257.77c-.11.79-.58.42-.94.28a11.33,11.33,0,0,1-7.45-9,17.26,17.26,0,0,1-.06-5.32c.09-.74.35-.69.89-.43a16.46,16.46,0,0,1,2.57,1.64,2.14,2.14,0,0,1,.29,1.54,12.5,12.5,0,0,0,4,9.66C589.47,256.56,590,257,589.74,257.77Z" transform="translate(-538.73 -184.86)"/><path class="cls-36" d="M589.74,257.77a1.22,1.22,0,0,0-.43-.93c-3.69-3.14-4.83-7.25-4.56-11.91A11.41,11.41,0,0,1,589.74,257.77Z" transform="translate(-538.73 -184.86)"/><path class="cls-9" d="M638,251.3a6.24,6.24,0,0,1-2.77,1.46c-.63.23-.61-.32-.68-.67a11.31,11.31,0,0,1,3.33-11,17,17,0,0,1,4.39-3c.61-.3,1.08-.48.91.53,0,.24.29.42.17.69a23.46,23.46,0,0,0-3,3.26,12.46,12.46,0,0,0-2.2,7.84C638.11,250.7,638.26,251,638,251.3Z" transform="translate(-538.73 -184.86)"/><path class="cls-17" d="M638,251.3a11.48,11.48,0,0,1,1.91-8.61,8.23,8.23,0,0,1,3.44-3.4c.41,4.54-.68,8.5-4.36,11.48C638.68,251,638.43,251.37,638,251.3Z" transform="translate(-538.73 -184.86)"/><path class="cls-37" d="M609.38,279.61c-.64,0-1.29,0-1.93,0a3.91,3.91,0,0,1-4-3.92c0-1,0-1.93,0-2.9a3.85,3.85,0,0,1,3.85-3.82c1,0,1.47-.17,1.3-1.27-.09-.59,0-1.26.77-1.27s1,.66.87,1.31c-.13,1,.27,1.23,1.23,1.23a4,4,0,0,1,3.91,4.52c-.06.51-.24.95-.81,1s-.81-.43-.86-1c-.19-2.31-.77-2.85-3.06-2.85-1.11,0-2.22,0-3.32,0a2.17,2.17,0,0,0-2.2,2.16c0,1,0,1.94,0,2.9a2.2,2.2,0,0,0,2.32,2.27c1.29,0,2.58,0,3.87,0a3.9,3.9,0,0,1,4,4,22.91,22.91,0,0,1-.06,3.21,3.77,3.77,0,0,1-3.83,3.47c-.92,0-1.39.17-1.24,1.21.1.64,0,1.33-.86,1.31s-.86-.69-.77-1.28c.15-1-.24-1.24-1.21-1.24a4,4,0,0,1-3.94-4.6c.06-.52.29-.9.86-.89s.75.43.8.95c.25,2.45.76,2.9,3.23,2.91h2.9a2.3,2.3,0,0,0,2.48-2.47c0-.86,0-1.72,0-2.57a2.23,2.23,0,0,0-2.3-2.31c-.68,0-1.36,0-2,0Z" transform="translate(-538.73 -184.86)"/><path class="cls-17" d="M643.14,266.77a2,2,0,0,0-.53,2.21c.38,1.7.71,3.41.94,5.13.34,2.48-1.46,4.23-4.3,4.25-.9,0-1.81-.12-2.32.87a34.09,34.09,0,0,1,1.09-4.78,20.15,20.15,0,0,1,2-4.66C640.71,268.5,641.51,267.17,643.14,266.77Z" transform="translate(-538.73 -184.86)"/></svg>