<svg id="Layer_1" data-name="Layer 1" xmlns="http://www.w3.org/2000/svg" viewBox="0 0 68.1 68.1"><defs><style>.cls-1{fill:#fe7d7d;}</style></defs><g id="money"><path id="Rectangle_765" data-name="Rectangle 765" class="cls-1" d="M29,10.29H40a14,14,0,0,1,14,14h0v16H15v-16A14,14,0,0,1,29,10.29Z"/><g id="money-bag"><path id="Path_3403" data-name="Path 3403" d="M54.48,39.72V23.83a14.73,14.73,0,0,0-13-14.64l3.78-7.55a1.13,1.13,0,0,0-.5-1.52A1.17,1.17,0,0,0,44.26,0H23.83A1.14,1.14,0,0,0,22.7,1.14a1.11,1.11,0,0,0,.12.5L26.6,9.19a14.78,14.78,0,0,0-13,14.64V44.26h2.27V23.83A12.5,12.5,0,0,1,28.37,11.35H39.72A12.46,12.46,0,0,1,52.2,23.8V39.72ZM39,9.08h-10l-3.4-6.81H42.43Z"/><path id="Path_3404" data-name="Path 3404" d="M24.4,17a7.53,7.53,0,0,1,2-.82l-.57-2.2A10,10,0,0,0,23.26,15Z"/><path id="Path_3405" data-name="Path 3405" d="M18.16,28.37h2.27V23.83a7.91,7.91,0,0,1,2.41-5.7l-1.58-1.62a10.1,10.1,0,0,0-3.1,7.32Z"/><path id="Path_3406" data-name="Path 3406" d="M3.24,55.78,22.5,66.29a14.74,14.74,0,0,0,7.08,1.81H67A1.14,1.14,0,0,0,68.1,67h0V46.53A1.14,1.14,0,0,0,67,45.4H58.28l-.13-.1a18.19,18.19,0,0,0-4.38-2.52A18.42,18.42,0,0,0,37,44.26H28.37a5.67,5.67,0,0,0-5.67,5.68,5.79,5.79,0,0,0,.26,1.7l-14-7a6.07,6.07,0,0,0-6.43.61,6.25,6.25,0,0,0-2.5,5v.13A6.18,6.18,0,0,0,3.24,55.78ZM59,47.67h6.81V65.83H59ZM2.27,50.21A4,4,0,0,1,3.91,47a3.81,3.81,0,0,1,4-.36L25.6,55.49a1.13,1.13,0,0,0,.51.12h17V53.34H28.37a3.41,3.41,0,0,1,0-6.81h9a1.12,1.12,0,0,0,.62-.18,16.12,16.12,0,0,1,15-1.46,15.68,15.68,0,0,1,3.83,2.2V65.83H29.58a12.55,12.55,0,0,1-6-1.53L4.32,53.78a3.9,3.9,0,0,1-2.05-3.45Z"/><path id="Path_3407" data-name="Path 3407" d="M61.29,60.15h2.27v2.27H61.29Z"/><path id="Path_3408" data-name="Path 3408" d="M35.18,39.72V37.45h1.14a4.54,4.54,0,1,0,0-9.08H31.78a2.27,2.27,0,0,1,0-4.54h7.94V21.56H35.18V19.29H32.91v2.27H31.78a4.54,4.54,0,0,0,0,9.08h4.54a2.27,2.27,0,0,1,0,4.54h-8v2.27h4.54v2.27Z"/><path id="Path_3430" data-name="Path 3430" d="M3.24,55.78,22.5,66.29a14.74,14.74,0,0,0,7.08,1.81H67A1.14,1.14,0,0,0,68.1,67h0V46.53A1.14,1.14,0,0,0,67,45.4H58.28l-.13-.1a18.19,18.19,0,0,0-4.38-2.52A18.42,18.42,0,0,0,37,44.26H28.37a5.67,5.67,0,0,0-5.67,5.68,5.79,5.79,0,0,0,.26,1.7l-14-7a6.07,6.07,0,0,0-6.43.61,6.25,6.25,0,0,0-2.5,5v.13A6.18,6.18,0,0,0,3.24,55.78ZM59,47.67h6.81V65.83H59ZM2.27,50.21A4,4,0,0,1,3.91,47a3.81,3.81,0,0,1,4-.36L25.6,55.49a1.13,1.13,0,0,0,.51.12h17V53.34H28.37a3.41,3.41,0,0,1,0-6.81h9a1.12,1.12,0,0,0,.62-.18,16.12,16.12,0,0,1,15-1.46,15.68,15.68,0,0,1,3.83,2.2V65.83H29.58a12.55,12.55,0,0,1-6-1.53L4.32,53.78a3.9,3.9,0,0,1-2.05-3.45Z"/><path id="Path_3431" data-name="Path 3431" d="M3.24,55.78,22.5,66.29a14.74,14.74,0,0,0,7.08,1.81H67A1.14,1.14,0,0,0,68.1,67h0V46.53A1.14,1.14,0,0,0,67,45.4H58.28l-.13-.1a18.19,18.19,0,0,0-4.38-2.52A18.42,18.42,0,0,0,37,44.26H28.37a5.67,5.67,0,0,0-5.67,5.68,5.79,5.79,0,0,0,.26,1.7l-14-7a6.07,6.07,0,0,0-6.43.61,6.25,6.25,0,0,0-2.5,5v.13A6.18,6.18,0,0,0,3.24,55.78ZM59,47.67h6.81V65.83H59ZM2.27,50.21A4,4,0,0,1,3.91,47a3.81,3.81,0,0,1,4-.36L25.6,55.49a1.13,1.13,0,0,0,.51.12h17V53.34H28.37a3.41,3.41,0,0,1,0-6.81h9a1.12,1.12,0,0,0,.62-.18,16.12,16.12,0,0,1,15-1.46,15.68,15.68,0,0,1,3.83,2.2V65.83H29.58a12.55,12.55,0,0,1-6-1.53L4.32,53.78a3.9,3.9,0,0,1-2.05-3.45Z"/></g></g></svg>