<svg id="Layer_1" data-name="Layer 1" xmlns="http://www.w3.org/2000/svg" viewBox="0 0 205.7 175.4"><defs><style>.cls-1{fill:#1ba78c;}.cls-2{fill:#fff;}</style></defs><g id="Group_2413" data-name="Group 2413"><g id="Group_2407" data-name="Group 2407"><circle id="Ellipse_10" data-name="Ellipse 10" class="cls-1" cx="85.3" cy="85.3" r="85.3"/></g><g id="Group_2412" data-name="Group 2412"><g id="Group_2408" data-name="Group 2408"><path id="Path_34" data-name="Path 34" class="cls-2" d="M118.71,110.22a21.73,21.73,0,0,1-18.4-10.1h0a21.82,21.82,0,1,1,30.1,6.8A23.24,23.24,0,0,1,118.71,110.22Zm-16.3-11.5a19.28,19.28,0,1,0,6-26.6h0A19.28,19.28,0,0,0,102.41,98.72Z"/></g><g id="Group_2409" data-name="Group 2409"><path id="Path_35" data-name="Path 35" class="cls-2" d="M141.14,124l-1.3-2.1a39.53,39.53,0,1,0-54.6-12.2l-2.1,1.3a42.07,42.07,0,1,1,58,13Z"/></g><g id="Group_2410" data-name="Group 2410"><path id="Path_36" data-name="Path 36" class="cls-2" d="M118.87,157.89a69.45,69.45,0,1,1,58.5-106.5l-2.1,1.3a66.94,66.94,0,1,0-42.8,101.2l.5,2.4A60.38,60.38,0,0,1,118.87,157.89Z"/></g><g id="Group_2411" data-name="Group 2411"><path id="Path_37" data-name="Path 37" class="cls-2" d="M118.8,175.4A87,87,0,0,1,31.7,88.6c0-1.7,0-3.5.1-5.2l2.5.1A84.41,84.41,0,1,0,73.5,16.9l-1.3-2.1a87,87,0,0,1,93,147A86,86,0,0,1,118.8,175.4Z"/></g></g></g></svg>