<?xml version="1.0" encoding="utf-8"?>
<!-- Generator: Adobe Illustrator 26.0.0, SVG Export Plug-In . SVG Version: 6.00 Build 0)  -->
<svg version="1.1" id="prototype" xmlns="http://www.w3.org/2000/svg" xmlns:xlink="http://www.w3.org/1999/xlink" x="0px" y="0px"
	 viewBox="0 0 360.9 360.9" style="enable-background:new 0 0 360.9 360.9;" xml:space="preserve">
<style type="text/css">
	.st0{fill:#404040;}
</style>
<g id="Group_313">
	<path id="Path_477-2" class="st0" d="M329.2,43H308c-5.8,0-10.6,4.7-10.6,10.6v31.7h-85.3V31.7C212.2,14.2,198,0,180.4,0
		s-31.7,14.2-31.7,31.7v53.6H63.4V53.6c0-5.8-4.7-10.6-10.6-10.6H31.7C14.2,43,0,57.2,0,74.7v254.4c0,17.5,14.2,31.7,31.7,31.7
		h297.4c17.5,0,31.7-14.2,31.7-31.7V74.7C360.9,57.2,346.7,43,329.2,43z M318.6,64.1h10.6c5.8,0,10.6,4.7,10.6,10.6v224.5
		c-3.4-1.2-7-1.8-10.6-1.8h-10.6V64.1z M169.9,31.7c0-5.8,4.7-10.6,10.6-10.6c5.8,0,10.6,4.7,10.6,10.6v10.6h-21.1V31.7z
		 M180.4,231.9l-44.4-29.6l44.4-29.6l44.4,29.6L180.4,231.9z M233.3,222v38L191,288.3v-38L233.3,222z M169.9,250.2v38l-42.3-28.2
		v-38L169.9,250.2z M169.9,63.4H191v52.8l-10.6,20.6l-10.6-20.6V63.4z M21.1,74.7c0-5.8,4.7-10.6,10.6-10.6h10.6v233.3H31.7
		c-3.6,0-7.2,0.6-10.6,1.8L21.1,74.7z M329.2,339.7H31.7c-5.8,0.1-10.6-4.6-10.7-10.5c-0.1-5.8,4.6-10.6,10.5-10.7
		c0.1,0,0.1,0,0.2,0h21.1c5.8,0,10.6-4.7,10.6-10.6V106.4h85.3v12.3c0,1.7,0.4,3.3,1.2,4.8l16.8,32.8l-55.6,37.1
		c-0.1,0-0.1,0.1-0.2,0.1c-2.8,2-4.5,5.2-4.5,8.7v63.4c0,3.5,1.8,6.8,4.7,8.8l63.4,42.3c0,0,0.1,0,0.1,0.1c3.5,2.3,8,2.3,11.5,0
		c0,0,0.1,0,0.1-0.1l63.4-42.3c2.9-2,4.7-5.3,4.7-8.8v-63.4c0-3.5-1.8-6.8-4.7-8.8l-55.6-37.1l16.8-32.8c0.8-1.5,1.2-3.1,1.2-4.8
		v-12.3h85.3V308c0,5.8,4.7,10.6,10.6,10.6h21.1c5.8-0.1,10.6,4.6,10.7,10.5c0.1,5.8-4.6,10.6-10.5,10.7
		C329.3,339.7,329.2,339.7,329.2,339.7L329.2,339.7z"/>
</g>
</svg>
