<svg xmlns="http://www.w3.org/2000/svg" viewBox="0 0 32.6 31.6"><defs><style>.cls-1{fill:#404040;}</style></defs><g id="Layer_2" data-name="Layer 2"><g id="Layer_1-2" data-name="Layer 1"><g id="Group_313" data-name="Group 313"><path id="Path_477" data-name="Path 477" class="cls-1" d="M26.4,3.5H24.7a.79.79,0,0,0-.8.8V6.9H17V2.6A2.5,2.5,0,0,0,14.5,0a2.58,2.58,0,0,0-2.6,2.6V6.9H5.1V4.3a.79.79,0,0,0-.8-.8H2.6A2.5,2.5,0,0,0,0,6V26.4A2.5,2.5,0,0,0,2.5,29H26.4A2.56,2.56,0,0,0,29,26.5h0V6A2.5,2.5,0,0,0,26.4,3.5Zm-.8,1.7h.8a.88.88,0,0,1,.9.8V24a2.49,2.49,0,0,0-.8-.1h-.9Zm-12-2.7a.79.79,0,0,1,.8-.8.88.88,0,0,1,.9.8v.9H13.6V2.5Zm.9,16.1-3.6-2.4,3.6-2.4,3.6,2.4Zm4.2-.8v3.1l-3.4,2.3V20.1Zm-5.1,2.3v3.1l-3.4-2.3V17.8Zm0-15h1.7V9.3L14.5,11l-.8-1.7ZM1.7,6a.79.79,0,0,1,.8-.8h.9V23.9H2.5a2,2,0,0,0-.8.1ZM26.4,27.3H2.5a.9.9,0,0,1,0-1.8H4.2a.79.79,0,0,0,.8-.8V8.6h6.9v1a.6.6,0,0,0,.1.4l1.4,2.6-4.5,3h0a1,1,0,0,0-.4.7v5.1a.75.75,0,0,0,.4.7L14,25.5h0a.75.75,0,0,0,.9,0h0L20,22.1a1,1,0,0,0,.4-.7V16.3a.75.75,0,0,0-.4-.7l-4.5-3L17,9.9V8.5h6.9V24.7a.79.79,0,0,0,.8.8h1.7a.9.9,0,0,1,0,1.8Z"/></g><circle id="Ellipse_126-12" data-name="Ellipse 126-12" class="cls-1" cx="2.4" cy="1.4" r="1.4"/><circle id="Ellipse_127-16" data-name="Ellipse 127-16" class="cls-1" cx="29.3" cy="29.6" r="1.4"/><circle id="Ellipse_128-16" data-name="Ellipse 128-16" class="cls-1" cx="32" cy="31" r="0.6"/></g></g></svg>