<?xml version="1.0" encoding="utf-8"?>
<!-- Generator: Adobe Illustrator 25.2.1, SVG Export Plug-In . SVG Version: 6.00 Build 0)  -->
<svg version="1.1" id="Layer_1" xmlns="http://www.w3.org/2000/svg" xmlns:xlink="http://www.w3.org/1999/xlink" x="0px" y="0px"
	 viewBox="0 0 259.41 547.95" style="enable-background:new 0 0 259.41 547.95;" xml:space="preserve">
<style type="text/css">
	.st0{opacity:0.5;fill:#A9F3C0;}
	.st1{fill:#FFFFFF;stroke:#FFFFFF;stroke-width:5.5993;stroke-linecap:round;stroke-linejoin:round;stroke-miterlimit:10;}
	.st2{fill:none;stroke:#FFFFFF;stroke-width:5.5993;stroke-linecap:round;stroke-linejoin:round;stroke-miterlimit:10;}
	.st3{fill:none;stroke:#A9F3C0;stroke-width:7.1712;stroke-linecap:round;stroke-linejoin:round;stroke-miterlimit:10;}
</style>
<g>
	<path class="st0" d="M255.83,386.29c-5.01-9.72-11.45-16.34-19.5-22.3c-7.8-23.2-26.7-204.96-35.9-249.08
		c2.44-0.66,15.41-5.57,24.72-11.34c0.76-1.4,0.34-86.8,0.14-86.92c-4.88-2.79-16.02-13.07-95.59-13.07
		c-69.37,0-90.45,10.29-95.59,13.07c-0.2,0.11-0.66,85.55,0.14,86.92c9.28,5.45,24.72,11.34,24.72,11.34
		c-9.19,44.12-28.09,225.87-35.9,249.08c-8.05,5.96-14.49,12.58-19.5,22.3c0,0.14,0,109.81,0,109.81
		c0,12.64,20.96,48.07,125.67,48.26c0.02,0,0.03,0,0.05,0c0.14,0,0.27,0,0.4,0c0.14,0,0.27,0,0.4,0c0.02,0,0.03,0,0.05,0
		c104.71-0.19,125.67-35.62,125.67-48.26C255.83,496.1,255.83,386.43,255.83,386.29z"/>
	<path class="st1" d="M205.78,404.45c13.99-2.42,37.19-7.49,50.05-16.15"/>
	<path class="st1" d="M210.14,374.07c9.3-2.67,18.5-6.14,25.02-10.54"/>
	<path class="st2" d="M73.57,404.29c-18.39-0.96-58.12-8.99-68.72-15.83"/>
	<path class="st2" d="M53.85,373.91c-13.01-2.96-24.84-7.08-29.96-10.38"/>
	<path class="st2" d="M69.73,376.91c-3.49-0.54-7.06-1.16-10.6-1.86"/>
	<path class="st2" d="M35.31,18.17c0,0,23.35,10.58,69.91,10.45"/>
	<path class="st2" d="M195.8,26.67c11.2-2.47,21.95-6.32,29.49-10.02"/>
	<path class="st2" d="M150.89,109.94c0,0,19.7,0.9,34.47-1.79"/>
	<line class="st2" x1="71.85" y1="131.2" x2="53.75" y2="273.97"/>
	<path class="st3" d="M255.83,386.29c-5.01-9.72-11.45-16.34-19.5-22.3c-7.8-23.2-26.7-204.96-35.9-249.08
		c2.44-0.66,15.41-5.57,24.72-11.34c0.76-1.4,0.34-86.8,0.14-86.92c-4.88-2.79-16.02-13.07-95.59-13.07
		c-69.37,0-90.45,10.29-95.59,13.07c-0.2,0.11-0.66,85.55,0.14,86.92c9.28,5.45,24.72,11.34,24.72,11.34
		c-9.19,44.12-28.09,225.87-35.9,249.08c-8.05,5.96-14.49,12.58-19.5,22.3c0,0.14,0,109.81,0,109.81
		c0,12.64,20.96,48.07,125.67,48.26c0.02,0,0.03,0,0.05,0c0.14,0,0.27,0,0.4,0c0.14,0,0.27,0,0.4,0c0.02,0,0.03,0,0.05,0
		c104.71-0.19,125.67-35.62,125.67-48.26C255.83,496.1,255.83,386.43,255.83,386.29z"/>
</g>
</svg>
