<?xml version="1.0" encoding="utf-8"?>
<!-- Generator: Adobe Illustrator 25.2.1, SVG Export Plug-In . SVG Version: 6.00 Build 0)  -->
<svg version="1.1" id="Layer_1" xmlns="http://www.w3.org/2000/svg" xmlns:xlink="http://www.w3.org/1999/xlink" x="0px" y="0px"
	 viewBox="0 0 50.67 57.54" style="enable-background:new 0 0 50.67 57.54;" xml:space="preserve">
<style type="text/css">
	.st0{fill:#808080;}
</style>
<g>
	<path class="st0" d="M49.38,2.58c-0.71,0-1.29-0.58-1.29-1.29C48.1,0.58,48.67,0,49.38,0c0.71,0,1.29,0.58,1.29,1.29
		C50.67,2,50.09,2.58,49.38,2.58"/>
	<path class="st0" d="M49.38,9.45c-0.71,0-1.29-0.58-1.29-1.29c0-0.71,0.58-1.29,1.29-1.29c0.71,0,1.29,0.58,1.29,1.29
		C50.67,8.87,50.09,9.45,49.38,9.45"/>
	<path class="st0" d="M49.38,16.32c-0.71,0-1.29-0.58-1.29-1.29c0-0.71,0.58-1.29,1.29-1.29c0.71,0,1.29,0.58,1.29,1.29
		C50.67,15.74,50.09,16.32,49.38,16.32"/>
	<path class="st0" d="M49.38,23.19c-0.71,0-1.29-0.58-1.29-1.29c0-0.71,0.58-1.29,1.29-1.29c0.71,0,1.29,0.58,1.29,1.29
		C50.67,22.61,50.09,23.19,49.38,23.19"/>
	<path class="st0" d="M49.38,30.06c-0.71,0-1.29-0.58-1.29-1.29c0-0.71,0.58-1.29,1.29-1.29c0.71,0,1.29,0.58,1.29,1.29
		C50.67,29.48,50.09,30.06,49.38,30.06"/>
	<path class="st0" d="M49.38,36.93c-0.71,0-1.29-0.58-1.29-1.29c0-0.71,0.58-1.29,1.29-1.29c0.71,0,1.29,0.58,1.29,1.29
		C50.67,36.35,50.09,36.93,49.38,36.93"/>
	<path class="st0" d="M49.38,43.8c-0.71,0-1.29-0.58-1.29-1.29c0-0.71,0.58-1.29,1.29-1.29c0.71,0,1.29,0.58,1.29,1.29
		C50.67,43.22,50.09,43.8,49.38,43.8"/>
	<path class="st0" d="M49.38,50.67c-0.71,0-1.29-0.58-1.29-1.29c0-0.71,0.58-1.29,1.29-1.29c0.71,0,1.29,0.58,1.29,1.29
		C50.67,50.1,50.09,50.67,49.38,50.67"/>
	<path class="st0" d="M42.51,2.58c-0.71,0-1.29-0.58-1.29-1.29C41.22,0.58,41.8,0,42.51,0c0.71,0,1.29,0.58,1.29,1.29
		C43.8,2,43.22,2.58,42.51,2.58"/>
	<path class="st0" d="M42.51,9.45c-0.71,0-1.29-0.58-1.29-1.29c0-0.71,0.58-1.29,1.29-1.29c0.71,0,1.29,0.58,1.29,1.29
		C43.8,8.87,43.22,9.45,42.51,9.45"/>
	<path class="st0" d="M42.51,16.32c-0.71,0-1.29-0.58-1.29-1.29c0-0.71,0.58-1.29,1.29-1.29c0.71,0,1.29,0.58,1.29,1.29
		C43.8,15.74,43.22,16.32,42.51,16.32"/>
	<path class="st0" d="M42.51,23.19c-0.71,0-1.29-0.58-1.29-1.29c0-0.71,0.58-1.29,1.29-1.29c0.71,0,1.29,0.58,1.29,1.29
		C43.8,22.61,43.22,23.19,42.51,23.19"/>
	<path class="st0" d="M42.51,30.06c-0.71,0-1.29-0.58-1.29-1.29c0-0.71,0.58-1.29,1.29-1.29c0.71,0,1.29,0.58,1.29,1.29
		C43.8,29.48,43.22,30.06,42.51,30.06"/>
	<path class="st0" d="M42.51,36.93c-0.71,0-1.29-0.58-1.29-1.29c0-0.71,0.58-1.29,1.29-1.29c0.71,0,1.29,0.58,1.29,1.29
		C43.8,36.35,43.22,36.93,42.51,36.93"/>
	<path class="st0" d="M42.51,43.8c-0.71,0-1.29-0.58-1.29-1.29c0-0.71,0.58-1.29,1.29-1.29c0.71,0,1.29,0.58,1.29,1.29
		C43.8,43.22,43.22,43.8,42.51,43.8"/>
	<path class="st0" d="M42.51,50.67c-0.71,0-1.29-0.58-1.29-1.29c0-0.71,0.58-1.29,1.29-1.29c0.71,0,1.29,0.58,1.29,1.29
		C43.8,50.1,43.22,50.67,42.51,50.67"/>
	<path class="st0" d="M35.64,2.58c-0.71,0-1.29-0.58-1.29-1.29c0-0.71,0.58-1.29,1.29-1.29c0.71,0,1.29,0.58,1.29,1.29
		C36.93,2,36.35,2.58,35.64,2.58"/>
	<path class="st0" d="M35.64,9.45c-0.71,0-1.29-0.58-1.29-1.29c0-0.71,0.58-1.29,1.29-1.29c0.71,0,1.29,0.58,1.29,1.29
		C36.93,8.87,36.35,9.45,35.64,9.45"/>
	<path class="st0" d="M35.64,16.32c-0.71,0-1.29-0.58-1.29-1.29c0-0.71,0.58-1.29,1.29-1.29c0.71,0,1.29,0.58,1.29,1.29
		C36.93,15.74,36.35,16.32,35.64,16.32"/>
	<path class="st0" d="M35.64,23.19c-0.71,0-1.29-0.58-1.29-1.29c0-0.71,0.58-1.29,1.29-1.29c0.71,0,1.29,0.58,1.29,1.29
		C36.93,22.61,36.35,23.19,35.64,23.19"/>
	<path class="st0" d="M35.64,30.06c-0.71,0-1.29-0.58-1.29-1.29c0-0.71,0.58-1.29,1.29-1.29c0.71,0,1.29,0.58,1.29,1.29
		C36.93,29.48,36.35,30.06,35.64,30.06"/>
	<path class="st0" d="M35.64,36.93c-0.71,0-1.29-0.58-1.29-1.29c0-0.71,0.58-1.29,1.29-1.29c0.71,0,1.29,0.58,1.29,1.29
		C36.93,36.35,36.35,36.93,35.64,36.93"/>
	<path class="st0" d="M35.64,43.8c-0.71,0-1.29-0.58-1.29-1.29c0-0.71,0.58-1.29,1.29-1.29c0.71,0,1.29,0.58,1.29,1.29
		C36.93,43.22,36.35,43.8,35.64,43.8"/>
	<path class="st0" d="M35.64,50.67c-0.71,0-1.29-0.58-1.29-1.29c0-0.71,0.58-1.29,1.29-1.29c0.71,0,1.29,0.58,1.29,1.29
		C36.93,50.1,36.35,50.67,35.64,50.67"/>
	<path class="st0" d="M28.77,2.58c-0.71,0-1.29-0.58-1.29-1.29c0-0.71,0.58-1.29,1.29-1.29c0.71,0,1.29,0.58,1.29,1.29
		C30.06,2,29.48,2.58,28.77,2.58"/>
	<path class="st0" d="M28.77,9.45c-0.71,0-1.29-0.58-1.29-1.29c0-0.71,0.58-1.29,1.29-1.29c0.71,0,1.29,0.58,1.29,1.29
		C30.06,8.87,29.48,9.45,28.77,9.45"/>
	<path class="st0" d="M28.77,16.32c-0.71,0-1.29-0.58-1.29-1.29c0-0.71,0.58-1.29,1.29-1.29c0.71,0,1.29,0.58,1.29,1.29
		C30.06,15.74,29.48,16.32,28.77,16.32"/>
	<path class="st0" d="M28.77,23.19c-0.71,0-1.29-0.58-1.29-1.29c0-0.71,0.58-1.29,1.29-1.29c0.71,0,1.29,0.58,1.29,1.29
		C30.06,22.61,29.48,23.19,28.77,23.19"/>
	<path class="st0" d="M28.77,30.06c-0.71,0-1.29-0.58-1.29-1.29c0-0.71,0.58-1.29,1.29-1.29c0.71,0,1.29,0.58,1.29,1.29
		C30.06,29.48,29.48,30.06,28.77,30.06"/>
	<path class="st0" d="M28.77,36.93c-0.71,0-1.29-0.58-1.29-1.29c0-0.71,0.58-1.29,1.29-1.29c0.71,0,1.29,0.58,1.29,1.29
		C30.06,36.35,29.48,36.93,28.77,36.93"/>
	<path class="st0" d="M28.77,43.8c-0.71,0-1.29-0.58-1.29-1.29c0-0.71,0.58-1.29,1.29-1.29c0.71,0,1.29,0.58,1.29,1.29
		C30.06,43.22,29.48,43.8,28.77,43.8"/>
	<path class="st0" d="M28.77,50.67c-0.71,0-1.29-0.58-1.29-1.29c0-0.71,0.58-1.29,1.29-1.29c0.71,0,1.29,0.58,1.29,1.29
		C30.06,50.1,29.48,50.67,28.77,50.67"/>
	<path class="st0" d="M21.9,2.58c-0.71,0-1.29-0.58-1.29-1.29C20.61,0.58,21.19,0,21.9,0c0.71,0,1.29,0.58,1.29,1.29
		C23.19,2,22.61,2.58,21.9,2.58"/>
	<path class="st0" d="M21.9,9.45c-0.71,0-1.29-0.58-1.29-1.29c0-0.71,0.58-1.29,1.29-1.29c0.71,0,1.29,0.58,1.29,1.29
		C23.19,8.87,22.61,9.45,21.9,9.45"/>
	<path class="st0" d="M21.9,16.32c-0.71,0-1.29-0.58-1.29-1.29c0-0.71,0.58-1.29,1.29-1.29c0.71,0,1.29,0.58,1.29,1.29
		C23.19,15.74,22.61,16.32,21.9,16.32"/>
	<path class="st0" d="M21.9,23.19c-0.71,0-1.29-0.58-1.29-1.29c0-0.71,0.58-1.29,1.29-1.29c0.71,0,1.29,0.58,1.29,1.29
		C23.19,22.61,22.61,23.19,21.9,23.19"/>
	<path class="st0" d="M21.9,30.06c-0.71,0-1.29-0.58-1.29-1.29c0-0.71,0.58-1.29,1.29-1.29c0.71,0,1.29,0.58,1.29,1.29
		C23.19,29.48,22.61,30.06,21.9,30.06"/>
	<path class="st0" d="M21.9,36.93c-0.71,0-1.29-0.58-1.29-1.29c0-0.71,0.58-1.29,1.29-1.29c0.71,0,1.29,0.58,1.29,1.29
		C23.19,36.35,22.61,36.93,21.9,36.93"/>
	<path class="st0" d="M21.9,43.8c-0.71,0-1.29-0.58-1.29-1.29c0-0.71,0.58-1.29,1.29-1.29c0.71,0,1.29,0.58,1.29,1.29
		C23.19,43.22,22.61,43.8,21.9,43.8"/>
	<path class="st0" d="M21.9,50.67c-0.71,0-1.29-0.58-1.29-1.29c0-0.71,0.58-1.29,1.29-1.29c0.71,0,1.29,0.58,1.29,1.29
		C23.19,50.1,22.61,50.67,21.9,50.67"/>
	<path class="st0" d="M15.03,2.58c-0.71,0-1.29-0.58-1.29-1.29c0-0.71,0.58-1.29,1.29-1.29c0.71,0,1.29,0.58,1.29,1.29
		C16.32,2,15.74,2.58,15.03,2.58"/>
	<path class="st0" d="M15.03,9.45c-0.71,0-1.29-0.58-1.29-1.29c0-0.71,0.58-1.29,1.29-1.29c0.71,0,1.29,0.58,1.29,1.29
		C16.32,8.87,15.74,9.45,15.03,9.45"/>
	<path class="st0" d="M15.03,16.32c-0.71,0-1.29-0.58-1.29-1.29c0-0.71,0.58-1.29,1.29-1.29c0.71,0,1.29,0.58,1.29,1.29
		C16.32,15.74,15.74,16.32,15.03,16.32"/>
	<path class="st0" d="M15.03,23.19c-0.71,0-1.29-0.58-1.29-1.29c0-0.71,0.58-1.29,1.29-1.29c0.71,0,1.29,0.58,1.29,1.29
		C16.32,22.61,15.74,23.19,15.03,23.19"/>
	<path class="st0" d="M15.03,30.06c-0.71,0-1.29-0.58-1.29-1.29c0-0.71,0.58-1.29,1.29-1.29c0.71,0,1.29,0.58,1.29,1.29
		C16.32,29.48,15.74,30.06,15.03,30.06"/>
	<path class="st0" d="M15.03,36.93c-0.71,0-1.29-0.58-1.29-1.29c0-0.71,0.58-1.29,1.29-1.29c0.71,0,1.29,0.58,1.29,1.29
		C16.32,36.35,15.74,36.93,15.03,36.93"/>
	<path class="st0" d="M15.03,43.8c-0.71,0-1.29-0.58-1.29-1.29c0-0.71,0.58-1.29,1.29-1.29c0.71,0,1.29,0.58,1.29,1.29
		C16.32,43.22,15.74,43.8,15.03,43.8"/>
	<path class="st0" d="M15.03,50.67c-0.71,0-1.29-0.58-1.29-1.29c0-0.71,0.58-1.29,1.29-1.29c0.71,0,1.29,0.58,1.29,1.29
		C16.32,50.1,15.74,50.67,15.03,50.67"/>
	<path class="st0" d="M8.16,2.58C7.45,2.58,6.87,2,6.87,1.29C6.87,0.58,7.45,0,8.16,0c0.71,0,1.29,0.58,1.29,1.29
		C9.45,2,8.87,2.58,8.16,2.58"/>
	<path class="st0" d="M8.16,9.45c-0.71,0-1.29-0.58-1.29-1.29c0-0.71,0.58-1.29,1.29-1.29c0.71,0,1.29,0.58,1.29,1.29
		C9.45,8.87,8.87,9.45,8.16,9.45"/>
	<path class="st0" d="M8.16,16.32c-0.71,0-1.29-0.58-1.29-1.29c0-0.71,0.58-1.29,1.29-1.29c0.71,0,1.29,0.58,1.29,1.29
		C9.45,15.74,8.87,16.32,8.16,16.32"/>
	<path class="st0" d="M8.16,23.19c-0.71,0-1.29-0.58-1.29-1.29c0-0.71,0.58-1.29,1.29-1.29c0.71,0,1.29,0.58,1.29,1.29
		C9.45,22.61,8.87,23.19,8.16,23.19"/>
	<path class="st0" d="M8.16,30.06c-0.71,0-1.29-0.58-1.29-1.29c0-0.71,0.58-1.29,1.29-1.29c0.71,0,1.29,0.58,1.29,1.29
		C9.45,29.48,8.87,30.06,8.16,30.06"/>
	<path class="st0" d="M8.16,36.93c-0.71,0-1.29-0.58-1.29-1.29c0-0.71,0.58-1.29,1.29-1.29c0.71,0,1.29,0.58,1.29,1.29
		C9.45,36.35,8.87,36.93,8.16,36.93"/>
	<path class="st0" d="M8.16,43.8c-0.71,0-1.29-0.58-1.29-1.29c0-0.71,0.58-1.29,1.29-1.29c0.71,0,1.29,0.58,1.29,1.29
		C9.45,43.22,8.87,43.8,8.16,43.8"/>
	<path class="st0" d="M8.16,50.67c-0.71,0-1.29-0.58-1.29-1.29c0-0.71,0.58-1.29,1.29-1.29c0.71,0,1.29,0.58,1.29,1.29
		C9.45,50.1,8.87,50.67,8.16,50.67"/>
	<path class="st0" d="M1.29,2.58C0.58,2.58,0,2,0,1.29C0,0.58,0.58,0,1.29,0C2,0,2.58,0.58,2.58,1.29C2.58,2,2,2.58,1.29,2.58"/>
	<path class="st0" d="M1.29,9.45C0.58,9.45,0,8.87,0,8.16c0-0.71,0.58-1.29,1.29-1.29c0.71,0,1.29,0.58,1.29,1.29
		C2.58,8.87,2,9.45,1.29,9.45"/>
	<path class="st0" d="M1.29,16.32C0.58,16.32,0,15.74,0,15.03c0-0.71,0.58-1.29,1.29-1.29c0.71,0,1.29,0.58,1.29,1.29
		C2.58,15.74,2,16.32,1.29,16.32"/>
	<path class="st0" d="M1.29,23.19C0.58,23.19,0,22.61,0,21.9c0-0.71,0.58-1.29,1.29-1.29c0.71,0,1.29,0.58,1.29,1.29
		C2.58,22.61,2,23.19,1.29,23.19"/>
	<path class="st0" d="M1.29,30.06C0.58,30.06,0,29.48,0,28.77c0-0.71,0.58-1.29,1.29-1.29c0.71,0,1.29,0.58,1.29,1.29
		C2.58,29.48,2,30.06,1.29,30.06"/>
	<path class="st0" d="M1.29,36.93C0.58,36.93,0,36.35,0,35.64c0-0.71,0.58-1.29,1.29-1.29c0.71,0,1.29,0.58,1.29,1.29
		C2.58,36.35,2,36.93,1.29,36.93"/>
	<path class="st0" d="M1.29,43.8C0.58,43.8,0,43.22,0,42.51c0-0.71,0.58-1.29,1.29-1.29c0.71,0,1.29,0.58,1.29,1.29
		C2.58,43.22,2,43.8,1.29,43.8"/>
	<path class="st0" d="M1.29,50.67C0.58,50.67,0,50.1,0,49.38c0-0.71,0.58-1.29,1.29-1.29c0.71,0,1.29,0.58,1.29,1.29
		C2.58,50.1,2,50.67,1.29,50.67"/>
</g>
</svg>
