<svg xmlns="http://www.w3.org/2000/svg" viewBox="0 0 31.5 31.5"><defs><style>.cls-1{fill:#404040;}</style></defs><g id="Layer_2" data-name="Layer 2"><g id="Layer_1-2" data-name="Layer 1"><path id="Path_306" data-name="Path 306" class="cls-1" d="M21.4,18.7l.6-3a1.11,1.11,0,0,0-.8-1.3H12.5A3.55,3.55,0,0,0,9,11.6a1.1,1.1,0,1,0,0,2.2H9A1.4,1.4,0,0,1,10.4,15v.1l.8,3.7h0a3.11,3.11,0,0,0,3.1,2.5h4A3.31,3.31,0,0,0,21.4,18.7Zm-2.1-.4a1,1,0,0,1-1,.8h-4a1,1,0,0,1-1-.8l-.4-1.8h6.8ZM26.2,3.2H5.4A3.16,3.16,0,0,0,2.2,6.4V24a4.23,4.23,0,0,0,4.2,4.2H25.1A4.23,4.23,0,0,0,29.3,24a1.1,1.1,0,0,0-2.2,0A2.11,2.11,0,0,1,25,26.1H6.4A2.11,2.11,0,0,1,4.3,24V9.7H27.2v9.1a1.1,1.1,0,1,0,2.2,0V6.4a3.44,3.44,0,0,0-3.2-3.2ZM21.9,5.4a1.1,1.1,0,1,1,0,2.2,1.2,1.2,0,0,1-1.1-1.2h0a1,1,0,0,1,1.1-1Zm5.3,1a1.11,1.11,0,0,1-1.1,1.1,1,1,0,0,1-1-1.1,1.11,1.11,0,0,1,1.1-1.1h0a1.18,1.18,0,0,1,1,1.1ZM4.3,6.4A1.11,1.11,0,0,1,5.4,5.3H18.9a3.32,3.32,0,0,0,0,2.2H4.3Zm9.8,15.9A1.1,1.1,0,1,1,13,23.4h0a1.18,1.18,0,0,1,1.1-1.1Zm4.3,0a1.1,1.1,0,1,1-1.1,1.1h0a1.18,1.18,0,0,1,1.1-1.1Z"/><circle id="Ellipse_59" data-name="Ellipse 59" class="cls-1" cx="1.1" cy="1.1" r="1.1"/><circle id="Ellipse_60" data-name="Ellipse 60" class="cls-1" cx="3.7" cy="2.1" r="0.6"/><circle id="Ellipse_61" data-name="Ellipse 61" class="cls-1" cx="27.1" cy="30" r="1.3"/><circle id="Ellipse_62" data-name="Ellipse 62" class="cls-1" cx="30.9" cy="30.9" r="0.6"/></g></g></svg>