<svg xmlns="http://www.w3.org/2000/svg" viewBox="0 0 34.4 34.4"><defs><style>.cls-1,.cls-2{fill:#f78e37;}.cls-1{opacity:0.4;isolation:isolate;}</style></defs><g id="Layer_2" data-name="Layer 2"><g id="Layer_1-2" data-name="Layer 1"><ellipse id="Ellipse_41" data-name="Ellipse 41" class="cls-1" cx="17.2" cy="21.6" rx="11.1" ry="10.9"/><path id="Path_296" data-name="Path 296" d="M33,19.3H25.4l2.9-7.5,1.6,4a1.3,1.3,0,0,0,1.2.8.9.9,0,0,0,.5-.1,1.28,1.28,0,0,0,.7-1.7h0L30.1,9a4,4,0,0,0,2.2-3.6,1.3,1.3,0,1,0-2.6,0,1.32,1.32,0,0,1-1.3,1.3,5,5,0,0,1-2.2-1.3,9.62,9.62,0,0,0-4-2.1,5.61,5.61,0,0,0-3.6.5V1.3a1.3,1.3,0,0,0-2.6,0V3.8a6,6,0,0,0-3.5-.5,10.27,10.27,0,0,0-4,2.1A7.11,7.11,0,0,1,6.2,6.8,1.32,1.32,0,0,1,4.9,5.5,1.32,1.32,0,0,0,3.6,4.2c-.7,0-1.5.5-1.5,1.2A4.39,4.39,0,0,0,4.3,9L.1,20.1a1.27,1.27,0,0,0-.1.6H0a6.19,6.19,0,0,0,6,6.2,6.19,6.19,0,0,0,6.2-6v-.2a1.32,1.32,0,0,0-1.3-1.3H3.3l3.1-8.2,1.9,4.7a1.3,1.3,0,0,0,1.2.8.9.9,0,0,0,.5-.1,1.28,1.28,0,0,0,.7-1.7l-2.4-6c.6-.5,1.2-.8,1.7-1.3,1.9-1.5,3.4-2.6,5.8-.7V29.7a19.58,19.58,0,0,0-6.6,2.1,1.4,1.4,0,0,0-.4,1.9,1.44,1.44,0,0,0,1.8.5,15.14,15.14,0,0,1,6.6-1.8,15.52,15.52,0,0,1,6.6,1.8,1.45,1.45,0,0,0,.7.2,1.32,1.32,0,0,0,1.3-1.3,1.52,1.52,0,0,0-.7-1.2,17,17,0,0,0-6.6-2.1V7c2.5-2,4-.9,5.9.6A11,11,0,0,0,26.5,9L22.3,20.1h0a1.09,1.09,0,0,0-.1.5,6.1,6.1,0,0,0,12.2.2v-.2A1.35,1.35,0,0,0,33,19.3ZM9.3,22a3.38,3.38,0,0,1-4.5,1.8A3.19,3.19,0,0,1,3,22Zm19,2.1A3.25,3.25,0,0,1,25.2,22h6.3A3.59,3.59,0,0,1,28.3,24.1Z"/><circle id="Ellipse_42" data-name="Ellipse 42" class="cls-2" cx="7" cy="2.3" r="1.1"/><circle id="Ellipse_43" data-name="Ellipse 43" class="cls-2" cx="29.2" cy="30.4" r="1.5"/><circle id="Ellipse_44" data-name="Ellipse 44" class="cls-2" cx="32.4" cy="33.3" r="0.8"/></g></g></svg>