<svg xmlns="http://www.w3.org/2000/svg" viewBox="0 0 31.6 31.6"><defs><style>.cls-1{fill:#404040;}</style></defs><g id="Layer_2" data-name="Layer 2"><g id="Layer_1-2" data-name="Layer 1"><path id="Path_312-12" data-name="Path 312-12" class="cls-1" d="M26.3,3.3H5.3A3.23,3.23,0,0,0,2,6.4V24a4.18,4.18,0,0,0,4.3,4.2H25.2A4.25,4.25,0,0,0,29.5,24a1.1,1.1,0,1,0-2.2,0,2.11,2.11,0,0,1-2.1,2.1H6.3A2.05,2.05,0,0,1,4.2,24V9.7H27.4v9.1a1.1,1.1,0,1,0,2.2,0V6.4A3.36,3.36,0,0,0,26.3,3.3ZM21.9,5.4a1,1,0,0,1,1,1.1c-.1.6-.5,1.1-1.1,1a1,1,0,0,1-1-1.1A1.18,1.18,0,0,1,21.9,5.4Zm5.4,1a1.1,1.1,0,1,1-1.1-1.1h0a1.27,1.27,0,0,1,1.1,1.1ZM4.2,6.4A1.11,1.11,0,0,1,5.3,5.3H18.9a3.32,3.32,0,0,0,0,2.2H4.2Z"/><circle id="Ellipse_126-14" data-name="Ellipse 126-14" class="cls-1" cx="1.4" cy="1.4" r="1.4"/><circle id="Ellipse_127-20" data-name="Ellipse 127-20" class="cls-1" cx="28.3" cy="29.6" r="1.4"/><circle id="Ellipse_128-20" data-name="Ellipse 128-20" class="cls-1" cx="31" cy="31" r="0.6"/><path id="Path_487" data-name="Path 487" class="cls-1" d="M12.8,20.5a2.65,2.65,0,0,0-2.6-2.6H10a2.66,2.66,0,0,0-2.8,2.4v.2a2.65,2.65,0,0,0,2.6,2.6H10a2.67,2.67,0,0,0,2.7-1.9H10.8a.91.91,0,0,1-.8.4,1,1,0,0,1-.9-.7h3.6C12.8,20.8,12.8,20.7,12.8,20.5ZM10,19.4a.87.87,0,0,1,.9.6H9.1A1,1,0,0,1,10,19.4ZM18.4,23l-1.6-2.6,1.4-2.3H16l-.6,1.1-.6-1.1H12.6L14,20.4,12.5,23h2.2l.7-1.3.7,1.3Z"/></g></g></svg>