<?xml version="1.0" encoding="utf-8"?>
<!-- Generator: Adobe Illustrator 26.0.0, SVG Export Plug-In . SVG Version: 6.00 Build 0)  -->
<svg version="1.1" id="Layer_1" xmlns="http://www.w3.org/2000/svg" xmlns:xlink="http://www.w3.org/1999/xlink" x="0px" y="0px"
	 viewBox="0 0 391.5 403.6" style="enable-background:new 0 0 391.5 403.6;" xml:space="preserve">
<style type="text/css">
	.st0{fill:#FFFFFF;stroke:#333333;stroke-linecap:round;stroke-linejoin:round;}
	.st1{fill:#FBE7CF;}
	.st2{fill:#848484;stroke:#000000;stroke-width:0.5;stroke-miterlimit:10;}
	.st3{fill:none;stroke:#333333;stroke-width:0.5;stroke-linecap:round;stroke-linejoin:round;}
	.st4{fill:#FBE7CF;stroke:#000000;stroke-width:0.5;stroke-miterlimit:10;}
	.st5{fill:none;stroke:#333333;stroke-linecap:round;stroke-linejoin:round;}
	.st6{fill:#333333;stroke:#333333;stroke-linecap:round;stroke-linejoin:round;}
	.st7{fill:#F4BD58;}
	.st8{fill:#FCD392;}
	.st9{fill:#F4BD58;stroke:#000000;stroke-miterlimit:10;}
	.st10{fill:#1A2E35;}
	.st11{fill:none;stroke:#333333;stroke-width:5;stroke-linecap:round;stroke-linejoin:round;}
	.st12{fill:none;stroke:#FFFFFF;stroke-linecap:round;stroke-linejoin:round;}
	.st13{fill:none;stroke:#333333;stroke-width:2;stroke-linecap:round;stroke-linejoin:round;}
</style>
<g id="Group_3132" transform="translate(6388.5 -3043.5)">
	<g id="php" transform="translate(-6388.505 3043.511)">
		<g id="angular-dev" transform="translate(0.556 -0.011)">
			<g id="Group_1271" transform="translate(92.338 158.511)">
				<path id="Path_4589" class="st0" d="M170.4,15.6c0,0,21.4,45.6,21.4,48s-19,12.7-22.7,14.8s-8.7,4.2-8.7,4.2l2.1,21.1
					c0,0,32.7-7.4,46.4-14.8s13.2-15.8,10-28.2S194.6,0,194.6,0L170.4,15.6z"/>
				<path id="Path_627" class="st1" d="M208.9,89.2c13.7-7.4,13.2-15.8,10-28.2S194.6,0.3,194.6,0.3l-3.4,2.1l-1,2.1
					c0,0,19.8,48.3,20.9,64.4c0.8,10.8-20.8,24.3-35.4,31.9C186.5,97.9,201,93.4,208.9,89.2z"/>
				<path id="Path_4590" class="st0" d="M16.1,5.6c0,0-15.6,57.2-16.1,67.3S30.9,103,32.2,104s-1.8-34.8-1.8-34.8L41,17L16.1,5.6z"
					/>
				<path id="Path_628" class="st1" d="M32.2,92.4C23,84.5,9.5,73.4,7.9,68.7c-2.4-7.1,15.6-58.6,15.6-58.6l-0.3-1.6l-6.8-3.2
					c0,0-15.6,57.2-16.1,67.3s30.9,30.1,32.2,31.1C32.7,104.5,32.5,99.2,32.2,92.4z"/>
			</g>
			<g id="Group_1272" transform="translate(97.344 102.2)">
				<path id="Path_4591" class="st2" d="M84.4,4.4c0,0-6.1,4.2-17.7,4.8C54.8,9.7,54.3,1.3,39.8,1.3C22.1,1.3,0,57.2,0,57.2
					S11.1,68,21.9,72.5c6,2.6,12.3,4.4,18.7,5.5l1.6,36.7h119l1.3-36.7l37.2-24.3c0,0-18.2-32.7-27.2-44.8s-23.7-7.7-28.2-4.5
					s-17.9,4-23,3.2s-19.2-5.3-19.2-5.3S94.5-4.1,84.4,4.4z"/>
				<line id="Line_13" class="st3" x1="41.7" y1="17.6" x2="41.2" y2="78.5"/>
				<path id="Path_4592" class="st3" d="M45.9,23.1c0,0,1.6,29.8,7.9,46.4"/>
				<path id="Path_4593" class="st3" d="M55.2,71.6c0,0,3.2,9,5,11.9"/>
				<path id="Path_4594" class="st3" d="M49.9,19.7c0,0,3.7,17.7,9.5,31.7"/>
				<path id="Path_4595" class="st3" d="M153.3,25c0,0-5.8,23.5-10.8,34"/>
				<line id="Line_14" class="st3" x1="162.8" y1="78.2" x2="162.5" y2="30.8"/>
				<path id="Path_4596" class="st3" d="M160.1,31.6c0,0-4.2,30.1-14.8,45.9"/>
				<path id="Path_4597" class="st3" d="M154.9,71.4c-2.5,4.8-5.2,9.5-8.2,14"/>
				<path id="Path_4598" class="st3" d="M77.6,8.1c0,0,3.4,20.6,8.2,31.1s13.2,12.7,20.3,9.5s12.4-18.5,12.1-38.2"/>
			</g>
			<g id="Group_1273" transform="translate(148.753 16.749)">
				<path id="Path_4599" class="st4" d="M9.3,50.3c0,0-4.5-7.9-8.2-4S4,59.8,7.7,62.9c3.7,3.1,6.3,1.3,6.1-2.1
					C13.3,57.7,9.3,50.3,9.3,50.3z"/>
				<path id="Path_4600" class="st4" d="M81.8,50.3c0,0,4.5-7.9,8.2-4s-2.9,13.5-6.6,16.6c-3.7,3.1-6.3,1.3-6.1-2.1
					C77.9,57.7,81.8,50.3,81.8,50.3z"/>
				<path id="Path_4601" class="st0" d="M30.9,88.3c0,0,4.2,19.5,8.7,30.3c4.2,10.8,12.4,10.8,15.8,4s5.5-33,5.5-33
					S38.3,92.5,30.9,88.3z"/>
				<path id="Path_4602" class="st0" d="M9.8,53c0,0,6.3,22.2,17.9,35.1c11.9,12.9,16.1,16.1,22.4,15S63,93.9,72.5,77
					c9.2-17.1,10-30.1,10.8-31.1c0.8-1.3-1.9-25.3-15.3-35.6S39.8-4.4,26.6,6.6C13.5,17.9,5.3,36.3,9.8,53z"/>
				<path id="Path_629" class="st1" d="M67.8,10.2C54.4-0.1,39.6-4.6,26.4,6.5C13.5,17.8,5.3,36.3,9.5,52.9c0,0,1.3,4.2,3.4,10
					c-0.1-0.7,0-1.4,0.3-2.1c2.9-9,11.3-26.7,39.8-18.7C75.7,48.4,72.8,68.5,70.7,79c0.5-0.8,0.8-1.3,1.3-2.1
					c9.2-17.2,10-30.1,10.8-31.1C83.9,44.5,81.3,20.5,67.8,10.2z"/>
				<path id="Path_4603" class="st5" d="M50.2,64.6c-0.7,4.7-1.1,9.4-1.3,14.2c0.3,4.8,1.6,6.3-0.5,6.6c-2.1,0.5-4.5-2.9-4.5-2.9"/>
				<path id="Path_4604" class="st5" d="M41.5,60.3c0,0-4.5-11.3-19.8-6"/>
				<path id="Path_4605" class="st5" d="M53.9,59c0,0,4-11.1,17.4-4.5"/>
				<path id="Path_4606" class="st5" d="M44.4,69.3c0,6.1-7.1,11.1-15.8,11.1s-15.9-5-15.9-11.1s6.6-8.7,15.3-8.7
					C36.7,60.3,44.4,63,44.4,69.3z"/>
				<path id="Path_4607" class="st5" d="M80.8,69.3c0,6.1-7.1,11.1-15.8,11.1s-15.8-5-15.8-11.1s6.6-8.7,15.3-8.7
					C73.1,60.3,80.8,63,80.8,69.3z"/>
			</g>
			<g id="Group_1274" transform="translate(9.844 278.311)">
				<path id="Path_4608" class="st0" d="M17.4,0l-1,97.3c0,0.5,1.3,1,2.9,1l0,0c1.6,0,2.9-0.5,2.9-1L29.1,0H17.4z"/>
				<path id="Path_4609" class="st0" d="M1,22.9L0,123.7c0,0.5,1.3,1.1,2.9,1.1l0,0c1.6,0,2.9-0.5,2.9-1.1l6.8-100.5L1,22.9z"/>
				<path id="Path_4610" class="st0" d="M353.7,0l1.1,97.3c0,0.5-1.3,1-2.9,1l0,0c-1.6,0-2.9-0.5-2.9-1L342.1,0H353.7z"/>
				<path id="Path_4611" class="st0" d="M370,22.9l1,100.8c0,0.5-1.3,1.1-2.9,1.1l0,0c-1.6,0-2.9-0.5-2.9-1.1l-6.9-100.5L370,22.9z"
					/>
			</g>
			<g id="Group_1275" transform="translate(0 264.411)">
				<path id="Path_4612" class="st6" d="M390.1,57.2l-7.1-6.6l-16.6-36.2c-1.6-3.4-5-5.5-8.7-5.5H33c-3.7,0-7.1,2.2-8.7,5.5
					L3.4,59.5L0,58.2v10.3h0.3c0.4,2.9,2.9,5.1,5.8,5h378.5c3,0,5.5-2.3,5.8-5.3L390.1,57.2z"/>
				<path id="Path_4613" class="st0" d="M384.3,64H5.8c-4.2,0-7.1-4.2-5.3-7.6L24.2,5.5c1.6-3.4,5-5.5,8.7-5.5h324.5
					c3.7,0,7.1,2.2,8.7,5.5l23.7,50.9C391.4,60.1,388.5,64,384.3,64z"/>
				<path id="Path_630" class="st7" d="M25,29.7c0,0-8.4,5.8-3.2,7.9s67,0.5,74.4-1.6s16.1-21.9,16.1-25.1s-10.8-5.5-14.8-5.8
					S41,8,41,8L25,29.7z"/>
				<ellipse id="Ellipse_83" class="st8" cx="331.6" cy="30.8" rx="21.9" ry="9.2"/>
				<ellipse id="Ellipse_84" class="st7" cx="191.8" cy="36.3" rx="78.6" ry="14.8"/>
			</g>
			<g id="Group_1276" transform="translate(305.25 254.611)">
				<path id="Path_4614" class="st9" d="M10.3,4.7c0,0-1.3-5.8-6.3-4c-5,1.8-4.2,14.8-3.4,21.9c1,7.1,7.4,4,7.4,4v-4.2
					c0,0-2.4,1.9-3.7-0.8S3.3,5.8,4.6,6s3.7,4.2,3.7,4.2S9,9.7,10.3,4.7z"/>
				<path id="Path_4615" class="st7" d="M6.8,5.8v31.6c0,3.7,8.4,6.6,19,6.6s19-2.9,19-6.6V5.8H6.8z"/>
				<path id="Path_4616" class="st0" d="M44.8,5.8c0,3.2-8.4,5.8-19,5.8S6.8,9,6.8,5.8S15.2,0,25.8,0S44.8,2.6,44.8,5.8z"/>
				<path id="Path_4617" class="st0" d="M42.5,5.8c0,2.9-7.4,5-16.6,5S9.3,8.4,9.3,5.8c0-2.9,7.4-5,16.6-5S42.5,2.9,42.5,5.8z"/>
				<path id="Path_4618" class="st6" d="M13.2,8.9c4.1,1.3,8.4,1.9,12.7,1.8c4.3,0.1,8.6-0.6,12.7-1.8C30.3,6.4,21.5,6.4,13.2,8.9
					L13.2,8.9z"/>
			</g>
			<g id="Group_1277" transform="translate(10.472 242.271)">
				<path id="Path_4619" class="st0" d="M12.3,32.6l0.3,10.5l72.8,0.8V31.5L12.3,32.6z"/>
				<path id="Path_4620" class="st0" d="M85.3,43.9l10.6-22.7v-6.9L84.8,33.6L85.3,43.9z"/>
				<path id="Path_4621" class="st0" d="M12.3,42.3l0.3,10.8l72.8,0.8V41.2L12.3,42.3z"/>
				<path id="Path_4622" class="st0" d="M85.3,53.9l10.6-23v-6.6l-11.1,19L85.3,53.9z"/>
				<path id="Path_4623" class="st0" d="M40.5,5.1c0,0,1.6-3.4-0.8-4.8s-5,1.9-6.6,3.2S1.5,24.7,0.4,27.8s0,10,6.6,10.8
					s12.1-3.7,15-4.2c2.9-0.8,4-1.1,4-1.1L46,6.4L40.5,5.1z"/>
				<path id="Path_4624" class="st0" d="M7,38.4c6.6,0.8,12.1-3.7,15-4.2c2.9-0.8,4-1.1,4-1.1l0.8-1l-18.7-4c-2-2-5.2-2.3-7.6-0.8
					C-0.4,30.7,0.7,37.8,7,38.4z"/>
				<path id="Path_4625" class="st0" d="M8.3,28.3h56.2c17.4,0,22.7-1,22.7-1L98,4.8c0,0-34,2.1-44.6,1.3S40.5,4.8,40.5,4.8
					L8.3,28.3z"/>
				<path id="Path_4626" class="st0" d="M8.3,28.3l1,4.2c0,0,45.6,0.3,57.5,0.3c12.1,0,21.1,0.5,21.1,0.5l-0.8-6.1L8.3,28.3z"/>
				<path id="Path_4627" class="st0" d="M88,33.4l10-23V5.1L87.2,27.3L88,33.4z"/>
			</g>
			<g id="Group_1278" transform="translate(112.235 202.411)">
				<path id="Path_4628" class="st0" d="M148.4,100.2H10.7c-1.3,0-2.4-1-2.4-2.3c0,0,0,0,0-0.1l0,0c0-1.3,1.1-2.4,2.4-2.4h137.7
					c1.3,0,2.4,1,2.4,2.3c0,0,0,0,0,0.1l0,0C150.7,99.1,149.7,100.1,148.4,100.2z"/>
				<path id="Path_4629" class="st0" d="M149.5,95.7H9.7c-1.1,0.1-2-0.7-2.1-1.8L0,2.4C-0.1,1.2,0.7,0.2,1.9,0h155.3
					c1.2,0,2.1,1,2.1,2.2c0,0,0,0,0,0v0.2l-7.6,91.5C151.4,94.9,150.5,95.6,149.5,95.7z"/>
			</g>
			<g id="Group_1279" transform="translate(315.544 167.711)">
				<path id="Path_4635" class="st5" d="M26.1,12.7c2.1-1.7,3.6-4,4.2-6.6C30.7,4.1,30.6,2,30,0"/>
				<path id="Path_4636" class="st5" d="M10,84.2c0,0,13.5-7.9,9-17.1S0,51.8,0,37.5c0-12.4,13.2-16.9,21.6-21.9"/>
				<path id="Path_4637" class="st5" d="M22.4,84c0,0,7.4-5,7.4-12.9c0-5.3-5.5-8.7-13.2-17.1"/>
				<path id="Path_4638" class="st5" d="M12.6,48.9c0,0-4.8-4-1.3-11.1"/>
			</g>
			<path id="Path_631" class="st10" d="M174.9,56.5c0,0,18.7-0.5,35.6,8.2s30.1-7.9,22.1-16.4s10.3,9.2,13.2-1.3S222.4,0.5,195.7,0
				s-33,16.6-33,16.6s-3.2-9-5.5-4c-1.4,2.7-2.2,5.7-2.4,8.7c0,0-5.3,4.2-7.6,6.6s0.8,5,0.8,5s-4.8,12.4-2.1,21.6l13.7,20.6
				c0,0,4.8,0.3,8.4-4.8c3.4-4.8,0.8-19.8,0.8-19.8s0.3,16.1,4.5,12.7S171.2,44,171.2,44L174.9,56.5z"/>
			<ellipse id="Ellipse_89" class="st11" cx="179.9" cy="86.3" rx="1.9" ry="0.8"/>
			<ellipse id="Ellipse_90" class="st11" cx="209.4" cy="84.9" rx="1.9" ry="0.8"/>
		</g>
		<g id="obj1" transform="translate(1.4 37.4)">
			<path id="Path_4639" class="st6" d="M109.7,49.4H7.4C3.3,49.4,0,46.1,0,42c0,0,0,0,0,0V7.4C0,3.3,3.3,0,7.4,0c0,0,0,0,0,0h102.4
				c4.1,0,7.4,3.2,7.4,7.3l0,0v34.6C117.1,46,113.8,49.3,109.7,49.4z"/>
			<g id="Group_1371" transform="translate(8.4 6.7)">
				<path id="Path_820" class="st7" d="M5.6,0l0.5,1.1c-2.6,1.6-5,4-5,6.9c-0.2,2.1,1.4,4,3.5,4.2c0,0,0.1,0,0.1,0h0.1
					c0.3,0,0.5-0.2,0.5-0.4c0,0,0,0,0-0.1l0,0c0-0.3-0.2-0.5-0.4-0.5c0,0,0,0-0.1,0l0,0c-1-0.3-1.7-1.3-1.6-2.4
					c0-1.8,1.6-2.9,3.4-2.9c1.9,0,3.4,1.5,3.4,3.4c-0.1,2.4-2.1,4.3-4.5,4.2c-2.8,0.2-5.3-2-5.5-4.8c0,0,0,0,0,0l0,0V8.3
					C0,4.4,2.7,1.6,5.6,0z M17.2,0l0.5,1.1c-2.6,1.6-5,4-5,6.9c-0.2,2.1,1.4,4,3.5,4.2c0,0,0.1,0,0.1,0h0.1c0.3,0,0.5-0.2,0.5-0.5
					s-0.2-0.5-0.5-0.5c-1-0.4-1.6-1.3-1.6-2.4c0-1.8,1.6-2.9,3.4-2.9c1.9,0,3.4,1.5,3.4,3.3c0,0,0,0,0,0.1c-0.1,2.4-2.1,4.3-4.5,4.2
					c-2.8,0.2-5.3-2-5.5-4.8c0,0,0,0,0,0l0,0V8.3C11.8,4.7,14,1.6,17.2,0z"/>
			</g>
			<line id="Line_15" class="st12" x1="36.6" y1="16.7" x2="103.4" y2="16.7"/>
			<line id="Line_16" class="st12" x1="36.6" y1="22.5" x2="103.4" y2="22.5"/>
			<line id="Line_17" class="st12" x1="36.6" y1="28.3" x2="103.4" y2="28.3"/>
			<line id="Line_18" class="st12" x1="36.6" y1="33.8" x2="103.4" y2="33.8"/>
		</g>
		<g id="obj2" transform="translate(26.071 130.369)">
			<circle id="Ellipse_591" class="st6" cx="26.4" cy="26.4" r="25.3"/>
			<circle id="Ellipse_592" class="st0" cx="26.5" cy="26.5" r="21.4"/>
			<path id="Path_4640" class="st13" d="M26.4,10.7v15.6H37"/>
		</g>
		<g id="obj3" transform="translate(307.3 66.8)">
			<path id="Path_4641" class="st6" d="M68.7,0H9.3C4.5,0,0.6,3.9,0.6,8.7v31.9c0,4.8,3.9,8.7,8.7,8.7h1.8C9.3,53.5,5.8,59.6,0,63.3
				c0,0,12.1-0.8,24.5-14h44.2c4.8-0.1,8.6-3.9,8.7-8.7v-32C77.4,3.8,73.5,0,68.7,0z"/>
			<g id="Group_1372" transform="translate(19.6 18.9)">
				<path id="Path_4642" class="st7" d="M9,4.5C9,2,7,0,4.5,0S0,2,0,4.5S2,9,4.5,9l0,0C7.1,9.3,9,7.2,9,4.5z"/>
				<path id="Path_4643" class="st7" d="M24.5,4.5C24.5,2,22.5,0,20,0s-4.5,2-4.5,4.5S17.5,9,20,9l0,0c2.4,0.1,4.4-1.7,4.5-4
					c0,0,0,0,0-0.1V4.5z"/>
				<path id="Path_4644" class="st7" d="M39.8,4.5c0-2.5-2-4.5-4.5-4.5s-4.5,2-4.5,4.5s2,4.5,4.5,4.5l0,0C38,9.3,39.8,7.2,39.8,4.5z
					"/>
			</g>
		</g>
	</g>
</g>
<path d="M219.9,266.2c-1.9,0.5-3.1,0-4.1-1.6l-7.5-10.4l-1.1-1.4l-8.8,11.9c-1,1.4-2.1,2-3.9,1.5l11.2-15.1l-10.5-13.6
	c1.8-0.3,3-0.2,4.1,1.4l7.8,10.5L215,239c1-1.4,2.1-2,3.9-1.4l-4.1,5.4l-5.5,7.1c-0.7,0.8-0.6,1.4,0,2.2L219.9,266.2z M167.6,250.9
	l0.9-4.5c2.5-8.9,12.7-12.7,19.8-7.1c4.1,3.2,5.2,7.8,5,13H170c-0.3,9.3,6.3,14.9,14.8,12c3-1,4.7-3.3,5.6-6.3
	c0.4-1.5,1.2-1.7,2.6-1.3c-0.7,3.7-2.3,6.7-5.6,8.6c-5,2.9-12.2,1.9-15.9-2c-2.2-2.3-3.2-5.2-3.6-8.4c-0.1-0.5-0.2-1-0.3-1.5
	C167.6,252.6,167.6,251.7,167.6,250.9L167.6,250.9z M170.1,250.3h21c-0.1-6.7-4.3-11.5-10-11.5C174.8,238.7,170.3,243.4,170.1,250.3
	z"/>
</svg>
