<svg id="Layer_1" data-name="Layer 1" xmlns="http://www.w3.org/2000/svg" viewBox="0 0 71.55 75.22"><defs><style>.cls-1{opacity:0.04;}.cls-2{fill:none;}.cls-3{fill:#384054;}.cls-4{fill:#92d3c6;}.cls-5{fill:#fff;stroke:#717171;stroke-miterlimit:4;stroke-width:0.5px;}</style></defs><g id="Group_2332" data-name="Group 2332"><g id="Polygon_1-6" data-name="Polygon 1-6" class="cls-1"><path id="Path_4583" data-name="Path 4583" class="cls-2" d="M26,2.86a20,20,0,0,1,19.73-.5l15.25,8.16A20,20,0,0,1,71.51,28.11l0,17.29a20,20,0,0,1-9.69,17.19L45.59,72.36a20,20,0,0,1-19.72.5L10.61,64.71A20,20,0,0,1,0,47.11L0,29.82A20,20,0,0,1,9.7,12.63Z"/><path id="Path_4584" data-name="Path 4584" class="cls-3" d="M12.27,16.92A15,15,0,0,0,5,29.81L5,47.1A15,15,0,0,0,13,60.3l15.25,8.16A15,15,0,0,0,43,68.08L59.28,58.3a15,15,0,0,0,7.28-12.88l0-17.3a15,15,0,0,0-7.93-13.19L43.33,6.77a15,15,0,0,0-14.79.37L12.27,16.92M9.7,12.63,26,2.86a20,20,0,0,1,19.73-.5l15.25,8.16A20,20,0,0,1,71.51,28.11l0,17.29a20,20,0,0,1-9.69,17.19L45.59,72.36a20,20,0,0,1-19.72.5L10.61,64.71A20,20,0,0,1,0,47.11L0,29.82A20,20,0,0,1,9.7,12.63Z"/></g><g id="Group_2285" data-name="Group 2285"><path id="Path_3316" data-name="Path 3316" class="cls-4" d="M14.26,56s19-30.9,41.5-38.72C55.76,17.3,57,61.41,14.26,56Z"/><g id="Group_2277" data-name="Group 2277"><g id="Group_2274" data-name="Group 2274"><path id="Path_3317" data-name="Path 3317" class="cls-5" d="M46.75,49.16c-5,4.69-12.25,7.76-20.91,8.9a54,54,0,0,1-11.65.31,1.72,1.72,0,0,1-1.54-1.65,54.51,54.51,0,0,1,1.12-11.6c1.74-8.56,5.31-15.56,10.33-20.24S36.35,17.12,45,16a54,54,0,0,1,11.65-.31,1.72,1.72,0,0,1,1.54,1.65,53.81,53.81,0,0,1-1.12,11.6C55.34,37.48,51.77,44.48,46.75,49.16ZM16.11,55a55.27,55.27,0,0,0,9.36-.41c5.52-.74,13.28-2.72,18.93-8s8.16-12.87,9.28-18.32A55.1,55.1,0,0,0,54.75,19a54.33,54.33,0,0,0-9.37.42c-5.51.73-13.28,2.71-18.93,8s-8.16,12.88-9.28,18.33A54,54,0,0,0,16.11,55Z"/></g><g id="Group_2275" data-name="Group 2275"><path id="Path_3318" data-name="Path 3318" class="cls-5" d="M42.72,44.84a10.69,10.69,0,1,1-7.63-18.51,1.73,1.73,0,0,1,.11,3.45,7.26,7.26,0,1,0,5.52,2.3,1.73,1.73,0,0,1,2.53-2.36h0A10.71,10.71,0,0,1,42.72,44.84Z"/></g><g id="Group_2276" data-name="Group 2276"><path id="Path_3319" data-name="Path 3319" class="cls-5" d="M37.78,39.54a3.45,3.45,0,1,1,.16-4.88h0A3.45,3.45,0,0,1,37.78,39.54Z"/></g></g><g id="Group_2279" data-name="Group 2279"><g id="Group_2274-2" data-name="Group 2274-2"><path id="Path_3317-2" data-name="Path 3317-2" class="cls-3" d="M46,49.14C41,53.82,33.72,56.89,25.06,58a54,54,0,0,1-11.65.32,1.72,1.72,0,0,1-1.54-1.66A53.72,53.72,0,0,1,13,45.1c1.74-8.57,5.31-15.57,10.32-20.25S35.56,17.09,44.23,16a54,54,0,0,1,11.65-.32,1.73,1.73,0,0,1,1.54,1.65,54.39,54.39,0,0,1-1.13,11.6C54.56,37.45,51,44.46,46,49.14ZM15.32,55a54.37,54.37,0,0,0,9.37-.42c5.51-.74,13.27-2.72,18.92-8s8.17-12.87,9.28-18.32A54.1,54.1,0,0,0,54,19a54.37,54.37,0,0,0-9.37.42c-5.51.73-13.27,2.71-18.92,8S17.51,40.25,16.39,45.7A55.1,55.1,0,0,0,15.32,55Z"/></g><g id="Group_2275-2" data-name="Group 2275-2"><path id="Path_3318-2" data-name="Path 3318-2" class="cls-3" d="M41.94,44.82A10.7,10.7,0,1,1,34.3,26.3a1.73,1.73,0,0,1,.11,3.45,7.26,7.26,0,1,0,5.53,2.3,1.73,1.73,0,1,1,2.52-2.36h0A10.71,10.71,0,0,1,41.94,44.82Z"/></g><g id="Group_2276-2" data-name="Group 2276-2"><path id="Path_3319-2" data-name="Path 3319-2" class="cls-3" d="M37,39.51a3.45,3.45,0,1,1,.17-4.87h0A3.45,3.45,0,0,1,37,39.51Z"/></g></g><circle id="Ellipse_16" data-name="Ellipse 16" class="cls-4" cx="9.54" cy="37.7" r="1.27"/><circle id="Ellipse_17" data-name="Ellipse 17" class="cls-4" cx="11.11" cy="33.02" r="2.35"/><circle id="Ellipse_18" data-name="Ellipse 18" class="cls-4" cx="31.13" cy="62.72" r="1.27"/><circle id="Ellipse_19" data-name="Ellipse 19" class="cls-4" cx="60.3" cy="32.3" r="2.35"/></g></g></svg>