<?xml version="1.0" encoding="utf-8"?>
<!-- Generator: Adobe Illustrator 16.0.0, SVG Export Plug-In . SVG Version: 6.00 Build 0)  -->
<!DOCTYPE svg PUBLIC "-//W3C//DTD SVG 1.1//EN" "http://www.w3.org/Graphics/SVG/1.1/DTD/svg11.dtd">
<svg version="1.1" id="Layer_1" xmlns="http://www.w3.org/2000/svg" xmlns:xlink="http://www.w3.org/1999/xlink" x="0px" y="0px"
	 width="200px" height="200px" viewBox="0 0 200 200" enable-background="new 0 0 200 200" xml:space="preserve">
<g>
	<g>
		<path fill="#43D3E8" d="M121.121,36.01l-13.024-5.358l-2.013,2.014l5.355,13.024h4.401v9.429h14.332l-13.61,33.363h4.655
			c2.604,0,4.709,2.113,4.709,4.716c0,2.605-2.105,4.714-4.709,4.714h-4.655c0,14.814,1.864,29.035,5.568,42.279
			c22.138-8.807,37.797-30.414,37.797-55.695c0-25.66-16.132-47.544-38.807-56.088V36.01z"/>
		<path fill="#43D3E8" d="M77.872,140.191c3.7-13.244,5.567-27.465,5.567-42.279h-4.654c-2.603,0-4.716-2.109-4.716-4.714
			c0-2.603,2.113-4.716,4.716-4.716h4.654L69.828,55.119H84.16v-9.429h4.399l5.358-13.024l-2.012-2.014L78.879,36.01v-7.603
			c-22.677,8.544-38.807,30.429-38.807,56.088C40.073,109.777,55.731,131.385,77.872,140.191z"/>
	</g>
	<g>
		<path fill="#242D3C" d="M140.418,173.167H59.58l2.999-5.177c11.392-19.666,17.413-43.898,17.413-70.078v-3.448h40.02v3.448
			c0,26.187,6.02,50.42,17.407,70.078L140.418,173.167z M71.376,166.271h57.243c-9.694-18.803-15.005-41.055-15.472-64.91H86.854
			C86.387,125.209,81.075,147.462,71.376,166.271z"/>
		<path fill="#242D3C" d="M118.881,91.93h-37.76L64.697,51.67h70.606L118.881,91.93z M85.757,85.034h28.487l10.798-26.467H74.958
			L85.757,85.034z"/>
		<path fill="#242D3C" d="M136.707,190.571H63.291c-6.698,0-12.149-5.451-12.149-12.152c0-6.699,5.451-12.148,12.149-12.148h73.417
			c6.701,0,12.152,5.449,12.152,12.148C148.859,185.12,143.408,190.571,136.707,190.571z M63.291,173.167
			c-2.897,0-5.253,2.355-5.253,5.252c0,2.898,2.356,5.256,5.253,5.256h73.417c2.898,0,5.256-2.357,5.256-5.256
			c0-2.896-2.357-5.252-5.256-5.252H63.291z"/>
		<path fill="#242D3C" d="M121.218,101.36H78.785c-4.502,0-8.164-3.662-8.164-8.163c0-4.501,3.662-8.164,8.164-8.164h42.433
			c4.497,0,8.157,3.663,8.157,8.164C129.375,97.698,125.715,101.36,121.218,101.36z M78.785,91.93c-0.699,0-1.268,0.568-1.268,1.268
			c0,0.698,0.568,1.266,1.268,1.266h42.433c0.695,0,1.261-0.568,1.261-1.266c0-0.699-0.565-1.268-1.261-1.268H78.785z"/>
		<path fill="#242D3C" d="M137.883,200H62.115v-16.325h75.768V200z M69.011,193.104h61.975v-2.532H69.011V193.104z"/>
		<path fill="#242D3C" d="M119.289,58.567H80.711V42.241h38.578V58.567z M87.608,51.67h24.785v-2.533H87.608V51.67z"/>
		<path fill="#242D3C" d="M116.587,49.138H83.413l5.577-13.559l-13.559,5.578V7.982L88.99,13.56L83.413,0h33.174l-5.577,13.56
			l13.56-5.578v33.175l-13.558-5.578L116.587,49.138z M93.707,42.241h12.586l-4.271-10.388l5.262-5.266l10.39,4.275V18.276
			l-10.39,4.275l-5.262-5.266l4.271-10.389H93.707l4.272,10.391l-5.261,5.264l-10.391-4.275v12.587l10.391-4.275l5.261,5.264
			L93.707,42.241z"/>
	</g>
</g>
</svg>
