<?xml version="1.0" encoding="utf-8"?>
<!-- Generator: Adobe Illustrator 25.2.1, SVG Export Plug-In . SVG Version: 6.00 Build 0)  -->
<svg version="1.1" id="Layer_1" xmlns="http://www.w3.org/2000/svg" xmlns:xlink="http://www.w3.org/1999/xlink" x="0px" y="0px"
	 viewBox="0 0 179.8 179.8" style="enable-background:new 0 0 179.8 179.8;" xml:space="preserve">
<style type="text/css">
	.st0{fill:none;stroke:#413F3F;stroke-width:7.4912;stroke-miterlimit:10;}
	.st1{fill:#59C8DE;}
	.st2{fill:#FFFFFF;}
</style>
<g>
	<path class="st0" d="M160.2,100.5l15.9-3.2l0-15l-15.9-3.2c-0.8-5.3-2.2-10.4-4.1-15.3l12.1-10.7l-7.5-13l-15.3,5.2
		c-3.3-4.1-7.1-7.9-11.2-11.2l5.2-15.3l-13-7.5l-10.6,12.1c-4.9-1.9-10-3.3-15.3-4.1L97.4,3.7h-15l-3.2,15.9
		c-5.3,0.8-10.4,2.2-15.3,4.1L53.3,11.5l-13,7.5l5.2,15.3c-4.1,3.3-7.9,7.1-11.2,11.2L19,40.3l-7.5,13L23.7,64
		c-1.9,4.9-3.3,10-4.1,15.3L3.7,82.4l0,15l15.9,3.2c0.8,5.3,2.2,10.4,4.1,15.3l-12.1,10.7l7.5,13l15.3-5.2
		c3.3,4.1,7.1,7.9,11.2,11.2l-5.2,15.3l13,7.5L64,156.1c4.9,1.9,10,3.3,15.3,4.1l3.2,15.9l15,0l3.2-15.9c5.3-0.8,10.4-2.2,15.3-4.1
		l10.7,12.1l13-7.5l-5.2-15.3c4.1-3.3,7.9-7.1,11.2-11.2l15.3,5.2l7.5-13l-12.1-10.6C158,111,159.4,105.9,160.2,100.5z"/>
	<circle class="st1" cx="89.9" cy="89.9" r="56.2"/>
	<line class="st0" x1="127.4" y1="89.9" x2="134.8" y2="89.9"/>
	<line class="st0" x1="44.9" y1="89.9" x2="52.4" y2="89.9"/>
	<g>
		<path class="st2" d="M103,72.4c0,7.3-5.9,13.1-13.1,13.1c-7.3,0-13.1-5.9-13.1-13.1c0-7.3,5.9-13.1,13.1-13.1
			C97.2,59.2,103,65.1,103,72.4"/>
		<path class="st2" d="M89.9,87.7c-16.9,0-30.7,13.8-30.7,30.7c0,1.3,0.9,2.2,2.2,2.2h57c1.3,0,2.2-0.9,2.2-2.2
			C120.6,101.5,106.8,87.7,89.9,87.7z"/>
	</g>
</g>
</svg>
