<?xml version="1.0" encoding="utf-8"?>
<!-- Generator: Adobe Illustrator 25.2.1, SVG Export Plug-In . SVG Version: 6.00 Build 0)  -->
<svg version="1.1"
	 id="Layer_1" xmlns:cc="http://creativecommons.org/ns#" xmlns:dc="http://purl.org/dc/elements/1.1/" xmlns:rdf="http://www.w3.org/1999/02/22-rdf-syntax-ns#" xmlns:svg="http://www.w3.org/2000/svg"
	 xmlns="http://www.w3.org/2000/svg" xmlns:xlink="http://www.w3.org/1999/xlink" x="0px" y="0px" viewBox="0 0 165.9 175.8"
	 style="enable-background:new 0 0 165.9 175.8;" xml:space="preserve">
<style type="text/css">
	.st0{fill:#B3B3B3;}
	.st1{fill:#A6120D;}
	.st2{fill:#DD1B16;}
	.st3{fill:#F2F2F2;}
</style>
<g id="g48">
	<polygon id="polygon50" class="st0" points="13.1,137.4 82.8,175.8 152.8,136.9 165.9,28.6 82.7,0 0,29.1 	"/>
	<polygon id="polygon52" class="st1" points="82.5,166.6 145.5,131.7 157.7,34.8 82.5,9.2 	"/>
	<polygon id="polygon54" class="st2" points="82.5,166.6 82.5,9.2 9.3,35.3 20.5,132.2 	"/>
	<path id="path56" class="st3" d="M103.2,93l-20.7,9.7H60.7l-10.3,25.6l-19.1,0.4L82.5,14.9L103.2,93z M101.2,88.1L82.6,51.4
		L67.4,87.5h15.1L101.2,88.1z"/>
	<polygon id="polygon58" class="st0" points="99.9,87.5 82.5,87.5 82.5,102.6 106.5,102.7 117.7,128.7 136,129 82.5,14.9 82.6,51.4 
			"/>
</g>
</svg>
