<?xml version="1.0" encoding="utf-8"?>
<!-- Generator: Adobe Illustrator 25.2.1, SVG Export Plug-In . SVG Version: 6.00 Build 0)  -->
<svg version="1.1" id="Layer_1" xmlns="http://www.w3.org/2000/svg" xmlns:xlink="http://www.w3.org/1999/xlink" x="0px" y="0px"
	 viewBox="0 0 171.6 88.1" style="enable-background:new 0 0 171.6 88.1;" xml:space="preserve">
<style type="text/css">
	.st0{fill-rule:evenodd;clip-rule:evenodd;}
</style>
<path class="st0" d="M1.3,86.9v-65h8.6v65H1.3z M5.5,11C2.5,11,0,8.5,0,5.5S2.5,0,5.5,0c3.1,0,5.6,2.4,5.6,5.5
	C11.1,8.5,8.6,11,5.5,11z"/>
<path class="st0" d="M7.9,84.9H3.3v-61h4.6C7.9,23.9,7.9,84.9,7.9,84.9z M5.5,9C3.6,9,2,7.4,2,5.5C2,3.5,3.6,2,5.5,2
	c2,0,3.6,1.5,3.6,3.5C9.1,7.4,7.5,9,5.5,9z"/>
<path class="st0" d="M62.2,88.1c-23.3,0-38.4-17.3-38.4-44.1c0-26.7,15.1-44,38.4-44s38.4,17.3,38.4,44
	C100.6,70.8,85.5,88.1,62.2,88.1z M62.2,8.2C43.8,8.2,32.4,21.9,32.4,44s11.4,35.9,29.8,35.9S92,66.1,92,44S80.6,8.2,62.2,8.2z"/>
<path class="st0" d="M62.2,86.1c-22.3,0-36.4-16.2-36.4-42.1C25.8,18.3,40,2,62.2,2s36.4,16.3,36.4,42
	C98.6,69.8,84.5,86.1,62.2,86.1z M62.2,6.2C42.8,6.2,30.4,20.9,30.4,44c0,23.2,12.5,37.9,31.8,37.9C81.6,81.9,94,67.2,94,44
	C94,20.9,81.6,6.2,62.2,6.2L62.2,6.2z"/>
<path class="st0" d="M141.1,88.1c-17.8,0-30.7-10.2-31.4-24.9l-0.1-2.1h8.5l0.1,1.9c0.6,10,10.2,17,23.3,17c12.4,0,21.5-7,21.5-16.6
	c0-7.4-5.2-11.8-18-15l-9.7-2.4c-16.3-4.1-23.5-11-23.5-22.2c0-13.6,12.4-23.9,28.8-23.9c16.5,0,28.8,9.7,29.4,23l0.1,2.1h-8.4
	l-0.1-1.9C161,14.4,152.2,8,140.6,8c-11.5,0-20.1,6.7-20.1,15.7c0,7,5.1,11.1,17.6,14.2l9.1,2.3c17.1,4.2,24.4,11,24.4,22.8
	C171.6,77.8,159,88.1,141.1,88.1L141.1,88.1z"/>
<path class="st0" d="M141.1,86.1c-16.8,0-28.8-9.5-29.4-23h4.5c0.7,11.1,11.1,18.9,25.3,18.9c13.9,0,23.5-7.9,23.5-18.5
	c0-8.6-5.8-13.5-19.5-16.9l-9.7-2.4c-15.1-3.9-22-10-22-20.2c0-12.7,11.9-21.9,26.8-21.9c15.4,0,26.9,9.1,27.4,21.1h-4.5
	c-0.6-9.8-10.2-16.9-23-16.9c-12.3,0-22.1,7.4-22.1,17.7c0,8.2,6,12.9,19.1,16.1l9.1,2.3c15.8,3.9,22.9,10,22.9,20.8
	C169.6,76.6,158.2,86.1,141.1,86.1L141.1,86.1z"/>
</svg>
