<?xml version="1.0" encoding="utf-8"?>
<!-- Generator: Adobe Illustrator 26.0.3, SVG Export Plug-In . SVG Version: 6.00 Build 0)  -->
<svg version="1.1" id="Ñëîé_1" xmlns="http://www.w3.org/2000/svg" xmlns:xlink="http://www.w3.org/1999/xlink" x="0px" y="0px"
	 viewBox="0 0 30.31 34.74" style="enable-background:new 0 0 30.31 34.74;" xml:space="preserve">
<style type="text/css">
	.st0{fill:#EE3982;}
	.st1{fill:#2C2F31;}
</style>
<g>
	<path class="st0" d="M22.54,1.2c-0.31-0.19-0.43-0.05-0.65-0.1c-0.16-0.11-0.2-0.25-0.22-0.4c-0.22,0.2-0.26-0.34-0.27-0.29
		c-0.05,0.17-0.25,0.42-0.31,0.18c-0.05,0.04-0.03,0.22-0.13,0.16c0-0.06,0.14-0.17,0.03-0.21c-0.02,0.03-0.03,0.07-0.08,0.05
		c0.01-0.02-0.02-0.06-0.05-0.02c0.1,0.19-0.14,0.72-0.35,0.78c-0.09-0.1,0.12-0.44,0.02-0.43c-0.08,0.16-0.23,0.64-0.33,0.35
		c-0.17,0.6-0.39,1.2-0.82,1.64c-0.03-0.13,0.04-0.48-0.08-0.47c0.19,0.26-0.31,0.13-0.19,0.27c0.02-0.03,0.05-0.03,0.11,0
		C19.13,2.77,19.3,2.88,19.28,3c-0.06,0.35-0.29,0.77-0.54,1.21c-0.11-0.04-0.22-0.04-0.26,0.06c-0.05,0.13-0.03,0.25,0.03,0.35
		c-0.19,0.4-0.37,0.79-0.47,1.14c0-0.01,0-0.02-0.01-0.02c-0.1,0.06-0.11,0.3-0.34,0.15c0.01-0.04,0.06-0.1,0.01-0.13
		c-0.07,0.17-0.03-0.06-0.15,0.04c-0.09-0.03-0.01-0.1-0.07-0.13c-0.06,0.14-0.15-0.01-0.19-0.08c0-0.07,0.13-0.16,0.05-0.21
		c-0.08,0.03-0.08,0.18-0.17,0.19c0.02-0.05,0.13-0.24,0.04-0.18c-0.05,0.14-0.12,0.22-0.26,0.19c0.12-0.13,0.01-0.33-0.12-0.32
		c0.02,0.04,0.14,0.07,0.07,0.13c-0.05-0.02-0.06,0.03-0.1,0.02c-0.12-0.17-0.29-0.07-0.46-0.06c-0.02-0.06,0.01-0.13-0.05-0.19
		c-0.09,0.12-0.04,0.34-0.13,0.38c-0.23-0.14-0.33-0.04-0.5-0.08c-0.12-0.09-0.15-0.2-0.17-0.31c-0.17,0.15-0.2-0.26-0.21-0.22
		c-0.02,0.07-0.07,0.15-0.12,0.19c0-0.21-0.32-0.29-0.46-0.19c-0.12,0.09-0.02,0.33,0.14,0.42c-0.05,0.14-0.15,0.28-0.24,0.3
		c-0.07-0.07,0.09-0.34,0.02-0.33c-0.06,0.12-0.18,0.49-0.25,0.27c-0.13,0.46-0.3,0.92-0.63,1.25c-0.03-0.1,0.03-0.37-0.06-0.36
		c0.14,0.2-0.24,0.1-0.15,0.21c0.02-0.02,0.04-0.02,0.08,0c-0.06,0.05,0.07,0.13,0.06,0.22c-0.06,0.34-0.32,0.77-0.57,1.2
		C12.9,8.56,12.69,9,12.67,9.35c0.01-0.02,0.01-0.06,0.05-0.05c-0.2,0.5-0.28,1.17-0.35,1.87c-0.13-0.2-0.37,0.03-0.27,0.23
		c0.05,0.11,0.17,0.1,0.25,0.04c-0.05,0.5-0.09,0.99-0.16,1.44c0.01-0.08-0.01-0.14-0.07-0.19l-0.03,0.45
		c0.25-0.02-0.09,0.15,0.11,0.07c0,0.06-0.02,0.12-0.04,0.18c-0.05-0.09-0.18-0.17-0.2-0.01c-0.01,0.11,0.06,0.17,0.14,0.15
		c-0.02,0.08-0.03,0.16,0.02,0.27c0-0.08,0.03-0.13,0.09-0.13c-0.04,0.32-0.03,0.66-0.01,1c-0.14,0.15-0.25,0.32-0.34,0.49
		c-0.13,0.26-0.01,0.52,0.21,0.65c-0.01,0.22-0.11,0.49-0.01,0.58c0.05-0.23,0.13-0.38,0.06-0.56c0.04,0.02,0.08,0.03,0.12,0.04
		c-0.01,0.27-0.05,0.52-0.15,0.73c-0.01-0.03,0-0.06-0.04-0.08c0.02,0.29,0.03,0.54,0.05,0.77c-0.03,0-0.05-0.01-0.08-0.01
		c-0.28,0.02-0.23,0.22-0.25,0.4c-0.02,0.19-0.37,0.18-0.5,0.26c-0.23,0.15-0.07,0.47,0.21,0.36c0.08-0.03,0.5-0.17,0.63-0.26
		c-0.01,0.08,0.01,0.16,0.05,0.22c0.01,0.19,0.02,0.39,0.04,0.62c-0.16,0.13-0.32,0.28-0.22,0.41c0.07,0.09,0.17,0.12,0.26,0.14
		c0.01,0.13,0.03,0.24,0.04,0.37c-0.24-0.21-0.62-0.31-0.86-0.03c-0.04-0.04-0.08-0.07-0.1-0.05c-0.05,0.04-0.04,0.17,0.01,0.29
		c-0.05,0.25-0.03,0.58,0.14,0.69c0.16,0.09,0.66-0.07,0.82-0.15c0,0.09,0.01,0.18,0.06,0.25c0.06-0.04,0-0.24,0.08-0.26
		c0.11,0.23,0.05,0.52-0.01,0.73c-0.03-0.16,0.03-0.2-0.07-0.28c-0.08,0.14,0.1,0.21,0,0.32c0.06,0.04,0.1-0.01,0.11,0.04
		c0,0.22,0.03,0.36,0.02,0.53c-0.02,0-0.04,0-0.06,0c0.02-0.06,0.02-0.13-0.04-0.21c0.02,0.08-0.01,0.16-0.03,0.23
		c-0.01,0-0.03,0.01-0.04,0.01c-0.17,0.08-0.1,0.19,0.03,0.23c-0.01,0.03-0.02,0.06,0.01,0.08c0,0.02,0,0.04,0,0.06
		c-0.01-0.01-0.01-0.02-0.03-0.03c-0.02,0.11-0.07,0.18-0.08,0.26c-0.25-0.28-0.58-0.55-0.77-0.5c-0.15,0.04-0.25,0.15-0.39,0.2
		c-0.16,0.06-0.24-0.07-0.39-0.08c-0.26-0.02-0.37,0.47-0.15,0.46c0.62-0.01-0.04,0.84,0.07,1.21c0.04,0.13,0.11,0.28,0.21,0.41
		c-0.07-0.02-0.13-0.04-0.19-0.01c-0.03,0.01-0.06,0.06-0.08,0.11c-0.02-0.01-0.03-0.01-0.05-0.02c-0.14-0.04-0.25,0-0.33,0.07
		c0.01-0.03,0-0.07,0-0.1c0.14-0.19,0.02-0.47-0.33-0.37c-0.1,0.03-0.46,0.1-0.51,0.19c-0.07,0.14,0.15,0.31,0.29,0.35
		c0.06,0.17,0.23,0.29,0.41,0.16c0,0,0.01-0.01,0.01-0.01c-0.05,0.15-0.04,0.32,0.03,0.44c0.11,0.19,0.63-0.23,0.63-0.51
		c0.04,0,0.07-0.01,0.11,0c0.16,0.04,0.2,0.59,0.23,0.76c0.01,0.11-0.23,0.27-0.22,0.49c0,0.18,0.16,0.5,0.29,0.61
		c-0.24,0.1-0.47,0.22-0.55,0.46c-0.22,0.61,0.49,0.74,0.89,0.42c0.08,0.27,0.28,0.52,0.34,0.84c-0.07-0.03-0.02-0.12-0.11-0.14
		c0.07,0.33-0.21,0.22-0.16,0.54c0.13,0.06,0.12-0.06,0.19-0.07c0,0.07,0.02,0.13,0.07,0.17c0.02-0.09,0.16,0.01,0.19,0.03
		c-0.05,0.13-0.02,0.07,0.07,0.06c0.07,0.23-0.09,0.29,0,0.55c0.17,0.06-0.02-0.1,0.08-0.11c0.1,0.13,0.13,0.02,0.23,0.05
		c0.08,0.11,0.12,0.34,0.19,0.17c0.08,0.16-0.18,0.14,0,0.21c-0.01-0.11,0.1-0.08,0.08-0.21c0.09,0.13,0.33,0.02,0.27-0.04
		c0,0.03-0.07,0.02-0.08-0.03c0-0.09,0.01-0.17,0.11-0.13c0.24,0.19,0.26,0.38,0.26,0.63c0.09,0.05,0.17,0.08,0.22,0.21
		c-0.01,0.04-0.15,0.07-0.04,0.16c0-0.08,0.06-0.11,0.15-0.08c0.05,0.06,0.05,0.21,0,0.23c0.08-0.03,0.18,0.01,0.23,0.01
		c0.08-0.24,0.42-0.14,0.71-0.12c0.07,0.37,0.76,0.77,1.05,0.42c0.13-0.16,0.11-0.33,0-0.48c0.02,0,0.04-0.01,0.06-0.01
		c-0.03,0.11,0.08,0.15,0.07,0.25c0.08-0.05,0.12-0.04,0.34,0.02c-0.01,0.07,0.01,0.12,0.07,0.15c0.11-0.07,0.32-0.03,0.46-0.06
		c-0.05,0.01-0.04,0.05-0.01,0.1c-0.1,0.09-0.05,0.21,0.07,0.28c-0.07,0.07-0.13,0.14-0.1,0.33c0.17,0.08,0.15-0.08,0.25-0.09
		c0.01,0.09,0.03,0.16,0.1,0.22c0.02-0.11,0.21,0.02,0.25,0.04c-0.06,0.17-0.03,0.1,0.1,0.08c0.09,0.3-0.12,0.38-0.01,0.72
		c0.22,0.08-0.02-0.14,0.1-0.15c0.13,0.17,0.17,0.03,0.3,0.06c0.1,0.14,0.15,0.44,0.25,0.22c0.1,0.2-0.23,0.18,0,0.27
		c-0.01-0.14,0.13-0.1,0.1-0.28c0.12,0.17,0.43,0.03,0.35-0.06c0,0.05-0.09,0.03-0.1-0.03c0.01-0.11,0.01-0.22,0.15-0.17
		c0.32,0.24,0.34,0.5,0.34,0.83c0.12,0.07,0.22,0.1,0.29,0.28c-0.01,0.05-0.2,0.1-0.05,0.2c0.01-0.11,0.07-0.15,0.2-0.11
		c0.07,0.08,0.07,0.27,0,0.3c0.11-0.04,0.24,0.01,0.3,0.01c0.13-0.41,0.86-0.05,1.24-0.18c0.16,0.05,0.11,0.2,0.2,0.28
		c0.12,0,0.09-0.18,0.2-0.19c0.17,0.09-0.02,0.32,0.1,0.29c0.06-0.1,0.06-0.2,0-0.34c0.13,0.08,0.28-0.17,0.4,0.05
		c0.05-0.12,0.06-0.15,0.25-0.16c-0.03,0.14,0.11,0.2,0.1,0.33c0.11-0.07,0.15-0.06,0.45,0.03c-0.02,0.09,0.01,0.16,0.1,0.2
		c0.14-0.09,0.41-0.04,0.6-0.08c-0.14,0.02,0.07,0.3,0.15,0.21c-0.17-0.18,0.14,0.04,0.3,0.06c0.08-0.18,0.31-0.17,0.49-0.07
		c-0.07-0.06,0.08-0.15,0.06-0.17c0.18,0.21,0.25-0.12,0.4,0.06c-0.06,0.13-0.34,0.01-0.4,0.14c0.13,0.12,0.24,0.04,0.35,0.2
		c0-0.18,0.2-0.14,0.35-0.15c0,0.13-0.13,0.26-0.2,0.09c-0.01,0.05-0.15,0.14-0.05,0.18c0.14-0.09,0.03,0.11,0.1,0.11
		c0.03-0.21,0.4-0.25,0.6-0.14c0.07,0.35-0.3,0.31-0.55,0.39c0.57,0.19,0.74-0.08,1-0.24c0.13,0.07,0.27,0.1,0.25,0.2
		c0.06-0.13,0.09-0.35,0.1-0.62c-0.01,0.03,0,0.08-0.05,0.06c0-0.06,0.01-0.13-0.1-0.15c0.03,0.21-0.13,0.31,0.05,0.36
		c-0.17-0.02,0.04,0.19-0.15,0.1c-0.05-0.19,0.03-0.74,0.25-0.53c-0.08-0.16,0-0.19,0.1-0.23c0.04,0.14-0.06,0.31,0,0.35
		c0.14-0.11,0.37-0.28,0.11-0.54c-0.02,0.04,0,0.11-0.06,0.1c-0.09-0.33,0.01-0.89,0.3-1.26c-0.08,0.33-0.15,0.66-0.13,0.96
		c0.02-0.04,0.02-0.11,0.08-0.09c-0.02,0.23-0.11,0.3,0.01,0.44c0.32-0.53,0-1.22,0.25-1.92c0.12,0.04,0.24,0.09,0.23,0.17
		c0,0.05-0.2,0.07-0.09,0.13c0.02-0.04,0.07-0.04,0.12-0.03c-0.02,0.29-0.11,0.52-0.17,0.72c-0.01,0.01-0.02,0.01-0.02,0.01
		c-0.05,0.05-0.04,0.11-0.01,0.15c-0.01,0.11,0,0.21,0.06,0.31c0.01-0.13,0.06-0.22,0.11-0.29c0.03-0.02,0.05-0.05,0.06-0.07
		c0.07-0.07,0.15-0.12,0.23-0.17C27,32.84,27.13,33,27.27,33.17c0-0.07,0.18-0.13,0.05-0.22c-0.02,0.04-0.04,0.08-0.12,0.03
		c-0.08-0.25,0.02-0.36-0.13-0.57c-0.04,0.06,0.11,0.22-0.09,0.13c0.09-0.2,0.05-0.5,0.14-0.59c-0.27-0.1-0.01,0.32-0.18,0.29
		c-0.11-0.41,0.1-0.86,0.17-1.24c-0.02,0.03-0.02,0.07-0.07,0.06c0.21-0.69,0.52-1.38,0.79-2.09c0.21-0.79,0.4-1.59,0.44-2.42
		c0.01-0.14-0.06-0.29-0.07-0.42c0-0.25-0.01-0.49-0.02-0.74c0.02-0.06,0.01-0.11-0.01-0.17c-0.06-1.64-0.16-3.28-0.07-4.89
		c0.01-0.14,0.07-0.3,0.01-0.47c0.01,0,0.02,0,0.03,0c0.14-0.04,0.2-0.05,0.23-0.03c0.02,0.12,0.04,0.24,0.08,0.34
		c0-0.06,0-0.13,0.01-0.2c0.01,0.03,0.02,0.05,0.04,0.09c0.07,0.14,0.21-0.58,0.22-0.6c0.06-0.34,0.02-0.43-0.22-0.63
		c-0.02-0.02-0.05-0.03-0.08-0.03c-0.04-0.27-0.07-0.55-0.08-0.85c0.01,0,0.02,0,0.03-0.01c0.22-0.11,0.15-0.38-0.04-0.45
		c0-0.15,0-0.3,0-0.46c0.03-0.05,0.06-0.11,0.06-0.16c0.01-0.1-0.01-0.18-0.05-0.24c0-0.03,0-0.06,0-0.09
		c0.04,0.04,0.11,0.07,0.2,0.05c0.37-0.07,0.26-0.54-0.1-0.43c-0.04,0.01-0.07,0.03-0.09,0.06c0.02-0.45,0.04-0.9,0.06-1.34
		c0.01-0.01,0.02-0.01,0.03-0.01c0.02-0.02,0.04-0.04,0.05-0.06c0.03,0.1,0.03,0.21,0.04,0.3c0.02,0.13-0.05,0.47,0.03,0.56
		c0.01,0.01,0.07,0.01,0.15,0c0,0.1,0.01,0.2,0.05,0.28c0.02-0.07,0.06-0.18,0.05-0.29c0.12-0.02,0.24-0.05,0.27-0.06
		c0.2-0.1-0.05-0.24,0.03-0.37c0.11-0.19,0.06-0.4-0.05-0.59c0-0.14,0-0.27-0.03-0.42c-0.08,0.05-0.08,0.15-0.09,0.23
		c-0.14-0.18-0.3-0.34-0.41-0.44c-0.04-0.03-0.07-0.06-0.1-0.08c0-0.12,0-0.24,0-0.34c-0.01,0.06-0.01,0.14-0.11,0.08
		c0.01-0.03,0.01-0.06,0.02-0.1c0.13,0.04,0.32-0.13,0.26-0.31c-0.03-0.08-0.08-0.11-0.14-0.11c-0.01-0.01-0.01-0.02-0.01-0.03
		c-0.02-0.03-0.03-0.04-0.05-0.06c0.04-0.38,0.06-0.81,0.06-1.08c0,0.06-0.05-0.13-0.04-0.27c0.02,0.02,0.05,0.03,0.07,0.04
		c0,0.12,0.02,0.23,0.04,0.05c0-0.01,0-0.02,0-0.03c0.11,0.03,0.21,0,0.28-0.15c0.12-0.26,0.04-0.56-0.13-0.72
		c0.24-1.09,0.63-2.09,0.89-3.03c0.03-0.03,0.06-0.07,0.07-0.12c0.02-0.1-0.05-0.14-0.12-0.15c0.01-0.58,0.17-1.32,0.5-1.81
		c-0.32-0.49,0.47-0.89,0.21-1.36c-0.17,0.07-0.29,0.25-0.51,0.24c-0.24-0.39-0.29-0.81-1-0.88c-0.07-0.15-0.37-0.2-0.33-0.43
		c0.07,0.03,0.08-0.09,0.02-0.03c-0.38-0.15-0.2-0.58-0.1-0.8c-0.15,0.12-0.17,0.46-0.45,0.35c0.05-0.08,0.09-0.17-0.02-0.22
		c-0.1,0.18-0.21,0.36-0.5,0.21c0.06-0.04,0.13-0.31,0.08-0.31c-0.14,0.02-0.06,0.25-0.17,0.26c-0.4,0.04-1.16-0.62-0.9-0.72
		c-0.09-0.01-0.07,0.17-0.18,0.14c-0.05-0.1-0.19-0.19-0.29-0.12l0.24,0.1c0.05,0.1,0.03,0.37-0.13,0.42
		c-0.23-0.17-0.39-0.17-0.42-0.35c0.07-0.13,0.31-0.3,0.26-0.45c-0.11,0.08-0.16,0.27-0.31,0.3c0.13-0.34,0.08-0.19-0.04-0.09
		c-0.05-0.08-0.15-0.13-0.24-0.1c-0.01-0.01-0.02-0.02-0.03-0.03c-0.08,0-0.05,0.04-0.05,0.07C25.17,1.99,25.17,2,25.17,2
		c-0.01,0-0.01,0.01-0.03,0c-0.04-0.15-0.24-0.07-0.24-0.23c0.01-0.1,0.18-0.24,0.08-0.31c-0.14,0.08-0.15,0.39-0.44,0.2
		c0.02-0.06,0.08-0.13,0.02-0.16c-0.1,0.22-0.05-0.08-0.19,0.05c-0.12-0.04-0.01-0.13-0.1-0.17c-0.08,0.18-0.2-0.02-0.24-0.1
		c0.01-0.09,0.17-0.21,0.07-0.28c-0.1,0.04-0.11,0.24-0.23,0.25C23.87,1.18,24.03,0.92,23.9,1c-0.06,0.18-0.16,0.29-0.34,0.24
		c0.16-0.17,0.01-0.43-0.16-0.42c0.03,0.06,0.18,0.09,0.1,0.17c-0.06-0.03-0.07,0.04-0.13,0.03c-0.16-0.23-0.38-0.1-0.6-0.08
		c-0.03-0.08,0.01-0.18-0.06-0.25C22.58,0.87,22.64,1.15,22.54,1.2z M24.91,33.98c0.05,0.02,0.04,0.06,0.05,0.1
		c0.04,0.02,0.05,0,0.05-0.02c0.15,0.13-0.12,0.1-0.15,0.14C24.7,34.07,24.99,34.14,24.91,33.98z M25.11,34.44
		c0.16-0.2,0.19-0.32,0.4-0.48C25.49,34.09,25.4,34.48,25.11,34.44z M18.69,32.73c0.01-0.04,0.1,0,0.1-0.05
		c0.14,0.02,0.1,0.12,0.2,0.16C18.82,32.78,18.87,32.96,18.69,32.73z M19.08,32.69c0.14,0.06,0.21,0.15,0.19,0.29
		C19.15,32.92,19.11,32.8,19.08,32.69z M19.33,32.86l0-0.22c0.06,0.03,0.09,0.02,0.1-0.01C19.5,32.67,19.46,32.93,19.33,32.86z
		 M13.22,29.68c0.01-0.03,0.08,0,0.08-0.04c0.1,0.01,0.08,0.09,0.15,0.12C13.33,29.72,13.37,29.86,13.22,29.68z M13.8,29.63
		c0.03,0.05,0,0.2-0.09,0.15l0-0.03C13.75,29.73,13.78,29.68,13.8,29.63z M13.57,29.76c0.02,0.01,0.03,0.01,0.05,0.02
		c0.01,0,0.02-0.01,0.03-0.01c0.01,0.03,0.03,0.06,0.02,0.1C13.62,29.85,13.59,29.81,13.57,29.76z M27.05,30.65
		c-0.03,0.11-0.08,0.25-0.12,0.44c-0.22-0.18,0-0.36,0.02-0.49C26.98,30.62,27.01,30.65,27.05,30.65z M26.85,30.47
		c0.02,0.03,0.04,0.07,0.07,0.09c-0.13,0.19-0.27,0.6-0.12,0.08c0.02-0.07-0.02-0.12,0-0.19C26.81,30.47,26.83,30.47,26.85,30.47z
		 M27.08,30.13c-0.01-0.05-0.04-0.09-0.07-0.13c0.02-0.08,0.06-0.17,0.12-0.24C27.2,29.9,27.16,30.05,27.08,30.13z M28.11,26.21
		c-0.13-0.26-0.04-0.38-0.04-0.66C28.14,25.66,28.16,26.08,28.11,26.21z M28.07,24.96c-0.2-0.16,0.05-0.35-0.09-0.63
		C28.17,24.46,28.03,24.76,28.07,24.96z M12.41,22.43c-0.01,0.01-0.02,0.03-0.04,0.03c-0.04-0.05-0.01-0.08,0-0.1
		C12.38,22.39,12.39,22.41,12.41,22.43z M12.33,19.56c-0.03-0.05-0.03-0.08-0.02-0.11c0.02,0,0.04,0,0.06,0
		C12.37,19.49,12.36,19.53,12.33,19.56z M27.97,19.82c0,0.19,0.03,0.4-0.06,0.48c0.01-0.17,0.01-0.34,0-0.51
		C27.94,19.8,27.95,19.81,27.97,19.82z M12.3,18.39c0.01,0.15,0.02,0.29,0,0.42c0,0.01,0,0.01,0,0.02
		c-0.01,0.01-0.01,0.01-0.02,0.02c-0.01-0.04-0.02-0.15-0.01-0.18l0-0.26c0-0.01,0-0.03,0-0.04C12.27,18.38,12.29,18.38,12.3,18.39z
		 M12.15,17.96c-0.01,0.01-0.01,0.02-0.01,0.04c-0.02,0-0.04-0.01-0.06-0.01C12.1,17.98,12.13,17.97,12.15,17.96
		C12.15,17.95,12.15,17.95,12.15,17.96z M12.34,17.72c0,0,0-0.01,0.01-0.01C12.35,17.72,12.35,17.72,12.34,17.72
		C12.34,17.73,12.34,17.72,12.34,17.72z M28.27,17.95c0.03,0.26,0.04,0.54,0.05,0.82c-0.08-0.01-0.16-0.02-0.18-0.12
		c0.01-0.24,0.02-0.48,0.05-0.71C28.21,17.95,28.24,17.95,28.27,17.95z M28.01,18.31c-0.01,0-0.03-0.01-0.04-0.01
		c0.01-0.05,0.02-0.09,0.04-0.14C28.01,18.21,28.01,18.26,28.01,18.31z M12.32,17.36c-0.03-0.03-0.06-0.05-0.11-0.06
		c0-0.18,0.01-0.38,0.01-0.59C12.3,16.91,12.31,17.12,12.32,17.36z M28.21,16.02c-0.14-0.17-0.05-0.23-0.07-0.48
		C28.2,15.53,28.22,15.87,28.21,16.02z M28.26,14.91c-0.01,0.04-0.02,0.08-0.04,0.11c-0.01-0.04-0.02-0.09-0.03-0.13
		C28.21,14.91,28.24,14.91,28.26,14.91z M28.95,8.77c-0.01,0.3,0.02,0.69-0.1,0.78c0.05-0.04,0.01-0.47,0.05-0.79
		C28.91,8.77,28.93,8.77,28.95,8.77z M17.99,6.02C17.98,6.01,17.97,6,17.97,5.98c0-0.03,0.02-0.06,0.04-0.09
		C18.01,5.93,18,5.98,17.99,6.02z"/>
	<path class="st0" d="M8.55,31.29c0.31,0.18,0.43,0.05,0.65,0.1c0.16,0.11,0.2,0.24,0.22,0.38c0.22-0.18,0.26,0.31,0.28,0.27
		c0.05-0.16,0.25-0.39,0.31-0.16c0.05-0.04,0.03-0.2,0.13-0.15c0,0.06-0.14,0.16-0.03,0.19c0.02-0.02,0.03-0.07,0.08-0.05
		c-0.01,0.02,0.02,0.05,0.05,0.02c-0.1-0.18,0.14-0.67,0.35-0.72c0.1,0.09-0.12,0.41-0.02,0.4c0.08-0.15,0.23-0.6,0.33-0.32
		c0.16-0.56,0.39-1.12,0.81-1.52c0.03,0.12-0.03,0.45,0.08,0.44c-0.19-0.25,0.31-0.12,0.19-0.25c-0.02,0.02-0.05,0.03-0.11,0
		c0.08-0.06-0.1-0.16-0.08-0.27c0.06-0.33,0.28-0.72,0.53-1.12c0.11,0.04,0.22,0.04,0.26-0.05c0.05-0.12,0.02-0.24-0.03-0.33
		c0.19-0.37,0.36-0.74,0.46-1.06c0,0.01,0,0.01,0.01,0.02c0.1-0.06,0.11-0.28,0.34-0.14c-0.01,0.04-0.06,0.09-0.01,0.12
		c0.07-0.16,0.03,0.06,0.15-0.03c0.09,0.03,0.01,0.09,0.08,0.12c0.06-0.13,0.15,0.01,0.19,0.07c0,0.06-0.13,0.15-0.05,0.2
		c0.08-0.03,0.08-0.17,0.17-0.18c-0.02,0.04-0.13,0.23-0.04,0.17c0.05-0.13,0.12-0.21,0.26-0.17c-0.12,0.12-0.01,0.31,0.12,0.3
		c-0.02-0.04-0.14-0.06-0.08-0.12c0.05,0.02,0.06-0.03,0.1-0.02c0.12,0.16,0.29,0.07,0.46,0.06c0.02,0.06-0.01,0.13,0.05,0.18
		c0.09-0.11,0.04-0.32,0.12-0.35c0.23,0.14,0.33,0.04,0.5,0.07c0.12,0.08,0.15,0.18,0.17,0.29c0.17-0.14,0.2,0.24,0.21,0.21
		c0.02-0.06,0.07-0.14,0.12-0.18c0,0.19,0.32,0.27,0.46,0.18c0.12-0.08,0.01-0.31-0.14-0.39c0.05-0.13,0.15-0.26,0.24-0.28
		c0.07,0.07-0.09,0.32-0.01,0.31c0.06-0.12,0.17-0.46,0.25-0.25c0.13-0.43,0.3-0.86,0.62-1.17c0.03,0.09-0.03,0.34,0.06,0.33
		c-0.14-0.19,0.24-0.09,0.15-0.19c-0.02,0.02-0.04,0.02-0.08,0c0.06-0.05-0.07-0.12-0.06-0.21c0.06-0.32,0.32-0.71,0.56-1.11
		c0.21-0.41,0.41-0.82,0.43-1.15c-0.01,0.02-0.01,0.06-0.05,0.04c0.19-0.47,0.28-1.09,0.34-1.74c0.13,0.18,0.37-0.03,0.27-0.21
		c-0.05-0.1-0.17-0.1-0.25-0.04c0.04-0.46,0.09-0.93,0.16-1.34c-0.01,0.07,0.01,0.13,0.07,0.18l0.03-0.42
		c-0.25,0.02,0.09-0.14-0.11-0.07c0-0.06,0.02-0.11,0.04-0.17c0.05,0.09,0.18,0.16,0.2,0.01c0.01-0.1-0.06-0.16-0.15-0.14
		c0.02-0.07,0.03-0.15-0.02-0.25c0,0.08-0.03,0.12-0.08,0.12c0.04-0.3,0.03-0.61,0-0.93c0.14-0.13,0.25-0.3,0.34-0.46
		c0.13-0.24,0.01-0.49-0.22-0.6c0.01-0.2,0.1-0.45,0.01-0.54c-0.05,0.21-0.13,0.35-0.06,0.52c-0.04-0.02-0.08-0.03-0.12-0.04
		c0.01-0.25,0.05-0.48,0.15-0.68c0.01,0.03,0,0.06,0.04,0.07c-0.02-0.27-0.04-0.5-0.05-0.72c0.03,0,0.05,0.01,0.08,0.01
		c0.27-0.02,0.23-0.21,0.25-0.37c0.02-0.18,0.37-0.16,0.5-0.24c0.23-0.14,0.07-0.44-0.21-0.34c-0.08,0.03-0.5,0.15-0.63,0.24
		c0.01-0.08-0.01-0.15-0.05-0.21c-0.01-0.18-0.03-0.37-0.04-0.58c0.16-0.12,0.32-0.26,0.22-0.38c-0.07-0.09-0.17-0.11-0.26-0.13
		c-0.01-0.12-0.03-0.23-0.04-0.34c0.24,0.2,0.62,0.29,0.86,0.03c0.04,0.04,0.08,0.07,0.1,0.05c0.05-0.04,0.04-0.16-0.01-0.27
		c0.05-0.23,0.02-0.54-0.15-0.64c-0.16-0.09-0.66,0.06-0.82,0.13c0-0.08-0.01-0.16-0.06-0.23c-0.06,0.04,0,0.22-0.08,0.24
		c-0.11-0.21-0.05-0.48,0-0.68c0.03,0.15-0.03,0.18,0.08,0.26c0.08-0.13-0.1-0.19,0-0.3c-0.06-0.03-0.1,0.01-0.11-0.04
		c0-0.2-0.03-0.34-0.02-0.5c0.02,0,0.04,0,0.05,0c-0.02,0.06-0.02,0.12,0.04,0.2c-0.02-0.07,0.01-0.15,0.02-0.21
		c0.01,0,0.03-0.01,0.04-0.01c0.17-0.07,0.1-0.18-0.03-0.22c0.01-0.03,0.02-0.06-0.01-0.08c0-0.02,0-0.04,0-0.06
		c0.01,0.01,0.01,0.02,0.03,0.03c0.02-0.1,0.07-0.17,0.07-0.24c0.25,0.26,0.58,0.52,0.77,0.47c0.15-0.04,0.25-0.14,0.38-0.18
		c0.16-0.05,0.24,0.07,0.39,0.08c0.26,0.02,0.36-0.43,0.15-0.43c-0.62,0.01,0.03-0.78-0.08-1.13c-0.04-0.12-0.11-0.26-0.21-0.39
		c0.07,0.02,0.13,0.04,0.19,0.01c0.03-0.01,0.06-0.06,0.08-0.1c0.02,0.01,0.03,0.01,0.05,0.02c0.14,0.04,0.25,0,0.33-0.07
		c-0.01,0.03,0,0.06,0,0.1c-0.14,0.18-0.02,0.44,0.33,0.35c0.1-0.02,0.46-0.09,0.5-0.17c0.07-0.13-0.15-0.29-0.29-0.33
		c-0.06-0.16-0.23-0.28-0.41-0.15c0,0-0.01,0.01-0.01,0.01c0.05-0.14,0.04-0.3-0.03-0.41c-0.11-0.18-0.63,0.21-0.63,0.47
		c-0.04,0-0.07,0.01-0.11,0c-0.16-0.04-0.21-0.55-0.23-0.71c-0.01-0.1,0.22-0.25,0.22-0.46c0-0.17-0.16-0.46-0.29-0.57
		c0.24-0.09,0.47-0.2,0.55-0.43c0.21-0.57-0.49-0.69-0.89-0.4c-0.08-0.25-0.28-0.48-0.35-0.79c0.07,0.03,0.03,0.12,0.11,0.14
		c-0.07-0.31,0.21-0.21,0.16-0.5c-0.13-0.06-0.12,0.06-0.19,0.07c0-0.06-0.02-0.12-0.07-0.15C19.15,5.87,19,5.78,18.98,5.76
		C19.02,5.63,19,5.69,18.9,5.7c-0.07-0.21,0.09-0.27,0-0.52c-0.17-0.06,0.02,0.1-0.08,0.1c-0.1-0.12-0.13-0.02-0.23-0.04
		c-0.08-0.1-0.12-0.32-0.19-0.16c-0.08-0.14,0.18-0.13,0-0.19c0.01,0.1-0.1,0.07-0.08,0.2C18.24,4.97,18,5.07,18.07,5.13
		c0-0.03,0.07-0.02,0.08,0.02c0,0.08-0.01,0.16-0.11,0.12c-0.25-0.17-0.26-0.36-0.26-0.59c-0.09-0.05-0.17-0.07-0.23-0.2
		c0.01-0.03,0.15-0.07,0.04-0.14c0,0.08-0.06,0.1-0.15,0.08c-0.05-0.06-0.05-0.19,0-0.22c-0.08,0.03-0.18-0.01-0.23-0.01
		c-0.08,0.23-0.42,0.12-0.7,0.11c-0.07-0.35-0.76-0.72-1.05-0.4c-0.13,0.15-0.11,0.31,0,0.45c-0.02,0-0.04,0.01-0.06,0.01
		c0.03-0.1-0.08-0.14-0.07-0.23c-0.08,0.05-0.12,0.04-0.34-0.02c0.01-0.06-0.01-0.11-0.07-0.14c-0.11,0.06-0.32,0.02-0.46,0.05
		c0.05-0.01,0.04-0.05,0.01-0.09c0.1-0.08,0.05-0.2-0.07-0.27c0.07-0.06,0.13-0.13,0.1-0.31c-0.17-0.08-0.15,0.08-0.25,0.09
		c-0.01-0.08-0.03-0.15-0.1-0.2c-0.02,0.11-0.21-0.02-0.25-0.04c0.06-0.16,0.03-0.09-0.1-0.08c-0.09-0.28,0.12-0.35,0-0.67
		c-0.22-0.08,0.02,0.13-0.1,0.14c-0.13-0.16-0.17-0.03-0.3-0.06c-0.1-0.13-0.15-0.41-0.25-0.21c-0.1-0.19,0.23-0.17,0-0.25
		c0.01,0.13-0.13,0.1-0.1,0.26c-0.12-0.16-0.43-0.03-0.35,0.05c0-0.04,0.09-0.02,0.1,0.03c-0.01,0.1-0.01,0.21-0.15,0.16
		c-0.32-0.23-0.34-0.47-0.34-0.77c-0.12-0.06-0.22-0.1-0.29-0.26c0.01-0.04,0.2-0.09,0.05-0.19c-0.01,0.1-0.07,0.14-0.2,0.1
		c-0.07-0.08-0.07-0.25,0-0.28c-0.11,0.04-0.24-0.01-0.3-0.01c-0.13,0.39-0.86,0.04-1.24,0.16c-0.16-0.04-0.11-0.18-0.2-0.26
		c-0.12,0-0.09,0.16-0.2,0.17c-0.17-0.09,0.02-0.3-0.1-0.27c-0.06,0.09-0.06,0.18,0,0.31C9.71,1.2,9.56,1.43,9.44,1.22
		C9.39,1.33,9.37,1.36,9.19,1.37c0.03-0.13-0.11-0.18-0.1-0.3C8.99,1.13,8.94,1.12,8.65,1.04c0.01-0.08-0.01-0.15-0.1-0.19
		c-0.14,0.08-0.41,0.03-0.6,0.07c0.14-0.02-0.07-0.28-0.15-0.2c0.17,0.17-0.14-0.04-0.3-0.06C7.43,0.83,7.2,0.82,7.02,0.73
		c0.08,0.06-0.08,0.14-0.06,0.16c-0.18-0.2-0.24,0.11-0.4-0.06c0.05-0.13,0.34,0,0.4-0.12C6.84,0.59,6.72,0.66,6.62,0.51
		c0,0.17-0.2,0.13-0.35,0.14c0-0.12,0.12-0.24,0.2-0.08C6.48,0.53,6.61,0.44,6.52,0.4C6.38,0.49,6.49,0.3,6.42,0.3
		c-0.03,0.2-0.4,0.23-0.6,0.13C5.75,0.1,6.12,0.14,6.38,0.06C5.81-0.12,5.64,0.13,5.38,0.28C5.25,0.22,5.11,0.19,5.13,0.09
		c-0.06,0.12-0.09,0.33-0.1,0.58c0.01-0.02,0-0.07,0.05-0.06c0,0.06-0.01,0.12,0.1,0.14C5.15,0.56,5.31,0.46,5.13,0.41
		c0.17,0.02-0.04-0.17,0.15-0.09C5.33,0.49,5.26,1,5.03,0.8c0.08,0.15,0,0.18-0.1,0.22C4.89,0.89,5,0.73,4.93,0.7
		C4.8,0.8,4.57,0.95,4.83,1.2c0.02-0.04,0-0.1,0.06-0.09c0.09,0.3-0.01,0.83-0.29,1.17c0.08-0.31,0.14-0.61,0.13-0.9
		c-0.02,0.04-0.02,0.1-0.08,0.08c0.02-0.21,0.11-0.28-0.01-0.41c-0.32,0.49,0,1.14-0.24,1.79C4.27,2.81,4.15,2.77,4.17,2.69
		c0-0.05,0.2-0.07,0.09-0.12C4.23,2.6,4.18,2.6,4.14,2.6C4.16,2.34,4.25,2.12,4.3,1.93c0.01,0,0.02-0.01,0.02-0.01
		c0.05-0.04,0.04-0.1,0.01-0.14c0.01-0.1,0-0.2-0.06-0.29C4.25,1.6,4.21,1.69,4.16,1.75C4.12,1.77,4.1,1.8,4.1,1.82
		C4.03,1.88,3.95,1.93,3.87,1.98c0.08-0.21-0.05-0.37-0.19-0.52c0,0.06-0.18,0.12-0.05,0.2c0.02-0.04,0.04-0.08,0.12-0.03
		c0.08,0.24-0.02,0.34,0.13,0.53c0.04-0.06-0.11-0.2,0.09-0.12C3.86,2.23,3.9,2.51,3.81,2.59c0.27,0.1,0.01-0.3,0.18-0.27
		c0.11,0.38-0.1,0.8-0.16,1.16C3.85,3.46,3.85,3.41,3.9,3.43C3.69,4.07,3.39,4.72,3.12,5.38C2.91,6.11,2.73,6.87,2.7,7.63
		C2.68,7.76,2.76,7.9,2.76,8.02c0.01,0.23,0.02,0.46,0.03,0.69C2.77,8.76,2.78,8.82,2.8,8.87c0.06,1.53,0.18,3.06,0.09,4.56
		c-0.01,0.13-0.06,0.28-0.01,0.44c-0.01,0-0.02,0-0.03,0c-0.14,0.04-0.2,0.05-0.23,0.03c-0.02-0.11-0.04-0.22-0.08-0.32
		c0,0.06,0,0.12-0.01,0.19c-0.01-0.02-0.03-0.05-0.04-0.08c-0.07-0.13-0.21,0.54-0.21,0.56c-0.06,0.31-0.02,0.4,0.22,0.59
		c0.02,0.02,0.05,0.03,0.08,0.03c0.04,0.25,0.07,0.51,0.09,0.79c-0.01,0-0.02,0-0.03,0.01c-0.22,0.1-0.14,0.35,0.04,0.42
		c0,0.14,0.01,0.28,0,0.43c-0.03,0.05-0.06,0.1-0.06,0.15c-0.01,0.1,0.01,0.17,0.05,0.22c0,0.03,0,0.06,0,0.09
		c-0.04-0.04-0.11-0.07-0.2-0.05c-0.37,0.07-0.26,0.5,0.1,0.4c0.04-0.01,0.07-0.03,0.09-0.06c-0.02,0.42-0.04,0.84-0.05,1.25
		c-0.01,0-0.02,0.01-0.03,0.01c-0.02,0.02-0.04,0.04-0.05,0.06c-0.03-0.09-0.03-0.2-0.04-0.28c-0.02-0.12,0.05-0.43-0.03-0.53
		c-0.01-0.01-0.07-0.01-0.15,0c0-0.09-0.01-0.18-0.05-0.26c-0.02,0.06-0.06,0.16-0.05,0.27c-0.12,0.02-0.24,0.04-0.27,0.05
		c-0.2,0.09,0.05,0.22-0.03,0.34c-0.11,0.18-0.06,0.37,0.05,0.55c0,0.13,0,0.25,0.03,0.39c0.08-0.04,0.08-0.14,0.09-0.21
		c0.14,0.17,0.3,0.32,0.41,0.41c0.04,0.03,0.07,0.05,0.1,0.08c0,0.11,0,0.22,0,0.32c0.01-0.06,0.01-0.13,0.11-0.08
		c-0.01,0.02-0.01,0.06-0.02,0.09c-0.13-0.04-0.32,0.12-0.26,0.29c0.03,0.08,0.08,0.1,0.14,0.1c0.01,0.01,0.01,0.02,0.01,0.03
		c0.02,0.02,0.03,0.04,0.05,0.06c-0.03,0.35-0.06,0.76-0.06,1c0-0.06,0.05,0.12,0.04,0.25c-0.02-0.02-0.05-0.03-0.07-0.04
		c0-0.11-0.02-0.21-0.04-0.05c0,0.01,0,0.02,0,0.03c-0.11-0.03-0.21,0-0.27,0.14c-0.12,0.24-0.04,0.52,0.13,0.67
		c-0.23,1.02-0.62,1.95-0.88,2.82c-0.03,0.03-0.06,0.06-0.07,0.11c-0.02,0.09,0.05,0.13,0.12,0.14c-0.01,0.54-0.17,1.23-0.49,1.69
		c0.32,0.46-0.47,0.83-0.2,1.26c0.17-0.07,0.29-0.23,0.51-0.22c0.24,0.36,0.3,0.76,1,0.82c0.07,0.14,0.37,0.19,0.33,0.4
		c-0.07-0.03-0.08,0.08-0.02,0.03c0.38,0.14,0.2,0.54,0.11,0.75c0.15-0.11,0.17-0.43,0.45-0.33c-0.05,0.08-0.08,0.16,0.02,0.2
		c0.1-0.17,0.21-0.33,0.5-0.19C3.65,29.75,3.58,30.01,3.64,30c0.14-0.01,0.06-0.23,0.17-0.25c0.4-0.04,1.16,0.58,0.9,0.68
		c0.09,0.01,0.07-0.16,0.18-0.13c0.05,0.09,0.19,0.18,0.29,0.12l-0.24-0.1c-0.05-0.09-0.04-0.35,0.13-0.39
		c0.23,0.16,0.39,0.16,0.42,0.33c-0.07,0.12-0.31,0.28-0.26,0.41c0.11-0.08,0.16-0.25,0.3-0.28c-0.13,0.32-0.08,0.18,0.04,0.08
		c0.06,0.08,0.15,0.12,0.24,0.09c0.01,0.01,0.02,0.02,0.03,0.03c0.08,0,0.05-0.04,0.05-0.06c0.01,0,0.01-0.01,0.01-0.01
		c0.01,0,0.01-0.01,0.03,0c0.04,0.14,0.24,0.07,0.24,0.22c-0.01,0.09-0.18,0.22-0.08,0.29c0.14-0.08,0.14-0.36,0.44-0.18
		c-0.02,0.05-0.08,0.12-0.02,0.15c0.1-0.2,0.05,0.07,0.19-0.04c0.12,0.04,0.01,0.12,0.1,0.16c0.08-0.17,0.2,0.02,0.24,0.1
		c0,0.08-0.17,0.2-0.06,0.26c0.1-0.03,0.11-0.22,0.23-0.23c-0.02,0.06-0.17,0.3-0.05,0.22c0.06-0.17,0.15-0.27,0.34-0.23
		c-0.16,0.16-0.01,0.4,0.16,0.39c-0.03-0.05-0.18-0.08-0.1-0.16c0.06,0.03,0.07-0.04,0.13-0.03c0.16,0.21,0.38,0.09,0.6,0.08
		c0.03,0.07-0.01,0.16,0.07,0.23C8.5,31.6,8.44,31.33,8.55,31.29z M6.02,0.71C5.98,0.7,5.98,0.66,5.97,0.62
		c-0.04-0.02-0.05,0-0.05,0.02C5.77,0.52,6.04,0.55,6.07,0.51C6.23,0.63,5.94,0.56,6.02,0.71z M5.83,0.28
		c-0.15,0.19-0.19,0.3-0.4,0.44C5.45,0.6,5.54,0.24,5.83,0.28z M12.26,1.9c-0.01,0.04-0.1,0-0.1,0.05c-0.14-0.02-0.1-0.11-0.2-0.15
		C12.12,1.86,12.07,1.69,12.26,1.9z M11.86,1.94c-0.14-0.05-0.21-0.14-0.2-0.27C11.79,1.73,11.83,1.83,11.86,1.94z M11.61,1.78
		l0,0.2c-0.06-0.03-0.09-0.02-0.1,0.01C11.44,1.95,11.48,1.71,11.61,1.78z M17.73,4.77c-0.01,0.03-0.08,0-0.08,0.04
		c-0.1-0.01-0.08-0.09-0.15-0.11C17.63,4.73,17.59,4.6,17.73,4.77z M17.15,4.81c-0.03-0.05,0-0.19,0.09-0.14l0,0.03
		C17.2,4.72,17.17,4.76,17.15,4.81z M17.39,4.69c-0.02-0.01-0.03-0.01-0.05-0.02c-0.01,0-0.02,0.01-0.03,0.01
		c-0.01-0.03-0.03-0.06-0.02-0.09C17.33,4.61,17.36,4.65,17.39,4.69z M3.91,3.8C3.94,3.7,3.98,3.57,4.02,3.4
		c0.22,0.16,0,0.33-0.02,0.46C3.98,3.83,3.94,3.81,3.91,3.8z M4.11,3.97C4.09,3.94,4.07,3.91,4.04,3.88
		C4.17,3.7,4.31,3.32,4.16,3.81c-0.02,0.06,0.02,0.11,0,0.17C4.15,3.97,4.13,3.97,4.11,3.97z M3.88,4.29
		c0.01,0.05,0.04,0.09,0.07,0.12C3.93,4.49,3.89,4.57,3.83,4.63C3.76,4.5,3.79,4.36,3.88,4.29z M2.86,7.94
		C3,8.18,2.9,8.29,2.91,8.55C2.83,8.45,2.81,8.06,2.86,7.94z M2.91,9.11C3.11,9.25,2.86,9.43,3,9.69C2.81,9.57,2.95,9.3,2.91,9.11z
		 M18.58,11.53c0.01-0.01,0.02-0.02,0.04-0.03c0.04,0.05,0.02,0.07,0,0.1C18.61,11.58,18.6,11.55,18.58,11.53z M18.67,14.21
		c0.03,0.04,0.03,0.07,0.02,0.1c-0.02,0-0.04,0-0.06,0C18.63,14.27,18.64,14.24,18.67,14.21z M3.03,13.9
		C3.03,13.72,3,13.53,3.09,13.45c-0.01,0.16-0.01,0.32,0,0.48C3.07,13.92,3.05,13.91,3.03,13.9z M18.7,15.31
		c-0.01-0.14-0.02-0.27,0-0.39c0-0.01,0-0.01,0-0.02c0.01-0.01,0.01-0.01,0.02-0.02c0.01,0.04,0.02,0.14,0.01,0.17l0,0.24
		c0,0.01,0,0.03,0,0.04C18.73,15.32,18.71,15.31,18.7,15.31z M18.85,15.71c0-0.01,0.01-0.02,0.01-0.03c0.02,0,0.04,0.01,0.06,0.01
		C18.9,15.69,18.88,15.7,18.85,15.71C18.85,15.71,18.85,15.71,18.85,15.71z M18.67,15.93C18.66,15.93,18.66,15.93,18.67,15.93
		C18.66,15.93,18.66,15.93,18.67,15.93C18.66,15.92,18.66,15.92,18.67,15.93z M2.74,15.64c-0.03-0.24-0.04-0.51-0.05-0.77
		C2.78,14.89,2.85,14.9,2.87,15c-0.01,0.22-0.02,0.45-0.05,0.66C2.8,15.65,2.77,15.65,2.74,15.64z M2.99,15.31
		c0.01,0,0.03,0.01,0.04,0.01c-0.01,0.04-0.02,0.09-0.04,0.13C3,15.4,2.99,15.35,2.99,15.31z M18.69,16.26
		c0.03,0.03,0.06,0.04,0.11,0.06c0,0.17,0,0.35,0,0.55C18.71,16.68,18.7,16.49,18.69,16.26z M2.81,17.44
		c0.14,0.16,0.05,0.22,0.07,0.45C2.82,17.9,2.8,17.58,2.81,17.44z M2.76,18.48c0.01-0.04,0.02-0.08,0.04-0.11
		c0.01,0.04,0.02,0.08,0.03,0.12C2.81,18.48,2.79,18.48,2.76,18.48z M2.1,24.2c0-0.28-0.02-0.64,0.1-0.72
		c-0.05,0.04-0.01,0.44-0.04,0.73C2.14,24.2,2.12,24.2,2.1,24.2z M13.07,26.81c0.01,0.01,0.02,0.02,0.02,0.04
		c0,0.03-0.02,0.06-0.04,0.09C13.05,26.9,13.06,26.85,13.07,26.81z"/>
	<g>
		<polygon class="st1" points="5.71,31.72 1.76,31.72 1.76,4.12 5.71,4.12 5.71,3.69 1.33,3.69 1.33,32.15 5.71,32.15 		"/>
		<polygon class="st1" points="11.25,3.69 11.25,4.12 29.36,4.12 29.36,31.72 11.25,31.72 11.25,32.15 29.79,32.15 29.79,3.69 		"/>
	</g>
	<polygon class="st1" points="28.02,6.22 28.02,32.88 0.43,32.88 0.43,27.55 0,27.55 0,33.32 28.46,33.32 28.46,6.22 	"/>
</g>
</svg>
