<?xml version="1.0" encoding="utf-8"?>
<!-- Generator: Adobe Illustrator 16.0.0, SVG Export Plug-In . SVG Version: 6.00 Build 0)  -->
<!DOCTYPE svg PUBLIC "-//W3C//DTD SVG 1.1//EN" "http://www.w3.org/Graphics/SVG/1.1/DTD/svg11.dtd">
<svg version="1.1" id="Layer_1" xmlns="http://www.w3.org/2000/svg" xmlns:xlink="http://www.w3.org/1999/xlink" x="0px" y="0px"
	 width="200px" height="200px" viewBox="0 0 200 200" enable-background="new 0 0 200 200" xml:space="preserve">
<g>
	<g>
		<path fill="#242D3C" d="M6.969,55.749H0V20.906h15.098c2.793,0,5.418,1.087,7.394,3.063c1.974,1.978,3.06,4.602,3.06,7.391
			c0,2.79-1.086,5.414-3.057,7.389c-1.979,1.978-4.604,3.064-7.396,3.064H6.969V55.749z M6.969,34.843h8.129
			c0.933,0,1.809-0.362,2.468-1.021c0.655-0.656,1.017-1.532,1.017-2.463s-0.362-1.806-1.021-2.466
			c-0.656-0.656-1.531-1.018-2.464-1.018H6.969V34.843z"/>
		<path fill="#242D3C" d="M72.01,55.749h-6.969V20.906h15.1c2.792,0,5.416,1.087,7.391,3.063c1.975,1.975,3.063,4.599,3.063,7.391
			c0,2.793-1.087,5.417-3.063,7.392c-1.976,1.975-4.601,3.061-7.391,3.061H72.01V55.749z M72.01,34.843h8.131
			c0.93,0,1.806-0.362,2.465-1.021c0.658-0.657,1.02-1.532,1.02-2.463c0-0.93-0.362-1.805-1.021-2.463
			c-0.659-0.659-1.534-1.021-2.464-1.021H72.01V34.843z"/>
		<g>
			<rect x="32.52" y="20.906" fill="#242D3C" width="6.968" height="34.843"/>
			<rect x="51.104" y="20.906" fill="#242D3C" width="6.968" height="34.843"/>
			<rect x="32.52" y="34.843" fill="#242D3C" width="25.552" height="6.969"/>
		</g>
	</g>
	<g>
		<path fill="#43D3E8" d="M151.22,20.906c-26.945,0-48.78,21.835-48.78,48.781c0,10.369,3.243,19.972,8.755,27.875h63.255v15.032
			C189.668,104.336,200,88.22,200,69.687C200,42.741,178.163,20.906,151.22,20.906z"/>
		<g>
			<path fill="#242D3C" d="M132.637,87.108h-4.647c-2.792,0-5.416-1.087-7.391-3.063c-1.976-1.975-3.063-4.599-3.063-7.39V62.718
				c0-2.792,1.087-5.416,3.063-7.391c1.975-1.975,4.599-3.063,7.391-3.063h4.647c2.792,0,5.416,1.087,7.391,3.063
				s3.063,4.599,3.063,7.391v3.484h-6.969v-3.484c0-0.93-0.362-1.805-1.021-2.463c-0.659-0.659-1.534-1.021-2.464-1.021h-4.647
				c-0.93,0-1.805,0.362-2.464,1.021s-1.021,1.534-1.021,2.463v13.938c0,0.929,0.361,1.805,1.021,2.463s1.534,1.021,2.464,1.021
				h4.647c0.93,0,1.805-0.362,2.464-1.021c0.658-0.659,1.021-1.534,1.021-2.463v-3.484h6.969v3.484c0,2.792-1.088,5.416-3.063,7.39
				C138.053,86.021,135.429,87.108,132.637,87.108z"/>
			<g>
				<rect x="157.027" y="52.265" fill="#242D3C" width="6.969" height="34.843"/>
				<rect x="170.965" y="52.265" fill="#242D3C" width="6.968" height="34.843"/>
				<rect x="150.059" y="73.171" fill="#242D3C" width="34.843" height="6.968"/>
				<rect x="150.059" y="59.233" fill="#242D3C" width="34.843" height="6.969"/>
			</g>
		</g>
	</g>
	<g>
		<path fill="#242D3C" d="M177.933,179.094H0V94.077h177.933V179.094z M6.969,172.125h163.996v-71.08H6.969V172.125z"/>
		<rect x="14.634" y="108.711" fill="#F96232" width="148.665" height="55.749"/>
		<g>
			<path fill="#FFFFFF" d="M152.846,154.007h-15.1c-2.793,0-5.418-1.087-7.392-3.063c-1.974-1.974-3.062-4.598-3.062-7.39v-24.39
				h6.969v24.39c0,0.93,0.362,1.805,1.021,2.464c0.658,0.659,1.532,1.021,2.463,1.021h15.1V154.007z"/>
			<path fill="#FFFFFF" d="M120.325,154.007h-6.969v-21.733l-5.451,6.543c-1.326,1.587-4.029,1.59-5.354,0l-5.454-6.546v21.736
				h-6.968v-31.358c0-1.468,0.918-2.777,2.297-3.276c1.384-0.498,2.925-0.079,3.864,1.045l8.938,10.726l8.936-10.726
				c0.939-1.125,2.481-1.545,3.863-1.045c1.38,0.499,2.299,1.809,2.299,3.276V154.007z"/>
			<g>
				<rect x="66.9" y="119.164" fill="#FFFFFF" width="6.969" height="34.843"/>
				<rect x="57.608" y="119.164" fill="#FFFFFF" width="25.551" height="6.969"/>
			</g>
			<g>
				<rect x="25.087" y="119.164" fill="#FFFFFF" width="6.969" height="34.843"/>
				<rect x="43.671" y="119.164" fill="#FFFFFF" width="6.969" height="34.843"/>
				<rect x="25.087" y="133.101" fill="#FFFFFF" width="25.553" height="6.969"/>
			</g>
		</g>
	</g>
	<g>
		<rect x="27.875" y="71.429" fill="#242D3C" width="6.969" height="6.968"/>
		<rect x="13.938" y="71.429" fill="#242D3C" width="6.968" height="6.968"/>
		<rect y="71.429" fill="#242D3C" width="6.969" height="6.968"/>
	</g>
</g>
</svg>
