<?xml version="1.0" encoding="utf-8"?>
<!-- Generator: Adobe Illustrator 16.0.0, SVG Export Plug-In . SVG Version: 6.00 Build 0)  -->
<!DOCTYPE svg PUBLIC "-//W3C//DTD SVG 1.1//EN" "http://www.w3.org/Graphics/SVG/1.1/DTD/svg11.dtd">
<svg version="1.1" id="Layer_1" xmlns="http://www.w3.org/2000/svg" xmlns:xlink="http://www.w3.org/1999/xlink" x="0px" y="0px"
	 width="200px" height="200px" viewBox="0 0 200 200" enable-background="new 0 0 200 200" xml:space="preserve">
<g>
	<g>
		<rect x="7.843" y="169.02" fill="#43D3E8" width="188.235" height="25.098"/>
		<path fill="#242D3C" d="M200,198.039H3.921v-54.901H200V198.039z M11.765,190.196h180.393V150.98H11.765V190.196z"/>
		<g>
			<rect x="176.471" y="147.059" fill="#242D3C" width="7.843" height="15.687"/>
			<rect x="160.784" y="147.059" fill="#242D3C" width="7.844" height="15.687"/>
			<rect x="145.098" y="147.059" fill="#242D3C" width="7.844" height="15.687"/>
			<rect x="129.412" y="147.059" fill="#242D3C" width="7.843" height="15.687"/>
			<rect x="113.726" y="147.059" fill="#242D3C" width="7.843" height="15.687"/>
			<rect x="98.039" y="147.059" fill="#242D3C" width="7.844" height="15.687"/>
			<rect x="82.353" y="147.059" fill="#242D3C" width="7.843" height="15.687"/>
			<rect x="66.667" y="147.059" fill="#242D3C" width="7.843" height="15.687"/>
			<rect x="50.98" y="147.059" fill="#242D3C" width="7.843" height="15.687"/>
			<rect x="35.294" y="147.059" fill="#242D3C" width="7.843" height="15.687"/>
			<rect x="19.608" y="147.059" fill="#242D3C" width="7.843" height="15.687"/>
		</g>
	</g>
	<g>
		<polygon fill="#242D3C" points="22.12,123.128 22.12,106.639 7.843,114.887 		"/>
		<rect x="52.886" y="110.964" fill="#242D3C" width="110.22" height="7.843"/>
		<polygon fill="#242D3C" points="34.436,134.768 0,114.888 34.436,94.999 38.358,101.791 15.686,114.885 38.358,127.975 		"/>
		<path fill="#242D3C" d="M163.106,135.294l-126.709-0.001c-1.587,0-3.016-0.956-3.623-2.421c-0.608-1.466-0.271-3.152,0.85-4.273
			l13.715-13.715l-13.715-13.717c-1.122-1.121-1.458-2.808-0.85-4.273c0.606-1.465,2.036-2.42,3.623-2.42l0,0l126.709,0.003
			c2.166,0,3.922,1.755,3.922,3.921v32.975c0,1.041-0.414,2.038-1.149,2.773S164.146,135.294,163.106,135.294z M45.864,127.449
			l113.321,0.002v-25.132l-113.321-0.003l9.795,9.795c0.735,0.735,1.149,1.732,1.149,2.772s-0.414,2.037-1.149,2.772L45.864,127.449
			z"/>
		<path fill="#242D3C" d="M179.593,135.294h-16.486c-2.166,0-3.922-1.755-3.922-3.922V98.397c0-1.04,0.414-2.037,1.149-2.772
			s1.732-1.149,2.772-1.149l0,0l16.486,0.003c2.166,0,3.921,1.756,3.921,3.922v32.971
			C183.514,133.539,181.759,135.294,179.593,135.294z M167.028,127.451h8.643v-25.129l-8.643-0.003V127.451z"/>
		<path fill="#242D3C" d="M179.593,135.294v-7.843c3.354,0,6.512-1.309,8.889-3.682c2.37-2.374,3.677-5.528,3.676-8.882
			c0-3.359-1.307-6.513-3.679-8.886c-2.374-2.373-5.525-3.68-8.874-3.68c-0.003,0-0.006,0-0.009,0l-0.006-7.843
			c0.004,0,0.011,0,0.015,0c5.443,0,10.563,2.122,14.42,5.976c3.854,3.855,5.976,8.979,5.976,14.432
			c0.002,5.445-2.118,10.569-5.973,14.429C190.165,133.173,185.04,135.294,179.593,135.294z"/>
	</g>
	<g>
		<rect x="80.75" y="1.961" fill="#242D3C" width="7.843" height="7.843"/>
		<path fill="#242D3C" d="M73.085,9.804H65.42V1.961h7.665V9.804z M57.754,9.804h-7.666V1.961h7.666V9.804z M42.425,9.804h-7.666
			V1.961h7.666V9.804z M27.096,9.804H19.43V1.961h7.666V9.804z"/>
		<rect x="3.921" y="1.961" fill="#242D3C" width="7.843" height="7.843"/>
		<path fill="#242D3C" d="M11.765,71.125H3.921V63.46h7.843V71.125z M11.765,55.795H3.921v-7.666h7.843V55.795z M11.765,40.464
			H3.921V32.8h7.843V40.464z M11.765,25.135H3.921v-7.666h7.843V25.135z"/>
		<rect x="3.921" y="78.79" fill="#242D3C" width="7.843" height="7.843"/>
		<path fill="#242D3C" d="M73.085,86.633H65.42V78.79h7.665V86.633z M57.756,86.633H50.09V78.79h7.666V86.633z M42.426,86.633
			h-7.665V78.79h7.665V86.633z M27.096,86.633H19.43V78.79h7.666V86.633z"/>
		<rect x="80.75" y="78.79" fill="#242D3C" width="7.843" height="7.843"/>
		<path fill="#242D3C" d="M88.594,71.125H80.75v-7.666h7.843V71.125z M88.594,55.793H80.75v-7.664h7.843V55.793z M88.594,40.464
			H80.75v-7.666h7.843V40.464z M88.594,25.133H80.75v-7.664h7.843V25.133z"/>
	</g>
	<rect x="26.65" y="24.689" fill="#F96232" width="39.216" height="39.216"/>
	<g>
		<path fill="#43D3E8" d="M107.84,44.297v18.824c0,2.587,2.117,4.706,4.706,4.706h12.549c2.589,0,4.706-2.119,4.706-4.706V44.297
			H107.84z"/>
		<path fill="#242D3C" d="M125.095,71.748h-12.549c-4.757,0-8.627-3.871-8.627-8.627V25.473c0-4.756,3.87-8.627,8.627-8.627h12.549
			c4.757,0,8.628,3.871,8.628,8.627v37.647C133.723,67.877,129.852,71.748,125.095,71.748z M112.546,24.689
			c-0.426,0-0.784,0.358-0.784,0.784v37.647c0,0.426,0.358,0.784,0.784,0.784h12.549c0.426,0,0.784-0.358,0.784-0.784V25.473
			c0-0.426-0.358-0.784-0.784-0.784H112.546z"/>
	</g>
	<g>
		<path fill="#242D3C" d="M180.262,86.633h-11.487c-10.878,0-19.728-8.851-19.728-19.73V21.687c0-10.876,8.85-19.726,19.728-19.726
			h11.487c10.884,0,19.738,8.85,19.738,19.726v45.216C200,77.782,191.146,86.633,180.262,86.633z M168.774,9.804
			c-6.553,0-11.884,5.331-11.884,11.883v45.216c0,6.555,5.331,11.888,11.884,11.888h11.487c6.56,0,11.896-5.333,11.896-11.888
			V21.687c0-6.552-5.336-11.883-11.896-11.883H168.774z"/>
		<path fill="#F96232" d="M179.615,22.408c0,2.813-2.277,5.103-5.101,5.103c-2.813,0-5.091-2.29-5.091-5.103
			c0-2.831,2.278-5.107,5.091-5.107C177.338,17.301,179.615,19.577,179.615,22.408z"/>
	</g>
</g>
</svg>
