<?xml version="1.0" encoding="utf-8"?>
<!-- Generator: Adobe Illustrator 25.2.1, SVG Export Plug-In . SVG Version: 6.00 Build 0)  -->
<svg version="1.1" id="Layer_1" xmlns="http://www.w3.org/2000/svg" xmlns:xlink="http://www.w3.org/1999/xlink" x="0px" y="0px"
	 viewBox="0 0 165.5 151.3" style="enable-background:new 0 0 165.5 151.3;" xml:space="preserve">
<style type="text/css">
	.st0{fill:#242D3C;}
	.st1{fill:#F96232;}
</style>
<g>
	<g>
		<polygon class="st0" points="115.7,151.3 68,151.3 68,135.4 74.1,135.4 74.1,145.2 109.5,145.2 109.5,135.4 115.7,135.4 		"/>
		<rect x="59.2" y="145.2" class="st0" width="65.3" height="6.1"/>
		<path class="st0" d="M165.5,113.6H36.3V88.2c0-0.8-0.7-1.6-1.6-1.6H18.1V19.8c0-2.1,0.8-4.2,2.4-5.7c1.5-1.5,3.6-2.4,5.7-2.4h70
			v58.9c0,2.1,1.7,3.9,3.9,3.9h40.7c2.1,0,3.9-1.7,3.9-3.9V11.8h12.8c2.2,0,4.2,0.8,5.7,2.4c1.5,1.5,2.4,3.5,2.4,5.7V113.6z
			 M42.4,107.5h117V19.8c0-0.5-0.2-1-0.6-1.4c-0.5-0.5-1.1-0.6-1.4-0.6h-6.7v52.8c0,5.5-4.5,10-10,10h-40.7c-5.5,0-10-4.5-10-10
			V17.9H26.2c-0.5,0-1,0.2-1.4,0.6c-0.4,0.4-0.6,0.8-0.6,1.4v60.7h10.5c4.2,0,7.7,3.4,7.7,7.7V107.5z"/>
		<path class="st0" d="M157.5,130.2H36.3v-22.7h129.3v14.7c0,2.2-0.8,4.2-2.4,5.7C161.7,129.4,159.7,130.2,157.5,130.2z M42.4,124.1
			h115.1c0.3,0,0.9-0.1,1.3-0.5c0.4-0.4,0.6-0.9,0.6-1.4v-8.6h-117V124.1z"/>
		<path class="st1" d="M147.8,26.6v44.1c0,3.8-3.1,7-7,7h-40.7c-3.8,0-7-3.1-7-7V26.6H33v56.9h1.7c2.5,0,4.6,2.1,4.6,4.6v10.6h111.4
			V26.6H147.8z"/>
	</g>
	<g>
		<rect x="18.3" y="89.9" class="st0" width="5.9" height="6.1"/>
		<rect x="14.7" y="135.8" class="st0" width="13" height="6.1"/>
		<path class="st0" d="M34.7,151.3h-27c-4.2,0-7.7-3.4-7.7-7.7V88.2c0-4.2,3.4-7.7,7.7-7.7h27c4.2,0,7.7,3.4,7.7,7.7v55.5
			C42.4,147.9,39,151.3,34.7,151.3z M7.7,86.6c-0.8,0-1.6,0.7-1.6,1.6v55.5c0,0.9,0.7,1.5,1.6,1.5h27c0.9,0,1.6-0.7,1.6-1.5V88.2
			c0-0.8-0.7-1.6-1.6-1.6H7.7z"/>
	</g>
	<g>
		<rect x="117.5" y="11.8" class="st0" width="5.9" height="6.1"/>
		<rect x="111.6" y="62.8" class="st0" width="17.7" height="6.1"/>
		<path class="st0" d="M140.8,80.7h-40.7c-5.5,0-10-4.5-10-10V10c0-5.5,4.5-10,10-10h40.7c5.5,0,10,4.5,10,10v60.7
			C150.8,76.2,146.3,80.7,140.8,80.7z M100.1,6.1c-2.1,0-3.9,1.7-3.9,3.9v60.7c0,2.1,1.7,3.9,3.9,3.9h40.7c2.1,0,3.9-1.7,3.9-3.9V10
			c0-2.1-1.7-3.9-3.9-3.9H100.1z"/>
	</g>
</g>
</svg>
