<?xml version="1.0" encoding="utf-8"?>
<!-- Generator: Adobe Illustrator 16.0.0, SVG Export Plug-In . SVG Version: 6.00 Build 0)  -->
<!DOCTYPE svg PUBLIC "-//W3C//DTD SVG 1.1//EN" "http://www.w3.org/Graphics/SVG/1.1/DTD/svg11.dtd">
<svg version="1.1" id="Layer_1" xmlns="http://www.w3.org/2000/svg" xmlns:xlink="http://www.w3.org/1999/xlink" x="0px" y="0px"
	 width="200px" height="200px" viewBox="0 0 200 200" enable-background="new 0 0 200 200" xml:space="preserve">
<g>
	<g>
		<polygon fill="#43D3E8" points="134.644,20.911 100,63.268 65.353,20.911 		"/>
		<path fill="#43D3E8" d="M150.325,32.951l-13.156,55.474L100,63.265l-37.17,25.16L49.674,32.951
			c-21.47,15.59-35.44,40.871-35.44,69.432c0,47.365,38.396,85.771,85.766,85.771c47.369,0,85.767-38.405,85.767-85.771
			C185.767,73.821,171.795,48.541,150.325,32.951z"/>
	</g>
	<g>
		<rect x="133.078" y="121.879" fill="#242D3C" width="31.252" height="7.513"/>
		<polygon fill="#FFFFFF" points="148.704,106.247 133.078,121.879 164.33,121.879 		"/>
	</g>
	<g>
		<rect x="65.353" y="17.154" fill="#242D3C" width="69.291" height="7.512"/>
		
			<rect x="37.218" y="29.756" transform="matrix(0.6331 0.774 -0.774 0.6331 53.6969 -46.2699)" fill="#242D3C" width="76.884" height="7.512"/>
		<path fill="#242D3C" d="M60.431,94.585L42.947,20.864L48.429,0h103.143l5.482,20.864l-17.485,73.722L100,67.8L60.431,94.585z
			 M100,58.729l34.771,23.534l14.54-61.306l-3.532-13.446H54.223L50.69,20.958l14.54,61.306L100,58.729z"/>
		
			<rect x="120.583" y="-4.931" transform="matrix(0.7741 0.6331 -0.6331 0.7741 49.305 -71.1458)" fill="#242D3C" width="7.514" height="76.885"/>
		<polygon fill="#242D3C" points="108.448,100.984 91.553,100.984 80.269,75.562 87.135,72.514 96.438,93.472 103.563,93.472 
			112.864,72.514 119.731,75.562 		"/>
		<polygon fill="#242D3C" points="71.656,200 64.377,198.143 91.076,93.472 108.924,93.472 135.623,198.143 128.342,200 
			103.087,100.984 96.913,100.984 		"/>
	</g>
</g>
</svg>
