<?xml version="1.0" encoding="utf-8"?>
<!-- Generator: Adobe Illustrator 26.0.0, SVG Export Plug-In . SVG Version: 6.00 Build 0)  -->
<svg version="1.1" id="Layer_1" xmlns="http://www.w3.org/2000/svg" xmlns:xlink="http://www.w3.org/1999/xlink" x="0px" y="0px"
	 viewBox="0 0 200 200" style="enable-background:new 0 0 200 200;" xml:space="preserve">
<style type="text/css">
	.st0{fill:#43D3E8;}
	.st1{fill:#242D3C;}
</style>
<g>
	<path class="st0" d="M100,20v68c6.6,0,12,5.4,12,12h68C180,55.8,144.2,20,100,20z"/>
	<path class="st0" d="M180,100h-68c0,6.6-5.4,12-12,12v68C144.2,180,180,144.2,180,100z"/>
	<path class="st0" d="M100,112v68c-29.7,0-55.7-16.2-69.5-40.3L89.6,106C91.7,109.6,95.5,112,100,112z"/>
	<g>
		<path class="st1" d="M100,200C44.9,200,0,155.1,0,100S44.9,0,100,0s100,44.9,100,100S155.1,200,100,200z M100,8
			C49.3,8,8,49.3,8,100c0,50.7,41.3,92,92,92c50.7,0,92-41.3,92-92S150.7,8,100,8z"/>
		<g>
			<rect x="131.6" y="31.6" transform="matrix(0.5 -0.866 0.866 0.5 37.7981 136.5971)" class="st1" width="11.2" height="8"/>
			<rect x="96" y="20" class="st1" width="8" height="11.2"/>
			<rect x="58.8" y="30" transform="matrix(0.866 -0.5 0.5 0.866 -9.3696 36.1652)" class="st1" width="8" height="11.2"/>
			<rect x="31.6" y="57.2" transform="matrix(0.5 -0.866 0.866 0.5 -36.6024 62.2032)" class="st1" width="8" height="11.2"/>
			<rect x="20" y="96" class="st1" width="11.2" height="8"/>
			<rect x="30" y="133.2" transform="matrix(0.866 -0.5 0.5 0.866 -63.8344 36.167)" class="st1" width="11.2" height="8"/>
			<rect x="57.2" y="160.4" transform="matrix(0.5 -0.866 0.866 0.5 -110.9988 136.5975)" class="st1" width="11.2" height="8"/>
			<rect x="96" y="168.8" class="st1" width="8" height="11.2"/>
			<rect x="133.2" y="158.8" transform="matrix(0.866 -0.5 0.5 0.866 -63.8323 90.6301)" class="st1" width="8" height="11.2"/>
			
				<rect x="160.4" y="131.6" transform="matrix(0.5001 -0.866 0.866 0.5001 -36.6053 210.9924)" class="st1" width="8" height="11.2"/>
			<rect x="168.8" y="96" class="st1" width="11.2" height="8"/>
			<rect x="158.8" y="58.8" transform="matrix(0.866 -0.5 0.5 0.866 -9.3672 90.6317)" class="st1" width="11.2" height="8"/>
		</g>
		<g>
			<path class="st1" d="M100,116c-8.8,0-16-7.2-16-16s7.2-16,16-16s16,7.2,16,16S108.8,116,100,116z M100,92c-4.4,0-8,3.6-8,8
				s3.6,8,8,8s8-3.6,8-8S104.4,92,100,92z"/>
			
				<rect x="61.6" y="109.2" transform="matrix(0.8691 -0.4946 0.4946 0.8691 -45.9457 52.8121)" class="st1" width="30.4" height="8"/>
			<rect x="96" y="57.6" class="st1" width="8" height="30.4"/>
		</g>
	</g>
</g>
</svg>
