<?xml version="1.0" encoding="utf-8"?>
<!-- Generator: Adobe Illustrator 16.0.0, SVG Export Plug-In . SVG Version: 6.00 Build 0)  -->
<!DOCTYPE svg PUBLIC "-//W3C//DTD SVG 1.1//EN" "http://www.w3.org/Graphics/SVG/1.1/DTD/svg11.dtd">
<svg version="1.1" id="Layer_1" xmlns="http://www.w3.org/2000/svg" xmlns:xlink="http://www.w3.org/1999/xlink" x="0px" y="0px"
	 width="200px" height="200px" viewBox="0 0 200 200" enable-background="new 0 0 200 200" xml:space="preserve">
<g>
	<g>
		<rect x="80" y="60" fill="#F96232" width="20.991" height="8"/>
		<rect x="100.991" y="87.43" fill="#242D3C" width="22.592" height="8"/>
		<rect x="100.991" y="101.141" fill="#242D3C" width="22.592" height="8"/>
		<rect x="100.991" y="142.287" fill="#242D3C" width="22.592" height="8"/>
		<rect x="100.991" y="156" fill="#242D3C" width="22.592" height="8"/>
		<rect x="80" y="73.712" fill="#43D3E8" width="43.583" height="8"/>
		<rect x="80" y="114.859" fill="#F96232" width="20.991" height="8"/>
		<rect x="80" y="128.57" fill="#43D3E8" width="43.583" height="8"/>
		<rect x="132.417" y="87.43" fill="#F96232" width="22.593" height="8"/>
		<rect x="132.417" y="101.141" fill="#242D3C" width="43.583" height="8"/>
		<rect x="132.417" y="142.287" fill="#F96232" width="22.593" height="8"/>
		<rect x="132.417" y="156" fill="#242D3C" width="43.583" height="8"/>
		<rect x="132.417" y="73.712" fill="#242D3C" width="22.593" height="8"/>
		<rect x="132.417" y="128.57" fill="#242D3C" width="22.593" height="8"/>
	</g>
	<g>
		<path fill="#242D3C" d="M200,183.732H0V40.267h200V183.732z M8,175.732h184V48.267H8V175.732z"/>
		<path fill="#242D3C" d="M200,48.267H0v-32h200V48.267z M8,40.267h184v-16H8V40.267z"/>
		<rect x="12" y="28.267" fill="#242D3C" width="8" height="8"/>
		<rect x="28" y="28.267" fill="#242D3C" width="8" height="8"/>
		<rect x="44" y="28.267" fill="#242D3C" width="8" height="8"/>
		<rect x="56" y="44.267" fill="#242D3C" width="8" height="135.465"/>
	</g>
	<g>
		<rect x="16" y="60" fill="#43D3E8" width="32" height="35.43"/>
		<rect x="16" y="101.141" fill="#242D3C" width="32" height="8"/>
		<rect x="16" y="114.852" fill="#242D3C" width="32" height="8"/>
		<rect x="16" y="128.563" fill="#242D3C" width="32" height="8"/>
		<rect x="16" y="142.273" fill="#242D3C" width="32" height="8"/>
	</g>
</g>
</svg>
