<?xml version="1.0" encoding="utf-8"?>
<!-- Generator: Adobe Illustrator 25.2.1, SVG Export Plug-In . SVG Version: 6.00 Build 0)  -->
<svg version="1.1" id="Layer_1" xmlns="http://www.w3.org/2000/svg" xmlns:xlink="http://www.w3.org/1999/xlink" x="0px" y="0px"
	 viewBox="0 0 176 190.2" style="enable-background:new 0 0 176 190.2;" xml:space="preserve">
<style type="text/css">
	.st0{fill:#252E3C;}
	.st1{fill:#59C8DE;}
	.st2{fill:#F26337;}
	.st3{fill:#FFFFFF;}
</style>
<g>
	<rect y="183.5" class="st0" width="172.7" height="6.7"/>
	<g>
		<path class="st1" d="M167.1,56.9c-3.7-3.7-8.5-5.5-13.4-5.5l-15.1,15.1l-15.1-15.1c-4.8,0-9.7,1.8-13.4,5.5
			c-3.7,3.7-5.5,8.5-5.5,13.4v34.1h15.1v13.3h37.9v-13.3h15.1V70.2C172.7,65.4,170.8,60.5,167.1,56.9z"/>
		<path class="st0" d="M138.6,42c-11.6,0-21-9.4-21-21s9.4-21,21-21c11.6,0,21,9.4,21,21S150.2,42,138.6,42z M138.6,6.7
			c-7.9,0-14.3,6.4-14.3,14.3c0,7.9,6.4,14.3,14.3,14.3c7.9,0,14.3-6.4,14.3-14.3C152.9,13.1,146.5,6.7,138.6,6.7z"/>
		<rect x="135.2" y="124.5" class="st0" width="6.7" height="53"/>
		<rect x="116.3" y="104.3" class="st0" width="6.7" height="73.2"/>
		<rect x="154.2" y="104.3" class="st0" width="6.7" height="73.2"/>
		<path class="st0" d="M176,117.8h-18.5v-6.7h11.8V70.2c0-4.2-1.6-8.1-4.6-11c-2.9-2.9-6.9-4.6-11-4.6h-30.3c-4.2,0-8.1,1.6-11,4.6
			c-2.9,2.9-4.6,6.9-4.6,11v40.8h11.8v6.7h-18.5V70.2c0-6,2.3-11.5,6.5-15.8c4.2-4.2,9.8-6.5,15.8-6.5h30.3c6,0,11.5,2.3,15.8,6.5
			c4.2,4.2,6.5,9.8,6.5,15.8V117.8z"/>
		<g>
			<rect x="135.2" y="72.8" class="st0" width="6.7" height="6.7"/>
			<rect x="135.2" y="86.2" class="st0" width="6.7" height="6.7"/>
		</g>
	</g>
	<g>
		<g>
			<rect x="13.4" y="156.7" class="st2" width="26.8" height="20.8"/>
			<rect x="40.2" y="108.7" class="st2" width="26.8" height="68.8"/>
			<rect x="67" y="60.7" class="st2" width="26.8" height="116.8"/>
		</g>
		<g>
			<polygon class="st0" points="16.7,177.5 10,177.5 10,144 30.8,144 30.8,150.7 16.7,150.7 			"/>
			<polygon class="st0" points="43.5,177.5 36.8,177.5 36.8,96 57.6,96 57.6,102.7 43.5,102.7 			"/>
			<polygon class="st0" points="70.3,177.5 63.6,177.5 63.6,48 93.8,48 93.8,54.7 70.3,54.7 			"/>
		</g>
		<g>
			<rect x="78.7" y="137.3" class="st3" width="6.7" height="6.7"/>
			<rect x="78.7" y="150.7" class="st3" width="6.7" height="6.7"/>
			<rect x="78.7" y="164.1" class="st3" width="6.7" height="6.7"/>
		</g>
	</g>
</g>
</svg>
