<svg id="Layer_1" data-name="Layer 1" xmlns="http://www.w3.org/2000/svg" viewBox="0 0 304.14 305.84"><defs><style>.cls-1{fill:#ececec;}.cls-2{fill:#fff;}.cls-3{fill:#e1e1e1;}.cls-4{fill:#f5f5f5;}.cls-5{fill:#fafafa;}.cls-6{fill:#375a64;}.cls-7{fill:#1a2e35;}.cls-8{fill:#ff735d;}.cls-9{opacity:0.3;}.cls-10{fill:#ffbf9d;}.cls-11{fill:#ff9a6c;}</style></defs><rect class="cls-1" x="13.14" y="202.76" width="28.35" height="28.35" rx="3.1"/><path class="cls-2" d="M15.88,225.29l-.53-.45L21.08,218a2,2,0,0,1,2.75-.48l3.44,2.29,4-5.09A2,2,0,0,1,32.8,214a2,2,0,0,1,1.56.65l4.91,5.3-.51.47-4.91-5.3a1.31,1.31,0,0,0-1-.43,1.33,1.33,0,0,0-1,.51l-4.42,5.58-4-2.65a1.32,1.32,0,0,0-1.82.34Z"/><path class="cls-2" d="M27.31,210.12a2.53,2.53,0,1,1-2.53-2.54A2.53,2.53,0,0,1,27.31,210.12Z"/><path class="cls-1" d="M304,121.22a10.51,10.51,0,0,1-.27-2.35,18.78,18.78,0,0,0-.31-2.82,27.42,27.42,0,0,0-.74-3.78,35.47,35.47,0,0,0-3.94-9.75,36.34,36.34,0,0,0-9.06-10.43,36.09,36.09,0,0,0-34-5.85,33.72,33.72,0,0,0-9.21,4.7,38.7,38.7,0,0,0-4.15,3.37,41.51,41.51,0,0,0-3.62,4.08,35.85,35.85,0,0,0-1,42.46A41.46,41.46,0,0,0,241,145.1a40.58,40.58,0,0,0,4,3.57,33.6,33.6,0,0,0,9,5.14,36.36,36.36,0,0,0,43.82-14.17,35.3,35.3,0,0,0,4.4-9.54,28.31,28.31,0,0,0,.93-3.75,19.46,19.46,0,0,0,.45-2.8,10.35,10.35,0,0,1,.38-2.33,10.19,10.19,0,0,1,0,2.37,16.35,16.35,0,0,1-.27,2.86,25.71,25.71,0,0,1-.75,3.86,34.74,34.74,0,0,1-4.21,9.93,37.41,37.41,0,0,1-25.64,17.33,37.6,37.6,0,0,1-19.82-2,35.33,35.33,0,0,1-9.48-5.35A34.37,34.37,0,0,1,236,142a37.63,37.63,0,0,1,1.09-44.8,34.69,34.69,0,0,1,8.23-7.83A35.62,35.62,0,0,1,255,84.47a37.79,37.79,0,0,1,19.9-1.06A37.44,37.44,0,0,1,299.71,102a34.76,34.76,0,0,1,3.72,10.12A25.38,25.38,0,0,1,304,116a16.64,16.64,0,0,1,.12,2.88A10,10,0,0,1,304,121.22Z"/><path class="cls-1" d="M296.59,98.16c.08.11-.58.69-1.87,1.64l-2.37,1.71c-.47.32-1,.69-1.51,1l-1.82.95A41.76,41.76,0,0,1,267.31,109l-3.28-.15-3.15-.49c-.52-.09-1-.16-1.54-.26l-1.47-.39c-1-.27-1.92-.5-2.84-.79a47.62,47.62,0,0,1-9.2-4.24c-5-3-7.36-5.72-7.17-5.89s2.89,2,7.87,4.63a54.51,54.51,0,0,0,9.06,3.71c.89.26,1.81.45,2.74.69l1.42.35,1.46.23,3,.44,3.13.13a45,45,0,0,0,21-4.72l1.84-.8c.56-.29,1.07-.61,1.56-.88l2.52-1.39C295.69,98.4,296.51,98,296.59,98.16Z"/><path class="cls-1" d="M237.53,143c-.08-.11.59-.69,1.87-1.65l2.38-1.7c.47-.33,1-.69,1.51-1l1.82-.95a41.63,41.63,0,0,1,21.7-5.47l3.29.15,3.15.49c.52.09,1,.16,1.53.26l1.47.39c1,.27,1.93.5,2.84.79a48,48,0,0,1,9.21,4.24c4.95,3,7.36,5.71,7.17,5.89s-2.89-2-7.87-4.64a56.42,56.42,0,0,0-9.07-3.71c-.88-.25-1.8-.45-2.74-.69l-1.41-.35-1.47-.22-3-.44-3.13-.13a44.92,44.92,0,0,0-21,4.72l-1.84.8c-.56.29-1.07.6-1.56.87l-2.51,1.39C238.43,142.79,237.61,143.15,237.53,143Z"/><path class="cls-1" d="M304,122.08c0,.56-16.55.61-36.93.12s-36.9-1.36-36.89-1.92,16.55-.61,36.94-.11S304,121.52,304,122.08Z"/><path class="cls-1" d="M265.35,157.2c-.56,0-.62-16.55-.12-36.92s1.35-36.89,1.91-36.87.61,16.54.12,36.92S265.91,157.21,265.35,157.2Z"/><path class="cls-1" d="M265.35,157.14c-.14.22-4.21-2.54-8.9-8.78a49.67,49.67,0,0,1-6.6-12A44.66,44.66,0,0,1,247,119.84a42.34,42.34,0,0,1,3.73-16.38,51.43,51.43,0,0,1,7.21-11.61c5-6,9.07-8.67,9.21-8.45s-3.52,3.25-8.08,9.34a55,55,0,0,0-6.62,11.46A42.75,42.75,0,0,0,249,119.87a45,45,0,0,0,2.59,15.86,53.32,53.32,0,0,0,6,11.8C261.89,153.82,265.55,156.92,265.35,157.14Z"/><path class="cls-1" d="M268,83.42c.14-.22,4.2,2.54,8.9,8.78a49.67,49.67,0,0,1,6.59,12,44.46,44.46,0,0,1,2.86,16.54,42.38,42.38,0,0,1-3.73,16.38,51.3,51.3,0,0,1-7.21,11.61c-5,6-9.07,8.67-9.21,8.45s3.52-3.25,8.08-9.34a54.82,54.82,0,0,0,6.63-11.47,42.55,42.55,0,0,0,3.41-15.67,45.08,45.08,0,0,0-2.58-15.86,53.66,53.66,0,0,0-6-11.79C271.42,86.74,267.76,83.64,268,83.42Z"/><path class="cls-3" d="M278.66,15.42h-33A1.67,1.67,0,0,1,244,13.75h0a1.66,1.66,0,0,1,1.67-1.66h33a1.66,1.66,0,0,1,1.67,1.66h0A1.67,1.67,0,0,1,278.66,15.42Z"/><path class="cls-3" d="M278.66,22.84h-33A1.67,1.67,0,0,1,244,21.18h0a1.67,1.67,0,0,1,1.67-1.67h33a1.67,1.67,0,0,1,1.67,1.67h0A1.67,1.67,0,0,1,278.66,22.84Z"/><path class="cls-3" d="M278.66,30.26h-33A1.66,1.66,0,0,1,244,28.6h0a1.66,1.66,0,0,1,1.67-1.66h33a1.66,1.66,0,0,1,1.67,1.66h0A1.66,1.66,0,0,1,278.66,30.26Z"/><path class="cls-4" d="M282.36,192.49H250.92a1.59,1.59,0,0,1-1.59-1.59h0a1.59,1.59,0,0,1,1.59-1.59h31.44A1.59,1.59,0,0,1,284,190.9h0A1.59,1.59,0,0,1,282.36,192.49Z"/><path class="cls-4" d="M282.36,199.57H250.92a1.59,1.59,0,0,1-1.59-1.59h0a1.59,1.59,0,0,1,1.59-1.58h31.44A1.59,1.59,0,0,1,284,198h0A1.59,1.59,0,0,1,282.36,199.57Z"/><path class="cls-4" d="M282.36,206.66H250.92a1.59,1.59,0,0,1-1.59-1.59h0a1.59,1.59,0,0,1,1.59-1.59h31.44a1.59,1.59,0,0,1,1.59,1.59h0A1.59,1.59,0,0,1,282.36,206.66Z"/><path class="cls-1" d="M28,27.63A10.36,10.36,0,1,0,8.75,32.87h0l0,0c.4.67.9,1.15,1.4,1.85l6,8a1.87,1.87,0,0,0,3,0l5.92-7.83a22.38,22.38,0,0,0,1.5-2l0,0h0A10.33,10.33,0,0,0,28,27.63ZM17.67,32.14a4.56,4.56,0,1,1,4.56-4.55A4.55,4.55,0,0,1,17.67,32.14Z"/><path class="cls-1" d="M30.41,256.7s-7.93,6-.34,14a.69.69,0,0,0,.51.21l69.22-.4s5.91-6.63,1-14.27Z"/><path class="cls-3" d="M84.5,263c0,.08-8.62.14-19.25.14S46,263.08,46,263s8.61-.14,19.25-.14S84.5,262.92,84.5,263Z"/><path class="cls-3" d="M73.73,265.5c0,.08-4,.14-9,.14s-9.05-.06-9.05-.14,4-.14,9.05-.14S73.73,265.43,73.73,265.5Z"/><path class="cls-3" d="M91.58,270.3s.15-.8.36-2.08a28.81,28.81,0,0,0,.4-5.05,29.46,29.46,0,0,0-.49-5c-.24-1.28-.45-2.06-.41-2.07a1.91,1.91,0,0,1,.2.53,14.24,14.24,0,0,1,.4,1.5,24.55,24.55,0,0,1,.58,5.08,24.86,24.86,0,0,1-.48,5.08c-.14.65-.26,1.16-.37,1.51A3.88,3.88,0,0,1,91.58,270.3Z"/><path class="cls-3" d="M96.74,256.16a2.08,2.08,0,0,1,.31.5c.09.17.2.38.31.62s.24.53.35.85a14,14,0,0,1,.66,2.3,16.26,16.26,0,0,1,.3,2.91,17.65,17.65,0,0,1-.25,2.92,15.82,15.82,0,0,1-.62,2.31c-.11.32-.24.6-.34.85s-.21.46-.3.62a2.27,2.27,0,0,1-.3.51s.34-.77.75-2.05a16.11,16.11,0,0,0,.55-2.29,18.14,18.14,0,0,0,.23-2.87,17.93,17.93,0,0,0-.27-2.86,17,17,0,0,0-.59-2.28C97.09,256.92,96.69,256.19,96.74,256.16Z"/><path class="cls-3" d="M41.33,270.39a2.19,2.19,0,0,1-.32-.46,5.7,5.7,0,0,1-.33-.58c-.11-.23-.25-.49-.37-.8a11.77,11.77,0,0,1-.67-2.18,13.55,13.55,0,0,1-.27-2.79,13.91,13.91,0,0,1,.34-2.78,11.89,11.89,0,0,1,.74-2.17,8.08,8.08,0,0,1,.39-.78,3.57,3.57,0,0,1,.34-.57,2.11,2.11,0,0,1,.33-.45c.05,0-.4.69-.88,1.88a13.1,13.1,0,0,0-.67,2.15,15.06,15.06,0,0,0-.31,2.72,14.63,14.63,0,0,0,.24,2.74,13.92,13.92,0,0,0,.61,2.16C41,269.68,41.38,270.36,41.33,270.39Z"/><path class="cls-3" d="M33.85,272.08a3.28,3.28,0,0,1-.35-.53,5.25,5.25,0,0,1-.36-.65,9.43,9.43,0,0,1-.42-.89,13.73,13.73,0,0,1-.79-2.44,16.63,16.63,0,0,1-.39-3.13,16.38,16.38,0,0,1,.25-3.14,14.66,14.66,0,0,1,.68-2.47,9.32,9.32,0,0,1,.38-.91,6,6,0,0,1,.33-.67,4,4,0,0,1,.33-.54c.05,0-.39.82-.85,2.18a16.58,16.58,0,0,0-.62,2.46,16.5,16.5,0,0,0,.14,6.16,16.09,16.09,0,0,0,.72,2.42C33.43,271.28,33.9,272.05,33.85,272.08Z"/><path class="cls-1" d="M97.26,291.6v13.24H71.63V291.6Z"/><path class="cls-3" d="M14.48,298.34c0,.12,0,.24,0,.36a7.59,7.59,0,0,0,7.63,7.1H98.45v-1H80.33a6.62,6.62,0,0,1-6.62-6.62h0a6.62,6.62,0,0,1,6.62-6.62H98.45v-1.41l-76.36.26A7.63,7.63,0,0,0,14.48,298.34Z"/><path class="cls-3" d="M97.26,298.4c0,.08-5.27.14-11.77.14s-11.77-.06-11.77-.14,5.27-.14,11.77-.14S97.26,298.32,97.26,298.4Z"/><path class="cls-3" d="M96.89,301.38c0,.08-5,.14-11.14.14s-11.14-.06-11.14-.14,5-.14,11.14-.14S96.89,301.31,96.89,301.38Z"/><path class="cls-3" d="M97.26,304.11c0,.08-4.49.14-10,.14s-10-.06-10-.14,4.48-.14,10-.14S97.26,304,97.26,304.11Z"/><path class="cls-3" d="M97.26,295.72c0,.07-5.16.14-11.53.14s-11.53-.07-11.53-.14,5.16-.14,11.53-.14S97.26,295.64,97.26,295.72Z"/><path class="cls-3" d="M96.89,293c0,.08-4.6.14-10.26.14s-10.27-.06-10.27-.14,4.6-.13,10.27-.13S96.89,293,96.89,293Z"/><path class="cls-4" d="M23.73,290.67a16.21,16.21,0,0,0-1.63,1.93,10.2,10.2,0,0,0-1.74,5.7A10,10,0,0,0,22.24,304a17,17,0,0,0,1.66,1.89,2.78,2.78,0,0,1-.55-.41,8.77,8.77,0,0,1-1.27-1.36,9.65,9.65,0,0,1-.14-11.58,9,9,0,0,1,1.24-1.4A2.82,2.82,0,0,1,23.73,290.67Z"/><path class="cls-4" d="M21.14,290.39a18.24,18.24,0,0,0-1.62,1.93,9.8,9.8,0,0,0,.14,11.35,16.89,16.89,0,0,0,1.66,1.89,2.78,2.78,0,0,1-.55-.41,8.75,8.75,0,0,1-1.27-1.36,9.82,9.82,0,0,1-2-5.77,10,10,0,0,1,1.86-5.82,8.84,8.84,0,0,1,1.24-1.39A2.49,2.49,0,0,1,21.14,290.39Z"/><path class="cls-4" d="M73,290.67a18.24,18.24,0,0,0-1.62,1.93A9.8,9.8,0,0,0,71.53,304a15.79,15.79,0,0,0,1.66,1.89,2.78,2.78,0,0,1-.55-.41,8.31,8.31,0,0,1-1.27-1.36,9.65,9.65,0,0,1-.14-11.58,9,9,0,0,1,1.24-1.4A3,3,0,0,1,73,290.67Z"/><path class="cls-4" d="M70.43,290.39a16.87,16.87,0,0,0-1.62,1.93,9.82,9.82,0,0,0,.13,11.35,17.48,17.48,0,0,0,1.67,1.89,2.78,2.78,0,0,1-.55-.41,9.23,9.23,0,0,1-1.28-1.36,9.69,9.69,0,0,1-.13-11.59,8.36,8.36,0,0,1,1.24-1.39A2.49,2.49,0,0,1,70.43,290.39Z"/><path class="cls-4" d="M32.41,300.21c0-1.8,0-3.59-.07-5.39a3.84,3.84,0,0,0-.19-1.39,1.3,1.3,0,0,0-1-.86,2,2,0,0,0-2.2,1,5.16,5.16,0,0,0-.53,2.64,38,38,0,0,0,.21,4.26,4.77,4.77,0,0,0,.5,1.94,1.62,1.62,0,0,0,3.08-.26A5.28,5.28,0,0,0,32.41,300.21Z"/><path class="cls-4" d="M62.06,298.66c0,.07-5.52.14-12.32.14s-12.33-.07-12.33-.14,5.52-.14,12.33-.14S62.06,298.58,62.06,298.66Z"/><polygon class="cls-4" points="27.3 290.14 27.16 277.59 33.99 277.59 34.23 290.14 27.3 290.14"/><path class="cls-3" d="M33.59,279.82a17.84,17.84,0,0,1-3.18.14,17.77,17.77,0,0,1-3.17-.14,17.77,17.77,0,0,1,3.17-.14A17.84,17.84,0,0,1,33.59,279.82Z"/><path class="cls-3" d="M33.59,281.76a19,19,0,0,1-3.18.14,19,19,0,0,1-3.17-.14,17.77,17.77,0,0,1,3.17-.14A17.84,17.84,0,0,1,33.59,281.76Z"/><path class="cls-3" d="M33.59,283.7a19,19,0,0,1-3.18.14,19,19,0,0,1-3.17-.14,17.77,17.77,0,0,1,3.17-.14A17.84,17.84,0,0,1,33.59,283.7Z"/><path class="cls-3" d="M33.59,285.63a17.84,17.84,0,0,1-3.18.14,17.77,17.77,0,0,1-3.17-.14,19,19,0,0,1,3.17-.14A19,19,0,0,1,33.59,285.63Z"/><path class="cls-3" d="M33.59,287.57a17.84,17.84,0,0,1-3.18.14,17.77,17.77,0,0,1-3.17-.14,17.77,17.77,0,0,1,3.17-.14A17.84,17.84,0,0,1,33.59,287.57Z"/><path class="cls-1" d="M26.8,277.25h75.75a35.76,35.76,0,0,1,0,13.57H27.12v-.92h4.61a2.17,2.17,0,0,0,2.17-2.18v-7.51A2.17,2.17,0,0,0,31.73,278H26.8Z"/><path class="cls-5" d="M44.7,284.05H46a.31.31,0,0,1,.13,0,.26.26,0,0,1,.14.24.19.19,0,0,1,0,.08c0,.11,0,.21-.09.32a3.48,3.48,0,0,1-.79,1.43,1.48,1.48,0,0,1-1.08.56h-.15a1.24,1.24,0,0,1-.86-.62,2.85,2.85,0,0,1-.37-1.52,4.15,4.15,0,0,1,.15-1.09,3.61,3.61,0,0,1,.75-1.46,1.52,1.52,0,0,1,1.13-.61,1.13,1.13,0,0,1,.48.11,1.53,1.53,0,0,1,.74.92.35.35,0,0,1,0,.13.25.25,0,0,1,0,.14.25.25,0,0,1-.23.13h-.09a.29.29,0,0,1-.17-.17v0a1.08,1.08,0,0,0-.16-.3.71.71,0,0,0-.6-.36.74.74,0,0,0-.42.16,2.33,2.33,0,0,0-.69,1,3.7,3.7,0,0,0-.3,1.42,2.59,2.59,0,0,0,.22,1.12.72.72,0,0,0,.66.5.87.87,0,0,0,.61-.37,3.28,3.28,0,0,0,.65-1.17h-.91a.31.31,0,0,1-.3-.31.16.16,0,0,1,0-.09A.28.28,0,0,1,44.7,284.05Z"/><path class="cls-5" d="M49,281.58a.25.25,0,0,1,0,.09c.05.19.35,1.75.89,4.7a.13.13,0,0,1,0,.06.32.32,0,0,1,0,.14.25.25,0,0,1-.23.14h0a.24.24,0,0,1-.21-.19l-.3-1.56H47.57l-.75,1.57s0,0,0,.05a.3.3,0,0,1-.24.13.26.26,0,0,1-.27-.27.24.24,0,0,1,0-.08c0-.11.12-.28.23-.52,1.09-2.37,1.74-3.78,2-4.21a.31.31,0,0,1,.27-.19A.29.29,0,0,1,49,281.58Zm-.34,1.05-.84,1.77H49Z"/><path class="cls-5" d="M53.23,286.71H51a.24.24,0,0,1-.15,0,.42.42,0,0,1-.13-.29h0q0-.13.63-4.68s0-.06,0-.1a.25.25,0,0,1,.25-.16.28.28,0,0,1,.13,0,.26.26,0,0,1,.14.24c0,.21-.07.63-.16,1.28-.26,2-.39,3.05-.41,3.16H53.2a.33.33,0,0,1,.15,0,.25.25,0,0,1,.17.25.28.28,0,0,1,0,.09A.3.3,0,0,1,53.23,286.71Z"/><path class="cls-5" d="M56.35,281.58l0,.09c.06.19.36,1.75.9,4.7,0,0,0,0,0,.06a.23.23,0,0,1,0,.14.23.23,0,0,1-.22.14H57a.24.24,0,0,1-.21-.19l-.3-1.56H54.92l-.75,1.57,0,.05a.29.29,0,0,1-.23.13.26.26,0,0,1-.27-.27.22.22,0,0,1,0-.08l.24-.52c1.08-2.37,1.74-3.78,2-4.21a.31.31,0,0,1,.26-.19A.31.31,0,0,1,56.35,281.58ZM56,282.63l-.84,1.77h1.19Z"/><path class="cls-5" d="M60,284.27c.18.5.31.88.41,1.15a10.15,10.15,0,0,1,.35,1,.25.25,0,0,1,0,.14.26.26,0,0,1-.23.12c-.1,0-.17-.06-.22-.18l0-.12c-.12-.28-.32-.82-.61-1.61l-1.29,1.77a.31.31,0,0,1-.24.14.27.27,0,0,1-.27-.26v-.06a.6.6,0,0,1,.14-.22c.43-.56.91-1.23,1.43-2,0-.15-.1-.3-.15-.43-.49-1.3-.73-2-.73-2a.32.32,0,0,1,0-.14.25.25,0,0,1,.22-.14.3.3,0,0,1,.26.16l.76,2,1.52-2.07a.3.3,0,0,1,.25-.13.27.27,0,0,1,.12,0,.25.25,0,0,1,.13.24.35.35,0,0,1,0,.13Z"/><path class="cls-5" d="M65.64,281.46l.12,0a.29.29,0,0,1,.15.24c-.37,2.95-.58,4.54-.62,4.78a2.88,2.88,0,0,1-.49,1.25,1.78,1.78,0,0,1-1.51.74,1.76,1.76,0,0,1-.73-.19,1.64,1.64,0,0,1-.81-.71.28.28,0,0,1,0-.13.25.25,0,0,1,0-.14.25.25,0,0,1,.23-.13.28.28,0,0,1,.21.11,1.51,1.51,0,0,0,1.17.67,1.19,1.19,0,0,0,.91-.47,2.57,2.57,0,0,0,.5-1.43,1.29,1.29,0,0,1-.34.36,1.34,1.34,0,0,1-.82.26h-.15a1.21,1.21,0,0,1-.87-.62,2.83,2.83,0,0,1-.38-1.52c0-.28,0-.56,0-.86,0-.46.15-1.11.31-2a.19.19,0,0,1,0-.08.25.25,0,0,1,.25-.19.22.22,0,0,1,.13,0,.24.24,0,0,1,.14.22c0,.14,0,.48-.13,1a14.1,14.1,0,0,0-.18,1.59,3.31,3.31,0,0,0,.2,1.24c.16.37.39.55.68.55h.09a1.24,1.24,0,0,0,.69-.54,3.6,3.6,0,0,0,.56-1.26l.35-2.6a.27.27,0,0,1,0-.12A.25.25,0,0,1,65.64,281.46Z"/><path class="cls-4" d="M99.7,291c-.08,0-.14-3.12-.14-7s.06-7,.14-7,.14,3.11.14,7S99.78,291,99.7,291Z"/><path class="cls-3" d="M37.71,291c-.07,0-.14-3.12-.14-7s.07-7,.14-7,.14,3.11.14,7S37.79,291,37.71,291Z"/><path class="cls-4" d="M101,291c-.08,0-.14-3.12-.14-7s.06-7,.14-7,.14,3.11.14,7S101.11,291,101,291Z"/><path class="cls-3" d="M36.47,291c-.08,0-.14-3.12-.14-7s.06-7,.14-7,.14,3.11.14,7S36.55,291,36.47,291Z"/><path class="cls-3" d="M81.33,279.37v0l8,6.46.07.05-.09,0-1.07.28-6.75,1.77h0l-6.13-2.6-1.73-.74-.46-.2-.12-.06,0,0,0,0,.12.05.46.18,1.74.72,6.14,2.57h0l6.76-1.78,1.07-.28,0,.08-8-6.48h0v0"/><polygon class="cls-3" points="88.6 284.8 89.04 285.21 89.63 285.08 89.37 285.63 89.67 286.14 89.08 286.07 88.68 286.51 88.57 285.93 88.02 285.68 88.54 285.4 88.6 284.8"/><polygon class="cls-3" points="80.92 287.35 81.22 287.59 81.59 287.49 81.45 287.85 81.67 288.17 81.28 288.15 81.04 288.45 80.94 288.07 80.58 287.94 80.91 287.73 80.92 287.35"/><polygon class="cls-3" points="72.44 283.87 72.92 283.89 73.21 283.52 73.33 283.98 73.78 284.14 73.37 284.4 73.36 284.88 72.99 284.57 72.53 284.7 72.71 284.26 72.44 283.87"/><polygon class="cls-3" points="92.19 279.47 92.67 279.5 92.96 279.13 93.08 279.59 93.53 279.75 93.13 280.01 93.11 280.48 92.74 280.18 92.28 280.31 92.46 279.87 92.19 279.47"/><polygon class="cls-3" points="80.94 279.16 81.25 279.18 81.44 278.94 81.51 279.23 81.8 279.34 81.54 279.5 81.53 279.81 81.3 279.61 81 279.69 81.11 279.41 80.94 279.16"/><path class="cls-3" d="M92.86,279.81s-2.59-.06-5.78-.2-5.78-.27-5.78-.3,2.59.06,5.78.19S92.86,279.77,92.86,279.81Z"/><path class="cls-3" d="M95.77,277.14H18.94c-1-2.29-1.25-4.46,0-6.4H95.77A7.42,7.42,0,0,1,95.77,277.14Z"/><rect class="cls-1" x="34.85" y="272.57" width="41.62" height="2.33"/><path class="cls-3" d="M21.89,277.17a2.24,2.24,0,0,1-.61-.77,5.91,5.91,0,0,1-.7-2.27,5.65,5.65,0,0,1,.3-2.36,2.21,2.21,0,0,1,.46-.87,8.57,8.57,0,0,1-.27.93,6.43,6.43,0,0,0,.39,4.48A6.88,6.88,0,0,1,21.89,277.17Z"/><path class="cls-3" d="M23.55,277.17a2.3,2.3,0,0,1-.6-.77,5.58,5.58,0,0,1-.7-2.27,5.66,5.66,0,0,1,.29-2.36,2.38,2.38,0,0,1,.46-.87,8.57,8.57,0,0,1-.27.93,6.69,6.69,0,0,0-.21,2.27,7,7,0,0,0,.6,2.21A5.49,5.49,0,0,1,23.55,277.17Z"/><path class="cls-4" d="M92.66,277a13,13,0,0,0,.54-3.13,13.77,13.77,0,0,0-.5-3.13,5.66,5.66,0,0,1,.78,3.14A5.53,5.53,0,0,1,92.66,277Z"/><path class="cls-4" d="M91.23,277c-.08,0,.24-1.37.23-3.07s-.32-3-.24-3.06a9.38,9.38,0,0,1,0,6.13Z"/><path class="cls-6" d="M253.46,273.21s-16.85-19.38-23.21-38.77-3.33-17.16-3.33-17.16,8.58,18.83,15.09,27.93,18.12,22.44,18.12,22.44Z"/><path class="cls-6" d="M256.81,220.3a1,1,0,0,0-1.82.62c1,6.81,3.24,22.79,3.16,33.16-.12,13.46,0,18.67,0,18.67h7s-1.24-27.84-2.83-36.33A58.17,58.17,0,0,0,256.81,220.3Z"/><path class="cls-6" d="M260.64,270.48a74.36,74.36,0,0,0,5.77-20.93c.57-5-.46-11.65-2-20.59a56.19,56.19,0,0,1-.89-9.91,1.68,1.68,0,0,1,3.15-.79,44.79,44.79,0,0,1,3.91,9.9c1.7,8.83,3.62,13.24,2.15,21.62s-6.9,21.27-6.9,21.27Z"/><path class="cls-6" d="M267,271.05s18.49-39.75,19.78-45.64,5.64-19.49,6.15-18.72,1.28,7.95-2.05,16.15-17.56,49.42-17.56,49.42H267"/><path class="cls-7" d="M258.61,269.27a3.22,3.22,0,0,1-.52-.36c-.33-.24-.83-.59-1.43-1.09a65.93,65.93,0,0,1-5-4.39,83.16,83.16,0,0,1-13.42-17.22,113.31,113.31,0,0,1-9.16-19.84c-.93-2.64-1.61-4.8-2.05-6.3-.22-.75-.38-1.34-.49-1.73a4.87,4.87,0,0,1-.14-.62,4.25,4.25,0,0,1,.22.59c.14.43.32,1,.56,1.71.48,1.49,1.2,3.63,2.16,6.26A120.63,120.63,0,0,0,238.61,246a87.23,87.23,0,0,0,13.27,17.22c2,2,3.68,3.47,4.88,4.47.59.51,1.07.88,1.38,1.15A3,3,0,0,1,258.61,269.27Z"/><path class="cls-7" d="M260.63,250.2a8.17,8.17,0,0,1-.16-1.16c-.09-.83-.21-1.9-.34-3.19-.3-2.69-.75-6.4-1.41-10.47s-1.38-7.74-2-10.38c-.27-1.27-.5-2.33-.67-3.14a6.29,6.29,0,0,1-.21-1.16,7.27,7.27,0,0,1,.36,1.13c.21.72.48,1.79.8,3.1.63,2.64,1.41,6.3,2.06,10.39s1.07,7.8,1.29,10.5c.12,1.35.19,2.45.22,3.2A6.66,6.66,0,0,1,260.63,250.2Z"/><path class="cls-7" d="M265,218a4.17,4.17,0,0,1,.21.51l.56,1.47c.24.64.52,1.43.79,2.37s.63,2,.9,3.18l.46,1.87c.15.65.26,1.34.41,2.05.3,1.41.48,2.94.71,4.54a68.14,68.14,0,0,1-.75,21c-.34,1.59-.64,3.1-1,4.49-.19.69-.35,1.37-.55,2s-.41,1.25-.59,1.83c-.36,1.18-.79,2.2-1.13,3.11s-.67,1.68-1,2.31l-.66,1.43a3.77,3.77,0,0,1-.25.49,2.84,2.84,0,0,1,.18-.52c.15-.37.34-.86.59-1.46s.58-1.41.9-2.33.73-1.94,1.06-3.11l.56-1.83c.2-.64.35-1.32.53-2,.39-1.39.67-2.89,1-4.47a76.76,76.76,0,0,0,1.16-10.43,77.85,77.85,0,0,0-.41-10.47c-.22-1.6-.39-3.13-.68-4.53-.13-.71-.23-1.39-.38-2s-.29-1.28-.43-1.87c-.25-1.2-.59-2.25-.84-3.19s-.51-1.73-.73-2.38l-.48-1.5A1.87,1.87,0,0,1,265,218Z"/><path class="cls-7" d="M292.67,207.49a1.23,1.23,0,0,1,0,.18l-.08.51c-.08.46-.18,1.13-.36,2-.36,1.71-1,4.17-1.88,7.16s-2.19,6.49-3.68,10.33-3.23,8-4.87,12.5-2.95,8.81-4.16,12.75-2.33,7.5-3.43,10.42a65.37,65.37,0,0,1-2.92,6.8c-.38.79-.72,1.38-.94,1.78l-.26.45c-.06.1-.09.15-.1.15s0-.06.07-.17l.22-.47c.2-.41.52-1,.87-1.81.75-1.57,1.75-3.89,2.8-6.82s2.16-6.48,3.34-10.43,2.47-8.31,4.14-12.78,3.39-8.66,4.9-12.5,2.8-7.32,3.75-10.29,1.59-5.4,2-7.1c.2-.85.33-1.51.43-2q.08-.3.12-.51C292.64,207.55,292.66,207.49,292.67,207.49Z"/><path class="cls-6" d="M235.64,198.71a1.59,1.59,0,0,0-2.62,1.62,45.44,45.44,0,0,0,2.32,6c2.54,5.4,10,24.79,13.51,35.44s8.42,30.51,8.42,30.51l7.47-1.21s-6.83-32.64-13.51-44.4C245.87,217.2,240.51,203.55,235.64,198.71Z"/><path class="cls-7" d="M250.89,248.41a4.54,4.54,0,0,1,.39.89c.22.59.52,1.44.86,2.51.68,2.13,1.53,5.1,2.37,8.41s1.55,6.31,2,8.49c.23,1,.42,1.9.57,2.59a4.4,4.4,0,0,1,.15,1,4.28,4.28,0,0,1-.3-.93q-.29-1-.69-2.55l-2.15-8.46c-.85-3.31-1.64-6.29-2.26-8.43-.3-1-.54-1.86-.74-2.54A5.06,5.06,0,0,1,250.89,248.41Z"/><path class="cls-7" d="M261,271.65s0-.06,0-.2-.05-.34-.09-.58c-.07-.52-.14-1.29-.3-2.26-.28-2-.77-4.79-1.57-8.24a117.89,117.89,0,0,0-3.49-11.93c-1.53-4.42-3.45-9.2-5.63-14.14-4.39-9.89-8.78-18.65-11.66-25.13-1.46-3.23-2.59-5.87-3.33-7.71-.38-.92-.65-1.64-.84-2.12-.09-.23-.15-.41-.21-.56l-.06-.19s0,0,.1.18l.24.54.91,2.09c.79,1.82,1.95,4.44,3.44,7.66,2.95,6.44,7.37,15.18,11.77,25.08,2.18,5,4.1,9.74,5.61,14.19a110.3,110.3,0,0,1,3.42,12,83.57,83.57,0,0,1,1.45,8.28c.13,1,.18,1.75.23,2.27l0,.59C261,271.58,261,271.65,261,271.65Z"/><path class="cls-7" d="M264.74,271.05a7.65,7.65,0,0,1-.26-1.26c-.14-.87-.34-2-.58-3.43-.51-2.89-1.3-6.87-2.43-11.21s-2.37-8.2-3.34-11c-.48-1.33-.87-2.44-1.17-3.27a9.35,9.35,0,0,1-.4-1.22,6.78,6.78,0,0,1,.54,1.16c.32.76.77,1.86,1.29,3.24a109.32,109.32,0,0,1,3.47,11c1.13,4.35,1.87,8.36,2.32,11.27.21,1.45.37,2.63.46,3.45A9.13,9.13,0,0,1,264.74,271.05Z"/><rect class="cls-8" x="250.92" y="269.98" width="29.14" height="35.5"/><g class="cls-9"><rect x="250.92" y="269.98" width="29.14" height="35.5"/></g><rect class="cls-8" x="244.91" y="269.98" width="25.85" height="35.5"/><path class="cls-8" d="M85.65,155.71h0S85.66,155.68,85.65,155.71Z"/><path class="cls-8" d="M222.44,252.4c-.23-5-7.71-72-8.84-80.62-1.8-13.75-12.86-17.2-12.86-17.2h0l-37.58-13H126L85.67,155.7l0,.68a6.59,6.59,0,0,1,0-.67c-.4.22-10.32,3-12.69,12.81-1.3,5.35-16.44,81.1-16.67,83.33s1.78,15.8,12.47,17.58c4,.67,12.66.05,21.92-1L83.45,305.6H200.27l-4.13-26.54c9.29-3.62,19-7.66,20.63-9.35C219.94,266.41,222.66,257.38,222.44,252.4ZM90.28,233.31Z"/><g class="cls-9"><path d="M120.83,244.52a21.26,21.26,0,0,0-1.72-6.92,8.47,8.47,0,0,0-5.2-4.63,5.39,5.39,0,0,0-6.11,2.53c-4.22,11.83-.38,18.5,7.66,24.89,1.27,1,2.85,1.81,4.4,1.34s1.85-1.59,1.92-3.19A86.79,86.79,0,0,0,120.83,244.52Z"/></g><path class="cls-7" d="M104.37,231.09a4.16,4.16,0,0,1-.77.12l-2.11.23c-1.81.17-4.33.4-7.21.64l.09,0c-.66.46-1.34.93-2,1.43a36.81,36.81,0,0,0-6.63,5.87,17.93,17.93,0,0,0-1.57,2.18,5.53,5.53,0,0,1-.52.84,5.24,5.24,0,0,1,.39-.91,16.57,16.57,0,0,1,1.5-2.27,33.37,33.37,0,0,1,6.61-6c.69-.5,1.38-1,2-1.43l0,0h0c2.88-.23,5.41-.41,7.22-.52l2.12-.12A3.17,3.17,0,0,1,104.37,231.09Z"/><path class="cls-7" d="M122.54,244.07a.64.64,0,0,1,.06.21c0,.16.08.36.13.62.1.55.24,1.36.37,2.41a77.58,77.58,0,0,1,.48,9c0,.94,0,1.94,0,3a4.38,4.38,0,0,1-1,3.07,4.71,4.71,0,0,1-3.1,1.55l-3.6.63c-4.92.86-10.33,1.91-16,2.83s-11.18,1.57-16.16,2a83.51,83.51,0,0,1-13.29.51,19.84,19.84,0,0,1-2.69-.37,7.59,7.59,0,0,1-2.25-.92,17.46,17.46,0,0,1-3-2.42c-.76-.74-1.32-1.34-1.7-1.75l-.42-.47c-.1-.11-.15-.16-.14-.17l.16.15.45.44c.4.39,1,1,1.75,1.7a18.27,18.27,0,0,0,3,2.35,7.43,7.43,0,0,0,2.2.86,17.87,17.87,0,0,0,2.65.35A87.81,87.81,0,0,0,83.59,269c5-.46,10.44-1.11,16.13-2s11.1-1.95,16-2.8l3.61-.61a4.43,4.43,0,0,0,2.93-1.44,4.11,4.11,0,0,0,1-2.88c0-1,0-2,0-3a87.48,87.48,0,0,0-.37-8.94c-.1-1.05-.22-1.87-.3-2.42,0-.26-.07-.46-.1-.62A.73.73,0,0,1,122.54,244.07Z"/><path class="cls-7" d="M98.6,187.88c.09,0-.79,9.87-2,22s-2.24,22-2.34,22,.79-9.87,2-22S98.5,187.87,98.6,187.88Z"/><path class="cls-7" d="M194.41,179.3s0,0,0,.17V180q0,.69-.06,1.89c-.06,1.64-.17,4-.32,7-.31,5.86-.87,14-1.56,22.9s-1.29,17-1.67,22.89c-.18,2.9-.33,5.27-.43,6.94l-.13,1.88c0,.2,0,.36,0,.49s0,.17,0,.17a1.15,1.15,0,0,1,0-.17v-.49q0-.69.06-1.89c0-1.64.16-4,.32-7,.31-5.87.87-14,1.56-22.9s1.29-17,1.66-22.89c.19-2.9.33-5.27.44-6.94l.12-1.89,0-.49C194.4,179.35,194.41,179.3,194.41,179.3Z"/><path class="cls-7" d="M219,251.22a26.12,26.12,0,0,0-2.15-3.07,17,17,0,0,0-7.36-5,30.43,30.43,0,0,0-4.84-1.13,10.69,10.69,0,0,0-6.58,1.08,9.73,9.73,0,0,1-.9.45s.06-.07.2-.17.35-.25.64-.41a10.09,10.09,0,0,1,2.56-1.06,11.14,11.14,0,0,1,4.12-.22,28.59,28.59,0,0,1,4.91,1.12A16.4,16.4,0,0,1,217,248a14.21,14.21,0,0,1,1.54,2.3A4,4,0,0,1,219,251.22Z"/><path class="cls-7" d="M199.39,277.78a1.64,1.64,0,0,1-.41.21l-1.19.54c-1,.45-2.54,1.12-4.4,1.91a44,44,0,0,1-6.73,2.36,10.2,10.2,0,0,1-4.24.13,8.28,8.28,0,0,1-4-2.23,11.29,11.29,0,0,1-2.46-3.83,25.41,25.41,0,0,1-1.31-4,58.49,58.49,0,0,1-1.25-7c-.24-2-.38-3.65-.47-4.78,0-.53-.08-1-.1-1.3a2.2,2.2,0,0,1,0-.45,2.3,2.3,0,0,1,.08.45l.17,1.29c.13,1.13.31,2.75.59,4.76a63.14,63.14,0,0,0,1.31,7,25.9,25.9,0,0,0,1.32,4,11,11,0,0,0,2.38,3.71,7.87,7.87,0,0,0,3.79,2.14,9.9,9.9,0,0,0,4.1-.1,46.08,46.08,0,0,0,6.7-2.28l4.45-1.8,1.21-.47A2.12,2.12,0,0,1,199.39,277.78Z"/><g class="cls-9"><path d="M122.61,262c-1,1.44-3.23,1.74-5,2-9.27,1.57-17.65,3.07-27,4.09l-1.19,6.14c9.49-1.53,19.25-3.53,28.21-7A11.17,11.17,0,0,0,121,265.4,4.22,4.22,0,0,0,122.61,262Z"/></g><g class="cls-9"><path d="M176.35,261.32a35,35,0,0,0,4.29,14.49c.58,1,1.45,2.09,2.59,2a3,3,0,0,0,2-1.65c1.8-2.9,3.43-5.66,4-9l-8.86-3.53Z"/></g><path class="cls-7" d="M157,260.28c.06.08-6.67,5.37-15,11.81s-15.2,11.6-15.26,11.52,6.67-5.36,15-11.81S157,260.2,157,260.28Z"/><path class="cls-7" d="M193.91,248a6.33,6.33,0,0,1,.1,1.15,12.82,12.82,0,0,1,0,1.36,17.93,17.93,0,0,1-.14,1.8,46.15,46.15,0,0,1-2.51,10.09,54.63,54.63,0,0,1-4.4,9.43,28.15,28.15,0,0,1-1.76,2.62,6.32,6.32,0,0,1-.75.88,7.24,7.24,0,0,1,.64-1c.41-.62,1-1.52,1.65-2.67a61.1,61.1,0,0,0,4.28-9.42,52.07,52.07,0,0,0,2.6-10c.09-.66.17-1.25.19-1.78s.09-1,.08-1.35A7.43,7.43,0,0,1,193.91,248Z"/><path class="cls-10" d="M142.1,225s-10.3-16.45-18.38-13.22c0,0-4.1-3.36-6.73-1.21s-1.68,6.53-1.68,6.53-5-4-7.21-1.95-.6,5.66,0,7.41a31.93,31.93,0,0,1,1,5.45s-3-1.55-4.45.94,4,10.84,4.78,12,6,6.26,9.56,4.91A15.06,15.06,0,0,0,125,241Z"/><path class="cls-11" d="M115.3,217.77a6.32,6.32,0,0,1,.93.59l2.46,1.69,3.63,2.55a5.39,5.39,0,0,1,1,.88,2.25,2.25,0,0,1,.55,1.31,2.69,2.69,0,0,1-1.57,2.39,4.46,4.46,0,0,1-2.86.3,10,10,0,0,1-2.49-.93c-1.49-.77-2.79-1.53-3.87-2.19s-1.92-1.25-2.49-1.66a5.6,5.6,0,0,1-.87-.68,7.59,7.59,0,0,1,1,.56c.59.38,1.46.92,2.54,1.56s2.4,1.36,3.89,2.11a10,10,0,0,0,2.4.88,4.29,4.29,0,0,0,2.64-.27,2.34,2.34,0,0,0,1.37-2.05,2.76,2.76,0,0,0-1.38-1.94l-3.57-2.61-2.4-1.79A6.82,6.82,0,0,1,115.3,217.77Z"/><path class="cls-11" d="M115.44,217.27a1.51,1.51,0,0,1,.3.21l.84.63c.73.55,1.78,1.36,3.11,2.29a21.53,21.53,0,0,0,5,2.73,12.14,12.14,0,0,0,3.25.73,7,7,0,0,0,3.47-.47,2.76,2.76,0,0,0,1.24-1.17,2,2,0,0,0,.14-1.6,8,8,0,0,0-1.85-2.71,38.14,38.14,0,0,0-4.26-3.8c-1.28-1-2.36-1.76-3.1-2.29l-.86-.6c-.2-.14-.3-.22-.29-.23a1.59,1.59,0,0,1,.32.17c.21.12.52.3.9.55.78.48,1.88,1.22,3.19,2.2a35.8,35.8,0,0,1,4.34,3.77c.37.4.74.82,1.09,1.28a4.82,4.82,0,0,1,.86,1.56,2.4,2.4,0,0,1-.16,1.87,3.14,3.14,0,0,1-1.4,1.32,7.3,7.3,0,0,1-3.66.5,12.56,12.56,0,0,1-3.33-.76,20.84,20.84,0,0,1-5-2.84c-1.32-1-2.35-1.8-3.05-2.39l-.79-.69C115.52,217.37,115.43,217.28,115.44,217.27Z"/><path class="cls-10" d="M108.58,228l7.24,3.48c.82.39,1.77,1,1.74,1.9a1.89,1.89,0,0,1-.53,1.12,5.91,5.91,0,0,1-4.81,1.74,17.55,17.55,0,0,1-5.09-1.37"/><path class="cls-11" d="M107.13,234.89c0-.07,1.2.43,3.16.93a8.88,8.88,0,0,0,3.51.19,5.92,5.92,0,0,0,1.93-.67,3.78,3.78,0,0,0,1.53-1.49,1.08,1.08,0,0,0,0-1,2,2,0,0,0-.69-.75,15.63,15.63,0,0,0-1.85-1l-3.22-1.59-2.16-1.1a4.13,4.13,0,0,1-.77-.45,4.7,4.7,0,0,1,.83.33l2.21,1,3.26,1.52a14.57,14.57,0,0,1,1.91,1,2.46,2.46,0,0,1,.81.88,1.49,1.49,0,0,1,0,1.27,5,5,0,0,1-3.74,2.34,8.69,8.69,0,0,1-3.62-.28,20.87,20.87,0,0,1-2.3-.79A3.93,3.93,0,0,1,107.13,234.89Z"/><path class="cls-10" d="M119.86,245.48,109,253.71a18.18,18.18,0,0,1-1.77-16.31h2.62l-.59,2.94,5,1Z"/><path class="cls-10" d="M107,237.21l4,5.22a8.26,8.26,0,0,0,1.55,1.68,2.83,2.83,0,0,0,2.15.61"/><path class="cls-11" d="M114.66,244.72a2,2,0,0,1-1.64-.15,4.47,4.47,0,0,1-1.44-1.11c-.46-.51-.9-1.1-1.37-1.71-.94-1.22-1.78-2.34-2.37-3.17a7.18,7.18,0,0,1-.89-1.37,8,8,0,0,1,1.1,1.22c.64.78,1.51,1.88,2.45,3.1.47.61.9,1.21,1.32,1.71a4.56,4.56,0,0,0,1.31,1.1A3.62,3.62,0,0,0,114.66,244.72Z"/><path class="cls-3" d="M110.08,238.38l13.36-12.78a6.76,6.76,0,0,1,4.88-1.87l68.53,2a1.43,1.43,0,0,1,.81,2.59l-19.25,14.14a1.77,1.77,0,0,1-1.16.35l-66.59-2.89A.89.89,0,0,1,110.08,238.38Z"/><path class="cls-7" d="M198.22,227.45a.87.87,0,0,1-.24,0h-.71l-2.71,0-10-.23-32.89-.88-18.11-.53-4.07-.12a13.67,13.67,0,0,0-1.92,0,4.81,4.81,0,0,0-1.73.55,6.86,6.86,0,0,0-1.41,1.1c-.43.41-.87.81-1.29,1.19l-2.43,2.24-7.35,6.75-2,1.81-.53.47c-.12.1-.18.16-.19.15l.17-.18.5-.49,2-1.87,7.27-6.82L123,228.3l1.29-1.2a6.93,6.93,0,0,1,1.45-1.15,5.11,5.11,0,0,1,1.84-.6,14.4,14.4,0,0,1,2,0l4.07.11,18.11.5,32.89,1,10,.34,2.71.11.71,0Z"/><path class="cls-2" d="M211.8,191.41c.09,0-3.32,6.64-7.62,14.72s-7.86,14.61-8,14.56,3.33-6.64,7.63-14.72S211.71,191.36,211.8,191.41Z"/><path class="cls-2" d="M186.7,190.05c.1,0-1.27,5.91-3.06,13.16s-3.31,13.1-3.41,13.07,1.27-5.91,3.06-13.16S186.6,190,186.7,190.05Z"/><path class="cls-2" d="M81.84,200.83c.08-.07,4.27,4.6,9.37,10.43s9.17,10.61,9.09,10.68S96,217.33,90.94,211.5,81.77,200.89,81.84,200.83Z"/><path class="cls-2" d="M98.4,177.63c.09,0,2.28,7.22,4.89,16.17s4.64,16.24,4.55,16.27-2.29-7.21-4.9-16.17S98.3,177.66,98.4,177.63Z"/><path class="cls-2" d="M166.19,169.7a3.14,3.14,0,0,1,0,.49c0,.36,0,.83,0,1.41v5.18c0,4.41-.07,10.43-.12,17.09S166,206.55,165.9,211c-.05,2.15-.08,3.91-.11,5.18l0,1.41a2.37,2.37,0,0,1,0,.49,3.14,3.14,0,0,1,0-.49c0-.36,0-.83,0-1.41,0-1.27,0-3,0-5.18,0-4.41.08-10.44.12-17.09s.17-12.68.23-17.09c0-2.16.08-3.92.11-5.18,0-.58,0-1,.05-1.41A1.72,1.72,0,0,1,166.19,169.7Z"/><path class="cls-7" d="M189.6,85c-2.59-2.77-5.73-5.38-6.63-9.07-.83-3.38.36-7.26-1.43-10.25-2.21-3.68-7.71-4-10.36-7.36-1.28-1.64-1.73-3.8-3-5.45-2.16-2.8-6.18-3.43-9.69-2.94s-6.85,1.86-10.37,2.22c-4.83.5-9.88-.92-14.49.63-5.08,1.7-8.07,6.34-11.26,10.84l-4.19,5.24a19.9,19.9,0,0,1-2.82,2.45c-1.79,1.24-3.86,2.12-5.38,3.68a8.57,8.57,0,0,0,1,12.33,9.17,9.17,0,0,0-5.88,9.19c.19,2.15,1.15,4.14,1.86,6.17s1.17,4.31.38,6.31-3.27,3.44-5.18,2.44a9.64,9.64,0,0,0,5.46,6.26,5.75,5.75,0,0,1-3.82,1.85c4.23,9.09,15.08,13.58,25.11,13.3s19.49-4.41,28.66-8.46l26.76-7.93c2.35-.62,3.24-3.53,3.12-6s-.82-4.94,0-7.24c1.08-3.16,4.64-4.93,5.79-8.06C194.47,91.6,192.18,87.76,189.6,85Z"/><path class="cls-7" d="M126.57,111.76c-2.16-6-4.3-12.11-5.39-18.42s-1.1-12.93,1-19c.31-.92,3-7.12,4-7,.69,0-.92,5.8-.55,6.39,3.51,5.62,4.62,12.48,4.28,19.1a86.94,86.94,0,0,1-3.28,19"/><path class="cls-10" d="M150.26,56.83l-1.48,0c-16.07.55-24.57,14.5-23.57,30.54l.46,55.32a18.8,18.8,0,0,0,18,18.64h0A18.82,18.82,0,0,0,163.29,143c.08-2.91.15-4.94.16-4.94s15.48-2,16-17.45c.27-7.44-.42-22.82-1.21-36.73A28.74,28.74,0,0,0,150.26,56.83Z"/><path class="cls-11" d="M163.45,138.1a37.31,37.31,0,0,1-19.93-6.42s4.38,11.48,19.79,10.45Z"/><path class="cls-7" d="M171.48,98.16a2.21,2.21,0,0,1-2.18,2.17,2.11,2.11,0,0,1-2.22-2,2.2,2.2,0,0,1,2.17-2.18A2.12,2.12,0,0,1,171.48,98.16Z"/><path class="cls-7" d="M174.82,90.24c-.28.28-1.92-1-4.29-1s-4.13,1.09-4.38.8c-.12-.13.17-.65.94-1.18a6.06,6.06,0,0,1,3.52-1A5.73,5.73,0,0,1,174,89C174.73,89.59,175,90.12,174.82,90.24Z"/><path class="cls-7" d="M150,98.16a2.2,2.2,0,0,1-2.17,2.17,2.12,2.12,0,0,1-2.23-2,2.21,2.21,0,0,1,2.18-2.18A2.11,2.11,0,0,1,150,98.16Z"/><path class="cls-7" d="M151.59,90.65c-.28.28-1.92-1-4.29-1s-4.13,1.09-4.38.79c-.12-.13.16-.64.94-1.17a6.06,6.06,0,0,1,3.52-1,5.87,5.87,0,0,1,3.4,1.19C151.49,90,151.73,90.52,151.59,90.65Z"/><path class="cls-7" d="M159.66,109.06c0-.14,1.47-.36,3.86-.61.61,0,1.18-.15,1.3-.56a3.09,3.09,0,0,0-.37-1.8l-1.67-4.65c-2.33-6.62-4-12.06-3.74-12.15s2.38,5.2,4.7,11.82c.56,1.63,1.1,3.18,1.61,4.67a3.47,3.47,0,0,1,.25,2.38,1.52,1.52,0,0,1-1,.87,4.47,4.47,0,0,1-1,.11A15.45,15.45,0,0,1,159.66,109.06Z"/><path class="cls-7" d="M152.65,110.53c.38,0,.33,2.56,2.48,4.44s4.91,1.66,4.92,2c0,.16-.63.48-1.78.48a6.36,6.36,0,0,1-4.11-1.54,5.57,5.57,0,0,1-1.92-3.71C152.17,111.14,152.47,110.51,152.65,110.53Z"/><path class="cls-7" d="M151.69,81c-.25.64-2.61.28-5.39.55s-5.06,1-5.41.39c-.16-.29.24-.88,1.17-1.48a9.38,9.38,0,0,1,8.23-.71C151.3,80.21,151.8,80.73,151.69,81Z"/><path class="cls-7" d="M174,82.34c-.43.53-2.05-.06-4-.14s-3.63.28-4-.29c-.16-.28.11-.81.85-1.31a5.57,5.57,0,0,1,3.28-.8A5.51,5.51,0,0,1,173.33,81C174,81.53,174.22,82.09,174,82.34Z"/><path class="cls-10" d="M126.2,98.79c-.26-.12-10.52-3.39-10.43,7.16s10.65,8.29,10.67,8S126.2,98.79,126.2,98.79Z"/><path class="cls-11" d="M123.18,110s-.18.13-.49.27a1.84,1.84,0,0,1-1.37,0c-1.12-.4-2.07-2.16-2.14-4.06a6.07,6.07,0,0,1,.5-2.64,2.13,2.13,0,0,1,1.37-1.42.93.93,0,0,1,1.08.5c.15.29.08.5.14.52s.22-.18.14-.61a1.25,1.25,0,0,0-.42-.66,1.35,1.35,0,0,0-1-.26,2.58,2.58,0,0,0-1.91,1.65,6.25,6.25,0,0,0-.61,2.94c.08,2.13,1.19,4.11,2.72,4.54a1.94,1.94,0,0,0,1.67-.3C123.17,110.22,123.22,110,123.18,110Z"/><path class="cls-7" d="M171.15,66.57c1.69-1-3.53-6.41-7.75-8.25C157,55.55,147.3,54,141.48,55.7c-7,2.12-12.79,5.72-16.21,12.18A41.46,41.46,0,0,0,121,89.14a12.62,12.62,0,0,0,1.59,6.42c1.52,2.31,4.37,3.73,4.3,7a4.38,4.38,0,0,0,1.15,3.2c2,2,4.29.05,5.34-1.9,2.25-4.17,2.43-9.11,2.55-13.84.09-3.37.17-6.81-.84-10-.54-1.75-1.4-3.4-1.85-5.18a6.3,6.3,0,0,1,.66-5.27,6.47,6.47,0,0,1,.84-.88,11,11,0,0,1,10.88-2.27c6,2,16.17,5,18.78,2.91,3.77-3,4.64-4.87,4.64-4.87Z"/><path class="cls-7" d="M142,54.26a23.2,23.2,0,0,1,17.83.68c2.91,1.44,5.55,3.79,6.48,6.89s-.34,7-3.32,8.25l-.21.14c-4.47,1.59-7.4,1-11.92-.44-3.79-1.25-7.19-3.52-11-4.74a21.42,21.42,0,0,0-12.56-.16A35.15,35.15,0,0,1,142,54.26Z"/><path class="cls-6" d="M117.4,99.58a5.61,5.61,0,0,1-.52-.61,8.93,8.93,0,0,1-1.73-5.64,8.85,8.85,0,0,1,1.54-4.59,9,9,0,0,1,1.94-2.08,9.88,9.88,0,0,1,2.7-1.46c2-.77,4.26-1.16,6.13-2.58a5.07,5.07,0,0,0,2-2.85,12.09,12.09,0,0,0,.21-3.72,21.1,21.1,0,0,1,.57-8,12.2,12.2,0,0,1,4.91-6.25A18.23,18.23,0,0,1,142,59a17.16,17.16,0,0,1,6.74,0,14.56,14.56,0,0,1,5.42,2.29,14.29,14.29,0,0,1,5.26,6.57,11.28,11.28,0,0,1,.63,2.23l.08.59c0,.14,0,.21,0,.21a15.8,15.8,0,0,0-.86-3,14.56,14.56,0,0,0-10.61-8.62,17.35,17.35,0,0,0-6.62,0,18.28,18.28,0,0,0-6.75,2.83,11.87,11.87,0,0,0-4.76,6.07A20.72,20.72,0,0,0,130,76a11.92,11.92,0,0,1-.23,3.82,5.5,5.5,0,0,1-2.07,3c-2,1.46-4.29,1.84-6.23,2.59a9,9,0,0,0-4.54,3.4,8.79,8.79,0,0,0-1.55,4.46,9.21,9.21,0,0,0,.54,3.55A10.7,10.7,0,0,0,117.4,99.58Z"/><path class="cls-6" d="M116.26,102a5.6,5.6,0,0,1-.81-.46,11.25,11.25,0,0,1-2-1.76,11.48,11.48,0,0,1-2.18-3.65,10.81,10.81,0,0,1-.43-5.6,11,11,0,0,1,3.2-6c1.78-1.74,4.13-3,6.32-4.62a13,13,0,0,0,3-2.91,14.43,14.43,0,0,0,1.88-3.91c.94-2.82,1.37-5.94,2.71-8.88A16.74,16.74,0,0,1,134,57.26a17.15,17.15,0,0,1,8.18-2.72,18.66,18.66,0,0,1,7.75,1.14,19.21,19.21,0,0,1,5.86,3.48,20.62,20.62,0,0,1,5.62,8,15.9,15.9,0,0,1,1,3.48.74.74,0,0,1-.08-.23l-.17-.67a23.51,23.51,0,0,0-.87-2.53,21,21,0,0,0-5.65-7.91A18.89,18.89,0,0,0,149.81,56a18.4,18.4,0,0,0-7.61-1.09,16.84,16.84,0,0,0-8,2.69,16.33,16.33,0,0,0-6,6.8c-1.32,2.87-1.75,6-2.7,8.84a14.83,14.83,0,0,1-1.94,4,13.21,13.21,0,0,1-3,3c-2.23,1.64-4.57,2.87-6.31,4.57a10.71,10.71,0,0,0-3.16,5.81,10.51,10.51,0,0,0,.38,5.48,11.1,11.1,0,0,0,2.09,3.62,11.57,11.57,0,0,0,2,1.8C116,101.81,116.28,102,116.26,102Z"/><path class="cls-10" d="M178.61,239.32s-28.65-6.67-33-7c-4.11-.3-5.18,2.27-5.18,2.27s-6.14-.77-7.5,2.81c0,0-1.08,2.09,1.44,3.16s16.18,4.07,19,6.68,26.35,16,26.35,16l9.5,3.87s4.26-11.14,4.45-14.33a8.46,8.46,0,0,0-1-5s5.91-6,6.59-8.42,4.94-10.76,4.94-10.76-4-4.08-8,.72a58.83,58.83,0,0,1-7.25,7.81C185.91,239.62,180.44,239.89,178.61,239.32Z"/><path class="cls-11" d="M169.08,247.67a1.32,1.32,0,0,1-.31-.11l-.84-.41-3.08-1.48c-2.62-1.22-6.27-2.83-10.41-4.34-2.07-.76-4.06-1.43-5.88-2s-3.49-1-4.84-1.58a6.3,6.3,0,0,1-2.77-2,3.17,3.17,0,0,1-.45-.83,1.25,1.25,0,0,1-.09-.31,9.11,9.11,0,0,0,.65,1.06,6.66,6.66,0,0,0,2.76,1.87c1.32.54,3,.92,4.84,1.49s3.83,1.21,5.91,2A108.26,108.26,0,0,1,165,245.44c1.29.65,2.33,1.2,3,1.59l.81.46Z"/><path class="cls-11" d="M187.69,238.08a6.58,6.58,0,0,1-2.58,2.14,6.69,6.69,0,0,1-3.22.93c0-.11,1.45-.4,3.05-1.25S187.61,238,187.69,238.08Z"/><path class="cls-7" d="M288.53,305.66c0,.1-61.8.18-138,.18s-138-.08-138-.18,61.78-.18,138-.18S288.53,305.56,288.53,305.66Z"/><polygon class="cls-2" points="91.46 78.75 0.18 78.75 0.18 116.31 82.28 116.31 87.87 121.91 87.87 116.31 91.46 116.31 91.46 78.75"/><path class="cls-7" d="M91.46,78.75s0,.21,0,.64,0,1.08,0,1.91c0,1.7,0,4.19,0,7.41,0,6.47,0,15.87.07,27.6v.12H87.87l.13-.13c0,1.73,0,3.64,0,5.6v.33l-.24-.24-5.6-5.59.11,0-78.14,0H0v-.18c0-13.18,0-25.85,0-37.56v-.17H.18l65.63.08,18.9,0,5,0h0l-5.06,0-19,0L.18,78.92l.17-.17c0,11.71,0,24.38,0,37.56l-.18-.18h4l78.14,0h.06l0,0,5.59,5.6-.24.1c0-2,0-3.87,0-5.6v-.13h3.72l-.12.13c0-11.69,0-21.07.07-27.53,0-3.23,0-5.73,0-7.43,0-.85,0-1.49,0-1.94S91.46,78.75,91.46,78.75Z"/><rect class="cls-3" x="38.34" y="89.5" width="44.83" height="3.14" rx="1.49"/><rect class="cls-3" x="38.34" y="96.5" width="44.83" height="3.14" rx="1.49"/><rect class="cls-3" x="38.34" y="103.5" width="44.83" height="3.14" rx="1.49"/><rect class="cls-6" x="7.73" y="86.52" width="23.09" height="23.09" rx="3.1"/><path class="cls-2" d="M10,104.92l-.53-.44,4.67-5.55a1.69,1.69,0,0,1,2.33-.41l2.75,1.83,3.24-4.09a1.73,1.73,0,0,1,1.28-.65,1.71,1.71,0,0,1,1.32.55l4,4.32-.51.47-4-4.32a1,1,0,0,0-.79-.33,1.05,1.05,0,0,0-.76.39l-3.63,4.6L16.09,99.1a1,1,0,0,0-1.39.25Z"/><circle class="cls-2" cx="17.21" cy="92.52" r="2.06"/><polygon class="cls-2" points="255.83 146.83 172.85 146.83 172.85 182.19 181.41 182.19 182.31 189.98 188.71 182.19 255.83 182.19 255.83 146.83"/><path class="cls-7" d="M255.83,146.83s0,.2,0,.6v1.8l0,7c0,6.11,0,15,.07,26v.12h-.13l-67.12.05.13-.06-6.39,7.79-.27.33,0-.42c-.29-2.47-.6-5.12-.91-7.79l.18.16h-8.74v-.18c0-12.42,0-24.34,0-35.36v-.17h.17l59.71.08,17.15,0,4.56,0h0l-4.59,0-17.2,0-59.59.08.17-.17c0,11,0,22.94,0,35.36l-.18-.18h8.72l0,.16c.31,2.67.62,5.32.9,7.79l-.32-.1,6.4-7.79.05-.06h.09l67.12.05-.12.13c0-11,0-19.82.07-25.9,0-3,0-5.4,0-7,0-.79,0-1.4,0-1.82S255.83,146.83,255.83,146.83Z"/><path class="cls-3" d="M246,158H213a1.66,1.66,0,0,1-1.66-1.67h0a1.66,1.66,0,0,1,1.66-1.66h33a1.66,1.66,0,0,1,1.66,1.66h0A1.66,1.66,0,0,1,246,158Z"/><path class="cls-3" d="M246,165.41H213a1.66,1.66,0,0,1-1.66-1.66h0a1.66,1.66,0,0,1,1.66-1.67h33a1.66,1.66,0,0,1,1.66,1.67h0A1.66,1.66,0,0,1,246,165.41Z"/><path class="cls-3" d="M246,172.84H213a1.66,1.66,0,0,1-1.66-1.67h0a1.66,1.66,0,0,1,1.66-1.66h33a1.66,1.66,0,0,1,1.66,1.66h0A1.66,1.66,0,0,1,246,172.84Z"/><rect class="cls-1" x="178.88" y="151.51" width="24.48" height="24.48" rx="3.1"/><path class="cls-2" d="M181.28,171l-.53-.45,4.95-5.88a1.78,1.78,0,0,1,2.44-.43l2.93,2,3.45-4.36a1.79,1.79,0,0,1,2.72-.11l4.24,4.58-.51.48-4.24-4.58a1.11,1.11,0,0,0-.85-.36,1.14,1.14,0,0,0-.82.42l-3.84,4.86-3.46-2.31a1.11,1.11,0,0,0-1.51.27Z"/><path class="cls-2" d="M191.12,157.86a2.19,2.19,0,1,1-2.19-2.19A2.19,2.19,0,0,1,191.12,157.86Z"/><path class="cls-2" d="M85.11,139.28H19.05a4.35,4.35,0,0,0-4.35,4.35v38.44a3.81,3.81,0,0,0,3.81,3.81H72.35l8.47,8.47v-8.47H84a4.6,4.6,0,0,0,4.6-4.6V142.73A3.45,3.45,0,0,0,85.11,139.28Z"/><path class="cls-3" d="M19.33,139.28H85.19a3.37,3.37,0,0,1,3.37,3.37v5.3a.39.39,0,0,1-.39.39H15.09a.39.39,0,0,1-.39-.39v-4A4.63,4.63,0,0,1,19.33,139.28Z"/><rect class="cls-8" x="22.24" y="155.76" width="22.11" height="22.11" rx="3.1"/><g class="cls-9"><path d="M42.42,169.34a5.16,5.16,0,0,1-.74-.69l-1.91-2-1.3-1.38a1.14,1.14,0,0,0-1.69,0c-1,1.2-2,2.52-3.08,3.9l-.24.31-.11.13-.14-.1L30.83,168l-.56-.37a1.08,1.08,0,0,0-.55-.15,1.15,1.15,0,0,0-.95.47h0l-3.28,3.8-.95,1.06a2,2,0,0,1-.36.35s.08-.16.28-.42l.88-1.11,3.19-3.89h0a1.48,1.48,0,0,1,1.22-.62,1.52,1.52,0,0,1,.71.2c.21.12.38.25.58.37l2.4,1.59-.25,0,.24-.3,3.11-3.9a1.46,1.46,0,0,1,1.12-.5,1.48,1.48,0,0,1,1,.46c.45.51.88,1,1.27,1.41l1.82,2.06A7.3,7.3,0,0,1,42.42,169.34Z"/></g><g class="cls-9"><path d="M33.29,161.5a2,2,0,1,1-2-2A2,2,0,0,1,33.29,161.5Z"/></g><path class="cls-7" d="M85.11,139.28a2.71,2.71,0,0,1,1,.12,3.47,3.47,0,0,1,2.16,1.8,4.15,4.15,0,0,1,.36,2.07c0,.78,0,1.62,0,2.54q0,2.74,0,6.29c0,4.72,0,10.47,0,17.08,0,3.31,0,6.84,0,10.56a8.13,8.13,0,0,1-.28,2.84A5.09,5.09,0,0,1,86.69,185a5,5,0,0,1-2.82,1c-1,0-2,0-3.05,0l.15-.15c0,2.65,0,5.52,0,8.47v.38l-.27-.27L72.23,186l.12,0-48.27,0H19.33a8,8,0,0,1-1.61-.08,4,4,0,0,1-2.61-1.82,4.2,4.2,0,0,1-.55-1.53,14,14,0,0,1,0-1.57V168.85c0-8,0-15.71,0-23.07v-1.37a9.19,9.19,0,0,1,.05-1.38,4.44,4.44,0,0,1,1.19-2.49,4.53,4.53,0,0,1,2.38-1.33,6.76,6.76,0,0,1,1.34-.09H30.93l18.19,0,26.34.06,7.15,0,1.87,0,.63,0-.63,0-1.87,0-7.15,0-26.34.06-18.19,0H20.8a18.54,18.54,0,0,0-2.59.08A4.29,4.29,0,0,0,16,140.76a4.14,4.14,0,0,0-1.1,2.31,11.78,11.78,0,0,0,0,1.34v1.37c0,7.36,0,15.07,0,23.07,0,4,0,8.08,0,12.21a10.9,10.9,0,0,0,0,1.52,3.69,3.69,0,0,0,.5,1.39,3.63,3.63,0,0,0,2.37,1.66,8.65,8.65,0,0,0,1.54.07H72.42l0,0,8.46,8.47-.27.12v-8.62h.15c1,0,2,0,3,0a4.71,4.71,0,0,0,2.66-1,4.88,4.88,0,0,0,1.64-2.25,7.93,7.93,0,0,0,.27-2.75c0-3.72,0-7.25,0-10.56,0-6.61,0-12.36,0-17.08q0-3.54,0-6.29c0-.92,0-1.76,0-2.54a4,4,0,0,0-.33-2,3.47,3.47,0,0,0-2.1-1.8A5.22,5.22,0,0,0,85.11,139.28Z"/><path class="cls-2" d="M21.07,143.65a1.56,1.56,0,1,1-1.56-1.56A1.56,1.56,0,0,1,21.07,143.65Z"/><path class="cls-2" d="M25.75,143.65a1.56,1.56,0,1,1-1.56-1.56A1.56,1.56,0,0,1,25.75,143.65Z"/><path class="cls-2" d="M30.43,143.65a1.56,1.56,0,1,1-1.56-1.56A1.56,1.56,0,0,1,30.43,143.65Z"/><path class="cls-7" d="M78.68,160.08c0,.1-6,.18-13.49.18s-13.48-.08-13.48-.18,6-.18,13.48-.18S78.68,160,78.68,160.08Z"/><path class="cls-7" d="M78.68,165.19c0,.1-6,.18-13.49.18s-13.48-.08-13.48-.18,6-.18,13.48-.18S78.68,165.09,78.68,165.19Z"/><path class="cls-7" d="M78.68,170.3c0,.1-6,.18-13.49.18s-13.48-.08-13.48-.18,6-.18,13.48-.18S78.68,170.2,78.68,170.3Z"/><polygon class="cls-2" points="200.9 95.53 271.67 95.53 271.67 131.29 213.34 131.29 206.84 137.78 206.84 131.29 200.9 131.29 200.9 95.53"/><path class="cls-7" d="M200.9,95.53s0,.22,0,.64,0,1,0,1.85c0,1.64,0,4,0,7.12,0,6.17,0,15.09.07,26.15l-.13-.14H207v.14c0,2,0,4.22,0,6.49l-.26-.1,6.5-6.51,0,0h.07l53.73,0h4.6l-.18.18c0-12.62,0-24.67,0-35.76l.16.16-50.88-.08-14.63,0-3.9,0h0l3.87,0,14.59,0,51-.08h.17v.17c0,11.09,0,23.14,0,35.76v.18h-4.78l-53.73,0,.11,0-6.51,6.49-.25.25v-.36c0-2.27,0-4.47,0-6.49l.14.14h-6.07v-.13c0-11.09,0-20,.07-26.23,0-3.07,0-5.46,0-7.09,0-.8,0-1.41,0-1.83S200.9,95.53,200.9,95.53Z"/><path class="cls-7" d="M259.76,106.43c0,.1-10.58.18-23.63.18s-23.63-.08-23.63-.18,10.58-.18,23.63-.18S259.76,106.33,259.76,106.43Z"/><path class="cls-7" d="M259.76,111.54c0,.1-10.58.18-23.63.18s-23.63-.08-23.63-.18,10.58-.18,23.63-.18S259.76,111.44,259.76,111.54Z"/><path class="cls-7" d="M259.76,116.65c0,.1-10.58.19-23.63.19s-23.63-.09-23.63-.19,10.58-.18,23.63-.18S259.76,116.56,259.76,116.65Z"/><polygon class="cls-2" points="94.76 28.11 44.6 28.11 44.6 63.87 82.33 63.87 88.83 70.36 88.83 63.87 94.76 63.87 94.76 28.11"/><path class="cls-7" d="M94.76,28.1s0,.21,0,.63,0,1.05,0,1.86c0,1.66,0,4.07,0,7.16,0,6.23,0,15.18.08,26.12V64H88.83l.15-.15v6.88l-.28-.27c-2-2.06-4.25-4.24-6.5-6.5l.12.05-33.13,0H44.42v-.18c0-12.88,0-25,0-35.77v-.16h.16L80.92,28l10.23.05,2.7,0h0l-2.72,0-10.27.05-36.22.08.16-.17c0,10.74,0,22.89,0,35.77l-.18-.18h4.6l33.13,0h.07l0,0,6.49,6.5-.27.11V63.71h6.09l-.14.15c0-10.9.06-19.82.08-26,0-3.11,0-5.53,0-7.19,0-.82,0-1.45,0-1.89S94.76,28.1,94.76,28.1Z"/><path class="cls-7" d="M56.2,39c0-.1,6-.18,13.48-.18s13.48.08,13.48.18-6,.18-13.48.18S56.2,39.11,56.2,39Z"/><path class="cls-7" d="M56.2,44.12c0-.1,6-.18,13.48-.18s13.48.08,13.48.18-6,.18-13.48.18S56.2,44.22,56.2,44.12Z"/><path class="cls-7" d="M56.2,49.23c0-.1,6-.18,13.48-.18s13.48.08,13.48.18-6,.18-13.48.18S56.2,49.33,56.2,49.23Z"/><polygon class="cls-2" points="151.47 0.3 116.81 0.3 116.81 34.96 120.13 34.96 120.13 40.12 125.29 34.96 151.47 34.96 151.47 0.3"/><path class="cls-7" d="M151.47.3s0,.21,0,.62,0,1,0,1.83c0,1.63,0,4,0,7,0,6.08.05,14.76.08,25.21v.15h-.15l-26.18,0,.12-.05-5.16,5.17-.31.3V35l.18.18h-3.49V35c0-12.73,0-24.58,0-34.66V.15h.15L142,.23l7,0h1.84l.62,0-.65,0L149,.34l-7,0-25.1.08L117,.3c0,10.08,0,21.93,0,34.66l-.18-.18h3.5v5.34L120,40l5.16-5.16,0,0h.08l26.18,0-.16.16c0-10.41.06-19,.08-25.11,0-3,0-5.4,0-7,0-.8,0-1.42,0-1.86S151.47.3,151.47.3Z"/><path class="cls-6" d="M136,17.63a5.23,5.23,0,0,0,3.12-4.85,4.93,4.93,0,1,0-9.83,0,5.23,5.23,0,0,0,3.14,4.89c-7.57,1.14-7.23,9.36-7.23,9.36l17.89.08S143.49,18.76,136,17.63Z"/><polygon class="cls-2" points="226.16 46.45 260.81 46.45 260.81 81.1 257.5 81.1 257.5 86.26 252.34 81.1 226.16 81.1 226.16 46.45"/><path class="cls-7" d="M226.16,46.45s0,.22,0,.65,0,1,0,1.86c0,1.63,0,4,0,7,0,6.06.05,14.7.08,25.11l-.15-.15,26.18,0h.07l.05.06,5.17,5.16-.31.12V80.92h3.49l-.18.18c0-12.72,0-24.57,0-34.65l.15.15-25.1-.08-7,0-1.86,0h-.65s.2,0,.62,0l1.83,0,7,0,25.19-.08H261v.16c0,10.08,0,21.93,0,34.65v.18H257.5l.18-.18v5.6l-.31-.31-5.16-5.16.13,0-26.18,0H226V81.1c0-10.45.06-19.12.08-25.2,0-3,0-5.38,0-7,0-.79,0-1.4,0-1.83S226.16,46.45,226.16,46.45Z"/><path class="cls-8" d="M251.91,61.68a8.43,8.43,0,1,0-15.69,4.26h0l0,0c.32.54.73.93,1.14,1.51L242.27,74a1.52,1.52,0,0,0,2.43,0l4.81-6.38A18.69,18.69,0,0,0,250.74,66v0h0A8.32,8.32,0,0,0,251.91,61.68Zm-8.42,3.67a3.71,3.71,0,1,1,3.7-3.71A3.71,3.71,0,0,1,243.49,65.35Z"/><path class="cls-2" d="M153.2,165.41H117.13a3.28,3.28,0,0,0-3.28,3.28V202a3.28,3.28,0,0,0,3.28,3.28h29.61l5.93,5.93v-5.93h.53a3.28,3.28,0,0,0,3.28-3.28V168.69A3.28,3.28,0,0,0,153.2,165.41Z"/><path class="cls-7" d="M153.2,165.41a2.49,2.49,0,0,1,.81.08,3.29,3.29,0,0,1,1.93,1.32,3.22,3.22,0,0,1,.58,1.64c0,.64,0,1.33,0,2.08,0,1.51,0,3.23,0,5.16,0,3.87,0,8.55,0,13.92,0,2.68,0,5.54,0,8.55,0,.75,0,1.51,0,2.28v1.17a4.49,4.49,0,0,1-.12,1.2,3.42,3.42,0,0,1-1.42,2,3.32,3.32,0,0,1-1.16.5,6.06,6.06,0,0,1-1.26.08l.16-.16v6.33l-.28-.28-5.94-5.93.13.05H117a3.42,3.42,0,0,1-2.07-.78,3.46,3.46,0,0,1-1.17-1.86,4.52,4.52,0,0,1-.1-1.09v-3.14c0-1.39,0-2.76,0-4.13,0-5.45,0-10.72,0-15.73v-10a3.44,3.44,0,0,1,2.51-3.31,6.15,6.15,0,0,1,1.69-.13h10.75l18,.06,4.88,0h1.27l.44,0-.44,0-1.27,0-4.88,0-18,.06H117.9a6.12,6.12,0,0,0-1.61.12,3.11,3.11,0,0,0-2.17,2.2,6.22,6.22,0,0,0-.11,1.69v1.77c0,2.38,0,4.82,0,7.33,0,5,0,10.28,0,15.73v6.22a11.59,11.59,0,0,0,.09,2.06,3.15,3.15,0,0,0,1,1.67A3.06,3.06,0,0,0,117,205h29.79l.05.05,5.92,5.93-.28.12c0-2.06,0-4.08,0-5.93v-.16h.16a5.15,5.15,0,0,0,1.19-.07,2.93,2.93,0,0,0,1.06-.45,3.13,3.13,0,0,0,1.3-1.81,4.21,4.21,0,0,0,.11-1.13v-3.45c0-3,0-5.87,0-8.55,0-5.37,0-10.05,0-13.92,0-1.93,0-3.65,0-5.16,0-.74,0-1.45,0-2.07a3.21,3.21,0,0,0-.54-1.6,3.3,3.3,0,0,0-1.87-1.32A6.68,6.68,0,0,0,153.2,165.41Z"/><rect class="cls-6" x="120.93" y="173.39" width="29.02" height="24.43" rx="5.32"/><path class="cls-2" d="M133.53,191a1.13,1.13,0,0,1-1.69-1v-8.78a1.12,1.12,0,0,1,1.69-1l3.8,2.19,3.81,2.2a1.13,1.13,0,0,1,0,2l-3.81,2.19Z"/><circle class="cls-2" cx="198.22" cy="24.85" r="24.71" transform="translate(7.86 85.45) rotate(-24.8)"/><path class="cls-7" d="M222.92,24.85s0-.13,0-.4l-.07-1.17c0-.26,0-.54-.05-.86s-.11-.66-.16-1a17.51,17.51,0,0,0-.52-2.55,23.34,23.34,0,0,0-2.74-6.55A24.68,24.68,0,0,0,202.75.73a22.62,22.62,0,0,0-3.1-.35c-.53,0-1.07-.07-1.61-.07L196.42.4c-.27,0-.55,0-.82,0l-.82.13c-.54.09-1.1.15-1.65.27a24.79,24.79,0,0,0-3.27,1,25,25,0,0,0-3.2,1.4c-.52.28-1,.61-1.53.92a12.18,12.18,0,0,0-1.48,1,26.9,26.9,0,0,0-2.78,2.36,28.79,28.79,0,0,0-2.41,2.85,23.66,23.66,0,0,0-3.5,6.75,26.36,26.36,0,0,0-1.27,7.74A26.36,26.36,0,0,0,175,32.59l.66,1.82c.28.58.56,1.15.83,1.73a6.85,6.85,0,0,0,.46.84l.5.81.49.81.56.75a26.37,26.37,0,0,0,2.41,2.84,25.81,25.81,0,0,0,2.78,2.37,12.18,12.18,0,0,0,1.48,1c.51.31,1,.63,1.53.91a25.11,25.11,0,0,0,3.2,1.41,24.79,24.79,0,0,0,3.27,1c.55.12,1.11.18,1.65.27l.82.13c.27,0,.55,0,.82.05l1.63.08c.53,0,1.07,0,1.6-.06a21,21,0,0,0,3.1-.36,24.3,24.3,0,0,0,10.34-4.58,24.53,24.53,0,0,0,6.26-7,23.58,23.58,0,0,0,2.73-6.55,17.51,17.51,0,0,0,.52-2.55c.05-.37.12-.71.16-1s0-.6.05-.86c0-.51.06-.9.07-1.18s0-.4,0-.4,0,.14,0,.4l0,1.18q0,.39,0,.87c0,.32-.1.66-.15,1a15.9,15.9,0,0,1-.48,2.56,23.55,23.55,0,0,1-2.7,6.62,24.9,24.9,0,0,1-16.71,11.75,23.17,23.17,0,0,1-3.15.37c-.53,0-1.07.07-1.62.07l-1.64-.08c-.28,0-.56,0-.83-.06l-.83-.12c-.56-.09-1.12-.15-1.68-.27a25.39,25.39,0,0,1-3.31-1,24.44,24.44,0,0,1-3.25-1.42c-.53-.28-1-.61-1.55-.92a12.58,12.58,0,0,1-1.51-1,28.87,28.87,0,0,1-2.82-2.4,27.08,27.08,0,0,1-2.44-2.88l-.57-.77L177.1,38l-.5-.83a6.3,6.3,0,0,1-.46-.85l-.85-1.75c-.22-.61-.45-1.23-.67-1.85a26.4,26.4,0,0,1-1.29-7.85A26.45,26.45,0,0,1,174.62,17a24,24,0,0,1,3.56-6.85,28.23,28.23,0,0,1,2.44-2.89,27.74,27.74,0,0,1,2.83-2.39,11.73,11.73,0,0,1,1.5-1c.52-.31,1-.64,1.55-.93a27.35,27.35,0,0,1,3.25-1.42,25.33,25.33,0,0,1,3.31-1c.56-.12,1.12-.18,1.68-.27l.83-.13c.27,0,.55,0,.83,0L198,0c.55,0,1.09.05,1.62.07a22.84,22.84,0,0,1,3.14.37,24.8,24.8,0,0,1,16.72,11.75,23.5,23.5,0,0,1,2.7,6.61,17.42,17.42,0,0,1,.48,2.57c.05.38.12.72.15,1s0,.61,0,.87l0,1.17A4,4,0,0,1,222.92,24.85Z"/><path class="cls-7" d="M193.7,34.41a4.26,4.26,0,0,0,2.24-.61,3.78,3.78,0,0,0,.46-2.37V23.55a5,5,0,0,0-.15-1.49,1,1,0,0,0-1-.68,2.19,2.19,0,0,0-.36,0c-.11,0-.45.11-1,.27v-.51l.71-.23c1.93-.63,3.28-1.11,4-1.43a2.08,2.08,0,0,1,.59-.19.93.93,0,0,1,0,.24V31.43a3.87,3.87,0,0,0,.45,2.36,3.39,3.39,0,0,0,2.06.62v.46h-8Zm2.63-22.11a1.72,1.72,0,0,1,2.94,1.22,1.73,1.73,0,0,1-2.94,1.21,1.65,1.65,0,0,1-.49-1.21A1.69,1.69,0,0,1,196.33,12.3Z"/><path class="cls-2" d="M181.59,52.18a3.89,3.89,0,1,1-3.89-3.89A3.89,3.89,0,0,1,181.59,52.18Z"/><path class="cls-7" d="M181.59,52.18s0-.35-.19-.94A3.87,3.87,0,0,0,180,49.19a3.73,3.73,0,1,0,0,6,3.87,3.87,0,0,0,1.43-2c.16-.59.15-.94.19-.93a.67.67,0,0,1,0,.25,2.65,2.65,0,0,1-.08.71,3.88,3.88,0,0,1-1.4,2.23,4,4,0,0,1-5.7-.79,4,4,0,0,1,0-4.81,4,4,0,0,1,1.89-1.4,4,4,0,0,1,3.81.61,3.88,3.88,0,0,1,1.4,2.23,2.68,2.68,0,0,1,.08.72A.72.72,0,0,1,181.59,52.18Z"/></svg>