<?xml version="1.0" encoding="utf-8"?>
<!-- Generator: Adobe Illustrator 16.0.0, SVG Export Plug-In . SVG Version: 6.00 Build 0)  -->
<!DOCTYPE svg PUBLIC "-//W3C//DTD SVG 1.1//EN" "http://www.w3.org/Graphics/SVG/1.1/DTD/svg11.dtd">
<svg version="1.1" id="Layer_1" xmlns="http://www.w3.org/2000/svg" xmlns:xlink="http://www.w3.org/1999/xlink" x="0px" y="0px"
	 width="200px" height="200px" viewBox="0 0 200 200" enable-background="new 0 0 200 200" xml:space="preserve">
<g>
	<g>
		<path fill="#242D3C" d="M159.068,200H7.071V0h117.622l34.375,34.375V200z M15.071,192h135.997V37.688L121.381,8H15.071V192z"/>
		<polygon fill="#242D3C" points="155.065,40.028 119.037,40.028 119.037,4 127.037,4 127.037,32.028 155.065,32.028 		"/>
		<rect x="30.238" y="32.028" fill="#242D3C" width="52.83" height="8"/>
		<rect x="30.238" y="48.028" fill="#242D3C" width="105.658" height="8"/>
		<rect x="30.238" y="64.028" fill="#242D3C" width="105.658" height="8"/>
		<rect x="30.238" y="80.028" fill="#242D3C" width="92.799" height="8"/>
	</g>
	<g>
		
			<rect x="82.189" y="104.004" transform="matrix(0.7071 -0.7071 0.7071 0.7071 -48.5874 130.3901)" fill="#43D3E8" width="101.823" height="39.682"/>
		<g>
			<path fill="#242D3C" d="M111.131,177.875c-1.023,0-2.047-0.391-2.828-1.172l-28.06-28.06c-1.563-1.561-1.563-4.094,0-5.656
				l71.996-72.003c1.5-1.5,4.156-1.5,5.656,0l28.063,28.063c0.75,0.75,1.172,1.767,1.172,2.828c0,1.061-0.422,2.078-1.172,2.828
				l-72,72C113.178,177.484,112.154,177.875,111.131,177.875z M88.728,145.815l22.403,22.403l66.344-66.344l-22.407-22.406
				L88.728,145.815z"/>
			
				<rect x="129.098" y="72.93" transform="matrix(0.7071 0.7071 -0.7071 0.7071 126.5532 -57.8419)" fill="#242D3C" width="7.999" height="101.824"/>
			<path fill="#242D3C" d="M183.13,107.533l-33.716-33.721l2.828-2.828c4.503-4.503,10.489-6.981,16.857-6.981
				c6.369,0,12.355,2.479,16.858,6.981c9.294,9.297,9.294,24.422,0.001,33.719L183.13,107.533z M161.086,74.172l21.682,21.685
				c3.553-6.07,2.73-14.016-2.468-19.216c-2.99-2.991-6.969-4.638-11.2-4.638C166.237,72.003,163.489,72.756,161.086,74.172z"/>
			<polygon fill="#242D3C" points="111.13,177.875 79.069,177.875 79.069,145.815 87.069,145.815 87.069,169.875 111.13,169.875 			
				"/>
		</g>
	</g>
</g>
</svg>
