<?xml version="1.0" encoding="utf-8"?>
<!-- Generator: Adobe Illustrator 25.2.1, SVG Export Plug-In . SVG Version: 6.00 Build 0)  -->
<svg version="1.1" id="Layer_1" xmlns="http://www.w3.org/2000/svg" xmlns:xlink="http://www.w3.org/1999/xlink" x="0px" y="0px"
	 viewBox="0 0 178.5 178.1" style="enable-background:new 0 0 178.5 178.1;" xml:space="preserve">
<style type="text/css">
	.st0{fill:#59C8DE;}
	.st1{fill:#252E3C;}
	.st2{fill:#F26337;}
</style>
<g>
	<g>
		<path class="st0" d="M66.2,57c-3.7-3.7-8.6-5.6-13.4-5.6L37.5,66.7L22.3,51.5c-4.9,0-9.7,1.9-13.4,5.6c-3.7,3.7-5.6,8.6-5.6,13.4
			v34.2h15.2v13.3h38v-13.3h15.2V70.5C71.7,65.6,69.9,60.7,66.2,57z"/>
		<path class="st1" d="M37.5,42.2c-11.6,0-21.1-9.5-21.1-21.1S25.9,0,37.5,0c11.6,0,21.1,9.5,21.1,21.1S49.2,42.2,37.5,42.2z
			 M37.5,6.7c-7.9,0-14.4,6.4-14.4,14.4c0,7.9,6.4,14.4,14.4,14.4c7.9,0,14.4-6.4,14.4-14.4C51.9,13.2,45.5,6.7,37.5,6.7z"/>
		<rect x="34.2" y="124.9" class="st1" width="6.7" height="53.2"/>
		<rect x="15.2" y="104.6" class="st1" width="6.7" height="73.4"/>
		<rect x="53.2" y="104.6" class="st1" width="6.7" height="73.4"/>
		<path class="st1" d="M75.1,118.1H56.5v-6.7h11.8v-41c0-4.2-1.6-8.1-4.6-11.1c-3-3-6.9-4.6-11.1-4.6H22.3c-4.2,0-8.1,1.6-11.1,4.6
			c-3,3-4.6,6.9-4.6,11.1v41h11.8v6.7H0V70.5c0-6,2.3-11.6,6.5-15.8c4.2-4.2,9.8-6.5,15.8-6.5h30.4c6,0,11.6,2.3,15.8,6.5
			c4.2,4.2,6.5,9.8,6.5,15.8V118.1z"/>
		<g>
			<rect x="34.2" y="73" class="st1" width="6.7" height="6.7"/>
			<rect x="34.2" y="86.4" class="st1" width="6.7" height="6.7"/>
		</g>
	</g>
	<g>
		<g>
			<polygon class="st1" points="178.5,178.1 71.7,178.1 71.7,171.4 171.8,171.4 171.8,30.2 148.3,6.8 71.7,6.8 71.7,0 151.1,0 
				178.5,27.4 			"/>
			<polygon class="st1" points="175.1,32.1 146.4,32.1 146.4,3.4 153.1,3.4 153.1,25.4 175.1,25.4 			"/>
		</g>
		<g>
			<g>
				<rect x="83.1" y="139.7" class="st2" width="20.2" height="20.2"/>
				<rect x="110" y="139.7" class="st1" width="26.9" height="6.7"/>
				<rect x="110" y="153.1" class="st1" width="53.8" height="6.7"/>
			</g>
			<g>
				<rect x="83.1" y="112.8" class="st2" width="20.2" height="20.2"/>
				<rect x="110" y="112.8" class="st1" width="26.9" height="6.7"/>
				<rect x="110" y="126.2" class="st1" width="53.8" height="6.7"/>
			</g>
			<g>
				<rect x="83.1" y="85.9" class="st2" width="20.2" height="20.2"/>
				<rect x="89.8" y="92.6" class="st1" width="6.7" height="6.7"/>
				<rect x="110" y="85.9" class="st1" width="26.9" height="6.7"/>
				<rect x="110" y="99.3" class="st1" width="53.8" height="6.7"/>
			</g>
			<g>
				<rect x="83.1" y="59" class="st2" width="20.2" height="20.2"/>
				<rect x="89.8" y="65.7" class="st1" width="6.7" height="6.7"/>
				<rect x="110" y="59" class="st1" width="26.9" height="6.7"/>
				<rect x="110" y="72.5" class="st1" width="53.8" height="6.7"/>
			</g>
			<g>
				<rect x="83.1" y="32.1" class="st2" width="20.2" height="20.2"/>
				<rect x="89.8" y="38.9" class="st1" width="6.7" height="6.7"/>
				<rect x="110" y="32.1" class="st1" width="26.9" height="6.7"/>
				<rect x="110" y="45.6" class="st1" width="53.8" height="6.7"/>
			</g>
		</g>
		<g>
			<rect x="83.1" y="18.7" class="st1" width="6.7" height="6.7"/>
			<rect x="96.5" y="18.7" class="st1" width="6.7" height="6.7"/>
			<rect x="110" y="18.7" class="st1" width="6.7" height="6.7"/>
		</g>
	</g>
</g>
</svg>
