<?xml version="1.0" encoding="utf-8"?>
<!-- Generator: Adobe Illustrator 16.0.0, SVG Export Plug-In . SVG Version: 6.00 Build 0)  -->
<!DOCTYPE svg PUBLIC "-//W3C//DTD SVG 1.1//EN" "http://www.w3.org/Graphics/SVG/1.1/DTD/svg11.dtd">
<svg version="1.1" id="Layer_1" xmlns="http://www.w3.org/2000/svg" xmlns:xlink="http://www.w3.org/1999/xlink" x="0px" y="0px"
	 width="48px" height="48px" viewBox="0 0 48 48" enable-background="new 0 0 48 48" xml:space="preserve">
<g>
	<g>
		<g>
			<polyline fill="none" stroke="#403E3E" stroke-width="2" stroke-miterlimit="10" points="36,1 36,7 42,7 			"/>
		</g>
		<polyline fill="none" stroke="#403E3E" stroke-width="2" stroke-miterlimit="10" points="42,28 42,7 36,1 6,1 6,47 21,47 		"/>
	</g>
	<g>
		<path fill="none" stroke="#403E3E" stroke-width="2" stroke-miterlimit="10" d="M38,30v-8c0-0.768-0.293-1.535-0.879-2.121
			S35.768,19,35,19h-4c-0.768,0-1.535,0.293-2.121,0.879S28,21.232,28,22v8"/>
		<path fill="#43D3E8" d="M23,30v18h20V30H23z M33,39c-1.104,0-2-0.896-2-2s0.896-2,2-2s2,0.896,2,2S34.104,39,33,39z"/>
		<g>
			<circle fill="none" stroke="#403E3E" stroke-width="2" stroke-miterlimit="10" cx="33" cy="37" r="2"/>
			<line fill="none" stroke="#403E3E" stroke-width="2" stroke-miterlimit="10" x1="33" y1="39" x2="33" y2="42"/>
		</g>
	</g>
	<g>
		<line fill="none" stroke="#403E3E" stroke-width="2" stroke-miterlimit="10" x1="11" y1="7" x2="13" y2="7"/>
		<line fill="none" stroke="#403E3E" stroke-width="2" stroke-miterlimit="10" x1="15" y1="7" x2="17" y2="7"/>
		<line fill="none" stroke="#403E3E" stroke-width="2" stroke-miterlimit="10" x1="19" y1="7" x2="21" y2="7"/>
	</g>
	<g>
		<line fill="none" stroke="#403E3E" stroke-width="2" stroke-miterlimit="10" x1="11" y1="11" x2="37" y2="11"/>
		<line fill="none" stroke="#403E3E" stroke-width="2" stroke-miterlimit="10" x1="11" y1="15" x2="37" y2="15"/>
		<line fill="none" stroke="#403E3E" stroke-width="2" stroke-miterlimit="10" x1="11" y1="19" x2="25" y2="19"/>
		<line fill="none" stroke="#403E3E" stroke-width="2" stroke-miterlimit="10" x1="11" y1="23" x2="25" y2="23"/>
		<line fill="none" stroke="#403E3E" stroke-width="2" stroke-miterlimit="10" x1="11" y1="27" x2="25" y2="27"/>
		<line fill="none" stroke="#403E3E" stroke-width="2" stroke-miterlimit="10" x1="11" y1="31" x2="21" y2="31"/>
		<line fill="none" stroke="#403E3E" stroke-width="2" stroke-miterlimit="10" x1="11" y1="35" x2="21" y2="35"/>
		<line fill="none" stroke="#403E3E" stroke-width="2" stroke-miterlimit="10" x1="11" y1="39" x2="21" y2="39"/>
	</g>
</g>
</svg>
