<?xml version="1.0" encoding="utf-8"?>
<!-- Generator: Adobe Illustrator 16.0.0, SVG Export Plug-In . SVG Version: 6.00 Build 0)  -->
<!DOCTYPE svg PUBLIC "-//W3C//DTD SVG 1.1//EN" "http://www.w3.org/Graphics/SVG/1.1/DTD/svg11.dtd">
<svg version="1.1" id="Layer_1" xmlns="http://www.w3.org/2000/svg" xmlns:xlink="http://www.w3.org/1999/xlink" x="0px" y="0px"
	 width="200px" height="200px" viewBox="0 0 200 200" enable-background="new 0 0 200 200" xml:space="preserve">
<g>
	<g>
		<circle fill="#43D3E8" cx="100" cy="100" r="41.598"/>
		<g>
			<path fill="#242D3C" d="M102.935,121.455h-5.847c-3.379,0-6.573-1.313-8.988-3.701c-2.416-2.453-3.725-5.641-3.725-9.017h8
				c0,1.263,0.494,2.457,1.387,3.363c0.87,0.859,2.065,1.355,3.326,1.355h5.847c1.235,0,2.47-0.515,3.386-1.408
				c0.823-0.828,1.298-2.017,1.298-3.311c0-1.305-0.47-2.492-1.325-3.342c-0.895-0.877-2.126-1.393-3.358-1.393h-5.847
				c-3.382,0-6.576-1.318-8.992-3.714c-2.408-2.423-3.722-5.62-3.722-9.023c0-3.356,1.306-6.541,3.678-8.965
				c2.462-2.434,5.654-3.748,9.035-3.748h5.847c3.308,0,6.579,1.344,8.976,3.684c2.409,2.438,3.708,5.625,3.708,9.029h-8
				c0-0.909-0.232-2.229-1.349-3.358c-0.865-0.844-2.1-1.356-3.335-1.356h-5.847c-1.262,0-2.458,0.494-3.364,1.391
				c-0.853,0.872-1.35,2.07-1.35,3.323c0,1.276,0.489,2.47,1.375,3.364c0.888,0.878,2.082,1.374,3.339,1.374h5.847
				c3.308,0,6.579,1.348,8.979,3.698c2.397,2.386,3.705,5.587,3.705,9.036c0,3.423-1.303,6.616-3.667,8.993
				C109.512,120.113,106.24,121.455,102.935,121.455z"/>
			<rect x="96.005" y="73.601" fill="#242D3C" width="8" height="8.951"/>
			<rect x="96.005" y="117.455" fill="#242D3C" width="8" height="8.943"/>
		</g>
	</g>
	<g>
		<path fill="#242D3C" d="M167.881,173.556l-25.611-25.619l2.831-2.826c12.058-12.045,18.698-28.063,18.698-45.104v-4h36.196v4
			c0,26.716-10.401,51.832-29.284,70.72L167.881,173.556z M153.509,147.865l14.312,14.316c14.721-16.03,23.168-36.427,24.091-58.176
			h-20.223C170.798,120.354,164.443,135.68,153.509,147.865z"/>
		<path fill="#242D3C" d="M71.901,42.601L58.058,9.181l3.676-1.541C73.843,2.572,86.71,0,99.977,0h4v36.208l-3.997,0.003
			c-8.418,0.006-16.621,1.641-24.383,4.857L71.901,42.601z M68.531,13.562l7.74,18.687c6.362-2.236,12.963-3.55,19.705-3.925V8.084
			C86.527,8.489,77.328,10.325,68.531,13.562z"/>
		<path fill="#43D3E8" d="M160.583,80.006h37.378c-7.977-39.126-38.853-70.022-77.987-77.99v37.416
			C139.102,45.754,154.251,60.888,160.583,80.006z"/>
		<path fill="#F96232" d="M128.69,156.986c-8.791,4.443-18.56,6.81-28.695,6.81c-35.178,0-63.797-28.621-63.797-63.799
			c0-18.949,8.318-36.402,22.155-48.296L44.036,17.135C16.793,35.447,0.005,66.217,0.005,100.019
			C0.005,155.149,44.851,200,99.977,200c19.932,0,38.966-5.781,55.189-16.533L128.69,156.986z"/>
	</g>
</g>
</svg>
