<?xml version="1.0" encoding="utf-8"?>
<!-- Generator: Adobe Illustrator 25.2.1, SVG Export Plug-In . SVG Version: 6.00 Build 0)  -->
<svg version="1.1" id="Layer_1" xmlns="http://www.w3.org/2000/svg" xmlns:xlink="http://www.w3.org/1999/xlink" x="0px" y="0px"
	 viewBox="0 0 167.3 180" style="enable-background:new 0 0 167.3 180;" xml:space="preserve">
<style type="text/css">
	.st0{fill:#252E3C;}
	.st1{fill:#59C8DE;}
</style>
<g>
	<g>
		<path class="st0" d="M136.8,180H0V0h105.9l30.9,30.9V180z M7.2,172.8h122.4V33.9L102.9,7.2H7.2V172.8z"/>
		<polygon class="st0" points="133.2,36 100.8,36 100.8,3.6 108,3.6 108,28.8 133.2,28.8 		"/>
		<rect x="20.9" y="28.8" class="st0" width="47.5" height="7.2"/>
		<rect x="20.9" y="43.2" class="st0" width="95.1" height="7.2"/>
		<rect x="20.9" y="57.6" class="st0" width="95.1" height="7.2"/>
		<rect x="20.9" y="72" class="st0" width="83.5" height="7.2"/>
	</g>
	<g>
		
			<rect x="67.6" y="93.6" transform="matrix(0.7071 -0.7071 0.7071 0.7071 -45.5923 112.8507)" class="st1" width="91.6" height="35.7"/>
		<g>
			<path class="st0" d="M93.7,160.1c-0.9,0-1.8-0.4-2.5-1.1l-25.3-25.3c-1.4-1.4-1.4-3.7,0-5.1l64.8-64.8c1.4-1.3,3.7-1.3,5.1,0
				L161,89.1c0.7,0.7,1.1,1.6,1.1,2.5s-0.4,1.9-1.1,2.5L96.2,159C95.5,159.7,94.6,160.1,93.7,160.1z M73.5,131.2l20.2,20.2
				l59.7-59.7l-20.2-20.2L73.5,131.2z"/>
			
				<rect x="67.6" y="107.9" transform="matrix(0.7071 -0.7071 0.7071 0.7071 -45.5914 112.8503)" class="st0" width="91.6" height="7.2"/>
			<path class="st0" d="M158.5,96.8l-30.3-30.3l2.5-2.5c4.1-4.1,9.4-6.3,15.2-6.3c5.7,0,11.1,2.2,15.2,6.3c8.4,8.4,8.4,22,0,30.3
				L158.5,96.8z M138.6,66.8l19.5,19.5c3.2-5.5,2.5-12.6-2.2-17.3c-2.7-2.7-6.3-4.2-10.1-4.2C143.3,64.8,140.8,65.5,138.6,66.8z"/>
			<polygon class="st0" points="93.7,160.1 64.8,160.1 64.8,131.2 72,131.2 72,152.9 93.7,152.9 			"/>
		</g>
	</g>
</g>
</svg>
