<?xml version="1.0" encoding="utf-8"?>
<!-- Generator: Adobe Illustrator 25.2.1, SVG Export Plug-In . SVG Version: 6.00 Build 0)  -->
<svg version="1.1" id="Layer_1" xmlns="http://www.w3.org/2000/svg" xmlns:xlink="http://www.w3.org/1999/xlink" x="0px" y="0px"
	 viewBox="0 0 162.5 187" style="enable-background:new 0 0 162.5 187;" xml:space="preserve">
<style type="text/css">
	.st0{fill:#F26337;}
	.st1{fill:#252E3C;}
</style>
<g>
	<g>
		<polygon class="st0" points="145.9,68.2 29.2,68.2 42.2,81.2 29.2,94.2 145.9,94.2 		"/>
		<g>
			<polygon class="st1" points="17.9,87.7 17.9,74.7 6.6,81.2 			"/>
			<rect x="42.2" y="77.9" class="st1" width="103.7" height="6.6"/>
			<polygon class="st1" points="27.5,97.1 0,81.2 27.5,65.3 30.8,71.1 13.3,81.2 30.8,91.4 			"/>
			<path class="st1" d="M145.9,97.6l-116.8,0c-1.3,0-2.6-0.8-3.1-2c-0.5-1.2-0.2-2.7,0.7-3.6l10.7-10.7L26.8,70.6
				c-0.9-0.9-1.2-2.4-0.7-3.6c0.5-1.2,1.7-2,3.1-2l0,0l116.8,0v6.6l-108.8,0l7.4,7.4c1.3,1.3,1.3,3.4,0,4.7l-7.4,7.4l108.8,0V97.6z"
				/>
			<path class="st1" d="M152.6,97.6h-10V64.9l10,0c2.7,0,5.2,1,7,2.9c1.9,1.9,2.9,4.4,2.9,7v12.8c0,2.7-1,5.2-2.9,7
				C157.7,96.5,155.2,97.6,152.6,97.6z M149.3,90.9h3.3c0.9,0,1.7-0.3,2.3-1c0.6-0.6,1-1.5,1-2.3V74.8c0-0.9-0.3-1.7-1-2.3
				c-0.6-0.6-1.5-1-2.3-1l-3.3,0V90.9z"/>
		</g>
	</g>
	<g>
		<polygon class="st1" points="133,187 108.4,162.4 25.9,162.4 25.9,94.2 32.5,94.2 32.5,155.8 111.2,155.8 126.4,171 126.4,155.8 
			142.6,155.8 142.6,30.7 118.6,6.6 32.5,6.6 32.5,68.2 25.9,68.2 25.9,0 121.3,0 149.3,27.9 149.3,29.3 149.3,162.4 133,162.4 		
			"/>
		<polygon class="st1" points="145.9,32.6 116.7,32.6 116.7,3.3 123.3,3.3 123.3,26 145.9,26 		"/>
	</g>
	<rect x="45.4" y="26" class="st1" width="41.5" height="6.6"/>
	<g>
		<rect x="45.4" y="103.9" class="st1" width="84.3" height="6.6"/>
		<rect x="45.4" y="116.9" class="st1" width="84.3" height="6.6"/>
		<rect x="45.4" y="129.8" class="st1" width="84.3" height="6.6"/>
	</g>
	<g>
		<rect x="45.4" y="38.9" class="st1" width="84.3" height="6.6"/>
		<rect x="45.4" y="51.9" class="st1" width="84.3" height="6.6"/>
	</g>
</g>
</svg>
