<?xml version="1.0" encoding="utf-8"?>
<!-- Generator: Adobe Illustrator 16.0.0, SVG Export Plug-In . SVG Version: 6.00 Build 0)  -->
<!DOCTYPE svg PUBLIC "-//W3C//DTD SVG 1.1//EN" "http://www.w3.org/Graphics/SVG/1.1/DTD/svg11.dtd">
<svg version="1.1" id="Layer_1" xmlns="http://www.w3.org/2000/svg" xmlns:xlink="http://www.w3.org/1999/xlink" x="0px" y="0px"
	 width="200px" height="200px" viewBox="0 0 200 200" enable-background="new 0 0 200 200" xml:space="preserve">
<g>
	<g>
		<rect x="21.933" y="48.327" fill="#43D3E8" width="156.134" height="20.818"/>
		<rect x="21.933" y="113.755" fill="#43D3E8" width="156.134" height="20.817"/>
		<rect x="21.933" y="179.183" fill="#43D3E8" width="156.134" height="20.817"/>
		<rect x="21.933" y="48.327" fill="#242D3C" width="7.435" height="20.818"/>
		<rect x="174.35" y="48.327" fill="#242D3C" width="7.435" height="20.818"/>
		<rect x="21.933" y="113.755" fill="#242D3C" width="7.435" height="20.817"/>
		<rect x="174.35" y="113.755" fill="#242D3C" width="7.435" height="20.817"/>
		<rect x="21.933" y="179.183" fill="#242D3C" width="7.435" height="20.817"/>
		<rect x="174.35" y="179.183" fill="#242D3C" width="7.435" height="20.817"/>
	</g>
	<g>
		<g>
			<rect x="81.413" y="14.87" fill="#242D3C" width="7.435" height="7.435"/>
			<g>
				<rect x="21.933" y="14.87" fill="#242D3C" width="7.435" height="7.435"/>
				<rect x="36.803" y="14.87" fill="#242D3C" width="7.435" height="7.435"/>
				<rect x="51.673" y="14.87" fill="#242D3C" width="7.435" height="7.435"/>
				<rect x="66.543" y="14.87" fill="#242D3C" width="7.435" height="7.435"/>
			</g>
			<g>
				<rect x="21.933" y="29.74" fill="#242D3C" width="7.435" height="7.435"/>
				<rect x="36.803" y="29.74" fill="#242D3C" width="7.435" height="7.435"/>
				<rect x="51.673" y="29.74" fill="#242D3C" width="7.435" height="7.435"/>
				<rect x="66.543" y="29.74" fill="#242D3C" width="7.435" height="7.435"/>
				<rect x="81.413" y="29.74" fill="#242D3C" width="7.435" height="7.435"/>
			</g>
		</g>
		<path fill="#242D3C" d="M186.245,52.044H13.755c-3.69,0-6.692-3.001-6.692-6.691V6.691C7.063,3.001,10.065,0,13.755,0h172.49
			c3.69,0,6.691,3.001,6.691,6.691v38.662C192.937,49.043,189.936,52.044,186.245,52.044z M14.498,44.61h171.004V7.435H14.498V44.61
			z"/>
		<circle fill="#F96232" cx="169.145" cy="26.022" r="8.922"/>
		<circle fill="#F96232" cx="143.866" cy="26.022" r="8.922"/>
	</g>
	<g>
		<g>
			<g>
				<rect x="21.933" y="80.297" fill="#242D3C" width="7.435" height="7.435"/>
				<rect x="36.803" y="80.297" fill="#242D3C" width="7.435" height="7.435"/>
				<rect x="51.673" y="80.297" fill="#242D3C" width="7.435" height="7.435"/>
				<rect x="66.543" y="80.297" fill="#242D3C" width="7.435" height="7.435"/>
			</g>
			<g>
				<rect x="21.933" y="95.167" fill="#242D3C" width="7.435" height="7.435"/>
				<rect x="36.803" y="95.167" fill="#242D3C" width="7.435" height="7.435"/>
				<rect x="51.673" y="95.167" fill="#242D3C" width="7.435" height="7.435"/>
				<rect x="66.543" y="95.167" fill="#242D3C" width="7.435" height="7.435"/>
				<rect x="81.413" y="80.297" fill="#242D3C" width="7.435" height="7.435"/>
				<rect x="81.413" y="95.167" fill="#242D3C" width="7.435" height="7.435"/>
			</g>
		</g>
		<path fill="#242D3C" d="M186.245,117.472H13.755c-3.69,0-6.692-3.001-6.692-6.691V72.119c0-3.69,3.002-6.691,6.692-6.691h172.49
			c3.69,0,6.691,3.001,6.691,6.691v38.661C192.937,114.471,189.936,117.472,186.245,117.472z M14.498,110.037h171.004V72.862H14.498
			V110.037z"/>
		<circle fill="#F96232" cx="169.145" cy="91.45" r="8.922"/>
		<circle fill="#F96232" cx="143.866" cy="91.45" r="8.922"/>
	</g>
	<g>
		<g>
			<g>
				<rect x="21.933" y="145.725" fill="#242D3C" width="7.435" height="7.436"/>
				<rect x="36.803" y="145.725" fill="#242D3C" width="7.435" height="7.436"/>
				<rect x="51.673" y="145.725" fill="#242D3C" width="7.435" height="7.436"/>
				<rect x="66.543" y="145.725" fill="#242D3C" width="7.435" height="7.436"/>
			</g>
			<g>
				<rect x="21.933" y="160.595" fill="#242D3C" width="7.435" height="7.435"/>
				<rect x="36.803" y="160.595" fill="#242D3C" width="7.435" height="7.435"/>
				<rect x="51.673" y="160.595" fill="#242D3C" width="7.435" height="7.435"/>
				<rect x="66.543" y="160.595" fill="#242D3C" width="7.435" height="7.435"/>
				<rect x="81.413" y="145.725" fill="#242D3C" width="7.435" height="7.436"/>
				<rect x="81.413" y="160.595" fill="#242D3C" width="7.435" height="7.435"/>
			</g>
		</g>
		<path fill="#242D3C" d="M186.245,182.899H13.755c-3.69,0-6.692-3.001-6.692-6.691v-38.661c0-3.69,3.002-6.691,6.692-6.691h172.49
			c3.69,0,6.691,3.001,6.691,6.691v38.661C192.937,179.898,189.936,182.899,186.245,182.899z M14.498,175.465h171.004V138.29H14.498
			V175.465z"/>
		<circle fill="#F96232" cx="169.145" cy="156.877" r="8.922"/>
		<circle fill="#F96232" cx="143.866" cy="156.877" r="8.922"/>
	</g>
</g>
</svg>
