<?xml version="1.0" encoding="utf-8"?>
<!-- Generator: Adobe Illustrator 16.0.0, SVG Export Plug-In . SVG Version: 6.00 Build 0)  -->
<!DOCTYPE svg PUBLIC "-//W3C//DTD SVG 1.1//EN" "http://www.w3.org/Graphics/SVG/1.1/DTD/svg11.dtd">
<svg version="1.1" id="Layer_1" xmlns="http://www.w3.org/2000/svg" xmlns:xlink="http://www.w3.org/1999/xlink" x="0px" y="0px"
	 width="200px" height="200px" viewBox="0 0 200 200" enable-background="new 0 0 200 200" xml:space="preserve">
<g>
	<g>
		<rect x="47.003" y="3.704" fill="#43D3E8" width="72.705" height="118.543"/>
		<g>
			<rect x="47.003" y="21.901" fill="#FFFFFF" width="72.705" height="7.408"/>
			<rect x="79.65" y="3.704" fill="#FFFFFF" width="7.408" height="43.791"/>
		</g>
	</g>
	<g>
		<path fill="#242D3C" d="M137.882,164.44H28.826v-7.408h109.056c4.158,0,8.064-1.615,10.995-4.55
			c2.938-2.93,4.552-6.833,4.552-10.995c0-4.144-1.614-8.046-4.552-10.985c-2.928-2.936-6.834-4.552-10.995-4.552H28.826v-7.407
			h109.056c6.143,0,11.91,2.389,16.238,6.727c4.332,4.337,6.716,10.098,6.716,16.218c0,6.143-2.387,11.91-6.722,16.234
			C149.786,162.053,144.019,164.44,137.882,164.44z"/>
		<path fill="#242D3C" d="M140.752,125.95H25.956L4.795,43.792h149.463L165.538,0h29.667v7.407h-23.926L140.752,125.95z
			 M31.696,118.543h103.315l17.341-67.344h-138L31.696,118.543z"/>
		<path fill="#242D3C" d="M39.293,200c-7.814,0-14.171-6.357-14.171-14.173c0-7.813,6.357-14.168,14.171-14.168
			c7.813,0,14.17,6.355,14.17,14.168C53.463,193.643,47.105,200,39.293,200z M39.293,179.066c-3.729,0-6.763,3.033-6.763,6.761
			c0,3.73,3.034,6.766,6.763,6.766c3.73,0,6.762-3.035,6.762-6.766C46.055,182.1,43.023,179.066,39.293,179.066z"/>
		<path fill="#242D3C" d="M146.678,200c-7.82,0-14.184-6.357-14.184-14.173c0-7.813,6.363-14.168,14.184-14.168
			c7.807,0,14.158,6.355,14.158,14.168C160.836,193.643,154.484,200,146.678,200z M146.678,179.066
			c-3.735,0-6.776,3.033-6.776,6.761c0,3.73,3.041,6.766,6.776,6.766c3.722,0,6.751-3.035,6.751-6.766
			C153.429,182.1,150.399,179.066,146.678,179.066z"/>
		<g>
			<rect x="25.122" y="47.496" fill="#242D3C" width="7.408" height="74.751"/>
			<rect x="43.299" y="47.496" fill="#242D3C" width="7.407" height="74.751"/>
			<rect x="61.478" y="47.496" fill="#242D3C" width="7.408" height="74.751"/>
			<rect x="79.649" y="47.494" fill="#242D3C" width="7.408" height="74.753"/>
			<rect x="97.832" y="47.496" fill="#242D3C" width="7.408" height="74.751"/>
			<rect x="116.004" y="47.496" fill="#242D3C" width="7.407" height="74.751"/>
			<rect x="134.178" y="47.496" fill="#242D3C" width="7.408" height="74.751"/>
		</g>
		<g>
			<rect x="28.826" y="118.543" fill="#242D3C" width="109.056" height="7.407"/>
			<rect x="24.014" y="99.853" fill="#242D3C" width="118.685" height="7.407"/>
			<rect x="19.202" y="81.163" fill="#242D3C" width="128.304" height="7.408"/>
			<rect x="14.389" y="62.482" fill="#242D3C" width="137.932" height="7.408"/>
			<rect x="9.574" y="43.792" fill="#242D3C" width="147.559" height="7.407"/>
		</g>
	</g>
</g>
</svg>
