<?xml version="1.0" encoding="utf-8"?>
<!-- Generator: Adobe Illustrator 26.0.3, SVG Export Plug-In . SVG Version: 6.00 Build 0)  -->
<svg version="1.1" id="Layer_1" xmlns="http://www.w3.org/2000/svg" xmlns:xlink="http://www.w3.org/1999/xlink" x="0px" y="0px"
	 viewBox="0 0 439 454.98" style="enable-background:new 0 0 439 454.98;" xml:space="preserve">
<style type="text/css">
	.st0{fill:#C3E5DF;}
	.st1{fill:#F4B0CF;}
	.st2{fill:#A9D8EA;}
	.st3{fill:#F4E5A4;}
</style>
<g>
	<g>
		<path class="st1" d="M0,168.52c0-0.26,0.04-0.53,0.11-0.8l0.16-0.61C27.42,68.68,117.52,0,219.41,0c20.38,0,40.77,2.77,60.61,8.25
			c38.46,10.6,73.5,31.15,101.35,59.4c1.14,1.15,1.13,3.02-0.03,4.16c-1.16,1.14-3.02,1.13-4.17-0.03
			c-27.12-27.51-61.26-47.52-98.73-57.85c-19.33-5.33-39.19-8.04-59.04-8.04c-99.25,0-187.01,66.9-213.43,162.69l-0.2,0.74
			c-0.44,1.57-2.07,2.48-3.63,2.03C0.85,170.99,0,169.81,0,168.52z M57.12,385.54c0-0.76,0.29-1.52,0.87-2.09
			c1.16-1.15,3.02-1.14,4.16,0.02c27.07,27.37,61.12,47.28,98.47,57.59c19.32,5.33,39.18,8.04,59.04,8.04
			c99.24,0,187.01-66.9,213.43-162.69c0.43-1.56,2.1-2.68,3.67-2.24c1.56,0.43,2.57,1.84,2.11,3.43l-2.84-0.78l2.76,1.09
			c-27.15,98.4-117.25,167.07-219.13,167.07c-20.39,0-40.78-2.78-60.61-8.25c-38.34-10.57-73.29-31.02-101.08-59.12
			C57.41,387.03,57.12,386.29,57.12,385.54z"/>
	</g>
	<g>
		<path class="st1" d="M33.06,273.41c0-1.32,0.89-2.52,2.23-2.86c1.58-0.4,3.17,0.57,3.57,2.15c7.85,31.52,24,60.61,46.7,84.12
			c35.41,36.69,83,56.88,134,56.88c48.5,0,94.42-18.55,129.32-52.24c1.17-1.13,3.22-1.29,4.35-0.12c1.14,1.17,1.29,2.83,0.13,3.97
			c-0.02,0.01-0.42,0.4-0.44,0.42c-35.95,34.71-83.33,53.85-133.36,53.85c-52.61,0-101.71-20.84-138.24-58.68
			c-23.43-24.26-40.08-54.27-48.18-86.8C33.08,273.89,33.06,273.65,33.06,273.41z M85.07,91.45c0-0.7,0.26-1.39,0.81-1.95
			c0.04-0.03,0.26-0.25,0.3-0.28c35.93-34.7,83.3-53.83,133.34-53.83c52.61,0,101.7,20.84,138.24,58.67
			c23.35,24.19,39.99,54.12,48.12,86.54c0.4,1.6-0.57,3.18-2.14,3.57c-1.58,0.4-3.18-0.57-3.57-2.14
			c-7.87-31.42-24-60.43-46.64-83.88c-35.41-36.68-83-56.88-134-56.88c-48.5,0-94.42,18.55-129.31,52.24
			c-1.16,1.12-3.11,1.19-4.24,0.04C85.37,92.96,85.07,92.19,85.07,91.45z"/>
	</g>
	<circle class="st1" cx="219.54" cy="227.49" r="154.54"/>
</g>
</svg>
