<?xml version="1.0" encoding="utf-8"?>
<!-- Generator: Adobe Illustrator 16.0.0, SVG Export Plug-In . SVG Version: 6.00 Build 0)  -->
<!DOCTYPE svg PUBLIC "-//W3C//DTD SVG 1.1//EN" "http://www.w3.org/Graphics/SVG/1.1/DTD/svg11.dtd">
<svg version="1.1" id="Layer_1" xmlns="http://www.w3.org/2000/svg" xmlns:xlink="http://www.w3.org/1999/xlink" x="0px" y="0px"
	 width="200px" height="200px" viewBox="0 0 200 200" enable-background="new 0 0 200 200" xml:space="preserve">
<g>
	<g>
		<rect x="46.626" y="130.689" fill="#242D3C" width="7.143" height="7.143"/>
		<rect x="32.341" y="130.689" fill="#242D3C" width="7.143" height="7.143"/>
		<rect x="18.055" y="130.689" fill="#242D3C" width="7.143" height="7.143"/>
	</g>
	<g>
		<rect x="174.802" y="130.689" fill="#242D3C" width="7.143" height="7.143"/>
		<rect x="160.517" y="130.689" fill="#242D3C" width="7.143" height="7.143"/>
		<rect x="146.23" y="130.689" fill="#242D3C" width="7.143" height="7.143"/>
	</g>
	<g>
		<rect x="107.143" y="54.216" fill="#242D3C" width="7.144" height="107.805"/>
		<rect x="85.714" y="54.216" fill="#242D3C" width="7.143" height="107.805"/>
	</g>
	<rect x="117.129" y="37.266" fill="#242D3C" width="64.815" height="7.143"/>
	<rect x="18.055" y="37.266" fill="#242D3C" width="64.802" height="7.143"/>
	<g>
		<g>
			<g>
				
					<rect x="149.734" y="62.128" transform="matrix(0.5 0.866 -0.866 0.5 146.1216 -121.6867)" fill="#242D3C" width="57.416" height="7.142"/>
				
					<rect x="146.163" y="36.991" transform="matrix(0.866 0.5001 -0.5001 0.866 52.9189 -66.0719)" fill="#242D3C" width="7.143" height="57.416"/>
			</g>
			<path fill="#F96232" d="M128.177,88.348c0,19.838,16.072,35.913,35.912,35.913c19.837,0,35.911-16.074,35.911-35.913H128.177z"/>
		</g>
		<g>
			<g>
				
					<rect x="21.557" y="62.128" transform="matrix(0.5 0.866 -0.866 0.5 82.0293 -10.6815)" fill="#242D3C" width="57.417" height="7.143"/>
				
					<rect x="17.986" y="36.991" transform="matrix(0.866 0.5 -0.5 0.866 35.7399 -1.9764)" fill="#242D3C" width="7.143" height="57.415"/>
			</g>
			<path fill="#F96232" d="M0,88.348c0,19.838,16.073,35.913,35.911,35.913c19.838,0,35.912-16.074,35.912-35.913H0z"/>
		</g>
	</g>
	<path fill="#242D3C" d="M167.66,179.877H32.339v-7.856c0-3.625,1.412-7.033,3.976-9.596c2.564-2.564,5.973-3.977,9.596-3.977
		h108.178c3.625,0,7.033,1.412,9.597,3.974c2.564,2.567,3.975,5.976,3.975,9.599V179.877z M39.482,172.734h121.035v-0.714
		c0-1.717-0.668-3.332-1.884-4.547c-1.213-1.213-2.827-1.882-4.545-1.882H45.911c-1.716,0-3.33,0.669-4.545,1.883
		c-1.214,1.214-1.883,2.829-1.883,4.546V172.734z"/>
	<path fill="#242D3C" d="M100,61.551c-11.421,0-20.714-9.294-20.714-20.714c0-11.423,9.293-20.714,20.714-20.714
		c11.422,0,20.714,9.292,20.714,20.714C120.714,52.257,111.422,61.551,100,61.551z M100,27.266c-7.483,0-13.571,6.088-13.571,13.571
		c0,7.483,6.088,13.572,13.571,13.572s13.571-6.088,13.571-13.572C113.571,33.354,107.483,27.266,100,27.266z"/>
	<rect x="96.429" y="37.266" fill="#242D3C" width="7.143" height="7.143"/>
</g>
</svg>
