<?xml version="1.0" encoding="utf-8"?>
<!-- Generator: Adobe Illustrator 26.0.3, SVG Export Plug-In . SVG Version: 6.00 Build 0)  -->
<svg version="1.1" id="Layer_1" xmlns="http://www.w3.org/2000/svg" xmlns:xlink="http://www.w3.org/1999/xlink" x="0px" y="0px"
	 viewBox="0 0 454.64 454.95" style="enable-background:new 0 0 454.64 454.95;" xml:space="preserve">
<style type="text/css">
	.st0{fill:#C3E5DF;}
	.st1{fill:#F4B0CF;}
	.st2{fill:#A9D8EA;}
	.st3{fill:#F4E5A4;}
</style>
<g>
	<g>
		<path class="st2" d="M30.38,341c-0.17-0.17-0.33-0.37-0.46-0.59l-0.4-0.71C-20.81,251.03-5.66,138.76,66.39,66.71
			c14.41-14.41,30.79-26.86,48.69-37.03c34.7-19.69,74-29.95,113.67-29.67c1.62,0.01,2.94,1.33,2.92,2.96
			c-0.01,1.63-1.34,2.94-2.97,2.92c-38.63-0.27-76.92,9.72-110.72,28.91c-17.44,9.9-33.4,22.04-47.43,36.07
			C0.37,141.05-14.39,250.41,34.66,336.83l0.35,0.61c0.82,1.41,0.34,3.21-1.06,4.03C32.77,342.15,31.31,341.93,30.38,341z
			 M224.23,454.08c-0.54-0.54-0.87-1.28-0.86-2.1c0-1.63,1.33-2.94,2.96-2.93c38.52,0.2,76.68-9.79,110.36-28.91
			c17.44-9.9,33.4-22.04,47.43-36.07c70.18-70.18,84.94-179.54,35.89-265.95l2.37-1.78l2.58-1.42l-2.58,1.42l2.68-1.25
			c50.42,88.83,35.27,201.1-36.78,273.14c-14.41,14.41-30.79,26.86-48.69,37.03c-34.57,19.63-73.75,29.89-113.29,29.67
			C225.48,454.94,224.76,454.61,224.23,454.08z"/>
	</g>
	<g>
		<path class="st2" d="M127.94,391.81c-0.94-0.94-1.15-2.41-0.44-3.6c0.84-1.39,2.64-1.84,4.04-1
			c27.84,16.74,59.82,25.89,92.5,26.46c50.98,0.9,98.92-18.47,134.98-54.53c34.29-34.29,53.65-79.89,54.5-128.38l2.95-0.5l2.95,0.07
			l-2.95-0.07l2.94,0.51c-0.88,50.11-20.85,97.15-56.23,132.53c-37.2,37.2-86.65,57.18-139.24,56.25
			c-33.72-0.59-66.72-10.03-95.44-27.3C128.29,392.13,128.11,391.98,127.94,391.81z M35.25,224.28l2.94,0.14l-2.94-0.21
			c0.88-50.15,20.84-97.18,56.22-132.56c37.2-37.2,86.65-57.18,139.24-56.25c33.61,0.59,66.54,9.98,95.21,27.16
			c1.41,0.85,1.85,2.65,1.01,4.04c-0.83,1.39-2.65,1.85-4.04,1.01c-27.79-16.65-59.7-25.75-92.28-26.32
			c-50.98-0.9-98.91,18.46-134.97,54.53c-34.29,34.29-53.65,79.89-54.5,128.38l-2.95,0.23L35.25,224.28z"/>
	</g>
	
		<ellipse transform="matrix(0.7071 -0.7071 0.7071 0.7071 -94.2639 227.3734)" class="st2" cx="227.33" cy="227.47" rx="154.54" ry="154.54"/>
</g>
</svg>
