<?xml version="1.0" encoding="utf-8"?>
<!-- Generator: Adobe Illustrator 26.0.3, SVG Export Plug-In . SVG Version: 6.00 Build 0)  -->
<svg version="1.1" id="Layer_1" xmlns="http://www.w3.org/2000/svg" xmlns:xlink="http://www.w3.org/1999/xlink" x="0px" y="0px"
	 viewBox="0 0 454.9 454.6" style="enable-background:new 0 0 454.9 454.6;" xml:space="preserve">
<style type="text/css">
	.st0{fill:#C3E5DF;}
	.st1{fill:#F4B0CF;}
	.st2{fill:#A9D8EA;}
	.st3{fill:#F4E5A4;}
</style>
<g>
	<g>
		<path class="st0" d="M113.9,30.4c0.2-0.2,0.4-0.3,0.6-0.5l0.7-0.4c88.7-50.3,200.9-35.2,273,36.9c14.4,14.4,26.9,30.8,37,48.7
			c19.7,34.7,30,74,29.7,113.7c0,1.6-1.3,2.9-3,2.9c-1.6,0-2.9-1.3-2.9-3c0.3-38.6-9.7-76.9-28.9-110.7c-9.9-17.4-22-33.4-36.1-47.4
			c-70.2-70.2-179.5-84.9-266-35.9l-0.6,0.4c-1.4,0.8-3.2,0.3-4-1.1C112.8,32.8,113,31.3,113.9,30.4z M0.9,224.2
			c0.5-0.5,1.3-0.9,2.1-0.9c1.6,0,2.9,1.3,2.9,3c-0.2,38.5,9.8,76.7,28.9,110.4c9.9,17.4,22,33.4,36.1,47.4
			c70.2,70.2,179.5,84.9,266,35.9l1.8,2.4l1.4,2.6l-1.4-2.6l1.2,2.7c-88.8,50.4-201.1,35.3-273.1-36.8c-14.4-14.4-26.9-30.8-37-48.7
			C10.1,305-0.2,265.8,0,226.3C0,225.5,0.3,224.8,0.9,224.2z"/>
	</g>
	<g>
		<path class="st0" d="M63.1,127.9c0.9-0.9,2.4-1.2,3.6-0.4c1.4,0.8,1.8,2.6,1,4C51,159.4,41.9,191.4,41.3,224
			c-0.9,51,18.5,98.9,54.5,135c34.3,34.3,79.9,53.6,128.4,54.5l0.5,2.9l-0.1,2.9l0.1-2.9l-0.5,2.9c-50.1-0.9-97.1-20.8-132.5-56.2
			C54.4,326,34.5,276.5,35.4,223.9c0.6-33.7,10-66.7,27.3-95.4C62.8,128.3,63,128.1,63.1,127.9z M230.7,35.2l-0.1,2.9L230.7,35.2
			c50.2,0.9,97.3,20.8,132.6,56.2c37.2,37.2,57.2,86.7,56.3,139.2c-0.6,33.6-10,66.5-27.2,95.2c-0.8,1.4-2.6,1.8-4,1
			c-1.4-0.8-1.8-2.6-1-4c16.7-27.8,25.8-59.7,26.3-92.3c0.9-51-18.5-98.9-54.5-135C324.8,61.3,279.2,42,230.8,41.1l-0.2-2.9
			L230.7,35.2z"/>
	</g>
	<circle class="st0" cx="227.5" cy="227.3" r="154.5"/>
</g>
</svg>
