<?xml version="1.0" encoding="utf-8"?>
<!-- Generator: Adobe Illustrator 25.2.1, SVG Export Plug-In . SVG Version: 6.00 Build 0)  -->
<svg version="1.1" id="Layer_1" xmlns="http://www.w3.org/2000/svg" xmlns:xlink="http://www.w3.org/1999/xlink" x="0px" y="0px"
	 viewBox="0 0 177.5 177" style="enable-background:new 0 0 177.5 177;" xml:space="preserve">
<style type="text/css">
	.st0{fill:#252E3C;}
	.st1{fill:#59C8DE;}
</style>
<g>
	<g>
		<path class="st0" d="M30.7,65.8c-9.7,0-17.5-7.9-17.5-17.5c0-9.7,7.9-17.5,17.5-17.5c9.7,0,17.5,7.9,17.5,17.5
			C48.3,57.9,40.4,65.8,30.7,65.8z M30.7,37.4c-6,0-10.9,4.9-10.9,10.9c0,6,4.9,10.9,10.9,10.9c6,0,10.9-4.9,10.9-10.9
			C41.6,42.3,36.7,37.4,30.7,37.4z"/>
		<rect x="27.4" y="134.4" class="st0" width="6.7" height="42.6"/>
		<path class="st0" d="M18.8,177h-6.7v-47.4H0V90.8c0-5,1.9-9.6,5.4-13.1c3.5-3.5,8.2-5.4,13.1-5.4h26.2v6.7H18.5
			c-3.2,0-6.2,1.2-8.4,3.5c-2.2,2.2-3.5,5.2-3.5,8.4V123h12.2V177z"/>
		<rect x="27.4" y="84.9" class="st0" width="6.7" height="6.7"/>
		<polygon class="st0" points="49.3,177 42.6,177 42.6,123 58.1,123 58.1,129.6 49.3,129.6 		"/>
	</g>
	<g>
		<path class="st0" d="M146.7,65.8c-9.7,0-17.5-7.9-17.5-17.5c0-9.7,7.9-17.5,17.5-17.5c9.7,0,17.5,7.9,17.5,17.5
			C164.3,57.9,156.4,65.8,146.7,65.8z M146.7,37.4c-6,0-10.9,4.9-10.9,10.9c0,6,4.9,10.9,10.9,10.9c6,0,10.9-4.9,10.9-10.9
			C157.6,42.3,152.7,37.4,146.7,37.4z"/>
		<rect x="143.4" y="134.4" class="st0" width="6.7" height="42.6"/>
		<path class="st0" d="M165.3,177h-6.7v-54h12.2V90.8c0-3.2-1.2-6.2-3.5-8.4c-2.2-2.2-5.2-3.5-8.4-3.5h-26.2v-6.7h26.2
			c5,0,9.6,1.9,13.1,5.4c3.5,3.5,5.4,8.2,5.4,13.1v38.8h-12.2V177z"/>
		<rect x="143.4" y="84.9" class="st0" width="6.7" height="6.7"/>
		<polygon class="st0" points="134.9,177 128.2,177 128.2,129.6 119.4,129.6 119.4,123 134.9,123 		"/>
	</g>
	<g>
		<path class="st1" d="M117.2,56.7c-3.7-3.7-8.5-5.5-13.3-5.5L88.7,66.3L73.6,51.2c-4.8,0-9.7,1.8-13.3,5.5
			c-3.7,3.7-5.5,8.5-5.5,13.3v34h15.1v13.2h37.8V104h15.1V70C122.7,65.2,120.9,60.4,117.2,56.7z"/>
		<path class="st0" d="M88.7,41.9c-11.6,0-21-9.4-21-21s9.4-21,21-21c11.6,0,21,9.4,21,21S100.3,41.9,88.7,41.9z M88.7,6.7
			c-7.9,0-14.3,6.4-14.3,14.3c0,7.9,6.4,14.3,14.3,14.3c7.9,0,14.3-6.4,14.3-14.3C103,13.1,96.6,6.7,88.7,6.7z"/>
		<rect x="85.4" y="124.1" class="st0" width="6.7" height="52.9"/>
		<rect x="66.5" y="104" class="st0" width="6.7" height="73"/>
		<rect x="104.3" y="104" class="st0" width="6.7" height="73"/>
		<path class="st0" d="M126,117.4h-18.4v-6.7h11.8V70c0-4.1-1.6-8.1-4.6-11c-2.9-2.9-6.8-4.6-11-4.6H73.6c-4.1,0-8.1,1.6-11,4.6
			c-2.9,2.9-4.6,6.8-4.6,11v40.7h11.8v6.7H51.4V70c0-5.9,2.3-11.5,6.5-15.7c4.2-4.2,9.8-6.5,15.7-6.5h30.2c5.9,0,11.5,2.3,15.7,6.5
			c4.2,4.2,6.5,9.8,6.5,15.7V117.4z"/>
		<g>
			<rect x="85.4" y="72.6" class="st0" width="6.7" height="6.7"/>
			<rect x="85.4" y="85.9" class="st0" width="6.7" height="6.7"/>
		</g>
	</g>
</g>
</svg>
