<?xml version="1.0" encoding="utf-8"?>
<!-- Generator: Adobe Illustrator 25.2.1, SVG Export Plug-In . SVG Version: 6.00 Build 0)  -->
<svg version="1.1" id="Layer_1" xmlns="http://www.w3.org/2000/svg" xmlns:xlink="http://www.w3.org/1999/xlink" x="0px" y="0px"
	 viewBox="0 0 213.4 263.6" style="enable-background:new 0 0 213.4 263.6;" xml:space="preserve">
<style type="text/css">
	.st0{fill:#44D1FD;}
	.st1{fill:#1FBCFD;}
	.st2{fill:#08589C;}
</style>
<path class="st0" d="M131.7,0.1L213.4,0l-137,136.9l-35.7,35.5L0,131.8L131.7,0.1z M130.9,122.4c1.1-1.4,3-0.7,4.5-0.9l77.9,0
	l-71,70.9l-40.8-40.6L130.9,122.4z"/>
<path class="st1" d="M60.8,192.5l40.7-40.7l40.8,40.6l0.2,0.2l-41,40.6L60.8,192.5L60.8,192.5z"/>
<path class="st2" d="M101.5,233.2l41-40.6l70.8,70.9c-26.7,0.1-53.4,0-80,0c-1.5,0.3-2.5-1-3.4-1.9L101.5,233.2L101.5,233.2z"/>
</svg>
