<?xml version="1.0" encoding="utf-8"?>
<!-- Generator: Adobe Illustrator 25.2.1, SVG Export Plug-In . SVG Version: 6.00 Build 0)  -->
<svg version="1.1" id="Layer_1" xmlns="http://www.w3.org/2000/svg" xmlns:xlink="http://www.w3.org/1999/xlink" x="0px" y="0px"
	 viewBox="0 0 176.8 183.6" style="enable-background:new 0 0 176.8 183.6;" xml:space="preserve">
<style type="text/css">
	.st0{fill:#252E3C;}
	.st1{fill:#59C8DE;}
	.st2{fill-rule:evenodd;clip-rule:evenodd;fill:#E64125;}
	.st3{fill-rule:evenodd;clip-rule:evenodd;fill:#F26337;}
</style>
<g>
	<g>
		<g>
			<rect x="85.5" y="15.1" class="st0" width="7.1" height="6.8"/>
			<rect x="73.9" y="161.7" class="st0" width="30.2" height="6.8"/>
			<path class="st0" d="M125.6,183.6H54.1c-8.8,0-16-7.2-16-16V16c0-8.8,7.2-16,16-16h71.4c8.8,0,16,7.2,16,16v151.6
				C141.6,176.4,134.4,183.6,125.6,183.6z M54.1,6.8c-5.1,0-9.2,4.1-9.2,9.2v151.6c0,5.1,4.1,9.2,9.2,9.2h71.4
				c5.1,0,9.2-4.1,9.2-9.2V16c0-5.1-4.1-9.2-9.2-9.2H54.1z"/>
			<rect x="41.5" y="30.2" class="st0" width="96.7" height="6.8"/>
			<rect x="41.5" y="146.6" class="st0" width="96.7" height="6.8"/>
		</g>
		<g>
			<rect x="100" y="118.1" class="st0" width="6.8" height="6.8"/>
			<rect x="86.4" y="118.1" class="st0" width="6.8" height="6.8"/>
			<rect x="72.8" y="118.1" class="st0" width="6.8" height="6.8"/>
		</g>
	</g>
	<g>
		<rect x="23.9" y="135.1" class="st1" width="134.5" height="14.9"/>
		<path class="st0" d="M161.9,153.4h-145L0,142.5l16.8-10.9h145V153.4z M18.8,146.6h136.2v-8.1H18.8l-6.3,4.1L18.8,146.6z"/>
		<path class="st0" d="M165.9,153.4h-10.9v-21.7h10.9c2.9,0,5.6,1.1,7.7,3.2c2.1,2.1,3.2,4.8,3.2,7.7c0,2.9-1.1,5.6-3.2,7.7
			C171.6,152.3,168.8,153.4,165.9,153.4z M161.9,146.6h4.1c1.1,0,2.1-0.4,2.9-1.2c0.8-0.8,1.2-1.8,1.2-2.9s-0.4-2.1-1.2-2.9
			c-0.8-0.8-1.8-1.2-2.9-1.2h-4.1V146.6z"/>
	</g>
	<g>
		<rect x="3.1" y="67.6" class="st0" width="13.9" height="6.8"/>
		<rect x="17" y="92.5" class="st0" width="15" height="6.8"/>
		<rect x="17" y="105" class="st0" width="15" height="6.8"/>
		<rect x="3.1" y="80.1" class="st0" width="28.9" height="6.8"/>
		<rect x="17" y="42.7" class="st0" width="15" height="6.8"/>
		<rect x="17" y="55.1" class="st0" width="15" height="6.8"/>
		<rect x="3.1" y="30.2" class="st0" width="28.9" height="6.8"/>
	</g>
	<g>
		<rect x="162.7" y="67.6" class="st0" width="13.9" height="6.8"/>
		<rect x="147.7" y="42.7" class="st0" width="15" height="6.8"/>
		<rect x="147.7" y="30.2" class="st0" width="15" height="6.8"/>
		<rect x="147.7" y="55.1" class="st0" width="28.9" height="6.8"/>
		<rect x="147.7" y="92.5" class="st0" width="15" height="6.8"/>
		<rect x="147.7" y="80.1" class="st0" width="15" height="6.8"/>
		<rect x="147.7" y="105" class="st0" width="28.9" height="6.8"/>
	</g>
</g>
<g>
	<path class="st2" d="M91.2,104.5l-15-14.9l8.3-8.4l23.4,23.3H91.2z"/>
	<path class="st3" d="M76,89.6l14.9-14.9h16.7L84.4,97.9L76,89.6z"/>
	<path class="st3" d="M63.1,76.7l8.4,8.4l36-36H90.8L63.1,76.7z"/>
</g>
</svg>
