<?xml version="1.0" encoding="utf-8"?>
<!-- Generator: Adobe Illustrator 16.0.0, SVG Export Plug-In . SVG Version: 6.00 Build 0)  -->
<!DOCTYPE svg PUBLIC "-//W3C//DTD SVG 1.1//EN" "http://www.w3.org/Graphics/SVG/1.1/DTD/svg11.dtd">
<svg version="1.1" id="Layer_1" xmlns="http://www.w3.org/2000/svg" xmlns:xlink="http://www.w3.org/1999/xlink" x="0px" y="0px"
	 width="200px" height="200px" viewBox="0 0 200 200" enable-background="new 0 0 200 200" xml:space="preserve">
<g>
	<g>
		<polygon fill="#242D3C" points="128.806,200 71.195,200 71.195,180.798 78.343,180.798 78.343,192.852 121.657,192.852 
			121.657,180.798 128.806,180.798 		"/>
		<rect x="60.375" y="192.852" fill="#242D3C" width="79.256" height="7.148"/>
		<path fill="#242D3C" d="M189.354,154.182H10.646V42.556c0-2.567,1.001-4.983,2.82-6.802c1.818-1.819,4.239-2.82,6.816-2.82h34.644
			v7.148H20.283c-0.472,0-1.162,0.126-1.762,0.726c-0.468,0.468-0.726,1.089-0.726,1.748v104.477h164.41V42.556
			c0-0.649-0.263-1.271-0.74-1.748c-0.469-0.473-1.079-0.726-1.733-0.726h-34.658v-7.148h34.658c2.58,0,4.996,1.006,6.803,2.835
			c1.813,1.812,2.819,4.228,2.819,6.787V154.182z"/>
		<path fill="#242D3C" d="M179.726,174.358H20.273c-2.588,0-5.008-1.005-6.816-2.831c-1.805-1.79-2.811-4.211-2.811-6.794v-17.7
			h178.707v17.7c0,2.577-1.008,4.998-2.837,6.816C184.729,173.354,182.312,174.358,179.726,174.358z M17.795,154.182v10.552
			c0,0.662,0.255,1.282,0.72,1.742c0.634,0.643,1.373,0.734,1.758,0.734h159.453c0.384,0,1.12-0.092,1.732-0.712
			c0.489-0.485,0.747-1.105,0.747-1.765v-10.552H17.795z"/>
		<rect x="86.379" y="32.934" fill="#242D3C" width="27.242" height="7.148"/>
		<rect x="145.073" y="50.805" fill="#43D3E8" width="26.412" height="85.506"/>
		<rect x="86.376" y="50.805" fill="#43D3E8" width="27.245" height="85.506"/>
		<polygon fill="#43D3E8" points="28.52,50.805 28.52,136.311 52.106,136.311 54.927,50.805 		"/>
	</g>
	<g>
		<g>
			<polygon fill="#F96232" points="86.376,136.311 86.379,34.389 70.653,50.112 54.93,34.389 54.927,136.311 			"/>
			<g>
				<polygon fill="#242D3C" points="62.79,20.761 78.516,20.761 70.65,7.15 				"/>
				<rect x="67.078" y="50.112" fill="#242D3C" width="7.148" height="86.198"/>
				<polygon fill="#242D3C" points="83.284,36.176 70.651,14.3 58.025,36.174 51.834,32.603 70.649,0 89.475,32.602 				"/>
				<path fill="#242D3C" d="M89.951,136.311h-7.148l0.003-93.293l-9.625,9.624c-1.396,1.393-3.658,1.395-5.054-0.001l-9.622-9.622
					l-0.003,93.293h-7.148l0.003-101.922c0-1.445,0.871-2.749,2.206-3.302c1.342-0.556,2.873-0.246,3.895,0.775l13.196,13.196
					L83.852,31.86c1.022-1.019,2.557-1.329,3.896-0.773c1.334,0.553,2.206,1.857,2.206,3.302L89.951,136.311z"/>
			</g>
		</g>
		<g>
			<polygon fill="#242D3C" points="148.647,136.311 141.499,136.311 141.499,12.589 117.195,12.589 117.195,136.311 
				110.047,136.311 110.047,5.441 148.647,5.441 			"/>
			<g>
				<rect x="135.065" y="129.162" fill="#242D3C" width="10.008" height="7.148"/>
				<rect x="135.065" y="115.413" fill="#242D3C" width="10.008" height="7.148"/>
				<rect x="135.065" y="101.667" fill="#242D3C" width="10.008" height="7.148"/>
				<rect x="135.065" y="87.921" fill="#242D3C" width="10.008" height="7.148"/>
				<rect x="135.065" y="74.173" fill="#242D3C" width="10.008" height="7.148"/>
				<rect x="135.065" y="60.428" fill="#242D3C" width="10.008" height="7.148"/>
				<rect x="135.065" y="46.68" fill="#242D3C" width="10.008" height="7.148"/>
				<rect x="135.065" y="32.934" fill="#242D3C" width="10.008" height="7.148"/>
				<rect x="135.065" y="19.188" fill="#242D3C" width="10.008" height="7.148"/>
			</g>
		</g>
	</g>
</g>
</svg>
