<?xml version="1.0" encoding="utf-8"?>
<!-- Generator: Adobe Illustrator 16.0.0, SVG Export Plug-In . SVG Version: 6.00 Build 0)  -->
<!DOCTYPE svg PUBLIC "-//W3C//DTD SVG 1.1//EN" "http://www.w3.org/Graphics/SVG/1.1/DTD/svg11.dtd">
<svg version="1.1" id="Layer_1" xmlns="http://www.w3.org/2000/svg" xmlns:xlink="http://www.w3.org/1999/xlink" x="0px" y="0px"
	 width="200px" height="200px" viewBox="0 0 200 200" enable-background="new 0 0 200 200" xml:space="preserve">
<g>
	<g>
		<g>
			<path fill="#43D3E8" d="M138.292,82.347l-6.976-5.405c-2.724,19.549-14.295,36.261-30.539,45.968l6.807,2.87
				c7.705,3.247,16.127,4.961,24.356,4.961c10.559,0,20.951-2.659,30.109-7.699C159.777,107.112,151.152,92.318,138.292,82.347z"/>
			<path fill="#F96232" d="M99.997,68.056c11.196,0,21.709,2.89,30.855,7.951l-0.125-8.825
				c-0.309-21.723-12.063-41.989-30.729-53.06C81.33,25.196,69.575,45.462,69.267,67.181l-0.125,8.827
				C78.284,70.946,88.802,68.056,99.997,68.056z"/>
			<path fill="#43D3E8" d="M68.68,76.938l-6.979,5.411c-12.853,9.963-21.479,24.757-23.754,40.692
				c9.16,5.04,19.551,7.699,30.105,7.699c8.223,0,16.647-1.716,24.358-4.963l6.806-2.868C82.977,113.202,71.405,96.489,68.68,76.938
				z"/>
		</g>
	</g>
	<g>
		<path fill="#242D3C" d="M68.052,136.111C30.529,136.111,0,105.583,0,68.056C0,30.53,30.529,0,68.052,0
			c37.527,0,68.055,30.53,68.055,68.056C136.107,105.583,105.579,136.111,68.052,136.111z M68.052,8.334
			c-32.93,0-59.718,26.792-59.718,59.722c0,32.932,26.789,59.722,59.718,59.722s59.721-26.79,59.721-59.722
			C127.773,35.126,100.982,8.334,68.052,8.334z"/>
		<path fill="#242D3C" d="M131.94,136.111c-37.526,0-68.055-30.528-68.055-68.056C63.885,30.53,94.414,0,131.94,0
			C169.468,0,200,30.53,200,68.056C200,105.583,169.468,136.111,131.94,136.111z M131.94,8.334
			c-32.929,0-59.721,26.792-59.721,59.722c0,32.932,26.792,59.722,59.721,59.722c32.934,0,59.726-26.79,59.726-59.722
			C191.666,35.126,164.874,8.334,131.94,8.334z"/>
		<path fill="#242D3C" d="M99.997,200c-37.525,0-68.056-30.528-68.056-68.056c0-37.525,30.53-68.056,68.056-68.056
			c37.529,0,68.059,30.53,68.059,68.056C168.056,169.472,137.525,200,99.997,200z M99.997,72.223
			c-32.93,0-59.722,26.792-59.722,59.722s26.792,59.722,59.722,59.722c32.933,0,59.725-26.792,59.725-59.722
			S132.93,72.223,99.997,72.223z"/>
	</g>
</g>
</svg>
