<svg id="Layer_1" data-name="Layer 1" xmlns="http://www.w3.org/2000/svg" viewBox="0 0 528.3 328.86"><defs><style>.cls-1{fill:#ececec;}.cls-2{fill:#e1e1e1;}.cls-3{fill:#f5f5f5;}.cls-4{fill:#1a2e35;}.cls-5{fill:#375a64;}.cls-6{fill:#ff735d;}.cls-7{opacity:0.3;}.cls-8{fill:#fff;}.cls-9{fill:#c27460;}.cls-10{fill:#7c4235;}</style></defs><path class="cls-1" d="M246.19,247.72a24.71,24.71,0,0,1,5.86-3.08l.81-6.09,10.11-.92,1.9,5.83a25.27,25.27,0,0,1,6.32,2l4.87-3.73,7.8,6.5-2.78,5.46a24.9,24.9,0,0,1,3.08,5.86l6.08.81.93,10.11-5.84,1.9a24.74,24.74,0,0,1-2,6.32l3.73,4.87-6.49,7.81-5.47-2.79a24.71,24.71,0,0,1-5.86,3.08l-.8,6.09-10.12.92-1.89-5.84a24.54,24.54,0,0,1-6.33-2l-4.87,3.74-7.8-6.5,2.78-5.47a25.08,25.08,0,0,1-3.08-5.86l-6.08-.8-.93-10.11,5.84-1.9a25.15,25.15,0,0,1,2-6.32l-3.73-4.87,6.49-7.81,5.47,2.79Zm6.4,13.09a10.89,10.89,0,1,0,15.34-1.41A10.89,10.89,0,0,0,252.59,260.81Z"/><path class="cls-1" d="M306.21,280.92a15.9,15.9,0,0,1,3.67-1.93l.5-3.81,6.34-.58,1.19,3.66a15.73,15.73,0,0,1,4,1.23l3.05-2.34,4.89,4.07-1.74,3.43a15.53,15.53,0,0,1,1.93,3.67l3.81.51.59,6.34-3.66,1.19a15.79,15.79,0,0,1-1.23,4l2.34,3.05-4.08,4.9-3.42-1.75a15.79,15.79,0,0,1-3.68,1.93l-.5,3.82-6.34.58-1.19-3.66a15.73,15.73,0,0,1-4-1.23l-3.05,2.34-4.89-4.08,1.74-3.42a15.79,15.79,0,0,1-1.93-3.68l-3.81-.5-.58-6.34,3.66-1.19a15.15,15.15,0,0,1,1.23-4l-2.34-3.06,4.07-4.89,3.43,1.74Zm4,8.21a6.83,6.83,0,1,0,9.61-.88A6.82,6.82,0,0,0,310.22,289.13Z"/><path class="cls-2" d="M132.47,52.44a17.61,17.61,0,0,1,4.27-2.24l.58-4.43,7.36-.68,1.38,4.25a18.23,18.23,0,0,1,4.61,1.43l3.54-2.72,5.68,4.73-2,4A17.74,17.74,0,0,1,160.1,61l4.43.59.68,7.36L161,70.35a18.16,18.16,0,0,1-1.43,4.6l2.72,3.55-4.73,5.68-4-2a18.1,18.1,0,0,1-4.26,2.24l-.59,4.43-7.36.67L140,85.25a18.57,18.57,0,0,1-4.6-1.43l-3.55,2.71-5.68-4.72,2-4a18.34,18.34,0,0,1-2.24-4.27L121.48,73l-.67-7.36,4.24-1.38a18.44,18.44,0,0,1,1.43-4.6l-2.71-3.55,4.72-5.68,4,2ZM137.13,62a7.93,7.93,0,1,0,11.16-1A7.93,7.93,0,0,0,137.13,62Z"/><path class="cls-3" d="M271.8,7.31A17.74,17.74,0,0,1,276,5.08l.59-4.41L284,0l1.38,4.23a18.12,18.12,0,0,1,4.58,1.42L293.43,3l5.66,4.7-2,4a17.81,17.81,0,0,1,2.23,4.25l4.41.58.67,7.32-4.23,1.38a18.12,18.12,0,0,1-1.42,4.58l2.7,3.52-4.7,5.66-4-2a18,18,0,0,1-4.25,2.23l-.58,4.41-7.32.67L279.24,40a18.12,18.12,0,0,1-4.58-1.42l-3.52,2.7-5.66-4.7,2-4a17.62,17.62,0,0,1-2.23-4.25l-4.41-.58-.67-7.32,4.23-1.38a17.72,17.72,0,0,1,1.42-4.58L263.13,11l4.71-5.66,4,2Zm4.63,9.48a7.89,7.89,0,1,0,11.11-1A7.88,7.88,0,0,0,276.43,16.79Z"/><path class="cls-3" d="M339.47,17.57a10.5,10.5,0,0,1,2.41-1.27l.34-2.5,4.16-.39.78,2.41a10.25,10.25,0,0,1,2.61.81l2-1.54L355,17.77,353.84,20a10.12,10.12,0,0,1,1.27,2.41l2.51.34.38,4.16-2.4.78a10.25,10.25,0,0,1-.81,2.61l1.54,2-2.68,3.21-2.25-1.15A10.19,10.19,0,0,1,349,35.66l-.33,2.51-4.16.38-.79-2.4a10.18,10.18,0,0,1-2.6-.81l-2,1.54-3.21-2.68L337,32a10.57,10.57,0,0,1-1.27-2.42l-2.5-.33L332.87,25l2.4-.78a10.18,10.18,0,0,1,.81-2.6l-1.54-2,2.68-3.21,2.25,1.14Zm2.64,5.4a4.49,4.49,0,1,0,6.32-.58A4.48,4.48,0,0,0,342.11,23Z"/><path class="cls-2" d="M92.9,137.52a17.07,17.07,0,0,1,3.94-2.07l.54-4.08,6.79-.62,1.27,3.91a17,17,0,0,1,4.24,1.32l3.27-2.5,5.24,4.36-1.87,3.67a16.8,16.8,0,0,1,2.07,3.93l4.08.54.63,6.79L119.18,154a17,17,0,0,1-1.32,4.24l2.51,3.27L116,166.79l-3.67-1.87A17.07,17.07,0,0,1,108.4,167l-.54,4.08-6.79.63-1.27-3.92a17,17,0,0,1-4.24-1.32L92.29,169l-5.24-4.36,1.87-3.67A16.87,16.87,0,0,1,86.85,157l-4.08-.54-.62-6.78,3.91-1.28a17,17,0,0,1,1.32-4.24l-2.5-3.27,4.35-5.24,3.67,1.87Zm4.3,8.79a7.31,7.31,0,1,0,10.3-.95A7.3,7.3,0,0,0,97.2,146.31Z"/><path class="cls-4" d="M528.3,328.66c0,.11-118.27.2-264.14.2S0,328.77,0,328.66s118.25-.2,264.16-.2S528.3,328.55,528.3,328.66Z"/><path class="cls-4" d="M110.19,73.64H369.91A7.35,7.35,0,0,1,377.26,81V252.41a9.37,9.37,0,0,1-9.37,9.37H109.78a6.94,6.94,0,0,1-6.94-6.94V81A7.35,7.35,0,0,1,110.19,73.64Z"/><rect class="cls-5" x="137.87" y="100.63" width="19.35" height="4.22"/><rect class="cls-6" x="137.87" y="119.53" width="9.68" height="4.22"/><rect class="cls-5" x="145.16" y="129.04" width="13.63" height="4.22"/><rect class="cls-5" x="160.95" y="129.04" width="7.94" height="4.22"/><rect class="cls-5" x="223.75" y="129.04" width="16.33" height="4.22"/><rect class="cls-5" x="260.22" y="138.31" width="27.59" height="4.22"/><rect class="cls-5" x="317.11" y="129.04" width="13.25" height="4.22"/><rect class="cls-5" x="334.42" y="129.04" width="26.64" height="4.22"/><rect class="cls-5" x="145.16" y="138.31" width="13.63" height="4.22"/><rect class="cls-6" x="136.78" y="147.55" width="13.63" height="4.22"/><rect class="cls-5" x="144.04" y="156.79" width="6.37" height="4.22"/><rect class="cls-5" x="167.42" y="176.27" width="6.37" height="4.22"/><rect class="cls-5" x="254.99" y="211.45" width="12.44" height="4.22"/><rect class="cls-5" x="306.45" y="211.45" width="30.47" height="4.22"/><rect class="cls-2" x="208.16" y="202.22" width="12.44" height="4.22"/><rect class="cls-5" x="163.09" y="194.29" width="12.44" height="4.22"/><rect class="cls-5" x="232.8" y="211.45" width="19.61" height="4.22"/><rect class="cls-5" x="144.04" y="166.21" width="10.33" height="4.22"/><rect class="cls-5" x="144.04" y="176.42" width="19.16" height="4.22"/><rect class="cls-5" x="144.04" y="184.25" width="28.04" height="4.22"/><rect class="cls-5" x="194.85" y="184.25" width="28.04" height="4.22"/><rect class="cls-5" x="162.84" y="202.22" width="39.37" height="4.22"/><rect class="cls-5" x="162.84" y="211.45" width="66.59" height="4.22"/><rect class="cls-5" x="142.7" y="220.69" width="66.59" height="4.22"/><rect class="cls-5" x="175.04" y="184.25" width="16.82" height="4.22"/><rect class="cls-5" x="152.92" y="156.79" width="17.36" height="4.22"/><rect class="cls-5" x="156.75" y="166.21" width="17.36" height="4.22"/><rect class="cls-5" x="195.4" y="166.21" width="45.96" height="4.22"/><rect class="cls-5" x="242.61" y="166.21" width="53.08" height="4.22"/><rect class="cls-5" x="176.96" y="166.21" width="14.37" height="4.22"/><rect class="cls-5" x="172.66" y="156.79" width="22.75" height="4.22"/><rect class="cls-2" x="197.92" y="156.79" width="12.67" height="4.22"/><rect class="cls-5" x="160.95" y="138.31" width="14.21" height="4.22"/><rect class="cls-5" x="184.81" y="138.31" width="70.14" height="4.22"/><rect class="cls-5" x="300.53" y="166.21" width="33.17" height="4.22"/><rect class="cls-5" x="270.66" y="211.45" width="33.17" height="4.22"/><rect class="cls-5" x="242.86" y="129.04" width="69.1" height="4.22"/><rect class="cls-5" x="171.37" y="129.04" width="48.08" height="4.22"/><rect class="cls-5" x="137.87" y="109.57" width="32.37" height="4.22"/><rect class="cls-5" x="173.48" y="109.57" width="44.33" height="4.22"/><rect class="cls-2" x="160.25" y="100.63" width="14.25" height="4.22"/><rect class="cls-5" x="119.01" y="100.63" width="4.09" height="4.22"/><rect class="cls-5" x="119.01" y="109.86" width="4.09" height="4.22"/><rect class="cls-5" x="119.01" y="119.1" width="4.09" height="4.22"/><rect class="cls-5" x="119.01" y="128.33" width="4.09" height="4.22"/><rect class="cls-5" x="119.01" y="137.57" width="4.09" height="4.22"/><rect class="cls-5" x="119.01" y="146.8" width="4.09" height="4.22"/><rect class="cls-5" x="119.01" y="156.04" width="4.09" height="4.22"/><rect class="cls-5" x="119.01" y="165.27" width="4.09" height="4.22"/><rect class="cls-5" x="119.01" y="174.51" width="4.09" height="4.22"/><rect class="cls-2" x="165.85" y="240.64" width="6.37" height="4.22"/><rect class="cls-6" x="142.82" y="240.64" width="19.16" height="4.22"/><rect class="cls-5" x="119.01" y="240.17" width="4.09" height="4.22"/><rect class="cls-5" x="119.01" y="183.74" width="4.09" height="4.22"/><rect class="cls-5" x="119.01" y="192.98" width="4.09" height="4.22"/><rect class="cls-5" x="119.01" y="202.22" width="4.09" height="4.22"/><rect class="cls-5" x="119.01" y="211.45" width="4.09" height="4.22"/><rect class="cls-5" x="119.01" y="220.69" width="4.09" height="4.22"/><rect class="cls-5" x="142.7" y="230.4" width="19.41" height="4.22"/><rect class="cls-5" x="165.85" y="230.4" width="43.91" height="4.22"/><rect class="cls-5" x="119.01" y="230.4" width="4.09" height="4.22"/><rect class="cls-2" x="223.22" y="109.55" width="14.25" height="4.22"/><circle class="cls-5" cx="118.16" cy="85.81" r="2.9"/><circle class="cls-5" cx="126.2" cy="85.81" r="2.9"/><circle class="cls-5" cx="134.25" cy="85.81" r="2.9"/><g class="cls-7"><rect x="244.34" y="186.36" width="114.29" height="65.5" rx="5.48"/></g><rect class="cls-6" x="252.41" y="179.36" width="114.29" height="65.5" rx="3.37"/><path class="cls-5" d="M130.32,99.42c.11,0,.2,36.33.2,81.14s-.09,81.14-.2,81.14-.19-36.32-.19-81.14S130.21,99.42,130.32,99.42Z"/><path class="cls-6" d="M217.48,274.53a1.19,1.19,0,0,1,0,.33c0,.23,0,.54,0,.94,0,.85,0,2.07,0,3.63,0,3.18,0,7.74.06,13.37,0,2.82,0,5.91,0,9.22v2.53c0,.86,0,1.72-.05,2.63a6.88,6.88,0,0,1-5.4,5.86,16,16,0,0,1-2.93.14H190.73l-44.09-.06-13.36-.06-3.63,0-1,0-.32,0a1.14,1.14,0,0,1,.32,0l1,0,3.63,0,13.36-.06,44.09-.06h18.54a15.67,15.67,0,0,0,2.85-.13,6.49,6.49,0,0,0,5.13-5.53,24.88,24.88,0,0,0,.06-2.59c0-.85,0-1.7,0-2.53,0-3.31,0-6.4,0-9.22,0-5.63,0-10.19.07-13.37,0-1.56,0-2.78,0-3.63,0-.4,0-.71,0-.94S217.48,274.53,217.48,274.53Z"/><path class="cls-6" d="M220.12,271.89a2.64,2.64,0,1,1-2.64-2.64A2.64,2.64,0,0,1,220.12,271.89Z"/><path class="cls-6" d="M131.11,312.57a2.64,2.64,0,1,1-2.64-2.64A2.64,2.64,0,0,1,131.11,312.57Z"/><path class="cls-6" d="M430.22,251.13a3.69,3.69,0,1,1-3.68-3.68A3.69,3.69,0,0,1,430.22,251.13Z"/><path class="cls-6" d="M448.09,234.79a3.69,3.69,0,1,1-3.68-3.68A3.69,3.69,0,0,1,448.09,234.79Z"/><path class="cls-6" d="M430.58,218.45a3.69,3.69,0,1,1-3.69-3.68A3.69,3.69,0,0,1,430.58,218.45Z"/><path class="cls-6" d="M443.9,234.79c0,.11-14.36.2-32.06.2s-32.07-.09-32.07-.2,14.36-.19,32.07-.19S443.9,234.68,443.9,234.79Z"/><path class="cls-6" d="M426.54,252.81c-.11,0-.2-7.54-.2-16.83s.09-16.84.2-16.84.19,7.54.19,16.84S426.65,252.81,426.54,252.81Z"/><rect class="cls-6" x="177.94" y="38.56" width="68.23" height="45.11" rx="6.35"/><g class="cls-7"><rect x="177.94" y="38.56" width="68.23" height="45.11" rx="6.35"/></g><rect class="cls-6" x="173.37" y="38.56" width="68.23" height="45.11" rx="6.35"/><path class="cls-8" d="M200.11,58.58l-9.3,3.29,9.3,3.3v4.25l-14.37-5.3V59.63l14.37-5.31Z"/><path class="cls-8" d="M210.34,47.53h4.92L205.64,75h-4.92Z"/><path class="cls-8" d="M230,59.63v4.49l-14.38,5.3V65.17l9.3-3.3-9.3-3.29V54.32Z"/><path class="cls-2" d="M307.4,54.66a30,30,0,0,1,7.25-3.15l1.49-7.17,12.11-.21L330,51.24a30,30,0,0,1,7.35,2.89l3.36-4h2.76l8.72,8.42-3.8,6.25A29.25,29.25,0,0,1,351.53,72l7.17,1.49.21,12.11-7.11,1.74a30,30,0,0,1-2.89,7.35l4,6.12-8.41,8.72h-2.76l-3.5-3.8a29.35,29.35,0,0,1-7.24,3.15l-1.5,7.17-12.11.21-1.74-7.11a30,30,0,0,1-7.35-2.89l-6.12,4h-2.76l-6-8.41,3.8-6.26a30.12,30.12,0,0,1-3.15-7.24L287,86.9l-.21-12.11,7.11-1.74a30,30,0,0,1,2.89-7.35l-4-6.12,5.65-8.72h2.76l6.26,3.8Zm6.46,16.13a13,13,0,1,0,18.37-.32A13,13,0,0,0,313.86,70.79Z"/><g class="cls-7"><path d="M307.4,54.66a30,30,0,0,1,7.25-3.15l1.49-7.17,12.11-.21L330,51.24a30,30,0,0,1,7.35,2.89l3.36-4h2.76l8.72,8.42-3.8,6.25A29.25,29.25,0,0,1,351.53,72l7.17,1.49.21,12.11-7.11,1.74a30,30,0,0,1-2.89,7.35l4,6.12-8.41,8.72h-2.76l-3.5-3.8a29.35,29.35,0,0,1-7.24,3.15l-1.5,7.17-12.11.21-1.74-7.11a30,30,0,0,1-7.35-2.89l-6.12,4h-2.76l-6-8.41,3.8-6.26a30.12,30.12,0,0,1-3.15-7.24L287,86.9l-.21-12.11,7.11-1.74a30,30,0,0,1,2.89-7.35l-4-6.12,5.65-8.72h2.76l6.26,3.8Zm6.46,16.13a13,13,0,1,0,18.37-.32A13,13,0,0,0,313.86,70.79Z"/></g><path class="cls-2" d="M304.64,54.66a30.12,30.12,0,0,1,7.24-3.15l1.5-7.17,12.11-.21,1.74,7.11a30,30,0,0,1,7.35,2.89l6.12-4,8.72,8.42-3.8,6.25A29.25,29.25,0,0,1,348.77,72l7.17,1.49.21,12.11L349,87.38a30,30,0,0,1-2.89,7.35l4,6.12-8.41,8.72-6.26-3.8a29.35,29.35,0,0,1-7.24,3.15l-1.5,7.17-12.11.21-1.74-7.11a30,30,0,0,1-7.35-2.89l-6.12,4-8.72-8.41,3.8-6.26a29.35,29.35,0,0,1-3.15-7.24l-7.17-1.5L284,74.79l7.11-1.74A30,30,0,0,1,294,65.7l-4-6.12,8.41-8.72,6.26,3.8Zm6.46,16.13a13,13,0,1,0,18.37-.32A13,13,0,0,0,311.1,70.79Z"/><rect class="cls-8" x="396.13" y="20.37" width="130.21" height="179.03" rx="7.64"/><rect class="cls-2" x="445.41" y="119.11" width="31.65" height="26.42"/><rect class="cls-2" x="485.45" y="119.45" width="31.65" height="26.42"/><rect class="cls-2" x="405.37" y="119.45" width="31.65" height="26.42"/><rect class="cls-2" x="396.13" y="58.39" width="130.21" height="48.28"/><path class="cls-2" d="M403.16,20.37h115.3a7.88,7.88,0,0,1,7.88,7.88v10a0,0,0,0,1,0,0H396.13a0,0,0,0,1,0,0V27.4A7,7,0,0,1,403.16,20.37Z"/><path class="cls-6" d="M414.23,48.32a5.67,5.67,0,1,1-5.67-5.67A5.67,5.67,0,0,1,414.23,48.32Z"/><rect class="cls-2" x="444.34" y="45.8" width="20.83" height="4.85"/><rect class="cls-2" x="470.3" y="45.8" width="20.83" height="4.85"/><rect class="cls-2" x="496.25" y="45.8" width="20.83" height="4.85"/><rect class="cls-2" x="405.37" y="154.79" width="31.65" height="4.23"/><rect class="cls-2" x="405.37" y="164.03" width="31.65" height="4.23"/><rect class="cls-2" x="405.37" y="173.26" width="17.14" height="4.23"/><rect class="cls-2" x="446.05" y="154.79" width="31.65" height="4.23"/><rect class="cls-2" x="446.05" y="164.03" width="31.65" height="4.23"/><rect class="cls-2" x="446.05" y="173.26" width="17.14" height="4.23"/><rect class="cls-2" x="486.74" y="154.79" width="31.65" height="4.23"/><rect class="cls-2" x="486.74" y="164.03" width="31.65" height="4.23"/><rect class="cls-2" x="486.74" y="173.26" width="17.14" height="4.23"/><path class="cls-4" d="M518.7,199.39l.39,0a9,9,0,0,0,1.16-.14,7.85,7.85,0,0,0,3.92-2.2,7.62,7.62,0,0,0,1.72-2.85,11.26,11.26,0,0,0,.39-4c0-3,0-6.35,0-10.18,0-15.32,0-37.48-.06-64.87,0-13.69,0-28.69,0-44.79q0-12.08,0-25,0-6.44,0-13V29a9.53,9.53,0,0,0-.35-3.25,7.51,7.51,0,0,0-4.36-4.66,8.36,8.36,0,0,0-3.27-.53H403.79a7.46,7.46,0,0,0-6.36,3.55,7.35,7.35,0,0,0-1.09,3.58c0,1.28,0,2.59,0,3.87V47q0,15.25,0,30.05c0,19.71,0,38.72,0,56.82s0,35.32,0,51.42v6a7.7,7.7,0,0,0,1.76,5.35,7.5,7.5,0,0,0,4.87,2.62c.92.08,1.88,0,2.82.05h24.31l64.86.07,17.64,0,4.58,0,1.57,0s-.53,0-1.57,0l-4.58,0-17.64,0-64.86.06-21.49,0h-2.82c-.94,0-1.88,0-2.86-.06a7.74,7.74,0,0,1-5.07-2.71,8,8,0,0,1-1.84-5.56v-6c0-16.1,0-33.31,0-51.42s0-37.11,0-56.82q0-14.77,0-30V31.57c0-1.29,0-2.57,0-3.88a7.64,7.64,0,0,1,1.15-3.77A7.83,7.83,0,0,1,400,21.17a8,8,0,0,1,3.84-1H518.18a8.66,8.66,0,0,1,3.41.55,7.92,7.92,0,0,1,4.56,4.89,9.84,9.84,0,0,1,.37,3.36v3.32q0,6.61,0,13,0,12.86,0,25c0,16.1,0,31.1,0,44.79,0,27.39-.05,49.55-.06,64.87,0,3.83,0,7.23,0,10.18,0,.73,0,1.44,0,2.12a7.43,7.43,0,0,1-.38,1.93,7.82,7.82,0,0,1-1.76,2.87,7.72,7.72,0,0,1-4,2.19,6.92,6.92,0,0,1-1.16.12Z"/><path class="cls-8" d="M408.85,30.24a2.17,2.17,0,1,1-2.17-2.17A2.17,2.17,0,0,1,408.85,30.24Z"/><path class="cls-8" d="M415.71,30.24a2.17,2.17,0,1,1-2.17-2.17A2.17,2.17,0,0,1,415.71,30.24Z"/><path class="cls-8" d="M422.56,30.24a2.17,2.17,0,1,1-2.17-2.17A2.17,2.17,0,0,1,422.56,30.24Z"/><path class="cls-8" d="M452.21,83.52V72.94a2.66,2.66,0,0,1,4-2.23L465.64,76l9.44,5.29a2.55,2.55,0,0,1,0,4.47L465.64,91l-9.44,5.29a2.66,2.66,0,0,1-4-2.23Z"/><path class="cls-4" d="M514.54,328.66l-50-.22c-6,0-10.86-4.64-10.84-10.31L454.23,200c0-5.67,4.93-10.25,10.94-10.22l50,.21c6,0,10.86,4.65,10.84,10.31l-.53,118.17C525.45,324.11,520.55,328.69,514.54,328.66Z"/><path class="cls-8" d="M515.1,194l-9.7,0-28.3-.12-3.41,0-8.49,0a7.43,7.43,0,0,0-7.66,7.16L457,316.32a7.41,7.41,0,0,0,7.59,7.22l49.9.22a7.43,7.43,0,0,0,7.66-7.16l.52-115.34A7.41,7.41,0,0,0,515.1,194Z"/><path class="cls-4" d="M515.53,204.77a.61.61,0,0,1-.63.6.6.6,0,0,1-.61-.6.62.62,0,0,1,1.24,0Z"/><path class="cls-4" d="M515.52,206.93a.62.62,0,0,1-1.24,0,.62.62,0,0,1,1.24,0Z"/><path class="cls-4" d="M515.51,209.09a.61.61,0,0,1-.62.6.6.6,0,1,1,.62-.6Z"/><path class="cls-6" d="M473.12,207.53a4.08,4.08,0,1,1-4.08-4A4,4,0,0,1,473.12,207.53Z"/><path class="cls-2" d="M503.46,208.29H482.53a1.36,1.36,0,0,1-1.37-1.36h0a1.36,1.36,0,0,1,1.37-1.36h20.93a1.36,1.36,0,0,1,1.36,1.36h0A1.36,1.36,0,0,1,503.46,208.29Z"/><path class="cls-6" d="M477.57,258.79V247.08a2.94,2.94,0,0,1,4.41-2.47l10.45,5.85,10.45,5.86a2.82,2.82,0,0,1,0,4.95l-10.45,5.85L482,273a2.94,2.94,0,0,1-4.41-2.48Z"/><path class="cls-6" d="M367.14,309.74c4.43-7.05,11.94-8.69,18.76-7.14a29.57,29.57,0,0,1,58.54-8.17c7.07-5,17.67-1.61,22.85,5.33s5.51,21.77-.57,28.75L368.84,328S361.39,318.89,367.14,309.74Z"/><g class="cls-7"><path d="M367.14,309.74c4.43-7.05,11.94-8.69,18.76-7.14a29.57,29.57,0,0,1,58.54-8.17c7.07-5,17.67-1.61,22.85,5.33s5.51,21.77-.57,28.75L368.84,328S361.39,318.89,367.14,309.74Z"/></g><path class="cls-6" d="M358.73,309.74c4.43-7.05,11.94-8.69,18.76-7.14A29.57,29.57,0,0,1,436,294.43c7.07-5,17.67-1.61,22.85,5.33s5.51,21.77-.57,28.75L360.43,328S353,318.89,358.73,309.74Z"/><rect class="cls-2" x="14.66" y="230.76" width="102.41" height="97.9" rx="2.93"/><path class="cls-4" d="M117.25,262c0,.11-22.88.2-51.09.2s-51.09-.09-51.09-.2,22.87-.19,51.09-.19S117.25,261.9,117.25,262Z"/><path class="cls-4" d="M117.25,293.44c0,.11-22.88.2-51.09.2s-51.09-.09-51.09-.2,22.87-.19,51.09-.19S117.25,293.33,117.25,293.44Z"/><circle class="cls-8" cx="33.28" cy="247.28" r="2.23"/><circle class="cls-8" cx="41.27" cy="247.28" r="2.23"/><rect class="cls-4" x="90.49" y="243.86" width="2.04" height="7.58" rx="0.83"/><rect class="cls-4" x="95.62" y="243.86" width="2.04" height="7.58" rx="0.83"/><rect class="cls-8" x="100.35" y="243.86" width="2.04" height="7.58" rx="0.83"/><rect class="cls-6" x="85.29" y="243.86" width="2.04" height="7.58" rx="0.83"/><circle class="cls-8" cx="33.28" cy="277.82" r="2.23"/><circle class="cls-8" cx="40.83" cy="277.82" r="2.23"/><rect class="cls-4" x="90.49" y="274.39" width="2.04" height="7.58" rx="0.83"/><rect class="cls-4" x="95.62" y="274.39" width="2.04" height="7.58" rx="0.83"/><rect class="cls-8" x="100.35" y="274.39" width="2.04" height="7.58" rx="0.83"/><rect class="cls-6" x="85.29" y="274.39" width="2.04" height="7.58" rx="0.83"/><circle class="cls-8" cx="33.28" cy="310.69" r="2.23"/><circle class="cls-8" cx="41.48" cy="310.69" r="2.23"/><rect class="cls-4" x="90.49" y="307.26" width="2.04" height="7.58" rx="0.83"/><rect class="cls-4" x="95.62" y="307.26" width="2.04" height="7.58" rx="0.83"/><rect class="cls-8" x="100.35" y="307.26" width="2.04" height="7.58" rx="0.83"/><rect class="cls-6" x="85.29" y="307.26" width="2.04" height="7.58" rx="0.83"/><path class="cls-4" d="M65.71,90.85A3.31,3.31,0,0,0,61.93,88a4.25,4.25,0,0,0-5.62-1.72c-.9.51-1.59,1.34-2.48,1.88a29.16,29.16,0,0,1-2.75,1.18,3,3,0,0,0-1.87,2.17A2.62,2.62,0,0,0,51,94a7.74,7.74,0,0,0,3.29.29,1.14,1.14,0,0,0-.34,1.48,2.25,2.25,0,0,0,1.27,1,5.06,5.06,0,0,0,5.18-1l2.08-1.59A3.32,3.32,0,0,0,65.71,90.85Z"/><path class="cls-6" d="M60.53,97.77a1.1,1.1,0,0,1-1.46,0,1.5,1.5,0,0,1-.35-1.49,2.33,2.33,0,0,1,1-1.24,5.66,5.66,0,0,1,1.48-.62,10.3,10.3,0,0,1,2.45-.47,2.15,2.15,0,0,1,.87.11.84.84,0,0,1,.53.65c0,.42-.33.74-.67,1a25.22,25.22,0,0,1-4,2.4"/><path class="cls-4" d="M59.32,97.56c-2-2.19-6.85-1.9-8-.47a3.73,3.73,0,0,0-4.9,1.59l-5.2,1.1a5.32,5.32,0,0,0-2.51,1,1.86,1.86,0,0,0-.45,2.42A2.83,2.83,0,0,0,37,107.7a2,2,0,0,0,.28,2.86,19.87,19.87,0,0,0-3.4,5.77,4,4,0,0,0-.27,2.73,1.6,1.6,0,0,0,2.23,1,2.31,2.31,0,0,0-.12,2.49c-.88,0-1.16,1.37-.56,2a3.23,3.23,0,0,0,2.47.71,4.17,4.17,0,0,1,2.55.45.87.87,0,0,1-.29.56,3.6,3.6,0,0,0-.84,4.92c.1.15.2.28.28.41a8.16,8.16,0,0,0,2.54,1.81c2,1.05,3.17.86,5.39,1.2-.62,1.43,3,4.62,7.12,1.54a79.51,79.51,0,0,0,22.68,3.23c1.21,0,2.68-.14,3.22-1.23a3,3,0,0,0,2.79-.89,8.92,8.92,0,0,0,1.65-2.56,5.3,5.3,0,0,0,3.85-4.75,6.55,6.55,0,0,0,2.5-4.64,3.85,3.85,0,0,0,2.24-5.18,23,23,0,0,0-2.48-7.19c1.4-.29,1.94-2.17,1.37-3.48a7.32,7.32,0,0,0-3-2.94c1,.29,2-1,1.72-2.07a4.13,4.13,0,0,0-2.11-2.34,19.17,19.17,0,0,0-4.3-2c-.49-1.84-2.82-4-4.53-4.77C73.06,92,68.2,91.15,59.32,97.56"/><path class="cls-9" d="M54,108.69c-.09-1.46-.34-2.91,1.11-3.12l14.74-4.45c4.75-.72,8.19,5,8.71,9.79.57,5.31,1.07,11.82.62,15.82a12.17,12.17,0,0,1-8,10.2s.19,4.88.19,4.88c-.62,3.76-1.57,8-3.09,9.48-5.21-1-13.75-12.44-13.75-12.44Z"/><path class="cls-4" d="M70.82,123.06a6.57,6.57,0,0,1,1.78-.41c.28,0,.54-.11.58-.3a1.36,1.36,0,0,0-.23-.83l-.92-2.1a36.87,36.87,0,0,1-2.13-5.52,35.81,35.81,0,0,1,2.56,5.33c.32.74.62,1.45.9,2.12a1.67,1.67,0,0,1,.2,1.1.71.71,0,0,1-.45.43,1.49,1.49,0,0,1-.47.09A7.63,7.63,0,0,1,70.82,123.06Z"/><path class="cls-10" d="M71.16,136.93a26.22,26.22,0,0,1-9.81-3.23s1.85,5,9.88,5.65Z"/><path class="cls-4" d="M66.12,110.77c-.1.31-1.21.21-2.49.43s-2.32.61-2.5.35.08-.41.49-.72a4.38,4.38,0,0,1,3.8-.6C65.91,110.4,66.16,110.63,66.12,110.77Z"/><path class="cls-4" d="M76.72,110.59c-.19.26-1,0-1.87.06s-1.68.25-1.87,0,0-.38.36-.63a2.58,2.58,0,0,1,1.49-.48,2.61,2.61,0,0,1,1.52.44C76.68,110.21,76.8,110.46,76.72,110.59Z"/><path class="cls-4" d="M82.13,114.75a5.51,5.51,0,0,0-1.33-3.44,20,20,0,0,1-1.48-1.43c-.9-1.18-.77-2.82-1.16-4.25a6,6,0,0,0-3.74-4.06c-1.5-.53-3.19-.46-4.6-1.21-1-.55-1.83-1.5-2.9-2-2.09-1-4.5.12-6.47,1.29-.39,1.56.6,2.92,1.55,4.22a5.6,5.6,0,0,0,4.11,2.23c1.25.08,2.71-.21,3.59.68s.56,2.59,1.32,3.66c1.09,1.54,3.55,1,5.18,1.9,1.25.73,1.78,2.23,2.41,3.54s1.72,2.67,3.17,2.6A16.29,16.29,0,0,0,82.13,114.75Z"/><path class="cls-4" d="M63.56,102.51a28.2,28.2,0,0,0-10.7,1.93,5.2,5.2,0,0,0-2.63,1.82,5.05,5.05,0,0,0-.56,2.77,28.31,28.31,0,0,0,2.39,9.43l3.74,2.23c2.88-.68,1.55-5.65,1.41-8.14a5.86,5.86,0,0,0,3.43-5.2A6.46,6.46,0,0,0,63.56,102.51Z"/><path class="cls-9" d="M55.75,119.61c-.12-1.71-2.22-2-3.69-1.15-.81.48-1.41,1.44-1.31,3.26.28,4.84,5.09,3.56,5.09,3.42S55.88,121.62,55.75,119.61Z"/><path class="cls-10" d="M54.25,123.39s-.08.06-.22.14a.85.85,0,0,1-.63,0,2.1,2.1,0,0,1-1.07-1.82,2.83,2.83,0,0,1,.16-1.22,1,1,0,0,1,.6-.69.43.43,0,0,1,.51.2c.08.14,0,.23.08.24s.1-.09,0-.28a.57.57,0,0,0-.21-.3.69.69,0,0,0-.48-.09,1.2,1.2,0,0,0-.84.8,2.89,2.89,0,0,0-.21,1.37,2.2,2.2,0,0,0,1.35,2,.92.92,0,0,0,.77-.17C54.25,123.51,54.27,123.4,54.25,123.39Z"/><path class="cls-5" d="M53.72,125.43a.32.32,0,0,0,0,.06.49.49,0,0,1-.06.19,1.17,1.17,0,0,1-.56.5,2.93,2.93,0,0,1-1.2.25,4.25,4.25,0,0,1-.78-.05,2.59,2.59,0,0,1-.85-.26l.06,0a2.41,2.41,0,0,1-3.84,1.53l.08,0a1,1,0,0,1-.63.43,1.31,1.31,0,0,1-.78-.07,1.24,1.24,0,0,1-.64-.51,1.56,1.56,0,0,1-.24-.8,2.47,2.47,0,0,1,.52-1.61,7.58,7.58,0,0,1,1.28-1.25v.11a1.68,1.68,0,0,1-.77-1.14,2.43,2.43,0,0,1,.14-1.43,3.61,3.61,0,0,1,.84-1.21,9.67,9.67,0,0,1,1.15-1v.11a1.85,1.85,0,0,1-.48-1.41,2.59,2.59,0,0,1,.55-1.44,6.48,6.48,0,0,1,2.36-1.65l0,.08a3.21,3.21,0,0,1,3.49-4l-.07.08a2.89,2.89,0,0,1,2.7-3.37l-.06.07a2.72,2.72,0,0,1,1.1-2.12,2.65,2.65,0,0,1,2-.56l-.05,0a2.6,2.6,0,0,1,.39-1.25,3.82,3.82,0,0,1,.73-.89,2.78,2.78,0,0,1,1.66-.71h.35a2.72,2.72,0,0,1,.31,0c.18.06.34.08.46.13l.27.12.09,0-.09,0-.28-.1c-.12-.05-.28-.07-.46-.12s-.19,0-.3,0H61.9l-.18,0a2.74,2.74,0,0,0-1.61.72,3.3,3.3,0,0,0-.71.88A2.61,2.61,0,0,0,59,105v0H59a2.63,2.63,0,0,0-1.95.56,2.58,2.58,0,0,0-1,2v.07h-.06a2.61,2.61,0,0,0-2,1,2.64,2.64,0,0,0-.62,2.24l0,.09h-.09a3.17,3.17,0,0,0-2.61,1,3.14,3.14,0,0,0-.73,2.84l0,.05-.06,0a6.39,6.39,0,0,0-2.31,1.61,2.53,2.53,0,0,0-.51,1.36,1.65,1.65,0,0,0,.44,1.29l0,.06-.06,0a5.7,5.7,0,0,0-2,2.12,2.32,2.32,0,0,0-.13,1.35,1.55,1.55,0,0,0,.7,1.06l.08,0-.07.06a7,7,0,0,0-1.26,1.22,2.36,2.36,0,0,0-.51,1.53,1.29,1.29,0,0,0,.8,1.2,1.06,1.06,0,0,0,1.28-.31l0,0,0,0a2.34,2.34,0,0,0,2.44.23,2.38,2.38,0,0,0,1.25-1.69v0l0,0a2.89,2.89,0,0,0,.82.26,4.19,4.19,0,0,0,.77.06,3,3,0,0,0,1.18-.23,1.14,1.14,0,0,0,.56-.47C53.69,125.52,53.71,125.42,53.72,125.43Z"/><path class="cls-5" d="M35.25,120.25a2.21,2.21,0,0,1-.18-.3,2.49,2.49,0,0,1-.26-1,2.45,2.45,0,0,1,.4-1.52A2.54,2.54,0,0,1,37,116.36l0,0a3.39,3.39,0,0,1,1.39-3.4,7.59,7.59,0,0,1,1.32-.62,2.58,2.58,0,0,0,.64-.38,1.61,1.61,0,0,0,.44-.59c.22-.47.28-1,.56-1.52a2.94,2.94,0,0,1,2.95-1.46l-.09.08a4,4,0,0,1,1-3.21,4,4,0,0,1,3.28-1.19l-.08.08a3.41,3.41,0,0,1,5.3-3.19h-.08a4.68,4.68,0,0,1,1.7-1,7.14,7.14,0,0,1,1.74-.4,8.1,8.1,0,0,1,2.87.19,6.08,6.08,0,0,1,1.71.71c.18.11.3.23.39.29l.13.11s-.18-.14-.54-.37a6.22,6.22,0,0,0-1.71-.67A8.48,8.48,0,0,0,57,99.68a6.53,6.53,0,0,0-1.71.41,4.47,4.47,0,0,0-1.65,1l0,0-.05,0a3.39,3.39,0,0,0-3.36-.18,3.36,3.36,0,0,0-1.72,3.25v.09h-.09a3.75,3.75,0,0,0-4.14,4.24v.1l-.1,0a2.79,2.79,0,0,0-2.8,1.39c-.26.47-.33,1-.56,1.5a1.69,1.69,0,0,1-.48.64,2.65,2.65,0,0,1-.66.4,6.88,6.88,0,0,0-1.31.61,2.9,2.9,0,0,0-.92,1,3.21,3.21,0,0,0-.44,2.31v.06H37a2.52,2.52,0,0,0-1.71,1.07,2.42,2.42,0,0,0-.4,1.47,2.38,2.38,0,0,0,.23,1C35.19,120.15,35.26,120.24,35.25,120.25Z"/><path class="cls-5" d="M81.6,121.55a.47.47,0,0,1,0-.39.92.92,0,0,1,.29-.4,1.57,1.57,0,0,1,.59-.31,2.71,2.71,0,0,0,.76-.31,1.56,1.56,0,0,0,.55-.78,3.06,3.06,0,0,0,.12-1.11c0-.4-.08-.82-.08-1.27a13.31,13.31,0,0,1,.61-2.87,3.86,3.86,0,0,0,.07-1.59,2,2,0,0,0-.88-1.37,7.23,7.23,0,0,0-1.7-.57,2.77,2.77,0,0,1-.87-.41,1.89,1.89,0,0,1-.61-.76,9,9,0,0,1-.51-1.91,3,3,0,0,0-.34-.92,1.43,1.43,0,0,0-.71-.62,5.35,5.35,0,0,0-1.34-.19,2,2,0,0,1-.68-.17,1.32,1.32,0,0,1-.54-.45,4.68,4.68,0,0,1-.5-1.24,3.07,3.07,0,0,0-.61-1.09,2.91,2.91,0,0,0-2.11-1,3,3,0,0,0-2.06.74l-.07.06,0-.08a4.64,4.64,0,0,0-2.88-2.48,4.35,4.35,0,0,0-1.62-.14,3.83,3.83,0,0,0-1.33.37A3.54,3.54,0,0,0,63.44,102l0,.12s0,0,0,0l0,0,0-.12a2.55,2.55,0,0,1,.22-.47,3.43,3.43,0,0,1,1.42-1.35,4.11,4.11,0,0,1,1.35-.39,4.35,4.35,0,0,1,1.66.13,4.71,4.71,0,0,1,3,2.53l-.1,0a3.2,3.2,0,0,1,2.15-.79,3.09,3.09,0,0,1,2.21,1,3.18,3.18,0,0,1,.64,1.15,4.66,4.66,0,0,0,.49,1.2,1.44,1.44,0,0,0,1.11.56,5.1,5.1,0,0,1,1.38.19,1.62,1.62,0,0,1,.79.69,3.08,3.08,0,0,1,.35,1,10,10,0,0,0,.5,1.88,1.8,1.8,0,0,0,.57.71,2.67,2.67,0,0,0,.82.38,7.38,7.38,0,0,1,1.73.6,1.93,1.93,0,0,1,.64.63,2.8,2.8,0,0,1,.3.82,4.33,4.33,0,0,1-.08,1.65,13.69,13.69,0,0,0-.63,2.84c0,.44.06.86.07,1.27a3,3,0,0,1-.14,1.14,1.58,1.58,0,0,1-.58.81,3.09,3.09,0,0,1-.78.31,1.54,1.54,0,0,0-.59.28.93.93,0,0,0-.28.38A.58.58,0,0,0,81.6,121.55Z"/><path class="cls-5" d="M91,114.05s0,0-.05-.09l-.14-.27c-.12-.25-.28-.6-.5-1s-.46-1-.81-1.65a4.41,4.41,0,0,0-1.63-1.74c-.39-.21-.84-.35-1.3-.55a4.08,4.08,0,0,1-.66-.39,1.61,1.61,0,0,1-.49-.63c-.23-.51-.24-1.08-.42-1.6a1.41,1.41,0,0,0-.47-.66,2.53,2.53,0,0,0-.78-.36,5.06,5.06,0,0,1-.86-.33,1.6,1.6,0,0,1-.66-.68,7.19,7.19,0,0,1-.41-1.88,2.28,2.28,0,0,0-.33-.89,1.19,1.19,0,0,0-.76-.51c-.64-.13-1.33.09-2,0a1.76,1.76,0,0,1-.93-.49,4.32,4.32,0,0,1-.6-.84c-.18-.29-.34-.58-.53-.83a1.83,1.83,0,0,0-.72-.61,2.8,2.8,0,0,0-1.83,0,4.26,4.26,0,0,1-1.84.16,4.87,4.87,0,0,1-1.6-.73,8.81,8.81,0,0,0-1.43-.79,5,5,0,0,0-2.87-.09,5.3,5.3,0,0,0-2.13,1.1A6.15,6.15,0,0,0,63,99a8.21,8.21,0,0,0-.5,1l-.11.28c0,.06,0,.1,0,.1l0-.1c0-.07.06-.17.1-.29A6.55,6.55,0,0,1,63,99a5.75,5.75,0,0,1,1.18-1.42,5.37,5.37,0,0,1,2.15-1.14,5.14,5.14,0,0,1,3,.08,8.21,8.21,0,0,1,1.45.79,4.61,4.61,0,0,0,1.56.71,4.21,4.21,0,0,0,1.78-.16,6,6,0,0,1,.94-.17,2,2,0,0,1,1,.16,1.87,1.87,0,0,1,.77.65,7.61,7.61,0,0,1,.54.85,4.24,4.24,0,0,0,.59.8,1.48,1.48,0,0,0,.85.45c.66.11,1.34-.11,2,0a1.35,1.35,0,0,1,.85.56,2.44,2.44,0,0,1,.35,1,7.07,7.07,0,0,0,.4,1.84,1.41,1.41,0,0,0,.6.63,4.91,4.91,0,0,0,.83.32,2.93,2.93,0,0,1,.82.38,1.55,1.55,0,0,1,.51.73c.19.55.19,1.11.41,1.59a1.94,1.94,0,0,0,1.09,1c.44.2.9.35,1.3.57A4.36,4.36,0,0,1,89.58,111c.35.63.58,1.2.79,1.66l.48,1.06L91,114A.55.55,0,0,1,91,114.05Z"/><path class="cls-5" d="M85.85,109l.09,0a.47.47,0,0,1,.25.06,1.05,1.05,0,0,1,.49.86,2.74,2.74,0,0,1-.11.72,2.84,2.84,0,0,0-.12.84,1.82,1.82,0,0,0,.34.9c.19.29.43.58.62.92a1.37,1.37,0,0,1,.12,1.22c-.15.42-.45.76-.6,1.18a1.83,1.83,0,0,0,.13,1.33c.19.45.46.88.65,1.37a2.26,2.26,0,0,1,.15.79,2,2,0,0,1-.18.8,10.35,10.35,0,0,1-.92,1.38,2.17,2.17,0,0,0-.51,1.53,7.16,7.16,0,0,0,.58,1.64,2.25,2.25,0,0,1,.18.89,2,2,0,0,1-.22.87,7.64,7.64,0,0,1-1.05,1.37,4.12,4.12,0,0,0-.85,1.37,10.69,10.69,0,0,1-.5,1.51,1.75,1.75,0,0,1-.49.62,2.31,2.31,0,0,1-.69.33,4.83,4.83,0,0,0-.67.24,2.63,2.63,0,0,0-.56.38,5.19,5.19,0,0,0-.79,1c-.22.36-.43.71-.66,1a3.25,3.25,0,0,1-1.69,1.24,3.48,3.48,0,0,1-1.58.15,3.26,3.26,0,0,1-1-.28,2.61,2.61,0,0,1-.3-.17,3.77,3.77,0,0,0,1.27.4,3.53,3.53,0,0,0,1.55-.18,3.2,3.2,0,0,0,1.63-1.22c.23-.32.43-.67.65-1A4.79,4.79,0,0,1,81.9,132a2.49,2.49,0,0,1,.59-.41c.22-.1.45-.17.68-.25a2,2,0,0,0,.65-.31,1.5,1.5,0,0,0,.45-.57,10.41,10.41,0,0,0,.49-1.49,4.1,4.1,0,0,1,.87-1.42,7.83,7.83,0,0,0,1-1.34,2.07,2.07,0,0,0,.21-.81,2.26,2.26,0,0,0-.18-.84,7.36,7.36,0,0,1-.59-1.67,1.77,1.77,0,0,1,.12-.88,3.44,3.44,0,0,1,.42-.75,9.49,9.49,0,0,0,.91-1.36,1.78,1.78,0,0,0,.17-.74,1.84,1.84,0,0,0-.14-.74c-.18-.48-.44-.91-.64-1.36a2,2,0,0,1-.12-1.43c.16-.45.46-.79.61-1.18a1.28,1.28,0,0,0-.11-1.13c-.18-.33-.42-.62-.61-.92a1.92,1.92,0,0,1-.34-.94,2.83,2.83,0,0,1,.13-.86,2.45,2.45,0,0,0,.12-.71,1,1,0,0,0-.44-.83A.53.53,0,0,0,85.85,109Z"/><path class="cls-10" d="M67.34,124.68a.67.67,0,0,1,.84-.36l3,1.11.34.13a7.5,7.5,0,0,1-.67,1.78,1.87,1.87,0,0,1-1.32.92,2.11,2.11,0,0,1-1.27-.31,2.52,2.52,0,0,1-1.35-1.54A3.71,3.71,0,0,1,67.34,124.68Z"/><path class="cls-2" d="M50.85,124.63a2.61,2.61,0,0,0-.72.42A3.29,3.29,0,0,0,49,127a3.44,3.44,0,0,0,0,1.59,3.87,3.87,0,0,0,.89,1.6,3.92,3.92,0,0,0,1.68,1.1,3.69,3.69,0,0,0,2.16.05,3.93,3.93,0,0,0,1.85-1.13,3.58,3.58,0,0,0,.88-1.81,3.78,3.78,0,0,0-1-3.19,3.7,3.7,0,0,0-2.06-1,2,2,0,0,0-.63,0c-.14,0-.21.06-.2.07a2.38,2.38,0,0,1,.82,0,3.68,3.68,0,0,1,.92.27,3.36,3.36,0,0,1,1,.71,3.63,3.63,0,0,1,.88,3.07,3.43,3.43,0,0,1-.84,1.72,3.78,3.78,0,0,1-1.77,1.07,3.49,3.49,0,0,1-2.05,0,3.86,3.86,0,0,1-2.48-2.57,3.38,3.38,0,0,1,1-3.43C50.58,124.77,50.86,124.65,50.85,124.63Z"/><path class="cls-4" d="M66.92,118.39a1.05,1.05,0,0,1-1,1.1,1,1,0,0,1-1.12-.9,1,1,0,0,1,1-1.1A1,1,0,0,1,66.92,118.39Z"/><path class="cls-4" d="M77,118.13a1,1,0,0,1-1,1.1,1,1,0,0,1-1.13-.9,1.05,1.05,0,0,1,1-1.1A1,1,0,0,1,77,118.13Z"/><path class="cls-4" d="M76.61,114.26c-.11.15-.91-.39-1.94-.28s-1.72.8-1.85.67,0-.34.32-.65a2.33,2.33,0,0,1,1.46-.71,2.36,2.36,0,0,1,1.56.39C76.52,113.93,76.66,114.18,76.61,114.26Z"/><path class="cls-4" d="M66.74,115.11c-.15.16-1-.53-2.27-.52s-2.15.68-2.28.52.07-.36.46-.67a3,3,0,0,1,3.64,0C66.67,114.74,66.81,115,66.74,115.11Z"/><path class="cls-4" d="M70.25,127.89s-.08.13-.33.24a1.87,1.87,0,0,1-1.13.1,3,3,0,0,1-1.48-.79,1.87,1.87,0,0,1-.51-.9,2.51,2.51,0,0,1,0-1.09,4.62,4.62,0,0,1,.39-1,.72.72,0,0,1,.44-.41.93.93,0,0,1,.55.09l1.5.61a5.77,5.77,0,0,1,1.36.64,7.7,7.7,0,0,1-1.44-.43l-1.53-.54c-.31-.13-.45-.11-.6.19a4.85,4.85,0,0,0-.35.92,1.76,1.76,0,0,0,.38,1.71,2.88,2.88,0,0,0,1.32.77,2,2,0,0,0,1,0C70.12,127.94,70.24,127.86,70.25,127.89Z"/><path class="cls-4" d="M90.5,94a6.52,6.52,0,0,0-1.32-.76A4.81,4.81,0,0,0,87.43,93a4.28,4.28,0,0,0-2.21.64l-.11.07-.06-.11a4,4,0,0,0-2.43-1.79,4.1,4.1,0,0,0-3.41.54l-.13.09L79,92.29a6.48,6.48,0,0,0-4.14-2.51,6.23,6.23,0,0,0-3.78.57,6.34,6.34,0,0,0-2.62,2.33l0,.06h-.08a9.75,9.75,0,0,0-3.91,1,10.22,10.22,0,0,0-2.61,1.78A14.69,14.69,0,0,0,60,97.64s0-.06.08-.17.14-.28.27-.48a9,9,0,0,1,1.31-1.62,10.05,10.05,0,0,1,2.62-1.88,10,10,0,0,1,4-1l-.12.07a6.75,6.75,0,0,1,2.73-2.46,6.6,6.6,0,0,1,4-.61,6.82,6.82,0,0,1,4.34,2.65l-.21,0a4.33,4.33,0,0,1,3.66-.56,4.21,4.21,0,0,1,2.57,1.94l-.17,0a4.47,4.47,0,0,1,2.34-.62,4.54,4.54,0,0,1,1.8.38,4.22,4.22,0,0,1,1,.6A1.87,1.87,0,0,1,90.5,94Z"/><path class="cls-4" d="M57.66,92.35a3,3,0,0,1-1.21.3,4.41,4.41,0,0,1-3.19-1.15,4,4,0,0,1-1.18-2.09,4.44,4.44,0,0,1,.27-2.76,4.06,4.06,0,0,1,2.22-2.14,4.43,4.43,0,0,1,3.34,0l-.19,0a3.1,3.1,0,0,1,1.82-1,3.32,3.32,0,0,1,1.77.15,2.93,2.93,0,0,1,1.34,1.09,3.24,3.24,0,0,1,.28,3.15l-.22-.2a2.7,2.7,0,0,1,2.5-.05,2.74,2.74,0,0,1,1.47,1.74,3.51,3.51,0,0,1-1,3.48A4.41,4.41,0,0,1,63.58,94a3.2,3.2,0,0,1-.64.08h-.22s.3,0,.83-.18a4.41,4.41,0,0,0,2-1.14,3.34,3.34,0,0,0,.85-3.28,2.46,2.46,0,0,0-1.35-1.55,2.37,2.37,0,0,0-2.21,0l-.44.27.22-.46a2.94,2.94,0,0,0-.27-2.84,2.51,2.51,0,0,0-1.19-1,3,3,0,0,0-1.59-.14,2.79,2.79,0,0,0-1.63.93l-.08.09-.11,0a4.13,4.13,0,0,0-3.09,0,3.85,3.85,0,0,0-2.08,2,4.31,4.31,0,0,0-.28,2.6,3.79,3.79,0,0,0,1.08,2,4.32,4.32,0,0,0,3,1.19A6,6,0,0,0,57.66,92.35Z"/><path class="cls-4" d="M34.62,105s0-.06-.1-.18a3.55,3.55,0,0,1-.18-.57A5.15,5.15,0,0,1,36,99.05a5.37,5.37,0,0,1,4.08-1.25l-.16.09a6.44,6.44,0,0,1,3.27-3.08,6.17,6.17,0,0,1,3.4-.39,6.39,6.39,0,0,1,2.87,1.24h-.16a7.06,7.06,0,0,1,3.45-.82,7.33,7.33,0,0,1,2.7.55,6.45,6.45,0,0,1,1.54.89,2.71,2.71,0,0,1,.47.43,10,10,0,0,0-2.08-1.16,7.36,7.36,0,0,0-2.63-.47,7,7,0,0,0-3.31.84l-.08,0-.08-.06a6.11,6.11,0,0,0-2.75-1.17,6,6,0,0,0-3.22.38A6.15,6.15,0,0,0,40.19,98l0,.1-.11,0a5.19,5.19,0,0,0-3.88,1.14A4.9,4.9,0,0,0,34.48,102a5.27,5.27,0,0,0,0,2.16C34.54,104.68,34.64,104.94,34.62,105Z"/><path class="cls-9" d="M120.9,194.79l-2.73-4.13-4.38-2.2-.17-.12a5.85,5.85,0,0,0-5-.92c-1.79.47-4.17,1.07-6.23,1.42l-4.72-1.29v9.2l23.78-1.5Z"/><path class="cls-10" d="M120.73,194.54a5.27,5.27,0,0,0-1-.92c-.65-.54-1.55-1.27-2.55-2.06l-1-.73,0,0h0c-1-.19-1.82-.34-2.42-.43a4.36,4.36,0,0,0-1-.1,3.22,3.22,0,0,0,.94.28c.6.14,1.44.33,2.41.53l-.06,0,.93.74c1,.79,1.93,1.49,2.61,2A6.81,6.81,0,0,0,120.73,194.54Z"/><path class="cls-10" d="M118.88,195.34a26.88,26.88,0,0,0-3.42-2.07l-.83-.45,0,0h0a17.81,17.81,0,0,0-3-.05,18.69,18.69,0,0,0,3,.34l-.06,0,.83.46A26.94,26.94,0,0,0,118.88,195.34Z"/><path class="cls-2" d="M148.58,168.76a1.81,1.81,0,0,0-2.35.5L127.08,195.2l-30.3.41c-1.21.07-2.68,2.52-1.6,3.7l34.22-.47,19.76-27.45A1.8,1.8,0,0,0,148.58,168.76Z"/><path class="cls-6" d="M56.78,138.72a10.1,10.1,0,0,0-5.1,2.37,17.25,17.25,0,0,0-4.07,6.68c-1,3-.56,15-.56,18.48s.88,16.5,1.32,18.67a13.69,13.69,0,0,1-1.29,7.48c-1.8,3.77,1,5.69,1,5.69l37.19-.28-.15-1.38c-.26-2.42.64-4.88-.28-7.13a23.27,23.27,0,0,1-1.71-10.42c.47-6.2,2.33-10.42,1.19-14-1.74-5.48-7.46-18-14.38-23.27,0,0-5.46-1.17-6.69-1.61C60.45,139,59,138.47,56.78,138.72Z"/><path class="cls-6" d="M100.5,186.48l-31.77-6.63-.82-27.58S66.8,141,61.17,140L47.61,156.86c.75,8.51.06,24.61,4,30.81s7.71,11.19,17.34,10.75,30.85-.65,30.85-.65Z"/><path class="cls-4" d="M68.79,180c.08.06-.69,1.06-1.33,2.44s-.92,2.61-1,2.59a6,6,0,0,1,.72-2.72A6.23,6.23,0,0,1,68.79,180Z"/><g class="cls-7"><path d="M67.69,151.09c3.17,9.75,2.48,24.78,8.54,30.32l-7.5-1.56a38.21,38.21,0,0,0,.06-5.3c-.61-7.71-.68-15.55-1.1-23.46"/></g><path class="cls-4" d="M67,147.61a16.44,16.44,0,0,1,.56,2.21,25.41,25.41,0,0,1,.39,2.73c.1,1.08.12,2.34.17,3.74.18,5.63.44,13.71.76,23.55l-.11-.12,31.78,6.61.13,0v.14c-.24,3.61-.48,7.42-.73,11.29v.15h-.15l-3.87,0c-5.52.06-10.91.15-16.11.26-2.61.06-5.16.12-7.66.21a42.08,42.08,0,0,1-7.37-.08,16,16,0,0,1-3.45-.89,14.73,14.73,0,0,1-3.05-1.67,20.61,20.61,0,0,1-4.58-4.76c-.62-.87-1.21-1.74-1.76-2.61l-.41-.64c-.13-.22-.24-.45-.37-.68l-.35-.67c-.09-.23-.18-.47-.28-.7a26.91,26.91,0,0,1-1.41-5.51,83.51,83.51,0,0,1-.93-9.73c-.15-2.87-.21-5.35-.28-7.37s-.14-3.59-.19-4.65c0-.53-.06-.93-.08-1.21s0-.42,0-.42,0,.14,0,.41l.11,1.21c.08,1.06.17,2.63.25,4.66s.18,4.49.34,7.36a85.61,85.61,0,0,0,1,9.7,26.39,26.39,0,0,0,1.43,5.46l.27.69.35.65c.12.22.23.44.36.66l.41.64c.55.87,1.14,1.73,1.75,2.59a20.73,20.73,0,0,0,4.53,4.69,14.64,14.64,0,0,0,3,1.63,16.16,16.16,0,0,0,3.4.87,41.37,41.37,0,0,0,7.31.06c2.5-.09,5.06-.16,7.66-.21,5.21-.12,10.6-.21,16.12-.28l3.86,0-.16.15c.26-3.87.5-7.68.74-11.29l.13.16L68.7,180l-.1,0v-.1c-.27-9.85-.49-17.93-.65-23.55,0-1.41,0-2.66-.13-3.74s-.22-2-.35-2.73-.26-1.28-.35-1.66c-.05-.18-.08-.31-.11-.42Z"/><polygon class="cls-9" points="117.98 254.18 113.26 288.93 125.6 290.95 134.38 260.12 117.98 254.18"/><path class="cls-5" d="M80.56,200.78s45.11-3,54.47-1.47c5.66.9,10.54,9.74,7.45,15.06-1.46,2.51-3.75,10.35-3.75,10.35l-24.25-5.53Z"/><polygon class="cls-9" points="114.48 224.72 104.72 239.62 116.21 247.06 128.68 227.96 114.48 224.72"/><path class="cls-5" d="M49,198.05s-4.77,21,2.93,29.27c5.47,5.88,18.92,5.26,30.27,5.26s38-.62,38-.62-1.2,7.38-2.09,15.79-1.06,13.72-1.06,13.72L134,262.89s9.43-28.69,10.88-34.37,1-13.31-4.06-16.14c-4.24-2.4-37.74-11.69-53.78-13.07l-1.74-1.5Z"/><path class="cls-4" d="M128.49,225.05c0,.06-.65.15-1.65.51a9.59,9.59,0,0,0-1.69.79,11.85,11.85,0,0,0-1.85,1.33,12.32,12.32,0,0,0-1.52,1.7,10.71,10.71,0,0,0-1,1.6c-.46,1-.62,1.61-.67,1.6s0-.17.06-.47a6.92,6.92,0,0,1,.41-1.22,8.66,8.66,0,0,1,.92-1.68,10,10,0,0,1,5.22-3.87,7.85,7.85,0,0,1,1.26-.27A1.53,1.53,0,0,1,128.49,225.05Z"/><path class="cls-4" d="M126.49,207.73a4.61,4.61,0,0,1,.89-1.75,4.67,4.67,0,0,1,1.3-1.47,27.92,27.92,0,0,1-2.19,3.22Z"/><path class="cls-4" d="M145.57,220.54a.7.7,0,0,1,0-.16l-.12-.49c-.1-.42-.25-1-.5-1.82a14.25,14.25,0,0,0-1.21-2.74,6.74,6.74,0,0,0-2.72-2.74,74.44,74.44,0,0,0-9.75-3.47c-3.74-1.12-7.87-2.3-12.22-3.45-8.71-2.32-16.71-4-22.53-4.94-2.91-.49-5.28-.83-6.91-1l-1.89-.26-.49-.07-.16,0h.17l.49.05,1.89.19c1.64.19,4,.49,6.93,1a227.58,227.58,0,0,1,22.58,4.85c4.36,1.15,8.48,2.34,12.22,3.48a72.8,72.8,0,0,1,9.77,3.54,7,7,0,0,1,2.78,2.86A13.11,13.11,0,0,1,145,218a17.31,17.31,0,0,1,.46,1.85l.08.49A1.06,1.06,0,0,1,145.57,220.54Z"/><path class="cls-4" d="M126.56,290.05l.41-1.51a23.41,23.41,0,0,1-13.62-5.87l-4.18,9,27.89,12.4C138.11,301.44,126.56,290.05,126.56,290.05Z"/><path class="cls-2" d="M109.17,291.71l1-2.2,26.41,12.73s1,1.08.46,1.87Z"/><path class="cls-2" d="M126.19,289.88c-.07.13-.78-.12-1.65,0s-1.48.53-1.58.42.46-.78,1.51-.92S126.28,289.77,126.19,289.88Z"/><path class="cls-2" d="M115.34,288.91a.82.82,0,0,1-1.07.37.78.78,0,0,1-.38-1,.82.82,0,0,1,1.07-.37A.78.78,0,0,1,115.34,288.91Z"/><path class="cls-2" d="M126,289.69a2,2,0,0,1-.63-.12,3.29,3.29,0,0,1-1.57-.83,2.51,2.51,0,0,1-.36-.48,1.4,1.4,0,0,1-.23-.64.68.68,0,0,1,.43-.69,1,1,0,0,1,.85,0,3.11,3.11,0,0,1,1.72,2.72l-.41-.06a3.4,3.4,0,0,1,3.3-2.34,1.08,1.08,0,0,1,.47.1.61.61,0,0,1,.31.41,1.07,1.07,0,0,1-.2.8,2.41,2.41,0,0,1-1.07.86,4.32,4.32,0,0,1-1.91.29,2.64,2.64,0,0,1-.7-.06,2.05,2.05,0,0,1,.7-.1,4.75,4.75,0,0,0,1.78-.39,2.26,2.26,0,0,0,.91-.78.74.74,0,0,0,.13-.54c0-.16-.17-.21-.42-.21a3.11,3.11,0,0,0-2.66,1.53,3.28,3.28,0,0,0-.24.55.21.21,0,0,1-.26.14.21.21,0,0,1-.15-.2,2.8,2.8,0,0,0-1.46-2.39c-.38-.2-.82,0-.79.3a1.8,1.8,0,0,0,.48.95,3.55,3.55,0,0,0,1.4.88C125.82,289.58,126,289.66,126,289.69Z"/><path class="cls-2" d="M128.33,291.81a9.54,9.54,0,0,0-1.85.13,10.76,10.76,0,0,0-1.69.75,2.93,2.93,0,0,1,3.54-.88Z"/><path class="cls-2" d="M129.88,293.58c0,.09-.76.07-1.63.34s-1.49.68-1.55.6a2.42,2.42,0,0,1,1.46-.91A2.39,2.39,0,0,1,129.88,293.58Z"/><path class="cls-4" d="M118.4,245.38l.66-1.41a23.46,23.46,0,0,1-12.44-8.08L101,244.1,126.38,261C127.86,258.56,118.4,245.38,118.4,245.38Z"/><path class="cls-2" d="M101,244.1l1.38-2,23.88,17s.8,1.23.14,1.92Z"/><path class="cls-8" d="M118.06,245.15c-.09.12-.75-.24-1.62-.26s-1.56.27-1.64.14.59-.69,1.65-.65S118.16,245.06,118.06,245.15Z"/><path class="cls-2" d="M107.53,242.37a.82.82,0,0,1-1.12.18.77.77,0,0,1-.2-1.09.82.82,0,0,1,1.12-.19A.79.79,0,0,1,107.53,242.37Z"/><path class="cls-8" d="M117.93,244.94a2,2,0,0,1-.61-.22,3.46,3.46,0,0,1-1.4-1.09,2.43,2.43,0,0,1-.28-.53,1.57,1.57,0,0,1-.12-.67.69.69,0,0,1,.55-.61,1.07,1.07,0,0,1,.82.18,3.1,3.1,0,0,1,1.24,3l-.39-.13a3.76,3.76,0,0,1,.38-.57,3.42,3.42,0,0,1,3.26-1.17,1.09,1.09,0,0,1,.45.17.59.59,0,0,1,.24.46,1.07,1.07,0,0,1-.33.76,2.44,2.44,0,0,1-1.2.66,4.27,4.27,0,0,1-1.93,0,2.34,2.34,0,0,1-.68-.17,2,2,0,0,1,.7,0,4.51,4.51,0,0,0,1.83-.08,2.25,2.25,0,0,0,1-.61.8.8,0,0,0,.22-.51c0-.16-.13-.24-.38-.28a3.09,3.09,0,0,0-2.87,1.06,2.6,2.6,0,0,0-.34.5.21.21,0,0,1-.39-.12,2.79,2.79,0,0,0-1-2.61c-.34-.26-.8-.16-.82.17a1.81,1.81,0,0,0,.3,1,3.46,3.46,0,0,0,1.24,1.1C117.75,244.8,117.94,244.91,117.93,244.94Z"/><path class="cls-8" d="M119.84,247.42a10.63,10.63,0,0,0-1.84-.19,10.31,10.31,0,0,0-1.79.46,2.36,2.36,0,0,1,1.77-.78A2.3,2.3,0,0,1,119.84,247.42Z"/><path class="cls-8" d="M121.08,249.42c0,.1-.77,0-1.67.06s-1.59.42-1.63.34a2.4,2.4,0,0,1,1.59-.66A2.51,2.51,0,0,1,121.08,249.42Z"/><path class="cls-8" d="M307.27,184.87a4.7,4.7,0,0,1,4.57,0l20.88,11.8a4.28,4.28,0,0,1,2.17,3.7V224a4.34,4.34,0,0,1-2.33,3.78l-20.81,11.74a4.53,4.53,0,0,1-4.62-.13l-6.24-3.61a3.61,3.61,0,0,1-1.21-.86c.27-.36.74-.4,1.13-.56a14.88,14.88,0,0,0,2.46-1.15.56.56,0,0,1,.64,0c1.78,1,3.54,2.07,5.33,3.08.38.22.77-.07,1.09-.26l20.43-11.53a.67.67,0,0,0,.37-.66q0-11.72,0-23.42a.73.73,0,0,0-.43-.73L310,188.08a.72.72,0,0,0-.81,0l-20.73,11.7a.69.69,0,0,0-.44.72v23.42a.65.65,0,0,0,.37.66l5.54,3.12a4.27,4.27,0,0,0,3.46.47,2.63,2.63,0,0,0,1.7-2.47c0-7.76,0-15.52,0-23.28a.59.59,0,0,1,.64-.6c.88,0,1.77,0,2.66,0a.62.62,0,0,1,.58.71c0,7.81,0,15.61,0,23.42a6,6,0,0,1-2.78,5.37,8.53,8.53,0,0,1-7.64-.21c-2-1-4-2.21-6-3.29a4.35,4.35,0,0,1-2.33-3.79V200.37a4.29,4.29,0,0,1,2.24-3.75Z"/><path class="cls-8" d="M313.32,201.26c3-.19,6.26-.11,9,1.38a6.81,6.81,0,0,1,3.31,5.88.64.64,0,0,1-.69.47c-.88,0-1.76,0-2.63,0-.38,0-.59-.33-.64-.66a4,4,0,0,0-1.92-2.77,11.32,11.32,0,0,0-5.26-.75,7.11,7.11,0,0,0-3.76.94,2.38,2.38,0,0,0-.8,2.66c.28.67,1.06.89,1.69,1.09,3.65.95,7.51.86,11.09,2.11a5.22,5.22,0,0,1,3.43,3.06,6.56,6.56,0,0,1-1.1,6.23,8.72,8.72,0,0,1-4.69,2.52,22.38,22.38,0,0,1-7.07.3,11.06,11.06,0,0,1-6.22-2.34,6.49,6.49,0,0,1-2.11-5.15.6.6,0,0,1,.65-.52h2.65a.63.63,0,0,1,.63.62,4.08,4.08,0,0,0,1.5,2.82c1.79,1.16,4.05,1.08,6.11,1.11,1.7-.08,3.61-.1,5-1.23a2.77,2.77,0,0,0,.76-2.64c-.22-.78-1-1.14-1.74-1.38-3.6-1.14-7.5-.72-11.07-2a5.41,5.41,0,0,1-3.4-3,6.08,6.08,0,0,1,1.21-6.31,9.85,9.85,0,0,1,6.08-2.45Z"/></svg>