<svg id="Layer_1" data-name="Layer 1" xmlns="http://www.w3.org/2000/svg" viewBox="0 0 549.91 335.63"><defs><style>.cls-1{fill:#ff735d;}.cls-2{fill:#fff;}.cls-3,.cls-4{fill:#e1e1e1;}.cls-3{fill-rule:evenodd;}.cls-5{fill:none;}.cls-6{fill:#ececec;}.cls-7{fill:#1a2e35;}.cls-8{fill:#ff4f5b;}.cls-9{fill:#fafafa;}.cls-10{fill:#375a64;}.cls-11{fill:#ffbf9d;}.cls-12{fill:#ff9a6c;}.cls-13{opacity:0.3;}.cls-14{opacity:0.4;}.cls-15{fill:#c78976;}.cls-16{fill:#bf654e;}.cls-17{opacity:0.2;}</style></defs><circle class="cls-1" cx="299.36" cy="53.98" r="44.19"/><path class="cls-2" d="M331.7,54c0-4.28-5.37-8.35-13.6-10.86,1.9-8.39,1.06-15.06-2.66-17.19a5.7,5.7,0,0,0-2.95-.74v2.94a3.11,3.11,0,0,1,1.5.34c1.79,1,2.57,4.94,2,10-.14,1.24-.38,2.54-.67,3.88a63,63,0,0,0-8.37-1.44,65.57,65.57,0,0,0-5.48-6.59c4.29-4,8.33-6.19,11.07-6.19V25.18c-3.63,0-8.37,2.59-13.17,7.07-4.8-4.46-9.54-7-13.17-7v2.94c2.73,0,6.78,2.17,11.07,6.14a62.65,62.65,0,0,0-5.44,6.58,61.73,61.73,0,0,0-8.39,1.45c-.3-1.32-.52-2.6-.68-3.82-.62-5,.14-9,1.92-10a3,3,0,0,1,1.52-.34V25.25a5.88,5.88,0,0,0-3,.74c-3.7,2.13-4.53,8.79-2.62,17.15C272.36,45.67,267,49.72,267,54s5.36,8.35,13.59,10.86c-1.9,8.39-1.06,15.06,2.66,17.19a5.72,5.72,0,0,0,3,.74c3.62,0,8.37-2.58,13.17-7.06,4.8,4.45,9.54,7,13.17,7a5.88,5.88,0,0,0,3-.74c3.7-2.13,4.53-8.79,2.62-17.15,8.18-2.52,13.52-6.58,13.52-10.85ZM314.53,45.2c-.49,1.7-1.09,3.45-1.78,5.2-.54-1-1.11-2.11-1.73-3.16s-1.25-2.08-1.89-3.08a54.93,54.93,0,0,1,5.4,1Zm-6,14c-1,1.78-2.08,3.46-3.17,5-2,.17-4,.27-6,.27s-4-.1-5.94-.25c-1.09-1.57-2.16-3.25-3.19-5s-1.91-3.48-2.74-5.25c.82-1.77,1.74-3.53,2.73-5.26s2.08-3.47,3.18-5q2.94-.25,6-.26c2,0,4,.09,5.93.25,1.09,1.57,2.16,3.24,3.19,5s1.91,3.48,2.74,5.25c-.83,1.76-1.74,3.53-2.73,5.26Zm4.26-1.72c.71,1.77,1.32,3.54,1.82,5.25-1.73.42-3.55.78-5.43,1,.64-1,1.29-2,1.9-3.12s1.17-2.12,1.71-3.18ZM299.38,71.59c-1.22-1.27-2.45-2.68-3.66-4.22,1.18,0,2.4.09,3.62.09s2.47,0,3.67-.09A52,52,0,0,1,299.38,71.59Zm-9.81-7.77a54.93,54.93,0,0,1-5.4-1c.49-1.7,1.09-3.45,1.78-5.2.54,1.05,1.11,2.11,1.73,3.16S288.93,62.82,289.57,63.82Zm9.75-27.43c1.22,1.27,2.45,2.68,3.66,4.22-1.18,0-2.4-.09-3.62-.09s-2.47,0-3.67.09A52,52,0,0,1,299.32,36.39Zm-9.76,7.77c-.64,1-1.29,2.05-1.9,3.12s-1.17,2.11-1.71,3.16c-.71-1.76-1.32-3.53-1.82-5.24,1.73-.41,3.55-.77,5.43-1Zm-11.93,16.5c-4.67-2-7.69-4.6-7.69-6.67s3-4.69,7.69-6.67c1.13-.49,2.37-.92,3.65-1.33a63,63,0,0,0,3,8,62.54,62.54,0,0,0-2.93,8c-1.3-.41-2.54-.86-3.69-1.35Zm7.09,18.84c-1.79-1-2.57-4.94-2-10,.14-1.24.38-2.54.67-3.88a63.33,63.33,0,0,0,8.37,1.44,64.3,64.3,0,0,0,5.49,6.59c-4.3,4-8.34,6.19-11.08,6.19a3.31,3.31,0,0,1-1.49-.36Zm31.27-10c.62,5-.14,9-1.92,10a3,3,0,0,1-1.52.34c-2.73,0-6.77-2.18-11.07-6.14a62.65,62.65,0,0,0,5.44-6.58,63.32,63.32,0,0,0,8.39-1.45A36.47,36.47,0,0,1,316,69.45Zm5.08-8.79c-1.13.49-2.37.92-3.65,1.33a63,63,0,0,0-3-8,62.54,62.54,0,0,0,2.93-8c1.3.41,2.54.86,3.7,1.35,4.67,2,7.69,4.6,7.69,6.67s-3,4.69-7.7,6.67Z"/><circle class="cls-2" cx="299.34" cy="53.99" r="6.02"/><path class="cls-3" d="M497,59a43.31,43.31,0,0,1,9.42,6.63L516.46,62l9.45,14.92-7.53,7.57a43.57,43.57,0,0,1,2,11.35l9.64,4.58-3.87,17.24-10.67,0a43.69,43.69,0,0,1-6.64,9.42l3.58,10.06-14.92,9.46-7.57-7.54a43.57,43.57,0,0,1-11.35,2L474,150.7l-17.24-3.87,0-10.67a43.35,43.35,0,0,1-9.42-6.64l-10.06,3.58-9.46-14.92,7.54-7.57a43.5,43.5,0,0,1-2-11.35l-9.64-4.58,3.87-17.24,10.67,0A43.69,43.69,0,0,1,444.88,68L441.3,57.94l14.92-9.45L463.79,56a43.15,43.15,0,0,1,11.35-2l4.58-9.65L497,48.27,497,59Zm-15.2,20.28a19,19,0,1,0,14.35,22.65A19,19,0,0,0,481.78,79.23Z"/><path class="cls-4" d="M402.14,26a10.64,10.64,0,0,1,3.31,1,14.12,14.12,0,0,1,7.94,13.12,14.25,14.25,0,0,1-2.22,7.23,14.34,14.34,0,0,1-6.33,5.44,14.27,14.27,0,0,1-16.59-3.72,14.48,14.48,0,0,1-3.4-7.63,14.29,14.29,0,0,1,1.08-7.48,14.14,14.14,0,0,1,12.78-8.47,10.51,10.51,0,0,1,3.43.48,34,34,0,0,0-3.42-.17,14,14,0,0,0-8.45,3.34,13.66,13.66,0,0,0-3.73,5.08,13.85,13.85,0,0,0-1,7.13,12.77,12.77,0,0,0,1.07,3.76,12.94,12.94,0,0,0,2.19,3.44,13.59,13.59,0,0,0,15.69,3.52,13.7,13.7,0,0,0,6-5.12,13.65,13.65,0,0,0,1-13,14,14,0,0,0-6.22-6.63A31.06,31.06,0,0,0,402.14,26Z"/><path class="cls-4" d="M413.37,11a2.83,2.83,0,0,1,0-.49c0-.37,0-.86,0-1.49,0-1.37,0-3.34-.08-5.9l.1.12L400.58.43l.22-.11c-1,2.16-2.14,4.57-3.35,7.13l-.06.13h-.14a32.06,32.06,0,0,0-8.31,1.47l-.15,0L388.68,9l-5.61-5.55.36,0-11,7,.12-.38c.83,2.3,1.73,4.83,2.66,7.43l.07.19-.14.14a32,32,0,0,0-4.83,6.89l-.1.19H370l-7.88,0,.35-.27c-.89,4-1.85,8.31-2.84,12.73l-.2-.42,7.12,3.37.21.1v.23A31.43,31.43,0,0,0,368.22,49l.07.22-.17.17L362.56,55l.05-.49,7,11-.47-.17,7.43-2.64.22-.08.18.16a31.24,31.24,0,0,0,6.86,4.83h0L384,68h0v3.94c0,1.32,0,2.63,0,3.93l-.31-.39,12.72,2.86-.44.22q1.71-3.6,3.38-7.12l.1-.22h.24A31.87,31.87,0,0,0,408,69.76l.22-.07.17.17L414,75.42l-.47,0,11-7-.15.44-2.63-7.43-.07-.21.14-.16a31.55,31.55,0,0,0,4.86-6.87l.1-.18h8.09l-.33.26,2.88-12.72.17.35-7.11-3.4-.16-.08v-.17a32.14,32.14,0,0,0-1.43-8.31l-.05-.15.12-.12,5.58-5.56,0,.29-6.94-11,.22.07L420.36,16l-.07,0-.06-.06a33.7,33.7,0,0,0-5.06-3.9l-1.36-.81a2.34,2.34,0,0,1-.44-.28l.48.22c.31.16.78.4,1.39.76a31.28,31.28,0,0,1,5.17,3.82l-.14,0,7.41-2.7.14,0,.08.12,7,11,.1.15-.14.14L429.35,30l.07-.27a32.55,32.55,0,0,1,1.49,8.45l-.16-.25,7.12,3.36.23.11-.06.24c-.89,4-1.83,8.25-2.83,12.73l-.06.26h-.26l-7.88,0,.3-.19a31.89,31.89,0,0,1-4.94,7l.08-.36,2.65,7.42.1.28L425,69l-11,7-.26.16-.22-.21-5.59-5.56.39.09A32.09,32.09,0,0,1,399.78,72l.34-.22c-1.11,2.35-2.24,4.72-3.37,7.12l-.14.29-.31-.07-12.73-2.85-.31-.07v-.32c0-1.31,0-2.62,0-3.93V68h0l.22.36h0a32.69,32.69,0,0,1-7-5l.4.08L369.4,66.1l-.31.1-.17-.27-7-11-.17-.26.22-.23,5.57-5.58-.1.39A32.92,32.92,0,0,1,366,40.75l.22.33-7.11-3.39-.27-.13.06-.29c1-4.41,2-8.72,2.87-12.72l.07-.28H370l-.3.19a32.48,32.48,0,0,1,5-7l-.07.34c-.92-2.6-1.82-5.13-2.63-7.43l-.09-.24.22-.14,11-7,.2-.13.16.17,5.57,5.58-.27-.07a32.21,32.21,0,0,1,8.45-1.44l-.2.13c1.23-2.56,2.37-4.95,3.41-7.1l.07-.15.16,0L413.38,3l.1,0v.1c0,2.54,0,4.49-.06,5.85,0,.64,0,1.14,0,1.51A3,3,0,0,1,413.37,11Z"/><path class="cls-5" d="M70.76,197a22.14,22.14,0,0,1,4.17,4.09l5.32-1,3.52,8.23-4.39,3.17a21.94,21.94,0,0,1,.07,5.84l4.45,3.08-3.34,8.31-5.34-.86A21.85,21.85,0,0,1,71.13,232l1,5.33-8.23,3.51-3.17-4.39a21.94,21.94,0,0,1-5.84.07L51.78,241l-8.31-3.34.86-5.34a21.56,21.56,0,0,1-4.17-4.09l-5.33,1L31.32,221l4.39-3.17a21.94,21.94,0,0,1-.07-5.84l-4.45-3.08,3.34-8.31,5.34.86A21.84,21.84,0,0,1,44,197.27L43,192l8.23-3.52,3.17,4.39a21.94,21.94,0,0,1,5.84-.07l3.08-4.45,8.31,3.34L70.76,197Zm-9.26,8.91a9.61,9.61,0,1,0,5.34,12.5A9.61,9.61,0,0,0,61.5,205.89Z"/><path class="cls-4" d="M61.5,205.89A7.22,7.22,0,0,1,63.63,207a9.7,9.7,0,0,1,3.93,9.77,9.8,9.8,0,0,1-2.3,4.65,9.86,9.86,0,0,1-4.89,3A9.78,9.78,0,0,1,49.54,220a9.78,9.78,0,0,1-1.46-5.54,9.88,9.88,0,0,1,1.55-4.95,9.76,9.76,0,0,1,3.27-3.12,9.61,9.61,0,0,1,6.33-1.21,7.16,7.16,0,0,1,2.27.7c0,.07-.8-.3-2.3-.49a9.6,9.6,0,0,0-6.1,1.33,9.44,9.44,0,0,0-4.52,7.76A9.43,9.43,0,0,0,50,219.73a9.28,9.28,0,0,0,10.24,4.11,8.57,8.57,0,0,0,2.58-1.09A8.83,8.83,0,0,0,64.89,221a9.49,9.49,0,0,0-1.38-13.91C62.29,206.23,61.47,206,61.5,205.89Z"/><path class="cls-4" d="M70.76,197a1.4,1.4,0,0,1,0-.33c0-.25.08-.59.14-1l.6-4,0,.09-8.32-3.29.16-.05c-.92,1.35-2,2.86-3.06,4.46l0,.09-.1,0a22.14,22.14,0,0,0-5.79.09h-.11l-.06-.09-3.19-4.37.24.06-8.23,3.53.13-.23c.3,1.64.64,3.46,1,5.32l0,.13-.11.09a22,22,0,0,0-4,4.13l-.08.12-.15,0-5.34-.85.27-.16L31.43,209l-.09-.31,4.45,3.07.13.09,0,.16a21.94,21.94,0,0,0,.07,5.77l0,.16-.13.09-4.38,3.18.09-.33c1.11,2.61,2.31,5.4,3.52,8.24l-.31-.16,5.33-1,.16,0,.11.13a21.25,21.25,0,0,0,4.11,4h0c0,.12-.1-.27.11.26h0v.15l0,.16-.06.34-.1.67-.22,1.34c-.14.89-.28,1.78-.43,2.66l-.17-.29,8.31,3.34-.32.09,3.08-4.45.09-.13.16,0a21.84,21.84,0,0,0,5.77-.06l.16,0,.09.13,3.17,4.39-.31-.09L72,237.13l-.15.28q-.48-2.72-1-5.32l0-.15.12-.09a21.91,21.91,0,0,0,4-4.12l.08-.12.15,0,5.34.87-.25.14,3.35-8.3.08.25-4.44-3.08-.1-.07v-.12a21.49,21.49,0,0,0,0-5.79v-.11l.09-.06,4.39-3.16,0,.2c-1.35-3.2-2.5-5.92-3.48-8.26l.14.08-5.33.94h-.06l0,0a22.94,22.94,0,0,0-3-3.2l-.83-.7c-.19-.16-.28-.23-.27-.24l.3.2c.19.15.49.36.86.67A21.18,21.18,0,0,1,75,201l-.09,0,5.32-1h.1l0,.09,3.55,8.22,0,.12-.11.07-4.37,3.19.07-.17a22.17,22.17,0,0,1,.08,5.89l-.08-.19L84,220.25l.14.09-.06.16c-1.06,2.63-2.16,5.39-3.33,8.31l-.07.17-.18,0-5.34-.84.23-.1a22.31,22.31,0,0,1-4.13,4.23l.09-.24c.33,1.74.65,3.51,1,5.32l0,.2-.19.08L64,241.12l-.19.08-.12-.17-3.18-4.38.25.11a22.46,22.46,0,0,1-5.91.07l.26-.12L52,241.16l-.13.18-.2-.08-8.31-3.33-.21-.09,0-.21c.14-.89.28-1.77.43-2.67l.21-1.34L44,233l0-.33,0-.17,0-.09v-.06h0c.21.52.06.14.1.26h0a22.72,22.72,0,0,1-4.22-4.14l.27.1-5.33,1-.21,0-.09-.2c-1.21-2.83-2.4-5.63-3.51-8.24l-.08-.19.17-.13,4.39-3.17-.11.25a22.48,22.48,0,0,1-.06-5.9l.11.24-4.44-3.08-.17-.11.07-.19c1.17-2.89,2.3-5.7,3.35-8.31l.08-.18.19,0,5.34.87-.23.09a22.07,22.07,0,0,1,4.14-4.21l-.09.22c-.33-1.86-.66-3.68-1-5.33l0-.17.16-.06,8.24-3.5.15-.06.09.13,3.16,4.39-.17-.07a21.91,21.91,0,0,1,5.88,0l-.15.07c1.11-1.6,2.16-3.09,3.09-4.44l.07-.09.1,0,8.29,3.39.07,0,0,.06c-.29,1.72-.52,3-.68,4q-.12.64-.18,1A2.68,2.68,0,0,1,70.76,197Z"/><path class="cls-3" d="M141.4,241.89a38.17,38.17,0,0,1,7.31,7.16l9.33-1.71,6.16,14.44-7.69,5.55a38.54,38.54,0,0,1,.12,10.24l7.8,5.39-5.85,14.56-9.36-1.5a38.46,38.46,0,0,1-7.17,7.3l1.71,9.34-14.43,6.15-5.56-7.68a38.47,38.47,0,0,1-10.23.11l-5.39,7.8-14.57-5.85,1.51-9.36a38.47,38.47,0,0,1-7.31-7.16l-9.33,1.7-6.16-14.43L80,278.38a38.89,38.89,0,0,1-.11-10.23l-7.8-5.39,5.85-14.56,9.36,1.5a38.47,38.47,0,0,1,7.16-7.31l-1.7-9.33,14.43-6.16,5.56,7.69a38.47,38.47,0,0,1,10.23-.12l5.39-7.79,14.56,5.85-1.5,9.36ZM125.18,257.5a16.83,16.83,0,1,0,9.35,21.9A16.85,16.85,0,0,0,125.18,257.5Z"/><polygon class="cls-6" points="140.76 148.94 38.92 148.94 38.92 22.29 116.82 22.52 140.76 48.51 140.76 148.94"/><path class="cls-7" d="M69.39,94.55c-.13.12-1.82-1.4-4.45-4s-6.2-6.19-10.09-10.24l-.43-.46.43-.45,0-.05c3.87-4.08,7.43-7.73,10-10.33s4.32-4.13,4.45-4-1.32,1.9-3.77,4.66-5.9,6.5-9.77,10.59l0,0v-.91c3.88,4.06,7.34,7.78,9.8,10.51S69.52,94.42,69.39,94.55Z"/><path class="cls-7" d="M110.25,65c.14-.12,1.83,1.4,4.46,4s6.19,6.18,10.08,10.23l.43.46-.43.45,0,0c-3.87,4.08-7.43,7.73-10,10.33s-4.31,4.13-4.45,4,1.32-1.9,3.77-4.65,5.9-6.51,9.77-10.6l0,0v.91C120,76.11,116.49,72.4,114,69.66S110.12,65.17,110.25,65Z"/><path class="cls-7" d="M77.43,99.2c-.31-.19,5-9.39,11.81-20.56s12.62-20.07,12.93-19.88-5,9.4-11.81,20.57S77.74,99.39,77.43,99.2Z"/><path class="cls-4" d="M116.82,22.53l-.09,21.21a5.45,5.45,0,0,0,5.62,5.48l18.41-.69Z"/><rect class="cls-7" x="249.49" y="91.65" width="229.69" height="133.83"/><path class="cls-4" d="M267.46,218.75c-.12,0-.22-27.37-.22-61.12s.1-61.13.22-61.13.22,27.37.22,61.13S267.58,218.75,267.46,218.75Z"/><path class="cls-4" d="M262.73,101.66a32.93,32.93,0,0,1-7.6,0,32.93,32.93,0,0,1,7.6,0Z"/><path class="cls-4" d="M262.73,109.72a32.93,32.93,0,0,1-7.6,0,32.93,32.93,0,0,1,7.6,0Z"/><path class="cls-4" d="M262.73,117.77a32.93,32.93,0,0,1-7.6,0,32.93,32.93,0,0,1,7.6,0Z"/><path class="cls-4" d="M262.73,125.83a32.93,32.93,0,0,1-7.6,0,32.93,32.93,0,0,1,7.6,0Z"/><path class="cls-4" d="M262.73,133.88a32.93,32.93,0,0,1-7.6,0,32.93,32.93,0,0,1,7.6,0Z"/><path class="cls-4" d="M262.73,141.94a32.93,32.93,0,0,1-7.6,0,32.93,32.93,0,0,1,7.6,0Z"/><path class="cls-4" d="M262.73,150a32.93,32.93,0,0,1-7.6,0,32.93,32.93,0,0,1,7.6,0Z"/><path class="cls-4" d="M262.73,158.05a32.93,32.93,0,0,1-7.6,0,32.93,32.93,0,0,1,7.6,0Z"/><path class="cls-4" d="M262.73,166.1a32.93,32.93,0,0,1-7.6,0,32.93,32.93,0,0,1,7.6,0Z"/><path class="cls-4" d="M262.73,174.16a32.93,32.93,0,0,1-7.6,0,32.93,32.93,0,0,1,7.6,0Z"/><path class="cls-4" d="M262.73,182.21a32.93,32.93,0,0,1-7.6,0,32.93,32.93,0,0,1,7.6,0Z"/><path class="cls-4" d="M262.73,190.27a32.93,32.93,0,0,1-7.6,0,32.93,32.93,0,0,1,7.6,0Z"/><path class="cls-4" d="M262.73,198.32a32.93,32.93,0,0,1-7.6,0,32.93,32.93,0,0,1,7.6,0Z"/><path class="cls-4" d="M262.73,206.38a32.93,32.93,0,0,1-7.6,0,32.93,32.93,0,0,1,7.6,0Z"/><path class="cls-4" d="M262.73,214.43a32.93,32.93,0,0,1-7.6,0,32.93,32.93,0,0,1,7.6,0Z"/><path class="cls-8" d="M293.22,101.19c0,.12-4.42.22-9.87.22s-9.87-.1-9.87-.22,4.42-.22,9.87-.22S293.22,101.06,293.22,101.19Z"/><path class="cls-8" d="M293.22,214.43c0,.12-4.42.22-9.87.22s-9.87-.1-9.87-.22,4.42-.22,9.87-.22S293.22,214.31,293.22,214.43Z"/><path class="cls-8" d="M320.72,117.77c0,.12-8.27.22-18.47.22s-18.47-.1-18.47-.22,8.27-.22,18.47-.22S320.72,117.65,320.72,117.77Z"/><path class="cls-4" d="M363.43,117.77c0,.12-8.27.22-18.47.22s-18.47-.1-18.47-.22,8.27-.22,18.47-.22S363.43,117.65,363.43,117.77Z"/><path class="cls-4" d="M347.1,125.83c0,.12-12.18.22-27.21.22s-27.22-.1-27.22-.22,12.18-.22,27.22-.22S347.1,125.7,347.1,125.83Z"/><path class="cls-4" d="M347.1,133.88c0,.12-12.18.22-27.21.22s-27.22-.1-27.22-.22,12.18-.22,27.22-.22S347.1,133.76,347.1,133.88Z"/><path class="cls-4" d="M384.57,158.05c0,.12-12.18.22-27.21.22s-27.22-.1-27.22-.22,12.18-.22,27.22-.22S384.57,157.93,384.57,158.05Z"/><path class="cls-4" d="M368.4,141.94c0,.12-12.18.22-27.21.22s-27.22-.1-27.22-.22,12.18-.22,27.22-.22S368.4,141.82,368.4,141.94Z"/><path class="cls-4" d="M434.92,141.94c0,.12-12.18.22-27.21.22s-27.22-.1-27.22-.22,12.18-.22,27.22-.22S434.92,141.82,434.92,141.94Z"/><path class="cls-9" d="M411.79,125.83c0,.12-12.19.22-27.22.22s-27.21-.1-27.21-.22,12.18-.22,27.21-.22S411.79,125.7,411.79,125.83Z"/><path class="cls-9" d="M449.39,158.05c0,.12-12.19.22-27.22.22s-27.21-.1-27.21-.22,12.18-.22,27.21-.22S449.39,157.93,449.39,158.05Z"/><path class="cls-10" d="M441.88,133.88c0,.12-18.92.22-42.26.22s-42.26-.1-42.26-.22,18.91-.22,42.26-.22S441.88,133.76,441.88,133.88Z"/><path class="cls-9" d="M293.22,109.72c0,.12-4.42.22-9.87.22s-9.87-.1-9.87-.22,4.42-.22,9.87-.22S293.22,109.59,293.22,109.72Z"/><path class="cls-9" d="M293.22,206.38c0,.12-4.42.22-9.87.22s-9.87-.1-9.87-.22,4.42-.22,9.87-.22S293.22,206.26,293.22,206.38Z"/><path class="cls-9" d="M303,141.94c0,.12-4.42.22-9.87.22s-9.87-.1-9.87-.22,4.42-.22,9.87-.22S303,141.82,303,141.94Z"/><path class="cls-8" d="M461.22,141.94c0,.12-4.42.22-9.87.22s-9.87-.1-9.87-.22,4.42-.22,9.87-.22S461.22,141.82,461.22,141.94Z"/><path class="cls-8" d="M320.72,174.11c0,.12-8.27.22-18.47.22s-18.47-.1-18.47-.22,8.27-.22,18.47-.22S320.72,174,320.72,174.11Z"/><path class="cls-4" d="M363.43,174.11c0,.12-8.27.22-18.47.22s-18.47-.1-18.47-.22,8.27-.22,18.47-.22S363.43,174,363.43,174.11Z"/><path class="cls-4" d="M347.1,182.16c0,.13-12.18.22-27.21.22s-27.22-.09-27.22-.22,12.18-.22,27.22-.22S347.1,182,347.1,182.16Z"/><path class="cls-4" d="M347.1,190.22c0,.12-12.18.22-27.21.22s-27.22-.1-27.22-.22,12.18-.22,27.22-.22S347.1,190.1,347.1,190.22Z"/><path class="cls-4" d="M368.4,198.28c0,.12-12.18.22-27.21.22s-27.22-.1-27.22-.22,12.18-.22,27.22-.22S368.4,198.15,368.4,198.28Z"/><path class="cls-4" d="M434.92,198.28c0,.12-12.18.22-27.21.22s-27.22-.1-27.22-.22,12.18-.22,27.22-.22S434.92,198.15,434.92,198.28Z"/><path class="cls-9" d="M411.79,182.16c0,.13-12.19.22-27.22.22s-27.21-.09-27.21-.22,12.18-.22,27.21-.22S411.79,182,411.79,182.16Z"/><path class="cls-10" d="M441.88,190.22c0,.12-18.92.22-42.26.22s-42.26-.1-42.26-.22,18.91-.22,42.26-.22S441.88,190.1,441.88,190.22Z"/><path class="cls-9" d="M303,198.28c0,.12-4.42.22-9.87.22s-9.87-.1-9.87-.22,4.42-.22,9.87-.22S303,198.15,303,198.28Z"/><path class="cls-8" d="M461.22,198.28c0,.12-4.42.22-9.87.22s-9.87-.1-9.87-.22,4.42-.22,9.87-.22S461.22,198.15,461.22,198.28Z"/><path class="cls-10" d="M128.89,158.57H380.22a5.69,5.69,0,0,1,5.69,5.69V320.56a12.31,12.31,0,0,1-12.31,12.31H134.65a12.31,12.31,0,0,1-12.31-12.31V165.12A6.55,6.55,0,0,1,128.89,158.57Z"/><path class="cls-10" d="M111.32,320H396.88a0,0,0,0,1,0,0v3.66a11.59,11.59,0,0,1-11.59,11.59H122.92a11.59,11.59,0,0,1-11.59-11.59V320A0,0,0,0,1,111.32,320Z"/><rect class="cls-4" x="129.42" y="165.49" width="248.68" height="147.19"/><polygon class="cls-7" points="228.15 319.97 231.69 325.61 281.55 325.61 284.84 319.97 228.15 319.97"/><rect class="cls-7" x="122.39" y="319.92" width="263.57" height="0.84"/><rect class="cls-7" x="136.8" y="174.02" width="234.52" height="138.66"/><path class="cls-4" d="M154.79,308.61c-.12,0-.22-29.53-.22-66s.1-66,.22-66,.22,29.53.22,66S154.91,308.61,154.79,308.61Z"/><path class="cls-4" d="M150.06,188.66a16.82,16.82,0,0,1-3.81.22,16.82,16.82,0,0,1-3.81-.22,16.82,16.82,0,0,1,3.81-.22A16.82,16.82,0,0,1,150.06,188.66Z"/><path class="cls-4" d="M150.35,181.17a16.75,16.75,0,0,1-3.81.22,16.82,16.82,0,0,1-3.81-.22,16.82,16.82,0,0,1,3.81-.22A16.75,16.75,0,0,1,150.35,181.17Z"/><path class="cls-4" d="M150.06,196.73a16.82,16.82,0,0,1-3.81.22,16.82,16.82,0,0,1-3.81-.22,16.16,16.16,0,0,1,3.81-.22A16.16,16.16,0,0,1,150.06,196.73Z"/><path class="cls-4" d="M150.06,204.79a16.16,16.16,0,0,1-3.81.22,16.16,16.16,0,0,1-3.81-.22,16.82,16.82,0,0,1,3.81-.22A16.82,16.82,0,0,1,150.06,204.79Z"/><path class="cls-4" d="M150.06,212.86a16.82,16.82,0,0,1-3.81.22,16.82,16.82,0,0,1-3.81-.22,16.82,16.82,0,0,1,3.81-.22A16.82,16.82,0,0,1,150.06,212.86Z"/><path class="cls-4" d="M150.06,220.93a16.82,16.82,0,0,1-3.81.22,16.82,16.82,0,0,1-3.81-.22,16.82,16.82,0,0,1,3.81-.22A16.82,16.82,0,0,1,150.06,220.93Z"/><path class="cls-4" d="M150.06,229a16.82,16.82,0,0,1-3.81.22,16.82,16.82,0,0,1-3.81-.22,16.82,16.82,0,0,1,3.81-.22A16.82,16.82,0,0,1,150.06,229Z"/><path class="cls-4" d="M150.06,237.07a16.82,16.82,0,0,1-3.81.22,16.82,16.82,0,0,1-3.81-.22,16.16,16.16,0,0,1,3.81-.22A16.16,16.16,0,0,1,150.06,237.07Z"/><path class="cls-4" d="M150.06,245.13a16.16,16.16,0,0,1-3.81.22,16.16,16.16,0,0,1-3.81-.22,16.82,16.82,0,0,1,3.81-.22A16.82,16.82,0,0,1,150.06,245.13Z"/><path class="cls-4" d="M150.06,253.2a16.82,16.82,0,0,1-3.81.22,16.82,16.82,0,0,1-3.81-.22,16.82,16.82,0,0,1,3.81-.22A16.82,16.82,0,0,1,150.06,253.2Z"/><path class="cls-4" d="M150.06,261.27a16.82,16.82,0,0,1-3.81.22,16.82,16.82,0,0,1-3.81-.22,16.82,16.82,0,0,1,3.81-.22A16.82,16.82,0,0,1,150.06,261.27Z"/><path class="cls-4" d="M150.06,269.34a16.82,16.82,0,0,1-3.81.22,16.82,16.82,0,0,1-3.81-.22,16.82,16.82,0,0,1,3.81-.22A16.82,16.82,0,0,1,150.06,269.34Z"/><path class="cls-4" d="M150.06,277.41a16.82,16.82,0,0,1-3.81.22,16.82,16.82,0,0,1-3.81-.22,16.16,16.16,0,0,1,3.81-.22A16.16,16.16,0,0,1,150.06,277.41Z"/><path class="cls-4" d="M150.06,285.47a16.16,16.16,0,0,1-3.81.22,16.16,16.16,0,0,1-3.81-.22,16.82,16.82,0,0,1,3.81-.22A16.82,16.82,0,0,1,150.06,285.47Z"/><path class="cls-4" d="M150.06,293.54a16.82,16.82,0,0,1-3.81.22,16.82,16.82,0,0,1-3.81-.22,16.82,16.82,0,0,1,3.81-.22A16.82,16.82,0,0,1,150.06,293.54Z"/><path class="cls-4" d="M150.06,301.61a16.82,16.82,0,0,1-3.81.22,16.82,16.82,0,0,1-3.81-.22,16.82,16.82,0,0,1,3.81-.22A16.82,16.82,0,0,1,150.06,301.61Z"/><path class="cls-8" d="M180.6,188.18c0,.12-4.43.22-9.89.22s-9.88-.1-9.88-.22,4.42-.22,9.88-.22S180.6,188.06,180.6,188.18Z"/><path class="cls-8" d="M180.6,301.61c0,.12-4.43.22-9.89.22s-9.88-.1-9.88-.22,4.42-.22,9.88-.22S180.6,301.49,180.6,301.61Z"/><path class="cls-8" d="M208.14,204.79c0,.13-8.29.22-18.5.22s-18.5-.09-18.5-.22,8.28-.22,18.5-.22S208.14,204.67,208.14,204.79Z"/><path class="cls-4" d="M250.92,204.79c0,.13-8.29.22-18.5.22s-18.5-.09-18.5-.22,8.28-.22,18.5-.22S250.92,204.67,250.92,204.79Z"/><path class="cls-4" d="M234.57,212.86c0,.12-12.21.22-27.26.22S180,213,180,212.86s12.21-.22,27.27-.22S234.57,212.74,234.57,212.86Z"/><path class="cls-4" d="M234.57,220.93c0,.12-12.21.22-27.26.22s-27.27-.1-27.27-.22,12.21-.22,27.27-.22S234.57,220.81,234.57,220.93Z"/><path class="cls-4" d="M272.1,245.13c0,.13-12.21.22-27.26.22s-27.27-.09-27.27-.22,12.21-.22,27.27-.22S272.1,245,272.1,245.13Z"/><path class="cls-4" d="M255.9,229c0,.12-12.21.22-27.26.22s-27.26-.1-27.26-.22,12.2-.22,27.26-.22S255.9,228.88,255.9,229Z"/><path class="cls-4" d="M322.53,229c0,.12-12.21.22-27.26.22S268,229.12,268,229s12.2-.22,27.26-.22S322.53,228.88,322.53,229Z"/><path class="cls-9" d="M299.36,212.86c0,.12-12.21.22-27.26.22s-27.27-.1-27.27-.22,12.21-.22,27.27-.22S299.36,212.74,299.36,212.86Z"/><path class="cls-9" d="M337,245.13c0,.13-12.21.22-27.26.22s-27.26-.09-27.26-.22,12.2-.22,27.26-.22S337,245,337,245.13Z"/><path class="cls-10" d="M329.5,220.93c0,.12-19,.22-42.33.22s-42.34-.1-42.34-.22,18.95-.22,42.34-.22S329.5,220.81,329.5,220.93Z"/><path class="cls-9" d="M180.6,196.73c0,.12-4.43.22-9.89.22s-9.88-.1-9.88-.22,4.42-.22,9.88-.22S180.6,196.6,180.6,196.73Z"/><path class="cls-9" d="M180.6,293.54c0,.12-4.43.22-9.89.22s-9.88-.1-9.88-.22,4.42-.22,9.88-.22S180.6,293.42,180.6,293.54Z"/><path class="cls-9" d="M190.4,229c0,.12-4.43.22-9.89.22s-9.89-.1-9.89-.22,4.43-.22,9.89-.22S190.4,228.88,190.4,229Z"/><path class="cls-8" d="M348.87,229c0,.12-4.43.22-9.89.22s-9.88-.1-9.88-.22,4.42-.22,9.88-.22S348.87,228.88,348.87,229Z"/><path class="cls-8" d="M208.14,261.22c0,.12-8.29.22-18.5.22s-18.5-.1-18.5-.22,8.28-.22,18.5-.22S208.14,261.1,208.14,261.22Z"/><path class="cls-4" d="M250.92,261.22c0,.12-8.29.22-18.5.22s-18.5-.1-18.5-.22,8.28-.22,18.5-.22S250.92,261.1,250.92,261.22Z"/><path class="cls-4" d="M234.57,269.29c0,.12-12.21.22-27.26.22s-27.27-.1-27.27-.22,12.21-.22,27.27-.22S234.57,269.17,234.57,269.29Z"/><path class="cls-4" d="M234.57,277.36c0,.12-12.21.22-27.26.22s-27.27-.1-27.27-.22,12.21-.22,27.27-.22S234.57,277.24,234.57,277.36Z"/><path class="cls-4" d="M255.9,285.43c0,.12-12.21.22-27.26.22s-27.26-.1-27.26-.22,12.2-.22,27.26-.22S255.9,285.31,255.9,285.43Z"/><path class="cls-4" d="M322.53,285.43c0,.12-12.21.22-27.26.22s-27.26-.1-27.26-.22,12.2-.22,27.26-.22S322.53,285.31,322.53,285.43Z"/><path class="cls-9" d="M299.36,269.29c0,.12-12.21.22-27.26.22s-27.27-.1-27.27-.22,12.21-.22,27.27-.22S299.36,269.17,299.36,269.29Z"/><path class="cls-10" d="M329.5,277.36c0,.12-19,.22-42.33.22s-42.34-.1-42.34-.22,18.95-.22,42.34-.22S329.5,277.24,329.5,277.36Z"/><path class="cls-9" d="M190.4,285.43c0,.12-4.43.22-9.89.22s-9.89-.1-9.89-.22,4.43-.22,9.89-.22S190.4,285.31,190.4,285.43Z"/><path class="cls-8" d="M348.87,285.43c0,.12-4.43.22-9.89.22s-9.88-.1-9.88-.22,4.42-.22,9.88-.22S348.87,285.31,348.87,285.43Z"/><path class="cls-7" d="M549.91,335.23c0,.13-123.11.22-274.94.22s-275-.09-275-.22S123.09,335,275,335,549.91,335.11,549.91,335.23Z"/><path class="cls-11" d="M438.6,287.54,442,298.1a12.2,12.2,0,0,0,9.47,8.48L474,310.81l6.12-.2L474,303,457,297.25a4.52,4.52,0,0,1-3.41-3.24l-6.74-14.67-8.54,5.24Z"/><path class="cls-8" d="M422.47,216.66A7.43,7.43,0,0,0,421.2,212a5.66,5.66,0,0,0-3.7-2.86,4.26,4.26,0,0,0-4.39,2.58,5.53,5.53,0,0,0,.68,5.21,7,7,0,0,0,2,1.92,12.91,12.91,0,0,0-5.1,6.46c-.31.89-.53,1.83-.92,2.69a4,4,0,0,1-1.86,2.07c-.64.28-1.36.32-2,.56a3.69,3.69,0,0,0-2.22,2.57,4.46,4.46,0,0,0,.6,3.39,3.57,3.57,0,0,1,.76,1.58,4.35,4.35,0,0,1-.24,1.17,3.21,3.21,0,0,0,5.26,3.13,4.54,4.54,0,0,0,1.95,2.44,1.83,1.83,0,0,0,2.58-1,2.54,2.54,0,0,0,4.82-.91l18.16-19.87C434.9,215.85,424.3,216.5,422.47,216.66Z"/><path class="cls-11" d="M419.39,223.57a2.26,2.26,0,0,0-2,2.3h0l1.28,30.59c.05,3.61,6.6,7.88,10.47,7.8h0c3.91-.08,2.76-4.23,2.81-7.66.1-5.74.1-7.9.1-7.87s4.93-.82,6-7.26a69.59,69.59,0,0,0,.07-12.74c-.24-3.86-2.8-8.6-6.65-8.19Z"/><path class="cls-7" d="M436.39,232.9a.82.82,0,0,1-.8.83.79.79,0,0,1-.85-.74.84.84,0,0,1,.8-.84A.8.8,0,0,1,436.39,232.9Z"/><path class="cls-7" d="M436.92,231.46c-.1.11-.72-.35-1.61-.35s-1.54.45-1.64.34.06-.25.34-.45a2.24,2.24,0,0,1,2.6,0C436.88,231.22,437,231.41,436.92,231.46Z"/><path class="cls-7" d="M427.7,232.9a.82.82,0,0,1-.79.83.78.78,0,0,1-.85-.74.83.83,0,0,1,.79-.84A.79.79,0,0,1,427.7,232.9Z"/><path class="cls-7" d="M428.19,231.63c-.1.11-.73-.36-1.62-.36s-1.54.45-1.63.34.05-.24.34-.45a2.31,2.31,0,0,1,1.31-.4,2.11,2.11,0,0,1,1.28.42C428.15,231.38,428.24,231.58,428.19,231.63Z"/><path class="cls-7" d="M431.41,238.22a5.77,5.77,0,0,1,1.45-.26c.22,0,.44-.07.48-.23a1.19,1.19,0,0,0-.15-.67l-.68-1.73a29.18,29.18,0,0,1-1.5-4.52,30.43,30.43,0,0,1,1.86,4.39c.23.61.44,1.19.65,1.74a1.39,1.39,0,0,1,.12.89.59.59,0,0,1-.38.33,1.42,1.42,0,0,1-.38.06A6.38,6.38,0,0,1,431.41,238.22Z"/><path class="cls-12" d="M432,248.73a16.41,16.41,0,0,1-8.63-2.3s2.1,4.43,8.54,3.82Z"/><path class="cls-12" d="M431,240.36a1.62,1.62,0,0,0-1.44-.6,1.51,1.51,0,0,0-1,.55.94.94,0,0,0-.07,1.06,1.09,1.09,0,0,0,1.17.29,3.28,3.28,0,0,0,1.13-.68,1.07,1.07,0,0,0,.26-.26.3.3,0,0,0,0-.33"/><path class="cls-7" d="M428.8,238.83c.14,0,.15,1,1,1.64s1.85.58,1.86.72-.23.18-.66.2a2.46,2.46,0,0,1-1.56-.55,2.09,2.09,0,0,1-.75-1.37C428.63,239.07,428.73,238.83,428.8,238.83Z"/><path class="cls-8" d="M428.59,230.07c-.09.24-1,.13-2,.25s-1.88.41-2,.2.08-.33.42-.57a3.47,3.47,0,0,1,1.5-.52,3.42,3.42,0,0,1,1.58.18C428.43,229.77,428.63,230,428.59,230.07Z"/><path class="cls-8" d="M436.6,228.89c-.16.2-.77,0-1.51,0s-1.36.14-1.5-.07,0-.31.31-.5a2.11,2.11,0,0,1,1.22-.33,2.08,2.08,0,0,1,1.2.41C436.58,228.58,436.67,228.79,436.6,228.89Z"/><path class="cls-11" d="M418.08,233.87a1.6,1.6,0,0,0-1.68.09,3,3,0,0,0,1.88,5.54"/><path class="cls-8" d="M428.2,218.39a13.06,13.06,0,0,1,6.19,1.92,8.94,8.94,0,0,1,4.41,5.25,1.78,1.78,0,0,1-.05,1.45,1.41,1.41,0,0,1-1.76.38,4.16,4.16,0,0,1-1.44-1.33,2.75,2.75,0,0,1-5.35-.06,2.41,2.41,0,0,1-2.48,2.22,3.2,3.2,0,0,1-2.74-2.17,8,8,0,0,1-1.13,3.15,2.77,2.77,0,0,1-2.92,1.19,5.62,5.62,0,0,1,0,2.88,2,2,0,0,1-2.27,1.33c-.89-.31-1.24-1.37-1.45-2.29a21.89,21.89,0,0,1-.69-5.39,7.91,7.91,0,0,1,6.38-8,21.07,21.07,0,0,1,5.61-.51"/><path class="cls-12" d="M417.63,237.58c0-.05-.25,0-.56-.09a1.09,1.09,0,0,1-.55-1.1,1.13,1.13,0,0,1,.68-1c.32-.13.56-.07.58-.12s-.22-.2-.65-.11a1.2,1.2,0,0,0-.63.4,1.49,1.49,0,0,0-.32.84,1.28,1.28,0,0,0,.81,1.34C417.43,237.83,417.66,237.61,417.63,237.58Z"/><path class="cls-7" d="M415.18,237.91l-.26.08a3.56,3.56,0,0,0-.72.32,5.28,5.28,0,0,0-2.1,2,4.09,4.09,0,0,0-.57,1.94,4.44,4.44,0,0,0,.53,2.26,5.45,5.45,0,0,0,1.71,1.91,4.78,4.78,0,0,0,2.63.84,5,5,0,0,0,4.35-2.71,4.17,4.17,0,0,0,.45-2.28,4.77,4.77,0,0,0-.62-1.93,4.64,4.64,0,0,0-2.13-1.94,3.5,3.5,0,0,0-.75-.23l-.27,0s.37.09,1,.38a4.7,4.7,0,0,1,2.53,3.77,4.1,4.1,0,0,1-.46,2.12,4.71,4.71,0,0,1-4.07,2.52,4.8,4.8,0,0,1-4.07-2.57,4,4,0,0,1,0-3.94,5.55,5.55,0,0,1,1.95-2C414.84,238.07,415.19,237.94,415.18,237.91Z"/><path class="cls-4" d="M420.5,218c-.07,0-.2-.56-.61-1.4a7.85,7.85,0,0,0-2.22-2.81,8,8,0,0,0-3.24-1.51c-.91-.19-1.5-.18-1.5-.25a3.18,3.18,0,0,1,1.55-.05,7,7,0,0,1,3.47,1.47,7.13,7.13,0,0,1,2.23,3A3.47,3.47,0,0,1,420.5,218Z"/><path class="cls-4" d="M405.69,242.42a.58.58,0,0,1-.22-.22,1.17,1.17,0,0,1-.16-.88,1.85,1.85,0,0,1,.8-1.16,13.85,13.85,0,0,1,1.6-.88,2,2,0,0,0,1.11-1.6,9.14,9.14,0,0,0-.44-2.42,4.34,4.34,0,0,1-.13-1.41,2.38,2.38,0,0,1,.6-1.41,5.83,5.83,0,0,1,2.72-1.43,4.43,4.43,0,0,0,2.43-1.4,3.61,3.61,0,0,0,.4-2.54,13.17,13.17,0,0,1-.17-2.55,7,7,0,0,1,2.44-4.77,4.81,4.81,0,0,1,.72-.5.89.89,0,0,1,.27-.13s-.33.25-.87.76a7.09,7.09,0,0,0-1.73,2.58,6.35,6.35,0,0,0-.46,2.08,12.21,12.21,0,0,0,.21,2.48,4,4,0,0,1-.46,2.84,4.8,4.8,0,0,1-2.65,1.57,5.55,5.55,0,0,0-2.53,1.3,2.6,2.6,0,0,0-.39,2.45,9.27,9.27,0,0,1,.4,2.53,2.2,2.2,0,0,1-.45,1.15,2.94,2.94,0,0,1-.87.69,16,16,0,0,0-1.61.81,1.71,1.71,0,0,0-.77,1A1.25,1.25,0,0,0,405.69,242.42Z"/><path class="cls-4" d="M428.65,225.8c-.08,0-.13-.68-.47-1.72a8.82,8.82,0,0,0-5.75-5.73c-1-.34-1.73-.39-1.72-.47a4.21,4.21,0,0,1,1.8.17,8.24,8.24,0,0,1,6,5.95A4.22,4.22,0,0,1,428.65,225.8Z"/><path class="cls-4" d="M433.84,223a15.57,15.57,0,0,0-1.12-2,8.94,8.94,0,0,0-4.41-3.07,13.73,13.73,0,0,0-5.45-.43c-1.42.15-2.28.35-2.3.28a7.6,7.6,0,0,1,2.26-.59,12.65,12.65,0,0,1,5.62.32A8.58,8.58,0,0,1,433,220.8a6,6,0,0,1,.75,1.55A1.62,1.62,0,0,1,433.84,223Z"/><path class="cls-7" d="M422.6,216.34s-.16.43-.66.94a6.29,6.29,0,0,1-2.34,1.48,6.48,6.48,0,0,1-2.75.34,2.3,2.3,0,0,1-1.11-.31,11.51,11.51,0,0,0,3.71-.45A11.15,11.15,0,0,0,422.6,216.34Z"/><path class="cls-7" d="M427.12,335.29c-15.47-5.12-4.86-25.59-4.86-25.59l67.61,6.36a9.79,9.79,0,0,1,9.85,9.78h0a9.78,9.78,0,0,1-9.78,9.79l-62.82-.34"/><path class="cls-7" d="M411.29,335.27c-15.08-5.09-4.69-25.57-4.69-25.57l65.92,6.21c6.44.09,9.58,3.19,9.58,9.76h0c0,5.4-2,10-9.56,9.8l-61.25-.2"/><path class="cls-10" d="M426.59,313.16a.58.58,0,0,1,.19,0h.55l2.11.09,7.75.38L462.77,315c1.25,0,2.49.16,3.7.18s2.42.07,3.6.14,2.34.16,3.47.28a12.19,12.19,0,0,1,3.3.68,7.82,7.82,0,0,1,2.74,1.76,7.18,7.18,0,0,1,1.66,2.66,13.57,13.57,0,0,1,.68,2.89,19.81,19.81,0,0,1,.18,2.72,11.42,11.42,0,0,1-.87,4.59,7.54,7.54,0,0,1-2.05,2.8,5.51,5.51,0,0,1-1.87,1.05c-.46.15-.47.1,0-.07a5.71,5.71,0,0,0,1.81-1.09,7.46,7.46,0,0,0,2-2.77,11.43,11.43,0,0,0,.8-4.51,19.25,19.25,0,0,0-.2-2.68,13.15,13.15,0,0,0-.68-2.82,7,7,0,0,0-1.6-2.55,7.75,7.75,0,0,0-2.65-1.67,12,12,0,0,0-3.22-.65c-1.13-.12-2.28-.2-3.46-.27s-2.37-.12-3.58-.13-2.46-.13-3.71-.19l-25.58-1.51-7.75-.49-2.1-.16-.55,0Z"/><path class="cls-8" d="M450,314.49l-5.42-2.66-3.78-12.58-.36-16,7.66-3.23-6.08-15.25c-1.1-2.26-3.34-8.22-9.09-10.19a7.07,7.07,0,0,1,.2-2.53c.45-.75-14-1.2-14.83-.9s.13,2.94,0,3.39c-5.14,1.42-10.14,3.54-12,10.61-.73,2.76-.49,8.57-.09,11.37l4,21.24-2.26,7s-7.9,16.45-4.91,22.89,8.09,7.88,8.09,7.88l39.36-.08Z"/><g class="cls-13"><path d="M410.53,289.31a80.59,80.59,0,0,0,2.89,10,21.71,21.71,0,0,0,3.16,5.79,14.67,14.67,0,0,0,7.59,4.63,23.9,23.9,0,0,0,9,.44l-14.89-8.41-4-13.77Z"/></g><path class="cls-7" d="M440.82,298.81a7.48,7.48,0,0,1-.1-1.14c0-.79-.09-1.84-.15-3.1-.11-2.62-.24-6.25-.37-10.25s-.21-7.63-.25-10.25c0-1.27,0-2.31,0-3.11a6,6,0,0,1,0-1.14,7.43,7.43,0,0,1,.1,1.13c0,.8.09,1.85.15,3.11.12,2.62.25,6.25.37,10.25s.21,7.63.25,10.25c0,1.27,0,2.31,0,3.11A6,6,0,0,1,440.82,298.81Z"/><path class="cls-7" d="M426.25,283.81s-.09.05-.27.12l-.84.3-3.25,1.15L410,289.48l-.19.06,0-.2C409,285,408,280,407,274.5h0v0c-.16-2.69-.7-5.5-.47-8.46a7.94,7.94,0,0,1,.58-2.07,10.39,10.39,0,0,1,1-1.87,8,8,0,0,1,3.13-2.67,6.88,6.88,0,0,1,7.42.8,9.22,9.22,0,0,1,2,3,27.29,27.29,0,0,1,1.16,3.18c.63,2.08,1.11,4,1.58,5.85.9,3.56,1.63,6.45,2.15,8.49l.57,2.28c.05.24.1.43.13.59s0,.2,0,.19a1,1,0,0,1-.08-.21L426,283c-.16-.57-.38-1.34-.65-2.31-.55-2-1.34-4.88-2.3-8.39-.49-1.76-1-3.72-1.61-5.78a29.18,29.18,0,0,0-1.17-3.13,8.76,8.76,0,0,0-1.9-2.88,6.45,6.45,0,0,0-7-.72,7.5,7.5,0,0,0-3,2.53,8.9,8.9,0,0,0-.94,1.78,7.27,7.27,0,0,0-.55,2c-.22,2.85.3,5.66.46,8.39v0c1,5.47,1.91,10.53,2.7,14.85l-.23-.13,11.83-3.9,3.32-1.06.88-.28Z"/><path class="cls-7" d="M414.4,287.74c-.12,0-.43-.62-.7-1.46s-.4-1.56-.28-1.6.43.62.7,1.47S414.52,287.71,414.4,287.74Z"/><path class="cls-7" d="M418.27,286.65c-.11,0-.37-.61-.57-1.43s-.27-1.5-.15-1.52.38.6.58,1.42S418.39,286.62,418.27,286.65Z"/><path class="cls-7" d="M422.18,285.25c-.11,0-.37-.49-.57-1.16s-.28-1.26-.16-1.3.37.49.58,1.17S422.3,285.21,422.18,285.25Z"/><path class="cls-7" d="M443.34,282c-.1.06-.54-.5-.85-1.31s-.35-1.53-.23-1.55.35.62.64,1.39S443.45,282,443.34,282Z"/><path class="cls-7" d="M446.29,280.34c-.11.06-.47-.43-.8-1.08S445,278,445.1,278s.46.43.79,1.08S446.4,280.29,446.29,280.34Z"/><path class="cls-7" d="M420.6,255.16s.07.14.08.38h-.24a19.51,19.51,0,0,1-.27-2,6.63,6.63,0,0,1,0-2.41,6.86,6.86,0,0,1,.41,2.37,15.8,15.8,0,0,1,.07,2h-.23C420.5,255.28,420.56,255.15,420.6,255.16Z"/><path class="cls-7" d="M424.12,255.16a4.55,4.55,0,0,1-.37-1.95,4.75,4.75,0,0,1,.07-2,9,9,0,0,1,.3,3.95Z"/><path class="cls-7" d="M427.8,256a6.22,6.22,0,0,1-.26-2.36,6.76,6.76,0,0,1,.19-2.37,6.34,6.34,0,0,1,.25,2.36A6.63,6.63,0,0,1,427.8,256Z"/><path class="cls-7" d="M430.81,255.46a9.43,9.43,0,0,1,0-4.05,9.43,9.43,0,0,1,0,4.05Z"/><path class="cls-7" d="M450.28,314.94c0,.12-7.34-.28-16.38-.9s-16.36-1.21-16.35-1.33,7.34.28,16.38.89S450.29,314.82,450.28,314.94Z"/><path class="cls-11" d="M412.28,288.75l3.63,11.8a12.25,12.25,0,0,0,9.47,8.59l22.53,4.28,6.12-.19L452,308l-21-8.29a4.55,4.55,0,0,1-3.41-3.29l-3.17-11.87Z"/><polygon class="cls-10" points="432.2 313.58 432.39 312.12 449.7 311.44 458.19 290.02 490.55 292.22 479.63 316 432.2 313.58"/><path class="cls-2" d="M470.92,303.92a1.69,1.69,0,1,1-.52-2.34A1.7,1.7,0,0,1,470.92,303.92Z"/><path class="cls-7" d="M197.22,159.77c14.1-5.12,6.86-26.39,6.86-26.39l-71.57,6.56A10.09,10.09,0,0,0,122.35,150h0a10.09,10.09,0,0,0,10.09,10.09l64.78-.35"/><path class="cls-8" d="M105.07,218.66l-.15-7.1,13.61-4.83.57,9.88-.77.37c-3.42,1.61-17.49,8-20.12,8.21C95.29,225.46,105.07,218.66,105.07,218.66Z"/><g class="cls-14"><path class="cls-2" d="M100.36,222.17s-3.33,2.62-2.6,3.05,15.18-5.46,21.34-8.61l-.14-.28-16.81,7S101.11,221.9,100.36,222.17Z"/></g><path class="cls-7" d="M119.16,216.24a.72.72,0,0,1-.21.11l-.61.3-2.26,1c-1.92.86-4.58,2-7.55,3.23s-5.68,2.25-7.66,3l-2.34.85-.64.21-.22.07s.07,0,.21-.1l.63-.24,2.32-.89c2-.76,4.67-1.81,7.64-3s5.63-2.35,7.56-3.18l2.28-1,.63-.27Z"/><path class="cls-7" d="M102.23,223.54a5.11,5.11,0,0,0-.88-.93,5.62,5.62,0,0,0-1.14-.56,1.88,1.88,0,0,1,1.24.43A1.82,1.82,0,0,1,102.23,223.54Z"/><path class="cls-7" d="M105.2,220.12s-.3-.11-.6-.32-.53-.42-.5-.46.29.11.6.32S105.22,220.08,105.2,220.12Z"/><path class="cls-7" d="M106,219.16s-.27,0-.57-.12-.52-.23-.51-.27.27,0,.57.12S106,219.12,106,219.16Z"/><path class="cls-7" d="M106.16,217.7s-.26.2-.62.35-.68.25-.69.2.26-.2.62-.35A1.75,1.75,0,0,1,106.16,217.7Z"/><path class="cls-7" d="M106,216.77s-.23.31-.65.51a1.39,1.39,0,0,1-.8.21,4,4,0,0,1,.73-.36A4.5,4.5,0,0,1,106,216.77Z"/><path class="cls-7" d="M104.32,219.19a2.54,2.54,0,0,1-.82.33,5.37,5.37,0,0,1-.94.16,2.81,2.81,0,0,1-.58,0,.5.5,0,0,1-.31-.18.35.35,0,0,1,0-.37,1.61,1.61,0,0,1,2.51.12,1.09,1.09,0,0,1,.12.21,2.54,2.54,0,0,0-.66-.54,1.53,1.53,0,0,0-.88-.17,1.33,1.33,0,0,0-.94.46c-.09.15,0,.28.2.31a3.23,3.23,0,0,0,.54,0,5.5,5.5,0,0,0,.92-.13C104,219.29,104.31,219.16,104.32,219.19Z"/><path class="cls-7" d="M104.12,219.32a1,1,0,0,1-.32-.53,1.57,1.57,0,0,1,0-.69.87.87,0,0,1,.51-.69.35.35,0,0,1,.4.28.86.86,0,0,1,0,.42,3.18,3.18,0,0,1-.18.65,1.28,1.28,0,0,1-.33.51s.1-.21.22-.56a3,3,0,0,0,.14-.62c0-.22,0-.56-.23-.52s-.33.36-.39.57a1.47,1.47,0,0,0,0,.62A5.82,5.82,0,0,0,104.12,219.32Z"/><path class="cls-7" d="M117.49,212.88s-.38.11-.92.41a4.33,4.33,0,0,0-2.25,4c0,.62.16,1,.13,1s0-.08-.1-.25a3.24,3.24,0,0,1-.14-.74,4.17,4.17,0,0,1,.51-2.41,4.26,4.26,0,0,1,1.79-1.7,3.51,3.51,0,0,1,.7-.26A.73.73,0,0,1,117.49,212.88Z"/><path class="cls-7" d="M114,208.14a27.37,27.37,0,0,1,1.17,2.56,22.72,22.72,0,0,1,1,2.62,25.08,25.08,0,0,1-1.17-2.55A23.92,23.92,0,0,1,114,208.14Z"/><path class="cls-7" d="M112.36,217.79a7.47,7.47,0,0,1-1.77.93,8.09,8.09,0,0,1-1.91.61c0-.05.83-.33,1.85-.76S112.34,217.74,112.36,217.79Z"/><path class="cls-7" d="M114.85,216.77s0,.21,0,.43,0,.41,0,.43-.14-.18-.13-.44S114.81,216.75,114.85,216.77Z"/><path class="cls-7" d="M115.31,215.23s0,.18-.07.37-.17.32-.21.3,0-.18.06-.37S115.27,215.21,115.31,215.23Z"/><path class="cls-7" d="M116.43,214.15s-.16.11-.32.26-.25.29-.3.27,0-.23.19-.4S116.43,214.11,116.43,214.15Z"/><path class="cls-7" d="M117.28,213.51s0,.13-.1.21-.19.13-.22.09,0-.12.1-.21S117.25,213.48,117.28,213.51Z"/><path class="cls-7" d="M159.7,139l-40,.74A12.84,12.84,0,0,0,107.24,151L99.31,215.4H121l6.63-55.63h31.51Z"/><path class="cls-10" d="M99.58,211.3c0,.1,4.76.22,10.62.25s10.52-.11,10.62-.12c.68-.06-4.75-.21-10.62-.25S99.58,211.2,99.58,211.3Z"/><path class="cls-10" d="M181.68,136.94h-.78l-2.25.09-8.26.39-27.25,1.41c-1.33.06-2.65.17-3.94.19s-2.58.07-3.84.14-2.49.16-3.7.28a14.18,14.18,0,0,0-3.51.69,8.41,8.41,0,0,0-2.92,1.77,7.33,7.33,0,0,0-1.77,2.69,12.63,12.63,0,0,0-.72,2.91,18.8,18.8,0,0,0-.19,2.75,11.19,11.19,0,0,0,.92,4.64,7.58,7.58,0,0,0,2.19,2.81,5.87,5.87,0,0,0,2,1.07c.49.15.5.1,0-.07a6.37,6.37,0,0,1-1.92-1.1,7.54,7.54,0,0,1-2.09-2.8,10.93,10.93,0,0,1-.86-4.55,20,20,0,0,1,.21-2.71,12.5,12.5,0,0,1,.73-2.84,7,7,0,0,1,1.71-2.57,8.26,8.26,0,0,1,2.82-1.69,13.54,13.54,0,0,1,3.43-.65c1.2-.12,2.43-.21,3.68-.28s2.53-.12,3.82-.13,2.62-.13,4-.19l27.25-1.52,8.26-.5,2.24-.16.58-.05C181.62,137,181.68,137,181.68,136.94Z"/><path class="cls-15" d="M169,110.23l-3.47,10.88a12.55,12.55,0,0,1-9.76,8.75l-20.18,5.59L134,131.72l-1.47-5.53,17.46-6a4.68,4.68,0,0,0,3.52-3.34l6.95-15.13,8.81,5.4Z"/><path class="cls-8" d="M177.41,76.18c-7.39.86-9.77,3.87-12.79,8.24a25.12,25.12,0,0,0-3,5.86L156,106.14l11.68,3.61-.39,13L162,138.48,206.9,142l-.13-22.92-.32-13.83c.42-5.24,1.52-16.35.58-19-4-11.26-12.81-9.1-19.27-10.71a44.19,44.19,0,0,0-8.91,0"/><path class="cls-9" d="M206.9,117.64c0,.12-8.78.22-19.61.22s-19.62-.1-19.62-.22,8.78-.22,19.62-.22S206.9,117.52,206.9,117.64Z"/><path class="cls-9" d="M206.24,125.47c0,.13-8.78.22-19.61.22S167,125.6,167,125.47s8.78-.22,19.61-.22S206.24,125.35,206.24,125.47Z"/><path class="cls-9" d="M206.45,134.47c0,.12-9.29.22-20.74.22s-20.74-.1-20.74-.22,9.28-.22,20.74-.22S206.45,134.34,206.45,134.47Z"/><g class="cls-13"><path d="M201,112.63c-.59,3-.83,6.31-1.87,9.23a22.59,22.59,0,0,1-3,6.11,15.08,15.08,0,0,1-7.61,5.1c-3,.92-17.22,4.1-20.31,3.87l26.07-12.35,3.15-13Z"/></g><path class="cls-15" d="M199.48,112.17l-2.87,11a12.63,12.63,0,0,1-9.37,9.26l-23,5.4-6.33.06v-8.69L181.06,123a4.72,4.72,0,0,0,3.38-3.54l2.23-9.7Z"/><path class="cls-9" d="M207.13,85.62c0,.12-9.68.22-21.62.22s-21.61-.1-21.61-.22,9.67-.22,21.61-.22S207.13,85.49,207.13,85.62Z"/><path class="cls-9" d="M207.4,93.1c0,.12-10.43.22-23.3.22s-23.29-.1-23.29-.22,10.43-.22,23.29-.22S207.4,93,207.4,93.1Z"/><path class="cls-9" d="M206.79,101.18c0,.12-11,.31-24.52.42s-24.53.09-24.53,0,11-.31,24.53-.42S206.79,101.06,206.79,101.18Z"/><path class="cls-9" d="M206.45,109.75c0,.12-8.78.22-19.61.22s-19.61-.1-19.61-.22,8.78-.22,19.61-.22S206.45,109.63,206.45,109.75Z"/><path class="cls-7" d="M203.42,113.09a1.23,1.23,0,0,1,0-.18l.07-.53c.08-.5.18-1.18.32-2,.27-1.79.68-4.39,1.12-7.64s1-7.16,1.23-11.57c.09-2.18.27-4.6-.87-6.74a7.25,7.25,0,0,0-2.37-2.68,8.47,8.47,0,0,0-3.48-1.35h-.05a7.15,7.15,0,0,0-4.27.29,11.93,11.93,0,0,0-4,2.15,3.54,3.54,0,0,0-.61.68c-.16.27-.31.55-.44.83a11.39,11.39,0,0,0-.65,1.77,34,34,0,0,0-.78,3.68q-.66,3.67-1.27,7.11c-.83,4.58-1.59,8.81-2.26,12.55l-.13-.2L198,112l3.58.79.93.22a1.55,1.55,0,0,1,.32.09,1.19,1.19,0,0,1-.33,0l-.94-.17-3.6-.7-13-2.64-.16,0,0-.17c.66-3.74,1.4-8,2.2-12.56q.6-3.45,1.25-7.13a34.17,34.17,0,0,1,.79-3.71,12.7,12.7,0,0,1,.67-1.84,8.17,8.17,0,0,1,.47-.87,3.45,3.45,0,0,1,.69-.78A12.61,12.61,0,0,1,195,80.21a7.54,7.54,0,0,1,4.55-.28h-.05a8.85,8.85,0,0,1,3.67,1.43,7.63,7.63,0,0,1,2.51,2.85,9.75,9.75,0,0,1,.65,1.73,12.37,12.37,0,0,1,.27,1.78c0,.3,0,.59,0,.88v.86c0,.58,0,1.14-.08,1.69-.28,4.44-.84,8.34-1.32,11.59s-.93,5.84-1.25,7.62q-.25,1.31-.39,2l-.12.53C203.45,113,203.43,113.09,203.42,113.09Z"/><path class="cls-7" d="M167.59,122.51a6.12,6.12,0,0,0,.06-1.18c0-.82,0-1.9,0-3.21,0-2.7,0-6.44-.08-10.57s-.11-7.87-.18-10.57c0-1.31-.07-2.39-.1-3.21a6.17,6.17,0,0,0-.09-1.17,8.39,8.39,0,0,0-.05,1.17c0,.82,0,1.9,0,3.21,0,2.7,0,6.44.07,10.57s.12,7.87.19,10.58c0,1.3.07,2.38.09,3.2A9.49,9.49,0,0,0,167.59,122.51Z"/><polygon class="cls-10" points="181.68 139.82 182.09 137.93 164.65 136.08 157.05 114.23 121.54 113.99 133.18 139.32 181.68 139.82"/><path class="cls-2" d="M144.29,128a1.75,1.75,0,1,0-2.41-.54,1.74,1.74,0,0,0,2.41.54"/><path class="cls-7" d="M168.45,40.23a4.71,4.71,0,0,0-1.68,8.7,2.56,2.56,0,0,0,2.37.27,2.92,2.92,0,0,0,1.29-1.86,10,10,0,0,0-.56-7.26"/><path class="cls-15" d="M183.1,83.35h0a7.57,7.57,0,0,1-7.57-7.66c0-2.63.07-4.91.07-4.91s-6.08-.56-6.53-6.59-.26-19.93-.26-19.93h0A21,21,0,0,1,190,45.61l.94.63-.29,29.61A7.57,7.57,0,0,1,183.1,83.35Z"/><path class="cls-16" d="M175.59,70.7A14.08,14.08,0,0,0,183.31,68s-1.59,4.45-7.64,4.28Z"/><path class="cls-15" d="M189.41,52.9c.11,0,3.81-.52,3.46,3.85s-4.65,2.57-4.64,2.45S189.41,52.9,189.41,52.9Z"/><path class="cls-16" d="M189.69,57.77s.07.06.2.13a.77.77,0,0,0,.56.06,1.89,1.89,0,0,0,1-1.62,2.5,2.5,0,0,0-.13-1.11.86.86,0,0,0-.52-.63.4.4,0,0,0-.47.17c-.07.12-.05.21-.07.21s-.09-.08,0-.26a.57.57,0,0,1,.2-.26.61.61,0,0,1,.43-.07,1.08,1.08,0,0,1,.74.74,2.64,2.64,0,0,1,.16,1.24,2,2,0,0,1-1.26,1.8.83.83,0,0,1-.68-.17C189.69,57.88,189.67,57.78,189.69,57.77Z"/><path class="cls-7" d="M173,46.75a18.09,18.09,0,0,0,2.84-2,4.6,4.6,0,0,0,7.08.86,2.32,2.32,0,0,0,3.44,1.91l.08,7a3.27,3.27,0,0,0,.44,1.93,1.12,1.12,0,0,0,1.72.14,4.87,4.87,0,0,1,.23-2.52,1.67,1.67,0,0,1,2.11-.94,17.35,17.35,0,0,0,.24-4.13,3.77,3.77,0,0,1,.17-1.26c.24-.39.35-.09.79-.18a3.15,3.15,0,0,0,2.36-2.81,4,4,0,0,0-1.66-3.39,5.39,5.39,0,0,0-3.75-.89,2.37,2.37,0,0,0,0-3.18,3.86,3.86,0,0,0-3.18-1.16c-1.17.07-2.48.72-2.63,1.88a4.82,4.82,0,0,0-9.52-.26c-1.4-.63-3.36-1.31-4.76-.68a4.58,4.58,0,0,0-2.89,4s-.36,4.78,2.67,5.75S173,46.75,173,46.75Z"/><path class="cls-7" d="M170.4,53.9a.86.86,0,0,0,.82.86.82.82,0,0,0,.87-.76.85.85,0,0,0-.81-.86A.82.82,0,0,0,170.4,53.9Z"/><path class="cls-7" d="M170.22,53c.1.11.74-.36,1.65-.36s1.58.46,1.68.35-.06-.25-.35-.46a2.29,2.29,0,0,0-1.34-.41,2.25,2.25,0,0,0-1.32.42C170.26,52.71,170.17,52.91,170.22,53Z"/><path class="cls-7" d="M179.31,54.12a.84.84,0,0,0,.81.85.79.79,0,0,0,.87-.76.83.83,0,0,0-.81-.85A.79.79,0,0,0,179.31,54.12Z"/><path class="cls-7" d="M179.16,53.12c.1.11.74-.36,1.65-.36s1.58.46,1.68.35-.06-.25-.35-.46a2.29,2.29,0,0,0-1.34-.41,2.22,2.22,0,0,0-1.32.42C179.2,52.88,179.11,53.07,179.16,53.12Z"/><path class="cls-7" d="M175.86,59.87a6.23,6.23,0,0,0-1.48-.27c-.23,0-.45-.07-.49-.23a1.17,1.17,0,0,1,.15-.69l.69-1.76a30.88,30.88,0,0,0,1.54-4.63,31.27,31.27,0,0,0-1.91,4.49l-.66,1.78a1.44,1.44,0,0,0-.12.91.59.59,0,0,0,.39.34,1.48,1.48,0,0,0,.39.06A6,6,0,0,0,175.86,59.87Z"/><path class="cls-7" d="M178.53,60.5c-.14,0-.15,1-1,1.68s-1.9.59-1.9.73.23.19.67.2a2.51,2.51,0,0,0,1.59-.55,2.12,2.12,0,0,0,.77-1.41C178.71,60.74,178.6,60.49,178.53,60.5Z"/><path class="cls-7" d="M178.92,49.56c.09.25,1,.13,2.07.26s1.93.42,2.07.2-.09-.34-.44-.58a3.39,3.39,0,0,0-1.53-.54,3.46,3.46,0,0,0-1.62.19C179.08,49.25,178.88,49.44,178.92,49.56Z"/><path class="cls-7" d="M170.55,50.32c.16.21.79,0,1.54,0s1.39.14,1.54-.07,0-.31-.31-.51a2.25,2.25,0,0,0-1.26-.34,2.15,2.15,0,0,0-1.22.42C170.57,50,170.48,50.22,170.55,50.32Z"/><path class="cls-10" d="M172.28,39.94s-.08,0-.23-.07a.83.83,0,0,0-.91,1.08,1.49,1.49,0,0,0,.9,1,2,2,0,0,0,1.63-.09,2.07,2.07,0,0,0,1-1.57,2.28,2.28,0,0,0-.76-1.91,2.68,2.68,0,0,0-2.14-.68,3.44,3.44,0,0,0-2.06,1,4,4,0,0,0-1,1.94,5.27,5.27,0,0,0,.62,3.68A6.06,6.06,0,0,0,171,46.24c.5.36.82.51.8.54a2.57,2.57,0,0,1-.9-.4,5.73,5.73,0,0,1-1.9-1.9,5.52,5.52,0,0,1-.74-3.92,4.34,4.34,0,0,1,1.08-2.16,3.85,3.85,0,0,1,2.32-1.16,3.1,3.1,0,0,1,2.48.8,2.65,2.65,0,0,1,.87,2.27,2.39,2.39,0,0,1-1.21,1.85,2.27,2.27,0,0,1-1.92.06,1.75,1.75,0,0,1-1-1.22,1,1,0,0,1,.42-1.11.9.9,0,0,1,.75-.11C172.24,39.85,172.29,39.93,172.28,39.94Z"/><path class="cls-8" d="M30.82,319.56c.56-2.24-.92-4.49-2.58-6.11s-3.64-3.06-4.51-5.21c-1.41-3.48.43-8-2-10.9-1.4-1.71-3.91-2.27-5.16-4.09A9.36,9.36,0,0,1,15.48,290a33.14,33.14,0,0,0-8.34-15.4,28.71,28.71,0,0,0,3.32,14.87c1,1.82,2.16,3.6,2.49,5.64.54,3.31-1.29,6.74-.46,10,.95,3.72,5.15,6.19,5.37,10,.18,3.24-2.62,6.1-2.39,9.33a8.65,8.65,0,0,0,1.46,3.84c2.53,4.15,6.22,7,11.8,6.87l6.84.2Z"/><g class="cls-13"><path d="M30.82,319.56c.56-2.24-.92-4.49-2.58-6.11s-3.64-3.06-4.51-5.21c-1.41-3.48.43-8-2-10.9-1.4-1.71-3.91-2.27-5.16-4.09A9.36,9.36,0,0,1,15.48,290a33.14,33.14,0,0,0-8.34-15.4,28.71,28.71,0,0,0,3.32,14.87c1,1.82,2.16,3.6,2.49,5.64.54,3.31-1.29,6.74-.46,10,.95,3.72,5.15,6.19,5.37,10,.18,3.24-2.62,6.1-2.39,9.33a8.65,8.65,0,0,0,1.46,3.84c2.53,4.15,6.22,7,11.8,6.87l6.84.2Z"/></g><path class="cls-7" d="M37,335.52a5.39,5.39,0,0,0,1.88,0,11.34,11.34,0,0,0,2.22-.57,9.09,9.09,0,0,0,2.73-1.52,3.68,3.68,0,0,0,1.12-1.51,7.14,7.14,0,0,0,.31-2,21.22,21.22,0,0,1,.15-2.21,6.09,6.09,0,0,1,.82-2.2c.8-1.42,2.13-2.77,2.55-4.69a15.42,15.42,0,0,0-.22-6,12.72,12.72,0,0,1,.12-6.42c.72-2.14,2.21-4.08,2.95-6.49s.37-5.06.51-7.64a10.27,10.27,0,0,1,.87-3.8c.55-1.21,1.31-2.35,1.9-3.63,1.2-2.58,1.39-5.5,1.71-8.36.15-1.44.31-2.9.46-4.37a21.47,21.47,0,0,1,.74-4.37,36.45,36.45,0,0,1,1.61-4.24,14.19,14.19,0,0,0,.78-2.22,23.56,23.56,0,0,0,.21-2.35,28.91,28.91,0,0,0-.21-4.73c-.2-1.57-.49-3.13-.67-4.71l0-.27,0-.32-.28.14a10.54,10.54,0,0,0-3.66,3.13,16.61,16.61,0,0,0-2.23,4.17,51.31,51.31,0,0,0-2.08,9,24.38,24.38,0,0,1-2.76,8.28c-.74,1.23-1.64,2.34-2.43,3.53a9.72,9.72,0,0,0-1.67,3.91c-.39,2.89,1.22,5.42.9,8A8.8,8.8,0,0,1,44,294.47c-.61,1.1-1.33,2.12-2,3.14a19.58,19.58,0,0,0-1.82,3.16,10.18,10.18,0,0,0-.82,3.43c-.15,2.31.19,4.49,0,6.55a15.19,15.19,0,0,1-1.65,5.63c-.82,1.68-1.73,3.21-2.49,4.69a23.68,23.68,0,0,0-1,2.18,10.43,10.43,0,0,0-.58,2.17,13.45,13.45,0,0,0,0,3.9,9.84,9.84,0,0,0,2,5,4,4,0,0,0,.56.59,2.32,2.32,0,0,0,.45.38,4.07,4.07,0,0,0,.39.27,8.28,8.28,0,0,1-1.33-1.3,9.85,9.85,0,0,1-1.88-4.93,13.46,13.46,0,0,1,.06-3.84,10,10,0,0,1,.6-2.11,21.06,21.06,0,0,1,1-2.16c.76-1.46,1.68-3,2.52-4.68a15.29,15.29,0,0,0,1.71-5.72c.17-2.11-.16-4.3,0-6.55a9.51,9.51,0,0,1,.81-3.32,19.41,19.41,0,0,1,1.79-3.1c.69-1,1.42-2,2.05-3.15a9.22,9.22,0,0,0,1.28-3.7c.32-2.73-1.28-5.28-.88-8a9.28,9.28,0,0,1,1.61-3.73c.78-1.17,1.68-2.29,2.45-3.54a24.78,24.78,0,0,0,2.82-8.42,52.15,52.15,0,0,1,2.06-8.88,16.3,16.3,0,0,1,2.18-4.07,10.12,10.12,0,0,1,3.51-3l-.32-.18,0,.28c.19,1.6.48,3.16.67,4.72a26.87,26.87,0,0,1,.21,4.65,21,21,0,0,1-.2,2.29,13.52,13.52,0,0,1-.75,2.13,39.54,39.54,0,0,0-1.62,4.28,21.57,21.57,0,0,0-.75,4.45c-.15,1.47-.31,2.93-.46,4.37-.31,2.88-.51,5.75-1.66,8.24-.57,1.24-1.33,2.39-1.89,3.64a10.5,10.5,0,0,0-.89,3.94c-.14,2.64.22,5.21-.48,7.55s-2.18,4.28-2.92,6.49a13.13,13.13,0,0,0-.11,6.58,15.09,15.09,0,0,1,.26,5.87c-.39,1.84-1.68,3.17-2.49,4.63a6.49,6.49,0,0,0-.84,2.29,22.14,22.14,0,0,0-.13,2.24,6.6,6.6,0,0,1-.28,2,3.57,3.57,0,0,1-1,1.44A9.33,9.33,0,0,1,41,334.78a12.1,12.1,0,0,1-2.18.61,9.13,9.13,0,0,1-1.39.14Z"/><path class="cls-7" d="M58.08,254.91a.71.71,0,0,0-.06.2l-.15.62c-.13.54-.29,1.35-.54,2.37s-.87,2.16-1.4,3.57-1.09,3-1.59,4.86-1,3.85-1.43,6a25.52,25.52,0,0,1-2.15,6.69c-.56,1.11-1.18,2.24-1.68,3.47a16.61,16.61,0,0,0-1,3.93,79.57,79.57,0,0,1-1.42,8.27l-3.78,15.81c-1.19,4.85-2.26,9.21-3.16,12.9l-2.1,8.7c-.23,1-.41,1.79-.55,2.37,0,.25-.09.45-.13.62s0,.21,0,.21,0-.06.08-.2.1-.36.17-.61c.15-.57.36-1.36.63-2.35.53-2.08,1.29-5,2.23-8.67s2-8,3.26-12.87,2.45-10.21,3.81-15.82a79.83,79.83,0,0,0,1.42-8.31,16,16,0,0,1,.92-3.83c.48-1.2,1.09-2.32,1.65-3.44a25.24,25.24,0,0,0,2.14-6.79c.46-2.18.89-4.2,1.38-6s1-3.44,1.52-4.85,1.09-2.57,1.34-3.62.35-1.85.46-2.39c0-.26.07-.46.1-.63S58.09,254.91,58.08,254.91Z"/><path class="cls-8" d="M38.16,335.54C42.61,332.86,43.84,324.8,42,320s-5.17-9.24-5.7-14.41c-.41-4,.87-8.05-.08-11.93-1.28-5.23-6.42-9.26-6.39-14.65,0-3,1.72-5.87,1.56-8.89-.18-3.7-3-6.62-4.82-9.88-2.73-5-2.94-10.88-3.89-16.47s-3.12-11.58-8.1-14.3c-.7,4.76-1.94,8-1.51,14.46.16,2.31,2.87,6.72,3.26,11.79.24,3,.41,6.06.61,9.09a29.3,29.3,0,0,0,1.48,8.7c.82,2.11,2.13,4,2.75,6.21,1.15,4.1-.31,8.56.63,12.71.79,3.52,3.25,6.55,3.77,10.12.73,5-2.49,10.26-.8,15,.84,2.37,2.8,4.27,3.37,6.72.44,1.9,0,3.92.39,5.84.64,3.07,6.54,5.44,9.68,5.23"/><path class="cls-7" d="M15.79,234.14a1.1,1.1,0,0,0,0,.27c0,.2.06.46.11.78.1.68.22,1.69.46,3s.94,2.79,1.49,4.56,1.16,3.82,1.67,6.1,1,4.82,1.43,7.55a31.71,31.71,0,0,0,2.34,8.52c.63,1.43,1.34,2.85,1.88,4.37a19.91,19.91,0,0,1,1,4.82,97.84,97.84,0,0,0,1.37,10.39c1.41,7,2.75,13.73,4,19.83s2.44,11.55,3.41,16.16,1.78,8.28,2.34,10.88c.28,1.26.5,2.25.66,2.95.07.32.13.57.18.77a.91.91,0,0,0,.08.26s0-.09,0-.27-.08-.45-.13-.77c-.14-.71-.34-1.71-.58-3-.53-2.6-1.28-6.32-2.2-10.91s-2.08-10.09-3.32-16.17-2.54-12.8-3.94-19.83a99.25,99.25,0,0,1-1.37-10.36,19.65,19.65,0,0,0-1-4.91c-.55-1.55-1.27-3-1.91-4.39a31.3,31.3,0,0,1-2.34-8.42c-.48-2.73-.94-5.26-1.48-7.56s-1.14-4.34-1.75-6.11-1.28-3.24-1.55-4.51-.41-2.3-.55-3l-.15-.77A1,1,0,0,0,15.79,234.14Z"/><path class="cls-8" d="M518.21,313.11c-1,1.47-3,1-4,.09a7.51,7.51,0,0,1-1.68-3.44c-.82-2.84-1.64-5.81-1-8.7a4.79,4.79,0,0,1,1.11-2.36,2.53,2.53,0,0,1,2.39-.8,3.7,3.7,0,0,1,2.09,2.2,20.75,20.75,0,0,1,2.05,8.89,7.21,7.21,0,0,1-1,4.12"/><g class="cls-17"><path d="M518.21,313.11c-1,1.47-3,1-4,.09a7.51,7.51,0,0,1-1.68-3.44c-.82-2.84-1.64-5.81-1-8.7a4.79,4.79,0,0,1,1.11-2.36,2.53,2.53,0,0,1,2.39-.8,3.7,3.7,0,0,1,2.09,2.2,20.75,20.75,0,0,1,2.05,8.89,7.21,7.21,0,0,1-1,4.12"/></g><path class="cls-8" d="M514.36,320.56a8.92,8.92,0,0,0-5.54-.67,4.63,4.63,0,0,0-2.74,1.22,2,2,0,0,0,0,2.73,2.62,2.62,0,0,0,1.72.44c1.46,0,3.09-.28,4.26.6.66.51,1.11,1.34,1.91,1.59a1.88,1.88,0,0,0,2.07-.92,3.22,3.22,0,0,0,.24-2.38A3.67,3.67,0,0,0,514.36,320.56Z"/><path class="cls-8" d="M521,315.22a5.33,5.33,0,0,1-.83-4.92,9.47,9.47,0,0,1,2.92-4.23,15.5,15.5,0,0,1,5.22-3.08,5.45,5.45,0,0,1,2.35-.4,2.44,2.44,0,0,1,2,1.19c.55,1.05,0,2.32-.55,3.36a39.79,39.79,0,0,1-3.43,5.22,9.24,9.24,0,0,1-3.77,3.23c-1.57.6-3.2.53-4-.55"/><path class="cls-7" d="M518.28,335.3a4.28,4.28,0,0,1-.09-.67c-.05-.49-.11-1.1-.18-1.82a23.56,23.56,0,0,0-.41-2.68,20.13,20.13,0,0,0-1-3.16,11.64,11.64,0,0,0-1.61-2.85,6.14,6.14,0,0,0-2-1.7,5.79,5.79,0,0,0-1.72-.53,3.48,3.48,0,0,1-.66-.1,3.25,3.25,0,0,1,.68,0,5.21,5.21,0,0,1,1.79.47,6,6,0,0,1,2.15,1.71,11.37,11.37,0,0,1,1.67,2.91,19.53,19.53,0,0,1,1,3.21,23.15,23.15,0,0,1,.36,2.71c.06.77.08,1.4.09,1.83A2.77,2.77,0,0,1,518.28,335.3Z"/><path class="cls-7" d="M518.16,333.9a1.09,1.09,0,0,1,0-.31v-.89c0-.77,0-1.88,0-3.26-.06-2.75-.3-6.55-.76-10.72s-1.07-7.93-1.63-10.62c-.13-.68-.26-1.29-.39-1.82s-.22-1-.31-1.36-.16-.64-.21-.87a2,2,0,0,1-.06-.3,1.21,1.21,0,0,1,.11.29c.07.22.16.5.26.85s.23.82.36,1.35.29,1.14.43,1.82a101.77,101.77,0,0,1,1.72,10.63c.45,4.18.66,8,.68,10.75,0,1.38,0,2.49,0,3.26,0,.36,0,.66,0,.89A1.61,1.61,0,0,1,518.16,333.9Z"/><path class="cls-7" d="M518.14,326.55a5,5,0,0,1,0-.92,23.39,23.39,0,0,1,.28-2.51,33.53,33.53,0,0,1,.82-3.66,32.34,32.34,0,0,1,1.53-4.33,22.8,22.8,0,0,1,4.49-7,11.35,11.35,0,0,1,1.05-1c.16-.14.31-.28.45-.38l.41-.29c.5-.33.77-.51.78-.5a29.69,29.69,0,0,0-2.55,2.28,24.43,24.43,0,0,0-4.38,7,34.49,34.49,0,0,0-1.54,4.29,37,37,0,0,0-.87,3.62c-.19,1-.3,1.89-.37,2.48A5.5,5.5,0,0,1,518.14,326.55Z"/></svg>