<svg id="Layer_1" data-name="Layer 1" xmlns="http://www.w3.org/2000/svg" viewBox="0 0 454.46 302.24"><defs><style>.cls-1{fill:#ececec;}.cls-2{fill:#f5f5f5;}.cls-3{fill:#e1e1e1;}.cls-4{fill:#fafafa;}.cls-5,.cls-8{fill:#fff;}.cls-6{fill:#1a2e35;}.cls-7{fill:#ff735d;}.cls-8{fill-rule:evenodd;}.cls-9{fill:#375a64;}.cls-10{fill:none;}.cls-11{fill:#ffbf9d;}.cls-12{fill:#ff9a6c;}.cls-13{opacity:0.6;}.cls-14{opacity:0.3;}.cls-15{fill:#bf654e;}.cls-16{fill:#724940;}</style></defs><path class="cls-1" d="M47.57,244.39l-1.55.43-4.67-3.76L40.49,238s-2.42.52-1,4.48.81,3,.81,3-5.06,1.43-5.35,2c-.22.4,1,5.47,1.75,8.21a3.07,3.07,0,0,0,2.92,2.4,2.7,2.7,0,0,0,.57-.08c1.26-.35,7.43-3.18,7.43-3.18l2.66-.74Z"/><polygon class="cls-1" points="51.75 242.31 53.74 253.13 51.1 253.87 48.22 243.53 51.75 242.31"/><path class="cls-2" d="M325.66,278.82V291.2h-2.07v1.34h2.07v8.29H364.3v-7.54h-2.86v-1.64h2.86v-2.47h1.28v-1.12h-1.51v-9.24Z"/><polygon class="cls-3" points="354.04 278.85 354.04 300.69 364.31 300.69 364.31 293.15 361.44 293.15 361.44 291.65 364.31 291.7 364.31 289.23 365.6 289.24 365.58 287.96 364.07 287.93 364.07 278.82 354.04 278.85"/><path class="cls-3" d="M354.77,292.37c0,.07-7,.13-15.61.13s-15.62-.06-15.62-.13,7-.14,15.62-.14S354.77,292.29,354.77,292.37Z"/><path class="cls-3" d="M354.77,291.11c0,.07-7,.13-15.61.13s-15.62-.06-15.62-.13,7-.14,15.62-.14S354.77,291,354.77,291.11Z"/><path class="cls-3" d="M356.78,287.72c0,.08-7,.14-15.62.14s-15.62-.06-15.62-.14,7-.13,15.62-.13S356.78,287.65,356.78,287.72Z"/><path class="cls-3" d="M357,297c0,.07-7,.13-15.61.13s-15.62-.06-15.62-.13,7-.14,15.62-.14S357,296.87,357,297Z"/><rect class="cls-2" x="388.09" y="264.11" width="8.62" height="10.24"/><rect class="cls-3" x="349.45" y="263.44" width="38.94" height="11.56"/><path class="cls-3" d="M397,264.41h-9.63v-1H397a.48.48,0,0,1,.48.48h0A.49.49,0,0,1,397,264.41Z"/><path class="cls-3" d="M397,275h-9.63v-1H397a.49.49,0,0,1,.48.49h0A.49.49,0,0,1,397,275Z"/><rect class="cls-1" x="380.72" y="263.44" width="4.6" height="11.56"/><rect class="cls-1" x="353.15" y="263.57" width="4.6" height="11.56"/><path class="cls-3" d="M396.7,265.8s-1.86.05-4.16.05-4.17,0-4.17-.05,1.87-.05,4.17-.05S396.7,265.77,396.7,265.8Z"/><path class="cls-3" d="M396.7,267.34s-1.86.05-4.16.05-4.17,0-4.17-.05,1.87-.06,4.17-.06S396.7,267.31,396.7,267.34Z"/><path class="cls-3" d="M396.7,269.23s-1.86,0-4.16,0-4.17,0-4.17,0,1.87-.05,4.17-.05S396.7,269.2,396.7,269.23Z"/><path class="cls-3" d="M396.7,271.12s-1.86.05-4.16.05-4.17,0-4.17-.05,1.87-.05,4.17-.05S396.7,271.09,396.7,271.12Z"/><path class="cls-3" d="M396.7,273s-1.86.05-4.16.05-4.17,0-4.17-.05,1.87-.05,4.17-.05S396.7,273,396.7,273Z"/><rect class="cls-1" x="360.73" y="268.19" width="17.52" height="2.08"/><rect class="cls-4" x="387.87" y="275.22" width="8.75" height="6.24"/><rect class="cls-2" x="350.74" y="274.99" width="37.23" height="6.69"/><path class="cls-2" d="M387.7,275.45h9.4a.23.23,0,0,0,.22-.23h0a.22.22,0,0,0-.22-.23h-9.4Z"/><path class="cls-2" d="M387.7,281.69h9.4a.22.22,0,0,0,.22-.23h0a.23.23,0,0,0-.22-.23h-9.4Z"/><path class="cls-3" d="M396.62,276.4s-1.94.06-4.33.06-4.32,0-4.32-.06,1.93,0,4.32,0S396.62,276.38,396.62,276.4Z"/><path class="cls-3" d="M396.62,277.59s-1.94.05-4.33.05-4.32,0-4.32-.05,1.93-.06,4.32-.06S396.62,277.56,396.62,277.59Z"/><path class="cls-3" d="M396.62,278.77s-1.94.05-4.33.05-4.32,0-4.32-.05,1.93-.06,4.32-.06S396.62,278.74,396.62,278.77Z"/><path class="cls-3" d="M396.62,280s-1.94.05-4.33.05S388,280,388,280s1.93-.05,4.32-.05S396.62,279.92,396.62,280Z"/><rect class="cls-1" x="389.01" y="282.28" width="8.93" height="16.92"/><rect class="cls-3" x="347.1" y="281.69" width="41.91" height="18.34"/><path class="cls-3" d="M398.64,300H387.87v-1.19h10.77a.6.6,0,0,1,.6.6h0A.59.59,0,0,1,398.64,300Z"/><path class="cls-3" d="M398.64,282.88H387.87v-1.19h10.77a.59.59,0,0,1,.6.59h0A.6.6,0,0,1,398.64,282.88Z"/><path class="cls-3" d="M397.94,284.55s-2,.05-4.46.05-4.47,0-4.47-.05,2-.05,4.47-.05S397.94,284.52,397.94,284.55Z"/><path class="cls-3" d="M397.94,286.72s-2,0-4.46,0-4.47,0-4.47,0,2-.05,4.47-.05S397.94,286.69,397.94,286.72Z"/><path class="cls-3" d="M397.94,288.89s-2,.05-4.46.05-4.47,0-4.47-.05,2-.05,4.47-.05S397.94,288.86,397.94,288.89Z"/><path class="cls-3" d="M397.94,291.06s-2,.05-4.46.05-4.47,0-4.47-.05,2-.05,4.47-.05S397.94,291,397.94,291.06Z"/><path class="cls-3" d="M397.94,293.23s-2,0-4.46,0-4.47,0-4.47,0,2-.05,4.47-.05S397.94,293.2,397.94,293.23Z"/><path class="cls-3" d="M397.94,295.4s-2,.05-4.46.05-4.47,0-4.47-.05,2,0,4.47,0S397.94,295.37,397.94,295.4Z"/><path class="cls-3" d="M397.94,297.57s-2,.05-4.46.05-4.47,0-4.47-.05,2-.05,4.47-.05S397.94,297.54,397.94,297.57Z"/><path class="cls-1" d="M361.44,291.86v1c0,1.23-.61,1.94-1.8,1.94s-1.8-.71-1.8-1.94v-4a1.68,1.68,0,0,1,1.8-1.93c1.19,0,1.8.7,1.8,1.93v.74H360.3v-.82c0-.55-.24-.76-.62-.76s-.63.21-.63.76V293c0,.55.24.75.63.75s.62-.2.62-.75v-1.1Z"/><path class="cls-1" d="M362.08,288.89a1.83,1.83,0,1,1,3.66,0v4a1.83,1.83,0,1,1-3.66,0Zm1.21,4.07c0,.55.24.76.62.76s.63-.21.63-.76v-4.15c0-.55-.24-.76-.63-.76s-.62.21-.62.76Z"/><path class="cls-1" d="M366.52,287h1.21v6.59h2v1.1h-3.2Z"/><path class="cls-1" d="M370.14,288.89a1.84,1.84,0,1,1,3.67,0v4a1.84,1.84,0,1,1-3.67,0Zm1.21,4.07c0,.55.24.76.63.76s.62-.21.62-.76v-4.15c0-.55-.24-.76-.62-.76s-.63.21-.63.76Z"/><path class="cls-1" d="M375.74,287V293c0,.55.24.75.63.75s.62-.2.62-.75V287h1.14v5.85c0,1.23-.61,1.94-1.8,1.94s-1.8-.71-1.8-1.94V287Z"/><path class="cls-1" d="M381.48,294.73a2.31,2.31,0,0,1-.11-1v-1.2c0-.72-.24-1-.79-1h-.42v3.13H379V287h1.83c1.25,0,1.79.59,1.79,1.77v.61a1.53,1.53,0,0,1-.79,1.55c.6.26.8.84.8,1.64v1.18a2.31,2.31,0,0,0,.13.94Zm-1.32-6.59v2.36h.47c.45,0,.73-.2.73-.81v-.76c0-.55-.19-.79-.62-.79Z"/><path class="cls-3" d="M361.18,277.63h-.88l.05-.23h2l-.05.23h-.88L361,279.9h-.26Z"/><path class="cls-3" d="M364.06,278l-1.37,2.12c-.23.35-.4.46-.67.46a.63.63,0,0,1-.45-.16l.14-.19a.42.42,0,0,0,.33.14c.16,0,.28-.08.43-.31l.13-.19-.46-1.87h.25l.39,1.6,1-1.6Z"/><path class="cls-3" d="M366.15,278.8a1.05,1.05,0,0,1-1.06,1.11.7.7,0,0,1-.72-.41l-.21,1.09h-.25l.51-2.57h.24l-.06.3a.94.94,0,0,1,.73-.31A.76.76,0,0,1,366.15,278.8Zm-.26,0a.54.54,0,0,0-.62-.58.81.81,0,0,0-.8.88.54.54,0,0,0,.61.58A.82.82,0,0,0,365.89,278.81Z"/><path class="cls-3" d="M366.44,279.12a1.06,1.06,0,0,1,1.09-1.11.76.76,0,0,1,.85.79,1.07,1.07,0,0,1-1.09,1.11A.77.77,0,0,1,366.44,279.12Zm1.68-.31a.54.54,0,0,0-.61-.58.82.82,0,0,0-.81.88.54.54,0,0,0,.61.58A.82.82,0,0,0,368.12,278.81Z"/><path class="cls-3" d="M370.8,278l-.32,1.65a1,1,0,0,1-1.09.93,1.15,1.15,0,0,1-.84-.28l.15-.19a1,1,0,0,0,.7.25.74.74,0,0,0,.82-.67l0-.21a1,1,0,0,1-.75.32.74.74,0,0,1-.83-.75,1,1,0,0,1,1.07-1.06.71.71,0,0,1,.73.42l.08-.41Zm-.42.75c0-.34-.24-.54-.62-.54a.79.79,0,0,0-.82.82c0,.35.23.55.62.55A.8.8,0,0,0,370.38,278.77Z"/><path class="cls-3" d="M372.46,278l0,.24h-.07a.74.74,0,0,0-.76.69l-.19,1h-.25l.37-1.88h.24l-.06.34A.84.84,0,0,1,372.46,278Z"/><path class="cls-3" d="M374.6,278l-.37,1.88H374l.06-.3a1,1,0,0,1-.73.31.76.76,0,0,1-.82-.79,1.05,1.05,0,0,1,1.06-1.11.69.69,0,0,1,.71.4l.08-.39Zm-.42.79a.54.54,0,0,0-.61-.58.83.83,0,0,0-.82.88.55.55,0,0,0,.62.58A.82.82,0,0,0,374.18,278.81Z"/><path class="cls-3" d="M377,278.8a1.05,1.05,0,0,1-1.06,1.11.7.7,0,0,1-.72-.41l-.21,1.09h-.25l.51-2.57h.24l-.06.3a1,1,0,0,1,.73-.31A.76.76,0,0,1,377,278.8Zm-.26,0a.54.54,0,0,0-.62-.58.81.81,0,0,0-.8.88.54.54,0,0,0,.61.58A.82.82,0,0,0,376.78,278.81Z"/><path class="cls-3" d="M379.31,278.62a1.65,1.65,0,0,1,0,.21l-.22,1.07h-.25l.21-1.07a1.11,1.11,0,0,0,0-.17c0-.27-.16-.42-.48-.42a.73.73,0,0,0-.77.65l-.2,1h-.25l.53-2.65h.25l-.21,1.05a.93.93,0,0,1,.72-.29A.59.59,0,0,1,379.31,278.62Z"/><path class="cls-3" d="M381.68,278l-1.37,2.12c-.23.35-.41.46-.68.46a.67.67,0,0,1-.45-.16l.14-.19a.42.42,0,0,0,.33.14c.16,0,.29-.08.43-.31l.13-.19-.46-1.87H380l.39,1.6,1-1.6Z"/><path class="cls-1" d="M87.21,145.57h0a20.3,20.3,0,0,1-20.3-20.3h0A20.3,20.3,0,0,1,87.21,105h0a20.3,20.3,0,0,1,20.3,20.3h0A20.3,20.3,0,0,1,87.21,145.57Z"/><path class="cls-5" d="M87.21,112.33a12.94,12.94,0,1,0,12.94,12.94A12.94,12.94,0,0,0,87.21,112.33Zm0,2.25a10.58,10.58,0,0,1,6.51,2.24,13,13,0,0,1-5.37,4,51.37,51.37,0,0,0-3.76-5.86A10.68,10.68,0,0,1,87.21,114.58Zm-4.83,1.16a48,48,0,0,1,3.82,5.81,34.56,34.56,0,0,1-9.37,1.19A10.75,10.75,0,0,1,82.38,115.74Zm-5.86,9.53c0-.09,0-.18,0-.27a36.4,36.4,0,0,0,10.73-1.43c.25.51.49,1,.72,1.54a16.72,16.72,0,0,0-9,7A10.64,10.64,0,0,1,76.52,125.27ZM87.21,136a10.58,10.58,0,0,1-6.56-2.27,14.51,14.51,0,0,1,8.19-6.5,41.72,41.72,0,0,1,2.2,8.05A10.6,10.6,0,0,1,87.21,136Zm5.93-1.8a43.67,43.67,0,0,0-2.07-7.44,21.52,21.52,0,0,1,6.69.21A10.73,10.73,0,0,1,93.14,134.16Zm-2.93-9.57c-.26-.61-.54-1.21-.83-1.81a15.36,15.36,0,0,0,6-4.4,10.64,10.64,0,0,1,2.51,6.29A23,23,0,0,0,90.21,124.59Z"/><path class="cls-1" d="M19.58,100.54l-2.37,1.29L8.1,97.46,5.51,92.74s-3.79,1.78,0,7.73S8,105.1,8,105.1s-7.76,4.29-8,5.32c-.2.75,3.81,8.58,6,12.81A5.17,5.17,0,0,0,11.75,126a3.91,3.91,0,0,0,.9-.35c1.94-1.06,11-8.06,11-8.06l4.09-2.24Z"/><polygon class="cls-1" points="25.64 95.52 33.06 112.52 29 114.74 20.31 98.87 25.64 95.52"/><circle class="cls-2" cx="279.07" cy="29.32" r="24.6" transform="translate(-1.24 16.38) rotate(-3.35)"/><path class="cls-3" d="M270.59,23.12c.93-.08,1.77.95,1.89,2.3s-.56,2.5-1.49,2.57-1.78-.95-1.89-2.29S269.65,23.2,270.59,23.12Z"/><path class="cls-3" d="M272.75,16.89c0,.22-2.08,0-4.38.89s-3.76,2.32-3.91,2.17,1.15-1.92,3.66-2.83S272.81,16.72,272.75,16.89Z"/><path class="cls-3" d="M286.22,22.8c-.93,0-1.73,1-1.79,2.37s.66,2.48,1.59,2.51,1.74-1,1.8-2.37S287.16,22.84,286.22,22.8Z"/><path class="cls-3" d="M283.81,16.67c-.07-.17,2.09-.8,4.63,0s3.93,2.58,3.78,2.68-1.65-1.27-4-2S283.83,16.88,283.81,16.67Z"/><path class="cls-3" d="M291.21,29.07a4.1,4.1,0,0,1-.17,1.32,11.35,11.35,0,0,1-1.43,3.33,13.15,13.15,0,0,1-3.75,3.89,11.95,11.95,0,0,1-12.7.66A13,13,0,0,1,269,34.79a10.88,10.88,0,0,1-1.77-3.17,4,4,0,0,1-.31-1.29,18.57,18.57,0,0,0,2.46,4.15,13.3,13.3,0,0,0,4,3.21,12.32,12.32,0,0,0,6.11,1.38,12.15,12.15,0,0,0,5.92-2,13.16,13.16,0,0,0,3.7-3.61A18.7,18.7,0,0,0,291.21,29.07Z"/><circle class="cls-2" cx="440.04" cy="77.5" r="14.43" transform="translate(81.66 344.35) rotate(-46.66)"/><path class="cls-3" d="M435.06,73.87c.55-.05,1,.56,1.11,1.35s-.33,1.46-.88,1.51-1-.56-1.1-1.35S434.51,73.91,435.06,73.87Z"/><path class="cls-3" d="M436.33,70.22a16.59,16.59,0,0,0-2.57.52,18.28,18.28,0,0,0-2.3,1.27,4.53,4.53,0,0,1,4.87-1.79Z"/><path class="cls-3" d="M444.23,73.68c-.55,0-1,.6-1.05,1.39s.38,1.45.93,1.47,1-.6,1.05-1.39S444.78,73.7,444.23,73.68Z"/><path class="cls-3" d="M442.81,70.08a4.52,4.52,0,0,1,4.93,1.59,16.51,16.51,0,0,0-2.34-1.17A17.68,17.68,0,0,0,442.81,70.08Z"/><path class="cls-3" d="M447.15,77.36a2.35,2.35,0,0,1-.1.77,6.51,6.51,0,0,1-.84,2,7.56,7.56,0,0,1-2.2,2.27,7,7,0,0,1-7.44.39,7.63,7.63,0,0,1-2.43-2,6.48,6.48,0,0,1-1-1.86,2.34,2.34,0,0,1-.18-.75,10.58,10.58,0,0,0,1.44,2.43,7.65,7.65,0,0,0,2.38,1.88,6.78,6.78,0,0,0,7.05-.36A7.85,7.85,0,0,0,446,79.93,10.79,10.79,0,0,0,447.15,77.36Z"/><path class="cls-1" d="M72.86,169.69l-1.53-.25-2.59-5.21.5-3.06s-2.35-.53-2.72,3.52-.51,3-.51,3-5-.8-5.53-.43-1.31,5.24-1.8,7.95a3,3,0,0,0,1.6,3.3,2.49,2.49,0,0,0,.53.16c1.25.2,7.84.23,7.84.23l2.65.43Z"/><polygon class="cls-1" points="77.39 169.57 74.74 179.91 72.11 179.48 73.79 169.2 77.39 169.57"/><path class="cls-1" d="M412.85,14.16l-1.53-.25L408.73,8.7l.5-3.07s-2.35-.53-2.72,3.53-.51,3-.51,3-5-.8-5.53-.43-1.31,5.25-1.8,8a3,3,0,0,0,1.6,3.3,2,2,0,0,0,.53.16c1.25.21,7.84.23,7.84.23l2.65.43Z"/><polygon class="cls-1" points="417.38 14.03 414.73 24.37 412.1 23.94 413.78 13.66 417.38 14.03"/><rect class="cls-4" x="202.53" y="100.38" width="63.48" height="50.75" transform="translate(-0.67 1.25) rotate(-0.3)"/><path class="cls-6" d="M265.88,100.21h-.3l-.9,0-3.44,0-13,.12-45.84.32.16-.16c.09,15.1.19,32.42.29,50.74h0l-.18-.18,63.48-.31L266,151c-.05-15.28-.09-27.95-.12-36.81,0-4.43,0-7.9,0-10.28v-2.72c0-.61,0-.94,0-.94s0,.3,0,.91,0,1.51,0,2.68c0,2.38.05,5.84.09,10.26.07,8.88.16,21.58.28,36.9v.16h-.16l-63.48.36h-.18v-.19h0c-.09-18.33-.18-35.64-.25-50.75v-.17h.17l45.94-.16,13,0h4.58Z"/><rect class="cls-1" x="204.72" y="103.57" width="59.02" height="44.36" transform="translate(-0.67 1.25) rotate(-0.3)"/><polygon class="cls-3" points="204.84 148.09 225.31 120.41 238.17 137.59 246.78 128.32 263.86 147.78 204.84 148.09"/><path class="cls-3" d="M243.48,116.93a4.65,4.65,0,1,1-4.67-4.62A4.65,4.65,0,0,1,243.48,116.93Z"/><path class="cls-6" d="M445.06,300.56c0,.1-98,.18-218.87.18s-218.88-.08-218.88-.18,98-.19,218.88-.19S445.06,300.45,445.06,300.56Z"/><path class="cls-7" d="M89.85,265.86h0a17.32,17.32,0,0,1-17.32-17.32h0a17.31,17.31,0,0,1,17.32-17.32h0a17.31,17.31,0,0,1,17.31,17.32h0A17.32,17.32,0,0,1,89.85,265.86Z"/><path class="cls-8" d="M99.34,248.06a9.33,9.33,0,0,0-18.64-.17c0,.13,0,.27,0,.4A9.18,9.18,0,0,0,82,253.08l-1.68,5,5.16-1.64A9.41,9.41,0,0,0,90,257.55a9.29,9.29,0,0,0,9.33-9.26A1.85,1.85,0,0,0,99.34,248.06Zm-9.32,8a7.86,7.86,0,0,1-4.31-1.29l-3,1,1-2.89a7.71,7.71,0,0,1-1.49-4.57,6.28,6.28,0,0,1,0-.75,7.84,7.84,0,0,1,15.61.15q0,.3,0,.6A7.82,7.82,0,0,1,90,256.08Z"/><path class="cls-8" d="M94.29,250.16c-.23-.11-1.35-.66-1.56-.73s-.36-.12-.51.11-.6.74-.73.89-.27.17-.5,0a6.24,6.24,0,0,1-1.83-1.12,7,7,0,0,1-1.28-1.57c-.13-.23,0-.35.1-.46s.23-.27.35-.4l.08-.11a2.18,2.18,0,0,0,.15-.27.4.4,0,0,0,0-.4c-.06-.11-.52-1.23-.71-1.68s-.38-.38-.51-.38l-.44,0a.83.83,0,0,0-.61.28,2.55,2.55,0,0,0-.8,1.9,2.88,2.88,0,0,0,.12.77,5.25,5.25,0,0,0,.81,1.57A9.39,9.39,0,0,0,90.31,252c2.32.9,2.32.6,2.74.56a2.26,2.26,0,0,0,1.55-1.08,1.82,1.82,0,0,0,.13-1.07C94.67,250.33,94.52,250.28,94.29,250.16Z"/><path class="cls-7" d="M42.58,154.83h0a13.35,13.35,0,0,1-13.34-13.35h0a13.35,13.35,0,0,1,13.34-13.35h0a13.35,13.35,0,0,1,13.35,13.35h0A13.35,13.35,0,0,1,42.58,154.83Z"/><path class="cls-5" d="M38.31,142.72a.32.32,0,0,0,.46-.23l.18-.73a.43.43,0,0,0-.13-.5,2.64,2.64,0,0,1-.6-1.79,4.31,4.31,0,0,1,4.48-4.36c2.45,0,3.79,1.49,3.79,3.49,0,2.62-1.16,4.84-2.88,4.84a1.41,1.41,0,0,1-1.44-1.75,19.92,19.92,0,0,0,.8-3.24,1.22,1.22,0,0,0-1.23-1.36c-1,0-1.75,1-1.75,2.35a3.5,3.5,0,0,0,.29,1.44s-1,4.23-1.17,5a10.06,10.06,0,0,0,0,3.46.13.13,0,0,0,.22.05,9.69,9.69,0,0,0,1.64-3c.11-.41.64-2.5.64-2.5A2.62,2.62,0,0,0,43.8,145c2.93,0,4.92-2.67,4.92-6.24A5.44,5.44,0,0,0,43,133.56c-4.32,0-6.5,3.1-6.5,5.68A3.51,3.51,0,0,0,38.31,142.72Z"/><path class="cls-9" d="M26.55,218.58h0A18.28,18.28,0,0,1,8.28,200.3h0A18.27,18.27,0,0,1,26.55,182h0A18.27,18.27,0,0,1,44.82,200.3h0A18.28,18.28,0,0,1,26.55,218.58Z"/><path class="cls-5" d="M26.55,192.09c2.67,0,3,0,4.05.06a5.73,5.73,0,0,1,1.86.34,3.33,3.33,0,0,1,1.9,1.9,5.47,5.47,0,0,1,.34,1.86c0,1.06.06,1.38.06,4.05s0,3-.06,4a5.35,5.35,0,0,1-.34,1.86,3.06,3.06,0,0,1-.75,1.15,3.14,3.14,0,0,1-1.15.75,5.66,5.66,0,0,1-1.86.35c-1.06,0-1.38.06-4.05.06s-3,0-4.05-.06a5.54,5.54,0,0,1-1.86-.35,3.33,3.33,0,0,1-1.9-1.9,5.54,5.54,0,0,1-.35-1.86c0-1-.06-1.37-.06-4s0-3,.06-4.05a5.66,5.66,0,0,1,.35-1.86,3.14,3.14,0,0,1,.75-1.15,3.06,3.06,0,0,1,1.15-.75,5.61,5.61,0,0,1,1.86-.34c1.06-.05,1.37-.06,4.05-.06m0-1.81c-2.72,0-3.06,0-4.13.06a7.24,7.24,0,0,0-2.43.47A5,5,0,0,0,18.21,192a4.7,4.7,0,0,0-1.15,1.77,7.35,7.35,0,0,0-.47,2.43c-.05,1.07-.06,1.41-.06,4.13s0,3.07.06,4.13a7.36,7.36,0,0,0,.47,2.44,4.86,4.86,0,0,0,1.15,1.77A5,5,0,0,0,20,209.8a7.53,7.53,0,0,0,2.43.46c1.07.05,1.41.06,4.13.06s3.06,0,4.13-.06a7.59,7.59,0,0,0,2.43-.46A5.11,5.11,0,0,0,36,206.87a7.36,7.36,0,0,0,.47-2.44c.05-1.06.06-1.41.06-4.13s0-3.06-.06-4.13a7.35,7.35,0,0,0-.47-2.43A4.82,4.82,0,0,0,34.89,192a5,5,0,0,0-1.78-1.16,7.3,7.3,0,0,0-2.43-.47c-1.07,0-1.41-.06-4.13-.06"/><path class="cls-5" d="M26.55,195.16a5.15,5.15,0,1,0,5.14,5.14,5.15,5.15,0,0,0-5.14-5.14m0,8.48a3.34,3.34,0,1,1,3.34-3.34,3.33,3.33,0,0,1-3.34,3.34"/><path class="cls-5" d="M33.1,195a1.21,1.21,0,1,1-1.2-1.2,1.21,1.21,0,0,1,1.2,1.2"/><path class="cls-9" d="M71.08,101.47h0a11,11,0,0,1-11-11h0a11,11,0,0,1,11-11h0a11,11,0,0,1,11,11h0A11,11,0,0,1,71.08,101.47Z"/><path class="cls-5" d="M69.4,97.12h2.68V90.41H74l.2-2.25H72.08V86.88c0-.53.11-.74.62-.74h1.45V83.81H72.29c-2,0-2.89.88-2.89,2.56v1.79H68v2.27H69.4Z"/><circle class="cls-5" cx="344.47" cy="34.83" r="15.87" transform="translate(-1.68 42.12) rotate(-6.98)"/><path class="cls-6" d="M360.34,34.83s0-.34-.07-1a7.59,7.59,0,0,0-.13-1.21,11.06,11.06,0,0,0-.33-1.64,15.13,15.13,0,0,0-1.75-4.21,15.88,15.88,0,0,0-4-4.49,15.66,15.66,0,0,0-6.64-2.95,15.86,15.86,0,0,0-8.29.69,14.77,14.77,0,0,0-4,2.15,18.22,18.22,0,0,0-1.79,1.52,16.94,16.94,0,0,0-1.54,1.83,15.72,15.72,0,0,0,0,18.65A18.26,18.26,0,0,0,333.31,46a18.22,18.22,0,0,0,1.79,1.52,14.77,14.77,0,0,0,4,2.15,15.8,15.8,0,0,0,19-6.75,15.13,15.13,0,0,0,1.75-4.21,11.06,11.06,0,0,0,.33-1.64,7.59,7.59,0,0,0,.13-1.22c0-.66.07-1,.07-1s0,.35,0,1a7.5,7.5,0,0,1-.11,1.22,11.28,11.28,0,0,1-.32,1.65A15.25,15.25,0,0,1,358.15,43a15.85,15.85,0,0,1-4,4.53,15.67,15.67,0,0,1-6.7,3,15.88,15.88,0,0,1-8.38-.68A15.24,15.24,0,0,1,335,47.66a18.67,18.67,0,0,1-1.81-1.54,17.34,17.34,0,0,1-1.56-1.85,15.87,15.87,0,0,1,0-18.87,16.4,16.4,0,0,1,1.56-1.85A19.94,19.94,0,0,1,335,22,15.24,15.24,0,0,1,339,19.85a15.88,15.88,0,0,1,8.38-.68,15.67,15.67,0,0,1,6.7,3,15.85,15.85,0,0,1,4,4.53A15.14,15.14,0,0,1,359.88,31a11.28,11.28,0,0,1,.32,1.65,7.5,7.5,0,0,1,.11,1.22C360.34,34.49,360.34,34.83,360.34,34.83Z"/><path class="cls-10" d="M344.47,24.47a10.37,10.37,0,1,0,10.37,10.36A10.38,10.38,0,0,0,344.47,24.47Z"/><path class="cls-7" d="M344.47,24.47a8,8,0,0,1,2.56.23,10.48,10.48,0,0,1,7.82,8.19,10.56,10.56,0,0,1-.44,5.55A9.78,9.78,0,0,1,353,41.12a10,10,0,0,1-2.25,2.25,10.5,10.5,0,0,1-12.52,0A10,10,0,0,1,336,41.12a10.09,10.09,0,0,1-1.44-2.68,10.51,10.51,0,0,1,1.57-10,10.41,10.41,0,0,1,5.82-3.76,7.94,7.94,0,0,1,2.55-.23,18.94,18.94,0,0,0-2.51.41,10.36,10.36,0,0,0-5.59,3.79A10.08,10.08,0,0,0,334.48,33a10.26,10.26,0,0,0,.46,5.33,9.53,9.53,0,0,0,1.39,2.56A9.74,9.74,0,0,0,338.48,43a10.07,10.07,0,0,0,12,0,10.1,10.1,0,0,0,3.54-4.7,10.16,10.16,0,0,0-1.42-9.62,10.42,10.42,0,0,0-5.6-3.79A18.4,18.4,0,0,0,344.47,24.47Z"/><path class="cls-10" d="M344.47,31.54a3.3,3.3,0,1,0,3.29,3.29A3.3,3.3,0,0,0,344.47,31.54Z"/><path class="cls-7" d="M344.47,31.54a1.68,1.68,0,0,1,.83,0,3.3,3.3,0,0,1,1.92,1.18,3.45,3.45,0,0,1,.55,3.29,3.49,3.49,0,0,1-6.59,0,3.45,3.45,0,0,1,.54-3.29,3.35,3.35,0,0,1,1.93-1.18,1.63,1.63,0,0,1,.82,0,6.83,6.83,0,0,1-.78.2A3.24,3.24,0,0,0,342,33a3.09,3.09,0,1,0,5,0,3.2,3.2,0,0,0-1.7-1.21A6.83,6.83,0,0,1,344.47,31.54Z"/><path class="cls-2" d="M327.56,46.27C333,42.45,339,38.66,344.47,34.83"/><path class="cls-6" d="M344.47,34.84s-3.73,2.63-8.4,5.79-8.48,5.69-8.51,5.64,3.73-2.64,8.4-5.79S344.44,34.79,344.47,34.84Z"/><path class="cls-6" d="M329.42,45.17a10.54,10.54,0,0,1-2,0,9.25,9.25,0,0,1-1.95-.17,10.54,10.54,0,0,1,2,0A9.36,9.36,0,0,1,329.42,45.17Z"/><path class="cls-6" d="M328.76,47.74A4.78,4.78,0,0,1,329,46.4a5,5,0,0,1,.38-1.3,5,5,0,0,1-.2,1.34A4.79,4.79,0,0,1,328.76,47.74Z"/><path class="cls-6" d="M329.72,47.44a4.66,4.66,0,0,1,.15-1.4,5.5,5.5,0,0,1,.34-1.37,5.08,5.08,0,0,1-.15,1.4A5.5,5.5,0,0,1,329.72,47.44Z"/><path class="cls-6" d="M327.46,44a5.24,5.24,0,0,1,1.37.22,5.42,5.42,0,0,1,1.32.41,5.24,5.24,0,0,1-1.37-.22A5.42,5.42,0,0,1,327.46,44Z"/><path class="cls-7" d="M410.58,118.49s0,.06.07.2a3.23,3.23,0,0,1,.08.6,4.63,4.63,0,0,1-.55,2.24A11.53,11.53,0,0,1,408,124.3l-3.15,3.29-.1.11-.12-.09-3.38-2.72a10.15,10.15,0,0,1-3.25-3.55,3.69,3.69,0,0,1-.07-3.1,3.6,3.6,0,0,1,2.27-1.92,3.29,3.29,0,0,1,2.74.51,3.5,3.5,0,0,1,1.44,2.14l-.3,0a3.51,3.51,0,0,1,2.29-2.89,3.19,3.19,0,0,1,2.83.37,3.4,3.4,0,0,1,1.23,1.39,3.22,3.22,0,0,1,.16.46c0,.11,0,.17,0,.17s-.07-.22-.27-.59a3.28,3.28,0,0,0-1.23-1.28,3,3,0,0,0-2.65-.29,3.25,3.25,0,0,0-2.08,2.68l-.1,1-.2-1a3.15,3.15,0,0,0-1.33-1.93,2.91,2.91,0,0,0-2.46-.44,3.24,3.24,0,0,0-2,1.73,3.37,3.37,0,0,0,.08,2.81,10,10,0,0,0,3.14,3.42c1.19,1,2.31,1.88,3.36,2.74h-.21l3.19-3.26a12.14,12.14,0,0,0,2.24-2.67,4.82,4.82,0,0,0,.61-2.15A7.29,7.29,0,0,0,410.58,118.49Z"/><path class="cls-7" d="M392.85,109.48s0,.15,0,.43,0,.71.08,1.24c.06,1.1.15,2.7.27,4.74.22,4.11.54,10,.93,17.29l-.14-.12,15.23-.79h.15v.16c.12,2.28.24,4.72.37,7.23l-.29-.1,6.87-7.6.05-.06h.07l16.69-.84,5.11-.26-.17.19c-.41-8.38-.81-16.36-1.17-23.71l.17.16-31.84,1.51-9.13.42-2.44.1-.63,0h-.23l.2,0,.62,0,2.4-.14,9.09-.5,31.95-1.68h.16v.17c.37,7.34.78,15.32,1.2,23.7v.18h-.18l-5.12.26-16.68.83.12-.06-6.88,7.59-.27.3,0-.4c-.12-2.51-.24-4.95-.36-7.24l.17.16-15.22.73h-.14v-.14c-.34-7.31-.61-13.25-.8-17.37-.09-2-.16-3.62-.2-4.71l-.05-1.22C392.85,109.61,392.85,109.48,392.85,109.48Z"/><path class="cls-6" d="M417.85,120.54l-1.87.09.09,1.82-.44,0-.09-1.82-1.86.1,0-.43,1.87-.09-.09-1.83.44,0,.09,1.83,1.87-.1Z"/><path class="cls-6" d="M420.49,116.74l.34,6.88-.5,0-.32-6.42-1.68.08,0-.45Z"/><path class="cls-6" d="M422.4,120.09c-.1-2.15.94-3.54,2.52-3.62s2.76,1.2,2.87,3.35-.94,3.55-2.52,3.63S422.51,122.24,422.4,120.09Zm4.89-.24c-.1-1.92-1.05-3-2.35-2.92s-2.13,1.22-2,3.14,1.05,3,2.35,2.91S427.38,121.76,427.29,119.85Z"/><path class="cls-6" d="M428.87,119.77c-.11-2.15.94-3.54,2.52-3.62s2.76,1.2,2.86,3.35-.93,3.54-2.51,3.62S429,121.92,428.87,119.77Zm4.88-.25c-.09-1.91-1-3-2.34-2.91s-2.13,1.22-2,3.13,1.05,3,2.34,2.92S433.85,121.44,433.75,119.52Z"/><rect class="cls-7" x="399.57" y="57.65" width="4.79" height="19.08"/><rect class="cls-7" x="391.69" y="56.2" width="4.79" height="20.53"/><rect class="cls-7" x="384.05" y="58.74" width="4.79" height="17.98"/><rect class="cls-7" x="376.29" y="61.55" width="4.79" height="15.18"/><path class="cls-6" d="M408,76.79c0,.11-7.88.19-17.59.19s-17.59-.08-17.59-.19,7.87-.18,17.59-.18S408,76.69,408,76.79Z"/><path class="cls-6" d="M406,58.82s-.55,0-1.53,0A9.07,9.07,0,0,0,400.53,60a8.63,8.63,0,0,0-2.2,1.8c-.68.77-1.29,1.7-2,2.63a7.73,7.73,0,0,1-2.84,2.41,10.53,10.53,0,0,1-3.92.77c-1.37,0-2.69,0-3.95,0a17.88,17.88,0,0,0-3.6.48,9,9,0,0,0-5.12,3.15,6.74,6.74,0,0,0-1.43,3.81,12.23,12.23,0,0,0,.14,1.52,4.12,4.12,0,0,1-.29-1.52,6.74,6.74,0,0,1,1.37-4,7.84,7.84,0,0,1,2.15-2,10.9,10.9,0,0,1,3.09-1.31,18.65,18.65,0,0,1,3.67-.53c1.29-.06,2.61,0,3.95,0a10.23,10.23,0,0,0,3.79-.73A7.42,7.42,0,0,0,396,64.23c.73-.91,1.35-1.84,2.07-2.62a8.54,8.54,0,0,1,2.29-1.83,8.81,8.81,0,0,1,4.06-1.1,8.24,8.24,0,0,1,1.15.06A1.76,1.76,0,0,1,406,58.82Z"/><path class="cls-6" d="M373.45,54.3c.1,0,.19,5.12.19,11.43s-.09,11.43-.19,11.43-.18-5.11-.18-11.43S373.35,54.3,373.45,54.3Z"/><path class="cls-6" d="M331.1,100.65a5.09,5.09,0,0,1-1.67.6,5,5,0,0,1-1.74.35,4,4,0,0,1,1.64-.71A3.89,3.89,0,0,1,331.1,100.65Z"/><path class="cls-6" d="M338.13,100.06a5.08,5.08,0,0,1-1.76.17,5.24,5.24,0,0,1-1.77-.09,6.61,6.61,0,0,1,3.53-.08Z"/><path class="cls-6" d="M345.12,101.11a5,5,0,0,1-1.76-.23,5.09,5.09,0,0,1-1.7-.49,3.91,3.91,0,0,1,1.78.13A4,4,0,0,1,345.12,101.11Z"/><path class="cls-6" d="M351.68,103.73a12,12,0,0,1-3.21-1.5,4,4,0,0,1,1.71.53C351.07,103.18,351.73,103.64,351.68,103.73Z"/><path class="cls-6" d="M357.44,107.8c-.07.08-.7-.4-1.46-1s-1.35-1.13-1.29-1.21.76.3,1.53.92S357.51,107.73,357.44,107.8Z"/><path class="cls-7" d="M393.72,183.71a3.37,3.37,0,1,1-1.91-4.37A3.37,3.37,0,0,1,393.72,183.71Z"/><path class="cls-7" d="M405,180.86a3.37,3.37,0,1,1-1.91-4.37A3.37,3.37,0,0,1,405,180.86Z"/><path class="cls-7" d="M399.78,194.18a3.39,3.39,0,1,1-1.81-4.64A3.53,3.53,0,0,1,399.78,194.18Z"/><path class="cls-7" d="M395.86,192.19c-.21.14-1.83-1.86-3.62-4.48s-3.07-4.86-2.86-5,1.84,1.86,3.63,4.48S396.08,192,395.86,192.19Z"/><path class="cls-7" d="M401.27,179.16c.07.24-2.13,1.11-4.91,1.92s-5.1,1.28-5.18,1,2.13-1.1,4.92-1.92S401.2,178.91,401.27,179.16Z"/><path class="cls-7" d="M352.29,214.73a3,3,0,0,1-.09-.82,9,9,0,0,0-.11-1,10.29,10.29,0,0,0-.26-1.33,12.62,12.62,0,0,0-1.38-3.41,12.9,12.9,0,0,0-3.17-3.65,12.62,12.62,0,0,0-11.91-2,11.81,11.81,0,0,0-3.22,1.64,14.66,14.66,0,0,0-1.45,1.18,14.41,14.41,0,0,0-1.27,1.43,12.52,12.52,0,0,0-.36,14.85,12.41,12.41,0,0,0,1.2,1.49,12.55,12.55,0,0,0,1.39,1.25,11.77,11.77,0,0,0,3.14,1.8,12.77,12.77,0,0,0,6.6.74,12.64,12.64,0,0,0,5.39-2.2,12.92,12.92,0,0,0,3.35-3.5,12.52,12.52,0,0,0,1.53-3.34,9.3,9.3,0,0,0,.33-1.31,7.87,7.87,0,0,0,.16-1,3.18,3.18,0,0,1,.13-.81,3.73,3.73,0,0,1,0,.83,5.74,5.74,0,0,1-.09,1,9.44,9.44,0,0,1-.27,1.35,12.11,12.11,0,0,1-1.47,3.47,13.08,13.08,0,0,1-9,6.07,13.22,13.22,0,0,1-6.94-.71,12.45,12.45,0,0,1-3.32-1.87A12.27,12.27,0,0,1,328.5,222a13.17,13.17,0,0,1,.38-15.68,14.77,14.77,0,0,1,1.34-1.5,16.38,16.38,0,0,1,1.54-1.24,12.45,12.45,0,0,1,3.4-1.7,13.14,13.14,0,0,1,7-.37A13.12,13.12,0,0,1,350.8,208a12.09,12.09,0,0,1,1.3,3.54,10.17,10.17,0,0,1,.2,1.36,6.16,6.16,0,0,1,0,1A4.16,4.16,0,0,1,352.29,214.73Z"/><path class="cls-7" d="M349.7,206.66s-.2.24-.65.57l-.83.6-.53.36-.64.33a14.61,14.61,0,0,1-7.59,1.92l-1.15-.06-1.1-.17-.54-.09-.52-.14c-.33-.09-.67-.17-1-.27a16.5,16.5,0,0,1-3.22-1.49,7.41,7.41,0,0,1-2.51-2.06c.07-.08,1,.72,2.76,1.63a19.06,19.06,0,0,0,3.17,1.29l1,.25.49.12.51.08,1.06.15,1.09,0a15.68,15.68,0,0,0,7.36-1.66l.64-.28.55-.3.88-.49C349.39,206.74,349.68,206.62,349.7,206.66Z"/><path class="cls-7" d="M329,222.36s.2-.24.65-.57l.83-.6.53-.36.64-.33a14.63,14.63,0,0,1,7.59-1.92l1.15,0,1.11.18c.18,0,.36.05.53.09l.52.13,1,.28a16.51,16.51,0,0,1,3.22,1.48,7.41,7.41,0,0,1,2.51,2.06c-.07.08-1-.71-2.75-1.62a19.52,19.52,0,0,0-3.18-1.3c-.3-.09-.63-.15-.95-.24l-.5-.12-.51-.08-1.06-.15-1.09-.05a15.81,15.81,0,0,0-7.36,1.65l-.64.28c-.2.11-.37.22-.55.31l-.88.49C329.35,222.28,329.07,222.4,329,222.36Z"/><path class="cls-7" d="M352.28,215c0,.19-5.79.21-12.92,0s-12.91-.47-12.91-.67,5.79-.21,12.92,0S352.29,214.83,352.28,215Z"/><path class="cls-7" d="M338.77,227.32c-.2,0-.21-5.79,0-12.92s.47-12.91.67-12.91.21,5.79,0,12.92S339,227.32,338.77,227.32Z"/><path class="cls-7" d="M338.77,227.3a10.41,10.41,0,0,1-3.11-3.08,16.88,16.88,0,0,1-2.31-4.19,15.47,15.47,0,0,1-1-5.79,14.84,14.84,0,0,1,1.3-5.73,18.18,18.18,0,0,1,2.52-4.06,11.09,11.09,0,0,1,3.23-3c.07.08-1.23,1.14-2.83,3.27a19.55,19.55,0,0,0-2.32,4,14.93,14.93,0,0,0-1.19,5.49,15.84,15.84,0,0,0,.9,5.55,18.8,18.8,0,0,0,2.11,4.12C337.56,226.13,338.84,227.22,338.77,227.3Z"/><path class="cls-7" d="M339.69,201.5a10.28,10.28,0,0,1,3.11,3.07,17.4,17.4,0,0,1,2.31,4.19,15.71,15.71,0,0,1,1,5.79,15,15,0,0,1-1.3,5.73,18.27,18.27,0,0,1-2.53,4.07,10.81,10.81,0,0,1-3.22,3c-.07-.08,1.23-1.13,2.83-3.26a19.19,19.19,0,0,0,2.31-4,14.88,14.88,0,0,0,1.2-5.48,15.84,15.84,0,0,0-.9-5.55,18.89,18.89,0,0,0-2.11-4.13C340.9,202.66,339.61,201.58,339.69,201.5Z"/><path class="cls-6" d="M339.08,62.17c-.11,0-.15-.41-.11-.9s.15-.87.25-.86.15.41.11.89S339.18,62.18,339.08,62.17Z"/><path class="cls-6" d="M338.47,69.46a4.62,4.62,0,0,1,0-1.84,4.7,4.7,0,0,1,.33-1.81,4.62,4.62,0,0,1,0,1.84A4.7,4.7,0,0,1,338.47,69.46Z"/><path class="cls-6" d="M337.85,76.75a4.85,4.85,0,0,1,0-1.84,4.81,4.81,0,0,1,.34-1.81,4.85,4.85,0,0,1,0,1.84A4.81,4.81,0,0,1,337.85,76.75Z"/><path class="cls-6" d="M337.22,84a4.74,4.74,0,0,1,0-1.84,4.57,4.57,0,0,1,.34-1.8,4.68,4.68,0,0,1,0,1.83A4.59,4.59,0,0,1,337.22,84Z"/><path class="cls-6" d="M336.57,91.33a9.14,9.14,0,0,1,.33-3.65,4.76,4.76,0,0,1,0,1.84A4.7,4.7,0,0,1,336.57,91.33Z"/><path class="cls-6" d="M336,96.72c-.1,0-.14-.43-.08-.91s.18-.85.29-.84.13.41.07.9S336.12,96.74,336,96.72Z"/><path class="cls-6" d="M357.83,99.72a4.37,4.37,0,0,1-.93,1.52c-.59.77-1.13,1.35-1.22,1.29a4.57,4.57,0,0,1,.93-1.52C357.2,100.24,357.75,99.66,357.83,99.72Z"/><path class="cls-6" d="M362.12,94.09a4.37,4.37,0,0,1-.93,1.52c-.59.78-1.13,1.36-1.22,1.29a4.48,4.48,0,0,1,.93-1.51C361.49,94.61,362,94,362.12,94.09Z"/><path class="cls-6" d="M366.41,88.46a4.57,4.57,0,0,1-.93,1.52c-.59.78-1.14,1.36-1.22,1.3a4.37,4.37,0,0,1,.93-1.52C365.78,89,366.33,88.4,366.41,88.46Z"/><path class="cls-6" d="M370.7,82.83a4.37,4.37,0,0,1-.93,1.52c-.59.78-1.14,1.36-1.22,1.3a4.57,4.57,0,0,1,.93-1.52C370.07,83.35,370.62,82.77,370.7,82.83Z"/><path class="cls-6" d="M371,122.87c-.1,0-.46-.66-.89-1.53a5.58,5.58,0,0,1-.66-1.65c.09,0,.57.6,1,1.49A4,4,0,0,1,371,122.87Z"/><path class="cls-6" d="M372.85,129.69a5,5,0,0,1-.48-1.7,5.11,5.11,0,0,1-.22-1.76,3.9,3.9,0,0,1,.58,1.68A3.82,3.82,0,0,1,372.85,129.69Z"/><path class="cls-6" d="M373.08,136.75a8.51,8.51,0,0,1,.07-3.53,8.51,8.51,0,0,1-.07,3.53Z"/><path class="cls-6" d="M371.91,143.72a4.58,4.58,0,0,1,.2-1.76,4.36,4.36,0,0,1,.55-1.69,4.46,4.46,0,0,1-.19,1.76A4.3,4.3,0,0,1,371.91,143.72Z"/><path class="cls-6" d="M369.53,150.38a4.48,4.48,0,0,1,.5-1.71,4.3,4.3,0,0,1,.84-1.57,4.53,4.53,0,0,1-.5,1.71A4.43,4.43,0,0,1,369.53,150.38Z"/><path class="cls-6" d="M366,156.53a4.65,4.65,0,0,1,.78-1.6c.52-.82,1-1.45,1.1-1.4a4.32,4.32,0,0,1-.78,1.6C366.62,156,366.13,156.59,366,156.53Z"/><path class="cls-6" d="M361.48,161.93c-.07-.08.41-.71,1.08-1.42s1.26-1.22,1.34-1.16-.4.7-1.07,1.42S361.55,162,361.48,161.93Z"/><path class="cls-6" d="M355.89,166.25c-.05-.08.55-.6,1.35-1.16a4.62,4.62,0,0,1,1.56-.86c.06.08-.54.6-1.35,1.17S356,166.34,355.89,166.25Z"/><path class="cls-6" d="M349.56,169.39A8.38,8.38,0,0,1,352.8,168c.05.09-.64.48-1.55.87A4.36,4.36,0,0,1,349.56,169.39Z"/><path class="cls-6" d="M342.74,171.25a4.46,4.46,0,0,1,1.69-.56,4.35,4.35,0,0,1,1.76-.2,8.5,8.5,0,0,1-3.45.76Z"/><path class="cls-6" d="M335.69,171.76a4.45,4.45,0,0,1,1.76-.22,4.64,4.64,0,0,1,1.78.14,4.54,4.54,0,0,1-1.77.23A4.39,4.39,0,0,1,335.69,171.76Z"/><path class="cls-6" d="M328.69,170.82a4.45,4.45,0,0,1,1.77.15,4.22,4.22,0,0,1,1.7.51,4.46,4.46,0,0,1-1.77-.15A4.26,4.26,0,0,1,328.69,170.82Z"/><path class="cls-6" d="M375.81,128.7a8.34,8.34,0,0,1-3.54,0,8.79,8.79,0,0,1,3.54,0Z"/><path class="cls-6" d="M382.88,128.7a8.29,8.29,0,0,1-3.53,0,8.74,8.74,0,0,1,3.53,0Z"/><path class="cls-6" d="M388.91,128.7c0,.11-.56.19-1.24.19s-1.25-.08-1.25-.19.56-.18,1.25-.18S388.91,128.6,388.91,128.7Z"/><path class="cls-6" d="M365.76,162.6a4.53,4.53,0,0,1-1.48-1c-.75-.62-1.3-1.19-1.24-1.27s.73.36,1.48,1S365.82,162.52,365.76,162.6Z"/><path class="cls-6" d="M371.19,167.13c-.06.08-.72-.37-1.47-1s-1.31-1.2-1.24-1.28.72.37,1.47,1S371.26,167.05,371.19,167.13Z"/><path class="cls-6" d="M376.63,171.66c-.07.08-.73-.37-1.48-1s-1.31-1.2-1.24-1.28a4.64,4.64,0,0,1,1.48,1C376.14,171,376.69,171.58,376.63,171.66Z"/><path class="cls-6" d="M381.44,175.68c-.06.08-.59-.25-1.17-.74s-1-.93-.93-1,.59.25,1.17.73S381.51,175.6,381.44,175.68Z"/><path class="cls-6" d="M337.7,175a8.29,8.29,0,0,1,0-3.53,8.74,8.74,0,0,1,0,3.53Z"/><path class="cls-6" d="M337.7,182a8.34,8.34,0,0,1,0-3.54,8.79,8.79,0,0,1,0,3.54Z"/><path class="cls-6" d="M337.7,189.11a8.34,8.34,0,0,1,0-3.54,8.79,8.79,0,0,1,0,3.54Z"/><path class="cls-6" d="M337.7,193.87c-.11,0-.19-.27-.19-.61s.08-.62.19-.62.18.28.18.62S337.8,193.87,337.7,193.87Z"/><polygon class="cls-4" points="49.51 16.77 62.38 0.26 65.53 21.03 82.52 20.45 69.93 36.99 86.65 49.92 65.3 41.99 62.31 62.78 47.99 48.84 29.93 61.39 33.88 43.15 13.39 39.92 29.33 30.51 20.04 14.49 36.22 23.66 37.9 0.95 49.51 16.77"/><path class="cls-6" d="M69.93,37l1.15.87,3.31,2.53L87,50.08l.44.33-.51-.21C84,49,80.71,47.81,77.07,46.54s-7.6-2.61-11.73-4.31l.14-.08c-1,6.19-2,13.16-3.17,20.63l0,.23-.16-.16c-4.48-4.39-9.27-9.1-14.3-14H48L30.21,61.2l-.28.19.07-.34c1.18-5.69,2.43-11.75,3.72-17.95l.12.16-20.36-3.2-.4-.06.35-.21,13.83-8,2.15-1.25-.05.21C27.6,28.14,26,25.46,24.52,22.8s-3-5.35-4.37-8l-.23-.44.43.24,16.16,9.1-.21.11q.41-5.93.8-11.67c.12-1.91.23-3.8.35-5.68,0-.94.09-1.88.14-2.81,0-.46,0-.92,0-1.39l0-.69V1.22c0-.1,0-.25,0-.27l.17-.23,0,.07L49.63,16.9h-.2L62.18.21,62.34,0l0,.26q1.84,11.43,3.32,20.66l-.09-.08,16.91-.53h.15l-.09.11L73.2,32.73l-2.43,3.18c-.55.72-.84,1.08-.84,1.08l.8-1.08,2.4-3.19,9.34-12.38,0,.11L65.62,21h-.09V21Q64,11.71,62.16.29l.2.05L49.63,17.05l-.11.14-.1-.14L37.64,1l.22-.16a1,1,0,0,1,.06.42v.35l0,.7c0,.46,0,.93,0,1.4,0,.93-.09,1.86-.14,2.8-.11,1.88-.23,3.78-.34,5.69-.26,3.82-.53,7.72-.8,11.67l0,.22-.19-.11L20.2,14.84l.2-.19q2.12,4,4.37,8c1.52,2.66,3.08,5.34,4.83,7.9l.09.13-.13.07L27.41,32,13.58,40l-.06-.26L33.88,43,34,43l0,.14c-1.29,6.2-2.55,12.27-3.73,18L30.06,61,47.84,48.63l.09-.06.07.08,14.28,14-.2.07,3.2-20.63,0-.13.12,0c4.12,1.7,8.07,3.05,11.71,4.34s7,2.47,9.87,3.69l-.07.12c-5.46-4.22-9.71-7.53-12.61-9.77L71,37.87Z"/><path class="cls-6" d="M47.91,33.48a1.7,1.7,0,1,1-1.7-1.7A1.7,1.7,0,0,1,47.91,33.48Z"/><path class="cls-6" d="M53.09,33.48a1.7,1.7,0,1,1-1.7-1.7A1.7,1.7,0,0,1,53.09,33.48Z"/><path class="cls-6" d="M58.28,33.48a1.7,1.7,0,1,1-1.7-1.7A1.7,1.7,0,0,1,58.28,33.48Z"/><path class="cls-6" d="M281.72,65.66a53.26,53.26,0,0,1-2.83-8.76,18.8,18.8,0,0,1,.21-9.13c.14-.44,1.35-3.45,1.82-3.43s-.36,2.79-.18,3.07a15.72,15.72,0,0,1,2.3,9.1,41.66,41.66,0,0,1-1.32,9.15"/><path class="cls-11" d="M298.42,100.26c-4.77.17-15.74-12.9-16-17.66L280.75,54c-.69-7.68,3.2-14.48,10.89-14.95h.72a13.78,13.78,0,0,1,13.78,12.62c.56,6.66,1.1,14,1.06,17.6-.06,7.39-7.45,8.57-7.45,8.57s.05,1.71.15,3.88c.23,4.87,3.1,18.39-1.77,18.57Z"/><path class="cls-12" d="M299.75,77.8A17.88,17.88,0,0,1,290.11,75s2.33,5.55,9.71,4.86Z"/><path class="cls-6" d="M304,57.33a1.07,1.07,0,0,1-1,1.07,1,1,0,0,1-1.09-.95,1.05,1.05,0,0,1,1-1.07A1,1,0,0,1,304,57.33Z"/><path class="cls-6" d="M304.58,54.91c-.13.13-.93-.46-2.07-.45s-2,.58-2.09.44.07-.31.43-.58a3,3,0,0,1,1.68-.52,2.73,2.73,0,0,1,1.64.53C304.52,54.59,304.64,54.84,304.58,54.91Z"/><path class="cls-6" d="M293.59,57.8a1.06,1.06,0,0,1-1,1.07,1,1,0,0,1-1.1-.95,1.06,1.06,0,0,1,1-1.07A1,1,0,0,1,293.59,57.8Z"/><path class="cls-6" d="M293.44,55.21c-.13.14-.93-.45-2.07-.45s-2,.58-2.09.44.07-.31.43-.57a2.91,2.91,0,0,1,3.32,0C293.38,54.9,293.5,55.15,293.44,55.21Z"/><path class="cls-6" d="M297.55,63.93a7.11,7.11,0,0,1,1.84-.34c.29,0,.57-.09.62-.29a1.57,1.57,0,0,0-.2-.86c-.28-.7-.56-1.44-.87-2.21A39.35,39.35,0,0,1,297,54.46a37,37,0,0,1,2.41,5.6l.83,2.22a1.74,1.74,0,0,1,.16,1.14.73.73,0,0,1-.48.43,1.86,1.86,0,0,1-.49.07A8.09,8.09,0,0,1,297.55,63.93Z"/><path class="cls-6" d="M293.32,51c-.15.29-1.25,0-2.6,0s-2.46.18-2.6-.11.17-.41.64-.65a4.54,4.54,0,0,1,4,.11C293.18,50.55,293.39,50.82,293.32,51Z"/><path class="cls-6" d="M304.3,52.25c-.23.26-1.16,0-2.27,0s-2,.21-2.28-.06.05-.39.46-.64a3.62,3.62,0,0,1,1.84-.46,3.53,3.53,0,0,1,1.82.49C304.27,51.86,304.4,52.12,304.3,52.25Z"/><path class="cls-11" d="M281.37,59.44c-.12,0-5.09-1.48-4.91,3.58s5.22,3.83,5.23,3.68S281.37,59.44,281.37,59.44Z"/><path class="cls-12" d="M280.07,64.84s-.08.07-.23.14a.89.89,0,0,1-.66,0,2.17,2.17,0,0,1-1.07-1.92,2.9,2.9,0,0,1,.2-1.27,1,1,0,0,1,.64-.7.44.44,0,0,1,.52.22c.08.14,0,.24.08.25s.1-.09.05-.3a.57.57,0,0,0-.21-.31.71.71,0,0,0-.49-.11,1.22,1.22,0,0,0-.89.82,3,3,0,0,0-.26,1.42,2.3,2.3,0,0,0,1.37,2.14.93.93,0,0,0,.8-.17C280.07,65,280.09,64.85,280.07,64.84Z"/><path class="cls-6" d="M302.5,43.41c.8-.49-1.77-3-3.82-3.86-3.1-1.24-7.78-1.88-10.55-1-3.33,1.1-6.05,2.9-7.61,6a19.8,19.8,0,0,0-1.78,10.25,5.93,5.93,0,0,0,.85,3c.75,1.09,2.14,1.73,2.15,3.28a2.14,2.14,0,0,0,.59,1.52c1,.94,2.06,0,2.54-1,1-2,1-4.4,1-6.67a14.86,14.86,0,0,0-.54-4.8c-.28-.83-.71-1.61-.95-2.45a3,3,0,0,1,.24-2.54,2.94,2.94,0,0,1,.4-.43,5.25,5.25,0,0,1,5.18-1.23c2.89.88,7.82,2.17,9.05,1.15a8,8,0,0,0,2.16-2.4Z"/><path class="cls-6" d="M294.46,64.68c-.07,0-.1.29,0,.72a2.75,2.75,0,0,0,1,1.44,4.72,4.72,0,0,0,1.52.79c.41.13.67.16.7.09s-.19-.22-.55-.43a11.14,11.14,0,0,1-1.33-.86C294.83,65.69,294.62,64.63,294.46,64.68Z"/><polygon class="cls-11" points="345.37 145.04 309.94 147.43 308.77 135.62 351.65 137.19 345.37 145.04"/><path class="cls-9" d="M370.55,106.45s.42.86.42.86c-2.83,6-13.11,27.92-13.11,27.92l-13.51,7.32-33.06.18-.08-1.79,16.67-7.49,21.25-.43,10.38-23.08a2.11,2.11,0,0,1,1.42-1.18Z"/><path class="cls-6" d="M344.35,142.55a8,8,0,0,0,.82-1.38c.46-.87,1.08-2.09,1.75-3.44s1.25-2.57,1.66-3.47a7.67,7.67,0,0,0,.6-1.49,6.69,6.69,0,0,0-.82,1.38c-.47.87-1.09,2.09-1.76,3.44s-1.25,2.58-1.66,3.48A6.57,6.57,0,0,0,344.35,142.55Z"/><polygon class="cls-6" points="341.14 139.77 327 139.94 337.4 133.91 348.82 133.65 341.14 139.77"/><path class="cls-6" d="M311.21,140.94a1.35,1.35,0,0,0,.35,0h1l3.63-.07c3.07,0,7.31-.09,12-.12s8.93-.11,12-.22c1.53-.06,2.77-.12,3.63-.18l1-.07a1.38,1.38,0,0,0,.34-.05,1.3,1.3,0,0,0-.34,0h-1l-3.64.06c-3.07.06-7.31.09-12,.12s-8.93.11-12,.23c-1.53,0-2.77.11-3.63.17l-1,.07A1.38,1.38,0,0,0,311.21,140.94Z"/><path class="cls-6" d="M346.32,141.48a1.93,1.93,0,0,0,.23-.41l.57-1.19,2.06-4.4c1.72-3.77,4.06-8.92,6.66-14.6,1.82-4.06,3.52-7.84,5-11l-.1.08,7.48-1.88,2.08-.54a5.62,5.62,0,0,0,.72-.22,4.07,4.07,0,0,0-.74.13l-2.1.47-7.51,1.75-.07,0,0,.06c-1.44,3.18-3.16,7-5,11-2.56,5.7-4.87,10.86-6.57,14.63L347,139.83c-.22.5-.39.91-.52,1.22A3.57,3.57,0,0,0,346.32,141.48Z"/><path class="cls-11" d="M354.38,133.21s-.61-.56-1.72,1a43.7,43.7,0,0,0-2.86,6l-2.11,1.07s1.79-2.3,1.75-3.22-1.48-.84-2.2.5a37.35,37.35,0,0,1-2.89,4s.83,2.61,1,2.49,3.77-.48,3.77-.48l1-.5s2.41-.11,2.51-.77,4-3.57,3.93-4.16-.17-3.78-.17-3.78,1.63-4.52,1.22-5S355.5,129.05,354.38,133.21Z"/><path class="cls-12" d="M354.12,133.16l.18,0a.39.39,0,0,1,.23.36v0c-.13.49-.28,1.24-.43,2.16s-.33,2-.61,3.13a5.79,5.79,0,0,1-1.06,2c-.41.57-.78,1.1-1.12,1.59a10.37,10.37,0,0,0-1,1.52,9,9,0,0,0,1.16-1.38l1.18-1.54a10.94,10.94,0,0,0,.67-1,4.69,4.69,0,0,0,.47-1.18,29.68,29.68,0,0,0,.57-3.18q.17-1.23.3-2.16v0h0a.46.46,0,0,0-.37-.44C354.18,133.11,354.12,133.15,354.12,133.16Z"/><path class="cls-12" d="M355.05,140.8a12,12,0,0,0,.83-2.69,10.71,10.71,0,0,0,.49-2.76,11.8,11.8,0,0,0-.83,2.68A12,12,0,0,0,355.05,140.8Z"/><path class="cls-12" d="M348.2,137.61s.1,0,.27,0a.9.9,0,0,1,.59.2c.17.17.11.51-.05.86l-.5,1.21L348,141.1c-.18.35-.37.65-.52.92a2.07,2.07,0,0,0-.4.91,4.47,4.47,0,0,0,.6-.78,8.75,8.75,0,0,0,.6-.9c.18-.36.37-.77.56-1.2s.32-.82.48-1.22a2.18,2.18,0,0,0,.14-.6.75.75,0,0,0-.22-.55.94.94,0,0,0-.77-.17C348.29,137.55,348.2,137.59,348.2,137.61Z"/><path class="cls-9" d="M298.32,274,295,287.89s13,8.09,12.67,10.73l-27.26-5.53,4.33-21.94Z"/><path class="cls-3" d="M286.78,285a1.13,1.13,0,0,0-1,1.11,1.09,1.09,0,0,0,1.09,1,1.21,1.21,0,0,0,1.09-1.18,1.14,1.14,0,0,0-1.26-.95"/><g class="cls-13"><path class="cls-5" d="M280.38,293.09l.52-2.2,26,6.13s1.1.77.79,1.6Z"/></g><path class="cls-6" d="M295.44,287.84c0,.13-.71.06-1.45.35s-1.21.79-1.32.71.24-.81,1.15-1.15S295.49,287.73,295.44,287.84Z"/><path class="cls-6" d="M298.06,289.61c0,.13-.62.24-1.19.71s-.81,1-.95,1-.06-.8.66-1.38S298.08,289.48,298.06,289.61Z"/><path class="cls-6" d="M299,293.36c-.13,0-.18-.7.31-1.36s1.17-.82,1.21-.7-.43.43-.83,1S299.12,293.37,299,293.36Z"/><path class="cls-6" d="M295.85,284.58c-.08.11-.65-.2-1.42-.3s-1.39,0-1.44-.11.61-.49,1.51-.36S295.94,284.49,295.85,284.58Z"/><path class="cls-9" d="M289,277.61V292s14.59,4.8,14.85,7.45l-27.81,1-.94-22.34Z"/><path class="cls-3" d="M280.39,291.07a1.14,1.14,0,0,0-.74,1.32,1.11,1.11,0,0,0,1.31.75,1.19,1.19,0,0,0,.77-1.41,1.13,1.13,0,0,0-1.44-.62"/><g class="cls-13"><path class="cls-5" d="M276.07,300.43v-2.25l26.67-.15s1.25.5,1.15,1.37Z"/></g><path class="cls-6" d="M289.48,291.8c0,.13-.68.22-1.33.68s-1,1-1.11,1,0-.84.84-1.39S289.5,291.67,289.48,291.8Z"/><path class="cls-6" d="M292.44,292.89c0,.13-.54.39-1,1s-.55,1.2-.69,1.2-.25-.76.31-1.49S292.43,292.76,292.44,292.89Z"/><path class="cls-6" d="M294.23,296.32c-.13,0-.34-.63,0-1.39s1-1.08,1-1-.32.53-.57,1.15S294.36,296.3,294.23,296.32Z"/><path class="cls-6" d="M289.11,288.53c-.05.12-.68,0-1.45,0s-1.35.35-1.43.23.49-.62,1.39-.7S289.17,288.42,289.11,288.53Z"/><path class="cls-6" d="M267.12,173.65l.51,11.32,5,43.95s-.93,21.48-1.55,33.6c-.54,10.53,1.93,28.72,1.93,28.72l17.69-.8,3.59-61.18,2.23-38.15,6.06-17.59Z"/><polygon class="cls-6" points="314.73 173.53 313.17 235.19 297.34 282.05 296.64 284.86 285.96 282.78 288.93 173.45 314.73 173.53"/><path class="cls-9" d="M296.51,191.56a1.33,1.33,0,0,1,0,.26l0,.75c0,.68,0,1.65,0,2.89,0,2.5,0,6.13,0,10.62-.13,9-.58,21.35-1.52,35s-2.05,26-2.89,34.92c-.43,4.45-.77,8.06-1,10.57-.12,1.23-.22,2.2-.29,2.87,0,.32-.06.57-.08.75a2.24,2.24,0,0,1,0,.25.78.78,0,0,1,0-.25c0-.19,0-.44.06-.75.05-.68.13-1.65.23-2.88.21-2.52.52-6.13.91-10.58.77-8.93,1.87-21.27,2.79-34.92s1.42-26,1.62-35c.08-4.48.13-8.11.13-10.61,0-1.24,0-2.21,0-2.89,0-.32,0-.57,0-.75S296.51,191.56,296.51,191.56Z"/><path class="cls-9" d="M280.52,174.18a2,2,0,0,1,0,.65,10,10,0,0,1-.43,1.73,11.36,11.36,0,0,1-3.24,4.88,11.51,11.51,0,0,1-5.25,2.6,11.14,11.14,0,0,1-1.77.2,2.44,2.44,0,0,1-.66,0c0-.06.94,0,2.38-.39a12.17,12.17,0,0,0,5.08-2.62,11.92,11.92,0,0,0,3.24-4.71C280.36,175.1,280.46,174.16,280.52,174.18Z"/><path class="cls-9" d="M296.94,176.13a.91.91,0,1,1-.95-.87A.9.9,0,0,1,296.94,176.13Z"/><path class="cls-9" d="M312.88,184a5.77,5.77,0,0,1-1.3-1.11,13.87,13.87,0,0,1-2.38-3.39,13.67,13.67,0,0,1-1.29-3.92,5.69,5.69,0,0,1-.12-1.71s.12.64.35,1.66a16.76,16.76,0,0,0,1.35,3.83,17.16,17.16,0,0,0,2.26,3.37A16.21,16.21,0,0,1,312.88,184Z"/><path class="cls-7" d="M296.87,85.51,281.61,73.79l-2.88,4.89s-12.41,10-14.72,12.74L269.13,134s-2.42,22.6-2.56,24.38-1.48,17.36-1.48,17.36c-.13,3,2.45,6.4,2.94,6.37,0,0,2.35-3.07,5-3S294,183.26,294,183.26l21.67-5.85-4.25-43-2.07-28.83-2.41-11-4.52-4.12L300,83.31s-.61,9.11-.73,8.79S296.87,85.51,296.87,85.51Z"/><path class="cls-6" d="M279.16,79.42a4.9,4.9,0,0,0,.62.78c.42.47,1.05,1.16,1.86,2,1.59,1.64,3.92,3.77,6.44,6.17,1.25,1.19,2.42,2.34,3.44,3.42l.12.13.12-.13c1.55-1.69,2.65-3.29,3.51-4.36l1-1.24a4,4,0,0,0,.35-.46,1.9,1.9,0,0,0-.43.39c-.26.26-.63.66-1.08,1.19-.9,1-2,2.61-3.59,4.26h.24c-1-1.1-2.18-2.27-3.43-3.46-2.53-2.4-4.88-4.5-6.52-6.09-.82-.79-1.48-1.44-1.93-1.89A6.32,6.32,0,0,0,279.16,79.42Z"/><path class="cls-6" d="M307.49,155.93s0-.06,0-.17l0-.48c0-.46-.11-1.09-.18-1.88-.19-1.65-.45-4-.77-6.87-.66-5.8-1.61-13.81-2.71-22.65s-2.16-16.84-3-22.62c-.41-2.89-.78-5.23-1.05-6.84-.14-.78-.26-1.4-.34-1.85l-.1-.48a.93.93,0,0,0,0-.16s0,.06,0,.17l.06.48q.1.69.27,1.86c.23,1.65.55,4,.94,6.85.78,5.79,1.79,13.79,2.9,22.63s2.09,16.82,2.81,22.64c.37,2.87.67,5.21.88,6.86.11.79.19,1.41.25,1.86l.08.49Z"/><g class="cls-14"><path d="M311.78,138.38c-1.63.91-3.52,1.28-5.12,2.24a18.64,18.64,0,0,0-3.06,2.56c-6.71,6.32-15.29,11-24.49,11.6-3.16.19-6.57-.18-9-2.19a4.72,4.72,0,0,1-1.93-4.55c.52-2.06,2.79-3.07,4.78-3.79l18.6-6.73a85.16,85.16,0,0,1,11.93-3.68,43.22,43.22,0,0,1,8.33-.87"/></g><path class="cls-6" d="M292,165.63c0,.09,4.49-2.58,9.92-5.94s9.78-6.16,9.73-6.25-4.49,2.58-9.92,5.95S292,165.55,292,165.63Z"/><path class="cls-6" d="M307.12,179.75a4,4,0,0,0-.06-.89c-.07-.64-.15-1.45-.24-2.41-.18-2-.33-4.85-.43-8s-.21-5.94-.31-8c-.06-1-.1-1.78-.14-2.42a3.71,3.71,0,0,0-.1-.88,5.61,5.61,0,0,0,0,.89c0,.64,0,1.45,0,2.42,0,2,.1,4.87.21,8s.28,5.94.53,8c.12,1,.25,1.83.35,2.4A4.35,4.35,0,0,0,307.12,179.75Z"/><g class="cls-14"><path d="M283.82,131.61c-1.86-6-2-13.05-2.13-19.32-.93,4.35-1.89,11-2.62,15.56l2,4.26Z"/></g><g class="cls-14"><path d="M299.27,92.1a2.82,2.82,0,0,1-.75-.5c-.65-.87-1-1.91-1.69-2.78a50.82,50.82,0,0,0-4.56,5.27c-2.3-2.19-4.61-4.39-6.71-6.79A53.38,53.38,0,0,1,281,81.22l10.69,10.43,5.23-6.14Z"/></g><path class="cls-6" d="M299.79,86.47a13.34,13.34,0,0,0,1.07,2.27,5,5,0,0,0,1.55,2c.06-.06-.62-.94-1.25-2.17A6.93,6.93,0,0,0,299.79,86.47Z"/><path class="cls-6" d="M284.4,94.6A2.23,2.23,0,0,0,284,94a11.47,11.47,0,0,0-1.34-1.55,22.68,22.68,0,0,0-2.3-2,10.66,10.66,0,0,0-3.21-1.88,8.87,8.87,0,0,0-3.73-.21,26.18,26.18,0,0,0-3,.59c-.84.19-1.51.36-2,.48a3.53,3.53,0,0,0-.71.22,3.36,3.36,0,0,0,.75-.09c.47-.08,1.15-.2,2-.37s1.83-.4,3-.51a9,9,0,0,1,3.58.23,10.77,10.77,0,0,1,3.13,1.8c.9.67,1.7,1.31,2.32,1.88C283.77,93.74,284.35,94.64,284.4,94.6Z"/><path class="cls-11" d="M306.37,128l-.09,8.61s-12.47,6.53-20.71,9.05a75,75,0,0,1-18.07,2.63l2.88-14.12Z"/><path class="cls-11" d="M331.09,128.6a1.81,1.81,0,0,0-1-1.71c-1.14-.64-3.53-2-3.53-2l-7.06-.33L306.37,128l-.09,8.61s6.77.07,8.34-.06a37,37,0,0,0,5.86-1.71s7.37.6,7.7.17.77-.9.29-1.17-6.18-1.47-6.18-1.47l3.77-.46s5.57.91,6,.72.89-.92.52-1.42l-.37-.51a1.18,1.18,0,0,0-.65-1.43l-.53-.15Z"/><path class="cls-12" d="M321.06,129a4.47,4.47,0,0,0,1.71.2,17.65,17.65,0,0,1,4.06.17,20.66,20.66,0,0,1,2.11.79,14.41,14.41,0,0,0,1.78.55,5.83,5.83,0,0,0,1.7.27c0-.05-.63-.18-1.63-.49-.5-.16-1.09-.36-1.74-.62a16.66,16.66,0,0,0-2.13-.82,8.09,8.09,0,0,0-2.3-.19c-.71,0-1.33.08-1.85.11C321.72,129,321.07,128.9,321.06,129Z"/><path class="cls-12" d="M321.59,126.94a3.43,3.43,0,0,0,1.52.13,8.11,8.11,0,0,1,3.56.3c1.34.49,2.55,1,3.44,1.28a7.1,7.1,0,0,0,1.46.44,7.53,7.53,0,0,0-1.38-.66c-.86-.36-2.05-.88-3.41-1.37a5.52,5.52,0,0,0-2-.36c-.63,0-1.19.09-1.65.14C322.17,126.94,321.6,126.89,321.59,126.94Z"/><path class="cls-7" d="M264,91.42s-3.52,6.2-4,9.16-.54,34,.08,34.6a16,16,0,0,0,1.67,1.25s-3.34.88-2.24,2.6a30.45,30.45,0,0,0,2.2,3s.76,5.71,1.4,5.83,4.29,2,4.29,2,10-6,10.84-9,2.74-9,2.74-9l-1.95-4,4.17-25.22s2.48-8.12-2.77-11.15S265.78,88,264,91.42Z"/><path class="cls-6" d="M282.45,107.42a1.81,1.81,0,0,0-.09.38c-.05.27-.12.64-.21,1.1-.17,1-.42,2.42-.74,4.19-.61,3.63-1.48,8.72-2.5,14.73v.05l0,0c.62,1.28,1.27,2.64,1.94,4v-.13c-.88,2.84-1.81,5.95-2.81,9.1l-.17.4-.25.37a6.43,6.43,0,0,1-.57.72,7.71,7.71,0,0,1-.63.65q-.31.33-.66.63c-.9.81-1.85,1.54-2.8,2.24-1.89,1.39-3.79,2.63-5.61,3.75h.16c-.92-.46-1.81-.9-2.69-1.31-.44-.2-.88-.4-1.32-.57l-.18-.06a.75.75,0,0,1-.15,0,.56.56,0,0,1-.14-.19,5.67,5.67,0,0,1-.23-.62,42.81,42.81,0,0,1-.94-4.88v0l0,0c-.55-.65-1-1.3-1.48-1.92-.23-.31-.43-.61-.63-.9a3.89,3.89,0,0,1-.24-.44,1,1,0,0,1-.05-.44,1.91,1.91,0,0,1,1.08-1.22,7.31,7.31,0,0,1,1.29-.54l.12,0-.1-.07c-.59-.38-1-.68-1.3-.89a3.56,3.56,0,0,0-.41-.31s0,0,.08.09l.3.27c.26.22.68.54,1.26.94l0-.11a6.14,6.14,0,0,0-1.33.52,3.42,3.42,0,0,0-.71.48,1.49,1.49,0,0,0-.49.84,1.25,1.25,0,0,0,.06.54,3.62,3.62,0,0,0,.25.48c.19.3.4.6.62.92.44.62.92,1.28,1.48,1.95l0-.06a38,38,0,0,0,.91,4.93,3.87,3.87,0,0,0,.24.67.68.68,0,0,0,.29.34,1.28,1.28,0,0,0,.17.05l.16.06c.43.16.86.36,1.3.56q1.31.63,2.67,1.32l.08,0,.08,0c1.84-1.12,3.74-2.36,5.65-3.75.95-.7,1.91-1.44,2.82-2.26.23-.2.46-.41.68-.63a8.39,8.39,0,0,0,.65-.68,6.29,6.29,0,0,0,.59-.75c.09-.13.19-.26.27-.4l.2-.46c1-3.19,1.92-6.25,2.79-9.1l0-.07,0-.06-2-4v.09c1-6,1.79-11.12,2.38-14.75.27-1.78.49-3.2.65-4.2.06-.47.12-.84.16-1.12A1.81,1.81,0,0,0,282.45,107.42Z"/><path class="cls-6" d="M261.62,136.31s.18.1.53.19a4.83,4.83,0,0,0,1.54.17,2.63,2.63,0,0,0,1.06-.32,8.05,8.05,0,0,0,1-.66c.69-.51,1.4-1.12,2.18-1.7,1.55-1.19,3-2.19,4.07-2.93a11.08,11.08,0,0,0,1.66-1.26,12.44,12.44,0,0,0-1.8,1c-1.09.69-2.58,1.66-4.15,2.86-.78.59-1.49,1.21-2.16,1.72a4.14,4.14,0,0,1-1.91,1,6.14,6.14,0,0,1-1.49,0A2.51,2.51,0,0,0,261.62,136.31Z"/><path class="cls-6" d="M261.75,142a1.62,1.62,0,0,0,.66.13,3.62,3.62,0,0,0,1.8-.41,30.43,30.43,0,0,0,5-3.44,51.16,51.16,0,0,0,4.29-4.22c.52-.57.93-1,1.2-1.36a2.77,2.77,0,0,0,.41-.54,18.26,18.26,0,0,0-1.79,1.73c-1.09,1.08-2.57,2.6-4.34,4.12a36.88,36.88,0,0,1-4.83,3.48,3.72,3.72,0,0,1-1.69.5A4.26,4.26,0,0,0,261.75,142Z"/><g class="cls-14"><path d="M273.55,130a12.16,12.16,0,0,1-2.36,2.76l-4.21,4c-.81.77-1.76,1.59-2.87,1.49a3.76,3.76,0,0,1-1.56-.65c-.44-.28-.93-.69-.83-1.2a4.29,4.29,0,0,0,3.71-.57,9.85,9.85,0,0,0,1.28-1.14,33.77,33.77,0,0,1,6.82-4.61"/></g><path class="cls-12" d="M305.67,136.64a3.58,3.58,0,0,0,.87.07l2.37,0h5.59a5,5,0,0,0,1.11-.23l1.08-.31c1.51-.45,2.94-.9,4.22-1.31h-.06c1.95.09,3.61.16,4.78.19l1.37,0a1.56,1.56,0,0,0,.49,0A2,2,0,0,0,327,135l-1.37-.11c-1.16-.09-2.82-.2-4.77-.32h-.06l-4.22,1.27-1.08.32a6.23,6.23,0,0,1-1,.23l-2.07,0-3.51.07-2.36.07A4.37,4.37,0,0,0,305.67,136.64Z"/><rect class="cls-6" x="109.51" y="4.97" width="124.6" height="295.46" rx="14.8"/><rect class="cls-9" x="99.43" y="5.09" width="124.6" height="295.46" rx="15.96"/><path class="cls-5" d="M205.24,9.81l-16.93,0c-2.27,0-4.11,2.28-4.1,5.09v3.64c0,2.81-1.84,5.09-4.11,5.08l-33-.05c-2.27,0-4.11-2.28-4.11-5.09V14.81c0-2.81-1.84-5.09-4.11-5.1h-6l-14.81,0c-7.36,0-13.32,7.05-13.32,15.77l.12,253.11c0,8.72,6,15.79,13.32,15.8l87.13.12c7.36,0,13.32-7.05,13.32-15.76L218.56,25.6C218.56,16.89,212.6,9.82,205.24,9.81Z"/><path class="cls-6" d="M205.24,9.81l.52,0a8.21,8.21,0,0,1,1.52.17,12.16,12.16,0,0,1,5.41,2.47,15.78,15.78,0,0,1,3,3.25,16.39,16.39,0,0,1,2.24,4.84,17.92,17.92,0,0,1,.58,3,28.19,28.19,0,0,1,.14,3.22c0,2.22,0,4.59,0,7.09,0,20,.05,49,.1,84.86s.06,78.48.09,125.84q0,8.88,0,18v13.76a38.14,38.14,0,0,1-.14,4.65,17.05,17.05,0,0,1-1.13,4.55,15.33,15.33,0,0,1-2.34,4.1,14.42,14.42,0,0,1-3.49,3.21,11.91,11.91,0,0,1-4.45,1.71,30.62,30.62,0,0,1-4.78.18h-14.4l-39.3-.05-20.11,0-10.15,0a12.08,12.08,0,0,1-5-1,13.41,13.41,0,0,1-4.21-3,16.86,16.86,0,0,1-4.38-9.18,32.43,32.43,0,0,1-.22-5.11v-5.07q0-10.12,0-20.11,0-20,0-39.32c0-25.77,0-50.64,0-74.33s0-46.19,0-67.25q0-15.81,0-30.49c0-4.88,0-9.68,0-14.36a17.06,17.06,0,0,1,5.2-12.43,12.34,12.34,0,0,1,5.86-3.08,10.25,10.25,0,0,1,1.64-.22c.55,0,1.09,0,1.63,0h3.22l12.44,0h3c.5,0,1,0,1.5,0a3.6,3.6,0,0,1,1.44.43,4.75,4.75,0,0,1,2,2.2,6.49,6.49,0,0,1,.55,2.84v2.82a6.62,6.62,0,0,0,.4,2.7,4.68,4.68,0,0,0,1.56,2.12,3.59,3.59,0,0,0,1.17.59,4.67,4.67,0,0,0,1.3.12l19.83,0,8.75,0h4.06a3.84,3.84,0,0,0,3.1-1.9,6.09,6.09,0,0,0,.87-3.45c0-1.18,0-2.33,0-3.44a5.89,5.89,0,0,1,.92-3.08,4.18,4.18,0,0,1,2.37-1.8,5.71,5.71,0,0,1,1.42-.11h3.92l4.42,0,6,0c1.35,0,2,0,2,0H188.86a5.44,5.44,0,0,0-1.39.11,4,4,0,0,0-2.3,1.76,5.75,5.75,0,0,0-.9,3v3.44a6.16,6.16,0,0,1-.88,3.53,4,4,0,0,1-3.21,2H147.53a5.16,5.16,0,0,1-1.35-.13,3.8,3.8,0,0,1-1.24-.62,4.86,4.86,0,0,1-1.64-2.22,6.85,6.85,0,0,1-.42-2.77V15.09a6.31,6.31,0,0,0-.53-2.75,4.57,4.57,0,0,0-1.87-2.09,3.53,3.53,0,0,0-1.35-.41c-.47,0-1,0-1.48,0H119c-.54,0-1.08,0-1.62,0a9.65,9.65,0,0,0-1.59.22,12.07,12.07,0,0,0-5.74,3,16.81,16.81,0,0,0-5.11,12.24q0,7,0,14.36,0,14.67,0,30.49c0,21.06,0,43.57.05,67.25s0,48.56,0,74.33q0,19.34,0,39.32,0,10,0,20.11v5.07a31.42,31.42,0,0,0,.22,5.05,16.42,16.42,0,0,0,4.28,9,12.85,12.85,0,0,0,4.08,2.89,11.76,11.76,0,0,0,4.89,1l10.15,0,20.11,0,39.3.06h14.4a30.77,30.77,0,0,0,4.72-.17,11.63,11.63,0,0,0,4.32-1.66,13.88,13.88,0,0,0,3.4-3.13,14.94,14.94,0,0,0,2.29-4,16.76,16.76,0,0,0,1.11-4.46,37.19,37.19,0,0,0,.14-4.61V262.5q0-9.09,0-18c0-47.36,0-90,0-125.84s0-64.82,0-84.86c0-2.5,0-4.87,0-7.09a28,28,0,0,0-.13-3.21,17.68,17.68,0,0,0-.56-2.93,16.6,16.6,0,0,0-2.21-4.82,15.93,15.93,0,0,0-3-3.24,12.36,12.36,0,0,0-5.37-2.5,9.22,9.22,0,0,0-1.52-.18Z"/><polygon class="cls-15" points="134.41 268.03 132.55 295.56 144.44 297.02 150.13 268.9 134.41 268.03"/><path class="cls-7" d="M132.7,291.93l-.11.79s-14.1,3.58-14.58,6.1l26.58,3.42.78-8.89A15.35,15.35,0,0,1,132.7,291.93Z"/><path class="cls-5" d="M142.31,295.83a1.08,1.08,0,0,1,.59,1.33,1,1,0,0,1-1.32.6,1.15,1.15,0,0,1-.61-1.42,1.09,1.09,0,0,1,1.44-.47"/><path class="cls-5" d="M144.59,302.24l.19-2.14-25.55-2.5S118,298,118,298.82Z"/><path class="cls-6" d="M132.49,292.78c0,.13.62.27,1.21.77s.85,1.09,1,1.05,0-.81-.69-1.4S132.47,292.66,132.49,292.78Z"/><path class="cls-6" d="M129.55,293.57c-.05.12.49.42.86,1s.42,1.21.55,1.22.31-.72-.17-1.46S129.57,293.45,129.55,293.57Z"/><path class="cls-6" d="M127.54,296.71c.11,0,.37-.59.13-1.34s-.81-1.12-.88-1,.26.52.45,1.15S127.41,296.68,127.54,296.71Z"/><path class="cls-6" d="M182.41,46.4a5,5,0,0,1,3.87-3.82,10,10,0,0,1,5.66.57,13.62,13.62,0,0,1,5.45,3.39,8.25,8.25,0,0,1,2.3,5.87c-.11,2-1.12,4.05-.55,6a6.88,6.88,0,0,0,2.92,3.44,12.55,12.55,0,0,1,3.46,3c.84,1.29,1,3.2-.16,4.23s-2.83,1-3.26,2.33a4.29,4.29,0,0,0,.43,2.45,6.42,6.42,0,0,1-.82,5.16,10.86,10.86,0,0,1-4,3.57c-2.74,1.55-6.16,2.27-9,1a8.65,8.65,0,0,1-3.56-2.92,13.68,13.68,0,0,1-2.36-7.3,41,41,0,0,1,.5-7.74"/><path class="cls-6" d="M181.4,77.17a8,8,0,0,0,10.09-7.86c-.06-2.31-1.1-4.66-.38-6.85.49-1.51,1.75-2.69,2.18-4.21.63-2.28-.75-4.59-2.07-6.56a15.2,15.2,0,0,0-2.88-3.5A5.2,5.2,0,0,0,184.11,47"/><path class="cls-6" d="M160.12,47.15c.13,1.74-1,3.3-2.18,4.6s-2.45,2.67-2.7,4.4c-.45,3.07,2.55,5.91,1.93,8.95-.33,1.62-1.66,2.93-1.9,4.57A5.66,5.66,0,0,0,157,74a47.29,47.29,0,0,1,3.27,3.53s1.95,3.19,7.93,1.15"/><path class="cls-6" d="M186.9,49.81c0-1.58-1.42-2.8-2.89-3.38s-3.1-.79-4.42-1.68a21.18,21.18,0,0,1-2.92-3,9.73,9.73,0,0,0-16.37,4.46c-.56,2.25-.18,4.91,1.6,6.41,2.06,1.73,5.11,1.35,7.75.81s5.62-1.08,7.82.47a11.51,11.51,0,0,1,2.91,3.86,6.9,6.9,0,0,0,3.36,3.38c1.54.53,3.62-.39,3.68-2"/><path class="cls-15" d="M180.67,50.14A2.64,2.64,0,0,1,183,52.82h0l-1.58,35.72c-.07,4.21-6.23,6.58-10.75,6.48h0c-4.56-.11-4.7-2.34-4.76-6.36-.1-6.7-.09-9.22-.09-9.18s-5.76-1-6.94-8.49c-.58-3.74-.38-9.87-.06-14.88.3-4.51,3.3-10,7.79-9.55Z"/><path class="cls-6" d="M160.18,61.06a1,1,0,0,0,.93,1,.92.92,0,0,0,1-.86,1,1,0,0,0-.93-1A.93.93,0,0,0,160.18,61.06Z"/><path class="cls-6" d="M159.94,58.49c.12.13.85-.41,1.89-.41s1.79.53,1.91.4-.07-.28-.4-.52a2.6,2.6,0,0,0-1.53-.48,2.52,2.52,0,0,0-1.5.48C160,58.21,159.88,58.43,159.94,58.49Z"/><path class="cls-6" d="M169.82,61.24a1,1,0,0,0,.93,1,.91.91,0,0,0,1-.87,1,1,0,0,0-.92-1A.92.92,0,0,0,169.82,61.24Z"/><path class="cls-6" d="M170.37,59c.12.13.86-.41,1.89-.4s1.8.52,1.91.4-.06-.29-.39-.53a2.7,2.7,0,0,0-1.53-.48,2.58,2.58,0,0,0-1.51.49C170.43,58.72,170.32,59,170.37,59Z"/><path class="cls-6" d="M166.59,67.21a6.35,6.35,0,0,0-1.68-.31c-.27,0-.52-.08-.56-.26a1.37,1.37,0,0,1,.18-.79c.25-.64.51-1.31.78-2a35.57,35.57,0,0,0,1.78-5.27,34.66,34.66,0,0,0-2.2,5.12l-.75,2a1.56,1.56,0,0,0-.14,1,.66.66,0,0,0,.43.39,2,2,0,0,0,.45.06A7.39,7.39,0,0,0,166.59,67.21Z"/><path class="cls-16" d="M165.85,79.48a19.09,19.09,0,0,0,10.07-2.66s-2.55,5.16-10.07,4.44Z"/><path class="cls-6" d="M169.92,56.48c.1.28,1.14.15,2.36.3s2.2.48,2.36.23-.1-.39-.5-.66a4.07,4.07,0,0,0-1.75-.62,3.93,3.93,0,0,0-1.84.22C170.1,56.13,169.88,56.35,169.92,56.48Z"/><path class="cls-6" d="M160.09,56.19c.21.24,1,0,2,0s1.8.17,2-.08,0-.36-.4-.58a3.21,3.21,0,0,0-3.21.08C160.11,55.83,160,56.07,160.09,56.19Z"/><path class="cls-6" d="M185.92,74.87A6.67,6.67,0,0,1,178,67.49c.24-1.85,1.23-3.73.59-5.47-.84-2.31-4.08-3-4.94-5.33-.5-1.34-.05-2.91-.62-4.22a5,5,0,0,0-3.09-2.41,12.8,12.8,0,0,1-3.69-1.59c-1.06-.83-1.72-2.39-1-3.54a70.91,70.91,0,0,1,16.43,4,6.31,6.31,0,0,1,3.24,2.1,6.64,6.64,0,0,1,.67,4q-.48,10.13-1,20.25"/><path class="cls-9" d="M189.89,50.44a.61.61,0,0,1,.13.31,1.15,1.15,0,0,1-.29.9,1.9,1.9,0,0,1-1.35.69,4.49,4.49,0,0,1-1.91-.57,5.11,5.11,0,0,0-2.19-.65,11.26,11.26,0,0,0-2.65.24,18.43,18.43,0,0,1-3,.39,4.33,4.33,0,0,1-3.07-1.13,8.87,8.87,0,0,1-1.78-2.75,13.8,13.8,0,0,0-1.43-2.58A4.23,4.23,0,0,0,168,43.71a4.4,4.4,0,0,0-2.62,1.94,10.33,10.33,0,0,0-.55,1.11.86.86,0,0,1,.06-.32,4,4,0,0,1,.36-.87,4.31,4.31,0,0,1,5.1-2.08,4.5,4.5,0,0,1,2.27,1.58,13.3,13.3,0,0,1,1.5,2.64,8.7,8.7,0,0,0,1.69,2.63,3.94,3.94,0,0,0,2.82,1,17.63,17.63,0,0,0,2.94-.36,12.28,12.28,0,0,1,2.73-.21,5.57,5.57,0,0,1,2.3.73,4.27,4.27,0,0,0,1.78.6,1.78,1.78,0,0,0,1.23-.56,1.17,1.17,0,0,0,.33-.8C189.93,50.55,189.87,50.45,189.89,50.44Z"/><path class="cls-9" d="M190.74,51.16A15,15,0,0,0,187.18,48a14.66,14.66,0,0,0-4.51-1.49,3.67,3.67,0,0,1,1.43,0,9.24,9.24,0,0,1,3.27,1.13A9.4,9.4,0,0,1,190,49.93,3.74,3.74,0,0,1,190.74,51.16Z"/><path class="cls-9" d="M182.3,46.14s0,.08-.11.22a2,2,0,0,1-.48.51,3.28,3.28,0,0,1-2.49.56A6.33,6.33,0,0,1,176,45.49a17.34,17.34,0,0,0-3.35-3.06,6,6,0,0,0-4.31-.55,5.77,5.77,0,0,0-3,2A6.11,6.11,0,0,0,164.15,46c-.17.57-.2.9-.23.9s0-.08,0-.24A3.71,3.71,0,0,1,164,46a6,6,0,0,1,1.08-2.32,5.86,5.86,0,0,1,3.14-2.13,6.2,6.2,0,0,1,4.59.56,16.8,16.8,0,0,1,3.41,3.14,6.13,6.13,0,0,0,3.05,1.92,3.23,3.23,0,0,0,2.35-.41A4,4,0,0,0,182.3,46.14Z"/><path class="cls-9" d="M182,78.1a1.06,1.06,0,0,0,.34.09,5.18,5.18,0,0,0,1,.1,7.71,7.71,0,0,0,3.56-.8,8.21,8.21,0,0,0,3.79-3.83,9.44,9.44,0,0,0,.64-6.55,18.9,18.9,0,0,1-.66-3.3,5.24,5.24,0,0,1,.74-2.92,10.38,10.38,0,0,0,1.17-2.66,6.14,6.14,0,0,0,.07-2.55,6.72,6.72,0,0,0-1.55-3.3,5.78,5.78,0,0,0-.72-.68c-.19-.14-.28-.2-.29-.19s.35.32.88,1a7,7,0,0,1,1.37,3.24,6,6,0,0,1-.12,2.41A10.34,10.34,0,0,1,191,60.7a8,8,0,0,0-.63,1.46,5.5,5.5,0,0,0-.19,1.67,17.9,17.9,0,0,0,.67,3.38,9.23,9.23,0,0,1-.58,6.27,8,8,0,0,1-3.56,3.73,8.14,8.14,0,0,1-3.42.91C182.43,78.14,182,78.06,182,78.1Z"/><path class="cls-9" d="M195.27,44.8a2.46,2.46,0,0,0-1.28-.66,5.06,5.06,0,0,0-6,2.73,2.54,2.54,0,0,0-.33,1.41c.07,0,.19-.52.61-1.26a5.18,5.18,0,0,1,5.6-2.57C194.75,44.61,195.24,44.87,195.27,44.8Z"/><path class="cls-9" d="M189.71,49.55s0-.17,0-.49a2.46,2.46,0,0,1,.33-1.32,3.65,3.65,0,0,1,1.56-1.46,3.24,3.24,0,0,1,2.75-.07,5.07,5.07,0,0,1,2.46,2.35,7.65,7.65,0,0,1,.76,3.9,26.1,26.1,0,0,1-.7,4.45,18.59,18.59,0,0,0-.58,4.9,15.05,15.05,0,0,0,1.27,4.77,39.76,39.76,0,0,1,1.64,4.23,9.35,9.35,0,0,1,.34,4,11.89,11.89,0,0,1-1,3.37,26.9,26.9,0,0,1-2.76,4.36c-.34.46-.62.84-.85,1.13s-.29.4-.27.41a2,2,0,0,0,.34-.35c.22-.24.53-.6.92-1.08a24,24,0,0,0,2.9-4.34,11.76,11.76,0,0,0,1.13-3.45,9.72,9.72,0,0,0-.31-4.15,41.92,41.92,0,0,0-1.63-4.28,14.48,14.48,0,0,1-1.23-4.63c-.14-3.3,1.2-6.35,1.24-9.32a7.83,7.83,0,0,0-.85-4.09,5.37,5.37,0,0,0-2.66-2.47,3.51,3.51,0,0,0-3,.14,3.73,3.73,0,0,0-1.6,1.61,2.38,2.38,0,0,0-.27,1.41A1.62,1.62,0,0,0,189.71,49.55Z"/><path class="cls-16" d="M167,69.73a4.83,4.83,0,0,0,.64,1.26,1.66,1.66,0,0,0,1.2.7,1.52,1.52,0,0,0,1.27-.7,2.37,2.37,0,0,0,.36-1.45c0-.46-.23-1-.69-1.06a1.22,1.22,0,0,0-.55.12l-2.39,1"/><path class="cls-6" d="M167.94,71.7a3.84,3.84,0,0,0,1.28-.16,1.82,1.82,0,0,0,1-2.44,1.62,1.62,0,0,0-.21-.36c-.09-.1-.07-.09-.18-.08l-.38.15-.39.16c-.52.21-1,.39-1.37.53a4.42,4.42,0,0,1-1.3.4c0-.06.43-.31,1.18-.67l1.33-.62.39-.17a4,4,0,0,1,.44-.18.47.47,0,0,1,.35,0,.56.56,0,0,1,.26.2,1.79,1.79,0,0,1,.27.46,2.23,2.23,0,0,1-.07,1.91,2,2,0,0,1-1.21,1,1.87,1.87,0,0,1-1,0C168,71.8,167.93,71.72,167.94,71.7Z"/><path class="cls-6" d="M194.56,163.47c0,.08,0,.18.05.27C194.58,163.44,194.54,163.19,194.56,163.47Z"/><path class="cls-15" d="M201.6,169.91l1.07,9.38,8.58,7.84a2.81,2.81,0,0,0,.33-2.16c-.39-1,2,1.27,2,1.27v5.39s1.47.59,2-.68a36,36,0,0,0,.78-5.88l-.68-.49a2.49,2.49,0,0,0,.68-2.16,7.55,7.55,0,0,0,.49-3.91,11.56,11.56,0,0,0-.88-3.43l-7-7.85Z"/><path class="cls-16" d="M205.91,178.94a15.1,15.1,0,0,0,2.53,3.15,14.66,14.66,0,0,0,3.09,2.62c.06-.08-1.28-1.28-2.83-2.87S206,178.87,205.91,178.94Z"/><path class="cls-16" d="M211.94,180.65a13.39,13.39,0,0,0,2,2.36,14.74,14.74,0,0,0,2.3,2.1,13.81,13.81,0,0,0-2-2.36A13.6,13.6,0,0,0,211.94,180.65Z"/><path class="cls-16" d="M213.1,178.5a21.2,21.2,0,0,0,1.62,1.93,23.15,23.15,0,0,0,1.57,2,8.21,8.21,0,0,0-3.19-3.91Z"/><path class="cls-16" d="M214.09,176.29a8.66,8.66,0,0,0,1.27,1.55,8.82,8.82,0,0,0,1.35,1.48,6.66,6.66,0,0,0-2.62-3Z"/><path class="cls-9" d="M150.92,63.94a14.59,14.59,0,0,1-3.13-1.22,14.5,14.5,0,0,1-3-1.58A14.55,14.55,0,0,1,148,62.36,13.93,13.93,0,0,1,150.92,63.94Z"/><path class="cls-15" d="M141,78.35c-.71,0-2.42,1-3.8,2.89l-.07.08c-1,1.28-1.91-2.36-2.07-3.72a1.42,1.42,0,0,0-1.92-1.1l-4.56,2.13-1.33.05a1.33,1.33,0,0,0-.86,1.6l2.17,7.19.05,2,9.12,1.23.14-4.92c.14-.56.32-1.23.56-2a6.4,6.4,0,0,1,1-1.92,12.46,12.46,0,0,1,1.64-1.8l.15-.1a1,1,0,0,0,.26-.22A.79.79,0,0,0,141,78.35Z"/><path class="cls-7" d="M140.83,56.19s-5.32-1-13-8-11.41-16.35-12.32-16.28-4.94-1.66-12,15-4,20.41-2.51,20.34,11.65-3.21,18.06-2.67,14.7,3.64,14.7,3.64Z"/><path class="cls-6" d="M152.32,64.84l-1.71,3.48-.76,1.56A4.48,4.48,0,0,1,144.07,72L132.62,68.4l6.17-15.26,11.5,5.72A4.47,4.47,0,0,1,152.32,64.84Z"/><path class="cls-6" d="M145.94,70.52l-3.41,7.18-1.82-.45-11.53,9.93-3.48-6.36s6.89-3.2,8.11-5.72-.29-3-.29-3l3.18-3.82Z"/><path class="cls-6" d="M104.12,47.24c-3.77,9-5.22,17-3.24,17.85s6.65-5.82,10.42-14.85,5.23-17,3.24-17.85S107.89,38.21,104.12,47.24Z"/><polygon class="cls-9" points="153.43 69.77 150.33 68.89 152.13 65.22 154.48 66.59 153.43 69.77"/><g class="cls-14"><polygon points="135.61 69.54 144.01 74.57 144.99 72.53 135.61 69.54"/></g><path class="cls-9" d="M150,66.12a17,17,0,0,1-3.46-1.24,16.16,16.16,0,0,1-3.31-1.6,17.77,17.77,0,0,1,3.46,1.24A17.15,17.15,0,0,1,150,66.12Z"/><path class="cls-9" d="M148.91,68.41a2.56,2.56,0,0,1-1-.18l-1-.31c-.39-.13-.79-.32-1.21-.49a13.11,13.11,0,0,1-3-1.56,16.5,16.5,0,0,1,3.12,1.19c.42.18.82.38,1.19.52l1,.38C148.59,68.19,148.93,68.36,148.91,68.41Z"/><path class="cls-4" d="M112.27,45s-4.68-2.72-7,3.56,2.52,7.17,2.52,7.17A41.56,41.56,0,0,0,112.27,45Z"/><path class="cls-6" d="M117,37.48a6.11,6.11,0,0,1-.14,1.19c-.13.77-.3,1.87-.56,3.23-.17.68-.37,1.41-.57,2.2-.11.39-.21.8-.32,1.22-.06.21-.12.42-.17.63s-.15.43-.22.65c-.31.86-.63,1.77-1,2.7-.08.24-.17.48-.25.71s-.2.47-.3.71c-.22.47-.43.94-.65,1.43l-.64,1.42a7.5,7.5,0,0,1-.33.7l-.36.66-1.4,2.51-.33.59-.37.55-.7,1.06c-.46.67-.88,1.3-1.27,1.88-.85,1.09-1.56,1.95-2.05,2.55a7.93,7.93,0,0,1-.8.9,7,7,0,0,1,.68-1c.47-.63,1.13-1.53,2-2.62l1.21-1.9.68-1.05.36-.55c.12-.19.22-.39.33-.59l1.36-2.51.36-.66c.12-.22.21-.46.32-.69.21-.46.43-.94.64-1.42s.43-.95.64-1.41c.1-.24.22-.46.31-.7s.17-.47.25-.7l1-2.69c.08-.21.16-.42.23-.63s.11-.43.17-.63l.34-1.21c.22-.78.43-1.51.62-2.17l.67-3.19A7.07,7.07,0,0,1,117,37.48Z"/><path class="cls-15" d="M131.56,75.13a1,1,0,0,0-.55,1.3c.35,1,.92,2.55,1.34,3.49a2.69,2.69,0,0,0,.52.84.86.86,0,0,0,.89.24,1,1,0,0,0,.53-.84,3,3,0,0,0-.19-1c-.3-.93-.82-2.32-1.26-3.44a1,1,0,0,0-1.28-.56Z"/><path class="cls-15" d="M130.17,77a1,1,0,0,0-.54,1.31c.35,1,.91,2.55,1.34,3.49a2.52,2.52,0,0,0,.52.84.85.85,0,0,0,.88.24.93.93,0,0,0,.53-.84,2.61,2.61,0,0,0-.19-1c-.3-.93-.81-2.32-1.25-3.45a1,1,0,0,0-1.29-.56Z"/><path class="cls-15" d="M128.84,78.11a.9.9,0,0,0-.5,1.13c.32.86.83,2.21,1.22,3A2,2,0,0,0,130,83a.8.8,0,0,0,.8.21.82.82,0,0,0,.48-.72,2.33,2.33,0,0,0-.18-.9c-.27-.8-.73-2-1.13-3a.89.89,0,0,0-1.16-.49Z"/><path class="cls-15" d="M127.08,78.5a.91.91,0,0,0-.5,1.14c.32.86.84,2.22,1.22,3a2.46,2.46,0,0,0,.47.74.85.85,0,0,0,.81.21.82.82,0,0,0,.48-.73,2.32,2.32,0,0,0-.17-.9c-.27-.81-.74-2-1.14-3a.9.9,0,0,0-1.17-.49Z"/><path class="cls-16" d="M132.78,80.8a5.26,5.26,0,0,1-.93-1.74,5.08,5.08,0,0,1-.58-1.88,5.58,5.58,0,0,1,.92,1.74A5.48,5.48,0,0,1,132.78,80.8Z"/><path class="cls-16" d="M131.27,82.32a7,7,0,0,1-1-2,7.12,7.12,0,0,1-.65-2.14,6.79,6.79,0,0,1,1,2A7.12,7.12,0,0,1,131.27,82.32Z"/><path class="cls-16" d="M129.69,82.52a4.5,4.5,0,0,1-1-1.73,4.37,4.37,0,0,1-.52-1.92,6.85,6.85,0,0,1,.86,1.78A7.12,7.12,0,0,1,129.69,82.52Z"/><path class="cls-6" d="M196.07,221.44l-4.81-38.56c3.13-7.31,4.26-14.61,3.35-19.14,0,.47.08,1.06-.05-.27-.78-8-7.71-13.94-7.71-13.94l-2.32-9.74L154.84,144,156,160.28l-19.22,67.66-3.48,57.19L148.77,287s6.08-28.6,7.72-40.55A163.82,163.82,0,0,0,158,226.85L172.61,205c1.73,9,3.68,20.12,4.68,25.92a15.28,15.28,0,0,0,3.24,7.06l38.14,30V250C215,241.28,196.07,221.44,196.07,221.44Z"/><path class="cls-9" d="M158.65,156.07a6.37,6.37,0,0,1-.62-1.62,27.65,27.65,0,0,1-.92-4.07,29.49,29.49,0,0,1-.33-4.16,6.41,6.41,0,0,1,.12-1.73,10.32,10.32,0,0,1,.14,1.72c.07,1.06.19,2.52.43,4.11s.56,3,.81,4.06A10.28,10.28,0,0,1,158.65,156.07Z"/><path class="cls-9" d="M160,145s.12-.11.39-.17a1.76,1.76,0,0,1,1.13.17,1.72,1.72,0,0,1,1,1.38,2,2,0,0,1-1,1.88,1.84,1.84,0,0,1-2.08-.2,1.81,1.81,0,0,1-.7-1.56,2.79,2.79,0,0,1,.34-1.09c.12-.23.21-.35.23-.34s0,.15-.1.4a3.43,3.43,0,0,0-.21,1,1.59,1.59,0,0,0,.65,1.29,1.54,1.54,0,0,0,1.69.14,1.7,1.7,0,0,0,.79-1.53,1.49,1.49,0,0,0-.79-1.18A2.25,2.25,0,0,0,160,145Z"/><path class="cls-9" d="M179.54,152.84a1.86,1.86,0,0,1-.52.22,8.44,8.44,0,0,1-1.5.33,10.4,10.4,0,0,1-2.29.09,11.86,11.86,0,0,1-5.31-1.69,11.63,11.63,0,0,1-1.82-1.38,8.34,8.34,0,0,1-1-1.15c-.22-.29-.32-.46-.3-.47s.53.59,1.5,1.42a12.67,12.67,0,0,0,1.82,1.29,12.53,12.53,0,0,0,7.4,1.64C178.75,153,179.52,152.77,179.54,152.84Z"/><path class="cls-9" d="M189.09,181.94a3.12,3.12,0,0,1-.33.45c-.24.32-.57.73-1,1.26-.82,1.11-2,2.71-3.44,4.72-2.87,4-6.74,9.65-11,15.88l-10.81,16-3.28,4.84-.91,1.31a3.85,3.85,0,0,1-.34.45,3.31,3.31,0,0,1,.28-.49l.85-1.35,3.18-4.9c2.71-4.14,6.49-9.83,10.72-16.06s8.15-11.84,11.07-15.83c1.46-2,2.68-3.58,3.54-4.66l1-1.21A2.77,2.77,0,0,1,189.09,181.94Z"/><path class="cls-6" d="M183.85,95.53c.06,0,.06-.74.26-1.91a13.33,13.33,0,0,1,1.55-4.33,7.32,7.32,0,0,1,3.16-3.21,4.45,4.45,0,0,1,1.85-.3,1.13,1.13,0,0,0-.51-.14,3.13,3.13,0,0,0-1.44.2,7.09,7.09,0,0,0-3.37,3.27,11.76,11.76,0,0,0-1.49,4.47A5.74,5.74,0,0,0,183.85,95.53Z"/><path class="cls-7" d="M181.4,84.07l-15.55,2.42-2.77,2.39s-9.79,19.07-10,22.92c-.2,4.25,2.08,11.55,2.08,11.55L153,140.19c-.33,1.94.93,3.79,1.77,3.79l26.87-3.6c3.51-.69,4.94-2.52,4.73-4.55l-.4-3.75,11.47-38.44c.68,2.27-.38-6.12-5.5-8C189.72,84.84,184.7,83.38,181.4,84.07Z"/><path class="cls-7" d="M164.51,87.75s-4.79,3.69-9.32,7.89-16.62,12.59-16.62,12.59l-.83-17.56-9.12-1.23s-4.46,21.89-1.63,27.93,6.21,6.3,15.61,3.28,12.09-4.36,12.09-4.36Z"/><path class="cls-6" d="M162.11,90.36s-.09.09-.22.27l-.56.82c-.47.71-1.15,1.76-2,3.07a48.83,48.83,0,0,0-5.22,10.82,24,24,0,0,0-.81,11.94,16.66,16.66,0,0,0,1.13,3.48,7.6,7.6,0,0,0,.45.88,1.84,1.84,0,0,0,.18.3,12.62,12.62,0,0,0-.5-1.24,18.07,18.07,0,0,1-1-3.47,24.69,24.69,0,0,1,.9-11.78,52.82,52.82,0,0,1,5.09-10.8l1.87-3.13.5-.85A1.6,1.6,0,0,0,162.11,90.36Z"/><path class="cls-7" d="M189,85.64s-4.84,6.34-5.1,12.16,8.69,40.71,8.69,40.71l7.85,31.85,9.77-3.61s-2.27-22.67-2.7-25.49c-.91-5.87-4.77-17.3-5.3-23.91S199.19,98,198,95,196.72,85.47,189,85.64Z"/><path class="cls-6" d="M184.26,101a1.35,1.35,0,0,0,0,.35c0,.26.07.58.12,1,.11.84.3,2,.57,3.55.53,3,1.39,7.09,2.41,11.6s2,8.59,2.77,11.53c.38,1.47.7,2.65.94,3.47l.27.93c.07.22.11.33.13.32a1.59,1.59,0,0,0,0-.33l-.22-1c-.2-.88-.48-2.06-.82-3.49-.69-3-1.63-7.06-2.67-11.55s-1.91-8.6-2.51-11.57c-.28-1.45-.51-2.64-.69-3.53l-.18-1A1.49,1.49,0,0,0,184.26,101Z"/><g class="cls-14"><path d="M183.56,139.85c-1.54-1.55-1.87-3.9-2.11-6.07q-1.15-10.35-2.3-20.71c-.48-4.31-.94-8.82.69-12.84a2.15,2.15,0,0,1,1.23-1.42,1.57,1.57,0,0,1,1.61.67c.38.49,1.42,1.2,1.58,1.8,1.57,6.16,2.25,12.22,3.81,18.38.42,1.62,1,1.56.6,3.2-.52,2.38-2.75,9.22-2.75,9.22s.32,2.48.41,3.93a3.75,3.75,0,0,1-2.77,3.84"/></g><path class="cls-4" d="M185,104.45a2.35,2.35,0,0,0,.53.38,12.86,12.86,0,0,0,1.58.85,5.61,5.61,0,0,0,2.63.53,6.5,6.5,0,0,0,3-1.2,23.34,23.34,0,0,1,2.71-1.71,4,4,0,0,1,2.47-.4,2.81,2.81,0,0,1,1.51.76c.28.29.37.51.4.49s0-.24-.3-.59a2.71,2.71,0,0,0-1.56-.91,4.08,4.08,0,0,0-2.66.35,20.91,20.91,0,0,0-2.77,1.7,6.24,6.24,0,0,1-2.87,1.18,5.72,5.72,0,0,1-2.51-.44C185.83,104.88,185,104.39,185,104.45Z"/><path class="cls-4" d="M154.69,103.71a1.32,1.32,0,0,0,.14.26,4.3,4.3,0,0,0,.53.66,5.78,5.78,0,0,0,2.71,1.53,9.63,9.63,0,0,0,4.62.07,46.74,46.74,0,0,0,5.37-1.73,17.76,17.76,0,0,1,10-.67,26.26,26.26,0,0,1,4,1.33s-.08-.07-.24-.16a7.18,7.18,0,0,0-.76-.39,15.37,15.37,0,0,0-2.93-1,17,17,0,0,0-4.59-.49,17.84,17.84,0,0,0-5.56,1.07,50.35,50.35,0,0,1-5.32,1.74,9.67,9.67,0,0,1-4.48,0,6,6,0,0,1-2.68-1.39C154.93,104,154.73,103.68,154.69,103.71Z"/><path class="cls-4" d="M149,100.62a3.69,3.69,0,0,0-.07,1.46,8.87,8.87,0,0,0,3.22,6.11,3.93,3.93,0,0,0,1.24.76,13.6,13.6,0,0,0-1.08-1,10.48,10.48,0,0,1-2.07-2.7,10.28,10.28,0,0,1-1.06-3.24A14,14,0,0,0,149,100.62Z"/><g class="cls-14"><path d="M159,95c-7.35,7.38-13.66,15.58-16.37,25.63,4.2-1.37,8.16-2.71,10.79-3.8a22.63,22.63,0,0,1-.31-6.58c.58-3,.58-5.48,5.89-15.25"/></g><path class="cls-6" d="M138.71,108.27a22.52,22.52,0,0,0-1.47,2.28,22,22,0,0,0-.86,2.57,5.49,5.49,0,0,1,2.33-4.85Z"/><rect class="cls-4" x="98.7" y="126.88" width="42.62" height="53.31" transform="translate(-46.56 254.67) rotate(-83.25)"/><path class="cls-6" d="M149,135.5l-.25,0-.75-.08-2.88-.32-10.84-1.25L96,129.38l.15-.12c-1.49,12.59-3.19,27-5,42.32h0l-.14-.17L144,177.7l-.14.11c1.53-12.74,2.81-23.3,3.7-30.69.45-3.69.8-6.59,1-8.57.13-1,.22-1.74.29-2.26s.1-.79.1-.79,0,.26-.07.76-.14,1.27-.25,2.24c-.23,2-.56,4.87-1,8.56-.86,7.41-2.09,18-3.58,30.78V178H144L91,171.72l-.16,0,0-.15h0c1.82-15.28,3.53-29.72,5-42.32l0-.13h.14l38.31,4.6,10.8,1.32,2.85.35.72.1Z"/><rect class="cls-1" x="101.35" y="128.75" width="37.25" height="49.57" transform="translate(-46.59 254.64) rotate(-83.25)"/><polygon class="cls-3" points="93.17 169.12 113.09 148.15 122.03 163.8 130.17 156.96 142.4 174.94 93.17 169.12"/><path class="cls-3" d="M128.59,147.13a3.9,3.9,0,1,1-3.42-4.33A3.9,3.9,0,0,1,128.59,147.13Z"/><polyline class="cls-4" points="217.99 151.24 202.27 151.24 202.27 100.57 217.99 100.57"/><path class="cls-6" d="M218,100.57a1.45,1.45,0,0,1-.28,0l-.82,0-3.15,0-11.47.06.14-.14c0,6.89,0,15.73,0,25.33s0,18.44,0,25.34l-.14-.15,11.47.07,3.15,0,.82,0a.84.84,0,0,1,.28,0l-.28,0-.82,0-3.15,0-11.47.06h-.15v-.14c0-6.9,0-15.73,0-25.34s0-18.44,0-25.33v-.15h.15l11.47.07,3.15,0,.82,0A.84.84,0,0,1,218,100.57Z"/><polygon class="cls-1" points="217.99 147.85 204.87 148.04 204.87 103.48 217.99 103.29 217.99 147.85"/><polygon class="cls-3" points="204.97 147.91 217.99 148.04 218.08 130.05 204.97 147.91"/><rect class="cls-4" x="60.62" y="188.13" width="45.13" height="36.08" transform="translate(-17.97 8.2) rotate(-5.09)"/><path class="cls-6" d="M104.06,186.2l-.22,0-.63.06-2.44.23-9.2.85-32.46,2.95.11-.12c1,10.69,2.06,23,3.22,35.93h0L62.3,226l45-4-.09.12c-1-10.82-1.73-19.8-2.27-26.07-.27-3.14-.48-5.6-.62-7.29-.07-.84-.13-1.48-.16-1.92s0-.67,0-.67,0,.21.07.64.1,1.08.18,1.9c.16,1.68.39,4.13.68,7.26.57,6.29,1.39,15.28,2.38,26.13v.11h-.11l-44.95,4h-.13v-.13h0c-1.16-13-2.24-25.25-3.19-35.94v-.12h.11l32.55-2.84,9.18-.79,2.42-.2.62,0Z"/><rect class="cls-1" x="62.17" y="190.41" width="41.96" height="31.54" transform="translate(-17.97 8.2) rotate(-5.09)"/><polygon class="cls-3" points="63.66 223.75 76.51 202.92 86.65 214.33 92.2 207.25 105.45 220.02 63.66 223.75"/><path class="cls-3" d="M89.18,199.38a3.3,3.3,0,1,1-3.58-3A3.3,3.3,0,0,1,89.18,199.38Z"/></svg>