<svg id="Layer_1" data-name="Layer 1" xmlns="http://www.w3.org/2000/svg" viewBox="0 0 310.36 317.32"><defs><style>.cls-1{fill:#f5f5f5;}.cls-2{fill:#ececec;}.cls-3{fill:#e1e1e1;}.cls-4{fill:#fff;}.cls-5{opacity:0.5;}.cls-6{fill:#1a2e35;}.cls-7{fill:#375a64;}.cls-8{opacity:0.3;}.cls-9{fill:#ff735d;}.cls-10{opacity:0.1;}.cls-11{opacity:0.2;}.cls-12{fill:#fafafa;}.cls-13{fill:#ffbf9d;}.cls-14{fill:#ff9a6c;}.cls-15{opacity:0.6;}</style></defs><path class="cls-1" d="M110.16,28.89A23.45,23.45,0,1,1,83.48,9.25,23.43,23.43,0,0,1,110.16,28.89Z"/><path class="cls-2" d="M104.64,29.72a17.87,17.87,0,1,1-20.33-15A17.86,17.86,0,0,1,104.64,29.72Z"/><path class="cls-3" d="M104.55,29.17a10.47,10.47,0,0,1-.79-2.06,18.86,18.86,0,0,0-2.85-5.1,18,18,0,0,0-6.74-5.26,17.42,17.42,0,0,0-4.87-1.37,16.88,16.88,0,0,0-2.67-.14,19.87,19.87,0,0,0-2.75.28,17.93,17.93,0,0,0-2.66.71,16.38,16.38,0,0,0-2.45,1.08,17.28,17.28,0,0,0-2.19,1.38,18.56,18.56,0,0,0-1.88,1.62,17.92,17.92,0,0,0-2.81,3.63,18.15,18.15,0,0,0-1.63,3.67,18.81,18.81,0,0,0-.86,5.79,10,10,0,0,1,0,2.2,5.17,5.17,0,0,1-.52-2.17,16.24,16.24,0,0,1,.46-6.08,17.89,17.89,0,0,1,1.57-4,18.39,18.39,0,0,1,2.9-4,17.82,17.82,0,0,1,2-1.77,17.14,17.14,0,0,1,2.34-1.53A17.85,17.85,0,0,1,80.76,15a19.7,19.7,0,0,1,2.88-.78,19.91,19.91,0,0,1,3-.29,17.95,17.95,0,0,1,5.6.77,17.15,17.15,0,0,1,2.49,1,17.94,17.94,0,0,1,4.12,2.67,17.62,17.62,0,0,1,2.87,3.15A16.44,16.44,0,0,1,104.27,27,5.16,5.16,0,0,1,104.55,29.17Z"/><path class="cls-3" d="M90.55,42.62l.51,3.08-2.74.45-.49-3a13.1,13.1,0,0,1-7.19-1.06l1-3.6a11.25,11.25,0,0,0,5.64,1.07L86.47,35c-3.16-.24-6.73-.69-7.38-4.61-.48-2.91,1.22-5.75,5.47-7l-.51-3.05,2.75-.45.49,3a12.5,12.5,0,0,1,5.84.75l-.81,3.6a11.47,11.47,0,0,0-4.43-.73l.77,4.66c3.16.21,6.68.67,7.32,4.54C96.45,38.58,94.77,41.39,90.55,42.62ZM85.81,31l-.65-3.9c-1.4.57-1.84,1.47-1.69,2.37S84.54,30.77,85.81,31Zm5.81,5.83c-.16-1-1-1.35-2.29-1.57L90,39C91.28,38.48,91.76,37.66,91.62,36.79Z"/><path class="cls-1" d="M250.75,156.1a14.39,14.39,0,1,1-16.37-12A14.39,14.39,0,0,1,250.75,156.1Z"/><path class="cls-2" d="M247.36,156.61a11,11,0,1,1-12.47-9.18A11,11,0,0,1,247.36,156.61Z"/><path class="cls-3" d="M247.31,156.27c-.07,0-.19-.45-.49-1.26a11.49,11.49,0,0,0-1.75-3.13,11,11,0,0,0-1.73-1.76,11.3,11.3,0,0,0-2.4-1.47,11.17,11.17,0,0,0-1.44-.52,10.91,10.91,0,0,0-1.55-.32,11.13,11.13,0,0,0-1.64-.08,10.8,10.8,0,0,0-4.83,1.26,12.24,12.24,0,0,0-1.34.86,10,10,0,0,0-1.15,1,10.73,10.73,0,0,0-1.73,2.23,11.52,11.52,0,0,0-1,2.25,11.82,11.82,0,0,0-.52,3.55,6.21,6.21,0,0,1,0,1.35,3.24,3.24,0,0,1-.32-1.33,10.07,10.07,0,0,1,.28-3.73,12,12,0,0,1,1-2.44,11.27,11.27,0,0,1,1.79-2.42,10.75,10.75,0,0,1,1.22-1.09,11,11,0,0,1,1.43-.94,10.76,10.76,0,0,1,1.62-.72,13.06,13.06,0,0,1,1.76-.48,12.6,12.6,0,0,1,1.82-.18,11.53,11.53,0,0,1,1.77.11,9.9,9.9,0,0,1,1.67.37,10.3,10.3,0,0,1,1.53.58,11.25,11.25,0,0,1,2.53,1.64,11.53,11.53,0,0,1,1.76,1.93,10.26,10.26,0,0,1,1.59,3.4A3.16,3.16,0,0,1,247.31,156.27Z"/><path class="cls-3" d="M238.72,164.53l.31,1.89-1.68.27-.31-1.83a8,8,0,0,1-4.41-.65l.59-2.21a6.84,6.84,0,0,0,3.46.66l-.47-2.81c-1.94-.15-4.13-.43-4.53-2.83-.29-1.79.75-3.53,3.36-4.28l-.31-1.86,1.68-.28.31,1.83a7.75,7.75,0,0,1,3.58.46l-.5,2.21a7.25,7.25,0,0,0-2.72-.45l.48,2.86c1.94.13,4.09.42,4.49,2.79C242.34,162.05,241.31,163.77,238.72,164.53Zm-2.92-7.16-.39-2.39c-.86.35-1.13.9-1,1.45S235,157.26,235.8,157.37Zm3.57,3.58c-.1-.59-.64-.83-1.4-1l.38,2.32C239.16,162,239.46,161.49,239.37,161Z"/><path class="cls-1" d="M47.44,170.15A19.52,19.52,0,1,1,25.23,153.8,19.5,19.5,0,0,1,47.44,170.15Z"/><path class="cls-2" d="M42.85,170.84a14.88,14.88,0,1,1-16.93-12.46A14.87,14.87,0,0,1,42.85,170.84Z"/><path class="cls-3" d="M42.77,170.38a8.33,8.33,0,0,1-.65-1.71,15.76,15.76,0,0,0-2.38-4.25A15.47,15.47,0,0,0,37.39,162a14.77,14.77,0,0,0-3.26-2,14,14,0,0,0-1.94-.71,14.62,14.62,0,0,0-2.11-.44,14.94,14.94,0,0,0-2.23-.12,16.19,16.19,0,0,0-2.28.24,14.47,14.47,0,0,0-2.22.59,14.82,14.82,0,0,0-3.86,2A14.81,14.81,0,0,0,17.92,163a14.91,14.91,0,0,0-3.7,6.08,15.73,15.73,0,0,0-.71,4.82,9.1,9.1,0,0,1,0,1.83,4.61,4.61,0,0,1-.44-1.81,14,14,0,0,1,.39-5.06,14.64,14.64,0,0,1,1.3-3.3,15.19,15.19,0,0,1,2.42-3.29,14.72,14.72,0,0,1,1.66-1.48,14.41,14.41,0,0,1,1.94-1.27,15.06,15.06,0,0,1,2.2-1,15.86,15.86,0,0,1,2.39-.64,16,16,0,0,1,2.47-.25,14.67,14.67,0,0,1,2.4.15,13.75,13.75,0,0,1,2.26.5,15.16,15.16,0,0,1,2.08.79A15.34,15.34,0,0,1,38,161.31a15.18,15.18,0,0,1,2.39,2.63,13.69,13.69,0,0,1,2.15,4.6A4.18,4.18,0,0,1,42.77,170.38Z"/><path class="cls-3" d="M31.12,181.59l.42,2.55-2.28.38L28.85,182a11,11,0,0,1-6-.88l.8-3a9.3,9.3,0,0,0,4.69.89l-.63-3.81c-2.63-.2-5.6-.57-6.14-3.84-.41-2.42,1-4.79,4.55-5.8l-.42-2.53,2.28-.38.41,2.49a10.32,10.32,0,0,1,4.87.63l-.68,3a9.47,9.47,0,0,0-3.69-.61l.64,3.89c2.64.17,5.56.55,6.09,3.77C36,178.22,34.63,180.56,31.12,181.59Zm-3.95-9.72-.54-3.24c-1.16.47-1.53,1.22-1.41,2S26.11,171.72,27.17,171.87ZM32,176.72c-.13-.8-.86-1.12-1.9-1.3l.52,3.15C31.72,178.13,32.13,177.46,32,176.72Z"/><path class="cls-3" d="M277.59,122.12,158.37,85a5.82,5.82,0,0,1-3.82-7.28L177.47,4.08A5.82,5.82,0,0,1,184.75.26L304,37.38a5.8,5.8,0,0,1,3.82,7.27L284.87,118.3A5.82,5.82,0,0,1,277.59,122.12Z"/><path class="cls-4" d="M173.87,56.35l-2.26,7.24-.74-.24,2-6.57-1.71-.53.21-.66Z"/><path class="cls-4" d="M179.26,65.24l-.21.66L174,64.32l.16-.53,3.93-2c1.07-.55,1.37-1,1.53-1.48.26-.84-.17-1.54-1.28-1.88a2.54,2.54,0,0,0-2.22.19l-.39-.62a3.42,3.42,0,0,1,2.89-.24c1.47.46,2.16,1.5,1.79,2.7-.22.7-.63,1.25-1.9,1.9L175.28,64Z"/><path class="cls-4" d="M187.26,66.37l-1.44-.45-.6,1.9-.74-.23.59-1.9L181,64.42l.17-.54,5.32-3.6.83.26-5.15,3.51,3.14,1,.52-1.67.72.22L186,65.26l1.45.45Z"/><path class="cls-4" d="M198.35,69.82l-1.45-.45-.59,1.9-.74-.23.59-1.9-4.08-1.27.16-.54,5.33-3.6.83.26-5.16,3.52,3.14,1,.53-1.67.72.22-.52,1.68,1.44.45Z"/><path class="cls-4" d="M204.74,71.56c-.38,1.23-1.54,1.93-3.3,1.38a3.93,3.93,0,0,1-2.31-1.74l.55-.48a3.27,3.27,0,0,0,2,1.53c1.23.38,2.06,0,2.34-.89s-.11-1.69-1.95-2.26l-1.54-.48L202,65.1l4,1.24-.21.66-3.3-1-1,2.23.93.29C204.58,69.16,205.14,70.28,204.74,71.56Z"/><path class="cls-4" d="M211.9,73.76a2.36,2.36,0,0,1-3.16,1.45c-1.92-.6-2.55-2.26-1.84-4.54.77-2.46,2.51-3.32,4.47-2.71a3.49,3.49,0,0,1,1.6.92l-.49.51a2.72,2.72,0,0,0-1.3-.78c-1.56-.48-2.87.21-3.49,2.17-.05.17-.1.38-.15.6a2.42,2.42,0,0,1,2.6-.55A2.29,2.29,0,0,1,211.9,73.76Zm-.74-.21a1.67,1.67,0,0,0-1.33-2.13,1.67,1.67,0,1,0-.92,3.15A1.66,1.66,0,0,0,211.16,73.55Z"/><path class="cls-4" d="M221.77,76.92c-.37,1.21-1.54,1.87-3.29,1.32a3.93,3.93,0,0,1-2.31-1.74l.54-.48a3.32,3.32,0,0,0,2,1.54c1.19.37,2,0,2.31-.88s-.16-1.62-1.51-2l-.51-.16.17-.55L222,72l-3.7-1.15.2-.66,4.65,1.45-.16.52-2.85,1.94C221.61,74.7,222.13,75.76,221.77,76.92Z"/><path class="cls-4" d="M229.05,79.09a2.35,2.35,0,0,1-3.16,1.46c-1.92-.6-2.55-2.26-1.84-4.54.77-2.46,2.51-3.33,4.47-2.71a3.44,3.44,0,0,1,1.6.92l-.49.51a2.67,2.67,0,0,0-1.3-.78c-1.56-.49-2.87.21-3.48,2.17a4.62,4.62,0,0,0-.16.6,2.4,2.4,0,0,1,2.6-.55A2.27,2.27,0,0,1,229.05,79.09Zm-.74-.2A1.66,1.66,0,0,0,227,76.76a1.67,1.67,0,1,0-.92,3.15A1.65,1.65,0,0,0,228.31,78.89Z"/><path class="cls-4" d="M237.29,76.09l-.17.53L232,82.38l-.81-.25,5-5.64-3.72-1.16-.42,1.35-.73-.23.63-2Z"/><path class="cls-4" d="M247.63,79.31l-.16.53-5.12,5.76-.81-.25,5-5.64-3.72-1.16-.43,1.35-.73-.23.63-2Z"/><path class="cls-4" d="M253.12,86.75c-.39,1.28-1.73,1.74-3.45,1.2s-2.55-1.67-2.15-3a1.89,1.89,0,0,1,1.95-1.34,1.73,1.73,0,0,1-.64-2c.37-1.17,1.6-1.6,3.13-1.12s2.32,1.53,2,2.71a1.73,1.73,0,0,1-1.66,1.23A1.9,1.9,0,0,1,253.12,86.75Zm-.76-.25c.28-.89-.31-1.69-1.59-2.09s-2.21-.07-2.49.82.3,1.69,1.58,2.09S252.08,87.4,252.36,86.5ZM251,83.82c1.13.36,2,.06,2.2-.73s-.3-1.53-1.39-1.87-1.94-.06-2.19.75S249.82,83.47,251,83.82Z"/><path class="cls-4" d="M260.67,87.27c-.77,2.46-2.51,3.32-4.47,2.71a3.5,3.5,0,0,1-1.6-.93l.49-.5a2.67,2.67,0,0,0,1.3.78c1.56.48,2.87-.21,3.49-2.17.05-.17.1-.38.15-.6a2.44,2.44,0,0,1-2.6.55,2.29,2.29,0,0,1-1.76-2.93,2.36,2.36,0,0,1,3.16-1.45C260.75,83.33,261.38,85,260.67,87.27Zm-.58-1.76c.25-.79-.18-1.75-1.43-2.14a1.66,1.66,0,1,0-.92,3.15A1.76,1.76,0,0,0,260.09,85.51Z"/><path class="cls-4" d="M269.11,86l-2.25,7.23-.75-.23,2.05-6.57-1.7-.53.2-.66Z"/><path class="cls-4" d="M274.5,94.89l-.2.66L269.22,94l.17-.53,3.92-2c1.07-.55,1.38-1,1.53-1.48.26-.84-.17-1.54-1.27-1.88a2.56,2.56,0,0,0-2.23.19l-.38-.62a3.4,3.4,0,0,1,2.88-.24c1.47.46,2.17,1.49,1.79,2.7-.21.69-.62,1.25-1.89,1.9l-3.21,1.65Z"/><path class="cls-4" d="M281.43,95.49c-.37,1.21-1.54,1.87-3.29,1.32a3.93,3.93,0,0,1-2.31-1.74l.54-.47a3.34,3.34,0,0,0,2,1.53c1.19.37,2,0,2.31-.88s-.16-1.62-1.51-2l-.51-.16.17-.55,2.78-1.89-3.7-1.15.21-.66,4.65,1.45-.16.52-2.85,1.94C281.27,93.28,281.79,94.33,281.43,95.49Z"/><rect class="cls-4" x="250.4" y="65.87" width="3.29" height="60.69" transform="translate(85.28 308.29) rotate(-72.71)"/><rect class="cls-4" x="262.56" y="91.32" width="3.29" height="31.13" transform="translate(83.64 327.4) rotate(-72.71)"/><g class="cls-5"><rect class="cls-2" x="173.65" y="33.93" width="25.46" height="19.02" rx="3.4" transform="translate(21.33 -53.43) rotate(17.29)"/></g><path class="cls-3" d="M173,43.71l.36-1.16,12.52,3.89a2.74,2.74,0,1,0,1.63-5.24L175,37.31l.37-1.17L187.84,40a4,4,0,0,1-2.36,7.57Z"/><rect class="cls-3" x="193.55" y="41.66" width="1.22" height="9" transform="translate(92.22 217.72) rotate(-72.66)"/><rect class="cls-4" x="182.26" y="26.13" width="65.49" height="5.62" transform="translate(18.32 -62.6) rotate(17.29)"/><rect class="cls-4" x="278.18" y="44.07" width="13.18" height="13.18" rx="2.16" transform="translate(27.93 -82.36) rotate(17.29)"/><path class="cls-6" d="M310.36,303.34c0,.09-69.48.17-155.17.17S0,303.43,0,303.34s69.47-.18,155.19-.18S310.36,303.24,310.36,303.34Z"/><rect class="cls-7" x="9.07" y="209" width="107.61" height="94.32" rx="5.99"/><g class="cls-8"><path d="M9.07,270.85h39.2A2.74,2.74,0,0,0,51,268.12H9.18Z"/></g><rect class="cls-7" x="6.19" y="243.98" width="46.42" height="24.48" rx="3.41"/><path class="cls-6" d="M49.2,268.46a4.35,4.35,0,0,0,1.33-.31,3.65,3.65,0,0,0,1.29-1,3.38,3.38,0,0,0,.72-2.08c0-3.45,0-8.43-.06-14.57v-2.36a11.93,11.93,0,0,0,0-1.2,3.29,3.29,0,0,0-2.24-2.65,4,4,0,0,0-1.26-.16H36.06l-26.46,0a3.23,3.23,0,0,0-3.23,3.11c0,.56,0,1.14,0,1.71v13.26c0,1.06,0,2.14,0,3.14a3.25,3.25,0,0,0,1.5,2.41,3.32,3.32,0,0,0,1.35.48c.47.05,1,0,1.48,0h8.53l10.06,0,14.57.06,4,0,1,0a2.37,2.37,0,0,1,.35,0h-.35l-1,0-4,0-14.57.05-10.06,0H10.7c-.5,0-1,0-1.52,0A3.58,3.58,0,0,1,6,265.42c0-1.08,0-2.1,0-3.18,0-2.12,0-4.3,0-6.51V249c0-.57,0-1.14,0-1.73a3.51,3.51,0,0,1,.51-1.72A3.61,3.61,0,0,1,9.6,243.8H36.06l11.54,0h1.34a4.11,4.11,0,0,1,1.35.18,3.54,3.54,0,0,1,2,1.66,3.65,3.65,0,0,1,.41,1.23,10.25,10.25,0,0,1,0,1.23v2.36c0,6.14-.05,11.12-.06,14.57a3.51,3.51,0,0,1-.78,2.15,3.41,3.41,0,0,1-1.34,1,3.62,3.62,0,0,1-1,.25Z"/><g class="cls-8"><circle cx="41.17" cy="258.87" r="6.87"/></g><circle class="cls-2" cx="41.17" cy="256.48" r="6.87" transform="translate(-169.3 104.23) rotate(-45)"/><path class="cls-6" d="M48,256.48a16.69,16.69,0,0,0-.28-1.66,6.81,6.81,0,0,0-5.35-4.95,6.75,6.75,0,0,0-3.53.31,6.16,6.16,0,0,0-1.69.91,6.42,6.42,0,0,0-1.42,1.43,6.67,6.67,0,0,0,0,7.91,6.42,6.42,0,0,0,1.42,1.43,6.2,6.2,0,0,0,1.69.92,6.76,6.76,0,0,0,6.37-.94,6.85,6.85,0,0,0,2.51-3.7c.27-1.05.23-1.67.28-1.66a5.15,5.15,0,0,1-.15,1.69,6.92,6.92,0,0,1-5.43,5.2,7,7,0,0,1-3.69-.28,6.41,6.41,0,0,1-1.78-1,6.24,6.24,0,0,1-1.5-1.49,7,7,0,0,1,0-8.33,6.43,6.43,0,0,1,1.5-1.49,6.52,6.52,0,0,1,1.78-.95,7,7,0,0,1,6.63,1,6.81,6.81,0,0,1,2.49,3.87A5.21,5.21,0,0,1,48,256.48Z"/><circle class="cls-9" cx="260.55" cy="221.81" r="23.87" transform="translate(-34.41 48.36) rotate(-9.95)"/><g class="cls-10"><path class="cls-4" d="M252,199.53a23.87,23.87,0,0,0-13.71,30.85s15.93-5.32,17.27-13.07S252,199.53,252,199.53Z"/></g><circle class="cls-9" cx="260.06" cy="221.59" r="18.15" transform="translate(-61.92 107.29) rotate(-20.89)"/><g class="cls-11"><circle cx="260.06" cy="221.59" r="18.15" transform="translate(-61.92 107.29) rotate(-20.89)"/></g><path class="cls-9" d="M277.75,215.6a17.9,17.9,0,1,1-23.14-10.28A17.91,17.91,0,0,1,277.75,215.6Z"/><g class="cls-11"><path class="cls-4" d="M277.75,215.6a17.9,17.9,0,1,1-23.14-10.28A17.91,17.91,0,0,1,277.75,215.6Z"/></g><path class="cls-9" d="M261.15,220.32l-1.65-4.27h0a9.22,9.22,0,0,1,2.5-.28,7.25,7.25,0,0,1,1.33.26v-.15l.07-1.8,0-.41-1.07-.51-.31.31a8.42,8.42,0,0,0-3.44.3l-.9-2.35-1-.31.23.59-1,.38.92,2.4c-3.18,1.59-4,4.07-3.19,6.23,1.13,3,3.94,2.74,6.51,2.41l1.63,4.24a8.68,8.68,0,0,1-4.85,0l-.13,2.51a9.92,9.92,0,0,0,5.86-.24l.69,1.78-.83.33,1.05.24,1.73-.66-.91-2.38c3.2-1.61,4.07-4.09,3.24-6.25C266.57,219.75,263.72,220,261.15,220.32Zm-1.91.23c-1.37.11-2.46,0-2.85-1s0-1.94,1.4-2.75Zm.26-4.51h0Zm4.07,10.6-1.44-3.75c1.41-.13,2.53,0,2.93,1S265,225.81,263.57,226.64Z"/><g class="cls-8"><path d="M261.15,220.32l-1.65-4.27h0a9.22,9.22,0,0,1,2.5-.28,7.25,7.25,0,0,1,1.33.26v-.15l.07-1.8,0-.41-1.07-.51-.31.31a8.42,8.42,0,0,0-3.44.3l-.9-2.35-1-.31.23.59-1,.38.92,2.4c-3.18,1.59-4,4.07-3.19,6.23,1.13,3,3.94,2.74,6.51,2.41l1.63,4.24a8.68,8.68,0,0,1-4.85,0l-.13,2.51a9.92,9.92,0,0,0,5.86-.24l.69,1.78-.83.33,1.05.24,1.73-.66-.91-2.38c3.2-1.61,4.07-4.09,3.24-6.25C266.57,219.75,263.72,220,261.15,220.32Zm-1.91.23c-1.37.11-2.46,0-2.85-1s0-1.94,1.4-2.75Zm.26-4.51h0Zm4.07,10.6-1.44-3.75c1.41-.13,2.53,0,2.93,1S265,225.81,263.57,226.64Z"/></g><path class="cls-9" d="M263.52,228.64l.91,2.37-1.73.67-.91-2.35a10,10,0,0,1-5.87.24l.14-2.51a8.69,8.69,0,0,0,4.85,0l-1.63-4.24c-2.57.34-5.38.54-6.52-2.4-.83-2.16,0-4.65,3.2-6.24l-.92-2.39,1.74-.67.9,2.35a9.73,9.73,0,0,1,4.8-.36l-.05,2.47a9.38,9.38,0,0,0-3.87.18L260.2,220c2.58-.33,5.42-.58,6.56,2.37C267.59,224.55,266.72,227,263.52,228.64Zm-5.22-8.4-1.45-3.77c-1.42.81-1.76,1.82-1.4,2.75S256.93,220.35,258.3,220.24Zm5.82,3.38c-.4-1-1.52-1.17-2.93-1l1.44,3.75C264.09,225.5,264.47,224.53,264.12,223.62Z"/><path class="cls-4" d="M245.6,239.56a.73.73,0,0,1-.17-.13L245,239c-.2-.18-.45-.4-.71-.67s-.58-.57-.89-.94l-.49-.57c-.18-.2-.33-.42-.51-.64-.36-.44-.69-.94-1.05-1.47a25.67,25.67,0,0,1-2-3.63,25.93,25.93,0,0,1-1.29-3.92c-.14-.62-.27-1.21-.35-1.77,0-.28-.09-.55-.11-.81s0-.51-.08-.75c-.05-.48-.05-.91-.07-1.29s0-.71,0-1l0-.62c0-.14,0-.21,0-.21a1.66,1.66,0,0,1,0,.21v.62c0,.27,0,.59,0,1s0,.81.1,1.29l.08.74c0,.26.09.53.13.8.08.56.22,1.14.36,1.76a26.89,26.89,0,0,0,1.3,3.89,25.93,25.93,0,0,0,1.93,3.61c.35.53.68,1,1,1.47.17.22.32.44.49.64l.49.57c.3.38.6.68.86,1s.49.51.69.69l.44.43Z"/><path class="cls-4" d="M254.89,221.61a1.47,1.47,0,0,1-.68-.3,2.81,2.81,0,0,1-1.1-3.21,1.6,1.6,0,0,1,.35-.65s-.12.26-.23.69a3,3,0,0,0,.06,1.7,3.06,3.06,0,0,0,1,1.37C254.64,221.48,254.91,221.59,254.89,221.61Z"/><path class="cls-4" d="M256.18,213.67a1.74,1.74,0,0,1-.35-.66c-.15-.39-.23-.71-.18-.73a1.74,1.74,0,0,1,.35.66C256.15,213.33,256.23,213.66,256.18,213.67Z"/><path class="cls-4" d="M254.91,203.63a3.26,3.26,0,0,1-.55.19l-.65.21c-.25.09-.54.18-.84.32s-.65.26-1,.43-.73.36-1.12.56a22.78,22.78,0,0,0-2.4,1.57,21.71,21.71,0,0,0-2.14,1.92c-.29.33-.59.63-.83.94s-.48.59-.68.86-.37.52-.52.74-.27.41-.37.57a3.37,3.37,0,0,1-.32.48,3.83,3.83,0,0,1,.26-.52c.09-.16.2-.36.35-.59s.3-.49.5-.76.41-.57.67-.87.53-.63.82-1a19.72,19.72,0,0,1,2.15-1.95,20.23,20.23,0,0,1,2.43-1.57c.4-.2.77-.4,1.14-.55s.7-.3,1-.42.61-.21.86-.29.48-.14.66-.19A4,4,0,0,1,254.91,203.63Z"/><path class="cls-4" d="M271.39,241.89a1.91,1.91,0,0,1-.36.26,9.8,9.8,0,0,1-1,.62,17.29,17.29,0,0,1-3.68,1.47,17.67,17.67,0,0,1-3.92.59c-.51,0-.92,0-1.2,0a2.35,2.35,0,0,1-.44,0,2.21,2.21,0,0,1,.44,0c.28,0,.69,0,1.2-.05a19.67,19.67,0,0,0,3.87-.63,20.53,20.53,0,0,0,3.67-1.41c.45-.23.81-.42,1.05-.56A2.51,2.51,0,0,1,271.39,241.89Z"/><rect class="cls-9" x="237.34" y="244.13" width="50.53" height="10.19" transform="translate(525.22 498.46) rotate(180)"/><path class="cls-6" d="M284.63,244.3a55.57,55.57,0,0,0,0,9.88,55.57,55.57,0,0,0,0-9.88Z"/><path class="cls-6" d="M279.94,244.3a55.57,55.57,0,0,0,0,9.88,55.57,55.57,0,0,0,0-9.88Z"/><path class="cls-6" d="M275.31,244.3a55.57,55.57,0,0,0,0,9.88,55.57,55.57,0,0,0,0-9.88Z"/><path class="cls-6" d="M270.7,244.3a55.57,55.57,0,0,0,0,9.88,27,27,0,0,0,.22-4.94A27.06,27.06,0,0,0,270.7,244.3Z"/><path class="cls-6" d="M266.1,244.3a55.57,55.57,0,0,0,0,9.88,55.57,55.57,0,0,0,0-9.88Z"/><path class="cls-6" d="M261.49,244.3a55.57,55.57,0,0,0,0,9.88,55.57,55.57,0,0,0,0-9.88Z"/><path class="cls-6" d="M256.89,244.3a55.57,55.57,0,0,0,0,9.88,55.57,55.57,0,0,0,0-9.88Z"/><path class="cls-6" d="M252.28,244.3a55.57,55.57,0,0,0,0,9.88,55.57,55.57,0,0,0,0-9.88Z"/><path class="cls-6" d="M247.68,244.3a27.06,27.06,0,0,0-.22,4.94,27,27,0,0,0,.22,4.94,28.72,28.72,0,0,0,.21-4.94A28.82,28.82,0,0,0,247.68,244.3Z"/><path class="cls-6" d="M243.07,244.3a55.57,55.57,0,0,0,0,9.88,55.57,55.57,0,0,0,0-9.88Z"/><path class="cls-6" d="M238.46,244.3a55.57,55.57,0,0,0,0,9.88,55.57,55.57,0,0,0,0-9.88Z"/><g class="cls-8"><path d="M287.06,244.14a183.71,183.71,0,0,1-48.91,0Z"/></g><path class="cls-6" d="M237.33,244.17c0,.12,11.29.21,25.22.21s25.22-.09,25.22-.21-11.29-.22-25.22-.22S237.33,244,237.33,244.17Z"/><rect class="cls-9" x="236.21" y="254.15" width="50.53" height="10.19" transform="translate(522.95 518.5) rotate(180)"/><path class="cls-6" d="M283.49,254.32a55.57,55.57,0,0,0,0,9.88,55.57,55.57,0,0,0,0-9.88Z"/><path class="cls-6" d="M278.81,254.32a55.57,55.57,0,0,0,0,9.88,55.57,55.57,0,0,0,0-9.88Z"/><path class="cls-6" d="M274.18,254.32a55.57,55.57,0,0,0,0,9.88,58.21,58.21,0,0,0,0-9.88Z"/><path class="cls-6" d="M269.57,254.32a55.57,55.57,0,0,0,0,9.88,55.57,55.57,0,0,0,0-9.88Z"/><path class="cls-6" d="M265,254.32a55.57,55.57,0,0,0,0,9.88,55.57,55.57,0,0,0,0-9.88Z"/><path class="cls-6" d="M260.36,254.32a55.57,55.57,0,0,0,0,9.88,55.57,55.57,0,0,0,0-9.88Z"/><path class="cls-6" d="M255.75,254.32a55.57,55.57,0,0,0,0,9.88,55.57,55.57,0,0,0,0-9.88Z"/><path class="cls-6" d="M251.15,254.32a55.57,55.57,0,0,0,0,9.88,55.57,55.57,0,0,0,0-9.88Z"/><path class="cls-6" d="M246.54,254.32a55.57,55.57,0,0,0,0,9.88,55.57,55.57,0,0,0,0-9.88Z"/><path class="cls-6" d="M241.93,254.32a58.21,58.21,0,0,0,0,9.88,55.57,55.57,0,0,0,0-9.88Z"/><path class="cls-6" d="M237.33,254.32a55.57,55.57,0,0,0,0,9.88,55.57,55.57,0,0,0,0-9.88Z"/><g class="cls-8"><path d="M285.93,254.16a183.78,183.78,0,0,1-48.92,0Z"/></g><path class="cls-6" d="M236.19,254.19c0,.12,11.3.21,25.22.21s25.23-.09,25.23-.21-11.29-.22-25.23-.22S236.19,254.06,236.19,254.19Z"/><rect class="cls-9" x="241" y="264.01" width="50.53" height="10.19" transform="translate(532.54 538.22) rotate(180)"/><path class="cls-6" d="M288.29,264.18a55.57,55.57,0,0,0,0,9.88,55.57,55.57,0,0,0,0-9.88Z"/><path class="cls-6" d="M283.6,264.18a55.57,55.57,0,0,0,0,9.88,55.57,55.57,0,0,0,0-9.88Z"/><path class="cls-6" d="M279,264.18a55.57,55.57,0,0,0,0,9.88,55.57,55.57,0,0,0,0-9.88Z"/><path class="cls-6" d="M274.37,264.18a55.57,55.57,0,0,0,0,9.88,55.57,55.57,0,0,0,0-9.88Z"/><path class="cls-6" d="M269.76,264.18a55.57,55.57,0,0,0,0,9.88,55.57,55.57,0,0,0,0-9.88Z"/><path class="cls-6" d="M265.16,264.18a55.57,55.57,0,0,0,0,9.88,58.21,58.21,0,0,0,0-9.88Z"/><path class="cls-6" d="M260.55,264.18a55.57,55.57,0,0,0,0,9.88,55.57,55.57,0,0,0,0-9.88Z"/><path class="cls-6" d="M255.94,264.18a55.57,55.57,0,0,0,0,9.88,55.57,55.57,0,0,0,0-9.88Z"/><path class="cls-6" d="M251.34,264.18a55.57,55.57,0,0,0,0,9.88,55.57,55.57,0,0,0,0-9.88Z"/><path class="cls-6" d="M246.73,264.18a55.57,55.57,0,0,0,0,9.88,55.57,55.57,0,0,0,0-9.88Z"/><path class="cls-6" d="M242.13,264.18a55.57,55.57,0,0,0,0,9.88,55.57,55.57,0,0,0,0-9.88Z"/><g class="cls-8"><path d="M290.73,264a184.62,184.62,0,0,1-48.92,0Z"/></g><path class="cls-6" d="M241,264.05c0,.12,11.29.22,25.22.22s25.23-.1,25.23-.22-11.3-.22-25.23-.22S241,263.92,241,264.05Z"/><rect class="cls-9" x="235.08" y="274.13" width="50.53" height="9.8" transform="translate(520.7 558.06) rotate(180)"/><path class="cls-6" d="M282.37,274.29a51.5,51.5,0,0,0,0,9.51,51.5,51.5,0,0,0,0-9.51Z"/><path class="cls-6" d="M277.68,274.29a51.5,51.5,0,0,0,0,9.51,51.5,51.5,0,0,0,0-9.51Z"/><path class="cls-6" d="M273.05,274.29a51.5,51.5,0,0,0,0,9.51,51.5,51.5,0,0,0,0-9.51Z"/><path class="cls-6" d="M268.45,274.29a51.5,51.5,0,0,0,0,9.51,51.5,51.5,0,0,0,0-9.51Z"/><path class="cls-6" d="M263.84,274.29a51.5,51.5,0,0,0,0,9.51,51.5,51.5,0,0,0,0-9.51Z"/><path class="cls-6" d="M259.24,274.29a51.5,51.5,0,0,0,0,9.51,51.5,51.5,0,0,0,0-9.51Z"/><path class="cls-6" d="M254.63,274.29a51.5,51.5,0,0,0,0,9.51,51.5,51.5,0,0,0,0-9.51Z"/><path class="cls-6" d="M250,274.29a51.5,51.5,0,0,0,0,9.51,51.5,51.5,0,0,0,0-9.51Z"/><path class="cls-6" d="M245.42,274.29a51.5,51.5,0,0,0,0,9.51,51.5,51.5,0,0,0,0-9.51Z"/><path class="cls-6" d="M240.81,274.29a51.5,51.5,0,0,0,0,9.51,51.5,51.5,0,0,0,0-9.51Z"/><path class="cls-6" d="M236.21,274.29a51.5,51.5,0,0,0,0,9.51,51.5,51.5,0,0,0,0-9.51Z"/><g class="cls-8"><path d="M284.81,274.14a144.52,144.52,0,0,1-48.92,0Z"/></g><path class="cls-6" d="M235.07,274.16c0,.12,11.3.22,25.22.22s25.23-.1,25.23-.22-11.29-.22-25.23-.22S235.07,274,235.07,274.16Z"/><rect class="cls-9" x="238.33" y="283.93" width="50.53" height="9.8" transform="translate(527.2 577.67) rotate(180)"/><path class="cls-6" d="M285.62,284.1a51.39,51.39,0,0,0,0,9.5,51.39,51.39,0,0,0,0-9.5Z"/><path class="cls-6" d="M280.93,284.1a51.39,51.39,0,0,0,0,9.5,51.39,51.39,0,0,0,0-9.5Z"/><path class="cls-6" d="M276.3,284.1a51.39,51.39,0,0,0,0,9.5,51.39,51.39,0,0,0,0-9.5Z"/><path class="cls-6" d="M271.7,284.1a51.39,51.39,0,0,0,0,9.5,51.39,51.39,0,0,0,0-9.5Z"/><path class="cls-6" d="M267.09,284.1a51.39,51.39,0,0,0,0,9.5,51.39,51.39,0,0,0,0-9.5Z"/><path class="cls-6" d="M262.48,284.1a53.83,53.83,0,0,0,0,9.5,51.39,51.39,0,0,0,0-9.5Z"/><path class="cls-6" d="M257.88,284.1a51.39,51.39,0,0,0,0,9.5,51.39,51.39,0,0,0,0-9.5Z"/><path class="cls-6" d="M253.27,284.1a51.39,51.39,0,0,0,0,9.5,51.39,51.39,0,0,0,0-9.5Z"/><path class="cls-6" d="M248.67,284.1a51.39,51.39,0,0,0,0,9.5,51.39,51.39,0,0,0,0-9.5Z"/><path class="cls-6" d="M244.06,284.1a51.39,51.39,0,0,0,0,9.5,51.39,51.39,0,0,0,0-9.5Z"/><path class="cls-6" d="M239.46,284.1a51.39,51.39,0,0,0,0,9.5,51.39,51.39,0,0,0,0-9.5Z"/><g class="cls-8"><path d="M288.05,284a128.15,128.15,0,0,1-48.91,0Z"/></g><path class="cls-6" d="M238.32,284c0,.12,11.29.21,25.22.21s25.23-.09,25.23-.21-11.3-.22-25.23-.22S238.32,283.84,238.32,284Z"/><rect class="cls-9" x="235.45" y="293.6" width="50.53" height="9.8" transform="translate(521.43 597) rotate(180)"/><path class="cls-6" d="M282.73,293.76a51.5,51.5,0,0,0,0,9.51,51.5,51.5,0,0,0,0-9.51Z"/><path class="cls-6" d="M278.05,293.76a51.5,51.5,0,0,0,0,9.51,51.5,51.5,0,0,0,0-9.51Z"/><path class="cls-6" d="M273.42,293.76a51.5,51.5,0,0,0,0,9.51,53.94,53.94,0,0,0,0-9.51Z"/><path class="cls-6" d="M268.81,293.76a51.5,51.5,0,0,0,0,9.51,51.5,51.5,0,0,0,0-9.51Z"/><path class="cls-6" d="M264.2,293.76a51.5,51.5,0,0,0,0,9.51,51.5,51.5,0,0,0,0-9.51Z"/><path class="cls-6" d="M259.6,293.76a51.5,51.5,0,0,0,0,9.51,51.5,51.5,0,0,0,0-9.51Z"/><path class="cls-6" d="M255,293.76a51.5,51.5,0,0,0,0,9.51,51.5,51.5,0,0,0,0-9.51Z"/><path class="cls-6" d="M250.39,293.76a51.5,51.5,0,0,0,0,9.51,51.5,51.5,0,0,0,0-9.51Z"/><path class="cls-6" d="M245.78,293.76a51.5,51.5,0,0,0,0,9.51,51.5,51.5,0,0,0,0-9.51Z"/><path class="cls-6" d="M241.17,293.76a53.94,53.94,0,0,0,0,9.51,51.5,51.5,0,0,0,0-9.51Z"/><path class="cls-6" d="M236.57,293.76a51.5,51.5,0,0,0,0,9.51,51.5,51.5,0,0,0,0-9.51Z"/><g class="cls-8"><path d="M285.17,293.61a144.77,144.77,0,0,1-48.92,0Z"/></g><path class="cls-6" d="M235.43,293.63c0,.12,11.3.22,25.22.22s25.23-.1,25.23-.22-11.29-.22-25.23-.22S235.43,293.51,235.43,293.63Z"/><path class="cls-6" d="M286,303.4s0-.06,0-.17v-.49c0-.46,0-1.09,0-1.91,0-1.68,0-4.09-.05-7.09v-.11H286l2.78,0-.12.12c0-2.86,0-6.17,0-9.8l.14.15h-3.4v-.16c0-3,0-6.31,0-9.73V274h6.09l-.17.16c0-3.62,0-7.11,0-10.37l.16.15h-4.95v-.14c0-3.55,0-6.75,0-9.51v-.11h1.36l-.12.11c0-3.15,0-5.69,0-7.46,0-.85,0-1.52,0-2,0-.21,0-.38,0-.52a1,1,0,0,1,0-.17s0,.05,0,.17l0,.52c0,.48,0,1.15.05,2,0,1.77.07,4.31.13,7.46v.11h-1.35l.11-.12c0,2.76,0,6,0,9.51l-.14-.15h4.95v.16c0,3.26,0,6.75,0,10.37v.17h-6.08l.16-.17c0,3.42,0,6.7,0,9.73l-.15-.16h3.4v.15c0,3.63,0,6.94,0,9.8v.13h-.13l-2.78,0,.11-.1c0,3,0,5.41,0,7.09,0,.82,0,1.45,0,1.91,0,.2,0,.37,0,.49S286,303.4,286,303.4Z"/><path class="cls-9" d="M304.49,159.43A20.79,20.79,0,1,1,283,139.38,20.8,20.8,0,0,1,304.49,159.43Z"/><g class="cls-10"><path class="cls-4" d="M283,139.38a20.8,20.8,0,0,0-20.05,21.51s14.63.14,17.93-5.86S283,139.38,283,139.38Z"/></g><path class="cls-9" d="M299.16,159.29a15.8,15.8,0,1,1-16.34-15.24A15.8,15.8,0,0,1,299.16,159.29Z"/><g class="cls-11"><path d="M299.16,159.29a15.8,15.8,0,1,1-16.34-15.24A15.8,15.8,0,0,1,299.16,159.29Z"/></g><path class="cls-9" d="M299.63,159.93a15.59,15.59,0,1,1-16.12-15A15.59,15.59,0,0,1,299.63,159.93Z"/><g class="cls-11"><path class="cls-4" d="M299.63,159.93a15.59,15.59,0,1,1-16.12-15A15.59,15.59,0,0,1,299.63,159.93Z"/></g><path class="cls-9" d="M284.62,159.1l-.13-4h0a8,8,0,0,1,2.14.47,6.45,6.45,0,0,1,1,.6l0-.13.56-1.46.13-.33-.74-.72-.33.16a7.58,7.58,0,0,0-2.92-.73l-.08-2.19-.7-.53,0,.55-.94,0,.08,2.24c-3.07.4-4.47,2.21-4.4,4.22.1,2.75,2.47,3.38,4.68,3.84l.14,4a7.59,7.59,0,0,1-4-1.37l-.82,2a8.68,8.68,0,0,0,4.9,1.47l0,1.65-.77,0,.79.49,1.62,0-.07-2.22c3.09-.42,4.51-2.21,4.44-4.23C289.25,160.17,286.84,159.56,284.62,159.1Zm-1.63-.35c-1.16-.3-2-.7-2.05-1.65s.53-1.6,1.93-1.87Zm1.5-3.64Zm.34,9.88-.12-3.5c1.2.3,2.08.72,2.11,1.69S286.26,164.72,284.83,165Z"/><g class="cls-8"><path d="M284.62,159.1l-.13-4h0a8,8,0,0,1,2.14.47,6.45,6.45,0,0,1,1,.6l0-.13.56-1.46.13-.33-.74-.72-.33.16a7.58,7.58,0,0,0-2.92-.73l-.08-2.19-.7-.53,0,.55-.94,0,.08,2.24c-3.07.4-4.47,2.21-4.4,4.22.1,2.75,2.47,3.38,4.68,3.84l.14,4a7.59,7.59,0,0,1-4-1.37l-.82,2a8.68,8.68,0,0,0,4.9,1.47l0,1.65-.77,0,.79.49,1.62,0-.07-2.22c3.09-.42,4.51-2.21,4.44-4.23C289.25,160.17,286.84,159.56,284.62,159.1Zm-1.63-.35c-1.16-.3-2-.7-2.05-1.65s.53-1.6,1.93-1.87Zm1.5-3.64Zm.34,9.88-.12-3.5c1.2.3,2.08.72,2.11,1.69S286.26,164.72,284.83,165Z"/></g><path class="cls-9" d="M284.22,166.62l.07,2.22-1.62,0-.07-2.19a8.68,8.68,0,0,1-4.9-1.47l.82-2a7.62,7.62,0,0,0,4,1.37l-.13-3.95c-2.22-.46-4.59-1.09-4.69-3.83-.07-2,1.33-3.83,4.4-4.23l-.08-2.24,1.62,0,.08,2.19a8.4,8.4,0,0,1,4,1.07l-.74,2a8.19,8.19,0,0,0-3.23-1l.14,4c2.21.46,4.62,1.07,4.72,3.81C288.73,164.41,287.31,166.2,284.22,166.62Zm-1.92-8.39-.12-3.52c-1.4.27-2,1-1.93,1.87S281.14,157.93,282.3,158.23Zm3.84,4.43c0-1-.92-1.39-2.12-1.68l.12,3.49C285.58,164.2,286.17,163.51,286.14,162.66Z"/><path class="cls-6" d="M284.32,176.22l.12,0,.38,0,.61-.06a4.42,4.42,0,0,0,.82-.11l1-.2a3.31,3.31,0,0,0,.58-.15l.62-.18c.21-.07.44-.12.65-.21l.69-.28c.23-.1.47-.19.71-.31l.73-.38a16.33,16.33,0,0,0,3-2.09l.72-.7.37-.36c.11-.13.22-.27.34-.4s.46-.53.68-.82.41-.6.63-.9l.16-.23c0-.08.09-.16.13-.24l.28-.5.28-.49c.1-.17.16-.35.25-.53.15-.35.32-.71.46-1.08s.25-.75.37-1.14a16.61,16.61,0,0,0,.62-4.92,17,17,0,0,0-1-4.88l-.45-1.11c-.17-.36-.36-.7-.54-1a5.05,5.05,0,0,0-.28-.51l-.31-.48-.32-.47-.15-.23-.18-.22-.68-.85c-.24-.28-.5-.52-.74-.77l-.37-.38c-.12-.12-.26-.22-.39-.33l-.76-.65a17.08,17.08,0,0,0-3.15-1.88l-.75-.33c-.24-.1-.5-.17-.74-.25l-.7-.23c-.22-.08-.45-.11-.67-.17l-.63-.14c-.2,0-.39-.09-.58-.11l-1-.13a6.43,6.43,0,0,0-.83-.05l-.61,0h.61a6.32,6.32,0,0,1,.84,0l1,.12a4.28,4.28,0,0,1,.59.1l.63.14a6,6,0,0,1,.68.16l.71.22c.24.09.49.15.74.26l.76.32a16.81,16.81,0,0,1,3.17,1.87l.78.66.39.33.37.38c.25.25.51.5.75.77l.7.86.17.22.16.24.32.47.32.49c.11.15.18.34.28.51.18.34.38.69.55,1.05l.45,1.12a15.63,15.63,0,0,1,.35,9.9c-.13.38-.25.77-.38,1.15s-.32.72-.47,1.08a4.3,4.3,0,0,1-.25.53l-.28.5-.28.5-.14.25-.16.23-.64.9c-.22.29-.46.56-.69.83l-.34.4c-.12.13-.25.24-.37.36l-.73.71a16.55,16.55,0,0,1-3,2.09l-.73.38c-.24.12-.49.2-.73.3l-.68.27a5.75,5.75,0,0,1-.67.21l-.62.18a4.51,4.51,0,0,1-.58.15l-1,.18a5.63,5.63,0,0,1-.83.1l-.61,0-.38,0Z"/><path class="cls-4" d="M266.36,170.53a.9.9,0,0,1-.1-.16l-.27-.47a8.13,8.13,0,0,1-.4-.75c-.14-.3-.31-.64-.46-1l-.25-.61c-.08-.21-.15-.44-.23-.67-.17-.46-.3-1-.45-1.5a22.88,22.88,0,0,1-.58-3.55,22.45,22.45,0,0,1,.05-3.6c.06-.55.12-1.07.22-1.55,0-.25.08-.48.13-.7s.1-.44.15-.64c.09-.41.22-.77.31-1.09a8,8,0,0,1,.28-.8l.19-.5a1.47,1.47,0,0,1,.08-.17,1.35,1.35,0,0,1,0,.18l-.17.51c-.07.22-.16.49-.25.81s-.2.68-.28,1.09c0,.2-.09.41-.14.63s-.08.46-.13.7c-.09.48-.14,1-.2,1.54a24.86,24.86,0,0,0,0,3.58,23.76,23.76,0,0,0,.57,3.52c.14.53.27,1,.43,1.5.08.23.14.46.22.67l.24.61c.14.39.31.73.44,1s.26.56.37.76l.24.48A.74.74,0,0,1,266.36,170.53Z"/><path class="cls-4" d="M279.11,158.39a1.33,1.33,0,0,1-.47-.44,2.44,2.44,0,0,1,0-3,1.33,1.33,0,0,1,.47-.44s-.17.18-.38.51a2.54,2.54,0,0,0-.44,1.41,2.65,2.65,0,0,0,.43,1.42C278.94,158.21,279.13,158.37,279.11,158.39Z"/><path class="cls-4" d="M282.43,152.22c-.05,0-.09-.29-.1-.65a1.37,1.37,0,0,1,.05-.65,1.46,1.46,0,0,1,.1.65A1.58,1.58,0,0,1,282.43,152.22Z"/><path class="cls-4" d="M284.23,143.59h-.51a5.44,5.44,0,0,0-.59,0,7.29,7.29,0,0,0-.79,0c-.29,0-.61,0-.95.07s-.7.09-1.08.15a16.5,16.5,0,0,0-2.42.61,17.07,17.07,0,0,0-2.31,1c-.33.18-.66.35-.95.53s-.56.35-.8.52-.45.32-.64.46-.34.26-.47.36a2.45,2.45,0,0,1-.4.31,2.71,2.71,0,0,1,.36-.35,4,4,0,0,1,.46-.39,7.86,7.86,0,0,1,.63-.48c.24-.17.5-.36.79-.53s.62-.37,1-.56a18,18,0,0,1,2.32-1,15.56,15.56,0,0,1,2.45-.6c.38-.06.75-.12,1.09-.14a8.24,8.24,0,0,1,1,0c.29,0,.56,0,.79,0a5,5,0,0,1,.6,0Z"/><path class="cls-4" d="M286.93,179.77l-.37.12c-.23.06-.58.14-1,.21a15.22,15.22,0,0,1-6.84-.46l-1-.35a1.65,1.65,0,0,1-.34-.17l.36.11,1,.3a16.88,16.88,0,0,0,3.37.58,17.11,17.11,0,0,0,3.42-.12l1-.16A1.74,1.74,0,0,1,286.93,179.77Z"/><path class="cls-6" d="M216.57,303.13l-92.7-.42a20.19,20.19,0,0,1-20.1-20.28l1-232.4A20.2,20.2,0,0,1,125,29.92l92.7.43a20.2,20.2,0,0,1,20.1,20.28l-1,232.4A20.19,20.19,0,0,1,216.57,303.13Z"/><path class="cls-12" d="M217.61,38.37l-18-.08-52.49-.24-6.32,0-15.73-.08A14.14,14.14,0,0,0,110.89,52l-1,226.83A14.15,14.15,0,0,0,124,293.07l92.52.42a14.13,14.13,0,0,0,14.2-14.08l1-226.84A14.14,14.14,0,0,0,217.61,38.37Z"/><path class="cls-6" d="M218.29,59a1.16,1.16,0,1,1-1.15-1.16A1.15,1.15,0,0,1,218.29,59Z"/><path class="cls-6" d="M218.28,63.15A1.16,1.16,0,1,1,217.12,62,1.16,1.16,0,0,1,218.28,63.15Z"/><path class="cls-6" d="M218.26,67.32a1.16,1.16,0,0,1-1.16,1.15A1.15,1.15,0,0,1,216,67.31a1.16,1.16,0,1,1,2.31,0Z"/><rect class="cls-2" x="126.7" y="98.52" width="98.61" height="62.56" rx="2.94"/><rect class="cls-3" x="123.98" y="94.46" width="98.61" height="62.56" rx="2.94"/><rect class="cls-9" x="120.86" y="91.08" width="98.61" height="62.56" rx="2.94"/><path class="cls-4" d="M137.1,105.37c0,.8-.64,1.26-1.86,1.26h-2.39V102h2.26c1.16,0,1.75.49,1.75,1.21a1.11,1.11,0,0,1-.61,1A1.13,1.13,0,0,1,137.1,105.37Zm-3.19-2.56v1.09H135c.52,0,.81-.18.81-.55s-.29-.54-.81-.54Zm2.11,2.45c0-.39-.3-.58-.86-.58h-1.25v1.15h1.25C135.72,105.83,136,105.65,136,105.26Z"/><path class="cls-4" d="M141,105.64H138.8l-.41,1H137.3l2.06-4.63h1.06l2.07,4.63h-1.13Zm-.33-.81-.74-1.77-.73,1.77Z"/><path class="cls-4" d="M147.21,102v4.63h-.88l-2.3-2.81v2.81H143V102h.88l2.3,2.81V102Z"/><path class="cls-4" d="M150,104.81l-.62.65v1.17h-1.06V102h1.06v2.17l2-2.17h1.19l-1.92,2.07,2,2.56h-1.25Z"/><path class="cls-4" d="M136.23,124.62h-.85v1.12h-.44v-1.12h-2.4v-.32l2.26-2.81h.48l-2.17,2.74H135v-1h.43v1h.85Z"/><path class="cls-4" d="M139.35,124.52c0,.71-.52,1.25-1.54,1.25a2.22,2.22,0,0,1-1.53-.54l.21-.35a1.83,1.83,0,0,0,1.32.49c.7,0,1.09-.33,1.09-.85s-.36-.85-1.15-.85h-.3v-.32l1.18-1.47h-2.18v-.39h2.73v.31l-1.2,1.51C138.89,123.36,139.35,123.84,139.35,124.52Z"/><path class="cls-4" d="M142.78,124.49c0,.72-.5,1.28-1.54,1.28a2.21,2.21,0,0,1-1.52-.54l.21-.35a1.82,1.82,0,0,0,1.31.49c.72,0,1.1-.35,1.1-.87s-.34-.88-1.42-.88H140l.22-2.13h2.32v.39h-1.94l-.15,1.35H141C142.3,123.23,142.78,123.73,142.78,124.49Z"/><path class="cls-4" d="M146.53,124.47a1.33,1.33,0,0,1-1.45,1.3c-1.13,0-1.74-.78-1.74-2.12s.79-2.2,1.94-2.2a2,2,0,0,1,1,.23l-.18.35a1.55,1.55,0,0,0-.83-.2c-.91,0-1.5.59-1.5,1.75,0,.09,0,.21,0,.34a1.35,1.35,0,0,1,1.3-.73A1.29,1.29,0,0,1,146.53,124.47Zm-.43,0c0-.56-.41-.92-1.07-.92a1,1,0,0,0-1.09.93c0,.47.39.91,1.12.91A.93.93,0,0,0,146.1,124.48Z"/><path class="cls-4" d="M155.71,125.74l-1-1.34-1,1.34h-.49l1.27-1.64-1.21-1.56h.49l1,1.25,1-1.25h.47l-1.2,1.56,1.27,1.64Z"/><path class="cls-4" d="M159,125.74l-1-1.34-1,1.34h-.49l1.27-1.64-1.2-1.56H157l1,1.25,1-1.25h.47l-1.2,1.56,1.28,1.64Z"/><path class="cls-4" d="M162.19,125.74l-1-1.34-1,1.34h-.48l1.26-1.64-1.2-1.56h.48l1,1.25,1-1.25h.47l-1.2,1.56,1.28,1.64Z"/><path class="cls-4" d="M165.44,125.74l-1-1.34-1,1.34h-.48l1.26-1.64-1.2-1.56h.48l1,1.25,1-1.25h.48l-1.21,1.56,1.28,1.64Z"/><path class="cls-4" d="M176.63,125.74l-1-1.34-1,1.34h-.48l1.26-1.64-1.2-1.56h.49l1,1.25,1-1.25h.48l-1.21,1.56,1.28,1.64Z"/><path class="cls-4" d="M179.87,125.74l-1-1.34-1,1.34h-.49l1.26-1.64-1.2-1.56h.49l1,1.25.95-1.25h.48l-1.2,1.56,1.27,1.64Z"/><path class="cls-4" d="M183.11,125.74l-1-1.34-1,1.34h-.49l1.26-1.64-1.2-1.56h.49l1,1.25,1-1.25h.47l-1.2,1.56,1.27,1.64Z"/><path class="cls-4" d="M186.35,125.74l-1-1.34-1,1.34h-.49l1.27-1.64-1.21-1.56h.49l1,1.25,1-1.25h.47l-1.2,1.56,1.27,1.64Z"/><path class="cls-4" d="M196.4,121.49v4.25H196v-3.86h-1v-.39Z"/><path class="cls-4" d="M200.23,124.52c0,.71-.52,1.25-1.54,1.25a2.24,2.24,0,0,1-1.54-.54l.22-.35a1.83,1.83,0,0,0,1.32.49c.7,0,1.09-.33,1.09-.85s-.36-.85-1.15-.85h-.3v-.32l1.17-1.47h-2.17v-.39h2.73v.31l-1.2,1.51C199.77,123.36,200.23,123.84,200.23,124.52Z"/><path class="cls-4" d="M204.45,124.62h-.85v1.12h-.44v-1.12h-2.39v-.32l2.25-2.81h.48l-2.17,2.74h1.85v-1h.42v1h.85Z"/><path class="cls-4" d="M207.73,125.35v.39h-3v-.31l1.76-1.73c.48-.48.58-.76.58-1,0-.5-.35-.8-1-.8a1.45,1.45,0,0,0-1.16.47l-.31-.26a1.92,1.92,0,0,1,1.51-.61c.86,0,1.4.44,1.4,1.15a1.75,1.75,0,0,1-.69,1.33l-1.45,1.42Z"/><path class="cls-4" d="M130.36,134.56a1,1,0,0,1,1.1-1.05,1,1,0,0,1,.83.36l-.3.27a.65.65,0,0,0-.51-.23.65.65,0,1,0,0,1.29A.63.63,0,0,0,132,135l.3.28a1,1,0,0,1-.83.36A1,1,0,0,1,130.36,134.56Z"/><path class="cls-4" d="M133.91,135.13H133l-.18.44h-.48l.9-2h.46l.91,2h-.49Zm-.15-.35-.32-.78-.32.78Z"/><path class="cls-4" d="M136.09,135.57l-.39-.57h-.44v.57h-.47v-2h.88c.54,0,.88.28.88.74a.67.67,0,0,1-.41.64l.45.65Zm-.44-1.65h-.39v.71h.39c.28,0,.43-.13.43-.35S135.93,133.92,135.65,133.92Z"/><path class="cls-4" d="M136.77,135.37l.16-.35a1.21,1.21,0,0,0,.67.21c.27,0,.39-.1.39-.22,0-.38-1.18-.12-1.18-.87,0-.35.28-.63.85-.63a1.36,1.36,0,0,1,.71.18l-.15.35a1.23,1.23,0,0,0-.56-.16c-.28,0-.38.11-.38.24,0,.37,1.17.11,1.17.86,0,.33-.28.62-.86.62A1.42,1.42,0,0,1,136.77,135.37Z"/><path class="cls-4" d="M141.46,133.54v2H141v-.83h-.92v.83h-.47v-2h.47v.8H141v-.8Z"/><path class="cls-4" d="M141.82,134.56a1.11,1.11,0,1,1,1.11,1A1,1,0,0,1,141.82,134.56Zm1.74,0a.64.64,0,1,0-.63.64A.61.61,0,0,0,143.56,134.56Z"/><path class="cls-4" d="M144.39,133.54h.47v1.65h1v.38h-1.49Z"/><path class="cls-4" d="M146.14,133.54h.93a1,1,0,1,1,0,2h-.93Zm.9,1.64a.63.63,0,1,0,0-1.25h-.43v1.25Z"/><path class="cls-4" d="M150.11,135.19v.38h-1.57v-2h1.53v.38H149v.44H150v.36H149v.47Z"/><path class="cls-4" d="M151.78,135.57l-.39-.57H151v.57h-.47v-2h.87c.55,0,.88.28.88.74a.67.67,0,0,1-.41.64l.45.65Zm-.44-1.65H151v.71h.38c.29,0,.43-.13.43-.35S151.63,133.92,151.34,133.92Z"/><rect class="cls-4" x="129.89" y="140.61" width="30.08" height="2.6" rx="1.09"/><rect class="cls-4" x="192.98" y="140.61" width="16.71" height="2.6" rx="1.09"/><g class="cls-11"><path class="cls-4" d="M216.2,91.08H124.12a3.26,3.26,0,0,0-3.26,3.27v16.52c5.82,4,13.8,4.77,20.89,3.28,8.36-1.74,15.93-6,23.71-9.52s16.34-6.31,24.76-4.87c7.94,1.36,14.71,6.31,21.88,10a43.5,43.5,0,0,0,7.37,3V94.35A3.26,3.26,0,0,0,216.2,91.08Z"/></g><rect class="cls-9" x="122.92" y="178.02" width="25.6" height="25.6" rx="6.01"/><path class="cls-4" d="M138.24,194.73h-5.59a.33.33,0,0,1-.32-.25l-2.07-8.23h-1.94a.33.33,0,0,1,0-.66h2.2a.33.33,0,0,1,.32.25l2.07,8.23h5.33a.33.33,0,1,1,0,.66Z"/><circle class="cls-9" cx="133.71" cy="196.31" r="1.05"/><path class="cls-4" d="M133.71,197.69a1.38,1.38,0,1,1,1.38-1.38A1.38,1.38,0,0,1,133.71,197.69Zm0-2.09a.72.72,0,1,0,.72.71A.71.71,0,0,0,133.71,195.6Z"/><circle class="cls-9" cx="139.53" cy="196.31" r="1.05"/><path class="cls-4" d="M139.53,197.69a1.38,1.38,0,1,1,1.38-1.38A1.38,1.38,0,0,1,139.53,197.69Zm0-2.09a.72.72,0,1,0,0,1.43.72.72,0,1,0,0-1.43Z"/><path class="cls-4" d="M140.43,193.21h-8a.33.33,0,0,1,0-.66h7.69l.88-4.93H131a.33.33,0,0,1,0-.66s1.17,0,2.73,0h7.71a.34.34,0,0,1,.26.12.32.32,0,0,1,.07.27l-1,5.59A.33.33,0,0,1,140.43,193.21Z"/><rect class="cls-3" x="157.01" y="182.51" width="51.93" height="6.18" rx="2.58"/><rect class="cls-3" x="157.01" y="194.66" width="26.25" height="6.18" rx="2.58"/><path class="cls-3" d="M230.52,168.37c0,.1-27,.18-60.35.18s-60.36-.08-60.36-.18,27-.17,60.36-.17S230.52,168.28,230.52,168.37Z"/><rect class="cls-9" x="131.44" y="213.88" width="78.72" height="26.55" rx="11.09"/><path class="cls-4" d="M169.25,225.89c0,1.34-1,2.17-2.6,2.17h-1v1.53H164v-5.86h2.68C168.25,223.73,169.25,224.55,169.25,225.89Zm-1.67,0c0-.54-.34-.86-1-.86h-.92v1.72h.92C167.24,226.75,167.58,226.43,167.58,225.89Z"/><path class="cls-4" d="M173.69,228.45h-2.48l-.46,1.14h-1.69l2.59-5.86h1.63l2.6,5.86h-1.73Zm-.48-1.22-.76-1.88-.75,1.88Z"/><path class="cls-4" d="M179.12,227.49v2.1h-1.66v-2.13l-2.23-3.73H177l1.39,2.32,1.39-2.32h1.6Z"/><circle class="cls-9" cx="124.48" cy="65.01" r="5.11" transform="translate(32.53 171.16) rotate(-76.67)"/><rect class="cls-3" x="151.02" y="62.39" width="38.28" height="4.48" rx="1.87"/><rect class="cls-6" x="135.61" y="248.08" width="78.14" height="5.22"/><path class="cls-12" d="M139.31,250.69c.68.23,9.83.23,9.83,18.3s-.45,40.5,9.16,41.18,60.17,0,60.17,0V264.81a13.74,13.74,0,0,0-13.67-13.74Z"/><path class="cls-6" d="M139.31,250.69l38,.11,19.29.07,5.28,0a29.72,29.72,0,0,1,5.47.27,13.75,13.75,0,0,1,5.2,2.15,14,14,0,0,1,4,4.18,13.83,13.83,0,0,1,2,5.58,25.5,25.5,0,0,1,.12,3v15.5c0,8.46,0,17.22,0,26.19v2.56h-.18c-17.68.21-34.5.37-49.78.25-1.91,0-3.8-.05-5.66-.09s-3.69,0-5.52-.29a6.24,6.24,0,0,1-2.48-1.17,9.18,9.18,0,0,1-1.78-2,18.58,18.58,0,0,1-2-4.79,53.18,53.18,0,0,1-1.63-9.69c-.28-3.14-.4-6.17-.47-9.05-.15-5.77,0-11-.1-15.55a27.94,27.94,0,0,0-2.21-11.4,12.39,12.39,0,0,0-2.44-3.45,9.45,9.45,0,0,0-2.58-1.72,12.43,12.43,0,0,0-2.47-.7l.64.1a9.22,9.22,0,0,1,1.86.53,9.43,9.43,0,0,1,2.62,1.71,12.46,12.46,0,0,1,2.5,3.47A28,28,0,0,1,149.21,268c.08,4.58,0,9.79.15,15.55.08,2.88.21,5.9.5,9a53.1,53.1,0,0,0,1.63,9.64,18.51,18.51,0,0,0,2,4.7,8.84,8.84,0,0,0,1.72,1.94,5.84,5.84,0,0,0,2.35,1.1,54.12,54.12,0,0,0,5.47.28c1.86,0,3.74.07,5.65.09,15.28.1,32.09-.07,49.78-.28l-.18.17V281.6q0-6.36,0-12.46v-3a24.27,24.27,0,0,0-.11-3,13.55,13.55,0,0,0-10.9-11.66,30.48,30.48,0,0,0-5.39-.27l-5.26,0L177.45,251Z"/><path class="cls-3" d="M158.53,310.17s7.91,0,9.6-11.66c2-13.91,0-26.09,10.76-26.55s39.58,0,39.58,0v38.21Z"/><path class="cls-12" d="M177.54,272.1s8.67-1.05,8.67,13.36.23,24,9.84,25,68.64,0,68.64,0-9.38-4.42-10.07-17.47-3.43-21-12.81-21.25S177.54,272.1,177.54,272.1Z"/><path class="cls-6" d="M177.54,272.1l.58,0,1.71,0,6.57-.1,24.19-.26,16.73-.12h9.32c1.61,0,3.23,0,4.88.05a13.82,13.82,0,0,1,5,.95,10.09,10.09,0,0,1,4,3.23,16.66,16.66,0,0,1,2.37,4.73,46.85,46.85,0,0,1,1.81,10.72c.06.92.11,1.85.21,2.76l.14,1.38.25,1.37.13.69.19.67.39,1.35a24.55,24.55,0,0,0,1.08,2.6,18.84,18.84,0,0,0,7.69,8.27l.6.33h-.67l-1.64,0c-15.84.25-30.93.43-44.66.42-6.86,0-13.39,0-19.49-.29a27.66,27.66,0,0,1-4.49-.48,9,9,0,0,1-3.89-2A9.73,9.73,0,0,1,188.1,305a18.32,18.32,0,0,1-1.15-3.84,47.55,47.55,0,0,1-.74-7.38c-.09-2.34-.1-4.54-.1-6.6,0-1,0-2,0-3,0-.48,0-1-.07-1.41s-.11-.9-.17-1.33l-.08-.65-.14-.62-.27-1.21-.38-1.11-.18-.53-.25-.49a8.33,8.33,0,0,0-2.27-3,6.76,6.76,0,0,0-2.44-1.35,6.56,6.56,0,0,0-1.69-.31h-.59l.14,0h.45a6.43,6.43,0,0,1,1.71.28,6.66,6.66,0,0,1,2.49,1.34,8.43,8.43,0,0,1,2.33,3.06c1.36,2.62,1.67,6.28,1.65,10.39,0,2.06,0,4.26.12,6.59a49.37,49.37,0,0,0,.77,7.34,18,18,0,0,0,1.14,3.78,9.4,9.4,0,0,0,2.36,3.32,8.68,8.68,0,0,0,3.77,1.89,26.82,26.82,0,0,0,4.44.47c6.1.24,12.62.25,19.48.26,13.73,0,28.82-.2,44.66-.46l1.63,0-.07.34a19.2,19.2,0,0,1-7.86-8.43,25.5,25.5,0,0,1-1.1-2.65l-.39-1.37-.19-.68-.13-.7-.26-1.39-.14-1.4c-.1-.93-.15-1.85-.21-2.77a46.41,46.41,0,0,0-1.78-10.64,16.35,16.35,0,0,0-2.32-4.63,9.74,9.74,0,0,0-3.88-3.13,13.46,13.46,0,0,0-4.83-.93c-1.65,0-3.28-.05-4.88-.06h-9.32l-16.73.07-24.19.15-6.57,0h-2.29Z"/><path class="cls-6" d="M179.82,272.08s-.69,0-1.91.14a8.24,8.24,0,0,0-4.6,2.24,12.94,12.94,0,0,0-3.42,6.8,57.81,57.81,0,0,0-.8,9.48,47.45,47.45,0,0,1-1.11,9.52,23.15,23.15,0,0,1-1.41,3.95,14.9,14.9,0,0,1-1.87,3.15,7.78,7.78,0,0,1-2.32,1.95,8,8,0,0,1-2.15.75,9.26,9.26,0,0,1-1.43.13,1.91,1.91,0,0,1-.5,0,2.75,2.75,0,0,1,.49-.05,10.84,10.84,0,0,0,1.41-.2,8.4,8.4,0,0,0,2.09-.78,7.85,7.85,0,0,0,2.21-1.94,14.61,14.61,0,0,0,1.8-3.11,23.29,23.29,0,0,0,1.36-3.91,47.38,47.38,0,0,0,1.07-9.45,56.63,56.63,0,0,1,.84-9.54,13.13,13.13,0,0,1,3.56-6.91,8.19,8.19,0,0,1,4.76-2.2,6.6,6.6,0,0,1,.83-.06h.6A2.8,2.8,0,0,1,179.82,272.08Z"/><path class="cls-3" d="M208.61,261.16c0,.1-11.08.18-24.75.18s-24.77-.08-24.77-.18,11.09-.18,24.77-.18S208.61,261.06,208.61,261.16Z"/><path class="cls-3" d="M209.64,268.53c0,.1-10.72.18-23.94.18s-23.94-.08-23.94-.18,10.71-.18,23.94-.18S209.64,268.43,209.64,268.53Z"/><path class="cls-3" d="M243.4,282.85c0,.1-11.08.18-24.76.18s-24.76-.08-24.76-.18,11.09-.18,24.76-.18S243.4,282.75,243.4,282.85Z"/><path class="cls-3" d="M244,291.45c0,.09-10.17.17-22.72.17s-22.71-.08-22.71-.17,10.17-.18,22.71-.18S244,291.35,244,291.45Z"/><rect class="cls-4" x="195.66" y="99.75" width="9.13" height="9.13" rx="2.16"/><path class="cls-4" d="M34,89.73l-4.52-.55a17.24,17.24,0,0,1-10.1,2.91A17.36,17.36,0,1,1,37.09,73.23,17.22,17.22,0,0,1,33.9,84.85h0Z"/><path class="cls-6" d="M34,89.73s0-.12,0-.33,0-.54,0-1c0-.83,0-2-.07-3.61l.1,0h0a.05.05,0,0,1-.08,0,.08.08,0,0,1,0-.08,17.26,17.26,0,0,0,3-7.73,17.56,17.56,0,0,0-.15-5.48,17.2,17.2,0,0,0-2.24-5.8,17.67,17.67,0,0,0-4.69-5A16.8,16.8,0,0,0,23,57.85a17.53,17.53,0,0,0-7.87.34A16.83,16.83,0,0,0,8,62.27a17.92,17.92,0,0,0-2.71,3.26c-.35.61-.71,1.21-1,1.84l-.41.95-.2.48-.15.49a17.52,17.52,0,0,0-.72,7.93,16.77,16.77,0,0,0,2.68,7,17.69,17.69,0,0,0,4.88,4.91,17.48,17.48,0,0,0,5.75,2.47l1.43.25c.47.07.95.08,1.4.12a15.62,15.62,0,0,0,2.66,0,17.23,17.23,0,0,0,7.81-2.77h.05l3.33.44.88.12.3,0-.28,0-.87-.09-3.38-.38h0A17.2,17.2,0,0,1,21.6,92.1a15,15,0,0,1-2.69.07c-.46,0-.94,0-1.42-.12L16,91.8a17.63,17.63,0,0,1-5.85-2.47,17.91,17.91,0,0,1-5-5,17,17,0,0,1-2.74-7.1,17.85,17.85,0,0,1,.71-8.07l.16-.5.2-.48.42-1c.3-.63.67-1.25,1-1.87A17.77,17.77,0,0,1,7.77,62a17.1,17.1,0,0,1,7.3-4.15,17.86,17.86,0,0,1,8-.34,17.18,17.18,0,0,1,6.91,3,17.88,17.88,0,0,1,4.74,5.11A17.29,17.29,0,0,1,37,71.56a17.61,17.61,0,0,1,.12,5.54A17.32,17.32,0,0,1,34,84.89l-.1-.09h0a.07.07,0,0,1,.09,0,.08.08,0,0,1,0,0c0,1.58,0,2.81,0,3.65,0,.4,0,.71,0,.93S34,89.73,34,89.73Z"/><polygon class="cls-9" points="12.13 75.8 14.31 73.47 18.78 77.19 27.02 68.69 29.19 70.87 18.61 81.54 12.13 75.8"/><path class="cls-13" d="M50.42,67.59a13.13,13.13,0,0,1,13.93-11.1l.68,0c7.29,1,10.54,7.68,9.38,14.94L71.87,97.22l-.12,5.33L54.4,104.12l.38-11.24s-7-1.6-6.53-8.64C48.45,80.84,49.45,73.88,50.42,67.59Z"/><path class="cls-14" d="M54.72,92.87a17.16,17.16,0,0,0,9.41-2s-2.45,5.08-9.42,3.93Z"/><path class="cls-6" d="M53.14,74.6a1,1,0,0,0,.9,1.08,1,1,0,0,0,1.1-.83,1,1,0,0,0-.9-1.08A1,1,0,0,0,53.14,74.6Z"/><path class="cls-6" d="M51.68,71.14c.11.14.92-.37,2-.29s1.83.68,2,.56,0-.3-.38-.58a2.74,2.74,0,0,0-1.56-.61,2.71,2.71,0,0,0-1.6.39C51.75,70.84,51.62,71.07,51.68,71.14Z"/><path class="cls-6" d="M63.27,75.56a1,1,0,0,0,.89,1.09,1,1,0,0,0,1.1-.83,1,1,0,0,0-.89-1.09A1,1,0,0,0,63.27,75.56Z"/><path class="cls-6" d="M62.28,72.11c.12.14.92-.37,2-.28s1.83.67,2,.55,0-.3-.37-.58a2.8,2.8,0,0,0-1.56-.6,2.61,2.61,0,0,0-1.6.39C62.36,71.82,62.23,72.05,62.28,72.11Z"/><path class="cls-6" d="M57.78,79.84a7.06,7.06,0,0,0-1.73-.45c-.28,0-.53-.12-.57-.31a1.43,1.43,0,0,1,.25-.81c.31-.64.63-1.32,1-2a35.58,35.58,0,0,0,2.23-5.36A36,36,0,0,0,56.27,76c-.33.72-.64,1.4-.93,2.06a1.58,1.58,0,0,0-.23,1.07.7.7,0,0,0,.43.44,2.41,2.41,0,0,0,.46.1A7.6,7.6,0,0,0,57.78,79.84Z"/><path class="cls-6" d="M60.9,80.82c-.17,0-.26,1.15-1.32,1.9s-2.31.54-2.33.71.26.25.79.3A3,3,0,0,0,60,83.21a2.53,2.53,0,0,0,1-1.61C61.09,81.12,61,80.82,60.9,80.82Z"/><path class="cls-6" d="M62.31,67.86c.09.3,1.18.24,2.43.48s2.26.67,2.45.42-.08-.41-.47-.73a4.15,4.15,0,0,0-1.78-.77,4,4,0,0,0-1.93.09C62.53,67.5,62.28,67.71,62.31,67.86Z"/><path class="cls-6" d="M52.3,68c.18.26.94.06,1.83.11s1.65.29,1.84,0,0-.37-.33-.63a2.6,2.6,0,0,0-1.46-.51,2.54,2.54,0,0,0-1.49.39C52.35,67.67,52.23,67.91,52.3,68Z"/><path class="cls-13" d="M72.78,78.24A1.91,1.91,0,0,1,75,76.55c1.31.22,2.71,1.07,2.43,3.77-.51,4.8-5.22,3.3-5.21,3.16S72.55,80.24,72.78,78.24Z"/><path class="cls-14" d="M73.42,81.79s.08.07.21.15a.89.89,0,0,0,.63.07,2.09,2.09,0,0,0,1.15-1.75A2.73,2.73,0,0,0,75.3,79a1,1,0,0,0-.56-.71.43.43,0,0,0-.52.18c-.08.13-.06.23-.08.23s-.1-.09,0-.28a.52.52,0,0,1,.22-.28.6.6,0,0,1,.48-.08,1.2,1.2,0,0,1,.79.84,2.78,2.78,0,0,1,.15,1.36,2.18,2.18,0,0,1-1.44,2,.92.92,0,0,1-.75-.21C73.42,81.91,73.4,81.8,73.42,81.79Z"/><path class="cls-6" d="M76.62,73.35c-.39,1.37-.25,3.66-1.48,3.35-2.44-.62-1.85,4.38-3,3.89s-2.17-1.91-2.24-5c-.09-3.91,1.48-6.72-.06-11.2a5.93,5.93,0,0,0-4.94-3.06,6,6,0,0,0-5.18,2.74c-.22-1.36-.88-3.41-2.09-4.07a3.51,3.51,0,0,0-3.88.32,2.86,2.86,0,0,0-.51,3.73,1.37,1.37,0,0,1-1.53-.55,2.3,2.3,0,0,0,.6,1.75,2.11,2.11,0,0,1-1.23-.86l.36,1.69c-2.06.06-4.07-1.93-4.64-3.7a9.19,9.19,0,0,1,1.3-7.79,8.47,8.47,0,0,1,7-4,6.52,6.52,0,0,1,6.28,4,9.11,9.11,0,0,1,7.58-.82,6.6,6.6,0,0,1,3.75,5.22,3.92,3.92,0,0,1,3.89.76l.26.23a5.85,5.85,0,0,1,1.7,5.4c-.15.79-.42,1.6-.58,2.22C77.49,69.41,76.62,73.35,76.62,73.35Z"/><path class="cls-7" d="M51.36,63.39s-.07,0-.17-.13a2.64,2.64,0,0,1-.4-.44,4.1,4.1,0,0,1-.81-2,3.93,3.93,0,0,1,1-3.08,4.2,4.2,0,0,1,3.67-1.38,4.73,4.73,0,0,1,1.94.76A6.27,6.27,0,0,1,58,58.39a7.66,7.66,0,0,1,1.71,5.1c0,.26,0,.46-.06.59a.53.53,0,0,1,0,.21,8.64,8.64,0,0,0-.28-3,7.52,7.52,0,0,0-1.48-2.83,5.37,5.37,0,0,0-3.25-2,4.05,4.05,0,0,0-3.5,1.3,3.8,3.8,0,0,0-.95,2.93,4.24,4.24,0,0,0,.72,2A7.86,7.86,0,0,0,51.36,63.39Z"/><path class="cls-7" d="M50.41,65.54l-.14-.23c-.09-.16-.22-.39-.38-.7a14.55,14.55,0,0,1-1.13-2.67,7.69,7.69,0,0,1-.31-2,5.68,5.68,0,0,1,.41-2.28,4.5,4.5,0,0,1,1.65-2,5.43,5.43,0,0,1,2.61-.86,6.51,6.51,0,0,1,2.72.43,8.46,8.46,0,0,1,2.22,1.27,6.66,6.66,0,0,1,2.43,3.52A4.85,4.85,0,0,1,60.35,63a4,4,0,0,1-.36.7c-.1.15-.16.23-.17.22a5.39,5.39,0,0,0,.45-.95,4.88,4.88,0,0,0,.08-2.82,6.58,6.58,0,0,0-2.41-3.41,7.3,7.3,0,0,0-4.81-1.64,5.22,5.22,0,0,0-2.5.82A4.32,4.32,0,0,0,49,57.74a5.61,5.61,0,0,0-.42,2.2,7.91,7.91,0,0,0,.29,2A16.49,16.49,0,0,0,50,64.58l.34.71A1.23,1.23,0,0,1,50.41,65.54Z"/><path class="cls-7" d="M74.93,70.24s.44-.36,1-1a7,7,0,0,0,1.38-6.62c-.26-.87-.56-1.36-.53-1.38a1.21,1.21,0,0,1,.23.33,5.9,5.9,0,0,1,.44,1,6.82,6.82,0,0,1-1.4,6.77,6.72,6.72,0,0,1-.81.74A1.42,1.42,0,0,1,74.93,70.24Z"/><path class="cls-7" d="M70.55,70.1s.24-.1.62-.36a3.41,3.41,0,0,0,1.21-1.46l.21-.46,0,.5c-.06.67-.13,1.45-.21,2.3l-.15-.1a6.24,6.24,0,0,0,2.63-6.32,9.45,9.45,0,0,0-.68-2,.73.73,0,0,1,.09.12c0,.08.13.21.21.37A5.91,5.91,0,0,1,75,64.17,6.31,6.31,0,0,1,75,66.49a6.12,6.12,0,0,1-1.09,2.62,6.4,6.4,0,0,1-1.63,1.58l-.18.12,0-.21c.09-.84.18-1.62.25-2.3l.15,0a3.39,3.39,0,0,1-1.31,1.47,2.33,2.33,0,0,1-.48.24C70.62,70.09,70.56,70.11,70.55,70.1Z"/><path class="cls-7" d="M69.22,60a4.56,4.56,0,0,0-1.11-1.39,4.09,4.09,0,0,0-1.73-.8,4.23,4.23,0,0,0-2.31.21,4.93,4.93,0,0,0-1.94,1.31,5.73,5.73,0,0,0-1,1.62,12.31,12.31,0,0,0-.53,1.72,1.81,1.81,0,0,1,0-.49A6,6,0,0,1,61,60.88a5.77,5.77,0,0,1,1-1.7,5,5,0,0,1,2-1.37,4.37,4.37,0,0,1,2.43-.2,4.08,4.08,0,0,1,1.78.88,3.33,3.33,0,0,1,.84,1q.1.21.15.33C69.22,59.94,69.23,60,69.22,60Z"/><path class="cls-7" d="M68.1,56.32a7.37,7.37,0,0,0-1.33-.51,4.83,4.83,0,0,0-3.3.47,6,6,0,0,0-2.33,2.43c-.42.77-.55,1.31-.59,1.3a1.51,1.51,0,0,1,.07-.38,6.74,6.74,0,0,1,.38-1,5.81,5.81,0,0,1,2.37-2.55,4.73,4.73,0,0,1,3.44-.42,3.94,3.94,0,0,1,1,.41A1.56,1.56,0,0,1,68.1,56.32Z"/><path class="cls-6" d="M52.65,282.93l.48,13.16S39.92,301,39.77,303.45l25.55,0,.09-20.54Z"/><path class="cls-3" d="M61,295a1.05,1.05,0,0,1,.73,1.19,1,1,0,0,1-1.18.73,1.11,1.11,0,0,1-.76-1.27,1.05,1.05,0,0,1,1.31-.62"/><path class="cls-6" d="M65.32,303.43l-.07-2.08-24.47.8s-1.14.5-1,1.3Z"/><path class="cls-4" d="M52.72,296c0,.13.63.19,1.24.59s.94.92,1.06.87-.07-.77-.83-1.24S52.69,295.85,52.72,296Z"/><path class="cls-4" d="M50,297.08c0,.12.51.33.94.86s.54,1.08.67,1.08.2-.72-.34-1.36S50,297,50,297.08Z"/><path class="cls-4" d="M48.52,300.28c.11,0,.29-.59,0-1.28s-.91-.95-1-.85.31.47.56,1S48.4,300.27,48.52,300.28Z"/><path class="cls-4" d="M52.94,293c.05.12.63-.06,1.33,0s1.26.27,1.32.16-.46-.55-1.29-.59S52.88,292.86,52.94,293Z"/><path class="cls-6" d="M82,284.14,83,300l-2.82,12.81a1.62,1.62,0,0,0,1.35,2h0a1.58,1.58,0,0,0,1.41-.48c2.34-2.43,10.88-11.41,10.74-12.57-.16-1.34,0-16.84,0-16.84Z"/><path class="cls-6" d="M81.52,314.81l12.1-14.12,0,.67a2.47,2.47,0,0,1-.51,1.62c-1,1.23-3.7,4.57-10.16,11.35a1.6,1.6,0,0,1-1.46.48Z"/><g class="cls-15"><path class="cls-4" d="M90.15,295.69a1,1,0,0,0-.22,1.3,1,1,0,0,0,1.29.23,1,1,0,0,0,.22-1.38,1,1,0,0,0-1.37-.09"/></g><path class="cls-4" d="M84.87,307.71a3.55,3.55,0,0,0-3.29-1.46s.18-.17.55-.24a2.5,2.5,0,0,1,1.44.2,2.57,2.57,0,0,1,1.11.93C84.88,307.46,84.91,307.69,84.87,307.71Z"/><path class="cls-4" d="M83.82,309.89a11.69,11.69,0,0,0-1.43-.63,14.58,14.58,0,0,0-1.57-.14,1.81,1.81,0,0,1,1.65-.2C83.42,309.16,83.91,309.84,83.82,309.89Z"/><path class="cls-4" d="M86.87,304.89a16.92,16.92,0,0,0-2.15-1.12,15,15,0,0,0-2.39-.45,4.45,4.45,0,0,1,4.54,1.57Z"/><path class="cls-4" d="M87,300c0,.1-.93-.23-2.07-.23s-2,.32-2.08.22a3.15,3.15,0,0,1,2.08-.57A3.11,3.11,0,0,1,87,300Z"/><path class="cls-4" d="M86.78,295.35a8.05,8.05,0,0,0-2.15-.29,7.74,7.74,0,0,0-2.09.62s.14-.24.49-.47a3.5,3.5,0,0,1,1.57-.5,3.46,3.46,0,0,1,1.62.26C86.61,295.14,86.81,295.32,86.78,295.35Z"/><path class="cls-4" d="M84.62,294.17a1.31,1.31,0,0,1-.05-.6A4.16,4.16,0,0,1,85,292a1.89,1.89,0,0,1,.75-.92.66.66,0,0,1,.75.12,1.11,1.11,0,0,1,.28.71,2.29,2.29,0,0,1-1.93,2.21,2.68,2.68,0,0,1-2.69-1.29.93.93,0,0,1-.07-.77.64.64,0,0,1,.66-.37,2.23,2.23,0,0,1,1.07.51,4.47,4.47,0,0,1,1.13,1.19,1.26,1.26,0,0,1,.27.54,7,7,0,0,0-1.54-1.53,2.14,2.14,0,0,0-1-.42.35.35,0,0,0-.36.2.67.67,0,0,0,.08.5,2.39,2.39,0,0,0,2.34,1.1,2,2,0,0,0,1.67-1.86.78.78,0,0,0-.18-.5.34.34,0,0,0-.41-.07,1.62,1.62,0,0,0-.65.76A6,6,0,0,0,84.62,294.17Z"/><path class="cls-6" d="M41.45,171.7a56.36,56.36,0,0,0-1.61,16.6C40,191.84,51.4,294.17,51.4,294.17l14.47-1.3-2.5-95.67.61.54S72.6,238,73.17,244.35c.51,5.72,7.39,51.67,7.39,51.67l14-.67-3.18-58.08-4.26-52.73-1.71-15.36Z"/><path class="cls-7" d="M66.15,189a3.21,3.21,0,0,1-.68.36,7.81,7.81,0,0,1-2,.66,4.12,4.12,0,0,1-1.48,0,3,3,0,0,1-1.54-.78,3.82,3.82,0,0,1-.9-1.67c-.17-.63-.27-1.28-.39-1.94-.45-2.67-.74-5.1-.9-6.86-.08-.88-.13-1.6-.16-2.09a3,3,0,0,1,0-.77,3.56,3.56,0,0,1,.13.76q.11.84.27,2.07c.22,1.76.55,4.17,1,6.83.23,1.31.38,2.65,1.18,3.45a3.36,3.36,0,0,0,2.76.79,9.12,9.12,0,0,0,2-.54A4.1,4.1,0,0,1,66.15,189Z"/><path class="cls-7" d="M61.59,176.37a.56.56,0,0,1,.34-.09,1.49,1.49,0,0,1,.89.31,1.61,1.61,0,0,1,.65,1.26,1.6,1.6,0,0,1-2.74,1,1.64,1.64,0,0,1-.28-1.39,1.48,1.48,0,0,1,.51-.8c.18-.14.31-.15.32-.14a1.83,1.83,0,0,0-.59,1,1.41,1.41,0,0,0,.28,1.14,1.31,1.31,0,0,0,2.19-.77,1.39,1.39,0,0,0-.49-1.06A1.8,1.8,0,0,0,61.59,176.37Z"/><path class="cls-7" d="M87,183.59a1.67,1.67,0,0,1-.55.07,11,11,0,0,1-1.51,0,14.75,14.75,0,0,1-4.82-1.24A14.55,14.55,0,0,1,76,179.63a9.74,9.74,0,0,1-1-1.12c-.22-.28-.33-.44-.31-.46s.55.57,1.49,1.4a16.5,16.5,0,0,0,4.11,2.65,16.77,16.77,0,0,0,4.71,1.31C86.18,183.56,87,183.53,87,183.59Z"/><path class="cls-7" d="M48,176.35a7.23,7.23,0,0,1-.88,1.63,18,18,0,0,1-2.87,3.4,18.5,18.5,0,0,1-3.6,2.61,6.53,6.53,0,0,1-1.69.75c0-.05.6-.36,1.56-1a23.32,23.32,0,0,0,3.5-2.65,24.34,24.34,0,0,0,2.91-3.29C47.55,176.93,47.91,176.33,48,176.35Z"/><path class="cls-13" d="M33.6,118.55c-2.15,6.28-1.91,5.74-5.94,24.49-.74,3.46.57,8.87,3.69,10.54s8.66-.17,10.52-3.18l3-28.3Z"/><path class="cls-9" d="M85.47,152.56l-.08-14.91.06-1.46,15.13-3.54s-3-9.78-5.7-20.3c-1.57-6.08-6.81-9.13-8.07-9.79h0l-.28-.13h0L72,96.26c-2.94,3.14-7.23,5.65-11.36,4.45a13,13,0,0,1-6-4.09L44.81,100h0a12.75,12.75,0,0,0-6.79,5.5c-2.05,3.63-8.62,20.3-8.73,20.67l12.16,1.09s-2.16,39.43-1.4,46.47c0,0,3,2,10.4,2.39,15.11.72,37.59-.36,37.59-.36-.35-2.27-.72-6.07-.93-8Z"/><path class="cls-6" d="M41.86,112.56c.06,0-.26,9.41-.72,21s-.89,21-1,21,.27-9.41.73-21S41.8,112.56,41.86,112.56Z"/><path class="cls-6" d="M83.81,115.19c-.11,0,.2,8.35.68,18.64s1,18.62,1.07,18.62-.19-8.35-.68-18.64S83.92,115.19,83.81,115.19Z"/><path class="cls-13" d="M100.65,139.75c-.49-3.7-.9-7-.9-7l-12.1,2.81.51,1.95L78.81,128l-1.48.13-4.71,4.9s4.1,8.67,6.49,12c3.11,4.39,8,11.09,14.68,10.53C100,155.11,101.53,146.39,100.65,139.75Z"/><path class="cls-14" d="M94.09,142a10.49,10.49,0,0,0-2.66-2.44,10.66,10.66,0,0,0-3.16-1.75c0,.1,1.34.91,2.94,2.07S94,142.05,94.09,142Z"/><path class="cls-13" d="M62.48,115.63l4.15-2.12,5.4,1.72,2.67,2.46L78.81,128l3.29,4.17-5.81,7.57-3.67-6.71s-3.12-1.36-4.37-3.33-1.81-3-1.81-3-1.8-.86-2.13-1.69a4.25,4.25,0,0,1-.32-1.48l.91-1.33a3.31,3.31,0,0,1,.28-1.7,1.65,1.65,0,0,1,.72-.57s-.27-1.12.15-1.52a13,13,0,0,1,2.49-1.14h0l-1.82-1S62.7,117.48,62.48,115.63Z"/><path class="cls-14" d="M68.65,119.39s-.64.07-1.4.23-1.35.4-1.37.35a3.19,3.19,0,0,1,1.34-.52A3.24,3.24,0,0,1,68.65,119.39Z"/><path class="cls-14" d="M67.4,121.71c0,.05-.54.05-1.2.15s-1.17.26-1.19.22a2.45,2.45,0,0,1,1.16-.39A2.62,2.62,0,0,1,67.4,121.71Z"/><path class="cls-14" d="M65.64,125.35s-.08-.24-.07-.53.05-.53.1-.53.08.24.07.53S65.69,125.35,65.64,125.35Z"/><path class="cls-14" d="M66.44,126.47a1.82,1.82,0,0,0-1.22-1.56s.13,0,.33,0a1.39,1.39,0,0,1,.94,1.2C66.5,126.35,66.46,126.47,66.44,126.47Z"/><path class="cls-14" d="M69.69,123.15s-.22-.44-.72-.71a2.74,2.74,0,0,0-1-.24s.11-.08.31-.09a1.38,1.38,0,0,1,.76.18,1.47,1.47,0,0,1,.56.55C69.7,123,69.71,123.15,69.69,123.15Z"/><path class="cls-14" d="M71.58,120.85a2.91,2.91,0,0,0-.66-.69,3.2,3.2,0,0,0-.91-.31s.11-.06.3-.06A1.37,1.37,0,0,1,71,120a1.44,1.44,0,0,1,.49.55C71.6,120.73,71.61,120.85,71.58,120.85Z"/><path class="cls-14" d="M72.85,119.73a3,3,0,0,1,0-.36,1.71,1.71,0,0,0-.3-.76,1.62,1.62,0,0,0-.65-.51c-.19-.09-.33-.12-.32-.15s.14,0,.37,0a1.46,1.46,0,0,1,1,1.38C72.93,119.6,72.87,119.73,72.85,119.73Z"/><path class="cls-14" d="M71.09,117c0,.06-.87.08-1.92.24a19,19,0,0,0-1.86.48,4.23,4.23,0,0,1,1.84-.66,8.13,8.13,0,0,1,1.37-.1A1.89,1.89,0,0,1,71.09,117Z"/><g class="cls-8"><path d="M59.25,140.39a7.46,7.46,0,0,0-1-3.45c-1.22-1.71-3.61-2.08-5.71-2s-4.28.52-6.25-.2l-5.9,17.51a8.79,8.79,0,0,0,5.33-3.88,9.49,9.49,0,0,1,1.95-2.81c1.25-1,3-.83,4.58-.84a18.5,18.5,0,0,0,4.9-.72,3.24,3.24,0,0,0,1.79-1A3.51,3.51,0,0,0,59.25,140.39Z"/></g><path class="cls-6" d="M44.07,119.89l1.83,19.49a2.72,2.72,0,0,0,1.21,2.24l11.81-.25a4.67,4.67,0,0,0,.9-3.31l-1.3-18.65c-.08-1.12-.5-1.93-1-1.94l-12.44-.29C44.43,117.16,43.94,118.51,44.07,119.89Z"/><path class="cls-13" d="M42.35,123.81a1.71,1.71,0,0,1,0-2.11,2.6,2.6,0,0,1,2-.9,5.71,5.71,0,0,1,2.22.51,14.93,14.93,0,0,1,2.5,1.32,2.41,2.41,0,0,1,1.22,1.5c.1.66-.63,1.39-1.2,1.05a2.81,2.81,0,0,1,1.58,2c.1.84-.35,1.27-1.16,1.49a1.25,1.25,0,0,1,.68,1.62,1.43,1.43,0,0,1-1.81.51,4.17,4.17,0,0,1-1.54-1.36,4.7,4.7,0,0,1,.21,3c-1.76-.65-3.5-2.61-3-4.47a2.52,2.52,0,0,1-.71-3A2.45,2.45,0,0,1,42,122.81"/><path class="cls-13" d="M42.15,122.11,42,130.44l-2.16,3.25L30,142.54s1.47,12,5.94,10.73,5.55-2.17,8.19-7c1.42-2.6,2.29-6.83,3.11-9.26.48-1.42.06-6,.06-6Z"/><path class="cls-14" d="M49.55,128.66a7.52,7.52,0,0,1-.75-.61,5.28,5.28,0,0,0-2-1.08,2.9,2.9,0,0,0-1.24,0,2.57,2.57,0,0,0-.91.43,3.11,3.11,0,0,0-.6.73.61.61,0,0,1,.08-.26,1.78,1.78,0,0,1,.44-.57,2.2,2.2,0,0,1,1-.5,2.81,2.81,0,0,1,1.32,0,4.8,4.8,0,0,1,2,1.17A3.47,3.47,0,0,1,49.55,128.66Z"/><path class="cls-14" d="M49.43,125.27a4.94,4.94,0,0,1-.92-.41c-.28-.14-.61-.31-1-.46a8.65,8.65,0,0,0-1.27-.36,3.6,3.6,0,0,0-1.3,0,2.32,2.32,0,0,0-1,.39,2.75,2.75,0,0,0-.65.74.67.67,0,0,1,.08-.27,1.71,1.71,0,0,1,.49-.58,2.35,2.35,0,0,1,1-.46,3.68,3.68,0,0,1,1.36,0,8.35,8.35,0,0,1,1.3.38,8.93,8.93,0,0,1,1,.51A6.68,6.68,0,0,1,49.43,125.27Z"/><path class="cls-14" d="M31,147.33a8,8,0,0,1-.13-3.1,9.49,9.49,0,0,1,1.17-3.15,15.53,15.53,0,0,1,2.62-3.21c1.07-1,2.16-1.93,3.14-2.77a29.64,29.64,0,0,0,2.5-2.36,13.92,13.92,0,0,0,1.45-1.82,3.37,3.37,0,0,0,.41-.75,7,7,0,0,0-.52.68,16.86,16.86,0,0,1-1.5,1.73c-.69.69-1.55,1.46-2.54,2.29s-2.09,1.72-3.17,2.77a15,15,0,0,0-2.65,3.29,9.52,9.52,0,0,0-1.14,3.26,6.49,6.49,0,0,0,.08,2.33,4.38,4.38,0,0,0,.18.61C31,147.27,31,147.34,31,147.33Z"/></svg>