<svg id="Layer_1" data-name="Layer 1" xmlns="http://www.w3.org/2000/svg" viewBox="0 0 360.79 315.32"><defs><style>.cls-1{fill:#f5f5f5;}.cls-2{fill:#e1e1e1;}.cls-3{fill:#ececec;}.cls-4{fill:#fafafa;}.cls-5{fill:#375a64;}.cls-6{fill:#ffbf9d;}.cls-7{fill:#1a2e35;}.cls-8{fill:#ff9a6c;}.cls-9{fill:#ff4f5b;}.cls-10{opacity:0.3;}.cls-11,.cls-13{fill:#fff;}.cls-12{opacity:0.4;}.cls-13{fill-rule:evenodd;}</style></defs><path class="cls-1" d="M281.79,286.4C269.71,278,267,262.3,267.45,248.22c.08-2.34-.18-4.82.94-6.88s3.73-3.48,5.83-2.49c1.75.83,2.51,2.86,3.48,4.54a13.8,13.8,0,0,0,5.51,5.26c1.5.78,3.35,1.25,4.83.44,2-1.12,2.27-3.92,2.25-6.26q0-6.54-.08-13.07a21.81,21.81,0,0,1,.7-6.94,7.26,7.26,0,0,1,4.56-4.9c2.22-.63,5,.66,5.44,2.94a20.17,20.17,0,0,1,.07,2.91,2.45,2.45,0,0,0,1.44,2.32A2.85,2.85,0,0,0,305,225a31,31,0,0,0,5.57-8.43,43.06,43.06,0,0,1,5.21-8.69c2.19-2.57,5.22-4.61,8.56-4.8s6.92,1.87,7.76,5.16-1.07,6.64-3.16,9.3a52.34,52.34,0,0,1-10.87,10.36,4.31,4.31,0,0,0-1.81,2c-.51,1.56,1,3.11,2.5,3.62,1.75.58,3.64.4,5.46.62s3.8,1,4.49,2.74c.95,2.39-1.05,4.89-3,6.53A44.63,44.63,0,0,1,312.46,251a15.15,15.15,0,0,0-4.91,2.39c-1.39,1.21-2.23,3.31-1.39,5s3,2.17,4.79,1.84a30.76,30.76,0,0,0,5.13-2c3.21-1.21,7.36-1,9.42,1.79a7.38,7.38,0,0,1,.78,6.54,17.08,17.08,0,0,1-3.54,5.77,44.94,44.94,0,0,1-19.19,13.49c-7.45,2.58-14.35,3.28-21.76.57"/><path class="cls-2" d="M281.61,296.84a102.94,102.94,0,0,1,3.81-19.26A209.23,209.23,0,0,1,293.74,255l2.48-5.8c.82-1.9,1.63-3.79,2.54-5.58a105.54,105.54,0,0,1,5.81-10c2-3.09,4-6,5.92-8.62s3.73-5.12,5.49-7.28a83.13,83.13,0,0,1,9-9.56c1.16-1,2.08-1.82,2.71-2.34l.72-.59a1.66,1.66,0,0,1,.26-.19l-.23.23-.69.61c-.62.55-1.52,1.34-2.65,2.4a86.08,86.08,0,0,0-8.93,9.64c-1.74,2.17-3.55,4.62-5.44,7.29s-3.89,5.54-5.88,8.63a103.92,103.92,0,0,0-5.76,10c-.9,1.79-1.71,3.66-2.53,5.56s-1.64,3.84-2.48,5.8a215.45,215.45,0,0,0-8.33,22.49,103.81,103.81,0,0,0-3.89,19.18"/><path class="cls-2" d="M298.88,243.63a5,5,0,0,1-.22-1c-.13-.64-.27-1.58-.44-2.75-.33-2.32-.68-5.55-1-9.11s-.76-6.78-1.13-9.1c-.18-1.16-.33-2.09-.45-2.74a4.67,4.67,0,0,1-.13-1,4.47,4.47,0,0,1,.29,1c.17.63.37,1.56.59,2.72.44,2.31.88,5.53,1.25,9.1s.68,6.7.92,9.13c.12,1.09.22,2,.3,2.76A4.36,4.36,0,0,1,298.88,243.63Z"/><path class="cls-2" d="M328.93,238a6.13,6.13,0,0,1-1.19.14c-.78.07-1.89.16-3.27.32-2.75.3-6.54.84-10.69,1.62s-7.88,1.67-10.56,2.38c-1.34.35-2.42.65-3.16.86a5.74,5.74,0,0,1-1.18.29,6,6,0,0,1,1.13-.45c.73-.26,1.8-.61,3.13-1,2.67-.79,6.4-1.71,10.56-2.5a105.47,105.47,0,0,1,10.74-1.51c1.39-.12,2.51-.16,3.29-.18A6.26,6.26,0,0,1,328.93,238Z"/><path class="cls-2" d="M285.79,277a1.4,1.4,0,0,1-.2-.36l-.52-1.09c-.44-.94-1-2.33-1.77-4.05-1.45-3.44-3.3-8.26-5.27-13.61s-3.78-10.17-5.16-13.64c-.67-1.69-1.23-3.07-1.64-4.1l-.44-1.12a1.64,1.64,0,0,1-.13-.41,1.53,1.53,0,0,1,.21.37c.14.3.31.65.51,1.09.45.94,1.05,2.33,1.77,4.05,1.45,3.44,3.31,8.26,5.28,13.61s3.78,10.17,5.15,13.64c.68,1.69,1.23,3.07,1.65,4.1.17.45.32.82.44,1.12A1.42,1.42,0,0,1,285.79,277Z"/><path class="cls-2" d="M325.73,264.15a1.34,1.34,0,0,1-.4.17l-1.16.39-4.28,1.38c-3.61,1.17-8.57,2.85-14.06,4.71s-10.48,3.48-14.11,4.58c-1.82.55-3.3,1-4.32,1.25l-1.19.32a1.3,1.3,0,0,1-.42.07,2.16,2.16,0,0,1,.4-.16l1.16-.39,4.28-1.38c3.61-1.17,8.57-2.85,14.06-4.71s10.48-3.48,14.11-4.58c1.82-.55,3.3-1,4.32-1.25l1.19-.32A2.36,2.36,0,0,1,325.73,264.15Z"/><path class="cls-2" d="M345.34,227a2.8,2.8,0,0,1-.31-.46c-.21-.34-.47-.75-.77-1.25-.66-1.07-1.58-2.57-2.64-4.39l.24.07-6.17,3.59c0,.06.14-.52.07-.27h0l0,0,0,.05.06.11.12.21.24.42c.17.28.32.55.48.82l.92,1.61,1.67,2.92-.24-.06c1.83-1,3.37-1.88,4.48-2.48l1.29-.7a2.94,2.94,0,0,1,.5-.24,2.14,2.14,0,0,1-.39.27l-1.22.76c-1.06.65-2.61,1.59-4.49,2.69l-.15.09-.09-.15-1.7-2.91-.93-1.6-.47-.82-.25-.42-.12-.21-.06-.11,0,0,0,0h0c-.07.24.09-.34.07-.28l6.2-3.55.15-.08.09.15c1.08,1.89,1.95,3.48,2.54,4.57l.68,1.27A1.54,1.54,0,0,1,345.34,227Z"/><rect class="cls-2" x="103.76" y="18.97" width="7.51" height="37.37" transform="translate(-0.2 0.58) rotate(-0.31)"/><rect class="cls-3" x="38.64" y="19.1" width="19.45" height="20.63" transform="matrix(1, -0.01, 0.01, 1, -0.16, 0.26)"/><rect class="cls-1" x="58" y="19" width="19.45" height="20.63" transform="translate(-0.16 0.36) rotate(-0.31)"/><path class="cls-2" d="M38.62,24.85c12.92.11,25.88,0,38.81-.18a.21.21,0,0,0,0-.41c-12.92-.07-25.88,0-38.8.24a.18.18,0,0,0,0,.35Z"/><rect class="cls-3" x="26.51" y="39.43" width="35.34" height="16.81" transform="translate(-0.26 0.24) rotate(-0.31)"/><rect class="cls-1" x="61.68" y="39.24" width="35.34" height="16.81" transform="translate(-0.25 0.43) rotate(-0.31)"/><path class="cls-2" d="M26.49,44.2c23.47.27,47,0,70.5-.35a.21.21,0,0,0,0-.41c-23.48-.12-47-.11-70.5.41a.18.18,0,0,0,0,.35Z"/><rect class="cls-2" x="13.27" y="56.34" width="136.91" height="6.02"/><rect class="cls-2" x="35.69" y="59.23" width="5.56" height="20.55"/><rect class="cls-2" x="118.65" y="59.23" width="5.56" height="20.55"/><rect class="cls-3" x="111.12" y="5.03" width="7.51" height="51.4" transform="translate(-0.16 0.62) rotate(-0.31)"/><rect class="cls-1" x="118.67" y="14.61" width="11.67" height="41.65" transform="translate(-0.19 0.67) rotate(-0.31)"/><path class="cls-2" d="M130.15,22.61a42.75,42.75,0,0,1-5.83.2,42.84,42.84,0,0,1-5.84-.2,41.8,41.8,0,0,1,5.84-.21A41.72,41.72,0,0,1,130.15,22.61Z"/><path class="cls-2" d="M130.15,20.86a42.75,42.75,0,0,1-5.83.2,42.84,42.84,0,0,1-5.84-.2,41.8,41.8,0,0,1,5.84-.21A41.72,41.72,0,0,1,130.15,20.86Z"/><path class="cls-2" d="M130.15,50a42.75,42.75,0,0,1-5.83.2,42.84,42.84,0,0,1-5.84-.2,42.84,42.84,0,0,1,5.84-.2A42.75,42.75,0,0,1,130.15,50Z"/><path class="cls-2" d="M130.15,48.22a42.75,42.75,0,0,1-5.83.2,42.84,42.84,0,0,1-5.84-.2,42.84,42.84,0,0,1,5.84-.2A42.75,42.75,0,0,1,130.15,48.22Z"/><path class="cls-2" d="M124.5,44.4c-.11,0-.2-4.2-.2-9.38s.09-9.39.2-9.39.21,4.2.21,9.39S124.62,44.4,124.5,44.4Z"/><rect class="cls-3" x="130.28" y="24.81" width="12.7" height="31.44"/><path class="cls-4" d="M137,48.1a2.73,2.73,0,0,1-2.84-2.83,2.44,2.44,0,0,1,1-2.12l.29.4a2,2,0,0,0-.84,1.72,2.36,2.36,0,0,0,4.72,0,2,2,0,0,0-.84-1.72l.29-.4a2.49,2.49,0,0,1,1,2.12A2.73,2.73,0,0,1,137,48.1Z"/><path class="cls-4" d="M139.11,42.37l-.43-.25a3.22,3.22,0,0,0,.68-2c0-1.18-.42-1.65-1.05-1.65-1.63,0-.43,3.7-2.63,3.7-.84,0-1.53-.7-1.53-2.12a3.37,3.37,0,0,1,.55-1.91l.42.24a2.89,2.89,0,0,0-.5,1.68c0,1.1.45,1.58,1,1.58,1.68,0,.49-3.71,2.63-3.71.91,0,1.53.78,1.53,2.21A3.5,3.5,0,0,1,139.11,42.37Z"/><path class="cls-4" d="M139.11,37.25l-.43-.25a3.22,3.22,0,0,0,.68-2c0-1.18-.42-1.65-1.05-1.65-1.63,0-.43,3.71-2.63,3.71-.84,0-1.53-.71-1.53-2.13A3.37,3.37,0,0,1,134.7,33l.42.24a2.92,2.92,0,0,0-.5,1.69c0,1.09.45,1.57,1,1.57,1.68,0,.49-3.71,2.63-3.71.91,0,1.53.79,1.53,2.21A3.5,3.5,0,0,1,139.11,37.25Z"/><circle class="cls-2" cx="114.63" cy="13.79" r="2.16"/><rect class="cls-2" x="113.96" y="19.73" width="1.33" height="30.58"/><path class="cls-2" d="M284.05,199.68c-.08-.07,2.45-2.73,5.64-5.92s5.85-5.72,5.92-5.64-2.44,2.73-5.63,5.93S284.13,199.76,284.05,199.68Z"/><path class="cls-2" d="M295.61,199.68c-.07.08-2.73-2.44-5.92-5.63s-5.72-5.85-5.64-5.93,2.73,2.45,5.93,5.64S295.69,199.61,295.61,199.68Z"/><path class="cls-2" d="M178.28,137c-.08-.08,2.45-2.73,5.64-5.92s5.85-5.72,5.92-5.64a80.49,80.49,0,0,1-5.64,5.92A80.49,80.49,0,0,1,178.28,137Z"/><path class="cls-2" d="M189.84,137c-.07.08-2.73-2.44-5.92-5.64s-5.72-5.84-5.64-5.92a81.7,81.7,0,0,1,5.93,5.64A81.53,81.53,0,0,1,189.84,137Z"/><path class="cls-2" d="M162.43,35.75a60.05,60.05,0,0,1-.81-7,61.12,61.12,0,0,1-.41-7,62.77,62.77,0,0,1,.81,7A61.21,61.21,0,0,1,162.43,35.75Z"/><path class="cls-2" d="M168.83,28.13a60.05,60.05,0,0,1-7,.81,61.21,61.21,0,0,1-7,.41,62.77,62.77,0,0,1,7-.81A61.12,61.12,0,0,1,168.83,28.13Z"/><path class="cls-2" d="M97.59,112.56l-.15-.22-.38-.62-1.4-2.33-4.87-8.26.24.07-11.5,6.67c0,.06.14-.53.07-.28h0v0l0,0,.06.1.11.19.23.4.45.78.89,1.54,1.71,3c1.11,1.93,2.15,3.76,3.12,5.44l-.24-.07,8.34-4.71L96.71,113l.64-.35c.15-.08.23-.12.24-.11s-.26.17-.78.49l-2.3,1.38-8.35,4.93-.15.08-.09-.15-3.15-5.42-1.72-3-.89-1.54-.45-.78-.23-.39-.11-.2-.06-.1,0,0v0h0c-.06.25.09-.33.08-.27l11.52-6.63.16-.08.08.15,4.77,8.44,1.3,2.34A6.51,6.51,0,0,1,97.59,112.56Z"/><path class="cls-2" d="M352,187.33s-.11-.26-.36-.67a3.15,3.15,0,0,0-1.52-1.29,3,3,0,0,0-2.81.33,3,3,0,1,0,4,4.26,3.19,3.19,0,0,0,.7-1.87c0-.48-.06-.75,0-.76a1.71,1.71,0,0,1,.17.76,3.07,3.07,0,0,1-.63,2,3.23,3.23,0,0,1-2.87,1.28,3.29,3.29,0,0,1-1.57-6,3.22,3.22,0,0,1,3.13-.29,3.13,3.13,0,0,1,1.55,1.47A1.73,1.73,0,0,1,352,187.33Z"/><path class="cls-2" d="M206.78,2.5s-.1-.26-.35-.68A3.13,3.13,0,0,0,204.91.54a3,3,0,0,0-4,3.48,3,3,0,0,0,5.17,1.1,3.07,3.07,0,0,0,.7-1.86c0-.48-.05-.75,0-.76a1.57,1.57,0,0,1,.18.76,3.13,3.13,0,0,1-.63,2,3.28,3.28,0,0,1-2.88,1.28A3.29,3.29,0,1,1,205,.27a3.11,3.11,0,0,1,1.54,1.48A1.54,1.54,0,0,1,206.78,2.5Z"/><path class="cls-2" d="M62.37,91.38s-.11-.26-.35-.68a3.13,3.13,0,0,0-1.52-1.28A3,3,0,1,0,61.69,94a3.07,3.07,0,0,0,.7-1.86c0-.48-.06-.75,0-.76a1.57,1.57,0,0,1,.18.76,3.13,3.13,0,0,1-.63,2A3.26,3.26,0,0,1,59,95.46a3.3,3.3,0,0,1-1.57-6,3.26,3.26,0,0,1,3.14-.28,3.1,3.1,0,0,1,1.54,1.47A1.57,1.57,0,0,1,62.37,91.38Z"/><path class="cls-2" d="M338.6,79c-.05,0-.17-.57-.68-1.48a6.61,6.61,0,0,0-3.25-2.83,6.42,6.42,0,0,0-2.95-.47,6.59,6.59,0,0,0-3.22,1.15,6,6,0,0,0-1.35,1.26,6,6,0,0,0-1,1.67,6.43,6.43,0,0,0,1.92,7.38,6.15,6.15,0,0,0,1.67,1,5.74,5.74,0,0,0,1.8.45,6.56,6.56,0,0,0,3.36-.57,6.48,6.48,0,0,0,2.35-1.85,6.68,6.68,0,0,0,1.45-4.06c0-1-.18-1.62-.13-1.63a2.56,2.56,0,0,1,.12.41,4.73,4.73,0,0,1,.16,1.22,6.7,6.7,0,0,1-3.81,6.21,6.77,6.77,0,0,1-3.54.64A6.93,6.93,0,0,1,327.85,86a6.81,6.81,0,0,1-2-7.83,6.85,6.85,0,0,1,2.48-3.1,6.79,6.79,0,0,1,6.49-.64,6.66,6.66,0,0,1,3.28,3,5.56,5.56,0,0,1,.45,1.14A2.18,2.18,0,0,1,338.6,79Z"/><path class="cls-2" d="M317.68,177.27a7.26,7.26,0,0,1-.41-.72c-.29-.55-.68-1.26-1.15-2.13-1-1.84-2.42-4.49-4-7.61l-.16-.3.34,0,5.76.36,6,.39.33,0-.18.28c-1.88,2.89-3.52,5.34-4.67,7l-1.33,2a6.09,6.09,0,0,1-.47.66s.17-.29.47-.78l1.27-2.08c1.09-1.76,2.61-4.2,4.41-7l.15.29-6-.37-5.76-.38.18-.28c1.55,3,2.83,5.66,3.76,7.55l1.09,2.24C317.54,177,317.68,177.25,317.68,177.27Z"/><path class="cls-2" d="M263.53,30.63s-.14-.23-.41-.72L262,27.77c-1-1.83-2.42-4.48-4-7.6l-.16-.3.34,0,5.76.36,6,.4.32,0-.17.27c-1.88,2.9-3.53,5.35-4.67,7-.54.81-1,1.47-1.33,2a7.42,7.42,0,0,1-.47.67s.16-.3.46-.79l1.28-2.08c1.09-1.76,2.6-4.2,4.41-7l.15.3-6-.38-5.76-.38.19-.28c1.54,3,2.83,5.66,3.76,7.56l1.09,2.23C263.39,30.31,263.53,30.61,263.53,30.63Z"/><path class="cls-2" d="M169.6,203.84a8.05,8.05,0,0,1,.44-.7c.34-.52.78-1.2,1.33-2,1.15-1.74,2.8-4.26,4.78-7.17l.16-.23.16.23c1.14,1.7,2.39,3.54,3.7,5.48l2.88,4.3.21.3h-.37c-3.9,0-7.27-.07-9.62-.11l-2.73,0c-.63,0-1,0-.94,0l1.05,0,2.8-.05c2.37,0,5.65-.1,9.44-.11l-.16.31c-.91-1.35-1.88-2.8-2.9-4.3l-3.68-5.49h.32c-1.95,2.82-3.65,5.2-4.88,6.91l-1.44,2C169.81,203.56,169.62,203.83,169.6,203.84Z"/><path class="cls-5" d="M242.3,199.82h0a48.62,48.62,0,0,1,48.62,48.62v56.38a0,0,0,0,1,0,0H193.68a0,0,0,0,1,0,0V248.44A48.62,48.62,0,0,1,242.3,199.82Z"/><path class="cls-6" d="M119.19,277.47l-4.9,3.46L108.85,294a2.21,2.21,0,0,0,2.61-.06c1.14-1.05,5.51-8.65,5.51-8.65l0,4.49a3.6,3.6,0,0,0,3.19,3.56l8.07,2.52,9.89-2.82.84-11.78Z"/><path class="cls-7" d="M207.08,190.68c-2.42-.7-3.6-3.48-3.82-6s.19-5.09-.49-7.52c-.49-1.72-1.51-3.31-1.65-5.09-.14-1.93.79-3.78.84-5.72.07-2.69-1.55-5.19-1.59-7.89-.05-3.72.62-9.88,4.34-9.67s9.7,6.74,9.23,10.44"/><path class="cls-6" d="M242.3,159.82l-.07,3.72-.75,55.73c-.08,6.47-5.72,11.54-12.64,11.4h0c-7-.15-12.68-5.56-12.7-12.1,0-6.86-.17-14.09-.17-14.09s-8.84-1.46-10.67-13c-.91-5.74-.62-15.14-.14-22.83a12.18,12.18,0,0,1,13.43-11.35Z"/><path class="cls-7" d="M207.52,175.21A1.49,1.49,0,0,0,209,176.7a1.42,1.42,0,0,0,1.53-1.33,1.5,1.5,0,0,0-1.43-1.5A1.43,1.43,0,0,0,207.52,175.21Z"/><path class="cls-7" d="M207.2,173.55c.19.2,1.31-.63,2.9-.63s2.76.8,2.93.61-.1-.44-.61-.81a4,4,0,0,0-2.35-.72,3.87,3.87,0,0,0-2.3.74C207.28,173.12,207.11,173.47,207.2,173.55Z"/><path class="cls-7" d="M223.45,175.21a1.48,1.48,0,0,0,1.43,1.49,1.41,1.41,0,0,0,1.52-1.33,1.49,1.49,0,0,0-1.42-1.5A1.43,1.43,0,0,0,223.45,175.21Z"/><path class="cls-7" d="M222.85,173.85c.18.19,1.3-.64,2.89-.63s2.76.8,2.93.6-.1-.43-.61-.8a4.06,4.06,0,0,0-2.34-.73,3.88,3.88,0,0,0-2.31.75C222.92,173.41,222.76,173.76,222.85,173.85Z"/><path class="cls-7" d="M217.07,185.65a10.44,10.44,0,0,0-2.59-.46c-.4-.05-.79-.13-.85-.4a2,2,0,0,1,.27-1.21l1.2-3.09c1.67-4.41,2.88-8,2.7-8.1s-1.68,3.45-3.35,7.86c-.4,1.09-.78,2.12-1.15,3.11a2.37,2.37,0,0,0-.21,1.6,1,1,0,0,0,.67.59,2.67,2.67,0,0,0,.69.1A10.1,10.1,0,0,0,217.07,185.65Z"/><path class="cls-8" d="M216,204.48a29.21,29.21,0,0,0,15.44-4.12s-3.74,7.93-15.28,6.85Z"/><path class="cls-8" d="M217.74,189.49a2.89,2.89,0,0,1,2.57-1.07,2.66,2.66,0,0,1,1.81,1,1.67,1.67,0,0,1,.13,1.9,2,2,0,0,1-2.09.53,6,6,0,0,1-2-1.22,1.87,1.87,0,0,1-.46-.47.53.53,0,0,1,0-.59"/><path class="cls-7" d="M221.75,186.75c-.26,0-.26,1.72-1.74,2.94s-3.31,1-3.33,1.28.41.33,1.19.36a4.33,4.33,0,0,0,2.78-1,3.79,3.79,0,0,0,1.35-2.47C222.06,187.17,221.87,186.74,221.75,186.75Z"/><path class="cls-7" d="M222.43,167.61c.16.43,1.75.23,3.62.45s3.38.74,3.62.35c.11-.18-.15-.59-.76-1a5.93,5.93,0,0,0-2.68-.94,6,6,0,0,0-2.83.33C222.71,167.07,222.37,167.41,222.43,167.61Z"/><path class="cls-7" d="M207.79,169c.28.36,1.37,0,2.69,0s2.44.25,2.69-.13c.12-.18-.06-.55-.55-.89a3.7,3.7,0,0,0-2.19-.59,3.76,3.76,0,0,0-2.15.73C207.82,168.4,207.66,168.77,207.79,169Z"/><path class="cls-7" d="M246.55,156.27c2.41-6.52,12.39-16.34,20.07-12,8.41,4.79,5.42,8.11,8.47,10.31.73.53,4.14-.61,4.61.16,1.25,2,.19,4.6-.88,6.72a3.21,3.21,0,0,0,.76-.21,1.41,1.41,0,0,1,1.92,1.37,13.16,13.16,0,0,1-2.6,7.14,4.36,4.36,0,0,0,1.61,0,1,1,0,0,1,1.09,1.31,7.9,7.9,0,0,1-5.79,4.92,11.72,11.72,0,0,1-9.21-2.47,27.9,27.9,0,0,1-6.36-7.43,15.75,15.75,0,0,0-3.58-4.39c-1.54-1.12-3.76-1.56-5.34-.49"/><path class="cls-9" d="M251.34,161.05s0-.12,0-.3a2.81,2.81,0,0,0-.19-.77,13.5,13.5,0,0,0-1.25-2.36,14.88,14.88,0,0,0-1.64-2.12c-.47-.5-.81-.76-.78-.81s.44.13,1,.6a10,10,0,0,1,1.78,2.11,9,9,0,0,1,1.18,2.5,2.12,2.12,0,0,1,.08.86C251.45,161,251.35,161.06,251.34,161.05Z"/><path class="cls-7" d="M270.84,178.93a1.75,1.75,0,0,1-.28.21,6.13,6.13,0,0,1-.89.47,7.34,7.34,0,0,1-3.63.48,7.63,7.63,0,0,1-4.82-2.47,7.85,7.85,0,0,1-1.53-2.87,15.28,15.28,0,0,1-.57-3.42,48.87,48.87,0,0,0-.48-6.59,9.41,9.41,0,0,0-.95-2.66,6.15,6.15,0,0,0-1.61-1.83,5.11,5.11,0,0,0-3.32-1.12,9.65,9.65,0,0,0-1.29.28,1.46,1.46,0,0,1,.31-.17,3.36,3.36,0,0,1,1-.26,5.08,5.08,0,0,1,3.5,1,6.39,6.39,0,0,1,1.73,1.9,9.39,9.39,0,0,1,1,2.75,44.4,44.4,0,0,1,.51,6.63,15.45,15.45,0,0,0,.55,3.33,7.58,7.58,0,0,0,1.43,2.75,7.62,7.62,0,0,0,8.12,2.08C270.42,179.17,270.81,178.88,270.84,178.93Z"/><path class="cls-7" d="M278.59,147.58a2,2,0,0,1,.22.43,4.47,4.47,0,0,1,.3,1.38,5.22,5.22,0,0,1-.37,2.21,4.68,4.68,0,0,1-1.9,2.27,5,5,0,0,1-3.54.57A4.81,4.81,0,0,1,270,152a13.82,13.82,0,0,1-1.34-4.34,9.5,9.5,0,0,0-1.63-4.39,3.75,3.75,0,0,0-1.94-1.23,5.12,5.12,0,0,0-2.27,0,12.07,12.07,0,0,0-4.05,1.74,36.7,36.7,0,0,0-6,4.6,39.34,39.34,0,0,0-3.49,3.75c-.36.45-.65.81-.87,1.1a2.3,2.3,0,0,1-.32.37,2.82,2.82,0,0,1,.25-.42q.27-.41.81-1.14a35.83,35.83,0,0,1,3.42-3.87,35.45,35.45,0,0,1,6-4.71,12.54,12.54,0,0,1,4.18-1.81,5.49,5.49,0,0,1,2.45,0,4.16,4.16,0,0,1,2.14,1.36,9.82,9.82,0,0,1,1.71,4.57,13.41,13.41,0,0,0,1.27,4.23,4.45,4.45,0,0,0,3.06,2.26,4.74,4.74,0,0,0,3.32-.49,4.44,4.44,0,0,0,1.84-2.11,5.06,5.06,0,0,0,.42-2.11A6.13,6.13,0,0,0,278.59,147.58Z"/><path class="cls-7" d="M249.42,144.83a3.19,3.19,0,0,1,.85,1.29,6.49,6.49,0,0,1-1.21,7,3.22,3.22,0,0,1-1.24.93c0-.06.44-.4,1-1.12a6.88,6.88,0,0,0,1.16-6.75C249.69,145.35,249.36,144.87,249.42,144.83Z"/><path class="cls-7" d="M250.56,159.17a14.56,14.56,0,0,0-10.47-8.88,13.58,13.58,0,0,0-8.46,1.14,13.42,13.42,0,0,1-2.62-2.21,22.71,22.71,0,0,0-9.87-5.86,16.32,16.32,0,0,0-11.31.87,12.81,12.81,0,0,0-7,8.74,10.54,10.54,0,0,0,3.76,10.33,9,9,0,0,0,10.76-.08,3.54,3.54,0,0,0,3,3.6,6.35,6.35,0,0,0,4.79-1.4,37.54,37.54,0,0,0,3.7-3.55c.45-.45.92-.87,1.41-1.28a13.91,13.91,0,0,0,9.7,7.77c-1.33,1.45-1.21,3.72-.67,5.62s1.45,3.74,1.41,5.72c0,1.65-.74,3.22-1,4.84a10.64,10.64,0,0,0,.93,6.73c.41.8.89,1.91,1.33,2.68.79,1.38.79,1.38,1.93,1.74,2.37.73,6.48-7.89,7.54-11.32.88-2.86,1.22-8,2.25-10.79C253.43,168.55,252.31,163.61,250.56,159.17Z"/><path class="cls-5" d="M252.17,170a1,1,0,0,1-.16.26,2.48,2.48,0,0,1-.66.56,3.21,3.21,0,0,1-1.31.44,3.27,3.27,0,0,1-1.81-.32,2.87,2.87,0,0,1-.87-.67,4.7,4.7,0,0,1-.61-1,12.32,12.32,0,0,0-1.05-2.2,3.28,3.28,0,0,0-2.24-1.2,21.26,21.26,0,0,0-2.92-.12,13.06,13.06,0,0,1-3-.42,13.56,13.56,0,0,1-2.59-1,13,13,0,0,1-3.69-2.9,11.24,11.24,0,0,1-1.75-2.63,7.4,7.4,0,0,1-.34-.79,1.08,1.08,0,0,1-.08-.29,16.26,16.26,0,0,0,2.38,3.52,13.27,13.27,0,0,0,3.65,2.76,14.6,14.6,0,0,0,2.53,1,12.74,12.74,0,0,0,2.87.39,20.89,20.89,0,0,1,3,.14,3.63,3.63,0,0,1,2.47,1.36,11.92,11.92,0,0,1,1.07,2.29,4.28,4.28,0,0,0,.54.94,2.59,2.59,0,0,0,.76.61,3.22,3.22,0,0,0,2.91,0A4.8,4.8,0,0,0,252.17,170Z"/><path class="cls-5" d="M250.37,174.66s-.14.21-.48.47a5.22,5.22,0,0,1-1.65.83,5.3,5.3,0,0,1-2.74.09,5.58,5.58,0,0,1-2.91-1.68,13.64,13.64,0,0,1-1.76-2.84,7.22,7.22,0,0,0-1.54-2.12,3.6,3.6,0,0,0-1.51-.86,5.36,5.36,0,0,1-.64-.13,1.23,1.23,0,0,1,.67,0,3.35,3.35,0,0,1,1.67.8,7.15,7.15,0,0,1,1.68,2.15,14.61,14.61,0,0,0,1.73,2.75,5.42,5.42,0,0,0,2.69,1.59,5.33,5.33,0,0,0,2.58,0A8.45,8.45,0,0,0,250.37,174.66Z"/><path class="cls-5" d="M281,161.12a1.35,1.35,0,0,1-.11.44,3.22,3.22,0,0,1-.7,1.11,4.37,4.37,0,0,1-1.75,1.11,4.69,4.69,0,0,1-2.75.11,8.51,8.51,0,0,1-5.13-4.75c-1.24-2.38-1.91-5.31-3.71-7.76a7.81,7.81,0,0,0-3.39-2.66,9.22,9.22,0,0,0-4-.58,10.57,10.57,0,0,0-6.25,2.76,15.15,15.15,0,0,0-2.94,3.68c-.56,1-.81,1.54-.84,1.53a2,2,0,0,1,.15-.43,12.84,12.84,0,0,1,.55-1.18,14.38,14.38,0,0,1,2.89-3.81,10.67,10.67,0,0,1,6.41-2.92,9.4,9.4,0,0,1,4.18.58,8.16,8.16,0,0,1,3.58,2.79c1.86,2.55,2.51,5.49,3.72,7.83a8.27,8.27,0,0,0,4.86,4.64,4.6,4.6,0,0,0,2.61,0,4.31,4.31,0,0,0,1.71-1A4.18,4.18,0,0,0,281,161.12Z"/><path class="cls-5" d="M280.69,166.58a1.9,1.9,0,0,1-.29.33,7.78,7.78,0,0,1-.95.82,7.86,7.86,0,0,1-1.74,1,5.66,5.66,0,0,1-2.62.39,8.69,8.69,0,0,1-5.72-3.59,13.15,13.15,0,0,1-1.82-3.63c-.46-1.32-.83-2.72-1.33-4.1a12,12,0,0,0-2-3.71A6.24,6.24,0,0,0,261,152a9.08,9.08,0,0,0-6.48.82,18.49,18.49,0,0,0-3.71,2.62l-.91.84a1.71,1.71,0,0,1-.34.29,1.84,1.84,0,0,1,.28-.34c.19-.21.48-.52.87-.9a16.31,16.31,0,0,1,3.68-2.76,9.31,9.31,0,0,1,6.71-.93,6.68,6.68,0,0,1,3.42,2.19,12.16,12.16,0,0,1,2.09,3.83c.51,1.41.87,2.8,1.32,4.11a13,13,0,0,0,1.75,3.54,8.45,8.45,0,0,0,5.45,3.53,5.44,5.44,0,0,0,2.51-.33,7.7,7.7,0,0,0,1.73-.89C280.25,167,280.66,166.55,280.69,166.58Z"/><path class="cls-9" d="M196.87,282.15l1.31,3.29-2.59,29.88h66l-2.95-8.93,8.2.41c12.65.64,23-10.66,20.53-23.08-.08-.38-.16-.75-.26-1.12-4.09-16-9.66-37.49-11.6-43.83a30.75,30.75,0,0,0-10.34-15.48H265c-9.87-8.05-23.31-8.76-23.31-8.76l-4.95,3.32a17.25,17.25,0,0,1-16.72,1.38,7.51,7.51,0,0,1-4.08-4.7h0a58,58,0,0,0-16.83,4.37,24.71,24.71,0,0,0-13,14.56L168.87,284l-29.34-4-6.27,17.14L163,304.19a24.26,24.26,0,0,0,28.24-11.67l5.64-10.37m54.87,4h0s2.82-10.8,4.54-16.62l4.16,16.35Z"/><path class="cls-7" d="M274.17,307l-.34,0h-1L269,307l-14.53.06-50.56.07h-.2V307c.26-6.16.54-12.63.82-19.31v-.18h.18l18.79-.59,36.94-1.14-.17.24c-1.39-5-2.51-10-3.6-14.63s-2.06-9.17-3-13.4q-.69-3.16-1.35-6.15a44.36,44.36,0,0,1-1.05-5.8,30.11,30.11,0,0,1,0-5.46,25.86,25.86,0,0,1,.9-4.92,15.19,15.19,0,0,1,4.4-7.17,11,11,0,0,1,5.68-2.64,9.11,9.11,0,0,1,3.92.22,6.7,6.7,0,0,1,.95.34l.31.15s-.42-.2-1.28-.43a9.28,9.28,0,0,0-3.88-.16,11,11,0,0,0-5.58,2.66,15.07,15.07,0,0,0-4.29,7.1,25.35,25.35,0,0,0-.87,4.87,29.72,29.72,0,0,0,0,5.42,43.5,43.5,0,0,0,1.07,5.76l1.37,6.14q1.44,6.35,3,13.39c1.1,4.68,2.23,9.58,3.61,14.61l.07.23h-.24l-36.95,1.17-18.79.58.2-.19c-.29,6.68-.57,13.15-.84,19.31l-.19-.2,50.56.08,14.53.05,3.87,0,1,0Z"/><path class="cls-7" d="M200.53,238.22a2.91,2.91,0,0,1,0,.48,13.12,13.12,0,0,1,0,1.39,22.47,22.47,0,0,1-.9,5,69.58,69.58,0,0,1-2.58,7.11,48.43,48.43,0,0,0-2.83,8.74,26.19,26.19,0,0,0-.05,9.13,50.34,50.34,0,0,0,1.79,7.3c.65,2.05,1.23,3.68,1.63,4.82.19.53.34,1,.45,1.31a3.25,3.25,0,0,1,.14.46s-.09-.14-.21-.44l-.53-1.28c-.44-1.11-1.07-2.74-1.76-4.78a49.09,49.09,0,0,1-1.88-7.33,26.18,26.18,0,0,1,0-9.26,46.69,46.69,0,0,1,2.89-8.81c1.08-2.63,2-5,2.65-7.05a25.51,25.51,0,0,0,1-4.95C200.49,238.89,200.49,238.22,200.53,238.22Z"/><path class="cls-7" d="M260.44,285.92a3,3,0,0,1,1.38-.18,8,8,0,0,1,3.27.75,6.11,6.11,0,0,1,2.6,2.13,2.54,2.54,0,0,1,.51,1.3c-.07,0-.24-.48-.74-1.13a6.67,6.67,0,0,0-2.54-1.93,9.88,9.88,0,0,0-3.12-.84A12.3,12.3,0,0,1,260.44,285.92Z"/><path class="cls-7" d="M254.63,217.44a8.86,8.86,0,0,1,1.24.47c.39.16.87.36,1.42.61l1.85.89c.68.34,1.4.76,2.18,1.19s1.58,1,2.43,1.51a38.29,38.29,0,0,1,5.09,4.13,26.26,26.26,0,0,1,6.41,9.94c.24.73.46,1.38.59,2a15.05,15.05,0,0,1,.32,1.52,7.37,7.37,0,0,1,.17,1.31,8,8,0,0,1-.32-1.28c-.07-.42-.23-.91-.39-1.49s-.38-1.22-.64-1.93a27.06,27.06,0,0,0-6.43-9.75,40.83,40.83,0,0,0-5-4.11c-.84-.55-1.63-1.08-2.39-1.53s-1.48-.88-2.15-1.22l-1.81-.95-1.39-.67A8.24,8.24,0,0,1,254.63,217.44Z"/><g class="cls-10"><path d="M252.06,250s-6.56,28.94-6.45,31.77a15.61,15.61,0,0,0,.67,4.39l5.46.05,0-.53,4.59-16.38Z"/></g><path class="cls-11" d="M216,248.52s-.69.32-1.79,1.14a10,10,0,0,0-3.36,4.57,9.83,9.83,0,0,0,.76,8.19,9.62,9.62,0,0,0,3.5,3.5,9.17,9.17,0,0,0,2.43,1,9.67,9.67,0,0,0,2.69.31,10,10,0,0,0,2.68-.44,9.83,9.83,0,0,0,2.38-1.13,9.66,9.66,0,0,0,3.32-3.66,9.91,9.91,0,0,0,1.1-4.36,9.8,9.8,0,0,0-.74-3.86,10.06,10.06,0,0,0-3.58-4.41,19.49,19.49,0,0,0-1.85-1,3.05,3.05,0,0,1,.53.18,9.69,9.69,0,0,1,1.41.73,10,10,0,0,1,3.76,4.43,10,10,0,0,1-.29,8.5,10.11,10.11,0,0,1-3.44,3.82,10.51,10.51,0,0,1-2.48,1.19,10.37,10.37,0,0,1-2.79.45,9.39,9.39,0,0,1-2.8-.33,9.13,9.13,0,0,1-2.53-1.05,10,10,0,0,1-3.62-3.65,10,10,0,0,1-.71-8.47,10,10,0,0,1,3.53-4.61,10.07,10.07,0,0,1,1.38-.8A3.43,3.43,0,0,1,216,248.52Z"/><path class="cls-11" d="M220,246.75a64,64,0,0,1,.2,7.13A63.82,63.82,0,0,1,220,261a63.82,63.82,0,0,1-.2-7.13A64,64,0,0,1,220,246.75Z"/><path class="cls-6" d="M195,287.24l-4.27-1.74s-5-8.42-6-8-1.16,3,.86,6.85L180,283.07s-11.67,6.2-11.1,6.92,1.65,2.43,4.19.95S179,287.7,179,287.7l6.55,1.48-8.26,1.52-7.43,7.57s2.67,1.77,4.78-.39l20.58,3.24h8.71l.47-11.51Z"/><path class="cls-8" d="M174.59,297.88c.09.05.43-.57,1.12-1.41a6.32,6.32,0,0,1,1.42-1.23,6,6,0,0,1,2.16-.69c3.37-.59,6.08-1.21,6.05-1.38s-2.79.16-6.16.75a6.08,6.08,0,0,0-2.38.83,5.68,5.68,0,0,0-1.45,1.45A3.62,3.62,0,0,0,174.59,297.88Z"/><path class="cls-8" d="M177.81,298.52c.08,0,.12-.43.69-.58s1.49-.3,2.45-.46c1.94-.3,3.55-.38,3.55-.56s-1.64-.38-3.65-.07a11.06,11.06,0,0,0-2.53.67,1,1,0,0,0-.58.68C177.7,298.42,177.78,298.53,177.81,298.52Z"/><path class="cls-8" d="M194.43,287a15,15,0,0,1-2.05-.59c-1.26-.38-3-.87-4.95-1.36l-5-1.25a10.42,10.42,0,0,1-2-.64,12,12,0,0,1,2.11.36c1.29.26,3.07.65,5,1.14s3.7,1,4.94,1.48A9.22,9.22,0,0,1,194.43,287Z"/><path class="cls-7" d="M266.06,70.39a5.22,5.22,0,0,1,0-.84c0-.58,0-1.35,0-2.3,0-2-.05-4.78-.09-8.09l.18.18-11.23,0,.2-.2h0v3c0,1,0,2,0,2.9,0,1.89,0,3.67,0,5.3l-.17-.17,8.08.09,2.3,0,.85,0a4,4,0,0,1-.77,0l-2.27,0-8.19.09h-.18v-.18l0-5.3c0-.94,0-1.91,0-2.9v-3h0c-.18.18.25-.25.21-.2l11.23,0h.17v.17c0,3.35-.07,6.16-.09,8.2,0,.93,0,1.69,0,2.26S266.07,70.41,266.06,70.39Z"/><path class="cls-7" d="M266.06,59.27A76.89,76.89,0,0,1,260.6,65c-3.1,3.09-5.67,5.52-5.75,5.45s2.37-2.65,5.46-5.73S266,59.2,266.06,59.27Z"/><path class="cls-7" d="M265.88,70.32a73.45,73.45,0,0,1-5.62-5.38,73.67,73.67,0,0,1-5.34-5.67,77.45,77.45,0,0,1,5.62,5.39A74.74,74.74,0,0,1,265.88,70.32Z"/><path class="cls-7" d="M332.55,135.74a3.65,3.65,0,0,1,.6-.68l1.74-1.75c1.49-1.46,3.55-3.45,5.86-5.64l.05,0v.3c-2.32-2.15-4.4-4.11-5.89-5.54-.7-.67-1.28-1.24-1.76-1.71a4.23,4.23,0,0,1-.6-.66,3.52,3.52,0,0,1,.71.55l1.84,1.61c1.54,1.38,3.66,3.3,6,5.45l.15.15-.15.14-.05,0c-2.31,2.19-4.41,4.15-5.94,5.56l-1.83,1.65A3.76,3.76,0,0,1,332.55,135.74Z"/><path class="cls-7" d="M314.65,120a4.75,4.75,0,0,1-.61.68l-1.74,1.74c-1.48,1.46-3.55,3.46-5.85,5.64l-.05.05v-.29c2.32,2.15,4.4,4.1,5.9,5.53l1.75,1.71a4.44,4.44,0,0,1,.61.67,3.88,3.88,0,0,1-.72-.55l-1.84-1.62c-1.54-1.38-3.65-3.3-6-5.44L306,128l.16-.15.05,0c2.3-2.19,4.4-4.15,5.93-5.56l1.84-1.65A3.54,3.54,0,0,1,314.65,120Z"/><path class="cls-7" d="M319.24,139.44c-.1,0,1.78-5.3,4.2-11.75S327.91,116,328,116.08s-1.77,5.3-4.19,11.76S319.35,139.48,319.24,139.44Z"/><path class="cls-7" d="M352.89,150.7s0-.3,0-.88,0-1.43,0-2.53c0-2.22,0-5.46-.05-9.59,0-8.25-.05-20-.09-34.26l.17.17-58.23,0h0l.2-.2c0,17.08,0,33.22,0,47.26l-.18-.18,42,.09,11.92,0,3.16,0h0l-3.13,0-11.87,0-42.17.09h-.18v-.18c0-14,0-30.18,0-47.26v-.2h.21l58.23,0h.17v.17c0,14.26-.06,26.09-.09,34.37,0,4.11,0,7.33,0,9.55,0,1.08,0,1.92,0,2.5S352.89,150.7,352.89,150.7Z"/><path class="cls-7" d="M353.35,110.45c0,.11-13.15.2-29.36.2s-29.36-.09-29.36-.2,13.14-.2,29.36-.2S353.35,110.34,353.35,110.45Z"/><path class="cls-7" d="M299.41,107a.79.79,0,1,1-.78-.78A.78.78,0,0,1,299.41,107Z"/><path class="cls-7" d="M302.27,107a.79.79,0,1,1-1.57,0,.79.79,0,0,1,1.57,0Z"/><path class="cls-7" d="M305.13,107a.79.79,0,1,1-1.57,0,.79.79,0,0,1,1.57,0Z"/><rect class="cls-5" x="188.43" y="32" width="46.01" height="32.8"/><path class="cls-11" d="M234.8,36.87c0,.11-10.38.2-23.19.2s-23.2-.09-23.2-.2,10.38-.2,23.2-.2S234.8,36.76,234.8,36.87Z"/><path class="cls-11" d="M192.18,34.48a.58.58,0,0,1-.62.54.58.58,0,0,1-.62-.54.59.59,0,0,1,.62-.55A.59.59,0,0,1,192.18,34.48Z"/><path class="cls-11" d="M194.44,34.48a.63.63,0,0,1-1.24,0,.62.62,0,0,1,1.24,0Z"/><ellipse class="cls-11" cx="196.08" cy="34.48" rx="0.62" ry="0.54"/><path class="cls-9" d="M168.9,111.56s0-.22,0-.62,0-1,0-1.78c0-1.57,0-3.84,0-6.73,0-5.78,0-14-.09-23.92l.17.18-35.62,0c-.05,0,.38-.39.2-.2h0V95.93c0,5.54,0,10.79,0,15.63l-.18-.18,25.75.09,7.27,0,1.93,0h0l-1.9,0-7.23.05-25.86.09h-.18v-.18c0-4.84,0-10.09,0-15.63V78.54h0l.2-.21,35.62,0h.18v.17c0,9.95-.07,18.22-.09,24,0,2.87,0,5.13-.05,6.69,0,.75,0,1.33,0,1.74S168.9,111.56,168.9,111.56Z"/><path class="cls-9" d="M168.83,83.42c0,.11-8,.2-17.79.2s-17.78-.09-17.78-.2,8-.21,17.78-.21S168.83,83.3,168.83,83.42Z"/><ellipse class="cls-9" cx="136.44" cy="81" rx="0.62" ry="0.55"/><path class="cls-9" d="M139.34,81a.63.63,0,1,1-.63-.54A.59.59,0,0,1,139.34,81Z"/><path class="cls-9" d="M141.61,81a.63.63,0,1,1-.62-.54A.59.59,0,0,1,141.61,81Z"/><path class="cls-9" d="M338.52,62.68s0-.22,0-.61,0-1,0-1.75c0-1.54,0-3.78,0-6.65,0-5.74-.05-14-.08-24l.16.16-51.17,0h0l.2-.2c0,11.73,0,22.91,0,33.05l-.18-.19,36.81.09,10.55.05,2.82,0h.73l.26,0h-.95l-2.78,0-10.51.05-36.93.09h-.19v-.18c0-10.14,0-21.32,0-33v-.2h.21l51.17,0h.16v.16c0,10.1-.07,18.37-.09,24.14,0,2.85,0,5.08,0,6.61,0,.74,0,1.32,0,1.72S338.52,62.68,338.52,62.68Z"/><path class="cls-9" d="M338.52,34.53c0,.11-11.46.2-25.6.2s-25.59-.09-25.59-.2,11.45-.2,25.59-.2S338.52,34.42,338.52,34.53Z"/><path class="cls-9" d="M291.13,32.12a.63.63,0,1,1-.63-.55A.6.6,0,0,1,291.13,32.12Z"/><path class="cls-9" d="M293.4,32.12a.62.62,0,1,1-.62-.55A.59.59,0,0,1,293.4,32.12Z"/><path class="cls-9" d="M295.68,32.12a.63.63,0,1,1-.62-.55A.59.59,0,0,1,295.68,32.12Z"/><rect class="cls-9" x="208.28" y="79.8" width="64.26" height="45.81"/><path class="cls-11" d="M273,86.59c0,.12-14.51.21-32.4.21s-32.39-.09-32.39-.21,14.5-.2,32.39-.2S273,86.48,273,86.59Z"/><path class="cls-11" d="M213.52,83.25a.87.87,0,1,1-.86-.76A.82.82,0,0,1,213.52,83.25Z"/><path class="cls-11" d="M216.67,83.25a.81.81,0,0,1-.86.76.77.77,0,1,1,0-1.52A.81.81,0,0,1,216.67,83.25Z"/><path class="cls-11" d="M219.83,83.25A.82.82,0,0,1,219,84a.77.77,0,1,1,0-1.52A.82.82,0,0,1,219.83,83.25Z"/><path class="cls-7" d="M75.84,170s0-.06,0-.16v-.43c0-.39,0-1,0-1.66,0-1.47,0-3.58,0-6.26,0-5.38-.06-13-.09-22.21l.17.18-30.71,0c-.05.05.38-.38.2-.19h0v8.28c0,2.71,0,5.36,0,7.94,0,5.15,0,10,0,14.49l-.17-.18,22.21.09,6.26,0,1.66,0h.43c.1,0,.15,0,.15,0H75.3l-1.63,0-6.22,0-22.32.09H45V170c0-4.47,0-9.34,0-14.49V143.45c0-.69,0-1.38,0-2.08v-2.09h0c-.18.17.25-.26.21-.21l30.71,0H76v.17c0,9.22-.07,16.91-.09,22.32,0,2.67,0,4.77-.05,6.22,0,.7,0,1.24,0,1.63,0,.17,0,.31,0,.41S75.85,170,75.84,170Z"/><path class="cls-7" d="M75.84,139.58c.08.08-6.71,7-15.17,15.42s-15.39,15.21-15.46,15.13,6.71-7,15.17-15.42S75.76,139.5,75.84,139.58Z"/><path class="cls-7" d="M75.36,169.8c-.08.08-6.85-6.63-15.13-15s-14.92-15.17-14.84-15.25,6.85,6.62,15.13,15S75.44,169.72,75.36,169.8Z"/><path class="cls-7" d="M139.87,147.51c0,.11-12.2.2-27.25.2s-27.25-.09-27.25-.2,12.19-.2,27.25-.2S139.87,147.4,139.87,147.51Z"/><path class="cls-7" d="M139.87,152.41c0,.11-12.2.2-27.25.2s-27.25-.09-27.25-.2,12.19-.2,27.25-.2S139.87,152.3,139.87,152.41Z"/><path class="cls-7" d="M139.87,157.31c0,.11-12.2.2-27.25.2s-27.25-.09-27.25-.2,12.19-.21,27.25-.21S139.87,157.19,139.87,157.31Z"/><path class="cls-7" d="M139.87,162.2c0,.12-12.2.21-27.25.21s-27.25-.09-27.25-.21,12.19-.2,27.25-.2S139.87,162.09,139.87,162.2Z"/><path class="cls-7" d="M110,142.62c0,.11-5.61.2-12.52.2S85,142.73,85,142.62s5.61-.21,12.53-.21S110,142.5,110,142.62Z"/><path class="cls-7" d="M35.46,130H70.17l88.76.16h.19v.19c0,15.14,0,31.56,0,48.6v.2H147.84l.2-.2v10.56l-.35-.35-10.07-10.07.14,0-102.3-.06h-.14V179c0-15.26,0-27.5.07-35.94,0-4.2,0-7.46,0-9.67,0-1.09,0-1.92,0-2.49s0-.84,0-.84,0,.3,0,.86,0,1.42,0,2.52c0,2.22,0,5.49,0,9.7,0,8.42,0,20.64.07,35.86l-.13-.14,102.3-.06h.09l.05.05L148,188.88l-.35.14V178.74h11.3l-.2.21c0-17,0-33.46,0-48.6l.19.19-88.63-.33-25.62-.13-6.85,0-1.77,0Z"/><rect class="cls-5" x="282.73" y="287.91" width="67.4" height="16.91"/><rect class="cls-7" x="299.38" y="293.43" width="41.08" height="5.87"/><path class="cls-7" d="M294.2,296.71a3.28,3.28,0,1,1-3.28-3.28A3.28,3.28,0,0,1,294.2,296.71Z"/><rect class="cls-7" x="289.83" y="278.69" width="53.84" height="9.15"/><rect class="cls-9" x="289.83" y="261.79" width="67.4" height="16.91"/><path class="cls-4" d="M299.85,278.23c-.11,0-.2-3.69-.2-8.23s.09-8.23.2-8.23.2,3.69.2,8.23S300,278.23,299.85,278.23Z"/><path class="cls-4" d="M296.92,278.23a79.53,79.53,0,0,1-.21-8.23,79.53,79.53,0,0,1,.21-8.23c.11,0,.2,3.69.2,8.23S297,278.23,296.92,278.23Z"/><path class="cls-4" d="M346.5,278.23c-.11,0-.2-3.69-.2-8.23s.09-8.23.2-8.23a79.53,79.53,0,0,1,.21,8.23A79.53,79.53,0,0,1,346.5,278.23Z"/><path class="cls-4" d="M343.57,278.23c-.11,0-.2-3.69-.2-8.23s.09-8.23.2-8.23.2,3.69.2,8.23S343.68,278.23,343.57,278.23Z"/><circle class="cls-3" cx="297.75" cy="283.27" r="1.63"/><circle class="cls-3" cx="338.62" cy="283.27" r="1.63"/><rect class="cls-7" x="10.83" y="197.18" width="131.88" height="89.86" rx="9.32"/><polygon class="cls-5" points="54.73 265.67 47.43 307.01 81.69 307.01 87.9 264.83 54.73 265.67"/><rect class="cls-5" x="5.6" y="197.18" width="131.88" height="89.86" rx="9.32"/><polygon class="cls-7" points="84.63 287.04 87.9 264.83 88.81 287.04 84.63 287.04"/><path class="cls-7" d="M54.91,263.38c.11,0-.72,5.52-1.85,12.28s-2.14,12.24-2.25,12.23.72-5.52,1.85-12.29S54.8,263.36,54.91,263.38Z"/><path class="cls-4" d="M75.86,239a4.33,4.33,0,1,1-4.32-4.32A4.32,4.32,0,0,1,75.86,239Z"/><path class="cls-7" d="M71.54,243.33A4.34,4.34,0,1,1,75.88,239,4.34,4.34,0,0,1,71.54,243.33Zm0-8.64a4.3,4.3,0,1,0,4.3,4.3A4.31,4.31,0,0,0,71.54,234.69Z"/><path class="cls-7" d="M38.6,223.92a8.56,8.56,0,0,0,1.34-6.06h0s0-1-1.55-3.06A12.12,12.12,0,0,0,36.69,213a12.58,12.58,0,0,0-1.76-1.28l-.34-.2h0a10.6,10.6,0,0,0-7.52-1.12A9.66,9.66,0,0,0,22,213.27a7.26,7.26,0,0,0-1.18,1.61,11.29,11.29,0,0,0-1.13,9,5.89,5.89,0,0,0,.21.59l0,.08a1.19,1.19,0,0,0,.08.2l.07.14c.07.16.13.32.21.47a9.89,9.89,0,0,0,.63,1.13,6.26,6.26,0,0,0,.86,1.17h0a6,6,0,0,0,5.31,2.09,3.43,3.43,0,0,0,1.82,1.54c1.49.34,3.93-.41,5.7-1.36s4.31-2.76,4.27-4.31a6.94,6.94,0,0,0-.27-1.71Z"/><path class="cls-9" d="M25.43,210.43a9.7,9.7,0,0,0-5.09,2.84,7.85,7.85,0,0,0-1.18,1.61,11,11,0,0,0-.53,10.5c2.28,4.67,5.64,4.55,7.16,4.34S37,223.92,37,223.92s2.95-4.16.55-8C35.45,212.59,31,209.22,25.43,210.43Z"/><path class="cls-1" d="M24.72,228.42s1,2.54,2.54,2.88,3.93-.41,5.7-1.36,4.31-2.76,4.27-4.3a6.38,6.38,0,0,0-1-3.41,8.93,8.93,0,0,0-7.13,1.13A9.52,9.52,0,0,0,24.72,228.42Z"/><g class="cls-12"><path class="cls-11" d="M29.94,213.67a5.13,5.13,0,1,1-7-2.08A5.13,5.13,0,0,1,29.94,213.67Z"/></g><g class="cls-12"><path class="cls-11" d="M20.13,227.67a6.57,6.57,0,0,0,.34-4.57,6.39,6.39,0,0,0-2.85-3.51,12.61,12.61,0,0,0,.73,5.17A9.4,9.4,0,0,0,20.13,227.67Z"/></g><g class="cls-12"><path class="cls-11" d="M38.33,217.86a6.52,6.52,0,0,1-4-2.23A5.8,5.8,0,0,1,33,211.55a14.26,14.26,0,0,1,3.83,3.25C38.32,216.83,38.33,217.86,38.33,217.86Z"/></g><path class="cls-2" d="M24.74,228.38a1.55,1.55,0,0,0,.18.6.53.53,0,0,0,.53.25c.22,0,.35-.27.45-.47a12.08,12.08,0,0,1,4.72-4.84,6,6,0,0,1,2.62-.85c.84,0,1.66.22,2.49.26a1.33,1.33,0,0,0,.63-.09c.19-.1.18-.31.14-.52a.85.85,0,0,0-.3-.49c-2.2-.91-4.94-.24-7,1a11.61,11.61,0,0,0-4.46,5.2"/><rect class="cls-5" x="112.26" y="299.53" width="75.02" height="5.29"/><path class="cls-5" d="M94.32,297.5H98a6,6,0,0,1,6,6v1.29a0,0,0,0,1,0,0H88.3a0,0,0,0,1,0,0v-1.29A6,6,0,0,1,94.32,297.5Z"/><path class="cls-7" d="M103.83,303.18a72.48,72.48,0,0,1-7.6.2,72.64,72.64,0,0,1-7.6-.2,67.88,67.88,0,0,1,7.6-.21A67.74,67.74,0,0,1,103.83,303.18Z"/><path class="cls-7" d="M96.35,297.44a9.4,9.4,0,0,1,.13,2.79,9.78,9.78,0,0,1-.27,2.77,9.39,9.39,0,0,1-.13-2.78A10,10,0,0,1,96.35,297.44Z"/><rect class="cls-7" y="304.82" width="360.79" height="10.5"/><path class="cls-13" d="M259.47,96.53a.76.76,0,0,1,0,.15v7.59a.55.55,0,0,1-.27.48l-6.38,3.67v7.27a.55.55,0,0,1-.27.48l-13.31,7.66-.09,0,0,0a.66.66,0,0,1-.28,0l-.05,0-.09,0-13.3-7.66a.56.56,0,0,1-.28-.48V92.91a.59.59,0,0,1,0-.14s0,0,0,0a.2.2,0,0,1,0-.08l0,0,.05-.07.06,0,.06,0h0l6.65-3.83a.59.59,0,0,1,.55,0l6.65,3.83h0l.06,0,.05,0,0,.07,0,0,0,.08s0,0,0,0a.34.34,0,0,1,0,.14v14.23l5.54-3.19V96.68a.77.77,0,0,1,0-.15.08.08,0,0,0,0,0,.36.36,0,0,1,0-.09l0-.05.05-.06s0,0,0-.05l.06,0h0L252,92.37a.56.56,0,0,1,.56,0l6.65,3.83.06,0s0,0,.05.05l.05.06,0,.05a.36.36,0,0,1,0,.09A.08.08,0,0,0,259.47,96.53ZM258.38,104V97.64L256.05,99l-3.22,1.85v6.31l5.55-3.19Zm-6.65,11.42v-6.32l-3.17,1.81-9,5.15v6.38Zm-25.5-21.5v21.5l12.19,7V116l-6.37-3.6h0l-.06,0a.1.1,0,0,1-.05,0h0l-.05-.06,0-.05h0a.36.36,0,0,1,0-.07l0-.07h0s0,0,0-.08,0,0,0-.06h0V97.06l-3.21-1.85-2.33-1.34Zm6.1-4.15-5.54,3.19,5.54,3.19,5.54-3.19-5.54-3.19Zm2.88,19.91,3.21-1.85V93.87l-2.32,1.34-3.22,1.85V111Zm17.07-16.14-5.54,3.19,5.54,3.19,5.54-3.19Zm-.55,7.34L248.51,99l-2.33-1.34V104l3.22,1.85,2.33,1.34ZM239,115.06l8.12-4.64,4.07-2.32-5.54-3.19-6.37,3.67-5.81,3.34Z"/></svg>