<svg id="Layer_1" data-name="Layer 1" xmlns="http://www.w3.org/2000/svg" viewBox="0 0 467.56 277.78"><defs><style>.cls-1{fill:#ececec;}.cls-2{fill:#e1e1e1;}.cls-3{fill:#fff;}.cls-4{fill:#f5f5f5;}.cls-5{fill:#1a2e35;}.cls-6{fill:#375a64;}.cls-7{fill:#ff735d;}.cls-8{fill:#ffbf9d;}.cls-9{fill:#ff9a6c;}.cls-10{opacity:0.3;}.cls-11{fill:#c27460;}.cls-12{fill:#7c4235;}</style></defs><path class="cls-1" d="M2.37,216.67s-3.54,1.43.55,9A100.18,100.18,0,0,0,9.8,236.86s.74,1.75-.75,2.07-4.78-.13-5.39,1.71.78,3.66,3.6,5.15,8.9,5,9.45,5.31,1.09,1.13.11,1.5-8.33,1.34-7.67,4.81,9.22,6.33,10.15,6.66,1.16.72,1.1,1.22-2.57.6-4.65,1-4.43,1.14-3.88,3.11,5.68,6,17.9,6.88l5.69,0,3-4.88c5.71-10.84,5-17.33,3.63-18.84s-3.29.08-4.69,1.66-2.81,3.65-3.28,3.44-.66-.62-.45-1.58,2.3-9.75-.29-12.14-7.3,3.34-8.13,4S24,247.63,24,247s.26-7.64.48-10.83S24,230.86,22,230.4s-3.26,2.58-4.31,3.67-2.15-.46-2.15-.46a99.77,99.77,0,0,0-5.89-11.78c-4.23-7.45-7.39-5.13-7.39-5.13"/><path class="cls-2" d="M35.79,277.6c-3.08-5.48-8.39-15.32-13-23.74S14,237.81,11,232.31c-1.52-2.74-2.76-5-3.62-6.5-.43-.77-.76-1.36-1-1.77l-.26-.47L6,223.41l.1.15.27.46c.23.41.57,1,1,1.75.88,1.53,2.13,3.74,3.67,6.48,3.08,5.49,7.28,13.1,11.88,21.52s9.9,18.27,13,23.77"/><path class="cls-2" d="M8.24,241.44a2.31,2.31,0,0,1,.4.1c.26.08.62.19,1.07.35.89.3,2.12.75,3.47,1.27l3.43,1.34,1.05.4c.24.1.38.15.37.17a3,3,0,0,1-.4-.1c-.25-.08-.61-.19-1.06-.35-.89-.31-2.11-.78-3.46-1.3L9.67,242l-1.05-.39A2.24,2.24,0,0,1,8.24,241.44Z"/><path class="cls-2" d="M18.41,244.69s.77-2.58,1.83-5.74,1.94-5.7,2-5.68-.77,2.58-1.82,5.74S18.46,244.71,18.41,244.69Z"/><path class="cls-2" d="M24.9,258a1.73,1.73,0,0,1,.22-.36c.18-.25.4-.57.65-.94.55-.79,1.3-1.89,2.09-3.14s1.46-2.39,1.94-3.22l.57-1a2.39,2.39,0,0,1,.23-.36,1.75,1.75,0,0,1-.17.39c-.12.24-.29.59-.52,1-.46.85-1.11,2-1.9,3.26s-1.56,2.34-2.13,3.11c-.29.39-.53.7-.7.91A2.65,2.65,0,0,1,24.9,258Z"/><path class="cls-2" d="M15.05,257h.39l1.06.05,3.47.25c1.36.11,2.58.22,3.47.31l1,.11c.25,0,.39.05.38.07h-.38l-1.06-.06c-.89-.05-2.12-.14-3.47-.25l-3.47-.3-1-.11A2.77,2.77,0,0,1,15.05,257Z"/><path class="cls-2" d="M19.29,269.46h.5l1.35.07c1.14.06,2.72.16,4.46.28l4.45.34,1.35.13.49.06a1.62,1.62,0,0,1-.5,0L30,270.28,25.59,270c-1.74-.12-3.32-.24-4.45-.34l-1.35-.12A4.48,4.48,0,0,1,19.29,269.46Z"/><path class="cls-2" d="M31.6,270.24a2.38,2.38,0,0,1,.27-.46c.2-.32.46-.73.78-1.22.65-1,1.56-2.46,2.51-4.06s1.78-3.08,2.37-4.15l.71-1.27a3.29,3.29,0,0,1,.27-.46,3.75,3.75,0,0,1-.21.49c-.15.31-.37.75-.66,1.3-.56,1.08-1.37,2.57-2.33,4.18s-1.87,3-2.56,4c-.34.5-.63.91-.83,1.19A2.87,2.87,0,0,1,31.6,270.24Z"/><rect class="cls-3" x="27.12" y="5.78" width="55.08" height="50.14" rx="4.02"/><path class="cls-1" d="M31.25,5.78H78.39a3.8,3.8,0,0,1,3.8,3.8v4.73a0,0,0,0,1,0,0H27.12a0,0,0,0,1,0,0V9.9a4.13,4.13,0,0,1,4.13-4.13Z"/><path class="cls-3" d="M35.05,10.88A1.35,1.35,0,1,1,33.7,9.61,1.32,1.32,0,0,1,35.05,10.88Z"/><path class="cls-3" d="M38.73,10.88a1.35,1.35,0,1,1-1.35-1.27A1.32,1.32,0,0,1,38.73,10.88Z"/><path class="cls-3" d="M42.41,10.88a1.35,1.35,0,1,1-1.35-1.27A1.32,1.32,0,0,1,42.41,10.88Z"/><path class="cls-1" d="M78.18,55.92s.18,0,.52-.06a3.78,3.78,0,0,0,1.44-.5,4,4,0,0,0,1.64-1.8A4.14,4.14,0,0,0,82.13,52c0-.56,0-1.18,0-1.82,0-5.16,0-12.61-.06-21.81,0-4.6,0-9.65,0-15.06V11.29c0-.68,0-1.4,0-2A3.87,3.87,0,0,0,78.54,6c-.34,0-.71,0-1.07,0H31.14a3.86,3.86,0,0,0-3.7,2.83A3.91,3.91,0,0,0,27.3,10V24c0,6.63,0,13,0,19.11V52a3.88,3.88,0,0,0,2,3.33,3.94,3.94,0,0,0,1.93.45h2.05l15.06,0,21.81.06,5.93,0,1.54,0,.53,0-.53,0H76.11l-5.93,0L48.37,56l-15.06,0H31.26a4.21,4.21,0,0,1-2.07-.49A4.15,4.15,0,0,1,27,52q0-4.34,0-8.9C27,37,27,30.62,27,24q0-5,0-10.1V10a4.36,4.36,0,0,1,.16-1.34,4.19,4.19,0,0,1,4-3.08H77.47c.36,0,.72,0,1.1,0a4.11,4.11,0,0,1,1.1.26A4.17,4.17,0,0,1,82.3,9.19c.09.74,0,1.41,0,2.1s0,1.37,0,2.05c0,5.41,0,10.46,0,15.06,0,9.2,0,16.65-.06,21.81,0,.65,0,1.25,0,1.83a4.08,4.08,0,0,1-2.08,3.39,3.91,3.91,0,0,1-1.47.47A4.05,4.05,0,0,1,78.18,55.92Z"/><rect class="cls-4" x="31.14" y="18.15" width="46.91" height="33.37" rx="3.03"/><path class="cls-1" d="M35.07,49.44l11.46-16.3a1.29,1.29,0,0,1,2.07-.07l7.86,9.76a1.31,1.31,0,0,0,1.91.12L63,38.52a1.3,1.3,0,0,1,1.89.1l9,10.73a1.3,1.3,0,0,1-1,2.13H36.14A1.3,1.3,0,0,1,35.07,49.44Z"/><path class="cls-1" d="M61.19,28.31A4,4,0,1,1,57.88,25,4,4,0,0,1,61.19,28.31Z"/><rect class="cls-3" x="429.16" y="132.31" width="38.25" height="34.82" rx="4.02"/><path class="cls-2" d="M433.29,132.31H463.6a3.8,3.8,0,0,1,3.8,3.8v2.12a0,0,0,0,1,0,0H429.16a0,0,0,0,1,0,0v-1.8A4.13,4.13,0,0,1,433.29,132.31Z"/><path class="cls-3" d="M434.67,135.85a.94.94,0,1,1-.94-.88A.91.91,0,0,1,434.67,135.85Z"/><path class="cls-3" d="M437.22,135.85a.94.94,0,1,1-.94-.88A.91.91,0,0,1,437.22,135.85Z"/><path class="cls-3" d="M439.78,135.85a.94.94,0,1,1-.94-.88A.91.91,0,0,1,439.78,135.85Z"/><path class="cls-2" d="M463.39,167.13a4.91,4.91,0,0,0,1.37-.29,4,4,0,0,0,1.41-.91,4.06,4.06,0,0,0,1.08-2,6.84,6.84,0,0,0,.08-1.38c0-.49,0-1,0-1.53,0-1.08,0-2.24,0-3.49,0-2.51,0-5.35,0-8.5s0-6.6,0-10.3c0-.92,0-1.89,0-2.81a3.82,3.82,0,0,0-1.24-2.44c-1.43-1.44-3.68-.91-5.71-1h-27.1a3.83,3.83,0,0,0-3.73,2.94,6.43,6.43,0,0,0-.11,1.71c0,2.34,0,4.65,0,6.91,0,4.53,0,8.91,0,13.07v6.08a3.89,3.89,0,0,0,3.4,3.76c3.66.07,7.14,0,10.28.05l14.92.06,4.05,0,1.06,0a2.45,2.45,0,0,1,.36,0H463l-1.06,0-4.05,0-14.92.06c-3.16,0-6.58.05-10.32,0a4.16,4.16,0,0,1-3.67-4c0-2,0-4,0-6.09,0-4.16,0-8.54,0-13.07,0-2.26,0-4.57,0-6.91a7.31,7.31,0,0,1,.13-1.79,4.11,4.11,0,0,1,.81-1.65,4.21,4.21,0,0,1,3.26-1.56h30.18a4.18,4.18,0,0,1,4.17,3.74c.05,1,0,1.9,0,2.84,0,3.7,0,7.15,0,10.3s0,6,0,8.5c0,1.25,0,2.41,0,3.49,0,.53,0,1,0,1.53a7.17,7.17,0,0,1-.09,1.41,4.13,4.13,0,0,1-1.14,2,4,4,0,0,1-1.47.91,3.81,3.81,0,0,1-1,.22Z"/><rect class="cls-4" x="431.95" y="140.9" width="32.58" height="23.17" rx="3.03"/><path class="cls-1" d="M434.68,162.62l8-11.31a.89.89,0,0,1,1.43-.05l5.47,6.78a.89.89,0,0,0,1.32.08l3.2-3.07a.91.91,0,0,1,1.32.07l6.27,7.44A.9.9,0,0,1,461,164H435.42A.9.9,0,0,1,434.68,162.62Z"/><path class="cls-1" d="M452.82,148a2.77,2.77,0,1,1-2.3-2.3A2.77,2.77,0,0,1,452.82,148Z"/><rect class="cls-3" x="0.18" y="138.14" width="49.45" height="53.84" rx="4.02"/><path class="cls-2" d="M4.31,138.14H45.82a3.8,3.8,0,0,1,3.8,3.8v5.36a0,0,0,0,1,0,0H.18a0,0,0,0,1,0,0v-5A4.13,4.13,0,0,1,4.31,138.14Z"/><path class="cls-3" d="M8.69,143.61A1.41,1.41,0,0,1,7.24,145a1.37,1.37,0,1,1,0-2.73A1.41,1.41,0,0,1,8.69,143.61Z"/><path class="cls-3" d="M12.64,143.61a1.45,1.45,0,1,1-1.45-1.36A1.41,1.41,0,0,1,12.64,143.61Z"/><path class="cls-3" d="M16.59,143.61a1.45,1.45,0,1,1-1.45-1.36A1.41,1.41,0,0,1,16.59,143.61Z"/><path class="cls-2" d="M45.61,192l.51-.05a3.88,3.88,0,0,0,1.41-.48,4,4,0,0,0,1.64-1.75,3.9,3.9,0,0,0,.38-1.49c0-.55,0-1.15,0-1.78,0-5.06,0-12.37-.06-21.39,0-4.52,0-9.47,0-14.78,0-2.65,0-5.4,0-8.22a3.86,3.86,0,0,0-2.12-3.32,4.23,4.23,0,0,0-2.06-.41H43.05l-38.85,0a3.85,3.85,0,0,0-3.68,2.73,9.12,9.12,0,0,0-.17,2.47V156c0,6.5,0,12.77,0,18.75,0,3,0,5.89,0,8.72v4.18A3.94,3.94,0,0,0,1.86,191a3.76,3.76,0,0,0,1.73.74,15.29,15.29,0,0,0,1.92.05H16.37l21.39.05,5.82,0,1.51,0h.52s-.18,0-.52,0l-1.51,0-5.82,0-21.39.06H5.51a16.23,16.23,0,0,1-2-.06,3.91,3.91,0,0,1-1.86-.79A4.2,4.2,0,0,1,0,187.61c0-1.37,0-2.76,0-4.18q0-4.25,0-8.72c0-6,0-12.25,0-18.75V142.25A4.44,4.44,0,0,1,.18,141a4.22,4.22,0,0,1,4-3l38.85,0h2.23a4.32,4.32,0,0,1,2.2.45A4.15,4.15,0,0,1,49.77,142v8.23c0,5.31,0,10.26,0,14.78,0,9,0,16.33-.06,21.39,0,.63,0,1.22,0,1.79a3.89,3.89,0,0,1-.41,1.53A4,4,0,0,1,46.12,192,2.79,2.79,0,0,1,45.61,192Z"/><path class="cls-4" d="M23,169.08,10.55,156.46a17.61,17.61,0,0,1,5.14-3.52,17.71,17.71,0,1,1-8.85,23.43,17.37,17.37,0,0,1-.77-2Z"/><path class="cls-4" d="M20.11,168.48,5.36,172.9a15.39,15.39,0,0,1,3.8-15.25Z"/><rect class="cls-4" x="261.92" width="39.5" height="39.5" rx="4.84"/><polygon class="cls-3" points="268.03 20.32 272.01 16.34 279.69 23.16 292.5 10.3 296.19 14.28 279.12 30.83 268.03 20.32"/><path class="cls-1" d="M400.88,30.85l-.48-27h.48A27,27,0,1,1,375.11,38.9Z"/><path class="cls-1" d="M398.12,28.91,375,36.25A23.46,23.46,0,0,1,397,4.53h.62Z"/><path class="cls-5" d="M456.56,277.6c0,.1-100.24.18-223.87.18S8.8,277.7,8.8,277.6s100.22-.17,223.89-.17S456.56,277.5,456.56,277.6Z"/><rect class="cls-3" x="103.15" y="17.32" width="69.74" height="63.49" rx="4.02"/><path class="cls-2" d="M107.28,17.32h61.81a3.8,3.8,0,0,1,3.8,3.8v7a0,0,0,0,1,0,0H103.15a0,0,0,0,1,0,0V21.45A4.13,4.13,0,0,1,107.28,17.32Z"/><ellipse class="cls-3" cx="111.48" cy="23.78" rx="1.71" ry="1.61"/><path class="cls-3" d="M117.85,23.78a1.71,1.71,0,1,1-1.71-1.61A1.66,1.66,0,0,1,117.85,23.78Z"/><ellipse class="cls-3" cx="120.8" cy="23.78" rx="1.71" ry="1.61"/><path class="cls-3" d="M110.82,33.83V72.66c0-.36,56.06,0,56.06,0"/><path class="cls-5" d="M166.88,72.66a1.27,1.27,0,0,1-.25,0h-.72l-2.76,0H153l-33.55,0-4.85,0-2.37,0c-.4,0-.79,0-1.17,0h-.14c.4,0-.32-.21-.25-.16v-.94c0-3.09,0-6.07,0-8.91,0-5.68,0-10.79,0-15.09s0-7.74.06-10.17c0-1.18,0-2.11,0-2.76,0-.3,0-.54,0-.72a1.1,1.1,0,0,1,0-.24,1.1,1.1,0,0,1,0,.24c0,.18,0,.42,0,.72,0,.65,0,1.58,0,2.76,0,2.43,0,5.9.06,10.17s0,9.41,0,15.09c0,2.84,0,5.82,0,8.91v.94c.06.06-.64-.16-.23-.17h.1l.15,0c.4,0,.79,0,1.19,0l2.37,0,4.86,0c13.1,0,25,.06,33.55.13l10.17.11,2.76.05.72,0Z"/><rect class="cls-6" x="116.53" y="52.72" width="11.96" height="15.58"/><rect class="cls-6" x="132.77" y="44.39" width="11.96" height="23.91"/><rect class="cls-6" x="149.02" y="37.41" width="11.96" height="30.89"/><path class="cls-5" d="M168.87,80.81a4.78,4.78,0,0,0,.67-.07A4.15,4.15,0,0,0,171.3,80a4,4,0,0,0,1.51-2.69c.05-1.25,0-2.71,0-4.35,0-6.58,0-16.08-.06-27.82,0-5.87,0-12.3,0-19.2V22a7.05,7.05,0,0,0-.07-1.31A3.86,3.86,0,0,0,169,17.49H107.18a3.85,3.85,0,0,0-2.85,1.26,3.94,3.94,0,0,0-1,2.94v6.6q0,6.54,0,12.88c0,8.45,0,16.6,0,24.37V76.89a3.83,3.83,0,0,0,.92,2.41,3.9,3.9,0,0,0,2.19,1.29,6.23,6.23,0,0,0,1.3.07h3.94l19.2,0,27.81,0,7.57,0,2,0h.67s-.23,0-.67,0l-2,0-7.57,0-27.81.06-19.2,0h-3.94a6.87,6.87,0,0,1-1.35-.07A4.21,4.21,0,0,1,104,79.5a4.15,4.15,0,0,1-1-2.6c0-3.68,0-7.47,0-11.35,0-7.77,0-15.92,0-24.37q0-6.33,0-12.88V21.7a4.32,4.32,0,0,1,1.1-3.18,4.2,4.2,0,0,1,3.11-1.37h50.5l11.35,0A4.17,4.17,0,0,1,173,20.6,7.85,7.85,0,0,1,173,22v3.93c0,6.9,0,13.33,0,19.2,0,11.74-.05,21.24-.06,27.82,0,1.64,0,3.09-.05,4.37A4,4,0,0,1,171.34,80a3.84,3.84,0,0,1-1.8.77,2.63,2.63,0,0,1-.5,0Z"/><path class="cls-3" d="M433.36,111.76l-.89-6.21a20.87,20.87,0,1,1,34.38-20,20.86,20.86,0,0,1-28,23.94h0Z"/><polygon class="cls-7" points="435.37 89.58 438.52 86.44 444.58 91.83 454.72 81.66 457.64 84.81 444.13 97.9 435.37 89.58"/><path class="cls-5" d="M433.36,111.76l.37-.17,1-.45,4-1.71,0,.15h0a.11.11,0,0,1,0-.12.1.1,0,0,1,.1,0,21,21,0,0,0,10,1.27,20.48,20.48,0,0,0,3.14-.62c.53-.14,1.06-.36,1.6-.54a11.86,11.86,0,0,0,1.62-.68,20.32,20.32,0,0,0,6.12-4.35,20.57,20.57,0,0,0-4.09-32,20,20,0,0,0-9.42-3,20.57,20.57,0,0,0-16.58,6.67,20.76,20.76,0,0,0,1.32,29.35c.27,2,.47,3.56.61,4.63.07.51.12.91.16,1.2s0,.42,0,.42,0-.13-.07-.39-.1-.67-.19-1.17c-.16-1.07-.4-2.62-.72-4.63l0,.05a20.87,20.87,0,0,1-5.7-8.44,21.07,21.07,0,0,1,11.63-26.51,20.88,20.88,0,0,1,9.49-1.58,20.32,20.32,0,0,1,9.61,3,20.82,20.82,0,0,1,4.07,3.2,21,21,0,0,1,4.6,22.31,21,21,0,0,1-4.55,7.1,20.73,20.73,0,0,1-6.23,4.39,12.1,12.1,0,0,1-1.64.68c-.56.18-1.09.39-1.64.53a20.55,20.55,0,0,1-13.25-.76l.08-.15h0a.08.08,0,0,1,0,.12l0,0-4.11,1.63-1.05.41Z"/><path class="cls-3" d="M37.46,120.43l.15-6.2c5.38-6.19,7.24-15.74,1.78-26-19-20.17-47.74.37-34.78,24.91,8.7,9.24,19.37,10,27.21,5.74h0Z"/><path class="cls-5" d="M37.46,120.43l-.38-.12L36,120l-4.16-1.2,0,.13h0a.08.08,0,0,0,0-.12.1.1,0,0,0-.1,0,20.83,20.83,0,0,1-9.65,2.43A21.66,21.66,0,0,1,19,121c-.54-.08-1.09-.23-1.64-.34a11.6,11.6,0,0,1-1.67-.47A20.54,20.54,0,0,1,5.83,88.2a20.92,20.92,0,0,1,3.55-3.55,20,20,0,0,1,8.91-4.05,20.33,20.33,0,0,1,9.33.43,20.55,20.55,0,0,1,9.9,33.17c0,2-.05,3.55-.06,4.61,0,.52,0,.91,0,1.2s0,.42,0,.42,0-.12,0-.39,0-.67.05-1.17c0-1.07.09-2.63.16-4.64l0,0a20.42,20.42,0,0,0,4.6-9A20.81,20.81,0,0,0,27.73,80.65a20.56,20.56,0,0,0-9.51-.44,21,21,0,0,0-4.76,1.47,21.63,21.63,0,0,0-8,6.27A21.19,21.19,0,0,0,3,92.27a20.82,20.82,0,0,0,5.95,24.58,20.52,20.52,0,0,0,6.65,3.59,11.49,11.49,0,0,0,1.69.47c.57.11,1.11.26,1.67.33a22.22,22.22,0,0,0,3.2.23,20.81,20.81,0,0,0,9.73-2.54l-.1-.13h0a.09.09,0,0,0,0,.12l0,0L36,120.07l1.08.28Z"/><path class="cls-5" d="M28.91,99.16a2.6,2.6,0,0,0,3.68,3.68A2.6,2.6,0,0,0,28.91,99.16Z"/><path class="cls-5" d="M20.16,99.16a2.6,2.6,0,0,0,3.68,3.68A2.6,2.6,0,0,0,20.16,99.16Z"/><path class="cls-5" d="M11.41,99.16a2.6,2.6,0,0,0,3.68,3.68A2.6,2.6,0,0,0,11.41,99.16Z"/><path class="cls-7" d="M131.22,174.78l-13.31-3.59-2.65,12.05-6.64-18.17c-3.1-8.68-7.34-11.67-10.26-12.48L97.3,154l2.8,48L109,213c4.15,5.16,12.53,4.15,14.92-2C128.88,198.2,130.57,178.68,131.22,174.78Z"/><path class="cls-5" d="M37.48,277.42h66.58l-7-47.81-42.43-3s-7.32,7.18-9.75,15.6S37.48,277.42,37.48,277.42Z"/><path class="cls-5" d="M48.67,118.84c1.58-14.18,4.67-29.79,24.88-29,0,0,15.23.53,20.07,11.35,2.63,5.86,1.89,28.12,3.09,46.46l3,23.55-61.14-9.44S47.7,127.66,48.67,118.84Z"/><path class="cls-8" d="M76.42,95.44l-1.3-1.16-13.45,5.94A3.81,3.81,0,0,0,58.2,104l3.07,45.12c.08,3-.72,4.9,1.17,7.24l13,15.6c4.56,5.62,3.74-7.06,7-13.52.22-.46-.88-2.08-.81-2.39s.15-.67.17-1c.28-3.59.21-6.69.21-6.69.11-3.93.14-5.55.14-5.51s8.32-1.23,10.22-12c.95-5.36.5-12.69-.05-19.9C91.58,101,84.45,95.17,76.42,95.44Z"/><path class="cls-5" d="M76.52,119.17a1.38,1.38,0,0,1-1.36,1.38,1.34,1.34,0,0,1-1.41-1.28,1.4,1.4,0,0,1,1.36-1.38A1.33,1.33,0,0,1,76.52,119.17Z"/><path class="cls-5" d="M89.9,119a1.39,1.39,0,0,1-1.36,1.38,1.32,1.32,0,0,1-1.41-1.28,1.37,1.37,0,0,1,1.36-1.37A1.33,1.33,0,0,1,89.9,119Z"/><path class="cls-5" d="M91,113.85c-.17.18-1.21-.62-2.7-.64s-2.61.71-2.76.52.1-.4.58-.74a3.83,3.83,0,0,1,2.22-.64,3.65,3.65,0,0,1,2.15.73C91,113.44,91.1,113.77,91,113.85Z"/><path class="cls-5" d="M75.89,114.5c-.2.16-1.15-.74-2.63-.91s-2.66.43-2.8.23.14-.39.66-.68a3.83,3.83,0,0,1,2.27-.41,3.67,3.67,0,0,1,2.06,1C75.86,114.09,76,114.43,75.89,114.5Z"/><path class="cls-5" d="M81.45,125.19a9.81,9.81,0,0,1,2.44-.4c.38,0,.74-.1.81-.36a2,2,0,0,0-.24-1.13l-1.07-2.93c-1.5-4.16-2.57-7.58-2.41-7.64s1.52,3.27,3,7.43c.36,1,.71,2,1,2.94a2.22,2.22,0,0,1,.18,1.5,1,1,0,0,1-.64.55,2.73,2.73,0,0,1-.65.08A10.39,10.39,0,0,1,81.45,125.19Z"/><path class="cls-9" d="M82.18,142.88a27.57,27.57,0,0,1-14.43-4.12s3.52,7.56,14.37,6.73Z"/><path class="cls-5" d="M77.12,108.64c-.19.39-1.65,0-3.42,0s-3.23.31-3.41-.08c-.09-.19.2-.54.82-.86a5.91,5.91,0,0,1,5.21,0C76.92,108.1,77.21,108.46,77.12,108.64Z"/><path class="cls-5" d="M90.59,107.45c-.27.34-1.29,0-2.53-.07s-2.29.19-2.52-.17c-.11-.18.06-.51.53-.83a3.49,3.49,0,0,1,2.06-.52,3.63,3.63,0,0,1,2,.72C90.57,106.94,90.71,107.29,90.59,107.45Z"/><path class="cls-5" d="M59.09,123s7.72,2.12,11.42-16.87c1.27-6.49,7.07-11.91,7.07-11.91l-2.45-.65S60.21,98.29,60,98.49s-3.54,7.91-3.54,7.91Z"/><path class="cls-8" d="M61,122.21c0-.8-.89-2.72-1.68-2.86-2.12-.37-6-.26-6.08,5.14-.18,7.37,7.26,6,7.28,5.82S60.91,125,61,122.21Z"/><path class="cls-9" d="M58.29,127.46s-.14.08-.35.18a1.33,1.33,0,0,1-1,0,3.19,3.19,0,0,1-1.4-2.89,4.28,4.28,0,0,1,.4-1.83,1.49,1.49,0,0,1,1-1,.65.65,0,0,1,.75.37c.1.21,0,.36.09.37s.16-.12.11-.42a.81.81,0,0,0-.28-.47,1,1,0,0,0-.71-.21,1.83,1.83,0,0,0-1.37,1.11,4.26,4.26,0,0,0-.49,2c0,1.49.74,2.9,1.79,3.23a1.39,1.39,0,0,0,1.19-.17C58.27,127.64,58.31,127.47,58.29,127.46Z"/><path class="cls-5" d="M64.15,119.2a9.18,9.18,0,0,0,1.1-.26,6.59,6.59,0,0,0,2.57-1.61,9.36,9.36,0,0,0,1.32-1.64,13.47,13.47,0,0,0,1-2.19,45.6,45.6,0,0,0,1.41-5.41,55.21,55.21,0,0,1,1.52-5.4,30.13,30.13,0,0,1,1.78-4.23,22,22,0,0,1,1.6-2.64c.21-.3.39-.52.51-.67a2.17,2.17,0,0,1,.19-.23,2,2,0,0,1-.16.25c-.1.16-.28.39-.47.69A25.56,25.56,0,0,0,75,98.52a32.68,32.68,0,0,0-1.73,4.22c-.55,1.63-1,3.46-1.5,5.39a45,45,0,0,1-1.43,5.43,12,12,0,0,1-1.08,2.21,8.85,8.85,0,0,1-1.35,1.66A6.44,6.44,0,0,1,65.27,119,4.22,4.22,0,0,1,64.15,119.2Z"/><path class="cls-6" d="M55.12,151a1.8,1.8,0,0,1-.09-.36c-.06-.26-.13-.6-.22-1l-.8-4,.18,0q.08.4.15.87v0l.17.33-.19.07A70.88,70.88,0,0,1,51.56,135a73.34,73.34,0,0,1-.7-7.65,35.63,35.63,0,0,1,.45-8.43,13.59,13.59,0,0,1,1.23-3.39,18.37,18.37,0,0,1,2-2.9c1.44-1.78,3-3.32,4.43-4.85l7.65-8,5.18-5.4,1.42-1.45.37-.38.14-.12a.54.54,0,0,1-.11.15l-.35.39c-.33.36-.79.87-1.38,1.5l-5.1,5.48L59.14,108c-1.42,1.54-3,3.08-4.4,4.84a14.61,14.61,0,0,0-3.1,6.16,35.32,35.32,0,0,0-.45,8.35,74.06,74.06,0,0,0,3.31,19.38l-.18.08-.16-.33v0h0c0-.31-.09-.6-.14-.87l.18,0c.3,1.71.54,3,.71,4,.07.45.13.79.18,1.05A2.4,2.4,0,0,1,55.12,151Z"/><path class="cls-6" d="M55.21,132.13A3,3,0,1,0,58.14,129,3,3,0,0,0,55.21,132.13Z"/><path class="cls-5" d="M99.75,164.28a4,4,0,0,1,.11.69c0,.52.13,1.19.21,2,.2,1.75.37,4.28.53,7.41.33,6.27.32,14.94,0,24.5s-.57,18.21-.49,24.47c0,3.13.1,5.67.18,7.42q0,1.25.06,2a4.86,4.86,0,0,1,0,.71,2.83,2.83,0,0,1-.1-.7c0-.52-.1-1.18-.17-2-.14-1.75-.26-4.29-.34-7.42-.19-6.27,0-14.94.32-24.5s.38-18.2.16-24.46c-.12-3.13-.23-5.66-.36-7.41,0-.83-.08-1.5-.11-2A3.1,3.1,0,0,1,99.75,164.28Z"/><path class="cls-3" d="M49.78,167.75l7.44,58.82,40.26,2.89,2.6,1.33-2.65-48.61L83.45,149l-1.4-.86s-1.18,9.82-5,9.66c-2.58-.11-12.32-4.74-14.46-6.18l-2.15-6.25Z"/><path class="cls-7" d="M41.22,237.84l8.56-19.63-8.29-62.84,14.43-6.05,4.73-5.1S65,160.43,66.41,166.1s5.29,18.17,7,29.36S72.93,227.84,71.2,235s-8.78,42.6-8.78,42.6H30.11S35.33,250.26,41.22,237.84Z"/><path class="cls-7" d="M82.18,144.61l3.42,3.49,12.76,4.49s3.76,14.71,3.9,19.24-.06,54.86,0,57.22,9,46.37,8.32,48.37h-8.74s-4.7-36.16-5-45.62S95.37,199.09,93,187.72s-11-39.33-11-39.33Z"/><path class="cls-5" d="M97.22,237.07a1,1,0,0,1,0-.23c0-.19,0-.41,0-.69,0-.65,0-1.54,0-2.66,0-2.35-.05-5.67-.1-9.77-.07-8.24-.12-19.64-.32-32.22,0-1.57-.07-3.12-.13-4.65s-.26-3-.42-4.49c-.34-3-.67-5.79-1-8.49s-.76-5.25-1.25-7.62a32.41,32.41,0,0,0-2-6.37,84,84,0,0,0-4.42-8.69l-1.35-2.28-.35-.6a1,1,0,0,1-.11-.21.94.94,0,0,1,.15.18l.4.57c.33.51.82,1.26,1.42,2.24a74.14,74.14,0,0,1,4.58,8.65,32.44,32.44,0,0,1,2.13,6.42c.51,2.38.92,5,1.3,7.65s.72,5.55,1.06,8.5c.16,1.47.38,3,.43,4.52s.09,3.09.13,4.66c.21,12.59.19,24,.18,32.23,0,4.09,0,7.42-.06,9.77,0,1.12,0,2,0,2.66,0,.28,0,.5,0,.69A.72.72,0,0,1,97.22,237.07Z"/><path class="cls-5" d="M73.24,218.92a3.19,3.19,0,0,1-.14-.71c-.07-.46-.15-1.15-.24-2-.17-1.78-.37-4.35-.42-7.54,0-1.59,0-3.34,0-5.21a22.71,22.71,0,0,0-.93-5.83,95.76,95.76,0,0,0-5-12.77c-2-4.43-4.15-8.59-6.1-12.35A50.43,50.43,0,0,1,57.9,167a46.15,46.15,0,0,1-1.46-5c-.73-3.1-1.16-5.65-1.44-7.41-.14-.88-.23-1.57-.29-2a3.23,3.23,0,0,1-.06-.72,3.85,3.85,0,0,1,.16.7c.1.51.22,1.18.38,2,.34,1.75.82,4.28,1.6,7.36a50.38,50.38,0,0,0,1.5,5,53.92,53.92,0,0,0,2.63,5.38c2,3.75,4.09,7.91,6.14,12.36a93.12,93.12,0,0,1,5,12.85,22.74,22.74,0,0,1,.9,5.95c-.08,1.87-.12,3.61-.11,5.2,0,3.18.14,5.75.26,7.52.06.85.11,1.53.14,2A5.52,5.52,0,0,1,73.24,218.92Z"/><path class="cls-5" d="M100.48,161.52a2.91,2.91,0,0,1,.35.6c.23.39.52,1,.88,1.79a35.83,35.83,0,0,1,2.18,7,53.06,53.06,0,0,1,1,10.81c0,4.1-.33,8.59-.74,13.28-.87,9.39-1.42,17.89-1.6,24.07-.11,3.08-.18,5.58-.21,7.3,0,.83,0,1.49-.06,2a3.15,3.15,0,0,1-.06.69,4.67,4.67,0,0,1,0-.69c0-.51,0-1.17,0-2,0-1.73,0-4.23,0-7.31.09-6.18.58-14.72,1.45-24.1.41-4.69.74-9.17.78-13.24a55.34,55.34,0,0,0-.93-10.74,39.81,39.81,0,0,0-2-7c-.32-.8-.58-1.42-.78-1.83A4.81,4.81,0,0,1,100.48,161.52Z"/><path class="cls-9" d="M76.39,127.82a4.34,4.34,0,0,0-.46,2.52,2.1,2.1,0,0,0,.5,1.37,1.78,1.78,0,0,0,1.29.47,3.6,3.6,0,0,0,1.36-.35,4.85,4.85,0,0,0,1.84-2.35C79.73,129.07,77.64,128.22,76.39,127.82Z"/><path class="cls-5" d="M79.31,131.7a1.92,1.92,0,0,1-1.66.6,2.42,2.42,0,0,1-.89-.26,1.74,1.74,0,0,1-.76-.78,2.38,2.38,0,0,1-.25-1.16,6.43,6.43,0,0,1,.14-1.22,4.91,4.91,0,0,1,.34-1.13l.07-.14.14,0c1.29.48,2.42.92,3.22,1.24a6.71,6.71,0,0,1,1.26.58,6.18,6.18,0,0,1-1.34-.36c-.81-.27-2-.66-3.24-1.13l.2-.09a6.16,6.16,0,0,0-.31,1,3.6,3.6,0,0,0,.06,2.17,1.72,1.72,0,0,0,1.39.93,2.72,2.72,0,0,0,1.2-.16A4.19,4.19,0,0,1,79.31,131.7Z"/><rect class="cls-3" x="114.7" y="102.29" width="231.38" height="175.31" rx="10.41"/><path class="cls-2" d="M125,102.29H335.44A10.72,10.72,0,0,1,346.17,113V126a0,0,0,0,1,0,0H114.7a0,0,0,0,1,0,0V112.54A10.25,10.25,0,0,1,125,102.29Z"/><path class="cls-5" d="M335.67,277.6l.52,0,.64-.05.88-.14c.33-.08.7-.17,1.1-.29a9.71,9.71,0,0,0,1.28-.51,10.28,10.28,0,0,0,2.85-2,10.08,10.08,0,0,0,2.39-3.68l.22-.58c.06-.2.1-.4.16-.61a10.35,10.35,0,0,0,.24-1.28,25.4,25.4,0,0,0,.07-2.79c0-3.87,0-8.34,0-13.37,0-20.13,0-49.26-.06-85.24q0-13.5,0-28.25,0-7.36,0-15V116c0-1.3,0-2.62,0-3.91a10.21,10.21,0,0,0-6.55-9,10.6,10.6,0,0,0-3.91-.69H279.93l-154.81,0a10.22,10.22,0,0,0-10.2,9.26c-.06.83,0,1.68,0,2.53v2.55q0,10.17,0,20.2v39.5c0,25.89,0,50.87,0,74.67v13.26a32.77,32.77,0,0,0,.13,4.33,10.27,10.27,0,0,0,4.44,7,10.15,10.15,0,0,0,3.88,1.55,26.76,26.76,0,0,0,4.21.17h32.79l58.87,0,85.24,0,23.17,0h6l2.05,0-2.05,0-6,0-23.17,0-85.24.06-58.87,0H127.52a27.7,27.7,0,0,1-4.26-.17,10.55,10.55,0,0,1-8.59-8.78,33.64,33.64,0,0,1-.13-4.37V251.18c0-23.8,0-48.78,0-74.67V114.26c0-.85,0-1.69,0-2.56a10.63,10.63,0,0,1,5.53-8.33,11,11,0,0,1,5-1.26H335.44a10.77,10.77,0,0,1,4,.71,10.56,10.56,0,0,1,5.78,5.4,10.45,10.45,0,0,1,1,3.86c.06,1.33,0,2.63,0,3.93v7.73q0,7.65,0,15,0,14.73,0,28.25c0,36,0,65.11-.06,85.24,0,5,0,9.5,0,13.37a25.53,25.53,0,0,1-.09,2.8,10.51,10.51,0,0,1-.24,1.29c-.06.21-.1.42-.17.62l-.21.58a10.28,10.28,0,0,1-2.43,3.7,9.93,9.93,0,0,1-2.88,2,10.88,10.88,0,0,1-1.29.52l-1.11.28-.88.13c-.26,0-.47,0-.64,0Z"/><path class="cls-3" d="M129.87,115.54a2.71,2.71,0,1,1-2.71-2.71A2.71,2.71,0,0,1,129.87,115.54Z"/><path class="cls-3" d="M138,115.54a2.71,2.71,0,1,1-2.71-2.71A2.71,2.71,0,0,1,138,115.54Z"/><path class="cls-3" d="M146.13,115.54a2.71,2.71,0,1,1-2.71-2.71A2.71,2.71,0,0,1,146.13,115.54Z"/><path class="cls-1" d="M139.83,154.41a15.39,15.39,0,0,1,3.73-1.62l.77-3.69,6.23-.1.89,3.65a15.73,15.73,0,0,1,3.79,1.49l3.14-2.06,4.49,4.33-2,3.22a15.33,15.33,0,0,1,1.62,3.72l3.68.77.11,6.23-3.66.9a15.23,15.23,0,0,1-1.48,3.78l2.06,3.15-4.33,4.48-3.22-1.95a15.5,15.5,0,0,1-3.72,1.62l-.77,3.69-6.23.11-.9-3.66A15.11,15.11,0,0,1,140.3,181L137.15,183l-4.48-4.32,2-3.22a15.56,15.56,0,0,1-1.62-3.73l-3.69-.77-.11-6.23,3.66-.9a15.41,15.41,0,0,1,1.49-3.78l-2.07-3.15,4.33-4.48,3.22,1.95Zm3.32,8.3a6.69,6.69,0,1,0,9.46-.16A6.69,6.69,0,0,0,143.15,162.71Z"/><path class="cls-1" d="M314.46,224.68a9.15,9.15,0,0,1,2.25-1l.46-2.23,3.77-.07.54,2.21a9.5,9.5,0,0,1,2.28.9l1.9-1.25,2.71,2.62-1.18,1.94a9.21,9.21,0,0,1,1,2.26l2.23.46.07,3.76-2.21.55a9.84,9.84,0,0,1-.9,2.28l1.24,1.9L326,241.74,324,240.56a9,9,0,0,1-2.25,1l-.46,2.23-3.76.06-.55-2.21a9,9,0,0,1-2.28-.9l-1.9,1.25-2.71-2.61,1.18-2a9.15,9.15,0,0,1-1-2.25l-2.23-.46-.06-3.77,2.21-.54a9.07,9.07,0,0,1,.89-2.28l-1.24-1.91,2.61-2.7,1.95,1.18Zm2,5a4,4,0,1,0,5.72-.1A4.05,4.05,0,0,0,316.46,229.69Z"/><path class="cls-2" d="M216,223.46a15.39,15.39,0,0,1,3.73-1.62l.77-3.68,6.23-.11.89,3.65a15.5,15.5,0,0,1,3.78,1.49l3.15-2.06,4.49,4.33-2,3.22a14.59,14.59,0,0,1,1.62,3.72l3.69.77.11,6.23-3.66.9a15.23,15.23,0,0,1-1.48,3.78l2.06,3.15-4.33,4.48-3.22-2a15.39,15.39,0,0,1-3.73,1.62l-.76,3.69-6.23.11-.9-3.66a15.11,15.11,0,0,1-3.78-1.49l-3.15,2.06-4.48-4.32,1.95-3.22a15.56,15.56,0,0,1-1.62-3.73l-3.69-.77-.11-6.23,3.66-.9a15.41,15.41,0,0,1,1.49-3.78L208.41,226l4.33-4.48,3.22,2Zm3.32,8.3a6.69,6.69,0,1,0,9.46-.16A6.69,6.69,0,0,0,219.28,231.76Z"/><path class="cls-1" d="M250.49,246.68a8.47,8.47,0,0,1,2.14-.93l.44-2.12,3.57-.06.51,2.1a8.74,8.74,0,0,1,2.17.85l1.81-1.18,2.57,2.48-1.12,1.85a8.47,8.47,0,0,1,.93,2.14l2.12.44.06,3.57-2.1.51a8.74,8.74,0,0,1-.85,2.17l1.18,1.81-2.48,2.57-1.85-1.12a8.47,8.47,0,0,1-2.14.93l-.44,2.12-3.57.06-.52-2.1a8.82,8.82,0,0,1-2.16-.85L249,263.1l-2.57-2.48,1.12-1.85a8.47,8.47,0,0,1-.93-2.14l-2.12-.44-.06-3.57,2.1-.52a8.82,8.82,0,0,1,.85-2.16l-1.18-1.81,2.48-2.57,1.85,1.12Zm1.9,4.76a3.84,3.84,0,1,0,5.43-.1A3.83,3.83,0,0,0,252.39,251.44Z"/><path class="cls-4" d="M173,245.51a5.28,5.28,0,0,1,1.34-.58l.28-1.34,2.26,0,.32,1.33a5.47,5.47,0,0,1,1.37.53l1.14-.74,1.62,1.56-.71,1.17a5.59,5.59,0,0,1,.59,1.35l1.33.27,0,2.26-1.32.32a5.92,5.92,0,0,1-.54,1.37l.75,1.14-1.57,1.62-1.16-.71a5.38,5.38,0,0,1-1.35.59l-.28,1.33-2.25,0-.33-1.32a5.92,5.92,0,0,1-1.37-.54l-1.13.75-1.63-1.57.71-1.16a5.77,5.77,0,0,1-.59-1.35l-1.33-.28,0-2.25,1.32-.33a5.68,5.68,0,0,1,.54-1.36l-.74-1.14,1.56-1.62,1.17.7Zm1.2,3a2.42,2.42,0,1,0,3.42-.06A2.42,2.42,0,0,0,174.15,248.51Z"/><path class="cls-1" d="M282.93,152.56a15.56,15.56,0,0,1,3.73-1.62l.77-3.69,6.23-.11.9,3.66a15.41,15.41,0,0,1,3.78,1.49l3.15-2.06,4.48,4.32-2,3.22a15.56,15.56,0,0,1,1.62,3.73l3.68.77.11,6.23-3.65.9a15.82,15.82,0,0,1-1.49,3.78l2.06,3.15L302,180.81l-3.22-1.95a15.33,15.33,0,0,1-3.72,1.62l-.77,3.68-6.23.11-.9-3.65a15.66,15.66,0,0,1-3.78-1.49l-3.15,2.06-4.48-4.33,2-3.22a15.33,15.33,0,0,1-1.62-3.72l-3.69-.77-.11-6.23L276,162a15.26,15.26,0,0,1,1.49-3.78l-2.06-3.15,4.32-4.48,3.22,1.95Zm3.33,8.3a6.69,6.69,0,1,0,9.45-.16A6.68,6.68,0,0,0,286.26,160.86Z"/><path class="cls-4" d="M150.5,233a7.82,7.82,0,0,1,1.95-.84l.4-1.93,3.26-.06.47,1.91a8.16,8.16,0,0,1,2,.78l1.65-1.08,2.35,2.27-1,1.68a7.8,7.8,0,0,1,.85,2l1.93.41.06,3.26-1.92.47a7.74,7.74,0,0,1-.77,2l1.08,1.65-2.27,2.34-1.69-1a7.85,7.85,0,0,1-2,.85l-.4,1.93-3.26.06-.47-1.92a8.16,8.16,0,0,1-2-.78L149.09,248l-2.35-2.26,1-1.69a7.5,7.5,0,0,1-.85-1.95l-1.93-.4-.06-3.26,1.92-.47a7.6,7.6,0,0,1,.77-2l-1.08-1.65,2.27-2.35,1.69,1Zm1.73,4.35a3.5,3.5,0,1,0,5-.09A3.5,3.5,0,0,0,152.23,237.38Z"/><path class="cls-7" d="M147,237.76a40.84,40.84,0,0,1-12.38-4.95l6.94-16.19A43.71,43.71,0,0,0,151.78,221a38.87,38.87,0,0,0,10.88,1.65,16.29,16.29,0,0,0,6.39-.9,2.86,2.86,0,0,0,1.92-2.68c0-1.38-.84-2.41-2.51-3.11a53.38,53.38,0,0,0-8.27-2.26,91.1,91.1,0,0,1-12.34-3.43,20.94,20.94,0,0,1-8.59-6q-3.66-4.2-3.66-11.35A20,20,0,0,1,139,181.61a22.42,22.42,0,0,1,10.1-8,40.81,40.81,0,0,1,16.32-2.92,57.22,57.22,0,0,1,12.93,1.46,39.87,39.87,0,0,1,11.2,4.28L183,192.53q-9.42-4.91-17.83-4.9t-8.31,4.14c0,1.32.82,2.31,2.47,3a51.32,51.32,0,0,0,8.13,2.12,82.17,82.17,0,0,1,12.34,3.24,21.54,21.54,0,0,1,8.73,6q3.69,4.14,3.7,11.3a19.72,19.72,0,0,1-3.38,11.24,22.91,22.91,0,0,1-10.1,8,40.44,40.44,0,0,1-16.32,3A65.46,65.46,0,0,1,147,237.76Z"/><path class="cls-7" d="M251.86,221.33v16.75H198.67V172.19h52V189h-30.8v7.72h27.06v16H219.87v8.66Z"/><path class="cls-7" d="M293.53,204.62,269.71,179.7a33.87,33.87,0,0,1,9.85-6.95c17-7.9,37.25,0,44.92,17.47s0,38.37-17,46.26-37.25,0-44.92-17.47a34.24,34.24,0,0,1-1.46-4Z"/><path class="cls-7" d="M293.53,204.67l-32.4,10.43a35.73,35.73,0,0,1,8.95-35.71Z"/><g class="cls-10"><path d="M293.53,204.67l-32.4,10.43a35.73,35.73,0,0,1,8.95-35.71Z"/></g><path class="cls-2" d="M293.53,204.67,268.4,228.1a35.41,35.41,0,0,1-7.27-13Z"/><path class="cls-1" d="M193.82,140.7a8,8,0,0,1,2-.85l.4-1.93,3.27-.06.47,1.92a7.93,7.93,0,0,1,2,.78l1.65-1.08,2.35,2.26-1,1.69a8.42,8.42,0,0,1,.85,1.95l1.93.4.05,3.26-1.91.47a8,8,0,0,1-.78,2l1.08,1.65-2.27,2.35-1.68-1a8,8,0,0,1-1.95.84l-.4,1.94-3.27.05-.47-1.91a8.16,8.16,0,0,1-2-.78l-1.64,1.08-2.35-2.27,1-1.68a8.61,8.61,0,0,1-.85-2l-1.93-.41-.06-3.26,1.92-.47a8.16,8.16,0,0,1,.78-2L189.87,142l2.26-2.34,1.69,1Zm1.74,4.35a3.5,3.5,0,1,0,4.95-.09A3.49,3.49,0,0,0,195.56,145.05Z"/><path class="cls-8" d="M117.28,205.27s2-2.23-1.25-2.87-20-.34-25.9,1.58l-8,1.37,1.41,13.22,5-1.16,12,1.82c1.38.2,5.59-1.55,2.26-3.75,0,0,4-1.94,1-4.51,0,0,2.91-1.53.55-4.56Z"/><polygon class="cls-1" points="80.72 204.87 83.84 204.62 83.49 218.8 80.45 219.43 80.72 204.87"/><path class="cls-7" d="M41.72,155.05s-7.61,2.61-9.19,13.06c-1.73,11.38,2.76,31.21,2.95,38.41.14,5.31,3.63,17.55,15,17.13a177.36,177.36,0,0,0,30.45-4.06l-.05-14.89-27,0L51.2,179.44"/><path class="cls-5" d="M51.2,179.44s0,.15.07.44.09.74.15,1.3c.13,1.15.32,2.83.57,5,.47,4.37,1.16,10.68,2,18.52l-.13-.11,27-.06H81v.17c0,4.72,0,9.72.07,14.89v.14l-.14,0a182.67,182.67,0,0,1-21.8,3.48c-3.08.29-6.12.5-9.14.59a13.16,13.16,0,0,1-4.45-.7,12.19,12.19,0,0,1-3.85-2.21,17.5,17.5,0,0,1-4.82-7.08,23.8,23.8,0,0,1-1.61-8.06c-.16-2.65-.54-5.24-.88-7.74s-.68-4.95-1-7.3c-.62-4.72-1.11-9.13-1.28-13.17a44.83,44.83,0,0,1,.6-10.9,11.43,11.43,0,0,1,.3-1.15c.11-.37.2-.74.32-1.09a19.38,19.38,0,0,1,.84-2,16.15,16.15,0,0,1,2-3.19,14.76,14.76,0,0,1,3.92-3.41,10.06,10.06,0,0,1,1.21-.62,3.57,3.57,0,0,1,.43-.16l-.42.19a10.63,10.63,0,0,0-1.18.65,15.15,15.15,0,0,0-3.85,3.44,16.48,16.48,0,0,0-2,3.18c-.32.6-.53,1.29-.81,2-.12.35-.21.72-.32,1.09a10,10,0,0,0-.28,1.14,44.91,44.91,0,0,0-.55,10.84c.19,4,.7,8.43,1.33,13.14q.49,3.53,1,7.29c.34,2.51.73,5.09.9,7.77a23.19,23.19,0,0,0,1.6,8,17.11,17.11,0,0,0,4.71,6.93,11.86,11.86,0,0,0,3.75,2.15,12.87,12.87,0,0,0,4.33.67c3-.09,6-.3,9.1-.59a181.73,181.73,0,0,0,21.76-3.46l-.13.17c0-5.17,0-10.16,0-14.89l.17.16-27,0h-.11v-.11L51.85,186.2c-.22-2.17-.38-3.86-.5-5-.05-.57-.09-1-.12-1.3Z"/><path class="cls-5" d="M51.07,211.85a8.45,8.45,0,0,1,2.81-7.13A19.8,19.8,0,0,0,52,208.08,19.55,19.55,0,0,0,51.07,211.85Z"/><path class="cls-5" d="M48.29,171.68a15.45,15.45,0,0,1-.48-1.79,28.67,28.67,0,0,0-3.55-8.15,16,16,0,0,1-1-1.58,6.88,6.88,0,0,1,1.2,1.43,22.76,22.76,0,0,1,3.58,8.24A7.11,7.11,0,0,1,48.29,171.68Z"/><path class="cls-11" d="M251.69,82.12,240.56,41.38C238.12,31.15,230.14,24.05,220,26.77l-.93.3a18.79,18.79,0,0,0-12.34,22.3c2.16,8.85,4.66,18.6,6.25,23.21,3.29,9.53,13.36,7.85,13.36,7.85s1.75,5.87,2.56,8.72l-.38,7.3,7.42-4.22Z"/><path class="cls-12" d="M226.33,80.43a24.44,24.44,0,0,0,11.25-7.82s-.62,8.19-10.46,10.5Z"/><path class="cls-5" d="M213.14,57.65a1.43,1.43,0,0,0,1.77.94,1.38,1.38,0,0,0,1-1.7,1.45,1.45,0,0,0-1.78-.94A1.37,1.37,0,0,0,213.14,57.65Z"/><path class="cls-5" d="M210.15,52.92c.23.12,1-1,2.49-1.47s2.79-.11,2.89-.34-.23-.37-.81-.56a4.07,4.07,0,0,0-2.39.05,3.8,3.8,0,0,0-1.9,1.4C210.09,52.5,210,52.87,210.15,52.92Z"/><path class="cls-5" d="M225.48,53.66a1.44,1.44,0,0,0,1.78.94,1.39,1.39,0,0,0,1-1.7,1.45,1.45,0,0,0-1.78-.94A1.39,1.39,0,0,0,225.48,53.66Z"/><path class="cls-5" d="M224.69,48.48c.23.12,1-1,2.48-1.47s2.8-.1,2.9-.34-.23-.37-.81-.55a3.91,3.91,0,0,0-2.39.05A3.76,3.76,0,0,0,225,47.56C224.63,48.06,224.58,48.43,224.69,48.48Z"/><path class="cls-5" d="M223.16,61.54a10.15,10.15,0,0,0-2.54.36c-.38.08-.76.13-.91-.11a2,2,0,0,1-.12-1.2c0-1,.11-2.1.16-3.22.2-4.59.2-8.31,0-8.31s-.49,3.7-.69,8.28c0,1.13-.07,2.21-.11,3.24a2.27,2.27,0,0,0,.3,1.53,1,1,0,0,0,.8.35,2.89,2.89,0,0,0,.66-.12A10.89,10.89,0,0,0,223.16,61.54Z"/><path class="cls-5" d="M222.69,44c.32.31,1.62-.56,3.34-1.17s3.27-.83,3.32-1.27c0-.21-.39-.46-1.11-.56a6.2,6.2,0,0,0-5.07,1.86C222.69,43.44,222.54,43.89,222.69,44Z"/><path class="cls-5" d="M208.65,48.62c.42.24,1.51-.49,2.95-1s2.75-.62,2.92-1.06c.07-.21-.23-.49-.87-.63a5.13,5.13,0,0,0-4.72,1.62C208.52,48.1,208.47,48.5,208.65,48.62Z"/><path class="cls-11" d="M242.13,48.73c.14-.13,5.93-4.13,7.89,2.49s-5.08,7.21-5.15,7S242.13,48.73,242.13,48.73Z"/><path class="cls-12" d="M246.15,55.14s.14,0,.36.08a1.2,1.2,0,0,0,.86-.24,3,3,0,0,0,.57-2.95,4,4,0,0,0-.82-1.55,1.39,1.39,0,0,0-1.12-.63.62.62,0,0,0-.59.52c0,.21.05.33,0,.35s-.17-.07-.2-.36a.77.77,0,0,1,.14-.49.89.89,0,0,1,.59-.35,1.68,1.68,0,0,1,1.51.66,4.2,4.2,0,0,1,.94,1.73c.35,1.35,0,2.8-.83,3.35a1.28,1.28,0,0,1-1.11.14C246.21,55.3,246.13,55.16,246.15,55.14Z"/><path class="cls-5" d="M228.1,61.12c-.23.05.19,1.58-.81,3s-2.67,1.74-2.62,1.95.44.2,1.13,0A3.94,3.94,0,0,0,228,64.58a3.46,3.46,0,0,0,.58-2.51C228.48,61.41,228.2,61.08,228.1,61.12Z"/><path class="cls-5" d="M190.83,44.47a1.66,1.66,0,0,1,.46-1.13,5,5,0,0,1,2.36-1.14,14.42,14.42,0,0,0,5.59-3.33,7.06,7.06,0,0,1-2.15-.71,4.31,4.31,0,0,1-2.42-3.77.94.94,0,0,1,.33-.79c.39-.26.89,0,1.29.29a3.71,3.71,0,0,0,3.79.42,6.15,6.15,0,0,0,2.29-1.49l0-.12c.24-.45.47-.89.71-1.32h0c1.75-3.21,3.38-5.56,5.31-7.1a23.4,23.4,0,0,1,11.71-4.52c3.63-.13,7.47,1.7,9,5,1.41-2.16,4.25-3,6.82-2.75L236,22c2.83.15,5.1,2.42,6.63,4.81l.24.39a10.62,10.62,0,0,0,4.45,2.34c.29.07.63.16.75.44a.88.88,0,0,1-.24.81A5.3,5.3,0,0,1,246,32.24a11.86,11.86,0,0,0,1.38,1.55c.44.4,1,.88.85,1.47a1.13,1.13,0,0,1-1,.83,3.3,3.3,0,0,1-1.35-.19l1.47,1.8a6.21,6.21,0,0,1-2.84.64c.18,2.61,1.12,7.25,1,9.09-1.75.56-2.23.49-3,1-1,.72,0,2.62-1.65,2.49-.85-.07-2.87-2.59-3.35-3.29a39.35,39.35,0,0,1-6.41-15.49,12.48,12.48,0,0,0-4.55-1.59l.14.07c-3-.13-6.31-.14-8.5,1.89-1.69,1.58-2.25,4-3.24,6.09a14.43,14.43,0,0,1-8.73,8c.49,3,1.8,7.84,2.47,10.61l-4-4.76v0c-.28-.26-.53-.54-.78-.81l-.08-.09h0a15.15,15.15,0,0,0-1.23-1.32l0,0a1.77,1.77,0,0,1-3.16-1.53,3.79,3.79,0,0,1,.57-1.07,2.83,2.83,0,0,1-2.36,1.43,2.21,2.21,0,0,1-2.12-1.65,1.88,1.88,0,0,1,.64-1.76,6.25,6.25,0,0,1-3.68.27C191.72,45.84,190.86,45.4,190.83,44.47Z"/><path class="cls-6" d="M226.4,26.79a7.53,7.53,0,0,1,1.24.6,7.2,7.2,0,0,1,2.44,2.77,12.43,12.43,0,0,1,1,2.38c.27.89.48,1.87.71,2.89a26.55,26.55,0,0,0,.88,3.2,12,12,0,0,0,.71,1.61,3.7,3.7,0,0,0,1.17,1.42,1.54,1.54,0,0,0,1.5.05,2.28,2.28,0,0,0,1-1.06,5.18,5.18,0,0,0,.2-2.74l-.19.08a8.55,8.55,0,0,0,1.78,1.68,3,3,0,0,0,2.19.46,1.91,1.91,0,0,0,.94-.47,1.68,1.68,0,0,0,.48-.87,1.78,1.78,0,0,0-.05-.92,1.3,1.3,0,0,0-.53-.66l-.08.12a6.45,6.45,0,0,0,2.54.94,4.63,4.63,0,0,0,.72.06h.25a.79.79,0,0,0-.25,0c-.16,0-.4,0-.7-.09a6.83,6.83,0,0,1-2.48-1l-.08.12a1.31,1.31,0,0,1,.5,1.42,1.53,1.53,0,0,1-.44.78,1.73,1.73,0,0,1-.86.41,2.82,2.82,0,0,1-2-.45,8.29,8.29,0,0,1-1.72-1.64l-.24-.27,0,.35a5,5,0,0,1-.19,2.62,2,2,0,0,1-.91,1,1.28,1.28,0,0,1-1.28,0,3.45,3.45,0,0,1-1.08-1.33,12.21,12.21,0,0,1-.71-1.57,27,27,0,0,1-.88-3.17c-.23-1-.46-2-.74-2.9a12,12,0,0,0-1-2.4,7.09,7.09,0,0,0-2.54-2.77A4,4,0,0,0,226.4,26.79Z"/><path class="cls-6" d="M199.28,45.14l.1,0,.29.11c.13,0,.3.1.49.14s.42.1.68.13a9,9,0,0,0,4.37-.49,11.43,11.43,0,0,0,5.19-3.9,19.68,19.68,0,0,0,3.29-7.28c.36-1.38.57-2.75.87-4.05a13.41,13.41,0,0,1,1.29-3.59,6.93,6.93,0,0,1,2.28-2.53,5.35,5.35,0,0,1,1.42-.61,5.6,5.6,0,0,1,3.8.47,6,6,0,0,1,1.52,1.09A7,7,0,0,1,225.8,26a.35.35,0,0,0,0-.1c0-.08-.08-.17-.13-.29a5.08,5.08,0,0,0-2.22-2.12A6,6,0,0,0,221,22.8a5.76,5.76,0,0,0-1.47.14,5.13,5.13,0,0,0-1.48.62,7,7,0,0,0-2.37,2.58,13.31,13.31,0,0,0-1.32,3.65c-.31,1.3-.52,2.67-.87,4A19.94,19.94,0,0,1,210.23,41a11.36,11.36,0,0,1-5.08,3.87,9,9,0,0,1-4.29.56A12.9,12.9,0,0,1,199.28,45.14Z"/><path class="cls-6" d="M197.13,41.15a1.81,1.81,0,0,0,.42.14,8,8,0,0,0,1.19.21,9.19,9.19,0,0,0,1.78,0,11.75,11.75,0,0,0,2.16-.34,12.65,12.65,0,0,0,2.06-.77,10.82,10.82,0,0,0,1.53-.92,8,8,0,0,0,.92-.78,2.12,2.12,0,0,0,.3-.32s-.49.4-1.32,1a11,11,0,0,1-1.53.86,12.52,12.52,0,0,1-2,.74,12.05,12.05,0,0,1-2.11.35,11.55,11.55,0,0,1-1.76,0C197.75,41.26,197.14,41.11,197.13,41.15Z"/><path class="cls-7" d="M200.73,102.32s-1-2.78,2.35-6.53,24.36-11.65,24.36-11.65,7.79,7.59,16.61,2.79c6.86-3.74,6.33-9.59,6.33-9.59l26.7,4.47L278,102l-9.57.06Z"/><path class="cls-11" d="M247.2,136.57l32.94-10.33-10.76-26.06,20.76.4s15,29.24,9.32,37.77c-5.16,7.77-47.66,9.34-47.66,9.34Z"/><path class="cls-6" d="M256.51,153.51l-.14,1.78c-.12,1.59-2,2.68-3.85,2.25l-33.73-3.42.62-5.34L253.46,150C255.72,149.94,256.67,151.47,256.51,153.51Z"/><path class="cls-5" d="M206.24,168.8a20.72,20.72,0,1,1-2.47-39.37h0a20.71,20.71,0,0,1,2.47,39.37Zm-14.61-37.28a19.32,19.32,0,1,0,11.8-.75A19.34,19.34,0,0,0,191.63,131.52Z"/><path class="cls-6" d="M206.12,167.57a20.72,20.72,0,1,1-2.47-39.38h0a20.72,20.72,0,0,1,2.47,39.38Zm-14.6-37.28a19.31,19.31,0,1,0,11.79-.75A19.31,19.31,0,0,0,191.52,130.29Z"/><path class="cls-3" d="M209.66,135.09a2,2,0,0,1-.28-.2,8.75,8.75,0,0,0-.78-.58,14.24,14.24,0,0,0-3.15-1.67,17.61,17.61,0,0,0-2.35-.74,19.39,19.39,0,0,0-5.91-.47,17.6,17.6,0,0,0-3.31.51,17.18,17.18,0,0,0-3.14,1.14,18.74,18.74,0,0,0-2.67,1.62,17.24,17.24,0,0,0-3.72,3.74,16.51,16.51,0,0,0-1.8,3.08c-.19.38-.28.69-.38.89a1.08,1.08,0,0,1-.14.31,2,2,0,0,1,.1-.32c.08-.21.16-.53.34-.92a16.52,16.52,0,0,1,1.75-3.14,17.39,17.39,0,0,1,6.42-5.45,16.33,16.33,0,0,1,3.19-1.16,17.13,17.13,0,0,1,3.35-.52,18.47,18.47,0,0,1,8.33,1.28,13.77,13.77,0,0,1,3.14,1.75c.35.24.58.48.76.62A1.55,1.55,0,0,1,209.66,135.09Z"/><path class="cls-3" d="M209.12,162.51s.84-.56,2-1.66l.46-.44c.15-.15.3-.33.46-.51.32-.34.62-.75.95-1.16a17.39,17.39,0,0,0,1.73-3,17.8,17.8,0,0,0,1.06-3.28A14.66,14.66,0,0,0,216,151c0-.24.06-.46.07-.68l0-.63c0-1.61-.17-2.6-.11-2.61a5.17,5.17,0,0,1,.13.69,5.69,5.69,0,0,1,.09.82,9.25,9.25,0,0,1,.05,1.1v.64c0,.22,0,.45-.06.69a12.41,12.41,0,0,1-.21,1.51,17.66,17.66,0,0,1-1.05,3.33,17.06,17.06,0,0,1-1.78,3,13.15,13.15,0,0,1-1,1.17c-.16.17-.31.35-.47.5l-.47.43a8,8,0,0,1-.85.7,5.11,5.11,0,0,1-.67.48A4.71,4.71,0,0,1,209.12,162.51Z"/><path class="cls-3" d="M207.81,143.07c0,.06-3.8.46-8.49.88s-8.51.71-8.51.65,3.79-.45,8.49-.87S207.8,143,207.81,143.07Z"/><path class="cls-3" d="M210,149l-.28,0-.78.05-2.89.14c-2.43.12-5.8.3-9.51.53s-7.08.48-9.51.66l-2.88.22-.79.05h-.27a.84.84,0,0,1,.27,0l.78-.09c.68-.08,1.66-.18,2.88-.29,2.43-.23,5.79-.5,9.5-.73s7.09-.39,9.53-.46L209,149H210Z"/><g class="cls-10"><path class="cls-3" d="M179.66,146.08l37.49-2.32a19.93,19.93,0,0,1,.72,5.67l-38.33,2.33A14.86,14.86,0,0,1,179.66,146.08Z"/></g><g class="cls-10"><path class="cls-3" d="M180.63,155.47,217.31,153s.24-.1-.51,1.52l-35.55,2.34A3.44,3.44,0,0,1,180.63,155.47Z"/></g><path class="cls-11" d="M247.2,136.57s-18.88,5.48-19.42,5.79-8,5.6-8.12,7.52S222,160.35,222,160.35s2.55.37,2.74-4.21l.18-4.57,3.14-2.81s-1.16,5.29-.87,6.79,2.78,5.27,4.17,5a4,4,0,0,0,2.15-1.24s1.22,3.37,4.77,1.39a5.65,5.65,0,0,0,4.15.05c1.82-.93,3.47-3.88,3.47-3.88a1.58,1.58,0,0,0-1.77-1.73,7.28,7.28,0,0,0-3.65,1.42l-.18-1.92a22.31,22.31,0,0,1,4.65-4.2c1.5-.9,7.68-1,9.6-3,1.63-1.65-1.45-5.3-3.49-6.41h0a3.29,3.29,0,0,0-1-.36Z"/><path class="cls-12" d="M236.48,151.81a1.14,1.14,0,0,0-.2.33,5.24,5.24,0,0,0-.4,1,6.92,6.92,0,0,0-.15,3.52,7,7,0,0,0,1.61,3.14,6.64,6.64,0,0,0,.78.73,1.13,1.13,0,0,0,.33.22s-.43-.36-1-1a7.16,7.16,0,0,1-1.44-6.53C236.24,152.31,236.52,151.82,236.48,151.81Z"/><path class="cls-12" d="M232.93,149.1a2.2,2.2,0,0,0-.21.36,3.16,3.16,0,0,0-.22.45c-.07.18-.17.38-.24.61a9.63,9.63,0,0,0-.42,1.65,10.79,10.79,0,0,0-.12,2.09,10,10,0,0,0,.31,2.07,9,9,0,0,0,.57,1.61,6.26,6.26,0,0,0,.29.58,3.72,3.72,0,0,0,.26.43,1.85,1.85,0,0,0,.25.34s-.3-.52-.68-1.41a11.43,11.43,0,0,1-.52-1.59,12.37,12.37,0,0,1-.29-2,14.36,14.36,0,0,1,0-2.19,8.69,8.69,0,0,1,.45-1.5C232.68,149.65,233,149.12,232.93,149.1Z"/><path class="cls-12" d="M229.17,145.55s-.2.11-.43.39a3.17,3.17,0,0,0-.58,1.25,2.57,2.57,0,0,0,0,1.38,1.12,1.12,0,0,0,.23.52,3.91,3.91,0,0,1,.75-3.54Z"/><path class="cls-12" d="M291.4,131.35s-.39-.75-1.22-1.79a10.21,10.21,0,0,0-4.09-3.08,8.76,8.76,0,0,0-5.08-.4c-1.31.27-2.08.61-2.11.55a1.76,1.76,0,0,1,.53-.28,10.14,10.14,0,0,1,1.52-.51,8.5,8.5,0,0,1,5.27.31,9.71,9.71,0,0,1,4.16,3.26,7.49,7.49,0,0,1,.82,1.38A1.66,1.66,0,0,1,291.4,131.35Z"/><path class="cls-7" d="M264.71,93.4c-.33-11,14-15.9,20.44-7l.11.15c6.06,8.63,13.38,29,13.38,29l-25.94,4L266.22,102A33.17,33.17,0,0,1,264.71,93.4Z"/><path class="cls-11" d="M183.83,101.12l.12.28a5.14,5.14,0,0,1,.27,1.35,4.64,4.64,0,0,0,0,.65,2.76,2.76,0,0,0,.18.39,6.42,6.42,0,0,1,.24,2.69,5.17,5.17,0,0,0,.5,2.89,1.9,1.9,0,0,0,2.53.78,1.29,1.29,0,0,0,1,1.41,1.87,1.87,0,0,0,1.73-.53,3.55,3.55,0,0,0,.87-1.66,1.43,1.43,0,0,0,1.42,1.39,2.22,2.22,0,0,0,1.81-1.11,5.17,5.17,0,0,0,.63-2.12,24.82,24.82,0,0,1,.44-2.83s.93.15,1.36.19l.12,0a16.19,16.19,0,0,0,.89-1.55c.59-1.22,1-2,1.5-3.1.34-.83.56-1.65,0-2.19-1.23-1.3-3.64,1.34-3.64,1.34-.34-.92-3.15-1.07-3.69.15-.23-.67-.14-1.06-.69-1.51a2.23,2.23,0,0,0-2-.5,1.6,1.6,0,0,0-1.2,1.55,2.64,2.64,0,0,0-4.43-.09,2.86,2.86,0,0,0-.4.89,1.15,1.15,0,0,0-.07.36.58.58,0,0,0,.06.17A7.76,7.76,0,0,1,183.83,101.12Z"/><path class="cls-11" d="M180.87,99.32a2.14,2.14,0,0,0-1.68.56,3.48,3.48,0,0,0-.53,2.34c.85.16,1.29.19,2.13.35.18,0,.33,0,.48.09.39.28.32,1.21.48,1.66a1.63,1.63,0,0,0,2.06.88,2.16,2.16,0,0,0,1.32-1.94,3.41,3.41,0,0,0-.86-2.28A4.76,4.76,0,0,0,180.87,99.32Z"/><path class="cls-12" d="M188.28,98.86a27.71,27.71,0,0,1,0,5.65,27.71,27.71,0,0,1-.58,5.63,27.67,27.67,0,0,1,0-5.65A27.71,27.71,0,0,1,188.28,98.86Z"/><path class="cls-12" d="M192.17,99.39a16,16,0,0,1,.11,5.14,15.8,15.8,0,0,1-1,5,42.37,42.37,0,0,1,.42-5.09A40,40,0,0,1,192.17,99.39Z"/><path class="cls-12" d="M196,99.91a12,12,0,0,1-.07,4.25,16.26,16.26,0,0,1-.8,4.15c-.17,0-.06-1.91.23-4.22A23.56,23.56,0,0,1,196,99.91Z"/><path class="cls-12" d="M182.09,99.72c0-.07.41-.16,1,.11a3.21,3.21,0,0,1,1.56,1.82A6.26,6.26,0,0,1,185,104c-.06.7-.57.9-.59.81s.24-.3.19-.82a11.27,11.27,0,0,0-.52-2.12,3.43,3.43,0,0,0-1.22-1.67C182.44,99.87,182.08,99.81,182.09,99.72Z"/><path class="cls-5" d="M277.31,82.57c0,.07-1.13.31-2.78,1.16A13.91,13.91,0,0,0,267,95.35a27.7,27.7,0,0,0,.06,3,3,3,0,0,1-.18-.8,11.28,11.28,0,0,1-.13-2.23,13.52,13.52,0,0,1,7.69-11.83,12.73,12.73,0,0,1,2.1-.79A3.17,3.17,0,0,1,277.31,82.57Z"/><path class="cls-8" d="M113,161.76c-.62-.22-1-.14-1.4-.66a2.1,2.1,0,0,1-.42-1.86,1.51,1.51,0,0,1,1.47-1.09,2.44,2.44,0,0,1,0-4.11,2.65,2.65,0,0,1,.83-.36,1.06,1.06,0,0,1,.35-.05.44.44,0,0,1,.15.05c.21.12.4.28.63.39l.26.11a4.45,4.45,0,0,0,1.25.28,5.85,5.85,0,0,1,.6,0c.13,0,.24.13.36.18a6,6,0,0,0,2.5.27,4.86,4.86,0,0,1,2.67.52,1.78,1.78,0,0,1,.67,2.38,1.2,1.2,0,0,1,1.3.92,1.74,1.74,0,0,1-.53,1.6,3.24,3.24,0,0,1-1.56.77,1.33,1.33,0,0,1,1.26,1.35,2,2,0,0,1-1.07,1.66,4.5,4.5,0,0,1-2,.54c-.69.07-2.86.38-3.53.54l-2.52,0a2,2,0,0,1-2-2.83A1.35,1.35,0,0,1,113,161.76Z"/><path class="cls-8" d="M113,151.28a2,2,0,0,1,.55-1.55,1.7,1.7,0,0,1,1.53-.46,13,13,0,0,0,.74,2,2.63,2.63,0,0,0,.28.4c.25.36,1.11.32,1.53.48a1.51,1.51,0,0,1,.78,1.93,1.4,1.4,0,0,1-1.48,1,4.64,4.64,0,0,1-2.62-.89A3.76,3.76,0,0,1,113,151.28Z"/><path class="cls-9" d="M112.42,158.16c0,.06,2.36.05,5.26,0s5.24-.21,5.24-.27-2.35,0-5.25,0S112.42,158.09,112.42,158.16Z"/><path class="cls-9" d="M112.84,161.78a6.93,6.93,0,0,0,1.39.12c.87,0,2.06,0,3.37-.06s2.5-.24,3.35-.38a7.57,7.57,0,0,0,1.37-.29,10.06,10.06,0,0,0-1.39.13c-.86.1-2,.22-3.34.3s-2.5.12-3.35.13A10.19,10.19,0,0,0,112.84,161.78Z"/><path class="cls-9" d="M114.07,165.39a7.4,7.4,0,0,0,1,0c.64,0,1.52-.11,2.48-.21l2.48-.29a8.66,8.66,0,0,0,1-.15,6.48,6.48,0,0,0-1,.06l-2.48.25c-1,.11-1.84.19-2.47.25S114.08,165.37,114.07,165.39Z"/><path class="cls-9" d="M113.34,152.42a1.35,1.35,0,0,0,.18.88,2.93,2.93,0,0,0,1.62,1.39,6.39,6.39,0,0,0,1.14.32,4.41,4.41,0,0,0,1,.12,1.09,1.09,0,0,0,.64-.22c.12-.11.14-.2.13-.21a1.07,1.07,0,0,1-.77.26,5.31,5.31,0,0,1-.91-.16,7.53,7.53,0,0,1-1.1-.33,3.09,3.09,0,0,1-1.56-1.25A7.2,7.2,0,0,1,113.34,152.42Z"/><rect class="cls-3" x="304.72" y="56.15" width="61.94" height="56.39" rx="4.02"/><path class="cls-2" d="M308.85,56.15h54a3.8,3.8,0,0,1,3.8,3.8v5.79a0,0,0,0,1,0,0H304.72a0,0,0,0,1,0,0V60.28A4.13,4.13,0,0,1,308.85,56.15Z"/><path class="cls-3" d="M313.64,61.88a1.52,1.52,0,1,1-1.52-1.43A1.48,1.48,0,0,1,313.64,61.88Z"/><path class="cls-3" d="M317.78,61.88a1.52,1.52,0,1,1-1.52-1.43A1.48,1.48,0,0,1,317.78,61.88Z"/><path class="cls-3" d="M321.92,61.88a1.52,1.52,0,1,1-1.52-1.43A1.48,1.48,0,0,1,321.92,61.88Z"/><path class="cls-5" d="M362.65,112.54s.2,0,.59-.07a3.92,3.92,0,0,0,1.59-.62,4,4,0,0,0,1.62-2.21,5.66,5.66,0,0,0,.16-1.78c0-.64,0-1.33,0-2.06,0-5.82,0-14.23-.06-24.62,0-5.2,0-10.89,0-17V60.7a7.2,7.2,0,0,0-.06-1.15,3.88,3.88,0,0,0-3-3.16A16,16,0,0,0,361,56.3H308.75a3.92,3.92,0,0,0-2.59,1,3.87,3.87,0,0,0-1.24,2.46c0,1.92,0,3.89,0,5.82V77c0,7.48,0,14.69,0,21.56v10a3.88,3.88,0,0,0,2.54,3.54,5.91,5.91,0,0,0,2.27.24H312l17,0,24.62,0,6.69,0,1.74,0,.6,0-.6,0-1.74,0-6.69,0-24.62.06-17,0h-2.31a6.5,6.5,0,0,1-2.38-.25,4.2,4.2,0,0,1-2.74-3.82c0-3.26,0-6.61,0-10.05,0-6.87,0-14.08,0-21.56V65.6c0-1.94,0-3.86,0-5.85A4.19,4.19,0,0,1,308.75,56h53.53a5.32,5.32,0,0,1,1.25.1,4.18,4.18,0,0,1,3.23,3.41,8.18,8.18,0,0,1,.06,1.2v1.17c0,.78,0,1.55,0,2.31,0,6.11,0,11.8,0,17,0,10.39,0,18.8-.05,24.62,0,.73,0,1.42,0,2.06a5.9,5.9,0,0,1-.18,1.81,4.06,4.06,0,0,1-1.68,2.24,4,4,0,0,1-1.63.6A2.91,2.91,0,0,1,362.65,112.54Z"/><rect class="cls-7" x="309.24" y="70.07" width="52.76" height="37.53" rx="3.03"/><g class="cls-10"><path d="M313.67,105.25l12.88-18.33a1.46,1.46,0,0,1,2.33-.08l8.85,11a1.45,1.45,0,0,0,2.14.13l5.19-5a1.44,1.44,0,0,1,2.12.11l10.16,12.06a1.46,1.46,0,0,1-1.11,2.4H314.86A1.46,1.46,0,0,1,313.67,105.25Z"/></g><g class="cls-10"><path d="M343.1,82.2a4.49,4.49,0,1,1-4.48-4.48A4.49,4.49,0,0,1,343.1,82.2Z"/></g><polygon class="cls-5" points="369.52 277.44 368.35 249.21 436.06 249.48 444.11 277.44 369.52 277.44"/><path class="cls-6" d="M386.4,277.66a3.23,3.23,0,0,1-.25-.66c-.14-.42-.32-1.05-.51-1.83-.4-1.55-.87-3.71-1.37-6.11s-.92-4.47-1.26-6.13c-.16-.72-.29-1.33-.4-1.85a2.29,2.29,0,0,1-.12-.69,3.23,3.23,0,0,1,.25.66c.14.43.31,1.05.51,1.83.4,1.55.87,3.72,1.37,6.11s.92,4.47,1.26,6.13c.16.72.29,1.33.4,1.85A2.78,2.78,0,0,1,386.4,277.66Z"/><path class="cls-6" d="M435.59,262.13a.85.85,0,0,1-.22.12,6.66,6.66,0,0,1-.66.3,12.51,12.51,0,0,1-2.55.71,19.36,19.36,0,0,1-8.65-.69,48.69,48.69,0,0,1-8-3.41l-2.33-1.22a5.54,5.54,0,0,1-.84-.48,5.66,5.66,0,0,1,.9.36c.57.25,1.38.64,2.38,1.12a57.91,57.91,0,0,0,8,3.29,20.34,20.34,0,0,0,8.51.78A23.57,23.57,0,0,0,435.59,262.13Z"/><circle class="cls-6" cx="388.61" cy="261.12" r="2.21"/><path class="cls-5" d="M413.16,120.62a76.1,76.1,0,0,0,4.2-12.49,26.6,26.6,0,0,0-.13-13.06c-.19-.64-1.87-5-2.54-4.94-.47,0,.47,4,.2,4.39a22.62,22.62,0,0,0-3.46,13,59.91,59.91,0,0,0,1.73,13.12"/><path class="cls-8" d="M386.85,143.21c.19-3.1.32-5.55.3-5.55s-10.56-1.82-10.52-12.4c0-5.11.92-15.63,1.84-25.15A19.71,19.71,0,0,1,398.42,82.3h1c11,.82,16.45,10.62,15.32,21.6l-2.71,38.5L404,150.79a10,10,0,0,1-17.11-7.58Z"/><path class="cls-9" d="M387.15,137.66A25.55,25.55,0,0,0,401,133.81s-3.48,7.64-14,6.52Z"/><path class="cls-5" d="M381,109.44a1.51,1.51,0,0,0,1.44,1.55,1.44,1.44,0,0,0,1.58-1.34,1.5,1.5,0,0,0-1.43-1.54A1.45,1.45,0,0,0,381,109.44Z"/><path class="cls-5" d="M380.66,104.53c.19.2,1.35-.63,3-.59s2.81.86,3,.66-.1-.44-.61-.83a4.21,4.21,0,0,0-2.39-.78,4,4,0,0,0-2.37.72C380.75,104.09,380.57,104.44,380.66,104.53Z"/><path class="cls-5" d="M395.47,110.34a1.51,1.51,0,0,0,1.43,1.55,1.44,1.44,0,0,0,1.58-1.34,1.5,1.5,0,0,0-1.43-1.54A1.44,1.44,0,0,0,395.47,110.34Z"/><path class="cls-5" d="M395.79,105.35c.19.2,1.35-.62,3-.59s2.81.86,3,.66-.1-.44-.61-.83a4.21,4.21,0,0,0-2.39-.78,4,4,0,0,0-2.37.72C395.88,104.91,395.7,105.26,395.79,105.35Z"/><path class="cls-5" d="M390.55,117.85a11.3,11.3,0,0,0-2.64-.52c-.41,0-.8-.14-.87-.42a2.15,2.15,0,0,1,.3-1.23c.4-1,.83-2,1.28-3.14,1.78-4.47,3.07-8.16,2.89-8.23s-1.77,3.5-3.55,8l-1.23,3.16a2.45,2.45,0,0,0-.24,1.63,1.08,1.08,0,0,0,.67.62,2.81,2.81,0,0,0,.71.1A10.58,10.58,0,0,0,390.55,117.85Z"/><path class="cls-5" d="M396,99.88c.23.41,1.8,0,3.72-.11s3.53.22,3.72-.21c.08-.21-.25-.58-.93-.9a6.4,6.4,0,0,0-5.66.24C396.22,99.28,395.92,99.68,396,99.88Z"/><path class="cls-5" d="M381.24,98.85c.28.38,1.4,0,2.75,0s2.48.29,2.75-.09c.12-.18-.05-.56-.54-.92a3.91,3.91,0,0,0-2.23-.64,3.84,3.84,0,0,0-2.21.71C381.28,98.29,381.11,98.67,381.24,98.85Z"/><path class="cls-8" d="M413.77,111.73c.18-.08,7.31-2,7,5.2s-7.54,5.39-7.54,5.18S413.77,111.73,413.77,111.73Z"/><path class="cls-9" d="M415.53,119.48s.12.09.33.2a1.26,1.26,0,0,0,.94.06,3.11,3.11,0,0,0,1.58-2.72,4.13,4.13,0,0,0-.27-1.82,1.47,1.47,0,0,0-.9-1,.65.65,0,0,0-.76.31c-.1.2-.06.35-.1.36s-.15-.13-.08-.43a.82.82,0,0,1,.31-.44,1,1,0,0,1,.7-.15,1.78,1.78,0,0,1,1.26,1.19,4.21,4.21,0,0,1,.34,2c-.11,1.46-.92,2.79-2,3a1.36,1.36,0,0,1-1.15-.25C415.54,119.65,415.51,119.49,415.53,119.48Z"/><path class="cls-5" d="M383.83,88.4c-1.13-.71,2.59-4.3,5.54-5.44,4.46-1.73,11.16-2.56,15.1-1.2,4.75,1.65,8.62,4.27,10.79,8.8a28.47,28.47,0,0,1,2.36,14.7,8.69,8.69,0,0,1-1.27,4.36c-1.1,1.54-3.09,2.43-3.13,4.64a3.05,3.05,0,0,1-.88,2.17c-1.4,1.33-2.94-.09-3.61-1.45-1.43-2.93-1.41-6.32-1.37-9.57a21.31,21.31,0,0,1,.85-6.85c.42-1.18,1.06-2.29,1.41-3.49a4.35,4.35,0,0,0-.3-3.64,4.61,4.61,0,0,0-.56-.63A7.54,7.54,0,0,0,401.37,89c-4.16,1.21-11.23,3-13,1.48a11.37,11.37,0,0,1-3-3.47Z"/><path class="cls-5" d="M390.84,123.47c0,.13.36.29,1,.28a4.26,4.26,0,0,0,2.27-.84,4.21,4.21,0,0,0,1.46-1.92c.2-.59.15-1,0-1-.28-.07-.78,1.21-2.08,2.14S390.85,123.19,390.84,123.47Z"/><path class="cls-8" d="M324.25,177C322.77,174.6,321,172,321,172l-1.43-2.44a3,3,0,0,0-.33.46,2.11,2.11,0,0,1-.69.81,1.68,1.68,0,0,1-1.86-.45,4,4,0,0,1,1.38-6.8,3.07,3.07,0,0,1,.75-.89c2.06-1.68,5.76-.54,5.76-.54l-.39-.92s-2.2-2.18-7.06-.48a3.12,3.12,0,0,1-2.25,0,1.58,1.58,0,0,1-1-.95c-.39-1.19.36-1.77,3.38-2.88s6.31-1.17,8.12,0a21.08,21.08,0,0,1,2.44,1.76s-3-8.54-3.13-9.09c-.49-1.58-.18-3.12.85-3.54.66-.27,1.69-.12,2.3,1.71.54,1.59,8.07,17.12,8.07,17.12l2.93,7.06,1.47,6.22-10.58,3-.76-.26A8.84,8.84,0,0,1,324.25,177Z"/><path class="cls-8" d="M337.26,171.75a2.37,2.37,0,0,1-2.72-.44c-.75-.64-1.27-1.5-2-2.19-2.11-2.05-5.59-2.22-7.61-4.37-.28-.3-.53-.75-.3-1.09s.68-.27,1.06-.2l9.58,1.8"/><path class="cls-9" d="M335.29,165.26a3.52,3.52,0,0,0-1-.3c-.66-.16-1.62-.37-2.81-.62l-4.18-.85-1.21-.23a1.92,1.92,0,0,0-1.46.06.8.8,0,0,0-.29.87,1.6,1.6,0,0,0,.38.69,6.45,6.45,0,0,0,1.09.94,37.4,37.4,0,0,0,4.76,2.23,7.55,7.55,0,0,1,1.84,1.22c.5.47.89,1,1.31,1.46a3.5,3.5,0,0,0,2.55,1.4c.74,0,1-.37,1-.38a2.8,2.8,0,0,1-1,.16,3.33,3.33,0,0,1-2.26-1.43c-.39-.46-.77-1-1.29-1.54a7.54,7.54,0,0,0-1.93-1.34,45.89,45.89,0,0,1-4.67-2.23,6.32,6.32,0,0,1-1-.85c-.28-.3-.38-.66-.18-.76s.63-.06,1,0l1.21.22,4.2.72c1.2.2,2.17.36,2.84.45A4.65,4.65,0,0,0,335.29,165.26Z"/><path class="cls-9" d="M324.72,162.11a4.08,4.08,0,0,0-1.12-1.46,3.06,3.06,0,0,0-1.86-.59,7.89,7.89,0,0,0-2.43.43,12.57,12.57,0,0,1-2.49.58,4,4,0,0,1-2.1-.3,1.57,1.57,0,0,1-.91-1.11c-.07-.33,0-.52,0-.52s0,.19.13.49a1.51,1.51,0,0,0,.88.91,4.09,4.09,0,0,0,2,.21,14,14,0,0,0,2.42-.6,7.47,7.47,0,0,1,2.54-.42,3.24,3.24,0,0,1,2,.72,2.8,2.8,0,0,1,.85,1.15C324.73,161.92,324.74,162.1,324.72,162.11Z"/><path class="cls-9" d="M324.53,148.92a10.43,10.43,0,0,1,.6,1.69c.38,1.17.84,2.57,1.35,4.11s1,2.93,1.4,4.1a9.08,9.08,0,0,1,.54,1.71,8.21,8.21,0,0,1-.77-1.62c-.43-1-1-2.47-1.51-4.07s-1-3.08-1.25-4.16A7.67,7.67,0,0,1,324.53,148.92Z"/><path class="cls-9" d="M323.44,164.68a2.62,2.62,0,0,1-.56,0,1.66,1.66,0,0,0-1.34.37.88.88,0,0,0-.21.86,5.06,5.06,0,0,0,.46,1.08,2,2,0,0,1,.25,1.4,1.67,1.67,0,0,1-1.07,1.11,2,2,0,0,1-1.54-.14,2.41,2.41,0,0,1-1-1,8.08,8.08,0,0,1-.71-2.2,4.59,4.59,0,0,1,0-1.55,1,1,0,0,1,.21-.54,4.57,4.57,0,0,1-.07.55,5.15,5.15,0,0,0,.15,1.49,8.56,8.56,0,0,0,.75,2.09,1.93,1.93,0,0,0,2.16.94,1.34,1.34,0,0,0,.86-.86,1.72,1.72,0,0,0-.21-1.18,5,5,0,0,1-.45-1.16,1.14,1.14,0,0,1,.32-1.09,1.72,1.72,0,0,1,1.53-.33C323.25,164.58,323.44,164.65,323.44,164.68Z"/><path class="cls-9" d="M319.48,169s.12.15.12.5a1.56,1.56,0,0,1-.7,1.2,2.07,2.07,0,0,1-2.07,0,3.42,3.42,0,0,1-1.6-2,4.14,4.14,0,0,1-.05-2.53,3.89,3.89,0,0,1,1.12-1.73,3.58,3.58,0,0,1,1.17-.72c.31-.12.49-.13.5-.11a6.13,6.13,0,0,0-1.5,1,4,4,0,0,0-1,1.65,3.9,3.9,0,0,0,.07,2.31,3.13,3.13,0,0,0,1.41,1.8,1.87,1.87,0,0,0,1.79,0,1.5,1.5,0,0,0,.69-1C319.51,169.21,319.45,169,319.48,169Z"/><path class="cls-9" d="M327.32,172.8a1.54,1.54,0,0,1,.82-.26,3.48,3.48,0,0,1,2.15.49l-.26.18a10.4,10.4,0,0,1-.19-1.2,7.58,7.58,0,0,1,.55-4.16,20,20,0,0,0-.2,4.13c0,.41.11.8.18,1.16l.08.4-.34-.22a3.55,3.55,0,0,0-1.95-.56A7.27,7.27,0,0,1,327.32,172.8Z"/><path class="cls-9" d="M322.22,158.29c.09,0,0,.73-.67,1.3s-1.38.62-1.38.53.58-.29,1.14-.79S322.12,158.25,322.22,158.29Z"/><path class="cls-2" d="M384.16,145.42s-5.39.65-6,.69c-4.55.28-12,3-15.44,9.46-2.54,4.74-7.38,24.05-8.67,29.27L352.2,191l-11.34-18-16.13,9.2s16.76,40.55,27.6,40.54,15.88-10.83,15.88-10.83L368,187.51Z"/><path class="cls-5" d="M363.81,162.37a2.34,2.34,0,0,0-.05.54c0,.42,0,.94,0,1.57,0,1.36,0,3.33,0,5.76.09,4.86.39,11.58.8,19s.77,14.11.95,19c.09,2.37.16,4.32.21,5.75,0,.63,0,1.15.07,1.56a2,2,0,0,0,.06.55,2.39,2.39,0,0,0,.05-.55q0-.62,0-1.56c0-1.36,0-3.33,0-5.76-.09-4.87-.39-11.58-.8-19s-.77-14.11-1-19c-.09-2.37-.16-4.32-.21-5.75l-.07-1.57A2,2,0,0,0,363.81,162.37Z"/><path class="cls-2" d="M447.83,165.44c-2.76-12.32-16.38-15.74-16.38-15.74l-4.62,44.48,2.87,7.22,24.36-5.27S451.28,180.9,447.83,165.44Z"/><path class="cls-2" d="M425.44,190.55l9.11,8.78-2.94-16.79,18.48-5.84s4.91,23,5.76,28.48c1.53,9.78-.35,23.67-9.46,24.65-9.85,1.06-17.3-8.66-22-15-3.64-4.91-9.52-13.48-9.52-13.48l10.6-10.76"/><path class="cls-2" d="M434.55,220.28l-.72-20.89L434.92,151l-19.41-8.83-2.57-7.59-21.71,9.67-4.35-4.57-2.52,4.88-7.73,1.75-6.31,17.86L365,178.21s1.55,48.77,2.88,66.66c.18,2.35-2.88,3.37.51,6,0,0,5.08,3,16.09,3.27,31.35.82,50.6-4.19,51.62-4.65h0a6.43,6.43,0,0,0,1.91-5.39c-.09-.74-.25-1.54-.39-2.55l-3-21.26"/><path class="cls-5" d="M383.4,255.59a.72.72,0,0,1,0-.27c0-.21,0-.47-.06-.79,0-.74-.1-1.76-.17-3-.12-2.7-.29-6.5-.5-11.18-.35-9.44-.8-22.49-.65-36.91.09-7.22.33-14.1,1-20.33s1.79-11.76,2.76-16.39,1.87-8.33,2.49-10.9c.32-1.24.56-2.22.74-2.95.09-.3.16-.55.21-.76s.08-.26.09-.25a.93.93,0,0,1,0,.27l-.15.77c-.16.73-.37,1.73-.63,3-.56,2.58-1.39,6.31-2.32,10.93s-1.94,10.16-2.62,16.36-.88,13.07-1,20.27c-.15,14.41.23,27.45.48,36.89.13,4.68.23,8.49.31,11.19,0,1.27,0,2.29.06,3v.79A1.39,1.39,0,0,1,383.4,255.59Z"/><path class="cls-5" d="M397.68,174.42a9.61,9.61,0,0,1,1.29,0l3.75.22,13.67.94h.26l0,.27c-.47,6.26-1,13.76-1.65,21.85v.15l-.12.08c-.64.47-1.33.94-2,1.4a41.15,41.15,0,0,1-3.84,2.23A11.53,11.53,0,0,1,404.8,203a8.36,8.36,0,0,1-4.13-1,18,18,0,0,1-3.34-2.24c-.51-.41-1-.84-1.45-1.27a2.63,2.63,0,0,1-.65-.78,3.74,3.74,0,0,1-.36-.92,13.7,13.7,0,0,1-.34-3.61,52.07,52.07,0,0,1,.58-6.38c.56-3.87,1.23-7,1.71-9.09.25-1.06.45-1.89.6-2.44a4.39,4.39,0,0,1,.26-.84,5.49,5.49,0,0,1-.13.87c-.13.62-.29,1.44-.49,2.46-.4,2.14-1,5.24-1.51,9.1a54.4,54.4,0,0,0-.5,6.33,14,14,0,0,0,.35,3.45,2.68,2.68,0,0,0,.86,1.43c.46.43.94.84,1.43,1.24a17.61,17.61,0,0,0,3.25,2.15,7.78,7.78,0,0,0,3.82.88,10.88,10.88,0,0,0,3.93-1.29,40.16,40.16,0,0,0,3.78-2.19c.7-.46,1.39-.93,2-1.38l-.13.23c.65-8.09,1.26-15.58,1.76-21.84l.24.28L402.85,175l-3.79-.36-1-.11Z"/><path class="cls-5" d="M416.23,181.54c0,.18-4.45,0-9.91-.45s-9.87-.91-9.86-1.09,4.45,0,9.91.46S416.24,181.37,416.23,181.54Z"/><g class="cls-10"><path d="M395.51,197.64c1.07,1.76,2.06,4.17,3.52,5.62a8.57,8.57,0,0,0,5.41,2.69,8.85,8.85,0,0,0,5.12-1.52,13.58,13.58,0,0,0,5.11-6.7c.15-.2-3.55,2.27-5.56,3.34a9,9,0,0,1-5.69,1.22c-3-.24-5.65-2.69-7.91-4.65"/></g><g class="cls-10"><polygon points="391.6 145.62 392.39 155.8 414 142.86 393.15 153.86 391.6 145.62"/></g><path class="cls-7" d="M387.05,157.88a349,349,0,0,0-7.9,51.62c-.92,12.06-1.59,28.05-1.59,28.05l7,8.66,8.36-8.3s-1.7-34.69-1.66-46.32c0-9.36-.35-33.52-.35-33.52Z"/><path class="cls-5" d="M428.85,173a4.69,4.69,0,0,1,.22,1c.13.69.29,1.58.48,2.66.4,2.3.93,5.37,1.51,8.77s1.11,6.53,1.44,8.78c.17,1.13.3,2,.38,2.67a4.84,4.84,0,0,1,.09,1,6.08,6.08,0,0,1-.22-1c-.12-.68-.28-1.57-.48-2.65-.4-2.3-.94-5.37-1.53-8.77s-1.08-6.53-1.42-8.78c-.15-1.09-.28-2-.37-2.68A7,7,0,0,1,428.85,173Z"/><path class="cls-5" d="M435.88,152.37s-.64.57-1.6,1.56a19.44,19.44,0,0,0-5,9.32c-.29,1.35-.36,2.2-.42,2.2a2.4,2.4,0,0,1,0-.61,11.65,11.65,0,0,1,.19-1.63,17.54,17.54,0,0,1,1.8-5.12,17.36,17.36,0,0,1,3.28-4.32,13.23,13.23,0,0,1,1.26-1.07A2.12,2.12,0,0,1,435.88,152.37Z"/><polygon class="cls-7" points="391.42 148.92 389.25 148.44 387.14 152.24 387.05 157.88 390.91 158.07 393.29 153.6 391.42 148.92"/><path class="cls-5" d="M389.6,159c-.05.08-.59-.17-1.2-.56s-1.07-.76-1-.84.58.18,1.2.56S389.65,159,389.6,159Z"/><path class="cls-5" d="M390.1,157.32a15.1,15.1,0,0,1-1.43-2.86,16.28,16.28,0,0,1-1.14-3,14.85,14.85,0,0,1,1.44,2.85A15.45,15.45,0,0,1,390.1,157.32Z"/><g class="cls-10"><path d="M416.86,208.13s5.31,5,7.54,8.92c1.58,2.75,6,6.42,11.06,9.64l.79,5.5c-2.79-.55-7.68-4.17-9.57-6.3a39.83,39.83,0,0,1-5.26-6.83c-2.55-4.54-6-8.9-6.93-14Z"/></g><path class="cls-5" d="M434.76,226.13a2.61,2.61,0,0,0-.47-.36c-.31-.23-.8-.52-1.38-1a52.73,52.73,0,0,1-4.75-4.14,139.92,139.92,0,0,1-13.88-16.35l0,.25,3.08-7.47c1.29-3.12,2.53-6.15,3.7-9l-.4.1,21.73,18.38a1.74,1.74,0,0,0-.36-.42c-.26-.25-.64-.62-1.16-1.09-1-.94-2.53-2.28-4.43-3.95-3.81-3.34-9.21-8-15.45-13.31l-.27-.23-.13.33-3.71,9c-1.06,2.57-2.09,5.07-3.07,7.47l-.06.14.09.11a128.61,128.61,0,0,0,14.06,16.29,43.83,43.83,0,0,0,4.87,4c.61.43,1.11.7,1.44.91A2.69,2.69,0,0,0,434.76,226.13Z"/><path class="cls-5" d="M361.15,172.22l7.6,28.71a3.57,3.57,0,0,0,3.52,2.66l39.36-.77a3.57,3.57,0,0,0,3.42-4.31l-5.8-27.5a3.56,3.56,0,0,0-3.49-2.83h-41.5A3.22,3.22,0,0,0,361.15,172.22Z"/><path class="cls-6" d="M413,201l-.06-.18-.13-.56c-.12-.51-.29-1.23-.49-2.14-.42-1.89-1-4.58-1.75-7.89S408.94,183,408,178.56c-.48-2.21-1-4.52-1.49-6.92a1.58,1.58,0,0,0-1-1.24,2,2,0,0,0-.87-.1h-4.8l-26.67-.05-8.08-.06-2.19,0-.57,0-.2,0,.2,0h.57l2.19,0,8.08-.05,26.67-.06h4.8a2.45,2.45,0,0,1,1,.12,1.94,1.94,0,0,1,1.23,1.5l1.47,6.92c.93,4.41,1.76,8.38,2.47,11.73s1.24,6,1.63,7.91c.18.92.32,1.64.43,2.16l.1.56C413,201,413,201,413,201Z"/><path class="cls-2" d="M388,177.92a2,2,0,1,1-2.68-1.37A2.14,2.14,0,0,1,388,177.92Z"/><path class="cls-8" d="M422.18,190.15l-1.87-1.75s-1.24-4.12-2-4.9a8.71,8.71,0,0,0-2.88-1.37l-4.7-4.31.86,3.85-6.82,0a1.92,1.92,0,0,0-1.85,1.19.72.72,0,0,0-.06.37A2.5,2.5,0,0,0,404.2,185l1,.46a2.31,2.31,0,0,0-1.61,1.67,2.14,2.14,0,0,0,1.42,2.3,1.89,1.89,0,0,0-.71,2.76s-1.56,1.85-.66,3.1,6.08,3.35,6.08,3.35l2.86,1.3a4.89,4.89,0,0,0,2.15.12l1.12.16,1.2,1S423.87,197.44,422.18,190.15Z"/><path class="cls-9" d="M414.84,187.19a5.51,5.51,0,0,1-1.55,0,27.92,27.92,0,0,1-3.7-.5,29.42,29.42,0,0,1-3.61-1,4.9,4.9,0,0,1-1.42-.62c0-.11,2.27.62,5.11,1.19S414.84,187.07,414.84,187.19Z"/><path class="cls-9" d="M416.71,192.56A89.46,89.46,0,0,1,405,189.4a44.17,44.17,0,0,1,5.91,1.39A45.17,45.17,0,0,1,416.71,192.56Z"/><path class="cls-9" d="M416.16,196.58a7.16,7.16,0,0,1-1.89-.24,30.59,30.59,0,0,1-4.42-1.27,29.84,29.84,0,0,1-4.18-1.92,6.74,6.74,0,0,1-1.59-1.05,11.35,11.35,0,0,1,1.72.79,45.21,45.21,0,0,0,4.19,1.79c1.67.62,3.22,1.07,4.34,1.37A11.07,11.07,0,0,1,416.16,196.58Z"/><path class="cls-9" d="M417.43,191.38c-.11,0,.11-.8-.05-1.72s-.6-1.57-.51-1.65.74.53.91,1.58A2,2,0,0,1,417.43,191.38Z"/><path class="cls-9" d="M417.5,186.44c-.07-.09.28-.51.34-1.14s-.19-1.12-.1-1.19.18.06.31.27a1.62,1.62,0,0,1,.19,1,1.57,1.57,0,0,1-.38.89C417.69,186.42,417.54,186.48,417.5,186.44Z"/><path class="cls-9" d="M417.05,196.34c-.09-.08.18-.5.34-1.07s.17-1.07.29-1.08.3.53.1,1.2S417.12,196.42,417.05,196.34Z"/><path class="cls-9" d="M406.51,181.66a27.16,27.16,0,0,0,4,.32,26.2,26.2,0,0,0,4,.24,10.91,10.91,0,0,0-4-.76A11,11,0,0,0,406.51,181.66Z"/><path class="cls-5" d="M384.76,145.48a2.06,2.06,0,0,1,.19.47c.13.35.29.81.49,1.38.42,1.25,1,3,1.74,5.12l-.23,0,4.05-7.64.21-.39.1.43c.59,2.61,1.24,5.47,1.92,8.46l.1.46-.26-.12,15.2-8,4.61-2.36,1.25-.63a3.16,3.16,0,0,1,.45-.2,2.06,2.06,0,0,1-.41.26l-1.23.69-4.56,2.46c-3.89,2.08-9.23,4.91-15.14,8.05l-.2.11-.06-.22-.1-.46c-.67-3-1.31-5.85-1.89-8.46l.3,0-4.12,7.6-.14.26-.09-.28c-.68-2.15-1.23-3.9-1.63-5.15l-.43-1.41A3,3,0,0,1,384.76,145.48Z"/></svg>