<?xml version="1.0" encoding="utf-8"?>
<!-- Generator: Adobe Illustrator 26.0.3, SVG Export Plug-In . SVG Version: 6.00 Build 0)  -->
<svg version="1.1" xmlns="http://www.w3.org/2000/svg" xmlns:xlink="http://www.w3.org/1999/xlink" x="0px" y="0px"
	 viewBox="0 0 91.7 99.9" style="enable-background:new 0 0 91.7 99.9;" xml:space="preserve">
<style type="text/css">
	.st0{fill:#F2F2F2;}
	.st1{fill:#F47C71;}
	.st2{fill:none;stroke:#010101;stroke-width:1.7064;stroke-miterlimit:10;}
</style>
<g id="OBJECTS">
	<path id="XMLID_116_" class="st1" d="M89.6,56.4L46.3,99.8c-0.2,0.2-0.6,0.2-0.8,0L2.1,56.4c-0.2-0.2-0.2-0.6,0-0.8l43.3-43.3
		c0.2-0.2,0.6-0.2,0.8,0l43.3,43.3C89.8,55.8,89.8,56.2,89.6,56.4z"/>
	<path id="XMLID_120_" class="st2" d="M90.6,46.6l-44,44c-0.4,0.4-1,0.4-1.4,0l-44-44c-0.4-0.4-0.4-1,0-1.4l44-44
		c0.4-0.4,1-0.4,1.4,0l44,44C90.9,45.5,90.9,46.2,90.6,46.6z"/>
</g>
</svg>
