<?xml version="1.0" encoding="utf-8"?>
<!-- Generator: Adobe Illustrator 26.0.3, SVG Export Plug-In . SVG Version: 6.00 Build 0)  -->
<svg version="1.1" id="Ñëîé_1" xmlns="http://www.w3.org/2000/svg" xmlns:xlink="http://www.w3.org/1999/xlink" x="0px" y="0px"
	 viewBox="0 0 31.22 29.14" style="enable-background:new 0 0 31.22 29.14;" xml:space="preserve">
<style type="text/css">
	.st0{fill:#60C4B0;}
	.st1{fill:#343434;}
</style>
<g>
	<path class="st0" d="M29.11,19.2c0-0.03-0.01-0.08-0.05-0.12c-0.01-0.01-0.01,0-0.02-0.01c0.02-0.06,0.04-0.12,0.06-0.19
		c0.07-0.21,0.13-0.42,0.2-0.64l0.17-0.73c0.05-0.22,0.1-0.46,0.14-0.71c0.12,0.04,0.3-0.1,0.23-0.19
		c-0.04-0.06-0.12-0.07-0.18-0.06c0,0-0.01-0.01-0.01-0.01c0.1-0.7,0.16-1.43,0.18-2.05c-0.01-0.36-0.02-0.67-0.04-0.96
		c0.1-0.06,0.08-0.25-0.02-0.35c-0.03-0.35-0.07-0.61-0.09-0.75c0-0.14,0-0.29-0.01-0.44c0.23,0,0.47-0.29,0.33-0.54
		c-0.1-0.16-0.26-0.16-0.39-0.09c-0.06-0.35-0.13-0.59-0.21-0.51c-0.09-0.47,0.09-1.02-0.24-1.35c0.07,0.32,0.13,0.62,0.12,0.83
		c-0.14-0.55-0.33-1.08-0.52-1.59L28.7,8.61c0.14-0.22,0.31-0.53,0.23-0.64c-0.05-0.06-0.33-0.06-0.53-0.05l-0.04-0.08l-0.01-0.03
		l-0.13-0.25L28.1,7.34L28,7.16c0.02-0.02,0.04-0.04,0.05-0.06c0.12-0.18,0.04-0.35-0.09-0.45c0.11-0.07,0.29-0.06,0.4-0.07
		c0.13-0.01,0.45,0.1,0.56,0.02c0.04-0.03,0-0.55-0.02-0.61c-0.08-0.25-0.24,0.03-0.36-0.07c-0.05-0.04-0.11-0.07-0.17-0.08
		c-0.13-0.27-0.37-0.51-0.47-0.16c-0.02,0.06,0.06,0.14,0.13,0.2c-0.09,0.03-0.17,0.09-0.25,0.14c0-0.22-0.13-0.42-0.32-0.52
		c0.08-0.1,0.05-0.26-0.17-0.47c0.12,0,0.24-0.01,0.32-0.07c0.18-0.15,0.3-0.4,0.22-0.64c0,0,0-0.01,0-0.01
		c-0.01-0.11-0.07-0.23-0.18-0.25c-0.28-0.22-0.73-0.05-0.87,0.33c-0.04,0.1-0.03,0.21-0.02,0.32c-0.15-0.06-0.29-0.11-0.35-0.06
		c-0.04,0.03-0.04,0.15-0.04,0.28l-0.17-0.16c0.13-0.03,0.28-0.17,0.21-0.29c-0.08-0.15-0.34-0.01-0.37,0.14l-0.12-0.11
		c-0.11-0.09-0.21-0.18-0.32-0.27c0.08-0.54-0.1-1.14-0.43-1.56c-0.11-0.13-0.21-0.18-0.32-0.18c-0.05-0.07-0.2-0.09-0.29,0.03
		c-0.04,0.05-0.04,0.08-0.03,0.11c-0.21,0.17-0.39,0.45-0.52,0.61C23.8,3.15,23.6,3.07,23.4,3c0.2-0.12-0.01-0.42-0.15-0.39
		c0,0,0-0.01,0.01-0.01c0.13-0.13,0.14-0.27,0.23-0.41c0.1-0.15,0.22-0.18,0.19-0.4c-0.03-0.16-0.22-0.2-0.32-0.1
		c-0.22,0.21-0.8,0.44-0.59,0.83c0.06,0.12,0.18,0.41,0.27,0.48c0.01,0.01,0.08,0.04,0.15,0.06c-0.05,0.33-1.08-0.23-0.91,0.22
		C21.8,3.13,21.37,3.05,21,3.03c-0.14,0-0.28,0.01-0.41,0.01c-0.12-0.15-0.24-0.3-0.37-0.46c-0.09,0.21-0.11,0.05-0.25-0.11
		c0.02-0.02,0.05-0.05,0.06-0.08c0.04,0.01,0.08,0.01,0.12-0.01c0.42-0.19,0.26-1.13-0.26-0.97c-0.23,0.07-0.27,0.33-0.21,0.56
		c-0.05,0.03-0.11,0.06-0.14,0.11c-0.3-0.29-0.71-0.58-0.7-0.82c-0.38-0.07-1.28-0.76-1.63-0.69c0.37,0.16,0.68,0.36,0.82,0.57
		c-0.26-0.16-0.25,0.01-0.38,0.02c-0.04-0.04-0.09-0.06-0.14-0.06c-0.06-0.13-0.16-0.25-0.34-0.37c-0.45,0.37-0.7-0.34-0.83,0.17
		c-0.2-0.07-0.39-0.14-0.57-0.2c-0.02-0.13-0.14-0.27-0.31-0.19c-0.04,0.02-0.05,0.05-0.06,0.07c-0.47-0.14-0.88-0.21-1.2-0.15
		c0.28,0.23,0.69,0.32,1.07,0.37c0.07,0.01,0.13,0.02,0.19,0.03c0.05,0.04,0.11,0.07,0.18,0.06c0.02,0,0.03-0.01,0.04-0.02
		C15.91,0.9,16.09,0.94,16.18,1c-0.35,0.16-0.79,0.2-1.33,0.24c0.21-0.08,0.13-0.23-0.25-0.28l-0.07,0.79
		c0.38,0.14,0.63,0.22,0.76,0.3c-0.4-0.02,0.02,0.27,0.08,0.35c-0.65-0.04-0.62-0.08-1.28-0.07c0-0.04-0.01-0.07-0.02-0.1
		c0.08-0.04,0.15-0.11,0.15-0.19c0.24,0.01,0.55,0.06,0.28-0.05c-0.19-0.05-0.48-0.03-0.51-0.14c0.19-0.16,0.13-0.43,0.4-0.12
		c-0.11-0.52-0.35-0.52,0.07-0.95c-0.59,0.18-1.19-0.24-1.66-0.47c-0.01,0.03-0.27-0.03-0.55-0.03C12,0.3,11.7,0.37,11.61,0.6
		c0.92-0.23,1.21,0.14,1.62,0.34c-0.2,0.13-0.8,0.42-1.18,0.24c0.02-0.12,0.31-0.12,0.52-0.13c-0.32-0.68-1.17,0.05-1.5-0.43
		c0.19,0.04,0.33,0.03,0.38-0.15c-0.82-0.07-0.56,0.36-1.05,0.57c0,0-0.01,0-0.01,0c-0.02-0.07-0.11-0.13-0.2-0.05c0,0,0,0,0,0
		c-0.07-0.01-0.14-0.02-0.19-0.01c0.04-0.07,0.13-0.12,0.29-0.16c-0.02-0.25-0.52-0.11-0.21-0.43c-0.02,0.01-0.02,0.01-0.04,0.02
		c0.03-0.05,0.05-0.11,0.04-0.18c-0.04-0.34-0.51-0.26-0.49,0.07C9.62,0.44,9.71,0.5,9.8,0.52C9.42,0.68,9.25,0.7,8.82,0.78
		C9.23,0.85,9.6,0.97,9.65,1.31c-0.03,0.14-0.01,0.34-0.2,0.33c-0.25,0-0.26-0.03-0.3,0.09C8.95,1.71,8.67,1.7,8.62,1.55
		C8.55,1.62,8.45,1.7,8.35,1.78c-0.2-0.2-0.38-0.56-0.61-0.62C7.28,1.05,7.29,1.83,7,2.01C6.91,2.06,6.76,2.12,6.61,2.17
		c0.01-0.1,0.02-0.2,0.02-0.28c0-0.25,0-0.79-0.37-0.76C5.97,1.15,5.86,1.52,5.86,1.75c0,0.08,0.02,0.19,0.05,0.31
		C5.77,1.95,5.68,1.91,5.46,2.12C5.4,2.17,5.35,2.26,5.33,2.33C5.26,2.36,5.18,2.4,5.11,2.44c-0.06-0.08-0.13-0.15-0.19-0.2
		C4.88,2.2,4.84,2.19,4.81,2.19C4.82,2.1,4.8,2.01,4.74,1.99c0.09-0.05,0.2-0.1,0.29-0.15c0.02,0.2,0.34,0.18,0.28,0.02
		C5.29,1.79,5.23,1.73,5.17,1.71c0,0,0.01-0.01,0.01-0.01C5.15,1.58,5,1.65,4.94,1.64c-0.06-0.01-0.1-0.07-0.13-0.13
		c0.09-0.05,0.17-0.07,0.2-0.22C5.04,1.15,4.89,1.05,4.78,1.1C4.71,1.13,4.63,1.15,4.54,1.17C4.44,1.07,4.32,1.03,4.19,1.17
		c-0.04,0.05-0.05,0.1-0.06,0.15C4.04,1.38,3.99,1.47,4.01,1.6c0.01,0.06,0.01,0.15,0.02,0.25c-0.22-0.1-0.53-0.4-0.58-0.41
		C3.15,1.37,3.07,1.89,3.01,2.07C2.9,2.49,2.95,2.71,3.18,3.09C3.25,3.21,3.54,3.72,3.2,3.77C2.93,3.81,2.46,3.62,2.28,3.9
		c-0.05-0.09-0.19-0.16-0.3,0.01C1.86,4.09,2.12,4.09,2.23,4.06c0.01,0.21,0.44,0.38,0.65,0.42C2.52,4.59,2.5,5.09,2.8,5.33
		c0.02,0.02,0.05,0.02,0.07,0.04C2.78,5.41,2.7,5.45,2.7,5.49c0.01,0.07,0.15,0.13,0.14,0.2c0,0,0,0,0,0.01
		C2.82,5.67,2.8,5.66,2.77,5.66c-0.08,0.01-0.1,0.09-0.09,0.17C2.62,5.86,2.56,5.87,2.52,5.91C2.3,6.08,2.62,6.5,2.51,6.52
		C2.4,6.53,2.35,6.61,2.32,6.69c-0.07-0.26-0.48-0.2-0.44,0.07C1.91,7,2.2,7,2.3,6.84c0,0.09,0.02,0.18,0.06,0.25
		C2.51,7.35,2.74,7.4,3,7.32c0.22-0.07-0.1,0.31,0.11,0.36C3.19,7.7,3.27,7.67,3.35,7.63C3.33,7.68,3.3,7.74,3.28,7.79
		c0.05-0.06,0.1-0.14,0.16-0.21C3.52,7.53,3.6,7.5,3.69,7.48c-0.1,0.06-0.16,0.19-0.12,0.31C3.54,7.84,3.51,7.87,3.48,7.91
		c0-0.02-0.01-0.03-0.04-0.04C3.3,7.8,3.17,8.03,3.33,8.06c0.01,0,0.01,0,0.02,0C3.33,8.07,3.32,8.09,3.3,8.1
		C3.22,8.1,3.15,8.14,3.08,8.22c-0.02,0.03-0.03,0.07-0.02,0.1C2.98,8.4,2.9,8.5,2.81,8.66C2.65,8.68,2.5,8.75,2.44,8.91
		c-0.04,0.11,0.03,0.2,0.16,0.26C2.57,9.24,2.55,9.31,2.53,9.38c0.05,0.17,0.14,0.04,0.23-0.16c0.1,0.02,0.21,0.03,0.31,0.02
		C3.05,9.37,3.02,9.49,2.98,9.61c0,0,0,0,0,0c0,0,0,0,0,0C2.97,9.66,2.96,9.69,2.95,9.73C2.94,9.71,2.94,9.69,2.92,9.67
		C2.77,9.5,2.51,9.67,2.58,9.88c0.01,0.03,0.03,0.06,0.05,0.08c-0.14,0.13-0.07,0.47-0.16,0.45c-0.06-0.01-0.11,0-0.15,0.02
		c0.06-0.36,0.09-0.62,0.07-0.85C2.18,9.92,2.01,9.8,1.81,10.11C1.85,9.8,1.94,9.4,2.18,8.86c-0.33-0.2-0.58,1.52-0.74,1.65
		C1.46,10,1.76,9.45,1.75,8.89C1.43,9.45,1.25,8.91,1.12,9.14c-0.13,0.82,0.22,0.08,0.03,0.95c-0.18,1-0.32,1.85-0.39,2.56
		l-0.04,0.44l0.01,0.26c-0.25-0.22-0.25,0.32-0.21,0.45c0.04,0.11,0.16,0.03,0.23-0.1c0.01,0.24,0.04,0.46,0.07,0.67
		c-0.08,0.09-0.14,0.19-0.16,0.31c-0.04,0.27,0.01,0.68,0.05,0.95c0.05,0.29,0.3,0.26,0.53,0.26c0.1,0,0.32,0.1,0.4,0.01
		c0.02-0.02,0.04-0.07,0.07-0.12c0.13,0.31,0.27,0.3,0.42,0.61c0.01,0.08,0.02,0.15,0.03,0.21c-0.23,0.07-0.4,0.46-0.23,0.56
		c0.14,0.09,0.3,0.04,0.41-0.05c0.06,0.13,0.13,0.3,0.23,0.56c-0.53-0.67,0.02,0.74-0.44,0.62c-0.03-0.13-0.07-0.26-0.12-0.39
		c0.08-0.05,0.07-0.25-0.05-0.23c-0.02,0-0.03,0.02-0.04,0.03c-0.08-0.17-0.17-0.32-0.26-0.44c0,0.3,0.15,0.74,0.36,1.19
		c-0.03,0-0.06,0.01-0.08,0.04c-0.16,0.18,0.07,0.58,0.28,0.39c0,0,0-0.01,0.01-0.01c0.05,0.09,0.1,0.19,0.15,0.28
		c0.18,0.31,0.37,0.62,0.54,0.89c0.15,0.25,0.27,0.48,0.31,0.69c0.03-0.31,0.38,0.3,0.63,0.58c-0.09,0.12-0.07,0.34,0,0.46
		c0.15,0.25,0.37,0.3,0.61,0.22c0.21-0.06-0.1,0.3,0.11,0.34c0.1,0.02,0.2-0.03,0.29-0.08c0.15,0.15,0.3,0.31,0.4,0.45
		c-0.19,0.33,0.36,0.62,0.11,0.87C5.31,23.7,5,23.54,4.84,23.53c-0.01,0-0.01-0.01-0.01-0.01c0,0,0,0-0.01,0.01
		c-0.05,0-0.07,0.03-0.07,0.08c-0.01,0.04-0.01,0.09,0.02,0.13c0.04,0.19,0.1,0.49,0.29,0.44c0.17,0.05,0.22,0.27,0.27,0.4
		c-0.11,0.01-0.22,0.1-0.2,0.25c0.04,0.32,0.47,0.22,0.42-0.08c-0.01-0.07-0.05-0.11-0.08-0.14c0.09,0.03,0.22,0.1,0.33,0.17
		c0.19,0.1,0.34,0.18,0.15-0.07c-0.08,0-0.48-0.4-0.75-0.58c0.17-0.05,0.4-0.04,0.26-0.28c-0.01-0.02,0.61-0.09,0.64-0.12
		c0.06-0.05-0.12-0.17-0.01-0.22c0.06-0.03,0.17-0.23,0.18-0.29c0-0.04-0.03-0.16-0.05-0.28c0.11,0.05,0.2,0.08,0.26,0.09
		c0.01,0.03,0.03,0.06,0.07,0.06c0.07,0,0.04-0.32,0.09-0.41c0.04,0.02,0.09,0.03,0.13,0.07c-0.05,0.07-0.25,0.04-0.08,0.21
		c0.21-0.01,0.37,0.15,0.49,0.33c-0.11,0.13-0.16,0.25,0.09,0.33c0.08,0.02,0.25,0.31,0.3,0.09c0.01-0.04,0.02-0.08,0.03-0.11
		c0.09,0,0.18-0.01,0.18-0.17c0.03,0,0.05,0,0.08,0.01c0.06,0.02,0.15,0.01,0.22,0.02c0,0.02,0,0.05,0,0.07
		c0.01,0.02,0.03,0.05,0.06,0.07c0,0,0,0,0,0c-0.08,0.07-0.27,0.13-0.23,0.22c0.05,0.13,0.41-0.08,0.16,0.21
		C8.03,24.07,8,24.57,8.02,24.68c-0.03,0-0.05-0.01-0.08,0c-0.25,0.12-0.04,0.45,0.17,0.35c0.04-0.02,0.06-0.05,0.07-0.09
		c0.04,0.02,0.08,0.05,0.11,0.07c-0.58,0.05-0.09,0.68-0.27,0.9c-0.11,0.13-0.55-0.35-0.71,0.12c-0.07,0.2-0.01,0.45,0.04,0.65
		c0.03,0.13-0.08,0.26-0.04,0.38c0.03,0.08,0.23,0.21,0.28,0.08c0.03-0.08,0-0.17,0.03-0.25c0.06-0.17,0.59-0.18,0.75-0.19
		c0.1-0.01,0.24,0.28,0.45,0.3c0.18,0.01,0.5-0.14,0.62-0.27c0.27-0.31-0.11-0.86,0.17-1.01c0.05-0.02,0.09-0.07,0.13-0.12
		c0.22,0.1,0.57,0.18,0.86,0.35c-0.02,0.12-0.08,0.26,0.12,0.3c0.15-0.25,0.42,0.31,0.95,0.28l0.07-0.31
		c-0.31-0.17-0.2,0.27-0.52,0.06c0-0.04,0.01-0.07,0.03-0.09c0.13-0.04,0.24-0.15,0.29-0.29c0.04-0.01,0.07-0.02,0.08-0.05
		c-0.05,0.16,0.02,0.27,0.23,0.33c0.07-0.16,0.2-0.2,0.35-0.19c0.14,0.15,0.28,0.3,0.42,0.46c-0.01,0.16-0.06,0.2-0.12,0.19
		c-0.03-0.02-0.06-0.03-0.09-0.04c-0.1-0.07-0.21-0.19-0.3-0.24c-0.01,0.08,0.03,0.15,0.1,0.21c-0.18,0.01-0.32,0.13-0.21,0.33
		c0.07,0.13,0.43,0.19,0.58,0.1c0.19,0.08,0.39,0.05,0.47,0.22l0.14-0.36c0.25,0.23,0.34,0.15,0.48,0.16
		c0.01,0.18,0.1,0.37,0.25,0.46c0.05,0.03,0.11,0.05,0.18,0.07c0.03,0.05,0.07,0.1,0.14,0.15c0.02-0.03,0.05-0.04,0.07-0.04
		c0.02,0.03,0.04,0.06,0.04,0.11c0.01,0.41,0.67,0.29,0.74,0.08c0.01,0,0.01,0,0.02,0c-0.09,0.22-0.22,0.4-0.49,0.43
		c-0.15-0.18-0.4-0.72-0.68-0.48c0.13,0.08,0.33,0.15,0.33,0.25c-0.63,0.31,1.15,0.83,1.61,1.11c-0.07-0.34-0.77-0.53-0.98-0.86
		c0.49,0.25,0.14-0.41,0.58-0.21c0.33,0.33,0.78,0.11,1.33,0.27c0.07-0.31,0.58-0.31,0.85-0.2c-0.41,0.02-0.7,0.14-0.85,0.28
		c0.29,0.15,0.63,0.09,0.93,0.01c0.31-0.08,0.61-0.2,0.91-0.3c-0.2,0.02-0.18-0.15-0.31-0.19c0.83-0.07-0.05-0.29,0.53-0.42
		c0.06,0.21,0.17,0.51,0.53,0.69c0.13-0.09,0.05-0.16,0.01-0.23c-0.02-0.03-0.03-0.07-0.01-0.11c0.01-0.02,0.03-0.04,0.07-0.06
		c0.02-0.01,0.04-0.02,0.06-0.03l0.04-0.02l0.32-0.11l0,0l0.01,0l0.01-0.01c0.09,0.04,0.2,0.03,0.31,0.03
		c0.05,0.02,0.11,0.02,0.16,0.02c0.03,0.01,0.06,0.01,0.09,0.02c0.04,0.03,0.17,0.03,0.2,0.1c-0.05,0.04-0.11,0.08-0.13,0.1
		c-0.02,0.02-0.03,0.04-0.04,0.06c-0.02,0.04-0.03,0.08-0.04,0.11c-0.01,0.07,0,0.13,0.01,0.18c0.01,0.1,0,0.15-0.3,0.11
		c0,0.25,0.15,0.2,0.29,0.14c0.08-0.03,0.15-0.06,0.21-0.05c0.11-0.02,0.21-0.02,0.19,0.1c-0.16,0.05-0.2,0.04-0.25,0.04
		c-0.06,0-0.11,0.01-0.16,0.02c-0.1,0.03-0.19,0.09-0.24,0.23c0.11,0.01,0.21,0,0.31-0.03c0.05-0.01,0.1-0.03,0.15-0.05l0.07-0.03
		l0.17-0.09c0.46-0.25,0.87-0.54,1.19-0.71c-0.01-0.17-0.28,0.01-0.42,0c0.42-0.27,0.58-0.35,0.88-0.49
		c0.12-0.05,0.25-0.11,0.39-0.19c0.02,0.08,0.05,0.15,0.11,0.22c0.46,0.49,0.9-0.2,0.57-0.65c0.02-0.02,0.04-0.03,0.07-0.05
		l-0.15-0.26c-0.04,0.05-0.06,0.09-0.09,0.13c-0.17-0.13-0.35-0.21-0.45-0.1c0.02-0.16-0.37,0.04-0.1-0.39
		c0.23-0.23,0.45-0.45,0.55-0.32c-0.01,0.58,0.53-0.19,0.83,0.35c0.19-0.18,0.3-0.28,0.39-0.39c0.05,0.04,0.17,0.02,0.22-0.04
		c0.08-0.08,0-0.15-0.09-0.16c0.04-0.07,0.08-0.15,0.13-0.25c-0.01,0.03-0.02,0.06,0,0.09c0.07,0.16,0.37,0.01,0.28-0.12
		c-0.03-0.04-0.08-0.05-0.13-0.05c0.13-0.06,0.27-0.18,0.41-0.31c0.04,0.01,0.09,0,0.14-0.02c-0.16,0.35-0.46,0.61-0.51,0.83
		c0.04-0.05,0.07-0.07,0.11-0.1c0,0,0,0,0,0.01c0.03,0.12,0.19,0.18,0.21,0.02c0.01-0.05-0.01-0.08-0.03-0.11
		c0.08-0.02,0.16-0.04,0.27-0.2c-0.14-0.37,0.56-0.78,0.7-0.87c0.19-0.46,0.68-1.12,0.97-1.63c-0.27,0.44,0.13-0.36,0.32-0.46
		c-0.15-0.05,0.13-0.47-0.06-0.49c-0.35,0.83-0.59,0.93-0.83,1.58c-0.07-0.06-0.16,0.09-0.22-0.02c0.54-0.61,0.94-1.45,1.29-2.25
		c0.16,0.16,0.47,0.15,0.5,0.4c0.03,0.18,0.44,0.06,0.23-0.21c-0.13-0.16-0.12-0.17-0.1-0.41c0.01-0.12-0.01-0.27-0.14-0.32
		c0.1-0.19,0.21-0.41,0.33-0.66c0.05-0.02,0.08-0.02,0.13-0.04c0.12-0.06,0.7-0.45,0.65-0.63C29.44,19.33,29.27,19.25,29.11,19.2z
		 M22.95,26.69c0,0.01-0.01,0.03-0.01,0.04c-0.01,0-0.01,0-0.02,0.01C22.93,26.72,22.94,26.71,22.95,26.69z M9.1,25.42
		c-0.04-0.16-0.13-0.16-0.21-0.07c-0.04-0.01-0.07-0.03-0.11-0.04c-0.03-0.01-0.06-0.02-0.09-0.03c-0.02-0.06-0.06-0.1-0.09-0.14
		c0.02,0,0.04,0,0.06,0l0.07,0.01l0,0h0l-0.29-0.14h0l0.01,0l0.01,0l0.02,0c0.06,0,0.12-0.01,0.16-0.08
		c-0.07-0.02-0.11-0.05-0.14-0.09l0-0.01l0,0l0.28,0.13v0l0,0l-0.02-0.02l-0.03-0.03L8.7,24.85c-0.05-0.08-0.1-0.15-0.2-0.22
		c0.22-0.08,0.44-0.16,0.47-0.14c0.09,0.08-0.23,0.17-0.23,0.23c0,0.01,0.02,0.03,0.03,0.04c-0.02,0.01-0.05,0.01-0.06,0.03
		c0.12,0.06,0.19,0.1,0.22,0.13c0.01,0.01,0.01,0.01,0.02,0.02C8.95,24.97,8.9,25,8.79,25.01c0.14,0.05,0.13,0.18,0.2,0.27
		c0.01-0.07,0.06-0.1,0.13-0.14c0.05,0.1,0.15,0.32,0.24,0.48C9.3,25.53,9.21,25.46,9.1,25.42z M5.41,22.57
		c-0.02-0.04-0.05-0.08-0.08-0.16c0.02,0,0.05,0.02,0.08,0.04C5.42,22.5,5.42,22.54,5.41,22.57z M3.75,18.47
		c-0.04-0.01-0.09-0.01-0.14,0.01c0.02-0.04,0.02-0.09,0.02-0.13C3.67,18.39,3.71,18.43,3.75,18.47z M3.43,17.43
		c-0.01-0.02-0.01-0.03-0.02-0.05c0.03,0.01,0.05,0.03,0.08,0.05C3.47,17.42,3.45,17.42,3.43,17.43z M3.52,8.87
		c0.04,0.02,0.06,0.01,0.09,0.01C3.6,8.9,3.59,8.91,3.58,8.93C3.56,8.92,3.53,8.91,3.51,8.91C3.51,8.89,3.51,8.88,3.52,8.87z
		 M10.98,1.78c-0.08,0.06-0.21,0.1-0.34,0.13c0.02-0.04,0.04-0.08,0.04-0.13C10.82,1.74,10.95,1.71,10.98,1.78z M2.65,11.79
		c0.01-0.06,0.02-0.12,0.03-0.19c0.09,0.02,0.19,0.01,0.28-0.01c-0.03,0.41-0.15,0.86-0.27,1.27c-0.06-0.04-0.12-0.09-0.18-0.14
		c0.04-0.29,0.08-0.58,0.13-0.87C2.66,11.84,2.66,11.81,2.65,11.79z M2.66,15.26C2.66,15.26,2.66,15.26,2.66,15.26
		c-0.01-0.09-0.01-0.17,0.01-0.2c0.01,0.03,0.02,0.07,0.03,0.1C2.68,15.2,2.67,15.23,2.66,15.26z M11.63,4.34
		c0,0,0.01,0.01,0.01,0.01c0,0.1-0.01,0.2-0.03,0.29c-0.09,0.31-0.21-0.03-0.24-0.12c0,0,0-0.01-0.01-0.01
		c0.04-0.05,0.07-0.1,0.09-0.16C11.51,4.35,11.57,4.35,11.63,4.34z M3.97,12.27c0.05,0.03,0.07,0.08,0.07,0.13
		c-0.07,0.03-0.12,0.15-0.16,0.32c-0.02-0.02,0-0.22,0.04-0.46C3.94,12.26,3.95,12.26,3.97,12.27z M13.5,14.31
		C13.5,14.31,13.5,14.31,13.5,14.31C13.5,14.31,13.5,14.31,13.5,14.31C13.5,14.31,13.5,14.31,13.5,14.31z M4.42,12.84
		c-0.04,0-0.07-0.04-0.08-0.16C4.36,12.75,4.38,12.8,4.42,12.84z M4.55,14.79c-0.04-0.07-0.07-0.16-0.09-0.26
		c0.03-0.1,0.04-0.2,0.05-0.29c0.04-0.05,0.09-0.08,0.15-0.09c0.17,0.44-0.21,0.41,0.02,0.54c0,0.03,0,0.04,0,0.06
		C4.64,14.76,4.6,14.77,4.55,14.79z M3.93,13.39l0-0.04c0.03-0.05,0.03-0.11,0.01-0.16l0.01-0.13c0.05-0.19,0.11-0.28,0.15-0.12
		c0.02-0.12,0.02-0.19,0.02-0.25c0.07-0.14,0.14-0.27,0.21-0.04c0,0,0,0,0,0c-0.01,0.16-0.02,0.31-0.05,0.45l-0.01,0.05l0,0.24
		c0,0.16-0.02,0.33-0.04,0.51c-0.1-0.01-0.19-0.02-0.29-0.03C3.92,13.7,3.92,13.53,3.93,13.39z M11.58,3.58
		c-0.04,0.01-0.07,0.01-0.11,0.02c-0.01-0.01-0.01-0.02-0.02-0.03C11.49,3.56,11.53,3.56,11.58,3.58z M11.78,3.76
		c0.02,0.02,0.04,0.05,0.05,0.07c0.03-0.01,0.05-0.01,0.05-0.01c0,0.02-0.02,0.04-0.04,0.05c0,0.01,0,0.01,0,0.02
		c-0.04,0.04-0.08,0.08-0.11,0.13c-0.03,0.01-0.06,0.02-0.1,0.03c-0.01-0.01-0.01-0.01-0.02-0.02c0.08-0.05,0.18-0.1,0.23-0.16
		c0-0.01-0.01-0.03-0.01-0.04c-0.06,0.01-0.15,0.04-0.25,0.05c0.01-0.02,0.02-0.04,0.02-0.07c-0.03,0.03-0.07,0.05-0.11,0.08
		c-0.12,0.01-0.21-0.02-0.21-0.11C11.44,3.74,11.61,3.73,11.78,3.76z M3.96,7.89c0,0.01,0,0.02-0.01,0.03
		c-0.06,0.05-0.1,0.1-0.12,0.14c0.02-0.04,0.03-0.08,0.05-0.11C3.91,7.93,3.94,7.91,3.96,7.89z M10.76,24.57
		c0.03-0.01,0.06-0.01,0.09-0.02c0.01,0,0.02,0,0.03,0.01c0.05,0.06,0.1,0.11,0.15,0.16c-0.11-0.04-0.21-0.06-0.29-0.06
		C10.74,24.63,10.74,24.59,10.76,24.57z M19.66,2.57C19.66,2.57,19.65,2.57,19.66,2.57C19.66,2.57,19.66,2.57,19.66,2.57
		C19.67,2.57,19.66,2.57,19.66,2.57z M4.42,2.91C4.44,2.85,4.48,2.8,4.53,2.77c0.01-0.01,0.03-0.01,0.06-0.01
		C4.52,2.81,4.46,2.86,4.42,2.91z M3.82,8.08C3.79,8.15,3.79,8.22,3.8,8.29C3.78,8.28,3.77,8.27,3.75,8.26
		C3.77,8.2,3.8,8.14,3.82,8.08z M2.48,12.71c-0.1-0.07-0.19-0.11-0.21,0.03c-0.03,0.16-0.16,0.6,0.14,0.56c0.02,0,0.03,0,0.05,0
		l0,0.09c0,0.02,0.01,0.04,0.01,0.07l0-0.07l0-0.09c0.07,0,0.14,0.02,0.2,0.02l0,0.07c-0.02,0.15-0.04,0.28-0.07,0.42
		c-0.04-0.18-0.13-0.29-0.38-0.17c-0.02-0.08-0.04-0.16-0.06-0.25l0.02-0.56c-0.02-0.21-0.03-0.47-0.02-0.76
		c0.1-0.01,0.22-0.05,0.32-0.09C2.48,12.23,2.48,12.47,2.48,12.71z M2.3,15.92c-0.01-0.14-0.03-0.33-0.06-0.56
		c0.02-0.05,0.04-0.1,0.06-0.15c0.03-0.08,0.07-0.25,0.15-0.37c0.03,0.2,0.07,0.37,0.11,0.52c-0.18,0.11-0.18,0.27-0.1,0.38
		C2.42,15.8,2.37,15.86,2.3,15.92z M3.89,18.62C3.89,18.62,3.89,18.62,3.89,18.62C3.89,18.62,3.89,18.62,3.89,18.62
		C3.89,18.62,3.89,18.62,3.89,18.62z M3.52,18.55C3.52,18.55,3.52,18.56,3.52,18.55C3.51,18.56,3.51,18.56,3.52,18.55
		C3.52,18.56,3.52,18.55,3.52,18.55z M7.37,23.07C7.37,23.07,7.37,23.07,7.37,23.07C7.37,23.07,7.37,23.07,7.37,23.07
		C7.37,23.07,7.37,23.07,7.37,23.07z M8.46,24.64c0.09,0.24-0.1,0.14-0.29,0.08C8.25,24.71,8.35,24.68,8.46,24.64z M8.7,25.72
		C8.7,25.72,8.69,25.72,8.7,25.72c-0.05-0.06,0-0.2,0.01-0.32c0.03,0.02,0.06,0.04,0.09,0.06C8.72,25.56,8.68,25.68,8.7,25.72z
		 M10.55,24.62c0.02,0.01,0.04,0.04,0.05,0.05c-0.06,0.02-0.13,0.04-0.2,0.09c-0.02-0.02-0.04-0.04-0.05-0.06
		C10.4,24.67,10.47,24.64,10.55,24.62z M29.13,10.16c0.11,0.46,0.21,0.93,0.29,1.42c-0.03,0.08-0.04,0.18,0.01,0.26
		c0.01,0.02,0.03,0.04,0.05,0.06c0.06,0.41,0.1,0.83,0.13,1.25c-0.16,0.04-0.13,0.26,0.02,0.36c0,0.06,0.01,0.12,0.01,0.18
		c-0.01-0.03-0.03-0.05-0.06-0.04c-0.25-0.23-0.19-1.03-0.31-2c-0.05-0.51-0.12-1.02-0.23-1.42c-0.12-0.4-0.26-0.68-0.42-0.72
		c-0.02-0.11-0.06-0.23-0.09-0.35c0.17-0.07,0.16-0.27,0.03-0.36c0.02-0.02,0.05-0.06,0.08-0.1C28.82,9.2,28.98,9.68,29.13,10.16z
		 M28.07,7.4c0.05,0.11,0.1,0.22,0.15,0.33l0.07,0.15l0.02,0.04l0.01,0.02c-0.03,0-0.06,0.01-0.07,0.01
		C28.2,7.96,28.17,7.98,28.13,8l-0.02-0.06C28.07,7.75,28.04,7.56,28.07,7.4z M19.92,2.8C19.92,2.8,19.92,2.8,19.92,2.8
		c0.01-0.04,0.02-0.07,0.01-0.11c-0.03-0.06-0.07-0.1-0.12-0.12c0.02,0,0.03-0.02,0.05-0.02C19.95,2.65,20.06,2.76,19.92,2.8z
		 M19.46,2.31c0,0.03,0.01,0.06,0.03,0.09c-0.02-0.03-0.04-0.06-0.04-0.08C19.45,2.31,19.46,2.31,19.46,2.31z M19.45,2.98
		C19.44,3,19.43,3,19.42,3.02c-0.16,0.06-0.45-0.23-0.72-0.5c0.02-0.03,0.04-0.06,0.04-0.12c0-0.04-0.03-0.06-0.04-0.09
		C18.98,2.52,19.14,2.89,19.45,2.98z M18.47,2.2c-0.02,0.01-0.05,0.02-0.07,0.03c-0.03-0.02-0.06-0.05-0.08-0.06
		C18.38,2.18,18.43,2.19,18.47,2.2z M13.11,1.49c-0.33,0-0.66,0.02-0.65-0.21C12.68,1.34,13.15,1.25,13.11,1.49z M12.48,1.76
		c0.17,0.15,0.34,0.3,0.63,0.37C13.05,2.17,13.04,2.25,13,2.3c-0.05,0.01-0.1,0.03-0.14,0.07c-0.03,0.01-0.06,0.01-0.11,0.01
		c-0.02-0.14,0.14-0.17,0.11-0.32c-0.23,0.17-0.58,0.07-0.86,0.08C11.86,1.86,12.4,1.92,12.48,1.76z M11.5,1.67
		c0.02,0.06,0.04,0.11,0.08,0.14c-0.04,0.23-0.25,0.45-0.55,0.35c0.3-0.27,0.39-0.4,0.04-0.58C11.43,1.42,11.25,1.73,11.5,1.67z
		 M11.29,1.29c-0.12,0.2-0.39,0.21-0.62,0.36c-0.02-0.12-0.01-0.19,0.02-0.22c0.07-0.03,0.14-0.07,0.2-0.1c0.01,0,0.01,0,0.01-0.01
		c0,0,0,0,0,0C11.06,1.24,11.19,1.2,11.29,1.29z M5.98,2.56C5.97,2.56,5.97,2.57,5.96,2.58c0-0.01,0-0.02,0-0.03
		C5.91,2.41,5.85,2.34,5.77,2.3C6.02,2.17,6.07,2.38,5.98,2.56z M3.47,4.03c0.2-0.04,0.06,0.34,0.27,0.39C4,4.48,3.63,4.6,3.43,4.69
		C3.35,4.56,3.22,4.47,3.07,4.46C3.28,4.38,3.26,4.07,3.47,4.03z M3.62,7.88c0.02,0.03,0.05,0.05,0.07,0.06
		C3.66,8.03,3.62,8.1,3.58,8.17C3.54,8.15,3.51,8.14,3.47,8.13C3.52,8.04,3.57,7.96,3.62,7.88z M0.99,12.06
		c-0.03,0.05-0.05,0.09-0.06,0.1c-0.02,0.02-0.02,0.05-0.03,0.07C0.92,12.1,0.95,11.99,1,11.87C0.99,11.94,0.99,12,0.99,12.06z
		 M0.97,14.26c-0.05-0.3-0.1-0.59-0.13-0.86l0.03-0.73c0-0.07,0.01-0.14,0.02-0.21c0,0.01,0,0.02,0,0.04
		c0.05,0.15,0.1,0.28,0.15,0.41l-0.02,0.49c0.1,0.38,0.2,0.31,0.29,0.08c0.06,0.09,0.46,0.54,0.51,0.25
		c0.04-0.2-0.12-0.46-0.14-0.67c-0.02-0.28,0.4-0.4,0.27-0.72C1.9,12.2,1.8,12.13,1.7,12.08c0.15-0.29,0.31-0.58,0.46-0.72
		c0.02-0.13,0.04-0.23,0.06-0.34c0.07,0.12,0.18,0.18,0.32,0.21c-0.02,0.16-0.03,0.32-0.04,0.46c-0.1,0-0.21,0.04-0.31,0.1
		c0.01-0.14,0.01-0.26,0.03-0.42c-0.08,0.17-0.11,0.33-0.13,0.49c-0.1,0.08-0.15,0.17-0.11,0.19c0.02,0.01,0.05,0.02,0.09,0.02
		c-0.01,0.21-0.02,0.44-0.05,0.73l-0.02,0.21l0,0.37c0,0.11,0,0.23,0,0.36c0,0.01,0,0.01,0,0.02C1.69,13.94,1.26,14.05,0.97,14.26z
		 M2.12,16.13c0.01,0.01,0.02,0.01,0.04,0.02c0.03,0.14,0.35,0.24,0.47,0.16c0.09-0.06,0.09-0.17,0.1-0.28
		c0.03-0.01,0.05-0.02,0.08-0.04c-0.01,0.08,0.06,0.18,0.15,0.13c0.1-0.05,0.02-0.24-0.09-0.2c0.02-0.03,0.02-0.07,0.01-0.11
		c0,0,0,0,0,0c0.02-0.01,0.03-0.02,0.04-0.03c0.11,0.31,0.22,0.61,0.35,0.86c-0.12-0.03-0.24,0-0.33,0.07
		c-0.11-0.15-0.37-0.13-0.52-0.01c-0.02-0.02-0.03-0.04-0.06-0.06c-0.01,0-0.01,0-0.02-0.01C2.27,16.46,2.2,16.28,2.12,16.13z
		 M2.54,17.23c-0.01-0.02-0.01-0.04-0.02-0.07c0.09,0.02,0.19-0.01,0.28-0.06c0.01,0.03,0.01,0.07,0.03,0.1
		c0.08,0.15,0.2,0.2,0.32,0.19c0.07,0.21,0.15,0.43,0.19,0.6c0.03-0.11,0.06-0.16,0.1-0.19c0.11,0.04,0.24,0.01,0.24-0.15
		c0-0.04-0.02-0.08-0.04-0.12c0.04,0.04,0.08,0.07,0.12,0.12l0.13,0.66c-0.29-0.43-0.2-0.13-0.29-0.11
		c-0.04-0.07-0.09-0.13-0.18-0.13c-0.07,0-0.13,0.05-0.16,0.11c-0.07,0.02-0.09,0.08-0.13,0.27C2.86,18.06,2.68,17.62,2.54,17.23z
		 M3.47,20.16c-0.01-0.18-0.14-0.42-0.28-0.65c-0.15-0.25-0.3-0.47-0.36-0.51c-0.04-0.25,0.14-0.04,0.36,0.3
		c0.23,0.34,0.49,0.72,0.65,1.02C3.8,20.54,3.55,20.09,3.47,20.16z M3.85,20.89c0.03,0.03,0.05,0.06,0.08,0.1
		C3.91,21,3.89,21.01,3.87,21.03c-0.02,0.02-0.02,0.03-0.04,0.05C3.77,20.98,3.73,20.89,3.85,20.89z M6.42,22.94
		c-0.1-0.02-0.19-0.08-0.26-0.15c-0.03-0.17-0.03-0.31,0.09-0.29c0.02,0,0.02,0.03,0.04,0.04c-0.02,0.06,0.01,0.08,0.09,0.08
		C6.42,22.72,6.41,22.84,6.42,22.94z M9.02,25.7c-0.01-0.04,0.01-0.07,0.04-0.1c0.03,0.01,0.05,0.02,0.08,0.03
		c-0.01,0.02-0.01,0.03-0.02,0.06C9.11,25.74,9.04,25.76,9.02,25.7z M9.3,25.65c0.02,0,0.05,0,0.07,0c0.04,0.07,0.07,0.13,0.09,0.13
		C9.41,25.76,9.35,25.7,9.3,25.65z M10.16,25.66c-0.1-0.02-0.23-0.1-0.35-0.17c0.06-0.08,0.11-0.16,0.17-0.25c0,0,0,0,0.01,0
		c0.01,0,0.01,0,0.02,0.01c0.02,0.06,0.04,0.12,0.03,0.17c0.16,0.02,0.15-0.08,0.07-0.23c0.02-0.09,0.04-0.2,0.2-0.05
		c-0.33,0.17,0.09,0.2,0.11,0.3C10.28,25.43,10.32,25.72,10.16,25.66z M10.35,25.66c0.11,0.01,0.1-0.17,0.18-0.22
		c0.07,0.12,0.16,0.23,0.26,0.3c-0.01,0.07,0.01,0.13,0.03,0.2C10.67,25.86,10.5,25.75,10.35,25.66z M11.43,25.27
		c0-0.01,0-0.01,0-0.02c0,0,0-0.01,0-0.01c0.01-0.02,0.02-0.04,0.03-0.06c0.04,0.04,0.08,0.09,0.12,0.13
		C11.53,25.3,11.49,25.3,11.43,25.27z M12.63,26.88c0-0.02,0.01-0.04,0-0.07c0-0.02-0.02-0.03-0.03-0.05
		c0.11,0.02,0.21,0.02,0.28-0.02c0.01,0.01,0.03,0.03,0.04,0.04C12.88,26.99,12.76,26.95,12.63,26.88z M22.18,27.42
		c-0.14,0.11-0.51,0.37-0.78,0.51c-0.03-0.08-0.09-0.15-0.17-0.19c0.08-0.05,0.17-0.11,0.26-0.17c0.11-0.08,0.23-0.16,0.37-0.25
		c0.1-0.08,0.2-0.16,0.31-0.27C22.24,27.17,22.1,27.3,22.18,27.42z M24.94,25.34c0-0.01,0.01-0.01,0.01-0.02
		c0.01,0,0.02-0.01,0.02-0.01C24.96,25.32,24.95,25.33,24.94,25.34z M28.37,20.09c0.03,0.01,0.05,0.02,0.09,0.02
		c-0.08,0.19-0.16,0.39-0.25,0.61c-0.04,0-0.08,0.01-0.13,0.02C28.17,20.51,28.27,20.29,28.37,20.09z"/>
	<g>
		<polygon class="st1" points="6.19,4.43 8.08,1.17 23.14,1.17 30.68,14.21 28.42,18.12 28.96,18.12 31.22,14.21 23.41,0.7 7.8,0.7 
			5.65,4.43 		"/>
		<polygon class="st1" points="24.46,24.97 23.14,27.26 8.08,27.26 0.54,14.21 2.24,11.28 1.69,11.28 0,14.21 7.74,27.61 7.8,27.73 
			23.41,27.73 25.01,24.97 		"/>
	</g>
</g>
</svg>
