<?xml version="1.0" encoding="utf-8"?>
<!-- Generator: Adobe Illustrator 25.2.1, SVG Export Plug-In . SVG Version: 6.00 Build 0)  -->
<svg version="1.1" id="Layer_1" xmlns="http://www.w3.org/2000/svg" xmlns:xlink="http://www.w3.org/1999/xlink" x="0px" y="0px"
	 viewBox="0 0 98.7 135" style="enable-background:new 0 0 98.7 135;" xml:space="preserve">
<style type="text/css">
	.st0{fill:#F96232;}
	.st1{fill:#242D3C;}
</style>
<g>
	<g>
		<path class="st0" d="M49.3,99.5c-11.9,0-21.5,9.6-21.5,21.5h43C70.8,109.1,61.2,99.5,49.3,99.5z"/>
		<path class="st0" d="M53.6,80.6c0,2.4-1.9,4.3-4.3,4.3c-2.4,0-4.3-1.9-4.3-4.3c0-2.4,1.9-4.3,4.3-4.3
			C51.7,76.3,53.6,78.2,53.6,80.6z"/>
		<path class="st0" d="M49.3,32.4c-7.3-7.3-19-7.3-26.3,0c0,14.5,11.8,26.3,26.3,26.3c14.5,0,26.3-11.8,26.3-26.3
			C68.4,39.7,56.6,39.7,49.3,32.4z"/>
	</g>
	<g>
		<path class="st1" d="M87.5,123.5H11.2v-20.3c0-16.1,10-30.2,24.6-35.7c-14.6-5.6-24.6-19.6-24.6-35.7V11.5h76.4v20.3
			c0,16.1-10,30.2-24.6,35.7c14.6,5.6,24.6,19.6,24.6,35.7V123.5z M16.2,118.5h66.4v-15.3c0-16-11.4-29.7-27-32.6l0,0
			c-1.3-0.4-2.2-1.6-2.2-3c0-1.4,0.9-2.6,2.2-3l0,0c0,0,0,0,0,0l0,0c15.7-3,27.1-16.7,27.1-32.6V16.5H16.2v15.3
			c0,15.9,11.4,29.7,27,32.6l0.1,0l0,0c1.3,0.4,2.2,1.6,2.2,3c0,1.4-0.9,2.6-2.2,3l0,0l-0.1,0c-15.6,2.9-27,16.7-27,32.6V118.5z"/>
		<path class="st1" d="M90.4,16.5H8.2c-2.2,0-4.3-0.9-5.8-2.4C0.9,12.5,0,10.4,0,8.2C0,6,0.9,4,2.4,2.4C4,0.9,6,0,8.2,0h82.2
			c2.2,0,4.3,0.9,5.8,2.4C97.8,4,98.7,6,98.7,8.2c0,2.2-0.9,4.3-2.4,5.8C94.7,15.6,92.6,16.5,90.4,16.5z M8.2,5
			C7.4,5,6.6,5.3,5.9,5.9C5.3,6.6,5,7.4,5,8.2c0,0.9,0.3,1.7,0.9,2.3c0.6,0.6,1.4,0.9,2.3,0.9h82.2c0.9,0,1.7-0.3,2.3-0.9
			c0.6-0.6,0.9-1.4,0.9-2.3c0-0.9-0.3-1.7-0.9-2.3C92.1,5.3,91.3,5,90.4,5H8.2z"/>
		<path class="st1" d="M90.4,135H8.2c-2.2,0-4.3-0.9-5.8-2.4C0.9,131,0,129,0,126.8c0-2.2,0.9-4.3,2.4-5.8c1.6-1.6,3.6-2.4,5.8-2.4
			h82.2c2.2,0,4.3,0.9,5.8,2.4c1.6,1.6,2.4,3.6,2.4,5.8c0,2.2-0.9,4.3-2.4,5.8C94.7,134.1,92.6,135,90.4,135z M8.2,123.5
			c-0.9,0-1.7,0.3-2.3,0.9c-0.6,0.6-0.9,1.4-0.9,2.3c0,0.9,0.3,1.7,0.9,2.3c0.6,0.6,1.4,0.9,2.3,0.9h82.2c0.9,0,1.7-0.3,2.3-0.9
			c0.6-0.6,0.9-1.4,0.9-2.3c0-0.9-0.3-1.7-0.9-2.3c-0.6-0.6-1.4-0.9-2.3-0.9H8.2z"/>
	</g>
</g>
</svg>
