<?xml version="1.0" encoding="utf-8"?>
<!-- Generator: Adobe Illustrator 26.0.3, SVG Export Plug-In . SVG Version: 6.00 Build 0)  -->
<svg version="1.1" id="Layer_1" xmlns="http://www.w3.org/2000/svg" xmlns:xlink="http://www.w3.org/1999/xlink" x="0px" y="0px"
	 viewBox="0 0 1024 1024" style="enable-background:new 0 0 1024 1024;" xml:space="preserve">
<style type="text/css">
	.st0{fill:#FF7A59;}
	.st1{fill-rule:evenodd;clip-rule:evenodd;fill:#FFFFFF;}
</style>
<circle class="st0" cx="512" cy="512" r="512"/>
<path class="st1" d="M623.8,624.9c-38.2,0-69.2-30.7-69.2-68.5s31-68.5,69.2-68.5s69.3,30.7,69.3,68.5S662.1,624.9,623.8,624.9
	 M644.5,424.5v-61c16.6-7.6,27.2-24.1,27.3-42.3v-1.4c0-25.8-21.3-46.9-47.3-46.9h-1.4c-26,0-47.3,21.1-47.3,46.9v1.4
	c0.1,18.2,10.8,34.7,27.3,42.3v61c-23.3,3.5-45.4,13.1-63.9,27.8L370.1,322.1c1.2-4.3,1.8-8.7,1.9-13.1c0-29.2-23.9-52.9-53.4-53
	s-53.5,23.6-53.5,52.8s23.9,52.9,53.4,52.9c9.2,0,18.3-2.5,26.3-7.1l166.4,128.1c-30.6,45.7-29.8,105.5,2.1,150.3l-50.6,50.1
	c-22.9-7.2-47.2,5.6-54.4,28.4s5.6,47.2,28.4,54.4c4.3,1.4,8.9,2,13.4,2c24.2,0,43.9-19.5,43.9-43.5c0-4.2-0.7-8.4-2-12.4l50-49.5
	c23.5,17.8,52.3,27.5,81.8,27.5c74.6,0,135.1-59.8,135.1-133.7C758.9,489.6,709.2,434.4,644.5,424.5"/>
</svg>
