<?xml version="1.0" encoding="utf-8"?>
<!-- Generator: Adobe Illustrator 25.2.1, SVG Export Plug-In . SVG Version: 6.00 Build 0)  -->
<svg version="1.1" id="Layer_1" xmlns="http://www.w3.org/2000/svg" xmlns:xlink="http://www.w3.org/1999/xlink" x="0px" y="0px"
	 viewBox="0 0 190.8 168.7" style="enable-background:new 0 0 190.8 168.7;" xml:space="preserve">
<style type="text/css">
	.st0{fill:#F26337;}
	.st1{fill:#252E3C;}
	.st2{fill:#59C8DE;}
	.st3{fill:#FFFFFF;}
</style>
<g>
	<g>
		<g>
			<rect x="73.6" y="54.9" class="st0" width="19.3" height="7.4"/>
			<rect x="92.9" y="80.1" class="st1" width="20.8" height="7.4"/>
			<rect x="92.9" y="92.7" class="st1" width="20.8" height="7.4"/>
			<rect x="92.9" y="130.6" class="st1" width="20.8" height="7.4"/>
			<rect x="92.9" y="143.2" class="st1" width="20.8" height="7.4"/>
			<rect x="73.6" y="67.5" class="st2" width="40.1" height="7.4"/>
			<rect x="73.6" y="105.3" class="st0" width="19.3" height="7.4"/>
			<rect x="73.6" y="118" class="st2" width="40.1" height="7.4"/>
			<rect x="121.9" y="80.1" class="st0" width="20.8" height="7.4"/>
			<rect x="121.9" y="92.7" class="st1" width="40.1" height="7.4"/>
			<rect x="121.9" y="130.6" class="st0" width="20.8" height="7.4"/>
			<rect x="121.9" y="143.2" class="st1" width="40.1" height="7.4"/>
			<rect x="121.9" y="67.5" class="st1" width="20.8" height="7.4"/>
			<rect x="121.9" y="118" class="st1" width="20.8" height="7.4"/>
		</g>
		<g>
			<path class="st1" d="M184.1,168.7H0v-132h184.1V168.7z M7.4,161.4h169.3V44.1H7.4V161.4z"/>
			<path class="st1" d="M184.1,44.1H0V14.6h184.1V44.1z M7.4,36.7h169.3V22H7.4V36.7z"/>
			<rect x="11" y="25.7" class="st1" width="7.4" height="7.4"/>
			<rect x="25.8" y="25.7" class="st1" width="7.4" height="7.4"/>
			<rect x="40.5" y="25.7" class="st1" width="7.4" height="7.4"/>
			<rect x="51.5" y="40.4" class="st1" width="7.4" height="124.7"/>
		</g>
		<g>
			<rect x="14.7" y="54.9" class="st2" width="29.4" height="32.6"/>
			<rect x="14.7" y="92.7" class="st1" width="29.4" height="7.4"/>
			<rect x="14.7" y="105.3" class="st1" width="29.4" height="7.4"/>
			<rect x="14.7" y="118" class="st1" width="29.4" height="7.4"/>
			<rect x="14.7" y="130.6" class="st1" width="29.4" height="7.4"/>
		</g>
	</g>
	<g>
		
			<ellipse transform="matrix(7.088826e-02 -0.9975 0.9975 7.088826e-02 120.8831 188.3201)" class="st0" cx="161.5" cy="29.3" rx="29.3" ry="29.3"/>
		<path class="st3" d="M171.8,22.4v-4.8c1.3-0.6,2.1-1.9,2.1-3.3v-0.1c0-2-1.7-3.7-3.7-3.7h-0.1c-2,0-3.7,1.7-3.7,3.7v0.1
			c0,1.4,0.8,2.7,2.1,3.3v4.8c-1.8,0.3-3.5,1-5,2.2l-13.2-10.3c0.1-0.3,0.1-0.7,0.1-1c0-2.3-1.9-4.2-4.2-4.2c-2.3,0-4.2,1.9-4.2,4.2
			c0,2.3,1.9,4.2,4.2,4.2c0,0,0,0,0,0c0.7,0,1.4-0.2,2.1-0.6l13,10.1c-2.4,3.6-2.3,8.3,0.2,11.8l-3.9,3.9c-0.3-0.1-0.7-0.2-1-0.2
			c-1.9,0-3.4,1.5-3.4,3.4c0,1.9,1.5,3.4,3.4,3.4c1.9,0,3.4-1.5,3.4-3.4c0-0.3-0.1-0.7-0.2-1l3.9-3.9c3.5,2.7,8.3,2.9,12,0.6
			c3.7-2.3,5.6-6.7,4.7-11.1C179.7,26.3,176.2,23,171.8,22.4 M170.2,38.2c-3,0.1-5.5-2.3-5.5-5.3c-0.1-3,2.3-5.5,5.3-5.5
			c0.1,0,0.2,0,0.3,0c2.9,0.1,5.2,2.5,5.2,5.4C175.4,35.7,173.1,38.1,170.2,38.2"/>
	</g>
</g>
</svg>
