<?xml version="1.0" encoding="utf-8"?>
<!-- Generator: Adobe Illustrator 25.2.1, SVG Export Plug-In . SVG Version: 6.00 Build 0)  -->
<svg version="1.1" id="Layer_1" xmlns="http://www.w3.org/2000/svg" xmlns:xlink="http://www.w3.org/1999/xlink" x="0px" y="0px"
	 viewBox="0 0 143.8 143.8" style="enable-background:new 0 0 143.8 143.8;" xml:space="preserve">
<style type="text/css">
	.st0{fill:#242D3C;}
	.st1{fill:#F96232;}
</style>
<g>
	<path class="st0" d="M81.6,143.8H62.2l-6.4-16.7c-4-1.2-7.9-2.8-11.6-4.8l-16.3,7.3l-13.7-13.7l7.3-16.3c-2-3.7-3.6-7.5-4.8-11.6
		L0,81.6V62.2l16.7-6.4c1.2-4,2.8-7.9,4.8-11.6l-7.3-16.3l13.7-13.7l16.3,7.3c3.7-2,7.6-3.6,11.6-4.8L62.2,0h19.4L88,16.7
		c4,1.2,7.9,2.8,11.6,4.8l16.3-7.3l13.7,13.7l-7.3,16.3c2,3.7,3.6,7.6,4.8,11.6l16.7,6.4l0,19.4L127.1,88c-1.2,4-2.8,7.9-4.8,11.6
		l7.3,16.3l-13.7,13.7l-16.3-7.3c-3.7,2-7.6,3.6-11.6,4.8L81.6,143.8z M66.3,137.8h11.2l6-15.7l1.5-0.4c4.5-1.2,8.9-3,12.9-5.4
		l1.3-0.8l15.3,6.9l7.9-7.9l-6.9-15.3l0.8-1.3c2.4-4.1,4.2-8.4,5.4-12.9l0.4-1.5l15.7-6l0-11.2l-15.7-6l-0.4-1.5
		c-1.2-4.5-3-8.8-5.4-12.9l-0.8-1.3l6.9-15.3l-7.9-7.9l-15.3,6.9l-1.3-0.8c-4.1-2.4-8.4-4.2-12.9-5.4l-1.5-0.4L77.5,6H66.3l-6,15.7
		l-1.5,0.4c-4.5,1.2-8.9,3-12.9,5.4l-1.3,0.8l-15.3-6.9l-7.9,7.9l6.9,15.3l-0.8,1.3c-2.4,4.1-4.2,8.4-5.4,12.9l-0.4,1.5L6,66.3v11.2
		l15.7,6l0.4,1.5c1.2,4.5,3,8.9,5.4,12.9l0.8,1.3l-6.9,15.3l7.9,7.9l15.3-6.9l1.3,0.8c4,2.4,8.4,4.2,12.9,5.4l1.5,0.4L66.3,137.8z"
		/>
	<path class="st0" d="M37,80.5c-0.7-2.8-1-5.7-1-8.6h6c0,2.5,0.3,4.9,0.9,7.2L37,80.5z"/>
	<path class="st0" d="M71.9,107.9c-14.4,0-27.4-8.6-33.1-21.8l5.5-2.4c4.7,11,15.6,18.2,27.6,18.2c16.5,0,30-13.4,30-30
		c0-16.5-13.4-30-30-30v-6c19.8,0,36,16.1,36,36S91.7,107.9,71.9,107.9z"/>
	<path class="st0" d="M42.6,65.6l-5.9-1.2c2.9-13.4,13.4-24.2,26.8-27.4l1.4,5.8C53.8,45.4,45,54.4,42.6,65.6z"/>
	<path class="st1" d="M71.9,89.9c-9.9,0-18-8.1-18-18c0-9.9,8.1-18,18-18c9.9,0,18,8.1,18,18C89.9,81.8,81.8,89.9,71.9,89.9z"/>
</g>
</svg>
