<?xml version="1.0" encoding="utf-8"?>
<!-- Generator: Adobe Illustrator 16.0.0, SVG Export Plug-In . SVG Version: 6.00 Build 0)  -->
<!DOCTYPE svg PUBLIC "-//W3C//DTD SVG 1.1//EN" "http://www.w3.org/Graphics/SVG/1.1/DTD/svg11.dtd">
<svg version="1.1" id="Layer_1" xmlns="http://www.w3.org/2000/svg" xmlns:xlink="http://www.w3.org/1999/xlink" x="0px" y="0px"
	 width="200px" height="200px" viewBox="0 0 200 200" enable-background="new 0 0 200 200" xml:space="preserve">
<g>
	<g>
		<rect x="62.161" y="45.42" fill="#43D3E8" width="68.73" height="136.113"/>
		<g>
			<g>
				<rect x="72.942" y="56.201" fill="#FFFFFF" width="6.738" height="6.738"/>
				<rect x="86.418" y="56.201" fill="#FFFFFF" width="6.738" height="6.738"/>
				<rect x="99.895" y="56.201" fill="#FFFFFF" width="6.738" height="6.738"/>
				<rect x="113.371" y="56.201" fill="#FFFFFF" width="6.738" height="6.738"/>
			</g>
			<g>
				<rect x="72.942" y="69.678" fill="#FFFFFF" width="6.738" height="6.738"/>
				<rect x="86.418" y="69.678" fill="#FFFFFF" width="6.738" height="6.738"/>
				<rect x="99.895" y="69.678" fill="#FFFFFF" width="6.738" height="6.738"/>
				<rect x="113.371" y="69.678" fill="#FFFFFF" width="6.738" height="6.738"/>
			</g>
			<g>
				<rect x="72.942" y="83.154" fill="#FFFFFF" width="6.738" height="6.738"/>
				<rect x="86.418" y="83.154" fill="#FFFFFF" width="6.738" height="6.738"/>
				<rect x="99.895" y="83.154" fill="#FFFFFF" width="6.738" height="6.738"/>
				<rect x="113.371" y="83.154" fill="#FFFFFF" width="6.738" height="6.738"/>
			</g>
			<g>
				<rect x="72.942" y="96.631" fill="#FFFFFF" width="6.738" height="6.738"/>
				<rect x="86.418" y="96.631" fill="#FFFFFF" width="6.738" height="6.738"/>
				<rect x="99.895" y="96.631" fill="#FFFFFF" width="6.738" height="6.738"/>
				<rect x="113.371" y="96.631" fill="#FFFFFF" width="6.738" height="6.738"/>
			</g>
			<g>
				<rect x="72.942" y="110.107" fill="#FFFFFF" width="6.738" height="6.738"/>
				<rect x="86.418" y="110.107" fill="#FFFFFF" width="6.738" height="6.738"/>
				<rect x="99.895" y="110.107" fill="#FFFFFF" width="6.738" height="6.738"/>
				<rect x="113.371" y="110.107" fill="#FFFFFF" width="6.738" height="6.738"/>
			</g>
			<g>
				<rect x="72.942" y="123.584" fill="#FFFFFF" width="6.738" height="6.738"/>
				<rect x="86.418" y="123.584" fill="#FFFFFF" width="6.738" height="6.738"/>
				<rect x="99.895" y="123.584" fill="#FFFFFF" width="6.738" height="6.738"/>
				<rect x="113.371" y="123.584" fill="#FFFFFF" width="6.738" height="6.738"/>
			</g>
			<g>
				<rect x="72.942" y="137.061" fill="#FFFFFF" width="6.738" height="6.738"/>
				<rect x="86.418" y="137.061" fill="#FFFFFF" width="6.738" height="6.738"/>
				<rect x="99.895" y="137.061" fill="#FFFFFF" width="6.738" height="6.738"/>
				<rect x="113.371" y="137.061" fill="#FFFFFF" width="6.738" height="6.738"/>
			</g>
			<g>
				<rect x="72.942" y="150.537" fill="#FFFFFF" width="6.738" height="6.738"/>
				<rect x="86.418" y="150.537" fill="#FFFFFF" width="6.738" height="6.738"/>
				<rect x="99.895" y="150.537" fill="#FFFFFF" width="6.738" height="6.738"/>
				<rect x="113.371" y="150.537" fill="#FFFFFF" width="6.738" height="6.738"/>
			</g>
			<g>
				<rect x="72.942" y="164.014" fill="#FFFFFF" width="6.738" height="6.738"/>
				<rect x="86.418" y="164.014" fill="#FFFFFF" width="6.738" height="6.738"/>
				<rect x="99.895" y="164.014" fill="#FFFFFF" width="6.738" height="6.738"/>
				<rect x="113.371" y="164.014" fill="#FFFFFF" width="6.738" height="6.738"/>
			</g>
		</g>
		<path fill="#242D3C" d="M134.26,184.902H58.792V42.051h75.468V184.902z M65.53,178.164h61.992V48.789H65.53V178.164z"/>
		<path fill="#242D3C" d="M124.152,48.789H68.899V28.574h55.253V48.789z M75.637,42.051h41.777v-6.738H75.637V42.051z"/>
		<path fill="#242D3C" d="M114.045,35.313H79.006V15.098h35.039V35.313z M85.744,28.574h21.563v-6.738H85.744V28.574z"/>
		<rect x="93.156" y="4.991" fill="#242D3C" width="6.738" height="13.477"/>
	</g>
	<g>
		<g>
			<g>
				<rect x="141.672" y="73.047" fill="#242D3C" width="6.738" height="94.336"/>
				<rect x="155.001" y="73.047" fill="#242D3C" width="6.738" height="94.336"/>
				<rect x="168.33" y="73.047" fill="#242D3C" width="6.738" height="94.336"/>
			</g>
			<path fill="#242D3C" d="M189.219,184.902h-61.697V55.527h61.697V184.902z M134.26,178.164h48.221V62.266H134.26V178.164z"/>
		</g>
		<path fill="#242D3C" d="M175.068,62.266h-33.396V42.051h33.396V62.266z M148.41,55.527h19.92v-6.738h-19.92V55.527z"/>
	</g>
	<g>
		<g>
			<rect x="31.165" y="110.107" fill="#242D3C" width="6.738" height="6.738"/>
			<rect x="44.641" y="110.107" fill="#242D3C" width="6.738" height="6.738"/>
			<rect x="31.165" y="123.584" fill="#242D3C" width="6.738" height="6.738"/>
			<rect x="44.641" y="123.584" fill="#242D3C" width="6.738" height="6.738"/>
			<rect x="31.165" y="137.061" fill="#242D3C" width="6.738" height="6.738"/>
			<rect x="44.641" y="137.061" fill="#242D3C" width="6.738" height="6.738"/>
			<rect x="31.165" y="150.537" fill="#242D3C" width="6.738" height="6.738"/>
			<rect x="44.641" y="150.537" fill="#242D3C" width="6.738" height="6.738"/>
			<rect x="31.165" y="164.014" fill="#242D3C" width="6.738" height="6.738"/>
			<rect x="44.641" y="164.014" fill="#242D3C" width="6.738" height="6.738"/>
		</g>
		<path fill="#242D3C" d="M65.53,184.902H17.014V95.957H65.53V184.902z M23.752,178.164h35.039v-75.469H23.752V178.164z"/>
	</g>
	<polygon fill="#242D3C" points="200,195.01 193.262,195.01 193.262,184.902 12.971,184.902 12.971,195.01 6.233,195.01 
		6.233,178.164 200,178.164 	"/>
	<g>
		<rect y="56.201" fill="#242D3C" width="17.688" height="6.738"/>
		<rect x="127.354" y="8.36" fill="#242D3C" width="17.688" height="6.738"/>
		<g>
			<rect x="12.746" y="28.574" fill="#242D3C" width="25.043" height="6.738"/>
			<rect x="44.865" y="28.574" fill="#242D3C" width="9.884" height="6.738"/>
		</g>
	</g>
</g>
</svg>
