<svg xmlns:xlink="http://www.w3.org/1999/xlink" xmlns="http://www.w3.org/2000/svg" id="Layer_1" data-name="Layer 1" viewBox="0 0 75 73.13" width="75"  height="73.13" ><defs><style>.cls-1{fill:#49021f;}.cls-2{fill:#f36;}</style></defs><path class="cls-1" d="M298.28,541.44h48.44A13.27,13.27,0,0,1,360,554.72v46.56a13.27,13.27,0,0,1-13.28,13.28H298.28A13.27,13.27,0,0,1,285,601.28V554.72A13.27,13.27,0,0,1,298.28,541.44Z" transform="translate(-285 -541.44)"/><g id="vlpa"><g id="vlpb"><path class="cls-2" d="M312.25,560.56v32.19c0,.34-.16.5-.44.5h-6.12c-.28,0-.41-.16-.41-.5V560.56c0-.28.16-.4.44-.4h6.09a.35.35,0,0,1,.41.31A.11.11,0,0,1,312.25,560.56Z" transform="translate(-285 -541.44)"/><path class="cls-2" d="M330.31,593.62a15.42,15.42,0,0,1-6.72-1.4,10.88,10.88,0,0,1-4.71-4.25,13.5,13.5,0,0,1-1.72-7.13,12.82,12.82,0,0,1,6.68-11.43,16,16,0,0,1,7.91-1.82,5.83,5.83,0,0,1,.66,0c.28,0,.59,0,1,.07v-9.88c0-.22.09-.34.31-.34H340a.27.27,0,0,1,.31.22V587.5c0,.56,0,1.19.07,1.87s.09,1.29.12,1.82a.51.51,0,0,1-.31.5,23.63,23.63,0,0,1-5.09,1.5,27.52,27.52,0,0,1-4.82.43Zm3.07-6.24V573.62c-.29-.06-.57-.12-.85-.15s-.69-.06-1-.06a7.71,7.71,0,0,0-3.53.81,6.43,6.43,0,0,0-3.69,6.28,8.85,8.85,0,0,0,.53,3.22,6.1,6.1,0,0,0,1.41,2.22,5.4,5.4,0,0,0,2.12,1.25,8.25,8.25,0,0,0,2.6.4c.47,0,.9,0,1.31-.06a2.79,2.79,0,0,0,1.13-.15Z" transform="translate(-285 -541.44)"/></g></g></svg>