<?xml version="1.0" encoding="utf-8"?>
<!-- Generator: Adobe Illustrator 16.0.0, SVG Export Plug-In . SVG Version: 6.00 Build 0)  -->
<!DOCTYPE svg PUBLIC "-//W3C//DTD SVG 1.1//EN" "http://www.w3.org/Graphics/SVG/1.1/DTD/svg11.dtd">
<svg version="1.1" id="Layer_1" xmlns="http://www.w3.org/2000/svg" xmlns:xlink="http://www.w3.org/1999/xlink" x="0px" y="0px"
	 width="200px" height="200px" viewBox="0 0 200 200" enable-background="new 0 0 200 200" xml:space="preserve">
<g>
	<g>
		<polygon fill="#242D3C" points="123.337,141.366 76.66,141.366 76.66,125.548 83.803,125.548 83.803,134.223 116.194,134.223 
			116.194,125.548 123.337,125.548 		"/>
		<rect x="68.954" y="134.223" fill="#242D3C" width="62.094" height="7.144"/>
		<path fill="#242D3C" d="M170.778,105.468H29.222V15.586c0-2.222,0.866-4.311,2.438-5.88c1.543-1.563,3.636-2.433,5.876-2.433
			h124.925c2.237,0,4.33,0.869,5.893,2.449c1.558,1.547,2.425,3.637,2.425,5.865V105.468z M36.364,98.325h127.271V15.586
			c0-0.181-0.045-0.527-0.338-0.819c-0.29-0.294-0.613-0.352-0.837-0.352H37.536c-0.223,0-0.544,0.057-0.812,0.328
			c-0.315,0.315-0.36,0.663-0.36,0.843V98.325z"/>
		<path fill="#242D3C" d="M162.461,121.275H37.534c-2.232,0-4.322-0.866-5.885-2.441c-1.56-1.556-2.427-3.646-2.427-5.872V98.325
			h141.557v14.637c0,2.23-0.867,4.322-2.444,5.89C166.78,120.41,164.69,121.275,162.461,121.275z M36.364,105.468v7.494
			c0,0.182,0.045,0.531,0.34,0.827c0.299,0.3,0.647,0.343,0.829,0.343h124.927c0.185,0,0.536-0.043,0.826-0.334
			c0.304-0.305,0.349-0.653,0.349-0.836v-7.494H36.364z"/>
		<rect x="43.312" y="21.357" fill="#43D3E8" width="113.376" height="70.02"/>
		<g>
			<polygon fill="#FFFFFF" points="156.688,49.714 156.688,91.377 43.312,91.377 43.312,81.489 50.405,76.261 57.497,77.129 
				69.693,62.142 81.89,69.177 88.498,64.217 95.104,62.242 104.068,51.544 113.031,63.704 121.996,51.544 130.96,49.714 
				143.824,37.29 			"/>
			<polygon fill="#F96232" points="156.688,71.906 156.688,91.377 43.312,91.377 43.312,86.756 50.405,84.312 57.497,84.718 
				69.693,77.713 81.89,81.001 88.498,78.685 95.104,77.761 104.068,72.761 113.031,78.443 121.996,72.761 130.96,71.906 
				143.824,66.098 			"/>
			<g>
				<rect x="56.169" y="30.643" fill="#242D3C" width="30.795" height="7.143"/>
				<rect x="56.169" y="43.5" fill="#242D3C" width="15.398" height="7.143"/>
			</g>
		</g>
	</g>
	<g>
		<polygon fill="#242D3C" points="200,155.395 0,155.395 0,134.229 57.933,134.229 57.933,141.371 7.143,141.371 7.143,148.252 
			192.857,148.252 192.857,141.371 142.071,141.371 142.071,134.229 200,134.229 		"/>
		<polygon fill="#242D3C" points="184.808,192.728 177.665,192.728 177.665,155.392 170.778,155.392 170.778,192.728 
			163.636,192.728 163.636,148.249 184.808,148.249 		"/>
		<polygon fill="#242D3C" points="36.364,192.728 29.222,192.728 29.222,155.392 22.338,155.392 22.338,192.728 15.195,192.728 
			15.195,148.249 36.364,148.249 		"/>
	</g>
</g>
</svg>
