<?xml version="1.0" encoding="utf-8"?>
<!-- Generator: Adobe Illustrator 25.2.1, SVG Export Plug-In . SVG Version: 6.00 Build 0)  -->
<svg version="1.1" id="Layer_1" xmlns="http://www.w3.org/2000/svg" xmlns:xlink="http://www.w3.org/1999/xlink" x="0px" y="0px"
	 viewBox="0 0 160.2 180.7" style="enable-background:new 0 0 160.2 180.7;" xml:space="preserve">
<style type="text/css">
	.st0{fill:#59C8DE;}
	.st1{fill:#262F3D;}
	.st2{fill-rule:evenodd;clip-rule:evenodd;fill:#FFFFFF;}
</style>
<g>
	<g>
		<path class="st0" d="M160.2,139.2v-6.8l-9.8-2c-0.4-2.6-1.1-5.2-2-7.6l7.5-6.6l-3.4-5.9l-9.5,3.2c-1.6-2-3.5-3.9-5.6-5.6l3.2-9.5
			l-5.9-3.4l-6.6,7.5c-2.4-0.9-4.9-1.6-7.5-2l-2-9.8h-6.8l-2,9.8c-2.6,0.4-5.2,1.1-7.6,2L95.6,95l-5.9,3.4L93,108
			c-2,1.6-3.9,3.5-5.5,5.5l-9.5-3.2l-3.4,5.9l7.5,6.6c-0.9,2.4-1.6,4.9-2,7.5l-9.8,2v6.8l9.8,2c0.4,2.6,1.1,5.2,2,7.6l-7.5,6.6
			l3.4,5.9l9.5-3.2c1.6,2,3.5,3.9,5.5,5.5l-3.2,9.5l5.9,3.4l6.6-7.5c2.4,0.9,4.9,1.6,7.6,2l2,9.8h6.8l2-9.8c2.6-0.4,5.2-1.1,7.6-2
			l6.6,7.5l5.9-3.4l-3.2-9.5c2.1-1.6,3.9-3.5,5.6-5.6l9.5,3.2l3.4-5.9l-7.5-6.6c0.9-2.4,1.6-4.9,2-7.6L160.2,139.2z M115.2,154.5
			c-10.3,0-18.7-8.4-18.7-18.7c0-10.3,8.4-18.7,18.7-18.7c10.4,0,18.7,8.4,18.7,18.7C133.9,146.1,125.6,154.5,115.2,154.5z"/>
		<path class="st1" d="M115.2,158C103,158,93,148,93,135.7c0-12.2,10-22.2,22.2-22.2s22.2,10,22.2,22.2
			C137.4,148,127.5,158,115.2,158z"/>
		<g>
			<g>
				<rect x="20.7" y="40.3" class="st1" width="19.9" height="7"/>
				<rect x="40.6" y="65.5" class="st1" width="21.4" height="7"/>
				<rect x="40.6" y="78.1" class="st1" width="21.4" height="7"/>
				<rect x="40.6" y="116" class="st1" width="21.4" height="7"/>
				<rect x="40.6" y="128.7" class="st1" width="21.4" height="7"/>
				<rect x="20.7" y="52.9" class="st1" width="41.2" height="7"/>
				<rect x="20.7" y="90.8" class="st1" width="19.9" height="7"/>
				<rect x="20.7" y="103.4" class="st1" width="41.2" height="7"/>
				<rect x="70.3" y="65.5" class="st1" width="21.4" height="7"/>
				<rect x="70.3" y="78.1" class="st1" width="41.2" height="7"/>
				<rect x="70.3" y="52.9" class="st1" width="21.4" height="7"/>
			</g>
			<path class="st1" d="M132.2,29H0V0h132.2L132.2,29L132.2,29z M7,22.1h118.3V7H7V22.1z"/>
			<g>
				<rect x="13.9" y="11" class="st1" width="7" height="7"/>
				<rect x="27.8" y="11" class="st1" width="7" height="7"/>
				<rect x="41.7" y="11" class="st1" width="7" height="7"/>
			</g>
			<polygon class="st1" points="61.9,153.8 0,153.8 0,22.1 132.2,22.1 132.2,85.1 125.2,85.1 125.2,29 7,29 7,146.8 61.9,146.8 			
				"/>
		</g>
	</g>
	<g>
		<path class="st2" d="M131.5,128.1v0.1v6.7c0,0.2-0.1,0.3-0.2,0.4l-5.7,3.3v6.5c0,0.2-0.1,0.3-0.2,0.4l-11.8,6.8h-0.1l0,0
			c-0.1,0-0.2,0-0.3,0l0,0h-0.1l-11.8-6.8c-0.2-0.1-0.2-0.3-0.2-0.4v-20.2v-0.1l0,0v-0.1l0,0c0,0,0,0,0-0.1l0,0c0,0,0,0,0.1,0l0,0
			l5.9-3.4c0.2-0.1,0.3-0.1,0.5,0l5.9,3.4l0,0c0,0,0,0,0.1,0l0,0c0,0,0,0,0,0.1l0,0v0.1l0,0v0.1v12.6l4.9-2.8v-6.5v-0.1l0,0V128l0,0
			c0,0,0,0,0-0.1l0,0c0,0,0,0,0.1,0l0,0l5.9-3.4c0.2-0.1,0.3-0.1,0.5,0l5.9,3.4c0,0,0,0,0.1,0l0,0c0,0,0,0,0,0.1l0,0
			C131.4,128.1,131.5,128.1,131.5,128.1L131.5,128.1z M130.5,134.7v-5.6l-2.1,1.2l-2.9,1.6v5.6L130.5,134.7L130.5,134.7z
			 M124.6,144.9v-5.6l-2.8,1.6l-8,4.6v5.7L124.6,144.9z M102,125.8v19.1l10.8,6.2v-5.7l-5.7-3.2l0,0l0,0c0,0,0,0-0.1,0l0,0l0,0
			c0,0,0,0,0-0.1l0,0l0,0c0,0,0,0,0-0.1c0,0,0,0,0-0.1l0,0c0,0,0,0,0-0.1c0,0,0,0,0-0.1l0,0v-13.2l-2.9-1.6L102,125.8L102,125.8z
			 M107.4,122.1l-4.9,2.8l4.9,2.8l4.9-2.8L107.4,122.1L107.4,122.1z M110,139.8l2.9-1.6v-12.3l-2.1,1.2l-2.9,1.6V141L110,139.8z
			 M125.1,125.4l-4.9,2.8l4.9,2.8l4.9-2.8L125.1,125.4z M124.6,132l-2.9-1.6l-2.1-1.2v5.6l2.9,1.6l2.1,1.2V132z M113.3,144.6
			l7.2-4.1l3.6-2.1l-4.9-2.8l-5.7,3.3l-5.2,3L113.3,144.6z"/>
	</g>
</g>
</svg>
