<?xml version="1.0" encoding="utf-8"?>
<!-- Generator: Adobe Illustrator 26.0.3, SVG Export Plug-In . SVG Version: 6.00 Build 0)  -->
<svg version="1.1" id="Layer_1" xmlns="http://www.w3.org/2000/svg" xmlns:xlink="http://www.w3.org/1999/xlink" x="0px" y="0px"
	 viewBox="0 0 466 320" style="enable-background:new 0 0 466 320;" xml:space="preserve">
<style type="text/css">
	.st0{fill:#F35045;}
	.st1{fill:#B63C34;}
</style>
<g id="comp_x5F_194-laravel">
	<g>
		<g>
			<polygon class="st0" points="10,10 130,240 456,160 406,90 336,100 446,260 296,310 120,10 			"/>
			<g>
				<path class="st1" d="M296,320c-3.5,0-6.8-1.8-8.6-4.9l-53-90.4l-102,25c-4.5,1.1-9.1-1-11.2-5.1l-120-230
					c-1.6-3.1-1.5-6.8,0.3-9.8C3.3,1.8,6.5,0,10,0h110c3.5,0,6.8,1.9,8.6,4.9l115.4,196.8l128.1-31.4l-44.4-64.6
					c-2-2.9-2.3-6.5-0.9-9.7c1.4-3.2,4.3-5.4,7.7-5.9l70-10c3.7-0.5,7.4,1,9.6,4.1l50,70c1.9,2.7,2.4,6.2,1.2,9.3
					c-1.2,3.1-3.8,5.4-7,6.2l-53.3,13.1l49.2,71.5c1.8,2.6,2.2,5.9,1.2,8.8c-1,3-3.3,5.3-6.3,6.3l-150,50
					C298.1,319.8,297.1,320,296,320z M254.6,219.7l45.9,78.2l129.7-43.2l-45.9-66.8L254.6,219.7z M26.5,20l108.7,208.4l88.6-21.7
					L114.3,20H26.5z M353.4,107.6l39.6,57.6l46.3-11.4l-37.9-53L353.4,107.6z"/>
			</g>
		</g>
	</g>
</g>
<g id="Layer_1_00000036239719564459350970000012123066748868511920_">
</g>
</svg>
