<?xml version="1.0" encoding="utf-8"?>
<!-- Generator: Adobe Illustrator 25.2.1, SVG Export Plug-In . SVG Version: 6.00 Build 0)  -->
<svg version="1.1" id="Layer_1" xmlns="http://www.w3.org/2000/svg" xmlns:xlink="http://www.w3.org/1999/xlink" x="0px" y="0px"
	 viewBox="0 0 189.8 189.8" style="enable-background:new 0 0 189.8 189.8;" xml:space="preserve">
<style type="text/css">
	.st0{fill:#59C8DE;}
	.st1{fill:#F26337;}
	.st2{fill:#252E3C;}
</style>
<g>
	<path class="st0" d="M40.8,169.4c-5.4,0-10.6-2.1-14.4-6c-3.8-3.9-6-9-6-14.4c0-5.4,2.1-10.6,6-14.4l22.4-22.4c3.9-3.9,9-6,14.4-6
		c5.4,0,10.6,2.1,14.4,6c3.9,3.8,6,9,6,14.4s-2.1,10.6-6,14.4l-22.4,22.4C51.4,167.3,46.3,169.4,40.8,169.4z"/>
	<path class="st1" d="M126.6,83.6c-5.4,0-10.6-2.1-14.4-6c-3.8-3.8-6-9-6-14.4c0-5.4,2.1-10.6,6-14.4l22.4-22.4c3.9-3.8,9-6,14.4-6
		c5.4,0,10.6,2.1,14.4,6c3.9,3.9,6,9,6,14.4c0,5.4-2.1,10.6-6,14.4L141,77.6C137.2,81.5,132.1,83.6,126.6,83.6L126.6,83.6z"/>
	<g>
		<path class="st2" d="M40.8,189.8c-10.9,0-21.1-4.2-28.9-12c-7.7-7.7-12-18-12-28.9c0-10.9,4.3-21.2,12-28.9l22.4-22.4
			c7.7-7.7,18-12,28.9-12c6.5,0,12.7,1.5,18.5,4.4l-3.5,6.9c-4.7-2.4-9.7-3.6-14.9-3.6c-8.8,0-17.1,3.4-23.4,9.7l-22.4,22.4
			c-6.2,6.2-9.7,14.5-9.7,23.4c0,8.8,3.4,17.1,9.7,23.4c6.2,6.2,14.5,9.7,23.4,9.7c8.8,0,17.1-3.4,23.4-9.7L86.6,150
			c6.2-6.3,9.7-14.6,9.7-23.4c0-5.3-1.2-10.3-3.6-14.9l6.9-3.5c2.9,5.8,4.4,12,4.4,18.5c0,10.9-4.2,21.1-11.9,28.9l-22.4,22.4
			C62,185.6,51.7,189.8,40.8,189.8z"/>
		<path class="st2" d="M126.6,104c-6.5,0-12.7-1.5-18.5-4.4l3.5-6.9c4.6,2.4,9.7,3.6,14.9,3.6c8.8,0,17.1-3.4,23.4-9.7l22.4-22.4
			c6.2-6.2,9.7-14.5,9.7-23.4c0-8.8-3.4-17.1-9.7-23.4c-6.2-6.2-14.5-9.7-23.4-9.7c-8.8,0-17.1,3.4-23.4,9.7l-22.4,22.4
			c-6.2,6.2-9.7,14.5-9.7,23.4c0,5.3,1.2,10.3,3.6,14.9l-6.9,3.5c-2.9-5.7-4.4-12-4.4-18.5c0-10.9,4.2-21.2,12-28.9L120.2,12
			c7.7-7.7,18-12,28.9-12c10.9,0,21.2,4.2,28.9,12c7.7,7.7,12,18,12,28.9c0,10.9-4.2,21.1-12,28.9l-22.4,22.4
			C147.8,99.8,137.5,104,126.6,104z"/>
		
			<rect x="42.2" y="91" transform="matrix(0.7071 -0.7071 0.7071 0.7071 -39.3129 94.9182)" class="st2" width="105.5" height="7.8"/>
	</g>
</g>
</svg>
