<?xml version="1.0" encoding="utf-8"?>
<!-- Generator: Adobe Illustrator 16.0.0, SVG Export Plug-In . SVG Version: 6.00 Build 0)  -->
<!DOCTYPE svg PUBLIC "-//W3C//DTD SVG 1.1//EN" "http://www.w3.org/Graphics/SVG/1.1/DTD/svg11.dtd">
<svg version="1.1" id="Layer_1" xmlns="http://www.w3.org/2000/svg" xmlns:xlink="http://www.w3.org/1999/xlink" x="0px" y="0px"
	 width="200px" height="200px" viewBox="0 0 200 200" enable-background="new 0 0 200 200" xml:space="preserve">
<g>
	<path fill="#F96232" d="M130.545,19.662c-9.38,0-18.211,3.655-24.854,10.297l-5.689,5.681l-5.688-5.682
		c-6.638-6.64-15.464-10.295-24.857-10.295c-19.382,0-35.147,15.77-35.147,35.149c0,9.401,3.667,18.24,10.333,24.895l35.593,35.595
		l19.767-39.535l19.767,39.537l35.637-35.636c6.638-6.632,10.286-15.458,10.286-24.856
		C165.691,35.432,149.926,19.662,130.545,19.662z"/>
	<g>
		<path fill="#242D3C" d="M177.8,48.578c-3.091-23.621-23.409-41.435-47.258-41.435c-10.347,0-20.171,3.244-28.409,9.378L100,18.109
			l-2.133-1.589c-8.238-6.134-18.062-9.378-28.41-9.378c-23.849,0-44.167,17.814-47.258,41.434l-7.082-0.928
			C18.673,20.485,42.035,0,69.458,0C80.475,0,90.979,3.2,100,9.28C109.023,3.2,119.526,0,130.542,0
			c27.423,0,50.785,20.484,54.343,47.648L177.8,48.578z"/>
		<path fill="#242D3C" d="M192.054,65.087h-20.551V44.536h20.551V65.087z M178.646,57.944h6.266v-6.265h-6.266V57.944z"/>
		<path fill="#242D3C" d="M28.493,65.087H7.946V44.536h20.546V65.087z M15.089,57.944h6.261v-6.265h-6.261V57.944z"/>
	</g>
	<g>
		<path fill="#242D3C" d="M116.563,177.724H83.44v-3.571c0-11.334-9.229-20.554-20.572-20.554H57.09l42.911-85.819l42.908,85.819
			h-5.778c-11.342,0-20.568,9.22-20.568,20.554V177.724z M90.354,170.581h19.294c1.523-11.771,10.469-21.249,21.978-23.575
			l-31.625-63.254l-31.628,63.254C79.883,149.332,88.831,158.81,90.354,170.581z"/>
		<rect x="75.871" y="170.581" fill="#242D3C" width="48.258" height="7.143"/>
		<path fill="#242D3C" d="M120.273,200H79.723v-29.419h40.551V200z M86.865,192.857h26.266v-15.134H86.865V192.857z"/>
		<path fill="#242D3C" d="M100.001,146.063c-6.064,0-10.998-4.932-10.998-10.993c0-6.065,4.933-11,10.998-11
			c6.067,0,11.001,4.935,11.001,11C111.003,141.131,106.068,146.063,100.001,146.063z M100.001,131.212
			c-2.125,0-3.854,1.731-3.854,3.857c0,2.123,1.73,3.851,3.854,3.851c2.127,0,3.859-1.728,3.859-3.851
			C103.86,132.943,102.129,131.212,100.001,131.212z"/>
		<rect x="96.43" y="75.766" fill="#242D3C" width="7.143" height="51.875"/>
	</g>
</g>
</svg>
