<?xml version="1.0" encoding="utf-8"?>
<!-- Generator: Adobe Illustrator 16.0.0, SVG Export Plug-In . SVG Version: 6.00 Build 0)  -->
<!DOCTYPE svg PUBLIC "-//W3C//DTD SVG 1.1//EN" "http://www.w3.org/Graphics/SVG/1.1/DTD/svg11.dtd">
<svg version="1.1" id="Layer_1" xmlns="http://www.w3.org/2000/svg" xmlns:xlink="http://www.w3.org/1999/xlink" x="0px" y="0px"
	 width="200px" height="200px" viewBox="0 0 200 200" enable-background="new 0 0 200 200" xml:space="preserve">
<g>
	<g>
		<path fill="#242D3C" d="M34.617,74.413c-10.897,0-19.762-8.865-19.762-19.761c0-10.899,8.865-19.764,19.762-19.764
			c10.899,0,19.766,8.865,19.766,19.764C54.383,65.547,45.516,74.413,34.617,74.413z M34.617,42.415
			c-6.745,0-12.235,5.49-12.235,12.237c0,6.747,5.49,12.233,12.235,12.233c6.749,0,12.238-5.487,12.238-12.233
			C46.855,47.905,41.366,42.415,34.617,42.415z"/>
		<rect x="30.854" y="151.742" fill="#242D3C" width="7.527" height="47.996"/>
		<path fill="#242D3C" d="M21.24,199.738h-7.527v-53.374H0v-43.762C0,97.02,2.174,91.77,6.122,87.821
			c3.949-3.949,9.199-6.125,14.783-6.125h29.513v7.528H20.905c-3.574,0-6.932,1.392-9.458,3.919
			c-2.528,2.527-3.919,5.887-3.919,9.459v36.234H21.24V199.738z"/>
		<rect x="30.854" y="95.998" fill="#242D3C" width="7.527" height="7.53"/>
		<polygon fill="#242D3C" points="55.523,199.738 47.996,199.738 47.996,138.837 65.472,138.837 65.472,146.364 55.523,146.364 		
			"/>
	</g>
	<g>
		<path fill="#242D3C" d="M165.381,74.413c-10.896,0-19.762-8.865-19.762-19.761c0-10.899,8.865-19.764,19.762-19.764
			c10.897,0,19.765,8.865,19.765,19.764C185.146,65.547,176.278,74.413,165.381,74.413z M165.381,42.415
			c-6.746,0-12.234,5.49-12.234,12.237c0,6.747,5.488,12.233,12.234,12.233c6.747,0,12.237-5.487,12.237-12.233
			C177.618,47.905,172.128,42.415,165.381,42.415z"/>
		<rect x="161.617" y="151.742" fill="#242D3C" width="7.527" height="47.996"/>
		<path fill="#242D3C" d="M186.287,199.738h-7.527v-60.901h13.713v-36.234c0-3.573-1.393-6.932-3.918-9.459
			c-2.527-2.527-5.886-3.919-9.459-3.919h-29.514v-7.528h29.514c5.585,0,10.833,2.176,14.782,6.125
			C197.825,91.77,200,97.02,200,102.603v43.762h-13.713V199.738z"/>
		<rect x="161.617" y="95.998" fill="#242D3C" width="7.527" height="7.53"/>
		<polygon fill="#242D3C" points="152.004,199.738 144.477,199.738 144.477,146.364 134.527,146.364 134.527,138.837 
			152.004,138.837 		"/>
	</g>
	<g>
		<path fill="#43D3E8" d="M132.061,64.148c-4.153-4.153-9.598-6.231-15.042-6.231L100,74.936L82.981,57.917
			c-5.444,0-10.888,2.078-15.042,6.231c-4.153,4.155-6.231,9.597-6.231,15.043v38.292h17.018v14.892h42.547v-14.892h17.018V79.191
			C138.291,73.745,136.214,68.303,132.061,64.148z"/>
		<path fill="#242D3C" d="M100,47.499c-13.023,0-23.619-10.594-23.619-23.619S86.977,0.262,100,0.262
			c13.023,0,23.619,10.594,23.619,23.619S113.023,47.499,100,47.499z M100,7.789c-8.873,0-16.091,7.219-16.091,16.091
			S91.127,39.972,100,39.972c8.873,0,16.092-7.219,16.092-16.091S108.873,7.789,100,7.789z"/>
		<rect x="96.236" y="140.173" fill="#242D3C" width="7.527" height="59.565"/>
		<rect x="74.962" y="117.482" fill="#242D3C" width="7.527" height="82.256"/>
		<rect x="117.51" y="117.482" fill="#242D3C" width="7.527" height="82.256"/>
		<path fill="#242D3C" d="M142.055,132.592h-20.781v-7.528h13.254V79.191c0-4.675-1.821-9.074-5.129-12.382
			c-3.307-3.306-7.703-5.128-12.38-5.128H82.981c-4.677,0-9.074,1.822-12.38,5.128c-3.307,3.308-5.128,7.707-5.128,12.382v45.873
			h13.254v7.528H57.945V79.191c0-6.687,2.604-12.973,7.332-17.704c4.729-4.729,11.018-7.333,17.704-7.333h34.038
			c6.687,0,12.975,2.605,17.703,7.333c4.729,4.731,7.333,11.018,7.333,17.704V132.592z"/>
		<g>
			<rect x="96.236" y="82.027" fill="#242D3C" width="7.527" height="7.529"/>
			<rect x="96.236" y="97.082" fill="#242D3C" width="7.527" height="7.528"/>
		</g>
	</g>
</g>
</svg>
