<?xml version="1.0" encoding="utf-8"?>
<!-- Generator: Adobe Illustrator 16.0.0, SVG Export Plug-In . SVG Version: 6.00 Build 0)  -->
<!DOCTYPE svg PUBLIC "-//W3C//DTD SVG 1.1//EN" "http://www.w3.org/Graphics/SVG/1.1/DTD/svg11.dtd">
<svg version="1.1" id="Layer_1" xmlns="http://www.w3.org/2000/svg" xmlns:xlink="http://www.w3.org/1999/xlink" x="0px" y="0px"
	 width="200px" height="200px" viewBox="0 0 200 200" enable-background="new 0 0 200 200" xml:space="preserve">
<g>
	<g>
		<g>
			<rect x="96.823" y="16.451" fill="#242D3C" width="7.705" height="7.407"/>
			<rect x="84.24" y="176.166" fill="#242D3C" width="32.865" height="7.407"/>
			<path fill="#242D3C" d="M140.476,200h-77.83c-9.621,0-17.448-7.821-17.448-17.435V17.451C45.198,7.829,53.025,0,62.646,0h77.83
				c9.618,0,17.442,7.829,17.442,17.451v165.115C157.918,192.179,150.094,200,140.476,200z M62.646,7.407
				c-5.537,0-10.041,4.505-10.041,10.043v165.115c0,5.529,4.504,10.027,10.041,10.027h77.83c5.534,0,10.035-4.498,10.035-10.027
				V17.451c0-5.538-4.501-10.043-10.035-10.043H62.646z"/>
			<rect x="48.902" y="32.901" fill="#242D3C" width="105.313" height="7.407"/>
			<rect x="48.902" y="159.721" fill="#242D3C" width="105.313" height="7.407"/>
		</g>
		<g>
			<g>
				<rect x="62.237" y="49.938" fill="#F96232" width="14.104" height="14.104"/>
				<rect x="62.237" y="71.45" fill="#F96232" width="14.104" height="14.106"/>
				<rect x="62.237" y="92.961" fill="#F96232" width="14.104" height="14.102"/>
				<rect x="83.749" y="49.938" fill="#F96232" width="14.104" height="14.104"/>
				<rect x="83.749" y="71.45" fill="#F96232" width="14.104" height="14.106"/>
				<rect x="83.749" y="92.961" fill="#F96232" width="14.104" height="14.102"/>
				<rect x="105.265" y="49.938" fill="#F96232" width="14.104" height="14.104"/>
				<rect x="105.265" y="71.45" fill="#F96232" width="14.104" height="14.106"/>
				<rect x="126.775" y="49.938" fill="#F96232" width="14.105" height="14.104"/>
				<rect x="126.775" y="71.45" fill="#F96232" width="14.105" height="14.106"/>
			</g>
		</g>
		<g>
			<rect x="112.669" y="128.63" fill="#242D3C" width="7.408" height="7.407"/>
			<rect x="97.854" y="128.63" fill="#242D3C" width="7.407" height="7.407"/>
			<rect x="83.04" y="128.63" fill="#242D3C" width="7.408" height="7.407"/>
		</g>
	</g>
	<g>
		<rect x="29.761" y="147.148" fill="#43D3E8" width="146.555" height="16.276"/>
		<path fill="#242D3C" d="M180.021,167.128H22.014l-18.31-11.842l18.31-11.842h158.007V167.128z M24.201,159.721h148.412v-8.868
			H24.201l-6.857,4.434L24.201,159.721z"/>
		<path fill="#242D3C" d="M184.456,167.128h-11.843v-23.684h11.843c3.161,0,6.134,1.231,8.372,3.469
			c2.237,2.236,3.468,5.209,3.468,8.373s-1.23,6.138-3.466,8.373C190.589,165.897,187.614,167.128,184.456,167.128z
			 M180.021,159.721h4.436c1.184,0,2.298-0.463,3.138-1.302c0.835-0.834,1.295-1.947,1.295-3.133c0-1.185-0.46-2.299-1.296-3.135
			c-0.839-0.838-1.953-1.299-3.137-1.299h-4.436V159.721z"/>
	</g>
	<g>
		<rect x="7.039" y="73.647" fill="#242D3C" width="15.173" height="7.407"/>
		<rect x="22.212" y="100.81" fill="#242D3C" width="16.32" height="7.408"/>
		<rect x="22.212" y="114.382" fill="#242D3C" width="16.32" height="7.408"/>
		<rect x="7.039" y="87.219" fill="#242D3C" width="31.493" height="7.408"/>
		<rect x="22.212" y="46.484" fill="#242D3C" width="16.32" height="7.407"/>
		<rect x="22.212" y="60.063" fill="#242D3C" width="16.32" height="7.408"/>
		<rect x="7.039" y="32.901" fill="#242D3C" width="31.493" height="7.407"/>
	</g>
	<g>
		<rect x="180.904" y="73.636" fill="#242D3C" width="15.174" height="7.407"/>
		<rect x="164.585" y="46.471" fill="#242D3C" width="16.319" height="7.408"/>
		<rect x="164.585" y="32.901" fill="#242D3C" width="16.319" height="7.407"/>
		<rect x="164.585" y="60.063" fill="#242D3C" width="31.493" height="7.408"/>
		<rect x="164.585" y="100.797" fill="#242D3C" width="16.319" height="7.407"/>
		<rect x="164.585" y="87.219" fill="#242D3C" width="16.319" height="7.408"/>
		<rect x="164.585" y="114.382" fill="#242D3C" width="31.493" height="7.408"/>
	</g>
</g>
</svg>
