<?xml version="1.0" encoding="utf-8"?>
<!-- Generator: Adobe Illustrator 25.2.1, SVG Export Plug-In . SVG Version: 6.00 Build 0)  -->
<svg version="1.1" id="Layer_1" xmlns="http://www.w3.org/2000/svg" xmlns:xlink="http://www.w3.org/1999/xlink" x="0px" y="0px"
	 viewBox="0 0 180.4 196.8" style="enable-background:new 0 0 180.4 196.8;" xml:space="preserve">
<style type="text/css">
	.st0{fill:#252E3C;}
	.st1{fill:#59C8DE;}
</style>
<g>
	<g>
		<g>
			<rect x="28.9" y="149.1" class="st0" width="7.2" height="7.2"/>
			<rect x="173.2" y="69.4" class="st0" width="7.2" height="7.2"/>
			<path class="st0" d="M180.4,142.5h-7.2v-6.6h7.2V142.5z M180.4,129.3h-7.2v-6.6h7.2V129.3z M180.4,116.1h-7.2v-6.6h7.2V116.1z
				 M180.4,103h-7.2v-6.6h7.2V103z M180.4,89.8h-7.2v-6.6h7.2V89.8z"/>
			<rect x="173.2" y="149.1" class="st0" width="7.2" height="7.2"/>
			<path class="st0" d="M165.9,156.3h-7.2v-7.2h7.2V156.3z M151.5,156.3h-7.2v-7.2h7.2V156.3z M137.1,156.3h-7.2v-7.2h7.2V156.3z
				 M122.7,156.3h-7.2v-7.2h7.2V156.3z M108.2,156.3H101v-7.2h7.2V156.3z M93.8,156.3h-7.2v-7.2h7.2V156.3z M79.4,156.3h-7.2v-7.2
				h7.2V156.3z M64.9,156.3h-7.2v-7.2h7.2V156.3z M50.5,156.3h-7.2v-7.2h7.2V156.3z"/>
		</g>
		<g>
			<path class="st0" d="M151.5,127.4H0V40.5h151.5V127.4z M7.2,120.2h137.1V47.8H7.2V120.2z"/>
			<path class="st1" d="M123.3,54H28.2c0,8.1-6.6,14.7-14.7,14.7v30.5c8.1,0,14.7,6.6,14.7,14.7h95.1c0-8.1,6.6-14.7,14.7-14.7V68.7
				C129.9,68.7,123.3,62.1,123.3,54z M75.8,108.1c-13.3,0-24.1-10.8-24.1-24.1s10.8-24.1,24.1-24.1c13.3,0,24.1,10.8,24.1,24.1
				S89.1,108.1,75.8,108.1z"/>
			<g>
				<path class="st0" d="M77.7,99.1h-3.9c-2.5,0-4.8-1-6.6-2.7c-1.8-1.8-2.8-4.2-2.8-6.7h7.2c0,0.6,0.2,1.1,0.6,1.6
					c0.4,0.4,0.9,0.6,1.5,0.6h3.9c0.6,0,1.1-0.2,1.6-0.7c0.5-0.5,0.6-1.1,0.6-1.5c0-0.4-0.1-1-0.6-1.5c-0.4-0.4-1-0.6-1.6-0.6h-3.9
					c-2.5,0-4.8-1-6.6-2.7c-1.8-1.8-2.7-4.1-2.7-6.7c0-2.5,1-4.8,2.7-6.6c1.8-1.8,4.2-2.8,6.7-2.8h3.9c2.5,0,4.8,1,6.6,2.7
					c1.8,1.8,2.8,4.2,2.8,6.7h-7.2c0-0.4-0.1-1-0.6-1.5c-0.4-0.4-1-0.6-1.5-0.6h-3.9c-0.6,0-1.1,0.2-1.6,0.6
					c-0.4,0.4-0.6,0.9-0.6,1.5c0,0.6,0.2,1.1,0.6,1.6c0.4,0.4,1,0.6,1.5,0.6h3.9c2.5,0,4.8,1,6.6,2.7c1.8,1.8,2.7,4.1,2.7,6.7
					c0,2.5-1,4.9-2.7,6.6C82.5,98.2,80.2,99.1,77.7,99.1z"/>
				<rect x="72.2" y="66.5" class="st0" width="7.2" height="5.9"/>
				<rect x="72.2" y="95.5" class="st0" width="7.2" height="5.9"/>
			</g>
			<g>
				<rect x="108.7" y="80.4" class="st0" width="16.5" height="7.2"/>
				<rect x="26.3" y="80.4" class="st0" width="16.4" height="7.2"/>
			</g>
		</g>
		<polygon class="st0" points="165.9,141.9 14.4,141.9 14.4,123.8 21.6,123.8 21.6,134.6 158.7,134.6 158.7,62.2 147.9,62.2 
			147.9,55 165.9,55 		"/>
	</g>
	<g>
		<g>
			<path class="st0" d="M51.6,23.2l-5.1-5.1C70.6-6,109.8-6,133.9,18.1l-5.1,5.1C107.5,1.9,72.9,1.9,51.6,23.2z"/>
			<polygon class="st0" points="112.8,26.9 111.8,19.8 127.2,17.6 125,2.1 132.1,1.1 135.4,23.7 			"/>
		</g>
		<g>
			<path class="st0" d="M90.2,196.8c-15.8,0-31.6-6-43.7-18.1l5.1-5.1c21.3,21.3,55.9,21.3,77.2,0l5.1,5.1
				C121.8,190.8,106,196.8,90.2,196.8z"/>
			<polygon class="st0" points="48.3,195.7 45,173.2 67.5,169.9 68.6,177 53.2,179.3 55.4,194.7 			"/>
		</g>
	</g>
</g>
</svg>
