<?xml version="1.0" encoding="utf-8"?>
<!-- Generator: Adobe Illustrator 25.2.1, SVG Export Plug-In . SVG Version: 6.00 Build 0)  -->
<svg version="1.1" id="Layer_1" xmlns="http://www.w3.org/2000/svg" xmlns:xlink="http://www.w3.org/1999/xlink" x="0px" y="0px"
	 viewBox="0 0 185.5 171" style="enable-background:new 0 0 185.5 171;" xml:space="preserve">
<style type="text/css">
	.st0{fill:#59C8DE;}
	.st1{fill:#252E3C;}
</style>
<g>
	<path class="st0" d="M111.4,132.3c0-19.5,15.8-35.4,35.4-35.4c2.8,0,5.6,0.3,8.3,1c-1-20.6-12.1-38.6-28.4-49.2
		c-4.3,14.6-17.9,25.3-33.9,25.3c-16,0-29.6-10.7-33.9-25.3C42.5,59.3,31.5,77.3,30.4,97.9c2.7-0.6,5.4-1,8.3-1
		c19.5,0,35.4,15.8,35.4,35.4c0,9.4-3.7,18-9.7,24.3c8.5,4.4,18.2,6.8,28.4,6.8c10.2,0,19.9-2.5,28.4-6.8
		C115.1,150.3,111.4,141.7,111.4,132.3z"/>
	<g>
		<path class="st1" d="M107.3,69.7c-0.3-1.9-1.1-3.6-2.5-4.9c-1.6-1.6-3.8-2.5-6.2-2.5h-12c-2.3,0-4.5,0.9-6.1,2.5
			c-1.3,1.3-2.2,3-2.5,4.9l-6.6-1c0.5-3.3,2-6.3,4.3-8.6c2.9-2.9,6.8-4.5,10.9-4.5h12c4.1,0,8,1.6,10.9,4.5c2.3,2.3,3.8,5.3,4.3,8.6
			L107.3,69.7z"/>
		<path class="st1" d="M92.7,52.1c-7.4,0-13.4-6-13.4-13.4c0-7.4,6-13.4,13.4-13.4c7.4,0,13.4,6,13.4,13.4
			C106.2,46.1,100.1,52.1,92.7,52.1z M92.7,31.9c-3.7,0-6.8,3-6.8,6.8c0,3.7,3,6.8,6.8,6.8c3.7,0,6.8-3,6.8-6.8
			C99.5,35,96.5,31.9,92.7,31.9z"/>
	</g>
	<g>
		<path class="st1" d="M132.1,163.3l-6.6-1c0.5-3.3,2-6.3,4.3-8.6c2.9-2.9,6.8-4.5,10.9-4.5h12c4.1,0,8,1.6,10.9,4.5
			c2.4,2.4,3.9,5.4,4.3,8.6l-6.6,1c-0.3-1.9-1.1-3.5-2.5-4.9c-1.6-1.6-3.8-2.5-6.1-2.5h-12c-2.3,0-4.5,0.9-6.1,2.5
			C133.3,159.7,132.4,161.4,132.1,163.3z"/>
		<path class="st1" d="M146.8,145.7c-7.4,0-13.4-6-13.4-13.4c0-7.4,6-13.4,13.4-13.4c7.4,0,13.4,6,13.4,13.4
			C160.2,139.7,154.2,145.7,146.8,145.7z M146.8,125.5c-3.7,0-6.8,3-6.8,6.8c0,3.7,3,6.8,6.8,6.8c3.7,0,6.8-3,6.8-6.8
			C153.5,128.6,150.5,125.5,146.8,125.5z"/>
	</g>
	<g>
		<path class="st1" d="M53.3,163.3c-0.3-1.9-1.1-3.6-2.5-4.9c-1.6-1.6-3.8-2.5-6.1-2.5h-12c-2.3,0-4.5,0.9-6.1,2.5
			c-1.3,1.3-2.2,3-2.5,4.9l-6.6-1c0.5-3.3,2-6.3,4.3-8.6c2.9-2.9,6.8-4.5,10.9-4.5h12c4.1,0,8,1.6,10.9,4.5c2.3,2.3,3.8,5.3,4.3,8.6
			L53.3,163.3z"/>
		<path class="st1" d="M38.7,145.7c-7.4,0-13.4-6-13.4-13.4c0-7.4,6-13.4,13.4-13.4c7.4,0,13.4,6,13.4,13.4
			C52.1,139.7,46.1,145.7,38.7,145.7z M38.7,125.5c-3.7,0-6.8,3-6.8,6.8c0,3.7,3,6.8,6.8,6.8c3.7,0,6.8-3,6.8-6.8
			C45.5,128.6,42.4,125.5,38.7,125.5z"/>
	</g>
	<g>
		<rect x="89.4" y="82.6" class="st1" width="6.7" height="18.5"/>
		<rect x="75.5" y="102.4" transform="matrix(0.866 -0.5 0.5 0.866 -41.4987 56.5225)" class="st1" width="18.5" height="6.7"/>
		
			<rect x="97.4" y="96.5" transform="matrix(0.5001 -0.866 0.866 0.5001 -41.1738 140.0742)" class="st1" width="6.7" height="18.5"/>
	</g>
	<g>
		<path class="st1" d="M92.7,77.4C71.4,77.4,54,60,54,38.7S71.4,0,92.7,0c21.3,0,38.7,17.4,38.7,38.7S114.1,77.4,92.7,77.4z
			 M92.7,6.7c-17.7,0-32,14.4-32,32s14.4,32,32,32c17.7,0,32-14.4,32-32S110.4,6.7,92.7,6.7z"/>
		<path class="st1" d="M146.8,171c-21.3,0-38.7-17.4-38.7-38.7s17.4-38.7,38.7-38.7s38.7,17.4,38.7,38.7S168.1,171,146.8,171z
			 M146.8,100.3c-17.7,0-32,14.4-32,32s14.4,32,32,32s32-14.4,32-32S164.4,100.3,146.8,100.3z"/>
		<path class="st1" d="M38.7,171C17.4,171,0,153.6,0,132.3c0-21.3,17.4-38.7,38.7-38.7s38.7,17.4,38.7,38.7
			C77.4,153.6,60,171,38.7,171z M38.7,100.3c-17.7,0-32,14.4-32,32c0,17.7,14.4,32,32,32s32-14.4,32-32
			C70.7,114.6,56.4,100.3,38.7,100.3z"/>
	</g>
</g>
</svg>
