<?xml version="1.0" encoding="utf-8"?>
<!-- Generator: Adobe Illustrator 25.2.1, SVG Export Plug-In . SVG Version: 6.00 Build 0)  -->
<svg version="1.1" id="Layer_1" xmlns="http://www.w3.org/2000/svg" xmlns:xlink="http://www.w3.org/1999/xlink" x="0px" y="0px"
	 viewBox="0 0 195.6 175.6" style="enable-background:new 0 0 195.6 175.6;" xml:space="preserve">
<style type="text/css">
	.st0{fill:#59C8DE;}
	.st1{fill:#26303D;}
	.st2{fill:#FFFFFF;}
</style>
<g>
	<g>
		<g>
			<path class="st0" d="M109.2,126.1l9.7-3.7c0.7-3,1.9-5.7,3.4-8.3l-4.2-9.5l6.5-6.5l9.5,4.2c2.5-1.5,5.3-2.6,8.3-3.4l3.7-9.7h7.5
				V34.9H56.1v99.6h53.1V126.1z"/>
			<g>
				<path class="st1" d="M157.6,175.6h-13.9l-3.9-10.4c-2-0.6-3.9-1.5-5.8-2.4l-10.1,4.6l-9.8-9.8l4.6-10.1c-1-1.8-1.8-3.8-2.4-5.8
					l-10.4-3.9v-13.9l10.4-3.9c0.6-2,1.5-3.9,2.4-5.8L114,104l9.8-9.8l10.1,4.6c1.8-1,3.8-1.8,5.8-2.4l3.9-10.4h14l3.9,10.4
					c2,0.6,3.9,1.5,5.8,2.4l10.1-4.6l9.8,9.8l-4.6,10.1c1,1.9,1.8,3.8,2.4,5.8l10.4,3.9v13.9l-10.4,3.9c-0.6,2-1.5,3.9-2.4,5.8
					l4.6,10.1l-9.8,9.8l-10.1-4.6c-1.9,1-3.8,1.8-5.8,2.4L157.6,175.6z M148.4,168.7h4.4l3.5-9.2l1.7-0.4c2.5-0.6,5.1-1.7,7.4-3.1
					l1.5-0.8l9,4l3.2-3.2l-4-9l0.8-1.5c1.4-2.3,2.4-4.8,3.1-7.3l0.4-1.7l9.2-3.5v-4.4l-9.2-3.5l-0.4-1.7c-0.6-2.5-1.7-5-3.1-7.3
					l-0.8-1.5l4-9l-3.2-3.2l-9,4l-1.5-0.8c-2.3-1.4-4.8-2.3-7.4-3.1l-1.7-0.4l-3.5-9.2h-4.4l-3.5,9.2l-1.7,0.4
					c-2.5,0.6-5.1,1.7-7.3,3.1l-1.5,0.8l-9-4l-3.2,3.2l4,9l-0.8,1.5c-1.4,2.3-2.3,4.8-3.1,7.4l-0.5,1.5l-9.2,3.5v4.4l9.2,3.5
					l0.4,1.7c0.6,2.5,1.7,5.1,3.1,7.3l0.8,1.5l-4,9l3.2,3.2l9-4l1.5,0.8c2.3,1.4,4.8,2.3,7.3,3.1l1.7,0.4L148.4,168.7z"/>
				<path class="st1" d="M150.6,149.9c-10.6,0-19.3-8.7-19.3-19.3s8.7-19.3,19.3-19.3s19.3,8.7,19.3,19.3
					C170,141.4,161.3,149.9,150.6,149.9z M150.6,118.3c-6.9,0-12.4,5.6-12.4,12.4c0,6.9,5.6,12.4,12.4,12.4
					c6.9,0,12.4-5.6,12.4-12.4C163.1,123.8,157.5,118.3,150.6,118.3z"/>
			</g>
			<g>
				<rect y="82.1" class="st1" width="17.6" height="6.9"/>
				<rect x="17.6" y="105.6" class="st1" width="18.8" height="6.9"/>
				<rect x="17.6" y="117.3" class="st1" width="18.8" height="6.9"/>
				<rect x="17.6" y="152.6" class="st1" width="18.8" height="6.9"/>
				<rect x="17.6" y="164.3" class="st1" width="18.8" height="6.9"/>
				<rect y="93.8" class="st1" width="36.4" height="6.9"/>
				<rect y="129.1" class="st1" width="17.6" height="6.9"/>
				<rect x="17.6" y="58.6" class="st1" width="18.8" height="6.9"/>
				<rect x="17.6" y="70.3" class="st1" width="18.8" height="6.9"/>
				<rect y="46.8" class="st1" width="36.4" height="6.9"/>
				<rect y="140.8" class="st1" width="36.4" height="6.9"/>
				<rect x="43.8" y="152.6" class="st1" width="18.8" height="6.9"/>
				<rect x="43.8" y="164.3" class="st1" width="36.4" height="6.9"/>
			</g>
			<g>
				<path class="st1" d="M166.6,28.8H43.2V0h123.5L166.6,28.8L166.6,28.8z M50,21.9h109.7v-15H50V21.9z"/>
				<g>
					<rect x="56.9" y="11" class="st1" width="6.9" height="6.9"/>
					<rect x="70.6" y="11" class="st1" width="6.9" height="6.9"/>
					<rect x="84.3" y="11" class="st1" width="6.9" height="6.9"/>
				</g>
				<polygon class="st1" points="101,147.7 43.2,147.7 43.2,21.9 166.6,21.9 166.6,83.5 159.8,83.5 159.8,28.8 50,28.8 50,140.8 
					101,140.8 				"/>
			</g>
		</g>
	</g>
</g>
<path class="st2" d="M89.2,40.4c-0.1,0-0.5,0.1-0.9,0.1c-8.5,0.8-16.5,5.4-21.5,12.4c-2.8,3.9-4.6,8.4-5.3,13.1
	c-0.2,1.6-0.3,2.1-0.3,4.4s0,2.7,0.3,4.4c1.6,11.2,9.6,20.7,20.5,24.2c1.9,0.6,4,1.1,6.3,1.3c0.9,0.1,4.8,0.1,5.7,0
	c4-0.4,7.4-1.4,10.8-3.2c0.5-0.3,0.6-0.3,0.5-0.4c0,0-2.2-3-4.9-6.5l-4.8-6.5l-6-8.9c-3.3-4.9-6-8.9-6-8.9c0,0,0,3.9-0.1,8.8
	c0,8.4,0,8.8-0.1,9c-0.2,0.3-0.3,0.4-0.5,0.5c-0.2,0.1-0.4,0.1-1.2,0.1h-1l-0.3-0.2c-0.2-0.1-0.3-0.3-0.4-0.4l-0.1-0.3l0-11.7
	l0-11.7l0.2-0.2c0.1-0.1,0.3-0.3,0.4-0.4c0.2-0.1,0.3-0.1,1.3-0.1c1.2,0,1.4,0,1.7,0.4c0.1,0.1,3.3,5,7.2,10.9
	c3.9,5.9,9.2,13.9,11.8,17.9l4.7,7.2l0.2-0.2c2.1-1.4,4.4-3.3,6.2-5.4c3.8-4.3,6.2-9.7,7-15.3c0.2-1.6,0.3-2.1,0.3-4.4
	c0-2.2,0-2.7-0.3-4.4c-1.6-11.2-9.6-20.7-20.5-24.2c-1.9-0.6-4-1-6.2-1.3C93.6,40.4,89.7,40.3,89.2,40.4L89.2,40.4z M101.5,58.5
	c0.3,0.1,0.5,0.4,0.6,0.7c0,0.2,0.1,3.4,0,10.7l0,10.5l-1.9-2.8l-1.9-2.8v-7.7c0-4.9,0-7.7,0.1-7.9c0.1-0.3,0.3-0.6,0.6-0.7
	c0.2-0.1,0.3-0.1,1.2-0.1C101.1,58.4,101.3,58.4,101.5,58.5L101.5,58.5z"/>
</svg>
