<?xml version="1.0" encoding="utf-8"?>
<!-- Generator: Adobe Illustrator 25.2.1, SVG Export Plug-In . SVG Version: 6.00 Build 0)  -->
<svg version="1.1" id="Layer_1" xmlns="http://www.w3.org/2000/svg" xmlns:xlink="http://www.w3.org/1999/xlink" x="0px" y="0px"
	 viewBox="0 0 170.9 166.9" style="enable-background:new 0 0 170.9 166.9;" xml:space="preserve">
<style type="text/css">
	.st0{fill:#F26337;}
	.st1{fill:#FFFFFF;}
	.st2{fill:#252E3C;}
</style>
<g>
	<rect y="64.3" class="st0" width="115.4" height="102.6"/>
	<g>
		<path class="st1" d="M57.7,120.3c-6.6,0-12-5.4-12-12c0-6.6,5.4-12,12-12c6.6,0,12,5.4,12,12C69.7,115,64.3,120.3,57.7,120.3z
			 M57.7,102.9c-3,0-5.5,2.4-5.5,5.5s2.4,5.5,5.5,5.5c3,0,5.4-2.4,5.4-5.5S60.7,102.9,57.7,102.9z"/>
		<rect x="54.4" y="117.1" class="st1" width="6.5" height="14.6"/>
	</g>
	<rect y="80.3" class="st2" width="115.4" height="6.5"/>
	<rect y="144.4" class="st2" width="115.4" height="6.5"/>
	<path class="st2" d="M170.9,64.3h-6.5V39.9c0-8.9-3.5-17.3-9.8-23.6c-6.3-6.3-14.7-9.8-23.6-9.8c-8.9,0-17.3,3.5-23.6,9.8
		c-6.3,6.3-9.8,14.7-9.8,23.6v24.4h-6.5V39.9c0-10.7,4.2-20.7,11.7-28.2C110.3,4.2,120.3,0,131,0c10.7,0,20.7,4.2,28.2,11.7
		c7.5,7.5,11.7,17.6,11.7,28.2V64.3z"/>
</g>
</svg>
