<?xml version="1.0" encoding="utf-8"?>
<!-- Generator: Adobe Illustrator 25.2.1, SVG Export Plug-In . SVG Version: 6.00 Build 0)  -->
<svg version="1.1" id="Layer_1" xmlns="http://www.w3.org/2000/svg" xmlns:xlink="http://www.w3.org/1999/xlink" x="0px" y="0px"
	 viewBox="0 0 87.7 98.9" style="enable-background:new 0 0 87.7 98.9;" xml:space="preserve">
<style type="text/css">
	.st0{fill:url(#SVGID_1_);}
	.st1{fill:url(#SVGID_2_);}
</style>
<g>
	<linearGradient id="SVGID_1_" gradientUnits="userSpaceOnUse" x1="0" y1="49.4375" x2="87.7" y2="49.4375">
		<stop  offset="0.3" style="stop-color:#3E863D"/>
		<stop  offset="0.5" style="stop-color:#55934F"/>
		<stop  offset="0.8" style="stop-color:#5AAD45"/>
	</linearGradient>
	<path class="st0" d="M43.9,98.9c-1.3,0-2.6-0.3-3.8-1L28,90.7c-1.8-1-0.9-1.4-0.3-1.6c2.4-0.8,2.9-1,5.5-2.5
		c0.3-0.2,0.6-0.1,0.9,0.1l9.3,5.5c0.3,0.2,0.8,0.2,1.1,0l36.2-20.9c0.3-0.2,0.6-0.6,0.6-1V28.5c0-0.4-0.2-0.8-0.6-1L44.4,6.6
		c-0.3-0.2-0.8-0.2-1.1,0L7.1,27.5c-0.4,0.2-0.6,0.6-0.6,1v41.8c0,0.4,0.2,0.8,0.6,1L17,77c5.4,2.7,8.7-0.5,8.7-3.7V32.1
		c0-0.6,0.5-1,1.1-1h4.6c0.6,0,1,0.5,1,1v41.3c0,7.2-3.9,11.3-10.7,11.3c-2.1,0-3.7,0-8.4-2.3l-9.5-5.5C1.5,75.5,0,73,0,70.3V28.5
		c0-2.7,1.5-5.3,3.8-6.6L40.1,1c2.3-1.3,5.3-1.3,7.6,0l36.2,20.9c2.3,1.4,3.8,3.9,3.8,6.6v41.8c0,2.7-1.5,5.2-3.8,6.6L47.7,97.8
		C46.5,98.6,45.2,98.9,43.9,98.9"/>
	<linearGradient id="SVGID_2_" gradientUnits="userSpaceOnUse" x1="35.9" y1="50.025" x2="73.1" y2="50.025">
		<stop  offset="0.3" style="stop-color:#3E863D"/>
		<stop  offset="0.5" style="stop-color:#55934F"/>
		<stop  offset="0.8" style="stop-color:#5AAD45"/>
	</linearGradient>
	<path class="st1" d="M55.1,70.1c-15.9,0-19.2-7.3-19.2-13.4c0-0.6,0.5-1,1-1h4.7c0.5,0,1,0.4,1,0.9c0.7,4.8,2.8,7.2,12.4,7.2
		c7.6,0,10.9-1.7,10.9-5.8c0-2.3-0.9-4.1-12.8-5.2c-9.9-1-16.1-3.2-16.1-11.1C37,34.4,43.2,30,53.5,30c11.6,0,17.4,4,18.1,12.7
		c0,0.3-0.1,0.6-0.3,0.8c-0.1,0.2-0.4,0.3-0.7,0.3h-4.7c-0.5,0-0.9-0.3-1-0.8c-1.1-5-3.9-6.6-11.3-6.6c-8.3,0-9.3,2.9-9.3,5.1
		c0,2.6,1.1,3.4,12.4,4.9c11.1,1.5,16.4,3.6,16.4,11.4S66.5,70.1,55.1,70.1"/>
</g>
</svg>
