<?xml version="1.0" encoding="utf-8"?>
<!-- Generator: Adobe Illustrator 25.2.1, SVG Export Plug-In . SVG Version: 6.00 Build 0)  -->
<svg version="1.1" id="Layer_1" xmlns="http://www.w3.org/2000/svg" xmlns:xlink="http://www.w3.org/1999/xlink" x="0px" y="0px"
	 viewBox="0 0 133.9 139.7" style="enable-background:new 0 0 133.9 139.7;" xml:space="preserve">
<style type="text/css">
	.st0{fill:#242D3C;}
	.st1{fill:#43D3E8;}
	.st2{fill:#FFFFFF;}
</style>
<g>
	<g>
		<polygon class="st0" points="133.9,129.6 114.1,129.6 114.1,124.5 128.8,124.5 128.8,78.7 133.9,78.7 		"/>
		<path class="st0" d="M126.8,139.7h-15.2V29.4l7.6-7.6l7.6,7.6V139.7z M116.6,134.6h5.1V31.5l-2.5-2.5l-2.5,2.5V134.6z"/>
		<rect x="114.1" y="76.2" class="st0" width="10.1" height="5.1"/>
		<rect x="116.6" y="20.3" class="st0" width="5.1" height="5.1"/>
	</g>
	<polygon class="st1" points="12.7,127 12.7,15.2 0,15.2 0,139.7 88.7,139.7 88.7,127 	"/>
	<g>
		<path class="st0" d="M106.5,129.6H10.1V0h74.6l21.8,21.8V129.6z M15.2,124.5h86.2V23.9L82.6,5.1H15.2V124.5z"/>
		<polygon class="st0" points="103.9,25.4 81.1,25.4 81.1,2.5 86.2,2.5 86.2,20.3 103.9,20.3 		"/>
	</g>
	<g>
		<rect x="25.4" y="89.5" class="st0" width="65.9" height="5.1"/>
		<rect x="25.4" y="99.4" class="st0" width="65.9" height="5.1"/>
		<rect x="25.4" y="109.3" class="st0" width="65.9" height="5.1"/>
	</g>
	<rect x="25.4" y="20.3" class="st0" width="33" height="5.1"/>
	<g>
		<rect x="25.4" y="32.7" class="st1" width="65.9" height="49.4"/>
		<path class="st0" d="M25.4,32.7v49.4h65.9V32.7H25.4z M86.2,77.1H30.4V37.8h55.8V77.1z"/>
	</g>
	<g>
		<path class="st2" d="M49.4,46.6v21.8h-5l-2.9-9.9v9.9h-4.7V46.6h4.7l3.2,9.8v-9.8H49.4z"/>
		<path class="st2" d="M51.6,46.6h4.2c2.7,0,4.6,0.1,5.5,0.4s1.7,0.7,2.2,1.2c0.5,0.6,0.8,1.2,0.9,1.9s0.2,2.1,0.2,4.1v7.6
			c0,2-0.1,3.3-0.3,3.9c-0.2,0.7-0.5,1.2-1,1.5s-1,0.6-1.7,0.8c-0.7,0.1-1.7,0.2-3,0.2h-7.1V46.6z M57.3,50.3v14.3
			c0.8,0,1.3-0.2,1.5-0.5c0.2-0.3,0.3-1.2,0.3-2.7V53c0-1,0-1.6-0.1-1.9c-0.1-0.3-0.2-0.5-0.4-0.6C58.3,50.3,57.9,50.3,57.3,50.3z"
			/>
		<path class="st2" d="M76.7,46.6l3.2,21.8h-5.8l-0.3-3.9h-2l-0.3,3.9h-5.9l2.9-21.8H76.7z M73.7,60.6c-0.3-2.5-0.6-5.5-0.9-9.1
			c-0.6,4.2-0.9,7.2-1.1,9.1H73.7z"/>
	</g>
</g>
</svg>
