<?xml version="1.0" encoding="utf-8"?>
<!-- Generator: Adobe Illustrator 25.2.1, SVG Export Plug-In . SVG Version: 6.00 Build 0)  -->
<svg version="1.1" id="Layer_1" xmlns="http://www.w3.org/2000/svg" xmlns:xlink="http://www.w3.org/1999/xlink" x="0px" y="0px"
	 viewBox="0 0 192 157.9" style="enable-background:new 0 0 192 157.9;" xml:space="preserve">
<style type="text/css">
	.st0{fill:#252E3C;}
	.st1{fill:#59C8DE;}
</style>
<g>
	<g>
		<path class="st0" d="M147.3,27H41.6V0h105.7V27z M47.8,20.8h93.4V6.1H47.8V20.8z"/>
		<g>
			<rect x="53.8" y="10.4" class="st0" width="6.1" height="6.1"/>
			<rect x="66.1" y="10.4" class="st0" width="6.1" height="6.1"/>
			<rect x="78.4" y="10.4" class="st0" width="6.1" height="6.1"/>
		</g>
		<path class="st0" d="M126.9,157.9l-25.4-25.4H41.6V20.8h105.7v111.7h-20.5V157.9z M47.8,126.5H104l16.7,16.7v-16.7h20.5V27H47.8
			V126.5z"/>
		<rect x="53.8" y="33" class="st1" width="81.3" height="87.4"/>
		<g>
			<rect x="65.1" y="45.6" class="st0" width="58.6" height="6.1"/>
			<rect x="65.1" y="59.6" class="st0" width="58.6" height="6.1"/>
		</g>
		<g>
			<rect x="65.1" y="88.4" class="st0" width="58.6" height="6.1"/>
			<rect x="65.1" y="102.4" class="st0" width="29.3" height="6.1"/>
		</g>
	</g>
	<g>
		<rect y="74.4" class="st0" width="156.8" height="6.1"/>
		<rect x="5.7" y="59.9" class="st0" width="6.1" height="17.5"/>
		<rect x="29.1" y="59.9" class="st0" width="6.1" height="17.5"/>
		<rect x="17.4" y="67.2" class="st0" width="6.1" height="10.2"/>
		<path class="st0" d="M172.8,96.6c-10.6,0-19.2-8.6-19.2-19.2s8.6-19.2,19.2-19.2c10.6,0,19.2,8.6,19.2,19.2S183.4,96.6,172.8,96.6
			z M172.8,64.4c-7.2,0-13,5.8-13,13c0,7.2,5.8,13,13,13c7.2,0,13-5.8,13-13C185.9,70.3,180,64.4,172.8,64.4z"/>
	</g>
</g>
</svg>
