<?xml version="1.0" encoding="utf-8"?>
<!-- Generator: Adobe Illustrator 25.2.1, SVG Export Plug-In . SVG Version: 6.00 Build 0)  -->
<svg version="1.1" id="Layer_1" xmlns="http://www.w3.org/2000/svg" xmlns:xlink="http://www.w3.org/1999/xlink" x="0px" y="0px"
	 viewBox="0 0 164.3 173" style="enable-background:new 0 0 164.3 173;" xml:space="preserve">
<style type="text/css">
	.st0{fill:#252E3C;}
	.st1{fill:#F26337;}
	.st2{fill:#FFFFFF;}
</style>
<g>
	<g>
		<path class="st0" d="M164.3,26.3H0V0h164.3V26.3z M6.6,19.7h151.1V6.6H6.6V19.7z"/>
		<g>
			<rect x="15.8" y="9.9" class="st0" width="6.6" height="6.6"/>
			<rect x="28.9" y="9.9" class="st0" width="6.6" height="6.6"/>
			<rect x="42.1" y="9.9" class="st0" width="6.6" height="6.6"/>
		</g>
		<polygon class="st0" points="164.3,137.5 104,137.5 104,131 157.7,131 157.7,78.9 164.3,78.9 		"/>
		<polygon class="st0" points="60.2,137.5 0,137.5 0,99.3 28.5,70.8 49.8,92.1 45.1,96.7 28.5,80.1 6.6,102.1 6.6,131 60.2,131 		
			"/>
		<polygon class="st0" points="135.7,86.4 114.5,65.2 119.1,60.5 135.7,77.1 157.7,55.2 157.7,26.3 6.6,26.3 6.6,78.4 0,78.4 
			0,19.7 164.3,19.7 164.3,57.9 163.3,58.9 		"/>
	</g>
	<g>
		<path class="st1" d="M110.4,78.6c0,15.6-12.7,28.3-28.3,28.3c-15.6,0-28.3-12.7-28.3-28.3c0-15.6,12.7-28.3,28.3-28.3
			C97.7,50.4,110.4,63,110.4,78.6z"/>
		<polygon class="st2" points="49.8,96.7 45.1,92.1 72.7,64.5 91.6,83.4 114.5,60.5 119.1,65.2 91.6,92.7 72.7,73.8 		"/>
		<g>
			<path class="st0" d="M82.1,120c-22.8,0-41.4-18.6-41.4-41.4c0-22.8,18.6-41.4,41.4-41.4c22.8,0,41.4,18.6,41.4,41.4
				C123.5,101.5,105,120,82.1,120z M82.1,43.8c-19.2,0-34.8,15.6-34.8,34.8c0,19.2,15.6,34.8,34.8,34.8c19.2,0,34.8-15.6,34.8-34.8
				C117,59.4,101.3,43.8,82.1,43.8z"/>
			<rect x="78.8" y="116.7" class="st0" width="6.6" height="17.5"/>
			<path class="st0" d="M82.1,173c-2.9,0-5.7-1.1-7.7-3.2c-2.1-2.1-3.2-4.8-3.2-7.7V131H93v31.1c0,2.9-1.1,5.6-3.2,7.7
				C87.8,171.9,85,173,82.1,173z M77.8,137.5v24.5c0,1.2,0.5,2.2,1.3,3.1c1.6,1.6,4.5,1.6,6.1,0c0.8-0.8,1.3-1.9,1.3-3.1v-24.5H77.8
				z"/>
		</g>
	</g>
</g>
</svg>
