<svg id="Layer_1" data-name="Layer 1" xmlns="http://www.w3.org/2000/svg" xmlns:xlink="http://www.w3.org/1999/xlink" viewBox="0 0 100 100"><defs><style>.cls-1{fill:url(#radial-gradient);}.cls-2{fill:#252e3c;}.cls-3{fill:#f26337;}</style><radialGradient id="radial-gradient" cx="50" cy="50" r="50" gradientUnits="userSpaceOnUse"><stop offset="0" stop-color="#f8e9ab"/><stop offset="1" stop-color="#ffd463"/></radialGradient></defs><circle class="cls-1" cx="50" cy="50" r="50"/><polygon class="cls-2" points="52.8 62.4 47.2 62.4 47.2 48 49.1 48 49.1 60.5 50.9 60.5 50.9 48 52.8 48 52.8 62.4"/><path class="cls-3" d="M61.7,58.2H38.3V55.8a4.3,4.3,0,0,1,1.3-2.9,3.8,3.8,0,0,1,2.9-1.2H57.6a4.1,4.1,0,0,1,4.1,4.1v2.4Z"/><rect class="cls-2" x="49" y="61.5" width="1.9" height="9.51"/><path class="cls-2" d="M62.6,71H60.7a3.1,3.1,0,0,0-3.1-3.1H42.4a3.1,3.1,0,0,0-2.2.9,2.9,2.9,0,0,0-.9,2.2H37.4a5.2,5.2,0,0,1,1.4-3.6,5.5,5.5,0,0,1,3.6-1.5H57.6a5.3,5.3,0,0,1,3.6,1.5A5.2,5.2,0,0,1,62.6,71Z"/><path class="cls-2" d="M50,78a2.9,2.9,0,0,1,0-5.7A2.9,2.9,0,1,1,50,78Zm0-3.7a.9.9,0,1,0,.9.9A.9.9,0,0,0,50,74.3Z"/><path class="cls-2" d="M38.3,78a2.9,2.9,0,1,1,2.9-2.9A2.8,2.8,0,0,1,38.3,78Zm0-3.7a.9.9,0,1,0,0,1.8.9.9,0,1,0,0-1.8Z"/><path class="cls-2" d="M61.7,78a2.9,2.9,0,1,1,2.9-2.9A3,3,0,0,1,61.7,78Zm0-3.7a.9.9,0,1,0,.9.9A.9.9,0,0,0,61.7,74.3Z"/><path class="cls-3" d="M58.8,26.6A4,4,0,0,0,57.4,24a4.2,4.2,0,0,0-2.8-1H45.4a4.2,4.2,0,0,0-2.8,1,4,4,0,0,0-1.4,2.6l-2.7,20a1.9,1.9,0,0,0,.3,1,1.3,1.3,0,0,0,1,.4H60.2a1.8,1.8,0,0,0,1-.4,1.2,1.2,0,0,0,.2-1Z"/><rect class="cls-2" x="49" y="42.3" width="1.9" height="1.91"/><rect class="cls-2" x="49" y="38.4" width="1.9" height="1.91"/><rect class="cls-2" x="49" y="34.5" width="1.9" height="1.95"/><rect class="cls-2" x="49" y="30.7" width="1.9" height="1.91"/><rect class="cls-2" x="49" y="26.8" width="1.9" height="1.91"/><path class="cls-2" d="M62.6,59.2H37.4V55.8a5.2,5.2,0,0,1,1.4-3.6,5.5,5.5,0,0,1,3.6-1.5H57.6a5.3,5.3,0,0,1,3.6,1.5,5.4,5.4,0,0,1,1.4,3.6Zm-23.3-2H60.7V55.8a2.9,2.9,0,0,0-.9-2.2,3.1,3.1,0,0,0-2.2-.9H42.4a3.1,3.1,0,0,0-2.2.9,2.9,2.9,0,0,0-.9,2.2Z"/><path class="cls-2" d="M60.2,49H39.8a2.6,2.6,0,0,1-1.7-.7,2.4,2.4,0,0,1-.5-1.8l2.7-20A4.4,4.4,0,0,1,42,23.3,5.5,5.5,0,0,1,45.4,22h9.2A5.3,5.3,0,0,1,58,23.3a4.4,4.4,0,0,1,1.7,3.2l2.7,20a2.4,2.4,0,0,1-.5,1.8A2.4,2.4,0,0,1,60.2,49ZM45.4,24a3.6,3.6,0,0,0-2.2.7,4.1,4.1,0,0,0-1,2.1l-2.7,20a.3.3,0,0,0,.1.2c0,.1.1.1.2.1H60.2s.2,0,.2-.1a.4.4,0,0,0,.1-.3l-2.7-20a3.1,3.1,0,0,0-3.2-2.8H45.4Z"/><path class="cls-2" d="M62.9,56.9H61.3v-2h1.6a2.8,2.8,0,0,0,2.2-.9,3,3,0,0,0,1-2.2V46H68v5.8a5.3,5.3,0,0,1-1.5,3.6A4.8,4.8,0,0,1,62.9,56.9Z"/><path class="cls-2" d="M70.5,46.8h-7v-2A3.5,3.5,0,0,1,67,41.3a3.5,3.5,0,0,1,3.5,3.5Zm-5.4-1.7h3.8v-.3A1.9,1.9,0,0,0,67,42.9a2,2,0,0,0-1.9,1.9Z"/><path class="cls-2" d="M38.8,56.9H37.1a4.9,4.9,0,0,1-3.6-1.5A5.3,5.3,0,0,1,32,51.8V46h1.9v5.8a3,3,0,0,0,1,2.2,2.8,2.8,0,0,0,2.2.9h1.6v2Z"/><path class="cls-2" d="M36.5,46.8h-7v-2A3.5,3.5,0,0,1,33,41.3a3.5,3.5,0,0,1,3.5,3.5Zm-5.4-1.7h3.8v-.3A2,2,0,0,0,33,42.9a1.9,1.9,0,0,0-1.9,1.9Z"/></svg>