<?xml version="1.0" encoding="utf-8"?>
<!-- Generator: Adobe Illustrator 16.0.0, SVG Export Plug-In . SVG Version: 6.00 Build 0)  -->
<!DOCTYPE svg PUBLIC "-//W3C//DTD SVG 1.1//EN" "http://www.w3.org/Graphics/SVG/1.1/DTD/svg11.dtd">
<svg version="1.1" id="Layer_1" xmlns="http://www.w3.org/2000/svg" xmlns:xlink="http://www.w3.org/1999/xlink" x="0px" y="0px"
	 width="200px" height="200px" viewBox="0 0 200 200" enable-background="new 0 0 200 200" xml:space="preserve">
<g>
	<g>
		<g>
			<path fill="#242D3C" d="M100.001,167.999l-66.396-38.334V52.997l66.396-38.334l66.394,38.335v76.669L100.001,167.999z
				 M40.748,125.541l59.254,34.211l59.25-34.209V57.122l-59.25-34.212l-59.254,34.21V125.541z"/>
			<polygon fill="#242D3C" points="100.001,95.455 35.391,58.151 38.962,51.966 100.001,87.207 161.038,51.967 164.609,58.153 			
				"/>
			<rect x="96.43" y="91.331" fill="#242D3C" width="7.143" height="72.545"/>
		</g>
	</g>
	<g>
		<polygon fill="#242D3C" points="8.45,132.481 0,127.604 8.45,122.725 11.267,127.604 		"/>
		<path fill="#242D3C" d="M17.8,125.575l-3.571-6.187l5.777-3.337l3.572,6.186L17.8,125.575z"/>
		<path fill="#242D3C" d="M182.2,125.575l-5.778-3.338l3.571-6.186l5.778,3.337L182.2,125.575z"/>
		<polygon fill="#242D3C" points="191.55,132.481 188.733,127.604 191.55,122.725 200,127.604 		"/>
		<path fill="#242D3C" d="M110.658,179.186l-3.571-6.187l5.777-3.335l3.571,6.186L110.658,179.186z M122.214,172.514l-3.571-6.186
			l5.778-3.337l3.571,6.186L122.214,172.514z M133.77,165.843l-3.571-6.186l5.778-3.338l3.571,6.187L133.77,165.843z
			 M145.325,159.17l-3.571-6.186l5.778-3.336l3.571,6.186L145.325,159.17z M156.882,152.497l-3.571-6.186l5.777-3.336l3.571,6.186
			L156.882,152.497z M168.438,145.826l-3.571-6.187l5.778-3.337l3.571,6.187L168.438,145.826z M179.993,139.154l-3.571-6.186
			l5.778-3.337l3.571,6.186L179.993,139.154z"/>
		<polygon fill="#242D3C" points="100.001,185.338 95.123,182.522 98.694,176.337 101.309,176.337 104.88,182.522 		"/>
		<path fill="#242D3C" d="M89.344,179.186l-5.778-3.336l3.571-6.186l5.778,3.335L89.344,179.186z M77.788,172.514l-5.779-3.337
			l3.572-6.186l5.778,3.337L77.788,172.514z M66.232,165.843l-5.778-3.337l3.571-6.187l5.778,3.338L66.232,165.843z M54.676,159.17
			l-5.778-3.336l3.571-6.186l5.778,3.336L54.676,159.17z M43.12,152.497l-5.779-3.336l3.572-6.186l5.778,3.336L43.12,152.497z
			 M31.563,145.826l-5.778-3.337l3.571-6.187l5.778,3.337L31.563,145.826z M20.005,139.154l-5.777-3.337l3.571-6.186l5.777,3.337
			L20.005,139.154z"/>
	</g>
	<polygon fill="#43D3E8" points="60.391,55.059 100,32.19 139.609,55.059 100.001,77.928 	"/>
</g>
</svg>
