<?xml version="1.0" encoding="utf-8"?>
<!-- Generator: Adobe Illustrator 16.0.0, SVG Export Plug-In . SVG Version: 6.00 Build 0)  -->
<!DOCTYPE svg PUBLIC "-//W3C//DTD SVG 1.1//EN" "http://www.w3.org/Graphics/SVG/1.1/DTD/svg11.dtd">
<svg version="1.1" id="Layer_1" xmlns="http://www.w3.org/2000/svg" xmlns:xlink="http://www.w3.org/1999/xlink" x="0px" y="0px"
	 width="200px" height="200px" viewBox="0 0 200 200" enable-background="new 0 0 200 200" xml:space="preserve">
<g>
	<g>
		<rect x="76.858" y="3.51" fill="#F96232" width="16.839" height="119.257"/>
		<rect x="104.68" y="16.471" fill="#43D3E8" width="12.629" height="43.224"/>
		<rect x="104.68" y="91.639" fill="#43D3E8" width="12.629" height="18.167"/>
		<path fill="#242D3C" d="M149.34,77.008h-7.018V9.343c0-0.363-0.087-1.061-0.667-1.639c-0.437-0.436-1.043-0.687-1.661-0.687
			L72.182,7.019c-0.441,0-1.09,0.121-1.667,0.695c-0.427,0.428-0.67,1.013-0.671,1.636v58.508h-7.018V9.343
			c0.004-2.496,0.975-4.837,2.733-6.598c1.786-1.773,4.134-2.744,6.623-2.744L139.994,0c2.462,0,4.874,0.998,6.618,2.737
			c1.758,1.754,2.728,4.101,2.728,6.606V77.008z"/>
		<rect x="66.335" y="119.256" fill="#242D3C" width="61.192" height="7.018"/>
		<g>
			<rect x="128.289" y="16.471" fill="#242D3C" width="7.018" height="18.166"/>
			<rect x="128.289" y="41.531" fill="#242D3C" width="7.018" height="18.164"/>
		</g>
	</g>
	<g>
		<path fill="#242D3C" d="M149.34,172.897h-7.018v-95.89c0-3.111-2.532-5.641-5.645-5.641c-3.111,0-5.642,2.53-5.642,5.641v49.266
			h-3.509c-8.764,0-15.894,7.13-15.894,15.894h-7.018c0-11.44,8.43-20.95,19.402-22.643V77.008c0-6.98,5.679-12.659,12.659-12.659
			c6.981,0,12.662,5.678,12.662,12.659V172.897z"/>
		<path fill="#242D3C" d="M89.244,172.897h-7.018v-8.089c-10.972-1.693-19.4-11.202-19.4-22.642v-19.402h7.018v19.402
			c0,8.764,7.128,15.893,15.891,15.893h3.509V172.897z"/>
		<path fill="#242D3C" d="M63.854,70.338L49.652,56.136c-2.393-2.393-3.71-5.574-3.706-8.957c0-3.377,1.316-6.557,3.706-8.946
			c2.388-2.391,5.565-3.708,8.945-3.708c0.008-0.001,0.009-0.001,0.015,0c3.377,0,6.556,1.317,8.945,3.709l1.257,1.254l-4.956,4.967
			l-1.261-1.258c-1.067-1.068-2.483-1.654-3.988-1.654c-0.001,0-0.003,0-0.004,0c0,0-0.001,0-0.003,0
			c-1.508,0-2.922,0.586-3.986,1.65c-1.065,1.066-1.651,2.482-1.651,3.99c-0.001,1.509,0.584,2.925,1.65,3.991l14.203,14.202
			L63.854,70.338z"/>
		<path fill="#242D3C" d="M66.335,89.668c-6.982,0-12.662-5.68-12.662-12.661s5.68-12.659,12.662-12.659
			c6.98,0,12.659,5.678,12.659,12.659S73.315,89.668,66.335,89.668z M66.335,71.367c-3.113,0-5.644,2.53-5.644,5.641
			s2.531,5.643,5.644,5.643c3.111,0,5.642-2.532,5.642-5.643S69.446,71.367,66.335,71.367z"/>
		<path fill="#242D3C" d="M66.335,107.97c-6.982,0-12.662-5.678-12.662-12.659c0-6.98,5.68-12.66,12.662-12.66
			c6.98,0,12.659,5.68,12.659,12.66C78.994,102.292,73.315,107.97,66.335,107.97z M66.335,89.668c-3.113,0-5.644,2.531-5.644,5.643
			s2.531,5.642,5.644,5.642c3.111,0,5.642-2.53,5.642-5.642S69.446,89.668,66.335,89.668z"/>
		<path fill="#242D3C" d="M66.335,126.273c-6.982,0-12.662-5.679-12.662-12.659c0-6.981,5.68-12.662,12.662-12.662
			c6.98,0,12.659,5.68,12.659,12.662C78.994,120.595,73.315,126.273,66.335,126.273z M66.335,107.97
			c-3.113,0-5.644,2.532-5.644,5.645c0,3.111,2.531,5.642,5.644,5.642c3.111,0,5.642-2.53,5.642-5.642
			C71.977,110.502,69.446,107.97,66.335,107.97z"/>
		<rect x="66.335" y="172.897" fill="#43D3E8" width="87.72" height="27.103"/>
	</g>
</g>
</svg>
