<?xml version="1.0" encoding="utf-8"?>
<!-- Generator: Adobe Illustrator 26.0.0, SVG Export Plug-In . SVG Version: 6.00 Build 0)  -->
<svg version="1.1"
	 id="svg3430" xmlns:cc="http://creativecommons.org/ns#" xmlns:dc="http://purl.org/dc/elements/1.1/" xmlns:rdf="http://www.w3.org/1999/02/22-rdf-syntax-ns#" xmlns:svg="http://www.w3.org/2000/svg"
	 xmlns="http://www.w3.org/2000/svg" xmlns:xlink="http://www.w3.org/1999/xlink" x="0px" y="0px" viewBox="0 0 500.5 238.1"
	 style="enable-background:new 0 0 500.5 238.1;" xml:space="preserve">
<style type="text/css">
	.st0{fill:#777BB3;}
</style>
<path id="path3486" class="st0" d="M82.6,153.4c15.1,0,26.3-2.8,33.5-8.3c7-5.4,11.9-14.8,14.5-27.9c2.4-12.3,1.5-20.8-2.7-25.4
	c-4.3-4.7-13.5-7.1-27.4-7.1H76.3L63,153.4H82.6z M3.7,238.1c-1.1,0-2.2-0.5-2.9-1.4c-0.7-0.9-1-2-0.8-3.1L35.5,51.5
	c0.3-1.8,1.9-3,3.7-3h76.3c24,0,41.8,6.5,53.1,19.4c11.3,12.9,14.8,31,10.4,53.7c-1.8,9.2-4.9,17.8-9.2,25.5
	c-4.3,7.7-10,14.8-16.9,21.2c-8.3,7.7-17.6,13.4-27.8,16.7c-10,3.3-22.9,4.9-38.2,4.9H55.9l-8.8,45.4c-0.3,1.8-1.9,3-3.7,3H3.7z"/>
<g id="g3492" transform="translate(311.583,116.3066)">
	<path id="path3494" class="st0" d="M-36.7,73.4c-1.1,0-2.2-0.5-2.9-1.4c-0.7-0.9-1-2-0.8-3.1l15.7-80.6c1.5-7.7,1.1-13.2-1-15.5
		c-1.3-1.4-5.3-3.8-17-3.8h-28.4L-90.8,70.3c-0.3,1.8-1.9,3-3.7,3h-39.4c-1.1,0-2.2-0.5-2.9-1.4c-0.7-0.9-1-2-0.8-3.1l35.4-182.2
		c0.3-1.8,1.9-3,3.7-3h39.4c1.1,0,2.2,0.5,2.9,1.4c0.7,0.9,1,2,0.8,3.1l-8.5,44h30.5c23.3,0,39,4.1,48.2,12.5
		c9.4,8.6,12.3,22.4,8.7,40.9L7,70.3c-0.3,1.8-1.9,3-3.7,3H-36.7z"/>
</g>
<g id="g3500" transform="translate(409.5498,145.3066)">
	<path id="path3502" class="st0" d="M-7.2,8.1c15.1,0,26.3-2.8,33.5-8.3c7-5.4,11.9-14.8,14.5-27.9c2.4-12.3,1.5-20.8-2.7-25.4
		c-4.3-4.7-13.5-7.1-27.4-7.1h-24.1L-26.8,8.1H-7.2z M-86,92.8c-1.1,0-2.2-0.5-2.9-1.4c-0.7-0.9-1-2-0.8-3.1l35.4-182.2
		c0.3-1.8,1.9-3,3.7-3h76.3c24,0,41.8,6.5,53.1,19.4c11.3,12.9,14.8,31,10.4,53.7C87.3-14.6,84.2-6,79.9,1.7
		C75.6,9.3,70,16.5,63,22.8c-8.3,7.7-17.6,13.4-27.8,16.7c-10,3.3-22.9,4.9-38.2,4.9h-30.9l-8.8,45.4c-0.3,1.8-1.9,3-3.7,3H-86z"/>
</g>
</svg>
