<?xml version="1.0" encoding="utf-8"?>
<!-- Generator: Adobe Illustrator 25.2.1, SVG Export Plug-In . SVG Version: 6.00 Build 0)  -->
<svg version="1.1" id="Layer_1" xmlns="http://www.w3.org/2000/svg" xmlns:xlink="http://www.w3.org/1999/xlink" x="0px" y="0px"
	 viewBox="0 0 184.7 165.8" style="enable-background:new 0 0 184.7 165.8;" xml:space="preserve">
<style type="text/css">
	.st0{fill:#59C8DE;}
	.st1{fill:#26303D;}
	.st2{fill:#FFFFFF;}
</style>
<g>
	<g>
		<g>
			<path class="st0" d="M103.1,119.1l9.2-3.5c0.7-2.8,1.8-5.4,3.2-7.8l-4-9l6.1-6.1l9,4c2.4-1.4,5-2.5,7.8-3.2l3.5-9.2h7.1V33H53
				v94.1h50.1V119.1z"/>
			<g>
				<path class="st1" d="M148.8,165.8h-13.1L132,156c-1.9-0.6-3.7-1.4-5.5-2.3L117,158l-9.3-9.3l4.3-9.5c-0.9-1.7-1.7-3.6-2.3-5.5
					l-9.8-3.7v-13.1l9.8-3.7c0.6-1.9,1.4-3.7,2.3-5.5l-4.3-9.5l9.3-9.3l9.5,4.3c1.7-0.9,3.6-1.7,5.5-2.3l3.7-9.8h13.2l3.7,9.8
					c1.9,0.6,3.7,1.4,5.5,2.3l9.5-4.3l9.3,9.3l-4.3,9.5c0.9,1.8,1.7,3.6,2.3,5.5l9.8,3.7V130l-9.8,3.7c-0.6,1.9-1.4,3.7-2.3,5.5
					l4.3,9.5l-9.3,9.3l-9.5-4.3c-1.8,0.9-3.6,1.7-5.5,2.3L148.8,165.8z M140.1,159.3h4.2l3.3-8.7l1.6-0.4c2.4-0.6,4.8-1.6,7-2.9
					l1.4-0.8l8.5,3.8l3-3l-3.8-8.5l0.8-1.4c1.3-2.2,2.3-4.5,2.9-6.9l0.4-1.6l8.7-3.3v-4.2l-8.7-3.3l-0.4-1.6
					c-0.6-2.4-1.6-4.7-2.9-6.9l-0.8-1.4l3.8-8.5l-3-3l-8.5,3.8l-1.4-0.8c-2.2-1.3-4.5-2.2-7-2.9l-1.6-0.4l-3.3-8.7h-4.2l-3.3,8.7
					l-1.6,0.4c-2.4,0.6-4.8,1.6-6.9,2.9l-1.4,0.8l-8.5-3.8l-3,3l3.8,8.5l-0.8,1.4c-1.3,2.2-2.2,4.5-2.9,7L115,118l-8.7,3.3v4.2
					l8.7,3.3l0.4,1.6c0.6,2.4,1.6,4.8,2.9,6.9l0.8,1.4l-3.8,8.5l3,3l8.5-3.8l1.4,0.8c2.2,1.3,4.5,2.2,6.9,2.9l1.6,0.4L140.1,159.3z"
					/>
				<path class="st1" d="M142.2,141.6c-10,0-18.2-8.2-18.2-18.2s8.2-18.2,18.2-18.2s18.2,8.2,18.2,18.2
					C160.5,133.5,152.3,141.6,142.2,141.6z M142.2,111.7c-6.5,0-11.7,5.3-11.7,11.7c0,6.5,5.3,11.7,11.7,11.7
					c6.5,0,11.7-5.3,11.7-11.7C154,116.9,148.7,111.7,142.2,111.7z"/>
			</g>
			<g>
				<rect y="77.5" class="st1" width="16.6" height="6.5"/>
				<rect x="16.6" y="99.7" class="st1" width="17.8" height="6.5"/>
				<rect x="16.6" y="110.8" class="st1" width="17.8" height="6.5"/>
				<rect x="16.6" y="144.1" class="st1" width="17.8" height="6.5"/>
				<rect x="16.6" y="155.2" class="st1" width="17.8" height="6.5"/>
				<rect y="88.6" class="st1" width="34.4" height="6.5"/>
				<rect y="121.9" class="st1" width="16.6" height="6.5"/>
				<rect x="16.6" y="55.3" class="st1" width="17.8" height="6.5"/>
				<rect x="16.6" y="66.4" class="st1" width="17.8" height="6.5"/>
				<rect y="44.2" class="st1" width="34.4" height="6.5"/>
				<rect y="133" class="st1" width="34.4" height="6.5"/>
				<rect x="41.4" y="144.1" class="st1" width="17.8" height="6.5"/>
				<rect x="41.4" y="155.2" class="st1" width="34.4" height="6.5"/>
			</g>
			<g>
				<path class="st1" d="M157.3,27.2H40.8V0h116.6L157.3,27.2L157.3,27.2z M47.2,20.7h103.6V6.5H47.2V20.7z"/>
				<g>
					<rect x="53.7" y="10.4" class="st1" width="6.5" height="6.5"/>
					<rect x="66.7" y="10.4" class="st1" width="6.5" height="6.5"/>
					<rect x="79.6" y="10.4" class="st1" width="6.5" height="6.5"/>
				</g>
				<polygon class="st1" points="95.4,139.5 40.8,139.5 40.8,20.7 157.3,20.7 157.3,78.9 150.9,78.9 150.9,27.2 47.2,27.2 47.2,133 
					95.4,133 				"/>
			</g>
		</g>
	</g>
</g>
<g transform="translate(-44.63166,-445.54704)">
	<g transform="matrix(2,0,0,2,-140.15749,-493.22304)">
		<path class="st2" d="M124.3,492.5h6.1c1.8,0,3.1,0.5,3.9,1.5c0.8,1,1.1,2.4,0.8,4.2c-0.1,0.8-0.3,1.6-0.7,2.4
			c-0.3,0.8-0.8,1.5-1.5,2.1c-0.8,0.8-1.6,1.3-2.4,1.5c-0.9,0.2-1.8,0.3-2.7,0.3H125l-0.9,4.3H121L124.3,492.5L124.3,492.5
			 M126.9,495.1l-1.4,6.8c0.1,0,0.2,0,0.3,0c0.1,0,0.2,0,0.3,0c1.5,0,2.7-0.1,3.6-0.4c1-0.3,1.6-1.4,2-3.3c0.3-1.6,0-2.5-0.8-2.8
			c-0.8-0.2-1.8-0.4-3-0.3c-0.2,0-0.4,0-0.5,0C127.2,495.1,127.1,495.1,126.9,495.1L126.9,495.1"/>
		<path class="st2" d="M138.7,488.1h3.1l-0.9,4.3h2.8c1.5,0,2.7,0.3,3.5,1c0.8,0.6,1,1.8,0.7,3.5l-1.5,7.6h-3.2l1.5-7.2
			c0.2-0.8,0.1-1.3-0.1-1.6c-0.2-0.3-0.8-0.5-1.6-0.5l-2.5,0l-1.9,9.3h-3.1L138.7,488.1L138.7,488.1"/>
		<path class="st2" d="M151.2,492.5h6.1c1.8,0,3.1,0.5,3.9,1.5s1.1,2.4,0.8,4.2c-0.1,0.8-0.3,1.6-0.7,2.4c-0.3,0.8-0.8,1.5-1.5,2.1
			c-0.8,0.8-1.6,1.3-2.4,1.5c-0.9,0.2-1.8,0.3-2.7,0.3H152l-0.9,4.3H148L151.2,492.5L151.2,492.5 M153.9,495.1l-1.4,6.8
			c0.1,0,0.2,0,0.3,0c0.1,0,0.2,0,0.3,0c1.5,0,2.7-0.1,3.6-0.4c1-0.3,1.6-1.4,2-3.3c0.3-1.6,0-2.5-0.8-2.8c-0.8-0.2-1.8-0.4-3-0.3
			c-0.2,0-0.4,0-0.5,0C154.2,495.1,154,495.1,153.9,495.1L153.9,495.1"/>
	</g>
</g>
</svg>
