<?xml version="1.0" encoding="utf-8"?>
<!-- Generator: Adobe Illustrator 25.2.1, SVG Export Plug-In . SVG Version: 6.00 Build 0)  -->
<svg version="1.1" id="Layer_1" xmlns="http://www.w3.org/2000/svg" xmlns:xlink="http://www.w3.org/1999/xlink" x="0px" y="0px"
	 viewBox="0 0 168.3 189.9" style="enable-background:new 0 0 168.3 189.9;" xml:space="preserve">
<style type="text/css">
	.st0{fill:#59C8DE;}
	.st1{fill:#26303D;}
	.st2{fill:#FFFFFF;}
</style>
<g>
	<g>
		<g>
			<path class="st0" d="M168.3,146.2v-7.1L158,137c-0.4-2.7-1.2-5.5-2.1-8l7.9-6.9l-3.6-6.2l-10,3.4c-1.7-2.1-3.7-4.1-5.9-5.9
				l3.4-10l-6.2-3.6l-6.9,7.9c-2.5-0.9-5.1-1.7-7.9-2.1l-2.1-10.3h-7.1l-2.1,10.3c-2.7,0.4-5.5,1.2-8,2.1l-6.9-7.9l-6.2,3.6
				l3.5,10.1c-2.1,1.7-4.1,3.7-5.8,5.8l-10-3.4l-3.6,6.2l7.9,6.9c-0.9,2.5-1.7,5.1-2.1,7.9L73.9,139v7.1l10.3,2.1
				c0.4,2.7,1.2,5.5,2.1,8l-7.9,6.9l3.6,6.2l10-3.4c1.7,2.1,3.7,4.1,5.8,5.8l-3.4,10l6.2,3.6l6.9-7.9c2.5,0.9,5.1,1.7,8,2.1
				l2.1,10.3h7.1l2.1-10.3c2.7-0.4,5.5-1.2,8-2.1l6.9,7.9l6.2-3.6l-3.4-10c2.2-1.7,4.1-3.7,5.9-5.9l10,3.4l3.6-6.2l-7.9-6.9
				c0.9-2.5,1.7-5.1,2.1-8L168.3,146.2z M121,162.3c-10.8,0-19.6-8.8-19.6-19.6c0-10.8,8.8-19.6,19.6-19.6
				c10.9,0,19.6,8.8,19.6,19.6C140.7,153.5,132,162.3,121,162.3z"/>
			<path class="st1" d="M121,166c-12.8,0-23.3-10.5-23.3-23.4c0-12.8,10.5-23.3,23.3-23.3s23.3,10.5,23.3,23.3
				C144.4,155.5,134,166,121,166z"/>
			<g>
				<g>
					<rect x="21.7" y="42.3" class="st1" width="20.9" height="7.4"/>
					<rect x="42.7" y="68.8" class="st1" width="22.5" height="7.4"/>
					<rect x="42.7" y="82.1" class="st1" width="22.5" height="7.4"/>
					<rect x="42.7" y="121.9" class="st1" width="22.5" height="7.4"/>
					<rect x="42.7" y="135.2" class="st1" width="22.5" height="7.4"/>
					<rect x="21.7" y="55.6" class="st1" width="43.3" height="7.4"/>
					<rect x="21.7" y="95.4" class="st1" width="20.9" height="7.4"/>
					<rect x="21.7" y="108.6" class="st1" width="43.3" height="7.4"/>
					<rect x="73.9" y="68.8" class="st1" width="22.5" height="7.4"/>
					<rect x="73.9" y="82.1" class="st1" width="43.3" height="7.4"/>
					<rect x="73.9" y="55.6" class="st1" width="22.5" height="7.4"/>
				</g>
				<path class="st1" d="M138.9,30.5H0V0h138.9L138.9,30.5L138.9,30.5z M7.4,23.2h124.3V7.4H7.4V23.2z"/>
				<g>
					<rect x="14.6" y="11.6" class="st1" width="7.4" height="7.4"/>
					<rect x="29.2" y="11.6" class="st1" width="7.4" height="7.4"/>
					<rect x="43.8" y="11.6" class="st1" width="7.4" height="7.4"/>
				</g>
				<polygon class="st1" points="65,161.6 0,161.6 0,23.2 138.9,23.2 138.9,89.4 131.5,89.4 131.5,30.5 7.4,30.5 7.4,154.2 
					65,154.2 				"/>
			</g>
		</g>
	</g>
	<g transform="translate(-44.63166,-445.54704)">
		<g transform="matrix(2,0,0,2,-140.15749,-493.22304)">
			<path class="st2" d="M145.5,538.1h2.6c0.8,0,1.3,0.2,1.7,0.7c0.3,0.4,0.5,1,0.3,1.8c0,0.3-0.1,0.7-0.3,1
				c-0.2,0.3-0.4,0.6-0.6,0.9c-0.3,0.3-0.7,0.6-1.1,0.6s-0.8,0.1-1.2,0.1h-1.2l-0.4,1.9h-1.4L145.5,538.1L145.5,538.1 M146.6,539.3
				l-0.6,3c0,0,0.1,0,0.1,0c0,0,0.1,0,0.1,0c0.6,0,1.2-0.1,1.6-0.2c0.4-0.1,0.7-0.6,0.8-1.4c0.1-0.7,0-1.1-0.4-1.2
				c-0.3-0.1-0.8-0.2-1.3-0.1c-0.1,0-0.2,0-0.2,0C146.7,539.3,146.7,539.3,146.6,539.3L146.6,539.3"/>
			<path class="st2" d="M151.7,536.3h1.4l-0.4,1.9h1.2c0.7,0,1.2,0.2,1.5,0.4c0.3,0.3,0.4,0.8,0.3,1.5l-0.7,3.3h-1.4l0.6-3.1
				c0.1-0.3,0-0.6-0.1-0.7s-0.3-0.2-0.7-0.2l-1.1,0l-0.8,4h-1.4L151.7,536.3L151.7,536.3"/>
			<path class="st2" d="M157.1,538.1h2.6c0.8,0,1.3,0.2,1.7,0.7s0.5,1,0.3,1.8c0,0.3-0.1,0.7-0.3,1c-0.2,0.3-0.4,0.6-0.6,0.9
				c-0.3,0.3-0.7,0.6-1.1,0.6s-0.8,0.1-1.2,0.1h-1.2l-0.4,1.9h-1.4L157.1,538.1L157.1,538.1 M158.3,539.3l-0.6,3c0,0,0.1,0,0.1,0
				c0,0,0.1,0,0.1,0c0.6,0,1.2-0.1,1.6-0.2c0.4-0.1,0.7-0.6,0.8-1.4c0.1-0.7,0-1.1-0.4-1.2c-0.3-0.1-0.8-0.2-1.3-0.1
				c-0.1,0-0.2,0-0.2,0C158.4,539.3,158.3,539.3,158.3,539.3L158.3,539.3"/>
		</g>
	</g>
</g>
</svg>
