<?xml version="1.0" encoding="utf-8"?>
<!-- Generator: Adobe Illustrator 25.2.1, SVG Export Plug-In . SVG Version: 6.00 Build 0)  -->
<svg version="1.1" id="Layer_1" xmlns="http://www.w3.org/2000/svg" xmlns:xlink="http://www.w3.org/1999/xlink" x="0px" y="0px"
	 viewBox="0 0 177 177" style="enable-background:new 0 0 177 177;" xml:space="preserve">
<style type="text/css">
	.st0{fill:#F26337;}
	.st1{fill:#FFFFFF;}
	.st2{fill:#252E3C;}
</style>
<g>
	<g>
		<circle class="st0" cx="75.4" cy="75.4" r="42.1"/>
		<path class="st1" d="M48,75.4h-6.7c0-9.1,3.5-17.6,10-24.1L56,56C50.8,61.2,48,68.1,48,75.4z"/>
		<g>
			<path class="st1" d="M77.9,94.2h-5.2c-3,0-5.8-1.2-7.9-3.3c-2.1-2.1-3.3-4.9-3.3-7.9h6.7c0,1.2,0.5,2.3,1.3,3.1
				c0.8,0.8,1.9,1.3,3.1,1.3h5.2c1.2,0,2.3-0.5,3.1-1.3c0.8-0.8,1.3-2,1.3-3.1c0-1.2-0.5-2.3-1.3-3.1c-0.8-0.8-2-1.3-3.1-1.3h-5.2
				c-3,0-5.8-1.2-7.9-3.2c-2.1-2.1-3.3-4.9-3.3-7.9c0-3,1.2-5.8,3.3-7.9c2.1-2.1,4.9-3.2,7.8-3.2h5.2c3,0,5.7,1.2,7.8,3.2
				c2.1,2.1,3.3,4.9,3.3,7.9h-6.7c0-1.2-0.5-2.3-1.3-3.1c-0.8-0.8-1.9-1.3-3.1-1.3h-5.2c-1.2,0-2.3,0.5-3.1,1.3
				c-0.8,0.8-1.3,1.9-1.3,3.1c0,1.2,0.5,2.3,1.3,3.1c0.8,0.8,1.9,1.3,3.1,1.3h5.2c3,0,5.8,1.2,7.9,3.3c2.1,2.1,3.3,4.9,3.3,7.8
				c0,3-1.2,5.8-3.2,7.9C83.7,93.1,80.9,94.2,77.9,94.2z"/>
			<rect x="72" y="52" class="st1" width="6.7" height="7.8"/>
			<rect x="72" y="90.9" class="st1" width="6.7" height="7.8"/>
		</g>
	</g>
	<g>
		<path class="st2" d="M75.4,132.5c-15.3,0-29.6-5.9-40.4-16.7C24.1,105,18.2,90.6,18.2,75.4c0-15.3,5.9-29.6,16.7-40.4
			c10.8-10.8,25.2-16.7,40.4-16.7c15.3,0,29.6,5.9,40.4,16.7c22.3,22.3,22.3,58.6,0,80.8C105,126.6,90.6,132.5,75.4,132.5z
			 M75.4,24.9c-13.5,0-26.2,5.3-35.7,14.8c-9.5,9.5-14.8,22.2-14.8,35.7c0,13.5,5.3,26.2,14.8,35.7c9.5,9.5,22.2,14.8,35.7,14.8
			c13.5,0,26.2-5.3,35.7-14.8c19.7-19.7,19.7-51.7,0-71.4C101.5,30.1,88.8,24.9,75.4,24.9z"/>
		
			<rect x="115.8" y="111.1" transform="matrix(0.7071 -0.7071 0.7071 0.7071 -49.3434 119.1244)" class="st2" width="6.7" height="16.1"/>
		<path class="st2" d="M162.9,177c-3.8,0-7.3-1.5-10-4.1l-40.4-40.4l19.9-19.9l40.4,40.4c2.7,2.7,4.1,6.2,4.1,10
			c0,3.8-1.5,7.3-4.1,10C170.2,175.5,166.7,177,162.9,177z M121.9,132.4l35.7,35.7c1.4,1.4,3.3,2.2,5.3,2.2c2,0,3.8-0.8,5.2-2.2
			c1.4-1.4,2.2-3.3,2.2-5.3c0-2-0.8-3.8-2.2-5.3l-35.7-35.7L121.9,132.4z"/>
	</g>
	<g>
		
			<rect x="22.5" y="20.5" transform="matrix(0.7071 -0.7071 0.7071 0.7071 -10.7188 25.8772)" class="st2" width="6.7" height="10.8"/>
		
			<rect x="45.2" y="5.3" transform="matrix(0.9239 -0.3825 0.3825 0.9239 -0.4015 19.3972)" class="st2" width="6.7" height="10.8"/>
		<rect x="72" y="0" class="st2" width="6.7" height="10.8"/>
		
			<rect x="96.8" y="7.4" transform="matrix(0.3828 -0.9238 0.9238 0.3828 53.1448 100.9627)" class="st2" width="10.8" height="6.7"/>
		
			<rect x="119.5" y="22.5" transform="matrix(0.7073 -0.7069 0.7069 0.7073 18.2463 95.8192)" class="st2" width="10.8" height="6.7"/>
		
			<rect x="134.6" y="45.2" transform="matrix(0.924 -0.3825 0.3825 0.924 -7.9337 57.2396)" class="st2" width="10.8" height="6.7"/>
		<rect x="139.9" y="72" class="st2" width="10.8" height="6.7"/>
		
			<rect x="7.4" y="43.2" transform="matrix(0.3827 -0.9239 0.9239 0.3827 -38.269 39.8801)" class="st2" width="6.7" height="10.8"/>
		<rect y="72" class="st2" width="10.8" height="6.7"/>
		<rect x="5.3" y="98.8" transform="matrix(0.924 -0.3825 0.3825 0.924 -38.2501 11.8619)" class="st2" width="10.8" height="6.7"/>
		
			<rect x="20.5" y="121.5" transform="matrix(0.7071 -0.7071 0.7071 0.7071 -80.6916 54.8619)" class="st2" width="10.8" height="6.7"/>
		
			<rect x="43.2" y="136.7" transform="matrix(0.3828 -0.9238 0.9238 0.3828 -99.3562 131.2855)" class="st2" width="10.8" height="6.7"/>
		<rect x="72" y="139.9" class="st2" width="6.7" height="10.8"/>
	</g>
</g>
</svg>
