<?xml version="1.0" encoding="utf-8"?>
<!-- Generator: Adobe Illustrator 25.2.1, SVG Export Plug-In . SVG Version: 6.00 Build 0)  -->
<svg version="1.1" id="Layer_1" xmlns="http://www.w3.org/2000/svg" xmlns:xlink="http://www.w3.org/1999/xlink" x="0px" y="0px"
	 viewBox="0 0 150.7 191.5" style="enable-background:new 0 0 150.7 191.5;" xml:space="preserve">
<style type="text/css">
	.st0{fill:#F26337;}
	.st1{fill:#FFFFFF;}
	.st2{fill:#252E3C;}
</style>
<g>
	<g>
		<path class="st0" d="M75.3,17.7c-31.8,0-57.5,25.8-57.5,57.5c0,24.4,15.2,45.3,36.7,53.6c1.3-7.2,7.7-12.7,15.2-12.7H81
			c7.6,0,13.9,5.5,15.2,12.7c21.5-8.4,36.7-29.2,36.7-53.6C132.9,43.5,107.1,17.7,75.3,17.7z"/>
		<g>
			<path class="st1" d="M78.9,99.7C78.8,99.7,78.8,99.7,78.9,99.7h-7.1c0,0,0,0,0,0c-3.7,0-7.2-1.4-9.8-4.1
				c-2.6-2.7-4.1-6.2-4.1-9.9h6.8c0,1.9,0.7,3.7,2.1,5c1.3,1.3,3.1,2.1,5,2.1c0,0,0,0,0,0h7c1.9,0.1,3.7-0.7,5.1-2.1
				c1.3-1.3,2-3.1,2-5c0-1.9-0.7-3.7-2.1-5c-1.3-1.3-3.1-2.1-5-2.1c0,0,0,0,0,0l-7,0c-3.7,0-7.2-1.5-9.9-4.1
				c-2.6-2.6-4.1-6.1-4.1-9.9c0-3.7,1.4-7.2,4.1-9.9c2.7-2.6,6.2-4.1,9.9-4.1c0,0,0,0,0,0h7c0,0,0,0,0,0c3.7,0,7.2,1.4,9.9,4.1
				c2.6,2.7,4.1,6.2,4.1,9.9l-6.8,0c0-1.9-0.7-3.7-2.1-5.1c-1.3-1.3-3.1-2-5-2c0,0,0,0,0,0h-7c0,0,0,0,0,0c-1.9,0-3.7,0.7-5,2.1
				c-1.3,1.3-2.1,3.1-2.1,5c0,1.9,0.7,3.7,2.1,5c1.3,1.3,3.1,2.1,5,2.1l7,0c0,0,0,0,0,0c3.7,0,7.2,1.5,9.9,4.1
				c2.6,2.7,4.1,6.3,4.1,9.9c0,3.6-1.4,7.1-4,9.8C86.1,98.3,82.6,99.7,78.9,99.7z"/>
			<rect x="71.9" y="45.8" class="st1" width="6.8" height="8.4"/>
			<rect x="71.9" y="96.3" class="st1" width="6.8" height="8.4"/>
		</g>
	</g>
	<g>
		<path class="st2" d="M81,191.5H69.7c-10.4,0-18.9-8.5-18.9-18.9v-40.9c0-10.4,8.5-18.9,18.9-18.9H81c10.4,0,18.9,8.5,18.9,18.9
			v40.9C99.9,183,91.4,191.5,81,191.5z M69.7,119.6c-6.7,0-12.1,5.4-12.1,12.1v40.9c0,6.7,5.4,12.1,12.1,12.1H81
			c6.7,0,12.1-5.4,12.1-12.1v-40.9c0-6.7-5.4-12.1-12.1-12.1H69.7z"/>
		<path class="st2" d="M80.1,132.4c0,2.6-2.1,4.8-4.8,4.8c-2.6,0-4.8-2.2-4.8-4.8c0-2.7,2.1-4.8,4.8-4.8
			C78,127.6,80.1,129.7,80.1,132.4z"/>
	</g>
	<path class="st2" d="M37.7,140.6c-2.1-1.2-4.1-2.5-6-3.9l4-5.6c1.8,1.3,3.6,2.4,5.5,3.5L37.7,140.6z M113,140.5l-3.4-5.9
		c1.9-1.1,3.7-2.3,5.5-3.5l4,5.6C117.1,138,115.1,139.3,113,140.5z M26.1,132.3c-1.8-1.6-3.5-3.2-5.2-4.9l4.9-4.7
		c1.5,1.6,3.1,3.1,4.7,4.5L26.1,132.3z M124.7,132.2l-4.5-5.2c1.6-1.4,3.2-2.9,4.7-4.5l5,4.7C128.2,128.9,126.5,130.6,124.7,132.2z
		 M16.2,121.9c-1.5-1.9-2.9-3.8-4.2-5.8l5.7-3.7c1.2,1.8,2.4,3.6,3.8,5.3L16.2,121.9z M134.6,121.8l-5.4-4.2
		c1.3-1.7,2.6-3.5,3.8-5.3l5.8,3.7C137.4,118,136,119.9,134.6,121.8z M8.4,109.9c-1.1-2.1-2.1-4.3-3-6.5l6.3-2.6
		c0.8,2,1.7,4,2.7,5.9L8.4,109.9z M142.3,109.8l-6.1-3.1c1-1.9,1.9-3.9,2.7-5.9l6.4,2.5C144.4,105.5,143.4,107.6,142.3,109.8z
		 M3.1,96.6c-0.7-2.3-1.2-4.6-1.7-7l6.7-1.3c0.4,2.1,0.9,4.3,1.5,6.3L3.1,96.6z M147.6,96.5l-6.6-1.9c0.6-2.1,1.1-4.2,1.5-6.3
		l6.7,1.3C148.9,91.8,148.3,94.2,147.6,96.5z M0.4,82.6C0.1,80.2,0,77.8,0,75.4l6.8,0c0,2.2,0.1,4.4,0.3,6.5L0.4,82.6z M150.3,82.4
		l-6.8-0.6c0.2-2.2,0.3-4.3,0.3-6.5V75h6.8v0.3C150.7,77.6,150.5,80,150.3,82.4z M7.1,68.9l-6.8-0.6c0.2-2.4,0.6-4.8,1-7.1L8,62.4
		C7.6,64.6,7.3,66.7,7.1,68.9z M143.5,68.5c-0.2-2.2-0.5-4.3-0.9-6.4l6.7-1.3c0.5,2.3,0.8,4.7,1,7.1L143.5,68.5z M9.6,56.1L3,54.2
		c0.7-2.3,1.4-4.6,2.3-6.8l6.4,2.5C10.9,52,10.2,54,9.6,56.1z M141,55.7c-0.6-2.1-1.3-4.1-2.2-6.1l6.3-2.6c0.9,2.2,1.7,4.5,2.4,6.8
		L141,55.7z M14.4,44l-6.1-3.1c1.1-2.1,2.3-4.2,3.6-6.2l5.8,3.7C16.4,40.2,15.4,42.1,14.4,44z M136.1,43.6c-1-1.9-2.1-3.8-3.3-5.6
		l5.7-3.7c1.3,2,2.5,4.1,3.6,6.2L136.1,43.6z M21.4,33.1L16,28.8c1.5-1.9,3-3.7,4.7-5.4l5,4.7C24.2,29.7,22.7,31.4,21.4,33.1z
		 M129,32.7c-1.3-1.7-2.8-3.3-4.3-4.9l4.9-4.7c1.7,1.7,3.2,3.5,4.7,5.4L129,32.7z M30.3,23.6l-4.5-5.2c1.8-1.6,3.7-3.1,5.6-4.4
		l4,5.6C33.7,20.8,32,22.2,30.3,23.6z M120,23.3c-1.6-1.4-3.4-2.8-5.1-4l4-5.6c1.9,1.4,3.8,2.9,5.6,4.4L120,23.3z M40.9,16l-3.4-5.9
		c2.1-1.2,4.2-2.3,6.4-3.3l2.9,6.2C44.7,13.9,42.8,14.9,40.9,16z M109.4,15.8c-1.9-1.1-3.8-2.1-5.8-3l2.8-6.2c2.2,1,4.3,2.1,6.4,3.3
		L109.4,15.8z M52.7,10.6l-2.3-6.5c2.2-0.8,4.6-1.5,6.9-2L59,8.7C56.9,9.2,54.8,9.9,52.7,10.6z M97.5,10.4c-2-0.7-4.1-1.3-6.3-1.8
		L92.9,2c2.3,0.6,4.6,1.2,6.9,2L97.5,10.4z M65.4,7.5l-1-6.8c2.3-0.3,4.7-0.6,7.1-0.7l0.3,6.8C69.7,7,67.5,7.2,65.4,7.5z M84.9,7.4
		c-2.1-0.3-4.3-0.5-6.5-0.6L78.7,0c2.4,0.1,4.8,0.3,7.1,0.7L84.9,7.4z"/>
</g>
</svg>
