<?xml version="1.0" encoding="utf-8"?>
<!-- Generator: Adobe Illustrator 16.0.0, SVG Export Plug-In . SVG Version: 6.00 Build 0)  -->
<!DOCTYPE svg PUBLIC "-//W3C//DTD SVG 1.1//EN" "http://www.w3.org/Graphics/SVG/1.1/DTD/svg11.dtd">
<svg version="1.1" id="Layer_1" xmlns="http://www.w3.org/2000/svg" xmlns:xlink="http://www.w3.org/1999/xlink" x="0px" y="0px"
	 width="200px" height="200px" viewBox="0 0 200 200" enable-background="new 0 0 200 200" xml:space="preserve">
<g>
	<g>
		<path fill="#242D3C" d="M88.6,177.201c-48.85,0-88.594-39.75-88.594-88.607C0.005,39.744,39.75,0,88.6,0
			c48.849,0,88.593,39.744,88.593,88.594h-7.745c0-44.582-36.269-80.849-80.848-80.849C44.02,7.745,7.75,44.013,7.75,88.594
			c0,44.587,36.269,80.862,80.849,80.862V177.201z"/>
		<path fill="#F96232" d="M88.594,27.878c-33.481,0-60.731,27.233-60.731,60.713c0,33.499,27.25,60.728,60.731,60.728v-19.775
			c-22.569,0-40.939-18.371-40.939-40.953c0-22.567,18.37-40.938,40.939-40.938c22.604,0,40.949,18.37,40.949,40.938h19.804
			C149.347,55.111,122.079,27.878,88.594,27.878z"/>
		<path fill="#F96232" d="M109.778,88.594c0,11.701-9.467,21.187-21.179,21.187c-11.699,0-21.177-9.486-21.177-21.187
			c0-11.696,9.479-21.174,21.177-21.174C100.311,67.42,109.778,76.898,109.778,88.594z"/>
	</g>
	<g>
		<path fill="#242D3C" d="M133.539,200L88.6,88.601l111.395,44.96l-46.236,20.194L133.539,200z M102.602,102.604l31.225,77.404
			l14.05-32.136L180,133.842L102.602,102.604z"/>
		
			<rect x="145.114" y="160.707" transform="matrix(0.7071 0.7071 -0.7071 0.7071 164.5845 -68.174)" fill="#242D3C" width="38.939" height="7.744"/>
	</g>
</g>
</svg>
