<?xml version="1.0" encoding="utf-8"?>
<!-- Generator: Adobe Illustrator 16.0.0, SVG Export Plug-In . SVG Version: 6.00 Build 0)  -->
<!DOCTYPE svg PUBLIC "-//W3C//DTD SVG 1.1//EN" "http://www.w3.org/Graphics/SVG/1.1/DTD/svg11.dtd">
<svg version="1.1" id="Layer_1" xmlns="http://www.w3.org/2000/svg" xmlns:xlink="http://www.w3.org/1999/xlink" x="0px" y="0px"
	 width="200px" height="200px" viewBox="0 0 200 200" enable-background="new 0 0 200 200" xml:space="preserve">
<g>
	<g>
		<path fill="#242D3C" d="M185.354,160.088H34.496V69.513c0-2.178,0.852-4.229,2.399-5.775c1.526-1.543,3.58-2.398,5.772-2.398
			h134.509c2.174,0,4.226,0.849,5.776,2.389c1.555,1.572,2.4,3.617,2.4,5.784V160.088z M41.23,153.354h137.389V69.513
			c0-0.38-0.152-0.744-0.431-1.024c-0.262-0.26-0.629-0.415-1.012-0.415H42.667c-0.22,0-0.643,0.054-1,0.413
			c-0.364,0.364-0.438,0.759-0.438,1.026V153.354z"/>
		<path fill="#242D3C" d="M173.79,160.088H46.061V72.899H173.79V160.088z M52.795,153.354h114.261v-73.72H52.795V153.354z"/>
		<path fill="#242D3C" d="M190.215,172.914H29.625c-2.599,0-5.052-1.013-6.906-2.852c-1.854-1.852-2.873-4.31-2.873-6.929v-9.78H200
			v9.78c0,2.62-1.018,5.078-2.867,6.922C195.278,171.9,192.822,172.914,190.215,172.914z M26.581,160.088v3.046
			c0,0.818,0.315,1.582,0.889,2.154c0.576,0.572,1.344,0.892,2.155,0.892h160.589c0.815,0,1.585-0.318,2.165-0.896
			c0.57-0.568,0.886-1.332,0.886-2.15v-3.046H26.581z"/>
	</g>
	<g>
		<rect y="89.56" fill="#43D3E8" width="79.982" height="53.872"/>
		<g>
			<g>
				<rect x="19.804" y="111.669" fill="#FFFFFF" width="6.734" height="13.373"/>
				<rect x="8.592" y="121.07" fill="#FFFFFF" width="6.734" height="3.972"/>
				<rect x="31.019" y="116.743" fill="#FFFFFF" width="6.734" height="8.299"/>
				<rect x="42.229" y="105.111" fill="#FFFFFF" width="6.734" height="19.931"/>
				<rect x="53.445" y="109.846" fill="#FFFFFF" width="6.734" height="15.196"/>
				<rect x="64.656" y="99.453" fill="#FFFFFF" width="6.734" height="25.589"/>
			</g>
			<rect x="8.592" y="129.069" fill="#242D3C" width="62.797" height="6.734"/>
		</g>
	</g>
	<g>
		<rect x="95.948" y="34.589" fill="#F96232" width="104.052" height="68.17"/>
		<g>
			<polygon fill="#FFFFFF" points="114.476,83.015 109.714,78.254 128.038,59.926 140.002,71.888 155.95,55.938 167.905,67.899 
				181.473,54.335 186.233,59.096 167.905,77.421 155.95,65.463 140.004,81.412 128.041,69.45 			"/>
			<polygon fill="#FFFFFF" points="187.22,68.928 180.486,68.928 180.486,60.083 171.639,60.083 171.639,53.349 187.22,53.349 			
				"/>
		</g>
	</g>
	<path fill="#242D3C" d="M133.813,143.087c-7.797,0-14.142-6.343-14.142-14.142c0-7.798,6.345-14.141,14.142-14.141
		c7.796,0,14.141,6.343,14.141,14.141C147.953,136.744,141.608,143.087,133.813,143.087z M133.813,121.538
		c-4.086,0-7.408,3.324-7.408,7.407c0,4.084,3.322,7.408,7.408,7.408c4.085,0,7.407-3.324,7.407-7.408
		C141.22,124.862,137.897,121.538,133.813,121.538z"/>
	<path fill="#242D3C" d="M61.48,49.981c-6.312,0-11.448-5.136-11.448-11.448c0-6.313,5.136-11.448,11.448-11.448
		c6.312,0,11.448,5.135,11.448,11.448C72.929,44.846,67.792,49.981,61.48,49.981z M61.48,33.82c-2.599,0-4.713,2.115-4.713,4.714
		c0,2.599,2.115,4.714,4.713,4.714c2.599,0,4.714-2.115,4.714-4.714C66.194,35.935,64.08,33.82,61.48,33.82z"/>
</g>
</svg>
