<?xml version="1.0" encoding="utf-8"?>
<!-- Generator: Adobe Illustrator 25.2.1, SVG Export Plug-In . SVG Version: 6.00 Build 0)  -->
<svg version="1.1" id="Layer_1" xmlns="http://www.w3.org/2000/svg" xmlns:xlink="http://www.w3.org/1999/xlink" x="0px" y="0px"
	 viewBox="0 0 187 187" style="enable-background:new 0 0 187 187;" xml:space="preserve">
<style type="text/css">
	.st0{fill:#F26337;}
	.st1{fill:#252E3C;}
	.st2{fill:#59C8DE;}
	.st3{fill:#FFFFFF;}
</style>
<g>
	<g>
		<path class="st0" d="M95.8,56.2c0,21.8-17.7,39.5-39.5,39.5c-21.8,0-39.5-17.7-39.5-39.5c0-21.8,17.7-39.5,39.5-39.5
			C78.1,16.7,95.8,34.4,95.8,56.2z"/>
		<path class="st1" d="M56.2,112.5L56.2,112.5C25.2,112.5,0,87.2,0,56.2S25.2,0,56.2,0c31,0,56.2,25.2,56.2,56.2
			C112.5,87.2,87.2,112.5,56.2,112.5z M56.2,7C29.1,7,7,29.1,7,56.2s22.1,49.2,49.2,49.2c27.1,0,49.2-22.1,49.2-49.2
			C105.4,29.1,83.4,7,56.2,7z"/>
	</g>
	<g>
		<path class="st2" d="M170.3,130.8c0,21.8-17.7,39.5-39.5,39.5c-21.8,0-39.5-17.7-39.5-39.5c0-21.8,17.7-39.5,39.5-39.5
			C152.6,91.2,170.3,108.9,170.3,130.8z"/>
		<path class="st1" d="M130.8,187L130.8,187c-31,0-56.2-25.2-56.2-56.2c0-31,25.2-56.2,56.2-56.2c31,0,56.2,25.2,56.2,56.2
			C187,161.8,161.8,187,130.8,187z M130.8,81.6c-27.1,0-49.2,22.1-49.2,49.2c0,27.1,22.1,49.2,49.2,49.2v3.5l0-3.5
			c27.1,0,49.2-22.1,49.2-49.2C180,103.6,157.9,81.6,130.8,81.6z"/>
	</g>
	<g>
		<g>
			<path class="st1" d="M167.3,65.3h-7v-6.4h7V65.3z M167.3,52.4h-7V46h7V52.4z M167.3,39.6h-7v-6.4h7V39.6z"/>
			<rect x="160.3" y="19.7" class="st1" width="7" height="7"/>
			<path class="st1" d="M153.9,26.7h-6.4v-7h6.4V26.7z M141,26.7h-6.4v-7h6.4V26.7z M128.1,26.7h-6.4v-7h6.4V26.7z"/>
		</g>
		<g>
			<path class="st1" d="M26.7,153.9h-7v-6.4h7V153.9z M26.7,141h-7v-6.4h7V141z M26.7,128.1h-7v-6.4h7V128.1z"/>
			<rect x="19.7" y="160.3" class="st1" width="7" height="7"/>
			<path class="st1" d="M65.3,167.3h-6.4v-7h6.4V167.3z M52.4,167.3H46v-7h6.4V167.3z M39.6,167.3h-6.4v-7h6.4V167.3z"/>
		</g>
	</g>
	<path class="st3" d="M130.8,157.9c-15,0-27.3-12-27.2-27.2c0.1-15.2,11.5-27.2,27.2-27.2c15.6,0,27.2,12.2,27.2,27.2
		C157.9,145.7,145.8,157.9,130.8,157.9z M138.8,153.7l-7.7-20.7l-7.2,21.2C129.2,155.4,132.8,155.8,138.8,153.7L138.8,153.7z
		 M120,152.6L108.5,121c-1.6,3.4-1.9,6.2-2.2,9.7C106.4,140,111.6,148.5,120,152.6z M155.1,130.8c0.1-6-2.6-10.7-2.8-11.4
		c0.2,4.6-0.5,7-1.2,9.6l-7.9,22.7c10-6,11.9-14.9,12.1-20.9H155.1L155.1,130.8z M130,129.7l-3.8-10.5l-2.8-0.2
		c-1.1-0.8-0.5-2,0.3-2c5.1,0.3,7.9,0.3,13,0c1.2,0,1.6,1.8,0.1,2l-2.7,0.2l8.8,26l4.2-14.3c0.2-6.2-1.5-6.9-3.7-11.4
		c-1.8-3.5,0.1-6.9,3.6-7c-2.8-2.7-8.6-6.1-16.2-6.2c-7.6-0.1-15.6,3.7-20.4,11l8.4-0.2c1,0.5,0.6,1.9,0,2l-2.9,0.2l8.8,26.5
		L130,129.7L130,129.7z"/>
	<g>
		<path class="st3" d="M36,77.9V33h11.1c3.9,0,6.7,1.1,8.5,3.2c1.8,2.1,2.6,5.2,2.6,9.3c0,3.7-0.9,6.5-2.8,8.5
			c-1.9,2-4.6,3.1-8.3,3.1h-4.9v20.9H36z M42.3,52.5h2.8c2.7,0,4.6-0.5,5.7-1.5c1-1,1.5-2.8,1.5-5.6c0-1.1,0-2.1-0.1-2.8
			c-0.1-0.7-0.2-1.4-0.4-2.1c-0.2-0.7-0.4-1.2-0.7-1.5c-0.3-0.4-0.7-0.7-1.3-0.9c-0.6-0.3-1.2-0.4-1.9-0.5c-0.7-0.1-1.6-0.1-2.7-0.1
			h-2.9V52.5z"/>
		<path class="st3" d="M69.6,78.4c-2.6,0-4.7-0.8-6.3-2.5c-1.6-1.6-2.5-3.8-2.8-6.6l5-1.5c0.2,2.1,0.7,3.6,1.4,4.6
			c0.7,1,1.7,1.5,3,1.5c1.1,0,1.9-0.3,2.6-1c0.7-0.7,1-1.6,0.9-2.6c-0.1-1.6-1-3.1-2.6-4.5l-5.5-4.7c-1.3-1.1-2.3-2.3-3-3.5
			c-0.7-1.2-1-2.7-1-4.4c0.1-2.5,0.8-4.5,2.3-5.8c1.5-1.4,3.5-2.1,6-2.1c2.4,0,4.3,0.8,5.7,2.4c1.4,1.6,2.2,3.6,2.4,6.1l-4,1.5
			c-0.2-1.8-0.7-3.2-1.2-4.1c-0.6-0.9-1.5-1.4-2.7-1.4c-1,0-1.7,0.3-2.3,0.9c-0.6,0.6-0.9,1.4-0.9,2.3c0,1.2,0.5,2.3,1.6,3.3
			l5.7,5.2c1.4,1.2,2.5,2.5,3.3,3.9c0.8,1.3,1.2,2.9,1.2,4.8c0,2.7-0.8,4.7-2.4,6.1C74.5,77.7,72.3,78.4,69.6,78.4z"/>
	</g>
</g>
</svg>
