<?xml version="1.0" encoding="utf-8"?>
<!-- Generator: Adobe Illustrator 16.0.0, SVG Export Plug-In . SVG Version: 6.00 Build 0)  -->
<!DOCTYPE svg PUBLIC "-//W3C//DTD SVG 1.1//EN" "http://www.w3.org/Graphics/SVG/1.1/DTD/svg11.dtd">
<svg version="1.1" id="Layer_1" xmlns="http://www.w3.org/2000/svg" xmlns:xlink="http://www.w3.org/1999/xlink" x="0px" y="0px"
	 width="200px" height="200px" viewBox="0 0 200 200" enable-background="new 0 0 200 200" xml:space="preserve">
<g>
	<path fill="#F96232" d="M100.952,43.81c-15.779,0-30.065,6.397-40.408,16.738l18.866,18.866c5.52-5.518,13.139-8.938,21.542-8.938
		c16.806,0,30.477,13.673,30.477,30.476c0,8.403-3.418,16.022-8.938,21.542l18.866,18.866
		c10.341-10.343,16.738-24.628,16.738-40.408C158.096,69.395,132.512,43.81,100.952,43.81z"/>
	<path fill="#F96232" d="M100.952,184.762V200C155.659,200,200,155.661,200,100.952h-15.238
		C184.762,147.244,147.242,184.762,100.952,184.762z"/>
	<path fill="#43D3E8" d="M100.952,17.143V43.81c31.56,0,57.144,25.583,57.144,57.143c0,31.56-25.584,57.144-57.144,57.144
		c-31.559,0-57.143-25.584-57.143-57.144H17.143c0,46.286,37.523,83.81,83.809,83.81c46.287,0,83.81-37.523,83.81-83.81
		C184.762,54.667,147.239,17.143,100.952,17.143z"/>
	<path fill="#242D3C" d="M100.952,161.904v-7.618c29.408,0,53.334-23.926,53.334-53.334c0-29.408-23.926-53.333-53.334-53.333V40
		c33.608,0,60.952,27.344,60.952,60.952S134.561,161.904,100.952,161.904z"/>
	<path fill="#242D3C" d="M100.952,188.574c-23.4,0-45.403-9.114-61.955-25.663l5.387-5.388
		c15.113,15.11,35.204,23.432,56.568,23.432c21.368,0,41.457-8.321,56.567-23.432c15.111-15.112,23.433-35.202,23.433-56.568h7.619
		c0,23.4-9.114,45.403-25.665,61.956C146.357,179.46,124.354,188.574,100.952,188.574z"/>
	<path fill="#242D3C" d="M100.952,123.81c-12.604,0-22.857-10.253-22.857-22.857c0-12.604,10.253-22.857,22.857-22.857v7.619
		c-8.401,0-15.238,6.836-15.238,15.238c0,8.402,6.836,15.238,15.238,15.238V123.81z"/>
	<rect x="97.143" y="97.143" fill="#242D3C" width="7.619" height="7.619"/>
	<g>
		<g>
			<g>
				<path fill="#242D3C" d="M7.619,100.952H0c0-1.324,0.025-2.644,0.076-3.957l7.613,0.294C7.642,98.504,7.619,99.726,7.619,100.952
					z"/>
				<path fill="#242D3C" d="M8.257,89.978l-7.568-0.887c0.307-2.613,0.72-5.247,1.23-7.826l7.474,1.477
					C8.923,85.126,8.54,87.561,8.257,89.978z M11.097,75.616l-7.333-2.063c0.713-2.537,1.538-5.076,2.447-7.543l7.148,2.637
					C12.518,70.927,11.757,73.271,11.097,75.616z M16.162,61.879l-6.917-3.193c1.1-2.382,2.311-4.759,3.603-7.061l6.646,3.726
					C18.301,57.48,17.179,59.676,16.162,61.879z M23.327,49.105l-6.33-4.238c1.464-2.189,3.033-4.345,4.661-6.408l5.982,4.717
					C26.134,45.086,24.683,47.081,23.327,49.105z M32.402,37.608l-5.595-5.172c1.78-1.924,3.664-3.81,5.601-5.604l5.176,5.592
					C35.792,34.083,34.048,35.827,32.402,37.608z M43.155,27.661l-4.723-5.979c2.058-1.626,4.213-3.195,6.405-4.664l4.241,6.33
					C47.051,24.706,45.058,26.156,43.155,27.661z M55.32,19.512l-3.729-6.643c2.296-1.289,4.669-2.501,7.057-3.606l3.196,6.917
					C59.637,17.199,57.442,18.321,55.32,19.512z M68.605,13.374l-2.64-7.146c2.473-0.914,5.007-1.738,7.536-2.449l2.065,7.333
					C73.232,11.77,70.89,12.531,68.605,13.374z M82.69,9.402l-1.482-7.473c2.586-0.514,5.22-0.927,7.829-1.234l0.887,7.568
					C87.513,8.544,85.081,8.929,82.69,9.402z"/>
				<path fill="#242D3C" d="M97.29,7.689l-0.294-7.613C98.308,0.025,99.628,0,100.952,0v7.619
					C99.726,7.619,98.504,7.642,97.29,7.689z"/>
			</g>
		</g>
		<rect y="97.143" fill="#242D3C" width="7.619" height="7.619"/>
		<rect x="97.143" fill="#242D3C" width="7.619" height="7.619"/>
	</g>
</g>
</svg>
