<?xml version="1.0" encoding="utf-8"?>
<!-- Generator: Adobe Illustrator 16.0.0, SVG Export Plug-In . SVG Version: 6.00 Build 0)  -->
<!DOCTYPE svg PUBLIC "-//W3C//DTD SVG 1.1//EN" "http://www.w3.org/Graphics/SVG/1.1/DTD/svg11.dtd">
<svg version="1.1" id="Layer_1" xmlns="http://www.w3.org/2000/svg" xmlns:xlink="http://www.w3.org/1999/xlink" x="0px" y="0px"
	 width="200px" height="200px" viewBox="0 0 200 200" enable-background="new 0 0 200 200" xml:space="preserve">
<g>
	<g>
		<rect x="29.629" y="129.63" fill="#F96232" width="22.222" height="46.889"/>
		<rect y="129.63" fill="#F96232" width="22.222" height="35.975"/>
		<rect x="59.259" y="129.63" fill="#F96232" width="22.222" height="27.777"/>
		<rect x="88.888" y="129.63" fill="#F96232" width="22.223" height="66.666"/>
		<rect x="118.519" y="129.63" fill="#F96232" width="22.222" height="43.526"/>
		<rect x="148.148" y="129.63" fill="#F96232" width="22.222" height="22.222"/>
		<rect x="177.777" y="129.63" fill="#F96232" width="22.223" height="35.975"/>
	</g>
	<g>
		<rect x="0.001" y="50.697" fill="#242D3C" width="7.408" height="56.71"/>
		<rect x="14.816" y="68.208" fill="#242D3C" width="7.407" height="39.2"/>
		<rect x="29.631" y="3.704" fill="#242D3C" width="7.407" height="103.703"/>
		<rect x="44.445" y="45.184" fill="#242D3C" width="7.408" height="62.223"/>
		<rect x="59.26" y="18.165" fill="#242D3C" width="7.407" height="89.243"/>
		<rect x="74.075" y="49.637" fill="#242D3C" width="7.407" height="57.77"/>
		<rect x="88.89" y="10.032" fill="#242D3C" width="7.408" height="97.375"/>
		<rect x="103.704" y="26.67" fill="#242D3C" width="7.407" height="80.737"/>
		<rect x="118.519" y="45.184" fill="#242D3C" width="7.407" height="62.223"/>
		<rect x="133.333" y="11.839" fill="#242D3C" width="7.407" height="95.568"/>
		<rect x="148.148" y="50.697" fill="#242D3C" width="7.407" height="56.71"/>
		<rect x="162.963" y="38.95" fill="#242D3C" width="7.407" height="68.458"/>
		<rect x="177.777" y="18.165" fill="#242D3C" width="7.407" height="89.243"/>
		<rect x="192.593" y="53.859" fill="#242D3C" width="7.407" height="53.548"/>
	</g>
	<g>
		<rect y="114.814" fill="#242D3C" width="7.407" height="7.407"/>
		<rect x="14.814" y="114.814" fill="#242D3C" width="7.407" height="7.407"/>
		<rect x="29.629" y="114.814" fill="#242D3C" width="7.407" height="7.407"/>
		<rect x="44.444" y="114.814" fill="#242D3C" width="7.408" height="7.407"/>
		<rect x="59.259" y="114.814" fill="#242D3C" width="7.407" height="7.407"/>
		<rect x="74.074" y="114.814" fill="#242D3C" width="7.407" height="7.407"/>
		<rect x="88.888" y="114.814" fill="#242D3C" width="7.408" height="7.407"/>
		<rect x="103.704" y="114.814" fill="#242D3C" width="7.407" height="7.407"/>
		<rect x="118.519" y="114.814" fill="#242D3C" width="7.407" height="7.407"/>
		<rect x="133.333" y="114.814" fill="#242D3C" width="7.407" height="7.407"/>
		<rect x="148.148" y="114.814" fill="#242D3C" width="7.407" height="7.407"/>
		<rect x="162.963" y="114.814" fill="#242D3C" width="7.407" height="7.407"/>
		<rect x="177.777" y="114.814" fill="#242D3C" width="7.407" height="7.407"/>
		<rect x="192.593" y="114.814" fill="#242D3C" width="7.407" height="7.407"/>
	</g>
</g>
</svg>
