<?xml version="1.0" encoding="utf-8"?>
<!-- Generator: Adobe Illustrator 16.0.0, SVG Export Plug-In . SVG Version: 6.00 Build 0)  -->
<!DOCTYPE svg PUBLIC "-//W3C//DTD SVG 1.1//EN" "http://www.w3.org/Graphics/SVG/1.1/DTD/svg11.dtd">
<svg version="1.1" id="Layer_1" xmlns="http://www.w3.org/2000/svg" xmlns:xlink="http://www.w3.org/1999/xlink" x="0px" y="0px"
	 width="200px" height="200px" viewBox="0 0 200 200" enable-background="new 0 0 200 200" xml:space="preserve">
<g>
	<g>
		<path fill="#43D3E8" d="M102.4,3.932c-0.391-0.39-0.992-0.529-1.534-0.305c-0.541,0.225-0.868,0.747-0.868,1.299v13.018
			c-45.322,0-82.059,36.737-82.059,82.058h19.693c0-34.446,27.921-62.363,62.366-62.363v13.014c0,0.551,0.327,1.076,0.868,1.3
			c0.542,0.224,1.143,0.085,1.534-0.305l23.856-23.858L102.4,3.932z"/>
		<path fill="#242D3C" d="M41.149,100.001h-7.034c0-36.326,29.555-65.88,65.883-65.88h3.517v11.435l17.768-17.768L103.516,10.02
			v11.441h-3.517c-43.308,0-78.542,35.233-78.542,78.541h-7.033c0-46.007,36.497-83.652,82.059-85.503V4.926
			c0-1.995,1.191-3.779,3.033-4.546c1.856-0.771,3.96-0.347,5.372,1.065l26.343,26.343l-26.343,26.344
			c-1.412,1.411-3.519,1.832-5.365,1.069c-1.846-0.765-3.04-2.551-3.04-4.55v-9.393C65.663,43.084,41.149,68.733,41.149,100.001z"/>
	</g>
	<g>
		<path fill="#43D3E8" d="M162.361,100.001c0,34.442-27.919,62.366-62.363,62.366v-13.017c0-0.552-0.327-1.075-0.868-1.299
			c-0.542-0.225-1.143-0.086-1.533,0.305l-23.858,23.856l23.858,23.858c0.39,0.39,0.991,0.528,1.533,0.305
			c0.542-0.226,0.868-0.749,0.868-1.3v-13.018c45.325,0,82.061-36.737,82.061-82.057H162.361z"/>
		<path fill="#242D3C" d="M98.585,200c-1.28,0.001-2.532-0.5-3.474-1.442l-26.345-26.345l26.345-26.343
			c1.411-1.412,3.516-1.833,5.362-1.069c1.849,0.766,3.043,2.551,3.043,4.55v9.396c30.817-1.824,55.329-27.476,55.329-58.745h7.034
			c0,36.328-29.554,65.882-65.88,65.882h-3.517v-11.439l-17.77,17.769l17.77,17.77v-11.44h3.517
			c43.309,0,78.544-35.233,78.544-78.541h7.034c0,46.007-36.498,83.652-82.062,85.502v9.572c0,1.995-1.191,3.779-3.033,4.546
			C99.865,199.876,99.223,200,98.585,200z"/>
	</g>
	<g>
		<circle fill="#F96232" cx="100" cy="100.001" r="33.058"/>
		<polygon fill="#FFFFFF" points="96.599,114.092 82.683,100.179 87.655,95.206 96.596,104.146 112.343,88.396 117.316,93.369 		"/>
	</g>
	<g>
		<path fill="#242D3C" d="M61.073,164.968c-2.114-1.27-4.193-2.659-6.176-4.132l4.192-5.648c1.8,1.336,3.686,2.599,5.605,3.751
			L61.073,164.968z M49.154,156.119c-1.828-1.658-3.596-3.425-5.254-5.252l5.209-4.727c1.505,1.659,3.11,3.264,4.77,4.769
			L49.154,156.119z M39.183,145.128c-1.473-1.982-2.865-4.06-4.135-6.172l6.028-3.624c1.153,1.917,2.415,3.801,3.753,5.601
			L39.183,145.128z M31.538,132.407c-1.06-2.234-2.017-4.543-2.848-6.862l6.622-2.372c0.753,2.102,1.621,4.195,2.582,6.22
			L31.538,132.407z M26.531,118.431c-0.599-2.397-1.085-4.851-1.445-7.292l6.958-1.025c0.327,2.214,0.768,4.438,1.311,6.611
			L26.531,118.431z"/>
	</g>
	<g>
		<path fill="#242D3C" d="M167.956,89.888c-0.327-2.217-0.769-4.44-1.311-6.609l6.821-1.709c0.601,2.393,1.087,4.847,1.448,7.293
			L167.956,89.888z M164.688,76.829c-0.757-2.11-1.625-4.202-2.582-6.22l6.354-3.014c1.057,2.226,2.015,4.534,2.85,6.861
			L164.688,76.829z M158.922,64.671c-1.155-1.92-2.416-3.805-3.752-5.602l5.646-4.195c1.47,1.979,2.861,4.057,4.134,6.173
			L158.922,64.671z M150.886,53.859c-1.499-1.654-3.104-3.255-4.768-4.764l4.724-5.212c1.834,1.662,3.603,3.429,5.256,5.253
			L150.886,53.859z M140.905,44.815c-1.799-1.335-3.685-2.598-5.605-3.75l3.621-6.031c2.117,1.272,4.194,2.662,6.177,4.134
			L140.905,44.815z"/>
	</g>
</g>
</svg>
