<?xml version="1.0" encoding="utf-8"?>
<!-- Generator: Adobe Illustrator 16.0.0, SVG Export Plug-In . SVG Version: 6.00 Build 0)  -->
<!DOCTYPE svg PUBLIC "-//W3C//DTD SVG 1.1//EN" "http://www.w3.org/Graphics/SVG/1.1/DTD/svg11.dtd">
<svg version="1.1" id="Layer_1" xmlns="http://www.w3.org/2000/svg" xmlns:xlink="http://www.w3.org/1999/xlink" x="0px" y="0px"
	 width="200px" height="200px" viewBox="0 0 200 200" enable-background="new 0 0 200 200" xml:space="preserve">
<g>
	<g>
		<polygon fill="#242D3C" points="139.759,191.421 82.148,191.421 82.148,172.169 89.556,172.169 89.556,184.014 132.351,184.014 
			132.351,172.169 139.759,172.169 		"/>
		<rect x="71.531" y="184.014" fill="#242D3C" width="78.851" height="7.407"/>
		<path fill="#242D3C" d="M200,145.836H43.816V115.11c0-1.018-0.859-1.875-1.875-1.875H21.908V32.529
			c0-2.588,1.008-5.027,2.84-6.871c1.854-1.846,4.295-2.854,6.89-2.854h84.531v71.201c0,2.59,2.112,4.698,4.709,4.698h49.23
			c2.594,0,4.706-2.108,4.706-4.698V22.804h15.459c2.608,0,5.052,1.014,6.882,2.854c1.832,1.837,2.845,4.28,2.845,6.871V145.836z
			 M51.224,138.429h141.369v-105.9c0-0.616-0.243-1.199-0.686-1.644c-0.585-0.587-1.273-0.674-1.634-0.674h-8.051v63.793
			c0,6.676-5.435,12.105-12.114,12.105h-49.23c-6.68,0-12.116-5.429-12.116-12.105V30.211H31.638c-0.622,0-1.207,0.243-1.649,0.683
			c-0.428,0.431-0.672,1.017-0.672,1.635v73.298h12.625c5.119,0,9.283,4.164,9.283,9.283V138.429z"/>
		<path fill="#242D3C" d="M190.273,165.911H43.816v-27.482H200v17.758c0,2.608-1.016,5.054-2.861,6.888
			C195.336,164.896,192.89,165.911,190.273,165.911z M51.224,158.504h139.049c0.36,0,1.052-0.087,1.623-0.662
			c0.456-0.455,0.696-1.035,0.696-1.655v-10.351H51.224V158.504z"/>
		<path fill="#F96232" d="M178.519,40.729v53.275c0,4.628-3.776,8.402-8.41,8.402h-49.23c-4.621,0-8.413-3.773-8.413-8.402V40.729
			H39.836v68.802h2.105c3.073,0,5.579,2.512,5.579,5.579v12.798h134.554V40.729H178.519z"/>
	</g>
	<g>
		<rect x="22.054" y="117.206" fill="#242D3C" width="7.111" height="7.407"/>
		<rect x="17.787" y="172.633" fill="#242D3C" width="15.648" height="7.407"/>
		<path fill="#242D3C" d="M41.941,191.421H9.285c-5.12,0-9.285-4.162-9.285-9.278V115.11c0-5.119,4.165-9.283,9.285-9.283h32.656
			c5.119,0,9.283,4.164,9.283,9.283v67.032C51.224,187.259,47.06,191.421,41.941,191.421z M9.285,113.235
			c-1.019,0-1.878,0.857-1.878,1.875v67.032c0,1.031,0.842,1.871,1.878,1.871h32.656c1.035,0,1.875-0.84,1.875-1.871V115.11
			c0-1.018-0.859-1.875-1.875-1.875H9.285z"/>
	</g>
	<g>
		<rect x="141.936" y="22.804" fill="#242D3C" width="7.111" height="7.408"/>
		<rect x="134.825" y="84.482" fill="#242D3C" width="21.332" height="7.408"/>
		<path fill="#242D3C" d="M170.108,106.109h-49.23c-6.68,0-12.116-5.429-12.116-12.105v-73.31c0-6.68,5.437-12.115,12.116-12.115
			h49.23c6.68,0,12.114,5.436,12.114,12.115v73.31C182.223,100.68,176.788,106.109,170.108,106.109z M120.878,15.987
			c-2.597,0-4.709,2.112-4.709,4.708v73.31c0,2.59,2.112,4.698,4.709,4.698h49.23c2.594,0,4.706-2.108,4.706-4.698v-73.31
			c0-2.595-2.112-4.708-4.706-4.708H120.878z"/>
	</g>
</g>
</svg>
