<?xml version="1.0" encoding="utf-8"?>
<!-- Generator: Adobe Illustrator 16.0.0, SVG Export Plug-In . SVG Version: 6.00 Build 0)  -->
<!DOCTYPE svg PUBLIC "-//W3C//DTD SVG 1.1//EN" "http://www.w3.org/Graphics/SVG/1.1/DTD/svg11.dtd">
<svg version="1.1" id="Layer_1" xmlns="http://www.w3.org/2000/svg" xmlns:xlink="http://www.w3.org/1999/xlink" x="0px" y="0px"
	 width="200px" height="200px" viewBox="0 0 200 200" enable-background="new 0 0 200 200" xml:space="preserve">
<g>
	<path fill="#242D3C" d="M170.411,186.091H0V79.579h170.411L200,109.168v47.334L170.411,186.091z M7.407,178.684h159.937
		l25.249-25.249v-41.199l-25.249-25.249H7.407V178.684z"/>
	<path fill="#242D3C" d="M168.877,144.468c-6.415,0-11.632-5.219-11.632-11.634c0-6.413,5.217-11.632,11.632-11.632
		s11.632,5.219,11.632,11.632C180.509,139.249,175.292,144.468,168.877,144.468z M168.877,128.609c-2.329,0-4.225,1.896-4.225,4.225
		c0,2.331,1.896,4.227,4.225,4.227c2.33,0,4.225-1.896,4.225-4.227C173.102,130.505,171.207,128.609,168.877,128.609z"/>
	<rect x="16.918" y="96.496" fill="#F96232" width="127.844" height="72.677"/>
	<g>
		<g>
			<path fill="#FFFFFF" d="M94.598,151.629H70.778c-2.046,0-3.704-1.658-3.704-3.703v-30.18c0-2.046,1.658-3.704,3.704-3.704h23.819
				v7.407H74.482v22.772h20.116V151.629z"/>
			<rect x="67.075" y="129.131" fill="#FFFFFF" width="17.468" height="7.407"/>
		</g>
		<path fill="#FFFFFF" d="M117.563,151.629h-5.024c-3.008,0-5.835-1.17-7.959-3.294c-2.129-2.127-3.301-4.954-3.301-7.959v-15.09
			c0-2.996,1.172-5.818,3.298-7.949c2.127-2.126,4.953-3.295,7.962-3.295h5.024c3.001,0,5.822,1.169,7.945,3.293
			c2.124,2.103,3.302,4.931,3.302,7.951v15.09c0,3.029-1.179,5.861-3.318,7.975C123.386,150.459,120.564,151.629,117.563,151.629z
			 M112.539,121.449c-1.031,0-1.998,0.399-2.722,1.123c-0.729,0.73-1.131,1.695-1.131,2.714v15.09c0,1.026,0.402,1.991,1.131,2.72
			c0.727,0.727,1.693,1.126,2.722,1.126h5.024c1.021,0,1.982-0.399,2.706-1.124c0.737-0.728,1.134-1.688,1.134-2.722v-15.09
			c0-1.027-0.397-1.986-1.12-2.701c-0.737-0.737-1.698-1.136-2.72-1.136H112.539z"/>
		<path fill="#FFFFFF" d="M49.149,151.629h-5.033c-3.003,0-5.828-1.169-7.953-3.293c-2.124-2.124-3.292-4.95-3.292-7.96h7.407
			c0,1.03,0.398,1.997,1.123,2.72c0.727,0.727,1.69,1.126,2.716,1.126h5.033c1.024,0,1.988-0.399,2.714-1.124
			c0.729-0.729,1.13-1.694,1.13-2.722c0-1.021-0.4-1.984-1.13-2.714c-0.726-0.725-1.689-1.124-2.714-1.124h-5.033
			c-3.005,0-5.829-1.169-7.953-3.292c-2.124-2.126-3.292-4.952-3.292-7.96c0-3,1.169-5.824,3.29-7.949
			c2.127-2.126,4.951-3.295,7.956-3.295h5.033c3.005,0,5.828,1.169,7.951,3.293c2.128,2.128,3.3,4.952,3.3,7.951h-7.408
			c0-1.021-0.4-1.984-1.13-2.714c-0.723-0.724-1.687-1.123-2.714-1.123h-5.033c-1.026,0-1.991,0.399-2.716,1.125
			c-0.723,0.723-1.123,1.688-1.123,2.712c0,1.03,0.399,1.997,1.123,2.722c0.725,0.724,1.69,1.123,2.716,1.123h5.033
			c3.002,0,5.825,1.169,7.951,3.292c2.128,2.13,3.3,4.954,3.3,7.953c0,3.008-1.173,5.835-3.302,7.962
			C54.977,150.459,52.153,151.629,49.149,151.629z"/>
	</g>
	<path fill="#242D3C" d="M172.581,124.906h-7.407V83.283c0-3.634,1.415-7.053,3.985-9.625c2.574-2.572,5.991-3.989,9.629-3.989
		h7.598c1.658,0,3.218-0.645,4.39-1.818c1.172-1.17,1.817-2.73,1.817-4.388c0-1.658-0.646-3.216-1.817-4.388
		c-1.173-1.173-2.731-1.819-4.39-1.819h-61.432c-3.635,0-7.055-1.415-9.627-3.986c-2.572-2.572-3.987-5.991-3.987-9.628
		c0-3.636,1.415-7.055,3.985-9.627c2.574-2.572,5.993-3.989,9.629-3.989h34.013c1.658,0,3.218-0.645,4.39-1.817
		s1.817-2.73,1.817-4.39v-9.91h7.407v9.91c0,3.639-1.416,7.059-3.987,9.628s-5.989,3.986-9.627,3.986h-34.013
		c-1.658,0-3.217,0.645-4.39,1.818c-1.172,1.173-1.817,2.731-1.817,4.39c0,1.658,0.646,3.217,1.817,4.389s2.731,1.817,4.39,1.817
		h61.432c3.638,0,7.055,1.417,9.627,3.989c2.572,2.571,3.987,5.989,3.987,9.625c0,3.637-1.415,7.056-3.987,9.627
		c-2.572,2.572-5.992,3.987-9.627,3.987h-7.598c-1.658,0-3.217,0.645-4.39,1.818c-1.172,1.173-1.817,2.731-1.817,4.388V124.906z"/>
</g>
</svg>
