<svg xmlns="http://www.w3.org/2000/svg" xmlns:xlink="http://www.w3.org/1999/xlink" viewBox="0 0 134.2 155"><defs><style>.cls-1{fill:url(#radial-gradient);}.cls-2{fill:#b9effc;}</style><radialGradient id="radial-gradient" cx="66.65" cy="499.4" r="65.39" gradientTransform="translate(0 -422)" gradientUnits="userSpaceOnUse"><stop offset="0" stop-color="#fff"/><stop offset="1" stop-color="#b9effc"/></radialGradient></defs><g id="Layer_2" data-name="Layer 2"><g id="Layer_1-2" data-name="Layer 1"><polygon class="cls-1" points="6.1 42.5 6.1 112.4 66.7 147.3 127.2 112.4 127.2 42.5 66.7 7.5 6.1 42.5"/><polygon class="cls-2" points="1.4 39.6 67.1 1.6 84.5 11.6 85.2 10.4 67.1 0 0.3 38.5 0 38.7 0 116.2 12.6 123.5 13.3 122.3 1.4 115.4 1.4 39.6"/><polygon class="cls-2" points="132.8 39.2 132.8 115.4 67.1 153.4 42.3 139.1 41.6 140.3 67.1 155 133.9 116.4 134.2 116.2 134.2 39.2 132.8 39.2"/></g></g></svg>