<?xml version="1.0" encoding="utf-8"?>
<!-- Generator: Adobe Illustrator 25.2.1, SVG Export Plug-In . SVG Version: 6.00 Build 0)  -->
<svg version="1.1" id="Layer_1" xmlns="http://www.w3.org/2000/svg" xmlns:xlink="http://www.w3.org/1999/xlink" x="0px" y="0px"
	 viewBox="0 0 189.9 170.5" style="enable-background:new 0 0 189.9 170.5;" xml:space="preserve">
<style type="text/css">
	.st0{fill:#59C8DE;}
	.st1{fill:#26303D;}
	.st2{fill:#FFFFFF;}
	.st3{fill:#EDEDEE;}
</style>
<g>
	<g>
		<g>
			<path class="st0" d="M106,122.5l9.5-3.6c0.7-2.9,1.9-5.6,3.3-8l-4.1-9.3l6.3-6.3l9.3,4.1c2.5-1.4,5.1-2.6,8-3.3l3.6-9.5h7.3V33.9
				H54.5v96.8H106V122.5z"/>
			<g>
				<path class="st1" d="M153,170.5h-13.5l-3.8-10.1c-2-0.6-3.8-1.4-5.7-2.4l-9.8,4.4l-9.6-9.6l4.4-9.8c-0.9-1.7-1.7-3.7-2.4-5.7
					l-10.1-3.8v-13.5l10.1-3.8c0.6-2,1.4-3.8,2.4-5.7l-4.4-9.8l9.6-9.6l9.8,4.4c1.7-0.9,3.7-1.7,5.7-2.4l3.8-10.1h13.6l3.8,10.1
					c2,0.6,3.8,1.4,5.7,2.4l9.8-4.4l9.6,9.6l-4.4,9.8c0.9,1.9,1.7,3.7,2.4,5.7l10.1,3.8v13.5l-10.1,3.8c-0.6,2-1.4,3.8-2.4,5.7
					l4.4,9.8l-9.6,9.6l-9.8-4.4c-1.9,0.9-3.7,1.7-5.7,2.4L153,170.5z M144.1,163.8h4.3l3.4-8.9l1.6-0.4c2.5-0.6,4.9-1.6,7.2-3
					l1.4-0.8l8.7,3.9l3.1-3.1l-3.9-8.7l0.8-1.4c1.3-2.3,2.4-4.6,3-7.1l0.4-1.6l8.9-3.4v-4.3l-8.9-3.4l-0.4-1.6
					c-0.6-2.5-1.6-4.8-3-7.1l-0.8-1.4l3.9-8.7l-3.1-3.1l-8.7,3.9l-1.4-0.8c-2.3-1.3-4.6-2.3-7.2-3l-1.6-0.4l-3.4-8.9h-4.3l-3.4,8.9
					l-1.6,0.4c-2.5,0.6-4.9,1.6-7.1,3l-1.4,0.8l-8.7-3.9l-3.1,3.1l3.9,8.7l-0.8,1.4c-1.3,2.3-2.3,4.6-3,7.2l-0.5,1.4l-8.9,3.4v4.3
					l8.9,3.4l0.4,1.6c0.6,2.5,1.6,4.9,3,7.1l0.8,1.4l-3.9,8.7l3.1,3.1l8.7-3.9l1.4,0.8c2.3,1.3,4.6,2.3,7.1,3l1.6,0.4L144.1,163.8z"
					/>
				<path class="st1" d="M146.2,145.6c-10.3,0-18.7-8.4-18.7-18.7s8.4-18.7,18.7-18.7c10.3,0,18.7,8.4,18.7,18.7
					C165,137.3,156.6,145.6,146.2,145.6z M146.2,114.9c-6.7,0-12,5.4-12,12c0,6.7,5.4,12,12,12c6.7,0,12-5.4,12-12
					C158.3,120.2,152.9,114.9,146.2,114.9z"/>
			</g>
			<g>
				<rect y="79.7" class="st1" width="17.1" height="6.7"/>
				<rect x="17.1" y="102.5" class="st1" width="18.3" height="6.7"/>
				<rect x="17.1" y="113.9" class="st1" width="18.3" height="6.7"/>
				<rect x="17.1" y="148.2" class="st1" width="18.3" height="6.7"/>
				<rect x="17.1" y="159.6" class="st1" width="18.3" height="6.7"/>
				<rect y="91.1" class="st1" width="35.4" height="6.7"/>
				<rect y="125.3" class="st1" width="17.1" height="6.7"/>
				<rect x="17.1" y="56.9" class="st1" width="18.3" height="6.7"/>
				<rect x="17.1" y="68.3" class="st1" width="18.3" height="6.7"/>
				<rect y="45.4" class="st1" width="35.4" height="6.7"/>
				<rect y="136.8" class="st1" width="35.4" height="6.7"/>
				<rect x="42.6" y="148.2" class="st1" width="18.3" height="6.7"/>
				<rect x="42.6" y="159.6" class="st1" width="35.4" height="6.7"/>
			</g>
			<g>
				<path class="st1" d="M161.7,28H42V0h119.9L161.7,28L161.7,28z M48.5,21.3h106.5V6.7H48.5V21.3z"/>
				<g>
					<rect x="55.2" y="10.7" class="st1" width="6.7" height="6.7"/>
					<rect x="68.6" y="10.7" class="st1" width="6.7" height="6.7"/>
					<rect x="81.8" y="10.7" class="st1" width="6.7" height="6.7"/>
				</g>
				<polygon class="st1" points="98.1,143.4 42,143.4 42,21.3 161.7,21.3 161.7,81.1 155.2,81.1 155.2,28 48.5,28 48.5,136.8 
					98.1,136.8 				"/>
			</g>
		</g>
	</g>
</g>
<g>
	<path class="st2" d="M102.3,52.4L102.3,52.4c0-0.3-0.3-0.4-0.5-0.4c-0.2,0-4.2-0.3-4.2-0.3s-2.8-2.7-3.1-3.1
		c-0.3-0.3-0.9-0.2-1.1-0.1c0,0-0.6,0.2-1.6,0.5c-0.9-2.7-2.6-5.1-5.4-5.1c-0.1,0-0.2,0-0.2,0c-0.8-1.1-1.8-1.5-2.7-1.5
		c-6.7,0-9.9,8.4-10.9,12.6c-2.6,0.8-4.4,1.4-4.7,1.5c-1.5,0.5-1.5,0.5-1.7,1.9c-0.1,1-3.9,30.4-3.9,30.4L92,94.2l16-3.5
		C108,90.7,102.4,52.7,102.3,52.4z M85.4,46c0.4,1,0.7,2.5,0.7,4.5c0,0.1,0,0.2,0,0.3c-1.6,0.5-3.4,1.1-5.2,1.6
		C81.9,48.6,83.8,46.7,85.4,46L85.4,46z M83.4,44.1L83.4,44.1c0.3,0,0.6,0.1,0.9,0.3c-2.1,1-4.4,3.6-5.4,8.6l-4.1,1.3
		C75.9,50.4,78.6,44.1,83.4,44.1z M86.5,60.9L86.5,60.9l-2,5.9c0,0-1.7-0.9-3.9-0.9c-3.1,0-3.3,2-3.3,2.4c0,2.7,7,3.7,7,10
		c0,5-3.1,8.1-7.4,8.1c-5.1,0-7.7-3.2-7.7-3.2l1.4-4.5c0,0,2.7,2.3,4.9,2.3c1.5,0,2.1-1.2,2.1-2c0-3.5-5.7-3.7-5.7-9.4
		c0-4.8,3.5-9.5,10.5-9.5C85.2,60.1,86.5,60.9,86.5,60.9L86.5,60.9L86.5,60.9z M87.8,50.3c0-0.2,0-0.4,0-0.5c0-1.7-0.2-3-0.6-4
		c1.5,0.2,2.5,1.9,3.1,3.8L87.8,50.3z"/>
	<path class="st3" d="M101.9,52c-0.2,0-4.2-0.3-4.2-0.3s-2.8-2.7-3.1-3.1c-0.1-0.1-0.3-0.2-0.4-0.2L92,94.2l16-3.5
		c0,0-5.6-38.1-5.7-38.3C102.3,52.2,102.1,52,101.9,52"/>
</g>
</svg>
