<?xml version="1.0" encoding="utf-8"?>
<!-- Generator: Adobe Illustrator 16.0.0, SVG Export Plug-In . SVG Version: 6.00 Build 0)  -->
<!DOCTYPE svg PUBLIC "-//W3C//DTD SVG 1.1//EN" "http://www.w3.org/Graphics/SVG/1.1/DTD/svg11.dtd">
<svg version="1.1" id="Layer_1" xmlns="http://www.w3.org/2000/svg" xmlns:xlink="http://www.w3.org/1999/xlink" x="0px" y="0px"
	 width="200px" height="200px" viewBox="0 0 200 200" enable-background="new 0 0 200 200" xml:space="preserve">
<g>
	<path fill="#43D3E8" d="M200,100c0,55.229-44.769,100-100,100C44.771,200,0,155.229,0,100S44.771,0,100,0
		C155.231,0,200,44.771,200,100z"/>
	<g>
		<path fill="#242D3C" d="M134.225,143.864H51.106v-8h83.118c2.854,0,5.533-1.109,7.547-3.124c2.013-2.012,3.122-4.69,3.122-7.545
			c0-2.847-1.109-5.526-3.125-7.547c-2.009-2.011-4.688-3.12-7.544-3.12H51.106v-8h83.118c4.994,0,9.684,1.942,13.205,5.469
			c3.523,3.531,5.464,8.219,5.464,13.198c0,4.992-1.94,9.683-5.467,13.203C143.906,141.922,139.216,143.864,134.225,143.864z"/>
		<polygon fill="#242D3C" points="137.325,114.528 48.006,114.528 32.558,54.556 40.305,52.56 54.206,106.528 131.125,106.528 
			154.388,16.181 177.914,16.181 177.914,24.181 160.588,24.181 		"/>
		<path fill="#242D3C" d="M59.081,174.182c-6.603,0-11.975-5.375-11.975-11.981c0-6.602,5.372-11.972,11.975-11.972
			c6.604,0,11.977,5.37,11.977,11.972C71.058,168.807,65.685,174.182,59.081,174.182z M59.081,158.229
			c-2.192,0-3.975,1.781-3.975,3.972c0,2.195,1.783,3.981,3.975,3.981c2.194,0,3.977-1.786,3.977-3.981
			C63.058,160.01,61.275,158.229,59.081,158.229z"/>
		<path fill="#242D3C" d="M140.922,174.182c-6.606,0-11.979-5.375-11.979-11.981c0-6.602,5.373-11.972,11.979-11.972
			c6.602,0,11.972,5.37,11.972,11.972C152.894,168.807,147.523,174.182,140.922,174.182z M140.922,158.229
			c-2.193,0-3.979,1.781-3.979,3.972c0,2.195,1.786,3.981,3.979,3.981c2.19,0,3.972-1.786,3.972-3.981
			C144.894,160.01,143.112,158.229,140.922,158.229z"/>
	</g>
	<g>
		<path fill="#FFFFFF" d="M92.664,95.217c-18.288,0-33.166-14.88-33.166-33.167c0-18.293,14.878-33.176,33.166-33.176
			c18.289,0,33.17,14.883,33.17,33.176c0,2.209-1.79,4-4,4c-2.209,0-4-1.791-4-4c0-13.881-11.29-25.176-25.17-25.176
			c-13.876,0-25.166,11.295-25.166,25.176c0,13.878,11.289,25.167,25.166,25.167c4.447,0,8.8-1.161,12.589-3.358
			c1.913-1.108,4.358-0.456,5.466,1.453c1.109,1.911,0.459,4.359-1.453,5.466C104.26,93.683,98.519,95.217,92.664,95.217z"/>
		<path fill="#FFFFFF" d="M92.664,80.638c-10.242,0-18.577-8.334-18.577-18.582c0-10.25,8.334-18.589,18.577-18.589
			c10.253,0,18.596,8.339,18.596,18.589C111.26,72.303,102.917,80.638,92.664,80.638z M92.664,51.467
			c-5.833,0-10.577,4.75-10.577,10.589c0,5.834,4.744,10.582,10.577,10.582c5.842,0,10.596-4.747,10.596-10.582
			C103.26,56.217,98.506,51.467,92.664,51.467z"/>
		<path fill="#FFFFFF" d="M114.544,80.638c-3.013,0-5.841-1.172-7.968-3.297c-2.133-2.104-3.316-4.949-3.316-7.991v-7.294
			c0-2.209,1.79-4,4-4c2.209,0,4,1.791,4,4v7.294c0,0.626,0.165,1.538,0.956,2.315c1.278,1.281,3.443,1.238,4.686,0.008
			c0.593-0.598,0.933-1.433,0.933-2.323v-7.294c0-2.209,1.791-4,4-4c2.21,0,4,1.791,4,4v7.294c0,3.012-1.162,5.845-3.273,7.977
			C120.4,79.47,117.563,80.638,114.544,80.638z"/>
	</g>
</g>
</svg>
