<?xml version="1.0" encoding="utf-8"?>
<!-- Generator: Adobe Illustrator 25.2.1, SVG Export Plug-In . SVG Version: 6.00 Build 0)  -->
<svg version="1.1" id="Layer_1" xmlns="http://www.w3.org/2000/svg" xmlns:xlink="http://www.w3.org/1999/xlink" x="0px" y="0px"
	 viewBox="0 0 168.3 189.8" style="enable-background:new 0 0 168.3 189.8;" xml:space="preserve">
<style type="text/css">
	.st0{fill:#59C8DE;}
	.st1{fill:#27303D;}
	.st2{fill:#FFFFFF;}
	.st3{fill:#EDEDEE;}
</style>
<g>
	<g>
		<g>
			<path class="st0" d="M168.3,146.2v-7.1L158,137c-0.4-2.7-1.2-5.5-2.1-8l7.9-6.9l-3.6-6.2l-10,3.4c-1.7-2.1-3.7-4.1-5.9-5.9
				l3.4-10l-6.2-3.6l-6.9,7.9c-2.5-0.9-5.1-1.7-7.9-2.1l-2.1-10.3h-7.1l-2.1,10.3c-2.7,0.4-5.5,1.2-8,2.1l-6.9-7.9l-6.2,3.6
				l3.5,10.1c-2.1,1.7-4.1,3.7-5.8,5.8l-10-3.4l-3.6,6.2l7.9,6.9c-0.9,2.5-1.7,5.1-2.1,7.9L73.9,139v7.1l10.3,2.1
				c0.4,2.7,1.2,5.5,2.1,8l-7.9,6.9l3.6,6.2l10-3.4c1.7,2.1,3.7,4.1,5.8,5.8l-3.4,10l6.2,3.6l6.9-7.9c2.5,0.9,5.1,1.7,8,2.1
				l2.1,10.3h7.1l2.1-10.3c2.7-0.4,5.5-1.2,8-2.1l6.9,7.9l6.2-3.6l-3.4-10c2.2-1.7,4.1-3.7,5.9-5.9l10,3.4l3.6-6.2l-7.9-6.9
				c0.9-2.5,1.7-5.1,2.1-8L168.3,146.2z M121,162.3c-10.8,0-19.6-8.8-19.6-19.6s8.8-19.6,19.6-19.6c10.9,0,19.6,8.8,19.6,19.6
				C140.7,153.5,132,162.3,121,162.3z"/>
			<path class="st1" d="M121,166c-12.8,0-23.3-10.5-23.3-23.4c0-12.8,10.5-23.3,23.3-23.3s23.3,10.5,23.3,23.3
				C144.4,155.5,134,166,121,166z"/>
			<g>
				<g>
					<rect x="21.7" y="42.3" class="st1" width="20.9" height="7.4"/>
					<rect x="42.7" y="68.8" class="st1" width="22.5" height="7.4"/>
					<rect x="42.7" y="82.1" class="st1" width="22.5" height="7.4"/>
					<rect x="42.7" y="121.9" class="st1" width="22.5" height="7.4"/>
					<rect x="42.7" y="135.2" class="st1" width="22.5" height="7.4"/>
					<rect x="21.7" y="55.6" class="st1" width="43.3" height="7.4"/>
					<rect x="21.7" y="95.4" class="st1" width="20.9" height="7.4"/>
					<rect x="21.7" y="108.6" class="st1" width="43.3" height="7.4"/>
					<rect x="73.9" y="68.8" class="st1" width="22.5" height="7.4"/>
					<rect x="73.9" y="82.1" class="st1" width="43.3" height="7.4"/>
					<rect x="73.9" y="55.6" class="st1" width="22.5" height="7.4"/>
				</g>
				<path class="st1" d="M138.9,30.5H0V0h138.9V30.5L138.9,30.5z M7.4,23.2h124.3V7.4H7.4V23.2z"/>
				<g>
					<rect x="14.6" y="11.6" class="st1" width="7.4" height="7.4"/>
					<rect x="29.2" y="11.6" class="st1" width="7.4" height="7.4"/>
					<rect x="43.8" y="11.6" class="st1" width="7.4" height="7.4"/>
				</g>
				<polygon class="st1" points="65,161.6 0,161.6 0,23.2 138.9,23.2 138.9,89.4 131.5,89.4 131.5,30.5 7.4,30.5 7.4,154.2 
					65,154.2 				"/>
			</g>
		</g>
	</g>
</g>
<g>
	<path class="st2" d="M131.7,132.7L131.7,132.7c0-0.2-0.2-0.3-0.3-0.3c-0.1,0-2.6-0.2-2.6-0.2s-1.7-1.7-1.9-1.9
		c-0.2-0.2-0.6-0.1-0.7-0.1c0,0-0.4,0.1-1,0.3c-0.6-1.7-1.6-3.2-3.4-3.2c0,0-0.1,0-0.2,0c-0.5-0.7-1.1-1-1.7-1
		c-4.1,0-6.1,5.2-6.8,7.8c-1.6,0.5-2.8,0.9-2.9,0.9c-0.9,0.3-0.9,0.3-1,1.2c-0.1,0.6-2.4,18.9-2.4,18.9l18.3,3.4l9.9-2.2
		C135.2,156.5,131.8,132.9,131.7,132.7z M121.2,128.7c0.3,0.6,0.4,1.6,0.4,2.8c0,0.1,0,0.1,0,0.2c-1,0.3-2.1,0.7-3.2,1
		C119.1,130.3,120.2,129.2,121.2,128.7L121.2,128.7z M120,127.6L120,127.6c0.2,0,0.4,0.1,0.5,0.2c-1.3,0.6-2.8,2.2-3.4,5.3l-2.5,0.8
		C115.3,131.5,117,127.6,120,127.6z M121.9,138L121.9,138l-1.2,3.6c0,0-1.1-0.6-2.4-0.6c-1.9,0-2,1.2-2,1.5c0,1.7,4.3,2.3,4.3,6.2
		c0,3.1-1.9,5-4.6,5c-3.1,0-4.8-2-4.8-2l0.8-2.8c0,0,1.7,1.4,3.1,1.4c0.9,0,1.3-0.7,1.3-1.2c0-2.2-3.6-2.3-3.6-5.8
		c0-3,2.2-5.9,6.5-5.9C121.1,137.5,121.9,138,121.9,138L121.9,138L121.9,138z M122.7,131.4c0-0.1,0-0.2,0-0.3c0-1-0.1-1.9-0.4-2.5
		c0.9,0.1,1.5,1.2,1.9,2.4L122.7,131.4z"/>
	<path class="st3" d="M131.5,132.5c-0.1,0-2.6-0.2-2.6-0.2s-1.7-1.7-1.9-1.9c-0.1-0.1-0.2-0.1-0.3-0.1l-1.4,28.4l9.9-2.2
		c0,0-3.5-23.6-3.5-23.8C131.7,132.6,131.6,132.5,131.5,132.5"/>
</g>
</svg>
