<?xml version="1.0" encoding="utf-8"?>
<!-- Generator: Adobe Illustrator 26.0.3, SVG Export Plug-In . SVG Version: 6.00 Build 0)  -->
<svg version="1.1" id="Layer_1" xmlns="http://www.w3.org/2000/svg" xmlns:xlink="http://www.w3.org/1999/xlink" x="0px" y="0px"
	 viewBox="0 0 2187.1 2487.1" style="enable-background:new 0 0 2187.1 2487.1;" xml:space="preserve">
<style type="text/css">
	.st0{fill:#95BF46;}
	.st1{fill:#5E8E3E;}
	.st2{fill:#FFFFFF;}
</style>
<path class="st0" d="M1915.5,484.3c-1.7-12.5-12.7-19.4-21.7-20.2c-9-0.8-200.2-14.9-200.2-14.9s-132.8-131.8-147.3-146.4
	c-14.6-14.6-43.1-10.1-54.1-6.9c-1.6,0.5-29,8.9-74.3,22.9c-44.3-127.6-122.6-244.9-260.3-244.9c-3.8,0-7.7,0.2-11.6,0.4
	C1106.8,22.5,1058.3,0,1016.4,0c-320.8,0-474,401-522.1,604.8c-124.6,38.6-213.2,66.1-224.5,69.6c-69.6,21.8-71.8,24-80.9,89.6
	C182,813.6,0,2221.4,0,2221.4l1418.5,265.8l768.6-166.3C2187.1,2320.9,1917.3,496.8,1915.5,484.3L1915.5,484.3z M1339.5,343.1
	l-120,37.1c0-8.5,0.1-16.8,0.1-25.9c0-79.3-11-143.2-28.7-193.8C1261.8,169.4,1309.1,250.2,1339.5,343.1z M1102.9,176.2
	c19.7,49.4,32.6,120.4,32.6,216.1c0,4.9,0,9.4-0.1,13.9c-78.1,24.2-162.9,50.4-247.9,76.8C935.2,298.8,1024.6,209.8,1102.9,176.2
	L1102.9,176.2z M1007.6,86c13.8,0,27.8,4.7,41.1,13.9c-102.8,48.4-213,170.2-259.5,413.5l-195.9,60.7
	C647.7,388.5,777.2,86,1007.6,86L1007.6,86z"/>
<path class="st1" d="M1893.8,464.1c-9-0.8-200.2-14.9-200.2-14.9s-132.8-131.8-147.3-146.4c-5.5-5.4-12.8-8.2-20.5-9.4
	l-107.3,2193.8l768.5-166.2c0,0-269.8-1824.1-271.5-1836.6C1913.8,471.8,1902.9,464.8,1893.8,464.1"/>
<path class="st2" d="M1157.6,888.7l-94.8,281.9c0,0-83-44.3-184.8-44.3c-149.2,0-156.7,93.6-156.7,117.2
	c0,128.7,335.6,178.1,335.6,479.7c0,237.3-150.5,390.1-353.4,390.1c-243.5,0-368-151.5-368-151.5l65.2-215.4
	c0,0,128,109.9,236,109.9c70.6,0,99.3-55.6,99.3-96.2c0-167.9-275.3-175.4-275.3-451.4c0-232.3,166.7-457,503.2-457
	C1093.5,851.6,1157.6,888.8,1157.6,888.7"/>
</svg>
