<?xml version="1.0" encoding="utf-8"?>
<!-- Generator: Adobe Illustrator 25.2.1, SVG Export Plug-In . SVG Version: 6.00 Build 0)  -->
<svg version="1.1" id="Layer_1" xmlns="http://www.w3.org/2000/svg" xmlns:xlink="http://www.w3.org/1999/xlink" x="0px" y="0px"
	 viewBox="0 0 188 154.3" style="enable-background:new 0 0 188 154.3;" xml:space="preserve">
<style type="text/css">
	.st0{fill:#F26337;}
	.st1{fill:#252E3C;}
	.st2{fill:#FFFFFF;}
	.st3{fill:#59C8DE;}
</style>
<g>
	<g>
		<g>
			<path class="st0" d="M45.4,77.1c-23.3,0-42.1-6.4-42.1-14.3v25.9c0,7.9,18.9,14.3,42.1,14.3c23.3,0,42.1-6.4,42.1-14.3V62.9
				C87.5,70.8,68.7,77.1,45.4,77.1z"/>
			<path class="st1" d="M45.4,54.5C22.8,54.5,0,48.4,0,37c0-11.5,22.8-17.5,45.4-17.5s45.4,6,45.4,17.5
				C90.8,48.4,67.9,54.5,45.4,54.5z M45.4,25.9c-23.7,0-38.9,6.5-38.9,11c0,4.4,15.5,11,38.9,11s38.9-6.6,38.9-11
				C84.3,32.5,69.1,25.9,45.4,25.9z"/>
			<path class="st1" d="M45.4,80.4C22.8,80.4,0,74.4,0,62.9V37h6.5v25.9c0,4.5,15.2,11,38.9,11s38.9-6.5,38.9-11V37h6.5v25.9
				C90.8,74.4,67.9,80.4,45.4,80.4z"/>
			<path class="st1" d="M45.4,106.3c-22.6,0-45.4-6-45.4-17.5V62.9h6.5v25.9c0,4.5,15.2,11,38.9,11s38.9-6.5,38.9-11V62.9h6.5v25.9
				C90.8,100.3,67.9,106.3,45.4,106.3z"/>
			<path class="st1" d="M45.4,132.2c-22.6,0-45.4-6-45.4-17.5V88.8h6.5v25.9c0,4.5,15.2,11,38.9,11s38.9-6.5,38.9-11V88.8h6.5v25.9
				C90.8,126.2,67.9,132.2,45.4,132.2z"/>
			<g>
				<rect x="29.2" y="60.9" class="st1" width="6.5" height="6.5"/>
				<rect x="42.1" y="60.9" class="st1" width="6.5" height="6.5"/>
				<rect x="55.1" y="60.9" class="st1" width="6.5" height="6.5"/>
			</g>
			<g>
				<rect x="29.2" y="86.9" class="st2" width="6.5" height="6.5"/>
				<rect x="42.1" y="86.9" class="st2" width="6.5" height="6.5"/>
				<rect x="55.1" y="86.9" class="st2" width="6.5" height="6.5"/>
			</g>
			<g>
				<rect x="29.2" y="112.8" class="st1" width="6.5" height="6.5"/>
				<rect x="42.1" y="112.8" class="st1" width="6.5" height="6.5"/>
				<rect x="55.1" y="112.8" class="st1" width="6.5" height="6.5"/>
			</g>
		</g>
		<g>
			<rect x="97.2" y="99.8" class="st1" width="13" height="6.5"/>
			<rect x="97.2" y="48" class="st1" width="13" height="6.5"/>
			<rect x="110.2" y="73.9" class="st1" width="13" height="6.5"/>
			<polygon class="st1" points="123.2,134.9 107,134.9 107,19.5 123.2,19.5 123.2,25.9 113.4,25.9 113.4,128.4 123.2,128.4 			"/>
		</g>
		<g>
			<rect x="132.9" y="5.9" class="st3" width="51.9" height="33.5"/>
			<g>
				<rect x="168.6" y="19.5" class="st1" width="16.2" height="6.5"/>
			</g>
			<path class="st1" d="M181.5,45.4h-45.4c-1.7,0-3.4-0.7-4.6-1.9c-1.2-1.2-1.9-2.9-1.9-4.6V6.5c0-1.7,0.7-3.4,1.9-4.6
				c1.2-1.2,2.9-1.9,4.6-1.9h45.4c1.7,0,3.4,0.7,4.6,1.9c1.2,1.2,1.9,2.9,1.9,4.6v32.4c0,1.7-0.7,3.4-1.9,4.6
				C184.9,44.7,183.2,45.4,181.5,45.4z M136.1,6.5v32.4l45.4,0c0,0,0,0,0,0l0-32.4H136.1z"/>
		</g>
		<g>
			<rect x="132.9" y="60.1" class="st3" width="51.9" height="34.2"/>
			<g>
				<rect x="168.6" y="73.9" class="st1" width="16.2" height="6.5"/>
			</g>
			<path class="st1" d="M181.5,99.8h-45.4c-1.7,0-3.4-0.7-4.6-1.9c-1.2-1.2-1.9-2.9-1.9-4.6V60.9c0-1.7,0.7-3.4,1.9-4.6
				c1.2-1.2,2.9-1.9,4.6-1.9h45.4c1.7,0,3.4,0.7,4.6,1.9c1.2,1.2,1.9,2.9,1.9,4.6v32.4c0,1.7-0.7,3.4-1.9,4.6
				C184.9,99.2,183.2,99.8,181.5,99.8z M136.1,60.9v32.4l45.4,0c0,0,0,0,0,0l0-32.4L136.1,60.9z"/>
		</g>
		<g>
			<rect x="132.9" y="114.7" class="st3" width="51.9" height="33.1"/>
			<g>
				<rect x="168.6" y="128.4" class="st1" width="16.2" height="6.5"/>
			</g>
			<path class="st1" d="M181.5,154.3h-45.4c-1.7,0-3.4-0.7-4.6-1.9c-1.2-1.2-1.9-2.9-1.9-4.6v-32.4c0-1.7,0.7-3.4,1.9-4.6
				c1.2-1.2,2.9-1.9,4.6-1.9h45.4c1.7,0,3.4,0.7,4.6,1.9c1.2,1.2,1.9,2.9,1.9,4.6v32.4c0,1.7-0.7,3.4-1.9,4.6
				C184.9,153.6,183.2,154.3,181.5,154.3z M181.5,115.4l-45.4,0v32.4h45.4c0,0,0,0,0,0L181.5,115.4z"/>
		</g>
	</g>
	<g>
		<path class="st2" d="M161.2,13.7L161.2,13.7c0-0.1-0.1-0.2-0.2-0.2c-0.1,0-2.2-0.2-2.2-0.2s-1.4-1.4-1.6-1.6
			c-0.2-0.2-0.5-0.1-0.6-0.1c0,0-0.3,0.1-0.8,0.2c-0.5-1.4-1.3-2.6-2.8-2.6c0,0-0.1,0-0.1,0c-0.4-0.6-0.9-0.8-1.4-0.8
			c-3.5,0-5.1,4.3-5.6,6.5c-1.3,0.4-2.3,0.7-2.4,0.7c-0.7,0.2-0.8,0.3-0.9,1c-0.1,0.5-2,15.7-2,15.7l15.3,2.9l8.3-1.8
			C164.2,33.4,161.3,13.8,161.2,13.7z M152.5,10.3c0.2,0.5,0.4,1.3,0.4,2.3c0,0.1,0,0.1,0,0.1c-0.8,0.3-1.8,0.5-2.7,0.8
			C150.7,11.7,151.7,10.7,152.5,10.3L152.5,10.3z M151.5,9.4L151.5,9.4c0.1,0,0.3,0.1,0.4,0.1c-1.1,0.5-2.3,1.8-2.8,4.4l-2.1,0.7
			C147.6,12.6,149,9.4,151.5,9.4z M153.1,18L153.1,18l-1,3c0,0-0.9-0.5-2-0.5c-1.6,0-1.7,1-1.7,1.3c0,1.4,3.6,1.9,3.6,5.2
			c0,2.6-1.6,4.2-3.8,4.2c-2.6,0-4-1.6-4-1.6l0.7-2.3c0,0,1.4,1.2,2.5,1.2c0.8,0,1.1-0.6,1.1-1c0-1.8-3-1.9-3-4.9
			c0-2.5,1.8-4.9,5.4-4.9C152.4,17.6,153.1,18,153.1,18L153.1,18L153.1,18z M153.8,12.5c0-0.1,0-0.2,0-0.3c0-0.9-0.1-1.5-0.3-2.1
			c0.8,0.1,1.3,1,1.6,2L153.8,12.5z"/>
		<path class="st2" d="M161,13.4c-0.1,0-2.2-0.2-2.2-0.2s-1.4-1.4-1.6-1.6c-0.1-0.1-0.1-0.1-0.2-0.1l-1.2,23.6l8.3-1.8
			c0,0-2.9-19.6-2.9-19.8C161.2,13.5,161.1,13.4,161,13.4"/>
	</g>
	<g>
		<path class="st2" d="M161.2,68.5L161.2,68.5c0-0.1-0.1-0.2-0.2-0.2c-0.1,0-2.2-0.2-2.2-0.2s-1.4-1.4-1.6-1.6
			c-0.2-0.2-0.5-0.1-0.6-0.1c0,0-0.3,0.1-0.8,0.2c-0.5-1.4-1.3-2.6-2.8-2.6c0,0-0.1,0-0.1,0c-0.4-0.6-0.9-0.8-1.4-0.8
			c-3.5,0-5.1,4.3-5.6,6.5c-1.3,0.4-2.3,0.7-2.4,0.7c-0.7,0.2-0.8,0.3-0.9,1c-0.1,0.5-2,15.7-2,15.7l15.3,2.9l8.3-1.8
			C164.2,88.2,161.3,68.6,161.2,68.5z M152.5,65.2c0.2,0.5,0.4,1.3,0.4,2.3c0,0.1,0,0.1,0,0.1c-0.8,0.3-1.8,0.5-2.7,0.8
			C150.7,66.5,151.7,65.5,152.5,65.2L152.5,65.2z M151.5,64.2L151.5,64.2c0.1,0,0.3,0.1,0.4,0.1c-1.1,0.5-2.3,1.8-2.8,4.4l-2.1,0.7
			C147.6,67.4,149,64.2,151.5,64.2z M153.1,72.8L153.1,72.8l-1,3c0,0-0.9-0.5-2-0.5c-1.6,0-1.7,1-1.7,1.3c0,1.4,3.6,1.9,3.6,5.2
			c0,2.6-1.6,4.2-3.8,4.2c-2.6,0-4-1.6-4-1.6l0.7-2.3c0,0,1.4,1.2,2.5,1.2c0.8,0,1.1-0.6,1.1-1c0-1.8-3-1.9-3-4.9
			c0-2.5,1.8-4.9,5.4-4.9C152.4,72.4,153.1,72.8,153.1,72.8L153.1,72.8L153.1,72.8z M153.8,67.4c0-0.1,0-0.2,0-0.3
			c0-0.9-0.1-1.5-0.3-2.1c0.8,0.1,1.3,1,1.6,2L153.8,67.4z"/>
		<path class="st2" d="M161,68.3c-0.1,0-2.2-0.2-2.2-0.2s-1.4-1.4-1.6-1.6c-0.1-0.1-0.1-0.1-0.2-0.1L155.9,90l8.3-1.8
			c0,0-2.9-19.6-2.9-19.8C161.2,68.3,161.1,68.3,161,68.3"/>
	</g>
	<g>
		<path class="st2" d="M161.2,123.1L161.2,123.1c0-0.1-0.1-0.2-0.2-0.2c-0.1,0-2.2-0.2-2.2-0.2s-1.4-1.4-1.6-1.6
			c-0.2-0.2-0.5-0.1-0.6-0.1c0,0-0.3,0.1-0.8,0.2c-0.5-1.4-1.3-2.6-2.8-2.6c0,0-0.1,0-0.1,0c-0.4-0.6-0.9-0.8-1.4-0.8
			c-3.5,0-5.1,4.3-5.6,6.5c-1.3,0.4-2.3,0.7-2.4,0.7c-0.7,0.2-0.8,0.3-0.9,1c-0.1,0.5-2,15.7-2,15.7l15.3,2.9l8.3-1.8
			C164.2,142.8,161.3,123.2,161.2,123.1z M152.5,119.8c0.2,0.5,0.4,1.3,0.4,2.3c0,0.1,0,0.1,0,0.1c-0.8,0.3-1.8,0.5-2.7,0.8
			C150.7,121.1,151.7,120.1,152.5,119.8L152.5,119.8z M151.5,118.8L151.5,118.8c0.1,0,0.3,0.1,0.4,0.1c-1.1,0.5-2.3,1.8-2.8,4.4
			L147,124C147.6,122,149,118.8,151.5,118.8z M153.1,127.4L153.1,127.4l-1,3c0,0-0.9-0.5-2-0.5c-1.6,0-1.7,1-1.7,1.3
			c0,1.4,3.6,1.9,3.6,5.2c0,2.6-1.6,4.2-3.8,4.2c-2.6,0-4-1.6-4-1.6l0.7-2.3c0,0,1.4,1.2,2.5,1.2c0.8,0,1.1-0.6,1.1-1
			c0-1.8-3-1.9-3-4.9c0-2.5,1.8-4.9,5.4-4.9C152.4,127,153.1,127.4,153.1,127.4L153.1,127.4L153.1,127.4z M153.8,122
			c0-0.1,0-0.2,0-0.3c0-0.9-0.1-1.5-0.3-2.1c0.8,0.1,1.3,1,1.6,2L153.8,122z"/>
		<path class="st2" d="M161,122.9c-0.1,0-2.2-0.2-2.2-0.2s-1.4-1.4-1.6-1.6c-0.1-0.1-0.1-0.1-0.2-0.1l-1.2,23.6l8.3-1.8
			c0,0-2.9-19.6-2.9-19.8C161.2,122.9,161.1,122.9,161,122.9"/>
	</g>
</g>
</svg>
