<?xml version="1.0" encoding="utf-8"?>
<!-- Generator: Adobe Illustrator 25.2.1, SVG Export Plug-In . SVG Version: 6.00 Build 0)  -->
<svg version="1.1" id="Layer_1" xmlns="http://www.w3.org/2000/svg" xmlns:xlink="http://www.w3.org/1999/xlink" x="0px" y="0px"
	 viewBox="0 0 190.3 163.7" style="enable-background:new 0 0 190.3 163.7;" xml:space="preserve">
<style type="text/css">
	.st0{fill:#F26337;}
	.st1{fill:#252E3C;}
	.st2{fill:#59C8DE;}
	.st3{fill:#FFFFFF;}
	.st4{fill:#EDEDEE;}
</style>
<g>
	<g>
		<g>
			<rect x="70.2" y="55.2" class="st0" width="18.4" height="7"/>
			<rect x="88.6" y="79.2" class="st1" width="19.8" height="7"/>
			<rect x="88.6" y="91.3" class="st1" width="19.8" height="7"/>
			<rect x="88.6" y="127.4" class="st1" width="19.8" height="7"/>
			<rect x="88.6" y="139.4" class="st1" width="19.8" height="7"/>
			<rect x="70.2" y="67.2" class="st2" width="38.2" height="7"/>
			<rect x="70.2" y="103.3" class="st0" width="18.4" height="7"/>
			<rect x="70.2" y="115.3" class="st2" width="38.2" height="7"/>
			<rect x="116.2" y="79.2" class="st0" width="19.8" height="7"/>
			<rect x="116.2" y="91.3" class="st1" width="38.2" height="7"/>
			<rect x="116.2" y="127.4" class="st0" width="19.8" height="7"/>
			<rect x="116.2" y="139.4" class="st1" width="38.2" height="7"/>
			<rect x="116.2" y="67.2" class="st1" width="19.8" height="7"/>
			<rect x="116.2" y="115.3" class="st1" width="19.8" height="7"/>
		</g>
		<g>
			<path class="st1" d="M175.5,163.7H0V37.8h175.5V163.7z M7,156.7h161.5V44.9H7V156.7z"/>
			<path class="st1" d="M175.5,44.9H0V16.8h175.5V44.9z M7,37.8h161.5v-14H7V37.8z"/>
			<rect x="10.5" y="27.3" class="st1" width="7" height="7"/>
			<rect x="24.6" y="27.3" class="st1" width="7" height="7"/>
			<rect x="38.6" y="27.3" class="st1" width="7" height="7"/>
			<rect x="49.1" y="41.4" class="st1" width="7" height="118.9"/>
		</g>
		<g>
			<rect x="14" y="55.2" class="st2" width="28.1" height="31.1"/>
			<rect x="14" y="91.3" class="st1" width="28.1" height="7"/>
			<rect x="14" y="103.3" class="st1" width="28.1" height="7"/>
			<rect x="14" y="115.3" class="st1" width="28.1" height="7"/>
			<rect x="14" y="127.4" class="st1" width="28.1" height="7"/>
		</g>
	</g>
	<circle class="st0" cx="159.5" cy="30.8" r="30.8"/>
	<g>
		<path class="st3" d="M173.1,18.3L173.1,18.3c0-0.2-0.2-0.3-0.4-0.3c-0.1,0-3.3-0.2-3.3-0.2s-2.2-2.2-2.4-2.4
			c-0.2-0.2-0.7-0.2-0.9-0.1c0,0-0.5,0.1-1.2,0.4c-0.7-2.1-2-4-4.3-4c-0.1,0-0.1,0-0.2,0c-0.6-0.9-1.4-1.2-2.1-1.2
			c-5.3,0-7.8,6.6-8.6,10c-2.1,0.6-3.5,1.1-3.7,1.2c-1.1,0.4-1.2,0.4-1.3,1.5c-0.1,0.8-3.1,24.1-3.1,24.1l23.4,4.4l12.7-2.7
			C177.6,48.6,173.1,18.5,173.1,18.3z M159.7,13.2c0.3,0.8,0.5,2,0.5,3.6c0,0.1,0,0.2,0,0.2c-1.3,0.4-2.7,0.8-4.1,1.3
			C156.9,15.2,158.4,13.8,159.7,13.2L159.7,13.2z M158.1,11.7L158.1,11.7c0.2,0,0.5,0.1,0.7,0.2c-1.7,0.8-3.5,2.8-4.3,6.8l-3.2,1
			C152.2,16.7,154.3,11.7,158.1,11.7z M160.6,25L160.6,25l-1.6,4.7c0,0-1.4-0.7-3.1-0.7c-2.5,0-2.6,1.5-2.6,1.9
			c0,2.1,5.5,2.9,5.5,7.9c0,3.9-2.5,6.4-5.8,6.4c-4,0-6.1-2.5-6.1-2.5l1.1-3.6c0,0,2.1,1.8,3.9,1.8c1.2,0,1.6-0.9,1.6-1.6
			c0-2.8-4.5-2.9-4.5-7.5c0-3.8,2.8-7.5,8.3-7.5C159.5,24.4,160.6,25,160.6,25L160.6,25L160.6,25z M161.6,16.6c0-0.1,0-0.3,0-0.4
			c0-1.3-0.2-2.4-0.5-3.2c1.2,0.1,2,1.5,2.5,3L161.6,16.6z"/>
		<path class="st4" d="M172.7,18c-0.1,0-3.3-0.2-3.3-0.2s-2.2-2.2-2.4-2.4c-0.1-0.1-0.2-0.1-0.3-0.2l-1.8,36.2l12.7-2.7
			c0,0-4.5-30.1-4.5-30.3C173.1,18.1,172.9,18,172.7,18"/>
	</g>
</g>
</svg>
