<?xml version="1.0" encoding="utf-8"?>
<!-- Generator: Adobe Illustrator 16.0.0, SVG Export Plug-In . SVG Version: 6.00 Build 0)  -->
<!DOCTYPE svg PUBLIC "-//W3C//DTD SVG 1.1//EN" "http://www.w3.org/Graphics/SVG/1.1/DTD/svg11.dtd">
<svg version="1.1" id="Layer_1" xmlns="http://www.w3.org/2000/svg" xmlns:xlink="http://www.w3.org/1999/xlink" x="0px" y="0px"
	 width="200px" height="200px" viewBox="0 0 200 200" enable-background="new 0 0 200 200" xml:space="preserve">
<g>
	<g>
		<path fill="#242D3C" d="M102.65,111.409c-8.346,0-15.135-6.791-15.135-15.135s6.789-15.13,15.135-15.13
			c8.343,0,15.129,6.786,15.129,15.13S110.993,111.409,102.65,111.409z M102.65,88.835c-4.104,0-7.443,3.337-7.443,7.438
			c0,4.103,3.338,7.443,7.443,7.443c4.1,0,7.437-3.34,7.437-7.443C110.087,92.172,106.75,88.835,102.65,88.835z"/>
		<path fill="#242D3C" d="M124.188,131.068h-7.692c0-7.634-6.211-13.847-13.846-13.847c-7.635,0-13.846,6.213-13.846,13.847h-7.692
			c0-11.877,9.662-21.539,21.539-21.539C114.526,109.529,124.188,119.191,124.188,131.068z"/>
	</g>
	<path fill="#F96232" d="M58.08,36.698v126.634h89.141V36.698H58.08z M102.65,130.015c-16.569,0-30-13.431-30-30s13.431-30,30-30
		c16.568,0,30,13.431,30,30S119.219,130.015,102.65,130.015z"/>
	<g>
		<rect x="98.804" y="18.349" fill="#242D3C" width="7.692" height="7.692"/>
		<rect x="86.241" y="173.959" fill="#242D3C" width="32.818" height="7.692"/>
		<path fill="#242D3C" d="M147.434,200h-89.56c-9.689,0-17.57-7.876-17.57-17.557v-15.407H58.08v-30.77H40.304V17.574
			C40.304,7.883,48.185,0,57.874,0h89.56c9.685,0,17.563,7.883,17.563,17.574v164.87C164.997,192.124,157.118,200,147.434,200z
			 M47.996,174.729v7.715c0,5.438,4.432,9.864,9.878,9.864h89.56c5.443,0,9.871-4.426,9.871-9.864V17.574
			c0-5.449-4.428-9.881-9.871-9.881h-89.56c-5.446,0-9.878,4.432-9.878,9.881v111h17.777v46.154H47.996z"/>
	</g>
	<g>
		<path fill="#242D3C" d="M65.772,174.729H4.234v-46.154h61.539V174.729z M11.926,167.036H58.08v-30.77H11.926V167.036z"/>
		<rect x="22.085" y="154.216" fill="#242D3C" width="12.917" height="7.692"/>
		<rect x="22.085" y="141.395" fill="#242D3C" width="25.837" height="7.692"/>
	</g>
	<g>
		<rect x="188.074" y="63.621" fill="#242D3C" width="7.692" height="7.692"/>
		<path fill="#242D3C" d="M180.382,71.313h-7.692v-7.692h7.692V71.313z M149.612,71.313h-7.692v-7.692h7.692V71.313z"/>
		<rect x="126.535" y="63.621" fill="#242D3C" width="7.692" height="7.692"/>
		<rect x="126.535" y="48.236" fill="#242D3C" width="7.692" height="7.692"/>
		<rect x="126.535" y="32.852" fill="#242D3C" width="7.692" height="7.692"/>
		<path fill="#242D3C" d="M180.382,40.544h-7.692v-7.692h7.692V40.544z M149.612,40.544h-7.692v-7.692h7.692V40.544z"/>
		<rect x="188.074" y="32.852" fill="#242D3C" width="7.692" height="7.692"/>
		<rect x="188.074" y="48.236" fill="#242D3C" width="7.692" height="7.692"/>
	</g>
</g>
</svg>
