<?xml version="1.0" encoding="utf-8"?>
<!-- Generator: Adobe Illustrator 16.0.0, SVG Export Plug-In . SVG Version: 6.00 Build 0)  -->
<!DOCTYPE svg PUBLIC "-//W3C//DTD SVG 1.1//EN" "http://www.w3.org/Graphics/SVG/1.1/DTD/svg11.dtd">
<svg version="1.1" id="Layer_1" xmlns="http://www.w3.org/2000/svg" xmlns:xlink="http://www.w3.org/1999/xlink" x="0px" y="0px"
	 width="200px" height="200px" viewBox="0 0 200 200" enable-background="new 0 0 200 200" xml:space="preserve">
<g>
	<path fill="#F96232" d="M192.604,28.025c-2.213-1.556-4.941-1.834-7.307-0.986l-33.43,12.004v121.905l33.43,12.003
		c2.365,0.851,5.094,0.57,7.307-0.985c2.212-1.557,3.396-4.03,3.396-6.543V34.569C196,32.055,194.815,29.581,192.604,28.025z"/>
	<g>
		<path fill="#242D3C" d="M188.008,177.423c-1.389,0-2.756-0.237-4.064-0.707L35.631,123.458l-25.009,13.506
			c-2.199,1.185-4.972,1.122-7.109-0.151C1.347,135.523,0,133.154,0,130.63V69.359c0-2.522,1.345-4.891,3.513-6.185
			c2.144-1.28,4.926-1.334,7.112-0.148l25.006,13.505l148.314-53.256c3.644-1.31,7.789-0.753,10.959,1.478
			c3.191,2.244,5.096,5.914,5.096,9.816v130.854c0,3.902-1.904,7.57-5.096,9.814C192.872,176.667,190.486,177.423,188.008,177.423z
			 M34.972,114.72l1.682,0.605l149.995,53.862c1.211,0.433,2.592,0.256,3.653-0.494c1.063-0.748,1.698-1.97,1.698-3.271V34.569
			c0-1.302-0.635-2.523-1.698-3.272c-1.062-0.746-2.442-0.928-3.655-0.492L34.975,85.269L8,70.702v58.585L34.972,114.72z"/>
		
			<rect x="75.591" y="54.337" transform="matrix(0.3379 0.9412 -0.9412 0.3379 129.8674 -20.6204)" fill="#242D3C" width="7.999" height="55.32"/>
		<path fill="#242D3C" d="M97.375,169.228c-1.942,0-3.856-0.334-5.69-0.993l-37.209-13.362c-4.224-1.518-7.603-4.588-9.516-8.646
			c-1.916-4.06-2.134-8.622-0.616-12.844l4.862-13.552l68.835,24.722l-4.863,13.549c-1.519,4.227-4.59,7.606-8.648,9.519
			C102.269,168.688,99.861,169.228,97.375,169.228z M54.034,130.065l-2.162,6.021c-0.794,2.213-0.682,4.601,0.322,6.727
			c1.003,2.125,2.773,3.734,4.986,4.53l37.211,13.362c2.194,0.789,4.609,0.675,6.729-0.322c2.125-1.001,3.734-2.773,4.529-4.987
			l2.161-6.019L54.034,130.065z"/>
		<rect x="31.302" y="80.9" fill="#242D3C" width="8" height="38.189"/>
	</g>
</g>
</svg>
