<?xml version="1.0" encoding="utf-8"?>
<!-- Generator: Adobe Illustrator 16.0.0, SVG Export Plug-In . SVG Version: 6.00 Build 0)  -->
<!DOCTYPE svg PUBLIC "-//W3C//DTD SVG 1.1//EN" "http://www.w3.org/Graphics/SVG/1.1/DTD/svg11.dtd">
<svg version="1.1" id="Layer_1" xmlns="http://www.w3.org/2000/svg" xmlns:xlink="http://www.w3.org/1999/xlink" x="0px" y="0px"
	 width="200px" height="200px" viewBox="0 0 200 200" enable-background="new 0 0 200 200" xml:space="preserve">
<g>
	<g>
		<rect x="62.5" y="62.248" fill="#F96232" width="104.644" height="75.504"/>
		<rect x="101.231" y="103.775" fill="#242D3C" width="27.182" height="7.55"/>
		<rect x="87.641" y="88.674" fill="#242D3C" width="54.363" height="7.55"/>
		<rect x="58.725" y="12.75" fill="#242D3C" width="7.55" height="174.5"/>
		<path fill="#242D3C" d="M123.516,191.025H43.624V8.975h79.892c12.664,0,24.566,4.93,33.517,13.884
			c8.954,8.952,13.887,20.855,13.887,33.517v87.248c0,12.662-4.933,24.565-13.889,33.517
			C148.082,186.095,136.18,191.025,123.516,191.025z M51.175,183.475h72.341c10.646,0,20.652-4.146,28.175-11.672
			c7.531-7.527,11.679-17.534,11.679-28.179V56.376c0-10.645-4.147-20.652-11.677-28.179c-7.524-7.526-17.53-11.672-28.177-11.672
			H51.175V183.475z"/>
	</g>
	<g>
		<path fill="#242D3C" d="M188.955,191.025c-2.957,0-5.732-1.152-7.814-3.242c-2.081-2.074-3.231-4.85-3.231-7.805v-12.584H200
			v12.584c0,2.956-1.151,5.731-3.241,7.815C194.678,189.876,191.904,191.025,188.955,191.025z M185.46,174.945v5.033
			c0,0.935,0.362,1.811,1.021,2.469c1.325,1.33,3.621,1.327,4.942,0.003c0.664-0.661,1.026-1.537,1.026-2.472v-5.033H185.46z"/>
		<polygon fill="#242D3C" points="192.784,63.802 188.955,55.332 185.125,63.802 178.244,60.694 188.955,37.004 199.665,60.694 		
			"/>
		<path fill="#242D3C" d="M196.225,174.945h-14.54c-2.085,0-3.775-1.69-3.775-3.775V62.248c0-2.085,1.69-3.775,3.775-3.775h14.54
			c2.085,0,3.775,1.69,3.775,3.775V171.17C200,173.255,198.31,174.945,196.225,174.945z M185.46,167.395h6.989V66.023h-6.989
			V167.395z"/>
	</g>
	<g>
		<path fill="#242D3C" d="M36.634,191.025H0V8.975h36.634V191.025z M7.55,183.475h21.534V16.525H7.55V183.475z"/>
		<g>
			<rect x="18.317" y="23.517" fill="#242D3C" width="14.542" height="7.551"/>
			<rect x="18.317" y="38.057" fill="#242D3C" width="14.543" height="7.55"/>
			<rect x="18.317" y="52.601" fill="#242D3C" width="14.542" height="7.55"/>
			<rect x="18.317" y="67.141" fill="#242D3C" width="14.542" height="7.55"/>
			<rect x="18.317" y="81.683" fill="#242D3C" width="14.542" height="7.55"/>
			<rect x="18.317" y="96.225" fill="#242D3C" width="14.542" height="7.551"/>
			<rect x="18.317" y="110.767" fill="#242D3C" width="14.542" height="7.551"/>
			<rect x="18.317" y="125.309" fill="#242D3C" width="14.542" height="7.551"/>
			<rect x="18.317" y="139.849" fill="#242D3C" width="14.542" height="7.551"/>
			<rect x="18.317" y="154.393" fill="#242D3C" width="14.542" height="7.55"/>
			<rect x="18.317" y="168.933" fill="#242D3C" width="14.542" height="7.551"/>
		</g>
	</g>
</g>
</svg>
