<?xml version="1.0" encoding="utf-8"?>
<!-- Generator: Adobe Illustrator 16.0.0, SVG Export Plug-In . SVG Version: 6.00 Build 0)  -->
<!DOCTYPE svg PUBLIC "-//W3C//DTD SVG 1.1//EN" "http://www.w3.org/Graphics/SVG/1.1/DTD/svg11.dtd">
<svg version="1.1" id="Layer_1" xmlns="http://www.w3.org/2000/svg" xmlns:xlink="http://www.w3.org/1999/xlink" x="0px" y="0px"
	 width="200px" height="200px" viewBox="0 0 200 200" enable-background="new 0 0 200 200" xml:space="preserve">
<g>
	<path fill="#F96232" d="M100.003,6.097C93.168,16,87.827,27.005,84.252,38.78h31.497C112.181,27.005,106.834,16,100.003,6.097z"/>
	<rect x="158.938" y="157.533" fill="#43D3E8" width="18.272" height="18.276"/>
	<rect x="22.791" y="157.533" fill="#43D3E8" width="18.27" height="18.276"/>
	<path fill="#242D3C" d="M162.402,172.963l-45.045-8.278V90.298h6.925c0,27.568,15.546,49.998,34.656,49.998h3.464V172.963z
		 M124.282,158.914l31.194,5.733v-17.623c-13.01-1.475-24.342-11.184-31.194-25.304V158.914z"/>
	<path fill="#242D3C" d="M37.598,172.963v-32.667h3.462c19.11,0,34.657-22.43,34.657-49.998h6.925v74.387L37.598,172.963z
		 M44.523,147.024v17.623l31.195-5.733v-37.193C68.863,135.838,57.533,145.55,44.523,147.024z"/>
	<path fill="#242D3C" d="M124.282,165.261H75.718V73.037c0-24.753,7.412-48.58,21.436-68.906L100.003,0l2.851,4.131
		c14.019,20.325,21.429,44.153,21.429,68.906V165.261z M82.643,158.336h34.715V73.037c0-21.604-5.986-42.458-17.354-60.637
		c-11.375,18.18-17.36,39.034-17.36,60.637V158.336z"/>
	<polygon fill="#242D3C" points="116.511,179.271 83.497,179.271 76.041,163.26 82.317,160.339 87.911,172.347 112.095,172.347 
		117.679,160.339 123.958,163.26 	"/>
	<path fill="#242D3C" d="M180.673,179.271h-25.196v-40.015c0-3.372,1.313-6.539,3.695-8.916c2.371-2.377,5.533-3.689,8.9-3.689
		c3.371,0,6.536,1.313,8.913,3.695c2.376,2.371,3.688,5.538,3.688,8.91V179.271z M162.402,172.347h11.344v-33.09
		c0-1.521-0.588-2.946-1.657-4.014c-1.073-1.076-2.498-1.667-4.017-1.667c-1.515,0-2.937,0.591-4.004,1.661
		c-1.076,1.073-1.666,2.498-1.666,4.02V172.347z"/>
	<path fill="#242D3C" d="M44.523,179.271H19.328v-40.015c0-3.369,1.307-6.536,3.683-8.913c2.383-2.38,5.548-3.692,8.913-3.692
		c3.366,0,6.53,1.313,8.913,3.692c2.376,2.377,3.686,5.544,3.686,8.913V179.271z M26.253,172.347h11.345v-33.09
		c0-1.521-0.589-2.946-1.658-4.017c-1.073-1.073-2.5-1.664-4.017-1.664c-1.515,0-2.943,0.591-4.016,1.664
		c-1.067,1.07-1.655,2.495-1.655,4.017V172.347z"/>
	<path fill="#43D3E8" d="M109.786,67.5c0,5.403-4.383,9.79-9.787,9.79c-5.407,0-9.792-4.387-9.792-9.79
		c0-5.407,4.385-9.792,9.792-9.792C105.403,57.708,109.786,62.093,109.786,67.5z"/>
	<path fill="#242D3C" d="M100,80.752c-7.307,0-13.254-5.945-13.254-13.252c0-7.308,5.947-13.254,13.254-13.254
		c7.308,0,13.251,5.946,13.251,13.254C113.251,74.807,107.308,80.752,100,80.752z M100,61.171c-3.49,0-6.329,2.838-6.329,6.329
		c0,3.487,2.839,6.326,6.329,6.326c3.488,0,6.325-2.838,6.325-6.326C106.324,64.009,103.487,61.171,100,61.171z"/>
	<g>
		<rect x="103.073" y="184.333" fill="#242D3C" width="6.925" height="15.667"/>
		<rect x="90.014" y="184.333" fill="#242D3C" width="6.925" height="15.667"/>
	</g>
	<rect x="164.609" y="184.333" fill="#242D3C" width="6.926" height="15.667"/>
	<rect x="28.461" y="184.333" fill="#242D3C" width="6.925" height="15.667"/>
	<g>
		<rect x="96.537" y="97.973" fill="#242D3C" width="6.925" height="6.924"/>
		<rect x="96.537" y="110.045" fill="#242D3C" width="6.925" height="6.925"/>
		<rect x="96.537" y="122.118" fill="#242D3C" width="6.925" height="6.925"/>
		<rect x="96.537" y="134.192" fill="#242D3C" width="6.925" height="6.925"/>
	</g>
</g>
</svg>
