<?xml version="1.0" encoding="utf-8"?>
<!-- Generator: Adobe Illustrator 16.0.0, SVG Export Plug-In . SVG Version: 6.00 Build 0)  -->
<!DOCTYPE svg PUBLIC "-//W3C//DTD SVG 1.1//EN" "http://www.w3.org/Graphics/SVG/1.1/DTD/svg11.dtd">
<svg version="1.1" id="Layer_1" xmlns="http://www.w3.org/2000/svg" xmlns:xlink="http://www.w3.org/1999/xlink" x="0px" y="0px"
	 width="200px" height="200px" viewBox="0 0 200 200" enable-background="new 0 0 200 200" xml:space="preserve">
<g>
	<g>
		<path fill="#242D3C" d="M161.988,127.867h-12.773v-7.514h5.26v-27.8c0-19.067-7.425-36.992-20.906-50.474
			c-13.482-13.482-31.408-20.906-50.474-20.906c-19.066,0-36.992,7.424-50.474,20.906C19.138,55.562,11.714,73.486,11.714,92.554
			v27.8h5.259v7.514H4.2V92.554c0-21.074,8.206-40.885,23.107-55.786C42.209,21.866,62.021,13.66,83.094,13.66
			s40.885,8.207,55.787,23.108c14.901,14.901,23.107,34.712,23.107,55.786V127.867z"/>
		<path fill="#242D3C" d="M124.004,51.644c-10.929-10.927-25.457-16.945-40.91-16.945s-29.981,6.017-40.91,16.944l-5.313-5.313
			c12.348-12.346,28.762-19.145,46.223-19.145c17.46,0,33.876,6.799,46.222,19.146L124.004,51.644z"/>
		<path fill="#242D3C" d="M131.182,155.669c-3.813,0-7.399-1.485-10.095-4.181c-2.696-2.696-4.181-6.281-4.181-10.096V106.83
			c0-3.815,1.484-7.401,4.181-10.095c2.697-2.696,6.282-4.181,10.095-4.181s7.398,1.485,10.096,4.183
			c2.695,2.693,4.181,6.278,4.181,10.094v9.768h-7.514v-9.768c0-1.807-0.703-3.505-1.979-4.78c-1.278-1.278-2.977-1.982-4.783-1.982
			s-3.504,0.705-4.782,1.981c-1.277,1.276-1.979,2.975-1.979,4.781v34.563c0,1.807,0.702,3.506,1.979,4.783
			c1.276,1.276,2.976,1.979,4.782,1.979s3.506-0.703,4.783-1.979c1.276-1.277,1.979-2.977,1.979-4.783v-9.768h7.514v9.768
			c0,3.814-1.485,7.399-4.181,10.096C138.581,154.184,134.996,155.669,131.182,155.669z"/>
		<path fill="#242D3C" d="M141.701,135.381c-6.215,0-11.271-5.056-11.271-11.271c0-6.214,5.056-11.27,11.271-11.27
			s11.271,5.056,11.271,11.27C152.972,130.325,147.916,135.381,141.701,135.381z M141.701,120.354c-2.072,0-3.757,1.685-3.757,3.756
			s1.685,3.757,3.757,3.757s3.757-1.686,3.757-3.757S143.773,120.354,141.701,120.354z"/>
		<path fill="#242D3C" d="M35.006,155.669c-3.814,0-7.399-1.485-10.095-4.181c-2.696-2.696-4.181-6.281-4.181-10.096v-9.768h7.514
			v9.768c0,1.807,0.703,3.506,1.979,4.783c1.277,1.276,2.976,1.979,4.783,1.979s3.506-0.703,4.783-1.979
			c1.277-1.277,1.979-2.977,1.979-4.783V106.83c0-1.807-0.703-3.505-1.979-4.78c-1.278-1.278-2.976-1.982-4.783-1.982
			s-3.504,0.705-4.783,1.981c-1.277,1.276-1.979,2.975-1.979,4.781v9.768H20.73v-9.768c0-3.815,1.485-7.401,4.181-10.095
			c2.697-2.696,6.283-4.181,10.095-4.181s7.398,1.485,10.095,4.183c2.696,2.693,4.181,6.278,4.181,10.094v34.563
			c0,3.814-1.485,7.399-4.181,10.096C42.406,154.184,38.82,155.669,35.006,155.669z"/>
		<path fill="#242D3C" d="M24.487,135.381c-6.215,0-11.271-5.056-11.271-11.271c0-6.214,5.056-11.27,11.271-11.27
			c6.215,0,11.271,5.056,11.271,11.27C35.758,130.325,30.702,135.381,24.487,135.381z M24.487,120.354
			c-2.072,0-3.757,1.685-3.757,3.756s1.685,3.757,3.757,3.757c2.072,0,3.757-1.686,3.757-3.757S26.559,120.354,24.487,120.354z"/>
		<path fill="#242D3C" d="M98.122,200H79.337c-6.215,0-11.271-5.056-11.271-11.271s5.055-11.271,11.271-11.271h18.784V200z
			 M79.337,184.973c-2.072,0-3.757,1.685-3.757,3.757s1.685,3.757,3.757,3.757h11.271v-7.514H79.337z"/>
		<path fill="#242D3C" d="M94.365,192.486v-7.514c24.029,0,43.58-19.551,43.58-43.58h7.514
			C145.458,169.566,122.538,192.486,94.365,192.486z"/>
	</g>
	<g>
		<g>
			<rect x="83.094" fill="#F96232" width="112.706" height="75.137"/>
			<polygon fill="#F96232" points="94.365,93.17 94.365,75.137 112.397,75.137 			"/>
		</g>
		<g>
			<rect x="104.884" y="18.784" fill="#FFFFFF" width="26.298" height="7.514"/>
			<rect x="104.884" y="33.812" fill="#FFFFFF" width="69.126" height="7.514"/>
			<rect x="104.884" y="48.839" fill="#FFFFFF" width="53.348" height="7.514"/>
		</g>
	</g>
</g>
</svg>
