<?xml version="1.0" encoding="utf-8"?>
<!-- Generator: Adobe Illustrator 25.2.1, SVG Export Plug-In . SVG Version: 6.00 Build 0)  -->
<svg version="1.1" id="Layer_1" xmlns="http://www.w3.org/2000/svg" xmlns:xlink="http://www.w3.org/1999/xlink" x="0px" y="0px"
	 viewBox="0 0 147.5 178.2" style="enable-background:new 0 0 147.5 178.2;" xml:space="preserve">
<style type="text/css">
	.st0{fill:#F96232;}
	.st1{fill:#242D3C;}
</style>
<g>
	<g>
		<g>
			<path class="st0" d="M106.2,73.7c0-3.7,2.9-6.8,6.5-7.1c-0.4-2.1-0.9-4.2-1.6-6.2c-3.3,1.5-7.3,0.3-9.2-2.9
				c-1.8-3.2-0.9-7.3,2.1-9.4c-1.4-1.6-2.9-3.2-4.6-4.6c-2.1,3-6.1,3.9-9.4,2.1c-3.2-1.9-4.4-5.9-2.9-9.2c-2-0.7-4.1-1.3-6.2-1.7
				c-0.3,3.6-3.4,6.5-7.1,6.5c-3.7,0-6.8-2.8-7.1-6.5c-2.1,0.4-4.2,0.9-6.2,1.7c1.5,3.3,0.3,7.3-2.9,9.2c-3.2,1.9-7.3,0.9-9.4-2.1
				c-1.6,1.4-3.2,2.9-4.6,4.6c3,2.1,3.9,6.2,2.1,9.4c-1.9,3.2-5.8,4.4-9.2,2.9c-0.7,2-1.3,4.1-1.7,6.2c3.6,0.3,6.5,3.4,6.5,7.1
				c0,3.7-2.9,6.8-6.5,7.1c0.4,2.1,1,4.2,1.7,6.2c3.3-1.5,7.3-0.3,9.2,2.9c1.9,3.2,0.9,7.3-2.1,9.4c1.4,1.6,2.9,3.2,4.6,4.6
				c2.1-3,6.2-3.9,9.4-2.1c3.2,1.9,4.4,5.9,2.9,9.2c2,0.7,4.1,1.3,6.2,1.7c0.3-3.6,3.4-6.5,7.1-6.5c3.7,0,6.8,2.8,7.1,6.5
				c2.1-0.4,4.2-0.9,6.2-1.7c-1.5-3.3-0.3-7.3,2.9-9.2c3.2-1.9,7.3-0.9,9.4,2.1c1.7-1.4,3.2-2.9,4.6-4.6c-3-2.1-3.9-6.2-2.1-9.4
				c1.9-3.2,5.8-4.4,9.2-2.9c0.7-2,1.3-4.1,1.6-6.2C109,80.5,106.2,77.4,106.2,73.7z M73.7,91.9c-10.1,0-18.2-8.1-18.2-18.2
				c0-10.1,8.1-18.2,18.2-18.2c10,0,18.2,8.1,18.2,18.2C91.9,83.8,83.8,91.9,73.7,91.9z"/>
			<path class="st1" d="M73.7,95C62,95,52.4,85.5,52.4,73.7c0-11.8,9.6-21.3,21.3-21.3c11.8,0,21.3,9.6,21.3,21.3
				C95.1,85.5,85.5,95,73.7,95z M73.7,58.7c-8.3,0-15.1,6.8-15.1,15.1c0,8.3,6.8,15.1,15.1,15.1S88.8,82,88.8,73.7
				C88.8,65.4,82,58.7,73.7,58.7z"/>
		</g>
	</g>
	<g>
		<path class="st1" d="M104,145.6H43.5v-23.1c-16.8-10.4-27.1-29-27.1-48.8c0-31.7,25.8-57.4,57.4-57.4c31.7,0,57.4,25.8,57.4,57.4
			c0,19.8-10.4,38.3-27.1,48.8V145.6z M49.7,139.4h48v-20.5l1.6-0.9c15.8-9.1,25.6-26.1,25.6-44.3c0-28.2-22.9-51.2-51.2-51.2
			c-28.2,0-51.2,22.9-51.2,51.2c0,18.2,9.8,35.2,25.6,44.3l1.6,0.9V139.4z"/>
		<rect x="43.5" y="150.2" class="st1" width="60.5" height="6.3"/>
		<rect x="43.5" y="161.1" class="st1" width="60.5" height="6.3"/>
		<rect x="61.4" y="171.9" class="st1" width="24.7" height="6.3"/>
	</g>
	<g>
		<rect x="70.6" class="st1" width="6.3" height="9.7"/>
		<rect x="90.1" y="5.1" transform="matrix(0.3091 -0.951 0.951 0.3091 57.8045 96.0382)" class="st1" width="9.7" height="6.3"/>
		
			<rect x="109.3" y="14.9" transform="matrix(0.5877 -0.8091 0.8091 0.5877 32.5084 99.8205)" class="st1" width="9.7" height="6.3"/>
		<rect x="124.6" y="30.1" transform="matrix(0.809 -0.5879 0.5879 0.809 5.1826 82.4406)" class="st1" width="9.7" height="6.3"/>
		<rect x="134.4" y="49.3" transform="matrix(0.9511 -0.309 0.309 0.9511 -9.3914 45.5861)" class="st1" width="9.7" height="6.3"/>
		<rect x="137.7" y="70.6" class="st1" width="9.7" height="6.3"/>
		<rect x="136.1" y="90.1" transform="matrix(0.309 -0.9511 0.9511 0.309 5.8485 198.0468)" class="st1" width="6.3" height="9.7"/>
		
			<rect x="126.3" y="109.3" transform="matrix(0.5876 -0.8091 0.8091 0.5876 -39.0231 151.823)" class="st1" width="6.3" height="9.7"/>
		
			<rect x="49.3" y="3.4" transform="matrix(0.9511 -0.3089 0.3089 0.9511 2.097302e-02 16.6019)" class="st1" width="6.3" height="9.7"/>
		
			<rect x="30.1" y="13.2" transform="matrix(0.8091 -0.5877 0.5877 0.8091 -4.2396 22.9798)" class="st1" width="6.3" height="9.7"/>
		<rect x="14.9" y="28.4" transform="matrix(0.588 -0.8089 0.8089 0.588 -19.4728 28.2732)" class="st1" width="6.3" height="9.7"/>
		<rect x="5.1" y="47.6" transform="matrix(0.3092 -0.951 0.951 0.3092 -44.1894 44.0631)" class="st1" width="6.3" height="9.7"/>
		<rect x="0" y="70.6" class="st1" width="9.7" height="6.3"/>
		<rect x="3.4" y="91.9" transform="matrix(0.9511 -0.3089 0.3089 0.9511 -28.9489 7.1921)" class="st1" width="9.7" height="6.3"/>
		
			<rect x="13.2" y="111.1" transform="matrix(0.8091 -0.5877 0.5877 0.8091 -63.6718 32.3883)" class="st1" width="9.7" height="6.3"/>
	</g>
</g>
</svg>
