<?xml version="1.0" encoding="utf-8"?>
<!-- Generator: Adobe Illustrator 26.0.3, SVG Export Plug-In . SVG Version: 6.00 Build 0)  -->
<svg version="1.1" xmlns="http://www.w3.org/2000/svg" xmlns:xlink="http://www.w3.org/1999/xlink" x="0px" y="0px"
	 viewBox="0 0 91.3 91.3" style="enable-background:new 0 0 91.3 91.3;" xml:space="preserve">
<style type="text/css">
	.st0{fill:#F2F2F2;}
	.st1{fill:#B6D874;}
	.st2{fill:none;stroke:#010101;stroke-width:2.5624;stroke-miterlimit:10;}
</style>
<g id="OBJECTS">
	<g id="XMLID_125_">
		<path id="XMLID_126_" class="st1" d="M58.9,91.3c-3.5,0-6.9-1.3-9.6-4c-5.3-5.3-5.3-13.9,0-19.2c7.2-7.2,7.2-19,0-26.2
			c-7.2-7.2-19-7.2-26.2,0c-5.3,5.3-13.9,5.3-19.2,0c-5.3-5.3-5.3-13.9,0-19.2C21.8,5,50.7,5,68.5,22.8c17.8,17.8,17.8,46.8,0,64.5
			C65.9,90,62.4,91.3,58.9,91.3z"/>
	</g>
	<g id="XMLID_123_">
		<path id="XMLID_124_" class="st2" d="M67.1,83.1c-3.5,0-6.9-1.3-9.6-4c-5.3-5.3-5.3-13.9,0-19.2c7.2-7.2,7.2-19,0-26.2
			c-7.2-7.2-19-7.2-26.2,0c-5.3,5.3-13.9,5.3-19.2,0c-5.3-5.3-5.3-13.9,0-19.2c17.8-17.8,46.8-17.8,64.5,0
			c17.8,17.8,17.8,46.8,0,64.5C74,81.8,70.5,83.1,67.1,83.1z"/>
	</g>
</g>
</svg>
