<?xml version="1.0" encoding="utf-8"?>
<!-- Generator: Adobe Illustrator 26.0.0, SVG Export Plug-In . SVG Version: 6.00 Build 0)  -->
<svg version="1.1" id="Layer_1" xmlns="http://www.w3.org/2000/svg" xmlns:xlink="http://www.w3.org/1999/xlink" x="0px" y="0px"
	 viewBox="0 0 195.4 120.7" style="enable-background:new 0 0 195.4 120.7;" xml:space="preserve">
<style type="text/css">
	.st0{fill:#252D3D;}
	.st1{fill:#EC6439;}
	.st2{fill:#5CC2DB;}
</style>
<g>
	<g>
		<g>
			<path class="st0" d="M179.5,106.7H16V8.5c0-2.3,0.9-4.4,2.5-6C20,0.9,22.2,0,24.4,0H171c2.3,0,4.4,0.9,6,2.5
				c1.6,1.6,2.5,3.7,2.5,6V106.7z M22.5,100.2h150.5V8.5c0-0.5-0.2-1-0.6-1.4c-0.4-0.4-0.9-0.6-1.4-0.6H24.4c-0.5,0-1,0.2-1.4,0.6
				c-0.4,0.4-0.6,0.9-0.6,1.4V100.2z"/>
			<path class="st0" d="M185.2,120.7H10.2c-2.7,0-5.3-1.1-7.2-3c-1.9-1.9-3-4.5-3-7.3v-10.2h195.4v10.2c0,2.7-1.1,5.3-3,7.2
				C190.5,119.6,187.9,120.7,185.2,120.7z M6.5,106.7v3.7c0,1,0.4,1.9,1.1,2.6c0.7,0.7,1.6,1.1,2.6,1.1h174.9c1,0,1.9-0.4,2.6-1.1
				c0.7-0.7,1.1-1.6,1.1-2.6v-3.7H6.5z"/>
		</g>
		<g>
			<rect x="33.1" y="71.7" class="st1" width="18.9" height="17.9"/>
			<rect x="60.7" y="58" class="st1" width="18.9" height="31.5"/>
			<rect x="88.2" y="44.4" class="st1" width="18.9" height="45.2"/>
			<rect x="115.8" y="30.8" class="st1" width="18.9" height="58.8"/>
			<rect x="143.4" y="17.2" class="st1" width="18.9" height="72.4"/>
		</g>
	</g>
	<g>
		<g>
			<g>
				<path class="st2" d="M44.8,12.8c-6.3,0-11.4,5.1-11.4,11.4c0,2.1,0.6,4,1.5,5.7l4.1-2.4c-0.6-1-0.9-2.1-0.9-3.3
					c0-3.7,3-6.7,6.7-6.7c2.5,0,4.6,1.3,5.8,3.3l4.1-2.4C52.8,15.1,49.1,12.8,44.8,12.8z"/>
				<path class="st1" d="M54.7,18.5l-4.1,2.4c0.6,1,0.9,2.1,0.9,3.3c0,1.2-0.3,2.4-0.9,3.3l4.1,2.4c1-1.7,1.5-3.6,1.5-5.7
					C56.3,22.2,55.7,20.2,54.7,18.5z"/>
			</g>
			<g>
				<rect x="44.1" y="14.3" class="st0" width="1.5" height="1.8"/>
				
					<rect x="39.5" y="15.5" transform="matrix(0.8661 -0.4999 0.4999 0.8661 -2.8111 22.3542)" class="st0" width="1.5" height="1.8"/>
				<rect x="36.2" y="18.8" transform="matrix(0.5 -0.866 0.866 0.5 1.4094 41.9123)" class="st0" width="1.5" height="1.8"/>
				<rect x="34.9" y="23.5" class="st0" width="1.8" height="1.5"/>
				<rect x="53" y="23.5" class="st0" width="1.8" height="1.5"/>
				<rect x="51.8" y="19" transform="matrix(0.866 -0.5 0.5 0.866 -2.8108 28.982)" class="st0" width="1.8" height="1.5"/>
				<rect x="48.5" y="15.7" transform="matrix(0.5 -0.866 0.866 0.5 10.4581 50.9618)" class="st0" width="1.8" height="1.5"/>
			</g>
			<g>
				<path class="st0" d="M44.8,27c-1.5,0-2.7-1.2-2.7-2.7c0-1.5,1.2-2.7,2.7-2.7c1.5,0,2.7,1.2,2.7,2.7C47.5,25.7,46.3,27,44.8,27z
					 M44.8,23.1c-0.6,0-1.2,0.5-1.2,1.2c0,0.6,0.5,1.2,1.2,1.2c0.6,0,1.2-0.5,1.2-1.2C46,23.6,45.5,23.1,44.8,23.1z"/>
				
					<rect x="46.3" y="21.8" transform="matrix(0.8662 -0.4996 0.4996 0.8662 -4.897 26.8747)" class="st0" width="2.8" height="1.5"/>
			</g>
		</g>
		<g>
			<path class="st0" d="M44.8,38.7c-3.9,0-7.5-1.5-10.2-4.2c-2.7-2.7-4.2-6.4-4.2-10.2c0-3.9,1.5-7.5,4.2-10.2
				c2.7-2.7,6.4-4.2,10.2-4.2s7.5,1.5,10.2,4.2c2.7,2.7,4.2,6.4,4.2,10.2c0,3.9-1.5,7.5-4.2,10.2C52.3,37.2,48.7,38.7,44.8,38.7z
				 M44.8,11.3c-3.5,0-6.7,1.3-9.2,3.8c-2.4,2.4-3.8,5.7-3.8,9.2c0,3.5,1.3,6.7,3.8,9.2c2.4,2.4,5.7,3.8,9.2,3.8
				c3.5,0,6.7-1.3,9.2-3.8c2.4-2.4,3.8-5.7,3.8-9.2c0-3.5-1.3-6.7-3.8-9.2C51.5,12.7,48.3,11.3,44.8,11.3z"/>
			<rect x="55.3" y="33.3" transform="matrix(0.7072 -0.707 0.707 0.7072 -8.6719 50.0245)" class="st0" width="1.5" height="4.3"/>
			
				<rect x="60.1" y="34.7" transform="matrix(0.7071 -0.7071 0.7071 0.7071 -11.6546 57.2345)" class="st1" width="6.3" height="16.1"/>
			
				<rect x="56.6" y="38.5" transform="matrix(0.7072 -0.7071 0.7071 0.7072 -10.2201 53.7699)" class="st0" width="6.3" height="1.5"/>
			<rect x="63.6" y="45.4" transform="matrix(0.7072 -0.707 0.707 0.7072 -13.0904 60.692)" class="st0" width="6.3" height="1.5"/>
		</g>
	</g>
</g>
</svg>
