<?xml version="1.0" encoding="utf-8"?>
<!-- Generator: Adobe Illustrator 26.0.0, SVG Export Plug-In . SVG Version: 6.00 Build 0)  -->
<svg version="1.1" id="Layer_1" xmlns="http://www.w3.org/2000/svg" xmlns:xlink="http://www.w3.org/1999/xlink" x="0px" y="0px"
	 viewBox="0 0 169.4 181.8" style="enable-background:new 0 0 169.4 181.8;" xml:space="preserve">
<style type="text/css">
	.st0{fill:#252D3D;}
	.st1{fill:#5CC2DB;}
</style>
<g>
	<g>
		<path class="st0" d="M169.4,84.7h-6.5V80l-18-2.8l-0.4-2.3c-0.6-3.9-1.7-7.8-3.1-11.6l-0.8-2.2l14.2-11.4l-4.7-8.2l-17,6.6
			l-1.5-1.8c-2.5-3.1-5.4-5.9-8.5-8.5l-1.8-1.5l6.6-17l-8.2-4.7l-11.4,14.2l-2.2-0.8c-3.7-1.4-7.6-2.4-11.6-3.1l-2.3-0.4l-2.8-18H80
			l-2.8,18l-2.3,0.4c-3.9,0.6-7.8,1.7-11.6,3.1l-2.2,0.8L49.7,14.6l-8.2,4.7l6.6,17l-1.8,1.5c-3.1,2.5-5.9,5.4-8.5,8.5l-1.5,1.8
			l-17-6.6l-4.7,8.2l14.2,11.4L28,63.3c-1.4,3.7-2.5,7.6-3.1,11.6l-0.4,2.3L6.5,80v4.7H0V74.4l18.9-2.9c0.6-2.8,1.3-5.6,2.2-8.2
			l-14.9-12l10.3-17.8l17.8,6.9c1.9-2.1,3.9-4.2,6-6l-6.9-17.8L51.3,6.2l12,14.9c2.7-0.9,5.5-1.6,8.2-2.2L74.4,0H95l2.9,18.9
			c2.8,0.6,5.6,1.3,8.2,2.2l12-14.9L136,16.5L129,34.3c2.1,1.9,4.2,3.9,6,6l17.8-6.9l10.3,17.8l-14.9,12c0.9,2.7,1.6,5.5,2.2,8.2
			l18.9,2.9V84.7z"/>
		<path class="st1" d="M65.2,84.7c0-10.8,8.7-19.5,19.5-19.5c10.8,0,19.5,8.7,19.5,19.5h26.9c0-25.6-20.8-46.4-46.4-46.4
			c-25.6,0-46.4,20.8-46.4,46.4H65.2z"/>
		<path class="st0" d="M107.5,84.7H101c0-9-7.3-16.3-16.3-16.3c-9,0-16.3,7.3-16.3,16.3h-6.5c0-12.6,10.2-22.8,22.8-22.8
			C97.3,61.9,107.5,72.1,107.5,84.7z"/>
	</g>
	<g>
		<rect y="101" class="st0" width="124" height="6.5"/>
		<rect x="146.2" y="101" class="st0" width="23.2" height="6.5"/>
		<path class="st0" d="M128.6,115.3c-6.1,0-11.1-5-11.1-11.1c0-6.1,5-11.1,11.1-11.1c6.1,0,11.1,5,11.1,11.1
			C139.6,110.4,134.7,115.3,128.6,115.3z M128.6,99.7c-2.5,0-4.6,2-4.6,4.6c0,2.5,2,4.6,4.6,4.6c2.5,0,4.6-2,4.6-4.6
			C133.1,101.7,131.1,99.7,128.6,99.7z"/>
	</g>
	<g>
		<rect y="123.1" class="st0" width="85.4" height="6.5"/>
		<rect x="107.5" y="123.1" class="st0" width="61.9" height="6.5"/>
		<path class="st0" d="M89.9,137.5c-6.1,0-11.1-5-11.1-11.1c0-6.1,5-11.1,11.1-11.1c6.1,0,11.1,5,11.1,11.1
			C101,132.5,96,137.5,89.9,137.5z M89.9,121.8c-2.5,0-4.6,2-4.6,4.6c0,2.5,2,4.6,4.6,4.6c2.5,0,4.6-2,4.6-4.6
			C94.5,123.9,92.4,121.8,89.9,121.8z"/>
	</g>
	<g>
		<rect y="145.3" class="st0" width="22.6" height="6.5"/>
		<rect x="44.7" y="145.3" class="st0" width="124.7" height="6.5"/>
		<path class="st0" d="M27.1,159.6c-6.1,0-11.1-5-11.1-11.1c0-6.1,5-11.1,11.1-11.1c6.1,0,11.1,5,11.1,11.1
			C38.2,154.7,33.3,159.6,27.1,159.6z M27.1,144c-2.5,0-4.6,2-4.6,4.6c0,2.5,2,4.6,4.6,4.6c2.5,0,4.6-2,4.6-4.6
			C31.7,146,29.7,144,27.1,144z"/>
	</g>
	<g>
		<rect y="167.4" class="st0" width="72.1" height="6.5"/>
		<rect x="94.3" y="167.4" class="st0" width="75.1" height="6.5"/>
		<path class="st0" d="M76.7,181.8c-6.1,0-11.1-5-11.1-11.1c0-6.1,5-11.1,11.1-11.1c6.1,0,11.1,5,11.1,11.1
			C87.7,176.8,82.8,181.8,76.7,181.8z M76.7,166.1c-2.5,0-4.6,2-4.6,4.6c0,2.5,2,4.6,4.6,4.6c2.5,0,4.6-2,4.6-4.6
			C81.2,168.2,79.2,166.1,76.7,166.1z"/>
	</g>
</g>
</svg>
