<?xml version="1.0" encoding="utf-8"?>
<!-- Generator: Adobe Illustrator 16.0.0, SVG Export Plug-In . SVG Version: 6.00 Build 0)  -->
<!DOCTYPE svg PUBLIC "-//W3C//DTD SVG 1.1//EN" "http://www.w3.org/Graphics/SVG/1.1/DTD/svg11.dtd">
<svg version="1.1" id="Layer_1" xmlns="http://www.w3.org/2000/svg" xmlns:xlink="http://www.w3.org/1999/xlink" x="0px" y="0px"
	 width="200px" height="200px" viewBox="0 0 200 200" enable-background="new 0 0 200 200" xml:space="preserve">
<g>
	<path fill="#43D3E8" d="M111.736,139.216l9.952-3.791c0.785-2.988,1.971-5.812,3.496-8.414l-4.359-9.722l6.654-6.659l9.725,4.361
		c2.595-1.521,5.426-2.705,8.408-3.493l3.789-9.952h7.732V45.979H57.486v101.985h54.25V139.216z"/>
	<g>
		<path fill="#242D3C" d="M161.229,189.802h-14.245l-4.029-10.581c-2.042-0.647-4.022-1.468-5.913-2.451l-10.331,4.626
			l-10.075-10.066l4.631-10.34c-0.989-1.894-1.809-3.871-2.458-5.911l-10.58-4.036v-14.244l10.58-4.03
			c0.646-2.041,1.469-4.022,2.458-5.919l-4.631-10.33l10.075-10.08l10.331,4.634c1.895-0.984,3.871-1.808,5.913-2.454l4.029-10.581
			h14.245l4.035,10.581c2.033,0.646,4.013,1.466,5.914,2.456l10.343-4.636l10.065,10.08l-4.631,10.332
			c0.999,1.912,1.822,3.892,2.465,5.917l10.58,4.035l-0.007,14.24l-10.576,4.034c-0.64,2.023-1.466,4.002-2.462,5.91l4.631,10.34
			l-10.065,10.068l-10.343-4.627c-1.897,0.986-3.878,1.806-5.911,2.452L161.229,189.802z M151.819,182.784h4.577l3.581-9.378
			l1.74-0.459c2.632-0.695,5.17-1.746,7.534-3.127l1.557-0.904l9.164,4.1l3.234-3.231l-4.107-9.174l0.911-1.559
			c1.396-2.387,2.449-4.916,3.13-7.519l0.457-1.744l9.382-3.58v-4.574l-9.382-3.579l-0.457-1.748
			c-0.681-2.601-1.733-5.134-3.13-7.524l-0.911-1.56l4.107-9.165l-3.234-3.237l-9.164,4.11l-1.561-0.909
			c-2.367-1.386-4.901-2.438-7.534-3.129l-1.743-0.46l-3.574-9.379h-4.577l-3.572,9.379l-1.74,0.458
			c-2.647,0.698-5.179,1.75-7.527,3.126l-1.561,0.916l-9.167-4.112l-3.234,3.237l4.107,9.168l-0.914,1.56
			c-1.381,2.354-2.434,4.886-3.131,7.532l-0.457,1.743l-9.378,3.572v4.575l9.375,3.576l0.46,1.74c0.7,2.645,1.75,5.175,3.128,7.523
			l0.917,1.559l-4.107,9.175l3.234,3.233l9.167-4.104l1.558,0.913c2.345,1.371,4.876,2.423,7.53,3.122l1.74,0.459L151.819,182.784z"
			/>
		<path fill="#242D3C" d="M154.11,163.659c-10.885,0-19.74-8.855-19.74-19.737c0-10.885,8.855-19.741,19.74-19.741
			c10.879,0,19.731,8.856,19.731,19.741C173.842,154.804,164.989,163.659,154.11,163.659z M154.11,131.197
			c-7.017,0-12.723,5.709-12.723,12.725c0,7.013,5.706,12.719,12.723,12.719c7.011,0,12.714-5.706,12.714-12.719
			C166.824,136.906,161.121,131.197,154.11,131.197z"/>
	</g>
	<g>
		<rect x="0" y="94.133" fill="#242D3C" width="17.962" height="7.017"/>
		<rect x="17.962" y="118.195" fill="#242D3C" width="19.312" height="7.019"/>
		<rect x="17.962" y="130.219" fill="#242D3C" width="19.312" height="7.018"/>
		<rect x="17.962" y="166.309" fill="#242D3C" width="19.312" height="7.019"/>
		<rect x="17.962" y="178.338" fill="#242D3C" width="19.312" height="7.018"/>
		<rect x="0" y="106.156" fill="#242D3C" width="37.274" height="7.018"/>
		<rect x="0" y="142.253" fill="#242D3C" width="17.962" height="7.017"/>
		<rect x="17.962" y="70.071" fill="#242D3C" width="19.312" height="7.017"/>
		<rect x="17.962" y="82.099" fill="#242D3C" width="19.312" height="7.017"/>
		<rect x="0" y="58.037" fill="#242D3C" width="37.274" height="7.017"/>
		<rect x="0" y="154.28" fill="#242D3C" width="37.274" height="7.018"/>
		<rect x="44.83" y="166.312" fill="#242D3C" width="19.314" height="7.018"/>
		<rect x="44.83" y="178.341" fill="#242D3C" width="37.274" height="7.018"/>
	</g>
	<g>
		<path fill="#242D3C" d="M170.469,39.664H44.153V10.198h126.315V39.664z M51.172,32.646h112.279V17.215H51.172V32.646z"/>
		<g>
			<rect x="58.189" y="21.424" fill="#242D3C" width="7.021" height="7.017"/>
			<rect x="72.226" y="21.424" fill="#242D3C" width="7.019" height="7.017"/>
			<rect x="86.26" y="21.424" fill="#242D3C" width="7.019" height="7.017"/>
		</g>
		<polygon fill="#242D3C" points="103.329,161.298 44.153,161.298 44.153,32.646 170.469,32.646 170.469,95.672 163.451,95.672 
			163.451,39.664 51.172,39.664 51.172,154.28 103.329,154.28 		"/>
	</g>
	<g>
		<path fill="#FFFFFF" d="M107.231,90.803h-7.018v-30.57c0-1.937,1.57-3.509,3.509-3.509h11.276c2.743,0,5.321,1.069,7.263,3.009
			c1.942,1.944,3.011,4.524,3.011,7.267c0,2.742-1.068,5.321-3.007,7.261c-1.945,1.943-4.523,3.012-7.267,3.012h-7.768V90.803z
			 M107.231,70.256h7.768c0.87,0,1.687-0.34,2.305-0.955c0.611-0.615,0.952-1.433,0.952-2.301c0-0.87-0.341-1.688-0.955-2.305
			c-0.615-0.613-1.432-0.952-2.302-0.952h-7.768V70.256z"/>
		<g>
			<path fill="#FFFFFF" d="M94.603,90.803h-7.017V67c0-0.87-0.339-1.688-0.955-2.305c-0.615-0.613-1.433-0.952-2.301-0.952h-4.511
				c-0.87,0-1.687,0.337-2.303,0.954C76.9,65.311,76.562,66.129,76.562,67v23.803h-7.017V67c0-2.744,1.068-5.325,3.009-7.265
				c1.94-1.94,4.521-3.011,7.265-3.011h4.511c2.742,0,5.321,1.069,7.263,3.009c1.942,1.944,3.011,4.524,3.011,7.267V90.803z"/>
			<rect x="69.544" y="70.256" fill="#FFFFFF" width="25.058" height="7.017"/>
		</g>
		<g>
			<rect x="134.452" y="60.233" fill="#FFFFFF" width="7.018" height="27.062"/>
			<rect x="130.843" y="56.724" fill="#FFFFFF" width="14.236" height="7.019"/>
			<rect x="130.843" y="83.786" fill="#FFFFFF" width="14.236" height="7.017"/>
		</g>
	</g>
</g>
</svg>
