<?xml version="1.0" encoding="utf-8"?>
<!-- Generator: Adobe Illustrator 16.0.0, SVG Export Plug-In . SVG Version: 6.00 Build 0)  -->
<!DOCTYPE svg PUBLIC "-//W3C//DTD SVG 1.1//EN" "http://www.w3.org/Graphics/SVG/1.1/DTD/svg11.dtd">
<svg version="1.1" id="Layer_1" xmlns="http://www.w3.org/2000/svg" xmlns:xlink="http://www.w3.org/1999/xlink" x="0px" y="0px"
	 width="200px" height="200px" viewBox="0 0 200 200" enable-background="new 0 0 200 200" xml:space="preserve">
<g>
	<g>
		<path fill="#242D3C" d="M22.803,144.192h-6.451V46.858c0-2.295,0.897-4.45,2.524-6.072c1.594-1.614,3.754-2.514,6.062-2.514
			h150.121c2.296,0,4.458,0.896,6.083,2.521c1.623,1.625,2.519,3.779,2.519,6.064v7.538h-6.451v-7.538
			c0-0.564-0.226-1.097-0.632-1.504c-0.405-0.406-0.944-0.63-1.519-0.63H24.938c-0.568,0-1.097,0.219-1.49,0.616
			c-0.423,0.421-0.645,0.953-0.645,1.519V144.192z"/>
		<path fill="#43D3E8" d="M132.105,61.827c0-4.083,3.354-7.431,7.428-7.431H32.482v89.796h99.623V61.827z"/>
		<path fill="#242D3C" d="M139.524,161.728H10.384c-2.766,0-5.372-1.075-7.338-3.028C1.08,156.734,0,154.126,0,151.348v-10.381
			h132.105v6.451H6.452v3.93c0,1.055,0.407,2.04,1.147,2.781c0.744,0.737,1.733,1.147,2.785,1.147h129.14V161.728z"/>
	</g>
	<g>
		<rect x="154.763" y="140.967" fill="#242D3C" width="19.354" height="6.451"/>
		<path fill="#242D3C" d="M189.344,161.728h-49.819c-5.868,0-10.645-4.774-10.645-10.645v-20.632h6.451v20.632
			c0,2.313,1.881,4.193,4.193,4.193h49.819c2.318,0,4.205-1.881,4.205-4.193v-89.25c0-2.32-1.887-4.207-4.205-4.207h-49.819
			c-2.271,0-4.193,1.926-4.193,4.207v19.585h-6.451V61.833c0-5.877,4.776-10.658,10.645-10.658h49.819
			c5.875,0,10.656,4.781,10.656,10.658v89.25C200,156.953,195.219,161.728,189.344,161.728z"/>
		<rect x="141.139" y="63.428" fill="#F96232" width="46.603" height="69.678"/>
	</g>
	<g>
		<g>
			<path fill="#242D3C" d="M146.376,124.645H115.49c-4.999,0-9.697-1.947-13.232-5.482c-3.532-3.534-5.479-8.231-5.479-13.227
				V91.913h6.452v14.023c0,3.271,1.275,6.35,3.591,8.667c2.315,2.315,5.394,3.591,8.668,3.591h30.886V124.645z"/>
			<polygon fill="#242D3C" points="106.756,103.226 100.005,96.476 93.254,103.226 88.692,98.664 100.005,87.351 111.317,98.664 			
				"/>
		</g>
		<g>
			<path fill="#242D3C" d="M167.666,119.954h-6.451v-14.019c0-3.275-1.275-6.354-3.591-8.67c-2.313-2.314-5.394-3.589-8.669-3.589
				h-30.886v-6.453h30.886c4.999,0,9.697,1.946,13.23,5.48c3.535,3.534,5.48,8.233,5.48,13.231V119.954z"/>
			<polygon fill="#242D3C" points="164.44,124.516 153.126,113.202 157.688,108.641 164.44,115.394 171.192,108.641 
				175.752,113.202 			"/>
		</g>
	</g>
</g>
</svg>
