<?xml version="1.0" encoding="utf-8"?>
<!-- Generator: Adobe Illustrator 16.0.0, SVG Export Plug-In . SVG Version: 6.00 Build 0)  -->
<!DOCTYPE svg PUBLIC "-//W3C//DTD SVG 1.1//EN" "http://www.w3.org/Graphics/SVG/1.1/DTD/svg11.dtd">
<svg version="1.1" id="Layer_1" xmlns="http://www.w3.org/2000/svg" xmlns:xlink="http://www.w3.org/1999/xlink" x="0px" y="0px"
	 width="200px" height="200px" viewBox="0 0 200 200" enable-background="new 0 0 200 200" xml:space="preserve">
<g>
	<path fill="#242D3C" d="M199.531,200H4.533V75.147h194.998V200z M12.474,192.06h179.117V83.088H12.474V192.06z"/>
	<g>
		<rect x="27.211" y="97.823" fill="#F96232" width="149.643" height="79.5"/>
		<polygon fill="#FFFFFF" points="93.46,124.072 116.841,137.573 93.46,151.073 		"/>
	</g>
	<g>
		<path fill="#242D3C" d="M199.531,83.088H4.533V51.767h194.998V83.088z M12.474,75.147h179.117v-15.44H12.474V75.147z"/>
		<g>
			
				<rect x="3.661" y="63.457" transform="matrix(0.7071 0.7071 -0.7071 0.7071 53.5946 5.4713)" fill="#242D3C" width="33.064" height="7.94"/>
			
				<rect x="30.941" y="63.457" transform="matrix(0.7071 0.7071 -0.7071 0.7071 61.583 -13.8199)" fill="#242D3C" width="33.066" height="7.94"/>
			
				<rect x="58.221" y="63.457" transform="matrix(0.7071 0.7071 -0.7071 0.7071 69.573 -33.1097)" fill="#242D3C" width="33.066" height="7.94"/>
			
				<rect x="85.497" y="63.456" transform="matrix(0.7072 0.707 -0.707 0.7072 77.5504 -52.3951)" fill="#242D3C" width="33.067" height="7.941"/>
			
				<rect x="112.778" y="63.457" transform="matrix(0.7071 0.7071 -0.7071 0.7071 85.5526 -71.6877)" fill="#242D3C" width="33.066" height="7.94"/>
			
				<rect x="140.058" y="63.456" transform="matrix(0.7072 0.707 -0.707 0.7072 93.5241 -90.9708)" fill="#242D3C" width="33.067" height="7.942"/>
			
				<rect x="167.338" y="63.457" transform="matrix(0.7071 0.7071 -0.7071 0.7071 101.5327 -110.2672)" fill="#242D3C" width="33.066" height="7.94"/>
		</g>
	</g>
	<g>
		<path fill="#242D3C" d="M5.175,60.259L0.468,29.291L193.255,0l4.701,30.968L5.175,60.259z M9.513,35.949l2.318,15.265
			L188.914,24.31l-2.318-15.267L9.513,35.949z"/>
		<g>
			
				<rect x="14.335" y="25.887" transform="matrix(0.8055 0.5926 -0.5926 0.8055 28.7009 -2.5961)" fill="#242D3C" width="7.94" height="33.068"/>
			
				<rect x="41.304" y="21.79" transform="matrix(0.8053 0.5928 -0.5928 0.8053 31.5347 -19.3797)" fill="#242D3C" width="7.942" height="33.069"/>
			
				<rect x="68.275" y="17.692" transform="matrix(0.8052 0.5931 -0.5931 0.8052 34.374 -36.1763)" fill="#242D3C" width="7.939" height="33.07"/>
			
				<rect x="95.241" y="13.596" transform="matrix(0.8054 0.5928 -0.5928 0.8054 37.1673 -52.9447)" fill="#242D3C" width="7.941" height="33.067"/>
			
				<rect x="122.213" y="9.495" transform="matrix(0.8055 0.5926 -0.5926 0.8055 39.968 -69.7122)" fill="#242D3C" width="7.94" height="33.071"/>
			
				<rect x="149.185" y="5.4" transform="matrix(0.8052 0.5931 -0.5931 0.8052 42.8477 -86.5547)" fill="#242D3C" width="7.939" height="33.067"/>
			
				<rect x="176.154" y="1.304" transform="matrix(0.8053 0.5928 -0.5928 0.8053 45.6371 -103.3088)" fill="#242D3C" width="7.943" height="33.065"/>
		</g>
	</g>
</g>
</svg>
