<?xml version="1.0" encoding="utf-8"?>
<!-- Generator: Adobe Illustrator 16.0.0, SVG Export Plug-In . SVG Version: 6.00 Build 0)  -->
<!DOCTYPE svg PUBLIC "-//W3C//DTD SVG 1.1//EN" "http://www.w3.org/Graphics/SVG/1.1/DTD/svg11.dtd">
<svg version="1.1" id="Layer_1" xmlns="http://www.w3.org/2000/svg" xmlns:xlink="http://www.w3.org/1999/xlink" x="0px" y="0px"
	 width="200px" height="200px" viewBox="0 0 200 200" enable-background="new 0 0 200 200" xml:space="preserve">
<g>
	<rect x="19.231" y="32.306" fill="#43D3E8" width="161.539" height="100"/>
	<g>
		<path fill="#242D3C" d="M200,151.537H0V13.075h200V151.537z M7.692,143.845h184.615V20.768H7.692V143.845z"/>
		<rect x="146.922" y="117.688" fill="#242D3C" width="23.078" height="7.692"/>
		<rect x="146.922" y="102.305" fill="#242D3C" width="11.538" height="7.692"/>
		<path fill="#242D3C" d="M50.961,64.037H26.154v-24.81h24.808V64.037z M33.846,56.345h9.423V46.92h-9.423V56.345z"/>
		<circle fill="#FFFFFF" cx="100" cy="82.305" r="15.549"/>
		<path fill="#FFFFFF" d="M137.473,82.305h-7.692c0-16.421-13.359-29.782-29.78-29.782c-16.421,0-29.782,13.361-29.782,29.782
			h-7.692c0-20.663,16.811-37.475,37.475-37.475C120.662,44.83,137.473,61.642,137.473,82.305z"/>
		<g>
			<path fill="#FFFFFF" d="M137.232,86.581l-7.645-0.87c0.13-1.121,0.192-2.267,0.192-3.406h7.692
				C137.473,83.732,137.392,85.173,137.232,86.581z"/>
			<path fill="#FFFFFF" d="M95.837,119.548c-2.79-0.308-5.541-0.932-8.178-1.851l2.536-7.263c2.088,0.729,4.273,1.223,6.487,1.469
				L95.837,119.548z M104.202,119.543l-0.854-7.644c2.211-0.248,4.393-0.744,6.484-1.476l2.542,7.26
				C109.737,118.605,106.989,119.232,104.202,119.543z M80.108,114.068c-2.365-1.482-4.567-3.236-6.551-5.21l5.427-5.451
				c1.578,1.57,3.333,2.966,5.213,4.146L80.108,114.068z M119.919,114.051l-4.093-6.515c1.881-1.181,3.633-2.577,5.209-4.148
				l5.433,5.445C124.486,110.81,122.283,112.564,119.919,114.051z M68.317,102.329c-1.497-2.365-2.729-4.9-3.66-7.533l7.252-2.565
				c0.741,2.091,1.717,4.104,2.907,5.983L68.317,102.329z M131.701,102.296l-6.503-4.108c1.188-1.882,2.165-3.897,2.901-5.987
				l7.255,2.554C134.426,97.39,133.197,99.926,131.701,102.296z"/>
			<path fill="#FFFFFF" d="M62.768,86.581c-0.161-1.408-0.242-2.849-0.242-4.276h7.692c0,1.139,0.064,2.285,0.192,3.406
				L62.768,86.581z"/>
		</g>
	</g>
	<g>
		<polygon fill="#242D3C" points="200,186.925 0,186.925 0,159.232 7.692,159.232 7.692,179.232 192.308,179.232 192.308,159.232 
			200,159.232 		"/>
		<g>
			<path fill="#242D3C" d="M184.925,166.925h-7.389v-7.692h7.389V166.925z M170.153,166.925h-7.383v-7.692h7.383V166.925z
				 M155.385,166.925h-7.383v-7.692h7.383V166.925z M140.613,166.925h-7.383v-7.692h7.383V166.925z M125.848,166.925h-7.388v-7.692
				h7.388V166.925z M111.077,166.925h-7.384v-7.692h7.384V166.925z M96.306,166.925h-7.383v-7.692h7.383V166.925z M81.54,166.925
				h-7.387v-7.692h7.387V166.925z M66.77,166.925h-7.384v-7.692h7.384V166.925z M51.998,166.925h-7.383v-7.692h7.383V166.925z
				 M37.229,166.925h-7.384v-7.692h7.384V166.925z M22.461,166.925h-7.386v-7.692h7.386V166.925z"/>
		</g>
	</g>
</g>
</svg>
