<?xml version="1.0" encoding="utf-8"?>
<!-- Generator: Adobe Illustrator 16.0.0, SVG Export Plug-In . SVG Version: 6.00 Build 0)  -->
<!DOCTYPE svg PUBLIC "-//W3C//DTD SVG 1.1//EN" "http://www.w3.org/Graphics/SVG/1.1/DTD/svg11.dtd">
<svg version="1.1" id="Layer_1" xmlns="http://www.w3.org/2000/svg" xmlns:xlink="http://www.w3.org/1999/xlink" x="0px" y="0px"
	 width="200px" height="200px" viewBox="0 0 200 200" enable-background="new 0 0 200 200" xml:space="preserve">
<g>
	<polygon fill="#242D3C" points="130.272,200 69.724,200 69.724,179.763 77.522,179.763 77.522,192.202 122.475,192.202 
		122.475,179.763 130.272,179.763 	"/>
	<rect x="58.575" y="192.202" fill="#242D3C" width="82.854" height="7.798"/>
	<path fill="#242D3C" d="M193.573,152.099H6.427V33.043c0-2.731,1.064-5.3,2.997-7.231c1.904-1.928,4.479-3,7.234-3h23.299v7.798
		H16.659c-0.379,0-1.103,0.091-1.703,0.697c-0.479,0.479-0.731,1.089-0.731,1.736v111.258h171.551V33.043
		c0-0.647-0.255-1.258-0.715-1.718c-0.616-0.625-1.34-0.716-1.718-0.716h-23.3v-7.798h23.3c2.754,0,5.328,1.072,7.248,3.016
		c1.918,1.917,2.982,4.487,2.982,7.216V152.099z"/>
	<rect x="55.553" y="22.812" fill="#242D3C" width="15.596" height="7.798"/>
	<rect x="24.362" y="40.743" fill="#43D3E8" width="15.596" height="93.424"/>
	<rect x="55.553" y="40.743" fill="#43D3E8" width="15.596" height="93.424"/>
	<rect x="160.043" y="40.743" fill="#43D3E8" width="15.595" height="93.424"/>
	<path fill="#242D3C" d="M183.345,173.195H16.654c-2.749,0-5.32-1.066-7.24-3.004c-1.919-1.909-2.986-4.48-2.986-7.222v-18.666
		h187.146v18.666c0,2.738-1.068,5.313-3.007,7.24C188.664,172.129,186.094,173.195,183.345,173.195z M14.225,152.102v10.868
		c0,0.65,0.251,1.258,0.707,1.714c0.621,0.624,1.345,0.714,1.722,0.714h166.691c0.378,0,1.101-0.09,1.702-0.696
		c0.477-0.474,0.729-1.083,0.729-1.731v-10.868H14.225z"/>
	<g>
		<polygon fill="#242D3C" points="52.001,28.317 47.755,18.928 43.509,28.317 36.406,25.105 47.755,0 59.104,25.105 		"/>
		<path fill="#242D3C" d="M59.452,134.167h-7.798V30.609h-7.797v103.558h-7.798V26.71c0-2.154,1.745-3.899,3.899-3.899h15.595
			c2.154,0,3.899,1.745,3.899,3.899V134.167z"/>
	</g>
	<g>
		<polygon fill="#242D3C" points="163.941,134.167 156.144,134.167 156.144,28.331 138.653,10.838 75.047,10.838 75.047,134.167 
			67.25,134.167 67.25,3.04 141.883,3.04 163.941,25.101 		"/>
		<polygon fill="#242D3C" points="160.041,30.609 136.369,30.609 136.369,6.939 144.167,6.939 144.167,22.812 160.041,22.812 		"/>
	</g>
	<g>
		<path fill="#F96232" d="M115.596,40.743c-12.921,0-23.394,10.472-23.394,23.39c0,10.759,7.265,19.793,17.15,22.525l6.243-13.33
			l6.242,13.33c9.885-2.732,17.15-11.767,17.15-22.525C138.988,51.215,128.517,40.743,115.596,40.743z"/>
		<g>
			<rect x="111.697" y="102.646" fill="#242D3C" width="7.798" height="16.479"/>
			<path fill="#242D3C" d="M135.457,106.546H95.735l19.86-42.41L135.457,106.546z M107.997,98.748h15.196l-7.598-16.226
				L107.997,98.748z"/>
		</g>
	</g>
</g>
</svg>
