<?xml version="1.0" encoding="utf-8"?>
<!-- Generator: Adobe Illustrator 26.0.3, SVG Export Plug-In . SVG Version: 6.00 Build 0)  -->
<svg version="1.1" id="Layer_1" xmlns="http://www.w3.org/2000/svg" xmlns:xlink="http://www.w3.org/1999/xlink" x="0px" y="0px"
	 viewBox="0 0 64 64" style="enable-background:new 0 0 64 64;" xml:space="preserve">
<style type="text/css">
	.st0{fill:#4353FF;}
	.st1{fill:#FFFFFF;}
</style>
<g transform="matrix(2 0 0 2 0 -64)">
	<circle class="st0" cx="16" cy="48" r="16"/>
	<path class="st1" d="M20.7,46.1l-1.5,4.6c0-0.3-1-7.9-1-7.9c-2.3,0-3.5,1.6-4.2,3.4l-1.8,4.6c0-0.3-0.2-4.5-0.2-4.5
		c-0.2-1.9-1.7-3.3-3.6-3.4l1.9,11.5c2.4,0,3.7-1.6,4.4-3.4l1.5-3.9c0,0.2,1,7.3,1,7.3c2,0,3.8-1.3,4.4-3.2l3.4-8.3
		C22.6,42.7,21.3,44.4,20.7,46.1L20.7,46.1z"/>
</g>
</svg>
