<?xml version="1.0" encoding="utf-8"?>
<!-- Generator: Adobe Illustrator 16.0.0, SVG Export Plug-In . SVG Version: 6.00 Build 0)  -->
<!DOCTYPE svg PUBLIC "-//W3C//DTD SVG 1.1//EN" "http://www.w3.org/Graphics/SVG/1.1/DTD/svg11.dtd">
<svg version="1.1" id="Layer_1" xmlns="http://www.w3.org/2000/svg" xmlns:xlink="http://www.w3.org/1999/xlink" x="0px" y="0px"
	 width="200px" height="200px" viewBox="0 0 200 200" enable-background="new 0 0 200 200" xml:space="preserve">
<g>
	<path fill="#242D3C" d="M200,183.732H0V40.267h200V183.732z M8,175.732h184V48.267H8V175.732z"/>
	<g>
		<rect x="19.2" y="100" fill="#242D3C" width="8" height="8"/>
		<path fill="#242D3C" d="M27.2,93.494h-8v-6.506h8V93.494z M27.2,80.481h-8v-6.506h8V80.481z"/>
		<rect x="19.2" y="59.467" fill="#242D3C" width="8" height="8"/>
		<path fill="#242D3C" d="M165.138,67.467h-7.664v-8h7.664V67.467z M149.811,67.467h-7.664v-8h7.664V67.467z M134.484,67.467h-7.662
			v-8h7.662V67.467z M119.158,67.467h-7.663v-8h7.663V67.467z M103.831,67.467h-7.662v-8h7.662V67.467z M88.506,67.467h-7.664v-8
			h7.664V67.467z M73.178,67.467h-7.663v-8h7.663V67.467z M57.853,67.467H50.19v-8h7.663V67.467z M42.526,67.467h-7.664v-8h7.664
			V67.467z"/>
		<rect x="172.8" y="59.467" fill="#242D3C" width="8" height="8"/>
		<path fill="#242D3C" d="M180.8,93.492h-8v-6.505h8V93.492z M180.8,80.479h-8v-6.506h8V80.479z"/>
		<rect x="172.8" y="100" fill="#242D3C" width="8" height="8"/>
		<path fill="#242D3C" d="M165.138,108h-7.663v-8h7.663V108z M149.811,108h-7.662v-8h7.662V108z M134.484,108h-7.662v-8h7.662V108z
			 M119.158,108h-7.663v-8h7.663V108z M103.833,108h-7.664v-8h7.664V108z M88.506,108h-7.663v-8h7.663V108z M73.18,108h-7.664v-8
			h7.664V108z M57.853,108H50.19v-8h7.663V108z M42.528,108h-7.664v-8h7.664V108z"/>
	</g>
	<path fill="#242D3C" d="M200,48.267H0v-32h200V48.267z M8,40.267h184v-16H8V40.267z"/>
	<rect x="19.2" y="28.267" fill="#242D3C" width="8" height="8"/>
	<rect x="35.2" y="28.267" fill="#242D3C" width="8" height="8"/>
	<rect x="51.2" y="28.267" fill="#242D3C" width="8" height="8"/>
	<g>
		<rect x="19.2" y="116" fill="#F96232" width="48.534" height="48.533"/>
		<rect x="75.734" y="116" fill="#F96232" width="48.533" height="48.533"/>
		<rect x="132.268" y="116" fill="#F96232" width="48.532" height="48.533"/>
	</g>
</g>
</svg>
