<?xml version="1.0" encoding="utf-8"?>
<!-- Generator: Adobe Illustrator 26.0.0, SVG Export Plug-In . SVG Version: 6.00 Build 0)  -->
<svg version="1.1" id="Layer_1" xmlns="http://www.w3.org/2000/svg" xmlns:xlink="http://www.w3.org/1999/xlink" x="0px" y="0px"
	 viewBox="0 0 190.9 168.7" style="enable-background:new 0 0 190.9 168.7;" xml:space="preserve">
<style type="text/css">
	.st0{fill:#EC643A;}
	.st1{fill:#262F3D;}
	.st2{fill:#5EC3DA;}
	.st3{fill:#FFFFFF;}
</style>
<g>
	<g>
		<g>
			<g>
				<rect x="73.6" y="54.9" class="st0" width="19.3" height="7.4"/>
				<rect x="92.9" y="80.1" class="st1" width="20.8" height="7.4"/>
				<rect x="92.9" y="92.7" class="st1" width="20.8" height="7.4"/>
				<rect x="92.9" y="130.6" class="st1" width="20.8" height="7.4"/>
				<rect x="92.9" y="143.2" class="st1" width="20.8" height="7.4"/>
				<rect x="73.6" y="67.5" class="st2" width="40.1" height="7.4"/>
				<rect x="73.6" y="105.3" class="st0" width="19.3" height="7.4"/>
				<rect x="73.6" y="118" class="st2" width="40.1" height="7.4"/>
				<rect x="121.9" y="80.1" class="st0" width="20.8" height="7.4"/>
				<rect x="121.9" y="92.7" class="st1" width="40.1" height="7.4"/>
				<rect x="121.9" y="130.6" class="st0" width="20.8" height="7.4"/>
				<rect x="121.9" y="143.2" class="st1" width="40.1" height="7.4"/>
				<rect x="121.9" y="67.5" class="st1" width="20.8" height="7.4"/>
				<rect x="121.9" y="118" class="st1" width="20.8" height="7.4"/>
			</g>
			<g>
				<path class="st1" d="M184.1,168.7H0v-132h184.1V168.7z M7.4,161.4h169.3V44.1H7.4V161.4z"/>
				<path class="st1" d="M184.1,44.1H0V14.6h184.1V44.1z M7.4,36.7h169.3V22H7.4V36.7z"/>
				<rect x="11" y="25.7" class="st1" width="7.4" height="7.4"/>
				<rect x="25.8" y="25.7" class="st1" width="7.4" height="7.4"/>
				<rect x="40.5" y="25.7" class="st1" width="7.4" height="7.4"/>
				<rect x="51.5" y="40.4" class="st1" width="7.4" height="124.7"/>
			</g>
			<g>
				<rect x="14.7" y="54.9" class="st2" width="29.4" height="32.6"/>
				<rect x="14.7" y="92.7" class="st1" width="29.4" height="7.4"/>
				<rect x="14.7" y="105.3" class="st1" width="29.4" height="7.4"/>
				<rect x="14.7" y="118" class="st1" width="29.4" height="7.4"/>
				<rect x="14.7" y="130.6" class="st1" width="29.4" height="7.4"/>
			</g>
		</g>
		<g>
			<ellipse class="st0" cx="161.6" cy="29.3" rx="29.3" ry="29.3"/>
		</g>
	</g>
	<path class="st3" d="M153,28.1c0-0.9-0.8-1.8-2.3-1.8c-1.6,0-3.5,1.2-3.7,3.6c-0.3,2.4,1.2,3.5,2.8,3.5c1.5,0,2.3-0.6,3.1-1.4
		c-0.7-0.9-1.6-0.5-1.8-0.4c-0.2,0.1-0.4,0.2-0.9,0.2c-0.6,0-1.2-0.3-1.2-1.4C152.7,30.1,153,28.9,153,28.1z M151.1,28.2
		c0,0.3-0.1,0.7-2,1c0.4-1.4,1.2-1.5,1.5-1.5C150.9,27.7,151.1,27.9,151.1,28.2z M144.7,28.4c0,0-0.8,2.5-0.9,2.8
		c0-0.2-0.6-4.8-0.6-4.8c-1.4,0-2.1,1-2.5,2c0,0-1,2.6-1.1,2.8c0-0.2-0.2-2.7-0.2-2.7c-0.1-1.3-1.2-2-2.2-2l1.1,6.9
		c1.4,0,2.2-1,2.6-2c0,0,0.9-2.3,0.9-2.4c0,0.1,0.6,4.4,0.6,4.4c1.5,0,2.2-0.9,2.7-1.9l2-5C145.9,26.4,145.1,27.4,144.7,28.4z
		 M158.3,26.3c-0.9,0-1.6,0.5-2.2,1.2v0l0.5-4.2c-1.2,0-2.2,1-2.3,2.6l-0.9,7.4c0.7,0,1.4-0.2,1.8-0.7c0.3,0.5,0.9,0.8,1.6,0.8
		c2,0,3.4-2.3,3.4-4.5C160.2,26.9,159.3,26.3,158.3,26.3z M158.1,29.8c-0.2,1.2-0.9,2-1.5,2c-0.7,0-0.9-0.3-0.9-0.3
		c0.1-1.1,0.2-1.7,0.4-2.3s0.8-1.5,1.4-1.5C158.1,27.8,158.3,28.6,158.1,29.8z M165.2,26.4h-1.4l0-0.1c0.1-0.9,0.3-1.4,1-1.5
		c0.5,0,0.7-0.3,0.8-0.6c0-0.2,0.2-1,0.2-1c-2.8,0-3.7,1.2-3.9,3l0,0h0c-0.5,0-1,0.5-1,1.2l0,0.2h0.9l-0.8,6.5l-0.2,1.2
		c0,0,0.1,0,0.1,0c1.3,0,2.2-1.1,2.3-2.6l0.6-5.1h0.4c0.4,0,0.9-0.4,1-1.2L165.2,26.4z M172.5,26.3c-1.6,0-3.1,1.2-3.6,3.1
		c-0.5,1.9,0.2,4.1,2.6,4.1c2.4,0,3.7-2.3,3.7-4.2C175.3,27.3,174,26.3,172.5,26.3z M173.2,29.8c-0.1,0.8-0.5,2.1-1.5,2.1
		c-1,0-0.9-1.5-0.8-2.2c0.1-0.8,0.5-1.8,1.5-1.8C173.2,27.8,173.3,28.8,173.2,29.8z M183.2,28.4c0,0-0.8,2.5-0.9,2.8
		c0-0.2-0.6-4.8-0.6-4.8c-1.4,0-2.1,1-2.5,2c0,0-1,2.6-1.1,2.8c0-0.2-0.2-2.7-0.2-2.7c-0.1-1.3-1.2-2-2.2-2l1.1,6.9
		c1.4,0,2.2-1,2.6-2c0,0,0.9-2.3,0.9-2.4c0,0.1,0.6,4.4,0.6,4.4c1.5,0,2.2-0.9,2.7-1.9l2-5C184.4,26.4,183.6,27.4,183.2,28.4z
		 M166.6,23.3l-1.2,9.5l0,0l-0.2,1.2c0,0,0.1,0,0.1,0l0,0c1.3,0,2.2-1.1,2.3-2.5l0.7-5.4C168.5,24.4,167.5,23.3,166.6,23.3z"/>
</g>
</svg>
