<?xml version="1.0" encoding="utf-8"?>
<!-- Generator: Adobe Illustrator 26.0.0, SVG Export Plug-In . SVG Version: 6.00 Build 0)  -->
<svg version="1.1" id="Layer_1" xmlns="http://www.w3.org/2000/svg" xmlns:xlink="http://www.w3.org/1999/xlink" x="0px" y="0px"
	 viewBox="0 0 180.5 170.9" style="enable-background:new 0 0 180.5 170.9;" xml:space="preserve">
<style type="text/css">
	.st0{fill:#252D3D;}
	.st1{fill:#EC6439;}
	.st2{fill:#FFFFFF;}
	.st3{fill:#5CC2DB;}
</style>
<g>
	<g>
		<g>
			<polygon class="st0" points="119.5,170.9 61.1,170.9 61.1,151.4 68.6,151.4 68.6,163.4 111.9,163.4 111.9,151.4 119.5,151.4 			
				"/>
			<rect x="50.3" y="163.4" class="st0" width="79.9" height="7.5"/>
			<path class="st0" d="M180.5,124.7H0V9.9c0-2.6,1-5.1,2.9-7C4.8,1,7.2,0,9.9,0h160.8c2.6,0,5.1,1,7,2.9c1.9,1.9,2.9,4.3,2.9,7
				V124.7z M7.5,117.2H173V9.9c0-0.6-0.2-1.2-0.7-1.7c-0.6-0.6-1.3-0.7-1.7-0.7H9.9c-0.6,0-1.2,0.2-1.7,0.7c-0.4,0.4-0.7,1-0.7,1.7
				V117.2z"/>
			<path class="st0" d="M170.7,145.1H9.9c-2.7,0-5.1-1-7-2.9c-1.9-1.8-2.9-4.3-2.9-7v-18h180.5v18c0,2.6-1,5.1-2.9,7
				C175.8,144,173.3,145.1,170.7,145.1z M7.5,124.7v10.5c0,0.6,0.2,1.2,0.7,1.6c0.6,0.6,1.3,0.7,1.7,0.7h160.8
				c0.4,0,1.1-0.1,1.6-0.7c0.5-0.5,0.7-1,0.7-1.7v-10.5H7.5z"/>
			<rect x="18.2" y="18.2" class="st1" width="144.2" height="88.4"/>
		</g>
	</g>
	<path class="st2" d="M58.1,92.4c-16.2,0-29.3-12.9-29.2-29.2s12.4-29.2,29.2-29.2c16.8,0,29.2,13.1,29.2,29.2S74.2,92.4,58.1,92.4z
		 M66.7,87.9l-8.3-22.2l-7.8,22.7C56.4,89.7,60.3,90.1,66.7,87.9L66.7,87.9z M46.5,86.7L34.1,52.8c-1.7,3.6-2.1,6.7-2.3,10.4
		C31.9,73.2,37.5,82.3,46.5,86.7z M84.2,63.2c0.1-6.4-2.8-11.5-3-12.3c0.2,5-0.5,7.5-1.3,10.3l-8.5,24.4c10.7-6.4,12.8-16,13-22.5
		H84.2L84.2,63.2z M57.2,62.1l-4.1-11.3l-3-0.2c-1.2-0.9-0.5-2.2,0.4-2.2c5.5,0.4,8.5,0.4,14,0c1.3,0,1.7,1.9,0.1,2.2l-2.9,0.2
		l9.5,27.9l4.5-15.3c0.2-6.7-1.6-7.4-4-12.3c-1.9-3.8,0.1-7.4,3.9-7.5c-3-2.9-9.2-6.6-17.4-6.7s-16.8,4-21.9,11.8l9-0.2
		c1.1,0.5,0.6,2.1,0,2.2L42,51l9.5,28.4L57.2,62.1L57.2,62.1z"/>
	<g>
		<g>
			<path class="st3" d="M146.7,100.5c0.5,0,1-0.2,1.4-0.6c0.4-0.4,0.6-0.9,0.6-1.4V85.7c0-0.8-0.7-1.5-1.5-1.5
				c-0.5,0-0.9,0.2-1.1,0.5c-1.1,1.4-2.6,2.5-4.5,2.5c-3,0-5.4-2.4-5.4-5.4c0-3,2.4-5.4,5.4-5.4c1.9,0,3.4,1.1,4.5,2.5
				c0.3,0.3,0.7,0.5,1.1,0.5c0.8,0,1.5-0.7,1.5-1.5V65.2c0-0.5-0.2-1-0.6-1.4c-0.4-0.4-0.9-0.6-1.4-0.6H134c-0.8,0-1.5-0.7-1.5-1.5
				c0-0.5,0.2-0.9,0.5-1.2c1.4-1.1,2.5-2.6,2.5-4.5c0-3-2.4-5.4-5.4-5.4c-3,0-5.4,2.4-5.4,5.4c0,1.9,1,3.5,2.5,4.5
				c0.3,0.2,0.5,0.7,0.5,1.2c0,0.8-0.7,1.5-1.5,1.5h-12.7c-0.5,0-1,0.2-1.4,0.6c-0.4,0.4-0.6,0.9-0.6,1.4V78c0,0.8,0.7,1.5,1.5,1.5
				c0.5,0,0.9-0.2,1.1-0.5c1.1-1.4,2.6-2.5,4.6-2.5c3,0,5.4,2.4,5.4,5.4c0,3-2.4,5.4-5.4,5.4c-1.9,0-3.4-1.1-4.6-2.5
				c-0.3-0.3-0.7-0.5-1.1-0.5c-0.8,0-1.5,0.7-1.5,1.5v12.7c0,0.5,0.2,1,0.6,1.4c0.4,0.4,0.9,0.6,1.4,0.6L146.7,100.5z"/>
			<path class="st0" d="M113.4,101.8L113.4,101.8c-0.9,0-1.7-0.3-2.4-1c-0.6-0.6-1-1.5-1-2.4V85.7c0-1.6,1.3-2.9,2.9-2.9
				c0.9,0,1.7,0.4,2.2,1c1,1.3,2.2,2,3.5,2c2.2,0,4-1.8,4-4c0-2.2-1.8-4-4-4c-1.3,0-2.4,0.7-3.5,2c-0.5,0.6-1.3,1-2.2,1
				c-1.6,0-2.9-1.3-2.9-2.9V65.2c0-0.9,0.4-1.7,1-2.4c0.6-0.6,1.5-1,2.4-1h12.7c0.1,0,0.1-0.1,0.1-0.1c0,0,0,0,0-0.1
				c-1.9-1.4-3-3.4-3-5.6c0-3.7,3-6.8,6.8-6.8c3.7,0,6.8,3,6.8,6.8c0,2.2-1.1,4.2-3,5.6c0,0,0,0,0,0.1c0,0,0,0.1,0.1,0.1h12.7
				c0.9,0,1.7,0.4,2.4,1c0.6,0.6,1,1.4,1,2.4V78c0,1.6-1.3,2.9-2.9,2.9c-0.9,0-1.7-0.4-2.2-1c-1-1.3-2.2-2-3.5-2c-2.2,0-4,1.8-4,4
				c0,2.2,1.8,4,4,4c1.3,0,2.4-0.7,3.5-2c0.5-0.7,1.3-1,2.2-1c1.6,0,2.9,1.3,2.9,2.9v12.7c0,0.9-0.4,1.8-1,2.4c-0.6,0.6-1.4,1-2.3,1
				L113.4,101.8z M112.9,85.6c-0.1,0-0.1,0-0.1,0.1v12.7c0,0.1,0,0.3,0.2,0.4c0.2,0.2,0.3,0.2,0.4,0.2l33.3,0c0.1,0,0.3,0,0.4-0.2
				c0.1-0.1,0.2-0.3,0.2-0.4V85.7c0-0.1-0.2-0.1-0.2-0.1c-1.5,1.9-3.5,3-5.6,3c-3.7,0-6.8-3-6.8-6.8c0-3.7,3-6.8,6.8-6.8
				c2.1,0,4,1,5.6,3c0,0,0,0,0.1,0c0.1,0,0.1-0.1,0.1-0.1V65.2c0-0.1,0-0.3-0.2-0.4c-0.2-0.2-0.3-0.2-0.4-0.2H134
				c-1.6,0-2.9-1.3-2.9-2.9c0-0.9,0.4-1.8,1.1-2.3c0.7-0.5,1.9-1.6,1.9-3.4c0-2.2-1.8-4-4-4c-2.2,0-4,1.8-4,4c0,1.8,1.2,2.9,1.9,3.4
				c0.7,0.5,1.1,1.3,1.1,2.3c0,1.6-1.3,2.9-2.9,2.9h-12.7c-0.1,0-0.3,0-0.4,0.2c-0.1,0.1-0.2,0.3-0.2,0.4V78c0,0.1,0.1,0.1,0.2,0.1
				c1.6-2,3.5-3,5.6-3c3.7,0,6.8,3,6.8,6.8c0,3.7-3,6.8-6.8,6.8C116.5,88.6,114.6,87.6,112.9,85.6C113,85.6,113,85.6,112.9,85.6z"/>
		</g>
		<path class="st0" d="M134,64.6L134,64.6c-1.6,0-2.9-1.3-2.9-2.9c0-0.9,0.4-1.7,1-2.2c1.3-1.1,2-2.2,2-3.5c0-2.2-1.8-4-4-4
			c-2.2,0-4,1.8-4,4c0,1.3,0.7,2.4,2,3.5c0.7,0.5,1,1.3,1,2.2c0,1.6-1.3,2.9-2.9,2.9h-12.7c-0.9,0-1.7-0.3-2.4-1
			c-0.6-0.6-1-1.5-1-2.4V48.5c0-0.1-0.1-0.1-0.2-0.1c-1.4,1.9-3.4,3-5.6,3c-3.7,0-6.8-3-6.8-6.8c0-3.7,3-6.8,6.8-6.8
			c2.2,0,4.2,1.1,5.6,3c0,0,0.2,0,0.2-0.1V28c0-0.9,0.4-1.7,1-2.4c0.6-0.6,1.5-1,2.4-1h12.7c1.6,0,2.9,1.3,2.9,2.9
			c0,0.9-0.4,1.7-1,2.2c-1.3,1-2,2.2-2,3.5c0,2.2,1.8,4,4,4c2.2,0,4-1.8,4-4c0-1.3-0.7-2.4-2-3.5c-0.7-0.5-1-1.3-1-2.2
			c0-1.6,1.3-2.9,2.9-2.9h12.7c0.9,0,1.7,0.4,2.4,1c0.6,0.6,1,1.4,1,2.4v33.3c0,0.9-0.4,1.8-1,2.4c-0.6,0.6-1.4,1-2.3,1L134,64.6z
			 M110,45.6c1.6,0,2.9,1.3,2.9,2.9v12.8c0,0.1,0,0.3,0.2,0.4c0.2,0.2,0.3,0.2,0.4,0.2h12.7c0.1,0,0.1,0,0.1-0.1c0-0.1,0-0.1,0-0.1
			c-1.9-1.5-3-3.5-3-5.6c0-3.7,3-6.8,6.8-6.8c3.7,0,6.8,3,6.8,6.8c0,2.1-1,4.1-3,5.6c0,0,0,0,0,0c0,0.1,0.1,0.1,0.1,0.1l12.7,0
			c0.1,0,0.3,0,0.4-0.2c0.2-0.2,0.2-0.3,0.2-0.4V28c0-0.1,0-0.3-0.2-0.4c-0.2-0.2-0.3-0.2-0.4-0.2H134c-0.1,0-0.1,0-0.1,0.1
			c0,0,0,0.1,0,0.1c2,1.5,3,3.5,3,5.6c0,3.7-3,6.8-6.8,6.8c-3.7,0-6.8-3-6.8-6.8c0-2.1,1-4.1,3-5.6c0,0,0,0,0-0.1
			c0-0.1,0-0.1-0.1-0.1h-12.7c-0.1,0-0.3,0-0.4,0.2c-0.2,0.1-0.2,0.3-0.2,0.4v12.7c0,1.6-1.3,2.9-2.9,2.9c-0.9,0-1.7-0.4-2.3-1.1
			c-0.5-0.7-1.7-1.9-3.4-1.9c-2.2,0-4,1.8-4,4c0,2.2,1.8,4,4,4c1.8,0,2.9-1.2,3.4-1.9C108.2,46,109.1,45.6,110,45.6z"/>
	</g>
</g>
</svg>
