<?xml version="1.0" encoding="utf-8"?>
<!-- Generator: Adobe Illustrator 26.0.0, SVG Export Plug-In . SVG Version: 6.00 Build 0)  -->
<svg version="1.1" id="Layer_1" xmlns="http://www.w3.org/2000/svg" xmlns:xlink="http://www.w3.org/1999/xlink" x="0px" y="0px"
	 viewBox="0 0 160.2 180.7" style="enable-background:new 0 0 160.2 180.7;" xml:space="preserve">
<style type="text/css">
	.st0{fill:#5EC3DA;}
	.st1{fill:#27303E;}
	.st2{fill:#77569F;}
	.st3{fill:#FFFFFF;}
</style>
<g>
	<g>
		<g>
			<path class="st0" d="M160.2,139.2v-6.8l-9.8-2c-0.4-2.6-1.1-5.2-2-7.6l7.5-6.6l-3.4-5.9l-9.5,3.2c-1.6-2-3.5-3.9-5.6-5.6l3.2-9.5
				l-5.9-3.4l-6.6,7.5c-2.4-0.9-4.9-1.6-7.5-2l-2-9.8h-6.8l-2,9.8c-2.6,0.4-5.2,1.1-7.6,2L95.6,95l-5.9,3.4L93,108
				c-2,1.6-3.9,3.5-5.5,5.5l-9.5-3.2l-3.4,5.9l7.5,6.6c-0.9,2.4-1.6,4.9-2,7.5l-9.8,2v6.8l9.8,2c0.4,2.6,1.1,5.2,2,7.6l-7.5,6.6
				l3.4,5.9l9.5-3.2c1.6,2,3.5,3.9,5.5,5.5l-3.2,9.5l5.9,3.4l6.6-7.5c2.4,0.9,4.9,1.6,7.6,2l2,9.8h6.8l2-9.8c2.6-0.4,5.2-1.1,7.6-2
				l6.6,7.5l5.9-3.4l-3.2-9.5c2.1-1.6,3.9-3.5,5.6-5.6l9.5,3.2l3.4-5.9l-7.5-6.6c0.9-2.4,1.6-4.9,2-7.6L160.2,139.2z M115.2,154.5
				c-10.3,0-18.7-8.4-18.7-18.7c0-10.3,8.4-18.7,18.7-18.7c10.4,0,18.7,8.4,18.7,18.7C133.9,146.1,125.6,154.5,115.2,154.5z"/>
			<path class="st1" d="M115.2,158C103,158,93,148,93,135.7c0-12.2,10-22.2,22.2-22.2s22.2,10,22.2,22.2
				C137.4,148,127.5,158,115.2,158z"/>
			<g>
				<g>
					<rect x="20.7" y="40.3" class="st1" width="19.9" height="7"/>
					<rect x="40.6" y="65.5" class="st1" width="21.4" height="7"/>
					<rect x="40.6" y="78.1" class="st1" width="21.4" height="7"/>
					<rect x="40.6" y="116" class="st1" width="21.4" height="7"/>
					<rect x="40.6" y="128.7" class="st1" width="21.4" height="7"/>
					<rect x="20.7" y="52.9" class="st1" width="41.2" height="7"/>
					<rect x="20.7" y="90.8" class="st1" width="19.9" height="7"/>
					<rect x="20.7" y="103.4" class="st1" width="41.2" height="7"/>
					<rect x="70.3" y="65.5" class="st1" width="21.4" height="7"/>
					<rect x="70.3" y="78.1" class="st1" width="41.2" height="7"/>
					<rect x="70.3" y="52.9" class="st1" width="21.4" height="7"/>
				</g>
				<path class="st1" d="M132.2,29H0V0h132.2L132.2,29L132.2,29z M7,22.1h118.3V7H7V22.1z"/>
				<g>
					<rect x="13.9" y="11" class="st1" width="7" height="7"/>
					<rect x="27.8" y="11" class="st1" width="7" height="7"/>
					<rect x="41.7" y="11" class="st1" width="7" height="7"/>
				</g>
				<polygon class="st1" points="61.9,153.8 0,153.8 0,22.1 132.2,22.1 132.2,85.1 125.2,85.1 125.2,29 7,29 7,146.8 61.9,146.8 
									"/>
			</g>
		</g>
	</g>
	<g>
		<path class="st2" d="M102.2,127.8H129c1.7,0,3.1,1.4,3.1,3.1v10.2c0,1.7-1.4,3.1-3.1,3.1h-9.6l1.3,3.2l-5.8-3.2h-12.7
			c-1.7,0-3.1-1.4-3.1-3.1v-10.2C99.1,129.1,100.5,127.8,102.2,127.8L102.2,127.8z"/>
		<path class="st3" d="M101,130.6c0.2-0.3,0.5-0.4,0.8-0.4c0.7-0.1,1.1,0.3,1.2,1c0.4,2.8,0.9,5.2,1.4,7.1l2.9-5.6
			c0.3-0.5,0.6-0.8,1-0.8c0.6,0,1,0.3,1.1,1.1c0.3,1.8,0.8,3.3,1.3,4.6c0.3-3.4,0.9-5.9,1.8-7.4c0.2-0.4,0.5-0.6,0.9-0.6
			c0.3,0,0.6,0.1,0.8,0.3c0.3,0.2,0.4,0.5,0.4,0.8c0,0.2,0,0.4-0.1,0.6c-0.5,1-1,2.6-1.3,4.8c-0.3,2.2-0.5,3.9-0.4,5.1
			c0,0.3,0,0.6-0.2,0.9c-0.2,0.3-0.4,0.5-0.7,0.5c-0.3,0-0.7-0.1-1.1-0.5c-1.2-1.3-2.2-3.2-3-5.7c-0.9,1.7-1.5,3-1.9,3.9
			c-0.8,1.5-1.5,2.3-2,2.3c-0.4,0-0.7-0.3-0.9-0.9c-0.7-1.8-1.4-5.1-2.2-10.2C100.7,131.1,100.8,130.8,101,130.6L101,130.6z
			 M129.8,132.7c-0.5-0.8-1.2-1.4-2.1-1.6c-0.3-0.1-0.5-0.1-0.7-0.1c-1.3,0-2.3,0.7-3.1,2c-0.7,1.1-1,2.4-1,3.8c0,1,0.2,1.9,0.6,2.7
			c0.5,0.8,1.2,1.4,2.1,1.6c0.3,0.1,0.5,0.1,0.7,0.1c1.3,0,2.3-0.7,3.1-2c0.7-1.2,1-2.4,1-3.8C130.4,134.3,130.2,133.4,129.8,132.7z
			 M128.1,136.4c-0.2,0.9-0.5,1.5-1,2c-0.4,0.3-0.8,0.5-1.1,0.4c-0.3-0.1-0.6-0.3-0.8-0.9c-0.2-0.4-0.2-0.8-0.2-1.2
			c0-0.3,0-0.7,0.1-1c0.1-0.5,0.3-1.1,0.7-1.6c0.4-0.7,0.9-0.9,1.4-0.8c0.3,0.1,0.6,0.3,0.8,0.9c0.2,0.4,0.2,0.8,0.2,1.2
			C128.2,135.7,128.1,136.1,128.1,136.4L128.1,136.4z M121.4,132.7c-0.5-0.8-1.2-1.4-2.1-1.6c-0.3-0.1-0.5-0.1-0.7-0.1
			c-1.3,0-2.3,0.7-3.1,2c-0.7,1.1-1,2.4-1,3.8c0,1,0.2,1.9,0.6,2.7c0.5,0.8,1.2,1.4,2.1,1.6c0.3,0.1,0.5,0.1,0.7,0.1
			c1.3,0,2.3-0.7,3.1-2c0.7-1.2,1-2.4,1-3.8C122,134.3,121.8,133.4,121.4,132.7z M119.7,136.4c-0.2,0.9-0.5,1.5-1,2
			c-0.4,0.3-0.8,0.5-1.1,0.4c-0.3-0.1-0.6-0.3-0.8-0.9c-0.2-0.4-0.2-0.8-0.2-1.2c0-0.3,0-0.7,0.1-1c0.1-0.5,0.3-1.1,0.7-1.6
			c0.4-0.7,0.9-0.9,1.4-0.8c0.3,0.1,0.6,0.3,0.8,0.9c0.2,0.4,0.2,0.8,0.2,1.2C119.8,135.7,119.7,136.1,119.7,136.4L119.7,136.4z"/>
	</g>
</g>
</svg>
