<?xml version="1.0" encoding="utf-8"?>
<!-- Generator: Adobe Illustrator 25.2.1, SVG Export Plug-In . SVG Version: 6.00 Build 0)  -->
<svg version="1.1" id="Layer_1" xmlns="http://www.w3.org/2000/svg" xmlns:xlink="http://www.w3.org/1999/xlink" x="0px" y="0px"
	 viewBox="0 0 179.2 175" style="enable-background:new 0 0 179.2 175;" xml:space="preserve">
<style type="text/css">
	.st0{fill:#F26337;}
	.st1{fill:#252E3C;}
	.st2{fill:#FFFFFF;}
</style>
<g>
	<g>
		<g>
			<path class="st0" d="M14.9,36.5v106.2h60.3v-17.1c-14.3-5.7-24.4-19.7-24.4-36c0-21.4,17.4-38.8,38.8-38.8
				c21.4,0,38.8,17.4,38.8,38.8c0,16.3-10.1,30.3-24.4,36v17.1h60.3V36.5H14.9z"/>
			<polygon class="st1" points="179.2,157.6 96.8,157.6 96.8,150.7 172.3,150.7 172.3,28.4 6.9,28.4 6.9,150.7 82.4,150.7 
				82.4,157.6 0,157.6 0,21.5 179.2,21.5 			"/>
			<path class="st1" d="M179.2,28.4H0V0h179.2V28.4z M6.9,21.5h165.4V6.9H6.9V21.5z"/>
			<g>
				<rect x="42.5" y="10.8" class="st1" width="6.9" height="6.9"/>
				<rect x="28.7" y="10.8" class="st1" width="6.9" height="6.9"/>
				<rect x="14.9" y="10.8" class="st1" width="6.9" height="6.9"/>
			</g>
		</g>
		<g>
			<path class="st1" d="M89.6,131.8c-23.3,0-42.2-18.9-42.2-42.2c0-23.3,18.9-42.2,42.2-42.2c23.3,0,42.2,18.9,42.2,42.2
				C131.8,112.9,112.9,131.8,89.6,131.8z M89.6,54.3c-19.5,0-35.3,15.8-35.3,35.3c0,19.5,15.8,35.3,35.3,35.3
				c19.5,0,35.3-15.8,35.3-35.3C124.9,70.1,109.1,54.3,89.6,54.3z"/>
			<polygon class="st1" points="107.4,142.7 71.8,142.7 71.8,125.4 78.7,125.4 78.7,135.8 100.5,135.8 100.5,125.4 107.4,125.4 			
				"/>
			<g>
				<rect x="93.3" y="139.3" class="st1" width="6.9" height="35.7"/>
				<rect x="79" y="139.3" class="st1" width="6.9" height="35.7"/>
			</g>
		</g>
		<g>
			<rect x="27.7" y="72.4" class="st2" width="6.9" height="6.9"/>
			<rect x="27.7" y="86.1" class="st2" width="6.9" height="6.9"/>
			<rect x="27.7" y="99.9" class="st2" width="6.9" height="6.9"/>
		</g>
		<g>
			<rect x="144.6" y="72.4" class="st2" width="6.9" height="6.9"/>
			<rect x="144.6" y="86.1" class="st2" width="6.9" height="6.9"/>
			<rect x="144.6" y="99.9" class="st2" width="6.9" height="6.9"/>
		</g>
	</g>
	<path class="st1" d="M89.6,117.6c-15.5,0-28.1-12.4-28-28s11.9-28,28-28c16.1,0,28,12.6,28,28S105.1,117.6,89.6,117.6z M97.9,113.3
		l-7.9-21.4l-7.5,21.8C87.9,115,91.7,115.4,97.9,113.3L97.9,113.3z M78.5,112.1L66.6,79.5c-1.6,3.5-2,6.4-2.2,10
		C64.5,99.1,69.9,107.9,78.5,112.1z M114.7,89.6c0.1-6.2-2.7-11.1-2.9-11.8c0.2,4.8-0.5,7.2-1.3,9.9l-8.2,23.5
		c10.3-6.2,12.3-15.4,12.5-21.6H114.7L114.7,89.6z M88.8,88.5l-4-10.9l-2.9-0.2c-1.2-0.8-0.5-2.1,0.4-2.1c5.3,0.4,8.2,0.4,13.4,0
		c1.3,0,1.6,1.9,0.1,2.1L93,77.7l9.1,26.8l4.3-14.7c0.2-6.4-1.5-7.1-3.9-11.8c-1.9-3.6,0.1-7.1,3.7-7.2c-2.9-2.8-8.9-6.3-16.7-6.4
		c-7.8-0.1-16.1,3.9-21,11.3l8.6-0.2c1.1,0.5,0.6,2,0,2.1l-3,0.2l9.1,27.3L88.8,88.5L88.8,88.5z"/>
</g>
</svg>
