<?xml version="1.0" encoding="utf-8"?>
<!-- Generator: Adobe Illustrator 25.2.1, SVG Export Plug-In . SVG Version: 6.00 Build 0)  -->
<svg version="1.1" id="Layer_1" xmlns="http://www.w3.org/2000/svg" xmlns:xlink="http://www.w3.org/1999/xlink" x="0px" y="0px"
	 viewBox="0 0 195 187.8" style="enable-background:new 0 0 195 187.8;" xml:space="preserve">
<style type="text/css">
	.st0{fill:#252E3C;}
	.st1{fill:#F26337;}
	.st2{fill:#59C8DE;}
	.st3{fill:#FFFFFF;}
</style>
<g>
	<g>
		<g>
			<path class="st0" d="M163.3,69h-6.7v-6.1l-13.7-2.1l-0.4-2.4c-0.5-3-1.3-5.9-2.3-8.7l-0.9-2.3l10.8-8.7l-2.9-5l-12.9,5l-1.5-1.9
				c-1.9-2.3-4.1-4.5-6.4-6.4l-1.9-1.5l5-12.9l-5-2.9L115.9,24l-2.3-0.9c-2.8-1.1-5.7-1.8-8.7-2.3l-2.4-0.4l-2.1-13.7h-5.7
				l-2.1,13.7l-2.4,0.4c-3,0.5-5.9,1.3-8.7,2.3L79.1,24l-8.7-10.8l-5,2.9l5,12.9l-1.9,1.5c-2.3,1.9-4.5,4-6.4,6.4l-1.5,1.9l-12.9-5
				l-2.9,5l10.8,8.7l-0.9,2.3c-1.1,2.8-1.8,5.7-2.3,8.7l-0.4,2.4l-13.7,2.1V69h-6.7V57.1l14.6-2.2c0.4-1.8,0.8-3.5,1.4-5.3
				l-11.5-9.3l8.6-15l13.8,5.4c1.2-1.4,2.5-2.6,3.8-3.8l-5.4-13.8l15-8.6L81.3,16c1.7-0.6,3.5-1,5.3-1.4L88.8,0h17.3l2.2,14.6
				c1.8,0.4,3.5,0.8,5.3,1.4l9.3-11.5l15,8.6l-5.4,13.8c1.3,1.2,2.6,2.5,3.8,3.8l13.8-5.4l8.6,15l-11.5,9.3c0.6,1.7,1,3.5,1.4,5.3
				l14.6,2.2V69z"/>
			<path class="st1" d="M97.5,30.2c-19.7,0-35.6,15.9-35.6,35.6V69h20.6v-3.2h0c0-8.3,6.7-15,15-15s15,6.7,15,15V69h20.6v-3.2
				C133.1,46.1,117.1,30.2,97.5,30.2z"/>
			<path class="st0" d="M85.9,69l-6.7,0l0-3.2c0-10.1,8.2-18.3,18.3-18.3s18.3,8.2,18.3,18.3V69h-6.7v-3.2c0-6.4-5.2-11.6-11.6-11.6
				c-6.4,0-11.6,5.2-11.6,11.6L85.9,69z"/>
		</g>
		<g>
			<path class="st0" d="M179.1,168.9h-6.7V74.2c0-0.5-0.2-1-0.5-1.3c-0.3-0.3-0.8-0.5-1.3-0.5h-146c-0.5,0-1,0.2-1.3,0.5
				c-0.4,0.4-0.6,0.8-0.6,1.3v94.7h-6.7V74.2c0-2.3,0.9-4.4,2.5-6.1c1.6-1.6,3.8-2.5,6.1-2.5h146c2.3,0,4.4,0.9,6.1,2.5
				c1.6,1.6,2.5,3.8,2.5,6.1V168.9z"/>
			<rect x="31.8" y="81.6" class="st2" width="131.3" height="84.1"/>
			<path class="st0" d="M183.8,187.8H11.2c-3,0-5.8-1.2-7.9-3.3c-2.1-2.1-3.3-4.9-3.3-7.9v-11.2h195v11.2c0,3-1.2,5.8-3.3,7.9
				C189.6,186.7,186.8,187.8,183.8,187.8z M6.7,172.3v4.4c0,1.2,0.5,2.3,1.3,3.1c0.8,0.8,2,1.3,3.1,1.3h172.6c1.2,0,2.3-0.5,3.1-1.3
				c0.8-0.8,1.3-1.9,1.3-3.1v-4.4H6.7z"/>
		</g>
		<g>
			<g>
				<rect x="147.5" y="120.3" class="st0" width="6.7" height="6.7"/>
				<rect x="40.8" y="120.3" class="st0" width="6.7" height="6.7"/>
			</g>
		</g>
	</g>
	<path class="st3" d="M97.5,156.7c-18.4,0-33.3-14.6-33.1-33.1c0.1-18.5,14.1-33.1,33.1-33.1c19,0,33.1,14.9,33.1,33.1
		S115.8,156.7,97.5,156.7z M107.3,151.6l-9.4-25.3l-8.8,25.8C95.5,153.7,100,154.1,107.3,151.6L107.3,151.6z M84.4,150.3l-14.1-38.5
		c-1.9,4.1-2.3,7.6-2.6,11.9C67.8,134.9,74.1,145.3,84.4,150.3z M127.2,123.6c0.1-7.3-3.2-13.1-3.5-13.9c0.3,5.7-0.6,8.6-1.5,11.7
		l-9.7,27.7c12.1-7.3,14.5-18.2,14.8-25.5H127.2L127.2,123.6z M96.5,122.4l-4.7-12.8l-3.5-0.3c-1.4-1-0.6-2.5,0.4-2.5
		c6.2,0.4,9.7,0.4,15.9,0c1.5,0,1.9,2.2,0.1,2.5l-3.3,0.3l10.8,31.7l5.1-17.4c0.3-7.6-1.8-8.4-4.6-13.9c-2.2-4.3,0.1-8.4,4.4-8.6
		c-3.5-3.3-10.5-7.5-19.7-7.6c-9.2-0.1-19,4.6-24.8,13.4l10.2-0.3c1.2,0.6,0.7,2.3,0,2.5l-3.6,0.3L90,142L96.5,122.4L96.5,122.4z"/>
</g>
</svg>
