<?xml version="1.0" encoding="utf-8"?>
<!-- Generator: Adobe Illustrator 26.0.3, SVG Export Plug-In . SVG Version: 6.00 Build 0)  -->
<svg version="1.1" id="Layer_1" xmlns="http://www.w3.org/2000/svg" xmlns:xlink="http://www.w3.org/1999/xlink" x="0px" y="0px"
	 viewBox="0 0 300 300" style="enable-background:new 0 0 300 300;" xml:space="preserve">
<style type="text/css">
	.st0{fill:#21759B;}
</style>
<g transform="matrix(2.44844 0 0 2.44844 130 50.0049)">
	<path class="st0" d="M-44.4,40.8c0,20.8,12.1,38.8,29.6,47.3l-25.1-68.7C-42.8,26-44.4,33.2-44.4,40.8z"/>
	<path class="st0" d="M43.6,38.2c0-6.5-2.3-11-4.3-14.5c-2.7-4.3-5.2-8-5.2-12.3C34.1,6.5,37.8,2,43,2c0.2,0,0.5,0,0.7,0
		C34.3-6.5,21.8-11.7,8.2-11.7c-18.4,0-34.5,9.4-43.9,23.7c1.2,0,2.4,0.1,3.4,0.1c5.5,0,14-0.7,14-0.7c2.8-0.2,3.2,4,0.3,4.3
		c0,0-2.8,0.3-6,0.5l19.1,56.9L6.6,38.6l-8.2-22.4c-2.8-0.2-5.5-0.5-5.5-0.5c-2.8-0.2-2.5-4.5,0.3-4.3c0,0,8.7,0.7,13.8,0.7
		c5.5,0,14-0.7,14-0.7c2.8-0.2,3.2,4,0.3,4.3c0,0-2.9,0.3-6,0.5l19,56.5l5.2-17.5C41.9,47.9,43.6,42.7,43.6,38.2L43.6,38.2z"/>
	<path class="st0" d="M9.1,45.4L-6.7,91.3C-2,92.6,3,93.4,8.2,93.4c6.1,0,12-1.1,17.5-3c-0.1-0.2-0.3-0.5-0.4-0.7L9.1,45.4z"/>
	<path class="st0" d="M54.3,15.6c0.2,1.7,0.4,3.5,0.4,5.4c0,5.3-1,11.3-4,18.8L34.6,86.3c15.6-9.1,26.1-26,26.1-45.4
		C60.7,31.7,58.4,23.1,54.3,15.6L54.3,15.6z"/>
	<path class="st0" d="M8.2-20.4c-33.8,0-61.3,27.5-61.3,61.3c0,33.8,27.5,61.3,61.3,61.3c33.8,0,61.3-27.5,61.3-61.3
		C69.4,7.1,41.9-20.4,8.2-20.4z M8.2,99.3c-32.2,0-58.5-26.2-58.5-58.5c0-32.2,26.2-58.5,58.5-58.5c32.2,0,58.5,26.2,58.5,58.5
		C66.6,73.1,40.4,99.3,8.2,99.3z"/>
</g>
</svg>
