<?xml version="1.0" encoding="utf-8"?>
<!-- Generator: Adobe Illustrator 25.2.1, SVG Export Plug-In . SVG Version: 6.00 Build 0)  -->
<svg version="1.1" id="Layer_1" xmlns="http://www.w3.org/2000/svg" xmlns:xlink="http://www.w3.org/1999/xlink" x="0px" y="0px"
	 viewBox="0 0 184.7 184.9" style="enable-background:new 0 0 184.7 184.9;" xml:space="preserve">
<style type="text/css">
	.st0{fill:#F26337;}
	.st1{fill:#252E3C;}
	.st2{fill:#FFFFFF;}
</style>
<g>
	<g>
		<path class="st0" d="M139.3,92.4c0,25.9-21,47-47,47c-25.9,0-47-21-47-47s21-47,47-47C118.2,45.4,139.3,66.5,139.3,92.4z"/>
		<path class="st1" d="M102,184.9H82.7l-4-19.9c-3.7-0.7-7.3-1.7-10.9-2.9l-13.3,15.2l-16.7-9.6l6.5-19.2c-2.9-2.5-5.5-5.1-8-8
			L17.1,147l-9.6-16.7l15.2-13.4c-1.3-3.6-2.2-7.2-2.9-10.9L0,102V82.7l19.8-4c0.5-3.6,1.5-7.3,2.8-10.8L7.4,54.5L17,37.9l19.2,6.4
			c2.5-2.9,5.1-5.5,8-8l-6.5-19.2l16.7-9.6l13.3,15.2c3.6-1.3,7.2-2.2,10.9-2.9l4-19.8h19.3l4,19.8c3.7,0.7,7.3,1.7,10.9,2.9
			l13.3-15.2l16.7,9.6l-6.5,19.2c2.9,2.5,5.6,5.1,8,8l19.2-6.4l9.6,16.6L162,67.9c1.3,3.6,2.2,7.2,2.9,10.9l19.8,4v19.3l-19.8,3.9
			c-0.7,3.7-1.7,7.3-2.9,10.9l15.1,13.4l-9.6,16.7l-19.2-6.5c-2.5,2.9-5.2,5.6-8,8l6.5,19.2l-16.7,9.6l-13.4-15.2
			c-3.6,1.3-7.2,2.2-10.9,2.9L102,184.9z M88.5,177.8h7.6l3.8-19l2.5-0.4c4.8-0.7,9.6-2,14.2-3.8l2.3-0.9l12.8,14.5l6.6-3.8
			l-6.2-18.3l1.9-1.6c3.9-3.1,7.4-6.6,10.4-10.4l1.6-1.9l18.3,6.2l3.8-6.6L153.6,119l0.9-2.3c1.8-4.6,3.1-9.4,3.8-14.2l0.4-2.5
			l18.9-3.8v-7.7l-18.9-3.8l-0.4-2.5c-0.7-4.8-2-9.6-3.8-14.2l-0.9-2.3l14.5-12.8l-3.8-6.6L146,52.5l-1.6-1.9
			c-3.1-3.8-6.6-7.3-10.4-10.4l-1.9-1.6l6.2-18.3l-6.6-3.8L118.9,31l-2.3-0.9c-4.6-1.8-9.4-3.1-14.2-3.8l-2.5-0.4l-3.8-19h-7.6
			l-3.8,19l-2.5,0.4c-4.8,0.7-9.6,2-14.2,3.8L65.7,31L52.9,16.5l-6.6,3.8l6.2,18.3l-1.9,1.6c-3.8,3.1-7.3,6.6-10.4,10.4l-1.6,1.9
			l-18.3-6.1L16.5,53L31,65.8l-0.9,2.3c-1.8,4.6-3.1,9.4-3.8,14.2l-0.4,2.5L7,88.6v7.7l18.9,3.8l0.4,2.5c0.7,4.8,2,9.6,3.8,14.2
			l0.9,2.3l-14.5,12.8l3.8,6.5l18.3-6.2l1.6,1.9c3.1,3.9,6.6,7.4,10.4,10.4l1.9,1.6l-6.2,18.3l6.6,3.8l12.8-14.5l2.3,0.9
			c4.6,1.8,9.4,3.1,14.2,3.8l2.5,0.4L88.5,177.8z"/>
	</g>
	<g>
		<rect x="88.7" y="31.9" class="st1" width="7.1" height="7.1"/>
		<rect x="88.7" y="145.8" class="st1" width="7.1" height="7.1"/>
		<rect x="31.8" y="88.8" class="st1" width="7.1" height="7.1"/>
		<rect x="145.7" y="88.8" class="st1" width="7.1" height="7.1"/>
	</g>
</g>
<path class="st2" d="M92.3,121.9c-16.3,0-29.6-13-29.5-29.5s12.5-29.5,29.5-29.5s29.5,13.3,29.5,29.5S108.6,121.9,92.3,121.9z
	 M101,117.3l-8.4-22.5l-7.9,23C90.6,119.2,94.5,119.5,101,117.3L101,117.3z M80.6,116.1L68.1,81.8c-1.7,3.7-2.1,6.8-2.3,10.6
	C65.9,102.5,71.5,111.7,80.6,116.1z M118.7,92.4c0.1-6.5-2.8-11.7-3.1-12.4c0.2,5-0.5,7.6-1.4,10.4l-8.6,24.7
	C116.4,108.6,118.5,98.9,118.7,92.4L118.7,92.4L118.7,92.4z M91.4,91.3l-4.1-11.4l-3.1-0.2c-1.2-0.9-0.5-2.2,0.4-2.2
	c5.5,0.4,8.6,0.4,14.1,0c1.4,0,1.7,2,0.1,2.2l-2.9,0.2l9.6,28.3l4.5-15.5c0.2-6.8-1.6-7.5-4.1-12.4c-2-3.8,0.1-7.5,3.9-7.6
	c-3.1-2.9-9.3-6.6-17.6-6.8c-8.2-0.1-17,4.1-22.1,11.9l9.1-0.2c1.1,0.5,0.6,2.1,0,2.2L76,80l9.6,28.7L91.4,91.3L91.4,91.3z"/>
</svg>
