<?xml version="1.0" encoding="utf-8"?>
<!-- Generator: Adobe Illustrator 25.2.1, SVG Export Plug-In . SVG Version: 6.00 Build 0)  -->
<svg version="1.1" id="Layer_1" xmlns="http://www.w3.org/2000/svg" xmlns:xlink="http://www.w3.org/1999/xlink" x="0px" y="0px"
	 viewBox="0 0 183.1 157" style="enable-background:new 0 0 183.1 157;" xml:space="preserve">
<style type="text/css">
	.st0{fill:#252E3C;}
	.st1{fill:#59C8DE;}
	.st2{fill:#F26337;}
	.st3{fill:#FFFFFF;}
</style>
<g>
	<g>
		<path class="st0" d="M183.1,157H0V22.2h183.1V157z M7.1,149.9H176V29.3H7.1V149.9z"/>
		<path class="st0" d="M183.1,29.3H0V0h183.1V29.3z M7.1,22.2H176V7.1H7.1V22.2z"/>
		<rect x="56.8" y="25.7" class="st0" width="7.1" height="127.7"/>
		<g>
			<rect x="42.6" y="11.1" class="st0" width="7.1" height="7.1"/>
			<rect x="28.4" y="11.1" class="st0" width="7.1" height="7.1"/>
			<rect x="14.2" y="11.1" class="st0" width="7.1" height="7.1"/>
		</g>
	</g>
	<g>
		<g>
			<path class="st0" d="M112.1,57.7H90.8V36.4h21.3V57.7z M97.9,50.6h7.1v-7.1h-7.1V50.6z"/>
			<path class="st0" d="M140.5,57.7h-21.3V36.4h21.3V57.7z M126.3,50.6h7.1v-7.1h-7.1V50.6z"/>
			<rect x="147.6" y="36.4" class="st1" width="21.3" height="21.3"/>
		</g>
		<path class="st0" d="M168.9,86H90.8V64.8h78.1V86z M97.9,78.9h63.9v-7.1H97.9V78.9z"/>
		<rect x="90.8" y="93.1" class="st2" width="78.1" height="21.3"/>
		<path class="st0" d="M126.3,142.8H90.8v-21.3h35.5V142.8z M97.9,135.7h21.3v-7.1H97.9V135.7z"/>
		<g>
			<polygon class="st0" points="84.4,135.7 71,135.7 71,43.5 84.4,43.5 84.4,50.6 78.1,50.6 78.1,128.6 84.4,128.6 			"/>
			<rect x="74.5" y="71.8" class="st0" width="9.9" height="7.1"/>
			<rect x="74.5" y="100.2" class="st0" width="9.9" height="7.1"/>
		</g>
		<g>
			<rect x="161.8" y="128.6" class="st0" width="7.1" height="7.1"/>
			<rect x="147.6" y="128.6" class="st0" width="7.1" height="7.1"/>
			<rect x="133.4" y="128.6" class="st0" width="7.1" height="7.1"/>
		</g>
	</g>
	<g>
		<rect x="14.2" y="78.9" class="st0" width="35.5" height="7.1"/>
		<rect x="14.2" y="93.1" class="st0" width="35.5" height="7.1"/>
		<rect x="14.2" y="107.3" class="st0" width="35.5" height="7.1"/>
		<rect x="14.2" y="121.5" class="st0" width="35.5" height="7.1"/>
		<rect x="14.2" y="135.7" class="st0" width="35.5" height="7.1"/>
	</g>
</g>
<g>
	<circle class="st2" cx="31.6" cy="53.8" r="21.3"/>
	<path class="st3" d="M31.6,69.5c-8.7,0-15.8-6.9-15.7-15.7s6.7-15.7,15.7-15.7c9,0,15.7,7.1,15.7,15.7S40.3,69.5,31.6,69.5z
		 M36.2,67.1l-4.5-12l-4.2,12.3C30.7,68.1,32.8,68.3,36.2,67.1L36.2,67.1z M25.4,66.5l-6.7-18.3c-0.9,2-1.1,3.6-1.2,5.6
		C17.5,59.2,20.5,64.1,25.4,66.5z M45.7,53.8c0.1-3.5-1.5-6.2-1.6-6.6c0.1,2.7-0.3,4.1-0.7,5.6l-4.6,13.2
		C44.5,62.5,45.6,57.3,45.7,53.8L45.7,53.8L45.7,53.8z M31.1,53.2l-2.2-6.1L27.3,47c-0.7-0.5-0.3-1.2,0.2-1.2c2.9,0.2,4.6,0.2,7.5,0
		c0.7,0,0.9,1,0.1,1.2l-1.6,0.1l5.1,15.1l2.4-8.3c0.1-3.6-0.9-4-2.2-6.6c-1-2,0.1-4,2.1-4.1c-1.6-1.6-5-3.5-9.4-3.6s-9,2.2-11.8,6.4
		l4.9-0.1c0.6,0.3,0.3,1.1,0,1.2l-1.7,0.1l5.1,15.3L31.1,53.2L31.1,53.2z"/>
</g>
</svg>
