<?xml version="1.0" encoding="utf-8"?>
<!-- Generator: Adobe Illustrator 25.2.1, SVG Export Plug-In . SVG Version: 6.00 Build 0)  -->
<svg version="1.1" id="Layer_1" xmlns="http://www.w3.org/2000/svg" xmlns:xlink="http://www.w3.org/1999/xlink" x="0px" y="0px"
	 viewBox="0 0 70.14 73.62" style="enable-background:new 0 0 70.14 73.62;" xml:space="preserve">
<style type="text/css">
	.st0{clip-path:url(#SVGID_2_);}
	.st1{opacity:0.04;clip-path:url(#SVGID_4_);}
	.st2{clip-path:url(#SVGID_6_);fill:#373F54;}
	.st3{clip-path:url(#SVGID_2_);fill:#87E2CD;}
	.st4{clip-path:url(#SVGID_8_);}
	.st5{clip-path:url(#SVGID_8_);fill:#87E2CD;}
</style>
<g>
	<defs>
		<rect id="SVGID_1_" width="70.14" height="73.62"/>
	</defs>
	<clipPath id="SVGID_2_">
		<use xlink:href="#SVGID_1_"  style="overflow:visible;"/>
	</clipPath>
	<g class="st0">
		<defs>
			<rect id="SVGID_3_" y="0" width="70.14" height="73.62"/>
		</defs>
		<clipPath id="SVGID_4_">
			<use xlink:href="#SVGID_3_"  style="overflow:visible;"/>
		</clipPath>
		<g class="st1">
			<g>
				<defs>
					<rect id="SVGID_5_" width="70.14" height="73.62"/>
				</defs>
				<clipPath id="SVGID_6_">
					<use xlink:href="#SVGID_5_"  style="overflow:visible;"/>
				</clipPath>
				<path class="st2" d="M42.31,7.14c-4.52-2.72-10.14-2.86-14.79-0.38l-14.55,7.78c-4.87,2.6-7.92,7.67-7.93,13.19L5,44.23
					c-0.01,5.28,2.75,10.17,7.27,12.89l15.56,9.35c4.52,2.72,10.14,2.86,14.79,0.38l14.55-7.77c4.87-2.6,7.92-7.67,7.93-13.19
					l0.04-16.5c0.01-5.28-2.75-10.17-7.28-12.89L42.31,7.14z M44.88,2.86l15.56,9.35c6.03,3.62,9.71,10.15,9.7,17.18l-0.04,16.5
					c-0.02,7.36-4.08,14.12-10.57,17.59l-14.55,7.78c-6.21,3.32-13.69,3.13-19.73-0.5L9.7,61.41C3.67,57.79-0.02,51.26,0,44.22
					l0.04-16.49c0.02-7.36,4.08-14.12,10.57-17.59l14.55-7.77C31.36-0.96,38.85-0.77,44.88,2.86"/>
			</g>
		</g>
	</g>
	<rect x="21.08" y="27.27" class="st3" width="22.89" height="24.53"/>
	<g class="st0">
		<defs>
			<rect id="SVGID_7_" y="0" width="70.14" height="73.62"/>
		</defs>
		<clipPath id="SVGID_8_">
			<use xlink:href="#SVGID_7_"  style="overflow:visible;"/>
		</clipPath>
		<path class="st4" d="M49.62,41.73c0.9,0,1.64-0.74,1.64-1.64V23.54c-0.01-3.6-2.92-6.52-6.52-6.52H39.6v-2.45
			c0-0.9-0.73-1.64-1.64-1.64h-6.54c-0.9,0-1.64,0.74-1.64,1.64v2.45h-5.13c-3.6,0.01-6.51,2.92-6.52,6.52v24.63
			c0.01,3.6,2.92,6.51,6.52,6.52h20.06c3.6-0.01,6.51-2.92,6.52-6.52c0-0.9-0.73-1.64-1.64-1.64c-0.91,0-1.64,0.73-1.64,1.64v0
			c0,1.8-1.46,3.26-3.26,3.26c0,0,0,0,0,0H24.67c-1.8,0-3.26-1.45-3.26-3.25c0,0,0-0.01,0-0.01V23.56c0-1.8,1.45-3.26,3.25-3.26
			c0,0,0,0,0.01,0h5.13v0.81c0,2.71,2.19,4.9,4.9,4.9c2.71,0,4.9-2.19,4.9-4.9V20.3h5.13c1.8,0,3.26,1.45,3.26,3.25v0.01v16.55
			C48,41.01,48.72,41.73,49.62,41.73 M36.33,21.11c0,0.9-0.73,1.64-1.64,1.64c-0.91,0-1.64-0.73-1.64-1.64v0v-4.9h3.26v4.9H36.33z
			 M43.46,31.52c0.74,0.51,0.93,1.52,0.42,2.26c0,0,0,0.01-0.01,0.01l-7.27,10.46c-0.02,0.03-0.05,0.07-0.07,0.1
			c-0.74,0.91-1.83,1.48-3,1.56c-0.1,0-0.18,0.02-0.28,0.02c-1.08,0-2.12-0.41-2.9-1.16l-0.02-0.02l-4.3-4.27
			c-0.64-0.63-0.65-1.66-0.01-2.3s1.66-0.65,2.3-0.01l4.3,4.25c0.19,0.18,0.44,0.27,0.7,0.25c0.24-0.02,0.47-0.13,0.63-0.32
			l7.22-10.4C41.69,31.2,42.71,31.01,43.46,31.52C43.45,31.52,43.46,31.52,43.46,31.52"/>
		<path class="st5" d="M55.13,13.13c1.31,0,2.37,1.06,2.37,2.37c0,1.31-1.06,2.37-2.37,2.37c-1.31,0-2.37-1.06-2.37-2.37
			C52.76,14.19,53.82,13.13,55.13,13.13"/>
		<path class="st5" d="M15.1,13.03c1.36,0,2.47,1.11,2.47,2.47s-1.1,2.47-2.47,2.47s-2.47-1.1-2.47-2.47S13.74,13.03,15.1,13.03"/>
		<path class="st5" d="M55.13,32.68c0.63,0,1.14,0.51,1.14,1.14s-0.51,1.14-1.14,1.14c-0.63,0-1.14-0.51-1.14-1.14
			S54.5,32.68,55.13,32.68"/>
		<path class="st5" d="M15.1,33.84c0.63,0,1.14,0.51,1.14,1.14s-0.51,1.14-1.14,1.14c-0.63,0-1.14-0.51-1.14-1.14
			S14.47,33.84,15.1,33.84"/>
		<path class="st5" d="M55.13,54.02c1.31,0,2.37,1.06,2.37,2.37s-1.06,2.37-2.37,2.37c-1.31,0-2.37-1.06-2.37-2.37
			S53.82,54.02,55.13,54.02"/>
		<path class="st5" d="M12.88,55.57c0.44-1.23,1.79-1.88,3.02-1.44c1.23,0.44,1.87,1.79,1.44,3.02c-0.44,1.23-1.79,1.88-3.02,1.44
			C13.08,58.16,12.44,56.8,12.88,55.57"/>
	</g>
</g>
</svg>
