<svg xmlns="http://www.w3.org/2000/svg" viewBox="0 0 26.96 28.6"><defs><style>.cls-1{fill:#404040;}</style></defs><g id="Layer_2" data-name="Layer 2"><g id="Layer_1-2" data-name="Layer 1"><g id="Group_310" data-name="Group 310"><g id="flutter"><path class="cls-1" d="M15,21.2l-4.8-4.8,4.1-4.1h8.6v2H15.1L13,16.4l3.4,3.4ZM4.8,19.1,0,14.3,14.2,0h8.6V2H15L2.8,14.3l3.4,3.4Z"/><polygon class="cls-1" points="25.3 28.6 14.2 28.6 10.9 25.2 12.3 23.8 15.1 26.6 20.4 26.6 15 21.1 16.4 19.7 25.3 28.6"/><path class="cls-1" d="M11.6,25.9,6.1,20.4l5.5-5.5,5.5,5.5ZM8.9,20.4l2.7,2.7,2.7-2.7-2.7-2.7Z"/><rect class="cls-1" x="13.7" y="16.11" width="11.5" height="2" transform="translate(-6.38 19.09) rotate(-45.71)"/></g></g><circle id="Ellipse_126-9" data-name="Ellipse 126-9" class="cls-1" cx="5.06" cy="4.1" r="1.2"/><circle id="Ellipse_127-12" data-name="Ellipse 127-12" class="cls-1" cx="24.16" cy="22.6" r="1.2"/><circle id="Ellipse_128-12" data-name="Ellipse 128-12" class="cls-1" cx="26.46" cy="23.8" r="0.5"/></g></g></svg>