<svg id="Layer_1" data-name="Layer 1" xmlns="http://www.w3.org/2000/svg" viewBox="0 0 495.96 495.65"><defs><style>.cls-1{fill:#fff;}</style></defs><path class="cls-1" d="M472.37,0l-5.1,9-5.2-9Z"/><path class="cls-1" d="M450.58,280.2l12.7,21.53c-1.7.5-23.13.58-25.45.09Z"/><path class="cls-1" d="M433.82,299.82,421.18,278.4h25C446,279.72,436.79,295.66,433.82,299.82Z"/><path class="cls-1" d="M479.72,278.55c-4.19,7.1-8.25,14-12.46,21.12l-12.33-20.88C456.36,278.25,475.72,278.06,479.72,278.55Z"/><path class="cls-1" d="M417.23,280.62l12.53,21.24h-25Z"/><path class="cls-1" d="M450.58,327.81l-12.38-21h24.72C458.9,313.81,454.82,320.57,450.58,327.81Z"/><path class="cls-1" d="M405.28,306.88h23.6c-.14,1.35-8.22,15.5-11.5,20.14C416.31,326.11,406.87,310.45,405.28,306.88Z"/><path class="cls-1" d="M446,273.41H421.82l12.07-20.48C438,259.79,441.9,266.46,446,273.41Z"/><path class="cls-1" d="M445.93,329.85H422.4c.17-1.38,8.74-16.36,11.61-20.22C438,316.35,441.87,323,445.93,329.85Z"/><path class="cls-1" d="M496,301.56H471.9l12-20.39C488,288.1,491.91,294.7,496,301.56Z"/><path class="cls-1" d="M400.46,298.61,389,279.14c1.6-.46,20-.59,22.87-.22C411.52,280.38,403.09,295,400.46,298.61Z"/><path class="cls-1" d="M467.25,253.08,479,273c-2,.63-3.94.26-5.8.33s-4,0-6,0H455.3C459.36,266.47,463.21,260,467.25,253.08Z"/><path class="cls-1" d="M450.5,270.35c-3.89-6.59-7.65-13-11.41-19.33,1.41-.53,18.6-.72,22.73-.29C461.5,252.19,453.58,266,450.5,270.35Z"/><path class="cls-1" d="M472.71,307.32h22.63c-3.82,6.49-7.5,12.72-11.18,19C483,325.3,474.23,310.76,472.71,307.32Z"/><path class="cls-1" d="M455.85,329.43l11.39-19.31c3.85,6.52,7.56,12.78,11.27,19.07C477.08,329.72,459.89,329.9,455.85,329.43Z"/><path class="cls-1" d="M428.61,188.22H406.36c.21-1.39,9.13-16.81,11-19C421.08,175.47,424.75,181.69,428.61,188.22Z"/><path class="cls-1" d="M445.16,166.34l-11.24,19.07c-3.89-6.46-7.54-12.73-11.25-19C424.34,165.81,443.07,165.75,445.16,166.34Z"/><path class="cls-1" d="M400.56,310.38l11.21,19H389.35Z"/><path class="cls-1" d="M384,282.35l11,18.74h-22C373.36,299.74,382.28,284.4,384,282.35Z"/><path class="cls-1" d="M461.72,188.08H439.44l11.14-18.88C454.35,175.6,458,181.7,461.72,188.08Z"/><path class="cls-1" d="M417.23,270l-11.07-18.77c1.66-.48,19.32-.6,22.17-.16C424.75,257.4,421,263.5,417.23,270Z"/><path class="cls-1" d="M445.05,216.27H422.76l11.14-18.89C437.67,203.75,441.29,209.89,445.05,216.27Z"/><path class="cls-1" d="M411.64,166.25,400.56,185l-11.08-18.79Z"/><path class="cls-1" d="M473.08,251h21.51c-.28,1.48-8.22,15.29-10.55,18.41C483,268.37,474,253.49,473.08,251Z"/><path class="cls-1" d="M450.58,225.94l10.94,18.53H439.65C443.33,238.22,446.86,232.25,450.58,225.94Z"/><path class="cls-1" d="M417.16,213.17l-11-18.59h21.64C427.53,196.08,420.54,208.3,417.16,213.17Z"/><path class="cls-1" d="M383.88,326.2l-11-18.67c7.46-.08,14.53,0,22.05,0C391.18,313.83,387.62,319.86,383.88,326.2Z"/><path class="cls-1" d="M411.55,272.7h-22l11-18.63Z"/><path class="cls-1" d="M461.58,194.59l-11,18.64-11-18.64Z"/><path class="cls-1" d="M433.9,141.22l10.75,18.21c-1.6.45-18.93.54-21.55.11C426.68,153.47,430.21,147.49,433.9,141.22Z"/><path class="cls-1" d="M411.46,159.72H390.12c.22-1.43,7-13.35,10.49-18.33C404.26,147.43,407.73,153.42,411.46,159.72Z"/><path class="cls-1" d="M423.09,335.92h21.19C444,337.36,436,351.21,433.79,354Z"/><path class="cls-1" d="M456.69,215.89,467.26,198l10.5,17.79C476.15,216.28,459.19,216.37,456.69,215.89Z"/><path class="cls-1" d="M444.59,223.11c-3.55,6-7,11.94-10.68,18.12l-10.59-17.95C425,222.72,441.94,222.59,444.59,223.11Z"/><path class="cls-1" d="M417.23,226.22l10.63,18H406.6C410.14,238.25,413.57,232.44,417.23,226.22Z"/><path class="cls-1" d="M477.79,223.1,467.25,241c-3.57-6.05-7-11.84-10.54-17.86Z"/><path class="cls-1" d="M477.77,166.62c-3.55,6-6.92,11.72-10.3,17.46C466.3,183,457.9,169,457,166.62Z"/><path class="cls-1" d="M394.22,187.61H374c.2-1.34,7.48-14.07,10-17.33C387.39,176,390.73,181.69,394.22,187.61Z"/><path class="cls-1" d="M473.47,244.28c3.58-6.07,6.91-11.71,10.46-17.71l10.42,17.66C487.3,244.34,480.61,244.27,473.47,244.28Z"/><path class="cls-1" d="M400.69,198.37l10.23,17.35c-1.72.45-17.89.55-20.41.19C390.77,214.55,398.87,200.54,400.69,198.37Z"/><path class="cls-1" d="M377.56,279.58l-10.35,17.55L357,279.76a55.49,55.49,0,0,1,6.87-.17c2.2,0,4.39,0,6.59,0Z"/><path class="cls-1" d="M406.9,138.46h20.65L417.23,156Z"/><path class="cls-1" d="M483.93,212.26,473.8,195.08h20.26Z"/><path class="cls-1" d="M377.17,328.77H357.5c.25-1.43,6.37-12.19,9.56-16.81C368.13,312.91,375.6,325.26,377.17,328.77Z"/><path class="cls-1" d="M340.49,308.1h20.09l-10.05,17C347.12,319.34,343.88,313.84,340.49,308.1Z"/><path class="cls-1" d="M373.8,251.59H394l-10.07,17.08C380.49,262.91,377.24,257.41,373.8,251.59Z"/><path class="cls-1" d="M390.41,336.35h19.84c-.25,1.41-7.3,13.7-9.79,17C397.12,347.72,393.84,342.16,390.41,336.35Z"/><path class="cls-1" d="M377.21,159.18h-20c3.38-5.74,6.6-11.19,10-16.94Z"/><path class="cls-1" d="M383.89,155.66c-3.45-5.84-6.67-11.31-10.13-17.16h20.13C390.69,144.33,387.3,149.75,383.89,155.66Z"/><path class="cls-1" d="M477.3,336.42l-10.05,17-9.9-16.77C459,336.17,472.18,336,477.3,336.42Z"/><path class="cls-1" d="M483.92,170.35l10.05,17a48.16,48.16,0,0,1-6.71.19c-2.19,0-4.38,0-6.58,0h-6.91Z"/><path class="cls-1" d="M393.86,195.15c-3.38,5.72-6.59,11.16-10,16.9-3.4-5.77-6.62-11.21-10-16.9Z"/><path class="cls-1" d="M400.56,240.47l-9.94-16.86c1.73-.46,17.47-.54,19.95-.1C407.25,229.11,404,234.62,400.56,240.47Z"/><path class="cls-1" d="M360.47,300.37H341c.32-1.43,7.62-14.07,9.63-16.62C353.88,289.22,357.07,294.61,360.47,300.37Z"/><path class="cls-1" d="M450.49,155.19l-9.72-16.47H460C459.62,140.22,453,151.74,450.49,155.19Z"/><path class="cls-1" d="M427.15,356.88H407.32l9.92-16.8C420.6,345.79,423.78,351.18,427.15,356.88Z"/><path class="cls-1" d="M377,167.06l-9.8,16.62-9.61-16.27a1.81,1.81,0,0,1,.12-.34.23.23,0,0,1,.15-.11l18.09-.1A7,7,0,0,1,377,167.06Z"/><path class="cls-1" d="M460.46,356.87H440.81c3.11-5.67,6.42-10.95,9.74-16.71C454,345.75,457.07,351.15,460.46,356.87Z"/><path class="cls-1" d="M457.51,158.89l9.74-16.5,9.63,16.31C475.3,159.21,460.53,159.35,457.51,158.89Z"/><path class="cls-1" d="M383.89,227.38l9.67,16.39H374.27C377.4,238.25,380.56,233,383.89,227.38Z"/><path class="cls-1" d="M376.88,272H357.55l9.66-16.39C370.46,261.12,373.57,266.39,376.88,272Z"/><path class="cls-1" d="M343.39,328.38H324.34l9.52-16.14Z"/><path class="cls-1" d="M326.37,308.61l-9.17,15.55c-3.17-5.25-6.1-10.29-9.07-15.34C309.62,308.34,322.5,308.19,326.37,308.61Z"/><path class="cls-1" d="M358,215.23l9.19-15.59,9.21,15.59Z"/><path class="cls-1" d="M376.44,336.93l-9.23,15.63-9.13-15.47C359.69,336.65,373.28,336.53,376.44,336.93Z"/><path class="cls-1" d="M350.55,154.68l-9.05-15.32c1.47-.53,11.92-.7,18.13-.3C356.8,144.32,353.67,149.23,350.55,154.68Z"/><path class="cls-1" d="M417.23,114.9l9,15.19c-1.39.55-14.37.72-18.06.24C411.13,125.25,414.06,120.27,417.23,114.9Z"/><path class="cls-1" d="M343,280.39l-9.14,15.49c-3.1-5.26-6-10.23-9-15.24C326.61,280.17,337.81,280,343,280.39Z"/><path class="cls-1" d="M384,115.28c3,5,5.86,9.92,8.88,15.05H375.36C375.7,128.79,381.32,118.93,384,115.28Z"/><path class="cls-1" d="M374.82,356.33,383.88,341l8.92,15.1C391.34,356.63,378.64,356.8,374.82,356.33Z"/><path class="cls-1" d="M350.55,171.7c3,5.17,5.91,10,8.92,15.14H341.64C344.57,181.71,347.47,176.89,350.55,171.7Z"/><path class="cls-1" d="M367.21,239.14,358.28,224h17.86Z"/><path class="cls-1" d="M326.12,299.83H308.26l8.92-15.13Z"/><path class="cls-1" d="M475,356.32l8.89-15.07,8.89,15.07Z"/><path class="cls-1" d="M417.23,380.29l-8.67-14.71c1.53-.47,14.58-.59,17.44-.16Z"/><path class="cls-1" d="M359.37,252.34l-8.84,15-8.83-15Z"/><path class="cls-1" d="M459.32,365.34l-8.53,14.47c-1.18-1.08-7.86-12.25-8.66-14.47Z"/><path class="cls-1" d="M325.15,158.43l8.66-14.69c3.11,4.87,5.79,9.7,8.79,14.69Z"/><path class="cls-1" d="M325.06,337.06h17.48c-2.78,5.11-5.72,9.82-8.69,14.91C330.88,346.92,328.08,342.18,325.06,337.06Z"/><path class="cls-1" d="M483.82,154c-2.9-4.92-5.67-9.6-8.63-14.63,5.91-.2,11.47-.05,17.06-.1C491.91,140.79,486.2,150.77,483.82,154Z"/><path class="cls-1" d="M350.44,210.4l-8.55-14.51h16.86C358.48,197.3,353.05,206.82,350.44,210.4Z"/><path class="cls-1" d="M459.23,130.13H441.94l8.61-14.6C453.56,120.42,456.24,125.14,459.23,130.13Z"/><path class="cls-1" d="M300.51,313.34l8.6,14.56H291.92Z"/><path class="cls-1" d="M325.33,271.37l8.52-14.45,8.36,14.13C340.63,271.6,331.73,271.76,325.33,271.37Z"/><path class="cls-1" d="M442.43,384.36H425.38l8.52-14.44Z"/><path class="cls-1" d="M350.53,228.69,359,243.06H342.07C344.92,238.22,347.64,233.61,350.53,228.69Z"/><path class="cls-1" d="M358.94,130.05H342.17c2.74-4.82,5.49-9.33,8.36-14.24Z"/><path class="cls-1" d="M325.43,167.8h16.85l-8.42,14.27C331,177.2,328.3,172.66,325.43,167.8Z"/><path class="cls-1" d="M342.18,355.92l8.36-14.16,8.24,14C357.18,356.2,345.51,356.33,342.18,355.92Z"/><path class="cls-1" d="M392.18,111.31h16.75l-8.38,14.19C397.71,120.68,395.05,116.16,392.18,111.31Z"/><path class="cls-1" d="M408.83,384.26h-16.5c2.73-4.76,5.4-9.23,8.24-14C403.35,375,406,379.45,408.83,384.26Z"/><path class="cls-1" d="M425.64,111.38h16.53l-8.27,14C431.1,120.64,428.46,116.15,425.64,111.38Z"/><path class="cls-1" d="M383.79,379.37l-8.05-13.65h15.84C391.32,367.11,386.4,375.78,383.79,379.37Z"/><path class="cls-1" d="M375.2,111.47l-8,13.55-8-13.55Z"/><path class="cls-1" d="M483.77,379l-7.84-13.29c5.42,0,10.45,0,15.51,0C491.12,367.26,485.5,377,483.77,379Z"/><path class="cls-1" d="M333.86,201.05l8,13.47H325.93C328.57,210,331.12,205.69,333.86,201.05Z"/><path class="cls-1" d="M283.76,322.6l-7.83-13.28h15.4C291.09,310.66,286.6,318.58,283.76,322.6Z"/><path class="cls-1" d="M459.37,384l7.88-13.36,7.74,13.1C473.38,384.19,464.32,384.34,459.37,384Z"/><path class="cls-1" d="M292.65,337.64h15.72L300.51,351C297.81,346.4,295.31,342.14,292.65,337.64Z"/><path class="cls-1" d="M325,139.87l-7.85,13.3c-2.68-4.54-5.2-8.8-7.85-13.3Z"/><path class="cls-1" d="M300.51,294.49l-7.87-13.36h15.75Z"/><path class="cls-1" d="M441.69,394.15c-2.6,4.41-5.08,8.63-7.78,13.2l-7.79-13.2Z"/><path class="cls-1" d="M476.25,129.53l7.68-13,7.6,12.88C489.92,129.82,479.2,129.93,476.25,129.53Z"/><path class="cls-1" d="M317.19,265.94c-2.6-4.4-5.05-8.56-7.71-13.08,5.24-.15,10.12-.05,15.45-.08C322.26,257.32,319.82,261.48,317.19,265.94Z"/><path class="cls-1" d="M341.62,224.68l-7.76,13.15-7.76-13.15Z"/><path class="cls-1" d="M317.18,342.5l7.76,13.16H309.46C312,351.16,314.56,347,317.18,342.5Z"/><path class="cls-1" d="M408.13,394.27l-7.57,12.83L393,394.27Z"/><path class="cls-1" d="M317.19,173.18l7.6,12.91H309.58C312.15,181.72,314.59,177.59,317.19,173.18Z"/><path class="cls-1" d="M459.65,111.74h15.21l-7.6,12.89C464.66,120.24,462.22,116.11,459.65,111.74Z"/><path class="cls-1" d="M291.34,299h-15l7.48-12.71Z"/><path class="cls-1" d="M317.34,230.26l7,11.84c-1.33.56-10.92.72-14,.28C310.56,241,315.73,232.05,317.34,230.26Z"/><path class="cls-1" d="M341.2,111.88l-7.34,12.44-7.35-12.44Z"/><path class="cls-1" d="M409.92,411.94l7.32-12.4,7.32,12.4Z"/><path class="cls-1" d="M343.31,366.22h14c-.19,1.32-4.79,9.43-6.89,12C348.07,374.3,345.76,370.39,343.31,366.22Z"/><path class="cls-1" d="M317.19,209.07,310.05,197c1.55-.51,11.64-.62,14.37-.16Z"/><path class="cls-1" d="M293.33,157.58l7.18-12.18,7.19,12.18Z"/><path class="cls-1" d="M360,383.52c2.43-4.12,4.72-8,7.2-12.21l7.07,12C372.76,383.82,363.49,384,360,383.52Z"/><path class="cls-1" d="M317.18,117l7.1,12c-1.65.47-11.67.56-14.25.13C312.39,125.19,314.69,121.27,317.18,117Z"/><path class="cls-1" d="M474.49,394.42l-7.23,12.26-7.15-12.1a63.75,63.75,0,0,1,7.11-.15C469.48,394.39,471.75,394.42,474.49,394.42Z"/><path class="cls-1" d="M457.67,411.84H444c.23-1.41,4.8-9.42,6.76-11.77C453,403.94,455.24,407.72,457.67,411.84Z"/><path class="cls-1" d="M300.51,258.47l7.13,12.09H293.38Z"/><path class="cls-1" d="M267.32,315.3c2.28,3.87,4.52,7.67,6.91,11.71H260.52C260.81,325.61,265.59,317.32,267.32,315.3Z"/><path class="cls-1" d="M440.94,101h-13.6c.23-1.4,4.85-9.5,6.69-11.7C436.31,93.1,438.55,96.9,440.94,101Z"/><path class="cls-1" d="M300.52,180.44l-7-11.81h13.92Z"/><path class="cls-1" d="M407.4,100.85H393.73l6.82-11.61Z"/><path class="cls-1" d="M460.54,100.76l6.71-11.37L474,100.76Z"/><path class="cls-1" d="M290.56,355.12h-13c.3-1.43,4.19-8.31,6.37-11.21Z"/><path class="cls-1" d="M383.88,400.2l6.55,11.13c-1.69.46-10.57.55-13.19.14Z"/><path class="cls-1" d="M490.62,411.62H477.27c2.19-3.83,4.32-7.42,6.67-11.32C486.23,404.17,488.33,407.73,490.62,411.62Z"/><path class="cls-1" d="M307.18,213.76H293.87l6.64-11.27Z"/><path class="cls-1" d="M307.05,225.32l-6.54,11.06L294,225.32Z"/><path class="cls-1" d="M367.2,89.73l6.44,10.92H360.8C362.94,97,365,93.54,367.2,89.73Z"/><path class="cls-1" d="M373.73,394.91l-6.5,11c-2.28-3.75-4.35-7.27-6.51-11Z"/><path class="cls-1" d="M260.62,338.38h13.07c-2.2,3.74-4.26,7.24-6.53,11.08Z"/><path class="cls-1" d="M444.09,84.14h12.57c-.32,1.44-4.27,8.36-6.21,10.8Z"/><path class="cls-1" d="M423.64,84.22l-6.41,10.84-6.29-10.65C412.62,83.94,420.59,83.83,423.64,84.22Z"/><path class="cls-1" d="M477.65,84.22H489.8c-.3,1.37-4,7.93-6,10.45C481.76,91.2,479.77,87.83,477.65,84.22Z"/><path class="cls-1" d="M417.16,433.87c-2.12-3.6-4.11-7-6.27-10.63h12.19C422.86,424.69,420.18,429.53,417.16,433.87Z"/><path class="cls-1" d="M333.94,372.6,340.1,383h-12C328.26,381.75,331.12,376.6,333.94,372.6Z"/><path class="cls-1" d="M277.58,140.71h12.07c-.33,1.48-4.23,8.3-5.94,10.39Z"/><path class="cls-1" d="M456.87,423.31,450.59,434c-2.16-3.65-4.15-7-6.3-10.64Z"/><path class="cls-1" d="M490.16,423.4l-6.22,10.54-6.1-10.3C479.23,423.08,486.62,422.92,490.16,423.4Z"/><path class="cls-1" d="M261.2,282h12.18l-6,10.22C266.25,291.21,262.17,284.5,261.2,282Z"/><path class="cls-1" d="M311.09,366.71c4.13-.11,8.05-.07,12.47,0l-6.16,10.47C316.29,376.11,312.25,369.47,311.09,366.71Z"/><path class="cls-1" d="M277.71,185.17l6.11-10.38L289.87,185C288.28,185.47,280.75,185.58,277.71,185.17Z"/><path class="cls-1" d="M461.06,439.66c2.14-3.64,4.07-6.9,6.19-10.51,2.08,3.53,4,6.79,6.14,10.39a60.12,60.12,0,0,1-6.07.12C465.41,439.68,463.5,439.66,461.06,439.66Z"/><path class="cls-1" d="M306.67,112.62,300.54,123c-2.17-3.53-4.09-6.84-6-10.17C296,112.28,303.48,112.13,306.67,112.62Z"/><path class="cls-1" d="M433.9,429.22,440,439.5h-12.1C429.89,436.05,431.81,432.79,433.9,429.22Z"/><path class="cls-1" d="M389.8,84.5l-5.91,10-5.82-9.84C379.52,84.15,386.92,84,389.8,84.5Z"/><path class="cls-1" d="M250.4,320.48l-5.84-9.9c2-.52,3.89-.2,5.75-.26s3.83,0,5.76,0C255.83,311.78,252.8,317.2,250.4,320.48Z"/><path class="cls-1" d="M277.73,253.81h11.76c-.3,1.49-3.28,6.81-5.74,10.23C281.78,260.69,279.86,257.44,277.73,253.81Z"/><path class="cls-1" d="M377.94,423.43h11.43c-.2,1.31-3.24,6.75-5.58,9.91C381.87,430.09,380,426.93,377.94,423.43Z"/><path class="cls-1" d="M334,90.47l5.78,9.8a37,37,0,0,1-5.8.18c-1.84,0-3.69,0-5.55,0C328.59,99.05,331.5,93.82,334,90.47Z"/><path class="cls-1" d="M284,231.89l5.53,9.36c-1.42.59-6.77.74-11,.37C278.6,240.35,282,234.25,284,231.89Z"/><path class="cls-1" d="M283.84,207.6,278,197.66c1.82-.51,9.7-.54,11.73,0C287.78,200.89,285.89,204.11,283.84,207.6Z"/><path class="cls-1" d="M489.82,467.62H478l5.9-10C486,461.07,487.82,464.22,489.82,467.62Z"/><path class="cls-1" d="M456.3,72.06H444.74c1.81-3.4,3.77-6.5,5.63-9.67C451.53,63.43,454.9,68.91,456.3,72.06Z"/><path class="cls-1" d="M467.25,461.69l-5.83-9.89H473C471.19,455.14,469.27,458.24,467.25,461.69Z"/><path class="cls-1" d="M489.77,72H478.12l5.8-9.9C485.94,65.53,487.78,68.64,489.77,72Z"/><path class="cls-1" d="M278.05,128.42l5.79-9.81c2,3.37,3.8,6.47,5.65,9.6C287.88,128.72,281.13,128.84,278.05,128.42Z"/><path class="cls-1" d="M461.5,56.25h11c-.13,1.29-3.49,7.29-5.37,9.54C465.3,62.69,463.5,59.65,461.5,56.25Z"/><path class="cls-1" d="M417.32,62.4c1.9,3.23,3.7,6.27,5.62,9.54H412C412.15,70.65,414.75,66,417.32,62.4Z"/><path class="cls-1" d="M350.66,401.69l5.32,9c-1.41.52-7.78.65-10.59.25C345.64,409.57,348.78,404,350.66,401.69Z"/><path class="cls-1" d="M428.29,56.31h11.2c-1.83,3.25-3.64,6.24-5.59,9.53Z"/><path class="cls-1" d="M272.79,156.74H261.55c1.9-3.22,3.65-6.18,5.6-9.5Z"/><path class="cls-1" d="M400.55,429.56l5.78,9.79c-4,.17-7.56.11-11.55,0Z"/><path class="cls-1" d="M456.15,467.5H445.28c.51-1.82,1.64-3.18,2.47-4.69s1.73-2.93,2.81-4.73C452.54,461.26,454.26,464.26,456.15,467.5Z"/><path class="cls-1" d="M272.5,269.71H261.8a28.4,28.4,0,0,1,2.54-4.62c.83-1.49,1.72-2.94,2.6-4.42C268.06,261.62,271.21,266.74,272.5,269.71Z"/><path class="cls-1" d="M478.27,480.13h10.88c-.31,1.46-3.69,7.36-5.38,9.34Z"/><path class="cls-1" d="M433.9,461.27l-5.37-9.09a44.88,44.88,0,0,1,10.79-.14C437.53,455.1,435.78,458.07,433.9,461.27Z"/><path class="cls-1" d="M256.13,298H244.86l5.62-9.56C252.41,291.66,254.18,294.65,256.13,298Z"/><path class="cls-1" d="M345.07,84.65H356c-1.73,3.14-3.51,6.06-5.44,9.27C348.63,90.71,346.92,87.79,345.07,84.65Z"/><path class="cls-1" d="M456.05,480.26l-5.47,9.3-5.49-9.3Z"/><path class="cls-1" d="M472.76,495.65h-11l5.5-9.34Z"/><path class="cls-1" d="M267.16,178.81l-5.5-9.34h11Z"/><path class="cls-1" d="M328.46,395.51h10.79l-5.39,9.13C332,401.51,330.33,398.66,328.46,395.51Z"/><path class="cls-1" d="M478.45,28.17H489c-.2,1.34-3.49,7.11-5.19,9Z"/><path class="cls-1" d="M472.73,43.59h-11c1.83-3.12,3.55-6,5.48-9.31Z"/><path class="cls-1" d="M295.18,382.58l5.32-9,5.36,9Z"/><path class="cls-1" d="M245.06,354.33l5.44-9.2,5.42,9.2Z"/><path class="cls-1" d="M278.76,367.3h10.36c-1.58,3.1-3.41,5.86-5.05,8.77C282.88,375,279.53,369.48,278.76,367.3Z"/><path class="cls-1" d="M428.58,495.59c1.85-3.13,3.51-5.94,5.32-9l5.33,9Z"/><path class="cls-1" d="M267.16,203.94c1.89,3.21,3.54,6,5.33,9.05H261.86Z"/><path class="cls-1" d="M445.7,28.26h10.1l-5,8.45C449.66,35.82,446.33,30.33,445.7,28.26Z"/><path class="cls-1" d="M484.05,6.33,489.13,15a41.43,41.43,0,0,1-10.11.2C479.3,13.8,482.05,8.92,484.05,6.33Z"/><path class="cls-1" d="M433.92,34.64l5.14,8.79H429c.34-1.65,1.45-2.87,2.2-4.27S432.9,36.34,433.92,34.64Z"/><path class="cls-1" d="M305.65,99.92H295.39c1.68-2.92,3.28-5.65,5.14-8.67Z"/><path class="cls-1" d="M267.15,234.76l-4.87-8.27c1.37-.58,6.79-.71,9.82-.24C270.63,229.08,269,231.69,267.15,234.76Z"/><path class="cls-1" d="M405.65,56.71c-1.71,2.89-3.31,5.58-5.1,8.62-1.77-3-3.38-5.72-5-8.48A40.06,40.06,0,0,1,405.65,56.71Z"/><path class="cls-1" d="M239,326h-9.93c.22-1.39,2.65-5.77,4.84-8.67C235.62,320.14,237.28,322.89,239,326Z"/><path class="cls-1" d="M355.44,424.17l-4.86,8.27c-.93-1.51-1.73-2.79-2.51-4.09s-1.58-2.71-2.38-4.08C347.11,423.7,353.12,423.63,355.44,424.17Z"/><path class="cls-1" d="M272.19,113.24l-5,8.46c-1.81-2.86-3.34-5.55-4.91-8.25C263.71,112.93,269,112.81,272.19,113.24Z"/><path class="cls-1" d="M389.07,71.69h-9.92c.31-1.46,2.89-6,4.84-8.57C385.65,65.92,387.25,68.63,389.07,71.69Z"/><path class="cls-1" d="M445.58,15.06l5-8.48,5,8.48Z"/><path class="cls-1" d="M228.71,339.21h10.18l-5,8.54C232,345,230.56,342.23,228.71,339.21Z"/><path class="cls-1" d="M412.19,467.24l5-8.54,4.87,8.23c-1.64.56-3.18.23-4.69.29S414.28,467.24,412.19,467.24Z"/><path class="cls-1" d="M372,438.89h-9.48c.27-1.68,1.39-2.83,2.11-4.17s1.59-2.7,2.41-4.05C368.13,431.65,371.22,436.76,372,438.89Z"/><path class="cls-1" d="M405.52,452.27c-1.69,2.86-3.23,5.47-5,8.42l-5-8.42Z"/><path class="cls-1" d="M250.48,149.83c-1.73-2.92-3.25-5.5-4.9-8.31h9.74c-.81,1.44-1.56,2.77-2.32,4.1S251.45,148.2,250.48,149.83Z"/><path class="cls-1" d="M312.22,85h9.84c-.86,1.52-1.6,2.86-2.37,4.18s-1.54,2.58-2.51,4.21Z"/><path class="cls-1" d="M250.36,206l-4.68-8h9.24C254.62,199.41,252,204.07,250.36,206Z"/><path class="cls-1" d="M417.24,488.9l-4.93-8.32h9.8C420.47,483.39,419,486,417.24,488.9Z"/><path class="cls-1" d="M255.32,184.48h-9.65l4.83-8.18C252.15,179.1,253.65,181.66,255.32,184.48Z"/><path class="cls-1" d="M250.49,119.9c1.63,2.76,3.1,5.26,4.73,8h-9.44C247.37,125.22,248.86,122.68,250.49,119.9Z"/><path class="cls-1" d="M417.23,36.64c-1.68-2.87-3.12-5.32-4.79-8.15,3.31,0,6.25,0,9.61,0C420.4,31.27,418.92,33.76,417.23,36.64Z"/><path class="cls-1" d="M405,43.16h-9.11l4.47-7.58A28.93,28.93,0,0,1,405,43.16Z"/><path class="cls-1" d="M233.81,290.67l-4.59-7.75c1.71,0,3.11-.07,4.5-.08h4.64C236.9,285.61,235.42,288,233.81,290.67Z"/><path class="cls-1" d="M255.18,367.62l-4.69,7.95-4.68-7.93C249,367.56,251.91,367.6,255.18,367.62Z"/><path class="cls-1" d="M405.18,495.23H396.3c.21-1.55,1.25-2.59,1.91-3.81s1.44-2.46,2.36-4C402.12,490.05,403.55,492.47,405.18,495.23Z"/><path class="cls-1" d="M267.15,374.49l4.36,7.35c-1.49.55-6.47.62-8.74.11C264.17,379.55,265.55,377.22,267.15,374.49Z"/><path class="cls-1" d="M429.34.53h8.81a2.2,2.2,0,0,1-.1.67c-1.31,2.25-2.63,4.48-4.14,7.05Z"/><path class="cls-1" d="M246.1,240.71l4.39-7.46,4.29,7.27C253.37,241,249.08,241.15,246.1,240.71Z"/><path class="cls-1" d="M250.49,262.48c-1.6-2.71-3-5.06-4.54-7.73,3.1-.25,5.89-.1,9.15-.11Z"/><path class="cls-1" d="M312.66,410.34l4.53-7.64,4.5,7.64Z"/><path class="cls-1" d="M362.67,56.93h9c-1.42,2.63-2.89,5-4.48,7.69Z"/><path class="cls-1" d="M267.17,92c1.58,2.68,2.92,5,4.5,7.61-3.1,0-5.82,0-9,0Z"/><path class="cls-1" d="M233.82,148.5l4.41,7.47c-3,.32-5.74.07-8.92.18C230.87,153.48,232.24,151.17,233.82,148.5Z"/><path class="cls-1" d="M355.08,71.34h-9c1.31-2.69,2.84-5,4.42-7.7Z"/><path class="cls-1" d="M221.56,353.83h-8.49c.15-1.45,1.17-2.42,1.78-3.58s1.38-2.34,2.25-3.79C218.74,348.85,220,351.21,221.56,353.83Z"/><path class="cls-1" d="M233.8,177.42c-1.52-2.58-2.84-4.81-4.16-7.07,1.42-.53,5.78-.62,8.37-.16-.69,1.23-1.34,2.39-2,3.54S234.68,176,233.8,177.42Z"/><path class="cls-1" d="M212.69,311.21h7.15c.45,0,.9.05,1.67.1l-4.36,7.44Z"/><path class="cls-1" d="M412.93,14.54c1.41-2.38,2.77-4.7,4.29-7.28l4.24,7.17A27.64,27.64,0,0,1,412.93,14.54Z"/><path class="cls-1" d="M300.42,403.43l-4.35-7.36c1.66,0,3-.08,4.29-.09h4.11C304.24,397.49,302.66,400.39,300.42,403.43Z"/><path class="cls-1" d="M379.58,466.73l4.3-7.3,4.32,7.3Z"/><path class="cls-1" d="M362.86,452.61h8.68L367.21,460C365.71,457.4,364.35,455.12,362.86,452.61Z"/><path class="cls-1" d="M233.82,120.8l-4.23-7.19h8.34C236.73,116.08,235.3,118.24,233.82,120.8Z"/><path class="cls-1" d="M279.68,85.41c.67-.07,1.12-.15,1.57-.15h6.67a5.61,5.61,0,0,1-.27,1c-1.2,2.06-2.42,4.11-3.8,6.42-1.22-2.05-2.3-3.85-3.36-5.66C280.22,86.53,280,86.05,279.68,85.41Z"/><path class="cls-1" d="M229.74,212.2l3.83-6.5c1.14.94,2.93,3.77,4.14,6.46A22.7,22.7,0,0,1,229.74,212.2Z"/><path class="cls-1" d="M333.85,431.17l4.14,7a23.23,23.23,0,0,1-8,.26c0-.17-.11-.4,0-.53C331.15,435.79,332.39,433.67,333.85,431.17Z"/><path class="cls-1" d="M238,268.93h-8.21c1.21-2.42,2.56-4.55,4.05-7C235.25,264.32,236.51,266.45,238,268.93Z"/><path class="cls-1" d="M383.89,36.06l-4.2-7.14H388C386.77,31.41,385.33,33.52,383.89,36.06Z"/><path class="cls-1" d="M313.2,70.93l4-6.75L321,70.71C319.69,71.26,316.42,71.37,313.2,70.93Z"/><path class="cls-1" d="M400.56,7.51,396.7,1a19.72,19.72,0,0,1,7.71,0Z"/><path class="cls-1" d="M367.21,35.86c1.44,2.43,2.68,4.53,4.14,7-2.86.08-5.35.06-8.18,0C364.39,40.41,365.77,38.33,367.21,35.86Z"/><path class="cls-1" d="M204.58,339.65l-4,6.82c-1.58-2.16-2.67-4.31-4.11-6.71C199.18,339.54,201.65,339.68,204.58,339.65Z"/><path class="cls-1" d="M233.76,374.94l4.07,6.87H230C230.94,379.48,232.46,377.56,233.76,374.94Z"/><path class="cls-1" d="M387.92,481.08l-4,6.83-4-6.83Z"/><path class="cls-1" d="M317.19,431.46l-4.1-6.93h8.19Z"/><path class="cls-1" d="M196.42,325.44l4-6.81,3.88,6.5c-1.32.57-2.53.24-3.7.3S198.19,325.44,196.42,325.44Z"/><path class="cls-1" d="M213.2,142H221c-1.1,2.32-2.48,4.29-3.8,6.66C215.72,146.48,214.59,144.38,213.2,142Z"/><path class="cls-1" d="M221.09,127.49c-.85.06-1.37.13-1.89.13h-6.06c.79-1.38,1.39-2.41,2-3.44l2-3.38C218.51,123.1,219.73,125.17,221.09,127.49Z"/><path class="cls-1" d="M217.25,290.38l3.75,6.36c-1.45.54-4.79.64-7.5.28A23.65,23.65,0,0,1,217.25,290.38Z"/><path class="cls-1" d="M237.79,226.79l-4,6.71-4-6.71Z"/><path class="cls-1" d="M213.16,368.1h8l-3.94,6.68C215.69,372.58,214.57,370.46,213.16,368.1Z"/><path class="cls-1" d="M217.16,177.44c1.31,2.23,2.49,4.21,3.67,6.22a19.8,19.8,0,0,1-7.42.22C214.55,181.71,215.78,179.71,217.16,177.44Z"/><path class="cls-1" d="M329.91,57.3h7.9L333.87,64C332.49,61.67,331.28,59.63,329.91,57.3Z"/><path class="cls-1" d="M250.48,92l-3.81-6.45a72.18,72.18,0,0,1,7.5,0C253.06,87.9,251.79,89.79,250.48,92Z"/><path class="cls-1" d="M229.9,99.29l3.92-6.64,3.81,6.43a15.51,15.51,0,0,1-3.78.2C232.7,99.32,231.54,99.29,229.9,99.29Z"/><path class="cls-1" d="M346.75,29.1h7.57l-3.78,6.41Z"/><path class="cls-1" d="M387.79,14.44a60,60,0,0,1-7.82,0l3.9-6.64Z"/><path class="cls-1" d="M304.26,438.24H297a66.15,66.15,0,0,1,3.52-6.36C301.81,434.11,302.94,436,304.26,438.24Z"/><path class="cls-1" d="M287.59,409.92H280.1l3.64-6.2A62.63,62.63,0,0,1,287.59,409.92Z"/><path class="cls-1" d="M217.13,205.11l-3.81-6.46h7.52C219.73,200.91,218.47,202.87,217.13,205.11Z"/><path class="cls-1" d="M330.07,453h7.58c-1.28,2.17-2.44,4.12-3.8,6.41C332.52,457.14,331.38,455.2,330.07,453Z"/><path class="cls-1" d="M346.81,466.38c1.26-2.13,2.38-4,3.64-6.16a41,41,0,0,1,3.69,6.16Z"/><path class="cls-1" d="M330.24,42.54c1.25-2.12,2.34-4,3.62-6.14l3.61,6.14Z"/><path class="cls-1" d="M370.78,494.56a11.53,11.53,0,0,1-1.28.21h-5.78a45.24,45.24,0,0,1,3.5-6.25C368.48,490.66,369.57,492.5,370.78,494.56Z"/><path class="cls-1" d="M363.53.94h7.25c-1,2.16-2.28,4.05-3.59,6.24Z"/><path class="cls-1" d="M263.5,396.41h7.37c-1.17,2.24-2.38,4.15-3.66,6.28A58.08,58.08,0,0,1,263.5,396.41Z"/><path class="cls-1" d="M346.82,14.43l3.72-6.3,3.6,6.12C351.68,14.53,349.47,14.32,346.82,14.43Z"/><path class="cls-1" d="M187.34,353.35h-7.1l3.56-6.05Z"/><path class="cls-1" d="M200.48,120c-1.27-2.13-2.33-3.92-3.54-6H204C202.83,116,201.78,117.79,200.48,120Z"/><path class="cls-1" d="M280.23,70.78c1.27-2.15,2.34-4,3.61-6.13l3.59,6.13Z"/><path class="cls-1" d="M220.69,255.29l-3.56,6-3.54-6Z"/><path class="cls-1" d="M203.89,155.58H197c1.05-2.09,2.18-3.88,3.48-6,.91,1.53,1.68,2.8,2.42,4.08C203.21,154.21,203.46,154.75,203.89,155.58Z"/><path class="cls-1" d="M304,57.5l-3.51,6-3.56-6Z"/><path class="cls-1" d="M180.31,368.31h6.94l-3.45,5.89Z"/><path class="cls-1" d="M204.07,381.59H197c1.08-2.1,2.2-3.9,3.54-6.06Z"/><path class="cls-1" d="M320.17,466.32h-6a13.85,13.85,0,0,1,3-5.44A13.73,13.73,0,0,1,320.17,466.32Z"/><path class="cls-1" d="M183.7,317.46l-3.17-5.39c1.08-.57,2.11-.29,3.08-.33s2,0,3.07,0C186.58,313.08,185.77,314.65,183.7,317.46Z"/><path class="cls-1" d="M297.08,453.1h6.67a33,33,0,0,1-3.3,5.75Z"/><path class="cls-1" d="M203.8,211.93h-6.67l3.26-5.6A61.77,61.77,0,0,1,203.8,211.93Z"/><path class="cls-1" d="M247.13,409.72l3.36-5.7c1.16,2,2.15,3.66,3.16,5.36C252.27,410,250.83,410.06,247.13,409.72Z"/><path class="cls-1" d="M237.31,396.51c-1.27,2.15-2.3,3.87-3.5,5.91l-3.34-5.69A46.38,46.38,0,0,1,237.31,396.51Z"/><path class="cls-1" d="M220.65,240.24h-7l3.54-6C218.37,236.35,219.43,238.17,220.65,240.24Z"/><path class="cls-1" d="M330.51,1.1H337a7.07,7.07,0,0,1-.4,1c-.86,1.46-1.74,2.91-2.79,4.67Z"/><path class="cls-1" d="M203.92,283.54l-3.44,5.84-3.36-5.63A41.12,41.12,0,0,1,203.92,283.54Z"/><path class="cls-1" d="M280.37,424.85h6.82c-1,2.08-2.14,3.78-3.35,5.91Z"/><path class="cls-1" d="M220.49,85.88l-3.34,5.69-3.36-5.69Z"/><path class="cls-1" d="M350.47,487.1l-3.28-5.65h6.53A35.43,35.43,0,0,1,350.47,487.1Z"/><path class="cls-1" d="M200.54,263c1.12,1.89,2,3.46,3.14,5.33a52.48,52.48,0,0,1-6.26.14A25,25,0,0,1,200.54,263Z"/><path class="cls-1" d="M200.47,176.41l-3.36-5.69c2.28-.44,4.32-.16,6.82-.24Z"/><path class="cls-1" d="M247.3,70.58c1.12-1.92,2.07-3.55,3.19-5.49l3.2,5.49Z"/><path class="cls-1" d="M197.46,396.67h6.25l-3,5.1A12.19,12.19,0,0,1,197.46,396.67Z"/><path class="cls-1" d="M320.56,29.29,317.19,35l-3.27-5.55A46.47,46.47,0,0,1,320.56,29.29Z"/><path class="cls-1" d="M164,340.22h6.19a45.92,45.92,0,0,1-2.94,5.23A39.06,39.06,0,0,1,164,340.22Z"/><path class="cls-1" d="M200.54,93.37l3.19,5.46h-6.32A27.88,27.88,0,0,1,200.54,93.37Z"/><path class="cls-1" d="M180.63,127.07l3.15-5.37c1.1,1.87,2.06,3.49,3.16,5.37Z"/><path class="cls-1" d="M200.42,232.56l-3.2-5.37c2.23-.16,4.16-.05,6.4-.1A40.41,40.41,0,0,1,200.42,232.56Z"/><path class="cls-1" d="M300.5,36.87l3.19,5.42h-6.38C298.38,40.48,299.34,38.86,300.5,36.87Z"/><path class="cls-1" d="M187,142.35l-3.18,5.4-3.1-5.25A53.44,53.44,0,0,1,187,142.35Z"/><path class="cls-1" d="M267.17,432.54l3.11,5.3H264C265.09,436.05,266,434.46,267.17,432.54Z"/><path class="cls-1" d="M183.79,291.22l3.1,5.29a28.85,28.85,0,0,1-6.24.08C181.73,294.74,182.68,293.13,183.79,291.22Z"/><path class="cls-1" d="M180.78,183.53l3-5.16,3.05,5.15A39.38,39.38,0,0,1,180.78,183.53Z"/><path class="cls-1" d="M317.25,8.7c1.06,1.8,2,3.4,3.11,5.29h-6.28A51,51,0,0,1,317.25,8.7Z"/><path class="cls-1" d="M337,494.34h-6.18l3.06-5.17Z"/><path class="cls-1" d="M217.12,404.22l3.1,5.24a43.3,43.3,0,0,1-6.17.16Z"/><path class="cls-1" d="M267.1,62.91l-3-5.12a39.33,39.33,0,0,1,6.15-.1A34.24,34.24,0,0,1,267.1,62.91Z"/><path class="cls-1" d="M314.17,481.59h5.75c-.46,1.87-1.81,3.19-2.69,5.21Z"/><path class="cls-1" d="M247.48,425.09h5.76c-.49,1.85-1.78,3.2-2.71,5.18Z"/><path class="cls-1" d="M283.77,34.46c-1-1.68-1.83-3.17-2.84-4.9h5.65A23.77,23.77,0,0,1,283.77,34.46Z"/><path class="cls-1" d="M280.78,466l3.06-5.17c1.07,1.81,2,3.36,3.05,5.17Z"/><path class="cls-1" d="M164,324.82l3.1-5.24,2.95,5C168.07,325.14,166.28,324.81,164,324.82Z"/><path class="cls-1" d="M180.79,199.07h5.84a39,39,0,0,1-2.85,5.09C182.74,202.4,181.86,200.89,180.79,199.07Z"/><path class="cls-1" d="M264.19,453.42h5.92l-2.94,5C266.14,456.68,265.27,455.22,264.19,453.42Z"/><path class="cls-1" d="M167.12,376.18l3,5h-5.92Z"/><path class="cls-1" d="M180.93,255.64h5.48a25.62,25.62,0,0,1-2.62,4.87Z"/><path class="cls-1" d="M153.29,352.93h-5.36c.41-1.73,1.56-3,2.49-4.74Z"/><path class="cls-1" d="M183.91,404.82l2.65,4.59h-5.09C181.62,408.14,182.26,406.92,183.91,404.82Z"/><path class="cls-1" d="M300.46,6.09c-1-1.61-1.81-3-2.79-4.69h5.57A27.24,27.24,0,0,1,300.46,6.09Z"/><path class="cls-1" d="M236.6,57.88l-2.78,4.75c-1-1.7-1.84-3.1-2.81-4.75Z"/><path class="cls-1" d="M147.72,368.73h5.39l-2.66,4.68C149.49,371.75,148.68,370.36,147.72,368.73Z"/><path class="cls-1" d="M167.1,119c-.94-1.57-1.72-2.88-2.59-4.32,1.78-.62,3.36-.21,5.29-.37A31.91,31.91,0,0,1,167.1,119Z"/><path class="cls-1" d="M167.27,150.71l2.55,4.33h-5.23A13.54,13.54,0,0,1,167.27,150.71Z"/><path class="cls-1" d="M153.12,312.27l-2.68,4.6-2.71-4.6Z"/><path class="cls-1" d="M283.8,9.12l2.74,4.61h-5.29C282.05,12.29,282.82,10.91,283.8,9.12Z"/><path class="cls-1" d="M217.14,65.58l2.75,4.72h-5.47Z"/><path class="cls-1" d="M250.47,461.22l2.71,4.61h-5.29C248.7,464.37,249.48,463,250.47,461.22Z"/><path class="cls-1" d="M167.11,207.09l2.53,4.21c-1.7.66-3.24.25-5.2.32Z"/><path class="cls-1" d="M167.15,401.65l-2.71-4.56h5.28Z"/><path class="cls-1" d="M181.09,86.24h5.39l-2.55,4.47A22.28,22.28,0,0,1,181.09,86.24Z"/><path class="cls-1" d="M183.76,235l2.8,4.85H181.3C181.65,238.08,182.89,236.89,183.76,235Z"/><path class="cls-1" d="M283.77,486.35c-.9-1.55-1.7-2.92-2.63-4.54h5.22A17.73,17.73,0,0,1,283.77,486.35Z"/><path class="cls-1" d="M264.46,42l2.7-4.66L269.91,42Z"/><path class="cls-1" d="M167.09,288.55l-2.66-4.5h5.08C169.16,285.68,168.08,286.88,167.09,288.55Z"/><path class="cls-1" d="M231.17,437.48c.92-1.54,1.7-2.84,2.64-4.43l2.65,4.43Z"/><path class="cls-1" d="M167.16,263.69l2.53,4.33h-4.84C165.16,266.45,166.19,265.3,167.16,263.69Z"/><path class="cls-1" d="M219.86,425.32l-2.71,4.61-2.68-4.51A15.94,15.94,0,0,1,219.86,425.32Z"/><path class="cls-1" d="M236.35,453.61l-2.5,4.33-2.61-4.33Z"/><path class="cls-1" d="M303.22,494.07h-5.33l2.57-4.51Z"/><path class="cls-1" d="M269.69,1.56l-2.51,4.22c-.89-1.5-1.63-2.73-2.51-4.22Z"/><path class="cls-1" d="M131.27,324.44l2.51-4.12c.89,1.48,1.61,2.67,2.47,4.12Z"/><path class="cls-1" d="M169.69,171.09l-2.56,4.4-2.6-4.4Z"/><path class="cls-1" d="M136.27,340.63l-2.48,4.18c-.9-1.49-1.64-2.71-2.52-4.18Z"/><path class="cls-1" d="M150.44,291.88l2.52,4.25h-5Z"/><path class="cls-1" d="M164.59,98.43,167,94.35c1.24,1.17,1.76,2.58,2.66,4.08Z"/><path class="cls-1" d="M248,29.82h4.88L250.5,34.1Z"/><path class="cls-1" d="M198,437.44l2.48-4.11c.89,1.47,1.61,2.67,2.47,4.11Z"/><path class="cls-1" d="M164.61,227.6h5l-2.29,4.07C166,230.52,165.5,229.09,164.61,227.6Z"/><path class="cls-1" d="M250.45,486.08,248,481.94h4.61C252.39,483.46,251.39,484.56,250.45,486.08Z"/><path class="cls-1" d="M269.67,494h-5l2.4-4.17Z"/><path class="cls-1" d="M150.43,122.55c.9,1.55,1.57,2.68,2.38,4.07h-4.64C148.92,125.28,149.58,124.09,150.43,122.55Z"/><path class="cls-1" d="M152.81,142.91l-2.34,4-2.4-4Z"/><path class="cls-1" d="M181.38,425.44h4.78l-2.34,4.11C183,428.09,182.24,426.89,181.38,425.44Z"/><path class="cls-1" d="M231.43,41.87l2.39-4.06,2.39,4.06Z"/><path class="cls-1" d="M148.11,183.07l2.34-3.91,2.33,3.91Z"/><path class="cls-1" d="M236.19,494h-4.7l2.32-4Z"/><path class="cls-1" d="M148.22,239.53l2.19-3.79,2.31,3.79Z"/><path class="cls-1" d="M215,482h4.3l-2.19,3.87Z"/><path class="cls-1" d="M250.48,9.49l2.36,4a11.41,11.41,0,0,1-4.62,0C249,12.18,249.61,11,250.48,9.49Z"/><path class="cls-1" d="M198.16,58.22h4.59l-2.25,3.9C199.64,60.69,199,59.57,198.16,58.22Z"/><path class="cls-1" d="M136,284.26c-.82,1.37-1.43,2.38-2.21,3.7l-2.24-3.7Z"/><path class="cls-1" d="M214.86,465.58c.81-1.37,1.48-2.52,2.28-3.89.8,1.36,1.48,2.5,2.29,3.89Z"/><path class="cls-1" d="M152.74,199.5l-2.3,3.92-2.3-3.92Z"/><path class="cls-1" d="M183.79,66.06l2.29,4h-4.53C182.28,68.72,182.93,67.57,183.79,66.06Z"/><path class="cls-1" d="M148.2,256h4.46l-2.17,3.77C149.67,258.46,149,257.37,148.2,256Z"/><path class="cls-1" d="M148.28,409.07l2.16-3.73,2.1,3.52C151.13,409.38,149.85,409.13,148.28,409.07Z"/><path class="cls-1" d="M115,352.49c.78-1.29,1.4-2.3,2.16-3.54l2.08,3.54Z"/><path class="cls-1" d="M118.91,312.54a2.31,2.31,0,0,1-.07.67c-.49.89-1,1.77-1.71,3-.75-1.23-1.35-2.22-2.06-3.37C116.42,312.23,117.65,312.53,118.91,312.54Z"/><path class="cls-1" d="M202.62,453.84l-2.15,3.69-2.15-3.69Z"/><path class="cls-1" d="M236,1.82l-2.11,3.62-2.22-3.62Z"/><path class="cls-1" d="M135.82,171.35c-.72,1.22-1.27,2.16-2,3.41l-2.12-3.41Z"/><path class="cls-1" d="M131.59,380.78l2.17-3.77,2.18,3.77Z"/><path class="cls-1" d="M131.78,154.67l1.94-3.44,2.11,3.44Z"/><path class="cls-1" d="M117.11,372.63l-2-3.46h4Z"/><path class="cls-1" d="M133.79,118.37l-2-3.5h4C135.14,116,134.58,117,133.79,118.37Z"/><path class="cls-1" d="M133.77,207.63l2,3.58h-4C132.43,210.07,133,209.05,133.77,207.63Z"/><path class="cls-1" d="M150.46,90.3l-2.17-3.74h4.22C151.84,87.8,151.25,88.87,150.46,90.3Z"/><path class="cls-1" d="M219.21,13.43h-4.12c.73-1.23,1.33-2.26,2.06-3.48Z"/><path class="cls-1" d="M169.07,58.43l-1.91,3.22-2-3.22Z"/><path class="cls-1" d="M135.82,267.71h-4c.62-1.13,1.17-2.12,1.9-3.46Z"/><path class="cls-1" d="M135.81,397.45l-2,3.38-2-3.38Z"/><path class="cls-1" d="M219.25,30.06l-2.08,3.56-2.1-3.56Z"/><path class="cls-1" d="M165.1,437.19c.72-1.24,1.26-2.16,2-3.38l2.06,3.38Z"/><path class="cls-1" d="M185.67,465.48H181.9l1.9-3.34Z"/><path class="cls-1" d="M133.79,231.37l-2-3.47h4Z"/><path class="cls-1" d="M98.53,324.11l1.88-3.19,1.9,3.19Z"/><path class="cls-1" d="M200.46,490.22c.76,1.34,1.31,2.3,2,3.5H198.5Z"/><path class="cls-1" d="M148.56,69.82l1.89-3.2c.67,1.14,1.22,2,1.89,3.2Z"/><path class="cls-1" d="M200.47,38.2l2,3.43h-3.95Z"/><path class="cls-1" d="M115.24,199.65h3.43c-.09,1.23-1,1.94-1.48,3.3C116.47,201.72,115.94,200.84,115.24,199.65Z"/><path class="cls-1" d="M118.91,256.28l-1.8,3.07-1.81-3.07Z"/><path class="cls-1" d="M202.35,1.89,200.47,5l-1.86-3.15Z"/><path class="cls-1" d="M100.44,344.23,98.54,341h3.73Z"/><path class="cls-1" d="M131.79,98.1l2-3.29,1.92,3.29Z"/><path class="cls-1" d="M115.18,295.84l1.87-3.26,2,3.26Z"/><path class="cls-1" d="M115.29,182.79c.63-1.09,1.13-1.95,1.8-3.09l1.81,3.09Z"/><path class="cls-1" d="M115.32,143.25h3.5l-1.7,3Z"/><path class="cls-1" d="M117.09,123.19l1.75,3.11h-3.45C115.92,125.32,116.39,124.46,117.09,123.19Z"/><path class="cls-1" d="M148.56,425.75h3.51a7,7,0,0,1-1.7,3.1Z"/><path class="cls-1" d="M182,482.31h3.59l-1.75,3.08Z"/><path class="cls-1" d="M168.89,454.07l-1.59,2.66a5.5,5.5,0,0,1-1.84-2.66Z"/><path class="cls-1" d="M117.1,236.27c.64,1.11,1.13,1.95,1.73,3H115.4Z"/><path class="cls-1" d="M182,30.21h3.48l-1.67,3C183.19,32.18,182.7,31.36,182,30.21Z"/><path class="cls-1" d="M98.68,284.53h3.18c-.06,1.08-.75,1.81-1.47,2.86Z"/><path class="cls-1" d="M100.39,377.63l1.71,2.89H98.78Z"/><path class="cls-1" d="M115.49,86.77h3.25l-1.62,2.89Z"/><path class="cls-1" d="M168.85,41.48h-3.4l1.64-2.83Z"/><path class="cls-1" d="M167.11,490.76l1.6,2.71h-3.09C166.08,492.61,166.51,491.84,167.11,490.76Z"/><path class="cls-1" d="M132.25,436.94c.53-.91.92-1.59,1.5-2.57l1.55,2.57Z"/><path class="cls-1" d="M98.88,171.6H102c-.53.92-1,1.67-1.58,2.73C99.84,173.29,99.4,172.51,98.88,171.6Z"/><path class="cls-1" d="M98.79,228.07H102l-1.6,2.76C99.84,229.83,99.41,229.11,98.79,228.07Z"/><path class="cls-1" d="M118.79,408.77h-3.35c.59-1,1-1.81,1.64-2.85Z"/><path class="cls-1" d="M82.19,352.17l1.52-2.67,1.65,2.67Z"/><path class="cls-1" d="M85.31,312.94l-1.56,2.68-1.59-2.68Z"/><path class="cls-1" d="M83.76,293l1.5,2.64H82.21C82.77,294.75,83.19,294,83.76,293Z"/><path class="cls-1" d="M132.15,58.58h3.18c-.52.92-.94,1.64-1.53,2.69Z"/><path class="cls-1" d="M183.8,10.43l1.57,2.67h-3.11C182.78,12.18,183.22,11.42,183.8,10.43Z"/><path class="cls-1" d="M100.42,151.77l1.52,2.64h-3C99.4,153.53,99.8,152.85,100.42,151.77Z"/><path class="cls-1" d="M98.91,115.11h3l-1.48,2.61Z"/><path class="cls-1" d="M100.42,264.7l1.55,2.65h-3Z"/><path class="cls-1" d="M102,211h-3.1c.49-.9.88-1.62,1.34-2.45C101.2,209,101.41,209.93,102,211Z"/><path class="cls-1" d="M83.76,236.69l1.4,2.44H82.35C82.86,238.27,83.23,237.61,83.76,236.69Z"/><path class="cls-1" d="M101.94,97.92H99l1.43-2.56C101,96.31,101.36,97,101.94,97.92Z"/><path class="cls-1" d="M118.47,426l-1.34,2.4-1.45-2.4Z"/><path class="cls-1" d="M83.75,372l-1.46-2.47h2.86Z"/><path class="cls-1" d="M101.87,397.73c-.46.82-.83,1.51-1.39,2.52-.56-.89-1-1.57-1.6-2.52Z"/><path class="cls-1" d="M83.75,258.87l-1.39-2.41h2.8Z"/><path class="cls-1" d="M151.92,465.14H149l1.38-2.47C151,463.56,151.36,464.22,151.92,465.14Z"/><path class="cls-1" d="M118.59,69.58H115.7l1.35-2.49C117.59,68,118,68.62,118.59,69.58Z"/><path class="cls-1" d="M167.12,4.59c-.55-1-.87-1.54-1.32-2.33h2.62Z"/><path class="cls-1" d="M85.11,200l-1.34,2.38L82.36,200Z"/><path class="cls-1" d="M68.44,323.84h-2.7c.44-.79.78-1.41,1.32-2.36Z"/><path class="cls-1" d="M151.7,13h-2.44l1.15-2.18Z"/><path class="cls-1" d="M82.31,182.72l1.44-2.51c.49.83.85,1.45,1.38,2.37Z"/><path class="cls-1" d="M135,454.34c-.36.69-.67,1.26-1.14,2.15l-1.41-2.15Z"/><path class="cls-1" d="M149.12,30.44h2.65l-1.33,2.4C149.94,32,149.6,31.32,149.12,30.44Z"/><path class="cls-1" d="M68.32,341.36c-.4.74-.7,1.32-1.17,2.2l-1.45-2.2Z"/><path class="cls-1" d="M100.4,60.92l-1.08-2.17h2.22C101.19,59.43,100.9,60,100.4,60.92Z"/><path class="cls-1" d="M51.65,312.87l-1.19,2.18-1.27-1.88C50,313.06,50.58,313,51.65,312.87Z"/><path class="cls-1" d="M83.79,145.85l-1.32-2.36H85C84.6,144.22,84.3,144.83,83.79,145.85Z"/><path class="cls-1" d="M68.28,210.74h-2.4c.4-.71.72-1.25,1.17-2.05C67.53,209.48,67.85,210,68.28,210.74Z"/><path class="cls-1" d="M149.13,482.58h2.63l-1.32,2.32C150,484.05,149.61,483.42,149.13,482.58Z"/><path class="cls-1" d="M83.69,406.52l1.25,2-2.36.2Z"/><path class="cls-1" d="M67.08,265.1l1.18,2.13H65.92Z"/><path class="cls-1" d="M65.79,284.84h2.46c-.36.7-.65,1.27-1.1,2.17Z"/><path class="cls-1" d="M85,126H82.57l1.12-2.15Z"/><path class="cls-1" d="M68.25,380.28H66l1.1-2C67.52,379.06,67.84,379.6,68.25,380.28Z"/><path class="cls-1" d="M133.76,39,135,41.14h-2.41Z"/><path class="cls-1" d="M83.74,89.19c-.48-.93-.75-1.45-1.08-2.12h2.19C84.5,87.73,84.21,88.28,83.74,89.19Z"/><path class="cls-1" d="M117.07,463.08l1.05,1.9-2,.11Z"/><path class="cls-1" d="M67.09,230.47l-1.16-2.08h2.26Z"/><path class="cls-1" d="M82.65,69.57l1.06-1.88,1.06,1.64Z"/><path class="cls-1" d="M100.35,434.77l1.15,1.89-2.11.18C99.72,436.14,100,435.65,100.35,434.77Z"/><path class="cls-1" d="M51.52,200l-1.11,1.85c-.36-.61-.63-1.05-1-1.69Z"/><path class="cls-1" d="M51.5,256.51l-1.09,1.86-1-1.75Z"/><path class="cls-1" d="M67.12,173.82l-1.18-1.94,2.27-.18C67.8,172.51,67.53,173,67.12,173.82Z"/><path class="cls-1" d="M134.87,2.22l-1,1.79-1.08-1.6Z"/><path class="cls-1" d="M134.87,493.24h-2.24c.42-.67.73-1.15,1.16-1.85C134.21,492.11,134.5,492.59,134.87,493.24Z"/><path class="cls-1" d="M49.34,182.55c.43-.77.68-1.22,1-1.85l1.06,1.64Z"/><path class="cls-1" d="M67.06,399.74l-.94-1.8,1.93-.09C67.7,398.52,67.47,399,67.06,399.74Z"/><path class="cls-1" d="M50.39,237.07l1,1.84H49.44Z"/><path class="cls-1" d="M51.5,295.38H49.38l1-1.74Z"/><path class="cls-1" d="M118.14,30.61l-1,1.73-1-1.73Z"/><path class="cls-1" d="M68.17,154.12h-2l.79-1.77Z"/><path class="cls-1" d="M50.42,350.12l1,1.72h-2Z"/><path class="cls-1" d="M82.81,426.22h1.94c-.37.59-.64,1-1,1.65Z"/><path class="cls-1" d="M32.88,341.5h1.6L33.74,343C33.41,342.4,33.19,342,32.88,341.5Z"/><path class="cls-1" d="M116.13,482.71H118l-.88,1.6Z"/><path class="cls-1" d="M32.72,323.71l1-1.55.85,1.42Z"/><path class="cls-1" d="M68.13,115.36l-1,1.67-1-1.53Z"/><path class="cls-1" d="M101.39,41.09h-1.8l.81-1.59C100.76,40.09,101,40.47,101.39,41.09Z"/><path class="cls-1" d="M51.29,125.82l-1.61.08c.24-.57.4-1,.65-1.57Z"/><path class="cls-1" d="M49.64,143.71l1.59-.12-.85,1.64C50.08,144.6,49.9,144.23,49.64,143.71Z"/><path class="cls-1" d="M67,96.05c.36.53.6.88,1,1.44l-1.85.16Z"/><path class="cls-1" d="M101.2,493.12H99.66l.72-1.39C100.7,492.29,100.91,492.64,101.2,493.12Z"/><path class="cls-1" d="M51.35,369.69l-1,1.58-.9-1.48Z"/><path class="cls-1" d="M33.76,230l-.85-1.48h1.55C34.22,229,34.05,229.37,33.76,230Z"/><path class="cls-1" d="M34.57,285.13l-.76,1.24L32.75,285Z"/><path class="cls-1" d="M99.48,454.57h1.75l-.67,1.45Z"/><path class="cls-1" d="M34.48,172c-.24.47-.42.81-.69,1.35L33,172Z"/><path class="cls-1" d="M33.66,209l.88,1.52-1.54.17C33.22,210.1,33.36,209.73,33.66,209Z"/><path class="cls-1" d="M117.09,11.17c.37.72.55,1.06.8,1.56l-1.53.09Z"/><path class="cls-1" d="M67.93,436.68l-1.36-.28.41-1.17Z"/><path class="cls-1" d="M83.5,31.76c0-.33-.09-.65-.13-1l.73,0-.12,1Z"/><path class="cls-1" d="M84.41,483.28c-.35.23-.61.5-.73.45s-.3-.38-.45-.58c.19-.12.37-.34.56-.34S84.13,483.05,84.41,483.28Z"/><path class="cls-1" d="M32.79,267.15l1-1.47.76,1.31Z"/><path class="cls-1" d="M33.7,152.77l.76,1.1-1.4.22Z"/><path class="cls-1" d="M67.82,59.06l-.68,1.14-.79-1.14Z"/><path class="cls-1" d="M67.65,40.47c-.19.25-.33.51-.39.49a1.33,1.33,0,0,1-.58-.35s.17-.45.25-.44A2.41,2.41,0,0,1,67.65,40.47Z"/><path class="cls-1" d="M17.28,237.64c.09.51.24.83.14,1s-.44.14-.67.14a.64.64,0,0,1-.11-.45C16.73,238.09,16.94,238,17.28,237.64Z"/><path class="cls-1" d="M49.8,408l.63-.88c.22.45.35.71.47,1l-.94.26C49.91,408.2,49.86,408.08,49.8,408Z"/><path class="cls-1" d="M100.39,3.9c-.3-.69-.42-1-.58-1.34h1.27Z"/><path class="cls-1" d="M16.34,295l.74-.57a2.7,2.7,0,0,1,.37.6c0,.06-.25.31-.38.3A2.64,2.64,0,0,1,16.34,295Z"/><path class="cls-1" d="M66.36,454.66l1.41-.06-.71.9Z"/><path class="cls-1" d="M17.77,313.74c-.43.23-.72.48-.81.42s-.28-.41-.41-.63c.16-.08.32-.24.47-.22A3,3,0,0,1,17.77,313.74Z"/><path class="cls-1" d="M84.45,464.7H83l.73-1C84,464,84.15,464.27,84.45,464.7Z"/><path class="cls-1" d="M51.09,426.76c-.4.21-.67.45-.77.39s-.28-.38-.37-.6c0,0,.29-.27.42-.24S50.73,426.52,51.09,426.76Z"/><path class="cls-1" d="M17.06,181.22c.19.26.43.47.39.55a1,1,0,0,1-.48.42c-.06,0-.36-.25-.34-.32A3.14,3.14,0,0,1,17.06,181.22Z"/><path class="cls-1" d="M16.94,143.77l.52.31-.43.56c-.12-.14-.31-.27-.35-.44S16.83,144,16.94,143.77Z"/><path class="cls-1" d="M16.59,351.54l.33-.56.53.42c-.12.13-.22.33-.37.36S16.79,351.63,16.59,351.54Z"/><path class="cls-1" d="M84.41,12.58l-1.22.13.48-.84Z"/><path class="cls-1" d="M17.1,369.73c.15.23.33.4.3.51s-.24.26-.37.39c-.1-.15-.28-.29-.29-.44S16.93,369.94,17.1,369.73Z"/><path class="cls-1" d="M33.76,379a3.05,3.05,0,0,1,.38.69c0,.05-.3.3-.37.26a.87.87,0,0,1-.42-.45C33.32,379.42,33.56,379.24,33.76,379Z"/><path class="cls-1" d="M34.28,115.74l-.65.64-.33-.44.76-.48Z"/><path class="cls-1" d="M33.25,97.2l.39-.52.5.48c-.13.12-.25.32-.39.33S33.45,97.32,33.25,97.2Z"/><path class="cls-1" d="M49.73,69.13l.65-.81c.18.22.36.44.68.81Z"/><path class="cls-1" d="M50.41,88.53l-.73-1.27,1.16.26C50.72,87.79,50.6,88.07,50.41,88.53Z"/><path class="cls-1" d="M16.59,256.81l.91.29c-.09.17-.17.34-.26.52l-.8-.51A2.79,2.79,0,0,0,16.59,256.81Z"/><path class="cls-1" d="M17,200c.28.37.54.58.51.69s-.31.33-.48.49c-.12-.15-.32-.29-.34-.45S16.78,200.42,17,200Z"/><path class="cls-1" d="M1.09,210.05c-.45.25-.61.41-.73.39s-.35-.25-.33-.33.22-.36.36-.37S.73,209.88,1.09,210.05Z"/><path class="cls-1" d="M33.23,398.56c.15-.17.24-.36.37-.38a1.52,1.52,0,0,1,.53.11l-.37.62Z"/><path class="cls-1" d="M.87,266.73c-.23.1-.39.24-.51.21s-.24-.21-.36-.33l.4-.38Z"/></svg>