<?xml version="1.0" encoding="utf-8"?>
<!-- Generator: Adobe Illustrator 26.0.0, SVG Export Plug-In . SVG Version: 6.00 Build 0)  -->
<svg version="1.1" id="Layer_1" opacity="0.5" xmlns="http://www.w3.org/2000/svg" xmlns:xlink="http://www.w3.org/1999/xlink"
	 x="0px" y="0px" viewBox="0 0 496 495.6" style="enable-background:new 0 0 496 495.6;" xml:space="preserve">
<style type="text/css">
	.st0{fill:#FFFFFF;}
</style>
<path class="st0" d="M472.4,0l-5.1,9l-5.2-9H472.4z"/>
<path class="st0" d="M450.6,280.2l12.7,21.5c-1.7,0.5-23.1,0.6-25.5,0.1L450.6,280.2z"/>
<path class="st0" d="M433.8,299.8l-12.6-21.4h25C446,279.7,436.8,295.7,433.8,299.8z"/>
<path class="st0" d="M479.7,278.5c-4.2,7.1-8.2,14-12.5,21.1l-12.3-20.9C456.4,278.2,475.7,278.1,479.7,278.5z"/>
<path class="st0" d="M417.2,280.6l12.5,21.2h-25L417.2,280.6z"/>
<path class="st0" d="M450.6,327.8l-12.4-21h24.7C458.9,313.8,454.8,320.6,450.6,327.8z"/>
<path class="st0" d="M405.3,306.9h23.6c-0.1,1.4-8.2,15.5-11.5,20.1C416.3,326.1,406.9,310.5,405.3,306.9z"/>
<path class="st0" d="M446,273.4h-24.2l12.1-20.5C438,259.8,441.9,266.5,446,273.4z"/>
<path class="st0" d="M445.9,329.9h-23.5c0.2-1.4,8.7-16.4,11.6-20.2C438,316.4,441.9,323,445.9,329.9z"/>
<path class="st0" d="M496,301.6h-24.1l12-20.4C488,288.1,491.9,294.7,496,301.6z"/>
<path class="st0" d="M400.5,298.6L389,279.1c1.6-0.5,20-0.6,22.9-0.2C411.5,280.4,403.1,295,400.5,298.6z"/>
<path class="st0" d="M467.2,253.1L479,273c-2,0.6-3.9,0.3-5.8,0.3s-4,0-6,0h-11.9C459.4,266.5,463.2,260,467.2,253.1z"/>
<path class="st0" d="M450.5,270.4c-3.9-6.6-7.6-13-11.4-19.3c1.4-0.5,18.6-0.7,22.7-0.3C461.5,252.2,453.6,266,450.5,270.4z"/>
<path class="st0" d="M472.7,307.3h22.6c-3.8,6.5-7.5,12.7-11.2,19C483,325.3,474.2,310.8,472.7,307.3z"/>
<path class="st0" d="M455.9,329.4l11.4-19.3c3.9,6.5,7.6,12.8,11.3,19.1C477.1,329.7,459.9,329.9,455.9,329.4z"/>
<path class="st0" d="M428.6,188.2h-22.2c0.2-1.4,9.1-16.8,11-19C421.1,175.5,424.8,181.7,428.6,188.2z"/>
<path class="st0" d="M445.2,166.3l-11.2,19.1c-3.9-6.5-7.5-12.7-11.2-19C424.3,165.8,443.1,165.8,445.2,166.3z"/>
<path class="st0" d="M400.6,310.4l11.2,19h-22.4L400.6,310.4z"/>
<path class="st0" d="M384,282.4l11,18.7h-22C373.4,299.7,382.3,284.4,384,282.4z"/>
<path class="st0" d="M461.7,188.1h-22.3l11.1-18.9C454.4,175.6,458,181.7,461.7,188.1z"/>
<path class="st0" d="M417.2,270l-11.1-18.8c1.7-0.5,19.3-0.6,22.2-0.2C424.8,257.4,421,263.5,417.2,270z"/>
<path class="st0" d="M445,216.3h-22.3l11.1-18.9C437.7,203.8,441.3,209.9,445,216.3z"/>
<path class="st0" d="M411.6,166.2L400.6,185l-11.1-18.8L411.6,166.2z"/>
<path class="st0" d="M473.1,251h21.5c-0.3,1.5-8.2,15.3-10.5,18.4C483,268.4,474,253.5,473.1,251z"/>
<path class="st0" d="M450.6,225.9l10.9,18.5h-21.9C443.3,238.2,446.9,232.2,450.6,225.9z"/>
<path class="st0" d="M417.2,213.2l-11-18.6h21.6C427.5,196.1,420.5,208.3,417.2,213.2z"/>
<path class="st0" d="M383.9,326.2l-11-18.7c7.5-0.1,14.5,0,22,0C391.2,313.8,387.6,319.9,383.9,326.2z"/>
<path class="st0" d="M411.5,272.7h-22l11-18.6L411.5,272.7z"/>
<path class="st0" d="M461.6,194.6l-11,18.6l-11-18.6H461.6z"/>
<path class="st0" d="M433.9,141.2l10.8,18.2c-1.6,0.4-18.9,0.5-21.5,0.1C426.7,153.5,430.2,147.5,433.9,141.2z"/>
<path class="st0" d="M411.5,159.7h-21.3c0.2-1.4,7-13.4,10.5-18.3C404.3,147.4,407.7,153.4,411.5,159.7z"/>
<path class="st0" d="M423.1,335.9h21.2c-0.3,1.4-8.3,15.3-10.5,18.1L423.1,335.9z"/>
<path class="st0" d="M456.7,215.9l10.6-17.9l10.5,17.8C476.1,216.3,459.2,216.4,456.7,215.9z"/>
<path class="st0" d="M444.6,223.1c-3.5,6-7,11.9-10.7,18.1l-10.6-17.9C425,222.7,441.9,222.6,444.6,223.1z"/>
<path class="st0" d="M417.2,226.2l10.6,18h-21.3C410.1,238.2,413.6,232.4,417.2,226.2z"/>
<path class="st0" d="M477.8,223.1L467.2,241c-3.6-6.1-7-11.8-10.5-17.9L477.8,223.1z"/>
<path class="st0" d="M477.8,166.6c-3.5,6-6.9,11.7-10.3,17.5c-1.2-1.1-9.6-15.1-10.5-17.5H477.8z"/>
<path class="st0" d="M394.2,187.6H374c0.2-1.3,7.5-14.1,10-17.3C387.4,176,390.7,181.7,394.2,187.6z"/>
<path class="st0" d="M473.5,244.3c3.6-6.1,6.9-11.7,10.5-17.7l10.4,17.7C487.3,244.3,480.6,244.3,473.5,244.3z"/>
<path class="st0" d="M400.7,198.4l10.2,17.4c-1.7,0.4-17.9,0.6-20.4,0.2C390.8,214.6,398.9,200.5,400.7,198.4z"/>
<path class="st0" d="M377.6,279.6l-10.4,17.5L357,279.8c2.3-0.2,4.6-0.3,6.9-0.2c2.2,0,4.4,0,6.6,0L377.6,279.6z"/>
<path class="st0" d="M406.9,138.5h20.6L417.2,156L406.9,138.5z"/>
<path class="st0" d="M483.9,212.3l-10.1-17.2h20.3L483.9,212.3z"/>
<path class="st0" d="M377.2,328.8h-19.7c0.2-1.4,6.4-12.2,9.6-16.8C368.1,312.9,375.6,325.3,377.2,328.8z"/>
<path class="st0" d="M340.5,308.1h20.1l-10,17C347.1,319.3,343.9,313.8,340.5,308.1z"/>
<path class="st0" d="M373.8,251.6H394l-10.1,17.1C380.5,262.9,377.2,257.4,373.8,251.6z"/>
<path class="st0" d="M390.4,336.4h19.8c-0.2,1.4-7.3,13.7-9.8,17C397.1,347.7,393.8,342.2,390.4,336.4z"/>
<path class="st0" d="M377.2,159.2h-20c3.4-5.7,6.6-11.2,10-16.9L377.2,159.2z"/>
<path class="st0" d="M383.9,155.7c-3.5-5.8-6.7-11.3-10.1-17.2h20.1C390.7,144.3,387.3,149.8,383.9,155.7z"/>
<path class="st0" d="M477.3,336.4l-10,17l-9.9-16.8C459,336.2,472.2,336,477.3,336.4z"/>
<path class="st0" d="M483.9,170.4l10,17c-2.2,0.2-4.5,0.3-6.7,0.2c-2.2,0-4.4,0-6.6,0h-6.9L483.9,170.4z"/>
<path class="st0" d="M393.9,195.1c-3.4,5.7-6.6,11.2-10,16.9c-3.4-5.8-6.6-11.2-10-16.9H393.9z"/>
<path class="st0" d="M400.6,240.5l-9.9-16.9c1.7-0.5,17.5-0.5,20-0.1C407.2,229.1,404,234.6,400.6,240.5z"/>
<path class="st0" d="M360.5,300.4H341c0.3-1.4,7.6-14.1,9.6-16.6C353.9,289.2,357.1,294.6,360.5,300.4z"/>
<path class="st0" d="M450.5,155.2l-9.7-16.5H460C459.6,140.2,453,151.7,450.5,155.2z"/>
<path class="st0" d="M427.1,356.9h-19.8l9.9-16.8C420.6,345.8,423.8,351.2,427.1,356.9z"/>
<path class="st0" d="M377,167.1l-9.8,16.6l-9.6-16.3c0-0.1,0.1-0.2,0.1-0.3c0-0.1,0.1-0.1,0.1-0.1l18.1-0.1
	C376.3,166.9,376.7,167,377,167.1z"/>
<path class="st0" d="M460.5,356.9h-19.6c3.1-5.7,6.4-11,9.7-16.7C454,345.8,457.1,351.1,460.5,356.9z"/>
<path class="st0" d="M457.5,158.9l9.7-16.5l9.6,16.3C475.3,159.2,460.5,159.4,457.5,158.9z"/>
<path class="st0" d="M383.9,227.4l9.7,16.4h-19.3C377.4,238.2,380.6,233,383.9,227.4z"/>
<path class="st0" d="M376.9,272h-19.3l9.7-16.4C370.5,261.1,373.6,266.4,376.9,272z"/>
<path class="st0" d="M343.4,328.4h-19.1l9.5-16.1L343.4,328.4z"/>
<path class="st0" d="M326.4,308.6l-9.2,15.5c-3.2-5.2-6.1-10.3-9.1-15.3C309.6,308.3,322.5,308.2,326.4,308.6z"/>
<path class="st0" d="M358,215.2l9.2-15.6l9.2,15.6H358z"/>
<path class="st0" d="M376.4,336.9l-9.2,15.6l-9.1-15.5C359.7,336.6,373.3,336.5,376.4,336.9z"/>
<path class="st0" d="M350.5,154.7l-9-15.3c1.5-0.5,11.9-0.7,18.1-0.3C356.8,144.3,353.7,149.2,350.5,154.7z"/>
<path class="st0" d="M417.2,114.9l9,15.2c-1.4,0.6-14.4,0.7-18.1,0.2C411.1,125.2,414.1,120.3,417.2,114.9z"/>
<path class="st0" d="M343,280.4l-9.1,15.5c-3.1-5.3-6-10.2-9-15.2C326.6,280.2,337.8,280,343,280.4z"/>
<path class="st0" d="M384,115.3c3,5,5.9,9.9,8.9,15.1h-17.5C375.7,128.8,381.3,118.9,384,115.3z"/>
<path class="st0" d="M374.8,356.3l9.1-15.3l8.9,15.1C391.3,356.6,378.6,356.8,374.8,356.3z"/>
<path class="st0" d="M350.5,171.7c3,5.2,5.9,10,8.9,15.1h-17.8C344.6,181.7,347.5,176.9,350.5,171.7z"/>
<path class="st0" d="M367.2,239.1l-8.9-15.1h17.9L367.2,239.1z"/>
<path class="st0" d="M326.1,299.8h-17.9l8.9-15.1L326.1,299.8z"/>
<path class="st0" d="M475,356.3l8.9-15.1l8.9,15.1H475z"/>
<path class="st0" d="M417.2,380.3l-8.7-14.7c1.5-0.5,14.6-0.6,17.4-0.2L417.2,380.3z"/>
<path class="st0" d="M359.4,252.3l-8.8,15l-8.8-15H359.4z"/>
<path class="st0" d="M459.3,365.3l-8.5,14.5c-1.2-1.1-7.9-12.2-8.7-14.5H459.3z"/>
<path class="st0" d="M325.1,158.4l8.7-14.7c3.1,4.9,5.8,9.7,8.8,14.7H325.1z"/>
<path class="st0" d="M325.1,337.1h17.5c-2.8,5.1-5.7,9.8-8.7,14.9C330.9,346.9,328.1,342.2,325.1,337.1z"/>
<path class="st0" d="M483.8,154c-2.9-4.9-5.7-9.6-8.6-14.6c5.9-0.2,11.5-0.1,17.1-0.1C491.9,140.8,486.2,150.8,483.8,154z"/>
<path class="st0" d="M350.4,210.4l-8.5-14.5h16.9C358.5,197.3,353,206.8,350.4,210.4z"/>
<path class="st0" d="M459.2,130.1h-17.3l8.6-14.6C453.6,120.4,456.2,125.1,459.2,130.1z"/>
<path class="st0" d="M300.5,313.3l8.6,14.6h-17.2L300.5,313.3z"/>
<path class="st0" d="M325.3,271.4l8.5-14.5l8.4,14.1C340.6,271.6,331.7,271.8,325.3,271.4z"/>
<path class="st0" d="M442.4,384.4h-17l8.5-14.4L442.4,384.4z"/>
<path class="st0" d="M350.5,228.7l8.5,14.4h-16.9C344.9,238.2,347.6,233.6,350.5,228.7z"/>
<path class="st0" d="M358.9,130.1h-16.8c2.7-4.8,5.5-9.3,8.4-14.2L358.9,130.1z"/>
<path class="st0" d="M325.4,167.8h16.9l-8.4,14.3C331,177.2,328.3,172.7,325.4,167.8z"/>
<path class="st0" d="M342.2,355.9l8.4-14.2l8.2,14C357.2,356.2,345.5,356.3,342.2,355.9z"/>
<path class="st0" d="M392.2,111.3h16.8l-8.4,14.2C397.7,120.7,395,116.2,392.2,111.3z"/>
<path class="st0" d="M408.8,384.3h-16.5c2.7-4.8,5.4-9.2,8.2-14C403.4,375,406,379.5,408.8,384.3z"/>
<path class="st0" d="M425.6,111.4h16.5l-8.3,14C431.1,120.6,428.5,116.2,425.6,111.4z"/>
<path class="st0" d="M383.8,379.4l-8-13.6h15.8C391.3,367.1,386.4,375.8,383.8,379.4z"/>
<path class="st0" d="M375.2,111.5l-8,13.6l-8-13.6H375.2z"/>
<path class="st0" d="M483.8,379l-7.8-13.3c5.4,0,10.5,0,15.5,0C491.1,367.3,485.5,377,483.8,379z"/>
<path class="st0" d="M333.9,201.1l8,13.5h-15.9C328.6,210,331.1,205.7,333.9,201.1z"/>
<path class="st0" d="M283.8,322.6l-7.8-13.3h15.4C291.1,310.7,286.6,318.6,283.8,322.6z"/>
<path class="st0" d="M459.4,384l7.9-13.4l7.7,13.1C473.4,384.2,464.3,384.3,459.4,384z"/>
<path class="st0" d="M292.6,337.6h15.7l-7.9,13.4C297.8,346.4,295.3,342.1,292.6,337.6z"/>
<path class="st0" d="M325,139.9l-7.9,13.3c-2.7-4.5-5.2-8.8-7.9-13.3H325z"/>
<path class="st0" d="M300.5,294.5l-7.9-13.4h15.8L300.5,294.5z"/>
<path class="st0" d="M441.7,394.1c-2.6,4.4-5.1,8.6-7.8,13.2l-7.8-13.2H441.7z"/>
<path class="st0" d="M476.2,129.5l7.7-13l7.6,12.9C489.9,129.8,479.2,129.9,476.2,129.5z"/>
<path class="st0" d="M317.2,265.9c-2.6-4.4-5-8.6-7.7-13.1c5.2-0.1,10.1-0.1,15.5-0.1C322.3,257.3,319.8,261.5,317.2,265.9z"/>
<path class="st0" d="M341.6,224.7l-7.8,13.1l-7.8-13.1H341.6z"/>
<path class="st0" d="M317.2,342.5l7.8,13.2h-15.5C312,351.2,314.6,347,317.2,342.5z"/>
<path class="st0" d="M408.1,394.3l-7.6,12.8l-7.6-12.8H408.1z"/>
<path class="st0" d="M317.2,173.2l7.6,12.9h-15.2C312.1,181.7,314.6,177.6,317.2,173.2z"/>
<path class="st0" d="M459.6,111.7h15.2l-7.6,12.9C464.7,120.2,462.2,116.1,459.6,111.7z"/>
<path class="st0" d="M291.3,299h-15l7.5-12.7L291.3,299z"/>
<path class="st0" d="M317.3,230.3l7,11.8c-1.3,0.6-10.9,0.7-14,0.3C310.6,241,315.7,232.1,317.3,230.3z"/>
<path class="st0" d="M341.2,111.9l-7.3,12.4l-7.4-12.4H341.2z"/>
<path class="st0" d="M409.9,411.9l7.3-12.4l7.3,12.4H409.9z"/>
<path class="st0" d="M343.3,366.2h14c-0.2,1.3-4.8,9.4-6.9,12C348.1,374.3,345.8,370.4,343.3,366.2z"/>
<path class="st0" d="M317.2,209.1L310,197c1.5-0.5,11.6-0.6,14.4-0.2L317.2,209.1z"/>
<path class="st0" d="M293.3,157.6l7.2-12.2l7.2,12.2L293.3,157.6z"/>
<path class="st0" d="M360,383.5c2.4-4.1,4.7-8,7.2-12.2l7.1,12C372.8,383.8,363.5,384,360,383.5z"/>
<path class="st0" d="M317.2,117l7.1,12c-1.6,0.5-11.7,0.6-14.2,0.1C312.4,125.2,314.7,121.3,317.2,117z"/>
<path class="st0" d="M474.5,394.4l-7.2,12.3l-7.1-12.1c2.4-0.2,4.7-0.2,7.1-0.1C469.5,394.4,471.8,394.4,474.5,394.4z"/>
<path class="st0" d="M457.7,411.8H444c0.2-1.4,4.8-9.4,6.8-11.8C453,403.9,455.2,407.7,457.7,411.8z"/>
<path class="st0" d="M300.5,258.5l7.1,12.1h-14.3L300.5,258.5z"/>
<path class="st0" d="M267.3,315.3c2.3,3.9,4.5,7.7,6.9,11.7h-13.7C260.8,325.6,265.6,317.3,267.3,315.3z"/>
<path class="st0" d="M440.9,101h-13.6c0.2-1.4,4.9-9.5,6.7-11.7C436.3,93.1,438.5,96.9,440.9,101z"/>
<path class="st0" d="M300.5,180.4l-7-11.8h13.9L300.5,180.4z"/>
<path class="st0" d="M407.4,100.8h-13.7l6.8-11.6L407.4,100.8z"/>
<path class="st0" d="M460.5,100.8l6.7-11.4l6.8,11.4H460.5z"/>
<path class="st0" d="M290.6,355.1h-13c0.3-1.4,4.2-8.3,6.4-11.2L290.6,355.1z"/>
<path class="st0" d="M383.9,400.2l6.5,11.1c-1.7,0.5-10.6,0.5-13.2,0.1L383.9,400.2z"/>
<path class="st0" d="M490.6,411.6h-13.4c2.2-3.8,4.3-7.4,6.7-11.3C486.2,404.2,488.3,407.7,490.6,411.6z"/>
<path class="st0" d="M307.2,213.8h-13.3l6.6-11.3L307.2,213.8z"/>
<path class="st0" d="M307,225.3l-6.5,11.1l-6.5-11.1H307z"/>
<path class="st0" d="M367.2,89.7l6.4,10.9h-12.8C362.9,97,365,93.5,367.2,89.7z"/>
<path class="st0" d="M373.7,394.9l-6.5,11c-2.3-3.8-4.4-7.3-6.5-11H373.7z"/>
<path class="st0" d="M260.6,338.4h13.1c-2.2,3.7-4.3,7.2-6.5,11.1L260.6,338.4z"/>
<path class="st0" d="M444.1,84.1h12.6c-0.3,1.4-4.3,8.4-6.2,10.8L444.1,84.1z"/>
<path class="st0" d="M423.6,84.2l-6.4,10.8l-6.3-10.7C412.6,83.9,420.6,83.8,423.6,84.2z"/>
<path class="st0" d="M477.6,84.2h12.1c-0.3,1.4-4,7.9-6,10.4C481.8,91.2,479.8,87.8,477.6,84.2z"/>
<path class="st0" d="M417.2,433.9c-2.1-3.6-4.1-7-6.3-10.6h12.2C422.9,424.7,420.2,429.5,417.2,433.9z"/>
<path class="st0" d="M333.9,372.6l6.2,10.4h-12C328.3,381.8,331.1,376.6,333.9,372.6z"/>
<path class="st0" d="M277.6,140.7h12.1c-0.3,1.5-4.2,8.3-5.9,10.4L277.6,140.7z"/>
<path class="st0" d="M456.9,423.3l-6.3,10.7c-2.2-3.6-4.1-7-6.3-10.6L456.9,423.3z"/>
<path class="st0" d="M490.2,423.4l-6.2,10.5l-6.1-10.3C479.2,423.1,486.6,422.9,490.2,423.4z"/>
<path class="st0" d="M261.2,282h12.2l-6,10.2C266.2,291.2,262.2,284.5,261.2,282z"/>
<path class="st0" d="M311.1,366.7c4.1-0.1,8-0.1,12.5,0l-6.2,10.5C316.3,376.1,312.2,369.5,311.1,366.7z"/>
<path class="st0" d="M277.7,185.2l6.1-10.4l6.1,10.2C288.3,185.5,280.8,185.6,277.7,185.2z"/>
<path class="st0" d="M461.1,439.7c2.1-3.6,4.1-6.9,6.2-10.5c2.1,3.5,4,6.8,6.1,10.4c-2,0.1-4,0.2-6.1,0.1
	C465.4,439.7,463.5,439.7,461.1,439.7z"/>
<path class="st0" d="M306.7,112.6l-6.1,10.4c-2.2-3.5-4.1-6.8-6-10.2C296,112.3,303.5,112.1,306.7,112.6z"/>
<path class="st0" d="M433.9,429.2l6.1,10.3h-12.1C429.9,436,431.8,432.8,433.9,429.2z"/>
<path class="st0" d="M389.8,84.5l-5.9,10l-5.8-9.8C379.5,84.2,386.9,84,389.8,84.5z"/>
<path class="st0" d="M250.4,320.5l-5.8-9.9c2-0.5,3.9-0.2,5.8-0.3s3.8,0,5.8,0C255.8,311.8,252.8,317.2,250.4,320.5z"/>
<path class="st0" d="M277.7,253.8h11.8c-0.3,1.5-3.3,6.8-5.7,10.2C281.8,260.7,279.9,257.4,277.7,253.8z"/>
<path class="st0" d="M377.9,423.4h11.4c-0.2,1.3-3.2,6.8-5.6,9.9C381.9,430.1,380,426.9,377.9,423.4z"/>
<path class="st0" d="M334,90.5l5.8,9.8c-1.9,0.2-3.9,0.3-5.8,0.2c-1.8,0-3.7,0-5.5,0C328.6,99.1,331.5,93.8,334,90.5z"/>
<path class="st0" d="M284,231.9l5.5,9.4c-1.4,0.6-6.8,0.7-11,0.4C278.6,240.4,282,234.2,284,231.9z"/>
<path class="st0" d="M283.8,207.6l-5.8-9.9c1.8-0.5,9.7-0.5,11.7,0C287.8,200.9,285.9,204.1,283.8,207.6z"/>
<path class="st0" d="M489.8,467.6H478l5.9-10C486,461.1,487.8,464.2,489.8,467.6z"/>
<path class="st0" d="M456.3,72.1h-11.6c1.8-3.4,3.8-6.5,5.6-9.7C451.5,63.4,454.9,68.9,456.3,72.1z"/>
<path class="st0" d="M467.2,461.7l-5.8-9.9H473C471.2,455.1,469.3,458.2,467.2,461.7z"/>
<path class="st0" d="M489.8,72h-11.6l5.8-9.9C485.9,65.5,487.8,68.6,489.8,72z"/>
<path class="st0" d="M278,128.4l5.8-9.8c2,3.4,3.8,6.5,5.6,9.6C287.9,128.7,281.1,128.8,278,128.4z"/>
<path class="st0" d="M461.5,56.2h11c-0.1,1.3-3.5,7.3-5.4,9.5C465.3,62.7,463.5,59.7,461.5,56.2z"/>
<path class="st0" d="M417.3,62.4c1.9,3.2,3.7,6.3,5.6,9.5H412C412.1,70.7,414.8,66,417.3,62.4z"/>
<path class="st0" d="M350.7,401.7l5.3,9c-1.4,0.5-7.8,0.6-10.6,0.2C345.6,409.6,348.8,404,350.7,401.7z"/>
<path class="st0" d="M428.3,56.3h11.2c-1.8,3.2-3.6,6.2-5.6,9.5L428.3,56.3z"/>
<path class="st0" d="M272.8,156.7h-11.2c1.9-3.2,3.6-6.2,5.6-9.5L272.8,156.7z"/>
<path class="st0" d="M400.5,429.6l5.8,9.8c-4,0.2-7.6,0.1-11.5,0L400.5,429.6z"/>
<path class="st0" d="M456.1,467.5h-10.9c0.5-1.8,1.6-3.2,2.5-4.7s1.7-2.9,2.8-4.7C452.5,461.3,454.3,464.3,456.1,467.5z"/>
<path class="st0" d="M272.5,269.7h-10.7c0.7-1.6,1.6-3.2,2.5-4.6c0.8-1.5,1.7-2.9,2.6-4.4C268.1,261.6,271.2,266.7,272.5,269.7z"/>
<path class="st0" d="M478.3,480.1h10.9c-0.3,1.5-3.7,7.4-5.4,9.3L478.3,480.1z"/>
<path class="st0" d="M433.9,461.3l-5.4-9.1c3.6-0.5,7.2-0.5,10.8-0.1C437.5,455.1,435.8,458.1,433.9,461.3z"/>
<path class="st0" d="M256.1,298h-11.3l5.6-9.6C252.4,291.7,254.2,294.6,256.1,298z"/>
<path class="st0" d="M345.1,84.7H356c-1.7,3.1-3.5,6.1-5.4,9.3C348.6,90.7,346.9,87.8,345.1,84.7z"/>
<path class="st0" d="M456,480.3l-5.5,9.3l-5.5-9.3H456z"/>
<path class="st0" d="M472.8,495.6h-11l5.5-9.3L472.8,495.6z"/>
<path class="st0" d="M267.2,178.8l-5.5-9.3h11L267.2,178.8z"/>
<path class="st0" d="M328.5,395.5h10.8l-5.4,9.1C332,401.5,330.3,398.7,328.5,395.5z"/>
<path class="st0" d="M478.5,28.2H489c-0.2,1.3-3.5,7.1-5.2,9L478.5,28.2z"/>
<path class="st0" d="M472.7,43.6h-11c1.8-3.1,3.5-6,5.5-9.3L472.7,43.6z"/>
<path class="st0" d="M295.2,382.6l5.3-9l5.4,9H295.2z"/>
<path class="st0" d="M245.1,354.3l5.4-9.2l5.4,9.2H245.1z"/>
<path class="st0" d="M278.8,367.3h10.4c-1.6,3.1-3.4,5.9-5,8.8C282.9,375,279.5,369.5,278.8,367.3z"/>
<path class="st0" d="M428.6,495.6c1.9-3.1,3.5-5.9,5.3-9l5.3,9H428.6z"/>
<path class="st0" d="M267.2,203.9c1.9,3.2,3.5,6,5.3,9.1h-10.6L267.2,203.9z"/>
<path class="st0" d="M445.7,28.3h10.1l-5,8.4C449.7,35.8,446.3,30.3,445.7,28.3z"/>
<path class="st0" d="M484,6.3l5.1,8.7c-3.3,0.5-6.7,0.5-10.1,0.2C479.3,13.8,482,8.9,484,6.3z"/>
<path class="st0" d="M433.9,34.6l5.1,8.8H429c0.3-1.7,1.5-2.9,2.2-4.3S432.9,36.3,433.9,34.6z"/>
<path class="st0" d="M305.6,99.9h-10.3c1.7-2.9,3.3-5.7,5.1-8.7L305.6,99.9z"/>
<path class="st0" d="M267.1,234.8l-4.9-8.3c1.4-0.6,6.8-0.7,9.8-0.2C270.6,229.1,269,231.7,267.1,234.8z"/>
<path class="st0" d="M405.6,56.7c-1.7,2.9-3.3,5.6-5.1,8.6c-1.8-3-3.4-5.7-5-8.5C398.9,56.4,402.3,56.3,405.6,56.7z"/>
<path class="st0" d="M239,326h-9.9c0.2-1.4,2.6-5.8,4.8-8.7C235.6,320.1,237.3,322.9,239,326z"/>
<path class="st0" d="M355.4,424.2l-4.9,8.3c-0.9-1.5-1.7-2.8-2.5-4.1s-1.6-2.7-2.4-4.1C347.1,423.7,353.1,423.6,355.4,424.2z"/>
<path class="st0" d="M272.2,113.2l-5,8.5c-1.8-2.9-3.3-5.6-4.9-8.2C263.7,112.9,269,112.8,272.2,113.2z"/>
<path class="st0" d="M389.1,71.7h-9.9c0.3-1.5,2.9-6,4.8-8.6C385.6,65.9,387.2,68.6,389.1,71.7z"/>
<path class="st0" d="M445.6,15.1l5-8.5l5,8.5H445.6z"/>
<path class="st0" d="M228.7,339.2h10.2l-5,8.5C232,345,230.6,342.2,228.7,339.2z"/>
<path class="st0" d="M412.2,467.2l5-8.5l4.9,8.2c-1.6,0.6-3.2,0.2-4.7,0.3S414.3,467.2,412.2,467.2z"/>
<path class="st0" d="M372,438.9h-9.5c0.3-1.7,1.4-2.8,2.1-4.2s1.6-2.7,2.4-4C368.1,431.6,371.2,436.8,372,438.9z"/>
<path class="st0" d="M405.5,452.3c-1.7,2.9-3.2,5.5-5,8.4l-5-8.4H405.5z"/>
<path class="st0" d="M250.5,149.8c-1.7-2.9-3.2-5.5-4.9-8.3h9.7c-0.8,1.4-1.6,2.8-2.3,4.1S251.4,148.2,250.5,149.8z"/>
<path class="st0" d="M312.2,85h9.8c-0.9,1.5-1.6,2.9-2.4,4.2s-1.5,2.6-2.5,4.2L312.2,85z"/>
<path class="st0" d="M250.4,206l-4.7-8h9.2C254.6,199.4,252,204.1,250.4,206z"/>
<path class="st0" d="M417.2,488.9l-4.9-8.3h9.8C420.5,483.4,419,486,417.2,488.9z"/>
<path class="st0" d="M255.3,184.5h-9.6l4.8-8.2C252.1,179.1,253.6,181.7,255.3,184.5z"/>
<path class="st0" d="M250.5,119.9c1.6,2.8,3.1,5.3,4.7,8h-9.4C247.4,125.2,248.9,122.7,250.5,119.9z"/>
<path class="st0" d="M417.2,36.6c-1.7-2.9-3.1-5.3-4.8-8.1c3.3,0,6.2,0,9.6,0C420.4,31.3,418.9,33.8,417.2,36.6z"/>
<path class="st0" d="M405,43.2h-9.1l4.5-7.6C402.3,37.9,403.9,40.4,405,43.2z"/>
<path class="st0" d="M233.8,290.7l-4.6-7.8c1.7,0,3.1-0.1,4.5-0.1h4.6C236.9,285.6,235.4,288,233.8,290.7z"/>
<path class="st0" d="M255.2,367.6l-4.7,8l-4.7-7.9C249,367.6,251.9,367.6,255.2,367.6z"/>
<path class="st0" d="M405.2,495.2h-8.9c0.2-1.5,1.2-2.6,1.9-3.8s1.4-2.5,2.4-4C402.1,490,403.5,492.5,405.2,495.2z"/>
<path class="st0" d="M267.1,374.5l4.4,7.4c-1.5,0.5-6.5,0.6-8.7,0.1C264.2,379.5,265.5,377.2,267.1,374.5z"/>
<path class="st0" d="M429.3,0.5h8.8c0,0.2,0,0.5-0.1,0.7c-1.3,2.2-2.6,4.5-4.1,7.1L429.3,0.5z"/>
<path class="st0" d="M246.1,240.7l4.4-7.5l4.3,7.3C253.4,241,249.1,241.1,246.1,240.7z"/>
<path class="st0" d="M250.5,262.5c-1.6-2.7-3-5.1-4.5-7.7c3.1-0.2,5.9-0.1,9.1-0.1L250.5,262.5z"/>
<path class="st0" d="M312.7,410.3l4.5-7.6l4.5,7.6H312.7z"/>
<path class="st0" d="M362.7,56.9h9c-1.4,2.6-2.9,5-4.5,7.7L362.7,56.9z"/>
<path class="st0" d="M267.2,92c1.6,2.7,2.9,5,4.5,7.6c-3.1,0-5.8,0-9,0L267.2,92z"/>
<path class="st0" d="M233.8,148.5l4.4,7.5c-3,0.3-5.7,0.1-8.9,0.2C230.9,153.5,232.2,151.2,233.8,148.5z"/>
<path class="st0" d="M355.1,71.3h-9c1.3-2.7,2.8-5,4.4-7.7L355.1,71.3z"/>
<path class="st0" d="M221.6,353.8h-8.5c0.1-1.5,1.2-2.4,1.8-3.6s1.4-2.3,2.2-3.8C218.7,348.9,220,351.2,221.6,353.8z"/>
<path class="st0" d="M233.8,177.4c-1.5-2.6-2.8-4.8-4.2-7.1c1.4-0.5,5.8-0.6,8.4-0.2c-0.7,1.2-1.3,2.4-2,3.5S234.7,176,233.8,177.4z
	"/>
<path class="st0" d="M212.7,311.2h7.1c0.4,0,0.9,0,1.7,0.1l-4.4,7.4L212.7,311.2z"/>
<path class="st0" d="M412.9,14.5c1.4-2.4,2.8-4.7,4.3-7.3l4.2,7.2C418.6,14.9,415.8,14.9,412.9,14.5z"/>
<path class="st0" d="M300.4,403.4l-4.4-7.4c1.7,0,3-0.1,4.3-0.1h4.1C304.2,397.5,302.7,400.4,300.4,403.4z"/>
<path class="st0" d="M379.6,466.7l4.3-7.3l4.3,7.3H379.6z"/>
<path class="st0" d="M362.9,452.6h8.7l-4.3,7.4C365.7,457.4,364.4,455.1,362.9,452.6z"/>
<path class="st0" d="M233.8,120.8l-4.2-7.2h8.3C236.7,116.1,235.3,118.2,233.8,120.8z"/>
<path class="st0" d="M279.7,85.4c0.7-0.1,1.1-0.2,1.6-0.2h6.7c-0.1,0.3-0.1,0.7-0.3,1c-1.2,2.1-2.4,4.1-3.8,6.4
	c-1.2-2.1-2.3-3.8-3.4-5.7C280.2,86.5,280,86.1,279.7,85.4z"/>
<path class="st0" d="M229.7,212.2l3.8-6.5c1.1,0.9,2.9,3.8,4.1,6.5C235.1,212.6,232.4,212.7,229.7,212.2z"/>
<path class="st0" d="M333.9,431.2l4.1,7c-2.6,0.5-5.3,0.6-8,0.3c0-0.2-0.1-0.4,0-0.5C331.1,435.8,332.4,433.7,333.9,431.2z"/>
<path class="st0" d="M238,268.9h-8.2c1.2-2.4,2.6-4.5,4.1-7C235.2,264.3,236.5,266.5,238,268.9z"/>
<path class="st0" d="M383.9,36.1l-4.2-7.1h8.3C386.8,31.4,385.3,33.5,383.9,36.1z"/>
<path class="st0" d="M313.2,70.9l4-6.8l3.8,6.5C319.7,71.3,316.4,71.4,313.2,70.9z"/>
<path class="st0" d="M400.6,7.5L396.7,1c2.5-0.5,5.2-0.5,7.7,0L400.6,7.5z"/>
<path class="st0" d="M367.2,35.9c1.4,2.4,2.7,4.5,4.1,7c-2.9,0.1-5.4,0.1-8.2,0C364.4,40.4,365.8,38.3,367.2,35.9z"/>
<path class="st0" d="M204.6,339.6l-4,6.8c-1.6-2.2-2.7-4.3-4.1-6.7C199.2,339.5,201.6,339.7,204.6,339.6z"/>
<path class="st0" d="M233.8,374.9l4.1,6.9H230C230.9,379.5,232.5,377.6,233.8,374.9z"/>
<path class="st0" d="M387.9,481.1l-4,6.8l-4-6.8H387.9z"/>
<path class="st0" d="M317.2,431.5l-4.1-6.9h8.2L317.2,431.5z"/>
<path class="st0" d="M196.4,325.4l4-6.8l3.9,6.5c-1.3,0.6-2.5,0.2-3.7,0.3S198.2,325.4,196.4,325.4z"/>
<path class="st0" d="M213.2,142h7.8c-1.1,2.3-2.5,4.3-3.8,6.7C215.7,146.5,214.6,144.4,213.2,142z"/>
<path class="st0" d="M221.1,127.5c-0.9,0.1-1.4,0.1-1.9,0.1h-6.1c0.8-1.4,1.4-2.4,2-3.4l2-3.4C218.5,123.1,219.7,125.2,221.1,127.5z
	"/>
<path class="st0" d="M217.2,290.4l3.8,6.4c-1.4,0.5-4.8,0.6-7.5,0.3C214.4,294.6,215.6,292.4,217.2,290.4z"/>
<path class="st0" d="M237.8,226.8l-4,6.7l-4-6.7H237.8z"/>
<path class="st0" d="M213.2,368.1h8l-3.9,6.7C215.7,372.6,214.6,370.5,213.2,368.1z"/>
<path class="st0" d="M217.2,177.4c1.3,2.2,2.5,4.2,3.7,6.2c-2.4,0.5-5,0.6-7.4,0.2C214.6,181.7,215.8,179.7,217.2,177.4z"/>
<path class="st0" d="M329.9,57.3h7.9l-3.9,6.7C332.5,61.7,331.3,59.6,329.9,57.3z"/>
<path class="st0" d="M250.5,92l-3.8-6.4c2.5-0.1,5-0.1,7.5,0C253.1,87.9,251.8,89.8,250.5,92z"/>
<path class="st0" d="M229.9,99.3l3.9-6.6l3.8,6.4c-1.2,0.2-2.5,0.3-3.8,0.2C232.7,99.3,231.5,99.3,229.9,99.3z"/>
<path class="st0" d="M346.8,29.1h7.6l-3.8,6.4L346.8,29.1z"/>
<path class="st0" d="M387.8,14.4c-2.6,0.2-5.2,0.2-7.8,0l3.9-6.6L387.8,14.4z"/>
<path class="st0" d="M304.3,438.2H297c1.1-2.2,2.2-4.3,3.5-6.4C301.8,434.1,302.9,436,304.3,438.2z"/>
<path class="st0" d="M287.6,409.9h-7.5l3.6-6.2C285.1,405.7,286.4,407.8,287.6,409.9z"/>
<path class="st0" d="M217.1,205.1l-3.8-6.5h7.5C219.7,200.9,218.5,202.9,217.1,205.1z"/>
<path class="st0" d="M330.1,453h7.6c-1.3,2.2-2.4,4.1-3.8,6.4C332.5,457.1,331.4,455.2,330.1,453z"/>
<path class="st0" d="M346.8,466.4c1.3-2.1,2.4-4,3.6-6.2c1.4,1.9,2.6,4,3.7,6.2H346.8z"/>
<path class="st0" d="M330.2,42.5c1.2-2.1,2.3-4,3.6-6.1l3.6,6.1H330.2z"/>
<path class="st0" d="M370.8,494.6c-0.4,0.1-0.8,0.2-1.3,0.2h-5.8c1-2.2,2.2-4.3,3.5-6.2C368.5,490.7,369.6,492.5,370.8,494.6z"/>
<path class="st0" d="M363.5,0.9h7.2c-1,2.2-2.3,4.1-3.6,6.2L363.5,0.9z"/>
<path class="st0" d="M263.5,396.4h7.4c-1.2,2.2-2.4,4.1-3.7,6.3C265.8,400.7,264.6,398.6,263.5,396.4z"/>
<path class="st0" d="M346.8,14.4l3.7-6.3l3.6,6.1C351.7,14.5,349.5,14.3,346.8,14.4z"/>
<path class="st0" d="M187.3,353.4h-7.1l3.6-6L187.3,353.4z"/>
<path class="st0" d="M200.5,120c-1.3-2.1-2.3-3.9-3.5-6h7.1C202.8,116,201.8,117.8,200.5,120z"/>
<path class="st0" d="M280.2,70.8c1.3-2.2,2.3-4,3.6-6.1l3.6,6.1H280.2z"/>
<path class="st0" d="M220.7,255.3l-3.6,6l-3.5-6L220.7,255.3z"/>
<path class="st0" d="M203.9,155.6H197c1.1-2.1,2.2-3.9,3.5-6c0.9,1.5,1.7,2.8,2.4,4.1C203.2,154.2,203.5,154.8,203.9,155.6z"/>
<path class="st0" d="M304,57.5l-3.5,6l-3.6-6H304z"/>
<path class="st0" d="M180.3,368.3h6.9l-3.4,5.9L180.3,368.3z"/>
<path class="st0" d="M204.1,381.6H197c1.1-2.1,2.2-3.9,3.5-6.1L204.1,381.6z"/>
<path class="st0" d="M320.2,466.3h-6c0.6-2,1.6-3.9,3-5.4C318.6,462.4,319.6,464.3,320.2,466.3z"/>
<path class="st0" d="M183.7,317.5l-3.2-5.4c1.1-0.6,2.1-0.3,3.1-0.3s2,0,3.1,0C186.6,313.1,185.8,314.6,183.7,317.5z"/>
<path class="st0" d="M297.1,453.1h6.7c-0.9,2-2,3.9-3.3,5.8L297.1,453.1z"/>
<path class="st0" d="M203.8,211.9h-6.7l3.3-5.6C201.6,208.1,202.8,210,203.8,211.9z"/>
<path class="st0" d="M247.1,409.7l3.4-5.7c1.2,2,2.1,3.7,3.2,5.4C252.3,410,250.8,410.1,247.1,409.7z"/>
<path class="st0" d="M237.3,396.5c-1.3,2.1-2.3,3.9-3.5,5.9l-3.3-5.7C232.7,396.5,235,396.4,237.3,396.5z"/>
<path class="st0" d="M220.6,240.2h-7l3.5-6C218.4,236.4,219.4,238.2,220.6,240.2z"/>
<path class="st0" d="M330.5,1.1h6.5c-0.1,0.3-0.2,0.7-0.4,1c-0.9,1.5-1.7,2.9-2.8,4.7L330.5,1.1z"/>
<path class="st0" d="M203.9,283.5l-3.4,5.8l-3.4-5.6C199.4,283.5,201.7,283.4,203.9,283.5z"/>
<path class="st0" d="M280.4,424.9h6.8c-1,2.1-2.1,3.8-3.4,5.9L280.4,424.9z"/>
<path class="st0" d="M220.5,85.9l-3.3,5.7l-3.4-5.7H220.5z"/>
<path class="st0" d="M350.5,487.1l-3.3-5.6h6.5C352.8,483.4,351.7,485.3,350.5,487.1z"/>
<path class="st0" d="M200.5,263c1.1,1.9,2,3.5,3.1,5.3c-2.1,0.2-4.2,0.2-6.3,0.1C198.2,266.5,199.3,264.7,200.5,263z"/>
<path class="st0" d="M200.5,176.4l-3.4-5.7c2.3-0.4,4.3-0.2,6.8-0.2L200.5,176.4z"/>
<path class="st0" d="M247.3,70.6c1.1-1.9,2.1-3.6,3.2-5.5l3.2,5.5H247.3z"/>
<path class="st0" d="M197.5,396.7h6.2l-3,5.1C199.2,400.4,198.1,398.6,197.5,396.7z"/>
<path class="st0" d="M320.6,29.3l-3.4,5.7l-3.3-5.5C316.1,29.2,318.3,29.2,320.6,29.3z"/>
<path class="st0" d="M164,340.2h6.2c-0.9,1.8-1.8,3.6-2.9,5.2C166,343.8,164.9,342,164,340.2z"/>
<path class="st0" d="M200.5,93.4l3.2,5.5h-6.3C198.2,96.9,199.3,95.1,200.5,93.4z"/>
<path class="st0" d="M180.6,127.1l3.1-5.4c1.1,1.9,2.1,3.5,3.2,5.4H180.6z"/>
<path class="st0" d="M200.4,232.6l-3.2-5.4c2.2-0.2,4.2-0.1,6.4-0.1C202.7,229,201.6,230.8,200.4,232.6z"/>
<path class="st0" d="M300.5,36.9l3.2,5.4h-6.4C298.4,40.5,299.3,38.9,300.5,36.9z"/>
<path class="st0" d="M187,142.4l-3.2,5.4l-3.1-5.2C182.8,142.3,184.9,142.3,187,142.4z"/>
<path class="st0" d="M267.2,432.5l3.1,5.3H264C265.1,436,266,434.5,267.2,432.5z"/>
<path class="st0" d="M183.8,291.2l3.1,5.3c-2.1,0.3-4.2,0.3-6.2,0.1C181.7,294.7,182.7,293.1,183.8,291.2z"/>
<path class="st0" d="M180.8,183.5l3-5.2l3.1,5.1C184.8,183.7,182.8,183.7,180.8,183.5z"/>
<path class="st0" d="M317.2,8.7c1.1,1.8,2,3.4,3.1,5.3h-6.3C315,12.2,316.1,10.4,317.2,8.7z"/>
<path class="st0" d="M337,494.3h-6.2l3.1-5.2L337,494.3z"/>
<path class="st0" d="M217.1,404.2l3.1,5.2c-2.1,0.2-4.1,0.3-6.2,0.2L217.1,404.2z"/>
<path class="st0" d="M267.1,62.9l-3-5.1c2-0.2,4.1-0.2,6.1-0.1C269.4,59.5,268.3,61.3,267.1,62.9z"/>
<path class="st0" d="M314.2,481.6h5.8c-0.5,1.9-1.8,3.2-2.7,5.2L314.2,481.6z"/>
<path class="st0" d="M247.5,425.1h5.8c-0.5,1.9-1.8,3.2-2.7,5.2L247.5,425.1z"/>
<path class="st0" d="M283.8,34.5c-1-1.7-1.8-3.2-2.8-4.9h5.6C285.8,31.3,284.9,32.9,283.8,34.5z"/>
<path class="st0" d="M280.8,466l3.1-5.2c1.1,1.8,2,3.4,3,5.2H280.8z"/>
<path class="st0" d="M164,324.8l3.1-5.2l2.9,5C168.1,325.1,166.3,324.8,164,324.8z"/>
<path class="st0" d="M180.8,199.1h5.8c-0.8,1.8-1.8,3.5-2.9,5.1C182.7,202.4,181.9,200.9,180.8,199.1z"/>
<path class="st0" d="M264.2,453.4h5.9l-2.9,5C266.1,456.7,265.3,455.2,264.2,453.4z"/>
<path class="st0" d="M167.1,376.2l3,5h-5.9L167.1,376.2z"/>
<path class="st0" d="M180.9,255.6h5.5c-0.7,1.7-1.6,3.3-2.6,4.9L180.9,255.6z"/>
<path class="st0" d="M153.3,352.9h-5.4c0.4-1.7,1.6-3,2.5-4.7L153.3,352.9z"/>
<path class="st0" d="M183.9,404.8l2.6,4.6h-5.1C181.6,408.1,182.3,406.9,183.9,404.8z"/>
<path class="st0" d="M300.5,6.1c-1-1.6-1.8-3-2.8-4.7h5.6C302.5,3.1,301.5,4.6,300.5,6.1z"/>
<path class="st0" d="M236.6,57.9l-2.8,4.8c-1-1.7-1.8-3.1-2.8-4.8H236.6z"/>
<path class="st0" d="M147.7,368.7h5.4l-2.7,4.7C149.5,371.8,148.7,370.4,147.7,368.7z"/>
<path class="st0" d="M167.1,119c-0.9-1.6-1.7-2.9-2.6-4.3c1.8-0.6,3.4-0.2,5.3-0.4C169,115.9,168.1,117.5,167.1,119z"/>
<path class="st0" d="M167.3,150.7l2.6,4.3h-5.2C165.2,153.4,166.1,152,167.3,150.7z"/>
<path class="st0" d="M153.1,312.3l-2.7,4.6l-2.7-4.6H153.1z"/>
<path class="st0" d="M283.8,9.1l2.7,4.6h-5.3C282,12.3,282.8,10.9,283.8,9.1z"/>
<path class="st0" d="M217.1,65.6l2.8,4.7h-5.5L217.1,65.6z"/>
<path class="st0" d="M250.5,461.2l2.7,4.6h-5.3C248.7,464.4,249.5,463,250.5,461.2z"/>
<path class="st0" d="M167.1,207.1l2.5,4.2c-1.7,0.7-3.2,0.2-5.2,0.3L167.1,207.1z"/>
<path class="st0" d="M167.1,401.6l-2.7-4.6h5.3L167.1,401.6z"/>
<path class="st0" d="M181.1,86.2h5.4l-2.6,4.5C182.8,89.3,181.9,87.8,181.1,86.2z"/>
<path class="st0" d="M183.8,235l2.8,4.9h-5.3C181.6,238.1,182.9,236.9,183.8,235z"/>
<path class="st0" d="M283.8,486.4c-0.9-1.5-1.7-2.9-2.6-4.5h5.2C285.7,483.4,284.9,485,283.8,486.4z"/>
<path class="st0" d="M264.5,42l2.7-4.7l2.8,4.7H264.5z"/>
<path class="st0" d="M167.1,288.5l-2.7-4.5h5.1C169.2,285.7,168.1,286.9,167.1,288.5z"/>
<path class="st0" d="M231.2,437.5c0.9-1.5,1.7-2.8,2.6-4.4l2.6,4.4H231.2z"/>
<path class="st0" d="M167.2,263.7l2.5,4.3h-4.8C165.2,266.5,166.2,265.3,167.2,263.7z"/>
<path class="st0" d="M219.9,425.3l-2.7,4.6l-2.7-4.5C216.2,425.1,218.1,425,219.9,425.3z"/>
<path class="st0" d="M236.4,453.6l-2.5,4.3l-2.6-4.3H236.4z"/>
<path class="st0" d="M303.2,494.1h-5.3l2.6-4.5L303.2,494.1z"/>
<path class="st0" d="M269.7,1.6l-2.5,4.2c-0.9-1.5-1.6-2.7-2.5-4.2H269.7z"/>
<path class="st0" d="M131.3,324.4l2.5-4.1c0.9,1.5,1.6,2.7,2.5,4.1H131.3z"/>
<path class="st0" d="M169.7,171.1l-2.6,4.4l-2.6-4.4H169.7z"/>
<path class="st0" d="M136.3,340.6l-2.5,4.2c-0.9-1.5-1.6-2.7-2.5-4.2H136.3z"/>
<path class="st0" d="M150.4,291.9l2.5,4.2h-5L150.4,291.9z"/>
<path class="st0" d="M164.6,98.4l2.4-4.1c1.2,1.2,1.8,2.6,2.7,4.1H164.6z"/>
<path class="st0" d="M248,29.8h4.9l-2.4,4.3L248,29.8z"/>
<path class="st0" d="M198,437.4l2.5-4.1c0.9,1.5,1.6,2.7,2.5,4.1H198z"/>
<path class="st0" d="M164.6,227.6h5l-2.3,4.1C166,230.5,165.5,229.1,164.6,227.6z"/>
<path class="st0" d="M250.4,486.1l-2.4-4.1h4.6C252.4,483.5,251.4,484.6,250.4,486.1z"/>
<path class="st0" d="M269.7,494h-5l2.4-4.2L269.7,494z"/>
<path class="st0" d="M150.4,122.6c0.9,1.6,1.6,2.7,2.4,4.1h-4.6C148.9,125.3,149.6,124.1,150.4,122.6z"/>
<path class="st0" d="M152.8,142.9l-2.3,4l-2.4-4H152.8z"/>
<path class="st0" d="M181.4,425.4h4.8l-2.3,4.1C183,428.1,182.2,426.9,181.4,425.4z"/>
<path class="st0" d="M231.4,41.9l2.4-4.1l2.4,4.1H231.4z"/>
<path class="st0" d="M148.1,183.1l2.3-3.9l2.3,3.9H148.1z"/>
<path class="st0" d="M236.2,494h-4.7l2.3-4L236.2,494z"/>
<path class="st0" d="M148.2,239.5l2.2-3.8l2.3,3.8H148.2z"/>
<path class="st0" d="M215,482h4.3l-2.2,3.9L215,482z"/>
<path class="st0" d="M250.5,9.5l2.4,4c-1.5,0.3-3.1,0.3-4.6,0C249,12.2,249.6,11,250.5,9.5z"/>
<path class="st0" d="M198.2,58.2h4.6l-2.2,3.9C199.6,60.7,199,59.6,198.2,58.2z"/>
<path class="st0" d="M136,284.3c-0.8,1.4-1.4,2.4-2.2,3.7l-2.2-3.7H136z"/>
<path class="st0" d="M214.9,465.6c0.8-1.4,1.5-2.5,2.3-3.9c0.8,1.4,1.5,2.5,2.3,3.9H214.9z"/>
<path class="st0" d="M152.7,199.5l-2.3,3.9l-2.3-3.9H152.7z"/>
<path class="st0" d="M183.8,66.1l2.3,4h-4.5C182.3,68.7,182.9,67.6,183.8,66.1z"/>
<path class="st0" d="M148.2,256h4.5l-2.2,3.8C149.7,258.5,149,257.4,148.2,256z"/>
<path class="st0" d="M148.3,409.1l2.2-3.7l2.1,3.5C151.1,409.4,149.9,409.1,148.3,409.1z"/>
<path class="st0" d="M115,352.5c0.8-1.3,1.4-2.3,2.2-3.5l2.1,3.5H115z"/>
<path class="st0" d="M118.9,312.5c0,0.2,0,0.5-0.1,0.7c-0.5,0.9-1,1.8-1.7,3c-0.8-1.2-1.3-2.2-2.1-3.4
	C116.4,312.2,117.7,312.5,118.9,312.5z"/>
<path class="st0" d="M202.6,453.8l-2.1,3.7l-2.1-3.7H202.6z"/>
<path class="st0" d="M236,1.8l-2.1,3.6l-2.2-3.6L236,1.8z"/>
<path class="st0" d="M135.8,171.4c-0.7,1.2-1.3,2.2-2,3.4l-2.1-3.4H135.8z"/>
<path class="st0" d="M131.6,380.8l2.2-3.8l2.2,3.8H131.6z"/>
<path class="st0" d="M131.8,154.7l1.9-3.4l2.1,3.4H131.8z"/>
<path class="st0" d="M117.1,372.6l-2-3.5h4L117.1,372.6z"/>
<path class="st0" d="M133.8,118.4l-2-3.5h4C135.1,116,134.6,117,133.8,118.4z"/>
<path class="st0" d="M133.8,207.6l2,3.6h-4C132.4,210.1,133,209.1,133.8,207.6z"/>
<path class="st0" d="M150.5,90.3l-2.2-3.7h4.2C151.8,87.8,151.2,88.9,150.5,90.3z"/>
<path class="st0" d="M219.2,13.4h-4.1c0.7-1.2,1.3-2.3,2.1-3.5L219.2,13.4z"/>
<path class="st0" d="M169.1,58.4l-1.9,3.2l-2-3.2H169.1z"/>
<path class="st0" d="M135.8,267.7h-4c0.6-1.1,1.2-2.1,1.9-3.5L135.8,267.7z"/>
<path class="st0" d="M135.8,397.5l-2,3.4l-2-3.4H135.8z"/>
<path class="st0" d="M219.2,30.1l-2.1,3.6l-2.1-3.6H219.2z"/>
<path class="st0" d="M165.1,437.2c0.7-1.2,1.3-2.2,2-3.4l2.1,3.4H165.1z"/>
<path class="st0" d="M185.7,465.5h-3.8l1.9-3.3L185.7,465.5z"/>
<path class="st0" d="M133.8,231.4l-2-3.5h4L133.8,231.4z"/>
<path class="st0" d="M98.5,324.1l1.9-3.2l1.9,3.2H98.5z"/>
<path class="st0" d="M200.5,490.2c0.8,1.3,1.3,2.3,2,3.5h-4L200.5,490.2z"/>
<path class="st0" d="M148.6,69.8l1.9-3.2c0.7,1.1,1.2,2,1.9,3.2H148.6z"/>
<path class="st0" d="M200.5,38.2l2,3.4h-3.9L200.5,38.2z"/>
<path class="st0" d="M115.2,199.6h3.4c-0.1,1.2-1,1.9-1.5,3.3C116.5,201.7,115.9,200.8,115.2,199.6z"/>
<path class="st0" d="M118.9,256.3l-1.8,3.1l-1.8-3.1H118.9z"/>
<path class="st0" d="M202.4,1.9L200.5,5l-1.9-3.2L202.4,1.9z"/>
<path class="st0" d="M100.4,344.2l-1.9-3.2h3.7L100.4,344.2z"/>
<path class="st0" d="M131.8,98.1l2-3.3l1.9,3.3H131.8z"/>
<path class="st0" d="M115.2,295.8l1.9-3.3l2,3.3H115.2z"/>
<path class="st0" d="M115.3,182.8c0.6-1.1,1.1-1.9,1.8-3.1l1.8,3.1H115.3z"/>
<path class="st0" d="M115.3,143.2h3.5l-1.7,3L115.3,143.2z"/>
<path class="st0" d="M117.1,123.2l1.8,3.1h-3.4C115.9,125.3,116.4,124.5,117.1,123.2z"/>
<path class="st0" d="M148.6,425.8h3.5c-0.3,1.2-0.9,2.2-1.7,3.1L148.6,425.8z"/>
<path class="st0" d="M182,482.3h3.6l-1.8,3.1L182,482.3z"/>
<path class="st0" d="M168.9,454.1l-1.6,2.7c-0.9-0.7-1.5-1.6-1.8-2.7H168.9z"/>
<path class="st0" d="M117.1,236.3c0.6,1.1,1.1,1.9,1.7,3h-3.4L117.1,236.3z"/>
<path class="st0" d="M182,30.2h3.5l-1.7,3C183.2,32.2,182.7,31.4,182,30.2z"/>
<path class="st0" d="M98.7,284.5h3.2c-0.1,1.1-0.8,1.8-1.5,2.9L98.7,284.5z"/>
<path class="st0" d="M100.4,377.6l1.7,2.9h-3.3L100.4,377.6z"/>
<path class="st0" d="M115.5,86.8h3.2l-1.6,2.9L115.5,86.8z"/>
<path class="st0" d="M168.9,41.5h-3.4l1.6-2.8L168.9,41.5z"/>
<path class="st0" d="M167.1,490.8l1.6,2.7h-3.1C166.1,492.6,166.5,491.8,167.1,490.8z"/>
<path class="st0" d="M132.2,436.9c0.5-0.9,0.9-1.6,1.5-2.6l1.6,2.6H132.2z"/>
<path class="st0" d="M98.9,171.6h3.1c-0.5,0.9-1,1.7-1.6,2.7C99.8,173.3,99.4,172.5,98.9,171.6z"/>
<path class="st0" d="M98.8,228.1h3.2l-1.6,2.8C99.8,229.8,99.4,229.1,98.8,228.1z"/>
<path class="st0" d="M118.8,408.8h-3.3c0.6-1,1-1.8,1.6-2.9L118.8,408.8z"/>
<path class="st0" d="M82.2,352.2l1.5-2.7l1.7,2.7H82.2z"/>
<path class="st0" d="M85.3,312.9l-1.6,2.7l-1.6-2.7H85.3z"/>
<path class="st0" d="M83.8,293l1.5,2.6h-3.1C82.8,294.8,83.2,294,83.8,293z"/>
<path class="st0" d="M132.1,58.6h3.2c-0.5,0.9-0.9,1.6-1.5,2.7L132.1,58.6z"/>
<path class="st0" d="M183.8,10.4l1.6,2.7h-3.1C182.8,12.2,183.2,11.4,183.8,10.4z"/>
<path class="st0" d="M100.4,151.8l1.5,2.6h-3C99.4,153.5,99.8,152.9,100.4,151.8z"/>
<path class="st0" d="M98.9,115.1h3l-1.5,2.6L98.9,115.1z"/>
<path class="st0" d="M100.4,264.7l1.6,2.6h-3L100.4,264.7z"/>
<path class="st0" d="M102,211h-3.1c0.5-0.9,0.9-1.6,1.3-2.4C101.2,209,101.4,209.9,102,211z"/>
<path class="st0" d="M83.8,236.7l1.4,2.4h-2.8C82.9,238.3,83.2,237.6,83.8,236.7z"/>
<path class="st0" d="M101.9,97.9H99l1.4-2.6C101,96.3,101.4,97,101.9,97.9z"/>
<path class="st0" d="M118.5,426l-1.3,2.4l-1.4-2.4H118.5z"/>
<path class="st0" d="M83.8,372l-1.5-2.5h2.9L83.8,372z"/>
<path class="st0" d="M101.9,397.7c-0.5,0.8-0.8,1.5-1.4,2.5c-0.6-0.9-1-1.6-1.6-2.5H101.9z"/>
<path class="st0" d="M83.8,258.9l-1.4-2.4h2.8L83.8,258.9z"/>
<path class="st0" d="M151.9,465.1H149l1.4-2.5C151,463.6,151.4,464.2,151.9,465.1z"/>
<path class="st0" d="M118.6,69.6h-2.9l1.3-2.5C117.6,68,118,68.6,118.6,69.6z"/>
<path class="st0" d="M167.1,4.6c-0.6-1-0.9-1.5-1.3-2.3h2.6L167.1,4.6z"/>
<path class="st0" d="M85.1,200l-1.3,2.4l-1.4-2.4H85.1z"/>
<path class="st0" d="M68.4,323.8h-2.7c0.4-0.8,0.8-1.4,1.3-2.4L68.4,323.8z"/>
<path class="st0" d="M151.7,13h-2.4l1.1-2.2L151.7,13z"/>
<path class="st0" d="M82.3,182.7l1.4-2.5c0.5,0.8,0.8,1.4,1.4,2.4L82.3,182.7z"/>
<path class="st0" d="M135,454.3c-0.4,0.7-0.7,1.3-1.1,2.1l-1.4-2.1H135z"/>
<path class="st0" d="M149.1,30.4h2.6l-1.3,2.4C149.9,32,149.6,31.3,149.1,30.4z"/>
<path class="st0" d="M68.3,341.4c-0.4,0.7-0.7,1.3-1.2,2.2l-1.4-2.2H68.3z"/>
<path class="st0" d="M100.4,60.9l-1.1-2.2h2.2C101.2,59.4,100.9,60,100.4,60.9z"/>
<path class="st0" d="M51.7,312.9l-1.2,2.2l-1.3-1.9C50,313.1,50.6,313,51.7,312.9z"/>
<path class="st0" d="M83.8,145.9l-1.3-2.4H85C84.6,144.2,84.3,144.8,83.8,145.9z"/>
<path class="st0" d="M68.3,210.7h-2.4c0.4-0.7,0.7-1.2,1.2-2.1C67.5,209.5,67.8,210,68.3,210.7z"/>
<path class="st0" d="M149.1,482.6h2.6l-1.3,2.3C150,484,149.6,483.4,149.1,482.6z"/>
<path class="st0" d="M83.7,406.5l1.2,2l-2.4,0.2L83.7,406.5z"/>
<path class="st0" d="M67.1,265.1l1.2,2.1h-2.3L67.1,265.1z"/>
<path class="st0" d="M65.8,284.8h2.5c-0.4,0.7-0.7,1.3-1.1,2.2L65.8,284.8z"/>
<path class="st0" d="M85,126h-2.4l1.1-2.2L85,126z"/>
<path class="st0" d="M68.2,380.3H66l1.1-2C67.5,379.1,67.8,379.6,68.2,380.3z"/>
<path class="st0" d="M133.8,39l1.2,2.1h-2.4L133.8,39z"/>
<path class="st0" d="M83.7,89.2c-0.5-0.9-0.8-1.4-1.1-2.1h2.2C84.5,87.7,84.2,88.3,83.7,89.2z"/>
<path class="st0" d="M117.1,463.1l1.1,1.9l-2,0.1L117.1,463.1z"/>
<path class="st0" d="M67.1,230.5l-1.2-2.1h2.3L67.1,230.5z"/>
<path class="st0" d="M82.7,69.6l1.1-1.9l1.1,1.6L82.7,69.6z"/>
<path class="st0" d="M100.3,434.8l1.2,1.9l-2.1,0.2C99.7,436.1,100,435.6,100.3,434.8z"/>
<path class="st0" d="M51.5,200l-1.1,1.9c-0.4-0.6-0.6-1.1-1-1.7L51.5,200z"/>
<path class="st0" d="M51.5,256.5l-1.1,1.9l-1-1.8L51.5,256.5z"/>
<path class="st0" d="M67.1,173.8l-1.2-1.9l2.3-0.2C67.8,172.5,67.5,173,67.1,173.8z"/>
<path class="st0" d="M134.9,2.2l-1,1.8l-1.1-1.6L134.9,2.2z"/>
<path class="st0" d="M134.9,493.2h-2.2c0.4-0.7,0.7-1.1,1.2-1.9C134.2,492.1,134.5,492.6,134.9,493.2z"/>
<path class="st0" d="M49.3,182.6c0.4-0.8,0.7-1.2,1-1.9l1.1,1.6L49.3,182.6z"/>
<path class="st0" d="M67.1,399.7l-0.9-1.8l1.9-0.1C67.7,398.5,67.5,399,67.1,399.7z"/>
<path class="st0" d="M50.4,237.1l1,1.8h-2L50.4,237.1z"/>
<path class="st0" d="M51.5,295.4h-2.1l1-1.7L51.5,295.4z"/>
<path class="st0" d="M118.1,30.6l-1,1.7l-1-1.7H118.1z"/>
<path class="st0" d="M68.2,154.1h-2l0.8-1.8L68.2,154.1z"/>
<path class="st0" d="M50.4,350.1l1,1.7h-2L50.4,350.1z"/>
<path class="st0" d="M82.8,426.2h1.9c-0.4,0.6-0.6,1-1,1.6L82.8,426.2z"/>
<path class="st0" d="M32.9,341.5h1.6l-0.7,1.5C33.4,342.4,33.2,342,32.9,341.5z"/>
<path class="st0" d="M116.1,482.7h1.9l-0.9,1.6L116.1,482.7z"/>
<path class="st0" d="M32.7,323.7l1-1.5l0.8,1.4L32.7,323.7z"/>
<path class="st0" d="M68.1,115.4l-1,1.7l-1-1.5L68.1,115.4z"/>
<path class="st0" d="M101.4,41.1h-1.8l0.8-1.6C100.8,40.1,101,40.5,101.4,41.1z"/>
<path class="st0" d="M51.3,125.8l-1.6,0.1c0.2-0.6,0.4-1,0.7-1.6L51.3,125.8z"/>
<path class="st0" d="M49.6,143.7l1.6-0.1l-0.8,1.6C50.1,144.6,49.9,144.2,49.6,143.7z"/>
<path class="st0" d="M67,96.1c0.4,0.5,0.6,0.9,1,1.4l-1.8,0.2L67,96.1z"/>
<path class="st0" d="M101.2,493.1h-1.5l0.7-1.4C100.7,492.3,100.9,492.6,101.2,493.1z"/>
<path class="st0" d="M51.3,369.7l-1,1.6l-0.9-1.5L51.3,369.7z"/>
<path class="st0" d="M33.8,230l-0.8-1.5h1.5C34.2,229,34,229.4,33.8,230z"/>
<path class="st0" d="M34.6,285.1l-0.8,1.2l-1.1-1.4L34.6,285.1z"/>
<path class="st0" d="M99.5,454.6h1.8l-0.7,1.5L99.5,454.6z"/>
<path class="st0" d="M34.5,172c-0.2,0.5-0.4,0.8-0.7,1.4L33,172H34.5z"/>
<path class="st0" d="M33.7,209l0.9,1.5l-1.5,0.2C33.2,210.1,33.4,209.7,33.7,209z"/>
<path class="st0" d="M117.1,11.2c0.4,0.7,0.6,1.1,0.8,1.6l-1.5,0.1L117.1,11.2z"/>
<path class="st0" d="M67.9,436.7l-1.4-0.3l0.4-1.2L67.9,436.7z"/>
<path class="st0" d="M83.5,31.8c0-0.3-0.1-0.6-0.1-1h0.7l-0.1,1H83.5z"/>
<path class="st0" d="M84.4,483.3c-0.3,0.2-0.6,0.5-0.7,0.5s-0.3-0.4-0.4-0.6c0.2-0.1,0.4-0.3,0.6-0.3S84.1,483,84.4,483.3z"/>
<path class="st0" d="M32.8,267.1l1-1.5l0.8,1.3L32.8,267.1z"/>
<path class="st0" d="M33.7,152.8l0.8,1.1l-1.4,0.2L33.7,152.8z"/>
<path class="st0" d="M67.8,59.1l-0.7,1.1l-0.8-1.1H67.8z"/>
<path class="st0" d="M67.7,40.5c-0.2,0.2-0.3,0.5-0.4,0.5c-0.2-0.1-0.4-0.2-0.6-0.3c0,0,0.2-0.5,0.2-0.4
	C67.2,40.2,67.4,40.3,67.7,40.5z"/>
<path class="st0" d="M17.3,237.6c0.1,0.5,0.2,0.8,0.1,1s-0.4,0.1-0.7,0.1c-0.1-0.1-0.1-0.3-0.1-0.4C16.7,238.1,16.9,238,17.3,237.6z
	"/>
<path class="st0" d="M49.8,408l0.6-0.9c0.2,0.5,0.3,0.7,0.5,1l-0.9,0.3C49.9,408.2,49.9,408.1,49.8,408z"/>
<path class="st0" d="M100.4,3.9c-0.3-0.7-0.4-1-0.6-1.3h1.3L100.4,3.9z"/>
<path class="st0" d="M16.3,295l0.7-0.6c0.1,0.2,0.3,0.4,0.4,0.6c0,0.1-0.2,0.3-0.4,0.3C16.8,295.3,16.6,295.1,16.3,295z"/>
<path class="st0" d="M66.4,454.7l1.4-0.1l-0.7,0.9L66.4,454.7z"/>
<path class="st0" d="M17.8,313.7c-0.4,0.2-0.7,0.5-0.8,0.4s-0.3-0.4-0.4-0.6c0.2-0.1,0.3-0.2,0.5-0.2
	C17.3,313.4,17.5,313.6,17.8,313.7z"/>
<path class="st0" d="M84.4,464.7H83l0.7-1C84,464,84.2,464.3,84.4,464.7z"/>
<path class="st0" d="M51.1,426.8c-0.4,0.2-0.7,0.5-0.8,0.4s-0.3-0.4-0.4-0.6c0,0,0.3-0.3,0.4-0.2S50.7,426.5,51.1,426.8z"/>
<path class="st0" d="M17.1,181.2c0.2,0.3,0.4,0.5,0.4,0.6c-0.1,0.2-0.3,0.3-0.5,0.4c-0.1,0-0.4-0.2-0.3-0.3
	C16.7,181.6,16.9,181.4,17.1,181.2z"/>
<path class="st0" d="M16.9,143.8l0.5,0.3l-0.4,0.6c-0.1-0.1-0.3-0.3-0.4-0.4S16.8,144,16.9,143.8z"/>
<path class="st0" d="M16.6,351.5l0.3-0.6l0.5,0.4c-0.1,0.1-0.2,0.3-0.4,0.4S16.8,351.6,16.6,351.5z"/>
<path class="st0" d="M84.4,12.6l-1.2,0.1l0.5-0.8L84.4,12.6z"/>
<path class="st0" d="M17.1,369.7c0.1,0.2,0.3,0.4,0.3,0.5s-0.2,0.3-0.4,0.4c-0.1-0.1-0.3-0.3-0.3-0.4S16.9,369.9,17.1,369.7z"/>
<path class="st0" d="M33.8,379c0.2,0.2,0.3,0.4,0.4,0.7c0,0-0.3,0.3-0.4,0.3c-0.2-0.1-0.3-0.3-0.4-0.5
	C33.3,379.4,33.6,379.2,33.8,379z"/>
<path class="st0" d="M34.3,115.7l-0.7,0.6l-0.3-0.4l0.8-0.5L34.3,115.7z"/>
<path class="st0" d="M33.2,97.2l0.4-0.5l0.5,0.5c-0.1,0.1-0.2,0.3-0.4,0.3S33.5,97.3,33.2,97.2z"/>
<path class="st0" d="M49.7,69.1l0.7-0.8c0.2,0.2,0.4,0.4,0.7,0.8H49.7z"/>
<path class="st0" d="M50.4,88.5l-0.7-1.3l1.2,0.3C50.7,87.8,50.6,88.1,50.4,88.5z"/>
<path class="st0" d="M16.6,256.8l0.9,0.3c-0.1,0.2-0.2,0.3-0.3,0.5l-0.8-0.5C16.5,257,16.5,256.9,16.6,256.8z"/>
<path class="st0" d="M17,200c0.3,0.4,0.5,0.6,0.5,0.7s-0.3,0.3-0.5,0.5c-0.1-0.1-0.3-0.3-0.3-0.4S16.8,200.4,17,200z"/>
<path class="st0" d="M1.1,210.1c-0.4,0.2-0.6,0.4-0.7,0.4S0,210.2,0,210.1s0.2-0.4,0.4-0.4S0.7,209.9,1.1,210.1z"/>
<path class="st0" d="M33.2,398.6c0.2-0.2,0.2-0.4,0.4-0.4c0.2,0,0.4,0,0.5,0.1l-0.4,0.6L33.2,398.6z"/>
<path class="st0" d="M0.9,266.7c-0.2,0.1-0.4,0.2-0.5,0.2s-0.2-0.2-0.4-0.3l0.4-0.4L0.9,266.7z"/>
</svg>
