<svg xmlns="http://www.w3.org/2000/svg" viewBox="0 0 29.6 28.1"><defs><style>.cls-1,.cls-2{fill:#404040;}.cls-1{fill-rule:evenodd;}</style></defs><g id="Layer_2" data-name="Layer 2"><g id="Layer_1-2" data-name="Layer 1"><path id="Path_0-3" data-name="Path 0-3" class="cls-1" d="M14.8,2.3,22.2,6c4.1,2,7.4,3.7,7.4,3.7s-3.3,1.7-14.8,7.4L7.4,13.4C3.3,11.4,0,9.7,0,9.7S3.3,8,7.4,6,14.8,2.3,14.8,2.3ZM5,9.7l9.8,4.9,9.8-4.9L14.8,4.8S12.6,5.9,9.9,7.3Zm-2,4S5.7,15,14.8,19.6l11.8-5.9,1.5.7c.8.4,1.5.8,1.5.8s-3.3,1.7-14.8,7.4L7.4,18.9C3.3,16.9,0,15.2,0,15.2s.7-.4,1.5-.8Zm0,5.5s2.7,1.3,11.8,5.9l11.8-5.9,1.5.7a7.44,7.44,0,0,1,1.5.8s-3.3,1.7-14.8,7.4L7.4,24.4C3.3,22.4,0,20.7,0,20.7s.6-.3,1.5-.8A11.71,11.71,0,0,0,3,19.2Z"/><g id="Group_348" data-name="Group 348"><circle id="Ellipse_127-27" data-name="Ellipse 127-27" class="cls-2" cx="22.96" cy="1.6" r="1.6"/><circle id="Ellipse_128-27" data-name="Ellipse 128-27" class="cls-2" cx="25.96" cy="3.2" r="0.6"/></g></g></g></svg>