<svg id="Layer_1" data-name="Layer 1" xmlns="http://www.w3.org/2000/svg" viewBox="0 0 96 73.2"><defs><style>.cls-1{fill:#f2f2f2;}.cls-2{fill:#f14336;}.cls-3{fill:#d32e2a;}</style></defs><polygon class="cls-1" points="90.9 11.6 84.8 73.2 11.2 73.2 6.3 12.8 48 36.2 90.9 11.6"/><polygon class="cls-1" points="88.9 0 48 38.4 7.1 0 48 0 88.9 0"/><path class="cls-2" d="M110.2,30.2V85.6h-6.7A4.48,4.48,0,0,1,99,81.1V22l7.3.2Z" transform="translate(-99 -12.4)"/><path class="cls-3" d="M195,22V81a4.48,4.48,0,0,1-4.5,4.5h-6.7V30.2l3.7-8.7Z" transform="translate(-99 -12.4)"/><path class="cls-2" d="M195,17v5l-11.2,8.2L147,57,110.2,30.2,99,22V17a4.48,4.48,0,0,1,4.5-4.5h2.6L147,42.2l40.9-29.8h2.6A4.57,4.57,0,0,1,195,17Z" transform="translate(-99 -12.4)"/><polygon class="cls-3" points="11.2 17.8 0 16 0 9.6 11.2 17.8"/></svg>