<svg id="Layer_1" data-name="Layer 1" xmlns="http://www.w3.org/2000/svg" viewBox="0 0 34.3 34.3"><defs><style>.cls-1{fill:#ffb4bc;}</style></defs><g id="meet-team"><path id="Path_299" data-name="Path 299" d="M631.3,48a3.45,3.45,0,1,0,.1-6.9,3.39,3.39,0,0,0-3.5,3.4h0A3.46,3.46,0,0,0,631.3,48Zm0-4.6a1.1,1.1,0,1,1-1.1,1.1h0A1.11,1.11,0,0,1,631.3,43.4ZM649,48a3.45,3.45,0,1,0,.1-6.9,3.46,3.46,0,0,0-3.5,3.4h0A3.46,3.46,0,0,0,649,48Zm0-4.6a1.11,1.11,0,0,1,1.1,1.1,1.2,1.2,0,0,1-1.1,1.2,1.11,1.11,0,0,1-1.1-1.1h0a1.08,1.08,0,0,1,1.1-1.2Zm5.7,9.1v5a3.43,3.43,0,0,1-2.3,3.2v6.2a1.1,1.1,0,1,1-2.2,0V59.8a1.11,1.11,0,0,1,1.1-1.1h0a1.11,1.11,0,0,0,1.1-1.1v-5a1.11,1.11,0,0,0-1.1-1.1h-2a1.1,1.1,0,0,1,0-2.2h2a3.15,3.15,0,0,1,3.4,3.2Zm-6.8,7.3v7.1a1.1,1.1,0,1,1-2.2,0V60.7a2.93,2.93,0,0,1-1.6-1.3c-.1.1-.3.1-.4.2v7.3a1.1,1.1,0,0,1-2.2,0V58.7a1.11,1.11,0,0,1,1.1-1.1,1.11,1.11,0,0,0,1.1-1.1h0V50.3a1.11,1.11,0,0,0-1.1-1.1h-4.5a1.11,1.11,0,0,0-1.1,1.1v6.2a1.11,1.11,0,0,0,1.1,1.1,1.11,1.11,0,0,1,1.1,1.1v8.2a1.1,1.1,0,0,1-2.2,0V59.6a.76.76,0,0,1-.4-.2,4,4,0,0,1-1.6,1.3v6.2a1.1,1.1,0,0,1-2.2,0V59.8a1.11,1.11,0,0,1,1.1-1.1,1,1,0,0,0,1.1-1,5,5,0,0,1-.2-1.2V50.3a3.37,3.37,0,0,1,3.4-3.4h4.5a3.37,3.37,0,0,1,3.4,3.4v6.2a5,5,0,0,1-.2,1.2,1.09,1.09,0,0,0,1.1,1,1.2,1.2,0,0,1,.9,1.1Zm-15.7-9.6a1.11,1.11,0,0,1-1.1,1.1h-2a1.11,1.11,0,0,0-1.1,1.1v5a1.11,1.11,0,0,0,1.1,1.1,1.11,1.11,0,0,1,1.1,1.1v7.2a1.1,1.1,0,0,1-2.2,0V60.6a3.43,3.43,0,0,1-2.3-3.2v-5a3.37,3.37,0,0,1,3.4-3.4h2a1.28,1.28,0,0,1,1.1,1.2Zm8-4.5a3.45,3.45,0,0,0,.1-6.9,3.39,3.39,0,0,0-3.5,3.4h0A3.34,3.34,0,0,0,640.2,45.7Zm0-4.6a1.15,1.15,0,0,1,.1,2.3,1.17,1.17,0,0,1-1.3-1.1h0a1.16,1.16,0,0,1,1.2-1.2Z" transform="translate(-623 -36.3)"/><path id="Path_300" data-name="Path 300" class="cls-1" d="M642.1,68.1a1,1,0,0,1-1-1h0V58.5a.94.94,0,0,1,1-1h0a1,1,0,0,0,1-1h0V52.4a.94.94,0,0,0-1-1h-4a1,1,0,0,0-1,1h0v4.1a.94.94,0,0,0,1,1h0a1,1,0,0,1,1,1h0v8.6a.94.94,0,0,1-1,1h0" transform="translate(-623 -36.3)"/><path id="Path_301" data-name="Path 301" class="cls-1" d="M633.3,68.2a1,1,0,0,1-1-1h0V59.3a.94.94,0,0,1,1-1h0a1,1,0,0,0,1-1h0V53.2a.94.94,0,0,0-1-1h-4a1,1,0,0,0-1,1h0v4.1a.94.94,0,0,0,1,1h0a1,1,0,0,1,1,1h0v7.9a.94.94,0,0,1-1,1h0" transform="translate(-623 -36.3)"/><path id="Path_302" data-name="Path 302" class="cls-1" d="M651,68.1a1,1,0,0,1-1-1h0V59.2a.94.94,0,0,1,1-1h0a1,1,0,0,0,1-1h0V53.1a.94.94,0,0,0-1-1h-4a1,1,0,0,0-1,1h0v4.1a.94.94,0,0,0,1,1h0a1,1,0,0,1,1,1h0v7.9a.94.94,0,0,1-1,1h0" transform="translate(-623 -36.3)"/><ellipse id="Ellipse_50" data-name="Ellipse 50" class="cls-1" cx="2.3" cy="2.4" rx="2.3" ry="2.4"/><circle id="Ellipse_51" data-name="Ellipse 51" class="cls-1" cx="7.9" cy="2.4" r="1"/><circle id="Ellipse_52" data-name="Ellipse 52" class="cls-1" cx="32.2" cy="32.2" r="2.1"/><circle id="Ellipse_53" data-name="Ellipse 53" class="cls-1" cx="32.3" cy="27.2" r="1"/></g></svg>