<?xml version="1.0" encoding="utf-8"?>
<!-- Generator: Adobe Illustrator 26.0.0, SVG Export Plug-In . SVG Version: 6.00 Build 0)  -->
<svg version="1.1" id="Layer_1" xmlns="http://www.w3.org/2000/svg" xmlns:xlink="http://www.w3.org/1999/xlink" x="0px" y="0px"
	 viewBox="0 0 391.5 403.6" style="enable-background:new 0 0 391.5 403.6;" xml:space="preserve">
<style type="text/css">
	.st0{fill:#FFFFFF;stroke:#333333;stroke-linecap:round;stroke-linejoin:round;stroke-miterlimit:10;}
	.st1{fill:#FBE7CF;}
	.st2{fill:#FF7A59;stroke:#000000;stroke-width:0.5;stroke-miterlimit:10;}
	.st3{fill:none;stroke:#333333;stroke-width:0.5;stroke-linecap:round;stroke-linejoin:round;stroke-miterlimit:10;}
	.st4{fill:#FBE7CF;stroke:#000000;stroke-width:0.5;stroke-miterlimit:10;}
	.st5{fill:none;stroke:#333333;stroke-linecap:round;stroke-linejoin:round;stroke-miterlimit:10;}
	.st6{fill:#333333;stroke:#333333;stroke-linecap:round;stroke-linejoin:round;stroke-miterlimit:10;}
	.st7{fill:#F4BD58;}
	.st8{fill:#FCD392;}
	.st9{fill:#F4BD58;stroke:#000000;stroke-miterlimit:10;}
	.st10{fill:#1A2E35;}
	.st11{fill:none;stroke:#333333;stroke-width:5;stroke-linecap:round;stroke-linejoin:round;stroke-miterlimit:10;}
	.st12{fill:none;stroke:#FFFFFF;stroke-linecap:round;stroke-linejoin:round;stroke-miterlimit:10;}
	.st13{fill:none;stroke:#333333;stroke-width:2;stroke-linecap:round;stroke-linejoin:round;stroke-miterlimit:10;}
	.st14{fill:#FF7A59;}
</style>
<g id="shopify" transform="translate(-1246.935 -55.496)">
	<g id="angular-dev" transform="translate(1247.485 55.495)">
		<g id="Group_1271" transform="translate(92.357 158.545)">
			<path id="XMLID_19_" class="st0" d="M170.4,15.6c0,0,21.4,45.6,21.4,48s-19,12.7-22.7,14.8s-8.7,4.2-8.7,4.2l2.1,21.1
				c0,0,32.7-7.4,46.4-14.8s13.2-15.8,10-28.2S194.7,0,194.7,0L170.4,15.6z"/>
			<path id="Path_627" class="st1" d="M208.9,89.2c13.7-7.4,13.2-15.8,10-28.2S194.7,0.3,194.7,0.3l-3.4,2.1l-1.1,2.1
				c0,0,19.8,48.3,20.8,64.4c0.8,10.8-20.8,24.3-35.3,31.9C186.5,97.9,201,93.4,208.9,89.2z"/>
			<path id="XMLID_30_" class="st0" d="M16.1,5.5c0,0-15.6,57.2-16.1,67.3s30.9,30.1,32.2,31.1c1.3,1.1-1.8-34.8-1.8-34.8L41,16.9
				L16.1,5.5z"/>
			<path id="Path_628" class="st1" d="M32.2,92.3C23,84.4,9.5,73.3,7.9,68.6C5.5,61.5,23.5,10,23.5,10l-0.3-1.6l-6.9-3.2
				c0,0-15.6,57.2-16.1,67.3s30.9,30.1,32.2,31.1C32.7,104.5,32.5,99.2,32.2,92.3z"/>
		</g>
		<g id="Group_1272" transform="translate(97.375 102.191)">
			<path id="XMLID_18_" class="st2" d="M84.4,4.4c0,0-6.1,4.2-17.7,4.7C54.9,9.7,54.3,1.2,39.8,1.2C22.2,1.2,0,57.1,0,57.1
				S11.1,68,21.9,72.4c6,2.6,12.3,4.4,18.7,5.5l1.6,36.7h119l1.3-36.7l37.2-24.3c0,0-18.2-32.7-27.2-44.8s-23.7-7.7-28.2-4.5
				s-17.9,4-22.9,3.2s-19.3-5.3-19.3-5.3S94.4-4.1,84.4,4.4z"/>
			<line id="XMLID_20_" class="st3" x1="41.7" y1="17.6" x2="41.2" y2="78.5"/>
			<path id="XMLID_21_" class="st3" d="M45.9,23.1c0,0,1.6,29.8,7.9,46.4"/>
			<path id="XMLID_22_" class="st3" d="M55.1,71.7c0,0,3.2,9,5,11.9"/>
			<path id="XMLID_23_" class="st3" d="M49.9,19.7c0,0,3.7,17.7,9.5,31.7"/>
			<path id="XMLID_24_" class="st3" d="M153.3,25c0,0-5.8,23.5-10.8,34"/>
			<line id="XMLID_25_" class="st3" x1="162.8" y1="78.2" x2="162.5" y2="30.8"/>
			<path id="XMLID_26_" class="st3" d="M160.1,31.6c0,0-4.2,30.1-14.8,45.9"/>
			<path id="XMLID_27_" class="st3" d="M154.8,71.4c-2.5,4.8-5.2,9.5-8.2,14"/>
			<path id="XMLID_28_" class="st3" d="M77.6,8.1c0,0,3.4,20.6,8.2,31.1s13.2,12.7,20.3,9.5s12.4-18.5,12.1-38.2"/>
		</g>
		<g id="Group_1273" transform="translate(148.78 16.773)">
			<path id="XMLID_13_" class="st4" d="M9.3,50.2c0,0-4.5-7.9-8.2-4S4,59.7,7.7,62.9c3.7,3.2,6.3,1.3,6.1-2.1
				C13.2,57.6,9.3,50.2,9.3,50.2z"/>
			<path id="XMLID_16_" class="st4" d="M81.8,50.2c0,0,4.5-7.9,8.2-4s-2.9,13.5-6.6,16.6c-3.7,3.1-6.3,1.3-6.1-2.1
				C77.8,57.6,81.8,50.2,81.8,50.2z"/>
			<path id="XMLID_17_" class="st0" d="M30.9,88.2c0,0,4.2,19.5,8.7,30.3c4.2,10.8,12.4,10.8,15.8,4s5.5-33,5.5-33
				S38.3,92.4,30.9,88.2z"/>
			<path id="XMLID_7_" class="st0" d="M9.8,52.9c0,0,6.3,22.2,17.9,35.1c11.9,12.9,16.1,16.1,22.4,15S63,93.8,72.5,76.9
				c9.2-17.1,10-30.1,10.8-31.1c0.8-1.3-1.8-25.3-15.3-35.6S39.9-4.6,26.7,6.5C13.5,17.8,5.3,36.3,9.8,52.9z"/>
			<path id="Path_629" class="st1" d="M67.8,10.1C54.4-0.1,39.6-4.6,26.4,6.5C13.5,17.8,5.3,36.3,9.5,52.9c0,0,1.3,4.2,3.4,10
				c-0.1-0.7,0-1.4,0.3-2.1c2.9-9,11.3-26.6,39.8-18.7C75.7,48.4,72.8,68.4,70.7,79c0.5-0.8,0.8-1.3,1.3-2.1
				c9.2-17.1,10-30.1,10.8-31.1C83.9,44.4,81.3,20.4,67.8,10.1z"/>
			<path id="XMLID_8_" class="st5" d="M50.2,64.5c-0.7,4.7-1.1,9.5-1.3,14.2c0.3,4.7,1.6,6.3-0.5,6.6c-2.1,0.5-4.5-2.9-4.5-2.9"/>
			<path id="XMLID_11_" class="st5" d="M41.4,60.3c0,0-4.5-11.3-19.8-6.1"/>
			<path id="XMLID_12_" class="st5" d="M53.8,58.9c0,0,4-11.1,17.4-4.5"/>
			<path id="XMLID_6_" class="st5" d="M44.3,69.2c0,6.1-7.1,11.1-15.8,11.1s-15.8-5-15.8-11.1s6.6-8.7,15.3-8.7
				C36.7,60.3,44.3,62.9,44.3,69.2z"/>
			<path id="XMLID_14_" class="st5" d="M80.7,69.2c0,6.1-7.1,11.1-15.8,11.1s-15.8-5-15.8-11.1s6.6-8.7,15.3-8.7
				C73.1,60.3,80.7,62.9,80.7,69.2z"/>
		</g>
		<g id="Group_1274" transform="translate(9.799 278.302)">
			<path id="XMLID_48_" class="st0" d="M17.4,0l-1.1,97.3c0,0.5,1.3,1.1,2.9,1.1l0,0c1.6,0,2.9-0.5,2.9-1.1L29,0H17.4z"/>
			<path id="XMLID_46_" class="st0" d="M1.1,22.9L0,123.7c0,0.5,1.3,1.1,2.9,1.1l0,0c1.6,0,2.9-0.5,2.9-1.1l6.9-100.5L1.1,22.9z"/>
			<path id="XMLID_51_" class="st0" d="M353.7,0l1.1,97.3c0,0.5-1.3,1.1-2.9,1.1l0,0c-1.6,0-2.9-0.5-2.9-1.1L342.1,0H353.7z"/>
			<path id="XMLID_49_" class="st0" d="M370.1,22.9l1.1,100.8c0,0.5-1.3,1.1-2.9,1.1l0,0c-1.6,0-2.9-0.5-2.9-1.1l-6.9-100.5
				L370.1,22.9z"/>
		</g>
		<g id="Group_1275" transform="translate(0 264.322)">
			<path id="XMLID_50_" class="st6" d="M390.2,57.2l-7.1-6.6l-16.6-36.1c-1.6-3.4-5-5.5-8.7-5.5H33c-3.7,0-7.1,2.2-8.7,5.5L3.5,59.6
				L0,58.3v10.3h0.3c0.4,2.9,2.9,5.1,5.8,5h378.5c3,0,5.5-2.3,5.8-5.3L390.2,57.2z"/>
			<path id="XMLID_42_" class="st0" d="M384.4,64.1H5.8c-4.2,0-7.1-4.2-5.3-7.6l23.8-51C25.9,2.2,29.3,0,33,0h324.5
				c3.7,0,7.1,2.2,8.7,5.5l23.7,50.9C391.5,60.1,388.6,64.1,384.4,64.1z"/>
			<path id="Path_630" class="st7" d="M25.1,29.8c0,0-8.4,5.8-3.2,7.9s67,0.5,74.4-1.6s16.1-21.9,16.1-25.1s-10.8-5.5-14.8-5.8
				s-56.4,3-56.4,3L25.1,29.8z"/>
			<ellipse id="Ellipse_83" class="st8" cx="331.6" cy="30.9" rx="21.9" ry="9.2"/>
			<ellipse id="Ellipse_84" class="st7" cx="191.8" cy="36.4" rx="78.6" ry="14.8"/>
		</g>
		<g id="Group_1276" transform="translate(305.178 254.562)">
			<path id="XMLID_33_" class="st9" d="M10.3,4.7c0,0-1.3-5.8-6.3-4s-4.2,14.8-3.4,21.9c1.1,7.1,7.4,4,7.4,4v-4.2
				c0,0-2.4,1.8-3.7-0.8S3.2,5.8,4.5,6.1s3.7,4.2,3.7,4.2S9,9.8,10.3,4.7z"/>
			<path id="XMLID_36_" class="st7" d="M6.9,5.8v31.7c0,3.7,8.4,6.6,19,6.6s19-2.9,19-6.6V5.8H6.9z"/>
			<path id="XMLID_32_" class="st0" d="M44.9,5.8c0,3.2-8.4,5.8-19,5.8S6.9,9,6.9,5.8S15.4,0,25.9,0S44.9,2.6,44.9,5.8z"/>
			<path id="XMLID_31_" class="st0" d="M42.5,5.8c0,2.9-7.4,5-16.6,5S9.3,8.4,9.3,5.8c0-2.9,7.4-5,16.6-5S42.5,2.9,42.5,5.8z"/>
			<path id="XMLID_109_" class="st6" d="M13.2,9c4.1,1.3,8.4,1.9,12.7,1.8c4.3,0.1,8.6-0.6,12.7-1.8c-4.1-1.3-8.4-1.9-12.7-1.8
				C21.6,7.1,17.3,7.7,13.2,9z"/>
		</g>
		<g id="Group_1277" transform="translate(10.5 242.377)">
			<path id="XMLID_41_" class="st0" d="M12.2,32.5L12.5,43l72.8,0.8V31.4L12.2,32.5z"/>
			<path id="XMLID_40_" class="st0" d="M85.3,43.8l10.6-22.7v-6.9L84.8,33.6L85.3,43.8z"/>
			<path id="XMLID_45_" class="st0" d="M12.2,42.3l0.3,10.8l72.8,0.8V41.2L12.2,42.3z"/>
			<path id="XMLID_44_" class="st0" d="M85.3,53.9L95.9,31v-6.6l-11.1,19L85.3,53.9z"/>
			<g id="XMLID_39_">
				<path id="XMLID_38_" class="st0" d="M40.5,5.1c0,0,1.6-3.4-0.8-4.7s-5,1.8-6.6,3.2S1.4,24.6,0.4,27.7s0,10,6.6,10.8
					s12.1-3.7,15-4.2c2.9-0.8,4-1.1,4-1.1L46,6.4L40.5,5.1z"/>
				<path id="XMLID_43_" class="st0" d="M7,38.3c6.6,0.8,12.1-3.7,15-4.2c2.9-0.8,4-1.1,4-1.1l0.8-1.1L8,28c-2.1-2-5.2-2.3-7.7-0.8
					C-0.4,30.6,0.6,37.8,7,38.3z"/>
				<path id="XMLID_34_" class="st0" d="M8.3,28.3h56.2c17.4,0,22.7-1.1,22.7-1.1L98,4.8c0,0-34,2.1-44.6,1.3s-13-1.3-13-1.3
					L8.3,28.3z"/>
				<path id="XMLID_37_" class="st0" d="M8.3,28.3l1.1,4.2c0,0,45.6,0.3,57.5,0.3C79,32.8,88,33.3,88,33.3l-0.8-6.1L8.3,28.3z"/>
				<path id="XMLID_35_" class="st0" d="M87.9,33.3l10-22.9V5.1L87.1,27.2L87.9,33.3z"/>
			</g>
		</g>
		<g id="Group_1278" transform="translate(112.146 202.333)">
			<path id="XMLID_2_" class="st0" d="M148.5,100.2H10.8c-1.3,0-2.4-1-2.4-2.4l0,0l0,0c0-1.3,1-2.4,2.4-2.4l0,0h137.7
				c1.3,0,2.4,1,2.4,2.4l0,0l0,0C150.8,99.1,149.8,100.2,148.5,100.2z"/>
			<path id="XMLID_29_" class="st0" d="M149.6,95.8H9.8c-1.1,0-2-0.8-2.1-1.8L0,2.4C-0.1,1.2,0.7,0.1,1.9,0C2,0,2,0,2.1,0h155.1
				c1.2,0,2.1,1,2.1,2.2c0,0.1,0,0.1,0,0.2l-7.7,91.5C151.5,94.9,150.6,95.7,149.6,95.8z"/>
		</g>
		<g id="Group_1279" transform="translate(315.523 167.777)">
			<path id="XMLID_110_" class="st5" d="M26.1,12.7c2.1-1.7,3.6-4,4.2-6.6C30.7,4.1,30.7,2,30,0"/>
			<path id="XMLID_101_" class="st5" d="M10,84.1c0,0,13.5-7.9,9-17.1S0,51.7,0,37.5c0-12.4,13.2-16.9,21.6-21.9"/>
			<path id="XMLID_106_" class="st5" d="M22.4,83.9c0,0,7.4-5,7.4-12.9c0-5.3-5.5-8.7-13.2-17.1"/>
			<path id="XMLID_108_" class="st5" d="M12.7,48.8c0,0-4.7-4-1.3-11.1"/>
		</g>
		<path id="Path_631" class="st10" d="M174.9,56.5c0,0,18.7-0.5,35.6,8.2s30.1-7.9,22.2-16.4s10.3,9.2,13.2-1.3S222.4,0.5,195.8,0
			s-33,16.6-33,16.6s-3.2-9-5.5-4c-1.4,2.7-2.2,5.7-2.4,8.7c0,0-5.3,4.2-7.7,6.6s0.8,5,0.8,5s-4.7,12.4-2.1,21.6l13.7,20.6
			c0,0,4.7,0.3,8.4-4.7c3.4-4.7,0.8-19.8,0.8-19.8s0.3,16.1,4.5,12.7S171.2,44,171.2,44L174.9,56.5z"/>
		<ellipse id="Ellipse_89" class="st11" cx="179.9" cy="86.3" rx="1.8" ry="0.8"/>
		<ellipse id="Ellipse_90" class="st11" cx="209.5" cy="84.9" rx="1.8" ry="0.8"/>
	</g>
	<g id="obj1" transform="translate(1248.316 92.964)">
		<path id="XMLID_100_" class="st6" d="M109.7,49.3H7.4C3.3,49.3,0,46,0,42l0,0V7.4C0,3.3,3.3,0,7.4,0l0,0h102.3
			c4.1,0,7.4,3.3,7.4,7.4l0,0V42C117,46,113.8,49.2,109.7,49.3L109.7,49.3z"/>
		<g id="Group_1371" transform="translate(8.442 6.595)">
			<path id="Path_820" class="st7" d="M5.5,0L6,1.1C3.4,2.7,1,5.1,1,8c-0.2,2.2,1.4,4,3.6,4.2h0.1c0.3,0,0.5-0.2,0.6-0.5
				c0-0.3-0.2-0.5-0.5-0.6l0,0c-1-0.4-1.6-1.3-1.6-2.4c0-1.8,1.6-2.9,3.4-2.9c1.9,0,3.4,1.5,3.4,3.4c-0.1,2.4-2.1,4.3-4.5,4.2
				c-2.9,0.2-5.3-2-5.5-4.8c0-0.1,0-0.3,0-0.4C0,4.5,2.6,1.6,5.5,0z M17.1,0l0.5,1.1c-2.6,1.6-5,4-5,6.9c-0.2,2.2,1.4,4,3.6,4.2h0.1
				c0.3,0,0.5-0.3,0.5-0.6s-0.2-0.5-0.5-0.5c-1-0.4-1.6-1.3-1.6-2.4c0-1.8,1.6-2.9,3.4-2.9c1.9,0,3.4,1.5,3.4,3.4
				c-0.1,2.4-2.1,4.3-4.5,4.2c-2.9,0.2-5.3-2-5.5-4.8c0-0.1,0-0.3,0-0.4C11.6,4.5,14.2,1.6,17.1,0L17.1,0z"/>
		</g>
		<line id="XMLID_102_" class="st12" x1="36.7" y1="16.6" x2="103.4" y2="16.6"/>
		<line id="XMLID_103_" class="st12" x1="36.7" y1="22.4" x2="103.4" y2="22.4"/>
		<line id="XMLID_104_" class="st12" x1="36.7" y1="28.2" x2="103.4" y2="28.2"/>
		<line id="XMLID_105_" class="st12" x1="36.7" y1="33.8" x2="103.4" y2="33.8"/>
	</g>
	<g id="obj2" transform="translate(1269.363 182.186)">
		<circle id="XMLID_119_" class="st6" cx="30" cy="30.1" r="25.3"/>
		<circle id="XMLID_116_" class="st0" cx="30.2" cy="30.2" r="21.4"/>
		<path id="XMLID_120_" class="st13" d="M30.1,14.4V30h10.6"/>
	</g>
	<g id="obj3" transform="translate(1554.303 122.244)">
		<path id="XMLID_125_" class="st6" d="M68.6,0H9.2C4.4,0,0.6,3.9,0.5,8.7v31.9c0,4.8,3.9,8.7,8.7,8.7H11c-1.8,4.2-5.2,10.3-11,14
			c0,0,12.1-0.8,24.5-14h44.1c4.8,0,8.7-3.9,8.7-8.7V8.7C77.2,3.9,73.4,0,68.6,0z"/>
		<g id="Group_1372" transform="translate(19.52 18.992)">
			<path id="XMLID_122_" class="st7" d="M9,4.5C9,2,7,0,4.5,0S0,2,0,4.5S2,9,4.5,9C7.1,9.2,9,7.1,9,4.5z"/>
			<path id="XMLID_124_" class="st7" d="M24.5,4.5C24.5,2,22.5,0,20,0s-4.5,2-4.5,4.5S17.6,9,20,9c2.4,0.1,4.4-1.7,4.5-4.1
				C24.5,4.8,24.5,4.6,24.5,4.5z"/>
			<path id="XMLID_126_" class="st7" d="M39.8,4.5c0-2.5-2-4.5-4.5-4.5s-4.5,2-4.5,4.5s2,4.5,4.5,4.5C38,9.2,39.8,7.1,39.8,4.5z"/>
		</g>
	</g>
</g>
<g>
	<defs>
		<rect id="SVGID_1_" x="175.9" y="240.4" width="40.3" height="28"/>
	</defs>
	<clipPath id="SVGID_00000114037900965293366600000012916572349326437041_">
		<use xlink:href="#SVGID_1_"  style="overflow:visible;"/>
	</clipPath>
</g>
<path class="st14" d="M202.8,247.5v-4.9c1.3-0.6,2.2-1.9,2.2-3.4v-0.1c0-2.1-1.7-3.7-3.7-3.7h-0.1c-2.1,0-3.7,1.7-3.7,3.7v0.1
	c0,1.4,0.8,2.8,2.2,3.4v4.9c-1.8,0.3-3.6,1-5,2.2l-13.3-10.4c0.1-0.3,0.1-0.7,0.2-1c0-2.3-1.9-4.2-4.2-4.2c-2.3,0-4.2,1.9-4.2,4.2
	s1.9,4.2,4.2,4.2c0,0,0,0,0,0c0.7,0,1.4-0.2,2.1-0.6l13.1,10.2c-2.4,3.6-2.3,8.4,0.2,12l-4,4c-0.3-0.1-0.7-0.2-1-0.2
	c-1.9,0-3.5,1.6-3.5,3.5c0,1.9,1.5,3.5,3.5,3.5c1.9,0,3.5-1.5,3.5-3.5c0-0.3-0.1-0.7-0.2-1l3.9-3.9c3.5,2.7,8.4,2.9,12.1,0.6
	c3.8-2.4,5.7-6.8,4.8-11.2C210.7,251.5,207.2,248.1,202.8,247.5 M201.1,263.4c-3,0.1-5.5-2.3-5.6-5.3s2.3-5.5,5.3-5.6
	c0.1,0,0.2,0,0.3,0c2.9,0.1,5.3,2.5,5.3,5.5C206.4,260.9,204.1,263.3,201.1,263.4"/>
</svg>
