<svg id="Layer_1" data-name="Layer 1" xmlns="http://www.w3.org/2000/svg" viewBox="0 0 391.43 403.57"><defs><style>.cls-1,.cls-18{fill:#fff;}.cls-1,.cls-15,.cls-17,.cls-18,.cls-19,.cls-4,.cls-6,.cls-7{stroke:#333;}.cls-1,.cls-15,.cls-16,.cls-17,.cls-18,.cls-19,.cls-4,.cls-6,.cls-7{stroke-linecap:round;stroke-linejoin:round;}.cls-2,.cls-5{fill:#fbe7cf;}.cls-11,.cls-13,.cls-3{fill:#f4a196;}.cls-10,.cls-3,.cls-5{stroke:#000;stroke-miterlimit:10;}.cls-3,.cls-4,.cls-5{stroke-width:0.5px;}.cls-12,.cls-15,.cls-16,.cls-19,.cls-4,.cls-6{fill:none;}.cls-17,.cls-7{fill:#333;}.cls-10,.cls-8{fill:#f4bd58;}.cls-9{fill:#fcd392;}.cls-11{fill-rule:evenodd;isolation:isolate;opacity:0.19;}.cls-12{stroke:#f4a196;stroke-width:0.75px;}.cls-14{fill:#1a2e35;}.cls-15{stroke-width:5px;}.cls-16{stroke:#fff;}.cls-19{stroke-width:2px;}</style></defs><g id="angular"><g id="angular-dev"><g id="Group_1271" data-name="Group 1271"><path class="cls-1" d="M263.31,174.11s21.37,45.63,21.37,48-19,12.67-22.69,14.78-8.7,4.22-8.7,4.22l2.11,21.1s32.71-7.39,46.43-14.77,13.19-15.83,10-28.23-24.26-60.67-24.26-60.67Z" transform="translate(-0.05 0)"/><path id="Path_627" data-name="Path 627" class="cls-2" d="M301.83,247.71c13.72-7.39,13.19-15.83,10-28.23s-24.27-60.67-24.27-60.67l-3.43,2.11L283.11,163S302.89,211.3,304,227.39c.79,10.82-20.84,24.27-35.35,31.92C279.41,256.41,293.91,251.92,301.83,247.71Z" transform="translate(-0.05 0)"/><path class="cls-1" d="M109,164.08s-15.56,57.24-16.09,67.27,30.86,30.07,32.18,31.12-1.85-34.82-1.85-34.82l10.55-52.23Z" transform="translate(-0.05 0)"/><path id="Path_628" data-name="Path 628" class="cls-2" d="M125.09,250.87c-9.23-7.91-22.68-19-24.26-23.74-2.38-7.12,15.56-58.56,15.56-58.56l-.27-1.59-6.85-3.16S93.7,221.06,93.18,231.08s30.86,30.07,32.18,31.13C125.62,263,125.36,257.73,125.09,250.87Z" transform="translate(-0.05 0)"/></g><g id="Group_1272" data-name="Group 1272"><path class="cls-3" d="M182.33,106.58s-6.06,4.22-17.67,4.75c-11.87.53-12.4-7.92-26.9-7.92-17.68,0-39.84,55.93-39.84,55.93s11.08,10.81,21.9,15.3a83.68,83.68,0,0,0,18.73,5.54l1.58,36.66h119l1.32-36.66,37.19-24.27s-18.2-32.71-27.17-44.85-23.74-7.65-28.23-4.48-17.93,4-23,3.17S200,104.47,200,104.47,192.35,98.14,182.33,106.58Z" transform="translate(-0.05 0)"/><line class="cls-4" x1="139.55" y1="119.77" x2="139.02" y2="180.7"/><path class="cls-4" d="M143.82,125.31s1.59,29.81,7.92,46.42" transform="translate(-0.05 0)"/><path class="cls-4" d="M153.05,173.84s3.17,9,5,11.87" transform="translate(-0.05 0)"/><path class="cls-4" d="M147.78,121.88s3.69,17.67,9.5,31.65" transform="translate(-0.05 0)"/><path class="cls-4" d="M251.18,127.15s-5.8,23.48-10.82,34" transform="translate(-0.05 0)"/><line class="cls-4" x1="260.63" y1="180.44" x2="260.36" y2="132.96"/><path class="cls-4" d="M258,133.75s-4.22,30.07-14.77,45.9" transform="translate(-0.05 0)"/><path class="cls-4" d="M252.77,173.58a144.57,144.57,0,0,1-8.18,14" transform="translate(-0.05 0)"/><path class="cls-4" d="M175.48,110.27s3.43,20.58,8.17,31.13,13.19,12.66,20.31,9.5,12.4-18.47,12.14-38.25" transform="translate(-0.05 0)"/></g><g id="Group_1273" data-name="Group 1273"><path class="cls-5" d="M158.59,67s-4.48-7.91-8.17-4,2.9,13.46,6.59,16.62,6.33,1.32,6.07-2.11C162.55,74.4,158.59,67,158.59,67Z" transform="translate(-0.05 0)"/><path class="cls-5" d="M231.14,67s4.48-7.91,8.18-4-2.9,13.46-6.6,16.62-6.33,1.32-6.07-2.11C227.18,74.4,231.14,67,231.14,67Z" transform="translate(-0.05 0)"/><path class="cls-1" d="M180.22,105s4.23,19.52,8.7,30.33c4.23,10.82,12.4,10.82,15.83,4s5.54-33,5.54-33S187.61,109.22,180.22,105Z" transform="translate(-0.05 0)"/><path class="cls-1" d="M159.12,69.65s6.33,22.16,17.94,35.08c11.87,12.93,16.09,16.09,22.42,15s12.93-9.23,22.42-26.12c9.23-17.14,10-30.07,10.82-31.12.79-1.32-1.85-25.33-15.3-35.61S189.19,12.14,176,23.22C162.81,34.57,154.64,53,159.12,69.65Z" transform="translate(-0.05 0)"/><path id="Path_629" data-name="Path 629" class="cls-2" d="M217.15,26.92c-13.45-10.29-28.22-14.77-41.41-3.69-12.93,11.34-21.1,29.8-16.88,46.42,0,0,1.32,4.22,3.43,10a5.18,5.18,0,0,1,.26-2.11c2.9-9,11.34-26.65,39.83-18.73,22.69,6.33,19.79,26.37,17.67,36.93.53-.8.8-1.32,1.32-2.11,9.24-17.15,10-30.08,10.82-31.13C233.24,61.21,230.6,37.2,217.15,26.92Z" transform="translate(-0.05 0)"/><path class="cls-6" d="M199.48,81.26a135.77,135.77,0,0,0-1.32,14.24c.27,4.75,1.58,6.33-.53,6.59-2.11.53-4.48-2.9-4.48-2.9" transform="translate(-0.05 0)"/><path class="cls-6" d="M190.77,77S186.29,65.69,171,71" transform="translate(-0.05 0)"/><path class="cls-6" d="M203.17,75.72s4-11.08,17.41-4.49" transform="translate(-0.05 0)"/><path class="cls-6" d="M193.67,86c0,6.07-7.12,11.08-15.82,11.08S162,92.07,162,86s6.6-8.7,15.3-8.7C186,77,193.67,79.67,193.67,86Z" transform="translate(-0.05 0)"/><path class="cls-6" d="M230.08,86c0,6.07-7.13,11.08-15.83,11.08s-15.82-5-15.82-11.08,6.59-8.7,15.3-8.7C222.43,77,230.08,79.67,230.08,86Z" transform="translate(-0.05 0)"/></g><g id="Group_1274" data-name="Group 1274"><path class="cls-1" d="M27.75,278.3,26.7,375.64c0,.53,1.32,1.05,2.9,1.05h0c1.58,0,2.9-.53,2.9-1.05l6.86-97.34Z" transform="translate(-0.05 0)"/><path class="cls-1" d="M11.41,301.25,10.35,402c0,.53,1.32,1.06,2.9,1.06h0c1.58,0,2.9-.53,2.9-1.06L23,301.51Z" transform="translate(-0.05 0)"/><path class="cls-1" d="M364.08,278.3l1.06,97.34c0,.53-1.32,1.05-2.9,1.05h0c-1.58,0-2.9-.53-2.9-1.05l-6.87-97.34Z" transform="translate(-0.05 0)"/><path class="cls-1" d="M380.44,301.25,381.49,402c0,.53-1.32,1.06-2.9,1.06h0c-1.58,0-2.9-.53-2.9-1.06l-6.85-100.5Z" transform="translate(-0.05 0)"/></g><g id="Group_1275" data-name="Group 1275"><path class="cls-7" d="M390.72,321.56,383.6,315,367,278.82a9.59,9.59,0,0,0-8.7-5.54H33.56a9.59,9.59,0,0,0-8.7,5.54L4,323.93.59,322.61V332.9H.85a5.76,5.76,0,0,0,5.81,5H385.18a5.76,5.76,0,0,0,5.8-5.27Z" transform="translate(-0.05 0)"/><path class="cls-1" d="M384.91,328.42H6.39c-4.22,0-7.12-4.22-5.27-7.65l23.74-50.91a9.58,9.58,0,0,1,8.7-5.54H358a9.56,9.56,0,0,1,8.7,5.54l23.74,50.91C392,324.46,389.14,328.42,384.91,328.42Z" transform="translate(-0.05 0)"/><path id="Path_630" data-name="Path 630" class="cls-8" d="M25.65,294.13s-8.45,5.8-3.17,7.91,67,.53,74.39-1.58S113,278.56,113,275.4s-10.82-5.54-14.77-5.8-56.45,2.9-56.45,2.9Z" transform="translate(-0.05 0)"/><ellipse id="Ellipse_83" data-name="Ellipse 83" class="cls-9" cx="332.11" cy="295.18" rx="21.89" ry="9.23"/><ellipse id="Ellipse_84" data-name="Ellipse 84" class="cls-8" cx="192.31" cy="300.72" rx="78.61" ry="14.77"/></g><g id="Group_1276" data-name="Group 1276"><path class="cls-10" d="M316.07,259.31s-1.32-5.8-6.33-4-4.22,14.77-3.43,21.9c1.05,7.12,7.38,3.95,7.38,3.95V277s-2.37,1.85-3.69-.79-1.05-15.83.27-15.56,3.69,4.22,3.69,4.22S314.75,264.32,316.07,259.31Z" transform="translate(-0.05 0)"/><path class="cls-8" d="M312.64,260.36V292c0,3.69,8.44,6.6,19,6.6s19-2.9,19-6.6V260.36Z" transform="translate(-0.05 0)"/><path class="cls-1" d="M350.63,260.36c0,3.17-8.44,5.8-19,5.8s-19-2.64-19-5.8,8.44-5.8,19-5.8S350.63,257.2,350.63,260.36Z" transform="translate(-0.05 0)"/><path class="cls-1" d="M348.26,260.36c0,2.9-7.39,5-16.62,5S315,263,315,260.36c0-2.9,7.39-5,16.62-5S348.26,257.46,348.26,260.36Z" transform="translate(-0.05 0)"/><path class="cls-7" d="M319,263.53a41.22,41.22,0,0,0,12.67,1.84,40,40,0,0,0,12.66-1.84,41.47,41.47,0,0,0-12.66-1.85A40.3,40.3,0,0,0,319,263.53Z" transform="translate(-0.05 0)"/></g><g id="Group_1277" data-name="Group 1277"><path class="cls-1" d="M23.27,274.87l.27,10.55,72.8.79V273.82Z" transform="translate(-0.05 0)"/><path class="cls-1" d="M96.34,286.22l10.55-22.69v-6.86L95.81,275.93Z" transform="translate(-0.05 0)"/><path class="cls-1" d="M23.27,284.63l.27,10.82,72.8.79V283.58Z" transform="translate(-0.05 0)"/><path class="cls-1" d="M96.34,296.24l10.55-22.95v-6.6l-11.08,19Z" transform="translate(-0.05 0)"/><path class="cls-1" d="M51.5,247.44s1.59-3.43-.79-4.75-5,1.85-6.59,3.17S12.46,267,11.41,270.12s0,10,6.59,10.82,12.14-3.69,15-4.22c2.9-.79,4-1.06,4-1.06l20-26.9Z" transform="translate(-0.05 0)"/><path class="cls-1" d="M18,280.68c6.6.79,12.14-3.7,15-4.22,2.9-.79,4-1.06,4-1.06l.8-1-18.73-4a6.25,6.25,0,0,0-7.65-.79C10.61,273,11.67,280.15,18,280.68Z" transform="translate(-0.05 0)"/><path class="cls-1" d="M19.32,270.65H75.5c17.41,0,22.69-1,22.69-1L109,247.18s-34,2.11-44.58,1.31-12.92-1.31-12.92-1.31Z" transform="translate(-0.05 0)"/><path class="cls-1" d="M19.32,270.65l1.05,4.22s45.64.27,57.5.27c12.14,0,21.1.53,21.1.53l-.79-6.07Z" transform="translate(-0.05 0)"/><path class="cls-1" d="M99,275.66l10-23v-5.27L98.19,269.6Z" transform="translate(-0.05 0)"/></g><g id="Group_1278" data-name="Group 1278"><path class="cls-1" d="M261.21,302.57H123.51a2.37,2.37,0,0,1-2.38-2.35v0h0a2.37,2.37,0,0,1,2.36-2.37H261.2a2.37,2.37,0,0,1,2.38,2.35v0h0A2.54,2.54,0,0,1,261.21,302.57Z" transform="translate(-0.05 0)"/><path class="cls-1" d="M262.26,298.08H122.46a2,2,0,0,1-2.12-1.84l-7.64-91.53a2.15,2.15,0,0,1,1.92-2.37H269.91a2.16,2.16,0,0,1,2.12,2.19c0,.06,0,.12,0,.19l-7.65,91.53A2.24,2.24,0,0,1,262.26,298.08Z" transform="translate(-0.05 0)"/><path class="cls-11" d="M166.44,225.63v44.09H182.1l-5.46-7.4,15.71-26.15,15.7,26.15-5.46,7.4h15.67V225.63Z" transform="translate(-0.05 0)"/><path class="cls-12" d="M179.92,274.72H161.44V220.63h61.82v54.09H204.78" transform="translate(-0.05 0)"/><path class="cls-12" d="M199.58,282.69V274l8.27-11.21-15.7-26.15-15.71,26.15L184.72,274v8.7m7.22-23v-23" transform="translate(-0.05 0)"/><circle class="cls-13" cx="191.89" cy="259.66" r="2"/></g><g id="Group_1279" data-name="Group 1279"><path class="cls-6" d="M342.19,180.44a12,12,0,0,0,4.22-6.6,11.8,11.8,0,0,0-.27-6.07" transform="translate(-0.05 0)"/><path class="cls-6" d="M326.09,251.92s13.46-7.91,9-17.14-19-15.3-19-29.55c0-12.4,13.19-16.88,21.63-21.89" transform="translate(-0.05 0)"/><path class="cls-6" d="M338.49,251.66s7.39-5,7.39-12.93c0-5.27-5.54-8.7-13.19-17.14" transform="translate(-0.05 0)"/><path class="cls-6" d="M328.73,216.58s-4.75-4-1.32-11.08" transform="translate(-0.05 0)"/></g><path id="Path_631" data-name="Path 631" class="cls-14" d="M175.47,56.46s18.73-.53,35.62,8.18,30.07-7.91,22.15-16.36,10.29,9.24,13.19-1.31S223,.54,196.31,0s-33,16.62-33,16.62-3.16-9-5.54-4a22.4,22.4,0,0,0-2.37,8.7s-5.28,4.22-7.65,6.6.79,5,.79,5-4.75,12.4-2.11,21.63l13.71,20.58s4.75.26,8.45-4.75c3.42-4.75.79-19.78.79-19.78s.26,16.09,4.48,12.66-2.11-19.26-2.11-19.26Z" transform="translate(-0.05 0)"/><ellipse id="Ellipse_89" data-name="Ellipse 89" class="cls-15" cx="180.44" cy="86.27" rx="1.85" ry="0.79"/><ellipse id="Ellipse_90" data-name="Ellipse 90" class="cls-15" cx="209.98" cy="84.95" rx="1.85" ry="0.79"/></g><g id="obj1"><path class="cls-7" d="M111.11,86.8H8.77a7.39,7.39,0,0,1-7.39-7.36V44.85a7.38,7.38,0,0,1,7.36-7.38H111.12a7.36,7.36,0,0,1,7.38,7.36V79.41a7.55,7.55,0,0,1-7.39,7.39Z" transform="translate(-0.05 0)"/><g id="Group_1371" data-name="Group 1371"><path id="Path_820" data-name="Path 820" class="cls-8" d="M15.36,44.06l.53,1.06c-2.64,1.58-5,4-5,6.86a3.91,3.91,0,0,0,3.59,4.21h.1a.53.53,0,0,0,.55-.51.53.53,0,0,0-.5-.55h0A2.39,2.39,0,0,1,13,52.77c0-1.85,1.58-2.9,3.43-2.9a3.5,3.5,0,0,1,3.43,3.43,4.4,4.4,0,0,1-4.49,4.22,5.2,5.2,0,0,1-5.53-4.85c0-.14,0-.29,0-.43C9.82,48.55,12.46,45.65,15.36,44.06Zm11.61,0,.53,1.06c-2.64,1.58-5,4-5,6.86a3.92,3.92,0,0,0,3.59,4.21h.11a.53.53,0,0,0,0-1.06,2.39,2.39,0,0,1-1.59-2.37c0-1.85,1.59-2.9,3.43-2.9a3.49,3.49,0,0,1,3.43,3.43A4.39,4.39,0,0,1,27,57.52a5.2,5.2,0,0,1-5.53-4.85c0-.14,0-.29,0-.43,0-3.69,2.63-6.6,5.54-8.18Z" transform="translate(-0.05 0)"/></g><line class="cls-16" x1="37.99" y1="54.09" x2="104.73" y2="54.09"/><line class="cls-16" x1="37.99" y1="59.89" x2="104.73" y2="59.89"/><line class="cls-16" x1="37.99" y1="65.69" x2="104.73" y2="65.69"/><line class="cls-16" x1="37.99" y1="71.23" x2="104.73" y2="71.23"/></g><g id="obj2"><circle class="cls-17" cx="52.39" cy="156.75" r="25.32"/><circle class="cls-18" cx="52.53" cy="156.85" r="21.37"/><path class="cls-19" d="M52.55,141.13V156.7H63.11" transform="translate(-0.05 0)"/></g><g id="obj3"><path class="cls-7" d="M376,66.75H316.6a8.77,8.77,0,0,0-8.7,8.7v31.92a8.78,8.78,0,0,0,8.7,8.7h1.84c-1.84,4.22-5.27,10.28-11.08,14,0,0,12.14-.8,24.54-14H376a8.8,8.8,0,0,0,8.7-8.7V75.45A8.78,8.78,0,0,0,376,66.75Z" transform="translate(-0.05 0)"/><g id="Group_1372" data-name="Group 1372"><path class="cls-8" d="M335.86,90.22a4.49,4.49,0,1,0-4.49,4.49C334,95,335.86,92.86,335.86,90.22Z" transform="translate(-0.05 0)"/><path class="cls-8" d="M351.42,90.22a4.49,4.49,0,1,0-4.48,4.49,4.29,4.29,0,0,0,4.48-4.08A2.81,2.81,0,0,0,351.42,90.22Z" transform="translate(-0.05 0)"/><path class="cls-8" d="M366.72,90.22a4.49,4.49,0,1,0-4.48,4.49C364.87,95,366.72,92.86,366.72,90.22Z" transform="translate(-0.05 0)"/></g></g></g></svg>