<svg xmlns="http://www.w3.org/2000/svg" viewBox="0 0 30.87 30.9"><defs><style>.cls-1{fill:#ffd45e;}</style></defs><g id="Layer_2" data-name="Layer 2"><g id="Layer_1-2" data-name="Layer 1"><path id="Path_280" data-name="Path 280" class="cls-1" d="M9.17,9.6a5.4,5.4,0,1,1,5.6,5.4h-.6A5.44,5.44,0,0,1,9.17,9.6Z"/><path id="Path_281" data-name="Path 281" class="cls-1" d="M9,28.5H3.47a.91.91,0,0,1-.8-.4,1,1,0,0,1-.2-.9,11.52,11.52,0,0,1,10.9-9.1H14c.2,0,4.1.9,4.1.9l.6,9.5Zm.5-9.5a14.33,14.33,0,0,1,4.1-.9h.6a11.41,11.41,0,0,1,10.9,9.1,1,1,0,0,1-.2.9,1.23,1.23,0,0,1-.8.4h-5.5"/><path id="Path_282" data-name="Path 282" d="M10,28.5H3.67a1.39,1.39,0,0,1-1-.5,2,2,0,0,1-.3-1.1,13.44,13.44,0,0,1,12.7-10.6h.6a12.78,12.78,0,0,1,4.7,1,1.17,1.17,0,0,0,1.6-.7,1.15,1.15,0,0,0-.7-1.6c-.3-.1-.7-.3-1-.4A7.92,7.92,0,0,0,22,3.3a8.26,8.26,0,0,0-11.5-1.7,8.16,8.16,0,0,0-1.6,11.5,9.12,9.12,0,0,0,1.7,1.7,15,15,0,0,0-5.1,2.8,15.39,15.39,0,0,0-5.4,8.9,3.66,3.66,0,0,0,2.8,4.3,1.7,1.7,0,0,0,.7.1H10a1.2,1.2,0,1,0,0-2.4ZM9.67,8.2a5.8,5.8,0,0,1,11.6,0,5.75,5.75,0,0,1-5.5,5.8h-.6A5.81,5.81,0,0,1,9.67,8.2Zm21.2,13.5v4.2a1.2,1.2,0,0,1-2.4,0h0V23l-4.1,4.1a2.78,2.78,0,0,1-3.8.1l-.6-.6a.45.45,0,0,0-.5,0l-3.7,3.9a1.2,1.2,0,0,1-1.7-1.7l3.7-3.9a3.38,3.38,0,0,1,1.9-.9,3.06,3.06,0,0,1,2,.7l.6.6a.45.45,0,0,0,.5,0l4.3-4.3h-3a1.2,1.2,0,1,1,0-2.4h4a3.14,3.14,0,0,1,2.8,3.1Z"/><circle id="Ellipse_18" data-name="Ellipse 18" class="cls-1" cx="2.77" cy="11.1" r="2.2"/><circle id="Ellipse_19" data-name="Ellipse 19" class="cls-1" cx="6.87" cy="14.3" r="1"/><circle id="Ellipse_20" data-name="Ellipse 20" class="cls-1" cx="26.07" cy="14" r="1.5"/></g></g></svg>