<?xml version="1.0" encoding="utf-8"?>
<!-- Generator: Adobe Illustrator 25.2.1, SVG Export Plug-In . SVG Version: 6.00 Build 0)  -->
<svg version="1.1" id="Layer_1" xmlns="http://www.w3.org/2000/svg" xmlns:xlink="http://www.w3.org/1999/xlink" x="0px" y="0px"
	 viewBox="0 0 70.14 73.62" style="enable-background:new 0 0 70.14 73.62;" xml:space="preserve">
<style type="text/css">
	.st0{clip-path:url(#SVGID_2_);}
	.st1{clip-path:url(#SVGID_4_);fill:#A08DFD;}
	.st2{opacity:0.04;clip-path:url(#SVGID_4_);}
	.st3{clip-path:url(#SVGID_6_);fill:#373F54;}
	.st4{clip-path:url(#SVGID_4_);}
</style>
<g>
	<defs>
		<rect id="SVGID_1_" width="70.14" height="73.62"/>
	</defs>
	<clipPath id="SVGID_2_">
		<use xlink:href="#SVGID_1_"  style="overflow:visible;"/>
	</clipPath>
	<g class="st0">
		<defs>
			<rect id="SVGID_3_" y="0" width="70.14" height="73.62"/>
		</defs>
		<clipPath id="SVGID_4_">
			<use xlink:href="#SVGID_3_"  style="overflow:visible;"/>
		</clipPath>
		<path class="st1" d="M20.77,39.04c3.87,0,7,3.36,7,7.5s-3.13,7.5-7,7.5s-7-3.36-7-7.5S16.9,39.04,20.77,39.04"/>
		<path class="st1" d="M50.77,39.04c3.87,0,7,3.36,7,7.5s-3.13,7.5-7,7.5s-7-3.36-7-7.5S46.9,39.04,50.77,39.04"/>
		<g class="st2">
			<g>
				<defs>
					<rect id="SVGID_5_" width="70.14" height="73.62"/>
				</defs>
				<clipPath id="SVGID_6_">
					<use xlink:href="#SVGID_5_"  style="overflow:visible;"/>
				</clipPath>
				<path class="st3" d="M42.31,7.14c-4.52-2.72-10.14-2.86-14.79-0.38l-14.55,7.78c-4.87,2.6-7.92,7.67-7.93,13.19L5,44.23
					c-0.01,5.28,2.75,10.17,7.27,12.89l15.56,9.35c4.52,2.72,10.14,2.86,14.79,0.38l14.55-7.77c4.87-2.6,7.92-7.67,7.93-13.19
					l0.04-16.5c0.01-5.28-2.75-10.17-7.28-12.89L42.31,7.14z M44.88,2.86l15.56,9.35c6.03,3.62,9.71,10.15,9.7,17.18l-0.04,16.5
					c-0.02,7.36-4.08,14.12-10.57,17.59l-14.55,7.78c-6.21,3.32-13.69,3.13-19.73-0.5L9.7,61.41C3.67,57.79-0.02,51.26,0,44.22
					l0.04-16.49c0.02-7.36,4.08-14.12,10.57-17.59l14.55-7.77C31.36-0.96,38.85-0.77,44.88,2.86"/>
			</g>
		</g>
		<path class="st4" d="M44.18,17.57c2.18-0.01,3.94-1.78,3.93-3.95c-0.01-2.18-1.78-3.93-3.95-3.93c-2.18,0.01-3.93,1.78-3.93,3.96
			c0,1.04,0.42,2.04,1.15,2.77C42.12,17.16,43.13,17.57,44.18,17.57 M50.78,33.4C44.77,33.46,39.94,38.38,40,44.39
			c0.06,6.01,4.98,10.84,10.99,10.78c6.01-0.06,10.84-4.98,10.78-10.99c-0.03-2.85-1.17-5.58-3.19-7.59
			C56.51,34.52,53.7,33.37,50.78,33.4 M50.78,52.09c-4.25,0-7.69-3.44-7.69-7.69s3.44-7.69,7.69-7.69s7.69,3.44,7.69,7.69
			C58.42,48.62,55,52.04,50.78,52.09L50.78,52.09z M41.54,29h9.23v-3.96h-7.03l-4.18-7.26c-1.16-1.79-3.55-2.3-5.34-1.14
			c-0.22,0.14-0.42,0.3-0.6,0.48l-8.13,8.13c-0.71,0.69-1.11,1.64-1.1,2.64c-0.02,1.33,0.65,2.57,1.76,3.3l7.47,4.4v10.99h3.96V32.3
			l-4.84-3.74l5.06-5.06L41.54,29z M20,33.4c-6.07,0-10.99,4.92-10.99,10.99S13.93,55.39,20,55.39s10.99-4.92,10.99-10.99
			S26.07,33.4,20,33.4z M20,52.09c-4.25,0-7.69-3.44-7.69-7.69S15.75,36.7,20,36.7s7.69,3.44,7.69,7.69S24.25,52.09,20,52.09"/>
		<path class="st1" d="M61.3,10.02c1.05,0.63,1.39,2,0.76,3.05c-0.63,1.05-2,1.39-3.05,0.76c-1.05-0.63-1.39-2-0.76-3.05
			C58.88,9.72,60.25,9.38,61.3,10.02"/>
		<path class="st1" d="M59.23,15.71c0.4,0.24,0.53,0.76,0.29,1.17c-0.24,0.4-0.76,0.53-1.16,0.29c-0.4-0.24-0.53-0.76-0.29-1.17
			C58.31,15.59,58.83,15.46,59.23,15.71"/>
		<path class="st1" d="M4.99,37.78c-1.05-0.63-1.39-2-0.76-3.05c0.63-1.05,2-1.39,3.05-0.76c1.05,0.63,1.39,2,0.76,3.05
			C7.41,38.07,6.04,38.41,4.99,37.78"/>
		<path class="st1" d="M7.06,32.09c-0.4-0.24-0.53-0.76-0.29-1.16c0.24-0.4,0.76-0.53,1.16-0.29c0.4,0.24,0.53,0.76,0.29,1.17
			C7.98,32.2,7.46,32.33,7.06,32.09"/>
	</g>
</g>
</svg>
