<svg xmlns="http://www.w3.org/2000/svg" viewBox="0 0 31.7 31.6"><defs><style>.cls-1,.cls-2{fill:#3880ff;}.cls-1{opacity:0.4;isolation:isolate;}</style></defs><g id="Layer_2" data-name="Layer 2"><g id="Layer_1-2" data-name="Layer 1"><path id="Path_293" data-name="Path 293" class="cls-1" d="M16.1,31V8.8h-1a1,1,0,0,1-1-1v-1H7.8v1a1,1,0,0,1-1,1h-1V31Z"/><path id="Path_294" data-name="Path 294" class="cls-1" d="M26.3,19.3V15.4c0-1,.1-2-.7-2.6L20.3,9.4V28.5h1.1v-2c0-.7,1.2-1.4,1.9-1.4s1.9.8,1.9,1.4v2h1.2V25.4C26.3,23.4,26.3,21.3,26.3,19.3Z"/><path id="Path_295" data-name="Path 295" d="M31.7,30.4a1.22,1.22,0,0,1-1.2,1.2H18.3a1.22,1.22,0,0,1-1.2-1.2V7.4H15.9a1.16,1.16,0,0,1-1.2-1.2h0V4.9H7.2V6.1A1.22,1.22,0,0,1,6,7.3H4.7V30.4a1.22,1.22,0,0,1-1.2,1.2H1.2A1.22,1.22,0,0,1,0,30.4a1.29,1.29,0,0,1,1.2-1.2h1V6.1A1.22,1.22,0,0,1,3.4,4.9H4.6V3.7A1.22,1.22,0,0,1,5.8,2.5H9.5V1.2a1.2,1.2,0,1,1,2.4,0h0V2.4h3.7a1.22,1.22,0,0,1,1.2,1.2V4.8h1.3a1.85,1.85,0,0,1,.7.2l7.9,4.9a5.54,5.54,0,0,1,2.6,4.6v4.6a1.22,1.22,0,0,1-1.2,1.2,1,1,0,0,1-1.1-1V14.7a2.85,2.85,0,0,0-1.4-2.5l-6-3.8V29.3H22v-2a1.22,1.22,0,0,1,1.2-1.2,1.29,1.29,0,0,1,1.2,1.2v2H27V25.5a1.22,1.22,0,0,1,1.2-1.2,1.29,1.29,0,0,1,1.2,1.2v3.8h1a1.16,1.16,0,0,1,1.3,1.1ZM8.4,14.9a1.22,1.22,0,0,0-1.2,1.2v1.2a1.2,1.2,0,0,0,2.4,0h0V16.1A1.22,1.22,0,0,0,8.4,14.9Zm4.9,0a1.22,1.22,0,0,0-1.2,1.2v1.2a1.22,1.22,0,0,0,1.2,1.2,1.29,1.29,0,0,0,1.2-1.2V16.1a1.16,1.16,0,0,0-1.2-1.2ZM8.4,20.4a1.22,1.22,0,0,0-1.2,1.2v1.2a1.2,1.2,0,0,0,2.4,0V21.6A1.29,1.29,0,0,0,8.4,20.4Zm4.9,0a1.22,1.22,0,0,0-1.2,1.2v1.2A1.22,1.22,0,0,0,13.3,24a1.29,1.29,0,0,0,1.2-1.2V21.6a1.22,1.22,0,0,0-1.2-1.2Zm0,5.6a1.22,1.22,0,0,0-1.2,1.2v1.2a1.22,1.22,0,0,0,1.2,1.2,1.29,1.29,0,0,0,1.2-1.2V27.2A1.16,1.16,0,0,0,13.3,26Zm11.1-9.9a1.2,1.2,0,1,0-2.4,0v1.2a1.22,1.22,0,0,0,1.2,1.2,1.29,1.29,0,0,0,1.2-1.2Zm-1.2,4.3A1.22,1.22,0,0,0,22,21.6v1.2A1.22,1.22,0,0,0,23.2,24a1.29,1.29,0,0,0,1.2-1.2V21.6A1.22,1.22,0,0,0,23.2,20.4ZM8.4,26a1.22,1.22,0,0,0-1.2,1.2v1.2a1.2,1.2,0,0,0,2.4,0V27.2A1.22,1.22,0,0,0,8.4,26Zm0-16.7a1.22,1.22,0,0,0-1.2,1.2v1.2a1.2,1.2,0,0,0,2.4,0V10.5A1.22,1.22,0,0,0,8.4,9.3Zm4.9,0a1.22,1.22,0,0,0-1.2,1.2v1.2a1.22,1.22,0,0,0,1.2,1.2,1.29,1.29,0,0,0,1.2-1.2V10.5a1.16,1.16,0,0,0-1.2-1.2Z"/><circle id="Ellipse_38" data-name="Ellipse 38" class="cls-2" cx="1.8" cy="1.7" r="1.6"/><circle id="Ellipse_39" data-name="Ellipse 39" class="cls-2" cx="29" cy="2.5" r="2.2"/><circle id="Ellipse_40" data-name="Ellipse 40" class="cls-2" cx="24.5" cy="5" r="1"/></g></g></svg>