<?xml version="1.0" encoding="utf-8"?>
<!-- Generator: Adobe Illustrator 26.0.3, SVG Export Plug-In . SVG Version: 6.00 Build 0)  -->
<svg version="1.1" id="Layer_1" xmlns="http://www.w3.org/2000/svg" xmlns:xlink="http://www.w3.org/1999/xlink" x="0px" y="0px"
	 viewBox="0 0 633 375.02" style="enable-background:new 0 0 633 375.02;" xml:space="preserve">
<style type="text/css">
	.st0{fill:#E4F0FF;}
	.st1{opacity:0.5;}
	.st2{fill:#FFFFFF;}
	.st3{fill:#FFC0BB;}
	.st4{fill:#7683C4;}
	.st5{fill:#3C2340;}
	.st6{fill:#07085B;}
	.st7{fill:#F99893;}
	.st8{fill:#333333;}
	.st9{fill:#2C377A;}
	.st10{fill:#404996;}
	.st11{fill:#838CCF;}
	.st12{fill:#FF5B7E;}
	.st13{fill:#E5426E;}
	.st14{fill:#4C2816;}
	.st15{opacity:0.5;fill:#4C2816;}
	.st16{fill:#F484A2;}
	.st17{fill:#FCB7B4;}
	.st18{fill:#F24C78;}
	.st19{fill:#FEE4CB;}
	.st20{opacity:0.5;fill:#FEE4CB;}
	.st21{fill:#E8B891;}
	.st22{fill:#88C7FF;}
	.st23{fill:#B0D6FF;}
	.st24{opacity:0.3;fill:#C9EAFD;}
	.st25{fill:#142666;}
	.st26{fill:#FEB546;}
	.st27{fill:#E87B50;}
	.st28{fill:#F3FDFF;}
	.st29{fill:#EA426E;}
	.st30{opacity:0.3;fill:#E87B50;}
	.st31{fill:#F76390;}
	.st32{fill:#06062D;}
	.st33{fill:#09083C;}
	.st34{fill:#29589B;}
	.st35{fill:#3660AC;}
	.st36{fill:#F9A435;}
	.st37{fill:#EF972E;}
	.st38{opacity:0.3;fill:#F99893;}
	.st39{fill:#70C0FD;}
	.st40{opacity:0.3;fill:#4188E4;}
	.st41{fill:#E6F7FF;}
	.st42{opacity:0.2;fill:#FFFFFF;}
	.st43{fill:#183658;}
	.st44{opacity:0.2;fill:#E0A689;}
	.st45{fill:#DAEEF7;}
	.st46{opacity:0.3;fill:#DAEEF7;}
	.st47{opacity:0.5;fill:#88C7FF;}
	.st48{fill:#4188E4;}
	.st49{fill:#18196B;}
	.st50{fill:#FF7B8C;}
	.st51{fill:#AFDBFE;}
	.st52{opacity:0.5;fill:#70C0FD;}
	.st53{fill:#97CEF7;}
</style>
<g>
	<path class="st0" d="M622.52,304.15c-10.89-38.42,10.31-78.89-11.43-115.3c-6.91-11.56-17.7-21.74-26.76-32.55
		c-13.69-16.32-23.53-34.26-28.9-52.66c-3.51-12.04-5.13-24.3-10.08-36.14c-13.74-32.85-54.78-59.9-99.96-65.88
		C408.98-3.2,371.3,2.97,341.53,16.93C207.78,79.65,138.1,49.98,91.41,71.62c-29.27,13.56-43.68,38.78-52.37,63.99
		c-8.69,25.21-12.17,69.49-24.8,98.01c-41.94,94.69,19.47,128.39,46.86,138.3c0.98,0.35,5.11,0.85,6.12,1.16l69.78,1.02
		c13.88-1.93,45.57-1.24,56.85-0.93c44.28,1.23,80.97-1.11,119.58-0.7c96.19,1.01,186.27,1.38,276.88,0.83
		c13.26-0.08,20.94-3.48,30.79-9.52c10.5-6.44,13.14-17.9,11.43-28.43S625.48,314.6,622.52,304.15z"/>
	<g class="st1">
		<polygon class="st2" points="321.2,93.11 389.1,93.11 420.3,28.36 352.39,28.36 		"/>
		<polygon class="st2" points="430.65,28.36 399.46,93.11 467.37,93.11 498.56,28.36 		"/>
		<polygon class="st2" points="286.88,164.34 354.79,164.34 385.98,99.6 318.07,99.6 		"/>
		<polygon class="st2" points="365.14,164.34 433.05,164.34 464.24,99.6 396.33,99.6 		"/>
	</g>
	<g>
		<path class="st3" d="M378.72,252.39c-0.17,0.16-0.09,0.45,0.14,0.5c1.78,0.38,7.36,1.59,7.36,2.07c0.01,0.56-5-0.4-5.27,0.05
			c-0.27,0.45,4.65,1.27,4.56,1.87c-0.09,0.6-4.54-0.29-4.67-0.05c-0.13,0.24,4.05,1.56,4.21,1.94s-4.47-0.48-4.7-0.23
			c-0.24,0.25,2.76,1.91,2.65,2.18c-0.11,0.27-0.14,0.47-7.96-1.32l-3.05-0.84l-2.12-2.03l1.32-3.27c0,0,9.43-4.2,9.79-3.97
			C381.33,249.5,381.28,249.85,378.72,252.39z"/>
		<g>
			<g>
				<path class="st4" d="M339.92,210.44l8.68,34.47l23.84,7.47c0,0-0.54,6.85-0.47,6.81c0.07-0.04-31.67,0.27-35.14-2.47
					c-3.47-2.75-4.43-40.05-4.43-40.05L339.92,210.44z"/>
			</g>
		</g>
		<g>
			<g>
				<g>
					<path class="st5" d="M299.15,364.79l4.95-0.02c0.4,0,0.74-0.32,0.83-0.77l0,0c0.06-0.29,0.29-0.49,0.55-0.46l0.07,0
						c0.51,0.07,0,0.28,0,0.86l1.61,1.76l0.98,0.88c1.1,1,2.45,1.58,3.86,1.66l1.47,0.09c0.44,0.03,0.86,0.25,1.15,0.63l0.14,0.18
						c0.56,0.71,0.86,1.64,0.86,2.59l0,0l-11.44,0.14c-0.39,0-0.77-0.13-1.09-0.37l-1.58-1.13l-0.01,1.48l-3.2-0.02l0.05-6.05
						C298.34,365.44,298.44,364.79,299.15,364.79z"/>
				</g>
			</g>
			
				<rect x="298.29" y="372.27" transform="matrix(1 -8.859539e-03 8.859539e-03 1 -3.2881 2.6715)" class="st6" width="3.2" height="0.39"/>
			<path class="st6" d="M315.61,372.52l-11.59,0.1c-0.22,0-0.39-0.17-0.39-0.39l0,0l11.98-0.11L315.61,372.52z"/>
		</g>
		<g>
			<g>
				<g>
					<path class="st5" d="M331.95,364.79l4.95-0.02c0.4,0,0.74-0.32,0.83-0.77l0,0c0.06-0.29,0.29-0.49,0.55-0.46l0.07,0
						c0.51,0.07,0,0.28,0,0.86l1.61,1.76l0.98,0.88c1.1,1,2.45,1.58,3.86,1.66l1.47,0.09c0.44,0.03,0.86,0.25,1.15,0.63l0.14,0.18
						c0.56,0.71,0.86,1.64,0.86,2.59l0,0l-11.44,0.14c-0.39,0-0.77-0.13-1.09-0.37l-1.58-1.13l-0.01,1.48l-3.2-0.02l0.05-6.05
						C331.14,365.44,331.24,364.79,331.95,364.79z"/>
				</g>
			</g>
			
				<rect x="331.09" y="372.27" transform="matrix(1 -8.859057e-03 8.859057e-03 1 -3.2866 2.9619)" class="st6" width="3.2" height="0.39"/>
			<path class="st6" d="M348.42,372.52l-11.59,0.1c-0.22,0-0.39-0.17-0.39-0.39l0,0l11.98-0.11L348.42,372.52z"/>
		</g>
		<g>
			<path class="st6" d="M314.65,190.88c0,0-2.3-9.66,3.04-13.32c5.34-3.66,11.02-3.3,14.9-1.16s6.23,9.69,4.52,14.03l-12.86-4.03
				L314.65,190.88z"/>
			<polygon class="st3" points="320.84,199.49 320.39,210.4 329.97,209.53 328.45,199.95 			"/>
			<path class="st7" d="M329.17,204.5l-0.73-4.56l-7.61-0.46l-0.15,3.78C322.26,204.7,325.03,206.14,329.17,204.5z"/>
			<path class="st7" d="M334.5,191.55c-0.53,1.22-0.16,2.55,0.81,2.97c0.97,0.42,2.19-0.23,2.72-1.45c0.53-1.22,0.16-2.55-0.81-2.97
				C336.24,189.69,335.03,190.34,334.5,191.55z"/>
			<path class="st3" d="M334.01,198.73c0.32-0.52,0.59-1.08,0.8-1.66c0.62-1.57,0.95-3.24,1.12-4.7c0.04-0.31,0.09-0.62,0.15-0.93
				c0.24-1.25,0.27-2.58,0-3.95c-0.86-4.42-4.59-7.81-9.08-8.23c-6.04-0.57-11.14,4.11-11.25,10.01c-0.63-0.37-1.35-0.47-1.99-0.2
				c-1.23,0.52-1.7,2.19-1.05,3.72c0.65,1.54,2.17,2.36,3.4,1.84c0.17-0.07,0.32-0.17,0.47-0.28c0.41,5.03,4.45,8.99,9.39,9.01
				c2.42,0.01,4.62-0.93,6.3-2.48c0.11-0.09,0.23-0.2,0.35-0.32C333.16,200.02,333.62,199.4,334.01,198.73z"/>
			<path class="st7" d="M328.32,189.41c0.05,0.59,0.07,1.16,0.13,1.72c0.06,0.55,0.15,1.13,0.38,1.51l0.05,0.06
				c0.02,0.02,0.02,0.03,0.06,0.07c0.06,0.07,0.12,0.13,0.16,0.21c0.1,0.16,0.17,0.34,0.18,0.53c0.03,0.39-0.16,0.74-0.41,0.97
				c-0.5,0.46-1.18,0.53-1.75,0.42c0.57-0.13,1.11-0.35,1.41-0.74c0.14-0.19,0.23-0.4,0.19-0.6c-0.02-0.1-0.05-0.19-0.11-0.27
				c-0.02-0.05-0.07-0.08-0.1-0.13l-0.08-0.09l-0.09-0.11c-0.2-0.31-0.27-0.62-0.32-0.93c-0.04-0.31-0.05-0.61-0.04-0.9
				C328.02,190.54,328.12,189.96,328.32,189.41z"/>
			<path class="st8" d="M324.95,190.33c0,0.49-0.4,0.89-0.9,0.89c-0.49,0-0.89-0.4-0.89-0.9c0-0.49,0.4-0.89,0.9-0.89
				C324.55,189.43,324.95,189.83,324.95,190.33z"/>
			<path class="st8" d="M332.64,190.86c0,0.49-0.4,0.89-0.9,0.89c-0.49,0-0.89-0.4-0.89-0.9c0-0.49,0.4-0.89,0.9-0.89
				C332.24,189.96,332.64,190.37,332.64,190.86z"/>
			<path class="st6" d="M325.98,188.26c-0.46-0.12-0.9-0.21-1.32-0.26c-0.43-0.05-0.84-0.04-1.24,0.03c-0.4,0.07-0.8,0.18-1.18,0.37
				c-0.2,0.07-0.38,0.2-0.58,0.3c-0.2,0.11-0.38,0.24-0.6,0.35c0.1-0.21,0.23-0.42,0.37-0.61c0.16-0.18,0.31-0.37,0.52-0.51
				c0.38-0.32,0.87-0.51,1.36-0.59c0.5-0.08,1.02-0.03,1.48,0.13C325.25,187.63,325.67,187.89,325.98,188.26z"/>
			<path class="st6" d="M329.95,188.53c0.35-0.34,0.8-0.55,1.28-0.66c0.48-0.11,1-0.11,1.48,0.03c0.48,0.14,0.95,0.38,1.29,0.74
				c0.19,0.16,0.32,0.37,0.46,0.56c0.12,0.21,0.22,0.43,0.3,0.65c-0.21-0.13-0.37-0.29-0.56-0.42c-0.19-0.12-0.35-0.27-0.55-0.36
				c-0.36-0.23-0.75-0.38-1.14-0.49c-0.39-0.11-0.81-0.16-1.23-0.16C330.86,188.42,330.42,188.46,329.95,188.53z"/>
			<path class="st6" d="M315.9,189.39c-0.59-0.51-1.04-0.47-1.04-0.47l0.25-3.13l0.96-1.89c0,0,3.78-5.09,3.92-5.21
				c0.13-0.13,3.03-1.78,3.21-1.86c0.18-0.08,4.25,0.51,4.25,0.51s7.15-1.49,5.96,2.25c-1.19,3.75-6.41,5.73-6.68,5.57
				c0.85-0.84,0.92-3.23,0.92-3.23C323.97,185.97,316.99,188.95,315.9,189.39z"/>
			<path class="st2" d="M330.57,196.2c-0.2,1.12-1.24,2-2.52,2.03c-1.28,0.03-2.36-0.78-2.62-1.89L330.57,196.2z"/>
		</g>
		<path class="st3" d="M317.96,207.82l13.48-0.04l1.71,7.97l-7.4,19.35c0,0-7.4-7.97-7.4-9.1c0-1.14-3.41-9.67-2.85-10.81
			C316.08,214.05,317.96,207.82,317.96,207.82z"/>
		<path class="st9" d="M342.49,262.88c-5.71,8.59-17.11,20.97-17.11,20.97l0,0l5.26,83.19c0,0,7.61,0.82,10.23-1.2
			C340.87,365.84,342.87,286.97,342.49,262.88z"/>
		<path class="st10" d="M340.33,266.07c-0.02-1.22,2.2,2.37,2.16,1.4c-0.87-20.21-28.57-3.26-28.57-3.26l-5.82-1.22l-10.69,103.72
			c0,0,6.95,1.53,10.93,0l17.03-81.84C325.38,284.86,331.48,282.25,340.33,266.07z"/>
		<path class="st3" d="M305.02,280.68c-0.15-0.18-0.44-0.11-0.51,0.11c-0.48,1.75-2.04,7.25-2.51,7.22
			c-0.56-0.03,0.71-4.97,0.27-5.26c-0.43-0.29-1.55,4.56-2.15,4.44c-0.6-0.12,0.57-4.52,0.34-4.66c-0.23-0.14-1.8,3.95-2.2,4.09
			c-0.4,0.14,0.75-4.43,0.51-4.68c-0.23-0.25-2.07,2.64-2.34,2.51c-0.27-0.13-0.47-0.17,1.81-7.86l1.02-2.99l2.15-1.99l3.18,1.51
			c0,0,3.62,9.67,3.37,10.01C307.75,283.46,307.4,283.39,305.02,280.68z"/>
		<path class="st5" d="M319.15,209.08c0,0,6.73,4.07,12.06,0c0,0,3.03,8.01,2.75,8.3c-0.29,0.29-3.45,8.92-3.45,9.21
			c0,0.29-3.74,3.74-5.47,1.15c-1.73-2.59-2.88-2.3-5.18-7.77c-2.3-5.47-4.03-7.19-3.45-7.77
			C316.99,211.62,319.15,209.08,319.15,209.08z"/>
		<g>
			<path class="st11" d="M318.35,207.79c0,0-13.66,1.14-16.5,5.69c-2.85,4.55-9.67,30.73-9.1,38.7c0.57,7.97,5.69,23.33,5.69,23.33
				s4.55,0.57,6.26-2.28c0,0-3.41-21.62-2.85-23.33c0.57-1.71,6.83-19.35,6.83-19.35l-1.14,34.71c0,0,13.66,8.54,35.28,1.71
				c0,0,2.85-56.34-4.55-58.04l-6.83-1.14l-2.85,16.5L318.35,207.79z"/>
		</g>
	</g>
	<g>
		<polygon class="st3" points="417.87,199.64 417.84,201.39 417.65,205.73 426.2,204.61 427.14,203.34 427.21,200.03 427.49,196.94 
			421.8,196.94 		"/>
		<path class="st6" d="M430.98,177.16c0,0,3.24-2.34,7.15-0.32c3.9,2.02,4.24,9.42,2.82,11.25c-1.42,1.84,0.27,4.16-2.63,6.61
			c-2.89,2.45-7.63,3.51-10.47,0.93c-2.85-2.58-1.12-8.69-1.12-8.69L430.98,177.16z"/>
		<path class="st7" d="M412.68,186.88c0.54,1.28,0.14,2.67-0.88,3.1c-1.02,0.43-2.29-0.26-2.82-1.54c-0.54-1.28-0.14-2.67,0.88-3.1
			C410.88,184.91,412.15,185.6,412.68,186.88z"/>
		<path class="st7" d="M427.59,196.16c0,0-0.23,1.75-0.37,3.88c-1.91,1.55-4.39,2.34-6.96,2.01c-0.85-0.11-1.65-0.34-2.4-0.66
			c0.06-1.38,0.04-2.67-0.17-3.28C417.08,196.41,427.59,196.16,427.59,196.16z"/>
		<path class="st3" d="M413.13,194.4c-0.33-0.55-0.6-1.14-0.82-1.75c-0.63-1.65-0.96-3.4-1.13-4.93c-0.04-0.33-0.09-0.65-0.15-0.98
			c-0.24-1.31-0.25-2.7,0.04-4.14c0.94-4.62,4.87-8.13,9.56-8.53c6.31-0.54,11.59,4.4,11.66,10.58c0.67-0.38,1.42-0.47,2.08-0.19
			c1.28,0.56,1.75,2.3,1.06,3.9c-0.69,1.6-2.29,2.45-3.57,1.89c-0.18-0.08-0.34-0.18-0.48-0.3c-0.48,5.26-4.73,9.37-9.89,9.34
			c-2.52-0.01-4.82-1.02-6.55-2.65c-0.12-0.1-0.24-0.21-0.37-0.34C414,195.75,413.53,195.1,413.13,194.4z"/>
		<path class="st8" d="M422.43,186.58c0,0.56,0.45,1.01,1,1.01c0.56,0,1.01-0.45,1.01-1c0-0.56-0.45-1.01-1-1.01
			C422.88,185.57,422.43,186.02,422.43,186.58z"/>
		<path class="st8" d="M414.17,186.95c0,0.56,0.45,1.01,1,1.01c0.56,0,1.01-0.45,1.01-1c0-0.56-0.45-1.01-1-1.01
			C414.63,185.95,414.17,186.4,414.17,186.95z"/>
		<g>
			<g>
				<path class="st7" d="M419.27,184.8c0.02,0.32,0.04,0.65,0.04,0.97c0.01,0.32,0,0.65-0.02,0.97c-0.02,0.32-0.05,0.64-0.11,0.96
					c-0.06,0.31-0.15,0.62-0.32,0.87c-0.02,0.03-0.04,0.06-0.07,0.09c-0.03,0.03-0.05,0.05-0.08,0.09c-0.03,0.03-0.06,0.06-0.08,0.1
					c-0.03,0.03-0.05,0.07-0.08,0.11c-0.1,0.15-0.16,0.32-0.18,0.49c-0.04,0.36,0.12,0.7,0.36,0.94c0.24,0.25,0.54,0.41,0.85,0.51
					c0.32,0.09,0.65,0.13,0.97,0.11c-0.16-0.01-0.32-0.03-0.48-0.06c-0.16-0.03-0.31-0.08-0.46-0.13c-0.3-0.11-0.57-0.28-0.78-0.52
					c-0.2-0.23-0.33-0.53-0.29-0.83c0.02-0.15,0.07-0.29,0.15-0.41c0.02-0.03,0.04-0.06,0.07-0.09c0.02-0.03,0.05-0.06,0.08-0.09
					l0.09-0.09c0.03-0.03,0.05-0.07,0.08-0.1c0.1-0.14,0.17-0.3,0.22-0.46c0.05-0.16,0.09-0.32,0.12-0.48
					c0.06-0.33,0.08-0.65,0.08-0.98C419.44,186.09,419.38,185.44,419.27,184.8z"/>
			</g>
		</g>
		<g>
			<g>
				<path class="st6" d="M421.5,184.94c0.45-0.26,0.91-0.47,1.39-0.61c0.48-0.14,0.97-0.2,1.46-0.18c0.24,0.01,0.49,0.05,0.73,0.1
					c0.12,0.02,0.24,0.06,0.36,0.1c0.06,0.02,0.12,0.04,0.17,0.06c0.06,0.02,0.12,0.04,0.17,0.07c0.46,0.19,0.9,0.46,1.32,0.75
					c-0.33-0.4-0.74-0.75-1.2-1.01c-0.23-0.13-0.48-0.23-0.74-0.31c-0.26-0.07-0.53-0.12-0.79-0.13c-0.54-0.03-1.08,0.07-1.57,0.27
					c-0.25,0.1-0.48,0.23-0.7,0.37C421.89,184.58,421.68,184.74,421.5,184.94z"/>
			</g>
		</g>
		<g>
			<g>
				<path class="st6" d="M417.45,185.12c-0.19-0.18-0.41-0.32-0.64-0.45c-0.23-0.12-0.48-0.23-0.73-0.3
					c-0.51-0.16-1.06-0.21-1.59-0.13c-0.27,0.04-0.53,0.11-0.78,0.2c-0.25,0.1-0.49,0.22-0.71,0.37c-0.44,0.3-0.82,0.68-1.11,1.11
					c0.4-0.33,0.81-0.63,1.25-0.87c0.05-0.03,0.11-0.06,0.17-0.08c0.06-0.03,0.11-0.06,0.17-0.08c0.12-0.05,0.23-0.1,0.35-0.13
					c0.23-0.08,0.47-0.14,0.71-0.17c0.48-0.07,0.98-0.05,1.47,0.05C416.5,184.74,416.98,184.9,417.45,185.12z"/>
			</g>
		</g>
		<path class="st6" d="M411.2,177.08c1.67-6.91,10.7-7.56,10.7-7.56c14.02,0.34,12.38,12.72,12.01,14.78
			c-0.41-0.08-0.96-0.04-1.63,0.36c-0.28,0.17-0.5,0.34-0.68,0.51c-1.67-0.43-2.29-3.15-3.2-4.43c-1.24-1.74-6.29-0.58-8.28-1.77
			c-1.99-1.18-2.28-3.14-2.28-3.14c-7.4,1.52-6.93,9.41-6.93,9.41c-0.33-0.06-0.72,0-0.72,0S409.71,183.25,411.2,177.08z"/>
		<path class="st2" d="M416.86,192.36c0.3,1.04,1.56,1.78,3.03,1.73c1.47-0.05,2.68-0.88,2.91-1.94L416.86,192.36z"/>
		<path class="st3" d="M379.05,231.63l-9.34-4.33l1.98-4.87c0,0,4.46,1.54,9.03,3.06L379.05,231.63z"/>
		<path class="st3" d="M399.97,369.04l8.05-5.03l7,4.19l-2.43,1.75l-8.45,1.24c0,0-3.3-0.41-3.45-0.51
			C400.54,370.58,399.97,369.04,399.97,369.04z"/>
		<path class="st3" d="M419.39,296.06c0,0-1.15,27.88-1.26,32.69c-0.11,4.81-2.56,40.54-3.63,43.64l-5.98-0.43
			c0,0-4.08-69.16-2.8-75.9C407.01,289.32,419.39,296.06,419.39,296.06z"/>
		<path class="st11" d="M399.97,369.04l-2.04,1.33c-0.95,0.6-0.52,2.07,0.6,2.07h15.5c0.55,0,0.99-0.44,0.99-0.99v-3.25
			C404.69,371.49,401.13,370.49,399.97,369.04z"/>
		<path class="st3" d="M437.95,369.29l7.28-6.1l7.51,3.18l-2.16,2.07l-8.2,2.39c0,0-3.33,0.05-3.49-0.02
			S437.95,369.29,437.95,369.29z"/>
		<path class="st3" d="M447.09,294.31c0,0,2.72,27.77,3.28,32.55c0.56,4.78,3.07,40.5,2.45,43.72l-5.98,0.4
			c0,0-13.61-67.93-13.28-74.78S447.09,294.31,447.09,294.31z"/>
		<path class="st6" d="M437.95,369.29l-1.84,1.6c-0.85,0.73-0.23,2.12,0.88,1.97l15.35-2.15c0.54-0.08,0.92-0.58,0.84-1.12
			l-0.45-3.22C442.98,371.06,439.31,370.56,437.95,369.29z"/>
		<path class="st3" d="M444.65,254.07l6.05-6.69l-4.38-4.56l-7.4,9.58c0,0,4.31,11.59,4.57,12.1c0.26,0.51,1.13,0,1.13,0
			c-0.26-1.98-0.14-7.57-0.06-10.41C444.62,254.08,444.65,254.07,444.65,254.07z"/>
		<path class="st11" d="M409.95,245.79c0,0-7.99,8.94-8.67,37.61c-0.68,28.67,0.82,39,0.82,39s21.92,5.34,52.45-4.76
			c0,0-7.52-54.22-18.57-72.7C435.98,244.95,423.1,237.26,409.95,245.79z"/>
		<path class="st3" d="M373,223.51c-0.04-0.45-1.23-1.03-1.23-1.03c-1.02-0.43-3.08-0.95-4.95-0.88c-0.59,0.02-0.98,0.61-0.77,1.16
			l0,0l1.05,0.05c-0.03,0.03-0.07,0.06-0.12,0.07c-0.29,0.06-0.69,0.15-1.16,0.26l0.44,4.73c0.92-0.2,2.13,0.71,3.89,0.28l2.34-0.67
			c-0.17-0.28-0.32-0.57-0.45-0.88c-0.18-0.47-0.33-0.96-0.44-1.46C371.49,224.64,373.04,224.01,373,223.51z"/>
		<g>
			<path class="st12" d="M363.54,228.91l1.25-0.3c0.63-0.15,1.22-0.45,1.74-0.88l0.29-0.24c0.64-0.53,1.08-1.35,1.21-2.26l0.07-0.47
				c0.07-0.48-0.01-0.97-0.24-1.38l0,0c-0.27-0.49-0.72-0.81-1.21-0.86l-1.42-0.14L363.54,228.91z M364.25,227.79l1.16-4.44
				l0.97,0.09c0.33,0.03,0.64,0.25,0.82,0.58l0,0c0.15,0.28,0.21,0.61,0.16,0.94l-0.05,0.32c-0.09,0.62-0.39,1.18-0.83,1.54
				l-0.19,0.16c-0.36,0.3-0.76,0.5-1.19,0.6L364.25,227.79z"/>
			<path class="st12" d="M352.5,221.29l0.07-0.01l6.41,0.19l6.48-0.19l0.01,0.01c0,0,0.02,0.01,0.02,0.05
				c0,0.67-0.29,7.19-2.99,9.94c0,0-1.85,0.28-3.52,0.25c-1.67,0.04-3.78-0.56-3.78-0.56c-2.69-2.74-2.74-8.9-2.73-9.61
				C352.46,221.3,352.5,221.29,352.5,221.29z"/>
			<path class="st13" d="M352.46,221.34c0-0.04,0.03-0.05,0.03-0.05l0.07-0.01l6.41,0.19l0.39-0.01c-1.37,0.85-2.64,2.1-2.71,3.83
				c-0.11,2.81,1.53,5.55,3.92,6.12c-0.53,0.07-1.08,0.12-1.6,0.11c-1.67,0.04-3.78-0.56-3.78-0.56
				C352.51,228.22,352.46,222.05,352.46,221.34z"/>
			<path class="st12" d="M352.46,221.34c0,0.96,2.92,1.74,6.52,1.74c3.59,0,6.5-0.78,6.5-1.74c0-0.96-2.91-1.74-6.5-1.74
				C355.39,219.6,352.46,220.38,352.46,221.34z"/>
			<path class="st14" d="M364.68,222.17l-2.01,0.54l-1.59,0.24l-2.17,0.05l-2.12-0.11l-1.37-0.17l-1.21-0.28l-0.85-0.36
				c0,0-0.22-0.2-0.38-0.34c0.93-0.66,3.31-1.13,6.1-1.13c2.83,0,5.23,0.48,6.13,1.16L364.68,222.17z"/>
			<path class="st15" d="M353.77,221.53c0.01-0.04,0.04-0.07,0.07-0.07c1.76-0.48,3.46-0.65,4.99-0.65v0c0,0,0.01,0,0.01,0
				c0,0,0.01,0,0.01,0v0c1.53,0,3.23,0.17,4.99,0.65c0.03,0.01,0.06,0.03,0.07,0.07c0.03,0.07,0.02,0.19-0.23,0.32
				c-0.66,0.23-1.34,0.27-2.01,0.11c-0.7-0.16-1.67-0.32-2.84-0.35c-1.17,0.03-2.14,0.19-2.84,0.35c-0.67,0.15-1.35,0.11-2.01-0.11
				C353.76,221.72,353.75,221.6,353.77,221.53z"/>
			<path class="st2" d="M364.42,221.4c-0.22-0.09-0.45-0.17-0.67-0.23c-0.23-0.07-0.46-0.12-0.69-0.18
				c-0.23-0.05-0.46-0.1-0.69-0.14c-0.12-0.02-0.23-0.04-0.35-0.06c-0.12-0.02-0.23-0.03-0.35-0.05c-0.47-0.06-0.93-0.1-1.4-0.13
				c-0.47-0.03-0.94-0.04-1.4-0.04c-0.94,0-1.87,0.06-2.8,0.19c-0.46,0.07-0.93,0.15-1.39,0.27c-0.23,0.06-0.46,0.12-0.68,0.19
				c-0.23,0.07-0.45,0.15-0.67,0.26c0.05-0.03,0.11-0.05,0.17-0.07c0.06-0.02,0.11-0.04,0.17-0.06c0.11-0.04,0.22-0.08,0.34-0.11
				c0.23-0.07,0.45-0.13,0.68-0.18c0.46-0.11,0.92-0.19,1.39-0.25c0.46-0.06,0.93-0.11,1.4-0.14c0.47-0.03,0.93-0.04,1.4-0.04
				c0.94,0,1.87,0.04,2.8,0.15c0.12,0.01,0.23,0.03,0.35,0.04c0.12,0.02,0.23,0.03,0.35,0.05c0.23,0.04,0.46,0.08,0.69,0.13
				c0.23,0.05,0.46,0.1,0.69,0.16c0.11,0.03,0.23,0.06,0.34,0.1C364.19,221.31,364.31,221.35,364.42,221.4z"/>
			<path class="st16" d="M352.46,221.34c0,0.96,2.92,1.74,6.52,1.74c3.59,0,6.5-0.78,6.5-1.74c0-0.96-2.91-1.74-6.5-1.74
				C355.39,219.6,352.46,220.38,352.46,221.34z M352.74,221.34c0-0.89,2.8-1.61,6.25-1.61c3.44,0,6.23,0.72,6.23,1.61
				c0,0.89-2.79,1.61-6.23,1.61C355.54,222.96,352.74,222.24,352.74,221.34z"/>
		</g>
		<path class="st17" d="M368.54,223.55c0,0.38-0.72,0.69-1.6,0.69c-0.88,0-1.6-0.31-1.6-0.69c0-0.38,0.72-0.69,1.6-0.69
			C367.83,222.86,368.54,223.16,368.54,223.55z"/>
		<path class="st17" d="M368.42,224.64c0,0.38-0.72,0.69-1.6,0.69c-0.88,0-1.6-0.31-1.6-0.69c0-0.38,0.72-0.69,1.6-0.69
			C367.7,223.95,368.42,224.25,368.42,224.64z"/>
		<path class="st17" d="M368.3,225.84c0,0.38-0.72,0.69-1.6,0.69c-0.88,0-1.6-0.31-1.6-0.69c0-0.38,0.72-0.69,1.6-0.69
			C367.58,225.15,368.3,225.46,368.3,225.84z"/>
		<path class="st17" d="M368.22,227.05c0,0.38-0.72,0.69-1.6,0.69c-0.88,0-1.6-0.31-1.6-0.69c0-0.38,0.72-0.69,1.6-0.69
			C367.51,226.36,368.22,226.67,368.22,227.05z"/>
		<path class="st12" d="M462.43,228.95c-2.11-7.13-18.36-25.73-24.04-26.69c-5.68-0.97-10.45,0.79-10.45,0.79s-5.8,3.68-10.81,1.09
			c0,0-1.34-0.22-3.29,0.09l0,0c0,0-10.67,9.37-5.59,20.99c0,0,1.57,11.59,1.69,20.59c0,0,2.23,4.77,13.41,4.47
			c11.17-0.3,12.62-5.31,12.62-5.31s1.33-21.98,3.2-25.55c0,0,11.9,9.54,12.14,10.63c0.24,1.09-6.22,13.04-8.39,15.7
			c0,0,1.51,3.35,6.64,4.54C449.56,250.28,464.54,236.07,462.43,228.95z"/>
		<path class="st18" d="M413.85,204.21L413.85,204.21c-2.9,0.46-7.15,2.12-10.36,7.46c-5.37,8.94-10.93,14.61-10.93,14.61
			l-12.98-1.45c0,0-1.57,4.95-0.79,7.19c0,0,9.48,5.68,14.98,3.86c5.5-1.81,14.49-10.69,14.49-10.69
			C403.18,213.58,413.85,204.21,413.85,204.21z"/>
	</g>
	<g>
		<polygon class="st2" points="528.72,307.05 533.42,374.1 531.07,374.1 523.64,307.77 		"/>
		<polygon class="st2" points="479.45,307.05 474.75,374.1 477.1,374.1 484.53,307.77 		"/>
		<g>
			<path class="st19" d="M549.2,238.26c0,0-37.5-1.11-39.93-0.94c-2.43,0.17-4.67,7.98-4.67,7.98s-10.95,40.64-10.74,41.76
				c0.22,1.12-10.22,27.31-10.22,27.31s9-0.24,9.4,0c0.4,0.24,34.82-2.95,35.3-3.27c0.48-0.32,2.23-6.31,2.31-6.63
				c0.08-0.32,2.71-23.64,2.71-23.64l1.35-12.86c0,0,5.18-11.03,5.26-11.06c0.08-0.03,4.86-9.7,5.18-10.18
				c0.32-0.48,5.26-5.83,5.42-6.31C550.73,239.95,549.2,238.26,549.2,238.26z"/>
			<path class="st20" d="M549.2,238.26c0,0-12.93-0.38-24.1-0.66c4.34,2.55,6.77,9.7,4.97,22.4c-1.54,10.8-3.24,22.52-10.04,36.57
				c-3.5,7.24-18.58,3.18-30.94,3.9c-2.66,6.91-5.45,13.9-5.45,13.9s9-0.24,9.4,0c0.4,0.24,34.82-2.95,35.3-3.27
				c0.48-0.32,2.23-6.31,2.31-6.63c0.08-0.32,2.71-23.64,2.71-23.64l1.35-12.86c0,0,5.18-11.03,5.26-11.06
				c0.08-0.03,4.86-9.7,5.18-10.18c0.32-0.48,5.26-5.83,5.42-6.31C550.73,239.95,549.2,238.26,549.2,238.26z"/>
			<g>
				<path class="st21" d="M476.79,315.8L476.79,315.8c-0.08-1.28,0.89-2.39,2.17-2.48c4.01-0.27,12.67-0.89,21.59-1.74
					c17.09-1.62,23.26-2.95,25.48-3.64c0.76-0.24,1.35-0.86,1.54-1.64c0.6-2.39,0.95-7.35,1.25-11.49
					c1.12-15.74,2.96-41.68,19.12-55.93c1.01-0.89,2.56-0.73,3.38,0.34l0,0c0.75,0.97,0.62,2.36-0.3,3.17
					c-14.73,12.93-16.42,36.78-17.55,52.76c-0.65,9.11-1.04,13.58-3.03,15.65c-0.96,1-2.74,2.87-28.72,5.37
					c-9.22,0.89-18.29,1.54-22.43,1.82C477.98,318.07,476.87,317.09,476.79,315.8z M527.17,307.48L527.17,307.48L527.17,307.48z"/>
			</g>
		</g>
	</g>
	<g>
		<polygon class="st2" points="206.66,307.05 201.97,374.1 204.31,374.1 211.74,307.77 		"/>
		<polygon class="st2" points="255.94,307.05 260.63,374.1 258.28,374.1 250.85,307.77 		"/>
		<g>
			<path class="st19" d="M186.18,238.26c0,0,37.5-1.11,39.93-0.94c2.43,0.17,4.67,7.98,4.67,7.98s10.95,40.64,10.74,41.76
				c-0.22,1.12,10.22,27.31,10.22,27.31s-9-0.24-9.4,0c-0.4,0.24-34.82-2.95-35.3-3.27c-0.48-0.32-2.23-6.31-2.31-6.63
				c-0.08-0.32-2.71-23.64-2.71-23.64l-1.35-12.86c0,0-5.18-11.03-5.26-11.06c-0.08-0.03-4.86-9.7-5.18-10.18
				c-0.32-0.48-5.26-5.83-5.42-6.31C184.65,239.95,186.18,238.26,186.18,238.26z"/>
			<path class="st20" d="M186.18,238.26c0,0,12.93-0.38,24.1-0.66c-4.34,2.55-6.77,9.7-4.97,22.4c1.53,10.8,3.24,22.52,10.04,36.57
				c3.5,7.24,18.58,3.18,30.94,3.9c2.66,6.91,5.45,13.9,5.45,13.9s-9-0.24-9.4,0c-0.4,0.24-34.82-2.95-35.3-3.27
				c-0.48-0.32-2.23-6.31-2.31-6.63c-0.08-0.32-2.71-23.64-2.71-23.64l-1.35-12.86c0,0-5.18-11.03-5.26-11.06
				c-0.08-0.03-4.86-9.7-5.18-10.18c-0.32-0.48-5.26-5.83-5.42-6.31C184.65,239.95,186.18,238.26,186.18,238.26z"/>
			<g>
				<path class="st21" d="M256.11,317.99c-4.14-0.28-13.22-0.93-22.43-1.82c-25.98-2.5-27.76-4.36-28.72-5.37
					c-1.99-2.08-2.39-6.55-3.03-15.65c-1.13-15.97-2.82-39.82-17.55-52.76c-0.92-0.81-1.05-2.2-0.3-3.17l0,0
					c0.82-1.07,2.37-1.23,3.38-0.34c16.17,14.25,18.01,40.19,19.12,55.93c0.29,4.15,0.65,9.1,1.25,11.49
					c0.2,0.78,0.78,1.4,1.54,1.64c2.21,0.69,8.39,2.02,25.47,3.64c8.91,0.85,17.58,1.47,21.59,1.74c1.28,0.09,2.25,1.19,2.17,2.47v0
					C258.51,317.09,257.4,318.07,256.11,317.99z M208.22,307.48L208.22,307.48L208.22,307.48z"/>
			</g>
		</g>
	</g>
	<g>
		<path class="st22" d="M580.08,322.72c-0.28-2.49-0.62-5.04-1.78-7.27c-1.41-2.71-3.89-4.66-6.05-6.81
			c-4.04-4.02-7.16-8.97-9.02-14.35c-1.44-4.16-2.16-8.6-4.15-12.53c-1.22-2.4-2.87-4.55-4.25-6.86c-2.62-4.39-4.29-9.43-7.14-13.61
			c-0.78-1.14-2.58-0.54-2.52,0.84c0.19,4.35,1.84,8.65,4.68,11.96c1.09,1.27,2.35,2.41,3.18,3.86c1.51,2.63,1.37,5.85,1.55,8.88
			c0.33,5.69,1.94,11.31,4.67,16.32c2.9,5.32,7.09,10.06,8.64,15.91c1.16,4.39,0.82,9.31,3.3,13.12c0.27,0.41,0.58,0.83,0.64,1.31
			c0.04,0.27-0.01,0.55-0.05,0.82c-0.06,0.35-0.11,0.71-0.17,1.06c-0.56,3.59-1.15,8.16,1.95,10.85c2.14,1.86,4.9,1.91,6.44-0.57
			c1.55-2.49,1.41-6.14,1.3-8.94C581.11,332.05,580.61,327.36,580.08,322.72z"/>
		<path class="st23" d="M585.66,319.83c-1.2-4.16-3.07-8.12-4.01-12.35c-0.91-4.1-0.91-8.34-0.92-12.54c0-4.6-0.01-9.2-0.01-13.8
			c0-2.86-0.01-5.74-0.48-8.57c-1.02-6.08-4.19-11.7-4.72-17.84c-0.23-2.66,0.04-5.34-0.26-7.99c-0.17-1.51-0.56-3.06-1.26-4.4
			c-0.75-1.44-2.84-1.38-3.52,0.1c-1.54,3.32-2.51,6.92-1.89,10.48c0.37,2.14,1.3,4.13,1.99,6.18c3.08,9.15,1.45,19.29,3.83,28.65
			c0.72,2.83,1.81,5.6,1.94,8.51c0.3,6.97-4.91,13.34-4.44,20.3c0.39,5.71,4.5,10.43,6.23,15.89c0.97,3.05,1.17,6.31,2.21,9.34
			c0.8,2.35,2.67,5.21,5.58,4.5c2.76-0.68,1.92-2.92,1.8-5.07C587.32,333.96,587.71,326.92,585.66,319.83z"/>
		<path class="st22" d="M591.97,323.64c-0.12-2.16-0.49-4.33-0.18-6.48c0.26-1.81,0.98-3.52,1.49-5.27
			c0.97-3.29,1.21-6.73,1.44-10.15c0.43-6.21,0.85-12.42,1.28-18.63c0.66-9.66,1.33-19.34,3.13-28.84c0.5-2.64,1.07-5.5-0.12-7.91
			c-0.25-0.51-0.74-1.05-1.28-0.88c-0.39,0.12-0.57,0.54-0.71,0.92c-3.95,10.72-5.45,22.27-9.86,32.81
			c-1.06,2.53-2.29,5.01-2.83,7.69c-0.66,3.22-0.3,6.55-0.21,9.84c0.12,4.71-0.34,9.46-1.64,13.99c-0.68,2.37-1.6,4.69-1.97,7.13
			c-0.47,3.04-0.07,6.14,0.22,9.2c0.56,5.89,0.75,11.81,0.57,17.72c-0.11,3.48,2.83,3.38,4.78,1.25c1.36-1.49,1.35-3.13,1.82-4.99
			C589.4,334.94,592.34,330.26,591.97,323.64z"/>
		<path class="st23" d="M573.6,333.06c-2.6-4.17-7.78-6.54-9.44-11.16c-0.42-1.18-0.59-2.44-1.1-3.58
			c-1.15-2.53-3.76-3.96-6.32-5.12c-0.36-0.16-0.76,0.1-0.77,0.49l0,0c-0.01,0.62,0.29,1.21,0.8,1.56c1.98,1.33,3.48,3.36,4.14,5.64
			c0.79,2.71,0.45,5.68,1.43,8.32c0.83,2.22,2.53,4.04,3.33,6.27c0.73,2.04,0.65,4.27,1,6.41c0.34,2.14,1.3,4.41,3.26,5.31
			C577.06,350.48,575.28,335.76,573.6,333.06z"/>
		<path class="st22" d="M603.22,331.69c-0.11,2.02,0.2,4.13-0.59,5.98c-0.51,1.19-1.41,2.15-2.16,3.2c-2.62,3.7-3.57,8.94-7.6,11.02
			c-0.27,0.14-0.56,0.26-0.86,0.21c-0.41-0.08-0.68-0.47-0.85-0.86c-0.99-2.3,0.12-4.88,0.78-7.29c0.11-0.42,0.21-0.89,0.01-1.28
			c-0.22-0.43-0.73-0.61-1.07-0.95c-0.69-0.67-0.62-1.77-0.49-2.72c0.34-2.37,0.82-4.72,1.44-7.04c0.35-1.31,0.75-2.64,1.51-3.77
			c0.83-1.24,2.05-2.17,3.18-3.14c5.02-4.31,8.86-9.96,11.01-16.21c0.47-1.35,0.88-2.78,1.84-3.84c0.96-1.06,2.68-1.61,3.85-0.78
			c0.83,0.59-2.58,6.06-2.98,6.72c-1.14,1.88-1.15,3.51-1.79,5.6C606.86,321.64,603.52,326.21,603.22,331.69z"/>
		<path class="st23" d="M599.25,334.02c0.74-1.92,1.5-3.87,1.74-5.92c0.27-2.28-0.09-4.6,0.3-6.86c0.5-2.9,2.2-5.46,3.04-8.28
			c0.61-2.04,0.76-4.18,1.12-6.28c1.04-5.99,3.87-11.85,3.06-17.88c-0.18-1.31-0.77-2.84-2.07-3.06c-1.18-0.2-2.26,0.88-2.56,2.03
			c-0.31,1.16-0.08,2.38,0.01,3.57c0.24,3.33-0.72,6.74-2.65,9.46c-1.86,2.62-4.55,4.59-6.22,7.33c-2.05,3.36-2.33,7.47-3.37,11.27
			c-2.08,7.55-7.29,14.14-8.24,21.91c-0.38,3.09,0.35,6.85,3.21,8.09C594.88,352.97,597.37,338.85,599.25,334.02z"/>
		<path class="st2" d="M584.79,339.7h-1.32H565.8c-1.3,0-2.26,1.21-1.96,2.47l6.92,29.12c0.22,0.91,1.02,1.55,1.96,1.55h10.74h1.32
			h10.74c0.93,0,1.74-0.64,1.96-1.55l6.92-29.12c0.3-1.26-0.66-2.47-1.96-2.47H584.79z"/>
		<path class="st24" d="M567.45,339.7h-1.65c-1.3,0-2.26,1.21-1.96,2.47l6.92,29.12c0.22,0.91,1.02,1.55,1.96,1.55h10.74h1.32h10.74
			c0.93,0,1.74-0.64,1.96-1.55l0.26-1.08C584.78,362.97,572.14,352.87,567.45,339.7z"/>
	</g>
	<path class="st25" d="M489.47,14.59v26.63c-1.79,0.28-3.23,2.66-3.32,5.6c-5.69,2.49-9.95,10.82-10.06,20.77l26.91,0.32
		c0.12-9.95-3.93-18.38-9.57-21c-0.01-0.9-0.14-1.76-0.38-2.52c-0.55-1.58-1.55-2.54-1.55-2.54c-0.16-0.14-0.33-0.25-0.51-0.35
		V15.32C490.49,15.07,489.98,14.83,489.47,14.59z"/>
	<path class="st25" d="M270,44.23v47.84c-1.57,0.58-2.78,2.79-2.87,5.48c-5.69,2.49-9.95,10.82-10.07,20.77l26.91,0.32
		c0.12-9.95-3.93-18.38-9.57-21c-0.01-0.9-0.14-1.76-0.38-2.52c-0.55-1.58-1.55-2.54-1.55-2.54c-0.3-0.25-0.62-0.44-0.96-0.55V43.78
		C271.02,43.93,270.51,44.09,270,44.23z"/>
	<path class="st25" d="M351.58,53.05c-0.01-0.9-0.15-1.76-0.38-2.52c-0.55-1.58-1.55-2.54-1.55-2.54c-0.37-0.31-0.77-0.52-1.2-0.61
		v-33.5c-0.51,0.21-1.02,0.42-1.52,0.64v33.06c-1.46,0.7-2.55,2.83-2.63,5.38c-5.69,2.49-9.95,10.82-10.07,20.77l26.91,0.32
		C361.26,64.11,357.21,55.68,351.58,53.05z"/>
	<path class="st25" d="M444.96,109.81c0.12-9.95-3.93-18.38-9.57-21c-0.01-0.9-0.14-1.76-0.38-2.52c-0.55-1.58-1.55-2.54-1.55-2.54
		c-0.37-0.31-0.77-0.52-1.2-0.61V0.36c-0.51-0.03-1.01-0.06-1.52-0.09v83.06c-1.46,0.7-2.55,2.83-2.63,5.38
		c-5.69,2.49-9.95,10.82-10.06,20.77L444.96,109.81z"/>
	<g>
		<path class="st3" d="M493.15,223.88v9.31c0,0.52-0.26,0.99-0.67,1.21c-1.25,0.67-4.03,1.76-6.63,0.02
			c-0.35-0.24-0.56-0.68-0.56-1.14v-8.41L493.15,223.88z"/>
		<path class="st7" d="M493.15,230.15v-4.37l-7.85,0.86v3.71C486.77,230.8,489.51,231.24,493.15,230.15z"/>
		<path class="st3" d="M482.74,232.86c0.28,0.19,12.52,0,12.52,0s1.35,1.34,1.12,1.56c-0.22,0.22-4.89,3.43-4.89,3.43l-6.2-0.84
			L482.74,232.86z"/>
		<path class="st3" d="M447.44,237.66c0,0-4.84,31.5,2.07,37.95c6.91,6.45,19.94-10.69,19.94-10.69l2.78-11.2l-12.17,3.81l-4.4,5.42
			l-2.28-29.22L447.44,237.66z"/>
		<g>
			<path class="st26" d="M451.99,227.38l0.06,0.06l3.58,3.11c0.39,0.34,0.41,0.94,0.05,1.3l-7.98,8.04
				c-0.27,0.27-0.67,0.34-1.01,0.18c-0.78-0.37-2.23-1.14-3.63-2.35c-1.4-1.21-2.36-2.54-2.83-3.27c-0.21-0.32-0.19-0.73,0.04-1.03
				l6.85-9.02c0.31-0.41,0.91-0.47,1.29-0.13L451.99,227.38z"/>
			<path class="st8" d="M448.53,222.37c0.39-0.26,0.83-0.28,1.09-0.05l3.85,3.35l0.06,0.06l3.85,3.35c0.27,0.23,0.31,0.67,0.1,1.09
				l-0.68,1.41c-0.19,0.4-0.71,0.5-1.04,0.21l-4.28-3.72l-0.06-0.06l-4.28-3.72c-0.33-0.29-0.3-0.82,0.07-1.06L448.53,222.37z"/>
			<path class="st8" d="M450.17,221.71c0.14-0.16,0.38-0.18,0.54-0.04l3.56,3.1l0.06,0.06l3.56,3.1c0.16,0.14,0.18,0.38,0.04,0.54
				l-0.75,0.87l-3.67-3.62l-4.09-3.13L450.17,221.71z"/>
			<path class="st27" d="M454.51,233.58l-3.7,3.59c-0.06,0.06-0.16,0.08-0.24,0.04c-0.52-0.25-2.53-1.28-4.49-2.98
				c-1.96-1.7-3.25-3.55-3.57-4.03c-0.05-0.07-0.05-0.17,0.01-0.24l3.05-4.16c0.08-0.11,0.25-0.11,0.33,0
				c1.55,2.05,6.31,6.2,8.56,7.45C454.59,233.32,454.61,233.48,454.51,233.58z"/>
			<path class="st28" d="M447.13,230.62c-0.89,0.69-1.05,1.98-0.35,2.87c0.69,0.89,1.98,1.05,2.87,0.35
				c0.89-0.69,1.05-1.98,0.35-2.87S448.02,229.92,447.13,230.62z"/>
		</g>
		<polygon class="st3" points="449.47,354.85 448.22,364.89 441.5,365.41 441.6,356.1 		"/>
		<g>
			<path class="st2" d="M431.29,372.76l18.35,0.12c0.4,0,0.72-0.31,0.72-0.71l0-0.53c0-0.39-0.33-0.71-0.73-0.72l-18.35-0.12
				c-0.4,0-0.72,0.31-0.72,0.71l0,0.53C430.56,372.44,430.89,372.76,431.29,372.76z"/>
			<path class="st29" d="M449.39,365l0.7,5.43c0.09,0.67-0.29,1.28-0.79,1.27l-17.45-0.12c-0.45,0-0.9-0.28-1.15-0.81
				c-0.25-0.54-0.3-1.34,0.47-2.42c1.54-2.15,6.67-2.65,9.17-4.48l8.13,0.06C448.93,363.95,449.32,364.39,449.39,365z"/>
			<g>
				<path class="st2" d="M441.6,367.05L441.6,367.05c0.13-0.08,0.17-0.28,0.1-0.44c-0.35-0.75-1.44-2.56-3.61-2.21
					c-0.13,0.02-0.21,0.18-0.19,0.35l0,0.01c0.02,0.16,0.14,0.27,0.26,0.25c1.95-0.31,2.88,1.29,3.16,1.91
					C441.38,367.06,441.5,367.11,441.6,367.05z"/>
			</g>
			<g>
				<path class="st2" d="M439.8,367.74L439.8,367.74c0.13-0.08,0.17-0.28,0.1-0.44c-0.35-0.75-1.44-2.56-3.61-2.21
					c-0.13,0.02-0.21,0.18-0.19,0.35l0,0.01c0.02,0.16,0.14,0.27,0.26,0.25c1.95-0.31,2.88,1.29,3.16,1.92
					C439.57,367.75,439.69,367.8,439.8,367.74z"/>
			</g>
			<g>
				<path class="st2" d="M438.12,368.38L438.12,368.38c0.13-0.08,0.17-0.28,0.1-0.44c-0.35-0.75-1.44-2.57-3.61-2.21
					c-0.13,0.02-0.21,0.18-0.19,0.35l0,0.01c0.02,0.16,0.14,0.27,0.26,0.25c1.95-0.31,2.88,1.29,3.16,1.91
					C437.89,368.39,438.01,368.44,438.12,368.38z"/>
			</g>
			<path class="st30" d="M444.65,371.67c1.34-4.38,3.7-4.85,5-4.74l0.45,3.5c0.09,0.67-0.29,1.28-0.79,1.27L444.65,371.67z"/>
		</g>
		<polygon class="st3" points="459.78,355.06 456.81,364.75 449.97,364.8 451.16,357.73 		"/>
		<g>
			<path class="st2" d="M440.15,372.94l18.35,0.12c0.4,0,0.72-0.31,0.72-0.71l0-0.53c0-0.39-0.33-0.71-0.73-0.72l-18.35-0.12
				c-0.4,0-0.72,0.31-0.72,0.71l0,0.53C439.42,372.62,439.75,372.94,440.15,372.94z"/>
			<path class="st31" d="M458.26,365.18l0.7,5.43c0.09,0.67-0.29,1.28-0.79,1.27l-17.45-0.12c-0.45,0-0.9-0.28-1.15-0.81
				c-0.25-0.54-0.3-1.34,0.47-2.42c1.54-2.15,6.67-2.65,9.17-4.48l8.13,0.05C457.79,364.13,458.18,364.57,458.26,365.18z"/>
			<g>
				<path class="st2" d="M450.46,367.23L450.46,367.23c0.13-0.08,0.17-0.28,0.1-0.44c-0.35-0.75-1.44-2.56-3.61-2.21
					c-0.13,0.02-0.21,0.18-0.19,0.35l0,0.01c0.02,0.16,0.14,0.27,0.26,0.25c1.95-0.31,2.88,1.29,3.16,1.92
					C450.24,367.24,450.36,367.29,450.46,367.23z"/>
			</g>
			<g>
				<path class="st2" d="M448.66,367.92L448.66,367.92c0.13-0.08,0.17-0.28,0.1-0.44c-0.35-0.75-1.44-2.57-3.61-2.21
					c-0.13,0.02-0.21,0.18-0.19,0.35l0,0.01c0.02,0.16,0.14,0.27,0.26,0.25c1.95-0.31,2.88,1.29,3.16,1.91
					C448.43,367.92,448.55,367.98,448.66,367.92z"/>
			</g>
			<g>
				<path class="st2" d="M446.98,368.56L446.98,368.56c0.13-0.08,0.17-0.28,0.1-0.44c-0.35-0.75-1.44-2.56-3.61-2.21
					c-0.13,0.02-0.21,0.18-0.19,0.35l0,0.01c0.02,0.16,0.14,0.27,0.26,0.25c1.95-0.31,2.88,1.29,3.16,1.91
					C446.75,368.57,446.87,368.62,446.98,368.56z"/>
			</g>
			<path class="st30" d="M453.51,371.85c1.34-4.38,3.7-4.85,5-4.74l0.45,3.5c0.09,0.67-0.29,1.28-0.79,1.27L453.51,371.85z"/>
		</g>
		<path class="st32" d="M481.38,290.38c0,0-34.02,3.75-40.51,9.89c-6.49,6.14-2.14,52.35-1.05,56.59c0,0,5.92,2.82,10.61,1.38
			c4.69-1.44,2.88-21.67,2.88-21.67s-0.54-19.32,0.18-22.03c0.72-2.71,10.63-4.7,10.63-4.7s23.83-12.51,22.93-12.51
			C486.15,297.33,481.38,290.38,481.38,290.38z"/>
		<path class="st33" d="M519.04,298.43c0.14-8.75-2.38-16.27-2.38-16.27l-15.27,13.18l-0.13-1.18c0,0-38.22-4.55-43.45,12.79
			c-5.23,17.34-9.19,51.65-9.19,51.65s5.05,3.07,11.89,0c0,0,9.69-36.84,13.31-40.45c2.31-2.3,16.68-4.95,25.09-5.08
			C507.6,312.94,518.87,308.79,519.04,298.43z"/>
		<path class="st34" d="M482.74,232.86c0,0-8.56,1.56-12.94,6.45c-4.39,4.89-10.37,17.03-10.37,17.03s4.5,9.01,9.3,9.78l10.69-10.37
			L482.74,232.86z"/>
		<path class="st35" d="M482.74,232.86c0,0-7.97,6.58-9.11,12.52c-1.14,5.95,0.89,46.8,0.89,46.8s6.07,6.58,24.29,4.43
			c0,0,17.08-15.69,17.46-16.06s-7.72-15.6-7.72-15.6s9.23-2.37,11.51-5.4c0,0-2.78-28.08-24.79-26.69
			C495.26,232.86,489.82,237.66,482.74,232.86z"/>
		<path class="st3" d="M520.05,259.55c0,0-1.52,2.46-11.51,5.4c0,0,3.16,10.66,2.91,13.07c-0.24,2.32-19.57,23.36-20.92,24.84
			l-0.13-0.07c0,0-10.35,3.28-10.47,3.71c-0.12,0.41,0.16,0.65,3.95,0.85c0.25,0.01,0.38,0.29,0.23,0.49
			c-1.13,1.53-4.67,6.38-4.35,6.76c0.39,0.45,3.65-3.81,4.18-3.64c0.52,0.17-2.77,4.24-2.28,4.65c0.49,0.41,3.37-3.4,3.64-3.3
			c0.27,0.1-2.1,4.05-1.96,4.46c0.14,0.42,3.18-3.49,3.54-3.46c0.36,0.03-0.84,3.42-0.56,3.56c0.28,0.14,0.44,0.27,5.33-6.59
			l1.81-2.78l0.02-0.2c1.94-1.04,26.43-14.4,29.22-24.6C525.62,272.07,520.05,259.55,520.05,259.55z"/>
		<path class="st3" d="M446.93,224.76c0.94,0.92,1.26,2.13,0.71,2.69c-0.55,0.56-1.76,0.27-2.7-0.66c-0.94-0.92-1.26-2.13-0.71-2.69
			C444.78,223.54,445.99,223.83,446.93,224.76z"/>
		<path class="st3" d="M445.5,226.22c0.94,0.92,1.26,2.13,0.71,2.69c-0.55,0.56-1.76,0.27-2.7-0.66c-0.94-0.92-1.26-2.13-0.71-2.69
			C443.35,225,444.56,225.3,445.5,226.22z"/>
		<path class="st3" d="M444.06,227.69c0.94,0.92,1.26,2.13,0.71,2.69c-0.55,0.56-1.76,0.27-2.7-0.66c-0.94-0.92-1.26-2.13-0.71-2.69
			C441.91,226.47,443.12,226.76,444.06,227.69z"/>
		<path class="st3" d="M442.63,229.15c0.94,0.92,1.26,2.13,0.71,2.69c-0.55,0.56-1.76,0.27-2.7-0.66c-0.94-0.92-1.26-2.13-0.71-2.69
			C440.48,227.93,441.69,228.23,442.63,229.15z"/>
		<path class="st2" d="M483.51,222.25c0.17,1.2,1.23,2.17,2.58,2.25s2.53-0.73,2.85-1.9L483.51,222.25z"/>
		<path class="st6" d="M500.56,217.27c0,0,2.83-10.14-2.66-14.24c-5.49-4.1-11.52-3.96-15.71-1.85c-4.19,2.11-6.99,10.02-5.36,14.68
			l13.77-3.74L500.56,217.27z"/>
		<path class="st7" d="M479.54,217.17c0.51,1.31,0.06,2.71-0.98,3.11c-1.05,0.4-2.31-0.33-2.81-1.64c-0.51-1.31-0.06-2.71,0.98-3.11
			C477.78,215.12,479.04,215.85,479.54,217.17z"/>
		<path class="st3" d="M479.77,224.8c-0.31-0.57-0.58-1.17-0.78-1.8c-0.59-1.69-0.87-3.47-0.99-5.03c-0.03-0.33-0.07-0.67-0.12-1
			c-0.21-1.34-0.18-2.75,0.16-4.19c1.09-4.65,5.18-8.09,9.94-8.35c6.41-0.35,11.61,4.81,11.49,11.08c0.69-0.37,1.45-0.44,2.12-0.12
			c1.28,0.6,1.71,2.39,0.96,3.99c-0.75,1.6-2.39,2.41-3.67,1.81c-0.18-0.08-0.34-0.19-0.48-0.32c-0.64,5.32-5.08,9.35-10.3,9.16
			c-2.55-0.09-4.85-1.18-6.56-2.89c-0.11-0.1-0.23-0.22-0.36-0.35C480.61,226.19,480.15,225.51,479.77,224.8z"/>
		<path class="st7" d="M486.17,215.14c-0.07,0.62-0.13,1.23-0.21,1.82c-0.09,0.58-0.2,1.19-0.47,1.58l-0.05,0.06
			c-0.02,0.02-0.02,0.04-0.06,0.08c-0.06,0.07-0.13,0.13-0.18,0.22c-0.11,0.16-0.19,0.35-0.21,0.56c-0.05,0.41,0.14,0.8,0.39,1.04
			c0.51,0.51,1.23,0.62,1.83,0.52c-0.6-0.16-1.16-0.41-1.46-0.84c-0.14-0.21-0.23-0.44-0.17-0.64c0.02-0.1,0.06-0.2,0.13-0.29
			c0.02-0.05,0.08-0.08,0.11-0.13l0.09-0.1l0.1-0.11c0.22-0.32,0.31-0.65,0.37-0.97c0.06-0.32,0.08-0.64,0.07-0.96
			C486.44,216.36,486.36,215.74,486.17,215.14z"/>
		<path class="st8" d="M489.7,216.26c-0.02,0.52,0.39,0.96,0.91,0.98c0.52,0.02,0.96-0.39,0.98-0.92c0.02-0.52-0.39-0.96-0.91-0.98
			C490.16,215.33,489.72,215.74,489.7,216.26z"/>
		<path class="st8" d="M481.54,216.51c-0.02,0.52,0.39,0.96,0.91,0.98c0.52,0.02,0.96-0.39,0.98-0.92c0.02-0.52-0.39-0.96-0.91-0.98
			C482,215.57,481.56,215.98,481.54,216.51z"/>
		<path class="st6" d="M488.69,214.02c0.49-0.11,0.96-0.19,1.41-0.22c0.45-0.03,0.89-0.01,1.32,0.08c0.42,0.09,0.84,0.22,1.23,0.44
			c0.21,0.09,0.39,0.23,0.6,0.34c0.2,0.12,0.39,0.28,0.62,0.4c-0.1-0.23-0.22-0.46-0.37-0.67c-0.16-0.19-0.32-0.41-0.53-0.56
			c-0.39-0.35-0.9-0.58-1.42-0.69c-0.52-0.11-1.07-0.07-1.57,0.08C489.49,213.39,489.03,213.64,488.69,214.02z"/>
		<path class="st6" d="M484.49,214.15c-0.35-0.37-0.82-0.61-1.32-0.75c-0.5-0.14-1.05-0.15-1.57-0.03c-0.52,0.13-1.02,0.37-1.4,0.73
			c-0.21,0.16-0.35,0.38-0.51,0.58c-0.14,0.21-0.25,0.44-0.35,0.68c0.23-0.13,0.41-0.29,0.61-0.42c0.21-0.12,0.38-0.27,0.59-0.36
			c0.39-0.23,0.8-0.37,1.22-0.48c0.42-0.1,0.86-0.14,1.31-0.12C483.53,213.99,483.99,214.06,484.49,214.15z"/>
		<path class="st6" d="M499.31,215.64c0.65-0.51,1.12-0.45,1.12-0.45l-0.14-3.33l-0.94-2.04c0,0-3.79-5.55-3.93-5.69
			c-0.14-0.14-3.13-2.01-3.32-2.11c-0.19-0.1-4.52,0.37-4.52,0.37s-7.5-1.88-6.4,2.14c1.11,4.02,6.54,6.34,6.83,6.18
			c-0.86-0.93-0.84-3.46-0.84-3.46C490.91,211.68,498.17,215.12,499.31,215.64z"/>
		<path class="st2" d="M484.26,222.59c0.32,1.17,1.5,1.99,2.85,1.91s2.42-1.05,2.59-2.24L484.26,222.59z"/>
	</g>
	<g>
		<polygon class="st3" points="288.83,355.88 289.99,365.14 296.18,365.62 296.09,357.03 		"/>
		<g>
			<path class="st2" d="M305.6,372.39l-16.93,0.11c-0.37,0-0.67-0.29-0.66-0.65l0-0.49c0-0.36,0.31-0.66,0.68-0.66l16.93-0.11
				c0.37,0,0.67,0.29,0.66,0.65l0,0.49C306.27,372.1,305.97,372.39,305.6,372.39z"/>
			<path class="st36" d="M288.9,365.24l-0.65,5.01c-0.08,0.62,0.27,1.18,0.73,1.17l16.1-0.11c0.42,0,0.83-0.26,1.06-0.74
				c0.23-0.49,0.28-1.24-0.43-2.23c-1.42-1.99-6.15-2.44-8.46-4.13l-7.5,0.05C289.33,364.27,288.97,364.68,288.9,365.24z"/>
			<g>
				<path class="st2" d="M296.09,367.13L296.09,367.13c-0.12-0.07-0.16-0.26-0.09-0.41c0.32-0.69,1.32-2.37,3.33-2.04
					c0.12,0.02,0.19,0.17,0.17,0.33l0,0.01c-0.02,0.15-0.13,0.25-0.24,0.23c-1.8-0.29-2.65,1.19-2.91,1.77
					C296.29,367.14,296.18,367.19,296.09,367.13z"/>
			</g>
			<g>
				<path class="st2" d="M297.75,367.76L297.75,367.76c-0.12-0.07-0.16-0.26-0.09-0.41c0.32-0.69,1.32-2.37,3.33-2.04
					c0.12,0.02,0.19,0.17,0.17,0.33l0,0c-0.02,0.15-0.13,0.25-0.24,0.23c-1.8-0.29-2.65,1.19-2.91,1.77
					C297.96,367.77,297.85,367.82,297.75,367.76z"/>
			</g>
			<g>
				<path class="st2" d="M299.3,368.35L299.3,368.35c-0.12-0.07-0.16-0.26-0.09-0.41c0.32-0.69,1.32-2.37,3.33-2.04
					c0.12,0.02,0.19,0.17,0.17,0.33l0,0c-0.02,0.15-0.13,0.25-0.24,0.23c-1.8-0.29-2.65,1.19-2.91,1.77
					C299.51,368.36,299.4,368.41,299.3,368.35z"/>
			</g>
			<path class="st30" d="M293.28,371.39c-1.23-4.04-3.42-4.47-4.61-4.37l-0.42,3.22c-0.08,0.62,0.27,1.18,0.73,1.17L293.28,371.39z"
				/>
		</g>
		<polygon class="st3" points="279.32,356.07 282.06,365.01 288.37,365.05 287.27,358.53 		"/>
		<g>
			<path class="st2" d="M297.43,372.56l-16.93,0.11c-0.37,0-0.67-0.29-0.66-0.65l0-0.49c0-0.36,0.31-0.66,0.68-0.66l16.93-0.11
				c0.37,0,0.67,0.29,0.66,0.65l0,0.49C298.1,372.26,297.8,372.56,297.43,372.56z"/>
			<path class="st26" d="M280.73,365.4l-0.65,5.01c-0.08,0.62,0.27,1.18,0.73,1.17l16.1-0.11c0.42,0,0.83-0.26,1.06-0.74
				c0.23-0.49,0.28-1.24-0.43-2.23c-1.42-1.99-6.15-2.44-8.46-4.13l-7.5,0.05C281.16,364.43,280.8,364.84,280.73,365.4z"/>
			<g>
				<path class="st2" d="M287.91,367.29L287.91,367.29c-0.12-0.07-0.16-0.26-0.09-0.41c0.32-0.69,1.32-2.37,3.33-2.04
					c0.12,0.02,0.19,0.17,0.17,0.33l0,0.01c-0.02,0.15-0.13,0.25-0.24,0.23c-1.8-0.29-2.65,1.19-2.91,1.77
					C288.12,367.3,288.01,367.35,287.91,367.29z"/>
			</g>
			<g>
				<path class="st2" d="M289.58,367.93L289.58,367.93c-0.12-0.07-0.16-0.26-0.09-0.41c0.32-0.69,1.32-2.37,3.33-2.04
					c0.12,0.02,0.19,0.17,0.17,0.33l0,0.01c-0.02,0.15-0.13,0.25-0.24,0.23c-1.8-0.29-2.65,1.19-2.91,1.77
					C289.79,367.94,289.68,367.98,289.58,367.93z"/>
			</g>
			<g>
				<path class="st2" d="M291.13,368.52L291.13,368.52c-0.12-0.07-0.16-0.26-0.09-0.41c0.32-0.69,1.32-2.37,3.33-2.04
					c0.12,0.02,0.19,0.17,0.17,0.33l0,0.01c-0.02,0.15-0.13,0.25-0.24,0.23c-1.8-0.29-2.65,1.19-2.91,1.77
					C291.34,368.53,291.23,368.58,291.13,368.52z"/>
			</g>
			<path class="st30" d="M285.11,371.56c-1.23-4.04-3.42-4.47-4.61-4.37l-0.42,3.22c-0.08,0.62,0.27,1.18,0.73,1.17L285.11,371.56z"
				/>
		</g>
		<path class="st32" d="M259.4,291.5c0,0,31.38,3.45,37.36,9.12c5.98,5.66,1.32,54.63,0.32,58.54c0,0-5.46,2.6-9.78,1.27
			c-4.32-1.33-2.01-26.34-2.01-26.34s0.5-17.82-0.17-20.32c-0.66-2.5-9.81-4.33-9.81-4.33s-30.1-14.4-29.27-14.4
			C246.88,295.04,259.4,291.5,259.4,291.5z"/>
		<path class="st33" d="M224.67,298.91c0.15-8.07,2.19-15.01,2.19-15.01l14.08,12.16l0.12-1.09c0,0,35.25-4.2,40.07,11.79
			c4.82,15.99,7.98,53.85,7.98,53.85s-3.53,4.65-9.85,1.81c0,0-9.56-42.01-12.91-45.34C264.23,314.98,224.33,317.47,224.67,298.91z"
			/>
		<path class="st3" d="M272.72,236.5c0.13,0.13,0.36,0.06,0.39-0.12c0.25-1.4,1.08-5.82,1.45-5.83c0.44-0.02-0.2,3.94,0.16,4.14
			c0.36,0.2,0.89-3.68,1.36-3.63c0.48,0.06-0.12,3.58,0.07,3.67c0.19,0.09,1.13-3.22,1.43-3.35c0.3-0.14-0.27,3.52-0.07,3.7
			c0.2,0.18,1.43-2.21,1.65-2.13c0.22,0.08,0.38,0.1-0.85,6.28l-0.59,2.41l-1.54,1.71l-2.6-0.96c0,0-3.52-7.32-3.35-7.61
			C270.39,234.52,270.66,234.55,272.72,236.5z"/>
		<path class="st37" d="M261.98,261.02c0,0,4.81,11.38,13.02,11.51c8.22,0.13,3.41-31.74,3.41-31.74h-6.2c0,0-0.88,16.94-1.33,17.07
			c-0.45,0.13-4.37-9.36-4.37-9.36L261.98,261.02z"/>
		<g>
			<polygon class="st3" points="243.6,223.89 243.23,229.38 248.58,232.68 250.71,231.63 250.83,224.84 			"/>
			<path class="st7" d="M250.75,229.25l0.08-4.42l-7.22-0.94l-0.15,2.27C244.86,227.31,247.33,228.85,250.75,229.25z"/>
			<path class="st8" d="M236.17,215.61c0,0-3.51-8.75,1.51-12.88c5.02-4.13,10.86-4.52,15.08-3.02c4.22,1.5,7.53,8.27,6.31,12.56
				l-13.62-2.11L236.17,215.61z"/>
			<path class="st7" d="M257.58,214.1c-0.3,1.28,0.31,2.5,1.37,2.72c1.06,0.22,2.17-0.63,2.47-1.92c0.3-1.28-0.31-2.5-1.37-2.72
				C258.99,211.97,257.88,212.82,257.58,214.1z"/>
			<path class="st3" d="M258.41,221.16c0.22-0.57,0.39-1.16,0.5-1.77c0.33-1.64,0.36-3.32,0.26-4.77c-0.02-0.31-0.02-0.62-0.02-0.93
				c0.01-1.26-0.21-2.55-0.74-3.84c-1.69-4.13-6.09-6.71-10.7-6.27c-6.2,0.59-10.48,6.09-9.5,11.84c-0.71-0.24-1.45-0.2-2.05,0.19
				c-1.14,0.74-1.31,2.44-0.37,3.81c0.94,1.37,2.63,1.88,3.78,1.14c0.16-0.1,0.3-0.22,0.42-0.36c1.35,4.81,6.17,7.88,11.16,6.96
				c2.44-0.45,4.49-1.78,5.9-3.6c0.1-0.11,0.2-0.23,0.3-0.38C257.8,222.57,258.14,221.88,258.41,221.16z"/>
			<path class="st8" d="M248.09,215.51c0.1,0.52-0.26,1.02-0.8,1.12c-0.54,0.1-1.05-0.24-1.15-0.76c-0.1-0.52,0.26-1.02,0.8-1.12
				C247.48,214.65,247.99,214.99,248.09,215.51z"/>
			<path class="st8" d="M256.15,214.43c0.1,0.52-0.26,1.02-0.8,1.12c-0.54,0.1-1.05-0.24-1.15-0.76c-0.1-0.52,0.26-1.02,0.8-1.12
				C255.53,213.57,256.05,213.91,256.15,214.43z"/>
			<path class="st8" d="M248.7,213.82c-0.48-0.17-0.96-0.27-1.45-0.32c-0.49-0.05-0.98-0.02-1.45,0.09
				c-0.24,0.05-0.46,0.13-0.69,0.22c-0.11,0.04-0.22,0.1-0.33,0.15c-0.05,0.03-0.11,0.06-0.16,0.09c-0.05,0.03-0.11,0.06-0.16,0.09
				c-0.41,0.26-0.79,0.58-1.15,0.93c0.25-0.43,0.59-0.82,0.99-1.14c0.2-0.16,0.43-0.3,0.66-0.41c0.24-0.11,0.49-0.2,0.75-0.26
				c0.52-0.12,1.06-0.12,1.57-0.02c0.26,0.05,0.5,0.13,0.74,0.22C248.27,213.56,248.5,213.67,248.7,213.82z"/>
			<path class="st8" d="M252.66,213.29c0.16-0.2,0.35-0.37,0.55-0.53c0.2-0.15,0.42-0.29,0.66-0.41c0.46-0.23,0.99-0.37,1.52-0.4
				c0.26-0.01,0.53,0.01,0.79,0.05c0.26,0.04,0.51,0.12,0.75,0.22c0.48,0.2,0.91,0.49,1.26,0.84c-0.44-0.24-0.89-0.45-1.36-0.59
				c-0.06-0.02-0.12-0.03-0.18-0.05c-0.06-0.01-0.12-0.03-0.18-0.04c-0.12-0.02-0.24-0.05-0.36-0.06c-0.24-0.03-0.48-0.05-0.72-0.03
				c-0.48,0.02-0.96,0.13-1.42,0.3C253.52,212.77,253.07,213.01,252.66,213.29z"/>
			<path class="st8" d="M238.22,215.42c0,0,6.74-3.71,9.96-8.42c0,0,0.22,2.31-0.47,3.23c0.27,0.13,4.93-2.41,5.59-6.18
				c0.65-3.77-5.88-1.47-5.88-1.47s-3.9-0.09-4.06,0.01c-0.16,0.1-2.68,2.04-2.79,2.18c-0.11,0.14-3.04,5.51-3.04,5.51l-0.67,1.94
				l-0.69,3.39L238.22,215.42z"/>
			<path class="st38" d="M249.83,220.87c0,0,1.1-0.55,2.27-0.01c0,0,1.08-0.86,2.09-0.31c0,0-0.2,1.73-2.14,1.88
				C250.12,222.57,249.83,220.87,249.83,220.87z"/>
			<path class="st7" d="M248.75,220.4c0.24,0.14,0.49,0.27,0.75,0.37c0.25,0.11,0.52,0.2,0.78,0.28c0.53,0.15,1.08,0.22,1.63,0.19
				c0.55-0.03,1.09-0.16,1.59-0.39c0.5-0.23,0.96-0.55,1.39-0.91c-0.18,0.21-0.38,0.4-0.6,0.58c-0.22,0.18-0.46,0.33-0.71,0.47
				c-0.25,0.13-0.52,0.24-0.8,0.32c-0.28,0.07-0.57,0.12-0.86,0.14c-0.58,0.03-1.16-0.06-1.69-0.25
				C249.69,221.01,249.18,220.75,248.75,220.4z"/>
			<path class="st7" d="M251.66,214.59c0.33,0.39,0.63,0.81,0.9,1.24c0.28,0.43,0.53,0.88,0.74,1.35c0.1,0.24,0.2,0.48,0.25,0.75
				c0.01,0.07,0.02,0.14,0.02,0.21c0,0.04,0,0.08-0.01,0.12c-0.01,0.04-0.02,0.08-0.04,0.13c-0.01,0.02-0.03,0.05-0.04,0.07
				l-0.04,0.04c-0.02,0.03-0.05,0.05-0.07,0.08c-0.05,0.05-0.1,0.09-0.16,0.13c-0.21,0.17-0.45,0.3-0.68,0.42
				c-0.24,0.11-0.48,0.22-0.74,0.29c0.44-0.28,0.89-0.56,1.26-0.89c0.05-0.04,0.09-0.09,0.13-0.13l0.06-0.07l0.03-0.03
				c0-0.01,0-0.01,0.01-0.02c0.02-0.05,0.01-0.18-0.02-0.29c-0.05-0.23-0.15-0.46-0.25-0.68c-0.2-0.46-0.43-0.9-0.66-1.35
				C252.11,215.5,251.88,215.05,251.66,214.59z"/>
			<path class="st8" d="M243.23,201.56c0,0-6.2-11.93-16.56-10.91c-10.36,1.02-12.64,9.42-12.17,13.58c0.47,4.16,3.3,8.79,0.63,14.6
				c-2.67,5.81-2.04,14.52,6.12,13.85c8.16-0.67,6.36-9.01,6.44-11.98c0.08-2.97,5.81-2.66,4.4-8.07
				c-1.41-5.41-5.18-10.99,0.08-11.77c5.26-0.78,8.4,1.65,8.4,1.65L243.23,201.56z"/>
		</g>
		<g>
			<path class="st39" d="M264.32,228.98v8.79c0,1.74,1.41,3.14,3.14,3.14h4.22c1.44,0,2.65-0.96,3.02-2.28
				c2.14-0.04,3.87-1.79,3.87-3.94c0-2.11-1.67-3.84-3.75-3.93v-1.78H264.32z M274.82,237.27v-5.17c1.34,0.1,2.41,1.22,2.41,2.59
				S276.17,237.18,274.82,237.27z"/>
			<path class="st40" d="M272.62,228.98h2.21v8.79c0,1.74-1.41,3.14-3.14,3.14h-4.22c-1.03,0-1.95-0.5-2.52-1.27
				C273.78,239.9,272.62,228.98,272.62,228.98z"/>
			<path class="st41" d="M264.32,229.08c0,0.54,2.36,0.98,5.27,0.98c2.91,0,5.27-0.44,5.27-0.98c0-0.54-2.36-0.98-5.27-0.98
				C266.68,228.09,264.32,228.53,264.32,229.08z"/>
			<path class="st39" d="M264.74,229.08c0,0.42,2.17,0.76,4.84,0.76c2.67,0,4.84-0.34,4.84-0.76c0-0.42-2.17-0.76-4.84-0.76
				C266.91,228.32,264.74,228.66,264.74,229.08z"/>
			<ellipse class="st14" cx="269.58" cy="229.28" rx="4.67" ry="0.56"/>
			<path class="st40" d="M277.63,234.69c0,1.37-1.06,2.49-2.41,2.59v-0.06c1.15-0.27,2.01-1.3,2.01-2.53c0-1.23-0.86-2.26-2.01-2.53
				v-0.06C276.57,232.2,277.63,233.32,277.63,234.69z"/>
			<path class="st42" d="M265.48,237.06L265.48,237.06c0.24,0,0.43-0.19,0.43-0.43v-5.54c0-0.24-0.19-0.43-0.43-0.43l0,0
				c-0.24,0-0.43,0.19-0.43,0.43v5.54C265.05,236.87,265.24,237.06,265.48,237.06z"/>
		</g>
		<path class="st3" d="M265,237.35c0.1,0.16,0.33,0.15,0.41-0.02c0.61-1.29,2.57-5.33,2.93-5.25c0.43,0.1-1.23,3.75-0.93,4.04
			c0.3,0.29,1.82-3.32,2.27-3.14c0.44,0.18-1.06,3.42-0.9,3.56s1.93-2.81,2.26-2.86c0.32-0.05-1.18,3.33-1.04,3.55
			c0.15,0.23,1.96-1.76,2.15-1.62c0.19,0.14,0.34,0.2-2.47,5.84l-1.2,2.17l-1.94,1.24l-2.26-1.61c0,0-1.48-7.99-1.24-8.22
			C263.28,234.82,263.53,234.93,265,237.35z"/>
		<path class="st26" d="M242.63,228.4c0,0-11.76,2.78-13.28,10.24c-1.52,7.46-8.09,47.04-5.44,59.94c0,0,7.21,11.13,24.28-0.63
			c0,0,6.7-5.82,11.51-6.45l-4.3-19.22l8.22-25.16c0,0,1.01-14.67-9.99-16.69C253.64,230.42,247.82,232.44,242.63,228.4z"/>
		<path class="st36" d="M232.71,236.3c1.83-1.72,4.81-1.15,6,1.05c2.93,5.44,11.29,20.87,12.02,21.39
			c0.89,0.63,12.52-17.1,12.52-17.1s4.17,0.16,6.07,1.68c0,0-6.32,34.14-17.7,31.49c-8.71-2.03-16.67-17.31-19.94-24.38
			c-1.48-3.21-1.88-6.83-0.99-10.26C231.07,238.67,231.7,237.25,232.71,236.3z"/>
	</g>
	<g>
		<g>
			<rect x="241.95" y="278.53" class="st43" width="4.86" height="93.93"/>
			<rect x="287.84" y="278.53" class="st43" width="4.86" height="93.93"/>
			<rect x="426.67" y="278.53" class="st43" width="4.86" height="93.93"/>
			<rect x="472.57" y="278.53" class="st43" width="4.86" height="93.93"/>
			<path class="st2" d="M488.62,279.63H231.43c-1.38,0-2.51-1.12-2.51-2.51v-0.97c0-1.38,1.12-2.51,2.51-2.51h257.19
				c1.39,0,2.51,1.12,2.51,2.51v0.97C491.13,278.51,490.01,279.63,488.62,279.63z"/>
		</g>
		<path class="st44" d="M488.62,279.63h-61.15c-1.38,0-2.51-1.12-2.51-2.51v-0.97c0-1.38,1.12-2.51,2.51-2.51h61.15
			c1.39,0,2.51,1.12,2.51,2.51v0.97C491.13,278.51,490.01,279.63,488.62,279.63z"/>
	</g>
	<rect x="41.75" y="372.42" class="st6" width="566.14" height="2.6"/>
	<g>
		<path class="st45" d="M124.78,201.14L124.78,201.14c0-2.46-1.83-4.5-4.21-4.82v-6.2c0-4.38-3.55-7.93-7.93-7.93H80.72
			c-4.38,0-7.93,3.55-7.93,7.93v6.22c-2.28,0.4-4.02,2.39-4.02,4.79l0,0c0,2.4,1.74,4.39,4.02,4.79v32.47
			c-2.28,0.4-4.02,2.39-4.02,4.79v0c0,2.4,1.74,4.39,4.02,4.79v0.72c0,4.38,3.55,7.93,7.93,7.93h6.31c1.14,0,2.06,0.92,2.06,2.06
			v2.26h15.18v-2.26c0-1.14,0.92-2.06,2.06-2.06h6.31c4.38,0,7.93-3.55,7.93-7.93v-0.69c2.37-0.32,4.21-2.36,4.21-4.82v0
			c0-2.46-1.83-4.5-4.21-4.82v-32.41C122.95,205.63,124.78,203.6,124.78,201.14z"/>
		<polygon class="st22" points="72.79,205.93 105.33,206.34 72.79,206.75 		"/>
		<polygon class="st22" points="120.57,195.49 88.03,195.9 120.57,196.32 		"/>
		<polygon class="st22" points="72.79,247.97 105.33,248.38 72.79,248.8 		"/>
		<polygon class="st22" points="120.57,237.53 88.03,237.95 120.57,238.36 		"/>
		<path class="st46" d="M124.78,201.14L124.78,201.14c0-2.46-1.83-4.5-4.21-4.82v-6.2c0-4.38-3.55-7.93-7.93-7.93h-5.65
			c-2.58,22.41-9.51,56.31-28.17,74.2c0.61,0.15,1.24,0.23,1.9,0.23h6.31c1.14,0,2.06,0.92,2.06,2.06v2.26h15.18v-2.26
			c0-1.14,0.92-2.06,2.06-2.06h6.31c4.38,0,7.93-3.55,7.93-7.93v-0.69c2.37-0.32,4.21-2.36,4.21-4.82l0,0c0-2.46-1.83-4.5-4.21-4.82
			v-32.41C122.95,205.63,124.78,203.6,124.78,201.14z"/>
		<ellipse class="st22" cx="96.68" cy="220.71" rx="23.89" ry="1.45"/>
		<path class="st47" d="M120.57,238.37v-17.65c-0.08,0.8-10.74,1.44-23.89,1.44c-13.19,0-23.89-0.65-23.89-1.45v17.68
			c-2.28,0.4-4.02,2.39-4.02,4.79c0,2.4,1.74,4.39,4.02,4.79v0.72c0,4.38,3.55,7.93,7.93,7.93h6.31c1.14,0,2.06,0.92,2.06,2.06v2.26
			h15.18v-2.26c0-1.14,0.92-2.06,2.06-2.06h6.31c4.38,0,7.93-3.55,7.93-7.93v-0.69c2.37-0.32,4.21-2.36,4.21-4.82
			C124.78,240.72,122.95,238.69,120.57,238.37z"/>
		<path class="st48" d="M104.9,269.68H88.64c-2.45,0-4.44-1.99-4.44-4.44V264c0-2.45,1.99-4.44,4.44-4.44h16.26
			c2.45,0,4.44,1.99,4.44,4.44v1.25C109.34,267.7,107.35,269.68,104.9,269.68z"/>
		<path class="st22" d="M100.11,372.43h-6.67c-13.07,0-23.66-10.59-23.66-23.66v-64.17c0-13.07,10.59-23.66,23.66-23.66h6.67
			c13.07,0,23.66,10.59,23.66,23.66v64.17C123.77,361.84,113.17,372.43,100.11,372.43z"/>
		<path class="st48" d="M113.03,312.78H80.51v-20.53c0-7.87,6.38-14.25,14.25-14.25h4.02c7.87,0,14.25,6.38,14.25,14.25V312.78z"/>
		<path class="st23" d="M110.3,312.78H83.24v-20.44c0-6.55,5.31-11.86,11.86-11.86h3.34c6.55,0,11.86,5.31,11.86,11.86V312.78z"/>
		<path class="st48" d="M115.78,315.08H78.22c-0.56,0-1.01-0.45-1.01-1.01v-0.28c0-0.56,0.45-1.01,1.01-1.01h37.56
			c0.56,0,1.01,0.45,1.01,1.01v0.28C116.79,314.63,116.34,315.08,115.78,315.08z"/>
		<path class="st49" d="M114.83,370.11H78.71c-3.46,0-6.27-2.81-6.27-6.27v-90.79c0-3.46,2.81-6.27,6.27-6.27h36.12
			c3.46,0,6.27,2.81,6.27,6.27v90.79C121.1,367.3,118.29,370.11,114.83,370.11z M78.71,267.2c-3.23,0-5.85,2.63-5.85,5.85v90.79
			c0,3.23,2.63,5.85,5.85,5.85h36.12c3.23,0,5.85-2.63,5.85-5.85v-90.79c0-3.23-2.63-5.85-5.85-5.85H78.71z"/>
		<path class="st48" d="M77.92,365.21c0,0.62-0.5,1.12-1.12,1.12c-0.62,0-1.12-0.5-1.12-1.12c0-0.62,0.5-1.12,1.12-1.12
			C77.42,364.09,77.92,364.6,77.92,365.21z"/>
		<path class="st48" d="M77.92,272.11c0,0.62-0.5,1.12-1.12,1.12c-0.62,0-1.12-0.5-1.12-1.12c0-0.62,0.5-1.12,1.12-1.12
			C77.42,270.99,77.92,271.49,77.92,272.11z"/>
		<path class="st48" d="M117.9,365.21c0,0.62-0.5,1.12-1.12,1.12c-0.62,0-1.12-0.5-1.12-1.12c0-0.62,0.5-1.12,1.12-1.12
			C117.4,364.09,117.9,364.6,117.9,365.21z"/>
		<path class="st48" d="M117.9,272.11c0,0.62-0.5,1.12-1.12,1.12c-0.62,0-1.12-0.5-1.12-1.12c0-0.62,0.5-1.12,1.12-1.12
			C117.4,270.99,117.9,271.49,117.9,272.11z"/>
		<path class="st49" d="M110.2,356.37H83.35c-1.72,0-3.11-1.4-3.11-3.11v-9.63c0-1.72,1.4-3.11,3.11-3.11h26.85
			c1.72,0,3.11,1.4,3.11,3.11v9.63C113.31,354.97,111.91,356.37,110.2,356.37z M83.35,341.06c-1.41,0-2.56,1.15-2.56,2.56v9.63
			c0,1.41,1.15,2.56,2.56,2.56h26.85c1.41,0,2.56-1.15,2.56-2.56v-9.63c0-1.41-1.15-2.56-2.56-2.56H83.35z"/>
		<g>
			<path class="st2" d="M90.82,295.74h-0.24l0.62-5.63c0.04-0.36-0.25-0.68-0.61-0.68h-0.51h-1.2h-0.51c-0.37,0-0.65,0.32-0.61,0.68
				l0.62,5.63h-0.24c-0.25,0-0.46,0.21-0.46,0.46v1.54c0,0.25,0.21,0.46,0.46,0.46h2.68c0.25,0,0.46-0.21,0.46-0.46v-1.54
				C91.28,295.95,91.07,295.74,90.82,295.74z"/>
			<path class="st50" d="M91.3,297.49h-3.6c-0.23,0-0.41-0.18-0.41-0.41v-0.12c0-0.23,0.18-0.41,0.41-0.41h3.6
				c0.23,0,0.41,0.18,0.41,0.41v0.12C91.71,297.3,91.53,297.49,91.3,297.49z"/>
		</g>
		<path class="st2" d="M105.37,295.74h-0.24l0.62-5.63c0.04-0.36-0.25-0.68-0.61-0.68h-0.51h-1.2h-0.51c-0.37,0-0.65,0.32-0.61,0.68
			l0.62,5.63h-0.24c-0.25,0-0.46,0.21-0.46,0.46v1.54c0,0.25,0.21,0.46,0.46,0.46h2.68c0.25,0,0.46-0.21,0.46-0.46v-1.54
			C105.82,295.95,105.62,295.74,105.37,295.74z"/>
		<path class="st45" d="M105.85,297.49h-3.6c-0.23,0-0.41-0.18-0.41-0.41v-0.12c0-0.23,0.18-0.41,0.41-0.41h3.6
			c0.23,0,0.41,0.18,0.41,0.41v0.12C106.26,297.3,106.08,297.49,105.85,297.49z"/>
		<polygon class="st12" points="105.18,301.29 102.87,301.29 99.54,301.29 101.48,312.81 102.87,312.81 105.18,312.81 
			106.57,312.81 108.51,301.29 		"/>
		<path class="st45" d="M108.69,302.38h-9.32c-0.3,0-0.54-0.24-0.54-0.54v-0.15c0-0.3,0.24-0.54,0.54-0.54h9.32
			c0.3,0,0.54,0.24,0.54,0.54v0.15C109.23,302.13,108.99,302.38,108.69,302.38z"/>
		<path class="st46" d="M101.12,304.19c-0.37,0-0.73,0.06-1.06,0.16l1.17,6.94c1.91-0.06,3.45-1.62,3.45-3.55
			C104.67,305.78,103.08,304.19,101.12,304.19z"/>
	</g>
	<g>
		<path class="st6" d="M319.31,248.97H285.9l-9.48,23.11h-16.1c-0.45,0-0.82,0.36-0.82,0.81l0,0c0,0.45,0.36,0.81,0.82,0.81h47.89
			L319.31,248.97z"/>
		<path class="st45" d="M302.74,262.15c-0.2,0.98-1.06,1.64-1.92,1.47c-0.86-0.17-1.4-1.11-1.2-2.1c0.2-0.98,1.06-1.64,1.92-1.47
			C302.4,260.23,302.94,261.17,302.74,262.15z"/>
	</g>
	<g>
		<rect x="494.73" y="163.79" class="st2" width="5.17" height="20.9"/>
		
			<rect x="532.75" y="171.94" transform="matrix(-1.836970e-16 1 -1 -1.836970e-16 717.1956 -352.4115)" class="st51" width="4.11" height="20.9"/>
		
			<rect x="535.53" y="167.82" transform="matrix(-1.836970e-16 1 -1 -1.836970e-16 715.8566 -359.3116)" class="st2" width="4.11" height="20.9"/>
		
			<rect x="531.21" y="163.81" transform="matrix(-1.836970e-16 1 -1 -1.836970e-16 707.5147 -359.0027)" class="st25" width="4.11" height="20.9"/>
		<rect x="500.59" y="155.37" class="st51" width="5.28" height="29.01"/>
		<rect x="489.25" y="158.57" class="st25" width="4.87" height="25.81"/>
		
			<rect x="511.29" y="158.57" transform="matrix(0.8986 -0.4387 0.4387 0.8986 -23.1528 242.7458)" class="st25" width="4.87" height="25.81"/>
		<path class="st51" d="M562.09,156.26c-1.28,0-2.32,1.04-2.32,2.32v2.58c0,0.47-0.38,0.86-0.86,0.86h-1.06v-4.71
			c0-1.72-1.39-3.11-3.11-3.11c-1.72,0-3.11,1.39-3.11,3.11v9.91h-0.6c-0.76,0-1.37-0.61-1.37-1.37v-2.07
			c0-1.28-1.04-2.32-2.32-2.32l0,0c-1.28,0-2.32,1.04-2.32,2.32v3.44c0,2.56,2.08,4.64,4.64,4.64h1.97v5.92h6.22v-11.12h1.92
			c2.56,0,4.64-2.08,4.64-4.64v-3.44C564.41,157.3,563.37,156.26,562.09,156.26z"/>
		<path class="st52" d="M554.69,177.78V154.2c-1.7,0.03-3.06,1.41-3.06,3.11v9.91h-0.6c-0.76,0-1.37-0.61-1.37-1.37v-2.07
			c0-1.28-1.04-2.32-2.32-2.32l0,0c-1.28,0-2.32,1.04-2.32,2.32v3.44c0,2.56,2.08,4.64,4.64,4.64h1.97v5.92H554.69z"/>
		<path class="st6" d="M556.64,184.24h-3.9c-1.81,0-3.28-1.47-3.28-3.28v-7.19h10.47v7.19
			C559.92,182.77,558.45,184.24,556.64,184.24z"/>
		<rect x="485.39" y="184.24" class="st6" width="83.57" height="2.36"/>
	</g>
	<g>
		<ellipse class="st25" cx="111.34" cy="109.86" rx="23.56" ry="23.61"/>
		<ellipse class="st2" cx="111.34" cy="109.86" rx="20.18" ry="20.22"/>
		<g>
			
				<rect x="93.07" y="106.02" transform="matrix(6.123234e-17 -1 1 6.123234e-17 -16.3838 203.1034)" class="st25" width="0.57" height="7.44"/>
			
				<rect x="129.08" y="106.02" transform="matrix(6.123234e-17 -1 1 6.123234e-17 19.6224 239.1096)" class="st25" width="0.57" height="7.44"/>
			<rect x="111.02" y="88.26" class="st25" width="0.57" height="7.45"/>
			<rect x="111.02" y="124.2" class="st25" width="0.57" height="7.45"/>
			<path class="st25" d="M111.96,109.86c0,0.34-0.28,0.62-0.62,0.62c-0.34,0-0.62-0.28-0.62-0.62s0.28-0.62,0.62-0.62
				C111.68,109.24,111.96,109.51,111.96,109.86z"/>
			<g>
				<path class="st25" d="M111.34,110.13c-0.07,0-0.14-0.03-0.19-0.08l-11.06-11.09c-0.11-0.11-0.11-0.28,0-0.39
					c0.11-0.11,0.28-0.11,0.39,0l11.06,11.09c0.11,0.11,0.11,0.28,0,0.39C111.48,110.1,111.41,110.13,111.34,110.13z"/>
			</g>
			<g>
				<path class="st25" d="M114.9,121.06c-0.05-0.02-0.08-0.06-0.1-0.12l-3.58-10.82c-0.03-0.11,0.02-0.22,0.13-0.25
					c0.1-0.03,0.22,0.02,0.25,0.13l3.58,10.82c0.03,0.11-0.02,0.22-0.13,0.25C115,121.09,114.94,121.08,114.9,121.06z"/>
			</g>
		</g>
	</g>
	<g>
		<rect x="142.5" y="161.7" class="st25" width="5.62" height="22.8"/>
		
			<rect x="183.87" y="170.61" transform="matrix(-1.836970e-16 1 -1 -1.836970e-16 368.1029 -4.1237)" class="st39" width="4.48" height="22.75"/>
		
			<rect x="186.9" y="166.12" transform="matrix(-1.836970e-16 1 -1 -1.836970e-16 366.6361 -11.6437)" class="st25" width="4.48" height="22.75"/>
		
			<rect x="182.19" y="161.74" transform="matrix(-1.836970e-16 1 -1 -1.836970e-16 357.547 -11.3165)" class="st2" width="4.48" height="22.75"/>
		<rect x="148.87" y="152.52" class="st2" width="5.75" height="31.64"/>
		<rect x="136.53" y="156" class="st39" width="5.3" height="28.16"/>
		<polygon class="st39" points="171.71,181.57 166.95,183.9 154.63,158.6 159.39,156.27 		"/>
		<rect x="132.33" y="184" class="st48" width="69.72" height="2.58"/>
		<rect x="136.53" y="158.22" class="st2" width="5.3" height="1.83"/>
		<rect x="143.73" y="163.63" class="st53" width="3.15" height="8.7"/>
		<rect x="148.87" y="156" class="st53" width="5.75" height="1.37"/>
		<rect x="148.87" y="179.74" class="st53" width="5.75" height="1.8"/>
	</g>
	<g>
		<rect x="193.95" y="108.24" class="st2" width="39.48" height="39.48"/>
		<rect x="198" y="112.29" class="st23" width="31.39" height="31.39"/>
	</g>
	<g>
		<rect x="511.55" y="92.82" class="st2" width="31.32" height="31.32"/>
		<rect x="514.76" y="96.03" class="st23" width="24.9" height="24.9"/>
	</g>
	<g>
		<rect x="154.65" y="86.06" class="st2" width="27.06" height="27.06"/>
		<rect x="157.42" y="88.83" class="st23" width="21.52" height="21.52"/>
	</g>
	<g>
		<rect x="479.13" y="113.64" class="st2" width="21.13" height="21.13"/>
		<rect x="481.29" y="115.8" class="st23" width="16.8" height="16.8"/>
	</g>
</g>
</svg>
