<svg xmlns="http://www.w3.org/2000/svg" width="391.495" height="403.611" viewBox="0 0 391.495 403.611">
  <g id="php" transform="translate(-0.005 0.011)">
    <g id="angular-dev">
      <g id="Group_1271" data-name="Group 1271">
        <path id="Path_4479" data-name="Path 4479" d="M263.3,174.1s21.4,45.6,21.4,48-19,12.7-22.7,14.8-8.7,4.2-8.7,4.2l2.1,21.1s32.7-7.4,46.4-14.8,13.2-15.8,10-28.2-24.3-60.7-24.3-60.7Z" fill="#fff" stroke="#333" stroke-linecap="round" stroke-linejoin="round" stroke-width="1"/>
        <path id="Path_627" data-name="Path 627" d="M301.8,247.7c13.7-7.4,13.2-15.8,10-28.2s-24.3-60.7-24.3-60.7l-3.4,2.1-1,2.1s19.8,48.3,20.9,64.4c.8,10.8-20.8,24.3-35.4,31.9C279.4,256.4,293.9,251.9,301.8,247.7Z" fill="#fbe7cf"/>
        <path id="Path_4480" data-name="Path 4480" d="M109,164.1s-15.6,57.2-16.1,67.3,30.9,30.1,32.2,31.1-1.8-34.8-1.8-34.8l10.6-52.2Z" fill="#fff" stroke="#333" stroke-linecap="round" stroke-linejoin="round" stroke-width="1"/>
        <path id="Path_628" data-name="Path 628" d="M125.1,250.9c-9.2-7.9-22.7-19-24.3-23.7-2.4-7.1,15.6-58.6,15.6-58.6l-.3-1.6-6.8-3.2S93.7,221,93.2,231.1s30.9,30.1,32.2,31.1C125.6,263,125.4,257.7,125.1,250.9Z" fill="#fbe7cf"/>
      </g>
      <g id="Group_1272" data-name="Group 1272">
        <path id="Path_4481" data-name="Path 4481" d="M182.3,106.6s-6.1,4.2-17.7,4.8c-11.9.5-12.4-7.9-26.9-7.9-17.7,0-39.8,55.9-39.8,55.9s11.1,10.8,21.9,15.3a81.9,81.9,0,0,0,18.7,5.5l1.6,36.7h119l1.3-36.7,37.2-24.3s-18.2-32.7-27.2-44.8-23.7-7.7-28.2-4.5-17.9,4-23,3.2-19.2-5.3-19.2-5.3S192.4,98.1,182.3,106.6Z" fill="#3f7be4" stroke="#000" stroke-miterlimit="10" stroke-width="0.5"/>
        <line id="Line_1" data-name="Line 1" x1="0.5" y2="60.9" transform="translate(139.1 119.8)" fill="none" stroke="#333" stroke-linecap="round" stroke-linejoin="round" stroke-width="0.5"/>
        <path id="Path_4482" data-name="Path 4482" d="M143.8,125.3s1.6,29.8,7.9,46.4" fill="none" stroke="#333" stroke-linecap="round" stroke-linejoin="round" stroke-width="0.5"/>
        <path id="Path_4483" data-name="Path 4483" d="M153.1,173.8s3.2,9,5,11.9" fill="none" stroke="#333" stroke-linecap="round" stroke-linejoin="round" stroke-width="0.5"/>
        <path id="Path_4484" data-name="Path 4484" d="M147.8,121.9s3.7,17.7,9.5,31.7" fill="none" stroke="#333" stroke-linecap="round" stroke-linejoin="round" stroke-width="0.5"/>
        <path id="Path_4485" data-name="Path 4485" d="M251.2,127.2s-5.8,23.5-10.8,34" fill="none" stroke="#333" stroke-linecap="round" stroke-linejoin="round" stroke-width="0.5"/>
        <line id="Line_2" data-name="Line 2" x1="0.3" y1="47.4" transform="translate(260.4 133)" fill="none" stroke="#333" stroke-linecap="round" stroke-linejoin="round" stroke-width="0.5"/>
        <path id="Path_4486" data-name="Path 4486" d="M258,133.8s-4.2,30.1-14.8,45.9" fill="none" stroke="#333" stroke-linecap="round" stroke-linejoin="round" stroke-width="0.5"/>
        <path id="Path_4487" data-name="Path 4487" d="M252.8,173.6a150.6,150.6,0,0,1-8.2,14" fill="none" stroke="#333" stroke-linecap="round" stroke-linejoin="round" stroke-width="0.5"/>
        <path id="Path_4488" data-name="Path 4488" d="M175.5,110.3s3.4,20.6,8.2,31.1,13.2,12.7,20.3,9.5,12.4-18.5,12.1-38.2" fill="none" stroke="#333" stroke-linecap="round" stroke-linejoin="round" stroke-width="0.5"/>
      </g>
      <g id="Group_1273" data-name="Group 1273">
        <path id="Path_4489" data-name="Path 4489" d="M158.6,67s-4.5-7.9-8.2-4,2.9,13.5,6.6,16.6,6.3,1.3,6.1-2.1C162.6,74.4,158.6,67,158.6,67Z" fill="#fbe7cf" stroke="#000" stroke-miterlimit="10" stroke-width="0.5"/>
        <path id="Path_4490" data-name="Path 4490" d="M231.1,67s4.5-7.9,8.2-4-2.9,13.5-6.6,16.6-6.3,1.3-6.1-2.1C227.2,74.4,231.1,67,231.1,67Z" fill="#fbe7cf" stroke="#000" stroke-miterlimit="10" stroke-width="0.5"/>
        <path id="Path_4491" data-name="Path 4491" d="M180.2,105s4.2,19.5,8.7,30.3c4.2,10.8,12.4,10.8,15.8,4s5.5-33,5.5-33S187.6,109.2,180.2,105Z" fill="#fff" stroke="#333" stroke-linecap="round" stroke-linejoin="round" stroke-width="1"/>
        <path id="Path_4492" data-name="Path 4492" d="M159.1,69.7s6.3,22.2,17.9,35.1c11.9,12.9,16.1,16.1,22.4,15s12.9-9.2,22.4-26.1c9.2-17.1,10-30.1,10.8-31.1.8-1.3-1.9-25.3-15.3-35.6s-28.2-14.7-41.4-3.7C162.8,34.6,154.6,53,159.1,69.7Z" fill="#fff" stroke="#333" stroke-linecap="round" stroke-linejoin="round" stroke-width="1"/>
        <path id="Path_629" data-name="Path 629" d="M217.1,26.9c-13.4-10.3-28.2-14.8-41.4-3.7C162.8,34.5,154.6,53,158.8,69.6c0,0,1.3,4.2,3.4,10a3.861,3.861,0,0,1,.3-2.1c2.9-9,11.3-26.7,39.8-18.7C225,65.1,222.1,85.2,220,95.7c.5-.8.8-1.3,1.3-2.1,9.2-17.2,10-30.1,10.8-31.1C233.2,61.2,230.6,37.2,217.1,26.9Z" fill="#fbe7cf"/>
        <path id="Path_4493" data-name="Path 4493" d="M199.5,81.3a136.213,136.213,0,0,0-1.3,14.2c.3,4.8,1.6,6.3-.5,6.6-2.1.5-4.5-2.9-4.5-2.9" fill="none" stroke="#333" stroke-linecap="round" stroke-linejoin="round" stroke-width="1"/>
        <path id="Path_4494" data-name="Path 4494" d="M190.8,77s-4.5-11.3-19.8-6" fill="none" stroke="#333" stroke-linecap="round" stroke-linejoin="round" stroke-width="1"/>
        <path id="Path_4495" data-name="Path 4495" d="M203.2,75.7s4-11.1,17.4-4.5" fill="none" stroke="#333" stroke-linecap="round" stroke-linejoin="round" stroke-width="1"/>
        <path id="Path_4496" data-name="Path 4496" d="M193.7,86c0,6.1-7.1,11.1-15.8,11.1S162,92.1,162,86s6.6-8.7,15.3-8.7C186,77,193.7,79.7,193.7,86Z" fill="none" stroke="#333" stroke-linecap="round" stroke-linejoin="round" stroke-width="1"/>
        <path id="Path_4497" data-name="Path 4497" d="M230.1,86c0,6.1-7.1,11.1-15.8,11.1s-15.8-5-15.8-11.1,6.6-8.7,15.3-8.7C222.4,77,230.1,79.7,230.1,86Z" fill="none" stroke="#333" stroke-linecap="round" stroke-linejoin="round" stroke-width="1"/>
      </g>
      <g id="Group_1274" data-name="Group 1274">
        <path id="Path_4498" data-name="Path 4498" d="M27.8,278.3l-1,97.3c0,.5,1.3,1,2.9,1h0c1.6,0,2.9-.5,2.9-1l6.9-97.3Z" fill="#fff" stroke="#333" stroke-linecap="round" stroke-linejoin="round" stroke-width="1"/>
        <path id="Path_4499" data-name="Path 4499" d="M11.4,301.2,10.4,402c0,.5,1.3,1.1,2.9,1.1h0c1.6,0,2.9-.5,2.9-1.1L23,301.5Z" fill="#fff" stroke="#333" stroke-linecap="round" stroke-linejoin="round" stroke-width="1"/>
        <path id="Path_4500" data-name="Path 4500" d="M364.1,278.3l1.1,97.3c0,.5-1.3,1-2.9,1h0c-1.6,0-2.9-.5-2.9-1l-6.9-97.3Z" fill="#fff" stroke="#333" stroke-linecap="round" stroke-linejoin="round" stroke-width="1"/>
        <path id="Path_4501" data-name="Path 4501" d="M380.4,301.2l1,100.8c0,.5-1.3,1.1-2.9,1.1h0c-1.6,0-2.9-.5-2.9-1.1l-6.9-100.5Z" fill="#fff" stroke="#333" stroke-linecap="round" stroke-linejoin="round" stroke-width="1"/>
      </g>
      <g id="Group_1275" data-name="Group 1275">
        <path id="Path_4502" data-name="Path 4502" d="M390.7,321.6l-7.1-6.6L367,278.8a9.586,9.586,0,0,0-8.7-5.5H33.6a9.761,9.761,0,0,0-8.7,5.5L4,323.9.6,322.6v10.3H.9a5.738,5.738,0,0,0,5.8,5H385.2a5.855,5.855,0,0,0,5.8-5.3Z" fill="#333" stroke="#333" stroke-linecap="round" stroke-linejoin="round" stroke-width="1"/>
        <path id="Path_4503" data-name="Path 4503" d="M384.9,328.4H6.4c-4.2,0-7.1-4.2-5.3-7.6l23.7-50.9a9.586,9.586,0,0,1,8.7-5.5H358a9.762,9.762,0,0,1,8.7,5.5l23.7,50.9C392,324.5,389.1,328.4,384.9,328.4Z" fill="#fff" stroke="#333" stroke-linecap="round" stroke-linejoin="round" stroke-width="1"/>
        <path id="Path_630" data-name="Path 630" d="M25.6,294.1s-8.4,5.8-3.2,7.9,67,.5,74.4-1.6,16.1-21.9,16.1-25.1-10.8-5.5-14.8-5.8-56.5,2.9-56.5,2.9Z" fill="#f4bd58"/>
        <ellipse id="Ellipse_83" data-name="Ellipse 83" cx="21.9" cy="9.2" rx="21.9" ry="9.2" transform="translate(310.3 286)" fill="#fcd392"/>
        <ellipse id="Ellipse_84" data-name="Ellipse 84" cx="78.6" cy="14.8" rx="78.6" ry="14.8" transform="translate(113.8 285.9)" fill="#f4bd58"/>
      </g>
      <g id="Group_1276" data-name="Group 1276">
        <path id="Path_4504" data-name="Path 4504" d="M316.1,259.3s-1.3-5.8-6.3-4-4.2,14.8-3.4,21.9c1,7.1,7.4,4,7.4,4V277s-2.4,1.9-3.7-.8-1-15.8.3-15.6,3.7,4.2,3.7,4.2S314.8,264.3,316.1,259.3Z" fill="#f4bd58" stroke="#000" stroke-miterlimit="10" stroke-width="1"/>
        <path id="Path_4505" data-name="Path 4505" d="M312.6,260.4V292c0,3.7,8.4,6.6,19,6.6s19-2.9,19-6.6V260.4Z" fill="#f4bd58"/>
        <path id="Path_4506" data-name="Path 4506" d="M350.6,260.4c0,3.2-8.4,5.8-19,5.8s-19-2.6-19-5.8,8.4-5.8,19-5.8S350.6,257.2,350.6,260.4Z" fill="#fff" stroke="#333" stroke-linecap="round" stroke-linejoin="round" stroke-width="1"/>
        <path id="Path_4507" data-name="Path 4507" d="M348.3,260.4c0,2.9-7.4,5-16.6,5s-16.6-2.4-16.6-5c0-2.9,7.4-5,16.6-5S348.3,257.5,348.3,260.4Z" fill="#fff" stroke="#333" stroke-linecap="round" stroke-linejoin="round" stroke-width="1"/>
        <path id="Path_4508" data-name="Path 4508" d="M319,263.5a39.045,39.045,0,0,0,12.7,1.8,41.945,41.945,0,0,0,12.7-1.8,43.395,43.395,0,0,0-25.4,0Z" fill="#333" stroke="#333" stroke-linecap="round" stroke-linejoin="round" stroke-width="1"/>
      </g>
      <g id="Group_1277" data-name="Group 1277">
        <path id="Path_4509" data-name="Path 4509" d="M23.3,274.9l.3,10.5,72.8.8V273.8Z" fill="#fff" stroke="#333" stroke-linecap="round" stroke-linejoin="round" stroke-width="1"/>
        <path id="Path_4510" data-name="Path 4510" d="M96.3,286.2l10.6-22.7v-6.9L95.8,275.9Z" fill="#fff" stroke="#333" stroke-linecap="round" stroke-linejoin="round" stroke-width="1"/>
        <path id="Path_4511" data-name="Path 4511" d="M23.3,284.6l.3,10.8,72.8.8V283.5Z" fill="#fff" stroke="#333" stroke-linecap="round" stroke-linejoin="round" stroke-width="1"/>
        <path id="Path_4512" data-name="Path 4512" d="M96.3,296.2l10.6-23v-6.6l-11.1,19Z" fill="#fff" stroke="#333" stroke-linecap="round" stroke-linejoin="round" stroke-width="1"/>
        <path id="Path_4513" data-name="Path 4513" d="M51.5,247.4s1.6-3.4-.8-4.8-5,1.9-6.6,3.2S12.5,267,11.4,270.1s0,10,6.6,10.8,12.1-3.7,15-4.2c2.9-.8,4-1.1,4-1.1l20-26.9Z" fill="#fff" stroke="#333" stroke-linecap="round" stroke-linejoin="round" stroke-width="1"/>
        <path id="Path_4514" data-name="Path 4514" d="M18,280.7c6.6.8,12.1-3.7,15-4.2,2.9-.8,4-1.1,4-1.1l.8-1-18.7-4a6.2,6.2,0,0,0-7.6-.8C10.6,273,11.7,280.1,18,280.7Z" fill="#fff" stroke="#333" stroke-linecap="round" stroke-linejoin="round" stroke-width="1"/>
        <path id="Path_4515" data-name="Path 4515" d="M19.3,270.6H75.5c17.4,0,22.7-1,22.7-1L109,247.1s-34,2.1-44.6,1.3-12.9-1.3-12.9-1.3Z" fill="#fff" stroke="#333" stroke-linecap="round" stroke-linejoin="round" stroke-width="1"/>
        <path id="Path_4516" data-name="Path 4516" d="M19.3,270.6l1,4.2s45.6.3,57.5.3c12.1,0,21.1.5,21.1.5l-.8-6.1Z" fill="#fff" stroke="#333" stroke-linecap="round" stroke-linejoin="round" stroke-width="1"/>
        <path id="Path_4517" data-name="Path 4517" d="M99,275.7l10-23v-5.3L98.2,269.6Z" fill="#fff" stroke="#333" stroke-linecap="round" stroke-linejoin="round" stroke-width="1"/>
      </g>
      <g id="Group_1278" data-name="Group 1278">
        <path id="Path_4518" data-name="Path 4518" d="M261.2,302.6H123.5a2.369,2.369,0,0,1-2.4-2.4h0a2.433,2.433,0,0,1,2.4-2.4H261.2a2.369,2.369,0,0,1,2.4,2.4h0A2.581,2.581,0,0,1,261.2,302.6Z" fill="#fff" stroke="#333" stroke-linecap="round" stroke-linejoin="round" stroke-width="1"/>
        <path id="Path_4519" data-name="Path 4519" d="M262.3,298.1H122.5a2,2,0,0,1-2.1-1.8l-7.6-91.5a2.212,2.212,0,0,1,1.9-2.4H270a2.135,2.135,0,0,1,2.1,2.2v.2l-7.6,91.5A2.577,2.577,0,0,1,262.3,298.1Z" fill="#fff" stroke="#333" stroke-linecap="round" stroke-linejoin="round" stroke-width="1"/>
        <g id="ionic">
          <g id="Ellipse_162" data-name="Ellipse 162" opacity="0.2">
            <circle id="Ellipse_577" data-name="Ellipse 577" cx="18.6" cy="18.6" r="18.6" transform="translate(170.63 232.578)" fill="#4586f7"/>
          </g>
          <g id="Ellipse_220" data-name="Ellipse 220">
            <path id="Path_4520" data-name="Path 4520" d="M192.23,272.078a21.6,21.6,0,1,1,21.6-21.6A21.638,21.638,0,0,1,192.23,272.078Zm0-41.1a19.4,19.4,0,1,0,19.4,19.4A19.418,19.418,0,0,0,192.23,230.978Z" fill="#fff"/>
          </g>
          <g id="Ellipse_221" data-name="Ellipse 221">
            <path id="Path_4521" data-name="Path 4521" d="M193.03,271.778a20.6,20.6,0,1,1,20.6-20.6A20.571,20.571,0,0,1,193.03,271.778Zm0-41a20.5,20.5,0,1,0,20.5,20.5A20.528,20.528,0,0,0,193.03,230.778Z" fill="#373f54"/>
          </g>
          <g id="Ellipse_163" data-name="Ellipse 163">
            <path id="Path_4522" data-name="Path 4522" d="M191.03,270.978a21.6,21.6,0,1,1,21.6-21.6A21.638,21.638,0,0,1,191.03,270.978Zm0-41.1a19.4,19.4,0,1,0,19.4,19.4A19.418,19.418,0,0,0,191.03,229.878Z" fill="#373f54"/>
          </g>
          <g id="Ellipse_164" data-name="Ellipse 164">
            <circle id="Ellipse_578" data-name="Ellipse 578" cx="8.4" cy="8.4" r="8.4" transform="translate(182.63 240.978)" fill="#373f54"/>
          </g>
          <g id="Ellipse_165" data-name="Ellipse 165">
            <circle id="Ellipse_579" data-name="Ellipse 579" cx="4" cy="4" r="4" transform="translate(201.73 230.578)" fill="#3f7be4"/>
          </g>
          <g id="Ellipse_167" data-name="Ellipse 167">
            <circle id="Ellipse_580" data-name="Ellipse 580" cx="2.5" cy="2.5" r="2.5" transform="translate(208.63 264.778)" fill="#3f7be4"/>
          </g>
          <g id="Ellipse_168" data-name="Ellipse 168">
            <circle id="Ellipse_581" data-name="Ellipse 581" cx="1.2" cy="1.2" r="1.2" transform="translate(204.73 269.078)" fill="#3f7be4"/>
          </g>
        </g>
      </g>
      <g id="Group_1279" data-name="Group 1279">
        <path id="Path_4523" data-name="Path 4523" d="M342.2,180.4a11.994,11.994,0,0,0,4.2-6.6,12.635,12.635,0,0,0-.3-6.1" fill="none" stroke="#333" stroke-linecap="round" stroke-linejoin="round" stroke-width="1"/>
        <path id="Path_4524" data-name="Path 4524" d="M326.1,251.9s13.5-7.9,9-17.1-19-15.3-19-29.6c0-12.4,13.2-16.9,21.6-21.9" fill="none" stroke="#333" stroke-linecap="round" stroke-linejoin="round" stroke-width="1"/>
        <path id="Path_4525" data-name="Path 4525" d="M338.5,251.7s7.4-5,7.4-12.9c0-5.3-5.5-8.7-13.2-17.1" fill="none" stroke="#333" stroke-linecap="round" stroke-linejoin="round" stroke-width="1"/>
        <path id="Path_4526" data-name="Path 4526" d="M328.7,216.6s-4.8-4-1.3-11.1" fill="none" stroke="#333" stroke-linecap="round" stroke-linejoin="round" stroke-width="1"/>
      </g>
      <path id="Path_631" data-name="Path 631" d="M175.5,56.5s18.7-.5,35.6,8.2,30.1-7.9,22.1-16.4,10.3,9.2,13.2-1.3S223,.5,196.3,0s-33,16.6-33,16.6-3.2-9-5.5-4a22.188,22.188,0,0,0-2.4,8.7s-5.3,4.2-7.6,6.6.8,5,.8,5-4.8,12.4-2.1,21.6l13.7,20.6s4.8.3,8.4-4.8c3.4-4.8.8-19.8.8-19.8s.3,16.1,4.5,12.7S171.8,44,171.8,44Z" fill="#1a2e35"/>
      <ellipse id="Ellipse_89" data-name="Ellipse 89" cx="1.9" cy="0.8" rx="1.9" ry="0.8" transform="translate(178.6 85.5)" fill="none" stroke="#333" stroke-linecap="round" stroke-linejoin="round" stroke-width="5"/>
      <ellipse id="Ellipse_90" data-name="Ellipse 90" cx="1.9" cy="0.8" rx="1.9" ry="0.8" transform="translate(208.1 84.1)" fill="none" stroke="#333" stroke-linecap="round" stroke-linejoin="round" stroke-width="5"/>
    </g>
    <g id="obj1">
      <path id="Path_4527" data-name="Path 4527" d="M111.1,86.8H8.8a7.383,7.383,0,0,1-7.4-7.4V44.8a7.383,7.383,0,0,1,7.4-7.4H111.2a7.362,7.362,0,0,1,7.4,7.3h0V79.3A7.689,7.689,0,0,1,111.1,86.8Z" fill="#333" stroke="#333" stroke-linecap="round" stroke-linejoin="round" stroke-width="1"/>
      <g id="Group_1371" data-name="Group 1371">
        <path id="Path_820" data-name="Path 820" d="M15.4,44.1l.5,1.1c-2.6,1.6-5,4-5,6.9a3.851,3.851,0,0,0,3.6,4.2h.1a.472.472,0,0,0,.5-.5h0a.472.472,0,0,0-.5-.5h0A2.3,2.3,0,0,1,13,52.9c0-1.8,1.6-2.9,3.4-2.9a3.436,3.436,0,0,1,3.4,3.4,4.355,4.355,0,0,1-4.5,4.2,5.158,5.158,0,0,1-5.5-4.8h0v-.4C9.8,48.5,12.5,45.7,15.4,44.1Zm11.6,0,.5,1.1c-2.6,1.6-5,4-5,6.9a3.851,3.851,0,0,0,3.6,4.2h.1a.5.5,0,1,0,0-1,2.5,2.5,0,0,1-1.6-2.4c0-1.8,1.6-2.9,3.4-2.9a3.372,3.372,0,0,1,3.4,3.4,4.355,4.355,0,0,1-4.5,4.2,5.158,5.158,0,0,1-5.5-4.8h0v-.4A9.934,9.934,0,0,1,27,44.1Z" fill="#f4bd58"/>
      </g>
      <line id="Line_3" data-name="Line 3" x2="66.8" transform="translate(38 54.1)" fill="none" stroke="#fff" stroke-linecap="round" stroke-linejoin="round" stroke-width="1"/>
      <line id="Line_4" data-name="Line 4" x2="66.8" transform="translate(38 59.9)" fill="none" stroke="#fff" stroke-linecap="round" stroke-linejoin="round" stroke-width="1"/>
      <line id="Line_5" data-name="Line 5" x2="66.8" transform="translate(38 65.7)" fill="none" stroke="#fff" stroke-linecap="round" stroke-linejoin="round" stroke-width="1"/>
      <line id="Line_6" data-name="Line 6" x2="66.8" transform="translate(38 71.2)" fill="none" stroke="#fff" stroke-linecap="round" stroke-linejoin="round" stroke-width="1"/>
    </g>
    <g id="obj2">
      <circle id="Ellipse_582" data-name="Ellipse 582" cx="25.3" cy="25.3" r="25.3" transform="translate(27.2 131.5)" fill="#333" stroke="#333" stroke-linecap="round" stroke-linejoin="round" stroke-width="1"/>
      <circle id="Ellipse_583" data-name="Ellipse 583" cx="21.4" cy="21.4" r="21.4" transform="translate(31.2 135.5)" fill="#fff" stroke="#333" stroke-linecap="round" stroke-linejoin="round" stroke-width="1"/>
      <path id="Path_4528" data-name="Path 4528" d="M52.5,141.1v15.6H63.1" fill="none" stroke="#333" stroke-linecap="round" stroke-linejoin="round" stroke-width="2"/>
    </g>
    <g id="obj3">
      <path id="Path_4529" data-name="Path 4529" d="M376,66.8H316.6a8.706,8.706,0,0,0-8.7,8.7v31.9a8.706,8.706,0,0,0,8.7,8.7h1.8c-1.8,4.2-5.3,10.3-11.1,14,0,0,12.1-.8,24.5-14H376a8.838,8.838,0,0,0,8.7-8.7v-32A8.686,8.686,0,0,0,376,66.8Z" fill="#333" stroke="#333" stroke-linecap="round" stroke-linejoin="round" stroke-width="1"/>
      <g id="Group_1372" data-name="Group 1372">
        <path id="Path_4530" data-name="Path 4530" d="M335.9,90.2a4.5,4.5,0,1,0-4.5,4.5h0C334,95,335.9,92.9,335.9,90.2Z" fill="#f4bd58"/>
        <path id="Path_4531" data-name="Path 4531" d="M351.4,90.2a4.5,4.5,0,1,0-4.5,4.5h0a4.273,4.273,0,0,0,4.5-4.1Z" fill="#f4bd58"/>
        <path id="Path_4532" data-name="Path 4532" d="M366.7,90.2a4.5,4.5,0,1,0-4.5,4.5h0C364.9,95,366.7,92.9,366.7,90.2Z" fill="#f4bd58"/>
      </g>
    </g>
  </g>
</svg>
