<svg xmlns="http://www.w3.org/2000/svg" viewBox="0 0 32.1 32"><defs><style>.cls-1{opacity:0.2;}.cls-2{fill:#4586f7;}.cls-3{fill:#fff;}.cls-4{fill:#373f54;}.cls-5{fill:#3f7be4;}</style></defs><g id="Layer_2" data-name="Layer 2"><g id="Layer_1-2" data-name="Layer 1"><g id="ionic"><g id="Ellipse_162" data-name="Ellipse 162" class="cls-1"><circle id="Ellipse_577" data-name="Ellipse 577" class="cls-2" cx="14.3" cy="17" r="13.4"/></g><g id="Ellipse_220" data-name="Ellipse 220"><path id="Path_4520" data-name="Path 4520" class="cls-3" d="M16.5,32A15.6,15.6,0,1,1,32.1,16.4,15.62,15.62,0,0,1,16.5,32Zm0-29.6a14,14,0,1,0,14,14h0A14.11,14.11,0,0,0,16.5,2.4Z"/></g><g id="Ellipse_221" data-name="Ellipse 221"><path id="Path_4521" data-name="Path 4521" class="cls-4" d="M17.1,31.8A14.8,14.8,0,1,1,31.9,17,14.77,14.77,0,0,1,17.1,31.8Zm0-29.5A14.8,14.8,0,1,0,31.9,17.1,14.77,14.77,0,0,0,17.1,2.3Z"/></g><g id="Ellipse_163" data-name="Ellipse 163"><path id="Path_4522" data-name="Path 4522" class="cls-4" d="M15.6,31.2A15.6,15.6,0,1,1,31.2,15.6,15.62,15.62,0,0,1,15.6,31.2Zm0-29.6a14,14,0,1,0,14,14h0a14,14,0,0,0-14-14Z"/></g><g id="Ellipse_164" data-name="Ellipse 164"><circle id="Ellipse_578" data-name="Ellipse 578" class="cls-4" cx="15.6" cy="15.7" r="6.1"/></g><g id="Ellipse_165" data-name="Ellipse 165"><circle id="Ellipse_579" data-name="Ellipse 579" class="cls-5" cx="26.2" cy="5" r="2.9"/></g><g id="Ellipse_167" data-name="Ellipse 167"><circle id="Ellipse_580" data-name="Ellipse 580" class="cls-5" cx="30.1" cy="28.6" r="1.8"/></g><g id="Ellipse_168" data-name="Ellipse 168"><circle id="Ellipse_581" data-name="Ellipse 581" class="cls-5" cx="26.3" cy="30.7" r="0.9"/></g></g></g></g></svg>