<svg xmlns="http://www.w3.org/2000/svg" viewBox="0 0 29.9 32.51"><defs><style>.cls-1{opacity:0.4;isolation:isolate;}.cls-2{stroke:#000;stroke-width:0.5px;}</style></defs><g id="Layer_2" data-name="Layer 2"><g id="Layer_1-2" data-name="Layer 1"><path id="Path_408" data-name="Path 408" class="cls-1" d="M14.1,28.58a3.29,3.29,0,0,1-1.7.4h0c-1.7,0-3.1-1.8-4.2-3.5a14.67,14.67,0,0,1-2.5-10.4,6.94,6.94,0,0,1,6.2-5.9,6.6,6.6,0,0,1,2.7.6,11,11,0,0,0,2.6.6,6.87,6.87,0,0,0,2.4-.5,7.17,7.17,0,0,1,2.9-.6,6.55,6.55,0,0,1,4.2,1.9l.1.1-.1.1a5.94,5.94,0,0,0-2.3,3.1,6.76,6.76,0,0,0,3.3,8.3h.1v.1a21.48,21.48,0,0,1-1.4,2.6c-1.1,1.7-2.6,3.7-4.3,3.7h0a5.26,5.26,0,0,1-1.7-.4,6,6,0,0,0-3-.7h0A5.23,5.23,0,0,0,14.1,28.58Z"/><path id="Path_409" data-name="Path 409" class="cls-2" d="M15.65,8.45a.76.76,0,0,1-.5-.2.6.6,0,0,1-.3-.6,7.4,7.4,0,0,1,5.9-7.4,1,1,0,0,1,.7.2.71.71,0,0,1,.3.6,7.42,7.42,0,0,1-5.9,7.4Zm4.4-6.3a5.5,5.5,0,0,0-3.5,4.4,5.68,5.68,0,0,0,3.5-4.4Z"/><path id="Path_410" data-name="Path 410" class="cls-2" d="M21.62,32.26a9.9,9.9,0,0,1-3.79-.8,5.45,5.45,0,0,0-2.2-.5,5.45,5.45,0,0,0-2.2.5,10,10,0,0,1-3.8.8c-3,0-8.1-7.3-8.1-14.7.09-6.9,4.4-9.4,8.2-9.4a8.76,8.76,0,0,1,3.2.7,5.91,5.91,0,0,0,2.69.6,6.71,6.71,0,0,0,2.8-.6,8.76,8.76,0,0,1,3.2-.7,7.92,7.92,0,0,1,5.8,2.5.6.6,0,0,1,.2.7c0,.2-.2.4-.39.6a5.68,5.68,0,0,0-2.9,5,5.4,5.4,0,0,0,3.5,5.2.73.73,0,0,1,.4,1C26.83,27.56,24,32.26,21.62,32.26Zm-6-2.9a6.71,6.71,0,0,1,2.8.6,7.11,7.11,0,0,0,3.2.7c1,0,3.4-2.9,5-7.4a7.07,7.07,0,0,1-3.79-6.4h0a7.37,7.37,0,0,1,2.79-5.7,6.28,6.28,0,0,0-4-1.4h0a5.9,5.9,0,0,0-2.6.6,10.45,10.45,0,0,1-3.4.8,9.77,9.77,0,0,1-3.39-.7,7.77,7.77,0,0,0-2.61-.7c-1.09,0-6.39.4-6.39,7.8,0,7.2,4.89,13.1,6.5,13.1a7.11,7.11,0,0,0,3.2-.7,5.91,5.91,0,0,1,2.69-.6Z"/><circle id="Ellipse_142" data-name="Ellipse 142" cx="2.5" cy="5.89" r="2.5"/><circle id="Ellipse_143" data-name="Ellipse 143" cx="7.1" cy="1.89" r="1"/><circle id="Ellipse_144" data-name="Ellipse 144" cx="28.3" cy="30.58" r="1.6"/></g></g></svg>