<svg xmlns="http://www.w3.org/2000/svg" viewBox="0 0 28.8 28.8"><defs><style>.cls-1{fill:#404040;}</style></defs><g id="Layer_2" data-name="Layer 2"><g id="Layer_1-2" data-name="Layer 1"><path id="Path_13" data-name="Path 13" class="cls-1" d="M14.5,11.7a4,4,0,1,0-4,3.9h.1A3.9,3.9,0,0,0,14.5,11.7Zm-3.9,2.4A2.4,2.4,0,1,1,13,11.7h0a2.5,2.5,0,0,1-2.4,2.4Z"/><path id="Path_14" data-name="Path 14" class="cls-1" d="M14.5,4.7H1.9V20.4H.4v2.4a2.49,2.49,0,0,0,2.3,2.4h22A2.35,2.35,0,0,0,27,22.8V20.4H25.4V7.8H27V0H14.5V4.7Zm11,18a.79.79,0,0,1-.8.8H2.7a.79.79,0,0,1-.8-.8h0v-.8H25.5Zm-11-2.4H6.6v-.8A2.43,2.43,0,0,1,9,17.1h3.1a2.37,2.37,0,0,1,2.4,2.4Zm9.4,0H16.1v-.8a3.93,3.93,0,0,0-4-3.9H9a4,4,0,0,0-4,3.9v.8H3.5V6.3H14.6V9.9l4.1-2H24ZM16.1,1.6h9.4V6.3H18.3L16.1,7.4V1.6Z"/><path id="Path_15" data-name="Path 15" class="cls-1" d="M16.9,3.1h1.6V4.7H16.9Z"/><path id="Path_16" data-name="Path 16" class="cls-1" d="M20,3.1h1.6V4.7H20V3.1Z"/><path id="Path_17" data-name="Path 17" class="cls-1" d="M23.1,3.1h1.6V4.7H23.1Z"/><circle id="Ellipse_20-2" data-name="Ellipse 20-2" class="cls-1" cx="1.1" cy="2.1" r="1.1"/><circle id="Ellipse_21-2" data-name="Ellipse 21-2" class="cls-1" cx="4.2" cy="3.1" r="0.6"/><circle id="Ellipse_22-2" data-name="Ellipse 22-2" class="cls-1" cx="15.8" cy="27.7" r="1.1"/><circle id="Ellipse_23-2" data-name="Ellipse 23-2" class="cls-1" cx="13.5" cy="26.6" r="0.6"/><circle id="Ellipse_24-2" data-name="Ellipse 24-2" class="cls-1" cx="27.7" cy="15.7" r="1.1"/></g></g></svg>