<svg xmlns="http://www.w3.org/2000/svg" viewBox="0 0 29.6 29.6"><defs><style>.cls-1{fill:#a0e4d5;}</style></defs><g id="Layer_2" data-name="Layer 2"><g id="Layer_1-2" data-name="Layer 1"><rect id="Rectangle_2-3" data-name="Rectangle 2-3" class="cls-1" x="1.7" y="7.5" width="20.1" height="15.8"/><path id="Path_13-2" data-name="Path 13-2" d="M14.9,12.1a4.05,4.05,0,1,0-4.1,4h.1A4,4,0,0,0,14.9,12.1Zm-4,2.4a2.4,2.4,0,1,1,2.4-2.4,2.43,2.43,0,0,1-2.4,2.4Z"/><path id="Path_14-2" data-name="Path 14-2" d="M14.9,4.8H2V20.9H.4v2.4a2.43,2.43,0,0,0,2.4,2.4H25.4a2.43,2.43,0,0,0,2.4-2.4V20.9H26.2V8h1.6V0H14.9ZM26.2,23.3a.86.86,0,0,1-.8.8H2.8a.86.86,0,0,1-.8-.8v-.8H26.2ZM14.9,20.9H6.8v-.8a2.46,2.46,0,0,1,2.5-2.4h3.2A2.59,2.59,0,0,1,15,20.1Zm9.7,0h-8v-.8a4,4,0,0,0-4.1-4H9.3a4.1,4.1,0,0,0-4.1,4v.8H3.6V6.4H15v3.7L19.2,8h5.4Zm-8-19.3h9.7V6.4H18.9L16.7,7.5l-.1-5.9Z"/><path id="Path_15-2" data-name="Path 15-2" d="M17.4,3.2H19V4.8H17.4Z"/><path id="Path_16-2" data-name="Path 16-2" d="M20.6,3.2h1.6V4.8H20.6V3.2Z"/><path id="Path_17-2" data-name="Path 17-2" d="M23.8,3.2h1.6V4.8H23.8Z"/><circle id="Ellipse_20-3" data-name="Ellipse 20-3" class="cls-1" cx="1.1" cy="2.2" r="1.1"/><circle id="Ellipse_21-3" data-name="Ellipse 21-3" class="cls-1" cx="4.3" cy="3.2" r="0.6"/><circle id="Ellipse_22-3" data-name="Ellipse 22-3" class="cls-1" cx="16.3" cy="28.5" r="1.1"/><circle id="Ellipse_23-3" data-name="Ellipse 23-3" class="cls-1" cx="13.9" cy="27.3" r="0.6"/><circle id="Ellipse_24-3" data-name="Ellipse 24-3" class="cls-1" cx="28.5" cy="16.1" r="1.1"/></g></g></svg>