<svg xmlns="http://www.w3.org/2000/svg" viewBox="0 0 30.9 31"><defs><style>.cls-1{fill:#404040;}</style></defs><g id="Layer_2" data-name="Layer 2"><g id="Layer_1-2" data-name="Layer 1"><path id="Path_308" data-name="Path 308" class="cls-1" d="M25.9,3.6H5.6A3.12,3.12,0,0,0,2.5,6.7V23.9A4.12,4.12,0,0,0,6.6,28H17.8a1,1,0,0,0,0-2H6.7a2.11,2.11,0,0,1-2.1-2.1V9.9H26.9v3.8a1,1,0,0,0,1,1,1.08,1.08,0,0,0,1-1h0v-7A2.91,2.91,0,0,0,25.9,3.6Zm-4.2,2a1,1,0,1,1-1,1h0a1,1,0,0,1,1-1Zm5.2,1.1a1,1,0,1,1-1-1h0a.94.94,0,0,1,1,1ZM4.6,6.7a1,1,0,0,1,1-1H18.8a3.75,3.75,0,0,0,0,2.1H4.6ZM24.8,22.2a1,1,0,1,1,1-1h0a1,1,0,0,1-1,1Zm3.4-4.5a7.84,7.84,0,0,1,0,7,2.72,2.72,0,0,1-2.5,1.7H22.4a3,3,0,0,1-2.6-1.7,6.47,6.47,0,0,1-.4-1.3,1,1,0,0,1,.8-1.2,1,1,0,0,1,1.2.7c.1.3.2.7.3,1a.67.67,0,0,0,.7.4h3.3a.68.68,0,0,0,.6-.4,6.26,6.26,0,0,0,.6-2.7,5.83,5.83,0,0,0-.6-2.6.67.67,0,0,0-.7-.4H22.4a.84.84,0,0,0-.7.4,3.54,3.54,0,0,0-.3,1.1,1,1,0,0,1-1,.8H13.3l-.8.8.8.8h2.9a1,1,0,0,1,1,1,1.08,1.08,0,0,1-1,1H12.8a.91.91,0,0,1-.7-.3L10.3,22a1,1,0,0,1,0-1.4l1.8-1.8a1.08,1.08,0,0,1,.7-.3h6.8c.1-.2.1-.4.2-.5a2.5,2.5,0,0,1,2.6-1.7h3.2a2.19,2.19,0,0,1,2.6,1.4Z"/><circle id="Ellipse_63" data-name="Ellipse 63" class="cls-1" cx="1.5" cy="1.5" r="1.5"/><circle id="Ellipse_64" data-name="Ellipse 64" class="cls-1" cx="4.4" cy="2.2" r="0.7"/><circle id="Ellipse_65" data-name="Ellipse 65" class="cls-1" cx="29.4" cy="29.5" r="1.5"/><circle id="Ellipse_66" data-name="Ellipse 66" class="cls-1" cx="26.3" cy="28.3" r="1"/></g></g></svg>