<svg id="background" xmlns="http://www.w3.org/2000/svg" viewBox="0 0 750 500"><defs><style>.cls-1{fill:none;stroke:#585857;stroke-miterlimit:10;stroke-width:0.5px;opacity:0.3;}</style></defs><polyline class="cls-1" points="782.13 42.12 632.71 90.02 626.09 55.61 732.09 127.36 690.25 6.65 607.18 15.58 504.42 172.03 468.24 103.3 634.91 215.53 594.2 290.43 675.59 386.06 704.91 327.42 786.35 319.33 773.1 373.85 657.02 323.51 709.02 235 632.43 282.31 519.31 232.34 532.84 381.58 647.25 385.09 439.57 318.02 556.24 312.76 564.27 432.74 491.84 435.63 597.96 400.26 613.18 443.05 581.47 484.31 487.2 377.27 578.62 325.61 484.37 256.78 448.54 358.77 451.9 416.38 508.88 478.59 384.97 401.23 337.98 487.71 454.41 434.4 423.57 377 532.84 398.28 657.02 474.03 795.05 401.23 807.54 493.35 652.82 410.5 718.65 266.44 472.24 212.96 549.56 182.71 607.18 143 680.48 208.57 767.47 147.04"/></svg>