<svg id="Layer_1" data-name="Layer 1" xmlns="http://www.w3.org/2000/svg" viewBox="0 0 238.7 448.7"><defs><style>.cls-1{fill:#f5f7f8;}</style></defs><polygon class="cls-1" points="238.7 0 0 238.7 2.3 241 238.7 4.7 238.7 0"/><polygon class="cls-1" points="238.7 11.2 5.6 244.3 8 246.6 238.7 15.9 238.7 11.2"/><polygon class="cls-1" points="238.7 22.5 11.2 249.9 13.6 252.2 238.7 27.1 238.7 22.5"/><polygon class="cls-1" points="238.7 33.7 16.8 255.5 19.2 257.9 238.7 38.4 238.7 33.7"/><polygon class="cls-1" points="238.7 44.9 22.5 261.1 24.8 263.5 238.7 49.6 238.7 44.9"/><polygon class="cls-1" points="238.7 56.1 28.1 266.7 30.4 269.1 238.7 60.8 238.7 56.1"/><polygon class="cls-1" points="238.7 67.4 33.7 272.4 36 274.7 238.7 72 238.7 67.4"/><polygon class="cls-1" points="238.7 78.6 39.3 278 41.6 280.3 238.7 83.3 238.7 78.6"/><polygon class="cls-1" points="238.7 89.8 44.9 283.6 47.3 285.9 238.7 94.5 238.7 89.8"/><polygon class="cls-1" points="238.7 101 50.5 289.2 52.9 291.5 238.7 105.7 238.7 101"/><polygon class="cls-1" points="238.7 112.3 56.1 294.8 58.5 297.1 238.7 117 238.7 112.3"/><polygon class="cls-1" points="238.7 123.5 61.8 300.4 64.1 302.8 238.7 128.2 238.7 123.5"/><polygon class="cls-1" points="238.7 134.7 67.4 306 69.7 308.4 238.7 139.4 238.7 134.7"/><polygon class="cls-1" points="238.7 146 73 311.6 75.3 314 238.7 150.6 238.7 146"/><polygon class="cls-1" points="238.7 157.2 78.6 317.3 80.9 319.6 238.7 161.9 238.7 157.2"/><polygon class="cls-1" points="238.7 168.4 84.2 322.9 86.5 325.2 238.7 173.1 238.7 168.4"/><polygon class="cls-1" points="238.7 179.6 89.8 328.5 92.2 330.8 238.7 184.3 238.7 179.6"/><polygon class="cls-1" points="238.7 190.9 95.4 334.1 97.8 336.4 238.7 195.5 238.7 190.9"/><polygon class="cls-1" points="238.7 202.1 101 339.7 103.4 342.1 238.7 206.8 238.7 202.1"/><polygon class="cls-1" points="238.7 213.3 106.7 345.3 109 347.7 238.7 218 238.7 213.3"/><polygon class="cls-1" points="238.7 224.5 112.3 350.9 114.6 353.3 238.7 229.2 238.7 224.5"/><polygon class="cls-1" points="238.7 235.8 117.9 356.6 120.2 358.9 238.7 240.5 238.7 235.8"/><polygon class="cls-1" points="238.7 247 123.5 362.2 125.8 364.5 238.7 251.7 238.7 247"/><polygon class="cls-1" points="238.7 258.2 129.1 367.8 131.5 370.1 238.7 262.9 238.7 258.2"/><polygon class="cls-1" points="238.7 269.5 134.7 373.4 137.1 375.7 238.7 274.1 238.7 269.5"/><polygon class="cls-1" points="238.7 280.7 140.3 379 142.7 381.4 238.7 285.4 238.7 280.7"/><polygon class="cls-1" points="238.7 291.9 146 384.6 148.3 387 238.7 296.6 238.7 291.9"/><polygon class="cls-1" points="238.7 303.1 151.6 390.2 153.9 392.6 238.7 307.8 238.7 303.1"/><polygon class="cls-1" points="238.7 314.4 157.2 395.9 159.5 398.2 238.7 319 238.7 314.4"/><polygon class="cls-1" points="238.7 325.6 162.8 401.5 165.1 403.8 238.7 330.3 238.7 325.6"/><polygon class="cls-1" points="238.7 336.8 168.4 407.1 170.8 409.4 238.7 341.5 238.7 336.8"/><polygon class="cls-1" points="238.7 348 174 412.7 176.4 415 238.7 352.7 238.7 348"/><polygon class="cls-1" points="238.7 359.3 179.6 418.3 182 420.6 238.7 364 238.7 359.3"/><polygon class="cls-1" points="238.7 370.5 185.3 423.9 187.6 426.3 238.7 375.2 238.7 370.5"/><polygon class="cls-1" points="238.7 381.7 190.9 429.5 193.2 431.9 238.7 386.4 238.7 381.7"/><polygon class="cls-1" points="238.7 393 196.5 435.1 198.8 437.5 238.7 397.6 238.7 393"/><polygon class="cls-1" points="238.7 404.2 202.1 440.8 204.4 443.1 238.7 408.9 238.7 404.2"/><polygon class="cls-1" points="238.7 415.4 207.7 446.4 210 448.7 238.7 420.1 238.7 415.4"/></svg>