<svg xmlns="http://www.w3.org/2000/svg" viewBox="0 0 34.3 34.3"><defs><style>.cls-1{fill:#404040;}</style></defs><g id="Layer_2" data-name="Layer 2"><g id="Layer_1-2" data-name="Layer 1"><path id="Path_286" data-name="Path 286" class="cls-1" d="M32,18h0l-8.2-6.9a6.29,6.29,0,0,0-4.1-1.5h0a6.36,6.36,0,0,0-4.5,1.9l-1.2,1a1.15,1.15,0,0,1-1.7,0,1.14,1.14,0,0,1-.3-.8,1.09,1.09,0,0,1,.4-.9h0l2.4-2.5a10.63,10.63,0,0,1,7.1-3.2l9.2,7.4a1.21,1.21,0,1,0,1.5-1.9h0L23,2.9a1.14,1.14,0,0,0-.8-.3,12.75,12.75,0,0,0-6.4,1.7A13.32,13.32,0,0,0,9.4,2.6a1.61,1.61,0,0,0-.9.3L2.3,9.1a1.15,1.15,0,0,0,0,1.7.92.92,0,0,0,.9.3,1.61,1.61,0,0,0,.9-.3L9.9,5a12.41,12.41,0,0,1,3.8.9,4.62,4.62,0,0,0-.7.7L10.6,9.1a3.63,3.63,0,0,0-1.1,2.6,3.25,3.25,0,0,0,1.1,2.5,3.72,3.72,0,0,0,5.1,0l1.1-1.1A3.93,3.93,0,0,1,19.6,12h0a4.32,4.32,0,0,1,2.6.9l8.1,6.8a1,1,0,0,1,0,1.4,1.08,1.08,0,0,1-.7.3.91.91,0,0,1-.7-.3l-.2-.2A1.2,1.2,0,0,0,27,22.6h0l.2.2.2.2.1.1a1,1,0,0,1,0,1.4h0a1,1,0,0,1-1.5.1h0l-.4-.4a1.2,1.2,0,1,0-1.7,1.7h0l.3.3h0a1.14,1.14,0,0,1,.3.8.91.91,0,0,1-.3.7,1.09,1.09,0,0,1-1.5-.1l-.1-.1-.2-.2a1.24,1.24,0,0,0-1.7.1,1.35,1.35,0,0,0,0,1.7,1.08,1.08,0,0,1,.3.7.91.91,0,0,1-.3.7,1.09,1.09,0,0,1-1.5,0l-.2-.2a3.37,3.37,0,0,0-.8-3.7h0a3.19,3.19,0,0,0-1.6-.9,3.2,3.2,0,0,0-1-2.9,3.46,3.46,0,0,0-2.1-1,3.21,3.21,0,0,0-1-2.1,3.47,3.47,0,0,0-2.2-1,3.21,3.21,0,0,0-1-2.1,3.57,3.57,0,0,0-4.9,0L3,18.2H3A3.44,3.44,0,0,0,3,23H3a3.1,3.1,0,0,0,1.8.9,3.32,3.32,0,0,0,1,2.5,3.49,3.49,0,0,0,2.4,1h.1a3,3,0,0,0,1,1.9,3.49,3.49,0,0,0,2.4,1h.2a3.52,3.52,0,0,0,1,1.9,3.47,3.47,0,0,0,4.9,0,3.69,3.69,0,0,0,2.4,1,3.5,3.5,0,0,0,3.4-2.9,3.29,3.29,0,0,0,3.3-3.1,3.42,3.42,0,0,0,3.3-3.5,3.43,3.43,0,0,0,2.8-4A4.25,4.25,0,0,0,32,18ZM6.2,21.4h0a1.08,1.08,0,0,1-.7.3.91.91,0,0,1-.7-.3,1,1,0,0,1,0-1.4h0l1.7-1.6h0a.62.62,0,0,1,.6-.4.91.91,0,0,1,.7.3.94.94,0,0,1,.1,1.3l-.1.1L6.6,20.9ZM9,24.8a1,1,0,1,1-1.4-1.4h0l.8-.8,1.3-1.2h0l.1-.1a1,1,0,0,1,1.4,1.4h0Zm3.4,2.9h0a1.09,1.09,0,0,1-1.5,0,1,1,0,0,1,0-1.4h0l1.8-1.7h0a1.08,1.08,0,0,1,.7-.3.91.91,0,0,1,.7.3,1,1,0,0,1,0,1.4h0Zm4.4,2.2h0l-.7.7a1.09,1.09,0,0,1-1.5,0,1.22,1.22,0,0,1,0-1.6l.7-.7A.91.91,0,0,1,16,28a1.14,1.14,0,0,1,.8.3,1.21,1.21,0,0,1,0,1.6Z"/><circle id="Ellipse_31" data-name="Ellipse 31" class="cls-1" cx="2.2" cy="2.2" r="2.2"/><circle id="Ellipse_32" data-name="Ellipse 32" class="cls-1" cx="1.1" cy="6.4" r="1.1"/><circle id="Ellipse_33" data-name="Ellipse 33" class="cls-1" cx="32.1" cy="32.1" r="2.2"/><circle id="Ellipse_34" data-name="Ellipse 34" class="cls-1" cx="33.2" cy="27.4" r="1.1"/></g></g></svg>