<svg xmlns="http://www.w3.org/2000/svg" viewBox="0 0 28 29.2"><defs><style>.cls-1{fill:#898989;}.cls-2{fill:#ecc29f;}.cls-3{fill:#88beda;}.cls-4{fill:#a0e4d5;}</style></defs><g id="Layer_2" data-name="Layer 2"><g id="Layer_1-2" data-name="Layer 1"><path id="Subtraction_6-2" data-name="Subtraction 6-2" d="M13.4,14h-6c-4.7,0-6,0-6-.2a10.42,10.42,0,0,1-.1-1.1C1.2,12.1,1,10.6.9,10A18,18,0,0,1,.3,6.8,13.81,13.81,0,0,1,0,4.3L6.5,2.1C10.2,1,13.1,0,13.2,0h0c.1,0,.2,1.6.2,14ZM11.9,1.6h0c-.1,0-2.4.8-5.4,1.8L1.3,5.1c.3,2.4.6,4,.8,5.1s.3,2.2.3,2.3h0a31.24,31.24,0,0,0,4.8.1H12V4.3A10.39,10.39,0,0,0,11.9,1.6ZM14.6,14h0V7c0-3.9,0-7,.1-7S19.1,1.4,28,4.3v.5a10.64,10.64,0,0,1-.3,2h0c-.2,1.3-.4,2.5-.5,3.3s-.3,2.2-.4,2.7a5.94,5.94,0,0,0-.1,1.1S25.2,14,14.6,14ZM16.1,1.6a49.64,49.64,0,0,0-.2,5.5v5.5h9.6c.4-2.6.7-4.6.9-5.8l.3-1.7c-7-2.3-10.5-3.4-10.6-3.5Z"/><path id="Subtraction_4-2" data-name="Subtraction 4-2" d="M14.7,29.2h0c-.1-.1-.1-3.2-.1-7V15.3h5.9c3.2,0,5.9,0,5.9.1a18.8,18.8,0,0,1-.3,1.9c-.2,1.1-.4,2.5-.5,3.3s-.3,1.7-.3,2-.1.7-.1.9-.1.3-.3.4a10.91,10.91,0,0,1-1.1.6c-.7.4-2.2,1.2-3.4,1.8s-2.9,1.5-3.9,2A5.08,5.08,0,0,1,14.7,29.2ZM16,16.8V22a50.42,50.42,0,0,0,.1,5.3,31.11,31.11,0,0,0,2.8-1.4c1.5-.8,3.2-1.7,3.9-2.1l1.2-.6c.1-.9.3-2.1.5-3.7.2-1.3.4-2.4.4-2.5v-.1c-.1-.1-.8-.1-4.4-.1ZM13.3,29.2a14.17,14.17,0,0,1-1.8-.8l-3.9-2c-1.2-.6-2.7-1.4-3.4-1.8-.4-.2-.7-.4-1.1-.6-.2-.1-.3-.2-.3-.4s-.1-.6-.1-.9-.2-1.1-.3-2-.4-2.4-.5-3.3a18.8,18.8,0,0,1-.3-1.9c0-.1,3.9-.1,11.7-.1v6.9c.1,3.7,0,6.8,0,6.9ZM3.1,16.8v.3a10.5,10.5,0,0,0,.2,1.3c.1.6.3,1.9.4,2.9L4,23.2c3.5,1.9,5.6,3,6.6,3.5l1.5.8V16.8Z"/><path id="Path_505-2" data-name="Path 505-2" class="cls-1" d="M2.48,6l8-1.8v7.5H4.38Z"/><path id="Path_506-2" data-name="Path 506-2" class="cls-2" d="M25.28,6.15l-7.6-1.8v7.5h5.8Z"/><path id="Path_508-2" data-name="Path 508-2" class="cls-3" d="M22.58,23.35l-5.4,1.7v-7.5h6.7Z"/><path id="Path_509-2" data-name="Path 509-2" class="cls-4" d="M5.58,23.35l5,1.7v-7.5H4.38Z"/></g></g></svg>