<svg xmlns="http://www.w3.org/2000/svg" viewBox="0 0 31.5 31.5"><defs><style>.cls-1{fill:#404040;}</style></defs><g id="Layer_2" data-name="Layer 2"><g id="Layer_1-2" data-name="Layer 1"><path id="Path_310" data-name="Path 310" class="cls-1" d="M24.7,20.4V4.9a2.48,2.48,0,0,0-2.5-2.5H9.3A2.48,2.48,0,0,0,6.8,4.9h0V26.6a2.48,2.48,0,0,0,2.5,2.5H22.2a2.48,2.48,0,0,0,2.5-2.5h0a1.3,1.3,0,0,1,1.2-1.3,1.23,1.23,0,0,1,1.3,1.2v.1a4.91,4.91,0,0,1-4.9,4.9H9.3a4.91,4.91,0,0,1-4.9-4.9V4.9A4.91,4.91,0,0,1,9.3,0H22.2a4.91,4.91,0,0,1,4.9,4.9V20.4a1.3,1.3,0,0,1-1.2,1.3c-.7.1-1.2-.5-1.2-1.3ZM14.5,25.9a1.2,1.2,0,1,0,1.2-1.2h0A1.29,1.29,0,0,0,14.5,25.9ZM17,6.8a1.3,1.3,0,0,0,1.3-1.2,1.3,1.3,0,0,0-1.2-1.3H14.5a1.3,1.3,0,0,0-1.3,1.2,1.3,1.3,0,0,0,1.2,1.3H17ZM21.3,22a1.22,1.22,0,0,0,1.2-1.2V13.3a1.25,1.25,0,1,0-2.5-.1v6.4H18.8V10.9a1.24,1.24,0,0,0-1.3-1.2,1.16,1.16,0,0,0-1.2,1.2v8.7H15.1V15.8a1.25,1.25,0,1,0-2.5-.1v3.9H11.4V13.3A1.3,1.3,0,0,0,10.2,12a1.3,1.3,0,0,0-1.3,1.2v7.6A1.22,1.22,0,0,0,10.1,22Z"/><circle id="Ellipse_11" data-name="Ellipse 11" class="cls-1" cx="28.3" cy="1.6" r="1.6"/><circle id="Ellipse_12" data-name="Ellipse 12" class="cls-1" cx="30.9" cy="4" r="0.6"/><circle id="Ellipse_13" data-name="Ellipse 13" class="cls-1" cx="2" cy="29.5" r="2"/><circle id="Ellipse_14-2" data-name="Ellipse 14-2" class="cls-1" cx="2.4" cy="24.7" r="0.8"/></g></g></svg>