<?xml version="1.0" encoding="utf-8"?>
<!-- Generator: Adobe Illustrator 25.2.1, SVG Export Plug-In . SVG Version: 6.00 Build 0)  -->
<svg version="1.1" id="Layer_1" xmlns="http://www.w3.org/2000/svg" xmlns:xlink="http://www.w3.org/1999/xlink" x="0px" y="0px"
	 viewBox="0 0 261.29 719.21" style="enable-background:new 0 0 261.29 719.21;" xml:space="preserve">
<style type="text/css">
	.st0{opacity:0.5;fill:#FFC4C4;}
	.st1{fill:#FFC4C4;stroke:#FFFFFF;stroke-width:4.6311;stroke-linecap:round;stroke-linejoin:round;stroke-miterlimit:10;}
	.st2{fill:none;stroke:#FFFFFF;stroke-width:4.6311;stroke-linecap:round;stroke-linejoin:round;stroke-miterlimit:10;}
	.st3{fill:#FFC4C4;stroke:#FFFFFF;stroke-width:2.8685;stroke-linecap:round;stroke-linejoin:round;stroke-miterlimit:10;}
	.st4{fill:#FFC4C4;stroke:#FFFFFF;stroke-width:5.5993;stroke-linecap:round;stroke-linejoin:round;stroke-miterlimit:10;}
	.st5{fill:none;stroke:#FFC4C4;stroke-width:7.1712;stroke-linecap:round;stroke-linejoin:round;stroke-miterlimit:10;}
</style>
<g>
	<path class="st0" d="M257.7,562.08c-18.8-23.01-73.87-84.68-73.87-161.03c0-73.01,24.61-129.08,46.12-164.15c0,0,0-26.71,0-26.94
		c0-7.76-19.89-13.17-49.38-15.86l33.91-94.41c0.16-0.22,0.24-0.45,0.24-0.68V69.77c0-3.91-24.08-7.24-57.63-8.46
		c4.69-6.06,7.49-13.65,7.49-21.91c0-19.78-16.03-35.81-35.81-35.81c-19.78,0-35.81,16.03-35.81,35.81c0,8.26,2.8,15.85,7.49,21.91
		c-33.56,1.22-57.63,4.54-57.63,8.46v29.25c0,0.23,0.08,0.46,0.25,0.68l34.4,95.1c-25.69,2.88-42.55,8.03-42.55,15.17
		c0,0.23,0,29.66,0,29.66c17.73,25.09,43.54,87.9,43.54,161.43c0,73.39-56.91,136.09-74.75,161.28c-0.06,0.05-0.1,0.1-0.1,0.15
		v106.26c0,12.31,23.21,46.88,129.08,46.88c104.22,0,125.04-34.57,125.04-46.88C257.7,668.74,257.7,562.21,257.7,562.08z"/>
	<path class="st1" d="M94.93,52.44c0,0,5.17,14.39,23.64,19.87"/>
	<path class="st2" d="M76.49,193.61l5.25,12.31c9.39,3.76,39.53,4.13,50.84,4.13c16.56,0.01,43.12-3.18,43.12-3.18"/>
	<path class="st3" d="M140.73,13.88c0,0,6.83,1.34,10.63,8.73"/>
	<path class="st3" d="M104.63,52.44c0,0,4.13,9.88,15.44,12.11"/>
	<path class="st1" d="M76.4,76.7c0,0-22.68,0-34.47-6.26"/>
	<path class="st1" d="M190.85,76.64c6.45-0.49,17.07-1.91,24.77-6"/>
	<path class="st1" d="M185.16,76.9c0,0,1.17,0,3.1-0.1"/>
	<path class="st1" d="M183.24,107.5c11.57-0.5,23.3-2.56,32.37-7.03"/>
	<path class="st1" d="M79.06,106.76c-14.19-1.14-30.26-3.54-36.64-6.68"/>
	<path class="st1" d="M95.18,107.5c-3.3,0-7.26-0.14-11.53-0.41"/>
	<path class="st4" d="M81.13,220.85c0,0-32.99-0.9-46.22-11.43"/>
	<path class="st4" d="M85.24,251.78c-18.12-1.72-38.84-5.15-49.44-11.99"/>
	<path class="st4" d="M69.24,577.92c-18.12-1.72-53.93-8.03-64.54-14.87"/>
	<path class="st4" d="M117.32,253.52c0,0-9.31,0-21.96-0.8"/>
	<path class="st4" d="M191.43,222.48c11.91-1.37,28-4.6,37.78-12.18"/>
	<path class="st4" d="M176.07,223.5c0,0,3.32,0,8.42-0.37"/>
	<path class="st4" d="M183.87,249.52c0,0,32.99-1.85,46.22-12.38"/>
	<path class="st4" d="M208.09,578.19c13.99-2.42,37.19-7.49,50.05-16.15"/>
	<path class="st4" d="M196.45,579.93c0,0,2.64-0.31,6.9-0.97"/>
	<path class="st5" d="M257.7,562.08c-18.8-23.01-73.87-84.68-73.87-161.03c0-73.01,24.61-129.08,46.12-164.15c0,0,0-26.71,0-26.94
		c0-7.76-19.89-13.17-49.38-15.86l33.91-94.41c0.16-0.22,0.24-0.45,0.24-0.68V69.77c0-3.91-24.08-7.24-57.63-8.46
		c4.69-6.06,7.49-13.65,7.49-21.91c0-19.78-16.03-35.81-35.81-35.81c-19.78,0-35.81,16.03-35.81,35.81c0,8.26,2.8,15.85,7.49,21.91
		c-33.56,1.22-57.63,4.54-57.63,8.46v29.25c0,0.23,0.08,0.46,0.25,0.68l34.4,95.1c-25.69,2.88-42.55,8.03-42.55,15.17
		c0,0.23,0,29.66,0,29.66c17.73,25.09,43.54,87.9,43.54,161.43c0,73.39-56.91,136.09-74.75,161.28c-0.06,0.05-0.1,0.1-0.1,0.15
		v106.26c0,12.31,23.21,46.88,129.08,46.88c104.22,0,125.04-34.57,125.04-46.88C257.7,668.74,257.7,562.21,257.7,562.08z"/>
</g>
</svg>
