<svg xmlns="http://www.w3.org/2000/svg" viewBox="0 0 31.6 31.6"><defs><style>.cls-1{fill:#ffd45e;}</style></defs><g id="Layer_2" data-name="Layer 2"><g id="Layer_1-2" data-name="Layer 1"><path id="Path_311-2" data-name="Path 311-2" class="cls-1" d="M24.5,24.3a1.61,1.61,0,0,1-.6,1.3,2.11,2.11,0,0,1-1.3.5H6.1a1.9,1.9,0,0,1-1.9-1.9V11.7H24.6v8A23.75,23.75,0,0,1,24.5,24.3Z"/><path id="Path_312-2" data-name="Path 312-2" d="M26.3,3.3H5.3A3.23,3.23,0,0,0,2,6.4V24a4.18,4.18,0,0,0,4.3,4.2H25.2A4.25,4.25,0,0,0,29.5,24a1.1,1.1,0,1,0-2.2,0,2.11,2.11,0,0,1-2.1,2.1H6.3A2.05,2.05,0,0,1,4.2,24V9.7H27.4v9.1a1.1,1.1,0,1,0,2.2,0V6.4A3.36,3.36,0,0,0,26.3,3.3ZM21.9,5.4a1,1,0,0,1,1,1.1c-.1.6-.5,1.1-1.1,1a1,1,0,0,1-1-1.1A1.18,1.18,0,0,1,21.9,5.4Zm5.4,1a1.1,1.1,0,1,1-1.1-1.1h0a1.27,1.27,0,0,1,1.1,1.1ZM4.2,6.4A1.11,1.11,0,0,1,5.3,5.3H18.9a3.32,3.32,0,0,0,0,2.2H4.2Z"/><circle id="Ellipse_126-2" data-name="Ellipse 126-2" class="cls-1" cx="1.4" cy="1.4" r="1.4"/><circle id="Ellipse_127-2" data-name="Ellipse 127-2" class="cls-1" cx="28.3" cy="29.6" r="1.4"/><circle id="Ellipse_128-2" data-name="Ellipse 128-2" class="cls-1" cx="31" cy="31" r="0.6"/><path id="Path_313" data-name="Path 313" d="M14.1,23l-.8-5.3H11.6l-1.1,2.5L9.4,17.7H7.7L6.9,23H8.7L9,20.3,10.2,23h.6L12,20.3l.3,2.7Zm3.5-5.3-.8,2.8L16,17.7H13.9L16,23h1.6l2.1-5.3Zm4.9,0H20V23h1.8V21.7h.8a2,2,0,0,0,2.1-1.9v-.2a1.92,1.92,0,0,0-1.9-2C22.6,17.7,22.6,17.7,22.5,17.7Zm-.3,2.6h-.4V19.2h.4a.63.63,0,0,1,.6.5v.1a.65.65,0,0,1-.6.5Z"/></g></g></svg>