<svg id="Layer_1" data-name="Layer 1" xmlns="http://www.w3.org/2000/svg" viewBox="0 0 70.14 73.62"><defs><style>.cls-1{fill:#fac8d2;}.cls-2{fill:#010101;}.cls-3{fill:#ef3c6b;}.cls-4{opacity:0.04;}.cls-5{fill:#384054;}</style></defs><g id="audit"><rect id="Rectangle_675" data-name="Rectangle 675" class="cls-1" x="21.08" y="27.27" width="22.89" height="24.53"/><path id="Path_3332" data-name="Path 3332" class="cls-2" d="M50.33,42.53A1.65,1.65,0,0,0,52,40.9V24.35a6.55,6.55,0,0,0-6.53-6.53H40.31V15.37a1.65,1.65,0,0,0-1.64-1.64H32.13a1.66,1.66,0,0,0-1.64,1.64v2.45H25.36a6.54,6.54,0,0,0-6.52,6.53V49a6.53,6.53,0,0,0,6.52,6.52H45.43A6.53,6.53,0,0,0,52,49a1.64,1.64,0,0,0-3.28,0h0a3.25,3.25,0,0,1-3.26,3.25h-20A3.25,3.25,0,0,1,22.12,49h0V24.36a3.25,3.25,0,0,1,3.25-3.26h5.14v.81a4.9,4.9,0,0,0,9.8,0V21.1h5.13a3.26,3.26,0,0,1,3.26,3.25h0V40.92A1.62,1.62,0,0,0,50.33,42.53ZM37,21.91a1.64,1.64,0,1,1-3.27,0h0V17H37v4.9Zm7.14,10.41a1.63,1.63,0,0,1,.42,2.26h0L37.31,45.05s-.05.07-.06.1a4.22,4.22,0,0,1-3,1.56l-.28,0a4.22,4.22,0,0,1-2.9-1.16l0,0-4.3-4.27A1.63,1.63,0,0,1,29,39l4.3,4.26a.94.94,0,0,0,.7.24.91.91,0,0,0,.63-.31l7.22-10.4a1.63,1.63,0,0,1,2.27-.43Z" transform="translate(-0.71 -0.8)"/><circle id="Ellipse_510" data-name="Ellipse 510" class="cls-3" cx="55.13" cy="15.5" r="2.37"/><circle id="Ellipse_511" data-name="Ellipse 511" class="cls-3" cx="15.1" cy="15.5" r="2.47"/><circle id="Ellipse_512" data-name="Ellipse 512" class="cls-3" cx="55.13" cy="33.82" r="1.14"/><circle id="Ellipse_513" data-name="Ellipse 513" class="cls-3" cx="15.1" cy="34.98" r="1.14"/><circle id="Ellipse_514" data-name="Ellipse 514" class="cls-3" cx="55.13" cy="56.39" r="2.37"/><circle id="Ellipse_515" data-name="Ellipse 515" class="cls-3" cx="15.11" cy="56.37" r="2.37"/></g><g id="Polygon_1" data-name="Polygon 1" class="cls-4"><path id="Path_4574" data-name="Path 4574" class="cls-5" d="M43,7.94a15,15,0,0,0-14.8-.37L13.68,15.35A15,15,0,0,0,5.75,28.54L5.71,45A15,15,0,0,0,13,57.92l15.56,9.35a15,15,0,0,0,14.8.37l14.54-7.77a15,15,0,0,0,7.93-13.19l0-16.5a15,15,0,0,0-7.27-12.89L43,7.94m2.57-4.28L61.15,13a20,20,0,0,1,9.7,17.18l0,16.5A20,20,0,0,1,60.24,64.28L45.69,72.06A20,20,0,0,1,26,71.56L10.4,62.21A20,20,0,0,1,.71,45l0-16.49A20,20,0,0,1,11.32,10.94L25.86,3.16A20,20,0,0,1,45.59,3.66Z" transform="translate(-0.71 -0.8)"/></g></svg>