<svg id="Layer_1" data-name="Layer 1" xmlns="http://www.w3.org/2000/svg" viewBox="0 0 30.66 30.86"><defs><style>.cls-1,.cls-2{fill:#77b65d;}.cls-1{isolation:isolate;opacity:0.4;}</style></defs><g id="confidentiality"><ellipse id="Ellipse_27" data-name="Ellipse 27" class="cls-1" cx="14.16" cy="16.53" rx="11.4" ry="11.7"/><path id="Path_284" data-name="Path 284" d="M243.3,35.1a4.14,4.14,0,0,0-4.2,4.1v1.7a3,3,0,0,0-2.6,3v6.8a1.16,1.16,0,0,0,1.2,1.2h11.2a1.16,1.16,0,0,0,1.2-1.2h0V43.9a3,3,0,0,0-2.6-3V39.2A4.08,4.08,0,0,0,243.3,35.1Zm0,2.4a1.77,1.77,0,0,1,1.8,1.7v1.6h-3.6V39.2a1.65,1.65,0,0,1,1.8-1.7Zm4.4,6.3v5.6h-8.8V43.8a.65.65,0,0,1,.6-.6h7.6a.65.65,0,0,1,.6.6Zm-3.2,2.5a1.2,1.2,0,1,1-1.2-1.2,1.22,1.22,0,0,1,1.2,1.2Zm14.2-1.9a15.2,15.2,0,0,1-2.6,8.5,1.25,1.25,0,0,1-1.7.3,1.15,1.15,0,0,1-.3-1.6,12.84,12.84,0,1,0-17.8,3.6,13.19,13.19,0,0,0,13.8.3,1.28,1.28,0,0,1,1.7.4,1.19,1.19,0,0,1-.4,1.7,15.44,15.44,0,1,1,5.1-21.2A15.07,15.07,0,0,1,258.7,44.4Z" transform="translate(-228.04 -28.97)"/><circle id="Ellipse_28" data-name="Ellipse 28" class="cls-2" cx="1.96" cy="1.63" r="1.5"/><circle id="Ellipse_29" data-name="Ellipse 29" class="cls-2" cx="28.16" cy="28.73" r="1.7"/><circle id="Ellipse_30" data-name="Ellipse 30" class="cls-2" cx="29.86" cy="25.43" r="0.7"/></g></svg>