<svg id="Layer_1" data-name="Layer 1" xmlns="http://www.w3.org/2000/svg" viewBox="0 0 29.2 25.33"><defs><style>.cls-1{fill:#f4a196;}</style></defs><g id="Group_309" data-name="Group 309"><path id="Rectangle_8" data-name="Rectangle 8" class="cls-1" d="M1136,106h18v15h-13a5,5,0,0,1-5-5V106Z" transform="translate(-1130.63 -104.81)"/><g id="invoice"><g id="Group_199" data-name="Group 199"><g id="Group_198" data-name="Group 198"><path id="Path_344" data-name="Path 344" d="M1145.63,113.59h-1.1a.81.81,0,1,1,0-1.6h2.1a.68.68,0,0,0,.7-.7c0-.4-.2-.9-.6-.9h-.9v-.9a.68.68,0,0,0-.7-.7.77.77,0,0,0-.8.7v.9a2.33,2.33,0,0,0-2.1,2.5,2.29,2.29,0,0,0,2.3,2.1h1.1a.79.79,0,0,1,.8.8c0,.4-.3,1-.8,1h-2.1a.77.77,0,0,0-.8.7.68.68,0,0,0,.7.7h.8v.8a.7.7,0,0,0,1.4,0v-.8a2.33,2.33,0,0,0,2.1-2.5A2,2,0,0,0,1145.63,113.59Z" transform="translate(-1130.63 -104.81)"/></g></g><g id="Group_201" data-name="Group 201"><g id="Group_200" data-name="Group 200"><path id="Path_345" data-name="Path 345" d="M1149.07,122.33h-8a.7.7,0,0,0,0,1.4h8a.7.7,0,1,0,0-1.4Z" transform="translate(-1130.63 -104.81)"/></g></g><g id="Group_203" data-name="Group 203"><g id="Group_202" data-name="Group 202"><path id="Path_346" data-name="Path 346" d="M1153.89,104.81h-17.6a.68.68,0,0,0-.7.7v21.7a.76.76,0,0,0,.2.5l2.2,2.2a.78.78,0,0,0,1.1,0h0l1.7-1.7,1.7,1.7a.78.78,0,0,0,1.1,0h0l1.7-1.7,1.7,1.7a.78.78,0,0,0,1.1,0h0l1.7-1.7,1.7,1.7a.78.78,0,0,0,1.1,0h0l2.2-2.2a.76.76,0,0,0,.2-.5v-21.7C1154.59,105.11,1154.29,104.81,1153.89,104.81Zm-2.2,23.6-1.7-1.7a.78.78,0,0,0-1.1,0h0l-1.7,1.7-1.6-1.7a.78.78,0,0,0-1.1,0h0l-1.7,1.7-1.7-1.7a.78.78,0,0,0-1.1,0h0l-1.7,1.7-1.4-1.4v-20.7h16v20.6h0Z" transform="translate(-1130.63 -104.81)"/></g></g></g><circle id="Ellipse_127-10" data-name="Ellipse 127-10" class="cls-1" cx="1.5" cy="8.4" r="1.5"/><circle id="Ellipse_127-11" data-name="Ellipse 127-11" class="cls-1" cx="27.7" cy="17.2" r="1.5"/><circle id="Ellipse_128-10" data-name="Ellipse 128-10" class="cls-1" cx="4.4" cy="9.9" r="0.6"/><circle id="Ellipse_128-11" data-name="Ellipse 128-11" class="cls-1" cx="24.8" cy="18.7" r="0.6"/></g></svg>