<svg xmlns="http://www.w3.org/2000/svg" viewBox="0 0 29.4 30.1"><defs><style>.cls-1{fill:#404040;}</style></defs><g id="Layer_2" data-name="Layer 2"><g id="Layer_1-2" data-name="Layer 1"><path id="Path_1-2" data-name="Path 1-2" class="cls-1" d="M24.2,18.9a1.11,1.11,0,0,0,1.1-1.1V7A4.27,4.27,0,0,0,21,2.7H17.6V1.1A1.11,1.11,0,0,0,16.5,0H12.2a1.11,1.11,0,0,0-1.1,1.1V2.7H7.7A4.27,4.27,0,0,0,3.4,7V23.1a4.27,4.27,0,0,0,4.3,4.3H20.9a4.27,4.27,0,0,0,4.3-4.3,1.05,1.05,0,0,0-2.1-.1v.1A2.11,2.11,0,0,1,21,25.2H7.8a2.11,2.11,0,0,1-2.1-2.1h0V7A2.11,2.11,0,0,1,7.8,4.9h3.4v.5a3.2,3.2,0,0,0,6.4,0V4.9H21A2.11,2.11,0,0,1,23.1,7h0V17.9A1.1,1.1,0,0,0,24.2,18.9ZM15.5,5.4a1,1,0,0,1-1.1,1,1,1,0,0,1-1-1V2.2h2.1V5.4Zm4.6,6.8a1.1,1.1,0,0,1,.3,1.5h0l-4.8,6.9v.1a2.61,2.61,0,0,1-2,1h-.2a2.73,2.73,0,0,1-1.9-.8h0L8.7,18.1a1.06,1.06,0,0,1,1.5-1.5L13,19.4a.76.76,0,0,0,.5.2.52.52,0,0,0,.4-.2l4.7-6.8a1.06,1.06,0,0,1,1.5-.4Z"/><circle id="Ellipse_1" data-name="Ellipse 1" class="cls-1" cx="27.8" cy="1.7" r="1.6"/><circle id="Ellipse_2" data-name="Ellipse 2" class="cls-1" cx="1.6" cy="1.7" r="1.6"/><circle id="Ellipse_3" data-name="Ellipse 3" class="cls-1" cx="27.8" cy="13.7" r="0.7"/><circle id="Ellipse_4" data-name="Ellipse 4" class="cls-1" cx="1.6" cy="14.5" r="0.7"/><circle id="Ellipse_5" data-name="Ellipse 5" class="cls-1" cx="27.8" cy="28.5" r="1.6"/><circle id="Ellipse_6" data-name="Ellipse 6" class="cls-1" cx="1.6" cy="28.5" r="1.6"/></g></g></svg>