<svg id="Layer_1" data-name="Layer 1" xmlns="http://www.w3.org/2000/svg" viewBox="0 0 29.4 30.1"><defs><style>.cls-1{fill:#9d9fa1;}</style></defs><g id="audit"><rect id="Rectangle_1" data-name="Rectangle 1" class="cls-1" x="5.5" y="9.4" width="15" height="16.1"/><path id="Path_1-2" data-name="Path 1-2" d="M514.63,262.9a1.11,1.11,0,0,0,1.1-1.1V251a4.27,4.27,0,0,0-4.3-4.3H508v-1.6a1.11,1.11,0,0,0-1.1-1.1h-4.3a1.11,1.11,0,0,0-1.1,1.1v1.6h-3.4a4.27,4.27,0,0,0-4.3,4.3v16.1a4.27,4.27,0,0,0,4.3,4.3h13.2a4.27,4.27,0,0,0,4.3-4.3,1.05,1.05,0,0,0-2.1-.1v.1a2.11,2.11,0,0,1-2.1,2.1h-13.2a2.11,2.11,0,0,1-2.1-2.1h0V251a2.11,2.11,0,0,1,2.1-2.1h3.4v.5a3.2,3.2,0,1,0,6.4,0v-.5h3.4a2.11,2.11,0,0,1,2.1,2.1h0v10.9A1.1,1.1,0,0,0,514.63,262.9Zm-8.7-13.5a1,1,0,0,1-1.1,1,1,1,0,0,1-1-1v-3.2h2.1v3.2Zm4.6,6.8a1.1,1.1,0,0,1,.3,1.5h0l-4.8,6.9v.1a2.61,2.61,0,0,1-2,1h-.2a2.73,2.73,0,0,1-1.9-.8h0l-2.8-2.8a1.06,1.06,0,0,1,1.5-1.5l2.8,2.8a.76.76,0,0,0,.5.2.52.52,0,0,0,.4-.2l4.7-6.8a1.06,1.06,0,0,1,1.5-.4Z" transform="translate(-490.43 -244)"/><circle id="Ellipse_1" data-name="Ellipse 1" class="cls-1" cx="27.8" cy="1.7" r="1.6"/><circle id="Ellipse_2" data-name="Ellipse 2" class="cls-1" cx="1.6" cy="1.7" r="1.6"/><circle id="Ellipse_3" data-name="Ellipse 3" class="cls-1" cx="27.8" cy="13.7" r="0.7"/><circle id="Ellipse_4" data-name="Ellipse 4" class="cls-1" cx="1.6" cy="14.5" r="0.7"/><circle id="Ellipse_5" data-name="Ellipse 5" class="cls-1" cx="27.8" cy="28.5" r="1.6"/><circle id="Ellipse_6" data-name="Ellipse 6" class="cls-1" cx="1.6" cy="28.5" r="1.6"/></g></svg>