<svg id="Layer_1" data-name="Layer 1" xmlns="http://www.w3.org/2000/svg" viewBox="0 0 142.54 132.78"><defs><style>.cls-1{fill:#fff;}.cls-2{fill:#404040;}.cls-3{fill:#5fbf82;}.cls-4{fill:#010101;}.cls-5{opacity:0.13;}</style></defs><rect class="cls-1" x="0.9" y="10.29" width="140.74" height="97.44"/><path class="cls-2" d="M220.38,292.24H79.62a.89.89,0,0,1-.89-.89V193.93a.89.89,0,0,1,.89-.9H220.38a.89.89,0,0,1,.89.9v97.44A.89.89,0,0,1,220.38,292.24ZM80.56,290.45h139V194.84h-139Z" transform="translate(-78.73 -183.61)"/><rect class="cls-3" x="0.9" y="6.14" width="140.74" height="12.86"/><path class="cls-2" d="M220.38,203.51H79.62a.89.89,0,0,1-.89-.9V189.75a.89.89,0,0,1,.89-.89H220.38a.89.89,0,0,1,.89.89v12.86a.89.89,0,0,1-.89.9ZM80.56,201.72h139V190.65h-139Z" transform="translate(-78.73 -183.61)"/><rect class="cls-1" x="15.94" y="32.29" width="17.89" height="11.93"/><path class="cls-4" d="M112.55,228.73H94.66a.89.89,0,0,1-.89-.9V215.91a.89.89,0,0,1,.89-.9h17.89a.9.9,0,0,1,.9.9v11.94A.9.9,0,0,1,112.55,228.73Zm-17-1.79h16.1V216.8H95.52Z" transform="translate(-78.73 -183.61)"/><rect class="cls-1" x="46.86" y="32.29" width="17.89" height="11.93"/><path class="cls-4" d="M143.48,228.73H125.59a.9.9,0,0,1-.9-.9V215.91a.9.9,0,0,1,.9-.9h17.89a.89.89,0,0,1,.89.9v11.94A.9.9,0,0,1,143.48,228.73Zm-17-1.79h16.1V216.8h-16.1Z" transform="translate(-78.73 -183.61)"/><rect class="cls-1" x="77.78" y="32.29" width="17.89" height="11.93"/><path class="cls-4" d="M174.41,228.73H156.52a.88.88,0,0,1-.89-.88V215.91a.88.88,0,0,1,.87-.9h17.91a.9.9,0,0,1,.9.9v11.94A.91.91,0,0,1,174.41,228.73Zm-17-1.79h16.1V216.8h-16.1Z" transform="translate(-78.73 -183.61)"/><rect class="cls-1" x="108.71" y="32.29" width="17.89" height="11.93"/><path class="cls-4" d="M205.34,228.73H187.45a.9.9,0,0,1-.9-.88V215.91a.9.9,0,0,1,.88-.9h17.91a.89.89,0,0,1,.89.9v11.94A.9.9,0,0,1,205.34,228.73Zm-17-1.79h16.15V216.8h-16.1Z" transform="translate(-78.73 -183.61)"/><rect class="cls-1" x="15.94" y="59.01" width="17.89" height="11.93"/><path class="cls-4" d="M112.55,255.45H94.66a.9.9,0,0,1-.89-.9V242.63a.89.89,0,0,1,.89-.9h17.89a.9.9,0,0,1,.9.9v12A.91.91,0,0,1,112.55,255.45Zm-17-1.79h16.1V243.52H95.52Z" transform="translate(-78.73 -183.61)"/><rect class="cls-1" x="46.86" y="59.01" width="17.89" height="11.93"/><path class="cls-4" d="M143.48,255.45H125.59a.9.9,0,0,1-.9-.9V242.63a.9.9,0,0,1,.9-.9h17.89a.89.89,0,0,1,.89.9v12A.9.9,0,0,1,143.48,255.45Zm-17-1.79h16.1V243.52h-16.1Z" transform="translate(-78.73 -183.61)"/><rect class="cls-1" x="77.78" y="59.01" width="17.89" height="11.93"/><path class="cls-4" d="M174.41,255.45H156.52a.88.88,0,0,1-.89-.88V242.63a.88.88,0,0,1,.87-.9h17.91a.9.9,0,0,1,.9.9v12A.91.91,0,0,1,174.41,255.45Zm-17-1.79h16.1V243.52h-16.1Z" transform="translate(-78.73 -183.61)"/><rect class="cls-1" x="108.71" y="59.01" width="17.89" height="11.93"/><path class="cls-4" d="M205.34,255.45H187.45a.9.9,0,0,1-.9-.88V242.63a.9.9,0,0,1,.88-.9h17.91a.89.89,0,0,1,.89.9v12A.9.9,0,0,1,205.34,255.45Zm-17-1.79h16.15V243.52h-16.1Z" transform="translate(-78.73 -183.61)"/><rect class="cls-1" x="15.94" y="82.95" width="17.89" height="11.93"/><path class="cls-4" d="M112.55,279.38H94.66a.89.89,0,0,1-.89-.9V266.56a.89.89,0,0,1,.89-.9h17.89a.9.9,0,0,1,.9.9v11.92A.9.9,0,0,1,112.55,279.38Zm-17-1.79h16.1V267.45H95.52Z" transform="translate(-78.73 -183.61)"/><rect class="cls-1" x="46.86" y="82.95" width="17.89" height="11.93"/><path class="cls-4" d="M143.48,279.38H125.59a.9.9,0,0,1-.9-.9V266.56a.9.9,0,0,1,.9-.9h17.89a.89.89,0,0,1,.89.9v11.92A.89.89,0,0,1,143.48,279.38Zm-17-1.79h16.1V267.45h-16.1Z" transform="translate(-78.73 -183.61)"/><rect class="cls-1" x="77.78" y="82.95" width="17.89" height="11.93"/><path class="cls-4" d="M174.41,279.38H156.52a.88.88,0,0,1-.89-.88V266.56a.88.88,0,0,1,.87-.9h17.91a.9.9,0,0,1,.9.9v11.92A.9.9,0,0,1,174.41,279.38Zm-17-1.79h16.1V267.45h-16.1Z" transform="translate(-78.73 -183.61)"/><rect class="cls-1" x="108.71" y="82.95" width="17.89" height="11.93"/><path class="cls-4" d="M205.34,279.38H187.45a.9.9,0,0,1-.9-.88V266.56a.9.9,0,0,1,.88-.9h17.91a.89.89,0,0,1,.89.9v11.92A.89.89,0,0,1,205.34,279.38Zm-17-1.79h16.15V267.45h-16.1Z" transform="translate(-78.73 -183.61)"/><path class="cls-2" d="M177.13,197.08a.89.89,0,0,1-.9-.89V184.51a.9.9,0,0,1,1.79,0v11.68a.88.88,0,0,1-.87.89Z" transform="translate(-78.73 -183.61)"/><path class="cls-2" d="M122.86,197.08a.89.89,0,0,1-.89-.89V184.51a.9.9,0,0,1,1.79,0h0v11.68a.88.88,0,0,1-.88.89Z" transform="translate(-78.73 -183.61)"/><path class="cls-4" d="M127.52,220.51a.3.3,0,0,1-.2-.08.29.29,0,0,1,0-.42c.87-.94,1.81-1.85,2.75-2.72a.33.33,0,0,1,.42,0,.3.3,0,0,1,0,.43c-.93.85-1.86,1.75-2.72,2.67A.3.3,0,0,1,127.52,220.51Z" transform="translate(-78.73 -183.61)"/><path class="cls-4" d="M139.72,225.8a.29.29,0,0,1-.21-.09.31.31,0,0,1,0-.42l1.94-1.95a.31.31,0,0,1,.42,0,.29.29,0,0,1,0,.41h0l-1.94,2A.27.27,0,0,1,139.72,225.8Z" transform="translate(-78.73 -183.61)"/><path class="cls-4" d="M96.73,246.45a.37.37,0,0,1-.2-.07.29.29,0,0,1,0-.42c.48-.55,1-1,1.53-1.59a.3.3,0,0,1,.42,0,.29.29,0,0,1,0,.42h0c-.53.5-1,1-1.51,1.55A.28.28,0,0,1,96.73,246.45Z" transform="translate(-78.73 -183.61)"/><path class="cls-4" d="M96.79,250.76a.31.31,0,0,1-.3-.3.32.32,0,0,1,.08-.2c1.75-2,3.6-4.11,5.51-6a.3.3,0,0,1,.42,0,.3.3,0,0,1,0,.41c-1.88,1.91-3.73,3.93-5.48,6A.3.3,0,0,1,96.79,250.76Z" transform="translate(-78.73 -183.61)"/><path class="cls-4" d="M99.86,253a.42.42,0,0,1-.19-.06.32.32,0,0,1,0-.43c2.23-2.79,4.6-5.53,7-8.14a.31.31,0,0,1,.42,0,.29.29,0,0,1,0,.42c-2.41,2.6-4.77,5.33-7,8.11A.3.3,0,0,1,99.86,253Z" transform="translate(-78.73 -183.61)"/><path class="cls-4" d="M104.49,252.8a.23.23,0,0,1-.19-.07.31.31,0,0,1,0-.42c1.84-2.18,3.7-4.38,5.55-6.53a.3.3,0,0,1,.42,0,.29.29,0,0,1,0,.42c-1.85,2.15-3.71,4.34-5.54,6.53A.28.28,0,0,1,104.49,252.8Z" transform="translate(-78.73 -183.61)"/><path class="cls-4" d="M109,252.85a.25.25,0,0,1-.17,0,.3.3,0,0,1-.08-.42c.41-.59.86-1.19,1.32-1.74a.3.3,0,0,1,.43,0,.31.31,0,0,1,0,.42,21.23,21.23,0,0,0-1.3,1.7A.24.24,0,0,1,109,252.85Z" transform="translate(-78.73 -183.61)"/><path class="cls-4" d="M127.75,224.05a.33.33,0,0,1-.23-.1.32.32,0,0,1,0-.43c2.19-1.88,4.32-3.88,6.32-5.94a.3.3,0,0,1,.44.41h0c-2.06,2.06-4.12,4.11-6.37,6A.29.29,0,0,1,127.75,224.05Z" transform="translate(-78.73 -183.61)"/><path class="cls-4" d="M130.57,226.21a.3.3,0,0,1-.29-.3.31.31,0,0,1,.09-.22c2.83-2.74,5.78-5.46,8.75-8.05a.31.31,0,0,1,.42,0,.29.29,0,0,1,0,.41h0c-3,2.59-5.9,5.29-8.73,8A.31.31,0,0,1,130.57,226.21Z" transform="translate(-78.73 -183.61)"/><path class="cls-4" d="M135,226.28a.34.34,0,0,1-.22-.09.32.32,0,0,1,0-.43c2.06-2,4.2-3.94,6.35-5.83a.3.3,0,0,1,.43,0,.31.31,0,0,1,0,.42c-2.14,1.89-4.28,3.85-6.34,5.83A.27.27,0,0,1,135,226.28Z" transform="translate(-78.73 -183.61)"/><path class="cls-4" d="M158.55,271.41a.33.33,0,0,1-.19-.06.31.31,0,0,1,0-.42l2.13-2.61a.29.29,0,0,1,.42,0,.31.31,0,0,1,0,.42l-2.13,2.62A.27.27,0,0,1,158.55,271.41Z" transform="translate(-78.73 -183.61)"/><path class="cls-4" d="M158.7,276.3a.25.25,0,0,1-.17,0,.29.29,0,0,1-.07-.42,86.24,86.24,0,0,1,6.16-7.73.31.31,0,0,1,.43,0,.3.3,0,0,1,0,.42h0a82.6,82.6,0,0,0-6.17,7.68A.31.31,0,0,1,158.7,276.3Z" transform="translate(-78.73 -183.61)"/><path class="cls-4" d="M163.45,276.42a.31.31,0,0,1-.19-.06.32.32,0,0,1,0-.43l4.67-5.63a.32.32,0,0,1,.43,0,.31.31,0,0,1,0,.42l-4.68,5.64A.31.31,0,0,1,163.45,276.42Z" transform="translate(-78.73 -183.61)"/><path class="cls-4" d="M167.36,276.6a.3.3,0,0,1-.18-.06.29.29,0,0,1-.07-.4h0l1-1.44a.3.3,0,0,1,.42,0,.29.29,0,0,1,.05.34l-1,1.44A.3.3,0,0,1,167.36,276.6Z" transform="translate(-78.73 -183.61)"/><g class="cls-5"><rect class="cls-4" x="0.89" y="19.17" width="140.74" height="4.17"/></g><circle class="cls-1" cx="71.19" cy="93.23" r="38.66"/><path class="cls-2" d="M149.92,316.39a39.56,39.56,0,1,1,39.55-39.57v0A39.61,39.61,0,0,1,149.92,316.39Zm0-77.32a37.77,37.77,0,1,0,37.72,37.82v-.05A37.81,37.81,0,0,0,149.92,239.07Z" transform="translate(-78.73 -183.61)"/><path class="cls-2" d="M149.92,249.94a.89.89,0,0,1-.89-.89v-5.24a.9.9,0,1,1,1.79,0h0v5.24A.89.89,0,0,1,149.92,249.94Z" transform="translate(-78.73 -183.61)"/><path class="cls-2" d="M149.92,310.77a.9.9,0,0,1-.89-.9v-5.24a.9.9,0,0,1,1.79,0h0v5.24A.9.9,0,0,1,149.92,310.77Z" transform="translate(-78.73 -183.61)"/><path class="cls-2" d="M183,277.73h-5.25a.9.9,0,0,1,0-1.79H183a.9.9,0,0,1,0,1.79Z" transform="translate(-78.73 -183.61)"/><path class="cls-2" d="M122.13,277.73h-5.24a.9.9,0,0,1,0-1.79h5.24a.9.9,0,1,1,0,1.79Z" transform="translate(-78.73 -183.61)"/><path class="cls-2" d="M150.82,276.84a.9.9,0,0,1-.88-.93.84.84,0,0,1,.25-.6L164.52,261a.9.9,0,0,1,1.27,0,.89.89,0,0,1,0,1.23l-14.33,14.33A.91.91,0,0,1,150.82,276.84Z" transform="translate(-78.73 -183.61)"/><circle class="cls-1" cx="71.19" cy="93.23" r="4.17"/><path class="cls-2" d="M149.92,281.91a5.07,5.07,0,1,1,5.07-5.07A5.06,5.06,0,0,1,149.92,281.91Zm0-8.35a3.28,3.28,0,1,0,3.28,3.28h0A3.28,3.28,0,0,0,149.92,273.56Z" transform="translate(-78.73 -183.61)"/></svg>