<svg id="Layer_1" data-name="Layer 1" xmlns="http://www.w3.org/2000/svg" viewBox="0 0 165.11 129.15"><defs><style>.cls-1{fill:#fff;}.cls-2{fill:#3f3f3f;}.cls-3{fill:#5ebe81;}.cls-4{opacity:0.13;}</style></defs><rect class="cls-1" x="1130.54" y="54.98" width="136.9" height="94.78" transform="translate(1268.32 159.77) rotate(180)"/><path class="cls-2" d="M1267.45,150.63H1130.54a.87.87,0,0,1-.87-.87V55a.87.87,0,0,1,.87-.87h136.91a.87.87,0,0,1,.87.87v94.78A.87.87,0,0,1,1267.45,150.63Zm-136-1.74h135.17v-93H1131.41Z" transform="translate(-1129.67 -44.97)"/><rect class="cls-3" x="1130.54" y="50.94" width="136.9" height="12.51" transform="translate(1268.32 69.42) rotate(180)"/><path class="cls-2" d="M1267.45,64.32H1130.54a.87.87,0,0,1-.87-.87V50.94a.87.87,0,0,1,.87-.87h136.91a.87.87,0,0,1,.87.87V63.45A.87.87,0,0,1,1267.45,64.32Zm-136-1.74h135.17V51.81H1131.41Z" transform="translate(-1129.67 -44.97)"/><rect class="cls-1" x="15.5" y="31.41" width="17.4" height="11.6"/><path d="M1162.57,88.85h-17.4a.87.87,0,0,1-.87-.87V76.38a.87.87,0,0,1,.87-.87h17.4a.87.87,0,0,1,.87.87V88A.87.87,0,0,1,1162.57,88.85ZM1146,87.11h15.66V77.25H1146Z" transform="translate(-1129.67 -44.97)"/><rect class="cls-1" x="45.58" y="31.41" width="17.4" height="11.6"/><path d="M1192.65,88.85h-17.4a.87.87,0,0,1-.87-.87V76.38a.87.87,0,0,1,.87-.87h17.4a.87.87,0,0,1,.87.87V88A.87.87,0,0,1,1192.65,88.85Zm-16.53-1.74h15.66V77.25h-15.66Z" transform="translate(-1129.67 -44.97)"/><rect class="cls-1" x="75.66" y="31.41" width="17.4" height="11.6"/><path d="M1222.74,88.85h-17.4a.86.86,0,0,1-.87-.87V76.38a.86.86,0,0,1,.87-.87h17.4a.87.87,0,0,1,.87.87V88A.87.87,0,0,1,1222.74,88.85Zm-16.53-1.74h15.66V77.25h-15.66Z" transform="translate(-1129.67 -44.97)"/><rect class="cls-1" x="105.74" y="31.41" width="17.4" height="11.6"/><path d="M1252.82,88.85h-17.4a.86.86,0,0,1-.87-.87V76.38a.86.86,0,0,1,.87-.87h17.4a.87.87,0,0,1,.87.87V88A.87.87,0,0,1,1252.82,88.85Zm-16.53-1.74H1252V77.25h-15.66Z" transform="translate(-1129.67 -44.97)"/><rect class="cls-1" x="15.5" y="57.4" width="17.4" height="11.6"/><path d="M1162.57,114.84h-17.4a.87.87,0,0,1-.87-.87v-11.6a.87.87,0,0,1,.87-.87h17.4a.87.87,0,0,1,.87.87V114A.87.87,0,0,1,1162.57,114.84ZM1146,113.1h15.66v-9.86H1146Z" transform="translate(-1129.67 -44.97)"/><rect class="cls-1" x="45.58" y="57.4" width="17.4" height="11.6"/><path d="M1192.65,114.84h-17.4a.87.87,0,0,1-.87-.87v-11.6a.87.87,0,0,1,.87-.87h17.4a.87.87,0,0,1,.87.87V114A.87.87,0,0,1,1192.65,114.84Zm-16.53-1.74h15.66v-9.86h-15.66Z" transform="translate(-1129.67 -44.97)"/><rect class="cls-1" x="75.66" y="57.4" width="17.4" height="11.6"/><path d="M1222.74,114.84h-17.4a.86.86,0,0,1-.87-.87v-11.6a.86.86,0,0,1,.87-.87h17.4a.87.87,0,0,1,.87.87V114A.87.87,0,0,1,1222.74,114.84Zm-16.53-1.74h15.66v-9.86h-15.66Z" transform="translate(-1129.67 -44.97)"/><rect class="cls-1" x="105.74" y="57.4" width="17.4" height="11.6"/><path d="M1252.82,114.84h-17.4a.86.86,0,0,1-.87-.87v-11.6a.86.86,0,0,1,.87-.87h17.4a.87.87,0,0,1,.87.87V114A.87.87,0,0,1,1252.82,114.84Zm-16.53-1.74H1252v-9.86h-15.66Z" transform="translate(-1129.67 -44.97)"/><rect class="cls-1" x="15.5" y="80.68" width="17.4" height="11.6"/><path d="M1162.57,138.12h-17.4a.87.87,0,0,1-.87-.87v-11.6a.87.87,0,0,1,.87-.87h17.4a.87.87,0,0,1,.87.87v11.6A.87.87,0,0,1,1162.57,138.12ZM1146,136.38h15.66v-9.86H1146Z" transform="translate(-1129.67 -44.97)"/><rect class="cls-1" x="45.58" y="80.68" width="17.4" height="11.6"/><path d="M1192.65,138.12h-17.4a.87.87,0,0,1-.87-.87v-11.6a.87.87,0,0,1,.87-.87h17.4a.87.87,0,0,1,.87.87v11.6A.87.87,0,0,1,1192.65,138.12Zm-16.53-1.74h15.66v-9.86h-15.66Z" transform="translate(-1129.67 -44.97)"/><rect class="cls-1" x="75.66" y="80.68" width="17.4" height="11.6"/><path d="M1222.74,138.12h-17.4a.86.86,0,0,1-.87-.87v-11.6a.86.86,0,0,1,.87-.87h17.4a.87.87,0,0,1,.87.87v11.6A.87.87,0,0,1,1222.74,138.12Zm-16.53-1.74h15.66v-9.86h-15.66Z" transform="translate(-1129.67 -44.97)"/><rect class="cls-1" x="105.74" y="80.68" width="17.4" height="11.6"/><path d="M1252.82,138.12h-17.4a.86.86,0,0,1-.87-.87v-11.6a.86.86,0,0,1,.87-.87h17.4a.87.87,0,0,1,.87.87v11.6A.87.87,0,0,1,1252.82,138.12Zm-16.53-1.74H1252v-9.86h-15.66Z" transform="translate(-1129.67 -44.97)"/><path class="cls-2" d="M1225.38,58.07a.87.87,0,0,1-.87-.87V45.84a.87.87,0,0,1,1.74,0V57.2A.86.86,0,0,1,1225.38,58.07Z" transform="translate(-1129.67 -44.97)"/><path class="cls-2" d="M1172.6,58.07a.87.87,0,0,1-.87-.87V45.84a.87.87,0,1,1,1.74,0V57.2A.86.86,0,0,1,1172.6,58.07Z" transform="translate(-1129.67 -44.97)"/><path d="M1177.13,80.86a.32.32,0,0,1-.2-.08.29.29,0,0,1,0-.41c.85-.91,1.76-1.8,2.68-2.64a.31.31,0,0,1,.41,0,.29.29,0,0,1,0,.41c-.91.83-1.81,1.71-2.65,2.6A.3.3,0,0,1,1177.13,80.86Z" transform="translate(-1129.67 -44.97)"/><path d="M1189,86a.28.28,0,0,1-.21-.08.3.3,0,0,1,0-.41l1.89-1.9a.3.3,0,0,1,.41,0,.28.28,0,0,1,0,.41l-1.89,1.9A.26.26,0,0,1,1189,86Z" transform="translate(-1129.67 -44.97)"/><path d="M1147.18,106.09a.37.37,0,0,1-.2-.07.29.29,0,0,1,0-.41c.47-.53,1-1,1.49-1.54a.29.29,0,0,1,.41.42c-.51.48-1,1-1.47,1.5A.26.26,0,0,1,1147.18,106.09Z" transform="translate(-1129.67 -44.97)"/><path d="M1147.24,110.28a.29.29,0,0,1-.22-.48c1.71-2,3.51-4,5.36-5.83a.29.29,0,0,1,.41.41c-1.83,1.86-3.63,3.82-5.33,5.8A.26.26,0,0,1,1147.24,110.28Z" transform="translate(-1129.67 -44.97)"/><path d="M1150.22,112.41a.32.32,0,0,1-.18-.06.3.3,0,0,1,0-.41c2.17-2.72,4.47-5.38,6.83-7.92a.29.29,0,0,1,.41,0,.3.3,0,0,1,0,.41c-2.35,2.53-4.64,5.18-6.8,7.89A.3.3,0,0,1,1150.22,112.41Z" transform="translate(-1129.67 -44.97)"/><path d="M1154.73,112.27a.26.26,0,0,1-.19-.07.3.3,0,0,1,0-.41c1.79-2.12,3.6-4.26,5.4-6.35a.29.29,0,1,1,.44.38c-1.8,2.09-3.61,4.22-5.39,6.35A.28.28,0,0,1,1154.73,112.27Z" transform="translate(-1129.67 -44.97)"/><path d="M1159.1,112.32a.33.33,0,0,1-.16,0,.3.3,0,0,1-.08-.41c.4-.58.84-1.16,1.29-1.7a.29.29,0,0,1,.41,0,.3.3,0,0,1,0,.41c-.44.53-.87,1.09-1.26,1.66A.28.28,0,0,1,1159.1,112.32Z" transform="translate(-1129.67 -44.97)"/><path d="M1177.35,84.3a.28.28,0,0,1-.22-.1.3.3,0,0,1,0-.41c2.13-1.83,4.2-3.78,6.15-5.78a.29.29,0,1,1,.42.4c-2,2-4,4-6.19,5.82A.26.26,0,0,1,1177.35,84.3Z" transform="translate(-1129.67 -44.97)"/><path d="M1180.1,86.4a.29.29,0,0,1-.2-.5c2.75-2.67,5.62-5.31,8.51-7.83a.29.29,0,0,1,.41,0,.28.28,0,0,1,0,.41c-2.88,2.51-5.74,5.14-8.49,7.81A.3.3,0,0,1,1180.1,86.4Z" transform="translate(-1129.67 -44.97)"/><path d="M1184.42,86.47a.3.3,0,0,1-.21-.09.3.3,0,0,1,0-.41c2-1.92,4.09-3.84,6.18-5.68a.29.29,0,0,1,.41,0,.3.3,0,0,1,0,.41c-2.08,1.84-4.16,3.75-6.16,5.67A.26.26,0,0,1,1184.42,86.47Z" transform="translate(-1129.67 -44.97)"/><path d="M1207.31,130.37a.3.3,0,0,1-.18-.06.29.29,0,0,1,0-.41l2.07-2.54a.29.29,0,0,1,.41,0,.3.3,0,0,1,0,.41l-2.07,2.55A.29.29,0,0,1,1207.31,130.37Z" transform="translate(-1129.67 -44.97)"/><path d="M1207.46,135.13a.34.34,0,0,1-.17,0,.3.3,0,0,1-.07-.41,83.53,83.53,0,0,1,6-7.52.29.29,0,1,1,.43.39,79.31,79.31,0,0,0-6,7.47A.3.3,0,0,1,1207.46,135.13Z" transform="translate(-1129.67 -44.97)"/><path d="M1212.08,135.24a.33.33,0,0,1-.19-.06.3.3,0,0,1,0-.41l4.55-5.48a.3.3,0,0,1,.41,0,.29.29,0,0,1,0,.41l-4.55,5.48A.28.28,0,0,1,1212.08,135.24Z" transform="translate(-1129.67 -44.97)"/><path d="M1215.88,135.42a.27.27,0,0,1-.17-.06.28.28,0,0,1-.06-.4l1-1.4a.29.29,0,0,1,.46.34l-1,1.4A.27.27,0,0,1,1215.88,135.42Z" transform="translate(-1129.67 -44.97)"/><g class="cls-4"><rect x="0.87" y="18.64" width="136.9" height="4.06"/></g><circle class="cls-1" cx="126.64" cy="90.68" r="37.6"/><path class="cls-2" d="M1256.31,174.12a38.48,38.48,0,1,1,38.47-38.47A38.52,38.52,0,0,1,1256.31,174.12Zm0-75.21A36.74,36.74,0,1,0,1293,135.65,36.78,36.78,0,0,0,1256.31,98.91Z" transform="translate(-1129.67 -44.97)"/><path class="cls-2" d="M1256.31,109.49a.87.87,0,0,1-.87-.87v-5.1a.87.87,0,1,1,1.74,0v5.1A.87.87,0,0,1,1256.31,109.49Z" transform="translate(-1129.67 -44.97)"/><path class="cls-2" d="M1256.31,168.65a.87.87,0,0,1-.87-.87v-5.1a.87.87,0,1,1,1.74,0v5.1A.87.87,0,0,1,1256.31,168.65Z" transform="translate(-1129.67 -44.97)"/><path class="cls-2" d="M1288.44,136.52h-5.1a.87.87,0,0,1,0-1.74h5.1a.87.87,0,1,1,0,1.74Z" transform="translate(-1129.67 -44.97)"/><path class="cls-2" d="M1229.28,136.52h-5.1a.87.87,0,1,1,0-1.74h5.1a.87.87,0,0,1,0,1.74Z" transform="translate(-1129.67 -44.97)"/><path class="cls-2" d="M1257.18,135.65a.88.88,0,0,1-.61-1.49l13.94-13.94a.87.87,0,0,1,1.23,1.23l-13.94,13.94A.89.89,0,0,1,1257.18,135.65Z" transform="translate(-1129.67 -44.97)"/><circle class="cls-1" cx="126.64" cy="90.68" r="4.06"/><path class="cls-2" d="M1256.31,140.58a4.93,4.93,0,1,1,4.93-4.93A4.94,4.94,0,0,1,1256.31,140.58Zm0-8.12a3.19,3.19,0,1,0,3.19,3.19A3.19,3.19,0,0,0,1256.31,132.46Z" transform="translate(-1129.67 -44.97)"/><g class="cls-4"><path d="M1219.86,129.67c.05-.32.1-.64.16-1a34.32,34.32,0,0,1,3.23-9.57,1.92,1.92,0,0,0-.61-.56,29.45,29.45,0,0,0-5.21,7.84,37.85,37.85,0,0,0-2.49,7.1q-.18.79-.33,1.59c-.41,2.84-.3,5.18.63,9.77a14.65,14.65,0,0,0,1.23,3.83,2.24,2.24,0,0,0,1.55,1.65,2.16,2.16,0,0,0,2.35-3.26h0l.06.08a1.63,1.63,0,0,1-.09-.19c-.12-.44-.25-.87-.39-1.3a20.22,20.22,0,0,1-1.15-9.22A29.25,29.25,0,0,1,1219.86,129.67Z" transform="translate(-1129.67 -44.97)"/></g></svg>