<svg xmlns="http://www.w3.org/2000/svg" viewBox="0 0 33.9 27.8"><defs><style>.cls-1{fill:#404040;}</style></defs><g id="Layer_2" data-name="Layer 2"><g id="Layer_1-2" data-name="Layer 1"><g id="Group_52-2" data-name="Group 52-2"><g id="Group_48-2" data-name="Group 48-2"><path id="Path_43-2" data-name="Path 43-2" class="cls-1" d="M20.13,20.41h0a7.22,7.22,0,0,1-.8-3.2,5.71,5.71,0,0,1,2-4.4h-.5a31.25,31.25,0,0,0-.4-4.3,17.13,17.13,0,0,0,4.9-1.4,13,13,0,0,1,1.8,4.6,5.85,5.85,0,0,1,1.7,1,13.81,13.81,0,0,0-2.5-7h0a.22.22,0,0,0-.2-.2,13.58,13.58,0,0,0-19-2.8,12.4,12.4,0,0,0-2.8,2.8.31.31,0,0,1-.1.2h0a13.69,13.69,0,0,0,0,15.7h0c0,.1.1.1.2.2a13.53,13.53,0,0,0,13.2,5.3v-.2a8.44,8.44,0,0,1,2.5-6.3Zm-1.2-1.9c-1.2-.1-2.4-.2-3.6-.2s-2.4.1-3.6.2c-.2-1.4-.3-2.7-.4-4.1h7.9A28.28,28.28,0,0,1,18.93,18.51Zm-7.6-5.7a28.45,28.45,0,0,1,.4-4.1c1.2.1,2.4.2,3.6.2s2.4-.1,3.6-.2c.2,1.4.3,2.7.4,4.1Zm13.1-7a21.7,21.7,0,0,1-4.2,1.1,25.82,25.82,0,0,0-.8-2.6A10.08,10.08,0,0,0,18.23,2a11.83,11.83,0,0,1,6.2,3.8Zm-9.1-4.1c1.2,0,2.5,2.1,3.3,5.4-1.1.1-2.2.2-3.3.2s-2.2-.1-3.3-.2c.8-3.3,2.1-5.4,3.3-5.4Zm-2.9.3a9,9,0,0,0-1.2,2.4,18.29,18.29,0,0,0-.8,2.5,21.7,21.7,0,0,1-4.2-1.1A11.83,11.83,0,0,1,12.43,2Zm-7.2,5.1a21.08,21.08,0,0,0,4.9,1.4,29.86,29.86,0,0,0-.4,4.3H3.33A12.86,12.86,0,0,1,5.23,7.11Zm0,13a11.73,11.73,0,0,1-1.9-5.7h6.4a31.25,31.25,0,0,0,.4,4.3A17.13,17.13,0,0,0,5.23,20.11Zm1,1.3a21.7,21.7,0,0,1,4.2-1.1,12.94,12.94,0,0,0,.8,2.6,13.44,13.44,0,0,0,1.2,2.4,12.24,12.24,0,0,1-6.2-3.9Zm9.1,4.1c-1.2,0-2.5-2.1-3.3-5.4,1.1-.1,2.2-.2,3.3-.2s2.2.1,3.3.2c-.8,3.3-2.1,5.4-3.3,5.4Z"/></g><g id="Group_51-2" data-name="Group 51-2"><g id="Group_49-2" data-name="Group 49-2"><path id="Path_44-2" data-name="Path 44-2" class="cls-1" d="M25,21.91a4.78,4.78,0,0,1-4.7-4.8,4.7,4.7,0,0,1,9.4,0,3.92,3.92,0,0,1-.4,1.8A4.54,4.54,0,0,1,25,21.91Zm0-8a3.22,3.22,0,0,0-3.2,3.2,3.2,3.2,0,0,0,6.4,0h0A3.22,3.22,0,0,0,25,13.91Z"/></g><g id="Group_50-2" data-name="Group 50-2"><path id="Path_45-2" data-name="Path 45-2" class="cls-1" d="M30.59,27.76H19.39a.9.9,0,0,1-.9-.9,7.58,7.58,0,0,1,3.6-6.7.91.91,0,0,1,1.2.1l1.7,1.8,1.7-1.8a1.06,1.06,0,0,1,1.2-.2h0a7.58,7.58,0,0,1,3.6,6.7.92.92,0,0,1-.9,1ZM20,26.26H30a6.13,6.13,0,0,0-2.5-4.6L25,24.26l-2.5-2.6a6.13,6.13,0,0,0-2.5,4.6Z"/></g></g></g><circle id="Ellipse_36-3" data-name="Ellipse 36-3" class="cls-1" cx="32.2" cy="11.1" r="1.7"/><circle id="Ellipse_37-3" data-name="Ellipse 37-3" class="cls-1" cx="30" cy="13.4" r="0.6"/><circle id="Ellipse_38-3" data-name="Ellipse 38-3" class="cls-1" cx="3.9" cy="1.7" r="1.7"/><circle id="Ellipse_39-3" data-name="Ellipse 39-3" class="cls-1" cx="0.6" cy="1.1" r="0.6"/><circle id="Ellipse_40-3" data-name="Ellipse 40-3" class="cls-1" cx="3.9" cy="24.5" r="1.7"/><circle id="Ellipse_41-3" data-name="Ellipse 41-3" class="cls-1" cx="6.2" cy="27.2" r="0.6"/></g></g></svg>