<svg xmlns="http://www.w3.org/2000/svg" viewBox="0 0 34.2 28.05"><defs><style>.cls-1{fill:#a8c1ff;}</style></defs><g id="Layer_2" data-name="Layer 2"><g id="Layer_1-2" data-name="Layer 1"><ellipse id="Ellipse_34-3" data-name="Ellipse 34-3" class="cls-1" cx="12.39" cy="13.68" rx="9.3" ry="11.6" transform="translate(-0.42 0.4) rotate(-1.8)"/><ellipse id="Ellipse_35-3" data-name="Ellipse 35-3" class="cls-1" cx="24.8" cy="16.99" rx="2.7" ry="3.3" transform="translate(-0.52 0.79) rotate(-1.8)"/><path id="Path_43-2" data-name="Path 43-2" d="M20.73,20.23v-.1h.1a5.56,5.56,0,0,1-1-3.07,5.74,5.74,0,0,1,1.86-4.46l-.5,0a31.42,31.42,0,0,0-.53-4.29,17,17,0,0,0,4.85-1.55,13,13,0,0,1,1.94,4.54,5.64,5.64,0,0,1,1.73.95,13.78,13.78,0,0,0-2.71-6.92h0a.21.21,0,0,0-.21-.19A13.58,13.58,0,0,0,7.18,2.94,12.61,12.61,0,0,0,4.47,5.83a.33.33,0,0,1-.09.2h0a13.69,13.69,0,0,0,.49,15.7h0c0,.1.1.09.21.19A13.53,13.53,0,0,0,18.44,26.8v-.2a8.42,8.42,0,0,1,2.3-6.37Zm-1.26-1.86c-1.2-.07-2.4-.13-3.6-.09s-2.4.18-3.6.31c-.24-1.39-.38-2.69-.52-4.08l7.89-.25A27,27,0,0,1,19.47,18.37ZM11.7,12.91A27,27,0,0,1,12,8.8c1.2.06,2.4.12,3.6.08s2.4-.17,3.59-.31c.25,1.39.39,2.69.53,4.09ZM24.57,5.5a21.64,21.64,0,0,1-4.16,1.23,26.11,26.11,0,0,0-.89-2.57A9.86,9.86,0,0,0,18.25,1.9a11.8,11.8,0,0,1,6.32,3.6ZM15.34,1.69c1.2,0,2.57,2,3.47,5.29-1.09.14-2.19.27-3.29.31s-2.2,0-3.3-.1c.69-3.32,1.93-5.46,3.12-5.5Zm-2.88.39a8.82,8.82,0,0,0-1.13,2.44A18.13,18.13,0,0,0,10.61,7a21.69,21.69,0,0,1-4.23-1,11.8,11.8,0,0,1,6.08-4Zm-7,5.32a21.19,21.19,0,0,0,4.94,1.25A30.25,30.25,0,0,0,10.1,13l-6.4.2A12.87,12.87,0,0,1,5.42,7.4Zm.41,13a11.78,11.78,0,0,1-2.08-5.64l6.4-.2a31.08,31.08,0,0,0,.53,4.28A17.39,17.39,0,0,0,5.83,20.4Zm1,1.26A22.38,22.38,0,0,1,11,20.43,12.9,12.9,0,0,0,11.91,23a13.69,13.69,0,0,0,1.28,2.36,12.24,12.24,0,0,1-6.32-3.71Zm9.22,3.82c-1.2,0-2.56-2-3.47-5.3,1.1-.13,2.2-.27,3.3-.3s2.2,0,3.3.1c-.69,3.32-1.93,5.46-3.13,5.5Z"/><path id="Path_44-2" data-name="Path 44-2" d="M25.61,21.57a4.77,4.77,0,0,1-4.84-4.65,4.7,4.7,0,1,1,9.39-.3,4,4,0,0,1-.34,1.82A4.57,4.57,0,0,1,25.61,21.57Zm-.25-8a3.23,3.23,0,0,0-3.1,3.3,3.2,3.2,0,1,0,6.4-.2h0A3.23,3.23,0,0,0,25.36,13.57Z"/><path id="Path_45-2" data-name="Path 45-2" d="M31.42,27.25l-11.2.35a.9.9,0,0,1-.93-.87,7.59,7.59,0,0,1,3.39-6.81.91.91,0,0,1,1.2.06l1.76,1.75,1.64-1.86a1.08,1.08,0,0,1,1.2-.23h0a7.55,7.55,0,0,1,3.8,6.58.92.92,0,0,1-.86,1ZM20.77,26.08l10-.31a6.14,6.14,0,0,0-2.64-4.52l-2.42,2.68-2.58-2.52a6.12,6.12,0,0,0-2.36,4.67Z"/><circle id="Ellipse_36-3" data-name="Ellipse 36-3" class="cls-1" cx="32.5" cy="10.54" r="1.7"/><circle id="Ellipse_37-3" data-name="Ellipse 37-3" class="cls-1" cx="30.37" cy="12.91" r="0.6"/><circle id="Ellipse_38-3" data-name="Ellipse 38-3" class="cls-1" cx="3.92" cy="2.04" r="1.7"/><circle id="Ellipse_39-3" data-name="Ellipse 39-3" class="cls-1" cx="0.6" cy="1.54" r="0.6"/><circle id="Ellipse_40-3" data-name="Ellipse 40-3" class="cls-1" cx="4.63" cy="24.82" r="1.7"/><circle id="Ellipse_41-3" data-name="Ellipse 41-3" class="cls-1" cx="7.02" cy="27.45" r="0.6"/></g></g></svg>