<svg xmlns="http://www.w3.org/2000/svg" viewBox="0 0 28.3 23.2"><defs><style>.cls-1{fill:#404040;}</style></defs><g id="Layer_2" data-name="Layer 2"><g id="Layer_1-2" data-name="Layer 1"><g id="Group_52" data-name="Group 52"><g id="Group_48" data-name="Group 48"><path id="Path_43" data-name="Path 43" class="cls-1" d="M16.85,17h0a6.77,6.77,0,0,1-.7-2.7,4.6,4.6,0,0,1,1.7-3.6h-.4a21.86,21.86,0,0,0-.3-3.6,14.84,14.84,0,0,0,4.1-1.2,9.33,9.33,0,0,1,1.5,3.9,6.38,6.38,0,0,1,1.4.8,10.27,10.27,0,0,0-2.1-5.8h0c0-.1-.1-.1-.1-.2a11.43,11.43,0,0,0-15.9-2.4,13.63,13.63,0,0,0-2.4,2.4.35.35,0,0,0-.1.2h0a11.26,11.26,0,0,0,0,13.1h0c0,.1.1.1.1.2a11.18,11.18,0,0,0,11,4.4v-.1a7.91,7.91,0,0,1,2.2-5.4Zm-1.1-1.6c-1-.1-2-.2-3-.2a15.14,15.14,0,0,0-3,.2c-.1-1.1-.2-2.2-.3-3.4h6.6a18.7,18.7,0,0,1-.3,3.4Zm-6.3-4.7a19.53,19.53,0,0,1,.3-3.4c1,.1,2,.2,3,.2a15.14,15.14,0,0,0,3-.2,19.53,19.53,0,0,1,.3,3.4Zm10.9-5.9a13.86,13.86,0,0,1-3.5.9,16.55,16.55,0,0,0-.6-2.1,7.5,7.5,0,0,0-1-2,10.14,10.14,0,0,1,5.1,3.2Zm-7.6-3.4c1,0,2.1,1.8,2.7,4.5a24.37,24.37,0,0,1-2.7.1h-2.7c.7-2.8,1.7-4.6,2.7-4.6Zm-2.4.2a7.5,7.5,0,0,0-1,2,7.94,7.94,0,0,0-.6,2.2,16.15,16.15,0,0,1-3.6-1,10.88,10.88,0,0,1,5.2-3.2Zm-6,4.3a14.84,14.84,0,0,0,4.1,1.2,21.86,21.86,0,0,0-.3,3.6H2.85a10.39,10.39,0,0,1,1.5-4.8Zm0,10.9A11.87,11.87,0,0,1,2.75,12h5.4a21.86,21.86,0,0,0,.3,3.6,14.84,14.84,0,0,0-4.1,1.2Zm.8,1.1a13.86,13.86,0,0,1,3.5-.9c.2.7.4,1.5.6,2.2a7.5,7.5,0,0,0,1,2,12.17,12.17,0,0,1-5.1-3.3Zm7.6,3.4c-1,0-2.1-1.8-2.7-4.5a24.37,24.37,0,0,1,2.7-.1,23.48,23.48,0,0,1,2.7.1c-.6,2.7-1.7,4.5-2.7,4.5Z"/></g><g id="Group_51" data-name="Group 51"><g id="Group_49" data-name="Group 49"><path id="Path_44" data-name="Path 44" class="cls-1" d="M20.84,18.26a4,4,0,0,1-3.9-4,4,4,0,1,1,7.9.1,4,4,0,0,1-.3,1.5A4.09,4.09,0,0,1,20.84,18.26Zm0-6.6a2.7,2.7,0,1,0,2.7,2.7h0a2.69,2.69,0,0,0-2.7-2.7Z"/></g><g id="Group_50" data-name="Group 50"><path id="Path_45" data-name="Path 45" class="cls-1" d="M25.55,23.18h-9.3a.79.79,0,0,1-.8-.8,6.32,6.32,0,0,1,3-5.6.75.75,0,0,1,1,.2l1.4,1.5,1.4-1.5a.76.76,0,0,1,1-.1h0a6.32,6.32,0,0,1,3,5.6C26.35,22.88,26,23.18,25.55,23.18ZM16.75,22h8.3a5.13,5.13,0,0,0-2.1-3.9l-2.1,2.2-2-2.2a5,5,0,0,0-2.1,3.9Z"/></g></g></g><circle id="Ellipse_36-2" data-name="Ellipse 36-2" class="cls-1" cx="26.9" cy="9.2" r="1.4"/><circle id="Ellipse_37-2" data-name="Ellipse 37-2" class="cls-1" cx="25" cy="11.2" r="0.5"/><circle id="Ellipse_38-2" data-name="Ellipse 38-2" class="cls-1" cx="3.2" cy="1.4" r="1.4"/><circle id="Ellipse_39-2" data-name="Ellipse 39-2" class="cls-1" cx="0.5" cy="0.9" r="0.5"/><circle id="Ellipse_40-2" data-name="Ellipse 40-2" class="cls-1" cx="3.2" cy="20.4" r="1.4"/><circle id="Ellipse_41-2" data-name="Ellipse 41-2" class="cls-1" cx="5.2" cy="22.7" r="0.5"/></g></g></svg>