<?xml version="1.0" encoding="utf-8"?>
<!-- Generator: Adobe Illustrator 25.2.1, SVG Export Plug-In . SVG Version: 6.00 Build 0)  -->
<svg version="1.1" id="Layer_1" xmlns="http://www.w3.org/2000/svg" xmlns:xlink="http://www.w3.org/1999/xlink" x="0px" y="0px"
	 viewBox="0 0 588.34 471.06" style="enable-background:new 0 0 588.34 471.06;" xml:space="preserve">
<style type="text/css">
	.st0{fill-rule:evenodd;clip-rule:evenodd;fill:#C5D2EF;}
	.st1{fill:none;stroke:#B2C0DB;stroke-width:6.06;stroke-linecap:round;stroke-linejoin:round;}
	.st2{fill:#FA997B;}
	.st3{fill:#FA7269;}
	.st4{fill:#404041;}
	.st5{fill:#E6E7E8;}
	.st6{fill:#E0625F;}
	.st7{fill:none;stroke:#D26665;stroke-width:1.093;stroke-linecap:round;stroke-linejoin:round;}
	.st8{fill:#1A1A1A;}
	.st9{fill:none;stroke:#1A1A1A;stroke-width:1.391;stroke-linecap:round;stroke-linejoin:round;}
	.st10{fill:none;stroke:#D26665;stroke-width:3;stroke-linecap:round;stroke-linejoin:round;}
	.st11{fill:#EF5D23;}
	.st12{fill:#204272;}
	.st13{opacity:0.5;enable-background:new    ;}
	.st14{fill:#A9453E;}
	.st15{fill:none;stroke:#D26665;stroke-width:2.727;stroke-linecap:round;stroke-linejoin:round;}
	.st16{fill:none;stroke:#D26665;stroke-width:1.228;stroke-linecap:round;stroke-linejoin:round;}
	.st17{fill:none;stroke:#1A1A1A;stroke-width:0.909;stroke-linecap:round;stroke-linejoin:round;}
	.st18{fill:none;stroke:#1A1A1A;stroke-width:0.899;stroke-miterlimit:10;}
	.st19{opacity:0.19;fill:#FFFFFF;enable-background:new    ;}
	.st20{fill:#2A4E96;}
	.st21{fill:#ED7D2B;}
	.st22{opacity:0.2;fill-rule:evenodd;clip-rule:evenodd;enable-background:new    ;}
	.st23{fill:#F99746;}
	.st24{fill:#B2C0DB;stroke:#B2C0DB;stroke-width:0.75;stroke-miterlimit:10;}
	.st25{fill:#B2C0DB;stroke:#B2C0DB;stroke-miterlimit:10;}
	.st26{fill:#94A1B2;}
</style>
<g id="Component_15_1" transform="translate(0 3.03)">
	<g id="Group_353" transform="translate(-2097.889 -124.933)">
		<path id="Path_819" class="st0" d="M2617.42,196.14c-6.02,0-10.9,4.87-10.9,10.89c0,6.02,4.87,10.9,10.89,10.9
			c6.02,0,10.9-4.87,10.9-10.89c0,0,0-0.01,0-0.01C2628.31,201.02,2623.44,196.14,2617.42,196.14
			C2617.42,196.14,2617.42,196.14,2617.42,196.14z M2193.29,140.13c-7.85,0-14.22,6.36-14.22,14.21c0,7.85,6.36,14.22,14.21,14.22
			c7.85,0,14.22-6.36,14.22-14.21c0,0,0-0.01,0-0.01C2207.49,146.5,2201.14,140.14,2193.29,140.13z M2651.11,435.62
			c-17.24-17.33-40.67-27.08-65.12-27.09c-21.53,0-38.98-17.46-38.98-38.99c0-21.53,17.45-38.97,38.98-38.98h4.64
			c22.39,0,40.53-18.15,40.53-40.54s-18.15-40.54-40.53-40.54h-14.24c-8.72,0-15.78-7.07-15.77-15.79c0-8.71,7.06-15.77,15.77-15.77
			h10.46c6.02-0.18,10.75-5.21,10.56-11.22c-0.17-5.76-4.8-10.39-10.56-10.57h-70.31c-9.45,0-17.11-7.66-17.11-17.11
			s7.66-17.11,17.11-17.11h21.03c6.02-0.18,10.75-5.21,10.56-11.22c-0.17-5.76-4.8-10.39-10.56-10.57h-307.92
			c-7.85,0.01-14.21,6.37-14.2,14.23c0.01,7.84,6.36,14.2,14.2,14.2h21.56c12.33,0,22.33,10,22.33,22.33s-10,22.33-22.33,22.33
			h-83.41c-7.85,0-14.21,6.37-14.2,14.22c0,7.84,6.36,14.2,14.2,14.2h13.65c11.36,0.03,20.56,9.23,20.6,20.59v0.01
			c-0.04,11.36-9.24,20.56-20.6,20.59h-18.57c-29.21,0-52.89,23.68-52.89,52.89c0,29.21,23.68,52.88,52.89,52.89h6.05
			c28.06-0.04,50.84,22.68,50.88,50.75c0.02,13.37-5.23,26.2-14.61,35.72c-0.11,0.11-0.22,0.23-0.33,0.34
			c-9.52,9.56-22.45,14.94-35.94,14.94h-13.11c-28.33,0.02-51.28,23-51.27,51.33c0.02,28.31,22.96,51.25,51.27,51.27h430.17
			c50.71,0,92.21-41.5,92.21-92.21C2678.19,476.3,2668.44,452.86,2651.11,435.62L2651.11,435.62z"/>
		<path id="Path_820" class="st1" d="M2283.13,582.96c145.96,0,203.47-0.56,307.86,0c39.61,0.21,92.21-42.33,92.21-94.07v4.08
			c0-51.74-41.49-94.07-92.21-94.07l0,0c-21.44,0-38.99-17.9-38.99-39.77l0,0c0-21.88,17.54-39.77,38.99-39.77h4.64
			c22.29,0,40.53-18.61,40.53-41.35l0,0c0-22.74-18.24-41.35-40.53-41.35h-14.23c-8.79-0.11-15.84-7.31-15.78-16.1l0,0
			c-0.06-8.79,6.99-15.99,15.78-16.1h10.46c6.07-0.08,10.93-5.04,10.89-11.11l0,0c0.04-6.07-4.82-11.03-10.89-11.11h-70.31
			c-9.53-0.12-17.18-7.92-17.11-17.46l0,0c-0.07-9.53,7.58-17.33,17.11-17.46h21.02c6.07-0.08,10.93-5.04,10.89-11.11l0,0
			c0.04-6.07-4.82-11.03-10.89-11.11h-307.91"/>
	</g>
	<g id="Group_360" transform="translate(-2097.889 -124.933)">
		<path id="Path_821" class="st2" d="M2117.14,308.78c5.45,4.07,6.36,15.08,6.52,18.04c0.9-1.36,1.93-2.98,3.1-4.95
			c2.9-4.84,6.87-6.58,8.37-5.85s0.39,3.26-0.97,7.92c-4.18,14.36-7.72,25.68-8.21,27.23l1.08,5.56l-17.6,4.06
			c-0.37-2.2-0.69-4.05-0.92-5.41c-0.92-2.44-4.15-6.73-5.91-12.65c-2.53-8.32-4.11-16.89-4.71-25.56
			C2097.68,310.38,2101.51,297.11,2117.14,308.78z"/>
		<g id="Group_354">
			<path id="Path_822" class="st3" d="M2123.41,352.27c2.95-1.24,6.35,0.03,7.77,2.9c7,14.22,25.24,49.09,40.93,49.01
				c21.94-0.1,27.2-20.33,37.81-26.61c22.39-13.25,24.73,3.39,24.73,3.39l-7.9,87.44c0,0-53.36,6.16-76.79-9.82
				c-15.27-10.41-28.51-18.34-38.15-62.85c-3.96-18.33-2.93-23.19-3.98-32.15c-0.32-2.69,1.18-5.28,3.68-6.33L2123.41,352.27z"/>
		</g>
		<path id="Path_823" class="st4" d="M2222.04,378.27c10.97,10.41,71.32,80.7,70.21,92.88c0,0,86.41,16.56,62.04-30.59
			c0,0,3.33-31.14,8.78-45.14c9.76-25.06-7.35-18.3-10.47-34.58c-6.29-32.83-30.28-17.85-30.79-29.4
			c-1.33-30.33-18.83-16.99-18.87-30.84c-0.1-33.06-38.93-66.59-79.26-50.88c-22.12,8.62-32.25,48.49-23.83,82.75
			c2.2,8.95-6.59,12.86,1.57,24.6C2208,366.54,2219.99,362.01,2222.04,378.27z"/>
		<g id="Group_355">
			<path id="Path_824" class="st3" d="M2350.81,592.96h-159.72c0.52-2.92,13.5-75.68,14.46-95.92c0.28-5.73,0.08-13.36-0.35-21.96
				c-1.2-24.1-4.19-55.78-3.36-74.31c0.09-3.34,0.46-6.66,1.12-9.94c2.7-11.72,22.36-23.28,46.14-25.11
				c57.48-4.45,100.87-4.27,85.73,80.6C2329.95,473.67,2346.16,567.2,2350.81,592.96z"/>
		</g>
		<path id="Path_825" class="st5" d="M2240.64,592.96c4.35-41.6-5.34-221.17-5.34-221.17l33.61-3.91l43.65,225.08H2240.64z"/>
		<path id="Path_826" class="st6" d="M2178.67,468.01c0,0,27.45-26.37,32.51-43.83c5.45,15.24,3.09,32.19-6.32,45.36
			c0,0-5.74,0.05-7.63,0.01C2195.28,469.52,2178.67,468.01,2178.67,468.01z"/>
		<g id="Group_358">
			<g id="Group_357">
				<path id="Path_827" class="st2" d="M2235.3,371.79l0.56-39.39l-0.07-5.69l28.21-2.68l4.91,43.85c0,0-9.87,12.74-23.06,10.01
					C2239.76,376.62,2235.3,371.79,2235.3,371.79z"/>
				<path id="Path_828" class="st2" d="M2275.1,310.76c-0.52,21.7-16.38,34.99-34.68,34.45c-34.8-1.03-32.09-26.02-30.21-47.64
					c0.94-10.58,5.53-18.1,12.12-22.92c6.88-5.03,29.55-6.81,32.87,1.93C2267.09,307.88,2275.44,296.92,2275.1,310.76z"/>
				<g id="Group_356">
					<path id="Path_829" class="st7" d="M2234.87,302.76c0,0-1.35,7.17-1.74,9.86c-0.13,0.61-0.17,1.23-0.12,1.85
						c0.2,1.33,1.67,1.88,3.01,1.91c0.98-0.03,1.96-0.21,2.89-0.52"/>
					<circle id="Ellipse_45" class="st8" cx="2225.47" cy="301.12" r="3.43"/>
					<circle id="Ellipse_46" class="st8" cx="2251.41" cy="301.12" r="3.43"/>
					<path id="Path_830" class="st9" d="M2221.65,293.19c0,0,4.22-5.02,8.52,0"/>
					<path id="Path_831" class="st9" d="M2246.77,293.19c0,0,4.22-5.02,8.52,0"/>
					<path id="Path_832" class="st10" d="M2230.3,326.56c0,0,5.72,6.56,12,0"/>
				</g>
				<path id="Path_833" class="st2" d="M2285.73,320.54c-4.84,6.58-12.41,8.97-16.89,5.35c-4.51-3.65-4.2-11.93,0.64-18.51
					s12.39-8.97,16.9-5.32C2290.85,305.69,2290.57,313.98,2285.73,320.54z"/>
			</g>
			<path id="Path_834" class="st11" d="M2277.32,313.15c-1.13,2.2-1.02,4.52,0.25,5.17s3.22-0.6,4.36-2.81s1.01-4.52-0.26-5.17
				S2278.45,310.94,2277.32,313.15z"/>
			<path id="Path_835" class="st11" d="M2265.28,335.49c0,0-10.43,9.74-21.45,9.64c-3.4-0.03-8.31-0.26-8.31-0.26l-0.19,14.27
				c5.98-2.16,11.63-5.15,16.78-8.89C2257.38,346.19,2261.84,341.18,2265.28,335.49z"/>
		</g>
		<g id="Group_359">
			<path id="Path_836" class="st2" d="M2356.47,533.55c-1.08-1.44-10.3,4.02-18.23,11.76c-1.8,1.75-5.54,7.11-4.49,9.22
				c1.01,2.02,8.93,1.33,8.93,1.33s-6.32,1.09-7.88,8.93c-1.27,6.39,11.02,7.55,17.52,4.71c11.67-5.1,15.78-30.07,15.78-30.07
				L2356.47,533.55z"/>
			<path id="Path_837" class="st3" d="M2288.08,366.54c-7.24,7.83,1.77,40.13,7.27,51.55c14.02,29.16,26.85,23.89,59.26,41.61
				c15.92,8.7,3.1,53.29-2.01,69c-1.04,3.21,0.37,6.7,3.34,8.29l11.62,6.26c3.09,1.67,6.95,0.78,8.99-2.08
				c10.84-15.2,41.92-61.68,36.82-88.16c-8.86-46.05-80.36-79.39-89.3-81.82C2306.5,366.43,2291.75,362.57,2288.08,366.54z"/>
		</g>
	</g>
	<g id="Group_364" transform="translate(-2097.889 -124.933)">
		<path id="Path_838" class="st12" d="M2403.19,455.21l-72.24,22.65l70.34-65.23L2403.19,455.21z"/>
		<path id="Path_839" class="st13" d="M2401.29,412.62l-66.98,63.66l68.06-39.35L2401.29,412.62z"/>
		<g id="Group_361">
			<path id="Path_840" class="st2" d="M2470.42,385.37L2470.42,385.37c-13,0-23.54-10.54-23.54-23.54v-50.11h47.08v50.11
				C2493.96,374.82,2483.42,385.36,2470.42,385.37C2470.42,385.37,2470.42,385.37,2470.42,385.37z"/>
			<path id="Path_841" class="st11" d="M2446.88,327.64c0,0,13.8,20.55,28.61,19.38c14.51-1.15,18.52-11.95,18.62-19.73
				c0.05-2.65-0.03-5.29-0.25-7.93c0,0-9,19.92-23.04,19.94C2461.48,339.24,2452.67,334.95,2446.88,327.64z"/>
		</g>
		<path id="Path_842" class="st14" d="M2435.29,294.34l-2.35-23.81c-3.02-15.23,8.85-23.27,19.24-23.27h35.97
			c11.02,0,22.07,5.21,21.37,22.92c-0.26,6.53-6.03,28.18-6.03,28.18L2435.29,294.34z"/>
		<g id="Group_362">
			<path id="Path_843" class="st2" d="M2501.26,306.94c7.01,5.42,19.86-18.26,13.04-24.07s-11.64,4.48-11.64,4.48
				s-0.82,6.48-1.02,8.65c-0.19,2.09-0.54,8.37-0.54,8.37l-0.45,2.53L2501.26,306.94z"/>
		</g>
		<g id="Group_363">
			<path id="Path_844" class="st2" d="M2438.8,307.4c-7.13,5.26-19.46-18.68-12.51-24.35s11.31,4.83,11.31,4.83l1,8.7l0.81,8.1v2.68
				L2438.8,307.4z"/>
		</g>
		<path id="Path_845" class="st2" d="M2503.4,276.5c-0.02,12.34-1.34,24.65-3.94,36.71c-1.96,8.91-7.35,16.7-15.01,21.66l-1.4,0.91
			c-8.12,5.29-18.57,5.42-26.82,0.32l0,0c-8.3-5.1-14.07-13.45-15.9-23.02c-2.08-12.09-3.28-24.31-3.61-36.58
			c0,0-3.09-37.44,32.86-36.71S2503.4,276.5,2503.4,276.5z"/>
		<path id="Path_846" class="st9" d="M2479.18,278.87c0,0,4.22-5.02,8.52,0"/>
		<path id="Path_847" class="st9" d="M2450.68,278.87c0,0,4.22-5.02,8.52,0"/>
		<path id="Path_848" class="st15" d="M2465.38,317.7c0,0,5.2,5.96,10.91,0"/>
		<path id="Path_849" class="st14" d="M2490.62,232.33c-11.43-8.08-29.51-4.55-37.47-0.87c-16.87,7.8-20.25,20.51-20.68,27.89
			c-0.5,8.6,0.48,14.24,4.94,31.92c0,0,5.74-20.48,5.9-32.69c9.6,4.23,35.92,14.52,53.08,8.77c1.7,10.43,6.2,23.92,6.2,23.92
			c1.8-12.26,1.04-21.01-0.18-26.93c1.07-0.74,2.07-1.59,2.97-2.52C2505.69,250.15,2500.15,239.08,2490.62,232.33z"/>
		<path id="Path_850" class="st16" d="M2468.88,292.48c0,0-1.52,8.06-1.96,11.08c-0.15,0.68-0.19,1.38-0.14,2.08
			c0.23,1.49,1.88,2.11,3.39,2.15c1.11-0.04,2.2-0.24,3.25-0.59"/>
		<circle id="Ellipse_47" class="st8" cx="2454.94" cy="287.46" r="3.12"/>
		<circle id="Ellipse_48" class="st8" cx="2483.85" cy="287.46" r="3.12"/>
		<path id="Path_851" class="st17" d="M2466.94,290.48c0,0,3.07-2.8,6.04,0.19"/>
		<line id="Line_14" class="st18" x1="2440.03" y1="290.92" x2="2437.34" y2="290.92"/>
		<line id="Line_15" class="st18" x1="2502.32" y1="290.67" x2="2500.08" y2="290.67"/>
		<path id="Rectangle_80" class="st19" d="M2439.94,281.35h19.1c4.21,0,7.62,3.41,7.62,7.62l0,0v2.59c0,7.06-5.72,12.79-12.78,12.79
			l0,0h-0.48c-7.43,0-13.46-6.03-13.46-13.46c0,0,0,0,0,0V281.35L2439.94,281.35z"/>
		<path id="Rectangle_81" class="st17" d="M2439.94,281.35h19.1c4.21,0,7.62,3.41,7.62,7.62l0,0v2.59c0,7.06-5.72,12.79-12.78,12.79
			l0,0h-0.48c-7.43,0-13.46-6.03-13.46-13.46c0,0,0,0,0,0V281.35L2439.94,281.35z"/>
		<path id="Rectangle_82" class="st19" d="M2486.4,304.35h-0.48c-7.06,0-12.79-5.72-12.79-12.79l0,0v-2.59
			c0-4.21,3.41-7.62,7.61-7.62c0,0,0.01,0,0.01,0h19.1l0,0v9.54C2499.85,298.32,2493.83,304.35,2486.4,304.35L2486.4,304.35z"/>
		<path id="Rectangle_83" class="st17" d="M2486.4,304.35h-0.48c-7.06,0-12.79-5.72-12.79-12.79l0,0v-2.59
			c0-4.21,3.41-7.62,7.61-7.62c0,0,0.01,0,0.01,0h19.1l0,0v9.54C2499.85,298.32,2493.83,304.35,2486.4,304.35L2486.4,304.35z"/>
		<path id="Path_852" class="st11" d="M2431.07,295.55c0.76,1.75,2.2,2.82,3.21,2.38s1.22-2.21,0.46-3.97s-2.2-2.81-3.21-2.37
			S2430.3,293.8,2431.07,295.55z"/>
		<path id="Path_853" class="st11" d="M2508.22,295.55c-0.76,1.75-2.19,2.82-3.21,2.38s-1.22-2.21-0.46-3.97s2.2-2.81,3.21-2.37
			S2508.98,293.8,2508.22,295.55z"/>
		<path id="Path_854" class="st12" d="M2544.48,451.88l80.8,19.27l-82.87-63.02L2544.48,451.88z"/>
		<path id="Path_855" class="st13" d="M2542.4,408.13l70.11,59.98l-68.89-36.09L2542.4,408.13z"/>
		<path id="Path_856" class="st20" d="M2568.59,592.96c-6.85-86.48-25.96-227.36-25.96-227.36c-17.6-4.73-24.55-7.92-39.64-9.67
			c-11.91,15.82-20.47,19.5-31.36,23.81c-17.53-2.42-32.29-24.01-32.29-24.51c-25.44,2.61-39.85,7.96-39.85,7.96
			c-8.73,3.66-19.69,168.88-25.16,229.78H2568.59z"/>
		<path id="Path_857" class="st21" d="M2441.12,347.01c-3.62,1.73-6.3,4.96-7.32,8.84c0,0,22.86,23.52,37.82,23.88L2441.12,347.01z"
			/>
		<path id="Path_858" class="st21" d="M2471.63,379.72l29.51-33.9c0,0,6.09,4.01,6.01,10.61
			C2507.15,356.43,2484.32,380.62,2471.63,379.72z"/>
		<path id="Path_859" class="st21" d="M2493.96,501.52c0,7.63-7.82,22.65-13.8,33.04c-2.2,3.82-7.09,5.13-10.91,2.93
			c-1.21-0.7-2.21-1.7-2.91-2.9c-0.62-1.05-1.25-2.18-1.91-3.36c-4.76-8.54-8.71-17.49-11.83-26.75
			c-7.85-23.7,14.68-127.23,14.68-127.23l9.58-0.17c0,0,6.87,45.06,11.9,81.19C2491.67,479.11,2493.96,496.99,2493.96,501.52z"/>
		<path id="Path_860" class="st22" d="M2493.96,501.52c0,7.63-7.82,22.65-13.8,33.04c-2.2,3.82-7.09,5.13-10.91,2.93
			c-1.21-0.7-2.21-1.7-2.91-2.9c-0.62-1.05-1.25-2.18-1.91-3.36c12.54-3.46,24.33-72.97,24.33-72.97c0,0,0.01,0,0.01,0.01v0
			C2491.67,479.11,2493.96,496.99,2493.96,501.52z"/>
		<path id="Path_861" class="st23" d="M2460.82,367.07c0,0,13.67-0.58,21.9,0.74c1.25,0.21,2.1,1.39,1.89,2.64
			c-0.05,0.31-0.16,0.6-0.33,0.86c-2.56,4.04-7.71,11-12.66,10.72C2464.67,381.63,2454.63,367.2,2460.82,367.07z"/>
		<path id="Path_862" class="st2" d="M2404.13,364.29c0,0,18.04-16,24.48-20.78s15.88,4.06,19.17,6.9s2.29,12.07-0.45,16.05
			c-1.96,3.08-5.53,4.74-9.15,4.24c-2.67-0.32-5.59-2.26-7.21-0.35s-11.13,8.61-20.81,9.22L2404.13,364.29z"/>
		<path id="Path_863" class="st12" d="M2405.44,362.01c0,0-86.38,40.63-104.95,53.53c-28.1,19.51-24.08,46.49-6.26,59.67
			s56.54,14.17,122.5-84.59L2405.44,362.01z"/>
		<path id="Path_864" class="st2" d="M2536.79,361.18c0,0-19.12-14.69-25.89-19.01s-15.55,5.17-18.64,8.24s-1.43,12.2,1.58,15.98
			c2.17,2.94,5.85,4.34,9.42,3.58c2.64-0.5,5.42-2.65,7.17-0.86s11.71,7.81,21.41,7.73L2536.79,361.18z"/>
		<path id="Path_865" class="st12" d="M2535.33,358.99c0,0,89.03,34.45,108.46,46c29.41,17.48,27.3,44.68,10.44,59.08
			s-55.4,18.12-128.15-75.75L2535.33,358.99z"/>
	</g>
	<g id="Group_373" transform="translate(-2097.889 -124.933)">
		<g id="Group_366">
			<g id="Group_365">
				<path id="Path_866" class="st24" d="M2361.43,213.76c-0.16,0.85-0.27,1.72-0.33,2.58c-0.09,2.37,0.47,4.71,1.63,6.78
					c0.68,1.33,1.56,2.74,2.25,4.4c0.76,1.79,0.96,3.77,0.58,5.67c-0.42,2.11-1.49,4.04-3.07,5.5c-1.73,1.55-3.97,2.41-6.3,2.41
					c-2.32,0.04-4.58-0.73-6.39-2.18c-3.19-2.73-4.32-7.16-2.84-11.09c0.68-1.52,1.56-2.93,2.62-4.22c0.85-1.04,1.57-2.19,2.14-3.4
					c0.42-0.92,0.65-1.91,0.69-2.92c0-0.86-0.2-1.72-0.58-2.49c0.15,0.18,0.27,0.37,0.36,0.58c0.27,0.6,0.42,1.25,0.43,1.91
					c0,1.04-0.21,2.08-0.62,3.04c-0.56,1.25-1.27,2.43-2.11,3.51c-1.02,1.27-1.86,2.67-2.52,4.15c-1.87,4.73,0.45,10.09,5.18,11.96
					c1.16,0.46,2.4,0.68,3.64,0.64c2.2,0.01,4.32-0.8,5.96-2.26c1.5-1.39,2.54-3.21,2.95-5.21c0.38-1.82,0.2-3.7-0.51-5.42
					c-0.65-1.62-1.51-3.04-2.18-4.4c-1.15-2.13-1.67-4.54-1.5-6.96c0.05-0.65,0.15-1.29,0.32-1.93
					C2361.26,214.18,2361.33,213.97,2361.43,213.76z"/>
			</g>
		</g>
		<g id="Group_368">
			<g id="Group_367">
				<path id="Path_867" class="st24" d="M2357.82,214.69c-0.05,0.62-0.14,1.23-0.26,1.84c-0.25,1.66-0.42,3.33-0.5,5.01
					c-0.12,2.48-0.01,4.96,0.33,7.42c0.05,0.31,0.19,0.6,0.41,0.83c0.19,0.22,0.48,0.32,0.76,0.27c0.54-0.12,0.82-0.94,0.72-1.58
					c-0.25-1.5-1.53-2.61-3.04-2.66c-1.52,0-2.82,1.08-3.11,2.57c-0.14,0.65,0.21,1.31,0.82,1.57c0.62,0.13,1.23-0.23,1.42-0.83
					c0.21-0.62,0.33-1.28,0.33-1.94c0.05-0.66,0.07-1.31,0.08-1.93c0.01-1.16-0.03-2.31-0.14-3.46c-0.16-1.67-0.44-3.33-0.84-4.96
					c-0.28-1.16-0.48-1.79-0.44-1.8c0.09,0.14,0.15,0.28,0.2,0.44c0.11,0.29,0.26,0.74,0.44,1.31c0.48,1.62,0.82,3.29,1.01,4.97
					c0.13,1.16,0.2,2.33,0.21,3.51c0,0.63-0.01,1.29-0.06,1.96c0,0.72-0.12,1.43-0.35,2.11c-0.16,0.37-0.42,0.7-0.76,0.92
					c-0.37,0.25-0.83,0.32-1.26,0.18c-0.84-0.33-1.33-1.21-1.17-2.1c0.33-1.97,2.19-3.31,4.17-2.98c1.56,0.26,2.77,1.5,3,3.06
					c0.06,0.42,0.01,0.86-0.16,1.25c-0.16,0.43-0.52,0.76-0.96,0.88c-0.45,0.08-0.91-0.08-1.22-0.42c-0.27-0.3-0.45-0.67-0.52-1.07
					c-0.53-4.19-0.38-8.43,0.45-12.57c0.12-0.59,0.23-1.04,0.31-1.34C2357.7,214.99,2357.75,214.84,2357.82,214.69z"/>
			</g>
		</g>
		<g id="Group_370">
			<g id="Group_369">
				<path id="Path_868" class="st25" d="M2356.18,125.07c0.04,0.25,0.06,0.5,0.05,0.75c0.01,0.54,0.03,1.26,0.05,2.16
					c0.02,1.93,0.05,4.63,0.08,7.94c0.02,6.76,0.05,16,0.08,26.21c-0.03,10.21-0.06,19.46-0.08,26.21
					c-0.03,3.31-0.06,6.01-0.08,7.94c-0.02,0.9-0.04,1.62-0.05,2.16c0.21,0.03,0.35,0.22,0.32,0.42c-0.03,0.21-0.22,0.35-0.42,0.32
					c-0.21-0.03-0.35-0.22-0.32-0.42c0.02-0.17,0.16-0.3,0.32-0.32c-0.01-0.54-0.03-1.26-0.05-2.16c-0.02-1.93-0.05-4.63-0.08-7.94
					c-0.02-6.76-0.05-16-0.08-26.21c0.03-10.21,0.06-19.45,0.08-26.21c0.03-3.31,0.06-6.01,0.08-7.94c0.02-0.9,0.04-1.62,0.05-2.16
					C2356.12,125.58,2356.14,125.32,2356.18,125.07z"/>
			</g>
		</g>
		<g id="Group_371">
			<path id="Path_869" class="st26" d="M2349.16,200.09l2.71-12.13h9l2.3,12.13H2349.16z"/>
		</g>
		<g id="Group_372">
			<path id="Path_870" class="st26" d="M2349.16,200.09l-43.68,14.67h98.69l-41.01-14.67H2349.16z"/>
		</g>
	</g>
</g>
</svg>
