<svg xmlns="http://www.w3.org/2000/svg" viewBox="0 0 29.2 25.33"><defs><style>.cls-1{fill:#f4a196;}</style></defs><g id="Layer_2" data-name="Layer 2"><g id="Layer_1-2" data-name="Layer 1"><path id="Rectangle_8" data-name="Rectangle 8" class="cls-1" d="M5.4,1.2h18v15h-13a5,5,0,0,1-5-5V1.2Z"/><path id="Path_344" data-name="Path 344" d="M15,8.78H13.9A.88.88,0,0,1,13,8a.88.88,0,0,1,.9-.8H16a.68.68,0,0,0,.7-.7c0-.4-.2-.9-.6-.9h-.9v-.9a.68.68,0,0,0-.7-.7.77.77,0,0,0-.8.7v.9a2.33,2.33,0,0,0-2.1,2.5,2.29,2.29,0,0,0,2.3,2.1H15a.79.79,0,0,1,.8.8c0,.4-.3,1-.8,1H12.9a.77.77,0,0,0-.8.7.68.68,0,0,0,.7.7h.8v.8a.7.7,0,1,0,1.4,0v-.8a2.33,2.33,0,0,0,2.1-2.5A2,2,0,0,0,15,8.78Z"/><path id="Path_345" data-name="Path 345" d="M18.44,17.52h-8a.7.7,0,1,0,0,1.4h8a.7.7,0,0,0,0-1.4Z"/><path id="Path_346" data-name="Path 346" d="M23.26,0H5.66A.68.68,0,0,0,5,.7V22.4a.76.76,0,0,0,.2.5l2.2,2.2a.78.78,0,0,0,1.1,0h0l1.7-1.7,1.7,1.7a.78.78,0,0,0,1.1,0h0l1.7-1.7,1.7,1.7a.78.78,0,0,0,1.1,0h0l1.7-1.7,1.7,1.7a.78.78,0,0,0,1.1,0h0l2.2-2.2a.76.76,0,0,0,.2-.5V.7C24,.3,23.66,0,23.26,0Zm-2.2,23.6-1.7-1.7a.78.78,0,0,0-1.1,0h0l-1.7,1.7L15,21.9a.78.78,0,0,0-1.1,0h0l-1.7,1.7-1.7-1.7a.78.78,0,0,0-1.1,0h0l-1.7,1.7-1.4-1.4V1.5h16V22.1h0Z"/><circle id="Ellipse_127-10" data-name="Ellipse 127-10" class="cls-1" cx="1.5" cy="8.4" r="1.5"/><circle id="Ellipse_127-11" data-name="Ellipse 127-11" class="cls-1" cx="27.7" cy="17.2" r="1.5"/><circle id="Ellipse_128-10" data-name="Ellipse 128-10" class="cls-1" cx="4.4" cy="9.9" r="0.6"/><circle id="Ellipse_128-11" data-name="Ellipse 128-11" class="cls-1" cx="24.8" cy="18.7" r="0.6"/></g></g></svg>