<svg id="Layer_1" data-name="Layer 1" xmlns="http://www.w3.org/2000/svg" viewBox="0 0 96 96"><defs><style>.cls-1{fill:#2196f3;}.cls-2{fill:#fafafa;}</style></defs><circle class="cls-1" cx="48" cy="48" r="48"/><path class="cls-2" d="M309.75,58.9a32.38,32.38,0,0,1-14.7-3.4,3,3,0,0,0-2.3-.1,2.83,2.83,0,0,0-1.7,1.5l-2.2,4.5a41.71,41.71,0,0,1-15.6-15.6l4.5-2.2a2.8,2.8,0,0,0,1.5-1.7,3,3,0,0,0-.1-2.3,33.4,33.4,0,0,1-3.4-14.7,3,3,0,0,0-3-3h-11a3,3,0,0,0-3,3,51.09,51.09,0,0,0,51,51,3,3,0,0,0,3-3v-11A3,3,0,0,0,309.75,58.9Z" transform="translate(-237.75 -1)"/></svg>