<svg xmlns="http://www.w3.org/2000/svg" viewBox="0 0 38.26 26.98"><defs><style>.cls-1{fill:#bdb3ee;}.cls-2{fill-rule:evenodd;}</style></defs><g id="Layer_2" data-name="Layer 2"><g id="Layer_1-2" data-name="Layer 1"><ellipse id="Ellipse_225" data-name="Ellipse 225" class="cls-1" cx="22.9" cy="12.78" rx="14" ry="8"/><path id="Path_0-2" data-name="Path 0-2" class="cls-2" d="M18.7,3c.1,0,1.1,0,2,.1s2.2.2,2.7.2,1.3.2,1.8.3,1.3.3,1.9.4a10.56,10.56,0,0,1,1.9.6,11.64,11.64,0,0,1,1.5.6c.3.1,1,.5,1.5.7s1.2.7,1.6.9a17,17,0,0,1,1.4,1,5.73,5.73,0,0,1,1.1,1.1c.3.3.5.7.8,1a3.13,3.13,0,0,1,.5,1c.1.4.3.8.4,1.2a5.07,5.07,0,0,1,.2,1.3c0,.4-.1.8-.1,1.1l-.3,1.2-.6,1.2a7.63,7.63,0,0,1-.8,1.1,5.24,5.24,0,0,1-1.1,1,7.1,7.1,0,0,1-1.4,1,8.27,8.27,0,0,1-1.6.9c-.5.2-1.2.6-1.5.7s-1,.4-1.5.6-1.4.4-1.9.6a12.86,12.86,0,0,1-1.9.4c-.5.1-1.3.2-1.8.3a17.57,17.57,0,0,1-2.7.2,20.44,20.44,0,0,1-3.5,0c-1-.1-2.1-.2-2.6-.2a11.27,11.27,0,0,1-1.8-.3c-.5-.1-1.3-.3-1.8-.4s-1.3-.4-1.8-.5-1.2-.4-1.7-.6a13,13,0,0,1-1.7-.8c-.5-.3-1.1-.6-1.5-.9A17,17,0,0,1,3,19a5.73,5.73,0,0,1-1.1-1.1c-.3-.3-.5-.7-.8-1a3.13,3.13,0,0,1-.5-1c-.1-.4-.3-.8-.4-1.2a5.07,5.07,0,0,1-.2-1.3c0-.4.1-.8.1-1.1a5.64,5.64,0,0,1,.4-1.2l.6-1.2a7.63,7.63,0,0,1,.8-1.1,5.24,5.24,0,0,1,1.1-1,7.1,7.1,0,0,1,1.4-1,11.91,11.91,0,0,0,1.5-.9,10.09,10.09,0,0,1,1.5-.7c.4-.2,1.1-.4,1.6-.6s1.4-.4,1.9-.6a12.86,12.86,0,0,1,1.9-.4c.5-.1,1.3-.2,1.9-.3a18.09,18.09,0,0,1,2.5-.2C17.8,3.08,18.6,3,18.7,3ZM15,4.88a24,24,0,0,0-2.4.4c-.7.2-1.7.4-2.2.5a12.66,12.66,0,0,0-1.8.6,14.17,14.17,0,0,0-1.8.8c-.5.3-1.2.7-1.6.9A5.38,5.38,0,0,0,4,9a4.74,4.74,0,0,0-1,1,3.59,3.59,0,0,0-.7,1,9.29,9.29,0,0,0-.5,1,5,5,0,0,0-.2,1.2v1.1c.1.3.1.5.2.8a3.33,3.33,0,0,0,.6,1,10.59,10.59,0,0,0,1,1.2,12.67,12.67,0,0,0,1.3,1.1,17.39,17.39,0,0,0,1.8,1.1c.6.3,1.5.7,2,.9a12.66,12.66,0,0,0,1.8.6c.5.1,1.4.4,2,.5s1.6.3,2.3.4a23,23,0,0,0,2.8.2,16.05,16.05,0,0,0,3.1,0c.8,0,2.1-.2,2.7-.2s1.7-.3,2.3-.4,1.5-.4,2-.5a12.66,12.66,0,0,0,1.8-.6,14.17,14.17,0,0,0,1.8-.8,8.27,8.27,0,0,0,1.6-.9,5.38,5.38,0,0,0,1.2-.9,4.74,4.74,0,0,0,1-1,6.07,6.07,0,0,0,.7-1,9.29,9.29,0,0,0,.5-1,3.4,3.4,0,0,0,.2-1.4,3.18,3.18,0,0,0-.2-1.4,9.25,9.25,0,0,0-.5-1,6.07,6.07,0,0,0-.7-1,4.74,4.74,0,0,0-1-1,9.38,9.38,0,0,0-1.2-.9c-.4-.2-1.1-.6-1.6-.9s-1.3-.6-1.8-.8a12.66,12.66,0,0,0-1.8-.6c-.5-.1-1.4-.4-2-.5s-1.6-.3-2.3-.4a21.12,21.12,0,0,0-2.6-.2c-.8,0-1.6-.1-2-.1a9.15,9.15,0,0,0-1.6.1C16.5,4.78,15.6,4.78,15,4.88Zm2,1.4h1a3.4,3.4,0,0,1,1,.1s-.1.7-.3,1.5-.3,1.5-.3,1.5a8.6,8.6,0,0,0,1.6.1,4.42,4.42,0,0,1,2,.2,1.61,1.61,0,0,1,.7.4.86.86,0,0,1,.3.6,1.1,1.1,0,0,1,0,.8,34.36,34.36,0,0,1-.9,4.2H21c-1,0-1.1,0-1-.1s.2-.9.4-1.8.4-1.8.4-2,0-.4-.2-.6A1.42,1.42,0,0,0,20,11H18l-1,4.8H16c-1,0-1,0-1-.2s.5-2.2,1-4.8Zm-6.7,3.2a13.13,13.13,0,0,1,2.8.1,4.88,4.88,0,0,1,.7.3,2.18,2.18,0,0,1,.5.4c.1.2.3.4.4.6a2.92,2.92,0,0,1,.2.9,4.1,4.1,0,0,1-.1,1.1,4.18,4.18,0,0,1-.4,1,2.41,2.41,0,0,1-.6.8,5.55,5.55,0,0,1-.8.6c-.3.1-.7.3-1,.4-1.1.1-2.2.2-3.3.2l-.1.8q-.15.6-.3,1.5h-1c-1,0-1,0-1-.2s.4-2,.8-4.2.8-4.1.8-4.2A6.38,6.38,0,0,1,10.3,9.48Zm-.9,3.1c-.1.7-.3,1.3-.3,1.4s.1.1,1.2.1,1.3,0,1.6-.2.3-.2.5-.3a2.19,2.19,0,0,0,.3-.5,2.92,2.92,0,0,0,.2-.9v-.6c-.5-.5-.7-.6-.9-.6a5.7,5.7,0,0,0-1.3-.1c-.9,0-.9,0-1,.2A7.52,7.52,0,0,0,9.4,12.58Zm17.5-3.1a26.2,26.2,0,0,1,2.8.1c.2.1.4.1.6.2a1,1,0,0,1,.5.4,2.65,2.65,0,0,1,.5.6,3,3,0,0,1,.2,1,4.1,4.1,0,0,1-.1,1.1c-.1.3-.2.7-.3,1a2.18,2.18,0,0,1-.5.8,2.41,2.41,0,0,1-.8.6,3.58,3.58,0,0,1-1.1.4c-1.1.1-2.2.2-3.3.2l-.2,1c-.1.6-.2,1.1-.2,1.2s-.1.1-1.1.1-1,0-1-.2.4-2,.8-4.2.8-4.1.8-4.2A6.47,6.47,0,0,1,26.9,9.48Zm-.6,1.9c0,.2-.2.9-.3,1.5s-.2,1.1-.2,1.2.1.1,1.2.1,1.3,0,1.6-.2.3-.2.5-.3a2.19,2.19,0,0,0,.3-.5,2.92,2.92,0,0,0,.2-.9v-.6c-.5-.5-.7-.6-.9-.6a5.7,5.7,0,0,0-1.3-.1h-.9Z"/><circle id="Ellipse_127-25" data-name="Ellipse 127-25" class="cls-1" cx="34.66" cy="24.78" r="1.6"/><circle id="Ellipse_128-25" data-name="Ellipse 128-25" class="cls-1" cx="37.66" cy="26.38" r="0.6"/><circle id="Ellipse_127-26" data-name="Ellipse 127-26" class="cls-1" cx="4.25" cy="1.6" r="1.6"/><circle id="Ellipse_128-26" data-name="Ellipse 128-26" class="cls-1" cx="1.25" cy="3.2" r="0.6"/></g></g></svg>