<svg id="Layer_1" data-name="Layer 1" xmlns="http://www.w3.org/2000/svg" xmlns:xlink="http://www.w3.org/1999/xlink" viewBox="0 0 30.22 29.02"><defs><style>.cls-1{fill:none;}.cls-2{clip-path:url(#clip-path);}.cls-3{fill:#ffd45e;}</style><clipPath id="clip-path" transform="translate(0 0)"><rect class="cls-1" width="30.22" height="29.02"/></clipPath></defs><g class="cls-2"><path class="cls-3" d="M6,9.22h8a3,3,0,0,1,3,3v7a3,3,0,0,1-3,3H6a3,3,0,0,1-3-3v-7a3,3,0,0,1,3-3" transform="translate(0 0)"/><path class="cls-3" d="M26.51,15.22h0a2.48,2.48,0,0,1,2.5,2.5v8a2.5,2.5,0,0,1-5,0v-8a2.48,2.48,0,0,1,2.5-2.5" transform="translate(0 0)"/><path d="M28,3.12H18a2.33,2.33,0,0,0-2.1,2.5H2.11A2.39,2.39,0,0,0,0,8.12V24a2.27,2.27,0,0,0,2.1,2.5H16a2.27,2.27,0,0,0,2.1,2.5h10a2.33,2.33,0,0,0,2.1-2.5V5.62A2.67,2.67,0,0,0,28,3.12m-12.1,21.3H2.11c-.2,0-.3-.2-.3-.4v-1.1H16v1.5Zm0-3.6H1.81V8.12c0-.2.1-.3.3-.4H16v13.1Zm9.2-15.5-.2,1.4h-3.8l-.2-1.4h4.2m3.1,21.2c0,.2-.1.3-.3.4H18c-.2,0-.3-.2-.3-.4V5.62c0-.2.1-.3.3-.4h1l.6,3.6h6.7l.6-3.6h1c.2,0,.3.2.3.4Z" transform="translate(0 0)"/><path class="cls-3" d="M11.21,0a1.6,1.6,0,1,1-1.6,1.6A1.6,1.6,0,0,1,11.21,0" transform="translate(0 0)"/></g></svg>