<svg id="Layer_1" data-name="Layer 1" xmlns="http://www.w3.org/2000/svg" xmlns:xlink="http://www.w3.org/1999/xlink" viewBox="0 0 33.9 27.8"><defs><style>.cls-1{fill:none;}.cls-2{clip-path:url(#clip-path);}.cls-3{fill:#a8c1ff;}</style><clipPath id="clip-path" transform="translate(0 0)"><rect class="cls-1" width="33.9" height="27.8"/></clipPath></defs><g class="cls-2"><path class="cls-3" d="M12,2c5.14,0,9.3,5.19,9.3,11.6S17.14,25.2,12,25.2,2.7,20,2.7,13.6,6.86,2,12,2" transform="translate(0 0)"/><path class="cls-3" d="M24.3,14c1.49,0,2.7,1.48,2.7,3.3s-1.21,3.3-2.7,3.3-2.7-1.48-2.7-3.3S22.81,14,24.3,14" transform="translate(0 0)"/><path d="M20.13,20.41v-.1h.1a5.61,5.61,0,0,1-.9-3.1,5.71,5.71,0,0,1,2-4.4h-.5a31.25,31.25,0,0,0-.4-4.3,17.13,17.13,0,0,0,4.9-1.4,13,13,0,0,1,1.8,4.6,5.85,5.85,0,0,1,1.7,1,13.81,13.81,0,0,0-2.5-7,.22.22,0,0,0-.2-.2,13.58,13.58,0,0,0-19-2.8,12.4,12.4,0,0,0-2.8,2.8.31.31,0,0,1-.1.2,13.69,13.69,0,0,0,0,15.7c0,.1.1.1.2.2a13.53,13.53,0,0,0,13.2,5.3v-.2a8.44,8.44,0,0,1,2.5-6.3m-1.2-1.9c-1.2-.1-2.4-.2-3.6-.2s-2.4.1-3.6.2c-.2-1.4-.3-2.7-.4-4.1h7.9a28.28,28.28,0,0,1-.3,4.1m-7.6-5.7a28.45,28.45,0,0,1,.4-4.1c1.2.1,2.4.2,3.6.2s2.4-.1,3.6-.2c.2,1.4.3,2.7.4,4.1h-8m13.1-7a21.7,21.7,0,0,1-4.2,1.1,25.82,25.82,0,0,0-.8-2.6A10.08,10.08,0,0,0,18.23,2a11.83,11.83,0,0,1,6.2,3.8m-9.1-4.1c1.2,0,2.5,2.1,3.3,5.4-1.1.1-2.2.2-3.3.2s-2.2-.1-3.3-.2c.8-3.3,2.1-5.4,3.3-5.4m-2.9.3a9,9,0,0,0-1.2,2.4,18.29,18.29,0,0,0-.8,2.5,21.7,21.7,0,0,1-4.2-1.1A11.83,11.83,0,0,1,12.43,2m-7.2,5.1a21.08,21.08,0,0,0,4.9,1.4,29.86,29.86,0,0,0-.4,4.3H3.33a12.86,12.86,0,0,1,1.9-5.7m0,13a11.73,11.73,0,0,1-1.9-5.7h6.4a31.25,31.25,0,0,0,.4,4.3,17.13,17.13,0,0,0-4.9,1.4m1,1.3a21.7,21.7,0,0,1,4.2-1.1,12.94,12.94,0,0,0,.8,2.6,13.44,13.44,0,0,0,1.2,2.4,12.24,12.24,0,0,1-6.2-3.9m9.1,4.1c-1.2,0-2.5-2.1-3.3-5.4,1.1-.1,2.2-.2,3.3-.2s2.2.1,3.3.2c-.8,3.3-2.1,5.4-3.3,5.4" transform="translate(0 0)"/><path d="M25,21.91a4.78,4.78,0,0,1-4.7-4.8,4.7,4.7,0,0,1,9.4,0,3.92,3.92,0,0,1-.4,1.8,4.54,4.54,0,0,1-4.3,3m0-8a3.22,3.22,0,0,0-3.2,3.2,3.2,3.2,0,0,0,6.4,0,3.22,3.22,0,0,0-3.2-3.2" transform="translate(0 0)"/><path d="M30.59,27.76H19.39a.9.9,0,0,1-.9-.9,7.58,7.58,0,0,1,3.6-6.7.91.91,0,0,1,1.2.1l1.7,1.8,1.7-1.8a1.06,1.06,0,0,1,1.2-.2,7.58,7.58,0,0,1,3.6,6.7.92.92,0,0,1-.9,1M20,26.26H30a6.13,6.13,0,0,0-2.5-4.6L25,24.26l-2.5-2.6a6.13,6.13,0,0,0-2.5,4.6" transform="translate(0 0)"/><path class="cls-3" d="M32.2,9.4a1.7,1.7,0,1,1-1.7,1.7,1.7,1.7,0,0,1,1.7-1.7" transform="translate(0 0)"/><path class="cls-3" d="M30,12.8a.6.6,0,1,1-.6.6.6.6,0,0,1,.6-.6" transform="translate(0 0)"/><path class="cls-3" d="M3.9,0A1.7,1.7,0,1,1,2.2,1.7,1.7,1.7,0,0,1,3.9,0" transform="translate(0 0)"/><path class="cls-3" d="M.6.5a.6.6,0,1,1-.6.6A.6.6,0,0,1,.6.5" transform="translate(0 0)"/><path class="cls-3" d="M3.9,22.8a1.7,1.7,0,1,1-1.7,1.7,1.7,1.7,0,0,1,1.7-1.7" transform="translate(0 0)"/><path class="cls-3" d="M6.2,26.6a.6.6,0,1,1-.6.6.6.6,0,0,1,.6-.6" transform="translate(0 0)"/></g></svg>