<svg id="Layer_1" data-name="Layer 1" xmlns="http://www.w3.org/2000/svg" xmlns:xlink="http://www.w3.org/1999/xlink" viewBox="0 0 24.93 24.92"><defs><style>.cls-1,.cls-5{fill:none;}.cls-2{clip-path:url(#clip-path);}.cls-3{fill:#a8c1ff;}.cls-4{fill:#fff;}.cls-5{stroke:#707070;stroke-width:0.25px;}.cls-6{fill:#3880ff;}.cls-7{fill:#373f54;}</style><clipPath id="clip-path" transform="translate(0 0)"><rect class="cls-1" width="24.92" height="24.92"/></clipPath></defs><g class="cls-2"><path class="cls-3" d="M11.1,3.3a9.5,9.5,0,1,1-9.5,9.5,9.5,9.5,0,0,1,9.5-9.5" transform="translate(0 0)"/><path class="cls-4" d="M19,17.8v-.6a.87.87,0,0,0-.6-.9c-.1-.1-.2-.1-.2-.2V14.8a1.84,1.84,0,0,0-1.9-1.9H14.2a1.06,1.06,0,0,1-1-.9v-.9c0-.2,0-.2.2-.3a1,1,0,0,0,.7-.9V9.1a.88.88,0,0,0-.8-.9h-1a.88.88,0,0,0-.8.9v.7a.88.88,0,0,0,.7.9.22.22,0,0,1,.2.2v.9a1.83,1.83,0,0,0,1.7,1.7c.2,0,.2.1.2.2v1a.8.8,0,0,1-.9.9H8.9a1.65,1.65,0,0,0-1.7,1.5v1.1c0,.2,0,.3-.2.3a.88.88,0,0,0-.8.9v.8a1.06,1.06,0,0,0,.9,1h.8c.6,0,.9-.4.9-1v-.7a.8.8,0,0,0-.7-.9c-.1,0-.2-.1-.1-.2v-1a.9.9,0,0,1,.9-.9h2.7c.1,0,.2,0,.2.2v.9c0,.1,0,.2-.2.2a.8.8,0,0,0-.7.9v.7a1.06,1.06,0,0,0,.9,1h.8a.92.92,0,0,0,.9-1v-.7a1.05,1.05,0,0,0-.8-1c-.1,0-.1-.1-.1-.2v-.9c0-.2.1-.2.2-.2h.7a1.64,1.64,0,0,0,1.6-1.6V13.7c0-.1,0-.2.2-.2h1.1a.94.94,0,0,1,1,1v1.4c0,.1,0,.2-.2.2a.92.92,0,0,0-.9,1v.7a.9.9,0,0,0,.9.9h1c.6,0,.8-.3.8-.9m-6.5-7.7a.22.22,0,0,1-.2-.2V9.2a.22.22,0,0,1,.2-.2h.7a.22.22,0,0,1,.2.2v.7a.22.22,0,0,1-.2.2ZM8,19.5v.7a.22.22,0,0,1-.2.2H7.1a.22.22,0,0,1-.2-.2v-.7a.22.22,0,0,1,.2-.2h.7a.22.22,0,0,1,.2.2m4.7-.8v.7a.22.22,0,0,1-.2.2h-.7a.22.22,0,0,1-.2-.2v-.7a.22.22,0,0,1,.2-.2h.7a.22.22,0,0,1,.2.2m5.5-.7a.22.22,0,0,1-.2.2h-.7a.22.22,0,0,1-.2-.2v-.7a.22.22,0,0,1,.2-.2H18a.22.22,0,0,1,.2.2Z" transform="translate(0 0)"/><path class="cls-5" d="M19,17.8v-.6a.87.87,0,0,0-.6-.9c-.1-.1-.2-.1-.2-.2V14.8a1.84,1.84,0,0,0-1.9-1.9H14.2a1.06,1.06,0,0,1-1-.9v-.9c0-.2,0-.2.2-.3a1,1,0,0,0,.7-.9V9.1a.88.88,0,0,0-.8-.9h-1a.88.88,0,0,0-.8.9v.7a.88.88,0,0,0,.7.9.22.22,0,0,1,.2.2v.9a1.83,1.83,0,0,0,1.7,1.7c.2,0,.2.1.2.2v1a.8.8,0,0,1-.9.9H8.9a1.65,1.65,0,0,0-1.7,1.5v1.1c0,.2,0,.3-.2.3a.88.88,0,0,0-.8.9v.8a1.06,1.06,0,0,0,.9,1h.8c.6,0,.9-.4.9-1v-.7a.8.8,0,0,0-.7-.9c-.1,0-.2-.1-.1-.2v-1a.9.9,0,0,1,.9-.9h2.7c.1,0,.2,0,.2.2v.9c0,.1,0,.2-.2.2a.8.8,0,0,0-.7.9v.7a1.06,1.06,0,0,0,.9,1h.8a.92.92,0,0,0,.9-1v-.7a1.05,1.05,0,0,0-.8-1c-.1,0-.1-.1-.1-.2v-.9c0-.2.1-.2.2-.2h.7a1.64,1.64,0,0,0,1.6-1.6V13.7c0-.1,0-.2.2-.2h1.1a.94.94,0,0,1,1,1v1.4c0,.1,0,.2-.2.2a.92.92,0,0,0-.9,1v.7a.9.9,0,0,0,.9.9h1C18.8,18.7,19,18.4,19,17.8Zm-6.5-7.7a.22.22,0,0,1-.2-.2V9.2a.22.22,0,0,1,.2-.2h.7a.22.22,0,0,1,.2.2v.7a.22.22,0,0,1-.2.2ZM8,19.5v.7a.22.22,0,0,1-.2.2H7.1a.22.22,0,0,1-.2-.2v-.7a.22.22,0,0,1,.2-.2h.7A.22.22,0,0,1,8,19.5Zm4.7-.8v.7a.22.22,0,0,1-.2.2h-.7a.22.22,0,0,1-.2-.2v-.7a.22.22,0,0,1,.2-.2h.7A.22.22,0,0,1,12.7,18.7Zm5.5-.7a.22.22,0,0,1-.2.2h-.7a.22.22,0,0,1-.2-.2v-.7a.22.22,0,0,1,.2-.2H18a.22.22,0,0,1,.2.2Z" transform="translate(0 0)"/><path class="cls-4" d="M12.8.8a12,12,0,1,0,12,12,12,12,0,0,0-12-12m2.8,20.7c-.6,0-.5.1-.5-.5s-.1-.5.5-.5.5,0,.5.5.1.5-.5.5m.7,1.3c-.1,0-.2.1-.2,0a.44.44,0,0,1,.1-.5.91.91,0,0,0,.8-1v-.8a1.06,1.06,0,0,0-.8-.9h-1a.86.86,0,0,0-.8.8v.9a.77.77,0,0,0,.7.8.22.22,0,0,1,.2.2c0,.7.1.6-.6.7a10.2,10.2,0,0,1-9.6-3.3,9.88,9.88,0,0,1-2.8-6.3,11.5,11.5,0,0,1,.2-3.2c0-.2.1-.3.3-.2H5.9c.2,0,.3,0,.3.2v1.9a1.27,1.27,0,0,0,.1.6,1.09,1.09,0,0,0,1,.7h.6c.1,0,.2,0,.2.1.1.5.5.7,1,.8h.6c.6,0,.9-.4,1-1v-.7c0-.6-.4-.9-1-.9H9a.88.88,0,0,0-.9.7c0,.2-.1.2-.2.2H7.4c-.3,0-.4-.1-.4-.4V7c0-.4.1-.5.5-.5h.7c.1,0,.1,0,.2.1a.94.94,0,0,0,1.1.8h.6a.9.9,0,0,0,.9-.9V5.7a.9.9,0,0,0-.9-.9H9.3a1,1,0,0,0-.9.7.22.22,0,0,1-.2.2H7.4A1.16,1.16,0,0,0,6.2,6.9v2c0,.2,0,.2-.2.2H3.1c-.2,0-.2-.1-.2-.2A10.66,10.66,0,0,1,7.4,3.4a9.46,9.46,0,0,1,6.1-1.5,10.5,10.5,0,0,1,8.6,5.2,9.52,9.52,0,0,1,1.4,4.4c0,.2,0,.3-.3.3H19.5c-.4,0-.5-.1-.5-.5V7.7a1.21,1.21,0,0,0-1.3-1.3H16.1c-.4,0-.5-.1-.5-.5V5.6c0-.3,0-.6.4-.7a.79.79,0,0,0,.5-.8V3.3a.9.9,0,0,0-.9-.9h-.8a.9.9,0,0,0-.9.9v.8a.88.88,0,0,0,.7.9c.2,0,.2.1.2.3V6A1.16,1.16,0,0,0,16,7.2h1.7c.4,0,.5.1.5.5v3.7a1.21,1.21,0,0,0,1.3,1.3h.6c.1,0,.2,0,.2.2v1.5c0,.1,0,.2-.2.2a.86.86,0,0,0-.7.9v.7a1.06,1.06,0,0,0,.9,1h1a1,1,0,0,0,.7-1v-.6a.88.88,0,0,0-.7-.9.22.22,0,0,1-.2-.2V13.1a.27.27,0,0,1,.3-.3h1.9a.27.27,0,0,1,.3.3,10.5,10.5,0,0,1-1.9,5.7,11.16,11.16,0,0,1-5.4,4M9.4,12.9c.5,0,.5-.1.5.5s0,.5-.5.5-.5,0-.5-.5-.1-.5.5-.5m.8-6.5h0c0,.6.1.5-.5.5s-.5.1-.5-.5,0-.5.5-.5.5,0,.5.5m10.9,9.7c0,.5.1.5-.5.5s-.5,0-.5-.5,0-.5.5-.5.5-.1.5.5M15.2,3.4c.6,0,.5-.1.5.5s.1.5-.5.5-.5,0-.5-.5-.1-.5.5-.5" transform="translate(0 0)"/><path class="cls-5" d="M12.8.8a12,12,0,1,0,12,12A12,12,0,0,0,12.8.8Zm2.8,20.7c-.6,0-.5.1-.5-.5s-.1-.5.5-.5.5,0,.5.5S16.2,21.5,15.6,21.5Zm.7,1.3c-.1,0-.2.1-.2,0a.44.44,0,0,1,.1-.5.91.91,0,0,0,.8-1v-.8a1.06,1.06,0,0,0-.8-.9h-1a.86.86,0,0,0-.8.8v.9a.77.77,0,0,0,.7.8.22.22,0,0,1,.2.2c0,.7.1.6-.6.7a10.2,10.2,0,0,1-9.6-3.3,9.88,9.88,0,0,1-2.8-6.3,11.5,11.5,0,0,1,.2-3.2c0-.2.1-.3.3-.2H5.9c.2,0,.3,0,.3.2v1.9a1.27,1.27,0,0,0,.1.6,1.09,1.09,0,0,0,1,.7h.6c.1,0,.2,0,.2.1.1.5.5.7,1,.8h.6c.6,0,.9-.4,1-1v-.7c0-.6-.4-.9-1-.9H9a.88.88,0,0,0-.9.7c0,.2-.1.2-.2.2H7.4c-.3,0-.4-.1-.4-.4V7c0-.4.1-.5.5-.5h.7c.1,0,.1,0,.2.1a.94.94,0,0,0,1.1.8h.6a.9.9,0,0,0,.9-.9V5.7a.9.9,0,0,0-.9-.9H9.3a1,1,0,0,0-.9.7.22.22,0,0,1-.2.2H7.4A1.16,1.16,0,0,0,6.2,6.9v2c0,.2,0,.2-.2.2H3.1c-.2,0-.2-.1-.2-.2A10.66,10.66,0,0,1,7.4,3.4a9.46,9.46,0,0,1,6.1-1.5,10.5,10.5,0,0,1,8.6,5.2,9.52,9.52,0,0,1,1.4,4.4c0,.2,0,.3-.3.3H19.5c-.4,0-.5-.1-.5-.5V7.7a1.21,1.21,0,0,0-1.3-1.3H16.1c-.4,0-.5-.1-.5-.5V5.6c0-.3,0-.6.4-.7a.79.79,0,0,0,.5-.8V3.3a.9.9,0,0,0-.9-.9h-.8a.9.9,0,0,0-.9.9v.8a.88.88,0,0,0,.7.9c.2,0,.2.1.2.3V6A1.16,1.16,0,0,0,16,7.2h1.7c.4,0,.5.1.5.5v3.7a1.21,1.21,0,0,0,1.3,1.3h.6c.1,0,.2,0,.2.2v1.5c0,.1,0,.2-.2.2a.86.86,0,0,0-.7.9v.7a1.06,1.06,0,0,0,.9,1h1a1,1,0,0,0,.7-1v-.6a.88.88,0,0,0-.7-.9.22.22,0,0,1-.2-.2V13.1a.27.27,0,0,1,.3-.3h1.9a.27.27,0,0,1,.3.3,10.5,10.5,0,0,1-1.9,5.7A11.16,11.16,0,0,1,16.3,22.8ZM9.4,12.9c.5,0,.5-.1.5.5s0,.5-.5.5-.5,0-.5-.5S8.8,12.9,9.4,12.9Zm.8-6.5h0c0,.6.1.5-.5.5s-.5.1-.5-.5,0-.5.5-.5S10.2,5.9,10.2,6.4Zm10.9,9.7c0,.5.1.5-.5.5s-.5,0-.5-.5,0-.5.5-.5S21.1,15.5,21.1,16.1ZM15.2,3.4c.6,0,.5-.1.5.5s.1.5-.5.5-.5,0-.5-.5S14.6,3.4,15.2,3.4Z" transform="translate(0 0)"/><path class="cls-6" d="M20,0a.6.6,0,1,1-.6.6A.6.6,0,0,1,20,0" transform="translate(0 0)"/><path class="cls-6" d="M2.2,21a.7.7,0,1,1-.7.7.7.7,0,0,1,.7-.7" transform="translate(0 0)"/><path class="cls-6" d="M22.3.9a1.2,1.2,0,1,1-1.2,1.2A1.2,1.2,0,0,1,22.3.9" transform="translate(0 0)"/><path class="cls-7" d="M18.1,17.5v-.6a.87.87,0,0,0-.6-.9c-.1-.1-.2-.1-.2-.2V14.5a1.84,1.84,0,0,0-1.9-1.9H13.3a1.06,1.06,0,0,1-1-.9v-.9c0-.2,0-.2.2-.3a1,1,0,0,0,.7-.9V8.8a.88.88,0,0,0-.8-.9h-1a.88.88,0,0,0-.8.9v.7a.88.88,0,0,0,.7.9.22.22,0,0,1,.2.2v.9a1.83,1.83,0,0,0,1.7,1.7.22.22,0,0,1,.2.2v1a.8.8,0,0,1-.9.9H8a1.65,1.65,0,0,0-1.7,1.5v1.1c0,.2,0,.3-.2.3a.88.88,0,0,0-.8.9v.8a1.06,1.06,0,0,0,.9,1H7c.6,0,.9-.4.9-1v-.7a.8.8,0,0,0-.7-.9c-.1,0-.2-.1-.1-.2v-1a.9.9,0,0,1,.9-.9h2.7c.1,0,.2,0,.2.2v.9c0,.1,0,.2-.2.2a.8.8,0,0,0-.7.9v.7a1.06,1.06,0,0,0,.9,1h.8a.92.92,0,0,0,.9-1v-.7a1.05,1.05,0,0,0-.8-1c-.1,0-.1-.1-.1-.2v-.9c0-.2.1-.2.2-.2h.7a1.64,1.64,0,0,0,1.6-1.6V13.4c0-.1,0-.2.2-.2h1.1a.94.94,0,0,1,1,1v1.4c0,.1,0,.2-.2.2a.92.92,0,0,0-.9,1v.7a.9.9,0,0,0,.9.9h1a.72.72,0,0,0,.8-.9M11.7,9.7a.22.22,0,0,1-.2-.2V8.8a.22.22,0,0,1,.2-.2h.7a.22.22,0,0,1,.2.2v.7a.22.22,0,0,1-.2.2ZM7.2,19.2v.7a.22.22,0,0,1-.2.2H6.3a.22.22,0,0,1-.2-.2v-.7a.22.22,0,0,1,.2-.2H7c.1-.1.2,0,.2.2m4.7-.9V19a.22.22,0,0,1-.2.2H11a.22.22,0,0,1-.2-.2v-.7a.22.22,0,0,1,.2-.2h.7a.22.22,0,0,1,.2.2m5.5-.7a.22.22,0,0,1-.2.2h-.7a.22.22,0,0,1-.2-.2v-.7a.22.22,0,0,1,.2-.2h.7a.22.22,0,0,1,.2.2Z" transform="translate(0 0)"/><path class="cls-7" d="M12,.4a12,12,0,1,0,12,12A12,12,0,0,0,12,.4m2.8,20.8c-.6,0-.5.1-.5-.5s-.1-.5.5-.5.5,0,.5.5.1.5-.5.5m.7,1.3c-.1,0-.2.1-.2,0a.44.44,0,0,1,.1-.5.91.91,0,0,0,.8-1v-.8a1.06,1.06,0,0,0-.8-.9h-1a.86.86,0,0,0-.8.8V21a.77.77,0,0,0,.7.8.22.22,0,0,1,.2.2c0,.7.1.6-.6.7a10.2,10.2,0,0,1-9.6-3.3,9.88,9.88,0,0,1-2.8-6.3,11.5,11.5,0,0,1,.2-3.2c0-.2.1-.3.3-.2H5.1c.2,0,.3,0,.3.2v1.9a1.27,1.27,0,0,0,.1.6,1.09,1.09,0,0,0,1,.7h.6c.1,0,.2,0,.2.1.1.5.5.7,1,.8h.6c.6,0,.9-.4,1-1v-.7c0-.6-.4-.9-1-.9H8.2a.88.88,0,0,0-.9.7c0,.2-.1.2-.2.2H6.6c-.3,0-.4-.1-.4-.4V6.7c0-.4.1-.5.5-.5h.7c.1,0,.1,0,.2.1a.94.94,0,0,0,1.1.8h.6a.9.9,0,0,0,.9-.9V5.4a.9.9,0,0,0-.9-.9H8.5a1,1,0,0,0-.9.7.22.22,0,0,1-.2.2H6.6A1.16,1.16,0,0,0,5.4,6.6v2c0,.2,0,.2-.2.2H2.3c-.2,0-.2-.1-.2-.2A10.66,10.66,0,0,1,6.6,3.1a9.46,9.46,0,0,1,6.1-1.5,10.5,10.5,0,0,1,8.6,5.2,9.52,9.52,0,0,1,1.4,4.4c0,.2,0,.3-.3.3H18.7c-.4,0-.5-.1-.5-.5V7.4a1.21,1.21,0,0,0-1.3-1.3H15.3c-.4,0-.5-.1-.5-.5V5.3c0-.3,0-.6.4-.7a.79.79,0,0,0,.5-.8V3a.9.9,0,0,0-.9-.9H14a.9.9,0,0,0-.9.9v.8a.88.88,0,0,0,.7.9c.2,0,.2.1.2.3v.7a1.16,1.16,0,0,0,1.2,1.2h1.7c.4,0,.5.1.5.5v3.7a1.21,1.21,0,0,0,1.3,1.3h.6c.1,0,.2,0,.2.2v1.5c0,.1,0,.2-.2.2a.86.86,0,0,0-.7.9v.7a1.06,1.06,0,0,0,.9,1h1a1,1,0,0,0,.7-1v-.6a.88.88,0,0,0-.7-.9.22.22,0,0,1-.2-.2V12.8a.27.27,0,0,1,.3-.3h1.9a.27.27,0,0,1,.3.3,10.5,10.5,0,0,1-1.9,5.7,12.57,12.57,0,0,1-5.4,4m-7-10c.5,0,.5-.1.5.5s0,.5-.5.5S8,13.5,8,13s0-.5.5-.5m.8-6.4h0c0,.6.1.5-.5.5s-.5.1-.5-.5,0-.5.5-.5.5-.1.5.5m11,9.6c0,.5.1.5-.5.5s-.5,0-.5-.5,0-.5.5-.5.5-.1.5.5M14.4,3.1c.6,0,.5-.1.5.5s.1.5-.5.5-.5,0-.5-.5-.1-.5.5-.5" transform="translate(0 0)"/></g></svg>