<svg id="Layer_1" data-name="Layer 1" xmlns="http://www.w3.org/2000/svg" xmlns:xlink="http://www.w3.org/1999/xlink" viewBox="0 0 21.83 30.63"><defs><style>.cls-1{fill:none;}.cls-2{clip-path:url(#clip-path);}.cls-3{fill:#f4a196;}</style><clipPath id="clip-path" transform="translate(0 0)"><rect class="cls-1" width="21.83" height="30.63"/></clipPath></defs><g class="cls-2"><path class="cls-3" d="M.58,3.7s9.53,2.42,14.82,16l-5.77,3.6A19.92,19.92,0,0,1,.58,3.7" transform="translate(0 0)"/><path d="M15.38,12.94A20.7,20.7,0,0,0,1.63,2.07a.67.67,0,0,0-.84.53A21,21,0,0,0,4.44,19.77,8.71,8.71,0,0,0,10.89,29.9a.68.68,0,0,0,.85-.53.63.63,0,0,0-.2-.7,6.27,6.27,0,0,1-.92-1.08,4.57,4.57,0,0,1-.74-3.08.39.39,0,0,0,.31-.07l6.87-4.29a.4.4,0,0,0,.2-.25,5.73,5.73,0,0,1,2.44,2,6.82,6.82,0,0,1,.57,1.29.72.72,0,0,0,.9.5c.22,0,.42-.27.49-.54a8.7,8.7,0,0,0-6.28-10.23M2,3.61A19.28,19.28,0,0,1,7,5.78L1.76,9.07A19.07,19.07,0,0,1,2,3.61m7,23.9a7.74,7.74,0,0,1-3.33-6.28c0,.08,2.21,2,2.75,2.52A7.31,7.31,0,0,0,9,27.51M16,19.17,9.87,23A19.45,19.45,0,0,1,2,10.71l6.36-4A19.39,19.39,0,0,1,16,19.17m1.22-.88c-.2-1.06-1.06-3.58-1.06-3.58a7.21,7.21,0,0,1,3.13,2.75,6.59,6.59,0,0,1,1.05,3,6.46,6.46,0,0,0-3.12-2.17" transform="translate(0 0)"/><path d="M11.84,24.82a.68.68,0,0,0-.22,1l1.91,3.06a.68.68,0,0,0,1,.22.69.69,0,0,0,.23-1L12.81,25a.69.69,0,0,0-1-.22" transform="translate(0 0)"/><path d="M14.3,23.28a.82.82,0,0,0-.32.44c0,.13,0,.22,0,.36l.11.17,3.76,6,.11.17a.72.72,0,0,0,1-.06.63.63,0,0,0,.16-.68L19,29.53l-3.76-6-.11-.17a.74.74,0,0,0-.86-.06" transform="translate(0 0)"/><path d="M16.68,21.8a.68.68,0,0,0-.23,1l1.91,3.06a.7.7,0,1,0,1.19-.75L17.64,22c-.13-.39-.54-.49-1-.22h0" transform="translate(0 0)"/><path d="M10.41,16.93a3.36,3.36,0,1,1,1.13-4.61,3.36,3.36,0,0,1-1.13,4.61m-3-4.84a2.44,2.44,0,0,0-.76,3.31A2.3,2.3,0,0,0,10.52,13a2.21,2.21,0,0,0-3.14-.87" transform="translate(0 0)"/><path class="cls-3" d="M.47,18.63A1,1,0,1,1,.15,20a1,1,0,0,1,.32-1.38" transform="translate(0 0)"/><path class="cls-3" d="M2.59,19.19a.4.4,0,0,1,.42.68.4.4,0,1,1-.42-.68" transform="translate(0 0)"/><path class="cls-3" d="M5.31.15A1,1,0,1,1,5,1.53,1,1,0,0,1,5.31.15" transform="translate(0 0)"/><path class="cls-3" d="M7.12,2.09a.4.4,0,0,1,.55.13.4.4,0,0,1-.13.55.4.4,0,1,1-.42-.68" transform="translate(0 0)"/><path class="cls-3" d="M20,26.47a1,1,0,1,1-.32,1.38A1,1,0,0,1,20,26.47" transform="translate(0 0)"/><path class="cls-3" d="M20.63,24.66a.39.39,0,0,1,.55.13.4.4,0,0,1-.12.55.42.42,0,0,1-.56-.13.4.4,0,0,1,.13-.55" transform="translate(0 0)"/></g></svg>