<?xml version="1.0" encoding="utf-8"?>
<!-- Generator: Adobe Illustrator 26.0.0, SVG Export Plug-In . SVG Version: 6.00 Build 0)  -->
<svg version="1.1" id="Layer_1" xmlns="http://www.w3.org/2000/svg" xmlns:xlink="http://www.w3.org/1999/xlink" x="0px" y="0px"
	 viewBox="0 0 104 122.9" style="enable-background:new 0 0 104 122.9;" xml:space="preserve">
<style type="text/css">
	.st0{fill:#404040;}
</style>
<path class="st0" d="M83.6,122.5c-0.8,0.4-1.6,0.4-2.4,0.2c-0.9-0.2-1.6-0.8-2.1-1.6L70.2,106l-8.4,9.4c-1,1.2-2.3,2.2-3.8,2.8
	c-0.9,0.4-1.9,0.5-2.9,0.3c-1-0.2-1.9-0.9-2.5-1.8c-0.6-1-0.9-2.1-0.9-3.2l-3.5-45.5c-13.6,2.4-26.5-6.6-29-20.1s6.6-26.5,20.1-29
	s26.5,6.6,29,20.1c1.3,7.1-0.6,14.3-5,20L101.2,85c0.9,0.6,1.7,1.4,2.3,2.4c0.5,0.9,0.6,2,0.3,3c-0.3,0.9-0.9,1.7-1.7,2.3
	c-1.3,0.9-2.8,1.6-4.3,1.9h-0.1l-12.3,2.6l8.8,15.2c0.4,0.8,0.6,1.7,0.3,2.6c-0.2,0.9-0.8,1.6-1.5,2.1c0,0-0.1,0-0.1,0.1l-9.1,5.2
	L83.6,122.5L83.6,122.5z M47.3,55.1l-0.2-2.4v-0.1c0-0.4,0.1-0.7,0.2-1.1c0.2-0.4,0.5-0.7,0.8-1c0.1-0.1,0.3-0.2,0.5-0.2
	c0.3-0.1,0.7-0.2,1.1-0.1c0.4,0,0.7,0.1,1,0.3c0.1,0.1,0.2,0.1,0.3,0.2l0.9,0.6c0.3-1,0.4-2.1,0.4-3.1v-1.1c0-1.1-0.2-2.3-0.8-3.3
	c-0.5-1-1.3-1.8-2.2-2.3c-1.1-0.6-2.4-0.9-3.7-0.8h-2.1c-0.6,0-1.1-0.1-1.6-0.4c-0.4-0.3-0.5-0.8-0.5-1.2v-0.3
	c0-0.4,0.1-0.8,0.4-1.1c0.3-0.3,0.7-0.4,1.1-0.5c0.5-0.1,1.1-0.1,1.6-0.1c1,0,2.1,0,3.3,0.1s2.3,0.1,3.3,0.2v-4.9
	c-0.6-0.2-1.3-0.3-2.1-0.4s-1.6-0.3-2.5-0.4c-0.4,0-0.8-0.1-1.3-0.1V29h-3.4v2.5c-1.5,0.1-3,0.7-4.2,1.6c-1.5,1.3-2.2,3.3-2.1,5.2v1
	c0,2.5,0.6,4.4,1.9,5.5c1.6,1.2,3.6,1.8,5.6,1.6h1.7c0.4,0,0.8,0.1,1.2,0.3c0.3,0.2,0.5,0.6,0.5,1v0.4c0,0.4-0.1,0.7-0.3,1
	c-0.3,0.3-0.7,0.4-1.1,0.5c-0.6,0.1-1.2,0.2-1.8,0.2c-0.7,0-1.5,0-2.4,0s-1.7,0-2.5-0.1s-1.6-0.1-2.3-0.2v4.9
	c0.5,0.2,1.1,0.3,1.7,0.4s1.2,0.2,1.9,0.3s1.3,0.2,2,0.2h0.3v2.7h3.4v-2.7C46,55.3,46.7,55.3,47.3,55.1L47.3,55.1z M43.9,0
	c24.2,0,43.9,19.6,43.9,43.8c0,2.1-0.1,4.1-0.4,6.2c-0.3,2-0.7,4-1.2,6c-0.3,1.2-1.6,1.9-2.7,1.6c-0.3-0.1-0.5-0.2-0.8-0.4l-3.8-2.6
	C78.1,54,77.7,53,78,52.1c0.3-1.3,0.5-2.7,0.7-4c0.2-1.4,0.2-2.8,0.2-4.2c0-19.3-15.7-35-35-35s-35,15.7-35,35
	c0,16.5,11.5,30.7,27.7,34.2c1,0.2,1.7,1,1.8,2l0.3,4.6c0.1,1.2-0.8,2.3-2.1,2.4c-0.2,0-0.5,0-0.7-0.1c-4.3-0.8-8.5-2.2-12.3-4.3
	C2.1,71.5-6.2,45,5.1,23.5C12.6,9.1,27.6,0,43.9,0z M81.4,117.5c0.1,0,0.2,0,0.2,0h0.1l8.1-4.6c0.1-0.1,0.1-0.1,0.2-0.2
	c0-0.1,0-0.1,0-0.2l-9.4-16.9l0,0c-0.1-0.1-0.1-0.3-0.2-0.5c-0.2-0.8,0.4-1.6,1.2-1.8L95.5,91l0,0c1.1-0.2,2-0.6,2.9-1.2
	c0.3-0.2,0.5-0.5,0.6-0.8c0.1-0.2,0-0.4-0.1-0.6c-0.3-0.5-0.7-0.9-1.2-1.2L52.1,56.5l0.7,10.3l3.1,44.6c0,0.6,0.2,1.2,0.4,1.7
	c0.1,0.2,0.3,0.3,0.4,0.3c0.3,0,0.7,0,1-0.2c1-0.4,1.8-1.1,2.5-1.9l8.5-10.7l0,0c0.1-0.1,0.2-0.2,0.4-0.3c0.7-0.4,1.7-0.2,2.1,0.6
	c0,0,0,0,0,0l10.1,16.4C81.3,117.4,81.4,117.5,81.4,117.5L81.4,117.5z"/>
</svg>
