<svg id="Layer_1" data-name="Layer 1" xmlns="http://www.w3.org/2000/svg" viewBox="0 0 29.8 30.2"><defs><style>.cls-1{fill:#afccff;}.cls-2{fill:#3880ff;}</style></defs><g id="testimonials"><path id="Path_303" data-name="Path 303" class="cls-1" d="M777.4,57.3l.8,1.9-2.4-1.1a1.1,1.1,0,0,0-.8,0,7.17,7.17,0,0,1-2.9.6h0a7.34,7.34,0,0,1-5.2-2.1,10.64,10.64,0,0,0,4.7-1.3,1,1,0,0,0,.4-1.4,1,1,0,0,0-1.3-.5h0a9.81,9.81,0,0,1-8.2.3,1.1,1.1,0,0,0-.8,0l-3.5,1.6,1.2-3c.1-.4.1-.8-.2-1a7.84,7.84,0,0,1-1.9-5.1c0-4.6,4-8.3,9-8.3s9,3.7,9,8.3a7.87,7.87,0,0,1-1.2,4.2,1,1,0,0,0,1.7,1.1h0a9.79,9.79,0,0,0,1.4-3.7,6.37,6.37,0,0,1,1.9,4.4,6.21,6.21,0,0,1-1.4,3.9A1.14,1.14,0,0,0,777.4,57.3Z" transform="translate(-755 -33)"/><path id="Path_304" data-name="Path 304" d="M782.3,56.8A8.91,8.91,0,0,0,779.8,44a11.59,11.59,0,0,0-3.6-7.2,13.25,13.25,0,0,0-17.5,0,10.71,10.71,0,0,0-1.5,14.6l-2.1,5.3a1.18,1.18,0,0,0,.6,1.5.6.6,0,0,0,.4.1.9.9,0,0,0,.5-.1l6.1-2.7a21.72,21.72,0,0,0,2.4.7,9,9,0,0,0,3.4,3.3,11,11,0,0,0,5.3,1.4h.1a9.86,9.86,0,0,0,3.8-.7l4.8,2.1a.75.75,0,0,0,.5.1,1.11,1.11,0,0,0,1.1-1.1.6.6,0,0,0-.1-.4Zm-2.4.3.9,2.1L778.1,58a1.39,1.39,0,0,0-.9,0,9.28,9.28,0,0,1-3.3.7h0a8.16,8.16,0,0,1-5.8-2.3,13.43,13.43,0,0,0,5.3-1.4,1.12,1.12,0,0,0-1-2,11.19,11.19,0,0,1-9.3.3,1.39,1.39,0,0,0-.9,0l-4,1.7,1.3-3.3a1.09,1.09,0,0,0-.2-1.2,8.53,8.53,0,0,1-2-5.6c0-5.1,4.6-9.2,10.1-9.2s10.1,4.1,10.1,9.2a8.3,8.3,0,0,1-1.4,4.6,1.15,1.15,0,1,0,1.9,1.3h0a11.59,11.59,0,0,0,1.6-4,6.84,6.84,0,0,1,2.1,4.8,6.72,6.72,0,0,1-1.6,4.3A1.28,1.28,0,0,0,779.9,57.1Z" transform="translate(-755 -33)"/><circle id="Ellipse_54" data-name="Ellipse 54" class="cls-2" cx="27.7" cy="2.1" r="2.1"/><circle id="Ellipse_55" data-name="Ellipse 55" class="cls-2" cx="26.5" cy="7" r="1.1"/><circle id="Ellipse_56" data-name="Ellipse 56" class="cls-2" cx="5.9" cy="28" r="2.2"/><circle id="Ellipse_57" data-name="Ellipse 57" class="cls-2" cx="10.5" cy="28.8" r="1"/><circle id="Ellipse_58" data-name="Ellipse 58" class="cls-2" cx="1.5" cy="1.6" r="1.1"/></g></svg>