<svg xmlns="http://www.w3.org/2000/svg" viewBox="0 0 31.6 31.6"><defs><style>.cls-1,.cls-2{fill:#404040;}.cls-2{stroke:#404040;stroke-width:0.5px;}</style></defs><g id="Layer_2" data-name="Layer 2"><g id="Layer_1-2" data-name="Layer 1"><path id="Path_312-11" data-name="Path 312-11" class="cls-1" d="M26.3,3.3H5.3A3.23,3.23,0,0,0,2,6.4V24a4.18,4.18,0,0,0,4.3,4.2H25.2A4.25,4.25,0,0,0,29.5,24a1.1,1.1,0,1,0-2.2,0,2.11,2.11,0,0,1-2.1,2.1H6.3A2.05,2.05,0,0,1,4.2,24V9.7H27.4v9.1a1.1,1.1,0,1,0,2.2,0V6.4A3.36,3.36,0,0,0,26.3,3.3ZM21.9,5.4a1,1,0,0,1,1,1.1c-.1.6-.5,1.1-1.1,1a1,1,0,0,1-1-1.1A1.18,1.18,0,0,1,21.9,5.4Zm5.4,1a1.1,1.1,0,1,1-1.1-1.1h0a1.27,1.27,0,0,1,1.1,1.1ZM4.2,6.4A1.11,1.11,0,0,1,5.3,5.3H18.9a3.32,3.32,0,0,0,0,2.2H4.2Z"/><circle id="Ellipse_126-13" data-name="Ellipse 126-13" class="cls-1" cx="1.4" cy="1.4" r="1.4"/><circle id="Ellipse_127-17" data-name="Ellipse 127-17" class="cls-1" cx="28.3" cy="29.6" r="1.4"/><circle id="Ellipse_128-17" data-name="Ellipse 128-17" class="cls-1" cx="31" cy="31" r="0.6"/><path id="Path_479" data-name="Path 479" class="cls-1" d="M9.5,18.2H7v5.2H8.7V22.1h.7a1.84,1.84,0,0,0,2-1.8v-.2a1.84,1.84,0,0,0-1.9-1.9Zm-.3,2.6H8.8V19.7h.4a.63.63,0,0,1,.6.5v.1c-.1.2-.3.5-.6.5ZM14,23.6c1.4,0,2.2-.7,2.2-1.8s-1-1.5-1.7-1.7c-.4-.1-.8-.2-.8-.5,0-.1.1-.2.3-.2a.27.27,0,0,1,.3.3v.1H16c0-1.1-.8-1.7-2.1-1.7s-2.1.6-2.1,1.7c0,1.3,1,1.5,1.7,1.7.4.1.8.2.8.5a.27.27,0,0,1-.3.3h0c-.2,0-.3-.1-.4-.3v-.1H11.8C11.8,22.9,12.6,23.6,14,23.6Zm5-5.4H16.8v5.2H19A2.64,2.64,0,0,0,21.8,21v-.3a2.56,2.56,0,0,0-2.5-2.6A.37.37,0,0,1,19,18.2Zm-.1,3.7h-.4V19.8h.4a1,1,0,0,1,1.1.9v.1a.92.92,0,0,1-.9,1A.31.31,0,0,1,18.9,21.9Z"/><g id="coding-2"><g id="Group_157-2" data-name="Group 157-2"><g id="Group_156-2" data-name="Group 156-2"><path id="Path_315-2" data-name="Path 315-2" class="cls-2" d="M25.78,15.32l-1.4-1.5a.21.21,0,1,0-.3.3h0l1.3,1.3-1.3,1.4a.21.21,0,0,0,.3.3l1.4-1.5A.19.19,0,0,0,25.78,15.32Z"/></g></g><g id="Group_159-2" data-name="Group 159-2"><g id="Group_158-2" data-name="Group 158-2"><path id="Path_316-2" data-name="Path 316-2" class="cls-2" d="M21.52,16.82l-1.3-1.4,1.3-1.3a.21.21,0,0,0-.3-.3l-1.4,1.5a.19.19,0,0,0,0,.3l1.4,1.5a.21.21,0,0,0,.3-.3Z"/></g></g><g id="Group_161-2" data-name="Group 161-2"><g id="Group_160-2" data-name="Group 160-2"><path id="Path_317-2" data-name="Path 317-2" class="cls-2" d="M23.12,13a.22.22,0,0,0-.2.2h0l-.7,4.4c0,.1.1.2.2.3h0a.22.22,0,0,0,.2-.2l.7-4.4C23.32,13.11,23.32,13,23.12,13Z"/></g></g></g></g></g></svg>