<?xml version="1.0" encoding="utf-8"?>
<!-- Generator: Adobe Illustrator 24.1.0, SVG Export Plug-In . SVG Version: 6.00 Build 0)  -->
<svg version="1.1" id="Layer_1" xmlns="http://www.w3.org/2000/svg" xmlns:xlink="http://www.w3.org/1999/xlink" x="0px" y="0px"
	 viewBox="0 0 63 63" style="enable-background:new 0 0 63 63;" xml:space="preserve">
<style type="text/css">
	.st0{fill:#1C3C84;}
	.st1{fill:#E0D3A5;}
	.st2{fill:none;}
</style>
<path id="Path_2622" class="st0" d="M17.8,19.8h-4.5v17.6h3.3V31h0.8c1.5,0.1,3-0.4,4.1-1.5c1-1.2,1.5-2.7,1.4-4.3
	C22.9,21.6,21.2,19.8,17.8,19.8z M19,27.5c-0.5,0.5-1.1,0.8-1.8,0.7h-0.6v-5.6h0.8c0.7,0,1.3,0.2,1.7,0.7c0.4,0.6,0.6,1.3,0.5,2
	C19.7,26.1,19.5,26.9,19,27.5z"/>
<path id="Path_2623" class="st0" d="M32.1,33.5c0.1,1.1-0.4,2.2-1.1,3.1c-0.9,0.8-2.1,1.2-3.4,1.1c-1.1,0-2.3-0.2-3.3-0.8v-2.8
	c0.5,0.3,1,0.6,1.5,0.8s1,0.3,1.6,0.3c0.4,0,0.8-0.1,1.1-0.4c0.3-0.2,0.4-0.6,0.4-1s-0.1-0.8-0.4-1.1c-0.5-0.4-1-0.8-1.5-1.1
	c-0.8-0.4-1.5-1.1-2.1-1.8c-0.4-0.7-0.7-1.5-0.6-2.3c0-1,0.4-2,1.2-2.7c0.9-0.7,2.1-1.1,3.2-1c1.2,0,2.3,0.3,3.4,0.9L31,27
	c-0.7-0.4-1.5-0.7-2.3-0.7c-0.3,0-0.7,0.1-0.9,0.3c-0.2,0.2-0.3,0.5-0.3,0.8c0,0.4,0.1,0.7,0.4,1c0.4,0.4,0.9,0.8,1.4,1
	c0.6,0.4,1.2,0.8,1.8,1.3c0.3,0.3,0.6,0.8,0.8,1.2C32,32.4,32.1,32.9,32.1,33.5z"/>
<path class="st1" d="M58.8,37.3c-0.2,2-0.6,3.9-1.1,5.8l-0.4,1.3l-0.4-1.3c-0.2-0.5-0.4-1.1-0.7-1.5c-1.7-2.4-1.9-4.4-0.7-5.6
	c0.4-0.4,0.9-0.6,1.5-0.7h0.2l0.1,0.1L58.8,37.3z"/>
<polygon class="st1" points="53.7,55.1 52.3,59.6 44.6,38.3 47.7,38.3 "/>
<path class="st2" d="M39.3,57.2C39.3,57.2,39.3,57.2,39.3,57.2l-5.8-15.9c-0.1,0.2-0.2,0.5-0.2,0.7c-0.1,0.2-0.1,0.5-0.2,0.7
	c0,0.1,0,0.1,0,0.2c0,0.1,0,0.2,0,0.2c0-0.2,0.1-0.4,0.1-0.5c0,0,0,0,0-0.1c0-0.2,0.1-0.4,0.2-0.6c0.1-0.2,0.1-0.5,0.2-0.7
	L39.3,57.2z"/>
<path class="st2" d="M42,16.7v13.1c-3.9,1.2-7.3,3.8-9.6,7.5c-0.4,0.6-0.7,1.3-0.9,1.9c-0.1,0.3-0.3,0.7-0.4,1
	c-0.1,0.2-0.2,0.5-0.2,0.7c0,0.1,0,0.1,0,0.2c0,0.1-0.1,0.2-0.1,0.3c0,0.2-0.1,0.4-0.1,0.5c0,0,0,0.1,0,0.1c0,0.1-0.1,0.3-0.1,0.4
	c0,0.2-0.1,0.4-0.1,0.6l0,0.2c0,0.1,0,0.2,0,0.2c0,0,0,0,0,0v0c0,0.2,0,0.4-0.1,0.6v0.1c0,0,0,0.1,0,0.1c0,0,0,0.1,0,0.1v0.2
	c0,0,0,0,0,0c0,0,0,0,0,0c0,0,0,0,0,0c0,0.2,0,0.5,0,0.8v0.1c0,0.2,0,0.3,0,0.5c0,0.2,0,0.4,0,0.6c0,0.1,0,0.3,0,0.4
	c0,0.3,0.1,0.6,0.1,1c0,0.3,0.1,0.6,0.2,0.9c0.1,0.4,0.2,0.8,0.3,1.1c-0.2,0-1,0-2.2,0.1c-0.2,0-0.3,0-0.5,0c-1.2,0-2.6,0-4.2,0
	c-0.8,0-1.7,0-2.5,0h-0.1c-1.3,0-2.7,0-4,0h-0.6c-1,0-1.9,0-2.9,0c-4.7,0-8.6,0-9.2,0H4.6c-0.1,0-0.1,0-0.2,0c-0.1,0-0.1,0-0.2,0v0
	c0,0,0,0,0,0c-0.1,0-0.1,0-0.2-0.1c0,0-0.1,0-0.1-0.1l0,0c-0.1,0-0.1-0.1-0.2-0.2c0-0.1-0.1-0.1-0.1-0.2c-0.1-0.1-0.1-0.2-0.1-0.4
	c0-0.1,0-0.1,0-0.2V5.9c0-0.7,0.5-1.2,1.2-1.2h25.2L42,16.7z"/>
<path class="st2" d="M46.6,59.4c-0.9,0-1.7,0-2.6-0.2C44.9,59.3,45.7,59.4,46.6,59.4z"/>
<path class="st0" d="M4.2,50.1c-0.4-0.2-0.7-0.5-0.8-0.9c0,0.2,0.1,0.3,0.1,0.4c0,0.1,0.1,0.1,0.1,0.2c0,0.1,0.1,0.1,0.2,0.2l0,0
	C3.9,50,3.9,50,4,50C4,50.1,4.1,50.1,4.2,50.1C4.2,50.1,4.2,50.1,4.2,50.1c0.1,0,0.1,0,0.2,0C4.3,50.2,4.2,50.2,4.2,50.1z
	 M33.5,41.2c-0.1,0.2-0.2,0.5-0.2,0.7c-0.1,0.2-0.1,0.4-0.2,0.6c0,0,0,0,0,0.1c0,0.2-0.1,0.4-0.1,0.5c0-0.1,0-0.2,0-0.2
	c0-0.1,0-0.1,0-0.2c0.1-0.2,0.1-0.5,0.2-0.7C33.3,41.8,33.4,41.5,33.5,41.2l5.8,16c0,0,0,0,0,0L33.5,41.2z M32.5,37.1l-0.1,0.1
	c-0.9,1.5-1.5,3.1-1.8,4.8c0-0.2,0.1-0.4,0.1-0.5c0-0.1,0-0.2,0.1-0.3c0-0.1,0-0.1,0-0.2c0.1-0.2,0.1-0.5,0.2-0.7
	c0.1-0.3,0.2-0.7,0.4-1c0.3-0.7,0.6-1.3,0.9-1.9c2.3-3.7,5.7-6.3,9.6-7.5v-0.1C38.1,30.9,34.7,33.5,32.5,37.1z M30.2,44.6
	C30.2,44.6,30.2,44.6,30.2,44.6L30.2,44.6C30.2,44.5,30.2,44.6,30.2,44.6z M30.2,44.3c0,0,0-0.1,0-0.1v0
	C30.3,44.2,30.3,44.2,30.2,44.3z M44,59.2c0.9,0.2,1.7,0.2,2.6,0.2C45.7,59.4,44.9,59.3,44,59.2z"/>
<path class="st0" d="M60.4,36.5c-0.4-0.7-0.9-1.3-1.5-2c-3.5-3.9-8.2-5.4-13.3-5.4v-14L31.2,1H4.6C2,1-0.1,3.2-0.1,5.8V49
	c0,2.6,2.1,4.7,4.7,4.8h27.8c0.2,0,1,1.5,1.1,1.7c1.9,2.5,4.4,4.4,7.3,5.5c3,1.1,6.3,1.4,9.4,0.7c3.9-0.9,7.4-3.3,9.7-6.6
	c0.4-0.6,0.8-1.2,1.1-1.8c0.8-1.6,1.4-3.3,1.7-5.1C63.4,44.1,62.6,39.9,60.4,36.5z M57,35.3h0.2l0.1,0.1l1.5,1.9
	c-0.2,2-0.6,3.9-1.1,5.8l-0.4,1.3l-0.4-1.3c-0.2-0.5-0.4-1.1-0.7-1.5c-1.7-2.4-1.9-4.4-0.7-5.6C55.9,35.6,56.4,35.4,57,35.3z
	 M32.4,37.3c-0.4,0.6-0.7,1.3-0.9,1.9c-0.1,0.3-0.3,0.7-0.4,1c-0.1,0.2-0.2,0.5-0.2,0.7c0,0.1,0,0.1,0,0.2c0,0.1-0.1,0.2-0.1,0.3
	c0,0.2-0.1,0.4-0.1,0.5c0,0,0,0.1,0,0.1c0,0.1-0.1,0.3-0.1,0.4c0,0.2-0.1,0.4-0.1,0.6l0,0.2c0,0.1,0,0.2,0,0.2c0,0,0,0,0,0v0
	c0,0.2,0,0.4-0.1,0.6v0.1c0,0,0,0.1,0,0.1c0,0,0,0.1,0,0.1v0.2c0,0,0,0,0,0c0,0,0,0,0,0c0,0,0,0,0,0c0,0.2,0,0.5,0,0.8v0.1
	c0,0.2,0,0.3,0,0.5c0,0.2,0,0.4,0,0.6c0,0.1,0,0.3,0,0.4c0,0.3,0.1,0.6,0.1,1c0,0.3,0.1,0.6,0.2,0.9c0.1,0.4,0.2,0.8,0.3,1.1
	c0,0,0,0-0.1,0c-0.2,0-1,0-2.2,0.1c-0.2,0-0.3,0-0.5,0c-1.2,0-2.6,0-4.2,0c-0.8,0-1.7,0-2.5,0h-0.1c-1.3,0-2.7,0-4,0h-0.6
	c-1,0-1.9,0-2.9,0c-4.7,0-8.6,0-9.2,0H4.6c-0.1,0-0.1,0-0.2,0c-0.1,0-0.1,0-0.2,0c0,0,0,0,0,0c-0.1,0-0.1,0-0.2-0.1
	c0,0-0.1,0-0.1-0.1l0,0c-0.1,0-0.1-0.1-0.2-0.2c0-0.1-0.1-0.1-0.1-0.2c-0.1-0.1-0.1-0.2-0.1-0.4c0-0.1,0-0.1,0-0.2V5.8
	c0-0.7,0.5-1.2,1.2-1.2h25.2l12.2,12v13.2C38.1,31,34.7,33.6,32.4,37.3z M39.3,57.3c-2.7-1.7-4.7-4.1-5.7-7
	c-0.4-1.3-0.7-2.8-0.8-4.2c0-0.2,0-0.3,0-0.5c0-0.2,0-0.4,0-0.6c0-0.3,0-0.7,0.1-1c0-0.2,0-0.5,0.1-0.7c0-0.1,0-0.2,0-0.3
	c0-0.2,0.1-0.4,0.1-0.5c0,0,0,0,0-0.1c0-0.2,0.1-0.4,0.2-0.6c0.1-0.2,0.1-0.5,0.2-0.7L39.3,57.3c0-0.1,0-0.1,0-0.1L39.3,57.3z
	 M42,59.7l-7.7-21.3h3.1l6.1,16.9L42,59.7z M49.3,59.2c-0.3,0-0.6,0.1-0.9,0.1c0,0,0,0,0,0c-0.3,0-0.6,0.1-0.9,0.1s-0.6,0-0.9,0
	c-0.9,0-1.7,0-2.6-0.2l3-8.8l3.1,8.6C49.8,59.1,49.6,59.1,49.3,59.2z M52.3,59.6l-7.7-21.3h3.1l6,16.8L52.3,59.6z M49.9,39.2
	c0.1,0,0.2,0,0.3,0c0.7-0.1,1.1-0.6,1.1-1.3c0-0.7-0.6-1.3-1.3-1.3h-7c-0.7,0-1.3,0.6-1.3,1.3c0,0.7,0.6,1.3,1.3,1.3l2.6,7.3
	l-1.5,4.7L44,51.4l-4.4-12.1c0.1,0,0.1,0,0.2,0c0.1,0,0.1,0,0.2,0c0.1,0,0.1,0,0.2-0.1c0.4-0.2,0.7-0.7,0.7-1.2
	c0-0.7-0.6-1.3-1.3-1.3H36c2.3-2.8,5.6-4.5,9.3-4.9c0.2,0,0.5-0.1,0.7-0.1c0.2,0,0.4,0,0.7,0c0.2,0,0.4,0,0.5,0
	c2.7,0.1,5.3,1,7.6,2.6c-0.2,0.1-0.4,0.3-0.6,0.5c-1.1,1.1-2.4,3.6,0.5,7.8c0.8,1.5,1.1,3.2,0.8,4.7l-1.3,3.9L49.9,39.2z M60,49.6
	c-0.1,0.2-0.1,0.4-0.2,0.6c-0.8,2.5-2.4,4.7-4.6,6.3l0-0.1l3.2-9.7c0.6-1.7,1-3.5,1.4-5.2c0.4,1.3,0.6,2.7,0.6,4.1
	C60.5,47,60.3,48.3,60,49.6z"/>
<path class="st0" d="M30.2,44.8c0,0.2,0,0.4,0,0.6c0-0.3,0-0.5,0-0.8C30.2,44.7,30.2,44.7,30.2,44.8z"/>
<polygon class="st1" points="43.5,55.3 42,59.7 34.3,38.4 37.4,38.4 "/>
</svg>
