<?xml version="1.0" encoding="utf-8"?>
<!-- Generator: Adobe Illustrator 26.0.0, SVG Export Plug-In . SVG Version: 6.00 Build 0)  -->
<svg version="1.1" id="Layer_1" xmlns="http://www.w3.org/2000/svg" xmlns:xlink="http://www.w3.org/1999/xlink" x="0px" y="0px"
	 viewBox="0 0 63 63" style="enable-background:new 0 0 63 63;" xml:space="preserve">
<style type="text/css">
	.st0{fill:#404040;}
</style>
<path id="Path_2622" class="st0" d="M17.8,19.8h-4.5v17.6h3.3V31h0.8c1.5,0.1,3-0.4,4.1-1.5c1-1.2,1.5-2.7,1.4-4.3
	C22.9,21.6,21.2,19.8,17.8,19.8z M19,27.5c-0.5,0.5-1.1,0.8-1.8,0.7h-0.6v-5.6h0.8c0.7,0,1.3,0.2,1.7,0.7c0.4,0.6,0.6,1.3,0.5,2
	C19.7,26.1,19.5,26.9,19,27.5z"/>
<path id="Path_2623" class="st0" d="M32.1,33.5c0.1,1.1-0.4,2.2-1.1,3.1c-0.9,0.8-2.1,1.2-3.4,1.1c-1.1,0-2.3-0.2-3.3-0.8v-2.8
	c0.5,0.3,1,0.6,1.5,0.8s1,0.3,1.6,0.3c0.4,0,0.8-0.1,1.1-0.4c0.3-0.2,0.4-0.6,0.4-1s-0.1-0.8-0.4-1.1c-0.5-0.4-1-0.8-1.5-1.1
	c-0.8-0.4-1.5-1.1-2.1-1.8c-0.4-0.7-0.7-1.5-0.6-2.3c0-1,0.4-2,1.2-2.7c0.9-0.7,2.1-1.1,3.2-1c1.2,0,2.3,0.3,3.4,0.9L31,27
	c-0.7-0.4-1.5-0.7-2.3-0.7c-0.3,0-0.7,0.1-0.9,0.3c-0.2,0.2-0.3,0.5-0.3,0.8c0,0.4,0.1,0.7,0.4,1c0.4,0.4,0.9,0.8,1.4,1
	c0.6,0.4,1.2,0.8,1.8,1.3c0.3,0.3,0.6,0.8,0.8,1.2C32,32.4,32.1,32.9,32.1,33.5z"/>
<path class="st0" d="M60.4,36.5c-0.4-0.7-0.9-1.3-1.5-2c-3.5-3.9-8.2-5.4-13.3-5.4v-14L31.2,1H4.6C2,1-0.1,3.2-0.1,5.8V49
	c0,2.6,2.1,4.7,4.7,4.8h27.8c0.2,0,1,1.5,1.1,1.7c1.9,2.5,4.4,4.4,7.3,5.5c3,1.1,6.3,1.4,9.4,0.7c3.9-0.9,7.4-3.3,9.7-6.6
	c0.4-0.6,0.8-1.2,1.1-1.8c0.8-1.6,1.4-3.3,1.7-5.1C63.4,44.1,62.6,39.9,60.4,36.5z M57,35.3h0.2l0.1,0.1l1.5,1.9
	c-0.2,2-0.6,3.9-1.1,5.8l-0.4,1.3l-0.4-1.3c-0.2-0.5-0.4-1.1-0.7-1.5c-1.7-2.4-1.9-4.4-0.7-5.6C55.9,35.6,56.4,35.4,57,35.3z
	 M32.4,37.3c-0.4,0.6-0.7,1.3-0.9,1.9c-0.1,0.3-0.3,0.7-0.4,1c-0.1,0.2-0.2,0.5-0.2,0.7c0,0.1,0,0.1,0,0.2c0,0.1-0.1,0.2-0.1,0.3
	c0,0.2-0.1,0.4-0.1,0.5V42c0,0.1-0.1,0.3-0.1,0.4c0,0.2-0.1,0.4-0.1,0.6v0.2c0,0.1,0,0.2,0,0.2l0,0l0,0c0,0.2,0,0.4-0.1,0.6v0.1v0.1
	v0.1v0.2l0,0l0,0l0,0c0,0.2,0,0.5,0,0.8v0.1c0,0.2,0,0.3,0,0.5s0,0.4,0,0.6c0,0.1,0,0.3,0,0.4c0,0.3,0.1,0.6,0.1,1
	c0,0.3,0.1,0.6,0.2,0.9c0.1,0.4,0.2,0.8,0.3,1.1c0,0,0,0-0.1,0c-0.2,0-1,0-2.2,0.1c-0.2,0-0.3,0-0.5,0c-1.2,0-2.6,0-4.2,0
	c-0.8,0-1.7,0-2.5,0h-0.1c-1.3,0-2.7,0-4,0h-0.6c-1,0-1.9,0-2.9,0c-4.7,0-8.6,0-9.2,0H4.6c-0.1,0-0.1,0-0.2,0s-0.1,0-0.2,0l0,0
	c-0.1,0-0.1,0-0.2-0.1c0,0-0.1,0-0.1-0.1l0,0c-0.1,0-0.1-0.1-0.2-0.2c0-0.1-0.1-0.1-0.1-0.2c-0.1-0.1-0.1-0.2-0.1-0.4
	c0-0.1,0-0.1,0-0.2v-43c0-0.7,0.5-1.2,1.2-1.2h25.2l12.2,12v13.2C38.1,31,34.7,33.6,32.4,37.3z M39.3,57.3c-2.7-1.7-4.7-4.1-5.7-7
	c-0.4-1.3-0.7-2.8-0.8-4.2c0-0.2,0-0.3,0-0.5s0-0.4,0-0.6c0-0.3,0-0.7,0.1-1c0-0.2,0-0.5,0.1-0.7c0-0.1,0-0.2,0-0.3
	c0-0.2,0.1-0.4,0.1-0.5c0,0,0,0,0-0.1c0-0.2,0.1-0.4,0.2-0.6c0.1-0.2,0.1-0.5,0.2-0.7L39.3,57.3C39.3,57.2,39.3,57.2,39.3,57.3
	L39.3,57.3z M42,59.7l-7.7-21.3h3.1l6.1,16.9L42,59.7z M49.3,59.2c-0.3,0-0.6,0.1-0.9,0.1l0,0c-0.3,0-0.6,0.1-0.9,0.1s-0.6,0-0.9,0
	c-0.9,0-1.7,0-2.6-0.2l3-8.8l3.1,8.6C49.8,59.1,49.6,59.1,49.3,59.2z M52.3,59.6l-7.7-21.3h3.1l6,16.8L52.3,59.6z M49.9,39.2
	c0.1,0,0.2,0,0.3,0c0.7-0.1,1.1-0.6,1.1-1.3s-0.6-1.3-1.3-1.3h-7c-0.7,0-1.3,0.6-1.3,1.3s0.6,1.3,1.3,1.3l2.6,7.3l-1.5,4.7L44,51.4
	l-4.4-12.1c0.1,0,0.1,0,0.2,0c0.1,0,0.1,0,0.2,0c0.1,0,0.1,0,0.2-0.1c0.4-0.2,0.7-0.7,0.7-1.2c0-0.7-0.6-1.3-1.3-1.3H36
	c2.3-2.8,5.6-4.5,9.3-4.9c0.2,0,0.5-0.1,0.7-0.1s0.4,0,0.7,0c0.2,0,0.4,0,0.5,0c2.7,0.1,5.3,1,7.6,2.6c-0.2,0.1-0.4,0.3-0.6,0.5
	c-1.1,1.1-2.4,3.6,0.5,7.8c0.8,1.5,1.1,3.2,0.8,4.7l-1.3,3.9L49.9,39.2z M60,49.6c-0.1,0.2-0.1,0.4-0.2,0.6
	c-0.8,2.5-2.4,4.7-4.6,6.3v-0.1l3.2-9.7c0.6-1.7,1-3.5,1.4-5.2c0.4,1.3,0.6,2.7,0.6,4.1C60.5,47,60.3,48.3,60,49.6z"/>
</svg>
