<?xml version="1.0" encoding="utf-8"?>
<!-- Generator: Adobe Illustrator 26.0.0, SVG Export Plug-In . SVG Version: 6.00 Build 0)  -->
<svg version="1.1" id="pwa" xmlns="http://www.w3.org/2000/svg" xmlns:xlink="http://www.w3.org/1999/xlink" x="0px" y="0px"
	 viewBox="0 0 403.3 367.1" style="enable-background:new 0 0 403.3 367.1;" xml:space="preserve">
<style type="text/css">
	.st0{fill:#404040;}
</style>
<path id="Path_312" class="st0" d="M356,0H47.3C21.2,0,0,21,0,46.7v258.2c0,34.3,28.3,62.2,63,62.2h277.2c34.7,0,63-27.9,63-62.2
	c-0.1-8.7-7.2-15.7-15.9-15.6c-8.6,0.1-15.5,7-15.6,15.6c-0.1,17.3-14.2,31.2-31.5,31.1H63c-17.3,0.1-31.4-13.8-31.5-31.1V94.1
	h340.2v133c0.1,8.7,7.2,15.7,15.9,15.6c8.6-0.1,15.5-7,15.6-15.6V46.7C403.3,21,382.1,0,356,0z M292.2,31.1
	c8.6,0.1,15.5,7.1,15.4,15.7s-7.1,15.5-15.7,15.4c-8.5-0.1-15.4-7-15.4-15.5C276.6,38,283.6,31.1,292.2,31.1z M371,46.7
	c0.1,8.7-6.9,15.8-15.6,15.9s-15.8-6.9-15.9-15.6s6.9-15.8,15.6-15.9c0.1,0,0.1,0,0.2,0C363.9,31.1,370.9,38,371,46.7L371,46.7z
	 M31.5,46.7c0.1-8.6,7.1-15.6,15.7-15.6h200.4c-3.7,10.3-3.6,21.6,0.3,31.9H31.5V46.7z"/>
<path id="Path_486" class="st0" d="M109.4,197.3H65.5v92.5h30.8v-22.2h13.1c20.9,0,35.9-14.7,35.9-35.3S130.3,197.3,109.4,197.3z
	 M103.5,242.2h-7.1v-19.6h7.1c5.9,0,9.9,4,9.9,9.8S109.4,242.2,103.5,242.2z M251.5,197.3l-11.8,45.6l-19.8-45.6h-11.1l-19.7,45.4
	l-12-45.4h-33.3l28.8,92.5h26.7l15.1-38.5l15.1,38.5h26.7l28.7-92.5L251.5,197.3L251.5,197.3z M345.4,289.8h34.2l-37.1-92.5h-30.9
	l-36.9,92.5h33.2L312,277h29.4L345.4,289.8z M335.8,255.5h-18l9-25.5L335.8,255.5z"/>
</svg>
