<svg xmlns="http://www.w3.org/2000/svg" width="391.495" height="403.611" viewBox="0 0 391.495 403.611">
  <g id="Group_3132" data-name="Group 3132" transform="translate(6388.5 -3043.5)">
    <g id="php" transform="translate(-6388.505 3043.511)">
      <g id="angular-dev" transform="translate(0.556 -0.011)">
        <g id="Group_1271" transform="translate(92.338 158.511)">
          <path id="Path_4589" data-name="Path 4589" d="M263.3,174.1s21.4,45.6,21.4,48-19,12.7-22.7,14.8-8.7,4.2-8.7,4.2l2.1,21.1s32.7-7.4,46.4-14.8,13.2-15.8,10-28.2-24.3-60.7-24.3-60.7Z" transform="translate(-92.894 -158.5)" fill="#fff" stroke="#333" stroke-linecap="round" stroke-linejoin="round" stroke-width="1"/>
          <path id="Path_627" d="M301.8,247.7c13.7-7.4,13.2-15.8,10-28.2s-24.3-60.7-24.3-60.7l-3.4,2.1-1,2.1s19.8,48.3,20.9,64.4c.8,10.8-20.8,24.3-35.4,31.9C279.4,256.4,293.9,251.9,301.8,247.7Z" transform="translate(-92.894 -158.5)" fill="#fbe7cf"/>
          <path id="Path_4590" data-name="Path 4590" d="M109,164.1s-15.6,57.2-16.1,67.3,30.9,30.1,32.2,31.1-1.8-34.8-1.8-34.8l10.6-52.2Z" transform="translate(-92.894 -158.5)" fill="#fff" stroke="#333" stroke-linecap="round" stroke-linejoin="round" stroke-width="1"/>
          <path id="Path_628" d="M125.1,250.9c-9.2-7.9-22.7-19-24.3-23.7-2.4-7.1,15.6-58.6,15.6-58.6l-.3-1.6-6.8-3.2S93.7,221,93.2,231.1s30.9,30.1,32.2,31.1C125.6,263,125.4,257.7,125.1,250.9Z" transform="translate(-92.894 -158.5)" fill="#fbe7cf"/>
        </g>
        <g id="Group_1272" transform="translate(97.344 102.2)">
          <path id="Path_4591" data-name="Path 4591" d="M182.3,106.6s-6.1,4.2-17.7,4.8c-11.9.5-12.4-7.9-26.9-7.9-17.7,0-39.8,55.9-39.8,55.9s11.1,10.8,21.9,15.3a81.9,81.9,0,0,0,18.7,5.5l1.6,36.7h119l1.3-36.7,37.2-24.3s-18.2-32.7-27.2-44.8-23.7-7.7-28.2-4.5-17.9,4-23,3.2-19.2-5.3-19.2-5.3S192.4,98.1,182.3,106.6Z" transform="translate(-97.9 -102.189)" fill="#3880ff" stroke="#000" stroke-miterlimit="10" stroke-width="0.5"/>
          <line id="Line_13" data-name="Line 13" x1="0.5" y2="60.9" transform="translate(41.2 17.611)" fill="none" stroke="#333" stroke-linecap="round" stroke-linejoin="round" stroke-width="0.5"/>
          <path id="Path_4592" data-name="Path 4592" d="M143.8,125.3s1.6,29.8,7.9,46.4" transform="translate(-97.9 -102.189)" fill="none" stroke="#333" stroke-linecap="round" stroke-linejoin="round" stroke-width="0.5"/>
          <path id="Path_4593" data-name="Path 4593" d="M153.1,173.8s3.2,9,5,11.9" transform="translate(-97.9 -102.189)" fill="none" stroke="#333" stroke-linecap="round" stroke-linejoin="round" stroke-width="0.5"/>
          <path id="Path_4594" data-name="Path 4594" d="M147.8,121.9s3.7,17.7,9.5,31.7" transform="translate(-97.9 -102.189)" fill="none" stroke="#333" stroke-linecap="round" stroke-linejoin="round" stroke-width="0.5"/>
          <path id="Path_4595" data-name="Path 4595" d="M251.2,127.2s-5.8,23.5-10.8,34" transform="translate(-97.9 -102.189)" fill="none" stroke="#333" stroke-linecap="round" stroke-linejoin="round" stroke-width="0.5"/>
          <line id="Line_14" data-name="Line 14" x1="0.3" y1="47.4" transform="translate(162.5 30.811)" fill="none" stroke="#333" stroke-linecap="round" stroke-linejoin="round" stroke-width="0.5"/>
          <path id="Path_4596" data-name="Path 4596" d="M258,133.8s-4.2,30.1-14.8,45.9" transform="translate(-97.9 -102.189)" fill="none" stroke="#333" stroke-linecap="round" stroke-linejoin="round" stroke-width="0.5"/>
          <path id="Path_4597" data-name="Path 4597" d="M252.8,173.6a150.6,150.6,0,0,1-8.2,14" transform="translate(-97.9 -102.189)" fill="none" stroke="#333" stroke-linecap="round" stroke-linejoin="round" stroke-width="0.5"/>
          <path id="Path_4598" data-name="Path 4598" d="M175.5,110.3s3.4,20.6,8.2,31.1,13.2,12.7,20.3,9.5,12.4-18.5,12.1-38.2" transform="translate(-97.9 -102.189)" fill="none" stroke="#333" stroke-linecap="round" stroke-linejoin="round" stroke-width="0.5"/>
        </g>
        <g id="Group_1273" transform="translate(148.753 16.749)">
          <path id="Path_4599" data-name="Path 4599" d="M158.6,67s-4.5-7.9-8.2-4,2.9,13.5,6.6,16.6,6.3,1.3,6.1-2.1C162.6,74.4,158.6,67,158.6,67Z" transform="translate(-149.309 -16.739)" fill="#fbe7cf" stroke="#000" stroke-miterlimit="10" stroke-width="0.5"/>
          <path id="Path_4600" data-name="Path 4600" d="M231.1,67s4.5-7.9,8.2-4-2.9,13.5-6.6,16.6-6.3,1.3-6.1-2.1C227.2,74.4,231.1,67,231.1,67Z" transform="translate(-149.309 -16.739)" fill="#fbe7cf" stroke="#000" stroke-miterlimit="10" stroke-width="0.5"/>
          <path id="Path_4601" data-name="Path 4601" d="M180.2,105s4.2,19.5,8.7,30.3c4.2,10.8,12.4,10.8,15.8,4s5.5-33,5.5-33S187.6,109.2,180.2,105Z" transform="translate(-149.309 -16.739)" fill="#fff" stroke="#333" stroke-linecap="round" stroke-linejoin="round" stroke-width="1"/>
          <path id="Path_4602" data-name="Path 4602" d="M159.1,69.7s6.3,22.2,17.9,35.1c11.9,12.9,16.1,16.1,22.4,15s12.9-9.2,22.4-26.1c9.2-17.1,10-30.1,10.8-31.1.8-1.3-1.9-25.3-15.3-35.6s-28.2-14.7-41.4-3.7C162.8,34.6,154.6,53,159.1,69.7Z" transform="translate(-149.309 -16.739)" fill="#fff" stroke="#333" stroke-linecap="round" stroke-linejoin="round" stroke-width="1"/>
          <path id="Path_629" d="M217.1,26.9c-13.4-10.3-28.2-14.8-41.4-3.7C162.8,34.5,154.6,53,158.8,69.6c0,0,1.3,4.2,3.4,10a3.861,3.861,0,0,1,.3-2.1c2.9-9,11.3-26.7,39.8-18.7C225,65.1,222.1,85.2,220,95.7c.5-.8.8-1.3,1.3-2.1,9.2-17.2,10-30.1,10.8-31.1C233.2,61.2,230.6,37.2,217.1,26.9Z" transform="translate(-149.309 -16.739)" fill="#fbe7cf"/>
          <path id="Path_4603" data-name="Path 4603" d="M199.5,81.3a136.213,136.213,0,0,0-1.3,14.2c.3,4.8,1.6,6.3-.5,6.6-2.1.5-4.5-2.9-4.5-2.9" transform="translate(-149.309 -16.739)" fill="none" stroke="#333" stroke-linecap="round" stroke-linejoin="round" stroke-width="1"/>
          <path id="Path_4604" data-name="Path 4604" d="M190.8,77s-4.5-11.3-19.8-6" transform="translate(-149.309 -16.739)" fill="none" stroke="#333" stroke-linecap="round" stroke-linejoin="round" stroke-width="1"/>
          <path id="Path_4605" data-name="Path 4605" d="M203.2,75.7s4-11.1,17.4-4.5" transform="translate(-149.309 -16.739)" fill="none" stroke="#333" stroke-linecap="round" stroke-linejoin="round" stroke-width="1"/>
          <path id="Path_4606" data-name="Path 4606" d="M193.7,86c0,6.1-7.1,11.1-15.8,11.1S162,92.1,162,86s6.6-8.7,15.3-8.7C186,77,193.7,79.7,193.7,86Z" transform="translate(-149.309 -16.739)" fill="none" stroke="#333" stroke-linecap="round" stroke-linejoin="round" stroke-width="1"/>
          <path id="Path_4607" data-name="Path 4607" d="M230.1,86c0,6.1-7.1,11.1-15.8,11.1s-15.8-5-15.8-11.1,6.6-8.7,15.3-8.7C222.4,77,230.1,79.7,230.1,86Z" transform="translate(-149.309 -16.739)" fill="none" stroke="#333" stroke-linecap="round" stroke-linejoin="round" stroke-width="1"/>
        </g>
        <g id="Group_1274" transform="translate(9.844 278.311)">
          <path id="Path_4608" data-name="Path 4608" d="M27.8,278.3l-1,97.3c0,.5,1.3,1,2.9,1h0c1.6,0,2.9-.5,2.9-1l6.9-97.3Z" transform="translate(-10.4 -278.3)" fill="#fff" stroke="#333" stroke-linecap="round" stroke-linejoin="round" stroke-width="1"/>
          <path id="Path_4609" data-name="Path 4609" d="M11.4,301.2,10.4,402c0,.5,1.3,1.1,2.9,1.1h0c1.6,0,2.9-.5,2.9-1.1L23,301.5Z" transform="translate(-10.4 -278.3)" fill="#fff" stroke="#333" stroke-linecap="round" stroke-linejoin="round" stroke-width="1"/>
          <path id="Path_4610" data-name="Path 4610" d="M364.1,278.3l1.1,97.3c0,.5-1.3,1-2.9,1h0c-1.6,0-2.9-.5-2.9-1l-6.9-97.3Z" transform="translate(-10.4 -278.3)" fill="#fff" stroke="#333" stroke-linecap="round" stroke-linejoin="round" stroke-width="1"/>
          <path id="Path_4611" data-name="Path 4611" d="M380.4,301.2l1,100.8c0,.5-1.3,1.1-2.9,1.1h0c-1.6,0-2.9-.5-2.9-1.1l-6.9-100.5Z" transform="translate(-10.4 -278.3)" fill="#fff" stroke="#333" stroke-linecap="round" stroke-linejoin="round" stroke-width="1"/>
        </g>
        <g id="Group_1275" transform="translate(0 264.411)">
          <path id="Path_4612" data-name="Path 4612" d="M390.7,321.6l-7.1-6.6L367,278.8a9.586,9.586,0,0,0-8.7-5.5H33.6a9.761,9.761,0,0,0-8.7,5.5L4,323.9.6,322.6v10.3H.9a5.738,5.738,0,0,0,5.8,5H385.2a5.855,5.855,0,0,0,5.8-5.3Z" transform="translate(-0.556 -264.4)" fill="#333" stroke="#333" stroke-linecap="round" stroke-linejoin="round" stroke-width="1"/>
          <path id="Path_4613" data-name="Path 4613" d="M384.9,328.4H6.4c-4.2,0-7.1-4.2-5.3-7.6l23.7-50.9a9.586,9.586,0,0,1,8.7-5.5H358a9.762,9.762,0,0,1,8.7,5.5l23.7,50.9C392,324.5,389.1,328.4,384.9,328.4Z" transform="translate(-0.556 -264.4)" fill="#fff" stroke="#333" stroke-linecap="round" stroke-linejoin="round" stroke-width="1"/>
          <path id="Path_630" d="M25.6,294.1s-8.4,5.8-3.2,7.9,67,.5,74.4-1.6,16.1-21.9,16.1-25.1-10.8-5.5-14.8-5.8-56.5,2.9-56.5,2.9Z" transform="translate(-0.556 -264.4)" fill="#f4bd58"/>
          <ellipse id="Ellipse_83" cx="21.9" cy="9.2" rx="21.9" ry="9.2" transform="translate(309.744 21.6)" fill="#fcd392"/>
          <ellipse id="Ellipse_84" cx="78.6" cy="14.8" rx="78.6" ry="14.8" transform="translate(113.244 21.5)" fill="#f4bd58"/>
        </g>
        <g id="Group_1276" transform="translate(305.25 254.611)">
          <path id="Path_4614" data-name="Path 4614" d="M316.1,259.3s-1.3-5.8-6.3-4-4.2,14.8-3.4,21.9c1,7.1,7.4,4,7.4,4V277s-2.4,1.9-3.7-.8-1-15.8.3-15.6,3.7,4.2,3.7,4.2S314.8,264.3,316.1,259.3Z" transform="translate(-305.806 -254.6)" fill="#f4bd58" stroke="#000" stroke-miterlimit="10" stroke-width="1"/>
          <path id="Path_4615" data-name="Path 4615" d="M312.6,260.4V292c0,3.7,8.4,6.6,19,6.6s19-2.9,19-6.6V260.4Z" transform="translate(-305.806 -254.6)" fill="#f4bd58"/>
          <path id="Path_4616" data-name="Path 4616" d="M350.6,260.4c0,3.2-8.4,5.8-19,5.8s-19-2.6-19-5.8,8.4-5.8,19-5.8S350.6,257.2,350.6,260.4Z" transform="translate(-305.806 -254.6)" fill="#fff" stroke="#333" stroke-linecap="round" stroke-linejoin="round" stroke-width="1"/>
          <path id="Path_4617" data-name="Path 4617" d="M348.3,260.4c0,2.9-7.4,5-16.6,5s-16.6-2.4-16.6-5c0-2.9,7.4-5,16.6-5S348.3,257.5,348.3,260.4Z" transform="translate(-305.806 -254.6)" fill="#fff" stroke="#333" stroke-linecap="round" stroke-linejoin="round" stroke-width="1"/>
          <path id="Path_4618" data-name="Path 4618" d="M319,263.5a39.045,39.045,0,0,0,12.7,1.8,41.946,41.946,0,0,0,12.7-1.8,43.4,43.4,0,0,0-25.4,0Z" transform="translate(-305.806 -254.6)" fill="#333" stroke="#333" stroke-linecap="round" stroke-linejoin="round" stroke-width="1"/>
        </g>
        <g id="Group_1277" transform="translate(10.472 242.271)">
          <path id="Path_4619" data-name="Path 4619" d="M23.3,274.9l.3,10.5,72.8.8V273.8Z" transform="translate(-11.028 -242.261)" fill="#fff" stroke="#333" stroke-linecap="round" stroke-linejoin="round" stroke-width="1"/>
          <path id="Path_4620" data-name="Path 4620" d="M96.3,286.2l10.6-22.7v-6.9L95.8,275.9Z" transform="translate(-11.028 -242.261)" fill="#fff" stroke="#333" stroke-linecap="round" stroke-linejoin="round" stroke-width="1"/>
          <path id="Path_4621" data-name="Path 4621" d="M23.3,284.6l.3,10.8,72.8.8V283.5Z" transform="translate(-11.028 -242.26)" fill="#fff" stroke="#333" stroke-linecap="round" stroke-linejoin="round" stroke-width="1"/>
          <path id="Path_4622" data-name="Path 4622" d="M96.3,296.2l10.6-23v-6.6l-11.1,19Z" transform="translate(-11.028 -242.261)" fill="#fff" stroke="#333" stroke-linecap="round" stroke-linejoin="round" stroke-width="1"/>
          <path id="Path_4623" data-name="Path 4623" d="M51.5,247.4s1.6-3.4-.8-4.8-5,1.9-6.6,3.2S12.5,267,11.4,270.1s0,10,6.6,10.8,12.1-3.7,15-4.2c2.9-.8,4-1.1,4-1.1l20-26.9Z" transform="translate(-11.028 -242.261)" fill="#fff" stroke="#333" stroke-linecap="round" stroke-linejoin="round" stroke-width="1"/>
          <path id="Path_4624" data-name="Path 4624" d="M18,280.7c6.6.8,12.1-3.7,15-4.2,2.9-.8,4-1.1,4-1.1l.8-1-18.7-4a6.2,6.2,0,0,0-7.6-.8C10.6,273,11.7,280.1,18,280.7Z" transform="translate(-11.028 -242.261)" fill="#fff" stroke="#333" stroke-linecap="round" stroke-linejoin="round" stroke-width="1"/>
          <path id="Path_4625" data-name="Path 4625" d="M19.3,270.6H75.5c17.4,0,22.7-1,22.7-1L109,247.1s-34,2.1-44.6,1.3-12.9-1.3-12.9-1.3Z" transform="translate(-11.028 -242.261)" fill="#fff" stroke="#333" stroke-linecap="round" stroke-linejoin="round" stroke-width="1"/>
          <path id="Path_4626" data-name="Path 4626" d="M19.3,270.6l1,4.2s45.6.3,57.5.3c12.1,0,21.1.5,21.1.5l-.8-6.1Z" transform="translate(-11.028 -242.261)" fill="#fff" stroke="#333" stroke-linecap="round" stroke-linejoin="round" stroke-width="1"/>
          <path id="Path_4627" data-name="Path 4627" d="M99,275.7l10-23v-5.3L98.2,269.6Z" transform="translate(-11.028 -242.261)" fill="#fff" stroke="#333" stroke-linecap="round" stroke-linejoin="round" stroke-width="1"/>
        </g>
        <g id="Group_1278" transform="translate(112.235 202.411)">
          <path id="Path_4628" data-name="Path 4628" d="M261.2,302.6H123.5a2.369,2.369,0,0,1-2.4-2.4h0a2.433,2.433,0,0,1,2.4-2.4H261.2a2.369,2.369,0,0,1,2.4,2.4h0A2.581,2.581,0,0,1,261.2,302.6Z" transform="translate(-112.792 -202.4)" fill="#fff" stroke="#333" stroke-linecap="round" stroke-linejoin="round" stroke-width="1"/>
          <path id="Path_4629" data-name="Path 4629" d="M262.3,298.1H122.5a1.994,1.994,0,0,1-2.1-1.8l-7.6-91.5a2.212,2.212,0,0,1,1.9-2.4H270a2.135,2.135,0,0,1,2.1,2.2v.2l-7.6,91.5A2.577,2.577,0,0,1,262.3,298.1Z" transform="translate(-112.792 -202.4)" fill="#fff" stroke="#333" stroke-linecap="round" stroke-linejoin="round" stroke-width="1"/>
        </g>
        <g id="Group_1279" transform="translate(315.544 167.711)">
          <path id="Path_4635" data-name="Path 4635" d="M342.2,180.4a11.994,11.994,0,0,0,4.2-6.6,12.635,12.635,0,0,0-.3-6.1" transform="translate(-316.1 -167.7)" fill="none" stroke="#333" stroke-linecap="round" stroke-linejoin="round" stroke-width="1"/>
          <path id="Path_4636" data-name="Path 4636" d="M326.1,251.9s13.5-7.9,9-17.1-19-15.3-19-29.6c0-12.4,13.2-16.9,21.6-21.9" transform="translate(-316.1 -167.7)" fill="none" stroke="#333" stroke-linecap="round" stroke-linejoin="round" stroke-width="1"/>
          <path id="Path_4637" data-name="Path 4637" d="M338.5,251.7s7.4-5,7.4-12.9c0-5.3-5.5-8.7-13.2-17.1" transform="translate(-316.1 -167.7)" fill="none" stroke="#333" stroke-linecap="round" stroke-linejoin="round" stroke-width="1"/>
          <path id="Path_4638" data-name="Path 4638" d="M328.7,216.6s-4.8-4-1.3-11.1" transform="translate(-316.1 -167.7)" fill="none" stroke="#333" stroke-linecap="round" stroke-linejoin="round" stroke-width="1"/>
        </g>
        <path id="Path_631" d="M175.5,56.5s18.7-.5,35.6,8.2,30.1-7.9,22.1-16.4,10.3,9.2,13.2-1.3S223,.5,196.3,0s-33,16.6-33,16.6-3.2-9-5.5-4a22.188,22.188,0,0,0-2.4,8.7s-5.3,4.2-7.6,6.6.8,5,.8,5-4.8,12.4-2.1,21.6l13.7,20.6s4.8.3,8.4-4.8c3.4-4.8.8-19.8.8-19.8s.3,16.1,4.5,12.7S171.8,44,171.8,44Z" transform="translate(-0.556 0.011)" fill="#1a2e35"/>
        <ellipse id="Ellipse_89" cx="1.9" cy="0.8" rx="1.9" ry="0.8" transform="translate(178.044 85.511)" fill="none" stroke="#333" stroke-linecap="round" stroke-linejoin="round" stroke-width="5"/>
        <ellipse id="Ellipse_90" cx="1.9" cy="0.8" rx="1.9" ry="0.8" transform="translate(207.544 84.111)" fill="none" stroke="#333" stroke-linecap="round" stroke-linejoin="round" stroke-width="5"/>
      </g>
      <g id="obj1" transform="translate(1.4 37.4)">
        <path id="Path_4639" data-name="Path 4639" d="M111.1,86.8H8.8a7.383,7.383,0,0,1-7.4-7.4V44.8a7.383,7.383,0,0,1,7.4-7.4H111.2a7.363,7.363,0,0,1,7.4,7.3h0V79.3A7.689,7.689,0,0,1,111.1,86.8Z" transform="translate(-1.4 -37.4)" fill="#333" stroke="#333" stroke-linecap="round" stroke-linejoin="round" stroke-width="1"/>
        <g id="Group_1371" transform="translate(8.4 6.7)">
          <path id="Path_820" d="M15.4,44.1l.5,1.1c-2.6,1.6-5,4-5,6.9a3.851,3.851,0,0,0,3.6,4.2h.1a.472.472,0,0,0,.5-.5h0a.472.472,0,0,0-.5-.5h0A2.3,2.3,0,0,1,13,52.9c0-1.8,1.6-2.9,3.4-2.9a3.436,3.436,0,0,1,3.4,3.4,4.355,4.355,0,0,1-4.5,4.2,5.158,5.158,0,0,1-5.5-4.8h0v-.4C9.8,48.5,12.5,45.7,15.4,44.1Zm11.6,0,.5,1.1c-2.6,1.6-5,4-5,6.9a3.851,3.851,0,0,0,3.6,4.2h.1a.5.5,0,0,0,0-1,2.5,2.5,0,0,1-1.6-2.4c0-1.8,1.6-2.9,3.4-2.9a3.372,3.372,0,0,1,3.4,3.4,4.355,4.355,0,0,1-4.5,4.2,5.158,5.158,0,0,1-5.5-4.8h0v-.4A9.934,9.934,0,0,1,27,44.1Z" transform="translate(-9.8 -44.1)" fill="#f4bd58"/>
        </g>
        <line id="Line_15" data-name="Line 15" x2="66.8" transform="translate(36.6 16.7)" fill="none" stroke="#fff" stroke-linecap="round" stroke-linejoin="round" stroke-width="1"/>
        <line id="Line_16" data-name="Line 16" x2="66.8" transform="translate(36.6 22.5)" fill="none" stroke="#fff" stroke-linecap="round" stroke-linejoin="round" stroke-width="1"/>
        <line id="Line_17" data-name="Line 17" x2="66.8" transform="translate(36.6 28.3)" fill="none" stroke="#fff" stroke-linecap="round" stroke-linejoin="round" stroke-width="1"/>
        <line id="Line_18" data-name="Line 18" x2="66.8" transform="translate(36.6 33.8)" fill="none" stroke="#fff" stroke-linecap="round" stroke-linejoin="round" stroke-width="1"/>
      </g>
      <g id="obj2" transform="translate(26.071 130.369)">
        <circle id="Ellipse_591" data-name="Ellipse 591" cx="25.3" cy="25.3" r="25.3" transform="translate(0 50.549) rotate(-87.403)" fill="#333" stroke="#333" stroke-linecap="round" stroke-linejoin="round" stroke-width="1"/>
        <circle id="Ellipse_592" data-name="Ellipse 592" cx="21.4" cy="21.4" r="21.4" transform="translate(5.129 5.131)" fill="#fff" stroke="#333" stroke-linecap="round" stroke-linejoin="round" stroke-width="1"/>
        <path id="Path_4640" data-name="Path 4640" d="M52.5,141.1v15.6H63.1" transform="translate(-26.071 -130.369)" fill="none" stroke="#333" stroke-linecap="round" stroke-linejoin="round" stroke-width="2"/>
      </g>
      <g id="obj3" transform="translate(307.3 66.8)">
        <path id="Path_4641" data-name="Path 4641" d="M376,66.8H316.6a8.706,8.706,0,0,0-8.7,8.7v31.9a8.706,8.706,0,0,0,8.7,8.7h1.8c-1.8,4.2-5.3,10.3-11.1,14,0,0,12.1-.8,24.5-14H376a8.838,8.838,0,0,0,8.7-8.7v-32A8.686,8.686,0,0,0,376,66.8Z" transform="translate(-307.3 -66.8)" fill="#333" stroke="#333" stroke-linecap="round" stroke-linejoin="round" stroke-width="1"/>
        <g id="Group_1372" transform="translate(19.6 18.9)">
          <path id="Path_4642" data-name="Path 4642" d="M335.9,90.2a4.5,4.5,0,1,0-4.5,4.5h0C334,95,335.9,92.9,335.9,90.2Z" transform="translate(-326.9 -85.7)" fill="#f4bd58"/>
          <path id="Path_4643" data-name="Path 4643" d="M351.4,90.2a4.5,4.5,0,1,0-4.5,4.5h0a4.273,4.273,0,0,0,4.5-4.1Z" transform="translate(-326.9 -85.7)" fill="#f4bd58"/>
          <path id="Path_4644" data-name="Path 4644" d="M366.7,90.2a4.5,4.5,0,1,0-4.5,4.5h0C364.9,95,366.7,92.9,366.7,90.2Z" transform="translate(-326.9 -85.7)" fill="#f4bd58"/>
        </g>
      </g>
    </g>
    <g id="reactjs" transform="translate(-5966.01 2713.842)">
      <g id="Group_295" data-name="Group 295" transform="translate(-255.796 557.499)">
        <path id="Path_445" data-name="Path 445" d="M-207.263,576.916c-.5-.149-.945-.3-1.442-.447a7.04,7.04,0,0,0,.2-.994c1.094-5.319.4-9.595-2.038-10.986-2.337-1.342-6.164.05-10.042,3.43-.4.348-.746.7-1.094,1.044-.249-.249-.5-.448-.746-.7-4.027-3.579-8.1-5.12-10.539-3.679-2.336,1.342-3.032,5.369-2.038,10.39.1.5.2.994.348,1.491a12.647,12.647,0,0,0-1.641.547c-4.772,1.64-7.8,4.275-7.8,6.96,0,2.784,3.231,5.568,8.2,7.258.4.149.8.249,1.193.4-.149.547-.249,1.044-.348,1.591-.945,4.921-.2,8.849,2.138,10.191,2.386,1.392,6.463-.05,10.39-3.48.3-.249.646-.547.945-.845.4.4.8.746,1.193,1.094,3.828,3.281,7.556,4.623,9.893,3.281,2.386-1.392,3.182-5.617,2.187-10.738-.1-.4-.149-.8-.249-1.193.3-.1.547-.149.845-.249,5.12-1.69,8.5-4.474,8.5-7.258-.05-2.834-3.182-5.468-8.053-7.109Z" transform="translate(245.747 -559.902)" fill="#3880ff" opacity="0.4"/>
        <path id="Path_446" data-name="Path 446" d="M-200.924,592.3a4.275,4.275,0,0,1,4.275,4.275,4.275,4.275,0,0,1-4.275,4.275,4.275,4.275,0,0,1-4.275-4.275,4.244,4.244,0,0,1,4.275-4.275" transform="translate(226.185 -574.142)" fill="#373f54"/>
        <path id="Union_3" data-name="Union 3" d="M12.832,44.257c-3.2-1.809-4.07-6.766-2.783-13.066C3.89,29.152-.02,25.916,0,22.242a6.153,6.153,0,0,1,.808-2.691C2.22,17.1,5.5,15.032,9.977,13.618Q9.744,12.48,9.6,11.4C8.954,6.077,10.048,2.25,12.782.758,15.9-1.005,20.439.694,25.036,4.831q.781-.712,1.566-1.338C30.828.162,34.656-.833,37.39.708,40.614,2.53,41.472,7.541,40.146,13.9q1.149.379,2.2.814c4.93,2.1,7.7,4.961,7.622,8.075-.034,3.633-3.874,6.744-9.89,8.651,1.222,6.2.351,11.074-2.788,12.863a6.153,6.153,0,0,1-2.734.646c-2.762,0-6.108-1.725-9.492-4.764-3.391,3.04-6.736,4.765-9.5,4.765A5.219,5.219,0,0,1,12.832,44.257Zm23.315-2.138c1.972-1.1,2.619-4.864,1.624-10.03a46.659,46.659,0,0,1-6.523,1.092,47.182,47.182,0,0,1-4.359,5.248C30.72,41.849,34.2,43.2,36.147,42.119Zm-22.122,0c1.941,1.082,5.415-.266,9.237-3.671a46.826,46.826,0,0,1-4.445-5.385,47.743,47.743,0,0,1-6.383-1.172C11.393,37.135,12.032,40.98,14.025,42.119ZM25.086,36.69a42.425,42.425,0,0,0,2.847-3.283q-1.5.058-3.059.04-1.358-.017-2.675-.092A42.521,42.521,0,0,0,25.086,36.69Zm-.2-5.648c1.7.014,3.345-.045,4.906-.166.9-1.306,1.779-2.713,2.628-4.217.8-1.423,1.518-2.826,2.146-4.2-.616-1.341-1.314-2.713-2.1-4.105s-1.612-2.715-2.446-3.944c-1.613-.16-3.277-.249-4.97-.265s-3.306.04-4.851.159c-.869,1.281-1.705,2.635-2.5,4.051-.784,1.388-1.483,2.758-2.1,4.1.642,1.4,1.36,2.808,2.15,4.205.835,1.478,1.7,2.864,2.583,4.151C21.79,30.943,23.308,31.023,24.884,31.041Zm9.771-3.19q-.78,1.375-1.6,2.665c1.483-.213,2.877-.484,4.169-.8a42.7,42.7,0,0,0-1.346-4.134Q35.3,26.712,34.656,27.852ZM17.032,30.4q-.776-1.232-1.515-2.546-.641-1.142-1.222-2.292c-.529,1.386-.965,2.725-1.312,4C14.242,29.887,15.6,30.169,17.032,30.4Zm22.492-1.334c3.858-1.243,6.511-2.938,7.521-4.687a2.647,2.647,0,0,0,.426-1.534c.009-2-2.2-4.141-6.134-5.781q-.862-.361-1.8-.681a47.759,47.759,0,0,1-2.268,6.262A47.257,47.257,0,0,1,39.524,29.063ZM2.466,22.346c-.035,2.3,3.009,4.788,8.142,6.513a47.212,47.212,0,0,1,2.258-6.341,48.992,48.992,0,0,1-2.295-6.435C5.526,17.692,2.5,20.077,2.466,22.346Zm32.09-5.182q.66,1.177,1.25,2.347c.512-1.337.938-2.629,1.281-3.865-1.243-.325-2.553-.6-3.913-.822Q33.881,15.96,34.556,17.163ZM14.329,19.418q.585-1.148,1.238-2.3.708-1.262,1.464-2.465c-1.425.2-2.767.456-4.019.756C13.367,16.712,13.808,18.055,14.329,19.418Zm23.349-6.236C38.735,7.908,38.1,4.039,36.1,2.9c-1.74-.994-4.673-.049-8,2.585q-.636.507-1.271,1.077a46.739,46.739,0,0,1,4.485,5.453A48.936,48.936,0,0,1,37.678,13.183ZM14.075,2.9c-1.74.994-2.486,3.977-1.939,8.2q.115.9.3,1.839a47.193,47.193,0,0,1,6.453-1.064,47.656,47.656,0,0,1,4.4-5.339C20.339,3.9,17.6,2.5,15.616,2.5A2.648,2.648,0,0,0,14.075,2.9Zm11.062,8.717q1.48.018,2.93.107a42.9,42.9,0,0,0-3-3.469,42.292,42.292,0,0,0-2.942,3.4q1.147-.045,2.326-.045C24.681,11.609,24.908,11.61,25.137,11.613Z" transform="translate(0.824 1.413)" fill="#fff" stroke="#707070" stroke-width="0.25"/>
        <path id="Union_2" data-name="Union 2" d="M12.832,44.257c-3.2-1.809-4.07-6.766-2.783-13.066C3.89,29.152-.02,25.916,0,22.242a6.153,6.153,0,0,1,.808-2.691C2.22,17.1,5.5,15.032,9.977,13.618Q9.744,12.48,9.6,11.4C8.954,6.077,10.048,2.25,12.782.758,15.9-1.005,20.439.694,25.036,4.831q.781-.712,1.566-1.338C30.828.162,34.656-.833,37.39.708,40.614,2.53,41.472,7.541,40.146,13.9q1.149.379,2.2.814c4.93,2.1,7.7,4.961,7.622,8.075-.034,3.633-3.874,6.744-9.89,8.651,1.222,6.2.351,11.074-2.788,12.863a6.153,6.153,0,0,1-2.734.646c-2.762,0-6.108-1.725-9.492-4.764-3.391,3.04-6.736,4.765-9.5,4.765A5.219,5.219,0,0,1,12.832,44.257Zm23.315-2.138c1.972-1.1,2.619-4.864,1.624-10.03a46.659,46.659,0,0,1-6.523,1.092,47.182,47.182,0,0,1-4.359,5.248C30.72,41.849,34.2,43.2,36.147,42.119Zm-22.122,0c1.941,1.082,5.415-.266,9.237-3.671a46.826,46.826,0,0,1-4.445-5.385,47.743,47.743,0,0,1-6.383-1.172C11.393,37.135,12.032,40.98,14.025,42.119ZM25.086,36.69a42.425,42.425,0,0,0,2.847-3.283q-1.5.058-3.059.04-1.358-.017-2.675-.092A42.521,42.521,0,0,0,25.086,36.69Zm-.2-5.648c1.7.014,3.345-.045,4.906-.166.9-1.306,1.779-2.713,2.628-4.217.8-1.423,1.518-2.826,2.146-4.2-.616-1.341-1.314-2.713-2.1-4.105s-1.612-2.715-2.446-3.944c-1.613-.16-3.277-.249-4.97-.265s-3.306.04-4.851.159c-.869,1.281-1.705,2.635-2.5,4.051-.784,1.388-1.483,2.758-2.1,4.1.642,1.4,1.36,2.808,2.15,4.205.835,1.478,1.7,2.864,2.583,4.151C21.79,30.943,23.308,31.023,24.884,31.041Zm9.771-3.19q-.78,1.375-1.6,2.665c1.483-.213,2.877-.484,4.169-.8a42.7,42.7,0,0,0-1.346-4.134Q35.3,26.712,34.656,27.852ZM17.032,30.4q-.776-1.232-1.515-2.546-.641-1.142-1.222-2.292c-.529,1.386-.965,2.725-1.312,4C14.242,29.887,15.6,30.169,17.032,30.4Zm22.492-1.334c3.858-1.243,6.511-2.938,7.521-4.687a2.647,2.647,0,0,0,.426-1.534c.009-2-2.2-4.141-6.134-5.781q-.862-.361-1.8-.681a47.759,47.759,0,0,1-2.268,6.262A47.257,47.257,0,0,1,39.524,29.063ZM2.466,22.346c-.035,2.3,3.009,4.788,8.142,6.513a47.212,47.212,0,0,1,2.258-6.341,48.992,48.992,0,0,1-2.295-6.435C5.526,17.692,2.5,20.077,2.466,22.346Zm32.09-5.182q.66,1.177,1.25,2.347c.512-1.337.938-2.629,1.281-3.865-1.243-.325-2.553-.6-3.913-.822Q33.881,15.96,34.556,17.163ZM14.329,19.418q.585-1.148,1.238-2.3.708-1.262,1.464-2.465c-1.425.2-2.767.456-4.019.756C13.367,16.712,13.808,18.055,14.329,19.418Zm23.349-6.236C38.735,7.908,38.1,4.039,36.1,2.9c-1.74-.994-4.673-.049-8,2.585q-.636.507-1.271,1.077a46.739,46.739,0,0,1,4.485,5.453A48.936,48.936,0,0,1,37.678,13.183ZM14.075,2.9c-1.74.994-2.486,3.977-1.939,8.2q.115.9.3,1.839a47.193,47.193,0,0,1,6.453-1.064,47.656,47.656,0,0,1,4.4-5.339C20.339,3.9,17.6,2.5,15.616,2.5A2.648,2.648,0,0,0,14.075,2.9Zm11.062,8.717q1.48.018,2.93.107a42.9,42.9,0,0,0-3-3.469,42.292,42.292,0,0,0-2.942,3.4q1.147-.045,2.326-.045C24.681,11.609,24.908,11.61,25.137,11.613Z" transform="translate(0 0)" fill="#373f54"/>
      </g>
      <circle id="Ellipse_192" data-name="Ellipse 192" cx="1.342" cy="1.342" r="1.342" transform="translate(-252.857 567.554)" fill="#3880ff"/>
      <circle id="Ellipse_193" data-name="Ellipse 193" cx="3.48" cy="3.48" r="3.48" transform="translate(-213.981 596.437)" fill="#3880ff"/>
      <circle id="Ellipse_576" data-name="Ellipse 576" cx="3.48" cy="3.48" r="3.48" transform="translate(-256.336 556.527)" fill="#3880ff"/>
    </g>
  </g>
</svg>
