<svg xmlns="http://www.w3.org/2000/svg" viewBox="0 0 31.8 29.7"><defs><style>.cls-1{fill:#404040;}.cls-2{fill:none;stroke:#404040;stroke-miterlimit:10;stroke-width:2px;}</style></defs><g id="Layer_2" data-name="Layer 2"><g id="Layer_1-2" data-name="Layer 1"><path id="Path_446" data-name="Path 446" class="cls-1" d="M16.1,12.2a2.69,2.69,0,0,1,2.7,2.7h0a2.69,2.69,0,0,1-2.7,2.7h0a2.69,2.69,0,0,1-2.7-2.7h0a2.69,2.69,0,0,1,2.7-2.7h0"/><ellipse id="Ellipse_190" data-name="Ellipse 190" class="cls-2" cx="15.9" cy="15" rx="14.9" ry="6.1"/><g id="Group_293" data-name="Group 293"><path id="Path_447" data-name="Path 447" class="cls-1" d="M21.88,29.14c-3.4,0-8.3-4.3-12-10.8a31.53,31.53,0,0,1-3.7-10.4c-.4-3.3.3-5.8,2-6.7,3.4-1.9,9.4,2.6,13.7,10.3s5.1,15.2,1.7,17.1h0A3.37,3.37,0,0,1,21.88,29.14ZM10,2.34a1.93,1.93,0,0,0-1,.3c-1.1.6-1.5,2.5-1.2,5.1a30.2,30.2,0,0,0,3.5,9.8c4.1,7.3,9.4,11,11.6,9.7h0c2.2-1.2,1.8-7.7-2.3-15C17,6,12.48,2.34,10,2.34Z"/></g><g id="Group_294" data-name="Group 294"><path id="Path_448" data-name="Path 448" class="cls-1" d="M9.92,29.1a3.29,3.29,0,0,1-1.7-.4h0c-3.4-1.9-2.6-9.4,1.7-17.1a29.1,29.1,0,0,1,7-8.6C19.62.9,22,.3,23.72,1.2c3.4,1.9,2.6,9.4-1.7,17.1C18.32,24.9,13.42,29.1,9.92,29.1ZM9,27.3c2.2,1.2,7.5-2.5,11.6-9.7s4.5-13.7,2.3-15c-1.1-.6-2.9,0-5,1.6a26.72,26.72,0,0,0-6.5,8.1C7.22,19.6,6.82,26.1,9,27.3Z"/></g><ellipse id="Ellipse_191" data-name="Ellipse 191" class="cls-1" cx="2.6" cy="2.5" rx="2" ry="2.5"/><circle id="Ellipse_192" data-name="Ellipse 192" class="cls-1" cx="2.8" cy="8" r="0.8"/><circle id="Ellipse_193" data-name="Ellipse 193" class="cls-1" cx="28.7" cy="27.5" r="2.2"/></g></g></svg>