<svg xmlns="http://www.w3.org/2000/svg" viewBox="0 0 26.33 24.32"><defs><style>.cls-1{fill:#404040;}.cls-2{fill:#fff;stroke:#404040;stroke-width:0.25px;}</style></defs><g id="Layer_2" data-name="Layer 2"><g id="Layer_1-2" data-name="Layer 1"><path id="Path_446" data-name="Path 446" class="cls-1" d="M13.2,9.8A2.22,2.22,0,0,1,15.4,12h0a2.22,2.22,0,0,1-2.2,2.2h0A2.22,2.22,0,0,1,11,12h0a2.16,2.16,0,0,1,2.2-2.2h0"/><path id="Union_3" data-name="Union 3" class="cls-2" d="M7.2,23.9c-1.6-.9-2.1-3.5-1.4-6.7C2.7,16.2.7,14.5.7,12.6a3.26,3.26,0,0,1,.4-1.4c.7-1.3,2.4-2.3,4.7-3-.1-.4-.1-.8-.2-1.1-.3-2.7.2-4.7,1.6-5.4,1.6-.9,3.9,0,6.3,2.1.3-.2.5-.5.8-.7,2.2-1.7,4.1-2.2,5.5-1.4,1.6.9,2.1,3.5,1.4,6.7.4.1.8.3,1.1.4,2.5,1.1,3.9,2.5,3.9,4.1,0,1.9-2,3.4-5,4.4.6,3.2.2,5.6-1.4,6.6a3.19,3.19,0,0,1-1.4.3c-1.4,0-3.1-.9-4.8-2.4a7.51,7.51,0,0,1-4.8,2.4A4.15,4.15,0,0,1,7.2,23.9Zm11.9-1.1c1-.6,1.3-2.5.8-5.1a19.09,19.09,0,0,1-3.3.6c-.7.9-1.4,1.8-2.2,2.7C16.4,22.6,18.1,23.3,19.1,22.8Zm-11.2,0c1,.6,2.8-.1,4.7-1.9-.8-.9-1.6-1.8-2.3-2.7A19.09,19.09,0,0,1,7,17.6C6.5,20.2,6.8,22.2,7.9,22.8ZM13.5,20c.5-.5,1-1.1,1.5-1.7H12C12.5,18.9,13,19.5,13.5,20Zm-.1-2.9a20.08,20.08,0,0,0,2.5-.1,15.92,15.92,0,0,0,1.3-2.2,21.16,21.16,0,0,0,1.1-2.1,21.16,21.16,0,0,0-1.1-2.1c-.4-.7-.8-1.4-1.2-2a20.9,20.9,0,0,0-2.5-.1,20.08,20.08,0,0,0-2.5.1c-.4.7-.9,1.3-1.3,2.1a21.16,21.16,0,0,0-1.1,2.1,21.16,21.16,0,0,0,1.1,2.1A19.28,19.28,0,0,0,11,17a19.27,19.27,0,0,0,2.4.1Zm5-1.6c-.3.5-.5.9-.8,1.4a11.21,11.21,0,0,0,2.1-.4,17.23,17.23,0,0,0-.7-2.1,10.91,10.91,0,0,0-.6,1.1Zm-9,1.3c-.3-.4-.5-.9-.8-1.3L8,14.3c-.3.7-.5,1.4-.7,2A16,16,0,0,0,9.4,16.8Zm11.5-.7c2-.6,3.3-1.5,3.8-2.4a1.08,1.08,0,0,0,.2-.8c0-1-1.1-2.1-3.1-2.9l-.9-.3a17.55,17.55,0,0,1-1.2,3.2,17.55,17.55,0,0,1,1.2,3.2ZM2,12.7c0,1.2,1.5,2.4,4.2,3.3a17.55,17.55,0,0,1,1.2-3.2A21.9,21.9,0,0,1,6.2,9.5C3.5,10.3,2,11.5,2,12.7ZM18.3,10l.6,1.2a15.87,15.87,0,0,0,.7-2,11.8,11.8,0,0,0-2-.4,7.46,7.46,0,0,1,.7,1.2ZM8,11.2,8.6,10c.2-.4.5-.8.7-1.3a15.52,15.52,0,0,0-2.1.4C7.5,9.8,7.7,10.5,8,11.2ZM19.9,8c.5-2.7.2-4.7-.8-5.2s-2.4,0-4.1,1.3a2.65,2.65,0,0,1-.6.5,31.12,31.12,0,0,1,2.3,2.8,16.47,16.47,0,0,1,3.2.6ZM7.9,2.8c-.9.5-1.3,2-1,4.2a2.92,2.92,0,0,0,.2.9,18.81,18.81,0,0,1,3.3-.5,19.86,19.86,0,0,1,2.2-2.7C11.1,3.4,9.7,2.6,8.7,2.6A.78.78,0,0,0,7.9,2.8Zm5.6,4.4a7.57,7.57,0,0,1,1.5.1L13.5,5.5c-.5.6-1,1.1-1.5,1.7h1.5Z"/><path id="Union_2" data-name="Union 2" class="cls-1" d="M6.8,23.1c-1.6-.9-2.1-3.5-1.4-6.7C2.3,15.4.3,13.7.3,11.8a3.26,3.26,0,0,1,.4-1.4c.7-1.3,2.4-2.3,4.7-3-.1-.4-.1-.8-.2-1.1C4.9,3.6,5.4,1.6,6.8.9,8.4,0,10.7.9,13.1,3c.3-.2.5-.5.8-.7C16.1.6,18,.1,19.4.9c1.6.9,2.1,3.5,1.4,6.7.4.1.8.3,1.1.4,2.5,1.1,3.9,2.5,3.9,4.1,0,1.9-2,3.4-5,4.4.6,3.2.2,5.6-1.4,6.6a3.19,3.19,0,0,1-1.4.3c-1.4,0-3.1-.9-4.8-2.4a7.51,7.51,0,0,1-4.8,2.4A2,2,0,0,1,6.8,23.1ZM18.7,22c1-.6,1.3-2.5.8-5.1a19.09,19.09,0,0,1-3.3.6c-.7.9-1.4,1.8-2.2,2.7C16,21.9,17.7,22.6,18.7,22ZM7.4,22c1,.6,2.8-.1,4.7-1.9-.8-.9-1.6-1.8-2.3-2.7a19.09,19.09,0,0,1-3.3-.6C6.1,19.5,6.4,21.5,7.4,22Zm5.7-2.7c.5-.5,1-1.1,1.5-1.7h-3C12.1,18.2,12.6,18.7,13.1,19.3ZM13,16.4a20.08,20.08,0,0,0,2.5-.1,15.92,15.92,0,0,0,1.3-2.2A21.16,21.16,0,0,0,17.9,12a21.16,21.16,0,0,0-1.1-2.1c-.4-.7-.8-1.4-1.2-2a20.9,20.9,0,0,0-2.5-.1,20.08,20.08,0,0,0-2.5.1c-.4.7-.9,1.3-1.3,2.1a21.16,21.16,0,0,0-1.1,2.1,21.16,21.16,0,0,0,1.1,2.1,19.28,19.28,0,0,0,1.3,2.1c.8,0,1.6.1,2.4.1Zm5-1.6c-.3.5-.5.9-.8,1.4a11.21,11.21,0,0,0,2.1-.4,17.23,17.23,0,0,0-.7-2.1,10.91,10.91,0,0,0-.6,1.1ZM9,16.1c-.3-.4-.5-.9-.8-1.3l-.6-1.2c-.3.7-.5,1.4-.7,2A10.81,10.81,0,0,0,9,16.1Zm11.4-.7c2-.6,3.3-1.5,3.8-2.4a1.08,1.08,0,0,0,.2-.8c0-1-1.1-2.1-3.1-2.9L20.4,9a17.55,17.55,0,0,1-1.2,3.2,12.38,12.38,0,0,1,1.2,3.2ZM1.5,12c0,1.2,1.5,2.4,4.2,3.3a17.55,17.55,0,0,1,1.2-3.2A21.9,21.9,0,0,1,5.7,8.8C3.1,9.6,1.6,10.8,1.5,12ZM17.9,9.3l.6,1.2a15.87,15.87,0,0,0,.7-2,11.8,11.8,0,0,0-2-.4c.2.4.5.8.7,1.2ZM7.6,10.5l.6-1.2c.2-.4.5-.8.7-1.3a15.52,15.52,0,0,0-2.1.4C7.1,9.1,7.3,9.8,7.6,10.5ZM19.5,7.3c.5-2.7.2-4.7-.8-5.2s-2.4,0-4.1,1.3a2.65,2.65,0,0,1-.6.5,31.12,31.12,0,0,1,2.3,2.8,19.85,19.85,0,0,1,3.2.6ZM7.5,2c-.9.5-1.3,2-1,4.2a2.92,2.92,0,0,0,.2.9A18.81,18.81,0,0,1,10,6.6a19.86,19.86,0,0,1,2.2-2.7C10.7,2.6,9.3,1.8,8.3,1.8A1.88,1.88,0,0,0,7.5,2Zm5.6,4.5a7.57,7.57,0,0,1,1.5.1L13.1,4.8c-.5.6-1,1.1-1.5,1.7h1.5Z"/><circle id="Ellipse_192" data-name="Ellipse 192" class="cls-1" cx="2.5" cy="6.4" r="0.7"/><circle id="Ellipse_193" data-name="Ellipse 193" class="cls-1" cx="23.4" cy="22.2" r="1.8"/><circle id="Ellipse_576" data-name="Ellipse 576" class="cls-1" cx="1.8" cy="1.8" r="1.8"/></g></g></svg>