<?xml version="1.0" encoding="utf-8"?>
<!-- Generator: Adobe Illustrator 26.0.0, SVG Export Plug-In . SVG Version: 6.00 Build 0)  -->
<svg version="1.1" id="Layer_1" xmlns="http://www.w3.org/2000/svg" xmlns:xlink="http://www.w3.org/1999/xlink" x="0px" y="0px"
	 viewBox="0 0 480 448" style="enable-background:new 0 0 480 448;" xml:space="preserve">
<style type="text/css">
	.st0{fill:#404040;}
</style>
<path class="st0" d="M456,216V40c0-22.1-17.9-40-40-40H64C41.9,0,24,17.9,24,40v120c-13.3,0-24,10.7-24,24v240c0,13.3,10.7,24,24,24
	h176c13.3,0,24-10.7,24-24h67c13.3,0,24-10.8,24-24c0-2.1-0.3-4.2-0.8-6.3L298.5,336H344v88c0,13.3,10.7,24,24,24h88
	c13.3,0,24-10.7,24-24V240C480,226.7,469.3,216,456,216z M208,424c0,4.4-3.6,8-8,8H24c-4.4,0-8-3.6-8-8v-16h192V424z M208,392H16
	V216h192V392z M208,200H16v-16c0-4.4,3.6-8,8-8h176c4.4,0,8,3.6,8,8V200z M298.8,397.9c1.2,4.3-1.4,8.7-5.6,9.8
	c-0.7,0.2-1.4,0.3-2.1,0.3h-67v-16h73.2L298.8,397.9z M224,376v-40h57.9l10.9,40H224z M344,320H224v-48h120V320z M344,240v16H224
	v-72c0-13.3-10.7-24-24-24H40V40c0-13.3,10.7-24,24-24h352c13.3,0,24,10.7,24,24v176h-72C354.7,216,344,226.7,344,240z M464,424
	c0,4.4-3.6,8-8,8h-88c-4.4,0-8-3.6-8-8v-16h104V424z M464,392H360V272h104V392z M464,256H360v-16c0-4.4,3.6-8,8-8h88
	c4.4,0,8,3.6,8,8V256z M42.3,330.3l32-32l11.3,11.3l-32,32L42.3,330.3z M74.3,354.3l96-96l11.3,11.3l-96,96L74.3,354.3z M90.3,282.3
	l48-48l11.3,11.3l-48,48L90.3,282.3z M378.3,330.3l40-40l11.3,11.3l-40,40L378.3,330.3z M394.3,362.3l40-40l11.3,11.3l-40,40
	L394.3,362.3z M210.3,138.3l48-48l11.3,11.3l-48,48L210.3,138.3z M282.3,122.3l48-48l11.3,11.3l-48,48L282.3,122.3z M234.3,170.3
	l32-32l11.3,11.3l-32,32L234.3,170.3z M274.3,74.4l32.1-32.1l11.3,11.3l-32.1,32.1L274.3,74.4z M56,32h16v16H56V32z M88,32h16v16H88
	V32z M120,32h16v16h-16V32z"/>
</svg>
