<svg id="Layer_1" data-name="Layer 1" xmlns="http://www.w3.org/2000/svg" viewBox="0 0 591 575"><defs><style>.cls-1{fill:#d8923c;}.cls-2{fill:#010101;}</style></defs><path class="cls-1" d="M200,200H554.32V392h-27.1a21.22,21.22,0,0,0-10.39,2.68c-6.92,3.89-11.2,8.3-12.83,21.32v16H384V357.51A21.49,21.49,0,0,0,362.51,336H200Z" transform="translate(-136 -125)"/><rect class="cls-1" x="35" y="275" width="153" height="176"/><rect class="cls-1" x="384" y="329" width="77" height="114"/><path class="cls-2" d="M616,392V216a40,40,0,0,0-40-40H224a40,40,0,0,0-40,40V336a24,24,0,0,0-24,24V600a24,24,0,0,0,24,24H360a24,24,0,0,0,24-24h67.05a24,24,0,0,0,23.15-30.31L458.47,512H504v88a24,24,0,0,0,24,24h88a24,24,0,0,0,24-24V416A24,24,0,0,0,616,392ZM368,600a8,8,0,0,1-8,8H184a8,8,0,0,1-8-8V584H368Zm0-32H176V392H368Zm0-192H176V360a8,8,0,0,1,8-8H360a8,8,0,0,1,8,8Zm90.77,197.9a8,8,0,0,1-7.72,10.1H384V568h73.16ZM384,552V512h57.89l10.91,40Zm120-56H384V448H504Zm0-80v16H384V360a24,24,0,0,0-24-24H200V216a24,24,0,0,1,24-24H576a24,24,0,0,1,24,24V392H528A24,24,0,0,0,504,416ZM624,600a8,8,0,0,1-8,8H528a8,8,0,0,1-8-8V584H624Zm0-32H520V448H624Zm0-136H520V416a8,8,0,0,1,8-8h88a8,8,0,0,1,8,8ZM202.34,506.34l32-32,11.31,11.32-32,32Zm32,24,96-96,11.31,11.31-96,96Zm16-72,48-48,11.32,11.31-48,48Zm288,48,40-40,11.31,11.32-40,40Zm16,32,40-40,11.31,11.31-40,40Zm-184-224,48-48,11.31,11.31-48,48Zm72-16,48-48,11.31,11.31-48,48Zm-48,48,32-32,11.32,11.32-32,32Zm40-95.9,32.08-32.08,11.31,11.31L445.6,261.76ZM216,208h16v16H216Zm32,0h16v16H248Zm32,0h16v16H280Z" transform="translate(-136 -125)"/><circle class="cls-1" cx="24" cy="24" r="24"/><circle class="cls-1" cx="528" cy="529" r="24"/><circle class="cls-1" cx="574" cy="558" r="17"/></svg>