<?xml version="1.0" encoding="utf-8"?>
<!-- Generator: Adobe Illustrator 25.2.1, SVG Export Plug-In . SVG Version: 6.00 Build 0)  -->
<svg version="1.1" id="Layer_1" xmlns="http://www.w3.org/2000/svg" xmlns:xlink="http://www.w3.org/1999/xlink" x="0px" y="0px"
	 viewBox="0 0 257.65 511.76" style="enable-background:new 0 0 257.65 511.76;" xml:space="preserve">
<style type="text/css">
	.st0{opacity:0.5;fill:#C8E2EE;}
	.st1{fill:#FFFFFF;stroke:#FFFFFF;stroke-width:5.5993;stroke-linecap:round;stroke-linejoin:round;stroke-miterlimit:10;}
	.st2{fill:none;stroke:#FFFFFF;stroke-width:5.5993;stroke-linecap:round;stroke-linejoin:round;stroke-miterlimit:10;}
	.st3{fill:none;stroke:#C8E2EE;stroke-width:7.1712;stroke-linecap:round;stroke-linejoin:round;stroke-miterlimit:10;}
</style>
<g>
	<path class="st0" d="M254.06,363.82c-18.54-21.63-76.74-29.92-76.44-97.84c0.3-68.64,26.12-71.34,47.32-98.26v-16.75
		c0,0,0.2-0.55,0-0.63c-9.12-3.78-47.49-21.89-47.49-21.89c-5.41-1.29-4.91-11.9-1.36-16.01c9.27-10.74,22.88-17.98,22.88-47.52
		c0-27.82-28.06-61.33-71.91-61.33c-40.64,0-72.14,35.36-71.91,61.33c0.29,32.23,13.89,37.42,23.5,48.23
		c3.58,4.03,4.2,14.65-1.14,16.02c0,0-38.06,17.81-44.82,21.18c-0.09,4.27,0,17.38,0,17.38v2.56c17.47,23.59,41.05,26.58,41.05,95.7
		c0,69-52.47,74.4-70.06,98.08c-0.06,0.04-0.1,0.09-0.1,0.14v99.91c0,11.57,22.88,44.08,127.23,44.08
		c102.73,0,123.25-32.51,123.25-44.08C254.06,464.1,254.06,363.95,254.06,363.82z"/>
	<path class="st1" d="M204.01,379.87c13.99-2.42,37.19-7.49,50.05-16.15"/>
	<path class="st2" d="M72.31,379.71c-18.39-0.96-58.12-8.99-68.72-15.83"/>
	<path class="st1" d="M82.25,126.75c0,0,17.94,4.36,32.83,3.58"/>
	<path class="st2" d="M172.24,125.27c0,0-12.83,4.27-22.23,4.62"/>
	<path class="st2" d="M96.81,381.34c-3.13-0.01-9.51-0.28-14.53-0.6"/>
	<path class="st2" d="M79.61,159.45c0,0-31.56,0.2-46-8.6"/>
	<path class="st2" d="M83.84,178.28c-18.2-0.3-39.12-2.1-50.23-8.09"/>
	<path class="st2" d="M201.41,159.33c7.91-1.29,15.81-3.55,21.76-7.4"/>
	<path class="st2" d="M184.22,161.32c3.07-0.09,6.43-0.28,9.89-0.63"/>
	<path class="st2" d="M177.23,177.09c0,0,33.04-0.08,46.82-9.88"/>
	<path class="st2" d="M159.34,20.9c0,0,22.04,12.16,28.05,31.64"/>
	<path class="st1" d="M68.54,86.79c0,0,5.07,9.25,11.64,14.33"/>
	<path class="st3" d="M254.06,363.82c-18.54-21.63-76.74-29.92-76.44-97.84c0.3-68.64,26.12-71.34,47.32-98.26v-16.75
		c0,0,0.2-0.55,0-0.63c-9.12-3.78-47.49-21.89-47.49-21.89c-5.41-1.29-4.91-11.9-1.36-16.01c9.27-10.74,22.88-17.98,22.88-47.52
		c0-27.82-28.06-61.33-71.91-61.33c-40.64,0-72.14,35.36-71.91,61.33c0.29,32.23,13.89,37.42,23.5,48.23
		c3.58,4.03,4.2,14.65-1.14,16.02c0,0-38.06,17.81-44.82,21.18c-0.09,4.27,0,17.38,0,17.38v2.56c17.47,23.59,41.05,26.58,41.05,95.7
		c0,69-52.47,74.4-70.06,98.08c-0.06,0.04-0.1,0.09-0.1,0.14v99.91c0,11.57,22.88,44.08,127.23,44.08
		c102.73,0,123.25-32.51,123.25-44.08C254.06,464.1,254.06,363.95,254.06,363.82z"/>
</g>
</svg>
