<svg id="Layer_1" data-name="Layer 1" xmlns="http://www.w3.org/2000/svg" viewBox="0 0 71.08 75.45"><defs><style>.cls-1{opacity:0.04;}.cls-2{fill:none;}.cls-3{fill:#384054;}.cls-4{fill:#f16566;}.cls-5{fill:#fff;stroke:#717171;stroke-miterlimit:4;stroke-width:0.5px;}.cls-6{fill:#fac3c4;}</style></defs><g id="Group_2331" data-name="Group 2331"><g id="Polygon_1-5" data-name="Polygon 1-5" class="cls-1"><path id="Path_4581" data-name="Path 4581" class="cls-2" d="M61.38,13.26a20,20,0,0,1,9.7,17.19l0,17A20,20,0,0,1,60.47,65.07l-15,8a20,20,0,0,1-19.72-.49L9.7,63A20,20,0,0,1,0,45.78l0-17A20,20,0,0,1,10.61,11.16l15-8a20,20,0,0,1,19.72.5Z"/><path id="Path_4582" data-name="Path 4582" class="cls-3" d="M42.78,7.91A15,15,0,0,0,28,7.54l-15,8A15,15,0,0,0,5,28.76l0,17a15,15,0,0,0,7.27,12.88l16,9.64a15,15,0,0,0,14.79.37l15-8A15,15,0,0,0,66,47.46l0-17a15,15,0,0,0-7.27-12.88l-16-9.63m2.58-4.29,16,9.63a20,20,0,0,1,9.7,17.19l0,17A20,20,0,0,1,60.47,65.07l-15,8a20,20,0,0,1-19.72-.49L9.7,63A20,20,0,0,1,0,45.78l0-17A20,20,0,0,1,10.61,11.16l15-8a20,20,0,0,1,19.72.5Z"/></g><g id="startup"><path id="Path_29" data-name="Path 29" class="cls-4" d="M53,2.42s4.2,18.15-14.14,38.67l-11-6.59S28.61,11.68,53,2.42Z"/><g id="Group_1487" data-name="Group 1487"><g id="Group_1486" data-name="Group 1486"><path id="Path_1118-4" data-name="Path 1118-4" class="cls-5" d="M51.34,35.34a41.07,41.07,0,0,0,6.73-34,1.46,1.46,0,0,0-1.71-1A41,41,0,0,0,29.47,22.2,17.39,17.39,0,0,0,17.31,42.71,1.42,1.42,0,0,0,20,42.8a15.29,15.29,0,0,1,1.07-2.5,10.48,10.48,0,0,1,4.74-4.19,1.44,1.44,0,0,0,.49.49l13.75,8.26a1.42,1.42,0,0,0,.67.2,10.55,10.55,0,0,1-1.48,6.16,21.61,21.61,0,0,1-1.7,2.12,1.41,1.41,0,0,0,1.36,2.36,17.37,17.37,0,0,0,12.4-20.36ZM55.65,3.39a37.85,37.85,0,0,1,.66,10.88L45.74,7.92A36.9,36.9,0,0,1,55.65,3.39ZM19.8,37.29A14.62,14.62,0,0,1,27.94,25.8c-.05.1-1.69,5.7-2,7.23a13.13,13.13,0,0,0-6.19,4.25ZM40.74,42,28.58,34.65a38.28,38.28,0,0,1,14.63-25l12.72,7.65A38.17,38.17,0,0,1,40.74,42Zm2.67,1.54c1.71-1.33,5.42-5,5.47-5.11A14.66,14.66,0,0,1,42.56,51a13.32,13.32,0,0,0,.85-7.46Z"/><path id="Path_30" data-name="Path 30" class="cls-3" d="M50.67,34.46A39.15,39.15,0,0,0,57.08,2a1.38,1.38,0,0,0-1.63-1A39.07,39.07,0,0,0,29.82,21.94,16.55,16.55,0,0,0,18.24,41.48a1.34,1.34,0,0,0,1.62,1,1.38,1.38,0,0,0,1-.91,14.7,14.7,0,0,1,1-2.38,9.89,9.89,0,0,1,4.51-4,1.3,1.3,0,0,0,.46.47L40,43.54a1.29,1.29,0,0,0,.64.19,10,10,0,0,1-1.43,5.86,17.48,17.48,0,0,1-1.62,2,1.35,1.35,0,0,0,1.3,2.26A16.57,16.57,0,0,0,50.66,34.46ZM54.78,4a35.81,35.81,0,0,1,.62,10.38L45.33,8.33A35.32,35.32,0,0,1,54.78,4ZM20.61,36.32a13.94,13.94,0,0,1,7.75-11c0,.1-1.61,5.44-1.85,6.9a12.57,12.57,0,0,0-5.9,4.05Zm20,4.45L29,33.81A36.39,36.39,0,0,1,42.92,10L55,17.29A36.41,36.41,0,0,1,40.57,40.77Zm2.53,1.47c1.64-1.27,5.17-4.82,5.22-4.88a13.74,13.74,0,0,1-2,7.68,14.12,14.12,0,0,1-4.05,4.31,12.68,12.68,0,0,0,.81-7.12Z"/><path id="Path_31" data-name="Path 31" class="cls-3" d="M27.57,38.73a1.34,1.34,0,0,0-1.84.45h0L22.26,45a1.34,1.34,0,0,0,2.3,1.38L28,40.57a1.34,1.34,0,0,0-.46-1.84Z"/><path id="Path_32" data-name="Path 32" class="cls-3" d="M32.23,41.52a1.42,1.42,0,0,0-1-.15h0a1.36,1.36,0,0,0-.6.33,2.26,2.26,0,0,0-.23.29L23.42,53.55a1.51,1.51,0,0,0-.13.29,1.34,1.34,0,0,0,2.24,1.34,1.12,1.12,0,0,0,.19-.24l7-11.58a1.43,1.43,0,0,0,.14-.34A1.31,1.31,0,0,0,32.23,41.52Z"/><path id="Path_33" data-name="Path 33" class="cls-3" d="M36.88,44.32a1.34,1.34,0,0,0-1.84.46h0l-3.47,5.78A1.34,1.34,0,0,0,33.87,52l3.47-5.79a1.31,1.31,0,0,0-.43-1.82Z"/></g></g><g id="Group_1488" data-name="Group 1488"><path id="Path_34" data-name="Path 34" class="cls-3" d="M39.53,29.58a6.36,6.36,0,1,1,8.73-2.18h0A6.36,6.36,0,0,1,39.53,29.58Zm5.55-9.25A4.42,4.42,0,1,0,46.6,26.4h0A4.42,4.42,0,0,0,45.08,20.33Z"/></g><circle id="Ellipse_9" data-name="Ellipse 9" class="cls-6" cx="26.76" cy="16.65" r="1.86"/><circle id="Ellipse_10" data-name="Ellipse 10" class="cls-6" cx="28.34" cy="19.77" r="0.71"/><circle id="Ellipse_11" data-name="Ellipse 11" class="cls-6" cx="62.01" cy="8.9" r="1.86"/><circle id="Ellipse_12" data-name="Ellipse 12" class="cls-6" cx="60.87" cy="12.67" r="0.71"/><circle id="Ellipse_13" data-name="Ellipse 13" class="cls-6" cx="30.32" cy="56.27" r="1.86"/><circle id="Ellipse_14" data-name="Ellipse 14" class="cls-6" cx="34.48" cy="54.72" r="0.71"/></g></g></svg>