<svg xmlns="http://www.w3.org/2000/svg" viewBox="0 0 36.32 21.02"><defs><style>.cls-1{fill:#a0e4d5;}</style></defs><g id="Layer_2" data-name="Layer 2"><g id="Layer_1-2" data-name="Layer 1"><path id="Path_343" data-name="Path 343" class="cls-1" d="M21.2,16.1a2.84,2.84,0,0,1-.4,1.3,1.39,1.39,0,0,1-1,.5H6.8A1.71,1.71,0,0,1,5.3,16V3.4h16v8C21.3,13,21.3,14.5,21.2,16.1Z"/><path id="Path_338" data-name="Path 338" d="M30.3,13.82a3.6,3.6,0,1,0,3.6,3.6,3.59,3.59,0,0,0-3.6-3.6Zm0,5.2a1.6,1.6,0,1,1,1.6-1.6h0A1.58,1.58,0,0,1,30.3,19Z"/><path id="Path_339" data-name="Path 339" d="M25.1.8H6a1.08,1.08,0,0,0-1,1V17.3a1,1,0,0,0,1,1H9.2v-2H7V2.8H24.1V17.3h2V1.8A1,1,0,0,0,25.1.8Z"/><rect id="Rectangle_5" data-name="Rectangle 5" x="14.12" y="16.34" width="13.6" height="2"/><path id="Path_340" data-name="Path 340" d="M11.63,13.82a3.6,3.6,0,1,0,3.6,3.6,3.59,3.59,0,0,0-3.6-3.6Zm0,5.2a1.6,1.6,0,1,1,1.6-1.6h0A1.58,1.58,0,0,1,11.63,19Z"/><path id="Path_341" data-name="Path 341" d="M35.32,9.18H25.12v2h9.1v5.1h-1.4v2h2.5a1,1,0,0,0,1-1h0v-7.1a1.08,1.08,0,0,0-1-1Z"/><path id="Path_342" data-name="Path 342" d="M32.22,5a1.05,1.05,0,0,0-.9-.5h-6.2v2h5.6l2.3,4.2,1.8-1Z"/><circle id="Ellipse_127-9" data-name="Ellipse 127-9" class="cls-1" cx="31.3" cy="1.4" r="1.4"/><circle id="Ellipse_128-9" data-name="Ellipse 128-9" class="cls-1" cx="34" cy="2.8" r="0.6"/><path id="Rectangle_6" data-name="Rectangle 6" d="M1,5.8H5a.94.94,0,0,1,1,1H6a.94.94,0,0,1-1,1H1a.94.94,0,0,1-1-1H0A.94.94,0,0,1,1,5.8Z"/><path id="Rectangle_7" data-name="Rectangle 7" d="M2,8.8H5a.94.94,0,0,1,1,1H6a.94.94,0,0,1-1,1H2a.94.94,0,0,1-1-1H1A.94.94,0,0,1,2,8.8Z"/></g></g></svg>