<svg xmlns="http://www.w3.org/2000/svg" viewBox="0 0 30.28 32.22"><defs><style>.cls-1{fill:gray;}.cls-2,.cls-3{fill:none;stroke:#404040;stroke-width:1.5px;}.cls-3{stroke-linecap:round;stroke-linejoin:round;}</style></defs><g id="Layer_2" data-name="Layer 2"><g id="Layer_1-2" data-name="Layer 1"><path id="Path_483" data-name="Path 483" class="cls-1" d="M24.23,6.45l-2.5-.2-1.8-1.8a.37.37,0,0,0-.3-.1l-1.3,27.2,9.5-2.1s-3.3-22.6-3.4-22.7-.1-.3-.2-.3"/><path id="Path_482" data-name="Path 482" class="cls-2" d="M24.53,6.75q0-.15-.3-.3l-2.5-.2-1.8-1.8a.82.82,0,0,0-.7-.1l-.9.3c-.5-1.6-1.5-3-3.2-3H15a2.2,2.2,0,0,0-1.6-.9c-4,0-5.9,5-6.5,7.5l-2.8.8c-.9.3-.9.3-1,1.1-.1.6-2.3,18-2.3,18l17.6,3.3,9.5-2.1c-.1.1-3.4-22.5-3.4-22.6ZM17.33,5l-1.5.5v-.3a6.72,6.72,0,0,0-.4-2.4C16.43,2.85,16.93,3.85,17.33,5Zm-2.9-2a8.42,8.42,0,0,1,.4,2.7v.2l-3.1.9c.6-2.3,1.7-3.4,2.7-3.8Zm-1.2-1.2a.76.76,0,0,1,.5.2c-1.3.6-2.6,2.1-3.2,5.1l-2.4.8C8.83,5.55,10.43,1.75,13.23,1.75Z"/><path id="Path_484" data-name="Path 484" class="cls-3" d="M15.13,11.75l-1.2,3.5a5.93,5.93,0,0,0-2.3-.5c-1.8,0-1.9,1.2-1.9,1.5,0,1.6,4.2,2.2,4.2,5.9,0,2.9-1.9,4.8-4.4,4.8a6.19,6.19,0,0,1-4.6-1.9l.8-2.7a6.06,6.06,0,0,0,2.9,1.4,1.13,1.13,0,0,0,1.2-1.1v-.1c0-2.1-3.4-2.2-3.4-5.6,0-2.9,2.1-5.7,6.2-5.7a5.34,5.34,0,0,1,2.5.5"/></g></g></svg>