<svg id="Layer_1" data-name="Layer 1" xmlns="http://www.w3.org/2000/svg" viewBox="0 0 295.81 300"><defs><style>.cls-1{fill:#03a9f4;}</style></defs><path class="cls-1" d="M289.39,181.85A141.14,141.14,0,0,0,127.44,12.56,81.8,81.8,0,0,0,13.34,123.2,141.17,141.17,0,0,0,177.41,290.29a81.82,81.82,0,0,0,112-108.44ZM223.93,219c-6.52,9.23-16.17,16.55-28.66,21.75s-27.21,7.75-44.09,7.75c-20.26,0-37.25-3.57-50.51-10.6a66.23,66.23,0,0,1-23.23-20.61c-6-8.65-9-17.23-9-25.5a17.71,17.71,0,0,1,5.88-13.32A20.76,20.76,0,0,1,89,173a18.69,18.69,0,0,1,12.42,4.32c3.25,2.76,6,6.83,8.28,12.09a71.4,71.4,0,0,0,8.1,14.37,31.29,31.29,0,0,0,11.83,9.14c5.12,2.42,12,3.65,20.5,3.65,11.66,0,21.22-2.49,28.41-7.4,7-4.8,10.45-10.56,10.45-17.61,0-5.57-1.79-9.94-5.45-13.38a38.62,38.62,0,0,0-15.06-8.3c-6.41-2-15.12-4.16-25.88-6.41-14.59-3.12-27-6.83-36.86-11l-.12,0c-10.11-4.3-18.27-10.27-24.23-17.73s-9.13-17.1-9.13-28.28a45.83,45.83,0,0,1,9.58-28.55c6.31-8.23,15.52-14.62,27.38-19s25.64-6.53,41.4-6.53c12.6,0,23.68,1.46,32.92,4.33s17.14,6.81,23.3,11.62,10.82,10,13.72,15.42A34,34,0,0,1,225,99.77a20.22,20.22,0,0,1-20.28,19.67c-5.22,0-9.31-1.28-12.15-3.79-2.64-2.33-5.38-6-8.42-11.21a46.65,46.65,0,0,0-12.66-15.67c-4.74-3.6-12.66-5.43-23.55-5.43-10.12,0-18.34,2-24.45,6-5.88,3.86-8.74,8.28-8.74,13.52a12.46,12.46,0,0,0,2.81,8.22A25.39,25.39,0,0,0,126,117.5a62.81,62.81,0,0,0,11.36,4.4c3.92,1.09,10.5,2.7,19.52,4.78,9.5,2,18.36,4.29,26.42,6.7,1.62.48,3.22,1,4.77,1.46a100.66,100.66,0,0,1,24.13,11,48.1,48.1,0,0,1,15.91,16.8c3.81,6.77,5.73,15.13,5.73,24.84A53.51,53.51,0,0,1,223.93,219Z" transform="translate(-2.1)"/></svg>