<svg xmlns="http://www.w3.org/2000/svg" viewBox="0 0 27.32 24.2"><defs><style>.cls-1{fill:#98f49f;}</style></defs><g id="Layer_2" data-name="Layer 2"><g id="Layer_1-2" data-name="Layer 1"><g id="Component_15_1" data-name="Component 15 1"><g id="Ellipse_127" data-name="Ellipse 127"><circle class="cls-1" cx="15.35" cy="19.9" r="1.3"/></g><g id="Ellipse_128" data-name="Ellipse 128"><circle class="cls-1" cx="16.15" cy="22.6" r="0.6"/></g><g id="Ellipse_128-2" data-name="Ellipse 128-2"><circle class="cls-1" cx="1.15" cy="3.1" r="1"/></g><g id="Path_4530" data-name="Path 4530"><path class="cls-1" d="M8.75,8.9s11.2.5,14-4l.1,12.9-.7.5s-9.3-4.5-12.7-3.9Z"/></g><g id="Group_3148" data-name="Group 3148"><g id="Group_3147" data-name="Group 3147"><g id="Group_3146" data-name="Group 3146"><g id="Group_3145" data-name="Group 3145"><g id="Group_3144" data-name="Group 3144"><g id="Path_4532" data-name="Path 4532"><path d="M27.3,8.9A4.18,4.18,0,0,0,24,5.7V1.4A1.43,1.43,0,0,0,22.6,0a3.09,3.09,0,0,0-.8.2A31.05,31.05,0,0,1,8.9,4.1H4.7A2.23,2.23,0,0,0,2.6,5.9H1.8A1.86,1.86,0,0,0,0,7.7v3.7a1.79,1.79,0,0,0,1.8,1.8h.8a2.2,2.2,0,0,0,1.2,1.6l3,8.4a1.48,1.48,0,0,0,1.3,1h3.1a1.43,1.43,0,0,0,1.4-1.4.9.9,0,0,0-.1-.5l-2.5-7a30.72,30.72,0,0,1,11.9,3.8,1.71,1.71,0,0,0,1.4,0,1.65,1.65,0,0,0,.8-1.3V13.5A4.36,4.36,0,0,0,27.3,8.9ZM2.5,11.8H1.8a.32.32,0,0,1-.3-.3V7.8a.32.32,0,0,1,.3-.3h.7Zm2,1.7c-.1,0-.1-.1-.2-.1C4,13.3,4,13,4,12.8V6.2a.58.58,0,0,1,.6-.6H8.1v7.9H4.5C4.6,13.6,4.5,13.6,4.5,13.5ZM11,22.6H8.2L5.5,15.1H8.3Zm11.5-5.1A34.57,34.57,0,0,0,9.7,13.6V5.5A33.32,33.32,0,0,0,22.5,1.6Zm3.3-7.4A2.52,2.52,0,0,1,24,11.9V7.4A2.42,2.42,0,0,1,25.8,10.1Z"/></g></g></g></g></g></g></g></g></g></svg>