<svg xmlns="http://www.w3.org/2000/svg" viewBox="0 0 21.9 30.66"><defs><style>.cls-1{fill:#404040;}</style></defs><g id="Layer_2" data-name="Layer 2"><g id="Layer_1-2" data-name="Layer 1"><g id="Group_54" data-name="Group 54"><g id="Group_53" data-name="Group 53"><path id="Path_47" data-name="Path 47" class="cls-1" d="M15.36,12.88A20.91,20.91,0,0,0,1.66,2c-.4-.1-.8.1-.8.5a20.83,20.83,0,0,0,3.7,17.2A8.7,8.7,0,0,0,11,29.78c.4.1.8-.1.8-.5a.62.62,0,0,0-.2-.7,10.63,10.63,0,0,1-.9-1.1,4.24,4.24,0,0,1-.7-3.1.37.37,0,0,0,.3-.1l6.9-4.3c.1-.1.2-.1.2-.2a5.3,5.3,0,0,1,2.4,2,5.17,5.17,0,0,1,.6,1.3.72.72,0,0,0,.9.5c.2,0,.4-.3.5-.5a8.86,8.86,0,0,0-6.4-10.2ZM2.06,3.58a17.3,17.3,0,0,1,5,2.2l-5.3,3.3A20.57,20.57,0,0,1,2.06,3.58Zm7,23.9a7.56,7.56,0,0,1-3.3-6.3c.1.1,2.2,2,2.8,2.5a7.06,7.06,0,0,0,.5,3.8Zm6.9-8.3L9.86,23A19.33,19.33,0,0,1,2,10.68l6.4-4A19.21,19.21,0,0,1,16,19.18Zm1.3-.9a34.54,34.54,0,0,0-1.1-3.6,7,7,0,0,1,3.1,2.8,6.3,6.3,0,0,1,1,3,5.52,5.52,0,0,0-3-2.2Z"/><path id="Path_48" data-name="Path 48" class="cls-1" d="M11.86,24.78a.75.75,0,0,0-.2,1h0l1.9,3.1a.72.72,0,1,0,1.2-.8h0L12.86,25a.78.78,0,0,0-1-.2Z"/><path id="Path_49" data-name="Path 49" class="cls-1" d="M14.36,23.28a.54.54,0,0,0-.3.4h0v.4c.1.1.1.1.1.2l3.8,6c.1.1.1.1.1.2a.68.68,0,0,0,1-.1.66.66,0,0,0,.2-.7c-.1-.1-.1-.1-.1-.2l-3.8-6c-.1-.1-.1-.1-.1-.2A.75.75,0,0,0,14.36,23.28Z"/><path id="Path_50" data-name="Path 50" class="cls-1" d="M16.66,21.78a.75.75,0,0,0-.2,1h0l1.9,3.1a.72.72,0,1,0,1.2-.8h0L17.66,22c-.1-.4-.5-.5-1-.2Z"/></g></g><g id="Group_55" data-name="Group 55"><path id="Path_51" data-name="Path 51" class="cls-1" d="M10.43,16.92a3.33,3.33,0,0,1-4.6-1,3.42,3.42,0,1,1,4.6,1Zm-3-4.9a2.43,2.43,0,0,0-.8,3.3,2.32,2.32,0,1,0,3.9-2.5,2.35,2.35,0,0,0-3.1-.8Z"/></g><circle id="Ellipse_42-2" data-name="Ellipse 42-2" class="cls-1" cx="1" cy="19.4" r="1"/><circle id="Ellipse_43-2" data-name="Ellipse 43-2" class="cls-1" cx="2.8" cy="19.5" r="0.4"/><circle id="Ellipse_44-2" data-name="Ellipse 44-2" class="cls-1" cx="5.9" cy="1" r="1"/><circle id="Ellipse_45-2" data-name="Ellipse 45-2" class="cls-1" cx="7.4" cy="2.4" r="0.4"/><circle id="Ellipse_46-2" data-name="Ellipse 46-2" class="cls-1" cx="20.5" cy="27.3" r="1"/><circle id="Ellipse_47-2" data-name="Ellipse 47-2" class="cls-1" cx="20.9" cy="25" r="0.4"/></g></g></svg>