<svg xmlns="http://www.w3.org/2000/svg" viewBox="0 0 21.83 30.63"><defs><style>.cls-1{fill:#f4a196;}</style></defs><g id="Layer_2" data-name="Layer 2"><g id="Layer_1-2" data-name="Layer 1"><path id="Path_46" data-name="Path 46" class="cls-1" d="M.58,3.7s9.53,2.42,14.81,16l-5.76,3.6A19.92,19.92,0,0,1,.58,3.7Z"/><path id="Path_47" data-name="Path 47" d="M15.38,12.94A20.7,20.7,0,0,0,1.63,2.07a.67.67,0,0,0-.84.53A21,21,0,0,0,4.44,19.77,8.72,8.72,0,0,0,10.89,29.9a.68.68,0,0,0,.85-.53.63.63,0,0,0-.2-.7,6.27,6.27,0,0,1-.92-1.08,4.57,4.57,0,0,1-.74-3.08.39.39,0,0,0,.31-.07l6.87-4.29a.4.4,0,0,0,.2-.25,5.73,5.73,0,0,1,2.44,2,6.82,6.82,0,0,1,.57,1.29.72.72,0,0,0,.9.5c.22,0,.42-.27.49-.54a8.7,8.7,0,0,0-6.28-10.23ZM2,3.61A19.28,19.28,0,0,1,7,5.78L1.76,9.07A19.07,19.07,0,0,1,2,3.61Zm7,23.9a7.74,7.74,0,0,1-3.33-6.28c0,.08,2.21,2,2.75,2.52A7.31,7.31,0,0,0,9,27.51ZM16,19.17,9.87,23A19.45,19.45,0,0,1,2,10.71l6.36-4A19.37,19.37,0,0,1,16,19.17Zm1.22-.88c-.2-1.06-1.06-3.58-1.06-3.58a7.21,7.21,0,0,1,3.13,2.75,6.59,6.59,0,0,1,1.05,3,6.46,6.46,0,0,0-3.12-2.17Z"/><path id="Path_48" data-name="Path 48" d="M11.84,24.82a.68.68,0,0,0-.22,1h0l1.91,3.06a.7.7,0,0,0,1.19-.74h0L12.81,25a.69.69,0,0,0-1-.22Z"/><path id="Path_49" data-name="Path 49" d="M14.3,23.28a.82.82,0,0,0-.32.44h0c0,.14,0,.22,0,.36l.11.17,3.76,6,.11.17a.72.72,0,0,0,1-.06.63.63,0,0,0,.16-.68L19,29.53l-3.76-6-.11-.17A.74.74,0,0,0,14.3,23.28Z"/><path id="Path_50" data-name="Path 50" d="M16.68,21.8a.68.68,0,0,0-.23,1h0l1.91,3.06a.7.7,0,1,0,1.19-.75h0L17.64,22c-.13-.39-.54-.49-1-.22Z"/><path id="Path_51" data-name="Path 51" d="M10.41,16.93a3.36,3.36,0,1,1,1.13-4.61,3.36,3.36,0,0,1-1.13,4.61Zm-3-4.84a2.44,2.44,0,0,0-.76,3.31A2.3,2.3,0,0,0,10.52,13a2.21,2.21,0,0,0-3.14-.87Z"/><circle id="Ellipse_42-2" data-name="Ellipse 42-2" class="cls-1" cx="1" cy="19.48" r="1"/><circle id="Ellipse_43-2" data-name="Ellipse 43-2" class="cls-1" cx="2.8" cy="19.53" r="0.4"/><circle id="Ellipse_44-2" data-name="Ellipse 44-2" class="cls-1" cx="5.84" cy="1" r="1"/><circle id="Ellipse_45-2" data-name="Ellipse 45-2" class="cls-1" cx="7.33" cy="2.43" r="0.4"/><circle id="Ellipse_46-2" data-name="Ellipse 46-2" class="cls-1" cx="20.53" cy="27.32" r="1"/><circle id="Ellipse_47-2" data-name="Ellipse 47-2" class="cls-1" cx="20.84" cy="25" r="0.4"/></g></g></svg>