<svg id="a3e36255-67fe-4dac-97fe-5ced83ab156e" data-name="Layer 1" xmlns="http://www.w3.org/2000/svg" viewBox="0 0 300 300"><polygon points="79.96 119.36 123.74 119.36 123.74 128.11 106.23 128.11 106.23 171.89 97.47 171.89 97.47 128.11 79.96 128.11 79.96 119.36"/><path d="M150,0A150,150,0,1,0,300,150,150,150,0,0,0,150,0Zm6.57,58.08a28.44,28.44,0,0,1,6.56,56.12v-8a21.89,21.89,0,0,0-21.88-21.89H128.2A28.42,28.42,0,0,1,156.57,58.08ZM49.32,185V106.23A13.14,13.14,0,0,1,62.45,93.1h78.8a13.14,13.14,0,0,1,13.13,13.13V185a13.14,13.14,0,0,1-13.13,13.13H62.45A13.14,13.14,0,0,1,49.32,185Zm153.21,13.13a43.79,43.79,0,0,1-86.68,8.75h25.4A21.89,21.89,0,0,0,163.13,185V128.11h39.4Zm0-102.87A19.7,19.7,0,1,1,222.22,115,19.7,19.7,0,0,1,202.53,95.28Zm48.15,87.55a28.46,28.46,0,0,1-28.46,28.45,27.94,27.94,0,0,1-11.95-2.67,54.41,54.41,0,0,0,1-10.46v-70h39.4Z"/></svg>