<svg id="Layer_1" data-name="Layer 1" xmlns="http://www.w3.org/2000/svg" viewBox="0 0 71.55 75.22"><defs><style>.cls-1{fill:#384054;opacity:0.04;}.cls-1,.cls-3{isolation:isolate;}.cls-2{fill:#508b48;}.cls-3{fill:#fff;opacity:0.4;}.cls-4{fill:#010101;}</style></defs><g id="Group_3190" data-name="Group 3190"><path id="Path_4584-9" data-name="Path 4584-9" class="cls-1" d="M12.27,16.92A15,15,0,0,0,5,29.81L5,47.1A15,15,0,0,0,13,60.3l15.25,8.16A15,15,0,0,0,43,68.08L59.28,58.3a15,15,0,0,0,7.28-12.88l0-17.3a15,15,0,0,0-7.93-13.19L43.33,6.77a15,15,0,0,0-14.79.37L12.27,16.92M9.7,12.63,26,2.86a20,20,0,0,1,19.73-.5l15.25,8.16A20,20,0,0,1,71.51,28.11l0,17.29a20,20,0,0,1-9.69,17.19L45.59,72.36a20,20,0,0,1-19.72.5L10.61,64.71A20,20,0,0,1,0,47.11L0,29.82A20,20,0,0,1,9.7,12.63Z" transform="translate(0 0)"/><g id="padlock"><g id="Group_2334-2" data-name="Group 2334-2"><path id="Path_3356" data-name="Path 3356" class="cls-2" d="M30.78,35.19a22.14,22.14,0,0,0,.6,5.13H43.16v-13L31.38,30.09a.77.77,0,0,0-.6.75Z" transform="translate(0 0)"/><path id="Path_3357" data-name="Path 3357" class="cls-2" d="M57.09,35.19V30.84a.77.77,0,0,0-.6-.75L44.71,27.36v13H56.48a22.14,22.14,0,0,0,.6-5.13Z" transform="translate(0 0)"/><path id="Path_3358" data-name="Path 3358" class="cls-2" d="M34.8,48.06H33a2.7,2.7,0,1,0,0,1.55h3a22.93,22.93,0,0,0,7.21,5.88V41.87H31.81A23,23,0,0,0,34.8,48.06ZM30.4,50a1.17,1.17,0,0,0,0-2.34,1.17,1.17,0,1,0,0,2.34Z" transform="translate(0 0)"/><path id="Path_3359" data-name="Path 3359" class="cls-2" d="M57.47,46.13a2.7,2.7,0,0,0-2.58,1.93H53.07a23,23,0,0,0,3-6.19H44.71V55.49a23,23,0,0,0,7.21-5.88h3A2.7,2.7,0,0,0,60.06,48,2.67,2.67,0,0,0,57.47,46.13Zm0,3.86a1.16,1.16,0,1,1,1.17-1.16h0A1.16,1.16,0,0,1,57.47,50Z" transform="translate(0 0)"/></g><rect id="Rectangle_680" data-name="Rectangle 680" class="cls-3" x="13.53" y="22.38" width="23.33" height="15.8"/><path id="Path_3360" data-name="Path 3360" class="cls-4" d="M34.73,21.32V19.58a9.29,9.29,0,1,0-18.57,0v1.74a2.91,2.91,0,0,0-2.9,2.9V36.41a2.9,2.9,0,0,0,2.9,2.9H34.73a2.9,2.9,0,0,0,2.9-2.9V24.22a2.9,2.9,0,0,0-2.9-2.9ZM17.32,19.58a8.13,8.13,0,1,1,16.25,0v1.74H31.25V19.58a5.8,5.8,0,1,0-11.6,0v1.74H17.32Zm3.49,1.74V19.58a4.64,4.64,0,0,1,9.28-.14v1.88Zm-4.65,1.16H34.73a1.74,1.74,0,0,1,1.75,1.74v.58H14.42v-.58A1.74,1.74,0,0,1,16.16,22.48ZM34.73,38.15H16.16a1.74,1.74,0,0,1-1.74-1.74V26H36.48V36.41a1.74,1.74,0,0,1-1.75,1.74Z" transform="translate(0 0)"/><path id="Path_3361" data-name="Path 3361" class="cls-4" d="M25.45,27.7a2.67,2.67,0,0,0-1.72,4.72l-.53,3.31a.58.58,0,0,0,.48.67h3.45a.58.58,0,0,0,.58-.58s0-.07,0-.1l-.53-3.31a2.67,2.67,0,0,0-1.72-4.72Zm.79,4a.59.59,0,0,0-.27.59l.47,3h-2l.48-3a.59.59,0,0,0-.27-.59,1.51,1.51,0,1,1,2.08-.5,1.49,1.49,0,0,1-.5.5Z" transform="translate(0 0)"/></g><circle id="Ellipse_506-6" data-name="Ellipse 506-6" class="cls-2" cx="47.28" cy="12.77" r="2.35"/><circle id="Ellipse_507-6" data-name="Ellipse 507-6" class="cls-2" cx="53.5" cy="8.34" r="1.32"/><circle id="Ellipse_508-6" data-name="Ellipse 508-6" class="cls-2" cx="12.67" cy="48.65" r="2.35"/><circle id="Ellipse_509-5" data-name="Ellipse 509-5" class="cls-2" cx="5.69" cy="45.56" r="1.32"/></g></svg>