<?xml version="1.0" encoding="utf-8"?>
<!-- Generator: Adobe Illustrator 26.0.3, SVG Export Plug-In . SVG Version: 6.00 Build 0)  -->
<svg version="1.1" id="Capa_1" xmlns="http://www.w3.org/2000/svg" xmlns:xlink="http://www.w3.org/1999/xlink" x="0px" y="0px"
	 viewBox="0 0 633 409.44" style="enable-background:new 0 0 633 409.44;" xml:space="preserve">
<style type="text/css">
	.st0{fill:#A086BE;}
	.st1{opacity:0.5;fill:#A086BE;}
	.st2{fill:#34A065;}
	.st3{fill:#7EC07D;}
	.st4{fill:#F0F8FD;}
	.st5{fill:#333362;}
	.st6{fill:#D9CFE7;}
	.st7{fill:#2C2A53;}
	.st8{fill:#46488D;}
	.st9{fill:#231F41;}
	.st10{fill:#E1D7EA;}
	.st11{fill:#F7C0B3;}
	.st12{fill:#ED7057;}
	.st13{fill:#F1E9F4;}
	.st14{fill:#F49F8C;}
	.st15{fill:#252247;}
	.st16{fill:#DC584C;}
	.st17{fill:#E9A898;}
	.st18{fill:#B4B1D1;}
	.st19{fill:#8F8CC4;}
	.st20{fill:#DB5744;}
	.st21{fill:#E9654A;}
	.st22{fill:#31305D;}
	.st23{fill:#F8F5FA;}
	.st24{fill:#C08BBE;}
	.st25{fill:#C7B5D8;}
	.st26{fill:#272962;}
	.st27{fill:#FEF9FB;}
	.st28{fill:#B9403D;}
	.st29{fill:#F18844;}
	.st30{fill:#E4DBED;}
	.st31{fill:#B9C6E6;}
	.st32{fill:#E59958;}
	.st33{fill:#DF6E4A;}
	.st34{fill:#E18C58;}
	.st35{fill:#E18E58;}
	.st36{fill:#E39158;}
	.st37{fill:#E49358;}
	.st38{fill:#E59758;}
	.st39{fill:#E59B57;}
	.st40{fill:#E69D56;}
	.st41{fill:#E69F55;}
	.st42{fill:#EBF7FE;}
	.st43{fill:#ECA452;}
	.st44{fill:#F7B957;}
	.st45{fill:#585BA4;}
	.st46{fill:#E993BE;}
	.st47{fill:#404285;}
	.st48{fill:#4A4E9B;}
	.st49{fill:#D478A5;}
	.st50{fill:#EBA6CA;}
	.st51{fill:#57A2CB;}
	.st52{fill:#1B1633;}
	.st53{fill:#0299C8;}
	.st54{fill:#6A62A9;}
	.st55{fill:#53408F;}
	.st56{fill:#9173B1;}
	.st57{fill:#8B66A9;}
	.st58{fill:#CA96C4;}
	.st59{fill:#5B348B;}
	.st60{fill:#7D77B7;}
</style>
<g>
	<path class="st0" d="M44.06,373.53c1.59,1.15,3.22,2.3,5.13,2.78c1.52,0.38,3.12,0.46,4.65,0.84c2.88,0.71,6.39,2.03,7.09,5.3
		l0.03,0.15c0.03-1.22-0.01-2.48-0.06-3.69c-0.05-1.27-0.47-2.19,0.12-3.45c0.23-0.48,0.55-0.88,0.93-1.21
		c-0.02-0.24-0.02-0.5-0.02-0.77c0-0.55,0.04-1.11,0.07-1.66c-0.46-0.03-0.97-0.06-1.53-0.08c-0.14,0-0.26-0.13-0.26-0.29
		c-0.04-2.62-0.12-5.89-0.23-9.65c-4.93,0.65-9.61,1.31-14,2c-0.28,2.58-0.54,4.98-0.78,7.13l-0.23,0.24
		c-0.62,0.08-1.25,0.14-1.88,0.19c0.05,0.56,0.12,1.12,0.17,1.69C43.53,373.19,43.8,373.35,44.06,373.53z"/>
	<path class="st1" d="M612.21,368.68v4.11c0,3.75-3.04,6.79-6.79,6.79h-83.24c-0.11,0.48-0.33,0.94-0.69,1.34
		c-0.51,0.57-1.16,0.98-1.82,1.36c-2.08,1.2-4.31,2.15-6.62,2.81c-4,1.16-8.26,1.15-12.4,0.92c-1.52-0.08-3.04-0.21-4.55-0.39
		c-0.75-0.09-1.38-0.11-1.86-0.34c-0.87,0.22-1.76,0.37-2.66,0.49c-0.23,0.03-0.46,0.06-0.7,0.09c-0.8,0.09-1.6,0.16-2.4,0.21
		c-0.1,0-0.19,0.01-0.28,0.02c-0.73,0.03-1.47,0.05-2.2,0.05c-0.13,0-0.26-0.01-0.4-0.01c-1.13-0.01-2.26-0.04-3.39-0.1
		c-1.52-0.08-3.04-0.19-4.55-0.36c-1.23-0.13-2.13-0.09-2.61-1.02c-0.07-0.13-0.13-0.28-0.18-0.46c-0.61-2.08-0.45-4.21,1.3-5.81
		c1.09-1,2.62-1.59,4.17-1.6c0.52,0,1.03,0.06,1.54,0.11c0.46,0.05,0.93,0.1,1.4,0.11c0.08,0,0.16,0.01,0.25,0.01
		c0.68-0.01,1.26-0.16,1.71-0.42c0.94-0.54,1.41-1.56,1.42-2.78c0.01-0.9-0.01-1.71,0.94-2.25c0.25-0.14,0.5-0.27,0.76-0.37
		c0-0.19,0-0.38,0-0.57c-0.31,0.05-0.59,0.07-0.85,0.08c-0.04,0-0.09,0.01-0.12,0.01c-0.03,0-0.05-0.01-0.08-0.01
		c-0.03,0-0.08,0-0.11,0c-0.08-0.01-0.15-0.02-0.23-0.04c-0.06-0.01-0.12-0.01-0.18-0.03c-0.15-0.04-0.29-0.09-0.39-0.17
		c-1.1-0.81-1.63-5.13-1.99-8.02c-0.12-0.96-0.22-1.77-0.32-2.23c-0.44-2.12-0.84-4.25-1.26-6.38
		c-48.34-2.84-105.31-4.48-166.34-4.48c-2.53,0-5.05,0-7.57,0.01l1.44,15.04h86.06c6,0,10.86,4.86,10.86,10.86
		c0,6-4.86,10.86-10.86,10.86H117.12c-6,0-10.86-4.86-10.86-10.86c0-6,4.86-10.86,10.86-10.86h86.06l1.26-13.11
		c-50.08,1.8-94.09,4.77-128.32,8.56c-0.45,5.79-0.9,10.1-1.32,12.4l-2.35,0.01h-0.01c0.03,0.26,0.05,0.52,0.08,0.78
		c0.28,0.14,0.55,0.3,0.8,0.49c1.59,1.15,3.22,2.3,5.13,2.78c1.52,0.38,3.12,0.46,4.65,0.84c2.88,0.71,6.39,2.03,7.09,5.3
		c0.03,0.13,0.05,0.27,0.08,0.43c0.07,0.48,0.14,1.08,0.15,1.72c0.01,0.59-0.33,1.1-0.84,1.33c-0.17,0.07-0.35,0.11-0.55,0.11h-22.1
		c-1.1,0-3.36,0.32-4.77-0.14c-0.51-0.16-0.81-0.41-0.99-0.71c-0.02,0.47-0.41,0.84-0.88,0.84h-22.6c-1.1,0-3.36,0.32-4.77-0.14
		c-1.38-0.45-1.27-1.5-1.21-2.68c0.07-1.42,0.02-2.89-0.04-4.31c-0.05-1.27-0.47-2.19,0.12-3.45c0.23-0.48,0.54-0.88,0.92-1.21
		c-0.02-0.24-0.02-0.5-0.02-0.77c0.01-0.75,0.07-1.5,0.09-2.25c-0.43-0.03-0.79-0.06-1.06-0.07c-0.15-0.01-0.26-0.14-0.25-0.3
		c0.01-0.57,0.03-2.14,0.04-4.54C11.32,370.27,0,374.71,0,379.4c0,16.59,141.7,30.04,316.5,30.04c174.8,0,316.5-13.45,316.5-30.04
		C633,375.62,625.63,372.01,612.21,368.68z"/>
	<path class="st2" d="M559.88,152.97c-7.96,0-15.2-3.09-20.6-8.12l0,0c5.54,6.81,13.98,11.17,23.44,11.17
		c16.68,0,30.2-13.52,30.2-30.2c0-8.71-3.7-16.56-9.6-22.07c4.22,5.19,6.75,11.81,6.75,19.03
		C590.08,139.44,576.56,152.97,559.88,152.97z"/>
	<path class="st2" d="M578.01,99.79c0.38,0.22,0.75,0.45,1.11,0.69C578.76,100.23,578.39,100.01,578.01,99.79z"/>
	<path class="st2" d="M582.24,102.77L582.24,102.77c-0.13-0.11-0.28-0.21-0.41-0.32c0.49,0.4,0.98,0.81,1.44,1.24
		C582.94,103.38,582.59,103.07,582.24,102.77z"/>
	<path class="st2" d="M573.74,97.71c0.43,0.17,0.85,0.34,1.27,0.52C574.59,98.04,574.17,97.88,573.74,97.71z"/>
	<path class="st2" d="M579.98,101.05c0.36,0.25,0.71,0.51,1.06,0.78C580.69,101.56,580.34,101.3,579.98,101.05z"/>
	<path class="st2" d="M565.79,95.76c0.82,0.08,1.62,0.2,2.42,0.35C567.41,95.96,566.6,95.85,565.79,95.76z"/>
	<path class="st2" d="M568.94,96.27c0.54,0.11,1.08,0.23,1.61,0.37C570.02,96.5,569.48,96.39,568.94,96.27z"/>
	<path class="st2" d="M571.43,96.91c0.47,0.14,0.93,0.28,1.39,0.44C572.36,97.19,571.9,97.05,571.43,96.91z"/>
	<path class="st2" d="M575.93,98.67c0.4,0.19,0.79,0.39,1.18,0.6C576.72,99.06,576.33,98.86,575.93,98.67z"/>
	<path class="st3" d="M532.53,126.25l0,0.11l0,0.08l0,0.1l0,0.08l0,0.1l0,0.09l0,0.09l0.01,0.2l0,0.06l0.01,0.1l0,0.08l0.01,0.11
		l0,0.06l0.01,0.12l0,0.05l0.01,0.13l0,0.04l0.01,0.14V128l0.01,0.17l0,0.07l0.01,0.09l0.01,0.09l0.01,0.07l0.01,0.1l0,0.04
		c0.57,6.12,2.96,11.71,6.63,16.22c5.39,5.04,12.63,8.12,20.6,8.12c16.68,0,30.2-13.52,30.2-30.2c0-7.21-2.53-13.83-6.75-19.03
		c0,0,0,0,0,0c-0.02-0.02-0.04-0.03-0.05-0.05c-0.46-0.43-0.95-0.84-1.44-1.24c-0.26-0.21-0.52-0.42-0.79-0.62
		c-0.35-0.27-0.7-0.53-1.06-0.78c-0.28-0.2-0.57-0.39-0.85-0.58c-0.37-0.24-0.74-0.46-1.11-0.69c-0.3-0.18-0.59-0.35-0.9-0.51
		c-0.39-0.21-0.78-0.41-1.18-0.6c-0.31-0.15-0.61-0.3-0.92-0.44c-0.42-0.19-0.84-0.35-1.27-0.52c-0.31-0.12-0.61-0.25-0.92-0.36
		c-0.46-0.16-0.92-0.3-1.39-0.44c-0.29-0.09-0.58-0.19-0.88-0.27c-0.53-0.14-1.07-0.26-1.61-0.37c-0.25-0.05-0.49-0.12-0.74-0.16
		c-0.8-0.15-1.6-0.26-2.42-0.35l-0.02,0l-0.14-0.01l-0.03,0l-0.13-0.01l-0.05,0l-0.12-0.01l-0.07-0.01l-0.1-0.01l-0.17-0.01h-0.01
		l-0.16-0.01l-0.03,0l-0.15-0.01l-0.04,0l-0.14-0.01l-0.05,0l-0.13-0.01l-0.06,0l-0.12-0.01l-0.06,0l-0.12-0.01l-0.08,0l-0.11,0
		l-0.08,0l-0.11,0l-0.1,0l-0.09,0l-0.11,0l-0.09,0l-0.12,0h-0.26c-16.68,0-30.2,13.52-30.2,30.2v0.25l0,0.12L532.53,126.25z
		 M544.54,123.84c0.53-0.58,1.45-0.92,2.22-0.92c0.82,0,1.62,0.36,2.21,0.92c0.35,0.33,0.69,0.65,1.04,0.98
		c1.51,1.43,3.02,2.87,4.53,4.3c0.21,0.2,0.42,0.4,0.63,0.6l0.31-0.3c1.7-1.61,3.41-3.23,5.11-4.84l5.94-5.63
		c1.63-1.54,3.26-3.09,4.89-4.63l2.05-1.94c0.62-0.59,1.37-0.88,2.22-0.92c0.83-0.04,1.62,0.37,2.22,0.92
		c0.26,0.24,0.48,0.56,0.63,0.91c0.19,0.42,0.29,0.88,0.29,1.3c0,0.78-0.35,1.67-0.92,2.21l-0.03,0.03c-0.82,0.8-1.66,1.58-2.5,2.36
		c-1.7,1.61-3.41,3.23-5.11,4.84l-5.95,5.63c-1.63,1.54-3.26,3.09-4.89,4.63l-2.05,1.94c-0.62,0.59-1.37,0.88-2.21,0.92
		c-0.8,0.04-1.65-0.38-2.22-0.92c-0.35-0.33-0.69-0.66-1.04-0.98l-4.53-4.3c-0.57-0.54-1.15-1.09-1.72-1.63
		c-0.37-0.36-0.75-0.71-1.12-1.07c-0.61-0.58-0.88-1.4-0.92-2.21C543.58,125.22,543.99,124.44,544.54,123.84z"/>
	<path class="st4" d="M545.66,129.34c0.57,0.54,1.15,1.09,1.72,1.63l4.53,4.3c0.35,0.33,0.69,0.65,1.04,0.98
		c0.57,0.54,1.41,0.95,2.22,0.92c0.84-0.04,1.59-0.33,2.21-0.92l2.05-1.94c1.63-1.54,3.26-3.09,4.89-4.63l5.95-5.63
		c1.7-1.61,3.41-3.23,5.11-4.84c0.83-0.79,1.67-1.57,2.5-2.36l0.03-0.03c0.57-0.54,0.92-1.43,0.92-2.21c0-0.42-0.1-0.88-0.29-1.3
		c-0.15-0.35-0.37-0.67-0.63-0.91c-0.6-0.55-1.38-0.96-2.22-0.92c-0.84,0.04-1.59,0.33-2.22,0.92l-2.05,1.94
		c-1.63,1.54-3.26,3.09-4.89,4.63l-5.94,5.63c-1.7,1.62-3.41,3.23-5.11,4.84l-0.31,0.3c-0.21-0.2-0.42-0.4-0.63-0.6
		c-1.51-1.43-3.02-2.87-4.53-4.3c-0.35-0.33-0.69-0.65-1.04-0.98c-0.59-0.56-1.39-0.92-2.21-0.92c-0.77,0-1.69,0.34-2.22,0.92
		c-0.55,0.6-0.96,1.38-0.92,2.22c0.04,0.82,0.31,1.64,0.92,2.21C544.92,128.63,545.29,128.98,545.66,129.34z"/>
	<path class="st5" d="M57.6,293.78c-0.41-11.7-0.78-22.9-1.04-32.26c-0.09-3.45-0.17-6.65-0.23-9.54c-0.01-0.38-0.52-0.39-0.53-0.01
		c-0.52,10.06-1.53,23.55-2.76,38.07C54.3,291.57,55.85,292.84,57.6,293.78z"/>
	<path class="st5" d="M433.04,248.24h-0.19c-2.49-0.05-4.95-0.85-7.01-2.25c-0.6-0.41-1.16-0.87-1.68-1.37
		c-0.92-0.89-1.7-1.91-2.32-3.03l-0.01-0.01c-0.82-1.24-1.3-2.73-1.3-4.33v-0.44h-2.73v15.03c0,7.11-5.76,12.87-12.87,12.87H252.6
		c-3.43,11.19-8.46,21.7-15.3,30.85h184.33c8.31,0,15.04-6.73,15.04-15.04v-32.24h-2.92C433.51,248.27,433.27,248.26,433.04,248.24z
		"/>
	<path class="st5" d="M207.42,320.16l-2.99,31.15l-1.26,13.11h107.2l-1.44-15.04l-3.21-33.51h-90.44
		C212.78,317.41,210.17,318.85,207.42,320.16z"/>
	<path class="st5" d="M138.19,264.7H80.25c-0.26,10.13-0.57,20.59-0.94,30.85h74.18C146.66,286.4,141.62,275.89,138.19,264.7z"/>
	<path class="st5" d="M404.71,45.46c7.23,0,13.1,5.86,13.1,13.1v6.86h17.36l1.5-2.6V47.16c0-8.31-6.73-15.04-15.04-15.04h-63.18
		c-7.65,4.43-15.29,8.88-22.92,13.35H404.71z"/>
	<path class="st6" d="M258.26,49.24h-26.41v21.88c2.9-2.39,5.78-4.8,8.69-7.16C246.51,59.11,252.43,54.22,258.26,49.24z"/>
	<path class="st6" d="M404.93,49.24h-19.96c-6.35,5.44-12.74,10.82-19.17,16.18h52.01v-3.31C417.81,55.01,412.05,49.24,404.93,49.24
		z"/>
	<path class="st6" d="M96.89,185.69c0.46,0.58,0.82,1.06,1.12,1.45c0.62,0.81,0.95,1.26,1.2,1.6c1.19-1.09,2.36-2.19,3.55-3.28
		c0.38-0.35,0.76-0.69,1.13-1.04h-1.7c-6.06,0-10.97-4.91-10.97-10.97v-50.06c-2.36,2.3-4.75,4.57-7.1,6.89
		c-2.54,2.5-5.05,5.02-7.58,7.53c0.03,0.62,0,1.25-0.11,1.87c-0.19,1.09-0.62,2.27-1.87,2.95c-0.32,0.17-0.67,0.3-1.04,0.4
		c0.02,0.32,0.03,0.65,0.04,0.97c0.12,3.56,0.02,8.98-2.38,12.23v8.94c2.99,1.09,5.99,2.32,9.12,3.9c1.88,0.67,3.72,2.17,5.2,3.33
		C90.14,176.05,93.3,181.11,96.89,185.69z"/>
	<path class="st6" d="M252.6,264.7h152.34c7.11,0,12.87-5.76,12.87-12.87V236.8H257.87C257.08,246.31,255.35,255.72,252.6,264.7z"/>
	<path class="st6" d="M137.21,264.7h0.98c-0.07-0.23-0.14-0.47-0.21-0.7C137.72,264.24,137.47,264.47,137.21,264.7z"/>
	<path class="st7" d="M215.28,315.86h90.44l-1.95-20.3H237.3C231.36,303.49,224.06,310.41,215.28,315.86z"/>
	<path class="st8" d="M62.73,122.77c0.8,0.15,1.59,0.41,2.37,0.64V58.56c0-7.24,5.86-13.1,13.1-13.1h13.02V32.11H64.68
		c-5.45,0-10.22,2.9-12.86,7.24l-0.1,0.16c-0.18,0.31-0.36,0.63-0.52,0.96l-0.08,0.17c-0.08,0.16-0.16,0.33-0.23,0.5
		c-0.19,0.45-0.37,0.9-0.52,1.37l-0.11,0.35c-0.4,1.36-0.62,2.8-0.62,4.3v77.05c2.31-0.96,4.75-1.58,7.25-1.76
		C58.84,122.31,60.81,122.41,62.73,122.77z"/>
	<path class="st8" d="M63.34,159.7l0.16,2.22c0.01,0.2,0.03,0.4,0.04,0.61c0.52,0.17,1.04,0.35,1.56,0.52v-3.6
		C64.53,159.56,63.94,159.65,63.34,159.7z"/>
	<path class="st8" d="M335.53,45.46c7.62-4.47,15.26-8.92,22.92-13.35h-126.6v13.35H335.53z"/>
	<path class="st9" d="M68.98,158.15c-1.16,0.62-2.48,1.04-3.88,1.31v3.6c2.05,0.68,4.07,1.36,6.08,2.1v-8.94
		C70.6,157.01,69.88,157.67,68.98,158.15z"/>
	<path class="st9" d="M404.93,49.24c7.11,0,12.87,5.76,12.87,12.87v-3.55c0-7.24-5.86-13.1-13.1-13.1H231.85v3.78H404.93z"/>
	<path class="st9" d="M84.06,49.24h7.16v-3.78H78.2c-7.23,0-13.1,5.86-13.1,13.1v64.85c0.89,0.26,1.79,0.49,2.72,0.47
		c1.13-0.02,2.26-0.16,3.36-0.38V62.11C71.18,55.01,76.95,49.24,84.06,49.24z"/>
	<path class="st9" d="M80.27,264.12c0,0.19-0.01,0.39-0.01,0.58h3.81C82.74,264.7,81.47,264.49,80.27,264.12z"/>
	<path class="st10" d="M91.22,123.38V49.24h-7.16c-7.11,0-12.88,5.76-12.88,12.87v61.39c1.28-0.25,2.54-0.63,3.74-1.15
		c1.03-0.44,2.17-0.98,3.21-0.58c0.81,0.32,1.31,1.14,1.63,1.95c1.57,4.06-0.25,7.94-3.46,10.46c-0.26,0.2-0.54,0.4-0.82,0.57
		c0.15,0.2,0.29,0.4,0.4,0.6c0.44,0.77,0.62,1.6,0.67,2.43c2.52-2.51,5.04-5.03,7.58-7.53C86.47,127.95,88.86,125.68,91.22,123.38z"
		/>
	<path class="st10" d="M102.1,194.37c3.39-2.93,6.66-6.18,9.09-9.96h-7.29c-0.38,0.35-0.75,0.69-1.13,1.04
		c-1.19,1.09-2.36,2.19-3.55,3.28c0.11,0.15,0.2,0.27,0.3,0.4c0.79,1.05,0.96,2.36,0.58,3.5c-0.23,0.68-0.66,1.3-1.27,1.77
		c0.43,0.49,0.86,0.98,1.3,1.47C100.88,195.33,101.56,194.84,102.1,194.37z"/>
	<path class="st10" d="M137.21,264.7c0.26-0.23,0.52-0.47,0.77-0.7c-2.2-7.33-3.72-14.93-4.61-22.63l-0.02-0.15
		c-0.05-0.4-0.09-0.81-0.13-1.21l-0.01-0.09c-0.12-1.18-0.23-2.35-0.33-3.53l-0.01-0.11c-0.08-0.96-0.14-1.93-0.2-2.89l0-0.06
		c-0.03-0.48-0.06-0.96-0.08-1.44l-0.01-0.21l-0.01-0.29l-0.01-0.12c-0.02-0.42-0.04-0.84-0.05-1.26l-0.01-0.43l-0.01-0.19
		c-0.01-0.23-0.01-0.45-0.02-0.68c-0.01-0.22-0.01-0.44-0.02-0.66c0-0.18-0.01-0.36-0.01-0.54l0-0.16
		c-0.01-0.63-0.02-1.26-0.02-1.88c0-0.36,0-0.72,0-1.09c1.94-0.39,3.87-0.78,5.79-1.17c0.19-0.04,0.38-0.08,0.57-0.12
		c0.29-0.06,0.57-0.12,0.86-0.18c21.93-4.59,41.69-10.37,55.37-28.8l0.18-0.24l0.16-0.21l0.07-0.09l0.22,0.3
		c2.79,3.8,5.85,7.06,9.12,9.89c13.73-12.27,27.54-24.45,41.4-36.58V73.48c0-4.45,3.61-8.06,8.06-8.06h111.6
		c6.43-5.35,12.83-10.74,19.17-16.18H258.26c-5.82,4.98-11.74,9.87-17.71,14.71c-2.92,2.37-5.8,4.78-8.69,7.16v102.32
		c0,6.06-4.91,10.97-10.97,10.97h-91.77c-1.67,2.26-3.79,4.31-5.41,6.11c-4.21,4.68-8.41,9.37-12.62,14.05
		c-2.76,3.07-5.68,6.26-9.57,7.66c-2.97,1.07-7.56,0.78-9.83-1.81l-0.08-0.08c-2.22-2.52-4.44-5.04-6.67-7.55
		c-0.56,0.34-1.09,0.67-1.61,0.99c-0.03,6.01-0.2,12.01-0.34,18.05c-0.08,3.36-0.15,6.72-0.23,10.08c-0.05,2.05,0.56,5.76-1.13,7.33
		c-0.26,0.24-0.55,0.4-0.87,0.52c-0.04,3.04-0.1,6.18-0.16,9.38c-0.09,4.86-0.21,9.88-0.33,14.99c1.2,0.37,2.47,0.58,3.79,0.58
		H137.21z"/>
	<path class="st7" d="M117.12,364.41c-6,0-10.86,4.86-10.86,10.86c0,6,4.86,10.86,10.86,10.86h279.31c6,0,10.86-4.86,10.86-10.86
		c0-6-4.86-10.86-10.86-10.86H117.12z"/>
	<path class="st11" d="M515.23,253.77c0.08,0.12,0.15,0.25,0.21,0.38C515.37,254.02,515.31,253.89,515.23,253.77z"/>
	<path class="st11" d="M539.04,232.29c2,0.52,4.1,0.27,6.07-0.26c1.48-0.4,4.19-0.96,5.17-2.24c0.28-0.37,0.3-0.87,0.3-1.34v-0.1
		c-0.01-3.34-0.37-6.65-0.49-9.98l0.19-0.17c0.43,0.32,1.01,0.44,1.79,0.29c0.78-0.15,1.48-0.58,2.1-1.07
		c2.59-2.04,4.16-5.32,4.12-8.62c-0.01-0.98-0.18-1.99-0.74-2.79c-0.16-0.22-0.32-0.41-0.5-0.56c-2.16-1.9-5.42,1.31-6.42,3.24
		c-0.26,0.5-0.58,1.39-0.85,2.42c-1.15-1.77-1.62-4.3-1.48-5.82c-0.01,0.07-5.37-0.77-5.73-0.87c-2.1-0.55-4.1-1.41-5.89-2.53
		c-0.64-0.4-1.3-0.88-1.95-1.41c-1.27-1.04-2.5-2.29-3.46-3.66c-0.4,0.41-0.8,0.83-1.19,1.25c-2.25,2.44-4.01,5.1-4.46,8.12
		c0.38,2.64,1.03,5.13,1.82,7.2c1.28,3.35,3.15,7.18,6.48,8.91c1.36,0.71,2.81,1.04,4.27,1.08c-0.01,1.48-0.01,2.96-0.04,4.44
		c-0.01,0.32-0.05,0.68-0.1,1.05C537.87,230.31,537.6,231.92,539.04,232.29z"/>
	<path class="st11" d="M513.39,252.37c0.11,0.04,0.21,0.08,0.31,0.13C513.6,252.45,513.49,252.4,513.39,252.37z"/>
	<path class="st11" d="M512.81,252.23c0.11,0.02,0.22,0.04,0.33,0.07C513.03,252.27,512.93,252.25,512.81,252.23z"/>
	<path class="st11" d="M513.29,305.47c1.82-0.03,3.84,0.24,5.52,0.4c-2.82-0.01-5.64,0-8.46,0.05c2.82-0.05,5.64-0.06,8.46-0.05
		C517.13,305.71,515.11,305.44,513.29,305.47z"/>
	<path class="st11" d="M515.52,254.29c0.08,0.18,0.14,0.37,0.19,0.57C515.66,254.66,515.6,254.47,515.52,254.29z"/>
	<path class="st11" d="M512.35,252.19l-0.23,0.01c0.15-0.01,0.29,0,0.44,0.01C512.49,252.2,512.42,252.19,512.35,252.19z"/>
	<path class="st11" d="M539.64,281.83c3.03-0.48,6.06-0.96,9.09-1.44c1.71-0.27,3.5-0.58,5.03-1.33c1.58-0.54,2.77-1.92,3.45-3.45
		c0.71-1.58,0.95-3.33,1.18-5.04c0.36-2.67,0.72-5.34,1.08-8.01c-3.48,0.54-7.05,0.52-10.52-0.07c-0.61-0.1-1.15-0.27-1.62-0.48
		c-0.17,1.89-0.34,3.79-0.51,5.68c-0.35,0.08-0.68,0.15-1.01,0.21c-3.2,0.59-6.37,1.33-9.55,1.98c-3.8,0.78-7.6,1.56-11.4,2.33
		l-0.44,0.09c-1.49,0.3-3.02,0.62-4.38,1.28l2.2,9.55l17.16-1.32L539.64,281.83z"/>
	<path class="st11" d="M576.19,227.22c1.8,2.09,3.37,5.04,3.71,7.94C579.56,232.25,577.99,229.31,576.19,227.22
		c-1.93-2.24-4.8-3.53-6.5-5.89C571.39,223.68,574.26,224.98,576.19,227.22z"/>
	<path class="st11" d="M558.9,281.84c-1.19-5.34-0.04-10.48,0.66-15.81C558.86,271.36,557.71,276.5,558.9,281.84z"/>
	<path class="st11" d="M514.42,252.92c0.1,0.07,0.19,0.16,0.28,0.24C514.61,253.08,514.52,252.99,514.42,252.92z"/>
	<path class="st11" d="M513.92,252.6c0.1,0.06,0.2,0.12,0.3,0.19C514.12,252.72,514.03,252.66,513.92,252.6z"/>
	<path class="st11" d="M514.86,253.31c0.09,0.1,0.17,0.2,0.25,0.3C515.03,253.51,514.95,253.41,514.86,253.31z"/>
	<path class="st11" d="M494.24,385.29c-0.87,0.22-1.76,0.37-2.66,0.49C492.48,385.65,493.37,385.5,494.24,385.29z"/>
	<path class="st11" d="M506.79,369.75c0.24,0.76,0.04,1.29,0.12,2.26c0.14,1.74,3.38,0.61,4.25,0.32c1.11-0.37,2.19-0.79,3.15-1.47
		c1.01-0.72,2.12-1.7,2.99-2.59c0.84-0.85,0.74-1.56,0.43-2.34c-0.16-0.41-0.38-0.83-0.56-1.3c-0.38,0.24-0.86,0.48-1.46,0.76
		c-2.23,1.03-4.53,1.94-6.86,2.74c-0.48,0.17-1.35,0.52-2.37,0.91l0.07,0.13C506.65,369.39,506.73,369.57,506.79,369.75z"/>
	<path class="st11" d="M490.89,385.87c-0.8,0.09-1.6,0.16-2.4,0.21C489.29,386.03,490.09,385.96,490.89,385.87z"/>
	<path class="st11" d="M486,386.14c0.73,0,1.47-0.01,2.2-0.05c-0.86,0.04-1.73,0.04-2.6,0.04
		C485.74,386.13,485.87,386.14,486,386.14z"/>
	<path class="st11" d="M481.89,376.9c0.46,0.05,0.93,0.1,1.4,0.11C482.82,377,482.35,376.96,481.89,376.9z"/>
	<path class="st11" d="M487.39,370.71c0.04,0,0.08-0.01,0.12-0.01c-0.07,0-0.14,0-0.21,0C487.34,370.7,487.36,370.71,487.39,370.71z
		"/>
	<path class="st11" d="M486.97,370.67c-0.06-0.01-0.12-0.01-0.18-0.03C486.84,370.65,486.91,370.66,486.97,370.67z"/>
	<path class="st12" d="M522.14,376.65c-0.23-1.83-0.63-3.64-1.19-5.4c-0.45-1.41-0.76-2.99-1.3-4.35c-0.19-0.48-0.55-0.93-1.05-1.04
		c-0.29-0.07-0.6-0.01-0.89,0.08c0.31,0.78,0.41,1.49-0.43,2.34c-0.88,0.89-1.99,1.87-2.99,2.59c-0.95,0.68-2.04,1.1-3.15,1.47
		c-0.86,0.29-4.11,1.42-4.25-0.32c-0.08-0.98,0.12-1.51-0.12-2.26c-0.25,0.12-0.5,0.25-0.75,0.41c-0.94,0.59-0.93,1.47-0.94,2.47
		c-0.01,1.34-0.48,2.45-1.42,3.05l-0.27,0.15c-0.41,0.2-0.89,0.31-1.44,0.32c-1.07,0.01-2.12-0.27-3.19-0.26
		c-1.54,0.01-3.08,0.65-4.17,1.75c-1.75,1.76-1.91,4.09-1.3,6.37c0.19,0.72,0.5,1.08,0.92,1.28c0.48,0.23,1.11,0.25,1.86,0.34
		c1.51,0.18,3.03,0.31,4.55,0.39c4.14,0.22,8.41,0.23,12.4-0.92c2.31-0.67,4.54-1.61,6.62-2.81c0.66-0.38,1.31-0.79,1.82-1.36
		c0.36-0.41,0.58-0.86,0.69-1.34C522.41,378.65,522.26,377.62,522.14,376.65z"/>
	<path class="st13" d="M554.9,283.89c-3.82-0.52-7.62-0.99-11.48-1.2c-0.97-0.05-1.95-0.1-2.92-0.12l0.05,0.25l0.09,1.22
		c0.07,0.86-0.58,1.61-1.44,1.68l-19.01,1.46c0,0,0,0,0,0l-11.25,0.86l-8.24,0.63h0l-11.59,0.89c-1.17,0.68-2.2,1.44-3,2.28
		c-3.61,3.8-2.44,9.81-1.02,14.28c4.28,13.48,7.27,29.69,9.93,43.56c0.68,3.52,1.36,7.04,2.08,10.56c0.24,1.17,0.51,4.51,1.04,7.08
		c0.15,0.74,0.33,1.41,0.53,1.96c0.21,0.58,0.45,1.01,0.73,1.21c0.45,0.33,1.37,0.29,2.48,0.06c1.43-0.3,3.16-0.93,4.59-1.47
		c1.02-0.39,1.89-0.74,2.37-0.91c2.33-0.81,4.62-1.71,6.86-2.74c0.6-0.28,1.08-0.52,1.46-0.76c1.25-0.8,1.38-1.61,1.11-3.77
		c-0.14-1.12-0.31-2.24-0.5-3.35c-0.23-1.36-0.49-2.72-0.77-4.07c-0.69-3.4-1.48-6.78-2.13-10.15l-2.3-11.92l-0.79-4.07l-2.19-11.35
		c-0.44-2.26-2.5-7.39-0.44-9.32c0.32-0.3,0.72-0.53,1.17-0.7c0.55-0.21,1.19-0.33,1.88-0.4c0.34-0.03,0.7-0.05,1.07-0.05
		c1.82-0.03,3.84,0.24,5.52,0.4c0.79,0.08,1.51,0.13,2.09,0.11c1.42-0.04,2.83-0.07,4.25-0.09c1.99-0.02,3.98-0.03,5.97-0.02
		c2.66,0.01,5.33,0.02,7.99,0.02c2.84,0,5.69-0.07,8.52-0.01c1.17,0.02,2.35-0.21,3.53-0.29c0.89-0.06,1.79-0.13,2.65-0.37
		c0.38-0.11,0.74-0.25,1.09-0.44c1.3-0.7,2.21-1.96,2.87-3.28c2.21-4.38,2.12-9.66,2.28-14.44c0.02-0.59,0.02-1.23-0.34-1.7
		l-0.17-0.2c-0.27-0.26-0.61-0.46-1-0.62C557.39,284.09,555.87,284.02,554.9,283.89z"/>
	<path class="st13" d="M487.2,370.7c0.03,0,0.08,0,0.11,0c0.07,0,0.14,0,0.21,0c0.26-0.01,0.54-0.03,0.85-0.08
		C487.93,370.69,487.53,370.73,487.2,370.7z"/>
	<path class="st12" d="M545.81,267.9c0.32-0.06,0.66-0.13,1.01-0.21c0.17-1.89,0.34-3.79,0.51-5.68c-1.8-0.82-2.67-2.44-2.51-4.72
		c0.5-7.02,0.52-14.02,3.11-20.67c1.5-3.9,3.09-8.23,8.27-6.71l0.04,0.01c-0.38-0.18-0.77-0.35-1.17-0.49
		c-1.45-0.53-2.95-0.88-4.48-1.09v0.1c0,0.47-0.01,0.97-0.3,1.34c-0.98,1.27-3.69,1.84-5.17,2.24c-1.97,0.53-4.07,0.78-6.07,0.26
		c-1.44-0.37-1.17-1.98-0.98-3.41c-0.93,0.23-1.79,0.53-2.68,0.95c-0.48,0.23-0.96,0.49-1.45,0.79c-2.06,1.25-3.35,2.98-4.6,5.01
		c-1.7,2.76-3.6,5.57-4.94,8.59c-0.69,1.54-1.24,3.16-1.51,4.83c-0.29,1.82,0.06,3.44,0.09,5.24c0.04,2.1,0.23,4.2,0.48,6.28
		c0.46,3.88,1.13,7.74,1.41,11.64c3.8-0.78,7.6-1.56,11.4-2.33C539.44,269.24,542.61,268.5,545.81,267.9z"/>
	<path class="st14" d="M524.41,272.31l0.44-0.09c-0.27-3.9-0.94-7.76-1.41-11.64c-0.68-0.3-1.35-0.62-2-0.96
		c-0.24,2.69-0.48,5.38-0.72,8.07c-0.35,0.08-0.68,0.15-1.01,0.21c-0.32,0.06-0.64,0.12-0.96,0.18l1.27,5.5
		C521.39,272.94,522.92,272.62,524.41,272.31z"/>
	<path class="st5" d="M529.38,231.6c1.59-1.07,3.42-1.72,5.54-1.77c0.16,0,0.31,0,0.45,0c0.89-0.42,1.76-0.73,2.68-0.95
		c0.05-0.37,0.09-0.73,0.1-1.05c0.03-1.48,0.03-2.96,0.04-4.44c-1.47-0.04-2.91-0.38-4.27-1.08c-3.33-1.73-5.2-5.56-6.48-8.91
		c-0.79-2.07-1.44-4.56-1.82-7.2c0.45-3.02,2.2-5.68,4.46-8.12c0.39-0.42,0.79-0.83,1.19-1.25c0.96,1.36,2.19,2.62,3.46,3.66
		c0.65,0.53,1.31,1.01,1.95,1.41c1.79,1.12,3.79,1.98,5.89,2.53c0.36,0.09,5.72,0.94,5.73,0.87c-0.14,1.51,0.33,4.04,1.48,5.82
		c0.27-1.04,0.59-1.92,0.85-2.42c1-1.93,4.25-5.15,6.42-3.24c0.17,0.15,0.34,0.34,0.5,0.56c0.57,0.8,0.73,1.81,0.74,2.79
		c0.04,3.3-1.53,6.58-4.12,8.62c-0.63,0.49-1.32,0.92-2.1,1.07c-0.77,0.15-1.36,0.03-1.79-0.29l-0.19,0.17
		c0.13,3.33,0.48,6.63,0.49,9.98c1.53,0.21,3.03,0.56,4.48,1.09c0.4,0.15,0.79,0.31,1.17,0.49c2.01,0.6,3.59,1.71,4.84,3.14
		c4.68,5.41,4.63,15.61,4.81,22.15c3.26-2.19,6.23-4.81,8.79-7.79c2.35-2.75,4.4-5.88,5.14-9.42c0.19-0.93,0.21-1.89,0.1-2.86
		c-0.34-2.9-1.91-5.85-3.71-7.94c-1.93-2.24-4.8-3.53-6.5-5.89c-0.57-0.79-1.01-1.69-1.24-2.79c-0.43-2.02,0.05-4.1,0.24-6.16
		c0.49-5.17-0.88-9.39-3.28-13.36c-0.94-1.56-2.05-3.09-3.27-4.62c-3.01-3.78-6.26-7.75-10.83-9.33
		c-4.86-1.68-10.35-2.06-15.24-0.28c-1.99,0.58-3.74,1.48-4.95,2.72c-4.6,3.51-7.51,8.97-8.95,14.63c-1.08,4.24-1.37,8.63-1.45,13
		c-0.03,1.89-0.23,3.89-0.13,5.75c0.11,2.12,0.74,4.04,0.41,6.2c-0.95,6.14-7.43,10.17-8.77,16.23c-0.41,1.84-0.27,3.88,0.79,5.44
		c1.28,1.88,3.58,2.69,5.86,3.1C520.78,245.61,523.4,235.63,529.38,231.6z"/>
	<path class="st15" d="M511.79,327.29l0.79,4.07h92.84c0.84,0,1.64,0.15,2.38,0.43v-4.93c-0.74,0.28-1.54,0.43-2.38,0.43H511.79z"/>
	<path class="st15" d="M517,353.44c0.28,1.36,0.54,2.72,0.77,4.07h87.65c0.84,0,1.64,0.15,2.38,0.43v-4.93
		c-0.74,0.28-1.54,0.43-2.38,0.43H517z"/>
	<path class="st5" d="M503.41,375.82l0.27-0.15c0.94-0.6,1.41-1.71,1.42-3.05c0.01-0.99-0.01-1.88,0.94-2.47
		c0.25-0.15,0.5-0.29,0.75-0.41c-0.06-0.18-0.13-0.36-0.24-0.57l-0.07-0.13c-1.43,0.55-3.16,1.17-4.59,1.47
		c0.21,0.69,0.4,1.39,0.63,2.05C502.89,373.64,503.19,374.72,503.41,375.82z"/>
	<path class="st5" d="M547.62,305.88c-2.83-0.06-5.68,0.01-8.52,0.01c-2.66,0-5.33-0.02-7.99-0.02c-1.99,0-3.98,0-5.97,0.02
		c-1.42,0.02-2.83,0.04-4.25,0.09c-0.58,0.02-1.29-0.03-2.09-0.11c-2.82-0.01-5.64,0-8.46,0.05c-0.45,0.17-0.85,0.4-1.17,0.7
		c-2.06,1.93,0,7.06,0.44,9.32l2.19,11.35h93.63c0.84,0,1.64-0.15,2.38-0.43c2.58-0.96,4.41-3.45,4.41-6.36v-8.49
		c0-3.75-3.04-6.79-6.79-6.79H553.8c-0.86,0.24-1.76,0.31-2.65,0.37C549.98,305.67,548.79,305.9,547.62,305.88z M590.38,313.08
		c0-1.11,0.9-2.01,2.01-2.01H600c1.11,0,2.01,0.9,2.01,2.01v6.35c0,1.11-0.9,2-2.01,2h-7.62c-1.11,0-2.01-0.9-2.01-2V313.08z
		 M574.36,313.08c0-1.11,0.9-2.01,2.01-2.01h7.62c1.11,0,2.01,0.9,2.01,2.01v6.35c0,1.11-0.9,2-2.01,2h-7.62
		c-1.11,0-2.01-0.9-2.01-2V313.08z M558.35,313.08c0-1.11,0.9-2.01,2.01-2.01h7.62c1.11,0,2,0.9,2,2.01v6.35c0,1.11-0.9,2-2,2h-7.62
		c-1.11,0-2.01-0.9-2.01-2V313.08z"/>
	<path class="st5" d="M512.58,331.37l2.3,11.92c0.65,3.37,1.44,6.75,2.13,10.15h88.42c0.84,0,1.64-0.15,2.38-0.43
		c2.58-0.96,4.41-3.45,4.41-6.36v-8.49c0-2.91-1.84-5.4-4.41-6.36c-0.74-0.28-1.54-0.43-2.38-0.43H512.58z M569.99,345.58
		c0,1.11-0.9,2.01-2,2.01h-7.62c-1.11,0-2.01-0.9-2.01-2.01v-6.35c0-1.11,0.9-2.01,2.01-2.01h7.62c1.11,0,2,0.9,2,2.01V345.58z
		 M586,345.58c0,1.11-0.9,2.01-2.01,2.01h-7.62c-1.11,0-2.01-0.9-2.01-2.01v-6.35c0-1.11,0.9-2.01,2.01-2.01h7.62
		c1.11,0,2.01,0.9,2.01,2.01V345.58z M602.01,345.58c0,1.11-0.9,2.01-2.01,2.01h-7.62c-1.11,0-2.01-0.9-2.01-2.01v-6.35
		c0-1.11,0.9-2.01,2.01-2.01H600c1.11,0,2.01,0.9,2.01,2.01V345.58z"/>
	<path class="st5" d="M517.77,357.51c0.19,1.12,0.36,2.24,0.5,3.35c0.27,2.16,0.14,2.97-1.11,3.77c0.17,0.47,0.39,0.9,0.56,1.3
		c0.29-0.09,0.59-0.14,0.89-0.08c0.5,0.11,0.86,0.56,1.05,1.04c0.54,1.37,0.85,2.94,1.3,4.35c0.56,1.76,0.96,3.57,1.19,5.4
		c0.12,0.97,0.27,2,0.04,2.93h83.24c3.75,0,6.79-3.04,6.79-6.79v-8.49c0-2.91-1.84-5.4-4.41-6.36c-0.74-0.28-1.54-0.43-2.38-0.43
		H517.77z M569.99,371.72c0,1.11-0.9,2.01-2,2.01h-7.62c-1.11,0-2.01-0.9-2.01-2.01v-6.35c0-1.11,0.9-2.01,2.01-2.01h7.62
		c1.11,0,2,0.9,2,2.01V371.72z M586,371.72c0,1.11-0.9,2.01-2.01,2.01h-7.62c-1.11,0-2.01-0.9-2.01-2.01v-6.35
		c0-1.11,0.9-2.01,2.01-2.01h7.62c1.11,0,2.01,0.9,2.01,2.01V371.72z M602.01,371.72c0,1.11-0.9,2.01-2.01,2.01h-7.62
		c-1.11,0-2.01-0.9-2.01-2.01v-6.35c0-1.11,0.9-2.01,2.01-2.01H600c1.11,0,2.01,0.9,2.01,2.01V371.72z"/>
	<path class="st15" d="M592.38,321.43H600c1.11,0,2.01-0.9,2.01-2v-6.35c0-1.11-0.9-2.01-2.01-2.01h-7.62
		c-1.11,0-2.01,0.9-2.01,2.01v6.35C590.38,320.54,591.27,321.43,592.38,321.43z"/>
	<path class="st12" d="M576.37,321.43h7.62c1.11,0,2.01-0.9,2.01-2v-6.35c0-1.11-0.9-2.01-2.01-2.01h-7.62
		c-1.11,0-2.01,0.9-2.01,2.01v6.35C574.36,320.54,575.26,321.43,576.37,321.43z"/>
	<path class="st12" d="M560.36,321.43h7.62c1.11,0,2-0.9,2-2v-6.35c0-1.11-0.9-2.01-2-2.01h-7.62c-1.11,0-2.01,0.9-2.01,2.01v6.35
		C558.35,320.54,559.25,321.43,560.36,321.43z"/>
	<path class="st12" d="M600,337.22h-7.62c-1.11,0-2.01,0.9-2.01,2.01v6.35c0,1.11,0.9,2.01,2.01,2.01H600c1.11,0,2.01-0.9,2.01-2.01
		v-6.35C602.01,338.12,601.11,337.22,600,337.22z"/>
	<path class="st15" d="M583.99,337.22h-7.62c-1.11,0-2.01,0.9-2.01,2.01v6.35c0,1.11,0.9,2.01,2.01,2.01h7.62
		c1.11,0,2.01-0.9,2.01-2.01v-6.35C586,338.12,585.1,337.22,583.99,337.22z"/>
	<path class="st12" d="M567.98,337.22h-7.62c-1.11,0-2.01,0.9-2.01,2.01v6.35c0,1.11,0.9,2.01,2.01,2.01h7.62c1.11,0,2-0.9,2-2.01
		v-6.35C569.99,338.12,569.09,337.22,567.98,337.22z"/>
	<path class="st12" d="M600,363.37h-7.62c-1.11,0-2.01,0.9-2.01,2.01v6.35c0,1.11,0.9,2.01,2.01,2.01H600c1.11,0,2.01-0.9,2.01-2.01
		v-6.35C602.01,364.26,601.11,363.37,600,363.37z"/>
	<path class="st12" d="M583.99,363.37h-7.62c-1.11,0-2.01,0.9-2.01,2.01v6.35c0,1.11,0.9,2.01,2.01,2.01h7.62
		c1.11,0,2.01-0.9,2.01-2.01v-6.35C586,364.26,585.1,363.37,583.99,363.37z"/>
	<path class="st15" d="M567.98,363.37h-7.62c-1.11,0-2.01,0.9-2.01,2.01v6.35c0,1.11,0.9,2.01,2.01,2.01h7.62c1.11,0,2-0.9,2-2.01
		v-6.35C569.99,364.26,569.09,363.37,567.98,363.37z"/>
	<path class="st16" d="M493.32,384c-0.61-2.28-0.45-4.62,1.3-6.37c1.09-1.1,2.62-1.74,4.17-1.75c1.07-0.01,2.12,0.27,3.19,0.26
		c0.56-0.01,1.04-0.12,1.44-0.32c-0.23-1.09-0.53-2.18-0.9-3.24c-0.23-0.66-0.42-1.36-0.63-2.05c-1.1,0.23-2.02,0.28-2.48-0.06
		c-0.28-0.2-0.52-0.63-0.73-1.21c-1.54,1.81-4.36,2.91-6.48,3.2c-0.96,0.13-3.37,0.86-3.74-0.5c-0.07-0.26-0.09-0.52-0.09-0.77
		c-0.26,0.11-0.51,0.23-0.76,0.37c-0.94,0.54-0.93,1.34-0.94,2.25c-0.01,1.22-0.48,2.24-1.42,2.78c-0.46,0.26-1.03,0.42-1.71,0.42
		c-0.08,0-0.16-0.01-0.25-0.01c-0.47-0.01-0.93-0.06-1.4-0.11c-0.51-0.06-1.03-0.12-1.54-0.11c-1.54,0.01-3.08,0.6-4.17,1.6
		c-1.75,1.6-1.91,3.73-1.3,5.81c0.05,0.18,0.11,0.33,0.18,0.46c0.48,0.93,1.37,0.88,2.61,1.02c1.51,0.17,3.03,0.29,4.55,0.36
		c1.12,0.05,2.25,0.09,3.39,0.1c0.87,0.01,1.73,0,2.6-0.04c0.1,0,0.19-0.01,0.28-0.02c0.8-0.04,1.6-0.11,2.4-0.21
		c0.23-0.03,0.46-0.06,0.7-0.09c0.89-0.13,1.78-0.28,2.66-0.49C493.82,385.09,493.51,384.72,493.32,384z"/>
	<path class="st17" d="M492.19,372.46c2.12-0.28,4.94-1.39,6.48-3.2c-0.2-0.54-0.37-1.22-0.53-1.96c-0.77,0.29-1.53,0.57-2.31,0.84
		c-1.24,0.43-5.01,2.08-7.48,2.48c0,0.19,0,0.38,0,0.57c0,0.25,0.02,0.5,0.09,0.77C488.82,373.32,491.23,372.59,492.19,372.46z"/>
	<path class="st18" d="M513.29,305.47c-0.36,0-0.72,0.02-1.07,0.05c-0.69,0.06-1.33,0.19-1.88,0.4c2.82-0.05,5.64-0.06,8.46-0.05
		C517.13,305.71,515.11,305.44,513.29,305.47z"/>
	<path class="st19" d="M484.41,362.45c0.36,2.89,0.89,7.21,1.99,8.02c0.11,0.08,0.24,0.13,0.39,0.17c0.05,0.01,0.12,0.02,0.18,0.03
		c0.08,0.01,0.14,0.03,0.23,0.04c0.33,0.02,0.73-0.01,1.17-0.08c2.47-0.4,6.24-2.05,7.48-2.48c0.77-0.27,1.54-0.55,2.31-0.84
		c-0.53-2.58-0.8-5.92-1.04-7.08c-0.72-3.51-1.41-7.03-2.08-10.56c-2.66-13.87-5.65-30.07-9.93-43.56
		c-1.42-4.47-2.59-10.48,1.02-14.28c0.8-0.84,1.83-1.6,3-2.28l-4.07,0.31c-0.68,0.05-1.35-0.13-1.94-0.47
		c-3.64,1.08-7.43,2.49-9.54,4.71c-3.61,3.8-2.44,9.81-1.02,14.28c4.28,13.49,6.81,27.42,9.47,41.29c0.27,1.39,0.55,2.78,0.82,4.18
		c0.41,2.13,0.82,4.26,1.26,6.38C484.19,360.68,484.29,361.49,484.41,362.45z"/>
	<path class="st20" d="M522.96,254.3c-0.03-1.8-0.38-3.42-0.09-5.24c0.27-1.67,0.82-3.29,1.51-4.83c1.34-3.02,3.24-5.83,4.94-8.59
		c1.25-2.03,2.54-3.76,4.6-5.01c0.5-0.3,0.98-0.56,1.45-0.79c-0.15,0-0.3,0-0.45,0c-2.12,0.05-3.95,0.7-5.54,1.77
		c-5.98,4.03-8.6,14.01-10.49,20.26c-0.11,0.37-0.22,0.73-0.33,1.07c-0.4,1.28-0.8,2.68-0.31,3.93c0.46,1.17,1.6,1.91,2.71,2.51
		c0.16,0.08,0.31,0.17,0.47,0.25c0.66,0.34,1.33,0.66,2,0.96C523.19,258.5,523,256.4,522.96,254.3z"/>
	<path class="st12" d="M558.39,270.57c-0.23,1.72-0.47,3.46-1.18,5.04c-0.68,1.53-1.88,2.91-3.45,3.45
		c-1.53,0.75-3.32,1.06-5.03,1.33c-3.03,0.48-6.06,0.96-9.09,1.44c0.4,0.06,0.74,0.35,0.86,0.73c0.98,0.03,1.95,0.07,2.92,0.12
		c3.85,0.21,7.66,0.68,11.48,1.2c0.97,0.13,2.49,0.2,3.63,0.66c0.39,0.16,0.73,0.36,1,0.62c-0.08-0.95-0.34-2.04-0.63-3.33
		c-1.19-5.34-0.04-10.48,0.66-15.81c0.07-0.54,0.15-1.07,0.23-1.61c0.1-0.65,0.2-1.31,0.31-1.97c-0.21,0.04-0.42,0.07-0.63,0.1
		C559.11,265.23,558.75,267.9,558.39,270.57z"/>
	<path class="st21" d="M556.22,229.93l-0.04-0.01c-5.17-1.53-6.76,2.81-8.27,6.71c-2.58,6.64-2.61,13.65-3.11,20.67
		c-0.16,2.27,0.71,3.89,2.51,4.72c0.48,0.22,1.02,0.38,1.62,0.48c3.47,0.59,7.04,0.62,10.52,0.07c0.21-0.03,0.42-0.07,0.63-0.1
		c0.61-0.11,1.22-0.23,1.82-0.37c1.22-0.29,2.52-0.71,3.27-1.72c0.8-1.08,0.79-2.53,0.73-3.87c-0.01-0.4-0.03-0.82-0.04-1.26
		c-0.18-6.54-0.13-16.74-4.81-22.15C559.82,231.64,558.23,230.54,556.22,229.93z"/>
	<path class="st5" d="M540.65,284.03l-0.09-1.22l-0.05-0.25c-0.12-0.39-0.46-0.67-0.86-0.73l-0.24-0.01l-17.16,1.32h0l0.21,0.92
		c0.37,1.59-0.64,2.98-2.25,3.11l19.01-1.46C540.07,285.64,540.71,284.89,540.65,284.03z"/>
	<polygon class="st5" points="508.95,288.03 500.7,288.66 500.71,288.66 	"/>
	<path class="st15" d="M475.68,255.33c-0.79,0.54-1.19,1.5-0.99,2.56C474.49,256.83,474.9,255.87,475.68,255.33z"/>
	<path class="st15" d="M489.11,289.55l11.59-0.89l8.24-0.63l11.25-0.86c0,0,0,0,0,0c1.61-0.13,2.62-1.52,2.25-3.11l-0.21-0.92h0
		l-2.2-9.55l-1.27-5.5l-3.05-13.23c-0.05-0.2-0.11-0.38-0.19-0.57c-0.02-0.05-0.05-0.09-0.08-0.14c-0.06-0.13-0.13-0.26-0.21-0.38
		c-0.04-0.06-0.08-0.1-0.12-0.16c-0.08-0.1-0.16-0.21-0.25-0.3c-0.05-0.05-0.11-0.1-0.16-0.15c-0.09-0.08-0.18-0.17-0.28-0.24
		c-0.06-0.05-0.13-0.09-0.2-0.13c-0.1-0.07-0.2-0.13-0.3-0.19c-0.07-0.04-0.15-0.07-0.22-0.1c-0.1-0.05-0.21-0.09-0.31-0.13
		c-0.08-0.03-0.16-0.05-0.24-0.07c-0.11-0.03-0.22-0.05-0.33-0.07c-0.08-0.01-0.17-0.02-0.25-0.02c-0.15-0.01-0.29-0.02-0.44-0.01
		l-3.55,0.27c-6.78,5.66-13.31,11.63-19.56,17.86c-3.07,3.06-6.18,6.22-9.26,9.48l-3.73-16.16l5.44,23.55
		c0.21,0.92,0.84,1.71,1.64,2.19c0.58,0.35,1.26,0.53,1.94,0.47L489.11,289.55z M495.92,268.86c4.97-2.7,7.31,7.21,2.44,7.65
		c-0.8,0.07-1.53-0.26-2.15-0.83C494.35,273.97,493.65,270.1,495.92,268.86z"/>
	<path class="st22" d="M489.01,270.33c6.25-6.23,12.78-12.2,19.56-17.86l-31.6,2.42c-0.49,0.04-0.93,0.19-1.29,0.44
		c-0.79,0.54-1.19,1.5-0.99,2.56l0.02,0.11l1.3,5.65l3.73,16.16C482.84,276.55,485.94,273.39,489.01,270.33z"/>
	<path class="st6" d="M498.35,276.52c4.87-0.44,2.54-10.36-2.44-7.65c-2.27,1.23-1.56,5.11,0.29,6.83
		C496.82,276.26,497.56,276.59,498.35,276.52z"/>
	<path class="st6" d="M246.14,221.81V88.94h0v78.23c-13.86,12.13-27.66,24.32-41.4,36.58C216.27,213.73,230.56,218.31,246.14,221.81
		z"/>
	<path class="st8" d="M437.29,141.28h-49.15v-0.27c0-1.86-0.34-3.64-0.98-5.28c-1.8-4.7-5.95-8.26-11.08-9.2
		c-0.41-0.08-0.83-0.14-1.26-0.18h-58.61c2.17,3.66,3.44,7.92,3.44,12.49c0,13.55-10.99,24.54-24.54,24.54
		c-0.82,0-1.63-0.06-2.44-0.14l0.62,53c0,1.67,0.42,3.24,1.17,4.61c1.64,3.01,4.83,5.06,8.5,5.06h117.57v-23.04
		c0-4.34,3.52-7.86,7.86-7.86h2.19v-3.74c0-0.55,0.06-1.09,0.1-1.62c-0.01,0.01-0.02,0.03-0.03,0.04c0.01-0.19,0.05-0.37,0.07-0.56
		c0.03-0.25,0.05-0.5,0.09-0.75c0.1-0.7,0.23-1.39,0.4-2.06c0.01-0.02,0.01-0.04,0.01-0.07h0.01v0c0-0.02,0.01-0.03,0.01-0.05
		c0.1-0.38,0.22-0.76,0.34-1.13c0.08-0.26,0.17-0.51,0.27-0.76c0.03-0.07,0.04-0.15,0.07-0.23l0,0c0.07-0.19,0.15-0.39,0.24-0.58
		l0.03-0.08c0.01-0.02,0.02-0.04,0.03-0.07l0-0.01c0.01-0.02,0.01-0.03,0.02-0.05c0.03-0.07,0.06-0.14,0.1-0.21
		c0.04-0.09,0.08-0.18,0.12-0.26l0.09-0.18c0.08-0.17,0.16-0.33,0.25-0.5l0.04-0.09c0.01-0.02,0.02-0.05,0.04-0.07l0.02-0.04
		c0.02-0.03,0.03-0.06,0.05-0.09c0.04-0.08,0.09-0.16,0.13-0.24c0.03-0.05,0.05-0.1,0.08-0.15l0.11-0.2
		c0.09-0.16,0.18-0.31,0.28-0.47l0.03-0.04c0.02-0.03,0.03-0.06,0.05-0.08l0.04-0.06c0.03-0.05,0.07-0.1,0.1-0.15
		c0.05-0.07,0.09-0.14,0.14-0.22c0.02-0.03,0.04-0.07,0.06-0.1l0.11-0.17c0.11-0.16,0.22-0.31,0.33-0.47l0-0.01
		c0.02-0.03,0.04-0.06,0.06-0.08l0.03-0.04c0.06-0.08,0.11-0.15,0.17-0.22c0.05-0.07,0.1-0.14,0.16-0.21
		c0.01-0.02,0.03-0.04,0.04-0.05l0.06-0.07c0.05-0.07,0.12-0.13,0.17-0.2c0.15-0.19,0.31-0.38,0.47-0.56
		c0.14-0.17,0.29-0.33,0.44-0.49c0.07-0.08,0.14-0.16,0.22-0.23c0.13-0.14,0.27-0.27,0.41-0.41c0.19-0.19,0.38-0.37,0.58-0.55
		c0.08-0.07,0.14-0.14,0.22-0.21h-0.01l0.09-0.07l0.2-0.17c0.06-0.05,0.13-0.1,0.2-0.16c0.21-0.17,0.43-0.34,0.64-0.51
		c0.2-0.16,0.41-0.31,0.62-0.46c0.21-0.14,0.41-0.28,0.62-0.42c0.09-0.06,0.17-0.12,0.26-0.17c0.01,0,0.01-0.01,0.02-0.01l0.07-0.04
		l0.02-0.01c0.21-0.13,0.42-0.25,0.63-0.37l0.05-0.03l0.04-0.03h0c0.2-0.11,0.41-0.23,0.62-0.33l0,0c0,0,0.01,0,0.01,0l0.1-0.05
		c0.21-0.11,0.42-0.21,0.64-0.31l0.05-0.02c0.01-0.01,0.02-0.01,0.03-0.02l0.02-0.01c0.22-0.1,0.44-0.2,0.67-0.29l0.08-0.03
		c0.23-0.09,0.47-0.19,0.71-0.27l0.04-0.01l0.01,0c0.25-0.09,0.51-0.18,0.77-0.26c0.18-0.06,0.36-0.11,0.54-0.16l0.25-0.07
		c0.01,0,0.01,0,0.02,0c0.4-0.11,0.82-0.19,1.23-0.28c0.13-0.03,0.25-0.06,0.38-0.09l0,0c0.07-0.01,0.14-0.03,0.21-0.04l-0.3-20.56
		c0-1.96-0.58-3.78-1.59-5.31C443.63,143.01,440.66,141.28,437.29,141.28z M434.93,165.77h-59.9c-2.45,0-4.43-1.98-4.43-4.43
		c0-2.45,1.98-4.43,4.43-4.43h59.9c2.45,0,4.43,1.98,4.43,4.43C439.36,163.79,437.38,165.77,434.93,165.77z"/>
	<path class="st8" d="M438.83,191.27v3.74h8.75l-0.24-16.46C442.36,180.62,438.83,185.54,438.83,191.27z"/>
	<path class="st23" d="M447.58,195.01h16.87v-3.74c0-2.46-0.65-4.77-1.78-6.77l-0.01,0.01c-1.76-3.12-4.7-5.49-8.21-6.5l0,0
		c-0.9-0.26-1.85-0.43-2.82-0.5c-1.51,0.11-2.96,0.47-4.3,1.03L447.58,195.01z"/>
	<path class="st23" d="M449.33,115.01l-3.97-6.88v37.5c1,1.52,1.59,3.35,1.59,5.31l0.3,20.56c0.15-0.03,0.31-0.04,0.47-0.06
		c0.19-0.03,0.37-0.05,0.56-0.07c0.78-0.09,1.58-0.16,2.39-0.16c0.33,0,0.66,0.01,0.98,0.02c0.33-0.02,0.65-0.02,0.98-0.02
		c11.07,0,20.08,9.01,20.08,20.08v3.9c1.59,0.16,3.15,0.48,4.62,1.08c2.16,0.89,4.1,2.42,5.12,4.48c0.8,1.6,0.99,3.38,0.97,5.18
		l0,0.14v29.35c3.3-1.87,5.52-5.4,5.52-9.46V117.32h-35.6C451.68,117.32,450.16,116.44,449.33,115.01z"/>
	<path class="st23" d="M246.14,88.94v132.86c4.01,0.9,8.1,1.73,12.25,2.57c0,4.14-0.17,8.29-0.52,12.43h162.67v-10.89H302.97
		c-3.67,0-6.86-2.04-8.5-5.06c-0.74-1.37-1.17-2.94-1.17-4.61l-0.62-53c-6.59-0.65-12.41-3.89-16.42-8.7h0.07l-0.26-0.24
		c-2.91-3.58-4.83-7.98-5.35-12.81l0-0.04l-0.01-0.08l-0.01-0.07l-0.01-0.06l-0.01-0.13l0-0.03l-0.01-0.08l0-0.06l-0.01-0.07
		l-0.01-0.07l0-0.06l-0.01-0.13v0l-0.01-0.11l0-0.03l-0.01-0.1l0-0.04l0-0.1l0-0.05l0-0.09l0-0.05l-0.01-0.29l0-0.09l0-0.06l0-0.09
		l0-0.07l0-0.08l0-0.07l0-0.09l0-0.06v-0.15l0-0.15c0-0.53,0.02-1.06,0.05-1.58l0.02-0.31c0.02-0.21,0.03-0.41,0.06-0.62l0.03-0.31
		c0.02-0.15,0.04-0.31,0.06-0.46l0.04-0.31c0.02-0.15,0.05-0.3,0.07-0.46c0.03-0.2,0.07-0.4,0.11-0.6l0.03-0.15
		c2.23-11.26,12.16-19.75,24.07-19.75c0.42,0,0.84,0.01,1.26,0.03h0l0.15,0.01l0.02,0l0.13,0.01l0.03,0l0.12,0.01l0.04,0l0.11,0.01
		l0.05,0l0.1,0.01l0.06,0l0.08,0.01l0.08,0.01l0.07,0l0.09,0.01l0.05,0l0.11,0.01l0.02,0l0.13,0.01l0.09,0.01l0.05,0l0.1,0.01
		l0.02,0l0.12,0.01h0l0.13,0.02l0.09,0.01l0.03,0l0.11,0.01l0.01,0c0.61,0.09,1.2,0.2,1.79,0.32c0.2,0.04,0.39,0.1,0.58,0.14
		c0.39,0.1,0.78,0.19,1.17,0.31c0.22,0.07,0.44,0.14,0.66,0.22c0.35,0.11,0.69,0.23,1.03,0.36c0.23,0.09,0.45,0.18,0.67,0.27
		c0.33,0.14,0.65,0.28,0.98,0.43c0.22,0.1,0.43,0.21,0.65,0.31c0.32,0.16,0.63,0.33,0.94,0.5c0.2,0.11,0.41,0.23,0.61,0.35
		c0.32,0.19,0.62,0.39,0.93,0.59c0.18,0.12,0.37,0.24,0.55,0.37c0.33,0.23,0.64,0.47,0.96,0.71c0.15,0.11,0.3,0.22,0.45,0.34
		c0.03,0.03,0.07,0.05,0.1,0.07c0.03,0.02,0.05,0.05,0.08,0.07c0.39,0.32,0.77,0.65,1.14,0.99c0.04,0.05,0.07,0.1,0.11,0.14
		c1.65,1.56,3.09,3.34,4.25,5.31h38.54v-19.37c0-6.34,5.14-11.48,11.48-11.48h67.65c1.72,0,3.34,0.39,4.8,1.06l-4.4-7.63H246.14z"/>
	<path class="st24" d="M254.2,65.42c-4.45,0-8.06,3.61-8.06,8.06v15.46h188.15l-4.98-8.62c-0.85-1.47-0.85-3.27,0-4.75
		c1.83-3.18,4.92-8.51,5.4-9.36c0.15-0.27,0.31-0.53,0.46-0.8H254.2z M264.25,84.37c-3.55,0-6.43-2.88-6.43-6.43
		c0-3.55,2.88-6.43,6.43-6.43c3.55,0,6.43,2.88,6.43,6.43C270.68,81.49,267.8,84.37,264.25,84.37z M287.14,84.37
		c-3.55,0-6.43-2.88-6.43-6.43c0-3.55,2.88-6.43,6.43-6.43s6.43,2.88,6.43,6.43C293.58,81.49,290.7,84.37,287.14,84.37z
		 M310.03,84.37c-3.55,0-6.43-2.88-6.43-6.43c0-3.55,2.88-6.43,6.43-6.43c3.55,0,6.43,2.88,6.43,6.43
		C316.47,81.49,313.59,84.37,310.03,84.37z"/>
	<path class="st6" d="M433.88,95.51h-67.65c-6.34,0-11.48,5.14-11.48,11.48v19.37h20.07c0.43,0.04,0.84,0.1,1.26,0.18h58.69
		c2.16,0,3.9,1.75,3.9,3.9v1.4c0,2.15-1.75,3.9-3.9,3.9h-47.62c0.63,1.64,0.98,3.42,0.98,5.28v0.27h49.15
		c3.38,0,6.35,1.73,8.07,4.35v-37.5l-6.67-11.56C437.22,95.89,435.6,95.51,433.88,95.51z M438.68,113.81v1.4
		c0,2.15-1.75,3.9-3.9,3.9h-69.44c-2.15,0-3.9-1.75-3.9-3.9v-1.4c0-2.15,1.75-3.9,3.9-3.9h69.44
		C436.94,109.91,438.68,111.65,438.68,113.81z"/>
	<path class="st25" d="M434.78,109.91h-69.44c-2.15,0-3.9,1.75-3.9,3.9v1.4c0,2.15,1.75,3.9,3.9,3.9h69.44c2.16,0,3.9-1.75,3.9-3.9
		v-1.4C438.68,111.65,436.94,109.91,434.78,109.91z"/>
	<path class="st25" d="M387.16,135.73h47.62c2.16,0,3.9-1.75,3.9-3.9v-1.4c0-2.15-1.75-3.9-3.9-3.9h-58.69
		C381.22,127.47,385.36,131.03,387.16,135.73z"/>
	<path class="st26" d="M434.93,156.91h-59.9c-2.45,0-4.43,1.98-4.43,4.43c0,2.45,1.98,4.43,4.43,4.43h59.9
		c2.45,0,4.43-1.98,4.43-4.43C439.36,158.89,437.38,156.91,434.93,156.91z"/>
	<path class="st27" d="M264.25,71.51c-3.55,0-6.43,2.88-6.43,6.43c0,3.55,2.88,6.43,6.43,6.43c3.55,0,6.43-2.88,6.43-6.43
		C270.68,74.39,267.8,71.51,264.25,71.51z"/>
	<path class="st27" d="M287.14,71.51c-3.55,0-6.43,2.88-6.43,6.43c0,3.55,2.88,6.43,6.43,6.43s6.43-2.88,6.43-6.43
		C293.58,74.39,290.7,71.51,287.14,71.51z"/>
	<path class="st27" d="M310.03,71.51c-3.55,0-6.43,2.88-6.43,6.43c0,3.55,2.88,6.43,6.43,6.43c3.55,0,6.43-2.88,6.43-6.43
		C316.47,74.39,313.59,71.51,310.03,71.51z"/>
	<path class="st12" d="M211.37,9.31c5.37,0,9.72,4.35,9.72,9.72v144.58c0,5.37-4.35,9.72-9.72,9.72H107.92
		c-5.37,0-9.72-4.35-9.72-9.72v-55.4c-2.33,2.98-4.66,5.96-6.98,8.96v54.65c0,5.98,4.85,10.83,10.83,10.83h10.18
		c0.46-0.84,0.89-1.7,1.26-2.59c0.3-0.73,0.6-1.51,1.19-2.03c0.6-0.52,1.6-0.68,2.15-0.1c0.7,0.75,0.18,2.07,0.75,2.92
		c0.46,0.67,1.48,0.75,2.22,0.4c0.74-0.34,1.29-0.99,1.84-1.59c1.6-1.72,4.22-4.19,6.58-4.76c2.27-0.55,3.8,1.68,3.49,3.88
		c-0.19,1.35-0.73,2.63-1.45,3.87h86.98c5.98,0,10.83-4.85,10.83-10.83v-161c0-5.71-4.41-10.38-10.01-10.8
		C217.79,0.01,217.52,0,217.25,0h-25.02c-2.93,3.1-5.84,6.21-8.75,9.31H211.37z"/>
	<path class="st28" d="M228.07,10.83v161c0,5.98-4.85,10.83-10.83,10.83h-86.98c-0.35,0.6-0.74,1.19-1.16,1.76h91.77
		c6.06,0,10.97-4.91,10.97-10.97V12.73c0-0.24-0.01-0.49-0.02-0.73c0.23-3.17-1.28-6.4-4.1-8.66c-1.26-1.01-2.78-1.81-4.43-2.37
		c-1.14-0.39-3.57-1.13-5.24-0.94C223.66,0.45,228.07,5.12,228.07,10.83z"/>
	<path class="st28" d="M102.2,184.41h8.99c0.37-0.57,0.71-1.16,1.04-1.76h-10.18c-5.98,0-10.83-4.85-10.83-10.83v1.61
		C91.22,179.5,96.14,184.41,102.2,184.41z"/>
	<path class="st29" d="M91.22,117.18c2.32-2.99,4.64-5.98,6.98-8.96V19.03c0-5.37,4.35-9.72,9.72-9.72h75.55
		c2.9-3.11,5.82-6.21,8.75-9.31h-90.17c-5.98,0-10.83,4.85-10.83,10.83V117.18z"/>
	<path class="st30" d="M98.2,163.62c0,5.37,4.35,9.72,9.72,9.72h103.45c5.37,0,9.72-4.35,9.72-9.72V19.03
		c0-5.37-4.35-9.72-9.72-9.72H107.92c-5.37,0-9.72,4.35-9.72,9.72V163.62z M209.12,136.18c0,4.28-3.47,7.75-7.75,7.75h-79.66
		c-4.28,0-7.75-3.47-7.75-7.75v-1.67c0-4.28,3.47-7.75,7.75-7.75h79.66c4.28,0,7.75,3.47,7.75,7.75V136.18z M209.12,103.5v1.67
		c0,4.28-3.47,7.75-7.75,7.75h-79.66c-4.28,0-7.75-3.47-7.75-7.75v-1.67c0-4.28,3.47-7.75,7.75-7.75h79.66
		C205.65,95.75,209.12,99.22,209.12,103.5z M161.54,25.07c16.84,0,30.49,13.65,30.49,30.49c0,5.06-1.25,9.81-3.44,14.01
		c0,0.01,0.01,0.01,0.01,0.02c-0.12,0.23-0.25,0.44-0.37,0.67c-0.14,0.25-0.27,0.51-0.42,0.76c-0.33,0.57-0.69,1.12-1.06,1.66
		c-0.17,0.25-0.35,0.49-0.53,0.74c-0.28,0.39-0.57,0.77-0.87,1.14c-0.17,0.21-0.33,0.42-0.5,0.63c-0.43,0.51-0.88,1.01-1.35,1.49
		c-0.19,0.2-0.39,0.4-0.59,0.59c-0.38,0.37-0.77,0.74-1.16,1.09c-0.16,0.14-0.32,0.29-0.48,0.43c-0.53,0.45-1.08,0.88-1.65,1.3
		c-0.2,0.14-0.39,0.28-0.59,0.42c-0.5,0.35-1.02,0.69-1.54,1.02c-0.12,0.07-0.24,0.15-0.36,0.23c-0.63,0.38-1.28,0.72-1.94,1.05
		c-0.19,0.09-0.38,0.19-0.57,0.28c-0.63,0.3-1.28,0.59-1.93,0.85c-0.06,0.02-0.12,0.05-0.18,0.08c-0.71,0.28-1.44,0.52-2.18,0.74
		c-0.19,0.06-0.37,0.11-0.56,0.16c-0.75,0.21-1.52,0.4-2.29,0.56l-0.05,0.01l-0.23,0.04l-0.06,0.01l-0.41,0.07l-0.09,0.01l-0.2,0.03
		l-0.13,0.02l-0.27,0.04l-0.18,0.03l-0.18,0.02l-0.16,0.02l-0.16,0.02l-0.29,0.03l-0.13,0.01l-0.21,0.02l-0.14,0.01l-0.27,0.03
		l-0.09,0.01l-0.29,0.02l-0.12,0.01l-0.26,0.02l-0.09,0L163.14,86l-0.1,0.01l-0.27,0.01l-0.1,0l-0.34,0.01l-0.06,0l-0.3,0l-0.09,0
		l-0.35,0h0l-0.35,0l-0.09,0l-0.3,0l-0.05,0l-0.35-0.01l-0.09,0l-0.28-0.01l-0.43-0.02l-0.07,0l-0.28-0.02l-0.1-0.01l-0.33-0.03
		l-0.34-0.03l-0.12-0.01l-0.24-0.03l-0.1-0.01l-0.31-0.04l-0.14-0.02l-0.19-0.02l-0.15-0.02l-0.29-0.04l-0.15-0.02l-0.17-0.03
		l-0.18-0.03l-0.14-0.02l-0.34-0.06l-0.1-0.02l-0.21-0.04l-0.09-0.02c-0.24-0.05-0.47-0.1-0.71-0.15l-0.02-0.01
		c-1.01-0.23-1.99-0.52-2.95-0.84c-0.28-0.09-0.56-0.2-0.84-0.3c-0.71-0.26-1.4-0.54-2.08-0.85c-0.27-0.12-0.54-0.24-0.81-0.38
		c-0.8-0.39-1.58-0.81-2.34-1.27c-0.1-0.06-0.2-0.11-0.3-0.17c-0.87-0.54-1.71-1.13-2.52-1.75c-0.16-0.12-0.3-0.25-0.46-0.37
		c-0.65-0.52-1.27-1.06-1.88-1.63c-0.18-0.17-0.36-0.34-0.54-0.51c-0.62-0.62-1.22-1.26-1.79-1.93c-0.09-0.1-0.18-0.2-0.26-0.3
		c-0.67-0.81-1.3-1.65-1.89-2.53c-0.03-0.05-0.06-0.1-0.09-0.15c-0.53-0.8-1.01-1.63-1.47-2.48c-0.04-0.09-0.1-0.16-0.15-0.25
		c0-0.01,0.01-0.01,0.01-0.02c-2.18-4.2-3.43-8.96-3.43-14.01C131.05,38.72,144.7,25.07,161.54,25.07z"/>
	<path class="st12" d="M183.51,76.68c-0.19,0.2-0.39,0.4-0.59,0.59C183.12,77.07,183.32,76.88,183.51,76.68z"/>
	<path class="st12" d="M181.75,78.36c-0.16,0.14-0.32,0.29-0.48,0.43C181.44,78.65,181.59,78.5,181.75,78.36z"/>
	<path class="st12" d="M179.63,80.09c-0.2,0.14-0.39,0.28-0.59,0.42C179.23,80.37,179.43,80.23,179.63,80.09z"/>
	<path class="st12" d="M186.75,72.68c-0.17,0.25-0.35,0.49-0.53,0.74C186.4,73.17,186.58,72.93,186.75,72.68z"/>
	<path class="st12" d="M142.54,79.37c-0.65-0.52-1.27-1.06-1.88-1.63C141.26,78.31,141.89,78.85,142.54,79.37z"/>
	<path class="st12" d="M145.52,81.49c-0.87-0.54-1.71-1.13-2.52-1.75C143.81,80.37,144.64,80.95,145.52,81.49z"/>
	<path class="st12" d="M175.2,82.81c-0.19,0.09-0.38,0.19-0.57,0.28C174.83,82.99,175.01,82.9,175.2,82.81z"/>
	<path class="st12" d="M177.5,81.52c-0.12,0.07-0.24,0.15-0.36,0.23C177.26,81.68,177.38,81.6,177.5,81.52z"/>
	<path class="st12" d="M188.23,70.26c-0.14,0.25-0.27,0.51-0.42,0.76C187.96,70.77,188.09,70.51,188.23,70.26z"/>
	<path class="st12" d="M148.15,82.94c-0.8-0.39-1.58-0.81-2.34-1.27C146.57,82.12,147.35,82.54,148.15,82.94z"/>
	<path class="st12" d="M151.04,84.16c-0.7-0.26-1.4-0.54-2.08-0.85C149.64,83.62,150.34,83.9,151.04,84.16z"/>
	<path class="st12" d="M172.7,83.93c-0.06,0.02-0.12,0.05-0.18,0.08C172.58,83.98,172.64,83.95,172.7,83.93z"/>
	<path class="st12" d="M185.36,74.56c-0.17,0.21-0.33,0.42-0.5,0.63C185.03,74.98,185.19,74.77,185.36,74.56z"/>
	<path class="st12" d="M170.34,84.74c-0.19,0.06-0.37,0.11-0.56,0.16C169.96,84.85,170.15,84.8,170.34,84.74z"/>
	<path class="st12" d="M154.83,85.31c-1.01-0.23-1.99-0.52-2.95-0.84C152.84,84.79,153.82,85.08,154.83,85.31z"/>
	<path class="st12" d="M140.12,77.23c-0.62-0.62-1.22-1.26-1.79-1.93C138.9,75.97,139.5,76.61,140.12,77.23z"/>
	<path class="st12" d="M134.48,69.57c0.51-0.96,1.15-1.83,1.98-2.56c1.69-1.49,3.89-2.23,6.05-2.85c2.38-0.67,4.78-1.23,7.21-1.65
		c-2.05-2.58-3.28-5.83-3.28-9.38c0-8.34,6.76-15.1,15.1-15.1c8.34,0,15.1,6.76,15.1,15.1c0,3.53-1.22,6.77-3.25,9.34
		c4.5,0.68,9.96,1.67,13.22,4.55c0.83,0.73,1.48,1.6,1.98,2.56c2.18-4.2,3.44-8.95,3.44-14.01c0-16.84-13.65-30.49-30.49-30.49
		s-30.49,13.65-30.49,30.49C131.05,60.61,132.3,65.37,134.48,69.57z"/>
	<path class="st12" d="M136.08,72.32c-0.53-0.8-1.01-1.63-1.47-2.48C135.07,70.69,135.56,71.52,136.08,72.32z"/>
	<path class="st12" d="M138.07,75c-0.67-0.81-1.3-1.65-1.89-2.53C136.76,73.35,137.4,74.19,138.07,75z"/>
	<path class="st5" d="M173.39,62.46c2.03-2.57,3.25-5.81,3.25-9.34c0-8.34-6.76-15.1-15.1-15.1c-8.34,0-15.1,6.76-15.1,15.1
		c0,3.55,1.23,6.81,3.28,9.38c-2.43,0.43-4.83,0.98-7.21,1.65c-2.16,0.62-4.36,1.36-6.05,2.85c-0.83,0.73-1.48,1.6-1.98,2.56
		c0,0.01-0.01,0.01-0.01,0.02c0.04,0.09,0.1,0.16,0.15,0.25c0.45,0.85,0.94,1.68,1.47,2.48c0.03,0.05,0.06,0.1,0.09,0.15
		c0.59,0.88,1.22,1.72,1.89,2.53c0.08,0.1,0.18,0.2,0.26,0.3c0.57,0.67,1.17,1.31,1.79,1.93c0.18,0.17,0.36,0.34,0.54,0.51
		c0.6,0.57,1.23,1.11,1.88,1.63c0.15,0.12,0.3,0.25,0.46,0.37c0.81,0.62,1.65,1.21,2.52,1.75c0.1,0.06,0.2,0.11,0.3,0.17
		c0.76,0.46,1.54,0.88,2.34,1.27c0.27,0.13,0.54,0.25,0.81,0.38c0.68,0.31,1.37,0.59,2.08,0.85c0.28,0.1,0.55,0.21,0.84,0.3
		c0.97,0.32,1.95,0.61,2.95,0.84l0.02,0.01c0.24,0.05,0.47,0.1,0.71,0.15l0.09,0.02l0.21,0.04l0.1,0.02l0.34,0.06l0.14,0.02
		l0.18,0.03l0.17,0.03l0.15,0.02l0.29,0.04l0.15,0.02l0.19,0.02l0.14,0.02l0.31,0.04l0.1,0.01l0.24,0.03l0.12,0.01l0.34,0.03
		l0.33,0.03l0.1,0.01l0.28,0.02l0.07,0l0.43,0.02l0.28,0.01l0.09,0l0.35,0.01l0.05,0l0.3,0l0.09,0l0.35,0h0l0.35,0l0.09,0l0.3,0
		l0.06,0l0.34-0.01l0.1,0l0.27-0.01l0.1-0.01l0.33-0.02l0.09,0l0.26-0.02l0.12-0.01l0.29-0.02l0.09-0.01l0.27-0.03l0.14-0.01
		l0.21-0.02l0.13-0.01l0.29-0.03l0.16-0.02l0.16-0.02l0.18-0.02l0.18-0.03l0.27-0.04l0.13-0.02l0.2-0.03l0.09-0.01l0.41-0.07
		l0.06-0.01l0.23-0.04l0.05-0.01c0.78-0.15,1.54-0.35,2.29-0.56c0.19-0.05,0.37-0.11,0.56-0.16c0.74-0.22,1.47-0.46,2.18-0.74
		c0.06-0.02,0.12-0.05,0.18-0.08c0.66-0.26,1.3-0.55,1.93-0.85c0.19-0.09,0.38-0.18,0.57-0.28c0.66-0.33,1.31-0.68,1.94-1.05
		c0.12-0.07,0.24-0.15,0.36-0.23c0.52-0.32,1.04-0.66,1.54-1.02c0.2-0.14,0.4-0.28,0.59-0.42c0.56-0.42,1.11-0.85,1.65-1.3
		c0.16-0.14,0.32-0.29,0.48-0.43c0.4-0.35,0.79-0.72,1.16-1.09c0.2-0.2,0.4-0.39,0.59-0.59c0.46-0.48,0.92-0.98,1.35-1.49
		c0.17-0.2,0.33-0.42,0.5-0.63c0.3-0.37,0.59-0.75,0.87-1.14c0.18-0.24,0.36-0.49,0.53-0.74c0.37-0.54,0.72-1.1,1.06-1.66
		c0.15-0.25,0.28-0.51,0.42-0.76c0.12-0.22,0.25-0.44,0.37-0.67c0-0.01-0.01-0.01-0.01-0.02c-0.51-0.96-1.16-1.83-1.98-2.56
		C183.35,64.13,177.89,63.14,173.39,62.46z"/>
	<path class="st31" d="M121.71,95.75c-4.28,0-7.75,3.47-7.75,7.75v1.67c0,4.28,3.47,7.75,7.75,7.75h79.66
		c4.28,0,7.75-3.47,7.75-7.75v-1.67c0-4.28-3.47-7.75-7.75-7.75H121.71z M130.76,108.02c-2.2,0-3.83-1.8-3.92-3.92
		c-0.1-2.12,1.87-3.92,3.92-3.92c2.2,0,3.83,1.8,3.92,3.92C134.78,106.21,132.81,108.02,130.76,108.02z M146.15,108.02
		c-2.2,0-3.83-1.8-3.92-3.92c-0.09-2.12,1.87-3.92,3.92-3.92c2.2,0,3.83,1.8,3.92,3.92C150.16,106.21,148.2,108.02,146.15,108.02z
		 M161.54,108.02c-2.2,0-3.83-1.8-3.92-3.92c-0.09-2.12,1.87-3.92,3.92-3.92c2.2,0,3.83,1.8,3.92,3.92
		C165.55,106.21,163.59,108.02,161.54,108.02z M176.93,108.02c-2.2,0-3.83-1.8-3.92-3.92c-0.1-2.12,1.87-3.92,3.92-3.92
		c2.2,0,3.83,1.8,3.92,3.92C180.94,106.21,178.98,108.02,176.93,108.02z M196.24,104.09c0.1,2.12-1.87,3.92-3.92,3.92
		c-2.2,0-3.83-1.8-3.92-3.92c-0.09-2.12,1.87-3.92,3.92-3.92C194.51,100.17,196.14,101.97,196.24,104.09z"/>
	<path class="st31" d="M201.37,126.76h-79.66c-4.28,0-7.75,3.47-7.75,7.75v1.67c0,4.28,3.47,7.75,7.75,7.75h79.66
		c4.28,0,7.75-3.47,7.75-7.75v-1.67C209.12,130.23,205.65,126.76,201.37,126.76z"/>
	<path class="st7" d="M130.76,100.17c-2.05,0-4.02,1.8-3.92,3.92c0.09,2.12,1.72,3.92,3.92,3.92c2.05,0,4.02-1.8,3.92-3.92
		C134.59,101.97,132.96,100.17,130.76,100.17z"/>
	<path class="st7" d="M146.15,100.17c-2.05,0-4.02,1.8-3.92,3.92c0.1,2.12,1.72,3.92,3.92,3.92c2.05,0,4.02-1.8,3.92-3.92
		C149.98,101.97,148.35,100.17,146.15,100.17z"/>
	<path class="st7" d="M161.54,100.17c-2.05,0-4.02,1.8-3.92,3.92c0.09,2.12,1.72,3.92,3.92,3.92c2.05,0,4.02-1.8,3.92-3.92
		C165.36,101.97,163.74,100.17,161.54,100.17z"/>
	<path class="st7" d="M176.93,100.17c-2.05,0-4.02,1.8-3.92,3.92c0.09,2.12,1.72,3.92,3.92,3.92c2.05,0,4.02-1.8,3.92-3.92
		C180.75,101.97,179.13,100.17,176.93,100.17z"/>
	<path class="st7" d="M192.32,100.17c-2.05,0-4.02,1.8-3.92,3.92c0.1,2.12,1.72,3.92,3.92,3.92c2.05,0,4.02-1.8,3.92-3.92
		C196.14,101.97,194.51,100.17,192.32,100.17z"/>
	<path class="st32" d="M483.9,45.87v2.57h0.77l0.36-0.19c0.67-1.16,1.92-1.93,3.35-1.93c1.51,0,2.82,0.86,3.46,2.12h18.74l-0.5-0.86
		l-0.99-1.71H483.9z"/>
	<path class="st32" d="M470.54,46.87c1.34,0,2.54,0.6,3.35,1.54v-1.99c0-0.18,0.01-0.37,0.04-0.55H449l-1.49,2.57h19.64
		C467.97,47.48,469.18,46.87,470.54,46.87z"/>
	<path class="st33" d="M434.7,66.22c-0.49,0.84-3.57,6.18-5.4,9.36c-0.85,1.47-0.85,3.28,0,4.75l4.98,8.62l4.4,7.63l6.67,11.56
		l3.97,6.88c0.82,1.43,2.35,2.31,4,2.31h41.56c1.32,0,2.18-1.01,3-1.89c0.77-0.83,1.54-1.66,2.32-2.48l1.81-1.95l0,0
		c-0.73,0.6-1.66,0.95-2.64,0.95h-40.66c-1.48,0-2.86-0.79-3.6-2.08l-20.33-35.22c-0.74-1.28-0.74-2.87,0-4.16l5.3-9.18l5.94-10.3
		l1.49-2.57l4.46-7.72l2.34-4.06l0.8-1.39l0.01-0.02c0.62-1.08,1.68-1.8,2.88-2l-0.21,0.02c-1.31,0.14-2.7,0.42-3.87,1.05
		c-1.07,0.57-1.85,1.8-2.49,2.79c-1.37,2.1-2.44,4.35-3.69,6.51c-0.73,1.26-1.46,2.53-2.19,3.79c-0.85,1.48-1.7,2.95-2.56,4.43
		c-0.92,1.6-1.84,3.19-2.77,4.79c-0.94,1.63-1.88,3.25-2.82,4.88c-0.25,0.44-0.5,0.87-0.75,1.31l-1.5,2.6
		C435.01,65.69,434.86,65.95,434.7,66.22z"/>
	<polygon class="st34" points="510.08,47.58 509.1,45.87 509.09,45.87 	"/>
	<path class="st34" d="M500.47,83.32c0,3.62-1.16,7.2-3.3,10.12c-0.91,1.25-1.98,2.36-3.19,3.31c-2.2,2.29-5.01,3.96-8.1,4.76
		c-4.92,1.27-9.7,0.12-14.18-2.04c-3.32-1.6-6.37-3.77-8.95-6.4c-2.94-2.98-5.95-6.04-8.29-9.52c-0.67-0.99-1.34-1.98-2-2.97
		c-0.55-0.81-0.98-1.53-1.18-2.51c-0.36-1.72,0-3.58,1.27-4.85c0.35-0.34,0.73-0.63,1.14-0.85c0.17-0.26,0.36-0.5,0.59-0.73
		c1.9-1.9,4.98-1.9,6.88,0l3.24,3.24V58.74h-22.83l-1.49,2.57l-5.3,9.18c-0.74,1.29-0.74,2.87,0,4.16l20.33,35.22
		c0.74,1.29,2.12,2.08,3.6,2.08h40.66c0.98,0,1.91-0.34,2.64-0.95c0.38-0.31,0.71-0.69,0.96-1.13l20.33-35.22
		c0.74-1.28,0.74-2.87,0-4.16l-5.3-9.18l-1.49-2.57h-16.05V83.32z"/>
	<path class="st35" d="M500.47,57.25v1.49h16.05l-1.49-2.57h-14.72C500.42,56.51,500.47,56.87,500.47,57.25z"/>
	<polygon class="st35" points="464.4,56.17 443.06,56.17 441.57,58.74 464.4,58.74 	"/>
	<path class="st36" d="M500.32,56.17h14.72l-0.9-1.56l-0.59-1.01h-15.81C498.98,53.95,499.95,54.93,500.32,56.17z"/>
	<polygon class="st36" points="464.4,53.59 444.54,53.59 443.06,56.17 464.4,56.17 	"/>
	<path class="st36" d="M493.36,55.36c0.48-0.84,1.28-1.48,2.23-1.76h-3.33v2.52C492.58,55.8,492.95,55.54,493.36,55.36z"/>
	<path class="st37" d="M492.26,53.59h3.33c0.34-0.1,0.7-0.15,1.07-0.15c0.37,0,0.73,0.05,1.07,0.15h15.81l-1.49-2.57h-19.81V53.59z"
		/>
	<path class="st37" d="M464.4,52.85c0-0.65,0.14-1.28,0.4-1.84h-18.77l-1.49,2.57h19.85V52.85z"/>
	<path class="st38" d="M492.26,50.2v0.82h19.81l-1.49-2.57h-18.74C492.11,48.97,492.26,49.57,492.26,50.2z"/>
	<path class="st38" d="M466.81,48.92c0.11-0.17,0.22-0.33,0.35-0.48h-19.64l-1.49,2.57h18.77
		C465.21,50.11,465.92,49.37,466.81,48.92z"/>
	<path class="st38" d="M484.67,48.45h-0.77v0.6C484.13,48.82,484.39,48.61,484.67,48.45z"/>
	<path class="st39" d="M475.31,43.3h-24.82L449,45.87h24.92C474.06,44.85,474.57,43.94,475.31,43.3z"/>
	<path class="st39" d="M483.6,43.3c0.19,0.48,0.3,1,0.3,1.55v1.03h25.19l-1.49-2.57H483.6z"/>
	<path class="st40" d="M476.22,42.69c0.65-1.07,1.78-1.83,3.09-1.97h-27.34l-1.49,2.57h24.82
		C475.58,43.06,475.89,42.85,476.22,42.69z"/>
	<path class="st40" d="M480.21,40.72c1.55,0.17,2.84,1.18,3.4,2.57h24.01l-1.49-2.57H480.21z"/>
	<path class="st41" d="M455.13,35.26l-0.01,0.02l-0.8,1.39l-2.34,4.06h27.34c0.15-0.02,0.3-0.02,0.45-0.02
		c0.15,0,0.3,0.01,0.45,0.02h25.92l-3.15-5.46l-0.03-0.05c-0.74-1.25-2.09-2.02-3.54-2.02h-40.7c-0.23,0-0.46,0.02-0.69,0.06
		C456.81,33.46,455.75,34.19,455.13,35.26z"/>
	<path class="st33" d="M487.62,99.94c-4.92,1.27-9.7,0.12-14.18-2.04c-3.32-1.6-6.37-3.77-8.95-6.4c-2.94-2.98-5.95-6.04-8.29-9.52
		c-0.67-0.99-1.34-1.98-2-2.97c-0.55-0.81-0.98-1.53-1.18-2.51c-0.3-1.41-0.1-2.93,0.68-4.12c-0.41,0.22-0.79,0.5-1.14,0.85
		c-1.27,1.27-1.63,3.14-1.27,4.85c0.2,0.98,0.63,1.7,1.18,2.51c0.67,0.99,1.34,1.98,2,2.97c2.35,3.48,5.35,6.54,8.29,9.52
		c2.59,2.63,5.63,4.8,8.95,6.4c4.49,2.15,9.27,3.31,14.18,2.04c3.08-0.8,5.9-2.47,8.1-4.76C492.12,98.24,489.94,99.34,487.62,99.94z
		"/>
	<path class="st33" d="M466.13,51.28c0-0.87,0.25-1.67,0.68-2.36c-0.88,0.45-1.6,1.19-2.01,2.1c-0.26,0.56-0.4,1.18-0.4,1.84V74.9
		l1.73,1.73V51.28z"/>
	<path class="st33" d="M492.26,66.14h0.6v-8.89c0-0.69,0.18-1.34,0.5-1.89c-0.41,0.19-0.78,0.45-1.1,0.76V66.14z"/>
	<path class="st33" d="M483.9,66.14h0.61V50.2c0-0.71,0.19-1.37,0.52-1.94l-0.36,0.19c-0.28,0.17-0.54,0.37-0.77,0.6V66.14z"/>
	<path class="st33" d="M474.95,66.14h0.67v-21.3c0-0.79,0.22-1.53,0.6-2.15c-0.33,0.16-0.64,0.36-0.91,0.61
		c-0.74,0.65-1.25,1.55-1.38,2.57c-0.02,0.18-0.04,0.36-0.04,0.55v1.99c0.66,0.77,1.06,1.77,1.06,2.87V66.14z"/>
	<path class="st42" d="M476.22,42.69c-0.38,0.63-0.6,1.36-0.6,2.15v21.3h-0.67V51.28c0-1.09-0.4-2.1-1.06-2.87
		c-0.81-0.94-2.01-1.54-3.35-1.54c-1.36,0-2.57,0.61-3.38,1.58c-0.13,0.15-0.24,0.31-0.35,0.48c-0.43,0.68-0.68,1.49-0.68,2.36
		v25.35l-1.73-1.73l-3.24-3.24c-1.9-1.9-4.98-1.9-6.88,0c-0.23,0.22-0.42,0.47-0.59,0.73c-0.78,1.2-0.98,2.71-0.68,4.12
		c0.2,0.98,0.63,1.7,1.18,2.51c0.67,0.99,1.34,1.98,2,2.97c2.35,3.48,5.35,6.54,8.29,9.52c2.59,2.63,5.63,4.8,8.95,6.4
		c4.49,2.15,9.27,3.31,14.18,2.04c2.33-0.6,4.5-1.7,6.37-3.19c1.2-0.95,2.28-2.07,3.19-3.31c2.14-2.93,3.3-6.5,3.3-10.12V57.25
		c0-0.38-0.05-0.74-0.16-1.08c-0.37-1.24-1.34-2.21-2.58-2.57c-0.34-0.1-0.7-0.15-1.07-0.15c-0.37,0-0.73,0.05-1.07,0.15
		c-0.95,0.28-1.75,0.92-2.23,1.76c-0.32,0.56-0.5,1.2-0.5,1.89v8.89h-0.6V50.2c0-0.63-0.15-1.23-0.42-1.75
		c-0.64-1.26-1.95-2.12-3.46-2.12c-1.43,0-2.68,0.78-3.35,1.93c-0.33,0.57-0.52,1.24-0.52,1.94v15.95h-0.61v-21.3
		c0-0.55-0.1-1.07-0.3-1.55c-0.56-1.39-1.85-2.41-3.4-2.57c-0.15-0.02-0.3-0.02-0.45-0.02c-0.15,0-0.3,0.01-0.45,0.02
		C478,40.86,476.87,41.62,476.22,42.69z"/>
	<path class="st43" d="M309.14,118.7c0.33,0.23,0.64,0.47,0.96,0.71C309.79,119.17,309.47,118.93,309.14,118.7z"/>
	<path class="st43" d="M305.46,116.59c-0.32-0.15-0.65-0.29-0.98-0.43C304.81,116.3,305.14,116.44,305.46,116.59z"/>
	<path class="st43" d="M306.11,116.9c0.32,0.16,0.63,0.33,0.94,0.5C306.74,117.23,306.43,117.06,306.11,116.9z"/>
	<path class="st43" d="M307.66,117.75c0.32,0.19,0.62,0.39,0.93,0.59C308.28,118.14,307.98,117.94,307.66,117.75z"/>
	<path class="st43" d="M298.57,114.54c0.61,0.09,1.2,0.2,1.79,0.32C299.77,114.73,299.17,114.62,298.57,114.54z"/>
	<path class="st43" d="M302.77,115.53c0.35,0.11,0.69,0.23,1.03,0.36C303.47,115.76,303.12,115.64,302.77,115.53z"/>
	<path class="st43" d="M300.94,115.01c0.39,0.1,0.78,0.19,1.17,0.31C301.73,115.2,301.34,115.1,300.94,115.01z"/>
	<path class="st44" d="M277.92,155.86c0.3,0.23,0.61,0.43,0.92,0.65c0.3,0.21,0.6,0.43,0.91,0.63c0.32,0.2,0.66,0.38,0.99,0.57
		c0.32,0.18,0.63,0.37,0.95,0.54c0.35,0.18,0.72,0.33,1.08,0.49c0.32,0.15,0.64,0.3,0.98,0.44c0.38,0.15,0.78,0.27,1.17,0.41
		c0.33,0.11,0.65,0.24,0.98,0.33c0.43,0.13,0.87,0.22,1.3,0.32c0.31,0.07,0.62,0.16,0.93,0.22c0.5,0.1,1.01,0.15,1.51,0.22
		c0.27,0.03,0.53,0.09,0.8,0.11c0.78,0.07,1.57,0.11,2.37,0.11c13.55,0,24.54-10.99,24.54-24.54c0-5.8-2.02-11.12-5.38-15.32
		c-0.36-0.34-0.72-0.69-1.11-1.01c-0.11-0.09-0.21-0.19-0.32-0.28c-0.15-0.12-0.3-0.23-0.45-0.34c-0.32-0.24-0.63-0.48-0.96-0.71
		c-0.18-0.13-0.37-0.24-0.55-0.37c-0.31-0.2-0.61-0.4-0.93-0.59c-0.2-0.12-0.41-0.23-0.61-0.35c-0.31-0.17-0.62-0.34-0.94-0.5
		c-0.22-0.11-0.43-0.21-0.65-0.31c-0.32-0.15-0.65-0.29-0.98-0.43c-0.22-0.09-0.45-0.18-0.67-0.27c-0.34-0.13-0.69-0.25-1.03-0.36
		c-0.22-0.07-0.44-0.15-0.66-0.22c-0.38-0.11-0.78-0.21-1.17-0.31c-0.19-0.05-0.39-0.1-0.58-0.14c-0.59-0.13-1.19-0.24-1.79-0.32
		l-0.01,0l-0.11-0.01l-0.03,0l-0.09-0.01l-0.13-0.02h0l-0.12-0.01l-0.02,0l-0.1-0.01l-0.05,0l-0.09-0.01l-0.13-0.01l-0.02,0
		l-0.11-0.01l-0.05,0l-0.09-0.01l-0.07,0l-0.08-0.01l-0.08-0.01l-0.06,0l-0.1-0.01l-0.05,0l-0.11-0.01l-0.04,0l-0.12-0.01l-0.03,0
		l-0.13-0.01l-0.02,0l-0.15-0.01h0c-0.42-0.02-0.84-0.03-1.26-0.03c-11.91,0-21.84,8.49-24.07,19.75l-0.03,0.15
		c-0.04,0.2-0.08,0.4-0.11,0.6c-0.03,0.15-0.05,0.3-0.07,0.46l-0.04,0.31c-0.02,0.15-0.04,0.31-0.06,0.46l-0.03,0.31
		c-0.02,0.21-0.04,0.41-0.06,0.62l-0.02,0.31c-0.03,0.52-0.05,1.05-0.05,1.58l0,0.15v0.15l0,0.06l0,0.09l0,0.07l0,0.08l0,0.07
		l0,0.09l0,0.06l0,0.09l0.01,0.29l0,0.05l0,0.09l0,0.05l0,0.1l0,0.04l0.01,0.1l0,0.03l0.01,0.11v0l0.01,0.13l0,0.06l0.01,0.07
		l0.01,0.07l0,0.06l0.01,0.08l0,0.03l0.01,0.13l0.01,0.06l0.01,0.07l0.01,0.08l0,0.04c0.52,4.83,2.44,9.24,5.35,12.81
		c0.32,0.3,0.66,0.57,1,0.85C277.35,155.39,277.63,155.63,277.92,155.86z M296.39,156.64c-1.41,0-2.61-0.85-3.13-2.06
		c-0.93-0.61-1.54-1.66-1.54-2.85c0-1.88,1.53-3.41,3.41-3.41c1.41,0,2.61,0.85,3.13,2.06c0.93,0.61,1.54,1.66,1.54,2.85
		C299.8,155.11,298.27,156.64,296.39,156.64z M291.62,127.47c-0.14-2.03,1.47-3.76,3.51-3.76c1.44,0,2.68,0.87,3.22,2.1
		c1.01,0.68,1.64,1.86,1.55,3.16l-1.14,16.39c-0.09,1.25-1.12,2.21-2.37,2.21c-1.08,0-2.01-0.73-2.29-1.74
		c-0.75-0.36-1.28-1.1-1.34-1.98L291.62,127.47z"/>
	<path class="st43" d="M319.67,138.84c0-4.57-1.27-8.83-3.44-12.49c-1.17-1.97-2.6-3.75-4.25-5.31c3.36,4.2,5.38,9.52,5.38,15.32
		c0,13.55-10.99,24.54-24.54,24.54c-0.8,0-1.59-0.04-2.37-0.11c-0.27-0.03-0.53-0.08-0.8-0.11c-0.51-0.07-1.02-0.12-1.51-0.22
		c-0.32-0.06-0.62-0.15-0.93-0.22c-0.44-0.1-0.88-0.19-1.3-0.32c-0.33-0.1-0.65-0.22-0.98-0.33c-0.39-0.13-0.79-0.26-1.17-0.41
		c-0.33-0.13-0.65-0.29-0.98-0.44c-0.36-0.16-0.73-0.32-1.08-0.49c-0.33-0.17-0.64-0.36-0.95-0.54c-0.33-0.19-0.67-0.37-0.99-0.57
		c-0.31-0.2-0.61-0.42-0.91-0.63c-0.31-0.21-0.62-0.42-0.92-0.65c-0.29-0.22-0.57-0.47-0.85-0.7c-0.33-0.28-0.68-0.55-1-0.85
		l0.26,0.24h-0.07c4.01,4.81,9.84,8.05,16.42,8.7c0.8,0.08,1.61,0.14,2.44,0.14C308.68,163.38,319.67,152.39,319.67,138.84z"/>
	<path class="st43" d="M311.97,121.04c-0.04-0.05-0.07-0.1-0.11-0.14c-0.37-0.34-0.75-0.67-1.14-0.99
		c-0.03-0.02-0.05-0.05-0.08-0.07c-0.03-0.03-0.07-0.05-0.1-0.07c0.11,0.09,0.21,0.19,0.32,0.28
		C311.25,120.35,311.61,120.7,311.97,121.04z"/>
	<path class="st43" d="M298.63,127.47l-1.14,16.39c-0.09,1.25-1.12,2.21-2.37,2.21c-0.37,0-0.71-0.08-1.03-0.23
		c0.28,1.01,1.2,1.74,2.29,1.74c1.25,0,2.28-0.97,2.37-2.21l1.14-16.39c0.09-1.31-0.54-2.49-1.55-3.16
		C298.57,126.32,298.67,126.88,298.63,127.47z"/>
	<path class="st43" d="M298.26,150.38c0.18,0.41,0.27,0.87,0.27,1.35c0,1.88-1.53,3.41-3.41,3.41c-0.69,0-1.33-0.21-1.87-0.56
		c0.52,1.21,1.73,2.06,3.13,2.06c1.88,0,3.41-1.53,3.41-3.41C299.8,152.04,299.19,150.99,298.26,150.38z"/>
	<path class="st4" d="M292.76,143.86c0.06,0.88,0.59,1.62,1.34,1.98c0.31,0.15,0.66,0.23,1.03,0.23c1.25,0,2.28-0.97,2.37-2.21
		l1.14-16.39c0.04-0.59-0.07-1.15-0.29-1.66c-0.54-1.23-1.77-2.1-3.22-2.1c-2.04,0-3.65,1.73-3.51,3.76L292.76,143.86z"/>
	<path class="st4" d="M298.53,151.72c0-0.48-0.1-0.93-0.27-1.35c-0.52-1.21-1.73-2.06-3.13-2.06c-1.88,0-3.41,1.53-3.41,3.41
		c0,1.19,0.61,2.24,1.54,2.85c0.54,0.35,1.18,0.56,1.87,0.56C297.01,155.13,298.53,153.6,298.53,151.72z"/>
	<path class="st45" d="M191.42,311.25c0.82,0.3,1.67,0.56,2.52,0.84C193.09,311.81,192.24,311.55,191.42,311.25z"/>
	<path class="st45" d="M149.66,266.27l0.09,0.26l-0.09-0.28l-0.06-0.18l-0.05-0.14l-0.06-0.17l-0.05-0.16l-0.05-0.16l-0.05-0.16
		l-0.05-0.17l-0.05-0.16l-0.05-0.17l-0.05-0.15l-0.06-0.18l-0.05-0.15l-0.05-0.16l-0.05-0.16l-0.05-0.17l-0.05-0.16l-0.05-0.16
		l-0.05-0.17l-0.05-0.16l-0.05-0.17l-0.05-0.16l-0.05-0.16l-0.05-0.16l-0.05-0.18l-0.04-0.14l-0.05-0.18l-0.04-0.15l-0.05-0.17
		l-0.05-0.17l-0.05-0.17l-0.05-0.17l-0.05-0.16l-0.05-0.16l-0.05-0.18l-0.04-0.15l-0.05-0.17l-0.04-0.17l-0.05-0.19l-0.04-0.13
		l-0.05-0.2l-0.04-0.14l-0.05-0.19l-0.04-0.14l-0.05-0.19l-0.04-0.14l-0.08-0.33l-0.06-0.23l-0.03-0.11l-0.06-0.25l-0.02-0.09
		l-0.06-0.26l-0.02-0.08l-0.07-0.29l-0.01-0.04c-0.08-0.34-0.16-0.68-0.23-1.02l0-0.01l-0.07-0.33l-0.02-0.09l-0.06-0.25l-0.02-0.09
		l-0.05-0.25l-0.02-0.11l-0.05-0.23l-0.02-0.12l-0.05-0.22l-0.03-0.13l-0.04-0.21l-0.03-0.13l-0.04-0.2l-0.03-0.13l-0.04-0.21
		l-0.02-0.13l-0.04-0.21l-0.02-0.12l-0.04-0.23l-0.02-0.1l-0.04-0.23l-0.02-0.12l-0.04-0.23l-0.02-0.11l-0.04-0.22l-0.02-0.13
		l-0.04-0.21l-0.03-0.14l-0.03-0.19l-0.03-0.15l-0.04-0.21l-0.02-0.13l-0.04-0.21l-0.02-0.13l-0.03-0.2l-0.02-0.15l-0.03-0.2
		l-0.02-0.13l-0.04-0.22l-0.02-0.12l-0.03-0.21l-0.02-0.13l-0.03-0.22l-0.02-0.12l-0.03-0.22l-0.02-0.13l-0.03-0.21l-0.02-0.13
		l-0.03-0.21l-0.02-0.13l-0.03-0.24l-0.01-0.1l-0.03-0.24l-0.01-0.11l-0.04-0.28l-0.01-0.06l-0.04-0.27l-0.01-0.08l-0.04-0.29
		l-0.01-0.06l-0.04-0.33l0-0.02l-0.04-0.35l0-0.02c-0.05-0.4-0.09-0.79-0.14-1.19l-0.01-0.11c-0.04-0.38-0.08-0.76-0.12-1.14
		l-0.04-0.38l-0.01-0.08c-0.04-0.38-0.07-0.76-0.1-1.15l0-0.03c-0.02-0.26-0.04-0.52-0.06-0.78l-0.02-0.21l-0.01-0.19
		c-0.02-0.23-0.03-0.46-0.05-0.69l-0.01-0.13l-0.01-0.2l-0.01-0.21l-0.02-0.38l0-0.03c-0.02-0.33-0.04-0.66-0.06-0.98
		c-0.02-0.35-0.03-0.7-0.05-1.06l-0.01-0.16l-0.01-0.27c-0.01-0.26-0.02-0.52-0.03-0.78v-0.01c-0.01-0.33-0.02-0.66-0.03-0.99
		c0-0.22-0.01-0.43-0.01-0.65c-0.01-0.37-0.01-0.74-0.02-1.12l0-0.17c0-0.25-0.01-0.5-0.01-0.75v-0.09l0-0.33
		c8.97-1.79,17.58-3.57,25.48-6.46c0.32-0.12,0.63-0.23,0.94-0.35c1.88-0.71,3.72-1.49,5.51-2.35l0.2-0.1
		c0.2-0.09,0.39-0.19,0.59-0.29c0.19-0.1,0.39-0.2,0.59-0.3c0.19-0.1,0.39-0.2,0.58-0.3l0.39-0.2c0.32-0.17,0.64-0.35,0.96-0.53
		c0.25-0.14,0.51-0.29,0.76-0.44c0.57-0.33,1.13-0.67,1.68-1.02l0.37-0.24c0.25-0.16,0.49-0.32,0.73-0.48l0.36-0.25
		c0.24-0.17,0.48-0.33,0.72-0.5l0.36-0.26l0.36-0.26l0.36-0.26c3.72-2.78,7.13-6.13,10.17-10.27l0.11-0.15v-12.2l-0.16,0.21
		l-0.18,0.24c-13.68,18.44-33.43,24.21-55.37,28.8c-0.29,0.06-0.57,0.12-0.86,0.18c-0.19,0.04-0.38,0.08-0.57,0.12
		c-1.92,0.39-3.85,0.78-5.79,1.17c0,0.36,0,0.72,0,1.09c0,0.63,0.01,1.25,0.02,1.88l0,0.16c0,0.18,0.01,0.36,0.01,0.54
		c0,0.22,0.01,0.44,0.02,0.66c0.01,0.23,0.01,0.45,0.02,0.68l0.01,0.19l0.01,0.43c0.02,0.42,0.03,0.84,0.05,1.26l0.01,0.12
		l0.01,0.29l0.01,0.21c0.02,0.48,0.05,0.96,0.08,1.44l0,0.06c0.06,0.96,0.12,1.93,0.2,2.89l0.01,0.11c0.09,1.18,0.2,2.36,0.33,3.53
		l0.01,0.09c0.04,0.4,0.09,0.81,0.13,1.21l0.02,0.15c0.89,7.7,2.41,15.31,4.61,22.63c0.07,0.23,0.14,0.47,0.21,0.7
		c3.43,11.19,8.47,21.7,15.31,30.85c9.94,13.3,23.67,23.73,41.83,29.19v-8.59C170.91,307.95,156.45,288.71,149.66,266.27z"/>
	<path class="st45" d="M174.37,302.01c0.69,0.52,1.42,1.02,2.14,1.52C175.78,303.03,175.06,302.53,174.37,302.01z"/>
	<path class="st45" d="M171.45,299.67c0.66,0.56,1.35,1.1,2.04,1.64C172.8,300.77,172.11,300.23,171.45,299.67z"/>
	<path class="st45" d="M180.68,306.21c0.76,0.44,1.55,0.86,2.34,1.28C182.23,307.07,181.44,306.66,180.68,306.21z"/>
	<path class="st45" d="M177.44,304.19c0.73,0.49,1.5,0.95,2.26,1.41C178.94,305.14,178.17,304.68,177.44,304.19z"/>
	<path class="st45" d="M187.67,309.75c0.81,0.35,1.65,0.67,2.49,0.99C189.32,310.42,188.48,310.1,187.67,309.75z"/>
	<path class="st45" d="M184.09,308.07c0.78,0.39,1.58,0.75,2.39,1.12C185.68,308.82,184.87,308.46,184.09,308.07z"/>
	<path class="st45" d="M170.66,298.96c-0.66-0.58-1.33-1.16-1.96-1.77C169.34,297.79,170,298.37,170.66,298.96z"/>
	<path class="st45" d="M167.96,296.44c-0.62-0.62-1.25-1.23-1.85-1.87C166.71,295.2,167.34,295.82,167.96,296.44z"/>
	<path class="st45" d="M152.23,272.99c0.87,2.03,1.84,4.02,2.86,5.96C154.07,277.01,153.11,275.03,152.23,272.99z"/>
	<path class="st45" d="M155.46,279.66c0.39,0.72,0.81,1.43,1.22,2.13C156.27,281.08,155.85,280.38,155.46,279.66z"/>
	<path class="st45" d="M161.39,288.94c0.52,0.69,1.06,1.35,1.6,2.02C162.46,290.29,161.91,289.63,161.39,288.94z"/>
	<path class="st45" d="M157.29,282.85c0.48,0.79,0.98,1.56,1.49,2.33C158.27,284.42,157.77,283.64,157.29,282.85z"/>
	<path class="st45" d="M163.68,291.81c0.56,0.67,1.15,1.32,1.74,1.97C164.83,293.13,164.24,292.48,163.68,291.81z"/>
	<path class="st45" d="M159.27,285.95c0.5,0.74,1.03,1.46,1.55,2.18C160.29,287.41,159.77,286.69,159.27,285.95z"/>
	<path class="st46" d="M191.14,285.14c-0.2,0.11-0.4,0.22-0.6,0.31C190.74,285.37,190.94,285.25,191.14,285.14z"/>
	<path class="st46" d="M187.86,285.82c-0.14-0.01-0.28-0.02-0.42-0.04C187.58,285.81,187.72,285.81,187.86,285.82z"/>
	<path class="st46" d="M190.04,285.6c-0.17,0.05-0.34,0.11-0.52,0.15C189.7,285.72,189.87,285.65,190.04,285.6z"/>
	<path class="st46" d="M188.95,285.82c-0.15,0.02-0.31,0.04-0.46,0.04C188.64,285.86,188.79,285.84,188.95,285.82z"/>
	<path class="st46" d="M184.91,284.67c-0.18-0.13-0.36-0.25-0.52-0.41c-0.63-0.6-1.26-1.19-1.88-1.79
		c-2.72-2.58-5.44-5.16-8.16-7.74c-1.04-0.99-2.08-1.97-3.12-2.96c0.19,0.27,0.42,0.54,0.67,0.78l13.3,12.61l-0.55-0.68
		C184.73,284.56,184.83,284.61,184.91,284.67z"/>
	<path class="st46" d="M192.38,284.26c-0.28,0.26-0.58,0.49-0.89,0.69C191.81,284.76,192.11,284.53,192.38,284.26z"/>
	<path class="st46" d="M186.81,285.63c-0.13-0.04-0.26-0.07-0.39-0.11C186.56,285.56,186.69,285.59,186.81,285.63z"/>
	<path class="st46" d="M185.82,285.24c-0.12-0.06-0.25-0.12-0.36-0.19C185.58,285.13,185.7,285.18,185.82,285.24z"/>
	<polygon class="st46" points="148.32,262 148.38,262.18 148.42,262.32 148.38,262.18 	"/>
	<polygon class="st46" points="147.95,260.67 148,260.85 148.05,261.02 148,260.85 	"/>
	<path class="st46" d="M195.33,265.9c0.96-0.91,1.92-1.82,2.88-2.73l10.67-10.11l8.86-8.39c1.23-1.17,2.46-2.33,3.69-3.5
		c1.12-1.06,2.47-1.59,4-1.66c1.51-0.07,2.92,0.67,4,1.66c0.47,0.44,0.86,1.02,1.14,1.65c0.55,0.26,1.08,0.61,1.56,1.05
		c2.21,2.03,2.15,5.96,0,7.99c-1.51,1.43-3.02,2.87-4.53,4.3c-6.65,6.3-13.3,12.61-19.96,18.91l-12.3,11.66v25.81
		c0.02,0.01,0.05,0.02,0.07,0.02h0c36.28-10.89,50.92-46.09,51.27-80.45c0-0.43,0.01-0.85,0.01-1.28
		c-13.32-2.67-25.88-5.3-36.43-11.57c-4.87-2.89-9.31-6.57-13.2-11.37c-0.5-0.62-0.99-1.25-1.46-1.9l-0.18-0.25l-0.07,0.09V265.9z"
		/>
	<polygon class="st46" points="148.76,263.48 148.81,263.65 148.86,263.81 148.82,263.65 	"/>
	<polygon class="st46" points="147.08,257.23 147.15,257.52 147.17,257.6 147.15,257.52 	"/>
	<polygon class="st46" points="146.38,254.01 146.4,254.14 146.45,254.35 146.4,254.14 	"/>
	<path class="st47" d="M210.25,219.27c-4.58-3.1-8.75-6.98-12.4-11.94l-0.19-0.25l-0.19,0.25c-0.14,0.19-0.28,0.38-0.43,0.57
		C200.93,212.7,205.38,216.38,210.25,219.27z"/>
	<path class="st4" d="M182.51,282.48c0.63,0.6,1.25,1.19,1.88,1.79c0.16,0.16,0.35,0.27,0.52,0.41c0.18,0.14,0.36,0.27,0.55,0.38
		c0.12,0.07,0.24,0.13,0.36,0.19c0.2,0.1,0.4,0.2,0.61,0.28c0.13,0.05,0.26,0.07,0.39,0.11c0.21,0.06,0.42,0.12,0.63,0.16
		c0.14,0.02,0.28,0.03,0.42,0.04c0.21,0.02,0.41,0.04,0.62,0.04c0.15,0,0.31-0.03,0.46-0.04c0.19-0.02,0.39-0.03,0.58-0.07
		c0.18-0.04,0.35-0.1,0.52-0.15c0.16-0.05,0.33-0.09,0.49-0.15c0.21-0.08,0.4-0.2,0.6-0.31c0.12-0.07,0.24-0.11,0.36-0.19
		c0.31-0.2,0.61-0.43,0.89-0.69c1.23-1.17,2.46-2.33,3.69-3.49l8.86-8.39l10.67-10.11c3.09-2.92,6.17-5.85,9.26-8.78
		c1.5-1.42,3.02-2.82,4.49-4.26l0.07-0.06c1.03-0.98,1.66-2.59,1.66-4c0-0.75-0.18-1.59-0.52-2.35c-0.28-0.63-0.67-1.21-1.14-1.65
		c-1.08-0.99-2.49-1.72-4-1.66c-1.52,0.07-2.88,0.59-4,1.66c-1.23,1.16-2.46,2.33-3.69,3.5l-8.86,8.39l-10.67,10.11
		c-0.96,0.91-1.92,1.82-2.88,2.73c-2.13,2.01-4.25,4.03-6.38,6.04c-0.19,0.18-0.37,0.35-0.56,0.53c-0.38-0.36-0.77-0.73-1.15-1.09
		c-2.72-2.58-5.44-5.16-8.16-7.74l-1.88-1.79c-1.07-1.01-2.51-1.66-4-1.66c-1.39,0-3.04,0.62-4,1.66c-0.99,1.08-1.72,2.49-1.66,4
		c0.07,1.48,0.55,2.95,1.66,4c0.68,0.64,1.35,1.28,2.03,1.93c1.04,0.99,2.08,1.97,3.12,2.96
		C177.07,277.32,179.79,279.9,182.51,282.48z"/>
	<path class="st48" d="M258.39,224.37c-4.16-0.83-8.24-1.67-12.25-2.57c-15.58-3.5-29.87-8.08-41.4-18.05
		c-3.27-2.83-6.33-6.09-9.12-9.89l-0.22-0.3l-0.07,0.09v12.2l0.07-0.09l0.18,0.25c0.48,0.65,0.97,1.28,1.46,1.9
		c0.14-0.19,0.28-0.38,0.43-0.57l0.19-0.25l0.19,0.25c3.65,4.97,7.82,8.84,12.4,11.94c10.55,6.27,23.11,8.91,36.43,11.57
		c0,0.43,0,0.85-0.01,1.28c1.23,0.25,2.47,0.5,3.72,0.75c0,35.74-14.96,72.7-52.73,84.03h0c-0.79-0.24-1.56-0.48-2.33-0.74v8.59
		l0.07,0.02h0c4.25-1.27,8.25-2.82,12.02-4.61c2.75-1.3,5.36-2.75,7.86-4.3c8.78-5.45,16.08-12.36,22.02-20.3
		c6.84-9.15,11.87-19.66,15.3-30.85c2.76-8.98,4.48-18.4,5.27-27.9C258.22,232.67,258.39,228.51,258.39,224.37z"/>
	<path class="st49" d="M227.59,256.17c1.51-1.43,3.02-2.86,4.53-4.3c2.15-2.04,2.21-5.97,0-7.99c-0.48-0.44-1.01-0.79-1.56-1.05
		c0.33,0.76,0.52,1.59,0.52,2.35c0,1.41-0.62,3.02-1.66,4l-0.07,0.06c-1.47,1.44-3,2.84-4.49,4.26c-3.09,2.93-6.17,5.85-9.26,8.78
		l-10.67,10.11l-8.86,8.39c-1.23,1.17-2.46,2.33-3.69,3.49c-0.28,0.26-0.58,0.49-0.89,0.69c-0.12,0.07-0.24,0.12-0.36,0.19
		c-0.2,0.11-0.4,0.22-0.6,0.31c-0.16,0.06-0.33,0.1-0.49,0.15c-0.17,0.05-0.34,0.11-0.52,0.15c-0.19,0.04-0.38,0.05-0.58,0.07
		c-0.15,0.02-0.31,0.04-0.46,0.04c-0.21,0-0.41-0.02-0.62-0.04c-0.14-0.01-0.28-0.02-0.42-0.04c-0.21-0.04-0.42-0.1-0.63-0.16
		c-0.13-0.04-0.26-0.07-0.39-0.11c-0.21-0.08-0.41-0.18-0.61-0.28c-0.12-0.06-0.25-0.12-0.36-0.19c-0.19-0.11-0.37-0.25-0.55-0.38
		c-0.08-0.06-0.18-0.11-0.26-0.18l0.55,0.68c0.63,0.6,1.26,1.19,1.89,1.79c2.26,2.14,5.73,2.15,7.99,0l0.24-0.23l12.3-11.66
		C214.29,268.78,220.94,262.47,227.59,256.17z"/>
	<path class="st47" d="M195.4,312.57L195.4,312.57c-0.03-0.01-0.05-0.02-0.07-0.02v0c-0.47-0.14-0.92-0.31-1.39-0.46
		c-0.84-0.27-1.7-0.54-2.52-0.84c-0.43-0.16-0.84-0.34-1.26-0.5c-0.84-0.32-1.68-0.64-2.49-0.99c-0.41-0.18-0.79-0.38-1.19-0.56
		c-0.8-0.37-1.61-0.73-2.39-1.12c-0.36-0.18-0.71-0.39-1.07-0.58c-0.79-0.42-1.58-0.83-2.34-1.28c-0.33-0.2-0.65-0.41-0.98-0.61
		c-0.76-0.46-1.53-0.92-2.26-1.41c-0.32-0.21-0.62-0.45-0.94-0.67c-0.72-0.5-1.44-0.99-2.14-1.52c-0.3-0.23-0.58-0.47-0.88-0.7
		c-0.69-0.54-1.38-1.07-2.04-1.64c-0.27-0.23-0.52-0.48-0.79-0.71c-0.66-0.58-1.33-1.16-1.96-1.77c-0.25-0.24-0.49-0.5-0.74-0.75
		c-0.62-0.62-1.25-1.23-1.85-1.87c-0.24-0.26-0.46-0.53-0.7-0.79c-0.59-0.65-1.18-1.3-1.74-1.97c-0.23-0.28-0.45-0.57-0.68-0.85
		c-0.54-0.67-1.09-1.33-1.6-2.02c-0.2-0.26-0.38-0.54-0.58-0.81c-0.53-0.72-1.05-1.44-1.55-2.18c-0.17-0.25-0.32-0.51-0.49-0.76
		c-0.51-0.77-1.01-1.54-1.49-2.33c-0.21-0.35-0.4-0.71-0.61-1.06c-0.41-0.71-0.83-1.41-1.22-2.13c-0.13-0.23-0.24-0.47-0.36-0.7
		c-1.03-1.94-1.99-3.93-2.86-5.96l0-0.01c-0.13-0.31-0.27-0.62-0.4-0.94l-0.01-0.02c-0.13-0.31-0.26-0.62-0.38-0.94l-0.01-0.02
		l-0.11-0.29l-0.01-0.03c-0.08-0.2-0.16-0.41-0.24-0.62l-0.02-0.04l-0.1-0.27l-0.02-0.04c-0.08-0.2-0.16-0.41-0.23-0.61l-0.02-0.06
		l-0.09-0.24l-0.02-0.07c-0.07-0.2-0.15-0.4-0.22-0.6l-0.02-0.07l-0.09-0.23l-0.03-0.08l-0.09-0.24l-0.02-0.06l-0.1-0.3l-0.02-0.06
		l-0.08-0.24l-0.03-0.09l-0.07-0.21l-0.03-0.09l-0.09-0.26c6.79,22.43,21.25,41.67,45.67,49.89c0.77,0.26,1.54,0.51,2.33,0.74h0
		c37.77-11.33,52.73-48.29,52.73-84.03c-1.25-0.25-2.48-0.5-3.72-0.75C246.32,266.48,231.68,301.68,195.4,312.57z"/>
	<path class="st50" d="M185.05,216.27l-0.36,0.26l-0.36,0.26l-0.36,0.26c-0.24,0.17-0.48,0.34-0.72,0.5l-0.36,0.25
		c-0.24,0.16-0.49,0.32-0.73,0.48l-0.37,0.24c-0.55,0.35-1.12,0.69-1.68,1.02c-0.25,0.15-0.51,0.29-0.76,0.44
		c-0.32,0.18-0.64,0.35-0.96,0.53l-0.39,0.2c-0.19,0.1-0.39,0.2-0.58,0.3c-0.19,0.1-0.39,0.2-0.59,0.3c-0.2,0.1-0.39,0.19-0.59,0.29
		l-0.2,0.1c-1.79,0.86-3.63,1.64-5.51,2.35c-0.31,0.12-0.63,0.24-0.94,0.35c-7.89,2.88-16.51,4.66-25.48,6.46l0,0.33v0.09
		c0,0.25,0,0.5,0.01,0.75l0,0.17c0,0.37,0.01,0.74,0.02,1.12c0,0.21,0.01,0.43,0.01,0.65c0.01,0.33,0.02,0.66,0.03,0.99v0.01
		c0.01,0.26,0.02,0.52,0.03,0.78l0.01,0.27l0.01,0.16c0.01,0.35,0.03,0.71,0.05,1.06c0.02,0.33,0.04,0.66,0.06,0.98l0,0.03
		l0.02,0.38l0.01,0.21l0.01,0.2l0.01,0.13c0.01,0.23,0.03,0.46,0.05,0.69l0.01,0.19l0.02,0.21c0.02,0.26,0.04,0.52,0.06,0.78l0,0.03
		c0.03,0.38,0.07,0.77,0.1,1.15l0.01,0.08l0.04,0.38c0.04,0.38,0.08,0.76,0.12,1.14l0.01,0.11c0.04,0.4,0.09,0.8,0.14,1.19l0,0.02
		l0.04,0.35l0,0.02l0.04,0.33l0.01,0.06l0.04,0.29l0.01,0.08l0.04,0.27l0.01,0.06l0.04,0.28l0.01,0.11l0.03,0.24l0.01,0.1l0.03,0.24
		l0.02,0.13l0.03,0.21l0.02,0.13l0.03,0.21l0.02,0.13l0.03,0.22l0.02,0.12l0.03,0.22l0.02,0.13l0.03,0.21l0.02,0.12l0.04,0.22
		l0.02,0.13l0.03,0.2l0.02,0.15l0.03,0.2l0.02,0.13l0.04,0.21l0.02,0.13l0.04,0.21l0.03,0.15l0.03,0.19l0.03,0.14l0.04,0.21
		l0.02,0.13l0.04,0.22l0.02,0.11l0.04,0.23l0.02,0.12l0.04,0.23l0.02,0.1l0.04,0.23l0.02,0.12l0.04,0.21l0.02,0.13l0.04,0.21
		l0.03,0.13l0.04,0.2l0.03,0.13l0.04,0.21l0.03,0.13l0.05,0.22l0.02,0.12l0.05,0.23l0.02,0.11l0.05,0.25l0.02,0.09l0.06,0.25
		l0.02,0.09l0.07,0.33l0,0.01c0.08,0.34,0.15,0.68,0.23,1.02l0.01,0.04l0.07,0.29l0.02,0.08l0.06,0.26l0.02,0.09l0.06,0.25
		l0.03,0.11l0.06,0.23l0.08,0.33l0.04,0.14l0.05,0.19l0.04,0.14l0.05,0.19l0.04,0.14l0.05,0.2l0.04,0.13l0.05,0.19l0.04,0.17
		l0.05,0.17l0.04,0.15l0.05,0.18l0.04,0.16l0.05,0.16l0.05,0.17l0.05,0.17l0.05,0.17l0.05,0.17l0.04,0.15l0.05,0.18l0.04,0.14
		l0.05,0.18l0.05,0.16l0.05,0.16l0.05,0.16l0.05,0.17l0.05,0.16l0.05,0.17l0.05,0.16l0.05,0.16l0.05,0.17l0.05,0.16l0.05,0.16
		l0.05,0.15l0.06,0.18l0.05,0.15l0.05,0.17l0.05,0.16l0.05,0.17l0.05,0.16l0.05,0.16l0.05,0.16l0.06,0.17l0.05,0.14l0.06,0.18
		l0.09,0.28l0.03,0.09l0.07,0.21l0.03,0.09l0.08,0.24l0.02,0.06l0.1,0.3l0.02,0.06l0.09,0.24l0.03,0.08l0.09,0.23l0.02,0.07
		c0.07,0.2,0.15,0.4,0.22,0.6l0.02,0.07l0.09,0.24l0.02,0.06c0.08,0.2,0.15,0.41,0.23,0.61l0.02,0.04l0.1,0.27l0.02,0.04
		c0.08,0.21,0.16,0.41,0.24,0.62l0.01,0.03l0.11,0.29l0.01,0.02c0.13,0.31,0.25,0.63,0.38,0.94l0.01,0.02
		c0.13,0.31,0.26,0.62,0.4,0.94l0,0.01c0.87,2.03,1.84,4.02,2.86,5.96c0.12,0.23,0.23,0.47,0.36,0.7c0.39,0.72,0.81,1.43,1.22,2.13
		c0.21,0.35,0.4,0.71,0.61,1.06c0.48,0.79,0.98,1.56,1.49,2.33c0.17,0.25,0.32,0.51,0.49,0.76c0.5,0.74,1.03,1.46,1.55,2.18
		c0.19,0.27,0.38,0.54,0.58,0.81c0.52,0.69,1.06,1.35,1.6,2.02c0.23,0.28,0.44,0.57,0.68,0.85c0.56,0.67,1.15,1.32,1.74,1.97
		c0.23,0.26,0.46,0.53,0.7,0.79c0.6,0.64,1.23,1.25,1.85,1.87c0.25,0.25,0.49,0.51,0.74,0.75c0.64,0.61,1.3,1.19,1.96,1.77
		c0.27,0.23,0.52,0.48,0.79,0.71c0.66,0.56,1.35,1.1,2.04,1.64c0.29,0.23,0.58,0.48,0.88,0.7c0.69,0.52,1.42,1.02,2.14,1.52
		c0.32,0.22,0.62,0.45,0.94,0.67c0.73,0.49,1.5,0.95,2.26,1.41c0.33,0.2,0.65,0.42,0.98,0.61c0.76,0.44,1.55,0.86,2.34,1.28
		c0.36,0.19,0.7,0.4,1.07,0.58c0.78,0.39,1.58,0.75,2.39,1.12c0.4,0.18,0.79,0.38,1.19,0.56c0.81,0.35,1.65,0.67,2.49,0.99
		c0.42,0.16,0.83,0.35,1.26,0.5c0.82,0.3,1.67,0.56,2.52,0.84c0.47,0.15,0.92,0.32,1.39,0.46v-25.81l-0.24,0.23
		c-2.27,2.15-5.74,2.14-7.99,0c-0.63-0.6-1.26-1.19-1.89-1.79l-13.3-12.61c-0.26-0.24-0.48-0.5-0.67-0.78
		c-0.68-0.64-1.35-1.28-2.03-1.93c-1.1-1.04-1.59-2.52-1.66-4c-0.07-1.51,0.67-2.92,1.66-4c0.95-1.04,2.61-1.66,4-1.66
		c1.49,0,2.93,0.64,4,1.66l1.88,1.79c2.72,2.58,5.44,5.16,8.16,7.74c0.38,0.36,0.77,0.73,1.15,1.09c0.19-0.18,0.37-0.36,0.56-0.53
		c2.13-2.01,4.25-4.03,6.38-6.04v-60.06l-0.11,0.15C192.18,210.14,188.77,213.5,185.05,216.27z"/>
	<path class="st11" d="M35.78,168.18c0.34-0.07,0.66-0.13,0.97-0.17C36.44,168.05,36.12,168.11,35.78,168.18z"/>
	<path class="st11" d="M44.55,215.9c6.14-1.38,12.28-2.77,18.42-4.15c4.21-0.95,10.18-1.57,13.34-4.93c1.52-1.62,1.57-4.32-0.6-5.19
		c-2.26-0.9-5.82-0.4-8.13,0.07c-0.8,0.17-1.62,0.38-2.43,0.23c-0.8-0.15-1.59-0.8-1.58-1.61c0.02-1.02,1.21-1.8,1.08-2.82
		c-0.11-0.79-1.02-1.24-1.81-1.16c-0.79,0.08-1.47,0.54-2.15,0.97c-5.24,3.3-11.49,4.49-17.58,5.07c-0.65,0.06-1.43,0.08-2.28,0.07
		c0-0.32,0-0.65,0-0.97c-1.52-0.07-3.04-0.14-4.56-0.2c-2.78-0.1-5.56-0.29-8.34-0.43c-1.02-0.05-2.05-0.13-3.08-0.15
		c-0.08,2.43,0.1,4.88,0.35,7.29c0.03,0.27,0.06,0.53,0.1,0.79c-0.07,3.38,3.13,6.37,6.14,7.54c0.29,0.11,0.57,0.21,0.85,0.28
		C36.29,217.71,40.52,216.8,44.55,215.9z"/>
	<path class="st11" d="M21.61,200.52c-0.03-0.03-0.07-0.05-0.1-0.08C21.54,200.47,21.57,200.49,21.61,200.52z"/>
	<path class="st11" d="M37.53,167.95c-0.17,0-0.34,0.02-0.51,0.04c0.25-0.02,0.5-0.05,0.74-0.03L37.53,167.95z"/>
	<path class="st11" d="M22.26,200.79c-0.05-0.01-0.1-0.01-0.15-0.02C22.16,200.78,22.21,200.78,22.26,200.79z"/>
	<path class="st11" d="M50.67,165.43c3.56,1.22,7.34,1.26,10.92,0.11c0.66-0.21,1.38-0.53,1.73-1.32c0.22-0.5,0.25-1.1,0.23-1.7
		c-0.01-0.2-0.02-0.41-0.04-0.61l-0.16-2.22c0.6-0.05,1.18-0.14,1.76-0.25c1.4-0.26,2.71-0.69,3.88-1.31
		c0.9-0.47,1.62-1.14,2.2-1.94c2.4-3.25,2.5-8.67,2.38-12.23c-0.01-0.32-0.02-0.64-0.04-0.97c-0.13-2.35-0.46-4.76-1.09-7.02
		c-0.55,0.12-1.11,0.19-1.67,0.2c-1.04,0.03-2.13-0.1-3.08,0.31c-1.21,0.52-1.91,1.78-2.85,2.7c-1.54,1.52-3.79,2.15-5.96,2.16
		c-1.81,0.01-3.55-0.78-5.29-0.8c-1.85-0.03-0.79,1.92-0.74,3.2c0.06,1.59-0.44,3.33-1.94,4.12c-0.22,0.12-0.43,0.22-0.62,0.34
		c-0.49-0.97-1.19-1.8-2.14-2.26c-3.4-1.64-4.87,1.52-5.03,4.31c-0.06,1.04,0.06,2.03,0.33,2.7c0.6,1.49,1.94,2.81,3.65,3.29
		c0.76,0.21,1.43,0.18,1.98-0.02c0.03,2.09,0.06,4.18,0.09,6.27c0,0.35,0.01,0.72,0.06,1.08c0.06,0.45,0.17,0.87,0.41,1.19
		C49.89,165.15,50.29,165.3,50.67,165.43z"/>
	<path class="st11" d="M21.93,200.7c-0.05-0.02-0.09-0.03-0.14-0.05C21.84,200.67,21.88,200.69,21.93,200.7z"/>
	<path class="st11" d="M23.76,200.71c-0.2,0.01-0.4,0.03-0.6,0.05C23.36,200.74,23.56,200.72,23.76,200.71z"/>
	<path class="st11" d="M22.5,200.81h0.04c0.02,0,0.05-0.01,0.07-0.01c-0.05,0-0.11,0-0.16,0C22.47,200.81,22.49,200.81,22.5,200.81z
		"/>
	<path class="st11" d="M34.04,376.1c0.25,0.09,0.5,0.15,0.76,0.19c0.28,0.04,0.56,0.06,0.85,0.08c1.8,0.09,3.6-0.03,5.37-0.36
		c1.2-0.22,2.31-0.47,2.29-1.82c0-0.38-0.03-0.76-0.06-1.14c-0.05-0.56-0.11-1.12-0.17-1.69c-4.05,0.3-8.12,0.03-10.31-0.13
		c-0.02,0.75-0.09,1.5-0.09,2.25c0,0.27,0,0.53,0.02,0.77C32.77,375.08,33.04,375.71,34.04,376.1z"/>
	<path class="st11" d="M89.56,385.91c0.5-0.22,0.85-0.74,0.84-1.33c-0.01-0.63-0.08-1.24-0.15-1.72c0.07,0.48,0.14,1.08,0.15,1.72
		C90.41,385.18,90.07,385.69,89.56,385.91z"/>
	<path class="st11" d="M62,371.82c-0.03,0.55-0.07,1.11-0.07,1.66c0,0.27,0,0.53,0.02,0.77c0.07,0.83,0.34,1.46,1.34,1.84
		c0.25,0.09,0.5,0.15,0.76,0.19c0.28,0.04,0.56,0.06,0.85,0.08c1.8,0.09,3.6-0.03,5.37-0.36c1.2-0.22,2.31-0.47,2.29-1.82
		c0-0.38-0.03-0.76-0.06-1.14c-0.02-0.26-0.05-0.52-0.08-0.78C66.58,372.7,65.95,372.09,62,371.82z"/>
	<path class="st11" d="M78.13,121.78c0.81,0.32,1.31,1.14,1.63,1.95C79.45,122.92,78.94,122.1,78.13,121.78z"/>
	<path class="st11" d="M79.76,123.73c1.57,4.06-0.25,7.94-3.46,10.46C79.51,131.67,81.33,127.79,79.76,123.73z"/>
	<path class="st11" d="M102.1,194.37c-0.54,0.46-1.22,0.96-1.98,1.49c-0.43-0.49-0.86-0.98-1.3-1.47l-0.37,0.25
		c-3.69,2.18-9.19,5.49-13.51,8.15c2.23,2.51,4.45,5.03,6.67,7.55l0.08,0.08c2.27,2.59,6.86,2.88,9.83,1.81
		c3.88-1.41,6.81-4.59,9.57-7.66c4.21-4.68,8.41-9.37,12.62-14.05c1.62-1.8,3.74-3.85,5.41-6.11c0.42-0.57,0.81-1.16,1.16-1.76
		c0.72-1.24,1.27-2.53,1.45-3.87c0.31-2.2-1.22-4.43-3.49-3.88c-2.36,0.57-4.98,3.04-6.58,4.76c-0.56,0.6-1.1,1.25-1.84,1.59
		c-0.74,0.34-1.76,0.27-2.22-0.4c-0.58-0.84-0.05-2.17-0.75-2.92c-0.54-0.58-1.55-0.43-2.15,0.1c-0.59,0.52-0.89,1.3-1.19,2.03
		c-0.37,0.89-0.8,1.75-1.26,2.59c-0.33,0.6-0.67,1.19-1.04,1.76C108.75,188.19,105.49,191.44,102.1,194.37z"/>
	<path class="st51" d="M67.73,239.43l7.85,0.21c1.45,0.04,3.63,0.68,5.18,0.11c0.32-0.12,0.62-0.28,0.87-0.52
		c1.69-1.57,1.09-5.28,1.13-7.33c0.08-3.36,0.15-6.72,0.23-10.08c0.14-6.04,0.31-12.04,0.34-18.05c0.03-4.69-0.03-9.37-0.26-14.08
		c-0.16-3.36-0.33-6.71-0.49-10.07c-0.06-1.14,0.28-9.21-0.47-9.62c-0.61-0.33-1.22-0.65-1.82-0.95c-3.13-1.59-6.12-2.81-9.12-3.9
		c-2.01-0.74-4.03-1.42-6.08-2.1c-0.52-0.17-1.04-0.34-1.56-0.52c0.02,0.6-0.01,1.19-0.23,1.7c-0.35,0.79-1.07,1.11-1.73,1.32
		c-3.58,1.15-7.36,1.11-10.92-0.11c-0.38-0.13-0.77-0.29-1.05-0.66c-0.23-0.32-0.35-0.74-0.41-1.19c-3.96,1.4-7.72,2.76-11.46,4.38
		c0.65,0.03,1.28,0.2,1.97,0.61c1.4,0.83,2.51,1.83,3.44,3.2c2.32,3.41,2.46,8.53,2.63,12.53c0.12,2.96,0.17,5.92,0.14,8.88
		c-0.02,1.99,0.03,4.27-0.31,6.2c-0.25,1.41-0.84,2.26-2.33,2.2c-0.81-0.03-1.63-0.07-2.44-0.11c0,0.32,0,0.65,0,0.97
		c0.85,0,1.63-0.01,2.28-0.07c6.09-0.58,12.34-1.77,17.58-5.07c0.67-0.42,1.36-0.89,2.15-0.97c0.79-0.08,1.7,0.38,1.81,1.16
		c0.14,1.01-1.06,1.79-1.08,2.82c-0.01,0.82,0.77,1.46,1.58,1.61c0.8,0.15,1.62-0.07,2.43-0.23c2.3-0.48,5.87-0.97,8.13-0.07
		c2.17,0.86,2.12,3.57,0.6,5.19c-3.16,3.36-9.13,3.98-13.34,4.93c-6.14,1.38-12.28,2.77-18.42,4.15c-4.03,0.91-8.26,1.81-12.24,0.71
		c-0.28-0.08-0.57-0.17-0.85-0.28c-0.03,6.07,0.11,12.12,0.5,18.17c0.1,1.61,0.36,2.6,0.96,3.2c0.7,0.7,1.88,0.89,3.86,0.94
		C47.1,238.9,57.41,239.17,67.73,239.43z"/>
	<path class="st51" d="M99.51,189.13c-0.1-0.12-0.19-0.25-0.3-0.4c-0.25-0.34-0.58-0.78-1.2-1.6
		C98.91,188.3,99.2,188.72,99.51,189.13c0.79,1.05,0.96,2.36,0.58,3.5C100.47,191.49,100.31,190.18,99.51,189.13z"/>
	<path class="st52" d="M70.27,376.01c-1.77,0.33-3.58,0.45-5.37,0.36c-0.28-0.01-0.57-0.04-0.85-0.08c-0.26-0.04-0.51-0.1-0.76-0.19
		c-1-0.38-1.28-1.01-1.34-1.84c-0.38,0.33-0.7,0.73-0.93,1.21c-0.6,1.26-0.18,2.18-0.12,3.45c0.05,1.21,0.09,2.47,0.06,3.69
		l-0.03-0.15c-0.7-3.27-4.21-4.59-7.09-5.3c-1.53-0.38-3.13-0.46-4.65-0.84c-1.91-0.48-3.53-1.63-5.13-2.78
		c-0.26-0.18-0.53-0.35-0.81-0.49c0.03,0.38,0.06,0.76,0.06,1.14c0.02,1.35-1.1,1.6-2.29,1.82c-1.77,0.33-3.58,0.45-5.37,0.36
		c-0.28-0.01-0.57-0.04-0.85-0.08c-0.26-0.04-0.51-0.1-0.76-0.19c-1-0.38-1.28-1.01-1.34-1.84c-0.38,0.33-0.7,0.73-0.92,1.21
		c-0.6,1.26-0.18,2.18-0.12,3.45c0.06,1.42,0.11,2.89,0.04,4.31c-0.06,1.18-0.18,2.23,1.21,2.68c1.42,0.46,3.67,0.14,4.77,0.14h22.6
		c0.47,0,0.86-0.37,0.88-0.84c0.18,0.3,0.48,0.54,0.99,0.71c1.42,0.46,3.67,0.14,4.77,0.14h22.1c0.2,0,0.38-0.04,0.55-0.11
		c0.5-0.22,0.85-0.74,0.84-1.33c-0.01-0.63-0.07-1.24-0.15-1.72c-0.02-0.16-0.05-0.3-0.08-0.43c-0.7-3.27-4.21-4.59-7.09-5.3
		c-1.53-0.38-3.13-0.46-4.65-0.84c-1.91-0.48-3.54-1.63-5.13-2.78c-0.26-0.18-0.53-0.35-0.8-0.49c0.03,0.38,0.06,0.76,0.06,1.14
		C72.58,375.53,71.47,375.78,70.27,376.01z"/>
	<path class="st53" d="M98.45,194.64l0.37-0.25c0.61-0.46,1.04-1.08,1.27-1.77c0.38-1.14,0.22-2.45-0.58-3.5
		c-0.31-0.41-0.6-0.83-1.5-2c-0.3-0.39-0.67-0.86-1.12-1.45c-3.59-4.58-6.74-9.64-11.39-13.3c-1.47-1.16-3.31-2.66-5.2-3.33
		c0.6,0.3,1.21,0.62,1.82,0.95c0.75,0.41,0.42,8.49,0.47,9.62c0.16,3.36,0.33,6.71,0.49,10.07c0.22,4.7,0.28,9.39,0.26,14.08
		c0.51-0.32,1.05-0.65,1.61-0.99C89.26,200.14,94.76,196.83,98.45,194.64z"/>
	<path class="st34" d="M31.71,371.16c0.27,0.01,0.63,0.04,1.06,0.07c2.19,0.15,6.26,0.43,10.31,0.13c0.63-0.05,1.26-0.11,1.88-0.19
		l0.23-0.24c0.24-2.15,0.5-4.55,0.78-7.13c2.01-18.78,4.88-47.89,7.07-73.76c1.23-14.51,2.24-28.01,2.76-38.07
		c0.02-0.38,0.53-0.37,0.53,0.01c0.06,2.89,0.13,6.09,0.23,9.54c0.25,9.36,0.62,20.56,1.04,32.26c0.86,24.52,1.9,51.25,2.38,68.02
		c0.11,3.76,0.19,7.03,0.23,9.65c0,0.16,0.11,0.29,0.26,0.29c0.56,0.02,1.07,0.04,1.53,0.08c3.95,0.27,4.58,0.88,10.43,0.45h0.01
		l2.35-0.01c0.43-2.3,0.87-6.61,1.32-12.4c1.14-14.65,2.31-38.84,3.2-64.31c0.36-10.26,0.68-20.72,0.94-30.85
		c0.01-0.19,0.01-0.39,0.01-0.58c0.13-5.11,0.24-10.13,0.33-14.99c0.06-3.2,0.12-6.33,0.16-9.38c-1.55,0.56-3.73-0.08-5.18-0.11
		l-7.85-0.21c-10.32-0.27-20.63-0.54-30.95-0.81c-1.98-0.05-3.16-0.24-3.86-0.94c-0.89,44.9-1.27,110.55-1.41,128.63
		c-0.02,2.4-0.03,3.97-0.04,4.54C31.45,371.02,31.57,371.15,31.71,371.16z"/>
	<path class="st52" d="M48.14,145.95c0.95,0.46,1.65,1.29,2.14,2.26c0.2-0.11,0.4-0.22,0.62-0.34c1.51-0.78,2-2.52,1.94-4.12
		c-0.05-1.27-1.11-3.23,0.74-3.2c1.75,0.02,3.49,0.81,5.29,0.8c2.17-0.01,4.41-0.64,5.96-2.16c0.94-0.93,1.63-2.18,2.85-2.7
		c0.96-0.41,2.04-0.28,3.08-0.31c0.56-0.02,1.12-0.09,1.67-0.2c0.63,2.26,0.96,4.68,1.09,7.02c0.37-0.09,0.73-0.22,1.04-0.4
		c1.25-0.69,1.68-1.86,1.87-2.95c0.11-0.62,0.14-1.25,0.11-1.87c-0.05-0.83-0.23-1.65-0.67-2.43c-0.12-0.21-0.25-0.41-0.4-0.6
		c0.28-0.18,0.56-0.37,0.82-0.57c3.22-2.52,5.04-6.4,3.46-10.46c-0.32-0.81-0.81-1.63-1.63-1.95c-1.04-0.41-2.18,0.13-3.21,0.58
		c-1.2,0.52-2.46,0.89-3.74,1.15c-1.11,0.22-2.23,0.35-3.36,0.38c-0.93,0.02-1.82-0.21-2.72-0.47c-0.78-0.23-1.57-0.49-2.37-0.64
		c-1.92-0.36-3.9-0.46-5.85-0.32c-2.49,0.18-4.94,0.8-7.25,1.76c-1.24,0.52-2.46,1.11-3.58,1.85c-1.64,1.08-3.16,2.39-4.26,4.01
		c-1.75,2.57-2.47,6.36-2.41,9.43c0.06,3.4,0.78,7.03,2.82,9.82c0.21,0.29,0.53,0.62,0.9,0.95
		C43.27,147.48,44.74,144.31,48.14,145.95z"/>
	<path class="st53" d="M36.29,201.28c1.52,0.06,3.04,0.13,4.56,0.2c0.81,0.04,1.63,0.07,2.44,0.11c1.49,0.06,2.08-0.79,2.33-2.2
		c0.34-1.94,0.29-4.21,0.31-6.2c0.03-2.96-0.01-5.92-0.14-8.88c-0.17-4-0.31-9.12-2.63-12.53c-0.93-1.37-2.04-2.37-3.44-3.2
		c-0.69-0.41-1.31-0.58-1.97-0.61c-0.24-0.01-0.49,0.01-0.74,0.03c-0.09,0.01-0.17,0.01-0.26,0.02c-0.31,0.04-0.63,0.1-0.97,0.17
		c-1.73,0.36-3.38,1.05-4.89,1.99c-1.28,0.8-2.45,1.77-3.48,2.88c-2.98,3.21-4.81,7.44-5.73,11.79c-0.92,4.35-0.99,8.85-0.84,13.31
		c0.02,0.67,0.06,1.38,0.4,1.96c0.08,0.13,0.17,0.24,0.26,0.33c0.03,0.03,0.07,0.05,0.1,0.08c0.06,0.05,0.12,0.1,0.19,0.13
		c0.04,0.02,0.09,0.04,0.14,0.05c0.06,0.02,0.12,0.05,0.18,0.06c0.05,0.01,0.1,0.02,0.15,0.02c0.06,0.01,0.13,0.02,0.19,0.02
		c0.05,0,0.11,0,0.16,0c0.18-0.01,0.36-0.02,0.54-0.04c0.2-0.02,0.4-0.05,0.6-0.05c0.37-0.01,0.74-0.01,1.12-0.01
		c1.03,0.02,2.06,0.1,3.08,0.15C30.73,200.99,33.51,201.18,36.29,201.28z"/>
	<path class="st24" d="M445.42,171.9C445.43,171.9,445.43,171.9,445.42,171.9C445.43,171.9,445.42,171.9,445.42,171.9l-0.26,0.07
		c-0.18,0.05-0.36,0.1-0.54,0.16c-0.26,0.08-0.51,0.17-0.77,0.26l-0.01,0c0.19-0.07,0.38-0.12,0.57-0.18
		C444.75,172.11,445.08,171.99,445.42,171.9z"/>
	<path class="st24" d="M440.06,174.24c-0.01,0-0.01,0.01-0.02,0.01c0.03-0.02,0.06-0.04,0.08-0.06L440.06,174.24z"/>
	<polygon class="st24" points="441.49,173.42 441.49,173.42 441.5,173.42 	"/>
	<polygon class="st24" points="440.85,173.77 440.87,173.76 440.87,173.76 440.82,173.78 440.85,173.77 	"/>
	<path class="st24" d="M435.09,178.64c-0.05,0.07-0.12,0.13-0.17,0.2l-0.06,0.07c-0.01,0.02-0.03,0.04-0.04,0.05
		c0.08-0.1,0.17-0.2,0.25-0.3C435.08,178.66,435.08,178.65,435.09,178.64z"/>
	<path class="st24" d="M436.22,177.36c-0.07,0.08-0.15,0.15-0.22,0.23c0.03-0.03,0.06-0.06,0.1-0.1
		C436.14,177.45,436.17,177.41,436.22,177.36z"/>
	<path class="st24" d="M434.66,179.18c-0.06,0.07-0.11,0.15-0.17,0.22l-0.03,0.04c0.04-0.05,0.08-0.1,0.12-0.15
		C434.61,179.25,434.63,179.21,434.66,179.18z"/>
	<path class="st24" d="M432.19,183.44l-0.03,0.08c-0.08,0.19-0.16,0.38-0.24,0.58l0,0c-0.03,0.07-0.04,0.15-0.07,0.23
		c0.02-0.05,0.04-0.1,0.06-0.15C432,183.92,432.09,183.68,432.19,183.44z"/>
	<path class="st24" d="M432.83,182.07l-0.04,0.09c-0.08,0.16-0.17,0.33-0.25,0.5l-0.09,0.18c-0.04,0.09-0.08,0.18-0.12,0.26
		c0.07-0.16,0.15-0.31,0.22-0.46C432.65,182.46,432.73,182.26,432.83,182.07z"/>
	<path class="st24" d="M432.94,181.87c-0.02,0.03-0.04,0.06-0.05,0.09l-0.02,0.04c0.01-0.03,0.03-0.05,0.05-0.08
		C432.92,181.9,432.93,181.89,432.94,181.87z"/>
	<path class="st24" d="M431.23,186.26L431.23,186.26c0-0.01,0.01-0.03,0.01-0.05C431.24,186.23,431.23,186.25,431.23,186.26z"/>
	<path class="st24" d="M432.24,183.32c-0.01,0.02-0.01,0.03-0.02,0.05l0,0.01c0.01-0.01,0.01-0.02,0.02-0.04
		C432.23,183.33,432.24,183.32,432.24,183.32z"/>
	<path class="st24" d="M434.4,179.53L434.4,179.53c-0.12,0.16-0.23,0.32-0.33,0.48l-0.11,0.17c-0.02,0.03-0.04,0.07-0.06,0.1
		c0.08-0.12,0.17-0.23,0.25-0.35C434.23,179.79,434.31,179.65,434.4,179.53z"/>
	<path class="st24" d="M433.57,180.77l-0.03,0.04c-0.09,0.16-0.19,0.31-0.28,0.47l-0.11,0.2c-0.03,0.05-0.05,0.1-0.08,0.15
		c0.07-0.13,0.15-0.26,0.23-0.39C433.39,181.09,433.47,180.93,433.57,180.77z"/>
	<path class="st24" d="M433.75,180.48c-0.03,0.05-0.07,0.1-0.1,0.15l-0.04,0.06c0.03-0.04,0.05-0.08,0.08-0.12
		C433.72,180.54,433.73,180.51,433.75,180.48z"/>
	<path class="st24" d="M447.71,171.43c0.19-0.03,0.37-0.05,0.56-0.07C448.09,171.38,447.9,171.4,447.71,171.43z"/>
	<path class="st24" d="M471.18,195.07l-0.44-0.04c-0.18-0.01-0.35-0.02-0.53-0.02h-11.85c-3.85,3.02-7.66,6.1-11.41,9.24
		c-8.99,7.52-17.81,15.3-26.41,23.3v9.69c0,1.6,0.48,3.09,1.3,4.33c1.23,1.86,3.23,3.17,5.55,3.47c0.33,0.04,0.67,0.06,1.01,0.06
		h41.8c4.34,0,7.86-3.52,7.86-7.86v-34.37c0-1.73-0.56-3.32-1.5-4.62C475.31,196.53,473.39,195.34,471.18,195.07z M450.66,210.05
		c0.39,0,0.77,0.06,1.15,0.11c0.02,0,0.04-0.01,0.05-0.01c0.05,0.01,0.09,0.02,0.13,0.03c0.3,0.05,0.59,0.12,0.88,0.2
		c0.19,0.05,0.39,0.1,0.58,0.17c0.27,0.09,0.53,0.21,0.79,0.33c0.19,0.09,0.38,0.18,0.56,0.28c0.24,0.13,0.47,0.27,0.69,0.43
		c0.18,0.13,0.36,0.26,0.53,0.4c0.2,0.16,0.4,0.33,0.58,0.5c0.17,0.17,0.33,0.34,0.49,0.53c0.16,0.18,0.32,0.36,0.46,0.55
		c0.16,0.21,0.3,0.44,0.43,0.67c0.11,0.19,0.23,0.37,0.33,0.56c0.14,0.28,0.25,0.57,0.36,0.87c0.06,0.17,0.14,0.33,0.19,0.5
		c0.14,0.48,0.25,0.97,0.31,1.48v0l0.01,0.07l0.01,0.09l0,0.04l0,0.06l0,0.05l0,0.05l0,0.05l0,0.05l0,0.06l0,0.05l0,0.06l0,0.05
		l0,0.06l0,0.05l0,0.07v0.03l0,0.11c0,3.45-2.04,6.41-4.97,7.77v5.87l0,0.07v0.01l0,0.06v0.01l0,0.06l0,0.01l0,0.07l0,0.01
		l-0.01,0.14v0c-0.04,0.31-0.13,0.6-0.24,0.88c-0.02,0.06-0.05,0.12-0.08,0.18c-0.13,0.27-0.27,0.53-0.46,0.76
		c-0.01,0.01-0.02,0.02-0.03,0.03c-0.18,0.22-0.4,0.42-0.63,0.59c-0.04,0.03-0.08,0.06-0.12,0.09c-0.25,0.17-0.52,0.32-0.82,0.42
		c-0.01,0-0.01,0.01-0.02,0.01c0,0,0,0,0,0c-0.38,0.13-0.78,0.21-1.2,0.21c-2,0-3.61-1.62-3.61-3.61v-5.87
		c-2.93-1.36-4.97-4.33-4.97-7.77C442.08,213.89,445.92,210.05,450.66,210.05z"/>
	<path class="st54" d="M439.84,178.89c-3.14,3.48-6.33,6.99-9.15,10.75c-0.04,0.54-0.1,1.07-0.1,1.62v3.74h6.28v-3.74
		c0-7.61,6.19-13.79,13.79-13.79c0.33,0,0.66,0.01,0.98,0.03c0.97,0.07,1.91,0.24,2.82,0.5c1.59-1.61,3.16-3.24,4.67-4.93
		c0.74,0.35,1.44,0.75,2.13,1.17c-2.82-1.76-6.1-2.86-9.62-3.03c-0.33-0.02-0.65-0.02-0.98-0.02c-0.81,0-1.6,0.07-2.39,0.16
		c-0.19,0.02-0.37,0.05-0.56,0.07c-0.16,0.02-0.31,0.04-0.47,0.06c-0.07,0.01-0.14,0.03-0.21,0.04
		C444.54,173.87,442.14,176.33,439.84,178.89z"/>
	<path class="st54" d="M438.55,175.3c0.2-0.16,0.41-0.31,0.62-0.46C438.96,174.99,438.75,175.14,438.55,175.3z"/>
	<path class="st54" d="M431.58,185.08c-0.12,0.37-0.24,0.75-0.34,1.13c0,0.02-0.01,0.03-0.01,0.05h-0.01
		c-0.01,0.02-0.01,0.04-0.01,0.07C431.32,185.91,431.45,185.49,431.58,185.08z"/>
	<path class="st54" d="M440.85,173.77l-0.02,0.01l-0.05,0.03c-0.21,0.12-0.42,0.24-0.63,0.37l-0.02,0.01
		c-0.03,0.02-0.06,0.04-0.08,0.06c-0.09,0.05-0.17,0.12-0.26,0.17C440.14,174.2,440.48,173.97,440.85,173.77z"/>
	<path class="st54" d="M444.42,172.21c-0.19,0.06-0.38,0.11-0.57,0.18l-0.04,0.01c-0.24,0.09-0.48,0.18-0.71,0.27l-0.08,0.03
		c-0.23,0.09-0.45,0.19-0.67,0.29l-0.02,0.01C443,172.71,443.7,172.45,444.42,172.21z"/>
	<path class="st54" d="M437.9,175.8c-0.07,0.05-0.14,0.1-0.2,0.16l-0.2,0.17l-0.09,0.07h0.01c-0.08,0.07-0.15,0.14-0.22,0.21
		C437.43,176.2,437.67,176,437.9,175.8z"/>
	<path class="st54" d="M442.29,173.03l-0.05,0.02c-0.22,0.1-0.43,0.2-0.64,0.31l-0.1,0.05l-0.01,0.01
		c-0.21,0.11-0.42,0.22-0.62,0.33l-0.02,0.01C441.32,173.51,441.8,173.26,442.29,173.03z"/>
	<path class="st54" d="M446.66,171.62c-0.41,0.08-0.83,0.17-1.23,0.28c0,0-0.01,0-0.01,0C445.83,171.79,446.25,171.7,446.66,171.62z
		"/>
	<path class="st54" d="M432.91,181.92c-0.01,0.03-0.03,0.05-0.05,0.08c-0.01,0.02-0.02,0.05-0.04,0.07
		c-0.1,0.19-0.18,0.38-0.27,0.57C432.67,182.4,432.79,182.16,432.91,181.92z"/>
	<path class="st54" d="M432.23,183.34c-0.01,0.01-0.01,0.02-0.02,0.04c-0.01,0.02-0.02,0.04-0.03,0.07
		c-0.1,0.24-0.19,0.49-0.28,0.73C432.01,183.89,432.11,183.61,432.23,183.34z"/>
	<path class="st54" d="M435.56,178.08c-0.16,0.18-0.32,0.37-0.47,0.56c-0.01,0.01-0.01,0.02-0.02,0.02
		C435.23,178.47,435.39,178.28,435.56,178.08z"/>
	<path class="st54" d="M436.63,176.96c-0.14,0.13-0.27,0.27-0.41,0.41c-0.04,0.04-0.08,0.09-0.12,0.13
		C436.27,177.31,436.45,177.13,436.63,176.96z"/>
	<path class="st54" d="M433.7,180.57c-0.03,0.04-0.05,0.08-0.08,0.12c-0.02,0.03-0.03,0.06-0.05,0.08
		c-0.09,0.15-0.18,0.31-0.27,0.47C433.43,181.02,433.56,180.79,433.7,180.57z"/>
	<path class="st54" d="M434.58,179.29c-0.04,0.05-0.08,0.1-0.12,0.15c-0.02,0.03-0.04,0.05-0.06,0.08
		c-0.09,0.13-0.17,0.26-0.26,0.39C434.28,179.71,434.43,179.5,434.58,179.29z"/>
	<path class="st54" d="M430.72,189.14c0.03-0.25,0.05-0.5,0.09-0.75C430.77,188.64,430.75,188.89,430.72,189.14z"/>
	<path class="st54" d="M461.7,174.54c0.61,0.4,1.19,0.83,1.75,1.29C462.89,175.37,462.3,174.94,461.7,174.54z"/>
	<path class="st54" d="M465.69,178.01c0.45,0.51,0.88,1.04,1.27,1.6C466.56,179.05,466.14,178.52,465.69,178.01z"/>
	<path class="st54" d="M463.65,175.99c0.62,0.53,1.2,1.09,1.75,1.69C464.85,177.08,464.27,176.52,463.65,175.99z"/>
	<path class="st54" d="M464.45,191.27v3.74h5.75c0.18,0,0.36,0.01,0.53,0.02v-3.76c0-4.24-1.34-8.17-3.59-11.41
		c-1.5,1.54-2.99,3.08-4.47,4.64C463.81,186.51,464.45,188.82,464.45,191.27z"/>
	<path class="st55" d="M438.83,191.27c0-5.73,3.52-10.65,8.51-12.73c1.34-0.56,2.78-0.92,4.3-1.03c-0.33-0.02-0.65-0.03-0.98-0.03
		c-7.61,0-13.79,6.19-13.79,13.79v3.74h1.97V191.27z"/>
	<path class="st56" d="M476.56,198.25c3.82,0.49,6.78,3.72,6.85,7.66c0.02-1.79-0.18-3.58-0.97-5.18c-1.02-2.05-2.96-3.59-5.12-4.48
		c-1.47-0.6-3.03-0.93-4.62-1.08c-0.51-0.05-1.01-0.08-1.52-0.1C473.39,195.34,475.31,196.53,476.56,198.25z"/>
	<path class="st56" d="M421.84,241.57l0.01,0.01c0.62,1.12,1.4,2.14,2.32,3.03c0.52,0.5,1.08,0.97,1.68,1.37
		c2.05,1.41,4.52,2.2,7.01,2.25h0.19c-2.32-0.21-4.35-1.42-5.65-3.21C425.07,244.74,423.07,243.43,421.84,241.57z"/>
	<path class="st57" d="M483.41,205.91c-0.07-3.94-3.03-7.17-6.85-7.66c0.95,1.3,1.5,2.89,1.5,4.62v34.37c0,4.34-3.52,7.86-7.86,7.86
		h-41.8c-0.34,0-0.68-0.02-1.01-0.06c1.3,1.78,3.33,3,5.65,3.21c0.23,0.02,0.47,0.03,0.71,0.03h41.8c4.34,0,7.86-3.52,7.86-7.86
		v-34.37L483.41,205.91z"/>
	<path class="st58" d="M446.94,204.25c3.75-3.14,7.56-6.22,11.41-9.24H428.4c-4.34,0-7.86,3.52-7.86,7.86v24.68
		C429.14,219.55,437.95,211.77,446.94,204.25z"/>
	<path class="st57" d="M447.05,226.4v5.87c0,2,1.62,3.61,3.61,3.61c0.42,0,0.82-0.08,1.2-0.21c-1.4-0.5-2.4-1.83-2.4-3.4v-5.87
		c-2.93-1.36-4.97-4.33-4.97-7.77c0-4.31,3.18-7.86,7.32-8.47c-0.38-0.05-0.76-0.11-1.15-0.11c-4.74,0-8.58,3.84-8.58,8.58
		C442.08,222.07,444.11,225.04,447.05,226.4z"/>
	<path class="st57" d="M457.09,212.99c0.16,0.18,0.32,0.36,0.46,0.55C457.41,213.35,457.25,213.17,457.09,212.99z"/>
	<path class="st57" d="M452,210.17c0.3,0.05,0.59,0.12,0.88,0.2C452.58,210.29,452.3,210.22,452,210.17z"/>
	<path class="st57" d="M453.45,210.54c0.27,0.09,0.53,0.21,0.79,0.33C453.98,210.74,453.72,210.63,453.45,210.54z"/>
	<path class="st57" d="M456.02,211.96c0.2,0.16,0.4,0.33,0.58,0.5C456.42,212.29,456.22,212.13,456.02,211.96z"/>
	<path class="st57" d="M457.99,214.22c0.11,0.19,0.23,0.37,0.33,0.56C458.22,214.58,458.1,214.4,457.99,214.22z"/>
	<path class="st57" d="M454.8,211.14c0.24,0.13,0.47,0.27,0.69,0.43C455.27,211.41,455.04,211.27,454.8,211.14z"/>
	<path class="st57" d="M453.93,233.77c-0.13,0.27-0.27,0.53-0.46,0.76C453.66,234.3,453.81,234.04,453.93,233.77z"/>
	<path class="st57" d="M452.7,235.24c-0.25,0.17-0.52,0.32-0.82,0.42C452.17,235.56,452.44,235.42,452.7,235.24z"/>
	<path class="st57" d="M458.68,215.65c0.06,0.17,0.14,0.33,0.19,0.5C458.82,215.97,458.74,215.81,458.68,215.65z"/>
	<path class="st57" d="M453.44,234.57c-0.18,0.22-0.4,0.42-0.63,0.59C453.05,234.98,453.26,234.79,453.44,234.57z"/>
	<path class="st57" d="M454.25,232.71c-0.04,0.31-0.13,0.6-0.24,0.88C454.12,233.31,454.21,233.02,454.25,232.71z"/>
	<path class="st59" d="M444.49,218.63c0,3.45,2.04,6.41,4.97,7.77v5.87c0,1.57,1,2.9,2.4,3.4c0,0,0,0,0,0
		c0.01,0,0.01-0.01,0.02-0.01c0.29-0.1,0.56-0.25,0.82-0.42c0.04-0.03,0.08-0.06,0.12-0.09c0.23-0.17,0.45-0.37,0.63-0.59
		c0.01-0.01,0.02-0.02,0.03-0.03c0.19-0.23,0.33-0.49,0.46-0.76c0.03-0.06,0.05-0.12,0.08-0.18c0.11-0.28,0.2-0.57,0.24-0.88v0
		l0.01-0.14l0-0.01l0-0.07l0-0.01l0-0.06v-0.01l0-0.06v-0.01l0-0.07v-5.87c2.93-1.36,4.97-4.33,4.97-7.77l0-0.11v-0.03l0-0.07
		l0-0.05l0-0.06l0-0.05l0-0.06l0-0.05l0-0.06l0-0.05l0-0.05l0-0.05l0-0.05l0-0.06l0-0.04l-0.01-0.09l-0.01-0.07v0
		c-0.06-0.51-0.17-1-0.31-1.48c-0.05-0.17-0.13-0.33-0.19-0.5c-0.11-0.3-0.22-0.59-0.36-0.87c-0.1-0.19-0.22-0.38-0.33-0.56
		c-0.14-0.23-0.27-0.46-0.43-0.67c-0.14-0.19-0.3-0.37-0.46-0.55c-0.16-0.18-0.32-0.36-0.49-0.53c-0.18-0.18-0.38-0.34-0.58-0.5
		c-0.17-0.14-0.35-0.27-0.53-0.4c-0.22-0.15-0.45-0.3-0.69-0.43c-0.18-0.1-0.37-0.19-0.56-0.28c-0.26-0.12-0.52-0.23-0.79-0.33
		c-0.19-0.06-0.38-0.11-0.58-0.17c-0.29-0.08-0.58-0.15-0.88-0.2c-0.05-0.01-0.09-0.02-0.13-0.03c-0.02,0-0.04,0.01-0.05,0.01
		C447.67,210.76,444.49,214.32,444.49,218.63z"/>
	<path class="st55" d="M461.7,174.54c0.61,0.4,1.19,0.83,1.75,1.29c0.07,0.06,0.14,0.1,0.2,0.16c0.62,0.53,1.2,1.09,1.75,1.69
		c0.1,0.11,0.19,0.22,0.28,0.33c0.45,0.51,0.88,1.04,1.27,1.6c0.06,0.09,0.14,0.16,0.2,0.25c0,0-0.01,0.01-0.01,0.01
		c2.25,3.24,3.59,7.17,3.59,11.41v3.76l0.44,0.04c0.51,0.02,1.02,0.05,1.52,0.1v-3.9c0-11.07-9.01-20.08-20.08-20.08
		c-0.33,0-0.66,0.01-0.98,0.02c3.52,0.17,6.8,1.27,9.62,3.03C461.41,174.35,461.55,174.44,461.7,174.54z"/>
	<path class="st60" d="M439.84,178.89c2.31-2.56,4.7-5.02,7.2-7.36l0,0c-0.13,0.02-0.25,0.06-0.38,0.09
		c-0.42,0.08-0.83,0.17-1.24,0.28c-0.34,0.09-0.67,0.21-1.01,0.32c-0.71,0.23-1.42,0.49-2.09,0.8c-0.01,0.01-0.02,0.01-0.03,0.02
		c-0.49,0.23-0.97,0.47-1.44,0.73c0,0,0,0,0,0c-0.36,0.2-0.71,0.43-1.06,0.65c-0.21,0.14-0.42,0.28-0.62,0.42
		c-0.21,0.15-0.42,0.3-0.62,0.46c-0.22,0.17-0.43,0.33-0.64,0.51c-0.24,0.2-0.47,0.4-0.7,0.61c-0.2,0.18-0.39,0.36-0.58,0.55
		c-0.18,0.18-0.36,0.36-0.53,0.54c-0.03,0.03-0.06,0.06-0.1,0.1c-0.15,0.16-0.3,0.32-0.44,0.49c-0.17,0.19-0.33,0.39-0.49,0.58
		c-0.08,0.1-0.17,0.2-0.25,0.3c-0.05,0.07-0.1,0.14-0.16,0.21c-0.03,0.04-0.05,0.08-0.08,0.12c-0.15,0.2-0.3,0.42-0.44,0.63
		c-0.08,0.12-0.17,0.23-0.25,0.35c-0.05,0.07-0.09,0.14-0.14,0.22c-0.02,0.03-0.03,0.06-0.05,0.09c-0.14,0.22-0.27,0.45-0.4,0.67
		c-0.08,0.13-0.16,0.26-0.23,0.39c-0.04,0.08-0.09,0.16-0.13,0.24c-0.01,0.02-0.02,0.04-0.03,0.05c-0.13,0.24-0.24,0.48-0.35,0.72
		c-0.07,0.15-0.15,0.3-0.22,0.46c-0.03,0.07-0.06,0.14-0.1,0.21c0,0.01-0.01,0.01-0.01,0.02c-0.12,0.27-0.22,0.55-0.32,0.83
		c-0.02,0.05-0.04,0.1-0.06,0.15c-0.09,0.25-0.18,0.5-0.27,0.76c-0.13,0.41-0.26,0.83-0.37,1.25c-0.17,0.67-0.3,1.36-0.4,2.06
		c-0.04,0.25-0.06,0.5-0.09,0.75c-0.02,0.19-0.05,0.37-0.07,0.56c0.01-0.02,0.02-0.03,0.03-0.04
		C433.51,185.88,436.7,182.38,439.84,178.89z"/>
	<path class="st60" d="M462.67,184.51L462.67,184.51c1.48-1.57,2.97-3.12,4.48-4.65c0,0,0.01-0.01,0.01-0.01
		c-0.06-0.09-0.14-0.16-0.2-0.25c-0.4-0.55-0.82-1.09-1.27-1.6c-0.1-0.11-0.19-0.22-0.28-0.33c-0.55-0.6-1.13-1.16-1.75-1.69
		c-0.07-0.06-0.14-0.11-0.2-0.16c-0.56-0.46-1.14-0.89-1.75-1.29c-0.14-0.1-0.29-0.19-0.43-0.28c-0.68-0.43-1.39-0.83-2.13-1.17
		c-1.51,1.69-3.08,3.32-4.67,4.93l0,0C457.97,179.02,460.91,181.4,462.67,184.51z"/>
</g>
</svg>
