<svg xmlns="http://www.w3.org/2000/svg" viewBox="0 0 33.49 34"><defs><style>.cls-1{fill:#f4a196;}</style></defs><g id="Layer_2" data-name="Layer 2"><g id="Layer_1-2" data-name="Layer 1"><path id="Union_1" data-name="Union 1" class="cls-1" d="M6.2,22A9.44,9.44,0,0,1,4,16C4,10.5,8.9,6,15,6s11,4.5,11,10S21.1,26,15,26a12.7,12.7,0,0,1-3.4-.5l.1.1-8,2.7Z"/><path id="starred-message-2" d="M32.3,14a12.65,12.65,0,0,1-2.4,7.5,1.36,1.36,0,0,1-1.7.3,1.25,1.25,0,0,1-.3-1.6,10.66,10.66,0,0,0,2-6.2c0-6.4-5.7-11.6-12.8-11.6S4.3,7.6,4.3,14A11,11,0,0,0,7,21.1a1.06,1.06,0,0,1,.2,1.2L5.3,26.9l5.4-2.4a1.39,1.39,0,0,1,.9,0,13.83,13.83,0,0,0,11.6-.4,1.19,1.19,0,1,1,1.1,2.1h0a16,16,0,0,1-13.2.6L3.5,30.2a1.2,1.2,0,0,1-1.6-.6,1.39,1.39,0,0,1,0-.9l2.7-6.6a13.13,13.13,0,0,1,1.7-18A15.47,15.47,0,0,1,17,.1a16.33,16.33,0,0,1,10.7,4A12.77,12.77,0,0,1,32.3,14Z"/><circle id="Ellipse_84" data-name="Ellipse 84" class="cls-1" cx="1.8" cy="1.8" r="1.8"/><circle id="Ellipse_85" data-name="Ellipse 85" class="cls-1" cx="5.9" cy="1.8" r="0.7"/><path id="Path_332" data-name="Path 332" d="M32.6,25.5l-9.2-9.2a6.28,6.28,0,0,0,.3-1.9,6.71,6.71,0,0,0-1.8-4.5h0a6.4,6.4,0,0,0-6.8-1.5,1,1,0,0,0-.5,1.2c0,.1.1.2.2.3L16.9,12l-.5,1.4-1.3.5L13,11.7a.85.85,0,0,0-1.3,0c-.1.1-.1.2-.2.3a6.44,6.44,0,0,0-.5,2.4,6.91,6.91,0,0,0,1.8,4.5,6.16,6.16,0,0,0,5.9,1.7L28.1,30a3.14,3.14,0,0,0,4.4,0A3.17,3.17,0,0,0,32.6,25.5Zm-1.3,3.2a1.39,1.39,0,0,1-1.9,0L19.7,19a.86.86,0,0,0-.6-.3h-.3a6.75,6.75,0,0,1-1.4.2,4.63,4.63,0,0,1-3.2-1.3,4.82,4.82,0,0,1-1.3-3.2v-.3l1.4,1.4a1,1,0,0,0,.9.2l2.2-.7a.9.9,0,0,0,.6-.6l.8-2.4a1,1,0,0,0-.2-.9L17.3,9.8a4.6,4.6,0,0,1,3.3,1.3,4.82,4.82,0,0,1,1.3,3.2,3.92,3.92,0,0,1-.4,1.8,1,1,0,0,0,.2,1l9.6,9.6a1.34,1.34,0,0,1,0,2Z"/><circle id="Ellipse_86" data-name="Ellipse 86" class="cls-1" cx="23.9" cy="32" r="2"/><circle id="Ellipse_87" data-name="Ellipse 87" class="cls-1" cx="19.9" cy="31.1" r="1"/></g></g></svg>