<?xml version="1.0" encoding="utf-8"?>
<!-- Generator: Adobe Illustrator 26.0.3, SVG Export Plug-In . SVG Version: 6.00 Build 0)  -->
<svg version="1.1" xmlns="http://www.w3.org/2000/svg" xmlns:xlink="http://www.w3.org/1999/xlink" x="0px" y="0px"
	 viewBox="0 0 633 606.56" style="enable-background:new 0 0 633 606.56;" xml:space="preserve">
<style type="text/css">
	.st0{fill:#E0E0E0;}
	.st1{fill:#FAFAFA;}
	.st2{fill:#EBEBEB;}
	.st3{fill:#F5F5F5;}
	.st4{fill:#FFFFFF;}
	.st5{fill:none;stroke:#FBFBFB;stroke-width:0.25;stroke-miterlimit:10;}
	.st6{display:none;}
	.st7{display:inline;fill:#EBEBEB;}
	.st8{fill:#263238;}
	.st9{fill:#E8505B;}
	.st10{opacity:0.24;}
	.st11{opacity:0.3;}
	.st12{fill:#455A64;}
	.st13{fill:#FFBE9D;}
	.st14{fill:#EB996E;}
</style>
<g id="Background_Complete">
	<g>
		<g>
			<g>
				<g>
					<g>
						<g>
							
								<rect x="120.61" y="498.31" transform="matrix(6.123234e-17 -1 1 6.123234e-17 -413.4031 665.6383)" class="st0" width="11.01" height="82.42"/>
						</g>
					</g>
				</g>
			</g>
			<g>
				<g>
					<g>
						<g>
							<g>
								<path class="st1" d="M96.14,534.47c0.29,0,0.52,2.31,0.52,5.16c0,2.85-0.23,5.16-0.52,5.16s-0.52-2.31-0.52-5.16
									C95.62,536.78,95.85,534.47,96.14,534.47z"/>
							</g>
						</g>
					</g>
				</g>
			</g>
			<g>
				<g>
					<g>
						<g>
							<g>
								<path class="st1" d="M94.34,534.25c0.29,0,0.52,2.31,0.52,5.16c0,2.85-0.23,5.16-0.52,5.16c-0.29,0-0.52-2.31-0.52-5.16
									C93.82,536.56,94.06,534.25,94.34,534.25z"/>
							</g>
						</g>
					</g>
				</g>
			</g>
			<g>
				<g>
					<g>
						<g>
							<g>
								<path class="st1" d="M160.95,534.47c0.29,0,0.52,2.31,0.52,5.16c0,2.85-0.23,5.16-0.52,5.16c-0.29,0-0.52-2.31-0.52-5.16
									C160.43,536.78,160.67,534.47,160.95,534.47z"/>
							</g>
						</g>
					</g>
				</g>
			</g>
			<g>
				<g>
					<g>
						<g>
							<g>
								<path class="st1" d="M159.16,534.25c0.29,0,0.52,2.31,0.52,5.16c0,2.85-0.23,5.16-0.52,5.16c-0.29,0-0.52-2.31-0.52-5.16
									C158.64,536.56,158.87,534.25,159.16,534.25z"/>
							</g>
						</g>
					</g>
				</g>
			</g>
			<g>
				<g>
					<g>
						<g>
							<g>
								<path class="st1" d="M148.39,539.85c0,0.29-9.44,0.52-21.08,0.52c-11.65,0-21.08-0.23-21.08-0.52
									c0-0.29,9.44-0.52,21.08-0.52C138.95,539.34,148.39,539.57,148.39,539.85z"/>
							</g>
						</g>
					</g>
				</g>
			</g>
		</g>
		<g>
			<g>
				<g>
					<g>
						<g>
							
								<rect x="114.75" y="553.39" transform="matrix(6.123234e-17 -1 1 6.123234e-17 -468.8372 720.3585)" class="st0" width="22.02" height="82.42"/>
						</g>
					</g>
				</g>
			</g>
			<g>
				<g>
					<g>
						<g>
							<g>
								<path class="st1" d="M168.03,599.41c0.01,0.02-0.14,0.1-0.45,0.26c-0.3,0.16-0.76,0.37-1.37,0.63
									c-1.23,0.5-3.07,1.21-5.59,1.6c-2.47,0.35-5.79,0.45-9.07-1.29c-1.61-0.86-3.14-2.17-4.31-3.9
									c-1.14-1.73-1.87-3.99-1.5-6.34c0.2-1.17,0.69-2.32,1.52-3.28c0.81-0.96,2.1-1.66,3.48-1.58c1.38,0.06,2.63,0.85,3.49,1.88
									c0.87,1.03,1.47,2.36,1.59,3.76c0.33,2.79-0.85,5.69-2.84,7.8c-1.96,2.19-4.89,3.53-7.92,3.87
									c-3.05,0.36-6.2-0.12-9.19-1.14c-2.99-1.03-5.95-2.71-8.03-5.4c-1.02-1.34-1.76-3-1.87-4.75c-0.15-1.75,0.41-3.64,1.75-4.95
									c0.67-0.65,1.61-1.09,2.58-1.13c0.97-0.05,1.91,0.27,2.69,0.76c1.59,0.99,2.61,2.68,3.03,4.44c0.77,3.6-0.65,7.35-3.25,9.7
									c-2.61,2.37-6.02,3.42-9.28,3.78c-3.28,0.33-6.58,0.08-9.62-0.95c-3.03-1.01-5.75-3-7.32-5.69
									c-1.59-2.63-2.12-5.96-0.92-8.75c0.56-1.38,1.84-2.61,3.36-2.84c1.49-0.28,3.01,0.13,4.15,1c2.33,1.85,2.71,5.01,1.96,7.42
									c-0.76,2.48-2.43,4.37-4.15,5.85c-3.52,2.97-7.69,4.26-11.3,4.39c-3.65,0.13-6.71-0.88-8.95-2.03
									c-2.26-1.17-3.75-2.51-4.67-3.46c-0.45-0.49-0.79-0.87-0.99-1.15c-0.21-0.27-0.3-0.41-0.29-0.43
									c0.1-0.14,1.65,2.4,6.13,4.67c2.22,1.08,5.22,2,8.75,1.82c3.49-0.18,7.5-1.48,10.85-4.37c1.65-1.43,3.2-3.26,3.87-5.52
									c0.67-2.18,0.24-5.01-1.71-6.51c-0.95-0.72-2.26-1.06-3.46-0.82c-1.22,0.2-2.19,1.13-2.7,2.34
									c-1.04,2.45-0.58,5.48,0.9,7.89c1.46,2.47,3.95,4.29,6.82,5.24c2.86,0.97,6.05,1.2,9.19,0.87c3.12-0.34,6.32-1.36,8.69-3.53
									c2.34-2.1,3.62-5.55,2.93-8.7c-0.37-1.54-1.26-2.99-2.57-3.8c-1.29-0.85-2.97-0.83-4.02,0.24
									c-1.06,1.03-1.58,2.62-1.44,4.13c0.09,1.53,0.73,2.99,1.66,4.21c1.89,2.46,4.69,4.09,7.54,5.07
									c2.88,0.99,5.9,1.46,8.76,1.13c2.86-0.32,5.54-1.53,7.37-3.54c1.86-1.95,2.93-4.59,2.65-7.09c-0.2-2.42-2.05-4.78-4.27-4.93
									c-1.1-0.07-2.15,0.47-2.86,1.29c-0.72,0.82-1.18,1.85-1.37,2.89c-0.36,2.13,0.28,4.22,1.33,5.86
									c1.07,1.64,2.51,2.91,4.03,3.75c3.08,1.7,6.31,1.68,8.73,1.39c2.47-0.32,4.33-0.96,5.57-1.39
									C167.37,599.65,168.01,599.37,168.03,599.41z"/>
							</g>
						</g>
					</g>
				</g>
			</g>
		</g>
		<g>
			<g>
				<g>
					<g>
						<g>
							
								<rect x="110.34" y="526.92" transform="matrix(6.123234e-17 -1 1 6.123234e-17 -435.006 693.8875)" class="st2" width="38.2" height="75.06"/>
						</g>
					</g>
				</g>
			</g>
			<g>
				<g>
					<g>
						<g>
							<g>
								<path class="st0" d="M104.38,546.66c0.29,0,0.52,8.28,0.52,18.49c0,10.21-0.23,18.49-0.52,18.49
									c-0.29,0-0.52-8.28-0.52-18.49C103.87,554.93,104.1,546.66,104.38,546.66z"/>
							</g>
						</g>
					</g>
				</g>
			</g>
			<g>
				<g>
					<g>
						<g>
							<g>
								<path class="st0" d="M110.07,546.18c0.29,0,0.52,8.17,0.52,18.25c0,10.08-0.23,18.25-0.52,18.25
									c-0.29,0-0.52-8.17-0.52-18.25C109.56,554.35,109.79,546.18,110.07,546.18z"/>
							</g>
						</g>
					</g>
				</g>
			</g>
			<g>
				<g>
					<g>
						<g>
							<g>
								<path class="st0" d="M158.48,544.95c0.29,0,0.52,8.61,0.52,19.22c0,10.62-0.23,19.22-0.52,19.22
									c-0.29,0-0.52-8.61-0.52-19.22C157.97,553.56,158.2,544.95,158.48,544.95z"/>
							</g>
						</g>
					</g>
				</g>
			</g>
			<g>
				<g>
					<g>
						<g>
							<g>
								<path class="st0" d="M151.8,545.47c0.29,0,0.52,8.39,0.52,18.73c0,10.34-0.23,18.73-0.52,18.73s-0.52-8.38-0.52-18.73
									C151.28,553.86,151.51,545.47,151.8,545.47z"/>
							</g>
						</g>
					</g>
				</g>
			</g>
		</g>
	</g>
	<g>
		<g>
			<g>
				<g>
					<g>
						<path class="st2" d="M555.8,461.94c7.78-4.01,16.94-4.54,25.58-3.11c4.64,0.77,9.48,2.16,12.64,5.64
							c3.16,3.49,3.76,9.62,0.13,12.62c-2.16,1.78-5.17,2.05-7.97,2.02c-6.76-0.08-14.26-1.27-19.67,2.8
							c-3.08,2.32-5.13,6.18-8.82,7.32c-3.6,1.12-7.67-1.01-9.59-4.26c-1.91-3.25-1.98-7.32-1.08-10.99
							C547.03,473.98,547.97,465.99,555.8,461.94z"/>
					</g>
				</g>
			</g>
			<g>
				<g>
					<g>
						<path class="st2" d="M537.98,427.53c4.76,6.79,14,4.55,18.29,0.4c4.29-4.15,6.1-10.16,7.75-15.89
							c3.77-13.1,7.57-26.84,4.77-40.18c-0.84-3.99-2.33-7.96-5.13-10.92c-2.8-2.96-7.11-4.72-11.05-3.68
							c-4.66,1.23-7.56,5.8-9.65,10.14c-6.16,12.77-9.42,26.92-9.46,41.1C533.46,415.12,534.24,422.07,537.98,427.53"/>
					</g>
				</g>
			</g>
			<g>
				<g>
					<g>
						<path class="st2" d="M524.91,437.28c5.17-6.13,6.15-15.07,3.85-22.75c-2.3-7.68-7.49-14.21-13.48-19.55
							c-7.02-6.25-15.27-11.12-24.13-14.24c-3.49-1.23-7.17-2.19-10.85-1.84c-3.68,0.35-7.39,2.23-9.11,5.51
							c-2.54,4.84-0.1,10.72,2.53,15.51c4.64,8.44,9.95,16.52,15.85,24.14c4.75,6.12,10.19,12.17,17.43,14.93
							c7.24,2.77,14.76,2.44,18.6-2.58"/>
					</g>
				</g>
			</g>
			<g>
				<g>
					<g>
						<g>
							<path class="st0" d="M537.66,530.03c0.09,0.01,0.23-1.1,0.43-3.09c0.22-2.25,0.49-5.07,0.82-8.43
								c0.39-3.55,0.91-7.77,1.9-12.36c0.98-4.58,2.52-9.55,4.49-14.59c2.04-5.01,4.54-9.56,7.45-13.2c2.89-3.66,6.26-6.3,9.42-7.83
								c3.15-1.56,5.98-2.19,7.93-2.47c1.97-0.2,3.07-0.36,3.07-0.45c0-0.09-1.1-0.1-3.13-0.05c-2,0.13-4.95,0.64-8.27,2.15
								c-3.33,1.48-6.9,4.17-9.93,7.9c-3.06,3.72-5.64,8.37-7.72,13.47c-2.01,5.13-3.52,10.14-4.46,14.83
								c-0.94,4.67-1.36,8.94-1.64,12.52c-0.27,3.58-0.37,6.48-0.42,8.48C537.55,528.92,537.57,530.03,537.66,530.03z"/>
						</g>
					</g>
				</g>
			</g>
			<g>
				<g>
					<g>
						<g>
							<path class="st0" d="M538.24,523.55c0.04,0,0.07-0.5,0.08-1.43c0-1.08-0.01-2.43-0.01-4.1c-0.01-3.56-0.01-8.7,0.18-15.05
								c0.31-12.71,1.41-26.38,3.52-45.66c2-18.13,4.69-39.23,7.52-52.95c0.61-3.12,1.22-5.93,1.8-8.39
								c0.55-2.46,1.02-4.59,1.47-6.31c0.39-1.62,0.71-2.94,0.96-3.98c0.21-0.91,0.29-1.4,0.25-1.41c-0.04-0.01-0.21,0.45-0.5,1.34
								c-0.31,1.03-0.71,2.33-1.19,3.93c-0.53,1.7-1.07,3.81-1.69,6.27c-0.64,2.45-1.32,5.25-1.98,8.36
								c-2.8,12.43-5.77,29.8-7.91,49.13c-2.12,19.32-3.07,36.91-3.16,49.65c-0.08,6.37,0.06,11.53,0.22,15.08
								c0.1,1.66,0.18,3.02,0.25,4.09C538.13,523.06,538.19,523.55,538.24,523.55z"/>
						</g>
					</g>
				</g>
			</g>
			<g>
				<g>
					<g>
						<g>
							<path class="st0" d="M538.32,489.62c0.09,0,0.07-1.52-0.03-4.28c-0.16-2.75-0.54-6.73-1.31-11.6
								c-0.82-4.86-1.97-10.63-3.77-16.89c-0.78-2.87-2.62-9.73-7.06-19.99c-5.86-13.9-13.82-25.27-20.75-32.3
								c-1.62-1.87-3.43-3.22-4.88-4.54c-0.75-0.63-1.41-1.26-2.08-1.76c-0.68-0.47-1.31-0.9-1.89-1.31
								c-2.28-1.56-3.56-2.38-3.6-2.31c-0.2,0.28,5.11,3.4,11.81,10.54c6.68,7.12,14.42,18.4,20.23,32.19
								c3.24,7.48,5.5,14.14,7.1,19.81c1.85,6.21,3.08,11.92,4.01,16.73c0.88,4.82,1.4,8.76,1.7,11.48
								C538.05,488.11,538.23,489.62,538.32,489.62z"/>
						</g>
					</g>
				</g>
			</g>
		</g>
		<g>
			<g>
				<g>
					<polygon class="st2" points="503.25,544.32 506.65,590.9 566.49,590.9 569.89,544.32 					"/>
				</g>
			</g>
		</g>
		<g>
			<g>
				<g>
					<rect x="497.47" y="525.96" class="st2" width="79.56" height="18.36"/>
				</g>
			</g>
		</g>
		<g>
			<g>
				<g>
					<polygon class="st0" points="497.47,589.12 497.47,594.21 501.21,594.21 575.72,594.21 575.72,589.12 					"/>
				</g>
			</g>
		</g>
		<g>
			<g>
				<g>
					<polygon class="st0" points="504.88,602.6 501.21,593.64 572.87,593.64 568.59,602.6 					"/>
				</g>
			</g>
		</g>
		<g>
			<g>
				<g>
					<g>
						<path class="st3" d="M568.78,559.54c0.01,0.01-0.08,0.16-0.28,0.43c-0.24,0.31-0.53,0.71-0.89,1.19
							c-0.85,1.09-2.02,2.58-3.49,4.46l-0.15,0.2l-0.15-0.21c-2.19-3.03-5.12-7.08-8.56-11.84h0.49c-2.55,3.61-5.39,7.63-8.43,11.94
							l-0.26,0.37l-0.3-0.35c-3.11-3.7-6.49-7.72-10-11.9l0.58-0.01c-0.17,0.22-0.36,0.45-0.55,0.69c-3.1,3.89-6.1,7.65-8.94,11.21
							l-0.3,0.37l-0.27-0.39c-3.04-4.3-5.87-8.31-8.44-11.94l0.49,0.02c-4.16,4.74-7.68,8.75-10.39,11.84l-0.18,0.21l-0.14-0.24
							c-1.37-2.3-2.46-4.14-3.25-5.47c-0.34-0.59-0.62-1.07-0.83-1.46c-0.18-0.33-0.27-0.51-0.25-0.52
							c0.02-0.01,0.13,0.15,0.35,0.46c0.24,0.37,0.55,0.83,0.92,1.4c0.83,1.31,1.98,3.11,3.41,5.37l-0.32-0.03
							c2.66-3.12,6.13-7.19,10.22-11.98l0.26-0.3l0.23,0.33c2.59,3.61,5.45,7.61,8.51,11.88l-0.57-0.02
							c2.83-3.56,5.83-7.33,8.92-11.23c0.19-0.24,0.38-0.47,0.55-0.69l0.28-0.36l0.29,0.35c3.5,4.18,6.87,8.21,9.97,11.92
							l-0.56,0.02c3.08-4.29,5.94-8.29,8.52-11.88l0.25-0.35l0.24,0.35c3.37,4.82,6.24,8.91,8.38,11.97l-0.3-0.01
							c1.53-1.83,2.74-3.29,3.63-4.35c0.39-0.46,0.71-0.83,0.97-1.12C568.65,559.66,568.77,559.53,568.78,559.54z"/>
					</g>
				</g>
			</g>
		</g>
		<g>
			<g>
				<g>
					<g>
						<path class="st3" d="M570.73,544.01c0,0.21-14.99,0.37-33.49,0.37c-18.5,0-33.49-0.17-33.49-0.37
							c0-0.21,14.99-0.37,33.49-0.37C555.73,543.64,570.73,543.81,570.73,544.01z"/>
					</g>
				</g>
			</g>
		</g>
	</g>
	<g>
		<g>
			<g>
				<path class="st0" d="M229.57,58.79c-0.01,0.01-0.12-0.02-0.34-0.1c-0.26-0.1-0.58-0.23-0.97-0.38
					c-0.91-0.38-2.14-0.89-3.69-1.54c-3.26-1.4-7.87-3.37-13.53-5.79c-11.45-4.99-27.16-11.83-44.51-19.39
					c-0.53-0.23-1.06-0.46-1.54-0.68l0.32,0c-17.06,7.3-32.43,13.87-43.61,18.65c-5.53,2.32-10.02,4.21-13.2,5.54
					c-1.51,0.62-2.71,1.11-3.6,1.47c-0.83,0.33-1.26,0.49-1.27,0.46c-0.01-0.03,0.41-0.23,1.21-0.61c0.87-0.4,2.05-0.93,3.54-1.61
					c3.16-1.39,7.61-3.36,13.1-5.78c11.16-4.84,26.5-11.49,43.52-18.87l0.16-0.07l0.16,0.07c0.49,0.21,1.01,0.44,1.54,0.68
					c17.32,7.64,32.99,14.56,44.42,19.61c5.62,2.52,10.19,4.57,13.43,6.03c1.53,0.7,2.74,1.26,3.63,1.68
					c0.37,0.18,0.68,0.33,0.94,0.45C229.47,58.71,229.57,58.77,229.57,58.79z"/>
			</g>
		</g>
		<g>
			<rect x="13.12" y="52.39" class="st0" width="285.88" height="214.05"/>
		</g>
		<g>
			<rect x="23.12" y="62.35" class="st1" width="266.96" height="195.3"/>
		</g>
		<g>
			<g>
				<path class="st0" d="M82.08,147.68c0,0,0.28,32.79,1.94,42.79l41.12-1.94c0,0-3.61-32.23-2.22-40.84H82.08z"/>
			</g>
			<g>
				<g>
					<g>
						<g>
							<path class="st4" d="M102.34,152.31c0,0,0.05-0.01,0.15-0.02c0.12,0,0.26-0.01,0.44-0.02c0.39-0.03,0.97,0,1.71,0.09
								c0.74,0.12,1.64,0.32,2.61,0.78c0.97,0.46,1.97,1.21,2.85,2.25c0.84,1.06,1.61,2.38,1.97,3.96c0.34,1.58,0.17,3.37-0.43,5.08
								c-0.29,0.86-0.69,1.71-1.15,2.54c-0.46,0.83-0.93,1.66-1.32,2.56c-0.78,1.79-1.39,3.77-1.66,5.83l-0.02,0.14l-0.13,0
								c-1.3,0.02-2.67,0.04-4.06,0.07c-1.46,0.02-2.9,0.05-4.26,0.07l-0.15,0l-0.01-0.15c-0.07-2.07-1-3.95-1.97-5.62
								c-0.49-0.84-1.03-1.63-1.54-2.43c-0.5-0.78-1.05-1.54-1.44-2.36c-0.81-1.64-0.95-3.45-0.64-5.01
								c0.29-1.56,0.81-2.98,1.59-4.1c0.77-1.12,1.75-1.89,2.68-2.41c0.93-0.52,1.81-0.8,2.53-0.98c0.72-0.17,1.29-0.24,1.68-0.27
								c0.19-0.01,0.34-0.02,0.44-0.02C102.29,152.3,102.34,152.31,102.34,152.31c0,0.01-0.05,0.01-0.15,0.02
								c-0.11,0.01-0.26,0.03-0.44,0.05c-0.38,0.05-0.95,0.14-1.66,0.32c-0.71,0.19-1.57,0.49-2.47,1.01
								c-0.9,0.52-1.85,1.29-2.59,2.39c-0.74,1.09-1.24,2.49-1.52,4.02c-0.29,1.53-0.14,3.27,0.65,4.85
								c0.38,0.79,0.93,1.52,1.44,2.32c0.5,0.79,1.05,1.58,1.55,2.43c0.99,1.69,1.95,3.59,2.03,5.77l-0.16-0.15
								c1.36-0.02,2.8-0.05,4.26-0.07c1.39-0.02,2.76-0.04,4.06-0.06l-0.15,0.14c0.28-2.12,0.91-4.1,1.7-5.92
								c0.39-0.91,0.87-1.77,1.34-2.59c0.46-0.82,0.86-1.65,1.15-2.49c0.59-1.68,0.77-3.4,0.45-4.94c-0.33-1.53-1.08-2.84-1.89-3.88
								c-0.84-1.03-1.81-1.77-2.76-2.24c-0.95-0.47-1.83-0.68-2.56-0.81c-0.73-0.1-1.31-0.15-1.69-0.14c-0.18,0-0.33-0.01-0.44-0.01
								C102.39,152.32,102.34,152.32,102.34,152.31z"/>
						</g>
					</g>
					<g>
						<g>
							<path class="st4" d="M104.45,175.15c0,0-0.01-0.04-0.03-0.13c-0.01-0.09-0.04-0.22-0.06-0.38c-0.05-0.34-0.13-0.83-0.22-1.47
								c-0.18-1.28-0.46-3.12-0.64-5.42c-0.04-0.58-0.08-1.18-0.11-1.81c-0.02-0.63-0.05-1.28-0.01-1.97
								c0.04-0.68,0.15-1.39,0.46-2.06c0.31-0.65,0.84-1.27,1.57-1.57c0.72-0.31,1.64-0.15,2.24,0.43c0.29,0.29,0.49,0.7,0.48,1.13
								c0,0.42-0.17,0.84-0.42,1.18c-0.25,0.34-0.61,0.61-0.99,0.8c-0.38,0.19-0.8,0.31-1.22,0.41c-0.84,0.18-1.71,0.28-2.6,0.3
								c-0.88,0.02-1.76,0-2.61-0.13c-0.43-0.07-0.85-0.18-1.24-0.36c-0.39-0.18-0.75-0.43-1.04-0.74c-0.29-0.31-0.51-0.69-0.6-1.1
								c-0.1-0.41-0.03-0.85,0.15-1.22c0.18-0.37,0.48-0.69,0.86-0.84c0.38-0.15,0.82-0.11,1.17,0.05c0.36,0.16,0.65,0.43,0.87,0.74
								c0.22,0.31,0.35,0.67,0.44,1.02c0.17,0.72,0.16,1.42,0.21,2.1c0.07,1.35,0.14,2.61,0.2,3.77c0.12,2.3,0.21,4.16,0.28,5.45
								c0.03,0.64,0.05,1.14,0.07,1.48c0.01,0.17,0.01,0.29,0.01,0.39c0,0.09,0,0.13,0,0.13s-0.01-0.04-0.01-0.13
								c-0.01-0.09-0.02-0.22-0.03-0.38c-0.02-0.34-0.05-0.84-0.09-1.48c-0.07-1.29-0.18-3.15-0.32-5.45
								c-0.06-1.15-0.14-2.41-0.21-3.76c-0.05-0.68-0.05-1.38-0.21-2.08c-0.08-0.34-0.21-0.69-0.42-0.98
								c-0.21-0.3-0.49-0.55-0.83-0.7c-0.33-0.15-0.73-0.19-1.08-0.05c-0.35,0.14-0.63,0.43-0.79,0.78
								c-0.17,0.35-0.23,0.75-0.14,1.14c0.09,0.39,0.29,0.75,0.57,1.04c0.55,0.61,1.37,0.92,2.2,1.05c0.84,0.13,1.71,0.14,2.59,0.12
								c0.88-0.03,1.74-0.12,2.57-0.3c0.41-0.09,0.82-0.21,1.19-0.39c0.37-0.18,0.71-0.43,0.95-0.76c0.24-0.32,0.4-0.71,0.4-1.1
								c0.01-0.39-0.17-0.77-0.44-1.04c-0.56-0.54-1.43-0.7-2.11-0.4c-0.69,0.28-1.2,0.87-1.51,1.51c-0.31,0.64-0.42,1.34-0.46,2.01
								c-0.04,0.67-0.01,1.33,0,1.96c0.02,0.63,0.06,1.23,0.1,1.8c0.17,2.3,0.43,4.15,0.6,5.42c0.09,0.63,0.15,1.13,0.2,1.47
								c0.02,0.16,0.04,0.29,0.05,0.38C104.44,175.11,104.45,175.15,104.45,175.15z"/>
						</g>
					</g>
					<g>
						<g>
							<path class="st4" d="M99.03,175.37c0.02,0.02,0.05,0.51,0.11,1.37c0.05,0.99,0.11,2.18,0.18,3.56l-0.03-0.09
								c0.83,0.95,1.76,2.03,2.77,3.19l-0.14-0.06c1.01-0.06,2.08-0.12,3.2-0.18l-0.13,0.07c0.51-0.63,1.05-1.28,1.59-1.95
								c0.27-0.33,0.54-0.65,0.8-0.97l-0.04,0.12c-0.04-1.88-0.08-3.65-0.12-5.27l0.17,0.17c-2.33,0.03-4.35,0.05-5.98,0.07
								c-0.65,0-1.22,0-1.73,0C99.27,175.39,99.05,175.38,99.03,175.37c-0.01-0.01,0.19-0.03,0.57-0.05
								c0.5-0.03,1.05-0.05,1.69-0.09c1.65-0.07,3.71-0.15,6.09-0.24l0.17-0.01l0.01,0.17c0.05,1.62,0.1,3.4,0.16,5.27l0,0.07
								l-0.05,0.05c-0.26,0.32-0.53,0.65-0.8,0.97c-0.55,0.67-1.08,1.32-1.6,1.94l-0.05,0.06l-0.08,0c-1.12,0.05-2.19,0.11-3.2,0.16
								l-0.09,0l-0.06-0.07c-0.99-1.18-1.9-2.27-2.72-3.23l-0.03-0.04l0-0.05c-0.01-1.42-0.03-2.64-0.03-3.65
								C99.01,175.8,99.01,175.35,99.03,175.37z"/>
						</g>
					</g>
					<g>
						<g>
							<path class="st4" d="M107.29,180c0,0.01-0.11-0.04-0.3-0.13c-0.19-0.09-0.47-0.21-0.83-0.33c-0.71-0.25-1.74-0.48-2.89-0.44
								c-1.15,0.03-2.17,0.33-2.86,0.62c-0.35,0.14-0.62,0.28-0.81,0.38c-0.19,0.1-0.29,0.15-0.3,0.15c0-0.01,0.09-0.08,0.27-0.19
								c0.18-0.11,0.45-0.26,0.8-0.42c0.69-0.31,1.72-0.63,2.89-0.66c1.17-0.04,2.21,0.21,2.92,0.48c0.36,0.13,0.64,0.27,0.82,0.37
								C107.2,179.93,107.3,179.99,107.29,180z"/>
						</g>
					</g>
					<g>
						<g>
							<path class="st4" d="M107.29,178.72c0,0.01-0.11-0.04-0.3-0.13c-0.19-0.09-0.47-0.21-0.83-0.33
								c-0.71-0.25-1.74-0.48-2.89-0.44c-1.15,0.03-2.17,0.33-2.86,0.62c-0.35,0.14-0.62,0.28-0.81,0.38
								c-0.19,0.1-0.29,0.15-0.3,0.15c0-0.01,0.09-0.08,0.27-0.19c0.18-0.11,0.45-0.26,0.8-0.42c0.69-0.31,1.72-0.63,2.89-0.66
								c1.17-0.04,2.21,0.21,2.92,0.48c0.36,0.13,0.64,0.27,0.82,0.37C107.2,178.65,107.29,178.71,107.29,178.72z"/>
						</g>
					</g>
					<g>
						<g>
							<path class="st4" d="M107.22,177.5c0,0.01-0.11-0.04-0.3-0.13c-0.19-0.09-0.47-0.21-0.83-0.33
								c-0.71-0.25-1.74-0.48-2.89-0.44c-1.15,0.03-2.17,0.33-2.86,0.62c-0.35,0.14-0.62,0.28-0.81,0.38
								c-0.19,0.1-0.29,0.15-0.3,0.15c0-0.01,0.09-0.08,0.27-0.19c0.18-0.11,0.45-0.26,0.8-0.42c0.69-0.31,1.72-0.63,2.89-0.66
								c1.17-0.04,2.21,0.21,2.92,0.48c0.36,0.13,0.64,0.27,0.82,0.37C107.12,177.43,107.22,177.5,107.22,177.5z"/>
						</g>
					</g>
				</g>
			</g>
		</g>
		<g>
			<g>
				<g>
					<path class="st2" d="M36.29,94.08c0,0,0.28,32.79,1.94,42.79l41.12-1.94c0,0-3.61-32.23-2.22-40.84H36.29z"/>
				</g>
				<g>
					<g>
						<path class="st4" d="M70.93,107.85c0.01,0.22-6.15,0.77-13.77,1.23c-7.62,0.46-13.81,0.65-13.82,0.43
							c-0.01-0.22,6.15-0.77,13.77-1.23C64.73,107.82,70.92,107.63,70.93,107.85z"/>
					</g>
				</g>
				<g>
					<g>
						<path class="st4" d="M70.94,114.79c0.01,0.22-6.15,0.77-13.77,1.23c-7.62,0.46-13.81,0.65-13.82,0.43
							c-0.01-0.22,6.15-0.77,13.77-1.23C64.74,114.76,70.93,114.57,70.94,114.79z"/>
					</g>
				</g>
				<g>
					<g>
						<path class="st4" d="M63.95,121.61c0.01,0.22-3.5,0.61-7.84,0.88c-4.34,0.26-7.87,0.29-7.89,0.07
							c-0.01-0.22,3.49-0.61,7.84-0.88C60.41,121.42,63.94,121.39,63.95,121.61z"/>
					</g>
				</g>
			</g>
		</g>
		<g>
			<g>
				<g>
					<path class="st2" d="M34.34,190.54c0,0,0.28,32.79,1.94,42.79l41.12-1.94c0,0-3.61-32.23-2.22-40.84H34.34z"/>
				</g>
				<g>
					<g>
						<path class="st4" d="M68.98,204.31c0.01,0.22-6.15,0.77-13.77,1.23c-7.62,0.46-13.81,0.65-13.82,0.43
							c-0.01-0.22,6.15-0.77,13.77-1.23C62.78,204.28,68.97,204.08,68.98,204.31z"/>
					</g>
				</g>
				<g>
					<g>
						<path class="st4" d="M69,211.25c0.01,0.22-6.15,0.77-13.77,1.23c-7.62,0.46-13.81,0.65-13.82,0.43
							c-0.01-0.22,6.15-0.77,13.77-1.23C62.79,211.22,68.98,211.03,69,211.25z"/>
					</g>
				</g>
				<g>
					<g>
						<path class="st4" d="M62.01,218.07c0.01,0.22-3.5,0.61-7.84,0.88c-4.34,0.26-7.87,0.29-7.89,0.07
							c-0.01-0.22,3.49-0.61,7.84-0.88C58.46,217.88,61.99,217.85,62.01,218.07z"/>
					</g>
				</g>
			</g>
		</g>
		<g>
			<g>
				<polygon class="st2" points="146.72,102.77 150.79,197.33 268.84,198.75 263.54,104.02 				"/>
			</g>
			<g>
				<g>
					<g>
						<rect x="145.35" y="102.09" class="st3" width="117.26" height="88.55"/>
					</g>
					<g>
						<g>
							<path class="st0" d="M262.61,190.64c0,0-0.02-0.57-0.04-1.64c-0.01-1.1-0.02-2.67-0.04-4.72c-0.02-4.15-0.05-10.2-0.09-17.92
								c-0.04-15.44-0.1-37.53-0.17-64.26l0.33,0.33c-33.15,0.02-73.61,0.05-117.25,0.07h-0.01l0.4-0.4
								c-0.01,31.85-0.03,62-0.04,88.55l-0.36-0.36c34.7,0.07,63.96,0.14,84.58,0.18c10.31,0.04,18.46,0.07,24.06,0.1
								c2.78,0.02,4.92,0.03,6.39,0.04c0.71,0.01,1.26,0.02,1.65,0.02C262.41,190.62,262.61,190.64,262.61,190.64
								s-0.17,0.01-0.53,0.02c-0.39,0.01-0.92,0.01-1.61,0.02c-1.46,0.01-3.58,0.02-6.32,0.04c-5.58,0.02-13.7,0.06-23.97,0.1
								c-20.68,0.04-50.03,0.11-84.82,0.18l-0.36,0l0-0.36c-0.01-26.55-0.03-56.7-0.04-88.55l0-0.4h0.4h0.01
								c43.64,0.03,84.1,0.05,117.25,0.07l0.33,0l0,0.33c-0.07,26.81-0.13,48.98-0.17,64.47c-0.04,7.68-0.07,13.71-0.08,17.84
								c-0.02,2.02-0.03,3.58-0.04,4.66C262.63,190.11,262.61,190.64,262.61,190.64z"/>
						</g>
					</g>
				</g>
				<g>
					<g>
						<rect x="159.49" y="120.85" class="st3" width="47.54" height="59.82"/>
					</g>
					<g>
						<g>
							<path class="st0" d="M207.03,180.67c-0.01-0.01-0.01-0.11-0.02-0.3c-0.01-0.23-0.01-0.5-0.02-0.85
								c-0.01-0.79-0.02-1.88-0.04-3.27c-0.02-2.89-0.06-7.04-0.1-12.27c-0.04-10.53-0.11-25.43-0.18-43.13l0.36,0.36
								c-14.17,0.01-30.38,0.03-47.53,0.04c-0.1,0.09,0.76-0.76,0.4-0.39v0.02v0.03v0.06v0.13v0.26v0.52l0,1.04l0,2.06
								c0,1.37,0,2.74,0,4.1c0,2.72,0,5.41,0,8.06c0,5.31-0.01,10.5-0.01,15.52c-0.02,10.05-0.03,19.47-0.05,28.01l-0.33-0.33
								c14.26,0.07,26.1,0.13,34.42,0.17c4.13,0.04,7.38,0.07,9.66,0.09c1.09,0.02,1.94,0.03,2.56,0.04
								C206.71,180.65,207.03,180.67,207.03,180.67c0.01,0.01-0.27,0.02-0.83,0.04c-0.61,0.01-1.44,0.02-2.5,0.04
								c-2.26,0.02-5.49,0.05-9.58,0.09c-8.37,0.04-20.28,0.1-34.63,0.17l-0.33,0l0-0.34c-0.02-8.55-0.03-17.97-0.05-28.01
								c0-5.03-0.01-10.21-0.01-15.52c0-2.66,0-5.34,0-8.06c0-1.36,0-2.72,0-4.1l0-2.06l0-1.04v-0.52v-0.26v-0.13v-0.06v-0.03v-0.02
								c-0.36,0.36,0.49-0.5,0.41-0.41c17.15,0.02,33.36,0.03,47.53,0.04l0.36,0l0,0.36c-0.07,17.79-0.14,32.77-0.18,43.36
								c-0.04,5.2-0.07,9.32-0.1,12.19c-0.02,1.36-0.03,2.43-0.04,3.2c-0.01,0.33-0.02,0.6-0.02,0.81
								C207.04,180.59,207.04,180.68,207.03,180.67z"/>
						</g>
					</g>
				</g>
				<g>
					<g>
						<rect x="161.31" y="107.16" class="st3" width="91.1" height="8.62"/>
					</g>
					<g>
						<g>
							<path class="st0" d="M252.41,115.78c-0.01-0.01-0.02-0.21-0.03-0.59c-0.01-0.42-0.02-0.97-0.04-1.67
								c-0.02-1.5-0.05-3.63-0.09-6.36l0.16,0.16c-15.36,0.14-50.38,0.24-91.09,0.24h0c0.8-0.81,0.22-0.22,0.4-0.4v0v0.01v0.02v0.03
								v0.07v0.14v0.28v0.55l0,1.1c0,0.73,0,1.46,0,2.18c0,1.44,0,2.86,0,4.23l-0.4-0.4c25.48,0.07,48.18,0.13,64.57,0.17
								c8.17,0.05,14.77,0.09,19.38,0.12c2.25,0.02,4.02,0.04,5.27,0.06c0.57,0.01,1.03,0.02,1.38,0.03
								C252.24,115.76,252.4,115.77,252.41,115.78c0.01,0.01-0.14,0.02-0.43,0.03c-0.34,0.01-0.78,0.02-1.33,0.03
								c-1.23,0.01-2.97,0.03-5.18,0.06c-4.59,0.03-11.15,0.07-19.29,0.12c-16.47,0.04-39.27,0.1-64.87,0.17l-0.4,0l0-0.4
								c0-1.37,0-2.79,0-4.23c0-0.72,0-1.45,0-2.18l0-1.1v-0.55v-0.28v-0.14v-0.07v-0.03v-0.02v-0.01v0c0.18-0.18-0.4,0.4,0.4-0.4h0
								c40.71,0,75.73,0.1,91.09,0.24l0.17,0l0,0.16c-0.04,2.77-0.07,4.93-0.09,6.45c-0.02,0.68-0.03,1.22-0.04,1.64
								C252.43,115.61,252.42,115.79,252.41,115.78z"/>
						</g>
					</g>
				</g>
				<g>
					<g>
						<rect x="212.85" y="120.85" class="st3" width="39.57" height="36.06"/>
					</g>
					<g>
						<g>
							<path class="st0" d="M252.41,156.9c-0.01-0.01-0.03-0.25-0.04-0.7c-0.01-0.5-0.02-1.15-0.04-1.96
								c-0.02-1.76-0.05-4.23-0.09-7.35c-0.04-6.34-0.1-15.3-0.18-26.05l0.34,0.34c-11.43,0.02-25.01,0.04-39.56,0.06
								c-0.09,0.09,0.76-0.76,0.4-0.4v0.01v0.02v0.04V121v0.15v0.31v0.61l0,1.22c0,0.81,0,1.63,0,2.43c0,1.62,0,3.22,0,4.8
								c0,3.17-0.01,6.28-0.01,9.3c-0.01,6.05-0.03,11.78-0.04,17.07l-0.35-0.35c11.73,0.07,21.57,0.14,28.54,0.18
								c3.43,0.04,6.16,0.07,8.1,0.09c0.9,0.02,1.61,0.03,2.16,0.04C252.14,156.88,252.4,156.89,252.41,156.9
								c0.01,0.01-0.22,0.03-0.69,0.04c-0.53,0.01-1.22,0.02-2.09,0.04c-1.92,0.02-4.62,0.05-8.02,0.09
								c-7.03,0.04-16.94,0.11-28.77,0.18l-0.35,0l0-0.36c-0.01-5.29-0.02-11.02-0.04-17.07c0-3.03-0.01-6.13-0.01-9.3
								c0-1.59,0-3.19,0-4.8c0-0.81,0-1.62,0-2.43l0-1.22v-0.61v-0.31V121v-0.08v-0.04v-0.02v-0.01c-0.36,0.36,0.49-0.5,0.41-0.41
								c14.55,0.02,28.13,0.04,39.56,0.06l0.35,0l0,0.34c-0.07,10.84-0.13,19.87-0.18,26.27c-0.04,3.08-0.07,5.53-0.09,7.27
								c-0.02,0.78-0.03,1.41-0.04,1.89C252.44,156.71,252.43,156.92,252.41,156.9z"/>
						</g>
					</g>
				</g>
				<g>
					<g>
						<rect x="212.85" y="162.56" class="st3" width="39.57" height="18.12"/>
					</g>
					<g>
						<g>
							<path class="st0" d="M252.41,180.67c-0.02-0.02-0.04-0.47-0.06-1.31c-0.02-0.91-0.04-2.12-0.07-3.64
								c-0.04-3.2-0.09-7.67-0.16-13.17l0.29,0.29c-10.32,0.03-24.24,0.07-39.56,0.11c-0.36,0.36,0.49-0.49,0.4-0.4v0v0.01v0.02
								v0.04v0.07v0.15v0.3l0,0.59l0,1.19c0,0.79,0,1.57,0,2.35c0,1.56,0,3.1,0,4.61c-0.01,3.03-0.01,5.97-0.02,8.78l-0.38-0.38
								c11.41,0.07,21.23,0.14,28.29,0.18c3.46,0.04,6.24,0.08,8.24,0.11c0.91,0.02,1.65,0.04,2.23,0.05
								C252.12,180.64,252.4,180.66,252.41,180.67c0.02,0.02-0.23,0.03-0.71,0.05c-0.56,0.01-1.27,0.03-2.15,0.05
								c-1.99,0.03-4.74,0.06-8.16,0.11c-7.13,0.05-17.03,0.11-28.55,0.18l-0.38,0l0-0.39c0-2.81-0.01-5.75-0.02-8.78
								c0-1.52,0-3.05,0-4.61c0-0.78,0-1.56,0-2.35l0-1.19l0-0.59v-0.3v-0.15v-0.07v-0.04v-0.02v-0.01v0
								c-0.09,0.09,0.76-0.77,0.41-0.41c15.32,0.04,29.24,0.08,39.56,0.11l0.3,0l0,0.29c-0.07,5.57-0.12,10.1-0.16,13.34
								c-0.03,1.49-0.05,2.68-0.07,3.57C252.45,180.28,252.43,180.69,252.41,180.67z"/>
						</g>
					</g>
				</g>
				<g>
					<g>
						<path class="st4" d="M205.85,120.95c-14.71,20.33-31.65,39.4-46.36,59.72"/>
					</g>
					<g>
						<g>
							<path class="st0" d="M159.49,180.67c-0.02-0.02,0.11-0.25,0.39-0.67c0.34-0.49,0.75-1.09,1.24-1.82
								c1.09-1.58,2.71-3.82,4.76-6.56c4.08-5.49,9.93-12.93,16.47-21.06c6.55-8.13,12.46-15.5,16.65-20.9
								c2.04-2.63,3.71-4.79,4.96-6.4c0.54-0.69,0.99-1.26,1.36-1.73c0.32-0.39,0.5-0.59,0.52-0.57c0.02,0.02-0.11,0.25-0.39,0.67
								c-0.34,0.49-0.75,1.09-1.24,1.82c-1.09,1.58-2.71,3.82-4.76,6.56c-4.08,5.49-9.93,12.93-16.48,21.06
								c-6.55,8.13-12.45,15.5-16.65,20.9c-2.04,2.63-3.71,4.79-4.96,6.4c-0.54,0.69-0.99,1.26-1.36,1.73
								C159.69,180.49,159.52,180.69,159.49,180.67z"/>
						</g>
					</g>
				</g>
				<g>
					<g>
						<line class="st4" x1="159.49" y1="120.85" x2="207.03" y2="180.67"/>
					</g>
					<g>
						<g>
							<path class="st0" d="M207.03,180.67c-0.17,0.14-10.96-13.14-24.08-29.66c-13.13-16.52-23.63-30.03-23.45-30.16
								c0.17-0.14,10.96,13.14,24.08,29.66C196.7,167.03,207.2,180.53,207.03,180.67z"/>
						</g>
					</g>
				</g>
			</g>
			<g>
				<path class="st0" d="M150.79,120.98c0,4.11-3.33,7.44-7.44,7.44c-4.11,0-7.44-3.33-7.44-7.44c0-4.11,3.33-7.44,7.44-7.44
					C147.46,113.54,150.79,116.87,150.79,120.98z"/>
			</g>
			<g>
				<path class="st0" d="M272.41,102.92c0,4.11-3.33,7.44-7.44,7.44c-4.11,0-7.44-3.33-7.44-7.44c0-4.11,3.33-7.44,7.44-7.44
					C269.08,95.49,272.41,98.82,272.41,102.92z"/>
			</g>
		</g>
	</g>
	<g>
		<g>
			<g>
				<g>
					<g>
						<g>
							<rect x="477.62" y="154.72" class="st0" width="85.7" height="124.22"/>
						</g>
					</g>
				</g>
			</g>
		</g>
		<g>
			<g>
				<g>
					<g>
						<g>
							<rect x="473.32" y="154.72" class="st3" width="85.7" height="124.22"/>
						</g>
					</g>
				</g>
			</g>
		</g>
		<g>
			<g>
				<g>
					<g>
						<g>
							<g>
								<rect x="483.97" y="168.18" class="st4" width="64.4" height="97.31"/>
							</g>
						</g>
					</g>
				</g>
			</g>
			<g>
				<g>
					<g>
						<g>
							<g>
								<g>
									<path class="st0" d="M548.37,265.48c0,0-0.01-0.16-0.01-0.48c0-0.32-0.01-0.78-0.01-1.38c-0.01-1.22-0.01-3.01-0.03-5.34
										c-0.01-4.66-0.03-11.46-0.06-20.04c-0.03-17.16-0.06-41.46-0.11-70.07l0.21,0.21c-19.68,0.01-41.48,0.01-64.4,0.02h-0.01
										l0.23-0.23c-0.02,36.71-0.03,70.55-0.05,97.31l-0.19-0.19c19.61,0.04,35.69,0.07,46.88,0.1c5.6,0.02,9.97,0.04,12.95,0.05
										c1.48,0.01,2.62,0.02,3.4,0.02C547.97,265.47,548.37,265.48,548.37,265.48s-0.38,0.01-1.14,0.02
										c-0.77,0-1.9,0.01-3.36,0.02c-2.98,0.01-7.33,0.03-12.91,0.05c-11.21,0.02-27.33,0.06-46.99,0.1l-0.19,0v-0.19
										c-0.01-26.75-0.03-60.6-0.05-97.31l0-0.23h0.23h0.01c22.92,0.01,44.72,0.01,64.4,0.02h0.21l0,0.21
										c-0.04,28.67-0.08,53.02-0.11,70.21c-0.02,8.56-0.04,15.34-0.06,20c-0.01,2.31-0.02,4.08-0.03,5.29
										c-0.01,0.59-0.01,1.04-0.01,1.36C548.38,265.34,548.37,265.48,548.37,265.48z"/>
								</g>
							</g>
						</g>
					</g>
				</g>
			</g>
		</g>
		<g>
			<g>
				<g>
					<g>
						<g>
							<g>
								<path class="st0" d="M559.26,154.72c0.05,0.04-0.53,0.89-1.53,2.22c-1,1.33-2.41,3.14-4.02,5.1
									c-1.61,1.96-3.12,3.69-4.24,4.92c-1.12,1.23-1.84,1.97-1.89,1.92c-0.05-0.04,0.58-0.85,1.64-2.14
									c1.15-1.39,2.56-3.11,4.13-5.01c1.56-1.9,2.97-3.61,4.12-5.01C558.54,155.46,559.21,154.68,559.26,154.72z"/>
							</g>
						</g>
					</g>
				</g>
			</g>
		</g>
		<g>
			<g>
				<g>
					<g>
						<g>
							<g>
								<path class="st4" d="M548.7,265.17c3.2,5.09,6.97,9.81,11.23,14.05"/>
							</g>
						</g>
					</g>
				</g>
			</g>
			<g>
				<g>
					<g>
						<g>
							<g>
								<g>
									<path class="st0" d="M559.94,279.22c-0.04,0.04-0.81-0.62-1.96-1.78c-1.15-1.16-2.68-2.83-4.24-4.78
										c-1.56-1.95-2.85-3.81-3.73-5.19c-0.88-1.38-1.36-2.27-1.31-2.3c0.06-0.04,0.63,0.79,1.58,2.12
										c0.94,1.33,2.27,3.14,3.82,5.08c1.55,1.94,3.03,3.63,4.11,4.84C559.3,278.43,559.98,279.17,559.94,279.22z"/>
								</g>
							</g>
						</g>
					</g>
				</g>
			</g>
		</g>
		<g>
			<g>
				<g>
					<g>
						<g>
							<g>
								<path class="st4" d="M473.31,278.84c3.74-4.62,7.48-9.23,11.22-13.85"/>
							</g>
						</g>
					</g>
				</g>
			</g>
			<g>
				<g>
					<g>
						<g>
							<g>
								<g>
									<path class="st0" d="M484.54,264.99c0.1,0.08-2.33,3.25-5.43,7.07c-3.1,3.83-5.69,6.86-5.79,6.78
										c-0.1-0.08,2.33-3.25,5.43-7.07C481.84,267.94,484.44,264.91,484.54,264.99z"/>
								</g>
							</g>
						</g>
					</g>
				</g>
			</g>
		</g>
		<g>
			<g>
				<g>
					<g>
						<g>
							<g>
								<path class="st0" d="M473.32,154.72c0.1-0.08,2.54,2.84,5.45,6.51c2.91,3.68,5.18,6.72,5.08,6.8
									c-0.1,0.08-2.54-2.84-5.45-6.51C475.5,157.85,473.22,154.8,473.32,154.72z"/>
							</g>
						</g>
					</g>
				</g>
			</g>
		</g>
		<g>
			<g>
				<g>
					<g>
						<g>
							<rect x="506.74" y="187.93" class="st0" width="21.56" height="61.23"/>
						</g>
					</g>
				</g>
			</g>
		</g>
	</g>
	<g>
		<g>
			<g>
				<g>
					
						<rect x="531.45" y="22.79" transform="matrix(1 -5.357791e-03 5.357791e-03 1 -0.2779 2.881)" class="st0" width="12.27" height="61.04"/>
				</g>
			</g>
		</g>
		<g>
			<g>
				<g>
					<g>
						
							<rect x="425.11" y="23.01" transform="matrix(1 -5.354392e-03 5.354392e-03 1 -0.2071 2.3618)" class="st2" width="31.77" height="33.7"/>
					</g>
				</g>
			</g>
			<g>
				<g>
					<g>
						
							<rect x="456.72" y="22.84" transform="matrix(1 -5.354414e-03 5.354414e-03 1 -0.2057 2.5311)" class="st3" width="31.77" height="33.7"/>
					</g>
				</g>
			</g>
			<g>
				<g>
					<g>
						<g>
							<path class="st0" d="M425.07,32.4c21.11,0.17,42.28,0.05,63.38-0.29c0.43-0.01,0.43-0.67,0-0.67
								c-21.11-0.12-42.28-0.01-63.38,0.39C424.69,31.83,424.69,32.39,425.07,32.4L425.07,32.4z"/>
						</g>
					</g>
				</g>
			</g>
		</g>
		<g>
			<g>
				<g>
					<g>
						
							<rect x="405.28" y="56.21" transform="matrix(1 -5.359059e-03 5.359059e-03 1 -0.3686 2.3276)" class="st2" width="57.72" height="27.46"/>
					</g>
				</g>
			</g>
			<g>
				<g>
					<g>
						
							<rect x="462.73" y="55.9" transform="matrix(1 -5.356509e-03 5.356509e-03 1 -0.366 2.6342)" class="st3" width="57.72" height="27.46"/>
					</g>
				</g>
			</g>
			<g>
				<g>
					<g>
						<g>
							<path class="st0" d="M405.25,64c38.34,0.43,76.82,0.04,115.16-0.57c0.43-0.01,0.43-0.67,0-0.68
								c-38.34-0.2-76.82-0.18-115.16,0.67C404.88,63.43,404.88,64,405.25,64L405.25,64z"/>
						</g>
					</g>
				</g>
			</g>
		</g>
		<g>
			<g>
				<g>
					<rect x="383.67" y="83.83" class="st0" width="223.61" height="9.84"/>
				</g>
			</g>
			<g>
				<g>
					<rect x="420.28" y="88.56" class="st0" width="9.08" height="33.57"/>
				</g>
			</g>
			<g>
				<g>
					<rect x="555.78" y="88.56" class="st0" width="9.08" height="33.57"/>
				</g>
			</g>
		</g>
		<g>
			<g>
				<g>
					
						<rect x="543.49" y="0.03" transform="matrix(1 -5.357783e-03 5.357783e-03 1 -0.2172 2.9453)" class="st2" width="12.27" height="83.95"/>
				</g>
			</g>
		</g>
		<g>
			<g>
				<g>
					<g>
						
							<rect x="555.82" y="15.68" transform="matrix(1 -5.360371e-03 5.360371e-03 1 -0.2583 3.0312)" class="st3" width="19.06" height="68.03"/>
					</g>
				</g>
			</g>
			<g>
				<g>
					<g>
						<path class="st0" d="M574.57,28.73c0,0.18-4.27,0.33-9.53,0.33c-5.26,0-9.53-0.15-9.53-0.33c0-0.18,4.27-0.33,9.53-0.33
							C570.3,28.4,574.57,28.55,574.57,28.73z"/>
					</g>
				</g>
			</g>
			<g>
				<g>
					<g>
						<path class="st0" d="M574.57,25.88c0,0.18-4.27,0.33-9.53,0.33c-5.26,0-9.53-0.15-9.53-0.33c0-0.18,4.27-0.33,9.53-0.33
							C570.3,25.55,574.57,25.69,574.57,25.88z"/>
					</g>
				</g>
			</g>
			<g>
				<g>
					<g>
						<path class="st0" d="M574.57,73.43c0,0.18-4.27,0.33-9.53,0.33c-5.26,0-9.53-0.15-9.53-0.33s4.27-0.33,9.53-0.33
							C570.3,73.1,574.57,73.24,574.57,73.43z"/>
					</g>
				</g>
			</g>
			<g>
				<g>
					<g>
						<path class="st0" d="M574.57,70.57c0,0.18-4.27,0.33-9.53,0.33c-5.26,0-9.53-0.15-9.53-0.33c0-0.18,4.27-0.33,9.53-0.33
							C570.3,70.24,574.57,70.39,574.57,70.57z"/>
					</g>
				</g>
			</g>
			<g>
				<g>
					<g>
						<path class="st0" d="M565.34,64.33c-0.18,0-0.33-6.86-0.33-15.33c0-8.47,0.15-15.33,0.33-15.33c0.18,0,0.33,6.86,0.33,15.33
							C565.67,57.47,565.53,64.33,565.34,64.33z"/>
					</g>
				</g>
			</g>
		</g>
		<g>
			<g>
				<g>
					<rect x="574.77" y="32.33" class="st2" width="20.75" height="51.35"/>
				</g>
			</g>
			<g>
				<g>
					<path class="st1" d="M585.73,70.37c-2.73,0-4.64-1.94-4.64-4.62c0-1.45,0.56-2.71,1.68-3.46l0.47,0.65
						c-0.93,0.67-1.36,1.68-1.36,2.82c0,2.15,1.54,3.73,3.85,3.73c2.31,0,3.85-1.57,3.85-3.73c0-1.14-0.44-2.15-1.37-2.82l0.47-0.65
						c1.1,0.75,1.68,2.01,1.68,3.46C590.37,68.43,588.45,70.37,585.73,70.37z"/>
				</g>
				<g>
					<path class="st1" d="M589.2,61.01l-0.7-0.4c0.6-0.7,1.1-1.94,1.1-3.29c0-1.92-0.68-2.69-1.71-2.69c-2.66,0-0.7,6.05-4.29,6.05
						c-1.38,0-2.5-1.15-2.5-3.46c0-1.15,0.35-2.41,0.89-3.13l0.7,0.4c-0.56,0.77-0.82,1.77-0.82,2.75c0,1.78,0.74,2.57,1.71,2.57
						c2.75,0,0.8-6.05,4.29-6.05c1.49,0,2.5,1.28,2.5,3.6C590.37,58.86,589.86,60.29,589.2,61.01z"/>
				</g>
				<g>
					<path class="st1" d="M589.2,52.65l-0.7-0.4c0.6-0.7,1.1-1.94,1.1-3.29c0-1.92-0.68-2.69-1.71-2.69c-2.66,0-0.7,6.05-4.29,6.05
						c-1.38,0-2.5-1.15-2.5-3.46c0-1.16,0.35-2.42,0.89-3.13l0.7,0.4c-0.56,0.77-0.82,1.77-0.82,2.75c0,1.78,0.74,2.57,1.71,2.57
						c2.75,0,0.8-6.05,4.29-6.05c1.49,0,2.5,1.28,2.5,3.6C590.37,50.5,589.86,51.93,589.2,52.65z"/>
				</g>
			</g>
		</g>
		<g>
			<g>
				<circle class="st0" cx="549.21" cy="14.33" r="3.53"/>
			</g>
		</g>
		<g>
			<g>
				<rect x="548.12" y="24.03" class="st0" width="2.18" height="49.94"/>
			</g>
		</g>
	</g>
</g>
<g id="Background_Simple" class="st6">
	<path class="st7" d="M473.29,188.67l-2.15-3.49c-17.36-28.25-48.4-45.66-81.54-44.54c-5.26,0.18-10.5,0.8-15.66,1.89
		c-30.95,6.54-57.89,29.66-69.05,59.26c-6.57,17.41-8.4,37.45-20.86,51.27c-16.22,17.98-43.74,18.55-67.95,17.8
		c-24.2-0.75-51.75-0.11-67.89,17.95c-10.11,11.31-13.32,27.39-12.5,42.53c2.16,40.09,30.45,75.94,66.43,93.76
		s78.34,19.41,117.72,11.58c55.16-10.98,107.62-41.14,139.16-87.71C490.53,302.39,498.51,238.94,473.29,188.67z"/>
</g>
<g id="Floor">
	<g>
		<g>
			<path class="st8" d="M633,605.05c0,0.21-141.39,0.38-315.76,0.38c-174.43,0-315.79-0.17-315.79-0.38
				c0-0.21,141.36-0.38,315.79-0.38C491.61,604.67,633,604.84,633,605.05z"/>
		</g>
	</g>
</g>
<g id="Hourglass">
	<g>
		<g>
			<g>
				<g>
					<path class="st1" d="M172.44,101.81c-23.49,36.95-21.95,88.18,3.71,123.65c17.11,23.65,42.78,39.5,63.16,60.39
						c20.38,20.9,35.86,51.69,25.1,78.82c-10.95,27.62-43.02,38.86-67.04,56.36c-26.16,19.06-44.53,48.5-50.16,80.37
						c-5.63,31.87,1.55,65.82,19.6,92.69h249.47c0,0,43.82-83.52-12.52-147.17c-56.34-63.65-86.6-64.69-84.52-106.43
						c2.09-41.74,31.3-55.3,48-70.95c16.69-15.65,98.08-52.17,50.08-167.75H172.44z"/>
				</g>
				<g>
					<g>
						<path class="st8" d="M172.44,101.81c0,0,1.45-0.02,4.29-0.03c2.86-0.01,7.09-0.02,12.65-0.03
							c11.13-0.02,27.54-0.04,48.68-0.07c42.32-0.03,103.56-0.08,179.27-0.13h0.18l0.07,0.17c3.41,8.66,6.85,17.57,9.3,27.01
							c2.51,9.4,4.57,19.2,5.3,29.35c0.76,10.13,0.44,20.6-1.58,30.99c-2.08,10.36-5.79,20.63-11.28,30.12
							c-2.73,4.76-5.93,9.27-9.4,13.63c-3.5,4.33-7.38,8.41-11.49,12.29c-4.11,3.88-8.5,7.54-13.04,11.04
							c-4.54,3.51-9.28,6.83-13.9,10.34c-2.32,1.75-4.43,3.71-6.64,5.67c-2.22,1.93-4.5,3.79-6.81,5.63
							c-4.61,3.69-9.27,7.37-13.66,11.41c-8.87,7.94-16.37,17.85-20.49,29.39c-2,5.76-3.43,11.79-3.9,17.96
							c-0.12,1.54-0.33,3.08-0.39,4.63c-0.03,1.55-0.12,3.1-0.04,4.66c0.02,3.11,0.37,6.22,0.94,9.28c1.17,6.13,3.75,12,7.49,17.09
							c3.69,5.14,8.23,9.66,12.94,14.01c9.47,8.66,19.52,16.93,29.14,25.85c9.67,8.87,19.06,18.24,28.1,28.09
							c4.49,4.94,9.05,9.91,12.97,15.43c4.06,5.41,7.46,11.32,10.46,17.44c5.9,12.29,9.55,25.77,10.74,39.56
							c1.29,13.79,0.3,27.84-2.43,41.59c-1.35,6.88-3.15,13.7-5.35,20.4c-2.21,6.71-4.75,13.32-7.92,19.7l-0.1,0.2h-0.24
							c-2.02,0-4.22,0-6.42,0c-85.16-0.01-167.33-0.01-243.05-0.02h-0.2l-0.11-0.16c-11.89-17.84-18.94-38.34-20.89-58.89
							c-2.07-20.55,1.09-41.15,8.63-59.44c7.44-18.35,19-34.45,32.98-47.1c6.97-6.38,14.73-11.59,22.51-16.42
							c7.79-4.84,15.64-9.31,23.07-14.2c7.39-4.9,14.52-10.13,20.31-16.52c5.81-6.34,10.24-13.78,12.57-21.78
							c2.33-8.01,2.35-16.41,0.99-24.31c-1.38-7.94-4.18-15.44-7.71-22.35c-3.54-6.92-7.84-13.27-12.56-19.07
							c-4.7-5.82-9.93-10.98-15.19-15.85c-10.56-9.72-21.37-18.22-31.1-26.96c-4.87-4.36-9.49-8.76-13.74-13.28
							c-4.22-4.55-8.08-9.21-11.39-14.04c-6.68-9.64-11.26-19.79-14.27-29.59c-3.02-9.81-4.51-19.29-4.86-28.02
							c-0.21-2.18-0.12-4.32-0.12-6.4c0.03-2.09-0.03-4.12,0.18-6.1c0.15-1.98,0.3-3.91,0.45-5.79c0.23-1.87,0.53-3.68,0.79-5.45
							c2.2-14.13,6.46-24.46,9.78-31.07c0.8-1.68,1.5-3.16,2.26-4.35c0.71-1.21,1.31-2.23,1.79-3.05
							C171.95,102.63,172.44,101.81,172.44,101.81c-0.1,0.18-0.51,0.9-1.41,2.5c-0.47,0.82-1.06,1.84-1.75,3.06
							c-0.74,1.19-1.44,2.67-2.22,4.35c-3.28,6.62-7.5,16.94-9.65,31.05c-0.25,1.76-0.55,3.57-0.77,5.44
							c-0.14,1.88-0.28,3.8-0.43,5.78c-0.21,1.97-0.14,4.01-0.17,6.09c0,2.08-0.08,4.21,0.13,6.38c0.36,8.7,1.87,18.16,4.9,27.93
							c3.02,9.76,7.6,19.87,14.27,29.46c3.31,4.81,7.16,9.45,11.37,13.98c4.24,4.5,8.86,8.89,13.73,13.24
							c9.73,8.71,20.54,17.2,31.13,26.93c5.28,4.88,10.53,10.05,15.26,15.89c4.74,5.82,9.07,12.2,12.64,19.16
							c3.56,6.95,6.38,14.5,7.78,22.5c1.38,7.97,1.37,16.47-0.99,24.57c-2.34,8.1-6.83,15.63-12.68,22.03
							c-5.83,6.45-13,11.71-20.41,16.63c-7.45,4.91-15.3,9.39-23.08,14.22c-7.77,4.83-15.49,10.02-22.41,16.36
							c-13.89,12.59-25.39,28.61-32.78,46.87c-7.49,18.19-10.62,38.68-8.56,59.11c1.94,20.43,8.97,40.81,20.79,58.55l-0.3-0.16
							c75.72-0.01,157.89-0.01,243.05-0.02c2.2,0,4.4,0,6.42,0l-0.34,0.2c3.13-6.31,5.68-12.92,7.87-19.59
							c2.2-6.68,3.98-13.46,5.33-20.31c2.72-13.69,3.7-27.66,2.42-41.37c-1.19-13.7-4.81-27.1-10.67-39.3
							c-2.97-6.07-6.35-11.95-10.39-17.32c-3.89-5.47-8.43-10.42-12.92-15.36c-9.03-9.83-18.4-19.19-28.05-28.05
							c-9.61-8.92-19.64-17.17-29.14-25.86c-4.72-4.36-9.3-8.92-13.03-14.12c-3.79-5.16-6.42-11.15-7.6-17.37
							c-0.57-3.11-0.93-6.26-0.95-9.4c-0.07-1.57,0.01-3.14,0.05-4.7c0.06-1.56,0.27-3.12,0.39-4.67
							c0.48-6.22,1.92-12.32,3.95-18.13c4.17-11.66,11.76-21.68,20.68-29.65c4.42-4.06,9.09-7.75,13.7-11.43
							c2.31-1.84,4.58-3.69,6.79-5.61c2.17-1.93,4.34-3.94,6.68-5.7c4.65-3.52,9.38-6.83,13.91-10.33c4.54-3.49,8.9-7.13,13-10.99
							c4.09-3.87,7.95-7.92,11.44-12.22c3.45-4.33,6.64-8.82,9.35-13.55c5.45-9.43,9.15-19.62,11.22-29.92
							c2.01-10.33,2.35-20.74,1.6-30.82c-0.72-10.11-2.76-19.87-5.26-29.25c-2.43-9.42-5.86-18.31-9.25-26.95l0.25,0.17
							c-75.66-0.06-136.87-0.1-179.16-0.13c-21.15-0.03-37.58-0.05-48.72-0.07c-5.57-0.02-9.82-0.03-12.68-0.03
							C173.91,101.84,172.44,101.81,172.44,101.81z"/>
					</g>
				</g>
			</g>
			<g>
				<path class="st9" d="M407.37,169.58c36.74,6.04-21.19,71.12-53.98,96.79c-18.99,14.87-39.38,30.99-48.4,53.36
					c-10.23,25.38-2.65,53.9-7.61,79.43c-0.82,4.24-7.09,3.57-7.03-0.75c0.24-16.76-0.2-33.5-2.98-50
					c-3.94-23.4-12.93-46.54-29.33-63.69c-13.39-14-30.94-23.3-45.22-36.38c-20.85-19.1-42.26-43.74-44.35-71.94
					c0,0,40.02-32.24,62.24-28.17c25.96,4.76,51.52,44.82,91.76,40.23C350.58,185.27,364.75,162.58,407.37,169.58z"/>
			</g>
			<g>
				<path class="st9" d="M410.63,517.89c-0.93-9.19-3.38-19.59-11.53-23.92c-4.94-2.63-10.96-2.33-16.37-0.91
					c-5.41,1.42-10.49,3.88-15.86,5.48c-10.55,3.13-22.11,2.77-32.45-1.03c-9.97-3.66-18.53-10.28-27.78-15.49
					c-9.26-5.2-20.09-9.08-30.4-6.52c-17.77,4.42-27.02,25.82-44.59,30.98c-7.81,2.3-16.19,1.01-24.13-0.79
					c-7.94-1.8-15.91-4.11-24.04-3.8c-6.37,0.24-13,2.44-17.47,6.81l0.05-0.06c-0.05,0.05-0.08,0.09-0.13,0.14
					c-0.74,0.73-1.41,1.51-2.01,2.36c-5.45,7.26-6.32,17.03-4.64,25.9c1.88,9.93,6.52,19.11,11.5,27.91
					c5.87,10.36,12.53,20.68,22.23,27.59c11.96,8.52,27.01,2.64,41.65,3.8c34.16,2.69,70.9,4.53,105.06,1.89
					c18.04-1.4,34.96,0.56,49.27-10.51c10.07-7.79,16.62-19.53,19.78-31.86C411.93,543.52,411.91,530.56,410.63,517.89z"/>
			</g>
			<g class="st10">
				<g>
					<path d="M346.17,500.3c-1.93,2.95-2.75,6.91-0.89,9.91c1.86,3,4.37,5.72,5.18,9.16c1.27,5.39-1.98,10.67-4.4,15.65
						c-4.33,8.91-6.3,19.08-4.84,28.88c1.46,9.8,6.49,19.17,14.33,25.22c3.47,2.68,7.98,4.75,12.16,3.44
						c3.94-1.23,6.48-5.23,7.26-9.28c0.78-4.05,0.14-8.22-0.38-12.32c-2.39-19-1.9-38.35,1.44-57.2c0.56-3.15,1.09-6.75-0.9-9.25
						c-1.28-1.6-3.31-2.35-5.25-2.99C362.27,498.98,354.06,501.79,346.17,500.3"/>
				</g>
			</g>
			<g>
				<path class="st8" d="M148.51,605.43c0,0-0.69-11.45,14.25-17.82h262.4c0,0,13.68,6.92,15.37,17.59L148.51,605.43z"/>
			</g>
			<g>
				<path class="st8" d="M419.59,103.21c-0.14,0.06-0.28,0.13-0.42,0.19l-246.73-1.59c0,0-0.88-0.56-2.19-1.59
					c-7.03-5.5-3.08-16.79,5.84-16.72l239.47,1.93C425.45,85.52,428.52,98.99,419.59,103.21z"/>
			</g>
			<g class="st10">
				<g>
					<path d="M380.1,197.33c0.5,0.95-1.35,3.01-4.89,6.15c-3.55,3.14-8.73,7.45-15.31,12.76c-6.62,5.26-14.64,11.61-24.86,17.53
						c-5.12,2.96-10.81,5.64-17.05,7.82c-3.13,1.05-6.38,2.03-9.79,2.71c-3.39,0.73-6.94,1.21-10.58,1.38
						c-7.27,0.42-14.66-0.65-21.27-2.91c-6.58-2.28-12.19-5.5-17.09-8.72c-4.92-3.26-9.16-6.48-13.15-9.56
						c-3.98-3.09-7.61-6.07-10.85-8.87c-12.96-11.23-19.78-19.49-18.46-21.08c1.36-1.66,10.53,3.59,24.83,12.38
						c3.57,2.19,7.48,4.59,11.68,7.17c4.19,2.55,8.7,5.37,13.3,7.98c4.61,2.61,9.42,4.98,14.41,6.51
						c4.96,1.48,10.24,2.19,15.86,1.87c11.24-0.57,22.14-4.53,31.59-9.09c9.5-4.65,17.99-9.91,25.4-14.05
						c7.4-4.19,13.73-7.29,18.33-8.94C376.8,196.71,379.62,196.41,380.1,197.33z"/>
				</g>
			</g>
			<g>
				<path class="st9" d="M290.55,429.75c2.71-0.95,5.94,1.77,5.47,4.6c-0.48,2.83-4.43,4.34-6.67,2.55c-2.25-1.79-1.66-5.98,1-7.08"
					/>
			</g>
			<g>
				<g>
					<path class="st8" d="M202.3,238.16c-0.02,0.02-0.32-0.29-0.87-0.88c-0.59-0.65-1.39-1.52-2.39-2.62
						c-1.01-1.16-2.34-2.51-3.7-4.22c-1.38-1.72-2.94-3.66-4.66-5.8c-1.59-2.25-3.4-4.67-5.21-7.36c-0.86-1.37-1.76-2.79-2.67-4.26
						c-0.45-0.74-0.94-1.46-1.38-2.24c-0.42-0.78-0.85-1.57-1.29-2.38c-3.6-6.34-6.81-13.77-9.09-21.88
						c-2.28-8.12-3.35-16.14-3.45-23.45c-0.01-1.83,0.09-3.61,0.14-5.33c0.04-0.86,0.03-1.72,0.11-2.55
						c0.09-0.83,0.18-1.65,0.26-2.46c0.18-1.61,0.31-3.18,0.53-4.67c0.27-1.48,0.53-2.9,0.77-4.26c0.42-2.73,1.14-5.13,1.66-7.25
						c0.28-1.06,0.5-2.05,0.78-2.95c0.29-0.89,0.56-1.7,0.8-2.44c0.47-1.41,0.85-2.53,1.13-3.36c0.27-0.77,0.42-1.16,0.44-1.15
						c0.02,0.01-0.08,0.42-0.3,1.2c-0.25,0.84-0.57,1.98-0.99,3.4c-0.22,0.74-0.47,1.56-0.73,2.45c-0.26,0.9-0.46,1.9-0.72,2.96
						c-0.48,2.13-1.16,4.52-1.54,7.25c-0.23,1.35-0.47,2.77-0.72,4.25c-0.2,1.48-0.31,3.04-0.48,4.64c-0.08,0.8-0.16,1.62-0.24,2.45
						c-0.08,0.83-0.06,1.68-0.09,2.54c-0.03,1.72-0.12,3.48-0.1,5.3c0.14,7.25,1.22,15.2,3.48,23.25
						c2.26,8.05,5.42,15.43,8.97,21.75c0.43,0.8,0.85,1.59,1.27,2.37c0.43,0.77,0.91,1.5,1.36,2.23c0.9,1.46,1.78,2.88,2.63,4.26
						c1.79,2.69,3.56,5.12,5.12,7.38c1.68,2.16,3.21,4.12,4.56,5.85c1.32,1.74,2.62,3.11,3.59,4.3c0.96,1.14,1.71,2.04,2.28,2.71
						C202.05,237.8,202.32,238.14,202.3,238.16z"/>
				</g>
			</g>
			<g>
				<g>
					<path class="st8" d="M188.4,455.63c-0.01-0.01,0.08-0.17,0.27-0.48c0.22-0.34,0.5-0.8,0.87-1.38c0.4-0.61,0.88-1.36,1.44-2.23
						c0.29-0.44,0.6-0.91,0.92-1.42c0.36-0.48,0.78-0.97,1.21-1.5c0.87-1.06,1.82-2.23,2.87-3.51c1.13-1.21,2.42-2.47,3.77-3.85
						c2.78-2.69,6.14-5.56,10.05-8.46c7.77-5.89,17.8-11.74,28.66-18.57c5.39-3.47,11.07-7.13,16.43-11.58
						c5.37-4.42,10.55-9.51,14.75-15.58c8.27-12.3,11.63-26.54,11.92-39.28c0.33-12.83-2.4-24.26-5.61-33.37
						c-3.25-9.14-6.99-16.1-9.7-20.79c-1.36-2.35-2.47-4.14-3.24-5.35c-0.36-0.58-0.65-1.04-0.86-1.38
						c-0.19-0.31-0.28-0.48-0.27-0.49c0.01-0.01,0.12,0.14,0.34,0.44c0.23,0.33,0.54,0.78,0.93,1.34c0.81,1.18,1.96,2.95,3.36,5.28
						c2.79,4.66,6.61,11.6,9.95,20.76c3.3,9.13,6.1,20.62,5.81,33.56c-0.05,3.23-0.32,6.53-0.81,9.87
						c-0.46,3.35-1.17,6.73-2.14,10.11c-1.88,6.77-4.9,13.49-9.04,19.7c-4.25,6.16-9.49,11.3-14.91,15.74
						c-5.41,4.48-11.12,8.13-16.53,11.59c-10.91,6.81-20.94,12.6-28.71,18.41c-3.91,2.86-7.28,5.69-10.08,8.33
						c-1.36,1.36-2.66,2.6-3.8,3.79c-1.06,1.26-2.03,2.41-2.91,3.45c-0.43,0.52-0.86,1-1.23,1.47c-0.34,0.5-0.65,0.96-0.95,1.39
						c-0.58,0.85-1.08,1.58-1.5,2.18c-0.39,0.56-0.7,1-0.93,1.33C188.53,455.49,188.42,455.64,188.4,455.63z"/>
				</g>
			</g>
			<g>
				<g>
					<path class="st8" d="M174.79,481.5c0.02,0.01-0.09,0.25-0.32,0.68c-0.28,0.5-0.63,1.12-1.04,1.86c-0.47,0.8-1.03,1.78-1.6,2.97
						c-0.58,1.18-1.31,2.49-1.92,4.02c-0.33,0.76-0.67,1.56-1.03,2.38c-0.35,0.83-0.64,1.72-0.98,2.63c-0.72,1.81-1.27,3.81-1.9,5.9
						c-1.13,4.22-2.07,8.93-2.56,13.95c-0.43,5.02-0.37,9.83-0.03,14.19c0.24,2.17,0.42,4.24,0.8,6.15
						c0.17,0.96,0.29,1.89,0.49,2.77c0.2,0.88,0.39,1.72,0.58,2.53c0.33,1.62,0.81,3.04,1.16,4.31c0.34,1.27,0.71,2.34,1.03,3.21
						c0.27,0.81,0.5,1.48,0.69,2.02c0.15,0.47,0.22,0.72,0.19,0.73c-0.02,0.01-0.14-0.22-0.33-0.67c-0.22-0.53-0.49-1.19-0.82-1.98
						c-0.36-0.86-0.78-1.92-1.16-3.18c-0.39-1.26-0.91-2.68-1.27-4.31c-0.2-0.81-0.41-1.66-0.63-2.54
						c-0.21-0.88-0.35-1.82-0.54-2.78c-0.4-1.92-0.61-4-0.88-6.19c-0.38-4.39-0.47-9.25-0.03-14.32c0.49-5.07,1.46-9.83,2.64-14.07
						c0.66-2.1,1.24-4.11,1.99-5.93c0.36-0.91,0.66-1.81,1.03-2.64c0.38-0.82,0.74-1.62,1.08-2.38c0.65-1.53,1.42-2.83,2.04-4
						c0.6-1.18,1.2-2.14,1.72-2.92c0.47-0.72,0.85-1.31,1.17-1.79C174.61,481.69,174.77,481.48,174.79,481.5z"/>
				</g>
			</g>
		</g>
		<g>
			<g>
				<path class="st8" d="M355.77,516.68c0.01,0.01-0.09,0.08-0.3,0.22c-0.24,0.15-0.54,0.34-0.91,0.57
					c-0.86,0.52-2.05,1.23-3.55,2.13c-0.78,0.46-1.64,0.97-2.58,1.53c-0.96,0.53-2.04,1.03-3.18,1.61c-2.3,1.11-4.86,2.53-7.87,3.66
					c-1.49,0.61-3.05,1.25-4.68,1.92c-1.63,0.65-3.39,1.16-5.18,1.78c-3.56,1.3-7.51,2.23-11.63,3.3
					c-8.31,1.85-17.61,3.21-27.45,3.52c-9.84,0.2-19.2-0.67-27.6-2.08c-4.17-0.86-8.16-1.58-11.79-2.69
					c-1.82-0.52-3.6-0.94-5.27-1.51c-1.66-0.58-3.25-1.14-4.77-1.67c-3.07-0.98-5.7-2.26-8.06-3.25c-1.17-0.52-2.27-0.96-3.26-1.44
					c-0.97-0.51-1.85-0.97-2.65-1.39c-1.55-0.82-2.77-1.47-3.66-1.95c-0.38-0.21-0.69-0.38-0.94-0.52c-0.21-0.12-0.31-0.19-0.31-0.2
					c0.01-0.01,0.12,0.03,0.35,0.13c0.26,0.12,0.58,0.27,0.98,0.46c0.9,0.44,2.15,1.05,3.72,1.82c0.81,0.4,1.7,0.84,2.68,1.33
					c0.99,0.46,2.1,0.88,3.27,1.38c2.37,0.95,5,2.19,8.07,3.13c1.52,0.52,3.11,1.06,4.77,1.62c1.66,0.55,3.44,0.95,5.26,1.46
					c3.62,1.08,7.59,1.78,11.74,2.61c8.36,1.37,17.67,2.21,27.46,2.01c9.78-0.31,19.03-1.64,27.31-3.44
					c4.11-1.05,8.04-1.95,11.59-3.22c1.79-0.6,3.54-1.09,5.17-1.73c1.62-0.65,3.18-1.27,4.68-1.86c3.02-1.1,5.58-2.48,7.89-3.55
					c1.15-0.56,2.23-1.04,3.2-1.55c0.95-0.53,1.82-1.02,2.6-1.47c1.53-0.85,2.74-1.52,3.62-2.01c0.38-0.2,0.7-0.37,0.95-0.51
					C355.65,516.72,355.77,516.66,355.77,516.68z"/>
			</g>
		</g>
		<g>
			<g>
				<path class="st8" d="M371.04,206.87c0.01,0.01-0.1,0.11-0.31,0.29c-0.25,0.21-0.57,0.47-0.96,0.79
					c-0.9,0.72-2.15,1.71-3.74,2.98c-3.26,2.57-7.96,6.31-13.92,10.76c-5.96,4.42-13.18,9.58-21.77,14.39
					c-4.34,2.32-8.95,4.68-14.03,6.45c-5.06,1.78-10.49,3.15-16.19,3.6c-11.44,0.77-22.28-2.12-31.1-6.47
					c-4.41-2.21-8.39-4.69-12.01-7.14c-3.57-2.52-6.84-4.96-9.72-7.3c-5.8-4.65-10.34-8.59-13.49-11.29
					c-1.54-1.33-2.75-2.38-3.62-3.13c-0.38-0.34-0.69-0.61-0.93-0.83c-0.21-0.19-0.31-0.29-0.3-0.3c0.01-0.01,0.13,0.07,0.35,0.24
					c0.25,0.2,0.58,0.45,0.98,0.77c0.89,0.72,2.13,1.73,3.71,3.02c3.21,2.63,7.81,6.5,13.63,11.09c2.9,2.31,6.17,4.71,9.75,7.2
					c3.62,2.42,7.58,4.86,11.96,7.03c8.75,4.27,19.46,7.1,30.73,6.34c5.61-0.44,10.98-1.79,15.99-3.54
					c5.03-1.74,9.62-4.08,13.94-6.37c8.56-4.76,15.8-9.85,21.79-14.21c5.98-4.39,10.74-8.06,14.05-10.56
					c1.63-1.22,2.91-2.18,3.82-2.87c0.41-0.3,0.74-0.54,1.01-0.73C370.91,206.94,371.03,206.86,371.04,206.87z"/>
			</g>
		</g>
		<g class="st10">
			<g>
				<path d="M239.02,528.97c6.94-5.36,16.68-4.06,25.26-2.25s17.21,4.73,25.89,3.52c6.54-0.92,12.54-4.13,19-5.53
					c6.45-1.4,14.29-0.36,17.86,5.19C298.63,539.13,267.22,538.8,239.02,528.97"/>
			</g>
		</g>
	</g>
</g>
<g id="Character">
	<g>
		<g>
			<g>
				<g>
					<g>
						<path class="st9" d="M481.09,489.25l-31.53-35.3l-0.32,42.91l9.49,27.52l-94.3,16.36l-4-74.41l-6.79-57.14
							c-0.83-7,3.16-13.68,9.72-16.27l25.95-10.22l36.55,6.71l14.7,5.59c6.17,2.35,11.68,6.17,16.02,11.15l44.26,50.62"/>
					</g>
				</g>
				<g>
					<g>
						<path class="st4" d="M447.36,445.51c0.01-0.15,2.07,0.16,5.33-0.37c3.22-0.5,7.66-2.08,11.35-5.47
							c3.68-3.4,5.61-7.71,6.37-10.88c0.79-3.2,0.65-5.28,0.8-5.28c0.05,0,0.12,0.51,0.13,1.45c0.02,0.94-0.08,2.3-0.41,3.95
							c-0.64,3.27-2.55,7.78-6.38,11.32c-3.83,3.53-8.48,5.07-11.79,5.44c-1.67,0.2-3.04,0.18-3.97,0.09
							C447.86,445.67,447.35,445.56,447.36,445.51z"/>
					</g>
				</g>
				<g>
					<g>
						<g>
							<path class="st8" d="M450.12,495.03c0.22,0,0.28-14.87,0.13-33.2c-0.15-18.34-0.45-33.19-0.67-33.19
								c-0.22,0-0.28,14.86-0.13,33.2C449.59,480.17,449.89,495.03,450.12,495.03z"/>
						</g>
					</g>
				</g>
			</g>
			<g>
				<path class="st9" d="M446.66,505.94L389.68,483c-4.6-1.85-7.74-6.15-8.12-11.09l-4.17-54.63c0,0,0.49-23.23-14.02-24.37
					l-8.26,3.25c-10.67,5.67-13.31,21.2-11.86,33.2c2.06,17.04,2.92,41.16,5.23,55.95c1.89,12.1,8.82,22.74,20.66,25.86l70.18,15.19
					L446.66,505.94z"/>
			</g>
			<g>
				<g>
					<path class="st8" d="M378.21,425.62c0.03,0,0.09,0.43,0.18,1.25c0.09,0.89,0.21,2.09,0.37,3.6c0.29,3.2,0.7,7.71,1.21,13.25
						c0.48,5.62,1.05,12.27,1.69,19.66c0.16,1.85,0.31,3.75,0.48,5.68c0.17,1.94,0.29,3.92,0.73,5.85c0.42,1.93,1.35,3.74,2.83,5.12
						c1.48,1.38,3.33,2.39,5.26,3.27c15.71,6.8,30.19,12.41,40.7,16.35c5.22,1.92,9.46,3.49,12.48,4.6
						c1.42,0.52,2.55,0.94,3.39,1.25c0.77,0.29,1.18,0.46,1.17,0.48c-0.01,0.02-0.43-0.09-1.22-0.34c-0.85-0.28-2-0.65-3.44-1.12
						c-2.98-0.99-7.28-2.47-12.57-4.37c-10.57-3.81-25.08-9.34-40.84-16.16c-1.96-0.89-3.88-1.93-5.46-3.41
						c-1.59-1.47-2.61-3.48-3.04-5.5c-0.46-2.02-0.56-4.02-0.73-5.95c-0.15-1.94-0.3-3.83-0.45-5.69
						c-0.57-7.39-1.09-14.05-1.53-19.67c-0.4-5.55-0.73-10.06-0.96-13.27c-0.09-1.51-0.17-2.72-0.22-3.61
						C378.19,426.05,378.18,425.62,378.21,425.62z"/>
				</g>
			</g>
			<g>
				<g>
					<path class="st8" d="M345.56,455.31c0.03,0,0.06,0.25,0.11,0.73c0.05,0.57,0.11,1.27,0.19,2.11c0.17,1.95,0.4,4.57,0.68,7.75
						c0.31,3.27,0.71,7.16,1.28,11.46c0.59,4.29,1.28,9.03,2.57,13.84c0.61,2.43,1.47,4.67,2.78,6.6c1.31,1.94,2.76,3.69,4.26,5.23
						c3.01,3.08,6.23,5.34,9.12,6.84c5.83,3.03,10.07,3.07,10.01,3.28c0,0.03-0.26,0.02-0.74-0.02c-0.48-0.03-1.2-0.09-2.11-0.27
						c-1.82-0.32-4.43-1.03-7.4-2.51c-2.97-1.46-6.28-3.72-9.37-6.83c-1.54-1.56-3.03-3.33-4.37-5.3c-1.36-1.98-2.29-4.38-2.9-6.81
						c-1.31-4.88-1.98-9.64-2.53-13.95c-0.53-4.32-0.87-8.23-1.12-11.51c-0.24-3.28-0.37-5.94-0.43-7.78
						c-0.02-0.85-0.03-1.55-0.05-2.12C345.52,455.57,345.54,455.32,345.56,455.31z"/>
				</g>
			</g>
			<g>
				<g>
					<path class="st8" d="M369.93,493.54c-0.08-0.02,0.16-1.24,1.04-3.04c0.86-1.79,2.46-4.11,4.78-6.1
						c2.33-1.98,4.87-3.2,6.78-3.77c1.91-0.58,3.15-0.63,3.16-0.55c0.02,0.13-1.17,0.36-2.98,1.06c-1.81,0.69-4.21,1.93-6.46,3.84
						c-2.24,1.92-3.84,4.1-4.8,5.78C370.47,492.44,370.05,493.59,369.93,493.54z"/>
				</g>
			</g>
			<g>
				<g>
					<path class="st4" d="M381.13,452c0.01-0.01,0.13,0.04,0.36,0.16c0.27,0.14,0.6,0.32,1.02,0.53c0.91,0.43,2.25,1.11,4.07,1.72
						c3.58,1.24,9.2,2.51,15.97,1.36c6.69-1.09,14.47-5.04,19.85-12.33c2.67-3.6,4.73-8.04,5.2-12.91c0.24-2.42,0.04-4.94-0.76-7.3
						c-0.78-2.36-2.21-4.56-4.11-6.28c-1.88-1.72-4.23-2.94-6.69-3.25c-2.42-0.38-5.02,0.26-6.7,1.88
						c-0.81,0.82-1.32,1.91-1.31,3.03c0,1.12,0.43,2.23,1.1,3.13c1.35,1.84,3.62,2.7,5.8,3.02c4.44,0.61,8.8-0.19,12.45-1.78
						c3.67-1.6,6.67-3.98,8.83-6.6c2.16-2.63,3.5-5.48,4.29-8.07c0.8-2.59,1.05-4.95,1.08-6.86c0.03-1.92-0.17-3.4-0.32-4.4
						c-0.08-0.46-0.15-0.83-0.21-1.13c-0.04-0.26-0.06-0.39-0.05-0.39c0,0,0.81,2.03,0.87,5.92c0.01,1.93-0.2,4.32-0.97,6.98
						c-0.77,2.64-2.09,5.56-4.28,8.29c-2.19,2.71-5.24,5.17-8.99,6.84c-3.74,1.65-8.21,2.51-12.81,1.9
						c-2.26-0.33-4.75-1.22-6.28-3.28c-0.75-1-1.25-2.25-1.25-3.57c-0.02-1.32,0.59-2.63,1.52-3.56c1.91-1.85,4.73-2.51,7.33-2.11
						c2.64,0.33,5.12,1.63,7.1,3.44c1.99,1.81,3.49,4.11,4.32,6.6c0.83,2.49,1.03,5.11,0.78,7.62c-0.5,5.04-2.64,9.58-5.38,13.26
						c-5.54,7.44-13.51,11.4-20.33,12.45c-6.91,1.09-12.58-0.28-16.16-1.62C382.86,453.31,381.13,452,381.13,452z"/>
				</g>
			</g>
			<g>
				<g>
					<path class="st4" d="M343.81,437.43c-0.04-0.03,0.28-0.46,0.94-1.17c0.66-0.7,1.67-1.67,3.08-2.68
						c2.77-2.08,7.35-3.97,12.61-4.47c2.63-0.28,5.18-0.15,7.43,0.31c2.25,0.47,4.19,1.23,5.72,2.01c1.54,0.78,2.71,1.55,3.48,2.12
						c0.77,0.57,1.17,0.92,1.14,0.96c-0.08,0.12-1.78-1.17-4.86-2.6c-3.04-1.45-7.69-2.67-12.84-2.05
						c-5.15,0.49-9.6,2.24-12.38,4.15C345.31,435.9,343.91,437.53,343.81,437.43z"/>
				</g>
			</g>
			<g>
				<g>
					<path class="st4" d="M352.92,398.36c0.12-0.13,1.46,1.74,4.61,3.35c1.56,0.81,3.57,1.48,5.87,1.72
						c2.29,0.24,4.89-0.02,7.35-1.01c2.45-1.04,4.47-2.68,5.92-4.48c1.46-1.79,2.41-3.7,2.94-5.37c1.09-3.37,0.72-5.64,0.89-5.63
						c0.04,0,0.15,0.54,0.19,1.55c0.04,1.01-0.08,2.49-0.57,4.24c-0.48,1.75-1.41,3.75-2.91,5.65c-1.48,1.89-3.59,3.65-6.18,4.74
						c-2.6,1.05-5.33,1.3-7.72,1.01c-2.4-0.29-4.47-1.05-6.05-1.94c-1.58-0.89-2.71-1.85-3.4-2.6
						C353.2,398.85,352.89,398.39,352.92,398.36z"/>
				</g>
			</g>
			<g>
				<g>
					<path class="st4" d="M402.58,488.19c-0.03,0,0.01-0.37,0.12-1.08c0.16-0.69,0.39-1.73,1.01-2.95c1.15-2.45,4.01-5.53,8.53-7.4
						c4.45-2,10.58-2.39,16.75-0.6c3.01,0.9,6.47,2,8.73,4.94c1.11,1.45,1.49,3.6,0.64,5.36c-0.81,1.77-2.39,2.98-4.06,3.83
						c-1.7,0.83-3.54,1.3-5.39,1.34c-1.83,0.04-3.75-0.42-5.18-1.61c-1.45-1.17-2.21-2.97-2.32-4.69c-0.13-1.74,0.22-3.41,0.78-4.94
						c2.43-6.1,7.34-9.97,11.74-11.89c4.48-1.96,8.53-2.17,11.21-1.93c2.7,0.28,4.1,0.86,4.1,0.86c-0.02,0.1-1.45-0.38-4.12-0.57
						c-2.64-0.15-6.61,0.14-10.96,2.12c-2.16,0.99-4.39,2.4-6.39,4.34c-2,1.93-3.79,4.4-4.91,7.3c-0.52,1.45-0.84,3.05-0.71,4.64
						c0.12,1.58,0.8,3.15,2.07,4.18c1.26,1.04,2.98,1.46,4.69,1.43c1.72-0.03,3.47-0.48,5.07-1.26c1.57-0.79,3.02-1.94,3.71-3.46
						c0.72-1.51,0.42-3.31-0.56-4.61c-0.96-1.33-2.37-2.29-3.81-3.03c-1.45-0.73-3-1.23-4.5-1.68c-6.05-1.78-11.98-1.46-16.36,0.42
						c-4.44,1.77-7.27,4.69-8.47,7.04C402.72,486.67,402.69,488.22,402.58,488.19z"/>
				</g>
			</g>
			<g>
				<g>
					<path class="st4" d="M364.64,508.76c-0.02-0.14,2.17-0.33,5.46-1.5c3.27-1.15,7.63-3.5,11.2-7.44
						c3.57-3.95,5.47-8.52,6.28-11.9c0.84-3.39,0.8-5.6,0.95-5.59c0.05,0,0.1,0.55,0.08,1.54c-0.02,0.99-0.14,2.43-0.5,4.17
						c-0.69,3.47-2.56,8.22-6.24,12.29c-3.68,4.07-8.21,6.4-11.59,7.44c-1.7,0.53-3.11,0.8-4.1,0.92
						C365.19,508.81,364.64,508.81,364.64,508.76z"/>
				</g>
			</g>
			<g>
				<g>
					<path class="st4" d="M346.17,466.3c-0.01-0.02,0.23-0.12,0.69-0.28c0.46-0.15,1.14-0.36,2.03-0.59
						c1.78-0.43,4.43-1.02,7.76-0.79c1.66,0.13,3.47,0.51,5.28,1.3c1.79,0.8,3.59,2.05,4.92,3.86c1.31,1.82,2.11,4.18,1.91,6.64
						c-0.09,1.23-0.47,2.46-1.13,3.56c-0.67,1.09-1.67,2.07-2.99,2.5c-1.3,0.41-2.82,0.2-3.85-0.76c-1.01-0.98-1.27-2.36-1.33-3.55
						c-0.09-2.43,0.43-4.76,1.34-6.78c1.81-4.09,5.18-6.77,8.31-7.89c3.15-1.17,5.94-1.08,7.75-0.77c0.91,0.16,1.6,0.36,2.06,0.52
						c0.46,0.17,0.69,0.27,0.68,0.3c-0.02,0.08-0.98-0.3-2.78-0.53c-1.79-0.22-4.5-0.21-7.51,0.98c-2.99,1.14-6.16,3.75-7.86,7.67
						c-0.85,1.94-1.33,4.16-1.24,6.45c0.06,1.12,0.32,2.29,1.1,3.04c0.77,0.73,2.03,0.93,3.1,0.59c1.08-0.35,1.97-1.19,2.57-2.17
						c0.6-0.99,0.94-2.1,1.03-3.23c0.19-2.26-0.54-4.47-1.74-6.17c-1.22-1.7-2.91-2.91-4.61-3.7c-1.72-0.79-3.46-1.18-5.06-1.34
						c-3.23-0.29-5.86,0.2-7.65,0.54C347.17,466.09,346.19,466.36,346.17,466.3z"/>
				</g>
			</g>
			<g class="st11">
				<g>
					<path d="M430.29,499.43c-6.09-3.44-12.05-6.09-18.42-8.98c-6.37-2.9-12.61-6.61-16.78-12.23c-7.86-10.6-6.97-25.9-15.02-36.36
						c0.53,7.03,1.05,14.07,1.58,21.1c0.48,6.45-0.51,12.82,3.65,17.2c3.5,3.69,10.32,6.52,15.15,8.11
						C410.14,491.47,420.58,496.23,430.29,499.43"/>
				</g>
			</g>
		</g>
		<g>
			<g>
				<g>
					<path class="st9" d="M529.3,579.72c0,0,47.68,13.2,49.59,13.87c2.87,1.01,2.39,11.53-2.08,11.37
						c-2.11-0.08-36.62,1.29-40.98,1.01c-4.36-0.27-17.51-5.46-17.51-5.46L529.3,579.72z"/>
				</g>
			</g>
			<g>
				<g>
					<g>
						<path class="st8" d="M549.16,597.91c0.24,0.03,0.56-2.49,2.1-5.12c1.5-2.65,3.52-4.2,3.37-4.39
							c-0.08-0.18-2.45,1.16-4.06,3.99C548.93,595.21,548.96,597.93,549.16,597.91z"/>
					</g>
				</g>
			</g>
			<g>
				<g>
					<g>
						<path class="st8" d="M544.19,595.66c0.23,0.04,0.72-2.21,1.99-4.7c1.25-2.5,2.77-4.23,2.6-4.4c-0.13-0.16-1.99,1.4-3.31,4.04
							C544.13,593.22,543.98,595.64,544.19,595.66z"/>
					</g>
				</g>
			</g>
			<g>
				<g>
					<g>
						<path class="st8" d="M539.52,594.41c0.24-0.01,0.06-2.4,1.11-5.04c1.01-2.66,2.76-4.28,2.6-4.46
							c-0.1-0.18-2.23,1.29-3.34,4.17C538.76,591.94,539.33,594.48,539.52,594.41z"/>
					</g>
				</g>
			</g>
			<g>
				<g>
					<g>
						<path class="st8" d="M540.37,588.25c0.09,0.02,0.51-1.31,0.51-3.55c0-1.11-0.13-2.45-0.48-3.89
							c-0.17-0.72-0.41-1.46-0.71-2.21c-0.15-0.38-0.33-0.81-0.76-1.17c-0.44-0.4-1.25-0.32-1.64,0.08
							c-0.44,0.38-0.58,0.92-0.64,1.35c-0.05,0.44-0.07,0.85-0.06,1.26c0.01,0.82,0.12,1.61,0.29,2.33
							c0.35,1.46,0.92,2.68,1.47,3.64c1.11,1.93,2.07,2.92,2.14,2.87c0.11-0.08-0.69-1.19-1.64-3.13c-0.47-0.97-0.96-2.17-1.25-3.54
							c-0.15-0.69-0.23-1.42-0.23-2.18c0.02-0.73,0.01-1.65,0.44-2c0.23-0.19,0.43-0.2,0.63-0.05c0.21,0.16,0.39,0.49,0.52,0.83
							c0.3,0.71,0.54,1.42,0.72,2.1c0.38,1.37,0.56,2.65,0.63,3.72C540.46,586.88,540.24,588.23,540.37,588.25z"/>
					</g>
				</g>
			</g>
			<g>
				<g>
					<g>
						<path class="st8" d="M540.31,587.77c0.02-0.09-1.13-0.48-3.08-0.5c-0.97,0-2.13,0.1-3.38,0.41c-0.62,0.17-1.28,0.33-1.95,0.72
							c-0.65,0.33-1.34,1.24-1.08,2.18c0.2,0.89,0.96,1.51,1.72,1.7c0.76,0.21,1.49,0.14,2.14-0.01c1.31-0.3,2.33-0.94,3.1-1.52
							c1.53-1.2,2.27-2.12,2.22-2.18c-0.08-0.1-0.99,0.68-2.54,1.72c-0.78,0.5-1.76,1.04-2.92,1.27c-0.58,0.11-1.2,0.15-1.77-0.02
							c-0.56-0.15-1.03-0.58-1.16-1.13c-0.14-0.53,0.19-1.02,0.71-1.33c0.51-0.32,1.14-0.5,1.73-0.67c1.18-0.34,2.28-0.49,3.21-0.56
							C539.12,587.7,540.29,587.89,540.31,587.77z"/>
					</g>
				</g>
			</g>
			<g>
				<g>
					<g>
						<path class="st8" d="M556.48,598.42c0.24-0.03,0-2.06,0.94-4.3c0.89-2.25,2.48-3.55,2.33-3.73c-0.08-0.19-2.07,0.94-3.07,3.43
							C555.66,596.3,556.29,598.51,556.48,598.42z"/>
					</g>
				</g>
			</g>
			<g>
				<g>
					<g>
						<path class="st8" d="M523.22,600.62c-0.02,0.05,0.63,0.36,1.84,0.87c1.23,0.46,3.02,1.11,5.31,1.64
							c4.56,1.15,11.06,1.8,18.2,1.72c7.14-0.08,13.58-0.4,18.25-0.59c2.21-0.12,4.06-0.22,5.52-0.29c1.3-0.09,2.02-0.16,2.02-0.22
							c0-0.06-0.72-0.09-2.03-0.09c-1.46,0.01-3.32,0.02-5.53,0.04c-4.83,0.09-11.2,0.22-18.24,0.36
							c-7.11,0.07-13.53-0.48-18.07-1.48C525.93,601.65,523.27,600.47,523.22,600.62z"/>
					</g>
				</g>
			</g>
			<g>
				<g>
					<g>
						<path class="st8" d="M521.81,601.71c0.06,0.11,1.37-0.65,3.57-1.62c2.18-0.93,5.44-2.05,9.02-1.5
							c3.59,0.55,6.14,2.96,7.8,4.64c1.67,1.74,2.65,2.89,2.75,2.81c0.07-0.06-0.74-1.33-2.33-3.19c-0.8-0.92-1.83-1.99-3.16-2.96
							c-1.32-0.97-3.02-1.8-4.93-2.09c-3.84-0.59-7.23,0.7-9.39,1.78C522.95,600.7,521.76,601.63,521.81,601.71z"/>
					</g>
				</g>
			</g>
		</g>
		<g>
			<g>
				<g>
					<path class="st9" d="M478.69,566.56c0,0-45.12,29.54-46.73,30.76c-2.43,1.84,0.36,10.58,4.57,9.06
						c1.99-0.72,39.85-11.25,43.92-12.83c4.07-1.58,15.03-10.52,15.03-10.52L478.69,566.56z"/>
				</g>
			</g>
			<g>
				<g>
					<g>
						<path class="st8" d="M465.29,589.92c0.2-0.04-0.6-2.64-3.02-4.83c-2.39-2.21-5.06-2.77-5.08-2.57
							c-0.08,0.23,2.31,1.09,4.54,3.16C464,587.72,465.07,590.02,465.29,589.92z"/>
					</g>
				</g>
			</g>
			<g>
				<g>
					<g>
						<path class="st8" d="M469.34,586.26c0.19-0.07-0.68-2.34-2.75-4.44c-2.05-2.11-4.3-3.03-4.38-2.84
							c-0.11,0.21,1.86,1.39,3.81,3.4C467.99,584.37,469.13,586.37,469.34,586.26z"/>
					</g>
				</g>
			</g>
			<g>
				<g>
					<g>
						<path class="st8" d="M473.41,583.66c0.2,0.01-0.02-2.58-1.97-4.96c-1.93-2.4-4.41-3.16-4.45-2.96
							c-0.11,0.22,2.05,1.23,3.83,3.46C472.62,581.39,473.17,583.72,473.41,583.66z"/>
					</g>
				</g>
			</g>
			<g>
				<g>
					<g>
						<path class="st8" d="M470.73,578.05c0.12-0.06-0.5-1.28-1.02-3.38c-0.26-1.05-0.47-2.32-0.53-3.74
							c-0.03-0.71-0.02-1.46,0.05-2.22c0.02-0.37,0.09-0.74,0.24-0.95c0.14-0.2,0.34-0.25,0.62-0.14c0.52,0.21,0.78,1.08,1.03,1.77
							c0.23,0.72,0.37,1.45,0.44,2.15c0.14,1.4,0.04,2.69-0.11,3.76c-0.32,2.14-0.74,3.44-0.61,3.48c0.08,0.03,0.7-1.2,1.17-3.39
							c0.23-1.09,0.4-2.42,0.29-3.92c-0.05-0.75-0.19-1.53-0.43-2.31c-0.12-0.4-0.26-0.78-0.44-1.18c-0.19-0.39-0.48-0.86-1.01-1.09
							c-0.49-0.26-1.28-0.1-1.58,0.42c-0.31,0.47-0.34,0.94-0.37,1.35c-0.06,0.81-0.06,1.59,0,2.32c0.1,1.48,0.39,2.79,0.72,3.85
							C469.85,576.95,470.66,578.09,470.73,578.05z"/>
					</g>
				</g>
			</g>
			<g>
				<g>
					<g>
						<path class="st8" d="M470.64,577.57c0.06,0.12,1.11-0.42,2.93-0.86c0.91-0.22,2.01-0.4,3.23-0.44
							c0.61-0.01,1.27-0.03,1.85,0.12c0.59,0.14,1.05,0.5,1.08,1.05c0.04,0.56-0.27,1.11-0.76,1.43c-0.49,0.33-1.09,0.49-1.68,0.56
							c-1.18,0.14-2.27-0.08-3.17-0.32c-1.79-0.52-2.89-0.99-2.94-0.87c-0.03,0.08,0.96,0.73,2.77,1.41
							c0.91,0.32,2.08,0.62,3.41,0.51c0.66-0.06,1.38-0.21,2.04-0.64c0.66-0.41,1.19-1.24,1.12-2.14c-0.04-0.98-0.97-1.63-1.69-1.75
							c-0.75-0.17-1.44-0.12-2.07-0.09c-1.29,0.08-2.43,0.34-3.35,0.63C471.57,576.76,470.59,577.49,470.64,577.57z"/>
					</g>
				</g>
			</g>
			<g>
				<g>
					<g>
						<path class="st8" d="M442.27,604.73c0.05,0.07,0.76-0.46,1.1-1.75c0.38-1.26,0.14-3.2-0.84-4.9c-0.47-0.86-1.01-1.6-1.51-2.25
							c-0.49-0.66-1-1.25-1.53-1.64c-0.52-0.41-1.07-0.59-1.44-0.6c-0.38-0.02-0.57,0.08-0.56,0.12c0,0.12,0.81,0.06,1.64,0.91
							c0.42,0.4,0.84,0.97,1.3,1.65c0.46,0.67,0.97,1.4,1.41,2.2c0.91,1.59,1.19,3.24,0.99,4.4
							C442.66,604.04,442.17,604.66,442.27,604.73z"/>
					</g>
				</g>
			</g>
			<g>
				<g>
					<g>
						<path class="st8" d="M458.47,592.63c0.21,0.02,0.15-2.27-1.59-4.32c-1.71-2.07-3.95-2.54-3.97-2.34
							c-0.09,0.22,1.82,0.97,3.36,2.85C457.84,590.67,458.23,592.68,458.47,592.63z"/>
					</g>
				</g>
			</g>
			<g>
				<g>
					<g>
						<path class="st8" d="M490.83,584.63c-0.04-0.05-0.73,0.46-1.98,1.36c-1.27,0.88-3.13,2.11-5.56,3.41
							c-2.43,1.3-5.42,2.65-8.84,3.93c-3.42,1.27-7.25,2.48-11.3,3.65c-8.12,2.34-15.46,4.47-20.77,6.07
							c-2.54,0.78-4.65,1.43-6.27,1.92c-1.48,0.47-2.28,0.76-2.27,0.81c0.02,0.05,0.85-0.13,2.35-0.51c1.63-0.43,3.77-1,6.34-1.68
							c5.34-1.46,12.71-3.51,20.83-5.84c4.06-1.18,7.91-2.41,11.34-3.73c3.43-1.33,6.43-2.75,8.85-4.13
							c2.42-1.38,4.25-2.69,5.48-3.65C490.24,585.25,490.86,584.66,490.83,584.63z"/>
					</g>
				</g>
			</g>
			<g>
				<g>
					<g>
						<path class="st8" d="M492.5,585.23c0.02-0.09-1.4-0.61-3.82-1.02c-2.38-0.37-6-0.57-9.48,1.16c-1.73,0.86-3.1,2.16-4.06,3.49
							c-0.98,1.33-1.63,2.65-2.11,3.78c-0.95,2.26-1.34,3.71-1.25,3.75c0.12,0.05,0.7-1.35,1.77-3.51c1.07-2.1,2.77-5.17,6.02-6.79
							c3.24-1.62,6.69-1.54,9.05-1.31C491,585.03,492.48,585.36,492.5,585.23z"/>
					</g>
				</g>
			</g>
		</g>
		<g>
			<g>
				<g>
					<path class="st8" d="M572.45,494.52c0,0,13.53,4.83,13.59,20.01c0.11,29.07-58.74,61.11-58.74,61.11l-78.31-51.89l-4.91-1.99
						C444.09,521.77,549.79,482.06,572.45,494.52z"/>
				</g>
			</g>
			<g>
				<g>
					<g>
						<path class="st12" d="M488.66,549.96c0.03,0.04,0.76-0.45,2.04-1.38c1.28-0.93,3.11-2.31,5.36-4.04
							c4.48-3.47,10.58-8.38,17.15-14.01c6.56-5.64,12.34-10.92,16.44-14.83c2.05-1.95,3.69-3.55,4.81-4.68
							c1.12-1.13,1.71-1.77,1.68-1.81c-0.04-0.04-0.71,0.53-1.89,1.58c-1.28,1.16-2.96,2.67-4.98,4.49
							c-4.2,3.8-10.03,9.01-16.58,14.64c-6.55,5.62-12.59,10.6-16.98,14.17c-2.11,1.72-3.86,3.15-5.2,4.24
							C489.29,549.34,488.63,549.91,488.66,549.96z"/>
					</g>
				</g>
			</g>
			<g>
				<g>
					<g>
						<path class="st12" d="M550.34,505.38c0.03-0.2-3.46-0.54-7.55,0.68c-4.09,1.19-6.84,3.37-6.71,3.52
							c0.13,0.21,2.98-1.61,6.94-2.76C546.96,505.65,550.34,505.63,550.34,505.38z"/>
					</g>
				</g>
			</g>
			<g>
				<g>
					<g>
						<path class="st12" d="M543.59,500.8c-0.07-0.19-2.58,0.92-4.64,3.49c-2.09,2.56-2.64,5.25-2.44,5.27
							c0.23,0.08,1.08-2.36,3.06-4.77C541.51,502.36,543.72,501.01,543.59,500.8z"/>
					</g>
				</g>
			</g>
			<g>
				<g>
					<g>
						<path class="st8" d="M576.75,592.84c0.04-0.09-0.93-0.28-2.02,0.61c-1.07,0.85-1.97,2.56-2.26,4.55
							c-0.29,2,0.15,3.84,0.71,5.01c0.55,1.19,1.16,1.75,1.23,1.69c0.11-0.07-0.32-0.73-0.71-1.9c-0.4-1.15-0.72-2.85-0.45-4.69
							c0.27-1.83,1.02-3.4,1.85-4.24C575.94,593,576.77,592.97,576.75,592.84z"/>
					</g>
				</g>
			</g>
		</g>
		<g>
			<g>
				<polygon class="st12" points="554.43,447.03 526.55,517.72 406.45,519.68 404.23,513.18 446.32,511.66 466.55,448.94 				"/>
			</g>
			<g>
				<path class="st2" d="M498.35,477.63c1.54-1.04,4.39-0.63,5.77,0.62c1.39,1.24,1.83,3.39,1.13,5.12
					c-0.7,1.72-2.48,2.93-4.34,3.03c-1.97,0.11-4.03-1.13-4.59-3.03C495.78,481.47,496.39,478.63,498.35,477.63"/>
			</g>
		</g>
		<g>
			<g>
				<g>
					<path class="st8" d="M534.72,579.17c0,0-110.64-72.57-115.17-74.08c-4.53-1.51-15.48-8.68-26.43-5.66
						c-10.95,3.02-20.76,12.84-25.67,27.18c-2.8,8.2-4.13,22.18-4.75,32.67c-0.74,12.54,3.14,25.04,11.34,34.56
						c3.73,4.33,8.33,8.1,13.8,9.79c1.15,0.36,2.35,0.67,3.58,0.93c20.92,4.54,42.42-4.85,54.17-22.74l2.58-3.93
						c0,0,72.38,26.59,73.51,26.21L534.72,579.17z"/>
				</g>
			</g>
			<g>
				<g>
					<g>
						<path class="st12" d="M397.84,559.19c0,0,0.2,0.1,0.61,0.27c0.44,0.17,1.04,0.41,1.81,0.72c1.63,0.63,3.99,1.54,7.01,2.7
							c6.15,2.32,15.03,5.66,26.07,9.82c11.07,4.13,24.34,9.04,39.22,14.46c14.88,5.41,31.38,11.35,48.99,17.31l0.32,0.11l0.16-0.3
							c2.77-5.28,5.68-10.85,8.64-16.51c1.51-2.88,3.01-5.75,4.41-8.42l0.17-0.32l-0.31-0.19c-33.22-21.09-62.95-39.96-84.4-53.57
							c-10.71-6.76-19.35-12.21-25.35-15.99c-2.97-1.85-5.28-3.3-6.88-4.3c-0.77-0.47-1.37-0.83-1.8-1.1
							c-0.41-0.24-0.63-0.35-0.63-0.35s0.19,0.15,0.58,0.42c0.42,0.28,1.01,0.67,1.76,1.16c1.58,1.03,3.87,2.51,6.81,4.42
							c5.97,3.83,14.56,9.36,25.22,16.2c21.41,13.67,51.09,32.61,84.26,53.78l-0.14-0.52c-1.4,2.67-2.9,5.53-4.41,8.42
							c-2.96,5.66-5.88,11.23-8.64,16.51l0.48-0.19c-17.6-5.95-34.1-11.86-49-17.22c-14.87-5.41-28.16-10.25-39.27-14.29
							c-11.07-4.06-19.98-7.33-26.15-9.59c-3.05-1.11-5.42-1.97-7.06-2.57c-0.78-0.28-1.39-0.49-1.84-0.65
							C398.06,559.25,397.84,559.19,397.84,559.19z"/>
					</g>
				</g>
			</g>
		</g>
		<g>
			<g>
				<path class="st8" d="M409.32,301.48c1.89-5.1,6.06-7.32,11.34-8.59c5.29-1.28,11.16,0.24,15.17,3.91
					c2.68,2.46,4.65,5.85,7.96,7.35c5.45,2.47,12.44-1.14,17.61,1.88c3.06,1.79,4.56,5.86,3.4,9.21s-4.87,5.61-8.38,5.11
					c3.55,1.68,4.22,7.03,1.77,10.1c-2.45,3.08-6.97,3.91-10.75,2.84c-3.78-1.07-6.92-3.71-9.59-6.59c-2.67-2.88-5.01-6.08-7.9-8.74
					c-2.89-2.66-6.5-4.8-10.43-4.95c-5.32-0.2-10.22,3.38-13.01,7.9c-2.79,4.53-3.83,9.9-4.61,15.16
					c-0.78,5.26-1.36,10.63-3.39,15.55c-0.24,0.58-0.58,1.22-1.19,1.35c-0.88,0.19-1.53-0.79-1.88-1.62
					c-4-9.37-6.13-19.53-6.24-29.72c-0.06-5.92,0.6-11.46,4.27-16.09C397.13,300.89,405.61,298,409.32,301.48"/>
			</g>
			<g>
				<g>
					<g>
						<g>
							<g>
								<g>
									<g>
										<g>
											<g>
												<g>
													<g>
														<g>
															<g>
																<g>
																	<path class="st13" d="M396.84,325.1l-8.13,59.11c-1.38,10.05,5.93,19.21,16.03,20.1l0,0
																		c9.43,0.83,17.85-5.91,19.13-15.29c0.61-4.45,1.12-8.16,1.22-8.61c0,0,15.24,0.66,18.38-14.09
																		c1.52-7.12,3.44-22.05,5.03-35.58c1.7-14.53-8.05-27.92-22.39-30.79l-1.43-0.29
																		C409.12,297.49,398.59,309.49,396.84,325.1z"/>
																</g>
															</g>
														</g>
													</g>
												</g>
											</g>
										</g>
									</g>
									<g>
										<g>
											<g>
												<g>
													<g>
														<g>
															<g>
																<g>
																	<path class="st14" d="M425.16,380.19c0,0-9.49-1.11-18.17-9.33c0,0,2.43,11.55,17.44,13.16L425.16,380.19z"/>
																</g>
															</g>
														</g>
													</g>
												</g>
											</g>
										</g>
									</g>
								</g>
							</g>
						</g>
						<g>
							<g>
								<g>
									<g>
										<g>
											<g>
												<g>
													<g>
														<g>
															<g>
																<g>
																	<g>
																		<g>
																			<g>
																				<path class="st8" d="M442.22,339.77c-0.18,1.12-1.28,1.89-2.46,1.72c-1.17-0.17-1.98-1.22-1.8-2.34
																					c0.18-1.12,1.28-1.89,2.46-1.72C441.59,337.6,442.4,338.65,442.22,339.77z"/>
																			</g>
																		</g>
																	</g>
																</g>
															</g>
														</g>
													</g>
												</g>
												<g>
													<g>
														<g>
															<g>
																<g>
																	<g>
																		<g>
																			<g>
																				<g>
																					<path class="st8" d="M443.87,337.35c-0.32,0.22-1.68-1.28-3.95-1.73c-2.26-0.48-4.16,0.36-4.35,0.03
																						c-0.1-0.15,0.27-0.59,1.1-0.97c0.82-0.38,2.14-0.65,3.55-0.36c1.41,0.29,2.5,1.05,3.08,1.72
																						C443.89,336.71,444.03,337.25,443.87,337.35z"/>
																				</g>
																			</g>
																		</g>
																	</g>
																</g>
															</g>
														</g>
													</g>
												</g>
											</g>
											<g>
												<g>
													<g>
														<g>
															<g>
																<g>
																	<g>
																		<g>
																			<g>
																				<path class="st8" d="M419.79,336.09c-0.18,1.12-1.28,1.89-2.46,1.72c-1.17-0.17-1.98-1.21-1.8-2.34
																					c0.18-1.12,1.29-1.89,2.46-1.72C419.16,333.92,419.97,334.97,419.79,336.09z"/>
																			</g>
																		</g>
																	</g>
																</g>
															</g>
														</g>
													</g>
												</g>
												<g>
													<g>
														<g>
															<g>
																<g>
																	<g>
																		<g>
																			<g>
																				<g>
																					<path class="st8" d="M421.47,333.31c-0.32,0.22-1.68-1.28-3.95-1.73c-2.26-0.48-4.16,0.36-4.35,0.03
																						c-0.1-0.15,0.27-0.59,1.1-0.97c0.82-0.38,2.14-0.65,3.55-0.36c1.41,0.29,2.5,1.05,3.08,1.72
																						C421.48,332.67,421.62,333.22,421.47,333.31z"/>
																				</g>
																			</g>
																		</g>
																	</g>
																</g>
															</g>
														</g>
													</g>
												</g>
											</g>
											<g>
												<g>
													<g>
														<g>
															<g>
																<g>
																	<g>
																		<g>
																			<g>
																				<path class="st8" d="M426.34,351.81c0.02-0.13,1.48-0.09,3.82,0.07c0.59,0.06,1.16,0.05,1.34-0.33
																					c0.22-0.39,0.1-1.07-0.04-1.8c-0.27-1.51-0.54-3.1-0.83-4.76c-1.13-6.76-1.82-12.28-1.54-12.32
																					c0.27-0.04,1.41,5.4,2.53,12.17c0.26,1.66,0.52,3.25,0.76,4.77c0.09,0.7,0.32,1.53-0.15,2.34
																					c-0.24,0.4-0.73,0.63-1.12,0.66c-0.39,0.04-0.72-0.02-1.01-0.06C427.76,352.21,426.33,351.94,426.34,351.81z"/>
																			</g>
																		</g>
																	</g>
																</g>
															</g>
														</g>
													</g>
												</g>
											</g>
											<g>
												<g>
													<g>
														<g>
															<g>
																<g>
																	<g>
																		<g>
																			<g>
																				<path class="st8" d="M419.34,352.04c0.37,0.05-0.11,2.52,1.65,4.69c1.76,2.18,4.44,2.42,4.39,2.77
																					c0,0.16-0.68,0.36-1.8,0.17c-1.1-0.18-2.61-0.85-3.69-2.18c-1.07-1.33-1.34-2.87-1.22-3.9
																					C418.78,352.55,419.18,351.99,419.34,352.04z"/>
																			</g>
																		</g>
																	</g>
																</g>
															</g>
														</g>
													</g>
												</g>
											</g>
										</g>
									</g>
								</g>
								<g>
									<g>
										<g>
											<g>
												<g>
													<g>
														<g>
															<g>
																<path class="st8" d="M423.83,324.53c-0.35,0.57-2.56-0.17-5.29-0.38c-2.72-0.27-5.03,0.08-5.27-0.54
																	c-0.1-0.3,0.39-0.8,1.37-1.23c0.98-0.42,2.47-0.72,4.1-0.58c1.63,0.15,3.05,0.69,3.94,1.28
																	C423.59,323.67,423.98,324.26,423.83,324.53z"/>
															</g>
														</g>
													</g>
												</g>
											</g>
										</g>
									</g>
								</g>
								<g>
									<g>
										<g>
											<g>
												<g>
													<g>
														<g>
															<g>
																<path class="st8" d="M444.35,330.61c-0.5,0.44-1.96-0.41-3.84-0.81c-1.86-0.47-3.54-0.35-3.8-0.96
																	c-0.11-0.29,0.25-0.76,1.04-1.11c0.78-0.35,2.01-0.52,3.29-0.22c1.28,0.3,2.31,0.99,2.86,1.65
																	C444.47,329.82,444.58,330.4,444.35,330.61z"/>
															</g>
														</g>
													</g>
												</g>
											</g>
										</g>
									</g>
								</g>
							</g>
						</g>
					</g>
				</g>
			</g>
			<g>
				<g>
					<g>
						<g>
							<g>
								<g>
									<g>
										<g>
											<g>
												<path class="st13" d="M395.86,336.28c-0.23-0.16-9.55-5.03-11.25,5.14c-1.7,10.17,8.86,9.77,8.93,9.49
													C393.61,350.61,395.86,336.28,395.86,336.28z"/>
											</g>
										</g>
									</g>
								</g>
							</g>
						</g>
					</g>
				</g>
				<g>
					<g>
						<g>
							<g>
								<g>
									<g>
										<g>
											<g>
												<g>
													<path class="st14" d="M391.08,346.53c-0.04-0.04-0.2,0.09-0.52,0.18c-0.31,0.08-0.83,0.09-1.33-0.19
														c-1.01-0.57-1.63-2.43-1.37-4.27c0.13-0.93,0.47-1.78,0.92-2.45c0.43-0.69,1-1.13,1.56-1.14
														c0.56-0.03,0.89,0.35,0.96,0.66c0.09,0.31-0.01,0.5,0.04,0.53c0.02,0.03,0.25-0.13,0.23-0.57
														c-0.01-0.21-0.09-0.47-0.29-0.7c-0.21-0.24-0.55-0.4-0.94-0.42c-0.79-0.08-1.62,0.53-2.11,1.27
														c-0.54,0.74-0.94,1.69-1.09,2.73c-0.28,2.06,0.45,4.15,1.85,4.82c0.68,0.31,1.32,0.19,1.66,0
														C391.02,346.77,391.11,346.55,391.08,346.53z"/>
												</g>
											</g>
										</g>
									</g>
								</g>
							</g>
						</g>
					</g>
				</g>
			</g>
			<g>
				<path class="st8" d="M452.24,328.29c-6.86,0.43-13.84-2.68-18.11-8.06c-2.99-3.77-4.88-8.7-9.11-10.99
					c-2.85-1.54-6.35-1.56-9.43-0.58c-3.08,0.98-5.8,2.87-8.24,5.01c1.35,8.08-2.24,16.08-5.74,23.49c-0.39,0.82-0.83,1.7-1.64,2.1
					c-1.38,0.68-3.02-0.4-3.85-1.69c-1.32-2.08-1.47-4.67-1.42-7.14c0.11-5.61,1.1-11.24,3.37-16.37c2.28-5.13,5.9-9.72,10.63-12.73
					c5.92-3.76,13.37-4.83,20.22-3.35c6.85,1.48,13.07,5.4,17.73,10.64c2.16,2.43,4.04,5.22,4.78,8.39"/>
			</g>
		</g>
	</g>
</g>
<g id="Plant">
	<g>
		<g>
			<g>
				<g>
					<g>
						<path class="st8" d="M42.57,566.74c-0.01-0.01,0.07-0.22,0.26-0.62c0.2-0.44,0.48-1.02,0.83-1.77
							c0.7-1.56,1.62-3.93,2.44-7.08c1.61-6.29,2.17-15.91-0.21-27.34c-1.11-5.72-2.89-11.86-5.07-18.36
							c-2.15-6.52-4.64-13.43-6.67-20.91c-2.01-7.46-3.6-15.55-3.3-24.04c0.31-8.5,2.83-16.99,5.59-25.44
							c2.76-8.46,5.62-16.73,6.48-25.05c0.97-8.3-0.81-16.46-4.59-23.14c-3.66-6.75-8.27-12.52-11.72-18.5
							c-3.5-5.96-5.7-12.09-7.05-17.79c-2.62-11.49-1.7-21.18-0.45-27.56c1.36-6.42,2.88-9.73,2.88-9.73
							c0.01,0.01-0.04,0.22-0.17,0.65c-0.14,0.46-0.34,1.08-0.58,1.87c-0.51,1.64-1.16,4.09-1.79,7.29
							c-1.15,6.37-1.96,15.99,0.72,27.35c1.38,5.64,3.58,11.69,7.07,17.56c3.44,5.91,8.07,11.66,11.81,18.49
							c3.86,6.75,5.72,15.17,4.74,23.61c-0.86,8.46-3.74,16.79-6.5,25.24c-2.77,8.44-5.26,16.84-5.57,25.2
							c-0.31,8.35,1.24,16.37,3.22,23.79c2,7.44,4.47,14.35,6.59,20.89c2.15,6.53,3.91,12.71,4.99,18.47
							c2.32,11.51,1.66,21.23-0.07,27.54c-0.87,3.16-1.85,5.52-2.61,7.07c-0.38,0.73-0.69,1.31-0.91,1.74
							C42.7,566.56,42.58,566.75,42.57,566.74z"/>
					</g>
				</g>
			</g>
			<g>
				<g>
					<g>
						<path class="st9" d="M31.28,380.41c0,0-7.01-22.4,5.56-35.52c0.44-0.46,1.22-0.24,1.33,0.38
							C38.85,348.97,39.68,360.24,31.28,380.41z"/>
					</g>
				</g>
				<g>
					<g>
						<g>
							<path class="st8" d="M35.48,352.35c0.12,0.02-0.08,1.6-0.47,4.13c-0.46,2.85-1,6.19-1.6,9.88c-0.59,3.69-1.12,7.03-1.57,9.88
								c-0.38,2.53-0.61,4.1-0.74,4.09c-0.11-0.01-0.1-1.6,0.13-4.16c0.23-2.56,0.68-6.08,1.32-9.95c0.63-3.86,1.31-7.35,1.85-9.85
								C34.94,353.86,35.36,352.33,35.48,352.35z"/>
						</g>
					</g>
				</g>
			</g>
			<g>
				<g>
					<g>
						<path class="st9" d="M39.51,433.24c0,0,4.28-23.08,21.53-28.79c0.61-0.2,1.19,0.35,1,0.96
							C60.9,408.99,56.37,419.35,39.51,433.24z"/>
					</g>
				</g>
				<g>
					<g>
						<g>
							<path class="st8" d="M56.34,410.41c0.09,0.08-0.82,1.38-2.35,3.43c-1.74,2.3-3.78,5-6.03,7.99c-2.25,2.99-4.28,5.7-6.01,8
								c-1.52,2.06-2.46,3.34-2.57,3.27c-0.1-0.06,0.66-1.46,2.06-3.62c1.4-2.15,3.45-5.06,5.82-8.18c2.37-3.12,4.59-5.88,6.25-7.84
								C55.16,411.49,56.25,410.33,56.34,410.41z"/>
						</g>
					</g>
				</g>
			</g>
			<g>
				<g>
					<g>
						<path class="st9" d="M34.85,491.14c0,0-2.6-23.33,12.24-33.81c0.52-0.37,1.24-0.01,1.23,0.63
							C48.27,461.72,46.95,472.94,34.85,491.14z"/>
					</g>
				</g>
				<g>
					<g>
						<g>
							<path class="st8" d="M44.32,464.4c0.11,0.05-0.38,1.55-1.25,3.97c-1,2.71-2.16,5.88-3.45,9.39c-1.28,3.51-2.44,6.69-3.42,9.4
								c-0.86,2.41-1.38,3.91-1.51,3.87c-0.11-0.03,0.21-1.59,0.92-4.06c0.72-2.47,1.83-5.84,3.19-9.51
								c1.36-3.67,2.68-6.96,3.7-9.32C43.51,465.78,44.21,464.35,44.32,464.4z"/>
						</g>
					</g>
				</g>
			</g>
			<g>
				<g>
					<g>
						<path class="st9" d="M47.84,549.37c0,0-1.77-23.41,13.44-33.35c0.53-0.35,1.24,0.04,1.21,0.68
							C62.31,520.45,60.58,531.62,47.84,549.37z"/>
					</g>
				</g>
				<g>
					<g>
						<g>
							<path class="st8" d="M58.26,522.99c0.11,0.05-0.44,1.54-1.39,3.92c-1.09,2.67-2.37,5.8-3.79,9.26
								c-1.4,3.47-2.68,6.6-3.76,9.27c-0.94,2.38-1.52,3.85-1.65,3.82c-0.11-0.03,0.26-1.58,1.06-4.03c0.8-2.44,2.04-5.77,3.53-9.39
								c1.49-3.62,2.93-6.86,4.03-9.18C57.4,524.34,58.15,522.94,58.26,522.99z"/>
						</g>
					</g>
				</g>
			</g>
			<g>
				<g>
					<g>
						<path class="st9" d="M21.21,360.72c0,0-20.81-10.87-21.21-29.03c-0.01-0.64,0.69-1.03,1.21-0.67
							C4.31,333.16,12.87,340.53,21.21,360.72z"/>
					</g>
				</g>
				<g>
					<g>
						<g>
							<path class="st8" d="M4.32,337.94c0.1-0.07,1.07,1.19,2.59,3.25c1.69,2.34,3.67,5.08,5.87,8.11c2.2,3.02,4.19,5.76,5.89,8.09
								c1.52,2.06,2.47,3.33,2.37,3.41c-0.09,0.07-1.21-1.06-2.86-3.03c-1.65-1.97-3.82-4.78-6.11-7.96
								c-2.29-3.18-4.28-6.11-5.66-8.27C5.01,339.38,4.22,338,4.32,337.94z"/>
						</g>
					</g>
				</g>
			</g>
			<g>
				<g>
					<g>
						<path class="st9" d="M43.55,408.83c0,0-21.43-9.58-22.94-27.68c-0.05-0.64,0.62-1.07,1.17-0.74
							C25,382.35,34,389.18,43.55,408.83z"/>
					</g>
				</g>
				<g>
					<g>
						<g>
							<path class="st8" d="M25.31,387.11c0.1-0.07,1.14,1.12,2.79,3.09c1.83,2.23,3.98,4.85,6.35,7.74
								c2.38,2.88,4.53,5.49,6.37,7.72c1.64,1.96,2.67,3.17,2.57,3.26c-0.08,0.08-1.27-0.98-3.04-2.85
								c-1.76-1.87-4.11-4.54-6.58-7.57c-2.48-3.03-4.64-5.84-6.16-7.91C26.09,388.52,25.21,387.19,25.31,387.11z"/>
						</g>
					</g>
				</g>
			</g>
			<g>
				<g>
					<g>
						<path class="st9" d="M31.23,462.5c0,0-14.71-18.29-7.81-35.09c0.24-0.59,1.04-0.67,1.38-0.13
							C26.77,430.48,31.67,440.66,31.23,462.5z"/>
					</g>
				</g>
				<g>
					<g>
						<g>
							<path class="st8" d="M24.87,434.85c0.12-0.02,0.51,1.52,1.07,4.02c0.61,2.82,1.33,6.13,2.13,9.78
								c0.8,3.65,1.53,6.95,2.15,9.77c0.57,2.5,0.93,4.04,0.8,4.08c-0.11,0.03-0.68-1.45-1.41-3.92c-0.72-2.47-1.59-5.91-2.41-9.74
								c-0.83-3.83-1.47-7.31-1.88-9.85C24.93,436.46,24.75,434.87,24.87,434.85z"/>
						</g>
					</g>
				</g>
			</g>
			<g>
				<g>
					<g>
						<path class="st9" d="M45.8,525.65c0,0-21.26-9.94-22.47-28.07c-0.04-0.64,0.64-1.06,1.18-0.72
							C27.7,498.86,36.58,505.84,45.8,525.65z"/>
					</g>
				</g>
				<g>
					<g>
						<g>
							<path class="st8" d="M27.92,503.63c0.1-0.07,1.13,1.14,2.73,3.14c1.79,2.26,3.89,4.91,6.22,7.85
								c2.33,2.92,4.44,5.57,6.24,7.82c1.61,1.99,2.61,3.22,2.52,3.31c-0.08,0.08-1.25-1.01-2.99-2.9c-1.73-1.9-4.03-4.61-6.45-7.68
								c-2.43-3.07-4.54-5.92-6.02-8.02C28.68,505.04,27.82,503.7,27.92,503.63z"/>
						</g>
					</g>
				</g>
			</g>
			<g>
				<g>
					<g>
						<g>
							<path class="st8" d="M88.15,433.37c0.02,0,0.03,0.18,0.03,0.52c-0.01,0.41-0.02,0.9-0.04,1.5c-0.06,1.41-0.15,3.31-0.25,5.69
								c-0.27,5-0.66,11.98-1.11,20.32l0,0.02l-0.01,0.03c-1.52,8.49-5.84,17.91-11.65,27.05c-4.26,6.73-8.73,12.85-12.58,18.55
								c-3.88,5.68-7.15,10.93-9.43,15.59c-2.3,4.65-3.63,8.65-4.41,11.44c-0.37,1.4-0.65,2.5-0.82,3.24
								c-0.17,0.75-0.28,1.14-0.31,1.13c-0.03-0.01,0.02-0.41,0.14-1.16c0.11-0.76,0.33-1.87,0.66-3.3
								c0.68-2.84,1.94-6.9,4.19-11.63c2.23-4.73,5.47-10.06,9.32-15.78c3.83-5.73,8.27-11.86,12.51-18.56
								c5.78-9.09,10.08-18.37,11.66-26.72l-0.01,0.05c0.59-8.34,1.08-15.31,1.43-20.31c0.19-2.37,0.35-4.27,0.46-5.68
								c0.06-0.6,0.11-1.09,0.15-1.49C88.1,433.54,88.13,433.37,88.15,433.37z"/>
						</g>
					</g>
				</g>
				<g>
					<g>
						<g>
							<path class="st9" d="M75.49,486.75c0,0,9-21.68-2.32-35.88c-0.4-0.5-1.19-0.35-1.36,0.26
								C70.8,454.76,68.95,465.9,75.49,486.75z"/>
						</g>
					</g>
					<g>
						<g>
							<g>
								<path class="st8" d="M73.85,458.43c0.12-0.01,0.4,1.55,0.71,4.1c0.32,2.55,0.68,6.07,0.95,9.98
									c0.28,3.91,0.41,7.45,0.41,10.03c-0.01,2.57-0.14,4.16-0.25,4.16c-0.13,0-0.22-1.58-0.37-4.14
									c-0.19-2.88-0.42-6.25-0.67-9.98c-0.26-3.73-0.5-7.11-0.7-9.98C73.79,460.03,73.73,458.44,73.85,458.43z"/>
							</g>
						</g>
					</g>
					<g class="st11">
						<g>
							<path d="M75.49,486.75c0,0,9-21.68-2.32-35.88c-0.4-0.5-1.19-0.35-1.36,0.26C70.8,454.76,68.95,465.9,75.49,486.75z"/>
						</g>
					</g>
				</g>
				<g>
					<g>
						<g>
							<path class="st9" d="M47.6,538.98c0,0,7.22-22.33-5.22-35.57c-0.44-0.46-1.22-0.25-1.34,0.37
								C40.33,507.48,39.39,518.74,47.6,538.98z"/>
						</g>
					</g>
					<g>
						<g>
							<g>
								<path class="st8" d="M43.67,510.89c0.12-0.02,0.52,1.52,1.04,4.03c0.52,2.51,1.17,6,1.76,9.87c0.6,3.87,1.02,7.4,1.22,9.96
									c0.2,2.56,0.2,4.16,0.09,4.16c-0.13,0.01-0.34-1.56-0.7-4.1c-0.42-2.85-0.92-6.2-1.47-9.89c-0.56-3.7-1.07-7.04-1.5-9.9
									C43.73,512.49,43.55,510.91,43.67,510.89z"/>
							</g>
						</g>
					</g>
					<g class="st11">
						<g>
							<path d="M47.6,538.98c0,0,7.22-22.33-5.22-35.57c-0.44-0.46-1.22-0.25-1.34,0.37C40.33,507.48,39.39,518.74,47.6,538.98z"/>
						</g>
					</g>
				</g>
				<g>
					<g>
						<g>
							<path class="st9" d="M86.96,460.26c0,0,19.23-13.46,17.29-31.52c-0.07-0.63-0.82-0.94-1.29-0.51
								C100.17,430.75,92.62,439.16,86.96,460.26z"/>
						</g>
					</g>
					<g class="st11">
						<g>
							<path d="M86.96,460.26c0,0,19.23-13.46,17.29-31.52c-0.07-0.63-0.82-0.94-1.29-0.51C100.17,430.75,92.62,439.16,86.96,460.26
								z"/>
						</g>
					</g>
					<g>
						<g>
							<g>
								<path class="st8" d="M100.77,435.48c0.11,0.05-0.5,1.52-1.6,3.84c-1.1,2.32-2.69,5.49-4.55,8.93
									c-1.86,3.45-3.65,6.51-5.03,8.68c-1.38,2.17-2.35,3.44-2.44,3.37c-0.11-0.07,0.67-1.45,1.91-3.69c1.38-2.53,3-5.5,4.79-8.78
									c1.78-3.29,3.39-6.26,4.77-8.8C99.86,436.8,100.66,435.43,100.77,435.48z"/>
							</g>
						</g>
					</g>
				</g>
				<g>
					<g>
						<g>
							<path class="st9" d="M55.35,516.84c0,0,23.19-3.62,29.4-20.69c0.22-0.6-0.32-1.2-0.93-1.02
								C80.21,496.16,69.73,500.39,55.35,516.84z"/>
						</g>
					</g>
					<g class="st11">
						<g>
							<path d="M55.35,516.84c0,0,23.19-3.62,29.4-20.69c0.22-0.6-0.32-1.2-0.93-1.02C80.21,496.16,69.73,500.39,55.35,516.84z"/>
						</g>
					</g>
					<g>
						<g>
							<g>
								<path class="st8" d="M78.66,500.68c0.07,0.1-1.12,1.15-3.13,2.75c-2.01,1.6-4.83,3.74-8.02,6.02
									c-3.19,2.28-6.15,4.24-8.34,5.58c-2.2,1.34-3.62,2.05-3.68,1.95c-0.07-0.11,1.24-1.01,3.34-2.47
									c2.35-1.66,5.12-3.62,8.17-5.77c3.05-2.17,5.81-4.13,8.16-5.8C77.26,501.46,78.59,500.58,78.66,500.68z"/>
							</g>
						</g>
					</g>
				</g>
			</g>
		</g>
		<g>
			<g>
				<polygon class="st12" points="33.23,559.52 26.46,605.05 68.62,605.05 63.16,559.52 				"/>
			</g>
		</g>
		<g>
			<g>
				<g>
					<path class="st8" d="M64.84,573.63c0,0.24-7.61,0.44-17,0.44c-9.39,0-17-0.2-17-0.44c0-0.24,7.61-0.44,17-0.44
						C57.23,573.19,64.84,573.39,64.84,573.63z"/>
				</g>
			</g>
		</g>
		<g>
			<g>
				<g>
					<path class="st8" d="M65.68,577.25c0,0.24-7.86,0.44-17.56,0.44c-9.7,0-17.56-0.2-17.56-0.44c0-0.24,7.86-0.44,17.56-0.44
						C57.82,576.81,65.68,577.01,65.68,577.25z"/>
				</g>
			</g>
		</g>
	</g>
</g>
</svg>
