<?xml version="1.0" encoding="utf-8"?>
<!-- Generator: Adobe Illustrator 26.0.0, SVG Export Plug-In . SVG Version: 6.00 Build 0)  -->
<svg version="1.1" id="Layer_1" xmlns="http://www.w3.org/2000/svg" xmlns:xlink="http://www.w3.org/1999/xlink" x="0px" y="0px"
	 viewBox="0 0 142 131" style="enable-background:new 0 0 142 131;" xml:space="preserve">
<style type="text/css">
	.st0{fill:#404040;}
</style>
<path class="st0" d="M81,131H61c-0.5,0-0.9-0.4-0.9-0.9V103c0-0.5,0.4-0.9,0.9-0.9h20.1c0.5,0,0.9,0.4,0.9,0.9v27.1
	C82,130.6,81.6,131,81,131L81,131z M61.8,129.2h18.3v-25.3H61.9L61.8,129.2z"/>
<path class="st0" d="M100.7,131H41.2c-0.5,0-0.9-0.4-0.9-0.9c0-0.5,0.4-0.9,0.9-0.9h59.5c0.5,0,0.9,0.4,0.9,0.9
	C101.6,130.6,101.2,131,100.7,131z"/>
<path class="st0" d="M141.1,106.2H1c-0.5,0-0.9-0.4-0.9-0.9c0,0,0,0,0,0V0.9C0.1,0.4,0.5,0,1,0h140.1c0.5,0,0.9,0.4,0.9,0.9v104.4
	C142,105.8,141.6,106.2,141.1,106.2C141.1,106.2,141.1,106.2,141.1,106.2L141.1,106.2z M1.9,104.4h138.3V1.8H1.8L1.9,104.4z"/>
<path class="st0" d="M141,106.2H0.9c-0.5,0-0.9-0.4-0.9-0.9c0,0,0,0,0,0V92.1c0-0.5,0.4-0.9,0.9-0.9c0,0,0,0,0,0H141
	c0.5,0,0.9,0.4,0.9,0.9c0,0,0,0,0,0v13.2C141.9,105.8,141.5,106.2,141,106.2C141,106.2,141,106.2,141,106.2z M1.8,104.4h138.4V93
	H1.8L1.8,104.4z"/>
<path class="st0" d="M19.1,65.1c-0.3,0-0.6-0.2-0.8-0.4c-0.3-0.4-0.1-1,0.3-1.3l23.8-15.5c0.3-0.2,0.6-0.2,0.9-0.1l24.4,11.8
	l37.2-33.9c0.3-0.3,0.8-0.3,1.1,0l15.8,13.1c0.4,0.3,0.5,0.9,0.1,1.3l0,0c-0.3,0.4-0.9,0.4-1.2,0.1c0,0,0,0,0,0l-15.3-12.7
	L68.3,61.4c-0.3,0.2-0.7,0.3-1,0.1L43,49.8L19.6,65C19.5,65.1,19.3,65.1,19.1,65.1z"/>
<path class="st0" d="M42.7,82.3c-0.2,0-0.3-0.1-0.3-0.3V49.5c0-0.2,0.1-0.3,0.3-0.3c0.2,0,0.3,0.1,0.3,0.3V82
	C43,82.2,42.9,82.3,42.7,82.3C42.7,82.3,42.7,82.3,42.7,82.3L42.7,82.3z"/>
<path class="st0" d="M22.3,82.3L22.3,82.3c-0.2,0-0.3-0.1-0.3-0.3l0.2-20.6c0-0.2,0.1-0.3,0.3-0.3l0,0c0.2,0,0.3,0.1,0.3,0.3
	c0,0,0,0,0,0L22.6,82C22.6,82.2,22.5,82.3,22.3,82.3L22.3,82.3z"/>
<path class="st0" d="M67.5,82.4L67.5,82.4c-0.2,0-0.3-0.2-0.3-0.3l0.3-21.9c0-0.2,0.1-0.3,0.3-0.3c0,0,0,0,0,0l0,0
	c0.2,0,0.3,0.2,0.3,0.3L67.9,82C67.9,82.2,67.7,82.3,67.5,82.4C67.6,82.3,67.6,82.3,67.5,82.4L67.5,82.4z"/>
<path class="st0" d="M105.3,82L105.3,82c-0.2,0-0.3-0.1-0.3-0.3c0,0,0,0,0,0l0,0l0.2-55.3c0-0.2,0.1-0.3,0.3-0.3l0,0
	c0.2,0,0.3,0.1,0.3,0.3l0,0l-0.2,55.3C105.6,81.8,105.5,82,105.3,82C105.3,82,105.3,82,105.3,82z"/>
<path class="st0" d="M25.8,28c-2.3,0.1-4.3-1.7-4.4-4c-0.1-2.3,1.7-4.3,4-4.4c2.3-0.1,4.3,1.7,4.4,4c0,0.1,0,0.1,0,0.2l0,0
	C29.8,26.1,28,27.9,25.8,28z M25.8,21.5c-1.3,0-2.4,1-2.4,2.2c0,1.3,1,2.4,2.2,2.4c1.3,0,2.4-1,2.4-2.2c0,0,0-0.1,0-0.1l0,0
	C28.1,22.6,27,21.6,25.8,21.5L25.8,21.5z"/>
<path class="st0" d="M41,28c-2.3,0.1-4.3-1.7-4.4-4c-0.1-2.3,1.7-4.3,4-4.4c2.3-0.1,4.3,1.7,4.4,4c0,0.1,0,0.1,0,0.2l0,0
	C45,26.1,43.3,27.9,41,28z M41,21.5c-1.3,0-2.4,1-2.4,2.3c0,1.3,1,2.4,2.3,2.4s2.4-1,2.4-2.3c0,0,0-0.1,0-0.1
	C43.3,22.6,42.3,21.5,41,21.5C41,21.5,41,21.5,41,21.5z"/>
<path class="st0" d="M56.3,28c-2.3,0.1-4.3-1.7-4.4-4c-0.1-2.3,1.7-4.3,4-4.4c2.3-0.1,4.3,1.7,4.4,4c0,0.1,0,0.1,0,0.2l0,0
	C60.3,26.1,58.5,27.9,56.3,28L56.3,28z M56.3,21.5c-1.3,0-2.4,1-2.4,2.2c0,1.3,1,2.4,2.2,2.4c1.3,0,2.4-1,2.4-2.2c0,0,0-0.1,0-0.1
	l0,0C58.5,22.6,57.5,21.5,56.3,21.5C56.3,21.5,56.3,21.5,56.3,21.5L56.3,21.5z"/>
<path class="st0" d="M70.2,64.8c-0.1,0-0.2,0-0.2-0.1c-0.1-0.1-0.1-0.3,0-0.4c0,0,0,0,0,0L102.1,35c0.1-0.1,0.3-0.1,0.4,0
	c0,0,0,0,0,0c0.1,0.1,0.1,0.3,0,0.4c0,0,0,0,0,0L70.4,64.7C70.3,64.8,70.3,64.8,70.2,64.8z"/>
<path class="st0" d="M70.2,70c-0.1,0-0.2,0-0.2-0.1c-0.1-0.1-0.1-0.3,0-0.4c0,0,0,0,0,0l32.1-29.3c0.1-0.1,0.3-0.1,0.4,0
	c0.1,0.1,0.1,0.3,0,0.4c0,0,0,0,0,0L70.4,69.9C70.3,70,70.3,70,70.2,70z"/>
<path class="st0" d="M70.2,75.2c-0.1,0-0.2,0-0.2-0.1c-0.1-0.1-0.1-0.3,0-0.4c0,0,0,0,0,0l32.1-29.3c0.1-0.1,0.3-0.1,0.4,0
	c0.1,0.1,0.1,0.3,0,0.4c0,0,0,0,0,0L70.4,75.1C70.3,75.2,70.3,75.2,70.2,75.2z"/>
<path class="st0" d="M70.2,80.1c-0.1,0-0.1-0.1-0.2-0.1c-0.1-0.1-0.1-0.3,0-0.4c0,0,0,0,0,0l32.1-29.3c0.1-0.1,0.3-0.1,0.4,0
	c0.1,0.1,0.1,0.3,0,0.4c0,0,0,0,0,0L70.4,80C70.3,80.1,70.3,80.1,70.2,80.1z"/>
<path class="st0" d="M72.6,82.7c-0.1,0-0.2,0-0.2-0.1c-0.1-0.1-0.1-0.3,0-0.4l29.8-26.7c0.1-0.1,0.3-0.1,0.4,0
	c0.1,0.1,0.1,0.3,0,0.4c0,0,0,0,0,0l0,0L72.8,82.6C72.7,82.6,72.7,82.7,72.6,82.7z"/>
<path class="st0" d="M77.7,82.7c-0.1,0-0.2-0.1-0.2-0.1c-0.1-0.1-0.1-0.3,0-0.4c0,0,0,0,0,0l24.6-21.6c0.1-0.1,0.3-0.1,0.4,0
	c0.1,0.1,0.1,0.3,0,0.4c0,0,0,0,0,0L77.9,82.6C77.8,82.6,77.8,82.7,77.7,82.7z"/>
<path class="st0" d="M83.3,82.7c-0.2,0-0.3-0.1-0.3-0.3c0-0.1,0-0.2,0.1-0.2l19-16.2c0.1-0.1,0.3-0.1,0.4,0c0,0,0,0,0,0
	c0.1,0.1,0.1,0.3,0,0.4c0,0,0,0,0,0l0,0l-19,16.2C83.5,82.6,83.4,82.7,83.3,82.7z"/>
<path class="st0" d="M90,82.7c-0.2,0-0.3-0.2-0.3-0.3c0-0.1,0-0.2,0.1-0.2l12.3-10.8c0.1-0.1,0.3-0.1,0.4,0c0.1,0.1,0.1,0.3,0,0.4
	c0,0,0,0,0,0c0,0,0,0-0.1,0.1L90.2,82.6C90.1,82.7,90.1,82.7,90,82.7z"/>
<path class="st0" d="M96.2,82.7c-0.2,0-0.3-0.1-0.3-0.3c0,0,0,0,0,0c0-0.1,0-0.2,0.1-0.2l6.1-5.2c0.1-0.1,0.3-0.1,0.4,0l0,0
	c0.1,0.1,0.1,0.3,0,0.4l-6.1,5.2C96.3,82.6,96.3,82.7,96.2,82.7z"/>
</svg>
