<svg id="Layer_1" data-name="Layer 1" xmlns="http://www.w3.org/2000/svg" viewBox="0 0 142 131"><defs><style>.cls-1{fill:#5fbf82;}.cls-2{fill:#414141;}.cls-3{fill:#fff;}.cls-4{opacity:0.13;}.cls-5{fill:#010101;}</style></defs><rect class="cls-1" x="60.97" y="102.97" width="20.09" height="27.11"/><path class="cls-2" d="M410.05,315H390a.91.91,0,0,1-.89-.92V287a.91.91,0,0,1,.89-.92h20.09a.91.91,0,0,1,.89.92v27.11a.91.91,0,0,1-.89.92Zm-19.2-1.84h18.31V287.89H390.85Z" transform="translate(-329 -184)"/><path class="cls-2" d="M429.7,315H370.2a.92.92,0,0,1,0-1.84h59.5a.92.92,0,0,1,0,1.84Z" transform="translate(-329 -184)"/><rect class="cls-3" x="0.95" y="0.92" width="140.12" height="104.36"/><path class="cls-2" d="M470.07,290.19H330a.9.9,0,0,1-.89-.91V184.92A.91.91,0,0,1,330,184H470.11a.91.91,0,0,1,.89.92V289.28a.9.9,0,0,1-.89.91Zm-139.2-1.83H469.19V185.84H330.84Z" transform="translate(-329 -184)"/><rect class="cls-1" x="0.89" y="92.06" width="140.12" height="13.21"/><path class="cls-2" d="M470,290.19H329.89a.9.9,0,0,1-.89-.91V276.06a.9.9,0,0,1,.89-.91H470a.9.9,0,0,1,.89.91v13.22a.9.9,0,0,1-.89.91Zm-139.2-1.83H469.15V277H330.78Z" transform="translate(-329 -184)"/><g class="cls-4"><rect class="cls-5" x="60.97" y="106.26" width="20.09" height="4.29"/></g><path class="cls-2" d="M348.13,249.15a.89.89,0,0,1-.76-.43.93.93,0,0,1,.28-1.26l23.75-15.53a.91.91,0,0,1,.86-.06l24.36,11.77,37.19-33.93a.86.86,0,0,1,1.14,0l15.82,13.1a.92.92,0,0,1,.15,1.27v0a.88.88,0,0,1-1.26.13L434.4,211.56l-37.06,33.8a.89.89,0,0,1-1,.14L372,233.75,348.61,249A.9.9,0,0,1,348.13,249.15Z" transform="translate(-329 -184)"/><path class="cls-2" d="M371.71,266.3a.31.31,0,0,1-.3-.31V233.5a.3.3,0,1,1,.6,0V266a.3.3,0,0,1-.27.33Z" transform="translate(-329 -184)"/><path class="cls-2" d="M351.3,266.3h0A.3.3,0,0,1,351,266l.25-20.62a.31.31,0,0,1,.3-.3h0a.3.3,0,0,1,.29.31L351.6,266A.3.3,0,0,1,351.3,266.3Z" transform="translate(-329 -184)"/><path class="cls-2" d="M396.52,266.36h0a.33.33,0,0,1-.3-.32l.3-21.92a.3.3,0,0,1,.3-.31h0a.32.32,0,0,1,.29.32L396.86,266a.3.3,0,0,1-.29.32Z" transform="translate(-329 -184)"/><path class="cls-5" d="M434.27,266h0a.3.3,0,0,1-.3-.31h0l.25-55.3a.31.31,0,0,1,.29-.31h0a.3.3,0,0,1,.29.3v0l-.25,55.29A.29.29,0,0,1,434.27,266Z" transform="translate(-329 -184)"/><path class="cls-3" d="M351.65,207.87a3.14,3.14,0,1,1,3.14,3.24,3.2,3.2,0,0,1-3.14-3.24Z" transform="translate(-329 -184)"/><path class="cls-2" d="M354.79,212a4.18,4.18,0,1,1,4-4.18v0A4.1,4.1,0,0,1,354.79,212Zm0-6.5a2.34,2.34,0,1,0,2.25,2.35h0A2.3,2.3,0,0,0,354.79,205.53Z" transform="translate(-329 -184)"/><ellipse class="cls-3" cx="41.02" cy="23.86" rx="3.14" ry="3.24"/><path class="cls-2" d="M370,212a4.18,4.18,0,1,1,4-4.17h0A4.1,4.1,0,0,1,370,212Zm0-6.5a2.34,2.34,0,1,0,2.26,2.34,2.3,2.3,0,0,0-2.26-2.34Z" transform="translate(-329 -184)"/><ellipse class="cls-3" cx="56.24" cy="23.86" rx="3.14" ry="3.24"/><path class="cls-2" d="M385.26,212a4.18,4.18,0,1,1,4-4.18v0a4.1,4.1,0,0,1-4,4.16Zm0-6.5a2.34,2.34,0,1,0,2.25,2.35h0a2.28,2.28,0,0,0-2.24-2.34Z" transform="translate(-329 -184)"/><g class="cls-4"><path class="cls-5" d="M358.93,210.65a1.81,1.81,0,0,0-2.41-1,1.86,1.86,0,0,0-.66.52h0a1.92,1.92,0,0,1-.35.23h0a2.44,2.44,0,0,1-.44.13h-.49a2.53,2.53,0,0,1-.36-.12,2.49,2.49,0,0,1-.28-.15,1.52,1.52,0,0,0-.39-.32,1.83,1.83,0,0,0-2.57.58,2,2,0,0,0-.23,1.53c.44,1.32,2,1.9,3.17,2.2C355.75,214.79,359.89,213.13,358.93,210.65Z" transform="translate(-329 -184)"/></g><g class="cls-4"><path class="cls-5" d="M374.56,210.49a1.69,1.69,0,0,0-2.23-.94,1.83,1.83,0,0,0-.54.38l-.28.26-.1.06a2.62,2.62,0,0,1-1.37.33h-.33l-.35-.11a5.7,5.7,0,0,1-.54-.3h-.08a1.81,1.81,0,0,0-.65-.48,1.64,1.64,0,0,0-2.13,1,1.74,1.74,0,0,0,.32,1.74,5.64,5.64,0,0,0,5.73,1.39C373.31,213.36,375.26,212.15,374.56,210.49Z" transform="translate(-329 -184)"/></g><g class="cls-4"><path class="cls-5" d="M389.68,210.83a1.66,1.66,0,0,0-2.1-1.13,1.7,1.7,0,0,0-.61.35,1.55,1.55,0,0,1-.36.19l-.18.09c-.06,0-.22.08-.41.13l-.21.06h-.43a3.11,3.11,0,0,1-1-.36c-.74-.4-1.52-1.06-2.41-.83a1.69,1.69,0,0,0-1.09,2.08,1.65,1.65,0,0,0,.71.94,19.72,19.72,0,0,0,2,1.06,6.52,6.52,0,0,0,2.62.35C387.73,213.75,390.15,212.82,389.68,210.83Z" transform="translate(-329 -184)"/></g><path class="cls-5" d="M399.18,248.8a.32.32,0,0,1-.22-.1.3.3,0,0,1,0-.43L431.11,219a.29.29,0,0,1,.42,0,.3.3,0,0,1,0,.43L399.37,248.7A.3.3,0,0,1,399.18,248.8Z" transform="translate(-329 -184)"/><path class="cls-2" d="M399.18,254a.31.31,0,0,1-.22-.09.3.3,0,0,1,0-.43l32.15-29.28a.31.31,0,0,1,.42,0,.31.31,0,0,1,0,.44l-32.16,29.27A.28.28,0,0,1,399.18,254Z" transform="translate(-329 -184)"/><path class="cls-2" d="M399.18,259.21a.31.31,0,0,1-.22-.09.31.31,0,0,1,0-.44l32.15-29.27a.31.31,0,0,1,.42,0,.3.3,0,0,1,0,.43l-32.16,29.28A.34.34,0,0,1,399.18,259.21Z" transform="translate(-329 -184)"/><path class="cls-2" d="M399.18,264.11A.31.31,0,0,1,399,264a.31.31,0,0,1,0-.44l32.15-29.27a.31.31,0,0,1,.42,0,.3.3,0,0,1,0,.43L399.37,264A.34.34,0,0,1,399.18,264.11Z" transform="translate(-329 -184)"/><path class="cls-2" d="M401.58,266.67a.38.38,0,0,1-.23-.11.32.32,0,0,1,0-.43l29.76-26.68a.3.3,0,0,1,.42,0,.31.31,0,0,1,0,.44h0l-29.77,26.67A.26.26,0,0,1,401.58,266.67Z" transform="translate(-329 -184)"/><path class="cls-2" d="M406.69,266.67a.32.32,0,0,1-.22-.12.3.3,0,0,1,0-.43l24.65-21.62a.31.31,0,0,1,.42,0,.3.3,0,0,1,0,.43L406.9,266.56A.43.43,0,0,1,406.69,266.67Z" transform="translate(-329 -184)"/><path class="cls-2" d="M412.33,266.67a.32.32,0,0,1-.31-.3.3.3,0,0,1,.12-.25l19-16.16a.28.28,0,0,1,.41,0,.3.3,0,0,1,0,.43h0l-19,16.16A.33.33,0,0,1,412.33,266.67Z" transform="translate(-329 -184)"/><path class="cls-2" d="M419,266.67a.33.33,0,0,1-.3-.34.32.32,0,0,1,.1-.21l12.34-10.81a.29.29,0,0,1,.41,0,.31.31,0,0,1,0,.44s0,0-.06.05l-12.28,10.81A.32.32,0,0,1,419,266.67Z" transform="translate(-329 -184)"/><path class="cls-2" d="M425.18,266.67a.3.3,0,0,1-.3-.31.32.32,0,0,1,.11-.24l6.14-5.18a.29.29,0,0,1,.41,0h0a.31.31,0,0,1,0,.42l-6.14,5.19A.35.35,0,0,1,425.18,266.67Z" transform="translate(-329 -184)"/></svg>