<svg id="Layer_1" data-name="Layer 1" xmlns="http://www.w3.org/2000/svg" viewBox="0 0 1749.97 276"><defs><style>.cls-1{fill:#5ebe81;}.cls-1,.cls-2,.cls-3,.cls-4{fill-rule:evenodd;}.cls-2{fill:#1ba78c;}.cls-3{fill:#36baa0;}.cls-4{fill:#3f3f3f;}</style></defs><polygon class="cls-1" points="0 0.01 154.45 265.97 225.45 145.6 140.9 0 0 0.01"/><polygon class="cls-2" points="166.97 0 318.25 263.26 387.37 141.61 305.87 0 166.97 0"/><polygon class="cls-3" points="476.16 0 408.29 123.79 336.22 0 476.16 0"/><path class="cls-2" d="M1305.93,861.64l-48,120.89-45.89-117.74h-37l76.58,193h10.49l49-125.35,49,125.35h10.49l76.57-193h-37l-45.89,117.74-48-120.89Zm163.1,3.14v189.86h117.49V1023.7h-83.4V974.13h77.63V943.19h-77.63V895.73h83.4V864.79H1469Zm151.57,0v189.86h78.15c39.33,0,64-23.08,64-54.81,0-27.53-15.73-44.58-32.52-49,8.92-6.3,16-17.31,16-36.45,0-29.11-24.39-49.57-61.62-49.57Zm59.53,78.67h-25.44V894.94h25.44c18.09,0,30.94,5.77,30.94,23.08s-12.85,25.43-30.94,25.43Zm17.31,81h-42.75V973.61h42.75c17.57,0,30.15,9.18,30.15,24.65,0,14.68-12.06,26.22-30.15,26.22Zm94.4-159.7v189.86h117.48V1023.7h-83.39V974.13h77.62V943.19h-77.62V895.73h83.39V864.79H1791.84Zm302.13,193h10.45v-193h-34l-.26,120.11L1953.85,861.64h-10.44v193h34l.26-120.36L2094,1057.79Zm51.36-193v189.86h34.09V864.78Zm118.52,90-66.08,99.91h40.65l48-73.69,48,73.69H2375L2309,954.73l58.74-90h-40.65l-40.64,63.73-40.65-63.73h-40.65Z" transform="translate(-625.07 -861.64)"/><path class="cls-4" d="M1222.48,1086.27h-1.74L1208.81,1101h6.32v23.92h7.35V1101H1230v-5.91h-7.48v-8.8Zm37,39.33a17.45,17.45,0,0,0,12.51-4.7l-3.65-5.32a11.94,11.94,0,0,1-8.63,3.7c-4.81,0-8.11-2.89-8.74-7.24h21a19.16,19.16,0,0,0,.29-3.47c0-8-4.46-14.19-13.84-14.19-8.69,0-15,6.43-15,15.69,0,8.75,6.26,15.53,16,15.53Zm-1-24.91c3.47,0,6.2,1.74,6.31,5.44h-13.61c.75-3.7,3.71-5.44,7.3-5.44Zm36.86,9.33c0-5.28,3.3-8.75,8.11-8.75a10.91,10.91,0,0,1,8.75,3.94l3.88-5.73c-2.2-2.38-6.32-5-12.69-5-9.44,0-15.4,6.77-15.4,15.58s6,15.58,15.4,15.58c6.37,0,10.49-2.67,12.69-5l-3.88-5.74a10.91,10.91,0,0,1-8.75,3.94c-4.81,0-8.11-3.47-8.11-8.74Zm37.16-29.72v44.6h7.35v-16.74c0-4.75,2.9-7.24,6.84-7.24,4.34,0,6.6,2.49,6.6,7.24v16.74h7.36v-17.55c0-7.64-4.18-13-11.76-13-5,0-7.65,1.8-9,3.76V1080.3Zm46.88,14.77v29.83h7.36v-16.74c0-4.75,2.89-7.24,6.83-7.24,4.34,0,6.6,2.49,6.6,7.24v16.74h7.36v-17.55c0-7.64-4.17-13-11.76-13-4.81,0-7.65,1.79-9,3.76v-3.07Zm60.9,30.64c10.08,0,15.81-7.47,15.81-15.69s-5.73-15.64-15.81-15.64-15.81,7.47-15.81,15.64,5.73,15.69,15.81,15.69Zm0-24.79c4.81,0,8.46,3.59,8.46,9.09s-3.65,9.16-8.46,9.16-8.46-3.6-8.46-9.16,3.65-9.09,8.46-9.09Zm33-20.62v44.6h7.36v-44.6Zm40.4,45.41c10.08,0,15.81-7.47,15.81-15.69s-5.73-15.64-15.81-15.64-15.81,7.47-15.81,15.64,5.73,15.69,15.81,15.69Zm0-24.79c4.81,0,8.46,3.59,8.46,9.09s-3.65,9.16-8.46,9.16-8.46-3.6-8.46-9.16,3.65-9.09,8.46-9.09Zm31.36,7.82c0-8.74,6.2-14.31,13.67-14.31a12.19,12.19,0,0,1,8.86,3.25v-2.61h7V1123c0,7-5,13.55-14.42,13.55-8.75,0-13.79-5.62-14.42-11.64H1553c.75,2.78,3,5.1,7.24,5.1,5,0,7.53-3.48,7.53-7.59v-2.66c-2.09,2.14-5.27,3.24-9,3.24-7.47,0-13.67-5.5-13.67-14.25Zm7,0c0,4.92,3.42,7.94,8,7.94a8,8,0,0,0,0-16,7.62,7.62,0,0,0-8,8Zm45.21-20.09a4.55,4.55,0,0,0,4.46-4.47,4.49,4.49,0,1,0-4.46,4.47Zm-3.65,6.42v29.83H1601v-29.83Zm40.63,30.53a17.45,17.45,0,0,0,12.51-4.7l-3.65-5.32a12,12,0,0,1-8.63,3.7c-4.81,0-8.11-2.89-8.75-7.24h21a19.08,19.08,0,0,0,.28-3.47c0-8-4.46-14.19-13.84-14.19-8.69,0-15,6.43-15,15.69,0,8.75,6.25,15.53,16,15.53Zm-1-24.91c3.48,0,6.2,1.74,6.31,5.44h-13.61c.76-3.7,3.71-5.44,7.3-5.44Zm40.11,24.91c6.49,0,11.12-4.23,11.12-9.73s-4.4-8.17-8.46-9.56l-2.54-.87c-1.68-.58-2.72-1.39-2.72-2.72,0-1.1,1-2.09,2.66-2.09a5.57,5.57,0,0,1,4.81,2.78l4.8-4.16c-1.56-2.61-5-4.87-9.9-4.87-5.1,0-9.27,3.82-9.27,8.34s3,7.24,7.07,8.57l2.66.87c2.26.75,3.77,1.79,3.77,3.71,0,2.08-1.86,3.3-4,3.3a7,7,0,0,1-6.66-4.12l-4.81,4.81c1.74,3,5.51,5.74,11.47,5.74Zm89.13-30.53h-7.35v42.57h7.35V1122c2.15,2.32,5.39,3.6,9.33,3.6,8.11,0,14.37-6.2,14.37-15.64s-6.26-15.58-14.37-15.58c-3.94,0-7.18,1.21-9.33,3.53v-2.84Zm7.71,5.85c4.81,0,8.63,3.3,8.63,9s-3.82,9.09-8.63,9.09c-4.23,0-8-3.3-8-9.09s3.82-9,8-9Zm33.27-5.85v29.83h7.36v-17.84c0-4.75,1.79-6.2,3.76-6.2a3.27,3.27,0,0,1,3.42,3.6h7.18c.29-6.49-3-10.08-7.7-10.08-3.77,0-5.68,1.74-6.66,3.53v-2.84Zm41.62-6.42a4.55,4.55,0,0,0,4.46-4.47,4.49,4.49,0,1,0-4.46,4.47Zm-3.65,6.42v29.83h7.35v-29.83Zm39.29,29.83H1879l-14.89-29.83h8l7.82,16.27,7.82-16.27h8l-15,29.83Zm50.77-2.84v2.84h7.18v-29.83h-7.18v2.9a12.62,12.62,0,0,0-9.09-3.59c-7.71,0-14.31,5.85-14.31,15.63s6.6,15.59,14.31,15.59a12.59,12.59,0,0,0,9.09-3.54Zm-7.82-21.14c4.29,0,8,3.3,8,9.09s-3.7,9-8,9c-4.69,0-8.28-3.3-8.28-9s3.59-9.09,8.28-9.09Zm44.28-14.65h-1.74L1954.27,1101h6.31v23.92h7.36V1101h7.47v-5.91h-7.47v-8.8Zm37,39.33a17.45,17.45,0,0,0,12.51-4.7l-3.65-5.32a11.94,11.94,0,0,1-8.63,3.7c-4.81,0-8.11-2.89-8.75-7.24h21a19.16,19.16,0,0,0,.29-3.47c0-8-4.46-14.19-13.85-14.19-8.68,0-15,6.43-15,15.69,0,8.75,6.26,15.53,16,15.53Zm-1-24.91c3.48,0,6.2,1.74,6.32,5.44h-13.61c.75-3.7,3.7-5.44,7.29-5.44Zm84.68-20.39v44.6H2096v-44.6Zm30,8.35a4.55,4.55,0,0,0,4.46-4.47,4.47,4.47,0,0,0-4.46-4.51,4.49,4.49,0,1,0,0,9Zm-3.65,6.42v29.83h7.36v-29.83Zm52.39,4.12c-1.51-2.78-4.81-4.81-9.62-4.81-5,0-7.64,1.8-9,3.76v-3.07h-7.36v29.83h7.36v-16.74c0-4.75,2.9-7.24,6.83-7.24,4.4,0,6.14,2.49,6.14,7.24v16.74h7.36v-16.74c0-4.75,2.89-7.24,6.6-7.24,4.4,0,6.37,2.49,6.37,7.24v16.74h7.36v-17.55c0-7.64-3.71-13-11.3-13-5.73,0-9,2-10.71,4.81Zm44.39-10.54a4.54,4.54,0,0,0,4.46-4.47,4.46,4.46,0,0,0-4.46-4.51,4.49,4.49,0,1,0,0,9Zm-3.65,6.42v29.83h7.36v-29.83Zm36.63-8.8H2243L2231.08,1101h6.32v23.92h7.35V1101h7.47v-5.91h-7.47v-8.8Zm37.05,39.33a17.42,17.42,0,0,0,12.5-4.7l-3.64-5.32a12,12,0,0,1-8.63,3.7c-4.81,0-8.11-2.89-8.75-7.24h21a19.16,19.16,0,0,0,.29-3.47c0-8-4.46-14.19-13.84-14.19-8.69,0-15,6.43-15,15.69,0,8.75,6.25,15.53,16.05,15.53Zm-1.05-24.91c3.48,0,6.2,1.74,6.31,5.44h-13.61c.76-3.7,3.71-5.44,7.3-5.44Zm53.2,24.21h7.35v-44.6H2334V1098c-2.15-2.32-5.39-3.59-9.33-3.59-8.1,0-14.36,6.19-14.36,15.63s6.25,15.59,14.36,15.59c3.94,0,7.18-1.22,9.33-3.54v2.84Zm-7.71-5.85c-4.8,0-8.62-3.3-8.62-9s3.82-9.1,8.62-9.1c4.23,0,8.06,3.3,8.06,9.1S2330.47,1119.05,2326.24,1119.05Z" transform="translate(-625.07 -861.64)"/></svg>