<svg id="Layer_1" data-name="Layer 1" xmlns="http://www.w3.org/2000/svg" xmlns:xlink="http://www.w3.org/1999/xlink" viewBox="0 0 33.1 22.98"><defs><style>.cls-1{fill:#4353ff;}</style><symbol id="A" data-name="A" viewBox="0 0 33.1 22.98"><path class="cls-1" d="M24.52,16.26l-2.9-9.14c0,.7-2,15.86-2,15.86-4.6,0-7-3.26-8.32-6.72L7.76,7.1c0,.66-.5,9.08-.5,9.08A7.47,7.47,0,0,1,0,23L3.76,0c4.8,0,7.4,3.26,8.74,6.72l3,7.8c0-.32,2-14.52,2-14.52a9.24,9.24,0,0,1,8.8,6.46L33.1,23c-4.8,0-7.32-3.26-8.6-6.72Z"/></symbol></defs><use width="33.1" height="22.98" transform="matrix(1, 0, 0, -1, 0, 22.98)" xlink:href="#A"/></svg>