<svg xmlns="http://www.w3.org/2000/svg" viewBox="0 0 29.8 28"><defs><style>.cls-1{fill:#404040;}</style></defs><g id="Layer_2" data-name="Layer 2"><g id="Layer_1-2" data-name="Layer 1"><g id="Group_3105" data-name="Group 3105"><path id="Path_4761" data-name="Path 4761" class="cls-1" d="M15.3,2.1A13,13,0,1,1,2.3,15,12.89,12.89,0,0,1,15.3,2.1Zm0,1.1A11.8,11.8,0,1,0,27.1,15v-.1A11.87,11.87,0,0,0,15.3,3.2Z"/><path id="Path_4762" data-name="Path 4762" class="cls-1" d="M12.2,17.2a16.67,16.67,0,0,1,.8-2,10.84,10.84,0,0,1,.8-1.9A3.68,3.68,0,0,1,15.9,11a3.08,3.08,0,0,1,1.3-.3c.3,2.3.5,4.4.8,6.6h.1c.1-.5.3-.9.4-1.4a18.66,18.66,0,0,1,.7-2.2A3.89,3.89,0,0,1,21.5,11a5.73,5.73,0,0,1,1.4-.4c-.4,1-.8,1.9-1.1,2.8-.5,1.4-1.1,2.8-1.7,4.1a4.09,4.09,0,0,1-1.8,2.3,3.51,3.51,0,0,1-2,.5c-.3-2-.5-3.9-.8-6-.1.2-.1.2-.1.3-.4,1-.7,1.9-1.1,2.9A5,5,0,0,1,13,19.4a3.84,3.84,0,0,1-2.5.9c-.5-3.2-1-6.3-1.6-9.6a1.48,1.48,0,0,0,.7.1,3.3,3.3,0,0,1,2.5,3l.1,3.4Z"/></g><g id="Group_343" data-name="Group 343"><circle id="Ellipse_127-2" data-name="Ellipse 127-2" class="cls-1" cx="4.4" cy="2" r="2"/><circle id="Ellipse_128-2" data-name="Ellipse 128-2" class="cls-1" cx="0.8" cy="3.9" r="0.8"/></g><g id="Group_343-2" data-name="Group 343"><circle id="Ellipse_127-2-2" data-name="Ellipse 127-2" class="cls-1" cx="28.3" cy="25.3" r="1.5"/></g></g></g></svg>