<svg id="Layer_1" data-name="Layer 1" xmlns="http://www.w3.org/2000/svg" viewBox="0 0 167.57 124.05"><defs><style>.cls-1{fill:#5ebe81;}.cls-2{fill:#fff;}.cls-3{opacity:0.13;}</style></defs><rect class="cls-1" x="59.57" y="97.51" width="19.63" height="25.67"/><path d="M591,174.12H571.35a.87.87,0,0,1-.87-.87V147.58a.87.87,0,0,1,.87-.87H591a.87.87,0,0,1,.87.87v25.67A.87.87,0,0,1,591,174.12Zm-18.75-1.74H590.1V148.45H572.22Z" transform="translate(-511.78 -50.07)"/><path d="M610.17,174.12H552a.87.87,0,0,1,0-1.74h58.14a.87.87,0,1,1,0,1.74Z" transform="translate(-511.78 -50.07)"/><rect class="cls-2" x="0.93" y="0.87" width="136.9" height="98.82"/><path d="M649.61,150.63H512.71a.87.87,0,0,1-.87-.87V50.94a.87.87,0,0,1,.87-.87h136.9a.87.87,0,0,1,.87.87v98.82A.87.87,0,0,1,649.61,150.63Zm-136-1.74H648.74V51.81H513.58Z" transform="translate(-511.78 -50.07)"/><rect class="cls-1" x="0.87" y="87.18" width="136.9" height="12.51"/><path d="M649.55,150.63H512.65a.87.87,0,0,1-.87-.87V137.25a.87.87,0,0,1,.87-.87h136.9a.87.87,0,0,1,.87.87v12.51A.87.87,0,0,1,649.55,150.63Zm-136-1.74H648.68V138.12H513.52Z" transform="translate(-511.78 -50.07)"/><g class="cls-3"><rect x="59.57" y="100.62" width="19.63" height="4.06"/></g><ellipse class="cls-2" cx="137.92" cy="38.08" rx="9.31" ry="9.93"/><path d="M649.7,99c-5.62,0-10.18-4.84-10.18-10.79s4.56-10.8,10.18-10.8,10.17,4.85,10.17,10.8S655.31,99,649.7,99Zm0-19.85c-4.66,0-8.44,4.06-8.44,9.06s3.78,9,8.44,9,8.43-4.06,8.43-9S654.35,79.1,649.7,79.1Z" transform="translate(-511.78 -50.07)"/><path class="cls-2" d="M587.91,117.29q14.57,18.36,29.84,36.06a10.37,10.37,0,0,0,2.78,2.52c3,1.6,6.91-.78,8-4.21s-.14-7.29-2.2-10.19-4.88-5-7.57-7.23A119,119,0,0,1,596.56,110c-.86-1.26-2-2.68-3.45-2.39a3.82,3.82,0,0,0-2.08,1.82C589.35,111.86,587.76,115.55,587.91,117.29Z" transform="translate(-511.78 -50.07)"/><path d="M622.61,157.25a5.39,5.39,0,0,1-2.49-.61,11.07,11.07,0,0,1-3-2.72C607,142.17,596.9,130,587.22,117.83a.91.91,0,0,1-.18-.47c-.18-2,1.56-6,3.27-8.41a4.63,4.63,0,0,1,2.63-2.18c2.14-.43,3.68,1.8,4.34,2.75a117.08,117.08,0,0,0,22,24l1,.82A34.85,34.85,0,0,1,627,141c2.5,3.5,3.37,7.6,2.33,10.95a7.89,7.89,0,0,1-4.39,4.84A6.18,6.18,0,0,1,622.61,157.25ZM588.77,117c9.6,12.11,19.57,24.15,29.64,35.81a9.59,9.59,0,0,0,2.53,2.32,3.88,3.88,0,0,0,3.35.05,6.06,6.06,0,0,0,3.38-3.74c.88-2.84.11-6.37-2.08-9.43a33.48,33.48,0,0,0-6.4-6.24l-1-.83a119.19,119.19,0,0,1-22.34-24.4c-.66-1-1.66-2.22-2.55-2-.57.11-1.08.78-1.55,1.46C590.16,112.22,588.8,115.45,588.77,117Z" transform="translate(-511.78 -50.07)"/><path class="cls-2" d="M594.18,98.91l-11.61,6a5.39,5.39,0,0,0-2.4,7.06l5.67,12.12a5.37,5.37,0,0,0,7.07,2.62l12.25-5.53Z" transform="translate(-511.78 -50.07)"/><path d="M590.73,128a6.26,6.26,0,0,1-5.68-3.6l-5.67-12.12a6.22,6.22,0,0,1,2.79-8.19l11.62-6a.91.91,0,0,1,.67,0,.88.88,0,0,1,.51.44l11,22.27a.85.85,0,0,1,0,.68.87.87,0,0,1-.46.5l-12.25,5.52A6.19,6.19,0,0,1,590.73,128Zm3.07-27.95L583,105.68a4.49,4.49,0,0,0-2,5.91l5.66,12.12a4.54,4.54,0,0,0,5.94,2.2L604,120.75Z" transform="translate(-511.78 -50.07)"/><polygon class="cls-2" points="82.01 49.16 124.84 13.16 147.31 63.72 92.68 71.42 82.01 49.16"/><path d="M604.45,122.36a.87.87,0,0,1-.78-.49L593,99.6a.88.88,0,0,1,.22-1l42.84-36a.87.87,0,0,1,.76-.18.86.86,0,0,1,.59.49l22.47,50.56a.89.89,0,0,1,0,.78.87.87,0,0,1-.64.44l-54.63,7.69Zm-9.59-22.9L605,120.54l52.86-7.44L636.29,64.65Z" transform="translate(-511.78 -50.07)"/><path d="M659,70.57a.78.78,0,0,1-.36-.08.87.87,0,0,1-.43-1.15l4.41-9.76a.87.87,0,1,1,1.58.72l-4.41,9.76A.86.86,0,0,1,659,70.57Z" transform="translate(-511.78 -50.07)"/><path d="M666.6,79.43a.88.88,0,0,1-.76-.44.87.87,0,0,1,.33-1.19c3-1.67,6-3.28,9-4.78a.87.87,0,0,1,1.16.4.86.86,0,0,1-.39,1.16c-3,1.49-6,3.08-9,4.74A.86.86,0,0,1,666.6,79.43Z" transform="translate(-511.78 -50.07)"/><path d="M678.47,96.14a.85.85,0,0,1-.26,0L667.73,92.7a.87.87,0,0,1,.54-1.66l10.47,3.4a.86.86,0,0,1,.56,1.09A.88.88,0,0,1,678.47,96.14Z" transform="translate(-511.78 -50.07)"/><path d="M581.68,111.13h-.09a.29.29,0,0,1-.19-.37l1.22-3.67a.29.29,0,0,1,.55.19L582,110.94A.28.28,0,0,1,581.68,111.13Z" transform="translate(-511.78 -50.07)"/><path d="M583.72,115.5h-.08a.29.29,0,0,1-.2-.36c1-3.42,2.09-6.84,3.32-10.19a.29.29,0,1,1,.54.21c-1.22,3.32-2.33,6.74-3.3,10.14A.31.31,0,0,1,583.72,115.5Z" transform="translate(-511.78 -50.07)"/><path d="M585.89,118.72a.22.22,0,0,1-.11,0,.29.29,0,0,1-.17-.37c1.92-5.17,3.7-10.47,5.29-15.74a.29.29,0,0,1,.56.17c-1.6,5.28-3.38,10.59-5.3,15.77A.3.3,0,0,1,585.89,118.72Z" transform="translate(-511.78 -50.07)"/><path d="M588.34,124.14h-.07a.29.29,0,0,1-.21-.35c1.63-6.19,3.45-12.42,5.43-18.51a.28.28,0,0,1,.36-.19.29.29,0,0,1,.19.36c-2,6.09-3.79,12.31-5.42,18.49A.28.28,0,0,1,588.34,124.14Z" transform="translate(-511.78 -50.07)"/><path d="M591.91,125.55h-.07a.29.29,0,0,1-.21-.35l4-15.57a.29.29,0,0,1,.57.14l-4,15.58A.28.28,0,0,1,591.91,125.55Z" transform="translate(-511.78 -50.07)"/><path d="M595.67,123h-.08a.28.28,0,0,1-.2-.36c.79-2.79,1.56-5.64,2.29-8.47a.3.3,0,0,1,.36-.21.29.29,0,0,1,.2.36c-.73,2.83-1.5,5.69-2.29,8.48A.3.3,0,0,1,595.67,123Z" transform="translate(-511.78 -50.07)"/><path d="M599.22,121.62h-.05a.28.28,0,0,1-.24-.33,24.53,24.53,0,0,1,.89-3.47.29.29,0,0,1,.55.18,25.17,25.17,0,0,0-.87,3.39A.28.28,0,0,1,599.22,121.62Z" transform="translate(-511.78 -50.07)"/><g class="cls-3"><path d="M656.15,111.37a1.36,1.36,0,0,0-.46.28c.16-.13.16-.14,0-.08l-.06,0-.24,0c-1.72.23-3.47.23-5.2.41-7.37.83-14.75,1.69-22.16,2.19-3.38.18-6.76.5-10.12.92a63.07,63.07,0,0,0-8.21.92,75.3,75.3,0,0,0-15,4.67c-2.9,1.22-3.15,1.33-5.5,2.27-1,.51-2.22.7-2.9,1.6a2.16,2.16,0,0,0-.45.86c.24.12.86.52,1,.58s1.37.67,1,.54c.89.34,1.79.63,2.67,1,.7-.28,1.53-.6,2.45-.93a1.19,1.19,0,0,1,.48-.67,1.08,1.08,0,0,1,1.43.37l1.75,2.5.46.65a1.47,1.47,0,0,0,.34-.07c2.16-.77,4.73-2.08,5.22-2.27,1.56-.77,4.43-1.29,4.67-3.25a16,16,0,0,1-.94-1.34.9.9,0,0,1,.31-1.19.84.84,0,0,1,1,.09c2.31-.72,4.64-1.35,7-1.87,3.13-.43,6.68-.92,8.53-1.1,5.64-.32,10.72-.84,15.12-1.34,4.79-.66,13.31-1.4,15.76-1.87.87-.13,1.76-.2,2.62-.4l-.46.07.66-.09a1.81,1.81,0,0,0,1.1-.4A1.83,1.83,0,0,0,656.15,111.37Z" transform="translate(-511.78 -50.07)"/></g><g class="cls-3"><path d="M659.36,88.56a1.75,1.75,0,0,0-2.75-.91,2.45,2.45,0,0,0-.8,1.38,16,16,0,0,1-1.32,2.36l0,0a7.87,7.87,0,0,1-2.27,1.32,8.7,8.7,0,0,0-2,1.15,15.4,15.4,0,0,1,1,2c.25.57.49,1.15.73,1.73a2.17,2.17,0,0,0,.91-.3,11.41,11.41,0,0,0,5.37-4.76C658.82,91.32,659.56,90,659.36,88.56Z" transform="translate(-511.78 -50.07)"/></g><path d="M597.92,71.42H578.41a.87.87,0,0,1,0-1.74h19.51a.87.87,0,1,1,0,1.74Z" transform="translate(-511.78 -50.07)"/><path d="M560.9,108.91H526.46a.87.87,0,0,1,0-1.74H560.9a.87.87,0,1,1,0,1.74Z" transform="translate(-511.78 -50.07)"/><path d="M560.9,122H526.46a.87.87,0,0,1,0-1.74H560.9a.87.87,0,1,1,0,1.74Z" transform="translate(-511.78 -50.07)"/><rect class="cls-2" x="14.68" y="14.99" width="39.44" height="29.58"/><path d="M565.9,95.52H526.46a.87.87,0,0,1-.87-.87V65.07a.87.87,0,0,1,.87-.87H565.9a.87.87,0,0,1,.87.87V94.65A.87.87,0,0,1,565.9,95.52Zm-38.57-1.74H565V65.94h-37.7Z" transform="translate(-511.78 -50.07)"/></svg>