<svg id="Layer_1" data-name="Layer 1" xmlns="http://www.w3.org/2000/svg" viewBox="0 0 138.7 124.05"><defs><style>.cls-1{fill:#5ebe81;}.cls-2{fill:#fff;}.cls-3{opacity:0.13;}</style></defs><rect class="cls-1" x="59.57" y="97.51" width="19.63" height="25.67"/><path d="M1001.22,174.12H981.59a.87.87,0,0,1-.87-.87V147.58a.87.87,0,0,1,.87-.87h19.63a.87.87,0,0,1,.87.87v25.67A.87.87,0,0,1,1001.22,174.12Zm-18.76-1.74h17.89V148.45H982.46Z" transform="translate(-922.03 -50.07)"/><path d="M1020.42,174.12H962.28a.87.87,0,0,1,0-1.74h58.14a.87.87,0,1,1,0,1.74Z" transform="translate(-922.03 -50.07)"/><rect class="cls-2" x="0.93" y="0.87" width="136.9" height="98.82"/><path d="M1059.86,150.63H923a.87.87,0,0,1-.87-.87V50.94a.87.87,0,0,1,.87-.87h136.9a.87.87,0,0,1,.87.87v98.82A.87.87,0,0,1,1059.86,150.63Zm-136-1.74H1059V51.81H923.83Z" transform="translate(-922.03 -50.07)"/><rect class="cls-1" x="0.87" y="87.18" width="136.9" height="12.51"/><path d="M1059.8,150.63H922.9a.87.87,0,0,1-.87-.87V137.25a.87.87,0,0,1,.87-.87h136.9a.87.87,0,0,1,.87.87v12.51A.87.87,0,0,1,1059.8,150.63Zm-136-1.74h135.16V138.12H923.77Z" transform="translate(-922.03 -50.07)"/><g class="cls-3"><rect x="59.57" y="100.62" width="19.63" height="4.06"/></g><path d="M940.72,111.76a.88.88,0,0,1-.74-.4.87.87,0,0,1,.27-1.2l23.21-14.7a.9.9,0,0,1,.84-.06l23.8,11.15,36.33-32.13a.86.86,0,0,1,1.12,0L1041,86.82a.86.86,0,0,1,.14,1.22.88.88,0,0,1-1.23.13l-14.9-12-36.21,32a.88.88,0,0,1-.94.14L964,97.18l-22.81,14.45A.84.84,0,0,1,940.72,111.76Z" transform="translate(-922.03 -50.07)"/><path d="M963.76,128a.29.29,0,0,1-.29-.29V96.94a.29.29,0,1,1,.58,0v30.74A.29.29,0,0,1,963.76,128Z" transform="translate(-922.03 -50.07)"/><path d="M943.82,128h0a.29.29,0,0,1-.29-.29l.25-19.53a.29.29,0,0,1,.29-.28h0a.29.29,0,0,1,.29.29l-.25,19.52A.29.29,0,0,1,943.82,128Z" transform="translate(-922.03 -50.07)"/><path d="M988,128.06h0a.31.31,0,0,1-.29-.3L988,107a.29.29,0,0,1,.29-.29h0a.31.31,0,0,1,.29.3l-.25,20.75A.29.29,0,0,1,988,128.06Z" transform="translate(-922.03 -50.07)"/><path d="M1024.88,127.73h0a.29.29,0,0,1-.29-.29l.24-52.37a.3.3,0,0,1,.29-.29h0a.28.28,0,0,1,.28.3l-.24,52.36A.29.29,0,0,1,1024.88,127.73Z" transform="translate(-922.03 -50.07)"/><path class="cls-2" d="M944.16,72.67a3.07,3.07,0,1,1,3.07,3.07A3.07,3.07,0,0,1,944.16,72.67Z" transform="translate(-922.03 -50.07)"/><path d="M947.23,76.61a3.95,3.95,0,1,1,3.94-3.94A3.95,3.95,0,0,1,947.23,76.61Zm0-6.15a2.21,2.21,0,1,0,2.2,2.21A2.21,2.21,0,0,0,947.23,70.46Z" transform="translate(-922.03 -50.07)"/><circle class="cls-2" cx="40.08" cy="22.59" r="3.07"/><path d="M962.1,76.61a3.95,3.95,0,1,1,3.95-3.94A3.95,3.95,0,0,1,962.1,76.61Zm0-6.15a2.21,2.21,0,1,0,2.21,2.21A2.21,2.21,0,0,0,962.1,70.46Z" transform="translate(-922.03 -50.07)"/><circle class="cls-2" cx="54.95" cy="22.59" r="3.07"/><path d="M977,76.61a3.95,3.95,0,1,1,3.94-3.94A3.94,3.94,0,0,1,977,76.61Zm0-6.15a2.21,2.21,0,1,0,2.2,2.21A2.2,2.2,0,0,0,977,70.46Z" transform="translate(-922.03 -50.07)"/><g class="cls-3"><path d="M951.27,75.31a1.78,1.78,0,0,0-3-.41h0a2.46,2.46,0,0,1-.34.22h0a3.45,3.45,0,0,1-.43.12h-.27l-.21,0a2.49,2.49,0,0,1-.35-.11,2.34,2.34,0,0,1-.27-.15,1.94,1.94,0,0,0-.38-.3,1.82,1.82,0,0,0-2.74,2c.43,1.25,1.92,1.8,3.1,2.08C948.17,79.23,952.21,77.65,951.27,75.31Z" transform="translate(-922.03 -50.07)"/></g><g class="cls-3"><path d="M966.54,75.15a1.66,1.66,0,0,0-2.7-.53l-.28.25-.09.06a2.68,2.68,0,0,1-1.34.31h-.32l-.35-.1a5.29,5.29,0,0,1-.52-.29l-.08,0a1.69,1.69,0,0,0-.64-.45A1.62,1.62,0,0,0,958.45,77a5.65,5.65,0,0,0,5.6,1.32C965.32,77.87,967.23,76.73,966.54,75.15Z" transform="translate(-922.03 -50.07)"/></g><g class="cls-3"><path d="M981.32,75.48a1.64,1.64,0,0,0-2.65-.74,2.31,2.31,0,0,1-.35.18l-.18.08c-.06,0-.21.08-.4.13l-.2.05h-.42a2.9,2.9,0,0,1-1-.34c-.72-.38-1.49-1-2.36-.78a1.58,1.58,0,0,0-.37,2.86,21,21,0,0,0,2,1,6.53,6.53,0,0,0,2.56.33C979.41,78.24,981.78,77.36,981.32,75.48Z" transform="translate(-922.03 -50.07)"/></g><path d="M990.6,111.43a.31.31,0,0,1-.22-.09.29.29,0,0,1,0-.41l31.42-27.72a.3.3,0,0,1,.41,0,.29.29,0,0,1,0,.41l-31.43,27.72A.28.28,0,0,1,990.6,111.43Z" transform="translate(-922.03 -50.07)"/><path d="M990.6,116.36a.31.31,0,0,1-.22-.09.29.29,0,0,1,0-.41l31.42-27.72a.3.3,0,0,1,.41,0,.29.29,0,0,1,0,.41l-31.43,27.72A.28.28,0,0,1,990.6,116.36Z" transform="translate(-922.03 -50.07)"/><path d="M990.6,121.29a.31.31,0,0,1-.22-.09.29.29,0,0,1,0-.41l31.42-27.72a.3.3,0,0,1,.41,0,.29.29,0,0,1,0,.41l-31.43,27.72A.28.28,0,0,1,990.6,121.29Z" transform="translate(-922.03 -50.07)"/><path d="M990.6,125.93a.31.31,0,0,1-.22-.09.29.29,0,0,1,0-.41l31.42-27.72a.3.3,0,0,1,.41,0,.29.29,0,0,1,0,.41l-31.43,27.72A.28.28,0,0,1,990.6,125.93Z" transform="translate(-922.03 -50.07)"/><path d="M992.94,128.35a.32.32,0,0,1-.22-.1.3.3,0,0,1,0-.41l29.08-25.26a.29.29,0,0,1,.39.43l-29.09,25.26A.27.27,0,0,1,992.94,128.35Z" transform="translate(-922.03 -50.07)"/><path d="M997.94,128.35a.28.28,0,0,1-.22-.11.29.29,0,0,1,0-.41l24.09-20.47a.3.3,0,0,1,.41,0,.29.29,0,0,1,0,.41l-24.08,20.48A.37.37,0,0,1,997.94,128.35Z" transform="translate(-922.03 -50.07)"/><path d="M1003.45,128.35a.29.29,0,0,1-.19-.52l18.58-15.3a.29.29,0,0,1,.37.45l-18.58,15.3A.31.31,0,0,1,1003.45,128.35Z" transform="translate(-922.03 -50.07)"/><path d="M1010,128.35a.3.3,0,0,1-.19-.52l12.05-10.23a.29.29,0,1,1,.37.44l-12,10.24A.34.34,0,0,1,1010,128.35Z" transform="translate(-922.03 -50.07)"/><path d="M1016,128.35a.29.29,0,0,1-.18-.52l6-4.9a.28.28,0,0,1,.41,0,.29.29,0,0,1,0,.4l-6,4.91A.34.34,0,0,1,1016,128.35Z" transform="translate(-922.03 -50.07)"/></svg>