<svg id="Layer_1" data-name="Layer 1" xmlns="http://www.w3.org/2000/svg" viewBox="0 0 31.6 31.6"><defs><style>.cls-1{fill:#afccff;}.cls-2{fill:#3880ff;}</style></defs><g id="website-7"><path id="Path_311-7" data-name="Path 311-7" class="cls-1" d="M969.5,125.3a1.61,1.61,0,0,1-.6,1.3,2.11,2.11,0,0,1-1.3.5H951.1a1.9,1.9,0,0,1-1.9-1.9V112.7h20.4v8A23.75,23.75,0,0,1,969.5,125.3Z" transform="translate(-945 -101)"/><path id="Path_312-7" data-name="Path 312-7" d="M971.3,104.3h-21a3.23,3.23,0,0,0-3.3,3.1V125a4.18,4.18,0,0,0,4.3,4.2h18.9a4.25,4.25,0,0,0,4.3-4.2,1.1,1.1,0,0,0-2.2,0,2.11,2.11,0,0,1-2.1,2.1H951.3a2.05,2.05,0,0,1-2.1-2.1V110.7h23.2v9.1a1.1,1.1,0,1,0,2.2,0V107.4A3.36,3.36,0,0,0,971.3,104.3Zm-4.4,2.1a1,1,0,0,1,1,1.1c-.1.6-.5,1.1-1.1,1a1,1,0,0,1-1-1.1A1.18,1.18,0,0,1,966.9,106.4Zm5.4,1a1.1,1.1,0,1,1-1.1-1.1h0a1.27,1.27,0,0,1,1.1,1.1Zm-23.1,0a1.11,1.11,0,0,1,1.1-1.1h13.6a3.32,3.32,0,0,0,0,2.2H949.2Z" transform="translate(-945 -101)"/><circle id="Ellipse_126-7" data-name="Ellipse 126-7" class="cls-2" cx="1.4" cy="1.4" r="1.4"/><circle id="Ellipse_127-7" data-name="Ellipse 127-7" class="cls-2" cx="28.3" cy="29.6" r="1.4"/><circle id="Ellipse_128-7" data-name="Ellipse 128-7" class="cls-2" cx="31" cy="31" r="0.6"/><g id="Group_177" data-name="Group 177"><g id="Group_179" data-name="Group 179"><path id="Path_334" data-name="Path 334" d="M961,113.68a5.3,5.3,0,1,0,5.3,5.3A5.27,5.27,0,0,0,961,113.68Zm0,9.1a3.79,3.79,0,0,1-.8-7.5V119a.79.79,0,0,0,.8.8h3.7A3.76,3.76,0,0,1,961,122.78Zm.8-4.5v-3a3.85,3.85,0,0,1,3,3Z" transform="translate(-945 -101)"/></g></g></g></svg>