<svg xmlns="http://www.w3.org/2000/svg" viewBox="0 0 31.6 31.6"><defs><style>.cls-1{fill:#404040;}</style></defs><g id="Layer_2" data-name="Layer 2"><g id="Layer_1-2" data-name="Layer 1"><path id="Path_312-7" data-name="Path 312-7" class="cls-1" d="M26.3,3.3H5.3A3.23,3.23,0,0,0,2,6.4V24a4.18,4.18,0,0,0,4.3,4.2H25.2A4.25,4.25,0,0,0,29.5,24a1.1,1.1,0,1,0-2.2,0,2.11,2.11,0,0,1-2.1,2.1H6.3A2.05,2.05,0,0,1,4.2,24V9.7H27.4v9.1a1.1,1.1,0,1,0,2.2,0V6.4A3.36,3.36,0,0,0,26.3,3.3ZM21.9,5.4a1,1,0,0,1,1,1.1c-.1.6-.5,1.1-1.1,1a1,1,0,0,1-1-1.1A1.18,1.18,0,0,1,21.9,5.4Zm5.4,1a1.1,1.1,0,1,1-1.1-1.1h0a1.27,1.27,0,0,1,1.1,1.1ZM4.2,6.4A1.11,1.11,0,0,1,5.3,5.3H18.9a3.32,3.32,0,0,0,0,2.2H4.2V6.4Z"/><circle id="Ellipse_126-7" data-name="Ellipse 126-7" class="cls-1" cx="1.4" cy="1.4" r="1.4"/><circle id="Ellipse_127-7" data-name="Ellipse 127-7" class="cls-1" cx="28.3" cy="29.6" r="1.4"/><circle id="Ellipse_128-7" data-name="Ellipse 128-7" class="cls-1" cx="31" cy="31" r="0.6"/><g id="Group_177" data-name="Group 177"><g id="Group_179" data-name="Group 179"><path id="Path_334" data-name="Path 334" class="cls-1" d="M16,12.68a5.3,5.3,0,1,0,5.3,5.3A5.27,5.27,0,0,0,16,12.68Zm0,9.1a3.79,3.79,0,0,1-.8-7.5V18a.79.79,0,0,0,.8.8h3.7A3.76,3.76,0,0,1,16,21.78Zm.8-4.5v-3a3.85,3.85,0,0,1,3,3Z"/></g></g></g></g></svg>