<svg xmlns="http://www.w3.org/2000/svg" viewBox="0 0 31.6 25.6"><defs><style>.cls-1{fill:none;stroke:#404040;}.cls-2{fill:#404040;}</style></defs><g id="Layer_2" data-name="Layer 2"><g id="Layer_1-2" data-name="Layer 1"><g id="Background"><path id="Subtraction_2" data-name="Subtraction 2" class="cls-1" d="M20.5,23s-1.8-1-5.3-2.9H2.8l-.4-.2a2.51,2.51,0,0,1-.7-.4l-.6-.6a10.91,10.91,0,0,1-.6-1.1v-5.3c0-5.1,0-5.3.1-5.7a1.61,1.61,0,0,1,.4-.7,2.65,2.65,0,0,1,.5-.6c.2-.1.4-.3.6-.4s.4-.1.6-.2,1.1-.1,10.2-.1h16l.3.1a2.51,2.51,0,0,1,.7.4,2.34,2.34,0,0,1,.7.7,4.67,4.67,0,0,1,.5,1v10.9l-.1.4a4.35,4.35,0,0,1-.4.7l-.6.6a4.67,4.67,0,0,1-1,.5H24.3a39.34,39.34,0,0,0-4.7.1,8.73,8.73,0,0,0,.5,1.3,13.32,13.32,0,0,0,.6,1.4c-.2,0-.2,0-.2.1ZM3.2,7.07h0a1.27,1.27,0,0,0-.6.1,1.38,1.38,0,0,0-.4.3,1.27,1.27,0,0,0-.1.6,13.49,13.49,0,0,0,.3,2c.2.9.4,2.3.5,3s.4,1.7.5,2.2a6,6,0,0,0,.5,1.6,4.18,4.18,0,0,0,.4,1,1.76,1.76,0,0,0,.4.5c.1.1.2.1.3.2s.3-.1.4-.1a1.76,1.76,0,0,0,.5-.4,5.55,5.55,0,0,0,.6-.8,24.43,24.43,0,0,0,1.3-2.5c.5-1.1,1-2,1-2s.1.3.2.5a2.74,2.74,0,0,0,.2,1.2,5.17,5.17,0,0,0,.6,1.3,6,6,0,0,1,.6,1.1c.1.3.5.6.6.9l.6.6c.2.1.3.2.5.2h.1a.6.6,0,0,0,.4-.1l.3-.3c.1-.2.1-.3.2-1.8a15.74,15.74,0,0,1,.2-2.5,14.81,14.81,0,0,0,.3-1.9,7.58,7.58,0,0,1,.3-1.6c.1-.4.3-1,.4-1.3a7.93,7.93,0,0,1,.4-.9,1.45,1.45,0,0,0,.2-.7.9.9,0,0,0-.1-.5c-.1-.1-.2-.3-.3-.4a1.42,1.42,0,0,0-.6-.2h-.1a.9.9,0,0,0-.5.1c-.1,0-.2.1-.3.2s-.2.4-.3.7-.3.9-.4,1.1a10.38,10.38,0,0,0-.3,1.2c-.1.4-.3,1.2-.4,1.8a15.69,15.69,0,0,1-.3,1.6c0,.2-.1.4-.1.6-.1-.2-.2-.5-.3-.7a8.8,8.8,0,0,0-.5-1.5,8,8,0,0,1-.3-1.5,2.92,2.92,0,0,0-.2-.9c-.1-.1-.2-.3-.3-.4s-.3-.1-.4-.1H9.1a.76.76,0,0,0-.5.2q-.3.15-.3.3c-.1.1-.7,1.3-1.4,2.6s-1.3,2.5-1.4,2.6a.31.31,0,0,0-.1.2v-.1c0-.1-.2-.7-.3-1.4s-.4-1.8-.5-2.4a19.58,19.58,0,0,1-.3-2,4.25,4.25,0,0,0-.2-1.1c-.2-.1-.3-.3-.4-.3A1.09,1.09,0,0,0,3.2,7.07Zm15.3.8h0a1.27,1.27,0,0,0-.6.1c-.2.1-.5.1-.7.3a3,3,0,0,0-.7.5c-.2.2-.4.5-.6.7s-.3.5-.5.8a6.89,6.89,0,0,0-.3.8c-.1.3-.2.6-.3,1a5.7,5.7,0,0,0-.1,1.3,5.7,5.7,0,0,0,.1,1.3,3,3,0,0,0,.4,1,5.55,5.55,0,0,0,.6.8,1.79,1.79,0,0,0,.7.5,4.88,4.88,0,0,0,.7.3,2.49,2.49,0,0,0,.8.1h0a2,2,0,0,0,.8-.1c.2-.1.4-.1.6-.2a3,3,0,0,0,.7-.5,5.72,5.72,0,0,0,.7-.8,2.51,2.51,0,0,0,.4-.7,6.89,6.89,0,0,0,.3-.8c.1-.4.2-.7.3-1.1a6.6,6.6,0,0,0,.1-1.4,5,5,0,0,0-.2-1.2,10,10,0,0,0-.4-1.1,4.23,4.23,0,0,0-.5-.7,1.79,1.79,0,0,0-.7-.5c-.3-.1-.5-.2-.8-.3A2.2,2.2,0,0,0,18.5,7.87Zm7.8,0h0a1.27,1.27,0,0,0-.6.1,4.88,4.88,0,0,0-.7.3,1.56,1.56,0,0,0-.8.6c-.2.2-.4.5-.6.7s-.3.5-.4.7-.3.6-.4.9a2.92,2.92,0,0,0-.2.9,4.87,4.87,0,0,0-.1,1.2,4.87,4.87,0,0,0,.1,1.2l.3.9a2.18,2.18,0,0,0,.5.8l.6.6a4.35,4.35,0,0,0,.7.4,2.16,2.16,0,0,0,1.1.1h.8a6.38,6.38,0,0,0,1.4-.8,4.35,4.35,0,0,0,.6-.7c.2-.3.3-.5.5-.8a3,3,0,0,0,.4-1,3.55,3.55,0,0,0,.2-1,5.65,5.65,0,0,0,0-1.3,3,3,0,0,0-.2-1.3,3,3,0,0,0-.4-.8,2.62,2.62,0,0,0-1.2-1.2c-.3-.1-.5-.2-.8-.3a1.34,1.34,0,0,0-.8-.2Z"/><path id="Path_2" data-name="Path 2" class="cls-1" d="M18.2,10.07a1.38,1.38,0,0,0-.4.3,2.09,2.09,0,0,0-.4.6,3.55,3.55,0,0,0-.4.9,3.55,3.55,0,0,0-.2,1v.8a6.37,6.37,0,0,1,.2.7l.3.6a.52.52,0,0,0,.4.2.9.9,0,0,0,.5-.1,2.65,2.65,0,0,0,.6-.5,1.79,1.79,0,0,0,.5-.7l.3-.9a3.08,3.08,0,0,0,.1-1,2,2,0,0,0-.1-.8,1.85,1.85,0,0,0-.2-.7.78.78,0,0,0-.4-.4.85.85,0,0,0-.8,0ZM26,10a1.38,1.38,0,0,0-.4.3c-.2.2-.3.4-.5.6a5.94,5.94,0,0,0-.4.8c-.1.3-.1.6-.2.9v.8a1.85,1.85,0,0,0,.2.7l.3.6a1.38,1.38,0,0,0,.4.3h.4l.6-.3a2.65,2.65,0,0,0,.5-.6,5.94,5.94,0,0,0,.4-.8c.1-.3.1-.6.2-.9a3.35,3.35,0,0,0,0-1,6.89,6.89,0,0,0-.3-.8,1.38,1.38,0,0,0-.3-.4.6.6,0,0,0-.4-.1A1.09,1.09,0,0,0,26,10Z"/></g><circle id="Ellipse_126-17" data-name="Ellipse 126-17" class="cls-2" cx="6.53" cy="1.4" r="1.4"/><circle id="Ellipse_127-23" data-name="Ellipse 127-23" class="cls-2" cx="25.43" cy="23.6" r="1.4"/><circle id="Ellipse_128-23" data-name="Ellipse 128-23" class="cls-2" cx="28.13" cy="25" r="0.6"/></g></g></svg>