<svg xmlns="http://www.w3.org/2000/svg" viewBox="0 0 30.45 29"><defs><style>.cls-1,.cls-2{fill:#32373c;}.cls-1{opacity:0.4;isolation:isolate;}</style></defs><g id="Layer_2" data-name="Layer 2"><g id="Layer_1-2" data-name="Layer 1"><circle id="Ellipse_199" data-name="Ellipse 199" class="cls-1" cx="14.31" cy="17.7" r="11.3"/><path id="Path_453" data-name="Path 453" d="M30.34,8.56,23.74,25a1.88,1.88,0,0,1-1.6,1.1h0a1.78,1.78,0,0,1-1.6-1l-4.8-11.4L11.14,25a1.63,1.63,0,0,1-1.5,1.1h0a1.78,1.78,0,0,1-1.6-1L0,5.66a.82.82,0,0,1,.4-1,.82.82,0,0,1,1,.4l8.1,19.2s0,.1.2.1.1,0,.2-.1l5-12.7-2.5-5.9a.76.76,0,1,1,1.4-.6l2.6,6.1L22,24.36s0,.1.2.1.1,0,.2-.1L29,8v-.2l-3.1-4.9a.91.91,0,0,1,.2-1.1.78.78,0,0,1,1,.2h0l3.1,4.9A2.52,2.52,0,0,1,30.34,8.56Z"/><path id="Path_454" data-name="Path 454" d="M30.34,8.56,23.74,25a1.88,1.88,0,0,1-1.6,1.1h0a1.78,1.78,0,0,1-1.6-1l-4.8-11.4L11.14,25a1.63,1.63,0,0,1-1.5,1.1h0a1.78,1.78,0,0,1-1.6-1L0,5.66a.82.82,0,0,1,.4-1,.82.82,0,0,1,1,.4l8.1,19.2s0,.1.2.1.1,0,.2-.1l5-12.7-2.5-5.9a.76.76,0,1,1,1.4-.6l2.6,6.1L22,24.36s0,.1.2.1.1,0,.2-.1L29,8v-.2l-3.1-4.9a.91.91,0,0,1,.2-1.1.78.78,0,0,1,1,.2h0l3.1,4.9A2.52,2.52,0,0,1,30.34,8.56Z"/><circle id="Ellipse_200" data-name="Ellipse 200" class="cls-2" cx="5.61" cy="2.5" r="2.5"/><circle id="Ellipse_201" data-name="Ellipse 201" class="cls-2" cx="10.71" cy="3.8" r="1.3"/><circle id="Ellipse_202" data-name="Ellipse 202" class="cls-2" cx="26.81" cy="26.5" r="2.1"/></g></g></svg>