<svg xmlns="http://www.w3.org/2000/svg" xmlns:xlink="http://www.w3.org/1999/xlink" id="Layer_1" data-name="Layer 1" viewBox="0 0 92 73.31" width="92"  height="73.31" ><defs><style>.cls-1{fill:url(#linear-gradient);}.cls-2{stroke:#fff;stroke-width:0.18px;fill:url(#linear-gradient-2);}</style><linearGradient id="linear-gradient" x1="464.76" y1="414.66" x2="545.16" y2="350.85" gradientTransform="matrix(1, 0, 0, -1, 0, 770)" gradientUnits="userSpaceOnUse"><stop offset="0" stop-color="#9013fe"/><stop offset="1" stop-color="#6610f2"/></linearGradient><linearGradient id="linear-gradient-2" x1="489.49" y1="401.97" x2="507.46" y2="371.58" gradientTransform="matrix(1, 0, 0, -1, 0, 770)" gradientUnits="userSpaceOnUse"><stop offset="0" stop-color="#fff"/><stop offset="1" stop-color="#f1e5fc"/></linearGradient></defs><path class="cls-1" d="M465.65,357.42a9.17,9.17,0,0,1,9-9.58H528.4a9.17,9.17,0,0,1,9,9.58c-.17,4.79,0,11,1.61,16.05s4.21,8.28,8.53,8.69v4.68c-4.32.41-7,3.61-8.53,8.69s-1.78,11.26-1.61,16.05a9.17,9.17,0,0,1-9,9.58H474.61a9.17,9.17,0,0,1-9-9.58c.17-4.79,0-11-1.61-16.05s-4.21-8.28-8.54-8.69v-4.68c4.32-.41,7-3.61,8.54-8.69S465.82,362.21,465.65,357.42Z" transform="translate(-455.5 -347.84)"/><path class="cls-2" d="M503.5,404c8.49,0,13.62-4.16,13.62-11,0-5.18-3.66-8.94-9.08-9.54v-.21a8.72,8.72,0,0,0,7.11-8.49c0-5.89-4.65-9.72-11.74-9.72H487.47v39Zm-9.83-34.05h8.25c4.48,0,7,2,7,5.62,0,3.87-3,6-8.33,6h-6.95Zm0,29.1V386.21h8.19c5.87,0,8.92,2.16,8.92,6.38s-3,6.45-8.56,6.45Z" transform="translate(-455.5 -347.84)"/></svg>