<svg id="front-top" xmlns="http://www.w3.org/2000/svg" viewBox="0 0 396.15 396.15"><defs><style>.cls-1{fill:#a0e4d5;}.cls-2,.cls-3,.cls-6{fill:none;}.cls-3{stroke:#fff;}.cls-3,.cls-6{stroke-width:20px;}.cls-4{fill:#fff;stroke:#707070;}.cls-5{fill:#373f54;}.cls-6{stroke:#373f54;}</style></defs><path id="Path_311" data-name="Path 311" class="cls-1" d="M308.18,305.16c-.7,5-1.86,11.45-7,16.56-5.65,5.57-13.16,6.65-16.72,6.89H76.13a23.57,23.57,0,0,1-23.67-23.37V146.78H308.18v100C309.11,256.88,311.12,283.34,308.18,305.16Z"/><g id="Rectangle_20" data-name="Rectangle 20"><rect class="cls-2" x="97" y="185" width="76" height="114"/><rect class="cls-3" x="107" y="195" width="56" height="94"/></g><g id="Rectangle_21" data-name="Rectangle 21"><rect class="cls-2" x="199" y="185" width="75" height="114"/><rect class="cls-3" x="209" y="195" width="55" height="94"/></g><path id="Path_526" data-name="Path 526" class="cls-4" d="M340.15,51H76C53.64,51,35.53,69,35.53,90.93v221c0,29.32,24.22,53.23,53.93,53.23H326.69c29.71,0,53.93-23.91,53.93-53.23a13.47,13.47,0,0,0-26.93,0,26.77,26.77,0,0,1-26.92,26.61H89.46a26.78,26.78,0,0,1-26.93-26.61V131.55H353.69V245.37a13.47,13.47,0,0,0,26.93,0V90.93C380.62,69,362.51,51,340.15,51ZM285.6,77.62a13.31,13.31,0,1,1-13.46,13.31A13.33,13.33,0,0,1,285.6,77.62ZM353,90.93a13.47,13.47,0,1,1-13.62-13.3h.15A13.4,13.4,0,0,1,353,90.93Zm-290.54,0A13.39,13.39,0,0,1,75.92,77.62H247.38a39.55,39.55,0,0,0,.23,27.32H62.46Z"/><path id="Path_312" data-name="Path 312" class="cls-5" d="M330.15,41H66C43.64,41,25.53,59,25.53,80.93v221c0,29.32,24.22,53.23,53.93,53.23H316.69c29.71,0,53.93-23.91,53.93-53.23a13.47,13.47,0,0,0-26.93,0,26.77,26.77,0,0,1-26.92,26.61H79.46a26.78,26.78,0,0,1-26.93-26.61V121.55H343.69V235.37a13.47,13.47,0,0,0,26.93,0V80.93C370.62,59,352.51,41,330.15,41ZM275.6,67.62a13.31,13.31,0,1,1-13.46,13.31A13.33,13.33,0,0,1,275.6,67.62ZM343,80.93a13.47,13.47,0,1,1-13.62-13.3h.15A13.4,13.4,0,0,1,343,80.93Zm-290.54,0A13.39,13.39,0,0,1,65.92,67.62H237.38a39.55,39.55,0,0,0,.23,27.32H52.46Z"/><circle id="Ellipse_126" data-name="Ellipse 126" class="cls-1" cx="17.64" cy="17.64" r="17.64"/><circle id="Ellipse_127" data-name="Ellipse 127" class="cls-1" cx="356.23" cy="371.78" r="17.64"/><circle id="Ellipse_128" data-name="Ellipse 128" class="cls-1" cx="389.03" cy="389.03" r="7.12"/><g id="Rectangle_13" data-name="Rectangle 13"><rect class="cls-2" x="87" y="175" width="76" height="114"/><rect class="cls-6" x="97" y="185" width="56" height="94"/></g><g id="Rectangle_14" data-name="Rectangle 14"><rect class="cls-2" x="189" y="175" width="75" height="114"/><rect class="cls-6" x="199" y="185" width="55" height="94"/></g></svg>