<svg xmlns:xlink="http://www.w3.org/1999/xlink" xmlns="http://www.w3.org/2000/svg" id="Layer_1" data-name="Layer 1" viewBox="0 0 81.13 92" width="81.13"  height="92" ><defs><style>.cls-1{fill:#e44d26;}.cls-2{fill:#f16529;}.cls-3{fill:#ebebeb;}.cls-4{fill:#fff;}</style></defs><path class="cls-1" d="M650.31,425l-7.38-82.83h81.14L716.69,425l-33.26,9.21" transform="translate(-642.93 -342.17)"/><path class="cls-2" d="M683.5,427.13V349h33.16l-6.32,70.66" transform="translate(-642.93 -342.17)"/><path class="cls-3" d="M658,359.1H683.5v10.15H669.14l.94,10.4H683.5v10.13H660.78m.45,5.1h10.19l.72,8.12,11.36,3v10.6l-20.84-5.82" transform="translate(-642.93 -342.17)"/><path class="cls-4" d="M708.9,359.1H683.46v10.15H708m-.91,10.4H683.46V389.8H696L694.79,403l-11.33,3v10.55l20.79-5.77" transform="translate(-642.93 -342.17)"/></svg>