<svg xmlns:xlink="http://www.w3.org/1999/xlink" xmlns="http://www.w3.org/2000/svg" viewBox="0 0 30.1 33.9" width="30.1"  height="33.9" ><defs><style>.cls-1{fill:#a0e4d5;}</style></defs><g id="Layer_2" data-name="Layer 2"><g id="Layer_1-2" data-name="Layer 1"><path id="Path_437" data-name="Path 437" class="cls-1" d="M13.5,33.11,1.5,25V10.91L13,4.41a.91.91,0,0,1,1,0L24.9,11a1.05,1.05,0,0,1,.5.9V26Z"/><path id="Path_438" data-name="Path 438" d="M14.33,33.75,9.73,31a.8.8,0,0,1-.3-1.1h0a.8.8,0,0,1,1.1-.3h0l3.8,2.2a.91.91,0,0,0,1,0l11.9-7.2a1.05,1.05,0,0,0,.5-.9V10.15a1.05,1.05,0,0,0-.5-.9l-11.9-7.2a.91.91,0,0,0-1,0L2.23,8.75a1.05,1.05,0,0,0-.5.9v13.5a1.19,1.19,0,0,0,.5.9l3.4,2a2.62,2.62,0,0,0,2.7,0,2.14,2.14,0,0,0,1.2-1.7V11.85a.79.79,0,0,1,.8-.8h0a.79.79,0,0,1,.8.8h0v12.5a3.56,3.56,0,0,1-2,3.2,4.33,4.33,0,0,1-4.4,0l-4.3-2.5a1.8,1.8,0,0,1-.4-.9V8.75a1.05,1.05,0,0,1,.5-.9L14.33.15a.91.91,0,0,1,1,0l13.6,8.2a1.05,1.05,0,0,1,.5.9v15.4a1.19,1.19,0,0,1-.5.9l-13.6,8.2A.91.91,0,0,1,14.33,33.75Z"/><path id="Path_439" data-name="Path 439" d="M18.75,24.19a17.85,17.85,0,0,1-2.3-.2,4.56,4.56,0,0,1-3.5-2.3.7.7,0,0,1,.4-1c.1,0,.2-.1.3-.1h.1a.75.75,0,0,1,.7.5c.5,1,2.2,1.3,2.2,1.3,1.1.2,4.2.4,5.7-.6a1.45,1.45,0,0,0,.7-1,1.54,1.54,0,0,0-1-1.6,23.81,23.81,0,0,0-2.6-.5,23.39,23.39,0,0,1-3.8-.9,3.38,3.38,0,0,1-2.2-4h0c.6-2.3,3.8-2.5,4.1-2.5.7,0,3.9-.2,5.4,1a5.28,5.28,0,0,1,1.1,2.4v.2a.78.78,0,0,1-.9.6.85.85,0,0,1-.5-.3.35.35,0,0,1-.1-.2,2.13,2.13,0,0,0-.7-1.5,8.18,8.18,0,0,0-4.1-.5c-.8,0-2.4.4-2.6,1.2h0a1.53,1.53,0,0,0,1,2,13.71,13.71,0,0,0,3.5.8,9.47,9.47,0,0,1,2.9.7,3,3,0,0,1,2.1,3.4,2.79,2.79,0,0,1-1.4,2.1A7.68,7.68,0,0,1,18.75,24.19Z"/><circle id="Ellipse_184" data-name="Ellipse 184" class="cls-1" cx="1.7" cy="2.71" r="1.7"/><circle id="Ellipse_185" data-name="Ellipse 185" class="cls-1" cx="26.2" cy="30.01" r="1.7"/><circle id="Ellipse_186" data-name="Ellipse 186" class="cls-1" cx="29.4" cy="31.71" r="0.7"/></g></g></svg>