<svg xmlns:xlink="http://www.w3.org/1999/xlink" xmlns="http://www.w3.org/2000/svg" id="Layer_1" data-name="Layer 1" viewBox="0 0 92 83.25" width="92"  height="83.25" ><defs><style>.cls-1{fill:#fdb300;}.cls-2{fill:#ea6c00;}.cls-3{fill:#fdad00;}.cls-4{fill:#fdd231;}.cls-5{fill:#feeeb7;}</style></defs><g id="Page-1"><g id="sketch-symbol"><polygon id="Path" class="cls-1" points="20.07 2.74 46 0 71.93 2.74 92 29.69 46 83.25 0 29.69 20.07 2.74"/><g id="Group"><polygon id="Path-2" data-name="Path" class="cls-2" points="18.63 29.69 46 83.25 0 29.69 18.63 29.69"/><polygon id="Path-3" data-name="Path" class="cls-2" points="73.37 29.69 46 83.25 92 29.69 73.37 29.69"/><polygon id="Path-4" data-name="Path" class="cls-3" points="18.63 29.69 73.37 29.69 46 83.25 18.63 29.69"/></g><g id="Group-2" data-name="Group"><polygon id="Path-5" data-name="Path" class="cls-4" points="46 0 20.07 2.74 18.63 29.69 46 0"/><polygon id="Path-6" data-name="Path" class="cls-4" points="46 0 71.93 2.74 73.37 29.69 46 0"/><polygon id="Path-7" data-name="Path" class="cls-3" points="92 29.69 71.93 2.74 73.37 29.69 92 29.69"/><polygon id="Path-8" data-name="Path" class="cls-3" points="0 29.69 20.07 2.74 18.63 29.69 0 29.69"/><polygon id="Path-9" data-name="Path" class="cls-5" points="46 0 18.63 29.69 73.37 29.69 46 0"/></g></g></g></svg>