<svg id="Layer_1" data-name="Layer 1" xmlns="http://www.w3.org/2000/svg" viewBox="0 0 126 698.1"><defs><style>.cls-1{fill:#ffc238;}</style></defs><circle class="cls-1" cx="5.4" cy="5" r="5"/><circle class="cls-1" cx="34.2" cy="5" r="5"/><circle class="cls-1" cx="63" cy="5" r="5"/><circle class="cls-1" cx="91.4" cy="5" r="5"/><circle class="cls-1" cx="121" cy="5" r="5"/><circle class="cls-1" cx="5.4" cy="35" r="5"/><circle class="cls-1" cx="34.2" cy="35" r="5"/><circle class="cls-1" cx="63" cy="35" r="5"/><circle class="cls-1" cx="91.4" cy="35" r="5"/><circle class="cls-1" cx="121" cy="35" r="5"/><circle class="cls-1" cx="5.4" cy="63" r="5"/><circle class="cls-1" cx="34.2" cy="63" r="5"/><circle class="cls-1" cx="63" cy="63" r="5"/><circle class="cls-1" cx="91.4" cy="63" r="5"/><circle class="cls-1" cx="121" cy="63" r="5"/><circle class="cls-1" cx="5.2" cy="91" r="5"/><circle class="cls-1" cx="34" cy="91" r="5"/><circle class="cls-1" cx="62.8" cy="91" r="5"/><circle class="cls-1" cx="91.2" cy="91" r="5"/><circle class="cls-1" cx="120.8" cy="91" r="5"/><circle class="cls-1" cx="5.4" cy="120.6" r="5"/><circle class="cls-1" cx="34.2" cy="120.6" r="5"/><circle class="cls-1" cx="63" cy="120.6" r="5"/><circle class="cls-1" cx="91.4" cy="120.6" r="5"/><circle class="cls-1" cx="121" cy="120.6" r="5"/><circle class="cls-1" cx="5.4" cy="150.6" r="5"/><circle class="cls-1" cx="34.2" cy="150.6" r="5"/><circle class="cls-1" cx="63" cy="150.6" r="5"/><circle class="cls-1" cx="91.4" cy="150.6" r="5"/><circle class="cls-1" cx="121" cy="150.6" r="5"/><circle class="cls-1" cx="5.4" cy="178.6" r="5"/><circle class="cls-1" cx="34.2" cy="178.6" r="5"/><circle class="cls-1" cx="63" cy="178.6" r="5"/><circle class="cls-1" cx="91.4" cy="178.6" r="5"/><circle class="cls-1" cx="121" cy="178.6" r="5"/><circle class="cls-1" cx="5.2" cy="206.6" r="5"/><circle class="cls-1" cx="34" cy="206.6" r="5"/><circle class="cls-1" cx="62.8" cy="206.6" r="5"/><circle class="cls-1" cx="91.2" cy="206.6" r="5"/><circle class="cls-1" cx="120.8" cy="206.6" r="5"/><circle class="cls-1" cx="5.4" cy="235" r="5"/><circle class="cls-1" cx="34.2" cy="235" r="5"/><circle class="cls-1" cx="63" cy="235" r="5"/><circle class="cls-1" cx="91.4" cy="235" r="5"/><circle class="cls-1" cx="121" cy="235" r="5"/><circle class="cls-1" cx="5.4" cy="265" r="5"/><circle class="cls-1" cx="34.2" cy="265" r="5"/><circle class="cls-1" cx="63" cy="265" r="5"/><circle class="cls-1" cx="91.4" cy="265" r="5"/><circle class="cls-1" cx="121" cy="265" r="5"/><circle class="cls-1" cx="5.4" cy="293" r="5"/><circle class="cls-1" cx="34.2" cy="293" r="5"/><circle class="cls-1" cx="63" cy="293" r="5"/><circle class="cls-1" cx="91.4" cy="293" r="5"/><circle class="cls-1" cx="121" cy="293" r="5"/><circle class="cls-1" cx="5.2" cy="321" r="5"/><circle class="cls-1" cx="34" cy="321" r="5"/><circle class="cls-1" cx="62.8" cy="321" r="5"/><circle class="cls-1" cx="91.2" cy="321" r="5"/><circle class="cls-1" cx="120.8" cy="321" r="5"/><circle class="cls-1" cx="5.4" cy="350.6" r="5"/><circle class="cls-1" cx="34.2" cy="350.6" r="5"/><circle class="cls-1" cx="63" cy="350.6" r="5"/><circle class="cls-1" cx="91.4" cy="350.6" r="5"/><circle class="cls-1" cx="121" cy="350.6" r="5"/><circle class="cls-1" cx="5.4" cy="380.6" r="5"/><circle class="cls-1" cx="34.2" cy="380.6" r="5"/><circle class="cls-1" cx="63" cy="380.6" r="5"/><circle class="cls-1" cx="91.4" cy="380.6" r="5"/><circle class="cls-1" cx="121" cy="380.6" r="5"/><circle class="cls-1" cx="5.4" cy="408.6" r="5"/><circle class="cls-1" cx="34.2" cy="408.6" r="5"/><circle class="cls-1" cx="63" cy="408.6" r="5"/><circle class="cls-1" cx="91.4" cy="408.6" r="5"/><circle class="cls-1" cx="121" cy="408.6" r="5"/><circle class="cls-1" cx="5.2" cy="436.6" r="5"/><circle class="cls-1" cx="34" cy="436.6" r="5"/><circle class="cls-1" cx="62.8" cy="436.6" r="5"/><circle class="cls-1" cx="91.2" cy="436.6" r="5"/><circle class="cls-1" cx="120.8" cy="436.6" r="5"/><circle class="cls-1" cx="5.4" cy="464" r="5"/><circle class="cls-1" cx="34.2" cy="464" r="5"/><circle class="cls-1" cx="63" cy="464" r="5"/><circle class="cls-1" cx="91.4" cy="464" r="5"/><circle class="cls-1" cx="121" cy="464" r="5"/><circle class="cls-1" cx="5.4" cy="494" r="5"/><circle class="cls-1" cx="34.2" cy="494" r="5"/><circle class="cls-1" cx="63" cy="494" r="5"/><circle class="cls-1" cx="91.4" cy="494" r="5"/><circle class="cls-1" cx="121" cy="494" r="5"/><circle class="cls-1" cx="5.4" cy="522" r="5"/><circle class="cls-1" cx="34.2" cy="522" r="5"/><circle class="cls-1" cx="63" cy="522" r="5"/><circle class="cls-1" cx="91.4" cy="522" r="5"/><circle class="cls-1" cx="121" cy="522" r="5"/><circle class="cls-1" cx="5.2" cy="550" r="5"/><circle class="cls-1" cx="34" cy="550" r="5"/><circle class="cls-1" cx="62.8" cy="550" r="5"/><circle class="cls-1" cx="91.2" cy="550" r="5"/><circle class="cls-1" cx="120.8" cy="550" r="5"/><circle class="cls-1" cx="5.4" cy="579.6" r="5"/><circle class="cls-1" cx="34.2" cy="579.6" r="5"/><circle class="cls-1" cx="63" cy="579.6" r="5"/><circle class="cls-1" cx="91.4" cy="579.6" r="5"/><circle class="cls-1" cx="121" cy="579.6" r="5"/><circle class="cls-1" cx="5.4" cy="609.6" r="5"/><circle class="cls-1" cx="34.2" cy="609.6" r="5"/><circle class="cls-1" cx="63" cy="609.6" r="5"/><circle class="cls-1" cx="91.4" cy="609.6" r="5"/><circle class="cls-1" cx="121" cy="609.6" r="5"/><circle class="cls-1" cx="5.4" cy="637.6" r="5"/><circle class="cls-1" cx="34.2" cy="637.6" r="5"/><circle class="cls-1" cx="63" cy="637.6" r="5"/><circle class="cls-1" cx="91.4" cy="637.6" r="5"/><circle class="cls-1" cx="121" cy="637.6" r="5"/><circle class="cls-1" cx="5.2" cy="665.6" r="5"/><circle class="cls-1" cx="34" cy="665.6" r="5"/><circle class="cls-1" cx="62.8" cy="665.6" r="5"/><circle class="cls-1" cx="91.2" cy="665.6" r="5"/><circle class="cls-1" cx="120.8" cy="665.6" r="5"/><circle class="cls-1" cx="5" cy="693" r="5"/><circle class="cls-1" cx="33.8" cy="693" r="5"/><circle class="cls-1" cx="62.6" cy="693" r="5"/><circle class="cls-1" cx="91.1" cy="693" r="5"/><circle class="cls-1" cx="120.6" cy="693" r="5"/></svg>