<svg id="Layer_1" data-name="Layer 1" xmlns="http://www.w3.org/2000/svg" viewBox="0 0 601.72 572.93"><defs><style>.cls-1{fill:#e1e3f4;}</style></defs><path class="cls-1" d="M452.43,92.57,78.1,572.92H48.69L433.91,78.41a106.15,106.15,0,0,1,10.17,8C447,88.59,449.53,90.4,452.43,92.57ZM0,48.25A331.48,331.48,0,0,1,34.57,32L.08,75.88V48.28ZM65.43,20.33a356.2,356.2,0,0,1,37.4-10.17L.08,142V104.2ZM129,5c10.53-1.82,21.42-2.91,32.31-4L.08,208V170.28Zm55.19-5c9.8,0,19.6,0,29.41.36L.08,274.12V236.36Zm50.1,2.17c9.44.73,18.88,2.18,28.32,3.63L.08,342.74v-40.3ZM281.82,9.8c8.36,1.81,16.34,4,24.69,6.17L.08,409.18V371.06ZM324.3,21.42c7.63,2.9,14.89,5.44,22.52,8.35L.08,474.9V437.5ZM363.15,37c7.26,3.27,14.53,6.9,21.42,10.53L.08,541V503.22Zm36.64,19.24c6.93,4,13.47,8,20,12.35L26.58,572.93H.08V569.3Zm65.75,47.9c5.81,5.11,11.62,10.56,17.07,16L129.7,572.93H100.29Zm29,28.71c5.44,5.79,10.53,11.62,15.61,17.79L181.25,572.93H151.84Zm26.41,32c5.08,6.9,10.17,14.16,14.89,21.42L234.62,572.93H203.4Zm24.76,37c4,7.27,8.37,14.89,12,22.15L286.18,572.93H256.77Zm20.35,39.94c3.63,8,6.9,16.34,10.17,24.69L337.38,572.93H308Zm16.65,44.26c2.92,9.48,5.46,18.56,8,28L388.89,572.93H359.52Zm12.4,50.51a304.48,304.48,0,0,1,4.72,31.95L440.49,572.93H411.08Zm6.45,58.09c.37,12.71,0,25.41-.72,38.12L492.05,572.93H462.64ZM598,465.05a397,397,0,0,1-10.53,51.2L543.6,572.93H514.19ZM570.11,567.12a41.11,41.11,0,0,0-2.55,5.81h-1.81Z" transform="translate(-0.04 0)"/></svg>