<svg xmlns:xlink="http://www.w3.org/1999/xlink" xmlns="http://www.w3.org/2000/svg" id="Layer_1" data-name="Layer 1" viewBox="0 0 81.12 92" width="81.12"  height="92" ><defs><style>.cls-1{fill:#264de4;}.cls-2{fill:#2965f1;}.cls-3{fill:#ebebeb;}.cls-4{fill:#fff;}</style></defs><polygon id="polygon2989" class="cls-1" points="81.12 0 73.73 82.79 40.51 92 7.38 82.8 0 0 81.12 0"/><polygon id="polygon2991" class="cls-2" points="67.4 77.52 73.72 6.77 40.56 6.77 40.56 84.96 67.4 77.52"/><polygon id="polygon2993" class="cls-3" points="16.92 37.48 17.83 47.64 40.56 47.64 40.56 37.48 16.92 37.48"/><polygon id="polygon2995" class="cls-3" points="40.56 16.93 40.52 16.93 15.1 16.93 16.02 27.08 40.56 27.08 40.56 16.93"/><polygon id="polygon2997" class="cls-3" points="40.56 74.42 40.56 63.86 40.52 63.87 29.21 60.81 28.48 52.71 22.99 52.71 18.29 52.71 19.71 68.66 40.51 74.44 40.56 74.42"/><polygon id="polygon3005" class="cls-4" points="53.03 47.64 51.85 60.81 40.52 63.86 40.52 74.43 61.34 68.66 61.5 66.94 63.88 40.21 64.13 37.48 65.97 16.93 40.52 16.93 40.52 27.08 54.84 27.08 53.91 37.48 40.52 37.48 40.52 47.64 53.03 47.64"/></svg>