<svg xmlns:xlink="http://www.w3.org/1999/xlink" xmlns="http://www.w3.org/2000/svg" id="Layer_1" data-name="Layer 1" viewBox="0 0 61.33 92" width="61.33"  height="92" ><defs><style>.cls-1{fill:#0acf83;}.cls-2{fill:#a259ff;}.cls-3{fill:#f24e1e;}.cls-4{fill:#ff7262;}.cls-5{fill:#1abcfe;}</style></defs><path id="path0_fill" data-name="path0 fill" class="cls-1" d="M486.17,624.5a15.34,15.34,0,0,0,15.33-15.33V593.83H486.17a15.34,15.34,0,1,0,0,30.67Z" transform="translate(-470.83 -532.5)"/><path id="path1_fill" data-name="path1 fill" class="cls-2" d="M470.83,578.5a15.34,15.34,0,0,1,15.34-15.33H501.5v30.66H486.17A15.34,15.34,0,0,1,470.83,578.5Z" transform="translate(-470.83 -532.5)"/><path id="path1_fill-2" data-name="path1 fill" class="cls-3" d="M470.83,547.83a15.34,15.34,0,0,1,15.34-15.33H501.5v30.67H486.17A15.34,15.34,0,0,1,470.83,547.83Z" transform="translate(-470.83 -532.5)"/><path id="path2_fill" data-name="path2 fill" class="cls-4" d="M501.5,532.5h15.33a15.34,15.34,0,1,1,0,30.67H501.5Z" transform="translate(-470.83 -532.5)"/><path id="path3_fill" data-name="path3 fill" class="cls-5" d="M532.17,578.5a15.34,15.34,0,1,1-15.34-15.33A15.34,15.34,0,0,1,532.17,578.5Z" transform="translate(-470.83 -532.5)"/></svg>