<svg xmlns:xlink="http://www.w3.org/1999/xlink" xmlns="http://www.w3.org/2000/svg" id="Layer_1" data-name="Layer 1" viewBox="0 0 75 73.13" width="75"  height="73.13" ><defs><style>.cls-1{fill:#001e36;}.cls-2{fill:#31a8ff;}</style></defs><g id="Layer_2" data-name="Layer 2"><g id="Surfaces"><g id="Photo_Surface" data-name="Photo Surface"><g id="Outline_no_shadow" data-name="Outline no shadow"><path class="cls-1" d="M116.28,541.94h48.44A13.27,13.27,0,0,1,178,555.22v46.56a13.27,13.27,0,0,1-13.28,13.28H116.28A13.27,13.27,0,0,1,103,601.78V555.22A13.27,13.27,0,0,1,116.28,541.94Z" transform="translate(-103 -541.94)"/></g></g></g><g id="Outlined_Mnemonics_Logos" data-name="Outlined Mnemonics Logos"><g id="Ps"><path class="cls-2" d="M119.87,593.22V561.06c0-.22.1-.34.32-.34.53,0,1,0,1.75,0s1.53,0,2.37-.06,1.75,0,2.72-.07,1.91,0,2.84,0a18.27,18.27,0,0,1,6.44,1,11.27,11.27,0,0,1,4.19,2.56,9.92,9.92,0,0,1,2.28,3.57,11.89,11.89,0,0,1,.72,4.06,11.15,11.15,0,0,1-1.88,6.65,10.72,10.72,0,0,1-5,3.82,20.27,20.27,0,0,1-7,1.06c-.75,0-1.25,0-1.56,0s-.75,0-1.34,0v10a.39.39,0,0,1-.35.43h-6.06C120,593.62,119.87,593.5,119.87,593.22Zm6.82-26.47v10.5c.44,0,.84.06,1.22.06h1.65a11.87,11.87,0,0,0,3.6-.56,5.39,5.39,0,0,0,2.56-1.66,4.86,4.86,0,0,0,1-3.22,5.19,5.19,0,0,0-.72-2.78,4.56,4.56,0,0,0-2.19-1.78,9.19,9.19,0,0,0-3.69-.62c-.81,0-1.53,0-2.12,0a7.42,7.42,0,0,0-1.28,0Z" transform="translate(-103 -541.94)"/><path class="cls-2" d="M163,575.34a11.16,11.16,0,0,0-3-1.06,16.49,16.49,0,0,0-3.5-.41,6.59,6.59,0,0,0-1.88.22,1.65,1.65,0,0,0-1,.63,1.61,1.61,0,0,0-.25.84,1.37,1.37,0,0,0,.31.81,3.4,3.4,0,0,0,1.06.85c.72.37,1.47.72,2.22,1a22.32,22.32,0,0,1,4.81,2.28,7.29,7.29,0,0,1,2.47,2.59,6.78,6.78,0,0,1,.72,3.22,7.31,7.31,0,0,1-1.22,4.16,7.76,7.76,0,0,1-3.5,2.78,14.27,14.27,0,0,1-5.66,1,21,21,0,0,1-4.25-.41,12.26,12.26,0,0,1-3.18-1,.61.61,0,0,1-.35-.59v-5.44a.33.33,0,0,1,.13-.28.24.24,0,0,1,.28,0,13.62,13.62,0,0,0,3.87,1.54,14.69,14.69,0,0,0,3.69.46,6,6,0,0,0,2.6-.43,1.45,1.45,0,0,0,.84-1.32,1.67,1.67,0,0,0-.75-1.25,13.44,13.44,0,0,0-3.06-1.46,19.51,19.51,0,0,1-4.44-2.25,8.23,8.23,0,0,1-2.38-2.66,6.59,6.59,0,0,1-.71-3.19,7.34,7.34,0,0,1,1.06-3.78,7.67,7.67,0,0,1,3.28-2.87,12.11,12.11,0,0,1,5.53-1.1,28.24,28.24,0,0,1,3.88.28,11.39,11.39,0,0,1,2.68.72.58.58,0,0,1,.32.28,1.67,1.67,0,0,1,.06.38V575a.36.36,0,0,1-.16.31A.74.74,0,0,1,163,575.34Z" transform="translate(-103 -541.94)"/></g></g></g></svg>