<svg xmlns="http://www.w3.org/2000/svg" xmlns:xlink="http://www.w3.org/1999/xlink" id="Layer_1" data-name="Layer 1" viewBox="0 0 796.39 542.26" width="796.39"  height="542.26" ><defs><style>.cls-1{fill:url(#radial-gradient);}.cls-2{fill:url(#radial-gradient-2);}.cls-3{fill:#787bb3;}.cls-4{fill:#010101;}.cls-5,.cls-8{fill:#037690;}.cls-6,.cls-7{fill:#f29220;}.cls-7,.cls-8{fill-rule:evenodd;}</style><radialGradient id="radial-gradient" cx="228.67" cy="357.76" r="25.07" gradientUnits="userSpaceOnUse"><stop offset="0" stop-color="#afb2d5"/><stop offset="0.3" stop-color="#afb2d5"/><stop offset="0.75" stop-color="#484d8a"/><stop offset="1" stop-color="#484d8a"/></radialGradient><radialGradient id="radial-gradient-2" cx="238.91" cy="426.56" r="279.97" xlink:href="#radial-gradient"/></defs><g id="g3438"><path class="cls-1" d="M252.93,330.24c2,2.24,2.41,7,1.1,13.7-1.46,7.52-4.17,12.85-8.06,15.84s-10.45,4.62-19.23,4.62h-9.28l7.34-37.79h13C248.11,326.61,251.71,328.88,252.93,330.24Z" transform="translate(-101.8 -228.87)"/><path class="cls-2" d="M278,315.4q-9.74-11.16-31-11.15H200L178.11,416.64h24.48l5.81-29.88h21q13.88,0,22.84-2.92a43.26,43.26,0,0,0,16.3-9.77,48.85,48.85,0,0,0,15.37-27.54Q287.77,326.55,278,315.4Zm-19.44,29.42q-2.55,13.05-9.79,18.63t-22,5.57h-14.9L221,322h16.77q14,0,18.6,5.16T258.58,344.82Zm113.9-33.45q-7.75-7.12-28.18-7.12H322.66l5.81-29.88H304.18L282.34,386.76h24.29l12.51-64.39h19.41q9.33,0,12.19,3.09T352,337l-9.67,49.73H367l10.16-52.3Q380.24,318.5,372.48,311.37Zm0,0q-7.75-7.12-28.18-7.12H322.66l5.81-29.88H304.18L282.34,386.76h24.29l12.51-64.39h19.41q9.33,0,12.19,3.09T352,337l-9.67,49.73H367l10.16-52.3Q380.24,318.5,372.48,311.37Zm-94.46,4q-9.74-11.16-31-11.15H200L178.11,416.64h24.48l5.81-29.88h21q13.88,0,22.84-2.92a43.26,43.26,0,0,0,16.3-9.77,48.85,48.85,0,0,0,15.37-27.54Q287.77,326.55,278,315.4Zm-19.44,29.42q-2.55,13.05-9.79,18.63t-22,5.57h-14.9L221,322h16.77q14,0,18.6,5.16T258.58,344.82ZM278,315.4q-9.74-11.16-31-11.15H200L178.11,416.64h24.48l5.81-29.88h21q13.88,0,22.84-2.92a43.26,43.26,0,0,0,16.3-9.77,48.85,48.85,0,0,0,15.37-27.54Q287.77,326.55,278,315.4Zm-19.44,29.42q-2.55,13.05-9.79,18.63t-22,5.57h-14.9L221,322h16.77q14,0,18.6,5.16T258.58,344.82Zm113.9-33.45q-7.75-7.12-28.18-7.12H322.66l5.81-29.88H304.18L282.34,386.76h24.29l12.51-64.39h19.41q9.33,0,12.19,3.09T352,337l-9.67,49.73H367l10.16-52.3Q380.24,318.5,372.48,311.37Zm0,0q-7.75-7.12-28.18-7.12H322.66l5.81-29.88H304.18L282.34,386.76h24.29l12.51-64.39h19.41q9.33,0,12.19,3.09T352,337l-9.67,49.73H367l10.16-52.3Q380.24,318.5,372.48,311.37Zm-94.46,4q-9.74-11.16-31-11.15H200L178.11,416.64h24.48l5.81-29.88h21q13.88,0,22.84-2.92a43.26,43.26,0,0,0,16.3-9.77,48.85,48.85,0,0,0,15.37-27.54Q287.77,326.55,278,315.4Zm-19.44,29.42q-2.55,13.05-9.79,18.63t-22,5.57h-14.9L221,322h16.77q14,0,18.6,5.16T258.58,344.82ZM278,315.4q-9.74-11.16-31-11.15H200L178.11,416.64h24.48l5.81-29.88h21q13.88,0,22.84-2.92a43.26,43.26,0,0,0,16.3-9.77,48.85,48.85,0,0,0,15.37-27.54Q287.77,326.55,278,315.4Zm-19.44,29.42q-2.55,13.05-9.79,18.63t-22,5.57h-14.9L221,322h16.77q14,0,18.6,5.16T258.58,344.82Zm113.9-33.45q-7.75-7.12-28.18-7.12H322.66l5.81-29.88H304.18L282.34,386.76h24.29l12.51-64.39h19.41q9.33,0,12.19,3.09T352,337l-9.67,49.73H367l10.16-52.3Q380.24,318.5,372.48,311.37Zm96.65,4q-9.75-11.16-31-11.15H391.05L369.21,416.64h24.48l5.81-29.88h21q13.89,0,22.84-2.92a43.26,43.26,0,0,0,16.3-9.77A48.79,48.79,0,0,0,475,346.53Q478.88,326.55,469.13,315.4Zm-19.45,29.42q-2.54,13.05-9.78,18.63T417.84,369H403l9.14-47h16.77q14,0,18.61,5.16T449.68,344.82Zm-20.82-18.21h-13l-7.34,37.79h9.28c8.78,0,15.25-1.56,19.23-4.62s6.6-8.32,8.07-15.84c1.3-6.72.92-11.46-1.11-13.7C442.81,328.88,439.21,326.61,428.86,326.61Zm40.27-11.21q-9.75-11.16-31-11.15H391.05L369.21,416.64h24.48l5.81-29.88h21q13.89,0,22.84-2.92a43.26,43.26,0,0,0,16.3-9.77A48.79,48.79,0,0,0,475,346.53Q478.88,326.55,469.13,315.4Zm-19.45,29.42q-2.54,13.05-9.78,18.63T417.84,369H403l9.14-47h16.77q14,0,18.61,5.16T449.68,344.82Zm-20.82-18.21h-13l-7.34,37.79h9.28c8.78,0,15.25-1.56,19.23-4.62s6.6-8.32,8.07-15.84c1.3-6.72.92-11.46-1.11-13.7C442.81,328.88,439.21,326.61,428.86,326.61Zm-56.38-15.24q-7.75-7.12-28.18-7.12H322.66l5.81-29.88H304.18L282.34,386.76h24.29l12.51-64.39h19.41q9.33,0,12.19,3.09T352,337l-9.67,49.73H367l10.16-52.3Q380.24,318.5,372.48,311.37Zm-94.46,4q-9.74-11.16-31-11.15H200L178.11,416.64h24.48l5.81-29.88h21q13.88,0,22.84-2.92a43.26,43.26,0,0,0,16.3-9.77,48.85,48.85,0,0,0,15.37-27.54Q287.77,326.55,278,315.4Zm-19.44,29.42q-2.55,13.05-9.79,18.63t-22,5.57h-14.9L221,322h16.77q14,0,18.6,5.16T258.58,344.82Zm216.29-70.29c-38.59-20.29-91.89-32.85-150.76-32.85s-112.18,12.56-150.76,32.85-62.45,48.34-62.45,79.31C110.9,415.78,206.36,466,324.11,466c58.87,0,112.17-12.55,150.76-32.85s62.44-48.33,62.44-79.3S513.45,294.83,474.87,274.53Zm4.66,72.89a53.61,53.61,0,0,1-16.77,30,48.19,48.19,0,0,1-18,10.78c-6.41,2.09-14.58,3.15-24.28,3.15H403.32l-5.08,26.14a4.64,4.64,0,0,1-4.55,3.74H369.21a4.62,4.62,0,0,1-4.54-5.51l4.89-25.17a4.59,4.59,0,0,1-2.59.8H342.29a4.63,4.63,0,0,1-4.54-5.51l9.66-49.73c.95-4.89.38-7.07-.06-7.54-.06-.07-1.58-1.61-8.8-1.61H323l-11.78,60.64a4.63,4.63,0,0,1-4.54,3.75H282.34a4.65,4.65,0,0,1-4.55-5.51L281.86,365a54.74,54.74,0,0,1-10.21,12.51,47.9,47.9,0,0,1-18,10.78c-6.4,2.09-14.57,3.15-24.27,3.15H212.21l-5.08,26.14a4.62,4.62,0,0,1-4.54,3.74H178.11a4.63,4.63,0,0,1-4.55-5.51l21.85-112.4a4.63,4.63,0,0,1,4.54-3.74H247c15.5,0,27.1,4.29,34.48,12.74a32.14,32.14,0,0,1,7.46,16l10.67-54.87a4.63,4.63,0,0,1,4.54-3.74h24.29a4.62,4.62,0,0,1,4.54,5.51l-4.73,24.37h16c15,0,25.2,2.73,31.31,8.34,4.2,3.85,6.52,9.12,6.95,15.75l3.95-20.35a4.64,4.64,0,0,1,4.54-3.74h47.09c15.49,0,27.09,4.29,34.47,12.73S482.39,332.68,479.53,347.42Zm-41.39-43.17H391.05L369.21,416.64h24.48l5.81-29.88h21q13.89,0,22.84-2.92a43.26,43.26,0,0,0,16.3-9.77A48.79,48.79,0,0,0,475,346.53q3.88-20-5.86-31.13T438.14,304.25Zm11.54,40.57q-2.54,13.05-9.78,18.63T417.84,369H403l9.14-47h16.77q14,0,18.61,5.16T449.68,344.82Zm-20.82-18.21h-13l-7.34,37.79h9.28c8.78,0,15.25-1.56,19.23-4.62s6.6-8.32,8.07-15.84c1.3-6.72.92-11.46-1.11-13.7C442.81,328.88,439.21,326.61,428.86,326.61Zm-56.38-15.24q-7.75-7.12-28.18-7.12H322.66l5.81-29.88H304.18L282.34,386.76h24.29l12.51-64.39h19.41q9.33,0,12.19,3.09T352,337l-9.67,49.73H367l10.16-52.3Q380.24,318.5,372.48,311.37Zm-94.46,4q-9.74-11.16-31-11.15H200L178.11,416.64h24.48l5.81-29.88h21q13.88,0,22.84-2.92a43.26,43.26,0,0,0,16.3-9.77,48.85,48.85,0,0,0,15.37-27.54Q287.77,326.55,278,315.4Zm-19.44,29.42q-2.55,13.05-9.79,18.63t-22,5.57h-14.9L221,322h16.77q14,0,18.6,5.16T258.58,344.82ZM278,315.4q-9.74-11.16-31-11.15H200L178.11,416.64h24.48l5.81-29.88h21q13.88,0,22.84-2.92a43.26,43.26,0,0,0,16.3-9.77,48.85,48.85,0,0,0,15.37-27.54Q287.77,326.55,278,315.4Zm-19.44,29.42q-2.55,13.05-9.79,18.63t-22,5.57h-14.9L221,322h16.77q14,0,18.6,5.16T258.58,344.82Zm113.9-33.45q-7.75-7.12-28.18-7.12H322.66l5.81-29.88H304.18L282.34,386.76h24.29l12.51-64.39h19.41q9.33,0,12.19,3.09T352,337l-9.67,49.73H367l10.16-52.3Q380.24,318.5,372.48,311.37Zm0,0q-7.75-7.12-28.18-7.12H322.66l5.81-29.88H304.18L282.34,386.76h24.29l12.51-64.39h19.41q9.33,0,12.19,3.09T352,337l-9.67,49.73H367l10.16-52.3Q380.24,318.5,372.48,311.37Zm-94.46,4q-9.74-11.16-31-11.15H200L178.11,416.64h24.48l5.81-29.88h21q13.88,0,22.84-2.92a43.26,43.26,0,0,0,16.3-9.77,48.85,48.85,0,0,0,15.37-27.54Q287.77,326.55,278,315.4Zm-19.44,29.42q-2.55,13.05-9.79,18.63t-22,5.57h-14.9L221,322h16.77q14,0,18.6,5.16T258.58,344.82ZM278,315.4q-9.74-11.16-31-11.15H200L178.11,416.64h24.48l5.81-29.88h21q13.88,0,22.84-2.92a43.26,43.26,0,0,0,16.3-9.77,48.85,48.85,0,0,0,15.37-27.54Q287.77,326.55,278,315.4Zm-19.44,29.42q-2.55,13.05-9.79,18.63t-22,5.57h-14.9L221,322h16.77q14,0,18.6,5.16T258.58,344.82Zm113.9-33.45q-7.75-7.12-28.18-7.12H322.66l5.81-29.88H304.18L282.34,386.76h24.29l12.51-64.39h19.41q9.33,0,12.19,3.09T352,337l-9.67,49.73H367l10.16-52.3Q380.24,318.5,372.48,311.37Zm0,0q-7.75-7.12-28.18-7.12H322.66l5.81-29.88H304.18L282.34,386.76h24.29l12.51-64.39h19.41q9.33,0,12.19,3.09T352,337l-9.67,49.73H367l10.16-52.3Q380.24,318.5,372.48,311.37Zm-94.46,4q-9.74-11.16-31-11.15H200L178.11,416.64h24.48l5.81-29.88h21q13.88,0,22.84-2.92a43.26,43.26,0,0,0,16.3-9.77,48.85,48.85,0,0,0,15.37-27.54Q287.77,326.55,278,315.4Zm-19.44,29.42q-2.55,13.05-9.79,18.63t-22,5.57h-14.9L221,322h16.77q14,0,18.6,5.16T258.58,344.82ZM278,315.4q-9.74-11.16-31-11.15H200L178.11,416.64h24.48l5.81-29.88h21q13.88,0,22.84-2.92a43.26,43.26,0,0,0,16.3-9.77,48.85,48.85,0,0,0,15.37-27.54Q287.77,326.55,278,315.4Zm-19.44,29.42q-2.55,13.05-9.79,18.63t-22,5.57h-14.9L221,322h16.77q14,0,18.6,5.16T258.58,344.82ZM278,315.4q-9.74-11.16-31-11.15H200L178.11,416.64h24.48l5.81-29.88h21q13.88,0,22.84-2.92a43.26,43.26,0,0,0,16.3-9.77,48.85,48.85,0,0,0,15.37-27.54Q287.77,326.55,278,315.4Zm-19.44,29.42q-2.55,13.05-9.79,18.63t-22,5.57h-14.9L221,322h16.77q14,0,18.6,5.16T258.58,344.82Z" transform="translate(-101.8 -228.87)"/><path class="cls-3" d="M252.93,330.24c2,2.24,2.41,7,1.1,13.7-1.46,7.52-4.17,12.85-8.06,15.84s-10.45,4.62-19.23,4.62h-9.28l7.34-37.79h13C248.11,326.61,251.71,328.88,252.93,330.24Z" transform="translate(-101.8 -228.87)"/><path class="cls-3" d="M278,315.4q-9.74-11.16-31-11.15H200L178.11,416.64h24.48l5.81-29.88h21q13.88,0,22.84-2.92a43.26,43.26,0,0,0,16.3-9.77,48.85,48.85,0,0,0,15.37-27.54Q287.77,326.55,278,315.4Zm-19.44,29.42q-2.55,13.05-9.79,18.63t-22,5.57h-14.9L221,322h16.77q14,0,18.6,5.16T258.58,344.82Zm113.9-33.45q-7.75-7.12-28.18-7.12H322.66l5.81-29.88H304.18L282.34,386.76h24.29l12.51-64.39h19.41q9.33,0,12.19,3.09T352,337l-9.67,49.73H367l10.16-52.3Q380.24,318.5,372.48,311.37Zm0,0q-7.75-7.12-28.18-7.12H322.66l5.81-29.88H304.18L282.34,386.76h24.29l12.51-64.39h19.41q9.33,0,12.19,3.09T352,337l-9.67,49.73H367l10.16-52.3Q380.24,318.5,372.48,311.37Zm-94.46,4q-9.74-11.16-31-11.15H200L178.11,416.64h24.48l5.81-29.88h21q13.88,0,22.84-2.92a43.26,43.26,0,0,0,16.3-9.77,48.85,48.85,0,0,0,15.37-27.54Q287.77,326.55,278,315.4Zm-19.44,29.42q-2.55,13.05-9.79,18.63t-22,5.57h-14.9L221,322h16.77q14,0,18.6,5.16T258.58,344.82ZM278,315.4q-9.74-11.16-31-11.15H200L178.11,416.64h24.48l5.81-29.88h21q13.88,0,22.84-2.92a43.26,43.26,0,0,0,16.3-9.77,48.85,48.85,0,0,0,15.37-27.54Q287.77,326.55,278,315.4Zm-19.44,29.42q-2.55,13.05-9.79,18.63t-22,5.57h-14.9L221,322h16.77q14,0,18.6,5.16T258.58,344.82Zm113.9-33.45q-7.75-7.12-28.18-7.12H322.66l5.81-29.88H304.18L282.34,386.76h24.29l12.51-64.39h19.41q9.33,0,12.19,3.09T352,337l-9.67,49.73H367l10.16-52.3Q380.24,318.5,372.48,311.37Zm0,0q-7.75-7.12-28.18-7.12H322.66l5.81-29.88H304.18L282.34,386.76h24.29l12.51-64.39h19.41q9.33,0,12.19,3.09T352,337l-9.67,49.73H367l10.16-52.3Q380.24,318.5,372.48,311.37Zm-94.46,4q-9.74-11.16-31-11.15H200L178.11,416.64h24.48l5.81-29.88h21q13.88,0,22.84-2.92a43.26,43.26,0,0,0,16.3-9.77,48.85,48.85,0,0,0,15.37-27.54Q287.77,326.55,278,315.4Zm-19.44,29.42q-2.55,13.05-9.79,18.63t-22,5.57h-14.9L221,322h16.77q14,0,18.6,5.16T258.58,344.82ZM278,315.4q-9.74-11.16-31-11.15H200L178.11,416.64h24.48l5.81-29.88h21q13.88,0,22.84-2.92a43.26,43.26,0,0,0,16.3-9.77,48.85,48.85,0,0,0,15.37-27.54Q287.77,326.55,278,315.4Zm-19.44,29.42q-2.55,13.05-9.79,18.63t-22,5.57h-14.9L221,322h16.77q14,0,18.6,5.16T258.58,344.82Zm113.9-33.45q-7.75-7.12-28.18-7.12H322.66l5.81-29.88H304.18L282.34,386.76h24.29l12.51-64.39h19.41q9.33,0,12.19,3.09T352,337l-9.67,49.73H367l10.16-52.3Q380.24,318.5,372.48,311.37Zm96.65,4q-9.75-11.16-31-11.15H391.05L369.21,416.64h24.48l5.81-29.88h21q13.89,0,22.84-2.92a43.26,43.26,0,0,0,16.3-9.77A48.79,48.79,0,0,0,475,346.53Q478.88,326.55,469.13,315.4Zm-19.45,29.42q-2.54,13.05-9.78,18.63T417.84,369H403l9.14-47h16.77q14,0,18.61,5.16T449.68,344.82Zm-20.82-18.21h-13l-7.34,37.79h9.28c8.78,0,15.25-1.56,19.23-4.62s6.6-8.32,8.07-15.84c1.3-6.72.92-11.46-1.11-13.7C442.81,328.88,439.21,326.61,428.86,326.61Zm-56.38-15.24q-7.75-7.12-28.18-7.12H322.66l5.81-29.88H304.18L282.34,386.76h24.29l12.51-64.39h19.41q9.33,0,12.19,3.09T352,337l-9.67,49.73H367l10.16-52.3Q380.24,318.5,372.48,311.37Zm-94.46,4q-9.74-11.16-31-11.15H200L178.11,416.64h24.48l5.81-29.88h21q13.88,0,22.84-2.92a43.26,43.26,0,0,0,16.3-9.77,48.85,48.85,0,0,0,15.37-27.54Q287.77,326.55,278,315.4Zm-19.44,29.42q-2.55,13.05-9.79,18.63t-22,5.57h-14.9L221,322h16.77q14,0,18.6,5.16T258.58,344.82Zm179.56-40.57H391.05L369.21,416.64h24.48l5.81-29.88h21q13.89,0,22.84-2.92a43.26,43.26,0,0,0,16.3-9.77A48.79,48.79,0,0,0,475,346.53q3.88-20-5.86-31.13T438.14,304.25Zm11.54,40.57q-2.54,13.05-9.78,18.63T417.84,369H403l9.14-47h16.77q14,0,18.61,5.16T449.68,344.82ZM324.11,250C211,250,119.23,296.5,119.23,353.84S211,457.67,324.11,457.67,529,411.18,529,353.84,437.26,250,324.11,250Zm155.42,97.41a53.61,53.61,0,0,1-16.77,30,48.19,48.19,0,0,1-18,10.78c-6.41,2.09-14.58,3.15-24.28,3.15H403.32l-5.08,26.14a4.64,4.64,0,0,1-4.55,3.74H369.21a4.62,4.62,0,0,1-4.54-5.51l4.89-25.17a4.59,4.59,0,0,1-2.59.8H342.29a4.63,4.63,0,0,1-4.54-5.51l9.66-49.73c.95-4.89.38-7.07-.06-7.54-.06-.07-1.58-1.61-8.8-1.61H323l-11.78,60.64a4.63,4.63,0,0,1-4.54,3.75H282.34a4.65,4.65,0,0,1-4.55-5.51L281.86,365a54.74,54.74,0,0,1-10.21,12.51,47.9,47.9,0,0,1-18,10.78c-6.4,2.09-14.57,3.15-24.27,3.15H212.21l-5.08,26.14a4.62,4.62,0,0,1-4.54,3.74H178.11a4.63,4.63,0,0,1-4.55-5.51l21.85-112.4a4.63,4.63,0,0,1,4.54-3.74H247c15.5,0,27.1,4.29,34.48,12.74a32.14,32.14,0,0,1,7.46,16l10.67-54.87a4.63,4.63,0,0,1,4.54-3.74h24.29a4.62,4.62,0,0,1,4.54,5.51l-4.73,24.37h16c15,0,25.2,2.73,31.31,8.34,4.2,3.85,6.52,9.12,6.95,15.75l3.95-20.35a4.64,4.64,0,0,1,4.54-3.74h47.09c15.49,0,27.09,4.29,34.47,12.73S482.39,332.68,479.53,347.42Zm-50.67-20.81h-13l-7.34,37.79h9.28c8.78,0,15.25-1.56,19.23-4.62s6.6-8.32,8.07-15.84c1.3-6.72.92-11.46-1.11-13.7C442.81,328.88,439.21,326.61,428.86,326.61Zm-56.38-15.24q-7.75-7.12-28.18-7.12H322.66l5.81-29.88H304.18L282.34,386.76h24.29l12.51-64.39h19.41q9.33,0,12.19,3.09T352,337l-9.67,49.73H367l10.16-52.3Q380.24,318.5,372.48,311.37Zm-94.46,4q-9.74-11.16-31-11.15H200L178.11,416.64h24.48l5.81-29.88h21q13.88,0,22.84-2.92a43.26,43.26,0,0,0,16.3-9.77,48.85,48.85,0,0,0,15.37-27.54Q287.77,326.55,278,315.4Zm-19.44,29.42q-2.55,13.05-9.79,18.63t-22,5.57h-14.9L221,322h16.77q14,0,18.6,5.16T258.58,344.82ZM469.13,315.4q-9.75-11.16-31-11.15H391.05L369.21,416.64h24.48l5.81-29.88h21q13.89,0,22.84-2.92a43.26,43.26,0,0,0,16.3-9.77A48.79,48.79,0,0,0,475,346.53Q478.88,326.55,469.13,315.4Zm-19.45,29.42q-2.54,13.05-9.78,18.63T417.84,369H403l9.14-47h16.77q14,0,18.61,5.16T449.68,344.82Zm-20.82-18.21h-13l-7.34,37.79h9.28c8.78,0,15.25-1.56,19.23-4.62s6.6-8.32,8.07-15.84c1.3-6.72.92-11.46-1.11-13.7C442.81,328.88,439.21,326.61,428.86,326.61ZM278,315.4q-9.74-11.16-31-11.15H200L178.11,416.64h24.48l5.81-29.88h21q13.88,0,22.84-2.92a43.26,43.26,0,0,0,16.3-9.77,48.85,48.85,0,0,0,15.37-27.54Q287.77,326.55,278,315.4Zm-19.44,29.42q-2.55,13.05-9.79,18.63t-22,5.57h-14.9L221,322h16.77q14,0,18.6,5.16T258.58,344.82Zm113.9-33.45q-7.75-7.12-28.18-7.12H322.66l5.81-29.88H304.18L282.34,386.76h24.29l12.51-64.39h19.41q9.33,0,12.19,3.09T352,337l-9.67,49.73H367l10.16-52.3Q380.24,318.5,372.48,311.37Zm0,0q-7.75-7.12-28.18-7.12H322.66l5.81-29.88H304.18L282.34,386.76h24.29l12.51-64.39h19.41q9.33,0,12.19,3.09T352,337l-9.67,49.73H367l10.16-52.3Q380.24,318.5,372.48,311.37Zm-94.46,4q-9.74-11.16-31-11.15H200L178.11,416.64h24.48l5.81-29.88h21q13.88,0,22.84-2.92a43.26,43.26,0,0,0,16.3-9.77,48.85,48.85,0,0,0,15.37-27.54Q287.77,326.55,278,315.4Zm-19.44,29.42q-2.55,13.05-9.79,18.63t-22,5.57h-14.9L221,322h16.77q14,0,18.6,5.16T258.58,344.82ZM278,315.4q-9.74-11.16-31-11.15H200L178.11,416.64h24.48l5.81-29.88h21q13.88,0,22.84-2.92a43.26,43.26,0,0,0,16.3-9.77,48.85,48.85,0,0,0,15.37-27.54Q287.77,326.55,278,315.4Zm-19.44,29.42q-2.55,13.05-9.79,18.63t-22,5.57h-14.9L221,322h16.77q14,0,18.6,5.16T258.58,344.82Zm113.9-33.45q-7.75-7.12-28.18-7.12H322.66l5.81-29.88H304.18L282.34,386.76h24.29l12.51-64.39h19.41q9.33,0,12.19,3.09T352,337l-9.67,49.73H367l10.16-52.3Q380.24,318.5,372.48,311.37Zm0,0q-7.75-7.12-28.18-7.12H322.66l5.81-29.88H304.18L282.34,386.76h24.29l12.51-64.39h19.41q9.33,0,12.19,3.09T352,337l-9.67,49.73H367l10.16-52.3Q380.24,318.5,372.48,311.37Zm-94.46,4q-9.74-11.16-31-11.15H200L178.11,416.64h24.48l5.81-29.88h21q13.88,0,22.84-2.92a43.26,43.26,0,0,0,16.3-9.77,48.85,48.85,0,0,0,15.37-27.54Q287.77,326.55,278,315.4Zm-19.44,29.42q-2.55,13.05-9.79,18.63t-22,5.57h-14.9L221,322h16.77q14,0,18.6,5.16T258.58,344.82ZM278,315.4q-9.74-11.16-31-11.15H200L178.11,416.64h24.48l5.81-29.88h21q13.88,0,22.84-2.92a43.26,43.26,0,0,0,16.3-9.77,48.85,48.85,0,0,0,15.37-27.54Q287.77,326.55,278,315.4Zm-19.44,29.42q-2.55,13.05-9.79,18.63t-22,5.57h-14.9L221,322h16.77q14,0,18.6,5.16T258.58,344.82ZM278,315.4q-9.74-11.16-31-11.15H200L178.11,416.64h24.48l5.81-29.88h21q13.88,0,22.84-2.92a43.26,43.26,0,0,0,16.3-9.77,48.85,48.85,0,0,0,15.37-27.54Q287.77,326.55,278,315.4Zm-19.44,29.42q-2.55,13.05-9.79,18.63t-22,5.57h-14.9L221,322h16.77q14,0,18.6,5.16T258.58,344.82Z" transform="translate(-101.8 -228.87)"/><path id="path3486" class="cls-4" d="M278,315.4q-9.74-11.16-31-11.15H200L178.11,416.64h24.48l5.81-29.88h21q13.88,0,22.84-2.92a43.26,43.26,0,0,0,16.3-9.77,48.85,48.85,0,0,0,15.37-27.54Q287.77,326.55,278,315.4Zm-19.44,29.42q-2.55,13.05-9.79,18.63t-22,5.57h-14.9L221,322h16.77q14,0,18.6,5.16T258.58,344.82Z" transform="translate(-101.8 -228.87)"/><path class="cls-4" d="M377.13,334.46,367,386.76H342.29L352,337q1.65-8.49-1.22-11.57t-12.19-3.09H319.14l-12.51,64.39H282.34l21.84-112.39h24.29l-5.81,29.88H344.3q20.43,0,28.18,7.12T377.13,334.46Z" transform="translate(-101.8 -228.87)"/><path id="path3502" class="cls-4" d="M469.13,315.4q-9.75-11.16-31-11.15H391.05L369.21,416.64h24.48l5.81-29.88h21q13.89,0,22.84-2.92a43.26,43.26,0,0,0,16.3-9.77A48.79,48.79,0,0,0,475,346.53Q478.88,326.55,469.13,315.4Zm-19.45,29.42q-2.54,13.05-9.78,18.63T417.84,369H403l9.14-47h16.77q14,0,18.61,5.16T449.68,344.82Z" transform="translate(-101.8 -228.87)"/></g><path class="cls-5" d="M293.25,722.91H262.53q-1.54-77.77-8.94-146.73h0L206.54,722.91h-23.4L136.61,576.18h0q-5.13,66-6.48,146.73H101.8q2.73-98.19,13.61-184.13h38.24L198,674h0l44.59-135.26H279q11.92,100.59,14.12,184.13Z" transform="translate(-101.8 -228.87)"/><path class="cls-5" d="M426.57,587.07Q407.84,689,377.05,735.48q-23.91,35.71-52.49,35.65a51,51,0,0,1-18.73-4.54V750.2a92,92,0,0,0,13,.77,30.68,30.68,0,0,0,21.45-7.38A26.8,26.8,0,0,0,350,723.43a135,135,0,0,0-7.58-31.37l-33.71-105h30.14l24.24,78.55q8.16,26.76,6.8,37.33a513.72,513.72,0,0,0,27.74-115.88Z" transform="translate(-101.8 -228.87)"/><path class="cls-6" d="M561.18,671.84a49,49,0,0,1-17.11,38.5,67.5,67.5,0,0,1-46,15,92.18,92.18,0,0,1-52.24-16.85l7.91-15.82a89,89,0,0,0,39.4,10.89,41.4,41.4,0,0,0,25.93-7.32,25.29,25.29,0,0,0,10-20.48c0-10.89-7.58-20.22-21.58-28.06-13-7.13-38.89-21.91-38.89-21.91a44,44,0,0,1-21-38.89,45.94,45.94,0,0,1,15.69-36.16,58.74,58.74,0,0,1,40.37-13.81,83.49,83.49,0,0,1,46.47,13.68l-6.67,15.3a89,89,0,0,0-35.32-7.65,31.54,31.54,0,0,0-21.78,6.48,23,23,0,0,0-8.23,17.5c0,10.89,7.78,20.35,22.1,28.32,13,7.06,39.4,22.17,39.4,22.17,14.39,10.17,21.52,21.06,21.52,38.88Z" transform="translate(-101.8 -228.87)"/><path class="cls-7" d="M616.08,686c-7.39-12-11.15-31.23-11.15-57.74q0-69.62,42.19-69.54a35.33,35.33,0,0,1,32.41,16.59q11.21,18,11.14,57.29,0,70.13-42.12,70.06a35.45,35.45,0,0,1-32.41-16.59Zm109.33,41.29-33.83-16.66a63,63,0,0,0,8.43-8.23q21.51-25.33,21.51-75,0-91.4-71.29-91.39a67.68,67.68,0,0,0-54.83,23.33Q574,584.8,574,634.12t19,71.29c11.54,13.61,29,20.48,52.44,20.48a85.36,85.36,0,0,0,24-3.24l43.94,25.6,12-20.67Z" transform="translate(-101.8 -228.87)"/><polygon class="cls-6" points="733.79 494.04 646.49 494.04 646.49 309.92 675.85 309.92 675.85 471.36 733.79 471.36 733.79 494.04 733.79 494.04"/><path class="cls-6" d="M856.52,722.85h4.86V704.12h6.49v-3.83H850v3.83h6.48v18.73Zm37.08,0h4.6V700.29h-6.94l-5.64,15.43-6.09-15.43h-6.48v22.56h4.34V705.74h0l6.48,17.11h3.31l6.48-17.11v17.11Z" transform="translate(-101.8 -228.87)"/><path class="cls-8" d="M872.47,477.15a102.69,102.69,0,0,0-43,6.48c-3.3,1.36-8.62,1.36-9.07,5.57,1.75,1.75,1.94,4.67,3.56,7.13a51.13,51.13,0,0,0,11.48,13.55c4.66,3.56,9.33,7.13,14.25,10.24,8.62,5.31,18.41,8.42,26.77,13.8,4.93,3.11,9.79,7.07,14.71,10.44,2.4,1.75,4,4.66,7.07,5.77v-.65c-1.56-2-2-4.93-3.57-7.13l-6.48-6.48a107,107,0,0,0-23.07-22.49c-7.13-4.93-22.68-11.6-25.54-19.44l-.45-.46a87.31,87.31,0,0,0,15.3-3.63c7.58-1.94,14.45-1.49,22.16-3.5,3.57-.9,7.13-2,10.69-3.11v-2c-4-4-6.87-9.33-11.08-13a303.19,303.19,0,0,0-36.62-27.35c-6.87-4.41-15.75-7.32-23.07-11.08-2.66-1.36-7.06-2-8.62-4.28a90.12,90.12,0,0,1-9.14-17.11,406.23,406.23,0,0,1-18.14-38.89,243.54,243.54,0,0,0-11.22-25.86,223.92,223.92,0,0,0-86.13-83.21,104.24,104.24,0,0,0-28.39-9.08c-5.51,0-11.08-.71-16.59-.9A87.9,87.9,0,0,1,628,242.73c-13-8-45.37-25.34-54.57-2.46-6,14.51,8.88,28.71,14,36A106.22,106.22,0,0,1,598.71,293c1.55,3.82,2,7.84,3.56,11.79a272.1,272.1,0,0,0,11.54,29.82,109.23,109.23,0,0,0,8.23,13.8c1.75,2.46,4.86,3.56,5.51,7.58a63.93,63.93,0,0,0-5.06,16.66c-8,25.15-4.92,56.26,6.48,74.73,3.5,5.57,12,17.82,23.27,13,10-4,7.78-16.66,10.69-27.74.65-2.72,0-4.47,1.49-6.48v.39c3.12,6.48,6.49,12.25,9.14,18.47a127.43,127.43,0,0,0,28.78,30.2c5.31,4,9.53,10.89,16.2,13.35v-.39h-.45a26,26,0,0,0-5.12-4.47,106.28,106.28,0,0,1-11.54-13.35,280.81,280.81,0,0,1-24.82-40.51c-3.57-6.93-6.48-14.52-9.53-21.38-1.36-2.66-1.36-6.49-3.56-8a78.11,78.11,0,0,0-10.83,14.91,123.16,123.16,0,0,0-6.48,33.57c-.9,0-.45,0-.9.46-7.07-1.82-9.53-9.14-12.19-15.36a96.32,96.32,0,0,1-2-59.37c1.56-4.67,8.23-19.44,5.51-23.79-1.3-4.27-5.77-6.48-8.17-10a83.45,83.45,0,0,1-8-14.2c-5.31-12.5-8-26.24-13.74-38.88A125.14,125.14,0,0,0,595.6,270.6a108.62,108.62,0,0,1-12.19-17.31c-1.1-2.46-2.66-6.48-.91-9.14a3.57,3.57,0,0,1,3.12-2.91c2.91-2.46,11.08.65,14,2A111.11,111.11,0,0,1,622,254.78c3.11,2.21,6.48,6.48,10.37,7.52h4.66c7.13,1.56,15.11.46,21.78,2.46a140.15,140.15,0,0,1,31.95,15.36A196.9,196.9,0,0,1,760,356.21c2.72,5.06,3.82,9.79,6.48,15.1,4.66,10.89,10.43,22,15.1,32.41a148,148,0,0,0,15.75,29.81c3.37,4.67,16.65,7.13,22.62,9.59a158,158,0,0,1,15.36,6.48c7.51,4.67,15,10,22.16,15.11,3.5,2.72,14.65,8.23,15.3,13Z" transform="translate(-101.8 -228.87)"/><path class="cls-8" d="M646.21,283.82a33.62,33.62,0,0,0-9.14,1.17v.45h.46a81,81,0,0,0,7.13,9.07c1.75,3.57,3.3,7.13,5.05,10.7l.46-.46a12.5,12.5,0,0,0,4.66-11.08c-1.29-1.56-1.55-3.11-2.65-4.67s-4.22-3.3-6-5.12Z" transform="translate(-101.8 -228.87)"/></svg>