<svg xmlns:xlink="http://www.w3.org/1999/xlink" xmlns="http://www.w3.org/2000/svg" id="Layer_1" data-name="Layer 1" viewBox="0 0 99 98.08" width="99"  height="98.08" ><defs><style>.cls-1{fill:#21609b;fill-rule:evenodd;}</style></defs><path class="cls-1" d="M187.7,408.26l-.44,1.15c-7.55,14.7-20.93,23.73-40,24.12a55.8,55.8,0,0,1-23-4.59,59.28,59.28,0,0,1-27.57-26c-7.9-15.29-9.33-36.57,7.09-52.46.25,0-2,3.45-1.74,3.45l-.45,1.48c-11.83,37,24.62,68.78,60.06,65.16,8.52-.89,19.38-5.55,26-12.27Zm0,0Z" transform="translate(-91 -335.46)"/><path class="cls-1" d="M166.26,392.94A33.86,33.86,0,0,0,190,383c-4.83,12.25-18.8,20.12-37.53,17.62-15.68-2.11-30.62-17.89-32.16-33.71-1.13-11.51,2.88-18.37,9.5-26.71a27.84,27.84,0,0,0-3.37,9.86c-2.52,24.91,19.88,42.77,39.82,42.9Zm0,0Z" transform="translate(-91 -335.46)"/><path class="cls-1" d="M189.11,362c-1.39,3.18-9.37,9.19-12.89,9.93-14,3-22.89-3.64-27.57-11.17a34.44,34.44,0,0,1-2.22-5c-1.81-6.17-1-15.51,4.43-20.34a25.41,25.41,0,0,0-1,13.4,30.33,30.33,0,0,0,3.69,8.07c2.89,4.2,4.72,5.21,8.43,7.44a22.67,22.67,0,0,0,4.24,2c3.51,1,10.93,3.76,22.9-4.38Zm0,0Z" transform="translate(-91 -335.46)"/></svg>