<svg xmlns:xlink="http://www.w3.org/1999/xlink" xmlns="http://www.w3.org/2000/svg" id="Layer_1" data-name="Layer 1" viewBox="0 0 92 72.78" width="92"  height="72.78" ><defs><style>.cls-1,.cls-3{fill:#324a5e;}.cls-1,.cls-5,.cls-6{fill-rule:evenodd;}.cls-2{fill:#21313e;}.cls-4,.cls-6{fill:#fff;}.cls-5{fill:#253645;}</style></defs><path id="path8" class="cls-1" d="M883.27,414.67H851.1a2.1,2.1,0,0,1-2.15-2.06h0a2.12,2.12,0,0,1,2.15-2.16h32.17a2.18,2.18,0,0,1,2.16,2.16h0A2.17,2.17,0,0,1,883.27,414.67Z" transform="translate(-819.5 -347.61)"/><rect id="rect10" class="cls-2" x="39.01" y="51.67" width="17.26" height="11.16"/><rect id="rect12" class="cls-3" x="7.03" width="81.31" height="56.08"/><rect id="rect14" class="cls-4" x="12.66" y="5.63" width="70.06" height="44.82"/><path id="path16" class="cls-5" d="M909.81,387.75H892v28h17.82ZM902.12,418a1.22,1.22,0,1,0-1.22,1.22A1.24,1.24,0,0,0,902.12,418ZM898,386a.24.24,0,0,0,.28.28h5.25a.28.28,0,1,0,0-.56h-5.25A.24.24,0,0,0,898,386Zm13.5.37V418a2.49,2.49,0,0,1-2.44,2.44H892.75a2.48,2.48,0,0,1-2.44-2.44V386.34a2.47,2.47,0,0,1,2.44-2.43h16.31a2.48,2.48,0,0,1,2.44,2.43Z" transform="translate(-819.5 -347.61)"/><rect id="rect18" class="cls-4" x="72.3" y="39.86" width="18.2" height="28.7"/><path id="path20" class="cls-6" d="M900.9,416.64a1.27,1.27,0,0,0-1.22,1.31,1.22,1.22,0,1,0,1.22-1.31Z" transform="translate(-819.5 -347.61)"/><path id="path22" class="cls-6" d="M898.28,386.25h5.25a.28.28,0,1,0,0-.56h-5.25a.28.28,0,0,0,0,.56Z" transform="translate(-819.5 -347.61)"/><path id="path24" class="cls-5" d="M844.54,387.75H821.19v28h23.35v-28ZM827.19,386a.25.25,0,0,0,.28.28h10.79c.19,0,.37-.09.37-.28s-.18-.28-.37-.28H827.47A.25.25,0,0,0,827.19,386Zm19.13.37V418a2.5,2.5,0,0,1-2.53,2.44H821.94A2.49,2.49,0,0,1,819.5,418V386.34a2.48,2.48,0,0,1,2.44-2.43h21.85a2.49,2.49,0,0,1,2.53,2.43Z" transform="translate(-819.5 -347.61)"/><path id="path26" class="cls-6" d="M832.91,416.64a1.21,1.21,0,0,0-1.22,1.31,1.19,1.19,0,0,0,1.22,1.22,1.24,1.24,0,0,0,1.22-1.22A1.26,1.26,0,0,0,832.91,416.64Z" transform="translate(-819.5 -347.61)"/><path id="path28" class="cls-6" d="M827.47,386.25h10.79c.19,0,.37-.09.37-.28s-.18-.28-.37-.28H827.47a.28.28,0,0,0,0,.56Z" transform="translate(-819.5 -347.61)"/><rect id="rect30" class="cls-4" x="1.69" y="40.14" width="23.35" height="28.04"/></svg>