<svg id="Layer_1" data-name="Layer 1" xmlns="http://www.w3.org/2000/svg" viewBox="0 0 36.14 35.88"><defs><style>.cls-1{fill:#646464;}.cls-2{fill:#67c187;}</style></defs><g id="Layer_2" data-name="Layer 2"><g id="Group_97" data-name="Group 97"><path id="Path_619" data-name="Path 619" class="cls-1" d="M21.72,32.79l-.9.2a1.45,1.45,0,0,0,.53,2.86q.54-.1,1.08-.24a1.45,1.45,0,0,0-.7-2.82Z" transform="translate(0 0.01)"/><path id="Path_620" data-name="Path 620" class="cls-1" d="M32.47,13.31a1.45,1.45,0,0,0,2.75-.91c-.11-.35-.24-.7-.37-1a1.45,1.45,0,1,0-2.7,1.08h0C32.26,12.73,32.37,13,32.47,13.31Z" transform="translate(0 0.01)"/><path id="Path_621" data-name="Path 621" class="cls-1" d="M26.44,30.71c-.25.17-.52.34-.78.49a1.45,1.45,0,1,0,1.42,2.53l0,0c.31-.18.63-.37.93-.57a1.46,1.46,0,0,0-1.6-2.43Z" transform="translate(0 0.01)"/><path id="Path_622" data-name="Path 622" class="cls-1" d="M36.13,17.37a1.46,1.46,0,1,0-2.91,0,.66.66,0,0,0,0,.14c0,.31,0,.62,0,.93a1.45,1.45,0,1,0,2.89.24,1.09,1.09,0,0,0,0-.18C36.14,18.11,36.14,17.74,36.13,17.37Z" transform="translate(0 0.01)"/><path id="Path_623" data-name="Path 623" class="cls-1" d="M32.23,26.89a1.46,1.46,0,0,0-2,.29h0c-.18.25-.38.49-.58.72A1.46,1.46,0,0,0,29.78,30l.11.08a1.45,1.45,0,0,0,1.94-.24c.23-.28.47-.57.69-.87A1.45,1.45,0,0,0,32.23,26.89Z" transform="translate(0 0.01)"/><path id="Path_624" data-name="Path 624" class="cls-1" d="M34.36,21.64a1.46,1.46,0,0,0-1.82.95c-.09.29-.19.59-.3.87a1.46,1.46,0,0,0,2.72,1c.13-.34.25-.69.36-1a1.45,1.45,0,0,0-1-1.82Z" transform="translate(0 0.01)"/><path id="Path_625" data-name="Path 625" class="cls-1" d="M15.38,33a14.66,14.66,0,0,1-3.72-1.18l-.05,0c-.27-.13-.55-.27-.82-.42h0a14.55,14.55,0,0,1-1.45-.9A15.16,15.16,0,0,1,5.67,9.35,15,15,0,0,1,9.4,5.63l0,0a15.18,15.18,0,0,1,17-.14L25.34,7.1c-.32.46-.12.79.43.74L30.7,7.4a.81.81,0,0,0,.77-.85.83.83,0,0,0,0-.22L30.11,1.56C30,1,29.59,1,29.27,1.42L28.13,3.06A18,18,0,0,0,15,.26c-.46.09-.92.18-1.37.3h-.06A17.91,17.91,0,0,0,3.61,7.24l-.06.07-.24.34-.39.57a.25.25,0,0,1,0,.07A17.94,17.94,0,0,0,0,18.85v0c0,.37,0,.73.08,1.1a.19.19,0,0,0,0,.07c0,.37.09.73.15,1.1a17.91,17.91,0,0,0,5.06,9.72l0,0h0a18.35,18.35,0,0,0,9.52,4.95A1.45,1.45,0,0,0,15.38,33Z" transform="translate(0 0.01)"/><path id="Path_626" data-name="Path 626" class="cls-2" d="M17.18,6.33A1.18,1.18,0,0,0,16,7.51V19.22l10.71,5.54a1.19,1.19,0,0,0,1.59-.51,1.17,1.17,0,0,0-.51-1.58l-9.44-4.88V7.51A1.17,1.17,0,0,0,17.18,6.33Z" transform="translate(0 0.01)"/></g></g></svg>