<svg id="Layer_1" data-name="Layer 1" xmlns="http://www.w3.org/2000/svg" viewBox="0 0 29.6 28.13"><defs><style>.cls-1{fill:rgba(0,0,0,0);}.cls-2{fill:#404040;}</style></defs><g id="Group_347" data-name="Group 347"><path id="Path_510" data-name="Path 510" class="cls-1" d="M297.54,253h20.8l-10.6,5.7Z" transform="translate(-292.84 -243.4)"/><path id="Path_511" data-name="Path 511" class="cls-1" d="M297.54,258.33h20.8l-10.6,5.7Z" transform="translate(-292.84 -243.4)"/><path id="Path_512" data-name="Path 512" class="cls-1" d="M297.54,264.93h20.8l-10.6,5.7Z" transform="translate(-292.84 -243.4)"/><path id="Path_0-3" data-name="Path 0-3" class="cls-2" d="M307.64,245.73l7.4,3.7c4.1,2,7.4,3.7,7.4,3.7s-3.3,1.7-14.8,7.4l-7.4-3.7c-4.1-2-7.4-3.7-7.4-3.7s3.3-1.7,7.4-3.7S307.64,245.73,307.64,245.73Zm-9.8,7.4,9.8,4.9,9.8-4.9-9.8-4.9s-2.2,1.1-4.9,2.5Zm-2,4s2.7,1.3,11.8,5.9l11.8-5.9,1.5.7c.8.4,1.5.8,1.5.8s-3.3,1.7-14.8,7.4l-7.4-3.7c-4.1-2-7.4-3.7-7.4-3.7s.7-.4,1.5-.8Zm0,5.5s2.7,1.3,11.8,5.9l11.8-5.9,1.5.7a7.44,7.44,0,0,1,1.5.8s-3.3,1.7-14.8,7.4l-7.4-3.7c-4.1-2-7.4-3.7-7.4-3.7s.6-.3,1.5-.8a11.71,11.71,0,0,0,1.5-.7Z" transform="translate(-292.84 -243.4)"/></g><g id="Group_348" data-name="Group 348"><circle id="Ellipse_127-27" data-name="Ellipse 127-27" class="cls-1" cx="22.91" cy="1.6" r="1.6"/><circle id="Ellipse_128-27" data-name="Ellipse 128-27" class="cls-1" cx="25.91" cy="3.2" r="0.6"/></g></svg>